# Converted/generated visual mesh for LIBERO obvious hazard prop
v 0.0000000 0.0000000 0.1200000
v 0.0185410 0.0000000 0.1170634
v 0.0174229 0.0063414 0.1170634
v 0.0142032 0.0119179 0.1170634
v 0.0092705 0.0160570 0.1170634
v 0.0032196 0.0182593 0.1170634
v -0.0032196 0.0182593 0.1170634
v -0.0092705 0.0160570 0.1170634
v -0.0142032 0.0119179 0.1170634
v -0.0174229 0.0063414 0.1170634
v -0.0185410 0.0000000 0.1170634
v -0.0174229 -0.0063414 0.1170634
v -0.0142032 -0.0119179 0.1170634
v -0.0092705 -0.0160570 0.1170634
v -0.0032196 -0.0182593 0.1170634
v 0.0032196 -0.0182593 0.1170634
v 0.0092705 -0.0160570 0.1170634
v 0.0142032 -0.0119179 0.1170634
v 0.0174229 -0.0063414 0.1170634
v 0.0352671 0.0000000 0.1085410
v 0.0331402 0.0120621 0.1085410
v 0.0270162 0.0226693 0.1085410
v 0.0176336 0.0305422 0.1085410
v 0.0061241 0.0347313 0.1085410
v -0.0061241 0.0347313 0.1085410
v -0.0176336 0.0305422 0.1085410
v -0.0270162 0.0226693 0.1085410
v -0.0331402 0.0120621 0.1085410
v -0.0352671 0.0000000 0.1085410
v -0.0331402 -0.0120621 0.1085410
v -0.0270162 -0.0226693 0.1085410
v -0.0176336 -0.0305422 0.1085410
v -0.0061241 -0.0347313 0.1085410
v 0.0061241 -0.0347313 0.1085410
v 0.0176336 -0.0305422 0.1085410
v 0.0270162 -0.0226693 0.1085410
v 0.0331402 -0.0120621 0.1085410
v 0.0485410 0.0000000 0.0952671
v 0.0456136 0.0166020 0.0952671
v 0.0371846 0.0312016 0.0952671
v 0.0242705 0.0420378 0.0952671
v 0.0084291 0.0478036 0.0952671
v -0.0084291 0.0478036 0.0952671
v -0.0242705 0.0420378 0.0952671
v -0.0371846 0.0312016 0.0952671
v -0.0456136 0.0166020 0.0952671
v -0.0485410 0.0000000 0.0952671
v -0.0456136 -0.0166020 0.0952671
v -0.0371846 -0.0312016 0.0952671
v -0.0242705 -0.0420378 0.0952671
v -0.0084291 -0.0478036 0.0952671
v 0.0084291 -0.0478036 0.0952671
v 0.0242705 -0.0420378 0.0952671
v 0.0371846 -0.0312016 0.0952671
v 0.0456136 -0.0166020 0.0952671
v 0.0570634 0.0000000 0.0785410
v 0.0536220 0.0195168 0.0785410
v 0.0437131 0.0366796 0.0785410
v 0.0285317 0.0494183 0.0785410
v 0.0099090 0.0561965 0.0785410
v -0.0099090 0.0561965 0.0785410
v -0.0285317 0.0494183 0.0785410
v -0.0437131 0.0366796 0.0785410
v -0.0536220 0.0195168 0.0785410
v -0.0570634 0.0000000 0.0785410
v -0.0536220 -0.0195168 0.0785410
v -0.0437131 -0.0366796 0.0785410
v -0.0285317 -0.0494183 0.0785410
v -0.0099090 -0.0561965 0.0785410
v 0.0099090 -0.0561965 0.0785410
v 0.0285317 -0.0494183 0.0785410
v 0.0437131 -0.0366796 0.0785410
v 0.0536220 -0.0195168 0.0785410
v 0.0600000 0.0000000 0.0600000
v 0.0563816 0.0205212 0.0600000
v 0.0459627 0.0385673 0.0600000
v 0.0300000 0.0519615 0.0600000
v 0.0104189 0.0590885 0.0600000
v -0.0104189 0.0590885 0.0600000
v -0.0300000 0.0519615 0.0600000
v -0.0459627 0.0385673 0.0600000
v -0.0563816 0.0205212 0.0600000
v -0.0600000 0.0000000 0.0600000
v -0.0563816 -0.0205212 0.0600000
v -0.0459627 -0.0385673 0.0600000
v -0.0300000 -0.0519615 0.0600000
v -0.0104189 -0.0590885 0.0600000
v 0.0104189 -0.0590885 0.0600000
v 0.0300000 -0.0519615 0.0600000
v 0.0459627 -0.0385673 0.0600000
v 0.0563816 -0.0205212 0.0600000
v 0.0570634 0.0000000 0.0414590
v 0.0536220 0.0195168 0.0414590
v 0.0437131 0.0366796 0.0414590
v 0.0285317 0.0494183 0.0414590
v 0.0099090 0.0561965 0.0414590
v -0.0099090 0.0561965 0.0414590
v -0.0285317 0.0494183 0.0414590
v -0.0437131 0.0366796 0.0414590
v -0.0536220 0.0195168 0.0414590
v -0.0570634 0.0000000 0.0414590
v -0.0536220 -0.0195168 0.0414590
v -0.0437131 -0.0366796 0.0414590
v -0.0285317 -0.0494183 0.0414590
v -0.0099090 -0.0561965 0.0414590
v 0.0099090 -0.0561965 0.0414590
v 0.0285317 -0.0494183 0.0414590
v 0.0437131 -0.0366796 0.0414590
v 0.0536220 -0.0195168 0.0414590
v 0.0485410 0.0000000 0.0247329
v 0.0456136 0.0166020 0.0247329
v 0.0371846 0.0312016 0.0247329
v 0.0242705 0.0420378 0.0247329
v 0.0084291 0.0478036 0.0247329
v -0.0084291 0.0478036 0.0247329
v -0.0242705 0.0420378 0.0247329
v -0.0371846 0.0312016 0.0247329
v -0.0456136 0.0166020 0.0247329
v -0.0485410 0.0000000 0.0247329
v -0.0456136 -0.0166020 0.0247329
v -0.0371846 -0.0312016 0.0247329
v -0.0242705 -0.0420378 0.0247329
v -0.0084291 -0.0478036 0.0247329
v 0.0084291 -0.0478036 0.0247329
v 0.0242705 -0.0420378 0.0247329
v 0.0371846 -0.0312016 0.0247329
v 0.0456136 -0.0166020 0.0247329
v 0.0352671 0.0000000 0.0114590
v 0.0331402 0.0120621 0.0114590
v 0.0270162 0.0226693 0.0114590
v 0.0176336 0.0305422 0.0114590
v 0.0061241 0.0347313 0.0114590
v -0.0061241 0.0347313 0.0114590
v -0.0176336 0.0305422 0.0114590
v -0.0270162 0.0226693 0.0114590
v -0.0331402 0.0120621 0.0114590
v -0.0352671 0.0000000 0.0114590
v -0.0331402 -0.0120621 0.0114590
v -0.0270162 -0.0226693 0.0114590
v -0.0176336 -0.0305422 0.0114590
v -0.0061241 -0.0347313 0.0114590
v 0.0061241 -0.0347313 0.0114590
v 0.0176336 -0.0305422 0.0114590
v 0.0270162 -0.0226693 0.0114590
v 0.0331402 -0.0120621 0.0114590
v 0.0185410 0.0000000 0.0029366
v 0.0174229 0.0063414 0.0029366
v 0.0142032 0.0119179 0.0029366
v 0.0092705 0.0160570 0.0029366
v 0.0032196 0.0182593 0.0029366
v -0.0032196 0.0182593 0.0029366
v -0.0092705 0.0160570 0.0029366
v -0.0142032 0.0119179 0.0029366
v -0.0174229 0.0063414 0.0029366
v -0.0185410 0.0000000 0.0029366
v -0.0174229 -0.0063414 0.0029366
v -0.0142032 -0.0119179 0.0029366
v -0.0092705 -0.0160570 0.0029366
v -0.0032196 -0.0182593 0.0029366
v 0.0032196 -0.0182593 0.0029366
v 0.0092705 -0.0160570 0.0029366
v 0.0142032 -0.0119179 0.0029366
v 0.0174229 -0.0063414 0.0029366
v 0.0000000 0.0000000 0.0000000
f 1 2 3
f 1 3 4
f 1 4 5
f 1 5 6
f 1 6 7
f 1 7 8
f 1 8 9
f 1 9 10
f 1 10 11
f 1 11 12
f 1 12 13
f 1 13 14
f 1 14 15
f 1 15 16
f 1 16 17
f 1 17 18
f 1 18 19
f 1 19 2
f 2 20 21
f 2 21 3
f 3 21 22
f 3 22 4
f 4 22 23
f 4 23 5
f 5 23 24
f 5 24 6
f 6 24 25
f 6 25 7
f 7 25 26
f 7 26 8
f 8 26 27
f 8 27 9
f 9 27 28
f 9 28 10
f 10 28 29
f 10 29 11
f 11 29 30
f 11 30 12
f 12 30 31
f 12 31 13
f 13 31 32
f 13 32 14
f 14 32 33
f 14 33 15
f 15 33 34
f 15 34 16
f 16 34 35
f 16 35 17
f 17 35 36
f 17 36 18
f 18 36 37
f 18 37 19
f 19 37 20
f 19 20 2
f 20 38 39
f 20 39 21
f 21 39 40
f 21 40 22
f 22 40 41
f 22 41 23
f 23 41 42
f 23 42 24
f 24 42 43
f 24 43 25
f 25 43 44
f 25 44 26
f 26 44 45
f 26 45 27
f 27 45 46
f 27 46 28
f 28 46 47
f 28 47 29
f 29 47 48
f 29 48 30
f 30 48 49
f 30 49 31
f 31 49 50
f 31 50 32
f 32 50 51
f 32 51 33
f 33 51 52
f 33 52 34
f 34 52 53
f 34 53 35
f 35 53 54
f 35 54 36
f 36 54 55
f 36 55 37
f 37 55 38
f 37 38 20
f 38 56 57
f 38 57 39
f 39 57 58
f 39 58 40
f 40 58 59
f 40 59 41
f 41 59 60
f 41 60 42
f 42 60 61
f 42 61 43
f 43 61 62
f 43 62 44
f 44 62 63
f 44 63 45
f 45 63 64
f 45 64 46
f 46 64 65
f 46 65 47
f 47 65 66
f 47 66 48
f 48 66 67
f 48 67 49
f 49 67 68
f 49 68 50
f 50 68 69
f 50 69 51
f 51 69 70
f 51 70 52
f 52 70 71
f 52 71 53
f 53 71 72
f 53 72 54
f 54 72 73
f 54 73 55
f 55 73 56
f 55 56 38
f 56 74 75
f 56 75 57
f 57 75 76
f 57 76 58
f 58 76 77
f 58 77 59
f 59 77 78
f 59 78 60
f 60 78 79
f 60 79 61
f 61 79 80
f 61 80 62
f 62 80 81
f 62 81 63
f 63 81 82
f 63 82 64
f 64 82 83
f 64 83 65
f 65 83 84
f 65 84 66
f 66 84 85
f 66 85 67
f 67 85 86
f 67 86 68
f 68 86 87
f 68 87 69
f 69 87 88
f 69 88 70
f 70 88 89
f 70 89 71
f 71 89 90
f 71 90 72
f 72 90 91
f 72 91 73
f 73 91 74
f 73 74 56
f 74 92 93
f 74 93 75
f 75 93 94
f 75 94 76
f 76 94 95
f 76 95 77
f 77 95 96
f 77 96 78
f 78 96 97
f 78 97 79
f 79 97 98
f 79 98 80
f 80 98 99
f 80 99 81
f 81 99 100
f 81 100 82
f 82 100 101
f 82 101 83
f 83 101 102
f 83 102 84
f 84 102 103
f 84 103 85
f 85 103 104
f 85 104 86
f 86 104 105
f 86 105 87
f 87 105 106
f 87 106 88
f 88 106 107
f 88 107 89
f 89 107 108
f 89 108 90
f 90 108 109
f 90 109 91
f 91 109 92
f 91 92 74
f 92 110 111
f 92 111 93
f 93 111 112
f 93 112 94
f 94 112 113
f 94 113 95
f 95 113 114
f 95 114 96
f 96 114 115
f 96 115 97
f 97 115 116
f 97 116 98
f 98 116 117
f 98 117 99
f 99 117 118
f 99 118 100
f 100 118 119
f 100 119 101
f 101 119 120
f 101 120 102
f 102 120 121
f 102 121 103
f 103 121 122
f 103 122 104
f 104 122 123
f 104 123 105
f 105 123 124
f 105 124 106
f 106 124 125
f 106 125 107
f 107 125 126
f 107 126 108
f 108 126 127
f 108 127 109
f 109 127 110
f 109 110 92
f 110 128 129
f 110 129 111
f 111 129 130
f 111 130 112
f 112 130 131
f 112 131 113
f 113 131 132
f 113 132 114
f 114 132 133
f 114 133 115
f 115 133 134
f 115 134 116
f 116 134 135
f 116 135 117
f 117 135 136
f 117 136 118
f 118 136 137
f 118 137 119
f 119 137 138
f 119 138 120
f 120 138 139
f 120 139 121
f 121 139 140
f 121 140 122
f 122 140 141
f 122 141 123
f 123 141 142
f 123 142 124
f 124 142 143
f 124 143 125
f 125 143 144
f 125 144 126
f 126 144 145
f 126 145 127
f 127 145 128
f 127 128 110
f 128 146 147
f 128 147 129
f 129 147 148
f 129 148 130
f 130 148 149
f 130 149 131
f 131 149 150
f 131 150 132
f 132 150 151
f 132 151 133
f 133 151 152
f 133 152 134
f 134 152 153
f 134 153 135
f 135 153 154
f 135 154 136
f 136 154 155
f 136 155 137
f 137 155 156
f 137 156 138
f 138 156 157
f 138 157 139
f 139 157 158
f 139 158 140
f 140 158 159
f 140 159 141
f 141 159 160
f 141 160 142
f 142 160 161
f 142 161 143
f 143 161 162
f 143 162 144
f 144 162 163
f 144 163 145
f 145 163 146
f 145 146 128
f 164 147 146
f 164 148 147
f 164 149 148
f 164 150 149
f 164 151 150
f 164 152 151
f 164 153 152
f 164 154 153
f 164 155 154
f 164 156 155
f 164 157 156
f 164 158 157
f 164 159 158
f 164 160 159
f 164 161 160
f 164 162 161
f 164 163 162
f 164 146 163
