# https://github.com/mikedh/trimesh
v 0.02248030 -0.11363636 -0.07163873
v 0.03763182 -0.09848484 -0.08679024
v 0.03763182 -0.06818181 -0.05648721
v -0.00464326 -0.05269161 -0.05686923
v -0.02297424 -0.09848484 -0.10194176
v 0.02248030 -0.06818181 -0.10194176
v -0.01723323 -0.10775919 -0.04851731
v 0.01823723 -0.10781794 -0.04918440
v 0.03763182 -0.06818181 -0.08679024
v -0.02297424 -0.06818181 -0.10194176
v -0.02297424 -0.11363636 -0.07163873
v 0.02591851 -0.09466681 -0.05408214
v 0.00541750 -0.05297581 -0.05655391
v -0.00297310 -0.05229467 -0.06764880
v -0.03812576 -0.06818181 -0.05648721
v 0.00325444 -0.05255812 -0.06727170
v -0.03812576 -0.06818181 -0.08679024
v -0.03812576 -0.09848484 -0.05648721
v -0.03812576 -0.09848484 -0.08679024
f 5 2 1
f 6 2 5
f 8 1 2
f 8 7 1
f 9 3 2
f 9 2 6
f 10 6 5
f 11 5 1
f 11 1 7
f 12 8 2
f 12 2 3
f 12 3 8
f 13 8 3
f 13 4 7
f 13 7 8
f 13 3 9
f 14 6 10
f 14 4 13
f 15 7 4
f 16 14 13
f 16 13 9
f 16 9 6
f 16 6 14
f 17 14 10
f 17 10 5
f 17 15 4
f 17 4 14
f 18 11 7
f 18 7 15
f 18 15 17
f 19 18 17
f 19 17 5
f 19 5 11
f 19 11 18