# https://github.com/mikedh/trimesh
v 0.02540808 -0.18881119 -0.02382561
v 0.03763182 -0.18939394 -0.04133570
v 0.03763182 -0.14393939 -0.04133570
v -0.02367368 -0.14436094 -0.02341677
v -0.02297424 -0.18939394 -0.07163873
v 0.02506120 -0.14400553 -0.02349254
v -0.03812576 -0.18939394 -0.04133570
v 0.02248030 -0.15909091 -0.07163873
v -0.03812576 -0.14393939 -0.04133570
v -0.02398422 -0.18851236 -0.02420575
v 0.02248030 -0.18939394 -0.07163873
v -0.02297424 -0.14393939 -0.05648721
v -0.02297424 -0.15909091 -0.07163873
f 1 2 3
f 6 1 3
f 6 4 1
f 7 5 2
f 7 2 1
f 8 3 2
f 9 6 3
f 9 4 6
f 9 7 4
f 9 5 7
f 10 7 1
f 10 1 4
f 10 4 7
f 11 8 2
f 11 2 5
f 11 5 8
f 12 9 3
f 12 3 8
f 13 12 8
f 13 8 5
f 13 5 9
f 13 9 12