# https://github.com/mikedh/trimesh
v 0.02910432 -0.40101382 0.00462018
v 0.03763182 -0.40151515 -0.04133570
v 0.03763182 -0.34090909 -0.04133570
v -0.02837867 -0.34183998 0.00497127
v -0.03812576 -0.40151515 -0.04133570
v 0.02901192 -0.34132058 0.00501629
v -0.02828929 -0.40083422 0.00445223
v 0.00674417 -0.34065833 -0.05221560
v 0.01532612 -0.40110789 -0.04616360
v -0.03812576 -0.34090909 -0.04133570
v 0.01603155 -0.34070497 -0.04863758
v -0.01546645 -0.40051604 -0.04559194
v -0.01618016 -0.34057762 -0.04844036
f 1 2 3
f 5 2 1
f 6 1 3
f 6 4 1
f 7 5 1
f 7 1 4
f 7 4 5
f 8 3 2
f 9 8 2
f 9 2 5
f 10 5 4
f 10 4 6
f 11 6 3
f 11 3 8
f 12 9 5
f 12 8 9
f 13 5 10
f 13 12 5
f 13 8 12
f 13 10 6
f 13 11 8
f 13 6 11