# https://github.com/mikedh/trimesh
v 0.00614421 -0.34031401 0.03989484
v 0.00732879 -0.34090909 -0.02618418
v 0.00732879 -0.26515151 -0.02618418
v -0.03812576 -0.26515151 0.04957339
v -0.03812576 -0.32575757 0.04957339
v -0.02434041 -0.26506969 -0.02433469
v 0.00634309 -0.26520976 0.04215359
v -0.02611669 -0.34036255 0.02959833
v -0.02406303 -0.34105682 -0.02368417
v -0.01760509 -0.34015533 0.03724317
f 6 3 2
f 6 5 4
f 7 5 1
f 7 4 5
f 7 6 4
f 7 3 6
f 7 1 2
f 7 2 3
f 9 2 1
f 9 1 8
f 9 6 2
f 9 8 5
f 9 5 6
f 10 8 1
f 10 1 5
f 10 5 8