# https://github.com/mikedh/trimesh
v 0.03763182 -0.08333333 0.06472491
v 0.03763182 -0.05303030 -0.02618418
v 0.02913719 -0.05323269 0.06339727
v -0.03030892 -0.05359116 0.06426583
v -0.02453963 -0.08377224 -0.04113089
v -0.03812576 -0.05303030 -0.01103267
v 0.02719514 -0.08344474 -0.04170923
v -0.03812576 -0.08333333 0.06472491
v -0.02297424 -0.05303030 -0.04133570
v -0.03812576 -0.06818181 -0.04133570
v 0.02248030 -0.05303030 -0.04133570
f 1 2 3
f 1 3 4
f 6 3 2
f 6 4 3
f 7 2 1
f 7 1 5
f 8 5 1
f 8 1 4
f 8 4 6
f 9 6 2
f 10 8 6
f 10 5 8
f 10 6 9
f 10 9 7
f 10 7 5
f 11 9 2
f 11 2 7
f 11 7 9