# https://github.com/mikedh/trimesh
v 0.02248030 -0.50757575 0.04957339
v 0.03763182 -0.50757575 -0.01103267
v 0.03763182 -0.46212121 0.04957339
v -0.02297424 -0.46212121 0.06472491
v -0.03812576 -0.47727272 -0.01103267
v 0.02248030 -0.49242424 0.06472491
v 0.03763182 -0.50757575 0.03442188
v -0.02297424 -0.50757575 0.04957339
v 0.02434926 -0.46163472 -0.00920196
v 0.02248030 -0.46212121 0.06472491
v 0.03763182 -0.49242424 0.04957339
v -0.01730248 -0.49784312 -0.01133101
v -0.03812576 -0.47727272 0.01927036
v -0.02297424 -0.49242424 0.06472491
v -0.03812576 -0.46212121 -0.01103267
v -0.03812576 -0.46212121 0.01927036
f 7 1 2
f 7 2 3
f 7 6 1
f 8 2 1
f 8 1 6
f 9 3 2
f 10 6 3
f 10 4 6
f 10 9 4
f 10 3 9
f 11 7 3
f 11 3 6
f 11 6 7
f 12 8 5
f 12 2 8
f 13 5 8
f 14 8 6
f 14 6 4
f 14 13 8
f 14 4 13
f 15 9 2
f 15 5 13
f 15 12 5
f 15 2 12
f 16 4 9
f 16 9 15
f 16 15 13
f 16 13 4