# https://github.com/mikedh/trimesh
v 0.03763182 -0.14393939 0.04957339
v 0.03763182 -0.14393939 -0.04133570
v 0.02779767 -0.07863808 0.04395746
v -0.02745252 -0.07709193 0.04466113
v -0.03812576 -0.14393939 -0.04133570
v 0.02719514 -0.08344474 -0.04170923
v -0.03812576 -0.11363636 0.04957339
v -0.02613033 -0.14450355 0.02929800
v -0.02453963 -0.08377224 -0.04113089
v -0.01735085 -0.14444316 0.03713771
f 1 2 3
f 6 3 2
f 6 4 3
f 6 2 5
f 7 1 3
f 7 3 4
f 8 5 2
f 8 7 5
f 9 6 5
f 9 4 6
f 9 7 4
f 9 5 7
f 10 8 2
f 10 2 1
f 10 1 7
f 10 7 8