# https://github.com/mikedh/trimesh
v 0.01872381 -0.46020299 0.02998086
v 0.03763182 -0.43181818 -0.04133570
v 0.03763182 -0.40151515 0.03442188
v -0.03812576 -0.40151515 0.03442188
v -0.03812576 -0.44696969 -0.02618418
v 0.00935758 -0.40347217 -0.04864016
v 0.03763182 -0.43181818 0.03442188
v 0.01816877 -0.44736857 -0.04038084
v -0.01740429 -0.46005865 0.03058068
v 0.03763182 -0.40151515 -0.04133570
v -0.03812576 -0.40151515 -0.04133570
v 0.03763182 -0.44696969 0.01927036
v -0.03812576 -0.44696969 0.01927036
v -0.03812576 -0.41666666 0.03442188
v -0.01811230 -0.44715983 -0.04033332
v -0.03812576 -0.41666666 -0.04133570
f 7 3 4
f 7 2 3
f 8 6 2
f 9 1 7
f 10 3 2
f 10 2 6
f 10 4 3
f 11 5 4
f 11 10 6
f 11 4 10
f 12 7 1
f 12 2 7
f 12 8 2
f 12 1 8
f 13 4 5
f 13 5 9
f 14 9 7
f 14 7 4
f 14 13 9
f 14 4 13
f 15 8 1
f 15 1 9
f 15 9 5
f 15 6 8
f 16 15 5
f 16 5 11
f 16 11 6
f 16 6 15