# https://github.com/mikedh/trimesh
v 0.02248030 -0.40151515 0.04957339
v 0.03763182 -0.40151515 0.03442188
v 0.02248030 -0.38636363 0.04957339
v -0.03812576 -0.38636363 0.03442188
v -0.02828929 -0.40083422 0.00445223
v -0.02297424 -0.40151515 0.04957339
v 0.02945543 -0.38597095 0.00468114
v -0.02297424 -0.38636363 0.04957339
v -0.03812576 -0.40151515 0.03442188
v 0.02656753 -0.38442503 0.02590117
v 0.02910432 -0.40101382 0.00462018
v -0.02897113 -0.38591680 0.00495078
v 0.00732879 -0.38636363 0.00411885
f 1 2 3
f 6 1 3
f 6 2 1
f 8 6 3
f 8 4 6
f 9 6 4
f 9 2 6
f 10 3 2
f 10 2 7
f 10 8 3
f 10 4 8
f 11 7 2
f 11 9 5
f 11 2 9
f 12 10 7
f 12 4 10
f 12 9 4
f 12 5 9
f 13 11 5
f 13 7 11
f 13 12 7
f 13 5 12