# https://github.com/mikedh/trimesh
v 0.02536342 -0.26477842 -0.02392077
v 0.03763182 -0.26515151 -0.05648721
v 0.02560571 -0.21980204 -0.02380185
v 0.00732879 -0.21969697 -0.02618418
v 0.00732879 -0.26515151 -0.07163873
v 0.00732879 -0.26515151 -0.02618418
v 0.02248030 -0.21969697 -0.07163873
v 0.01690359 -0.26541018 -0.05047515
v 0.03763182 -0.21969697 -0.05648721
v 0.02248030 -0.26515151 -0.07163873
v 0.00732879 -0.21969697 -0.07163873
f 1 2 3
f 6 1 3
f 6 3 4
f 6 4 5
f 6 2 1
f 8 6 5
f 8 2 6
f 9 3 2
f 9 2 7
f 9 7 4
f 9 4 3
f 10 7 2
f 10 5 7
f 10 8 5
f 10 2 8
f 11 7 5
f 11 5 4
f 11 4 7