# https://github.com/mikedh/trimesh
v 0.00557618 -0.38469272 0.03545209
v 0.00732879 -0.38636363 0.00411885
v 0.00614421 -0.34031401 0.03989484
v -0.01760509 -0.34015533 0.03724317
v -0.03812576 -0.38636363 0.03442188
v 0.00732879 -0.34090909 0.00411885
v -0.02297424 -0.38636363 0.04957339
v -0.02837867 -0.34183998 0.00497127
v -0.02611669 -0.34036255 0.02959833
v -0.02897113 -0.38591680 0.00495078
f 1 2 3
f 6 3 2
f 6 4 3
f 7 5 2
f 7 2 1
f 7 1 3
f 7 3 4
f 9 7 4
f 9 5 7
f 9 8 5
f 9 4 6
f 9 6 8
f 10 8 6
f 10 6 2
f 10 2 5
f 10 5 8