# https://github.com/mikedh/trimesh
v 0.02546360 -0.34170528 -0.02302146
v 0.03763182 -0.34090909 -0.04133570
v 0.02536342 -0.26477842 -0.02392077
v -0.02434041 -0.26506969 -0.02433469
v -0.03812576 -0.34090909 -0.04133570
v 0.00732879 -0.26515151 -0.07163873
v 0.03763182 -0.26515151 -0.04133570
v 0.01603155 -0.34070497 -0.04863758
v -0.02406303 -0.34105682 -0.02368417
v -0.03812576 -0.26515151 -0.04133570
v 0.02248030 -0.32575757 -0.07163873
v -0.00782273 -0.26515151 -0.07163873
v 0.03763182 -0.32575757 -0.05648721
v 0.03763182 -0.28030303 -0.05648721
v -0.00782273 -0.32575757 -0.07163873
v -0.02297424 -0.31060606 -0.07163873
v 0.02248030 -0.29545454 -0.07163873
v -0.01618016 -0.34057762 -0.04844036
v -0.02297424 -0.29545454 -0.07163873
f 1 3 4
f 7 1 2
f 7 3 1
f 7 6 3
f 8 2 1
f 8 1 5
f 9 5 1
f 9 1 4
f 10 4 3
f 10 9 4
f 10 5 9
f 11 2 8
f 12 10 3
f 12 3 6
f 12 6 11
f 13 7 2
f 13 2 11
f 14 6 7
f 14 13 11
f 14 7 13
f 15 11 8
f 15 12 11
f 16 5 10
f 16 15 5
f 16 12 15
f 17 14 11
f 17 11 6
f 17 6 14
f 18 15 8
f 18 8 5
f 18 5 15
f 19 16 10
f 19 10 12
f 19 12 16