# https://github.com/mikedh/trimesh
v 0.02560571 -0.21980204 -0.02380185
v 0.03763182 -0.18939394 -0.04133570
v 0.02540808 -0.18881119 -0.02382561
v -0.02398422 -0.18851236 -0.02420575
v -0.01682309 -0.21980112 -0.05030855
v 0.01672107 -0.18898707 -0.05072466
v -0.02388878 -0.21928174 -0.02408779
v 0.01652975 -0.22006302 -0.05043923
v -0.03812576 -0.18939394 -0.04133570
v -0.03812576 -0.21969697 -0.04133570
v 0.02286860 -0.21991499 -0.03813512
v 0.00714963 -0.18924859 -0.05548281
v -0.01650845 -0.18894918 -0.05088387
f 1 2 3
f 6 3 2
f 6 4 3
f 7 1 3
f 7 3 4
f 9 7 4
f 10 1 7
f 10 8 1
f 10 5 8
f 10 7 9
f 11 8 2
f 11 2 1
f 11 1 8
f 12 6 2
f 12 2 8
f 12 8 5
f 13 10 9
f 13 5 10
f 13 12 5
f 13 9 4
f 13 4 6
f 13 6 12