# https://github.com/mikedh/trimesh
v 0.01485512 -0.14817362 -0.04453388
v 0.03763182 -0.11363636 -0.05648721
v 0.02248030 -0.05303030 -0.04133570
v -0.02297424 -0.05303030 -0.04133570
v -0.03812576 -0.11363636 -0.05648721
v -0.02297424 -0.05303030 -0.05648721
v 0.02333582 -0.11083459 -0.03752640
v -0.02297424 -0.14393939 -0.05648721
v -0.01880672 -0.14441268 -0.03885621
v 0.02248030 -0.05303030 -0.05648721
v -0.03812576 -0.06818181 -0.05648721
v 0.01936970 -0.14414046 -0.03897047
v 0.03763182 -0.06818181 -0.05648721
v -0.03812576 -0.11363636 -0.04133570
v -0.03812576 -0.06818181 -0.04133570
v 0.02515103 -0.07572406 -0.04123931
f 6 4 3
f 6 2 5
f 7 3 4
f 8 5 2
f 8 2 1
f 9 8 1
f 10 6 3
f 10 2 6
f 11 6 5
f 11 4 6
f 12 1 2
f 12 2 7
f 12 9 1
f 12 7 9
f 13 7 2
f 13 10 3
f 13 2 10
f 14 5 8
f 14 8 9
f 14 11 5
f 15 9 7
f 15 7 4
f 15 14 9
f 15 4 11
f 15 11 14
f 16 13 3
f 16 3 7
f 16 7 13