# https://github.com/mikedh/trimesh
v 0.01112440 0.23479932 0.04240305
v 0.02248030 0.23484849 -0.08679024
v 0.02248030 0.35606061 0.04957339
v -0.02297424 0.35606061 0.04957339
v -0.02297424 0.23484849 -0.08679024
v -0.02297424 0.35606061 -0.07163873
v -0.02297424 0.23484849 0.04957339
v 0.02248030 0.35606061 -0.07163873
v -0.00782273 0.31060606 -0.08679024
v -0.02297424 0.25000000 -0.08679024
v 0.02248030 0.28030303 -0.08679024
v 0.00732879 0.31060606 -0.08679024
f 1 2 3
f 5 2 1
f 6 4 3
f 6 5 4
f 7 1 3
f 7 3 4
f 7 5 1
f 7 4 5
f 8 6 3
f 8 3 2
f 9 2 5
f 9 6 8
f 10 9 5
f 10 5 6
f 10 6 9
f 11 8 2
f 11 2 9
f 12 11 9
f 12 9 8
f 12 8 11