# https://github.com/mikedh/trimesh
v 0.03763182 -0.08333333 0.07987642
v 0.03763182 -0.08333333 0.06472491
v 0.03763182 -0.02272727 0.06472491
v -0.03812576 -0.02272727 0.07987642
v -0.03812576 -0.08333333 0.06472491
v 0.02248030 -0.02272727 0.09502794
v -0.03812576 -0.02272727 0.06472491
v 0.03763182 -0.03787878 0.09502794
v -0.03812576 -0.06818181 0.09502794
v 0.03763182 -0.02272727 0.07987642
v -0.02297424 -0.02272727 0.09502794
v -0.03812576 -0.08333333 0.07987642
v 0.03763182 -0.06818181 0.09502794
v -0.03812576 -0.03787878 0.09502794
f 1 2 3
f 5 2 1
f 5 3 2
f 6 3 4
f 7 5 4
f 7 4 3
f 7 3 5
f 8 1 3
f 9 4 5
f 9 8 6
f 10 8 3
f 10 3 6
f 10 6 8
f 11 9 6
f 11 6 4
f 12 9 5
f 12 5 1
f 12 1 9
f 13 9 1
f 13 1 8
f 13 8 9
f 14 11 4
f 14 4 9
f 14 9 11