# https://github.com/mikedh/trimesh
v 0.00732879 -0.26515151 0.00411885
v 0.00732879 -0.26515151 -0.07163873
v 0.00732879 -0.21969697 0.00411885
v -0.02858934 -0.21954212 0.00544445
v -0.03812576 -0.26515151 -0.04133570
v -0.02297424 -0.21969697 -0.07163873
v -0.02864708 -0.26522043 0.00502316
v 0.00732879 -0.21969697 -0.07163873
v -0.03812576 -0.21969697 -0.04133570
v -0.02297424 -0.26515151 -0.07163873
f 1 2 3
f 1 3 4
f 7 2 1
f 7 1 4
f 7 4 5
f 8 3 2
f 8 2 6
f 8 6 4
f 8 4 3
f 9 6 5
f 9 5 4
f 9 4 6
f 10 6 2
f 10 5 6
f 10 7 5
f 10 2 7