# https://github.com/mikedh/trimesh
v 0.01654920 -0.46533000 0.04377699
v 0.03763182 -0.46212121 -0.02618418
v 0.03763182 -0.44696969 0.03442188
v -0.02297424 -0.44696969 0.04957339
v -0.03812576 -0.46212121 -0.02618418
v 0.02248030 -0.44696969 0.04957339
v 0.02487300 -0.46600100 0.03045800
v -0.01596587 -0.46546110 0.04381318
v 0.00732879 -0.44696969 -0.08679024
v 0.02306746 -0.44562878 -0.02240296
v -0.00420540 -0.46832390 -0.07837662
v -0.03812576 -0.46212121 0.01927036
v -0.03812576 -0.44696969 -0.02618418
v 0.02248030 -0.44696969 -0.08679024
v -0.02297424 -0.44696969 -0.07163873
v -0.03812576 -0.44696969 0.01927036
v 0.02248030 -0.46212121 -0.08679024
v -0.00782273 -0.44696969 -0.08679024
f 6 1 3
f 7 2 3
f 7 3 1
f 8 6 4
f 8 1 6
f 8 7 1
f 10 6 3
f 10 4 6
f 11 2 7
f 11 7 8
f 12 8 4
f 12 11 8
f 12 5 11
f 13 5 12
f 14 10 3
f 14 3 2
f 14 9 10
f 15 13 10
f 15 11 5
f 15 5 13
f 16 4 10
f 16 10 13
f 16 13 12
f 16 12 4
f 17 9 14
f 17 14 2
f 17 2 11
f 18 15 10
f 18 10 9
f 18 11 15
f 18 17 11
f 18 9 17