# https://github.com/mikedh/trimesh
v 0.02248030 0.44696970 0.04957339
v 0.02248030 0.44696970 -0.02618418
v 0.02248030 0.50757576 0.03442188
v -0.00782273 0.50757576 0.04957339
v -0.02297424 0.44696970 -0.02618418
v 0.00732879 0.50757576 0.04957339
v -0.00286058 0.44542353 0.03891766
v 0.00732879 0.49242425 -0.01103267
v 0.02248030 0.47727273 0.04957339
v -0.02297424 0.49242425 0.03442188
v 0.02248030 0.46212122 -0.02618418
v -0.00782273 0.50757576 0.00411885
v -0.00991442 0.44660305 0.03005358
v 0.02248030 0.50757576 0.01927036
v -0.02297424 0.46212122 -0.02618418
v -0.01188321 0.44601848 0.01864352
v 0.00732879 0.50757576 0.00411885
v -0.00782273 0.49242425 -0.01103267
v -0.02297424 0.49242425 0.00411885
f 1 2 3
f 6 3 4
f 6 4 1
f 7 5 2
f 7 2 1
f 7 1 4
f 9 6 1
f 9 1 3
f 9 3 6
f 10 7 4
f 11 3 2
f 11 2 5
f 12 4 3
f 12 10 4
f 13 10 5
f 13 7 10
f 14 11 8
f 14 3 11
f 14 12 3
f 15 11 5
f 15 8 11
f 15 5 10
f 16 13 5
f 16 5 7
f 16 7 13
f 17 14 8
f 17 8 12
f 17 12 14
f 18 12 8
f 18 8 15
f 19 15 10
f 19 10 12
f 19 18 15
f 19 12 18