# https://github.com/mikedh/trimesh
v 0.01816877 -0.44736857 -0.04038084
v 0.02248030 -0.44696969 -0.07163873
v 0.01956808 -0.40121509 -0.03993715
v -0.01925290 -0.40118467 -0.03972001
v -0.02297424 -0.44696969 -0.07163873
v -0.01811230 -0.44715983 -0.04033332
v 0.02248030 -0.43181818 -0.07163873
v -0.02297424 -0.43181818 -0.07163873
v -0.01546645 -0.40051604 -0.04559194
v 0.01532612 -0.40110789 -0.04616360
f 1 2 3
f 1 3 4
f 5 2 1
f 6 5 1
f 6 1 4
f 6 4 5
f 7 3 2
f 7 2 5
f 8 7 5
f 8 5 4
f 9 8 4
f 9 4 3
f 10 9 3
f 10 3 7
f 10 7 8
f 10 8 9