# https://github.com/mikedh/trimesh
v 0.00721677 -0.05310092 0.00414533
v 0.00732879 -0.02272727 -0.08679024
v 0.00919652 -0.00778541 0.00435404
v -0.00897740 -0.00540932 0.00296912
v -0.02297424 -0.02272727 -0.07163873
v 0.00732879 -0.00757575 -0.08679024
v -0.02297424 -0.02272727 0.00411885
v -0.00297310 -0.05229467 -0.06764880
v -0.02297424 -0.00757575 -0.07163873
v -0.00782273 -0.02272727 -0.08679024
v -0.00500413 -0.05442691 0.00432015
v 0.00325444 -0.05255812 -0.06727170
v -0.00782273 -0.00757575 -0.08679024
f 1 2 3
f 6 3 2
f 6 4 3
f 7 3 4
f 9 7 4
f 9 5 7
f 10 6 2
f 10 5 9
f 10 8 5
f 10 2 8
f 11 1 3
f 11 3 7
f 11 7 5
f 11 5 8
f 12 8 2
f 12 2 1
f 12 11 8
f 12 1 11
f 13 9 4
f 13 4 6
f 13 10 9
f 13 6 10