# https://github.com/mikedh/trimesh
v 0.02248030 0.35606061 0.04957339
v 0.02248030 0.35606061 -0.07163873
v 0.02248030 0.44696970 0.04957339
v -0.02297424 0.44696970 0.04957339
v -0.02297424 0.35606061 0.04957339
v -0.00782273 0.44696970 -0.04133570
v 0.02248030 0.44696970 -0.04133570
v -0.02297424 0.35606061 -0.07163873
v 0.02248030 0.38636364 -0.07163873
v -0.02297424 0.44696970 -0.02618418
v -0.02297424 0.41666667 -0.05648721
v -0.00782273 0.38636364 -0.07163873
v -0.02297424 0.37121213 -0.07163873
f 1 2 3
f 1 3 4
f 5 2 1
f 5 1 4
f 6 4 3
f 7 6 3
f 7 3 2
f 8 5 4
f 8 2 5
f 9 7 2
f 9 6 7
f 9 2 8
f 10 8 4
f 10 4 6
f 11 10 6
f 11 8 10
f 12 9 8
f 12 11 6
f 12 6 9
f 13 12 8
f 13 8 11
f 13 11 12