# https://github.com/mikedh/trimesh
v 0.02248030 -0.00757575 0.04957339
v 0.02248030 -0.00757575 -0.07163873
v 0.02248030 0.23484849 -0.08679024
v -0.02297424 0.23484849 0.04957339
v -0.02297424 -0.00757575 0.04957339
v 0.01112440 0.23479932 0.04240305
v -0.02297424 0.02272728 -0.08679024
v 0.02248030 0.02272728 -0.08679024
v -0.02297424 -0.00757575 -0.07163873
v -0.02297424 0.23484849 -0.08679024
v -0.00782273 -0.00757575 -0.08679024
v 0.00732879 -0.00757575 -0.08679024
f 1 2 3
f 5 2 1
f 5 1 4
f 6 1 3
f 6 3 4
f 6 4 1
f 7 5 4
f 8 7 3
f 8 3 2
f 9 2 5
f 9 5 7
f 10 7 4
f 10 4 3
f 10 3 7
f 11 7 8
f 11 9 7
f 11 2 9
f 12 11 8
f 12 8 2
f 12 2 11