# https://github.com/mikedh/trimesh
v 0.03763182 -0.26515151 0.04957339
v 0.02914600 -0.26523739 0.00510091
v 0.03763182 -0.14393939 0.04957339
v -0.02613033 -0.14450355 0.02929800
v -0.03812576 -0.26515151 0.04957339
v 0.02858449 -0.14421892 0.00559195
v -0.02864708 -0.26522043 0.00502316
v -0.03812576 -0.15909091 0.04957339
v -0.02759249 -0.14390557 0.00548181
v -0.01735085 -0.14444316 0.03713771
f 1 2 3
f 5 2 1
f 5 1 3
f 6 3 2
f 7 2 5
f 8 5 3
f 8 7 5
f 9 3 6
f 9 6 2
f 9 2 7
f 9 8 4
f 9 7 8
f 10 8 3
f 10 4 8
f 10 9 4
f 10 3 9