# https://github.com/mikedh/trimesh
v 0.01877371 -0.49807085 -0.01209864
v 0.02248030 -0.50757575 -0.08679024
v 0.02248030 -0.46212121 -0.08679024
v -0.02187128 -0.46205436 -0.01079786
v -0.02297424 -0.50757575 -0.08679024
v 0.02404588 -0.46217706 -0.01124981
v -0.01730248 -0.49784312 -0.01133101
v 0.02248030 -0.49242424 -0.10194176
v -0.02297424 -0.46212121 -0.08679024
v 0.00732879 -0.50757575 -0.10194176
v 0.02248030 -0.47727272 -0.10194176
v -0.02297424 -0.47727272 -0.10194176
v -0.00782273 -0.50757575 -0.10194176
v -0.02297424 -0.49242424 -0.10194176
f 5 2 1
f 6 3 4
f 6 1 2
f 7 5 1
f 7 4 5
f 7 6 4
f 7 1 6
f 8 6 2
f 9 5 4
f 9 4 3
f 10 8 2
f 10 2 5
f 11 3 6
f 11 6 8
f 11 9 3
f 11 8 10
f 12 5 9
f 12 11 10
f 12 9 11
f 13 12 10
f 13 10 5
f 14 13 5
f 14 5 12
f 14 12 13