# https://github.com/mikedh/trimesh
v 0.02906037 -0.05884854 0.03557917
v 0.03763182 -0.03787878 0.03442188
v 0.02765843 -0.04695340 0.05436607
v -0.00286245 -0.00636943 0.04055198
v -0.02297424 -0.02272727 0.00411885
v 0.02248030 -0.00757575 0.04957339
v 0.02975663 -0.05471910 0.04999036
v 0.02007004 -0.06075393 0.00632406
v -0.02949941 -0.05436355 0.05158944
v 0.00961575 -0.00613169 0.00249891
v -0.03812576 -0.03787878 0.03442188
v -0.02735785 -0.04632094 0.05594679
v -0.02859031 -0.05959162 0.03611007
v -0.02297424 -0.00757575 0.01927036
v -0.00500413 -0.05442691 0.00432015
v -0.00897740 -0.00540932 0.00296912
v 0.00721677 -0.05310092 0.00414533
f 6 3 2
f 7 1 2
f 7 2 3
f 8 2 1
f 9 7 3
f 10 4 6
f 10 6 2
f 10 2 8
f 12 6 4
f 12 11 9
f 12 9 3
f 12 3 6
f 13 8 1
f 13 1 7
f 13 7 9
f 13 9 11
f 13 11 5
f 14 5 11
f 14 12 4
f 14 11 12
f 15 13 5
f 15 8 13
f 16 5 14
f 16 15 5
f 16 10 15
f 16 14 4
f 16 4 10
f 17 15 10
f 17 10 8
f 17 8 15