# https://github.com/mikedh/trimesh
v 0.17014581 0.02796900 0.02696698
v 0.17014581 0.02796900 -0.02696698
v -0.17014581 0.02796900 0.02696698
v 0.17014581 0.02767332 0.02767332
v 0.17071542 0.02754191 0.02754191
v 0.17084945 0.02767332 0.02696698
v 0.17014581 0.02767332 -0.02767332
v -0.17014581 0.02796900 -0.02696698
v 0.17084945 0.02767332 -0.02696698
v 0.17071542 0.02754191 -0.02754191
v -0.17084945 0.02767332 0.02696698
v -0.17071542 0.02754191 0.02754191
v -0.17014581 0.02767332 0.02767332
v 0.17014581 0.02696698 0.02796900
v 0.17084945 0.02696698 0.02767332
v 0.17115100 0.02696698 0.02696698
v 0.17014581 0.02696698 -0.02796900
v -0.17014581 0.02767332 -0.02767332
v -0.17071542 0.02754191 -0.02754191
v -0.17084945 0.02767332 -0.02696698
v 0.17115100 0.02696698 -0.02696698
v 0.17084945 0.02696698 -0.02767332
v -0.17115100 0.02696698 0.02696698
v -0.17014581 0.02696698 0.02796900
v -0.17084945 0.02696698 0.02767332
v 0.17014581 -0.02696698 0.02796900
v 0.17084945 -0.02696698 0.02767332
v 0.17115100 -0.02696698 0.02696698
v 0.17014581 -0.02696698 -0.02796900
v -0.17014581 0.02696698 -0.02796900
v -0.17084945 0.02696698 -0.02767332
v -0.17115100 0.02696698 -0.02696698
v 0.17115100 -0.02696698 -0.02696698
v 0.17084945 -0.02696698 -0.02767332
v -0.17115100 -0.02696698 0.02696698
v -0.17014581 -0.02696698 0.02796900
v -0.17084945 -0.02696698 0.02767332
v 0.17014581 -0.02767332 0.02767332
v 0.17071542 -0.02754191 0.02754191
v 0.17084945 -0.02767332 0.02696698
v 0.17071542 -0.02754191 -0.02754191
v 0.17014581 -0.02767332 -0.02767332
v -0.17014581 -0.02696698 -0.02796900
v -0.17084945 -0.02696698 -0.02767332
v -0.17115100 -0.02696698 -0.02696698
v 0.17084945 -0.02767332 -0.02696698
v -0.17084945 -0.02767332 0.02696698
v -0.17071542 -0.02754191 0.02754191
v -0.17014581 -0.02767332 0.02767332
v 0.17014581 -0.02796900 0.02696698
v 0.17014581 -0.02796900 -0.02696698
v -0.17014581 -0.02767332 -0.02767332
v -0.17071542 -0.02754191 -0.02754191
v -0.17084945 -0.02767332 -0.02696698
v -0.17014581 -0.02796900 0.02696698
v -0.17014581 -0.02796900 -0.02696698
f 1 2 8
f 1 8 3
f 1 3 13
f 1 13 4
f 1 4 5
f 1 5 6
f 1 6 9
f 1 9 2
f 2 7 18
f 2 18 8
f 2 9 10
f 2 10 7
f 3 8 20
f 3 20 11
f 3 11 12
f 3 12 13
f 4 13 24
f 4 24 14
f 4 14 5
f 5 15 16
f 5 16 6
f 5 14 15
f 6 16 21
f 6 21 9
f 7 17 30
f 7 30 18
f 7 10 17
f 8 18 19
f 8 19 20
f 9 21 10
f 10 21 22
f 10 22 17
f 11 20 32
f 11 32 23
f 11 23 12
f 12 24 13
f 12 23 25
f 12 25 24
f 14 24 36
f 14 36 26
f 14 26 27
f 14 27 15
f 15 27 28
f 15 28 16
f 16 28 33
f 16 33 21
f 17 29 43
f 17 43 30
f 17 22 34
f 17 34 29
f 18 30 19
f 19 30 31
f 19 31 32
f 19 32 20
f 21 33 34
f 21 34 22
f 23 32 45
f 23 45 35
f 23 35 37
f 23 37 25
f 24 25 37
f 24 37 36
f 26 38 39
f 26 39 27
f 26 36 49
f 26 49 38
f 27 39 28
f 28 39 40
f 28 40 46
f 28 46 33
f 29 34 41
f 29 41 42
f 29 42 52
f 29 52 43
f 30 43 44
f 30 44 31
f 31 44 45
f 31 45 32
f 33 46 41
f 33 41 34
f 35 45 54
f 35 54 47
f 35 47 48
f 35 48 37
f 36 37 48
f 36 48 49
f 38 49 55
f 38 55 50
f 38 50 39
f 39 50 40
f 40 50 51
f 40 51 46
f 41 51 42
f 41 46 51
f 42 51 56
f 42 56 52
f 43 52 53
f 43 53 44
f 44 53 45
f 45 53 54
f 47 54 56
f 47 56 55
f 47 55 48
f 48 55 49
f 50 55 56
f 50 56 51
f 52 56 53
f 53 56 54

