# https://github.com/mikedh/trimesh
v -0.01236945 0.01108141 -0.10501371
v 0.01236773 0.01108141 -0.10501371
v -0.01188408 0.01108141 -0.11499808
v -0.01236460 -0.05503066 -0.10501371
v 0.01242354 0.01108141 -0.10609517
v 0.01236530 -0.05501636 -0.10501371
v -0.01069734 0.01108141 -0.12069820
v -0.01175545 -0.05501636 -0.11499808
v -0.01134774 -0.06500606 -0.11499808
v -0.01192048 -0.06502035 -0.10501371
v 0.01188478 0.01108141 -0.11499808
v 0.01192118 -0.06500606 -0.10501371
v 0.01134601 -0.06500606 -0.11499808
v 0.01175373 -0.05501636 -0.11499808
v -0.00499902 0.01108141 -0.12200760
v -0.01057114 -0.05501636 -0.12056842
v -0.01038427 -0.06500606 -0.12038874
v -0.01013187 -0.07163727 -0.12013917
v -0.01048620 -0.07496718 -0.11518110
v -0.01018284 -0.08199855 -0.11197332
v -0.01101526 -0.07499576 -0.10501371
v 0.01175130 0.01108141 -0.11572348
v 0.01101595 -0.07499576 -0.10501371
v 0.01018353 -0.08199855 -0.11197332
v 0.01048689 -0.07496718 -0.11518110
v 0.01013257 -0.07163727 -0.12013917
v 0.01038497 -0.06500606 -0.12038874
v 0.01057184 -0.05501636 -0.12056842
v 0.01069803 0.01108141 -0.12069820
v 0.00499972 0.01108141 -0.12200760
v -0.00499902 -0.05501636 -0.12172808
v -0.00180525 -0.12498711 -0.12115741
v -0.00112087 -0.13236147 -0.12077141
v -0.00500145 -0.12498711 -0.11499808
v -0.00731427 -0.11499742 -0.10501371
v -0.00638720 -0.12500140 -0.10501371
v 0.00639032 -0.12498711 -0.10501371
v 0.00500215 -0.12498711 -0.11499808
v 0.00112157 -0.13236147 -0.12077141
v 0.00180595 -0.12498711 -0.12115741
v 0.00499972 -0.05501636 -0.12172808
v 0.00997482 0.01108141 -0.12094777
v -0.00232460 -0.13423365 -0.11499808
v -0.00296287 -0.13491964 -0.10501371
v 0.00296357 -0.13491964 -0.10501371
v 0.00232287 -0.13423365 -0.11499808
f 1 2 5
f 1 5 11
f 1 11 22
f 1 22 29
f 1 29 42
f 1 42 30
f 1 30 15
f 1 15 7
f 1 7 3
f 1 3 4
f 1 4 10
f 1 10 21
f 1 21 35
f 1 35 36
f 1 36 44
f 1 44 45
f 1 45 37
f 1 37 23
f 1 23 12
f 1 12 6
f 1 6 2
f 2 6 5
f 3 7 8
f 3 8 4
f 4 8 9
f 4 9 10
f 5 6 11
f 6 12 13
f 6 13 14
f 6 14 11
f 7 15 16
f 7 16 8
f 8 16 17
f 8 17 9
f 9 18 19
f 9 19 20
f 9 20 10
f 9 17 18
f 10 20 21
f 11 14 22
f 12 23 24
f 12 24 13
f 13 24 25
f 13 25 26
f 13 26 27
f 13 27 14
f 14 27 28
f 14 28 29
f 14 29 22
f 15 30 41
f 15 41 31
f 15 31 16
f 16 31 32
f 16 32 17
f 17 32 18
f 18 32 33
f 18 33 34
f 18 34 20
f 18 20 19
f 20 35 21
f 20 34 36
f 20 36 35
f 23 37 24
f 24 37 38
f 24 38 26
f 24 26 25
f 26 38 39
f 26 39 40
f 26 40 27
f 27 40 28
f 28 40 41
f 28 41 30
f 28 30 42
f 28 42 29
f 31 41 40
f 31 40 32
f 32 40 39
f 32 39 33
f 33 43 34
f 33 39 46
f 33 46 43
f 34 43 36
f 36 43 44
f 37 45 46
f 37 46 38
f 38 46 39
f 43 46 45
f 43 45 44

