# https://github.com/mikedh/trimesh
v -0.00499684 0.05280433 -0.46500537
v 0.00499684 0.05280433 -0.46500537
v -0.00499684 0.05313803 -0.45500919
v -0.01230189 0.05705312 -0.45500919
v -0.01230189 0.05698161 -0.46500537
v -0.01219320 0.05761326 -0.47499451
v -0.01166119 0.05845945 -0.48499769
v -0.00499684 0.05417491 -0.47499451
v 0.01219320 0.05761922 -0.47499451
v 0.01230189 0.05698161 -0.46500537
v 0.01230189 0.05705907 -0.45500919
v 0.00499684 0.05313803 -0.45500919
v 0.00499684 0.05418086 -0.47499451
v 0.01166119 0.05845945 -0.48499769
v -0.00499684 0.05487211 -0.42998374
v -0.01210453 0.05781587 -0.43000478
v -0.01211311 0.05782779 -0.42998374
v -0.01405235 0.06500842 -0.42998374
v -0.01447567 0.06500842 -0.47499451
v -0.01396655 0.06500842 -0.48499769
v -0.00499684 0.05596261 -0.48499769
v -0.01082600 0.05931158 -0.49079493
v 0.00499684 0.05596261 -0.48499769
v 0.01447567 0.06500842 -0.47499451
v 0.01396655 0.06500842 -0.48499769
v 0.01404949 0.06499054 -0.42998374
v 0.01211025 0.05780991 -0.42998374
v 0.00499684 0.05487807 -0.42998374
v 0.01082600 0.05931158 -0.49079493
v -0.01414102 0.09499423 -0.42998374
v -0.01461010 0.09499423 -0.47499451
v -0.01461010 0.07500766 -0.48499769
v -0.01223610 0.07522815 -0.49532333
v -0.01177274 0.06500842 -0.49225298
v -0.00499684 0.05847136 -0.49193051
v -0.01065439 0.07870822 -0.50054574
v -0.00732507 0.07204603 -0.49887037
v -0.00439333 0.06572349 -0.49686551
v 0.00499684 0.05847136 -0.49193051
v 0.01461010 0.07500766 -0.48499769
v 0.01461010 0.09499423 -0.47499451
v 0.01177274 0.06500842 -0.49225298
v 0.01223610 0.07522815 -0.49532333
v 0.01413530 0.09497636 -0.42998374
v 0.00439333 0.06572349 -0.49686551
v 0.00732221 0.07204603 -0.49887037
v 0.01065439 0.07870822 -0.50054574
v -0.01376633 0.10499348 -0.42998374
v -0.01230189 0.10389702 -0.47499451
v -0.01367194 0.09499423 -0.48499769
v -0.01461010 0.08499499 -0.48499769
v -0.01336304 0.10499348 -0.45500919
v -0.01223610 0.08488773 -0.49542147
v -0.00065785 0.06953131 -0.50020224
v -0.01065439 0.08149704 -0.50054574
v -0.00476516 0.08488773 -0.50159723
v -0.00439333 0.07522815 -0.50144303
v 0.00065785 0.06953131 -0.50020224
v 0.01223610 0.08490560 -0.49543551
v 0.01461010 0.08499499 -0.48499769
v 0.01368338 0.09499423 -0.48499769
v 0.01230189 0.10392085 -0.47499451
v 0.01336590 0.10499348 -0.45500919
v 0.01376919 0.10496964 -0.42998374
v 0.01413530 0.09499423 -0.43000478
v 0.00439333 0.07522815 -0.50144303
v 0.00477946 0.08490560 -0.50159019
v 0.01065439 0.08152684 -0.50054574
v -0.01141521 0.11123258 -0.42998374
v -0.01105482 0.11086908 -0.45500919
v -0.01041985 0.11030893 -0.46198410
v -0.01136659 0.10196629 -0.48499769
v -0.01028542 0.10035140 -0.49025515
v -0.01136659 0.09499423 -0.49197260
v -0.00794288 0.08815327 -0.49903861
v -0.00127567 0.09068586 -0.50045460
v 0.00130427 0.09068586 -0.50045460
v 0.01137517 0.09499423 -0.49200064
v 0.01029972 0.10036927 -0.49026918
v 0.01137517 0.10199013 -0.48499769
v 0.01042557 0.11031489 -0.46204016
v 0.01106054 0.11088100 -0.45500919
v 0.01142093 0.11122662 -0.42998374
v 0.01376061 0.10499348 -0.43000478
v 0.00796863 0.08817711 -0.49905962
v -0.00501114 0.11366387 -0.42998374
v -0.00499684 0.11367578 -0.43000478
v -0.00499684 0.11307988 -0.45500919
v -0.00548594 0.11126237 -0.46519464
v -0.00914418 0.10959385 -0.46864352
v -0.00411302 0.10685270 -0.48410743
v -0.00700187 0.10889664 -0.47499451
v -0.00499684 0.10187095 -0.49137673
v -0.00476516 0.09441025 -0.49652904
v 0.00499684 0.10188287 -0.49138376
v 0.00477946 0.09441025 -0.49655008
v 0.00411588 0.10687653 -0.48410743
v 0.00703047 0.10892048 -0.47499451
v 0.00917851 0.10961173 -0.46869960
v 0.00499684 0.11309180 -0.45500919
v 0.01141235 0.11123258 -0.43000478
v 0.00498254 0.11368174 -0.42998374
v -0.00019164 0.11003482 -0.48018187
v -0.00200217 0.11048770 -0.47499451
v 0.00019450 0.11003482 -0.48018187
v 0.00203077 0.11048770 -0.47499451
v 0.00550596 0.11126833 -0.46522269
f 1 2 12
f 1 12 3
f 1 3 4
f 1 4 5
f 1 5 6
f 1 6 7
f 1 7 8
f 1 8 2
f 2 9 10
f 2 10 11
f 2 11 12
f 2 8 13
f 2 13 14
f 2 14 9
f 3 12 15
f 3 15 16
f 3 16 4
f 4 16 17
f 4 17 18
f 4 18 19
f 4 19 5
f 5 19 6
f 6 19 20
f 6 20 7
f 7 21 8
f 7 20 22
f 7 22 21
f 8 21 23
f 8 23 13
f 9 24 10
f 9 14 25
f 9 25 24
f 10 24 11
f 11 26 27
f 11 27 12
f 11 24 26
f 12 27 28
f 12 28 15
f 13 23 14
f 14 23 29
f 14 29 25
f 15 28 27
f 15 27 26
f 15 26 44
f 15 44 64
f 15 64 83
f 15 83 102
f 15 102 86
f 15 86 69
f 15 69 48
f 15 48 30
f 15 30 18
f 15 18 17
f 15 17 16
f 18 30 31
f 18 31 19
f 19 31 32
f 19 32 20
f 20 32 33
f 20 33 34
f 20 34 22
f 21 22 35
f 21 35 39
f 21 39 23
f 22 34 36
f 22 36 37
f 22 37 38
f 22 38 35
f 23 39 29
f 24 25 40
f 24 40 41
f 24 41 26
f 25 29 42
f 25 42 43
f 25 43 40
f 26 41 44
f 29 39 45
f 29 45 46
f 29 46 47
f 29 47 42
f 30 48 31
f 31 49 50
f 31 50 51
f 31 51 32
f 31 48 52
f 31 52 49
f 32 51 53
f 32 53 33
f 33 53 36
f 33 36 34
f 35 38 54
f 35 54 58
f 35 58 39
f 36 55 56
f 36 56 57
f 36 57 37
f 36 53 55
f 37 57 54
f 37 54 38
f 39 58 45
f 40 43 59
f 40 59 60
f 40 60 41
f 41 60 61
f 41 61 62
f 41 62 63
f 41 63 64
f 41 64 65
f 41 65 44
f 42 47 43
f 43 47 59
f 44 65 64
f 45 58 46
f 46 58 66
f 46 66 47
f 47 66 67
f 47 67 68
f 47 68 59
f 48 69 52
f 49 52 70
f 49 70 71
f 49 71 72
f 49 72 50
f 50 72 73
f 50 73 74
f 50 74 53
f 50 53 51
f 52 69 70
f 53 74 55
f 54 57 66
f 54 66 58
f 55 74 73
f 55 73 75
f 55 75 56
f 56 75 76
f 56 76 77
f 56 77 67
f 56 67 66
f 56 66 57
f 59 68 78
f 59 78 61
f 59 61 60
f 61 78 79
f 61 79 80
f 61 80 62
f 62 81 82
f 62 82 63
f 62 80 81
f 63 82 83
f 63 83 84
f 63 84 64
f 64 84 83
f 67 77 85
f 67 85 68
f 68 85 79
f 68 79 78
f 69 86 87
f 69 87 70
f 70 87 88
f 70 88 71
f 71 89 90
f 71 90 72
f 71 88 89
f 72 91 73
f 72 90 92
f 72 92 91
f 73 91 93
f 73 93 94
f 73 94 75
f 75 94 76
f 76 94 93
f 76 93 95
f 76 95 77
f 77 95 96
f 77 96 85
f 79 95 97
f 79 97 80
f 79 85 96
f 79 96 95
f 80 97 98
f 80 98 99
f 80 99 81
f 81 99 100
f 81 100 82
f 82 101 83
f 82 100 102
f 82 102 101
f 83 101 102
f 86 102 87
f 87 100 88
f 87 102 100
f 88 100 103
f 88 103 104
f 88 104 89
f 89 104 90
f 90 104 103
f 90 103 92
f 91 92 103
f 91 103 93
f 93 103 95
f 95 103 105
f 95 105 97
f 97 105 98
f 98 105 99
f 99 105 106
f 99 106 107
f 99 107 100
f 100 107 106
f 100 106 105
f 100 105 103

