# https://github.com/mikedh/trimesh
v -0.00296334 -0.13492046 -0.09974843
v 0.00296334 -0.13492046 -0.09974843
v -0.00296334 -0.13492046 0.38495553
v -0.00639151 -0.12498810 -0.09974843
v 0.00639151 -0.12498810 -0.09974843
v 0.00296334 -0.13492046 0.38495553
v -0.00295123 -0.13458049 0.39494151
v -0.00637698 -0.12498810 0.39494151
v -0.00639151 -0.12498810 0.38495553
v -0.00641572 -0.12474526 -0.09974843
v 0.00729455 -0.11525001 -0.09974843
v 0.00639151 -0.12498810 0.38495553
v 0.00637698 -0.12498810 0.39494151
v 0.00295123 -0.13458049 0.39494151
v -0.00195619 -0.13283199 0.40244579
v -0.01018284 -0.08071743 0.44061702
v -0.01027726 -0.08200451 0.43494451
v -0.01192113 -0.06498106 0.44493049
v -0.01101567 -0.07498629 0.43494451
v -0.01027726 -0.08297589 0.42489946
v -0.01026515 -0.08312160 -0.09974843
v 0.00979789 -0.08817278 -0.09974843
v 0.01027726 -0.08297589 0.42489946
v 0.01101567 -0.07498629 0.43494451
v 0.00195619 -0.13283199 0.40244579
v 0.01192113 -0.06498106 0.44493049
v 0.01027726 -0.08200451 0.43494451
v 0.01018284 -0.08071743 0.44061702
v -0.00195377 -0.12231680 0.41189995
v -0.01068641 -0.06136267 0.46076626
v -0.01049273 -0.07129504 0.45107573
v -0.01118030 -0.06481107 0.45462102
v -0.01070093 -0.07476772 0.44433960
v -0.01228913 -0.05497584 0.45497558
v -0.01236660 -0.05497584 0.44493049
v -0.01193324 -0.06473821 -0.09974843
v -0.01192113 -0.06498106 -0.09974843
v -0.01101567 -0.07498629 -0.09974843
v 0.01101567 -0.07498629 -0.09974843
v 0.01189934 -0.06524819 -0.09974843
v 0.00195377 -0.12231680 0.41189995
v 0.01049273 -0.07129504 0.45107573
v 0.01068641 -0.06136267 0.46076626
v 0.01236660 -0.05497584 0.44493049
v 0.01228913 -0.05497584 0.45497558
v 0.01118030 -0.06481107 0.45462102
v 0.01070093 -0.07476772 0.44433960
v 0.01192113 -0.06498106 -0.09974843
v -0.00071662 -0.09026124 0.44020343
v -0.00158819 -0.10092214 0.43074924
v -0.00187872 -0.11163162 0.42129505
v -0.00499942 -0.06765236 0.45757547
v -0.00499942 -0.06264975 0.46165258
v -0.00935242 -0.03970088 0.46968862
v -0.01067915 -0.03304693 0.47081131
v -0.01110767 -0.05497584 0.46171167
v -0.01227218 0.03497400 0.48499259
v -0.01227944 0.00495834 0.47494751
v -0.01236660 0.04495493 0.48499259
v -0.01236660 -0.04499491 0.45497558
v -0.01236660 -0.05497584 -0.09974843
v 0.00187872 -0.11163162 0.42129505
v 0.00158819 -0.10092214 0.43074924
v 0.00071662 -0.09026124 0.44020343
v 0.00499942 -0.06264975 0.46165258
v 0.00499942 -0.06765236 0.45757547
v 0.01110767 -0.05497584 0.46171167
v 0.01067915 -0.03304693 0.47081131
v 0.00935242 -0.03970088 0.46968862
v 0.01236660 -0.04499491 0.45497558
v 0.01236660 -0.05497584 -0.09974843
v 0.01236660 0.04495493 0.48499259
v 0.01227944 0.00495834 0.47494751
v 0.01227218 0.03497400 0.48499259
v -0.00268734 -0.04079369 0.47022042
v -0.00499942 -0.05497584 0.46454793
v -0.00916843 -0.00968522 0.47967461
v -0.01062346 0.05714576 0.50065106
v -0.01066220 0.02705725 0.49072418
v -0.01108830 0.03497400 0.49161050
v -0.01216323 0.06496537 0.49491948
v -0.01236660 0.09495675 0.48499259
v -0.01224313 0.07499488 0.49491948
v -0.01230365 0.08495153 0.49491948
v -0.01234239 0.09495675 0.49491948
v -0.01236660 0.09495675 -0.09974843
v 0.00499942 -0.05497584 0.46454793
v 0.00268734 -0.04079369 0.47022042
v 0.01108830 0.03497400 0.49161050
v 0.01066220 0.02705725 0.49072418
v 0.01062346 0.05714576 0.50065106
v 0.00916843 -0.00968522 0.47967461
v 0.01236660 0.09495675 -0.09974843
v 0.01236660 0.09495675 0.48499259
v 0.01234239 0.09495675 0.49491948
v 0.01230365 0.08495153 0.49491948
v 0.01224313 0.07499488 0.49491948
v 0.01216323 0.06496537 0.49491948
v -0.00250334 -0.01077803 0.48020640
v -0.00212082 0.04935043 0.50011927
v -0.00878832 0.05049180 0.49952838
v -0.00527299 0.05428018 0.50118285
v -0.00499942 0.06496537 0.50289643
v -0.01097935 0.06496537 0.50106466
v -0.01105925 0.07499488 0.50118285
v -0.01111977 0.08495153 0.50136012
v -0.01221166 0.10498625 0.49491948
v -0.01221408 0.10498625 0.48499259
v -0.01115851 0.09495675 0.50147831
v -0.01110283 0.10498625 0.50141919
v -0.01221408 0.10498625 -0.09974843
v 0.00250334 -0.01077803 0.48020640
v 0.01097935 0.06496537 0.50106466
v 0.00499942 0.06496537 0.50289643
v 0.00527299 0.05428018 0.50118285
v 0.00878832 0.05049180 0.49952838
v 0.00212082 0.04935043 0.50011927
v 0.01221892 0.10474341 -0.09974843
v 0.01221408 0.10498625 0.48499259
v 0.01221166 0.10498625 0.49491948
v 0.01110283 0.10498625 0.50141919
v 0.01115851 0.09495675 0.50147831
v 0.01111977 0.08495153 0.50136012
v 0.01105925 0.07499488 0.50118285
v -0.00499942 0.08495153 0.50360548
v -0.00499942 0.09495675 0.50390095
v -0.01068641 0.11079025 0.50088739
v -0.01103262 0.11115452 0.49491948
v -0.00499942 0.10498625 0.50390095
v -0.01103262 0.11115452 -0.09974843
v 0.00499942 0.09495675 0.50390095
v 0.00499942 0.08495153 0.50360548
v 0.01221408 0.10498625 -0.09974843
v 0.01103262 0.11115452 0.49491948
v 0.01068641 0.11079025 0.50088739
v 0.00499942 0.10498625 0.50390095
v -0.00499942 0.11317013 0.49491948
v -0.00499942 0.11154307 0.50177372
v -0.00499942 0.11317013 -0.09974843
v 0.01103262 0.11115452 -0.09974843
v 0.00499942 0.11317013 0.49491948
v 0.00499942 0.11154307 0.50177372
v 0.00499942 0.11317013 -0.09974843
f 1 2 6
f 1 6 3
f 1 3 9
f 1 9 4
f 1 4 10
f 1 10 21
f 1 21 38
f 1 38 37
f 1 37 36
f 1 36 61
f 1 61 86
f 1 86 111
f 1 111 130
f 1 130 139
f 1 139 143
f 1 143 140
f 1 140 133
f 1 133 118
f 1 118 93
f 1 93 71
f 1 71 48
f 1 48 40
f 1 40 39
f 1 39 22
f 1 22 11
f 1 11 5
f 1 5 2
f 2 5 12
f 2 12 6
f 3 6 14
f 3 14 7
f 3 7 8
f 3 8 9
f 4 9 10
f 5 11 12
f 6 12 13
f 6 13 14
f 7 14 25
f 7 25 15
f 7 15 8
f 8 15 16
f 8 16 17
f 8 17 18
f 8 18 19
f 8 19 9
f 9 19 20
f 9 20 10
f 10 20 21
f 11 22 23
f 11 23 12
f 12 23 24
f 12 24 13
f 13 25 14
f 13 24 26
f 13 26 27
f 13 27 28
f 13 28 25
f 15 25 41
f 15 41 29
f 15 29 30
f 15 30 31
f 15 31 16
f 16 31 32
f 16 32 33
f 16 33 18
f 16 18 17
f 18 33 32
f 18 32 34
f 18 34 35
f 18 35 36
f 18 36 37
f 18 37 38
f 18 38 19
f 19 38 21
f 19 21 20
f 22 39 24
f 22 24 23
f 24 39 40
f 24 40 26
f 25 28 42
f 25 42 43
f 25 43 41
f 26 44 45
f 26 45 46
f 26 46 47
f 26 47 28
f 26 28 27
f 26 40 48
f 26 48 71
f 26 71 44
f 28 47 46
f 28 46 42
f 29 41 64
f 29 64 49
f 29 49 50
f 29 50 51
f 29 51 30
f 30 52 53
f 30 53 54
f 30 54 55
f 30 55 56
f 30 56 34
f 30 34 32
f 30 32 31
f 30 51 50
f 30 50 49
f 30 49 52
f 34 56 57
f 34 57 58
f 34 58 59
f 34 59 60
f 34 60 35
f 35 60 59
f 35 59 82
f 35 82 86
f 35 86 61
f 35 61 36
f 41 43 62
f 41 62 63
f 41 63 64
f 42 46 43
f 43 65 66
f 43 66 64
f 43 64 63
f 43 63 62
f 43 46 45
f 43 45 67
f 43 67 68
f 43 68 69
f 43 69 65
f 44 70 45
f 44 71 93
f 44 93 94
f 44 94 72
f 44 72 70
f 45 70 72
f 45 72 73
f 45 73 74
f 45 74 67
f 49 64 65
f 49 65 53
f 49 53 52
f 53 65 88
f 53 88 75
f 53 75 76
f 53 76 54
f 54 76 75
f 54 75 99
f 54 99 77
f 54 77 78
f 54 78 79
f 54 79 55
f 55 79 80
f 55 80 56
f 56 80 57
f 57 80 81
f 57 81 59
f 57 59 58
f 59 81 83
f 59 83 84
f 59 84 85
f 59 85 82
f 64 66 65
f 65 69 87
f 65 87 88
f 67 74 89
f 67 89 68
f 68 89 90
f 68 90 69
f 69 90 91
f 69 91 92
f 69 92 112
f 69 112 88
f 69 88 87
f 72 74 73
f 72 94 95
f 72 95 96
f 72 96 97
f 72 97 98
f 72 98 74
f 74 98 89
f 75 88 112
f 75 112 99
f 77 99 100
f 77 100 101
f 77 101 78
f 78 101 102
f 78 102 103
f 78 103 104
f 78 104 81
f 78 81 80
f 78 80 79
f 81 104 105
f 81 105 106
f 81 106 83
f 82 85 107
f 82 107 108
f 82 108 111
f 82 111 86
f 83 106 84
f 84 106 109
f 84 109 85
f 85 109 110
f 85 110 107
f 89 98 91
f 89 91 90
f 91 113 114
f 91 114 115
f 91 115 116
f 91 116 92
f 91 98 113
f 92 116 117
f 92 117 112
f 93 118 94
f 94 119 120
f 94 120 95
f 94 118 119
f 95 120 121
f 95 121 122
f 95 122 96
f 96 122 123
f 96 123 97
f 97 123 98
f 98 123 124
f 98 124 113
f 99 112 117
f 99 117 100
f 100 117 115
f 100 115 102
f 100 102 101
f 102 115 114
f 102 114 103
f 103 114 132
f 103 132 125
f 103 125 104
f 104 125 126
f 104 126 106
f 104 106 105
f 106 126 109
f 107 110 127
f 107 127 128
f 107 128 108
f 108 128 130
f 108 130 111
f 109 126 129
f 109 129 110
f 110 129 127
f 113 124 123
f 113 123 131
f 113 131 132
f 113 132 114
f 115 117 116
f 118 133 119
f 119 134 120
f 119 133 140
f 119 140 134
f 120 134 135
f 120 135 121
f 121 136 122
f 121 135 136
f 122 136 131
f 122 131 123
f 125 132 131
f 125 131 126
f 126 131 136
f 126 136 129
f 127 137 128
f 127 129 138
f 127 138 137
f 128 137 139
f 128 139 130
f 129 136 142
f 129 142 138
f 134 141 135
f 134 140 143
f 134 143 141
f 135 141 142
f 135 142 136
f 137 138 142
f 137 142 141
f 137 141 143
f 137 143 139

