# https://github.com/mikedh/trimesh
v -0.00498954 0.00897670 -0.11160569
v 0.00498954 0.00897670 -0.11160569
v -0.01508347 0.01210186 -0.11160569
v -0.01499415 0.01293438 -0.40495220
v -0.00498954 0.01275507 -0.40495220
v 0.01508347 0.01210186 -0.11160569
v 0.00498954 0.01275507 -0.40495220
v 0.01499415 0.01293438 -0.40495220
v -0.01655098 0.01260137 -0.11160569
v -0.02499875 0.01634131 -0.40495220
v -0.02499875 0.01646939 -0.41494298
v -0.01499415 0.01326739 -0.41494298
v -0.00498954 0.01313931 -0.41494298
v 0.02499875 0.01634131 -0.40495220
v 0.02499875 0.01634131 -0.13503113
v 0.02499875 0.01652063 -0.11160569
v 0.00498954 0.01313931 -0.41494298
v 0.01499415 0.01326739 -0.41494298
v 0.02499875 0.01646939 -0.41494298
v -0.02499875 0.01652063 -0.11160569
v -0.02499875 0.01634131 -0.13503113
v -0.03032008 0.01977386 -0.41494298
v -0.03020523 0.01985071 -0.42012590
v -0.02499875 0.01831375 -0.42128521
v -0.01499415 0.01681521 -0.42244458
v -0.00498954 0.01677679 -0.42247868
v 0.03032008 0.01977386 -0.41494298
v 0.03030732 0.01977386 -0.13503113
v 0.03029455 0.01978667 -0.11160569
v 0.02945233 0.01924874 -0.11160569
v 0.00498954 0.01677679 -0.42247868
v 0.01499415 0.01681521 -0.42244458
v 0.02499875 0.01831375 -0.42128521
v 0.03020523 0.01985071 -0.42012590
v -0.03029455 0.01978667 -0.11160569
v -0.03030732 0.01977386 -0.13503113
v -0.03532238 0.02341134 -0.41494298
v -0.04218778 0.02840647 -0.13503113
v -0.04218778 0.02841928 -0.41494298
v -0.04719009 0.03209518 -0.41494298
v -0.04144765 0.02895722 -0.42094424
v -0.01211017 0.05782650 -0.45991844
v -0.00498954 0.05486785 -0.45991844
v 0.03532238 0.02341134 -0.41494298
v 0.04218778 0.02840647 -0.13503113
v 0.04216226 0.02843209 -0.11160569
v 0.00498954 0.05486785 -0.45991844
v 0.01211017 0.05781370 -0.45991844
v 0.04144765 0.02895722 -0.42094424
v 0.04719009 0.03209518 -0.41494298
v 0.04218778 0.02841928 -0.41494298
v -0.04216226 0.02843209 -0.11160569
v -0.04218778 0.02840647 -0.40495220
v -0.04719009 0.03205676 -0.13503113
v -0.04719009 0.03205676 -0.40495220
v -0.05249865 0.03705189 -0.40495220
v -0.05246036 0.03709031 -0.41494298
v -0.05159262 0.03810215 -0.42145571
v -0.06152066 0.06501181 -0.42148980
v -0.01404983 0.06501181 -0.45991844
v -0.06049978 0.05845410 -0.42056918
v 0.04719009 0.03205676 -0.40495220
v 0.04719009 0.03205676 -0.13503113
v 0.04294068 0.02900845 -0.11160569
v 0.01404983 0.06498619 -0.45991844
v 0.06152066 0.06501181 -0.42148980
v 0.06049978 0.05845410 -0.42056918
v 0.05159262 0.03810215 -0.42145571
v 0.05246036 0.03709031 -0.41494298
v 0.05249865 0.03705189 -0.40495220
v -0.04715180 0.03213361 -0.11160569
v -0.04799403 0.03291490 -0.11160569
v -0.05249865 0.03705189 -0.13503113
v -0.05663320 0.04500567 -0.13503113
v -0.05662045 0.04500567 -0.40495220
v -0.05641627 0.04500567 -0.41494298
v -0.06245221 0.07498926 -0.42220587
v -0.06505545 0.07498926 -0.41494298
v -0.01413916 0.09499539 -0.45991844
v -0.06075500 0.05766000 -0.41494298
v -0.06310302 0.06501181 -0.41494298
v 0.05249865 0.03705189 -0.13503113
v 0.04715180 0.03213361 -0.11160569
v 0.01413916 0.09496978 -0.45991844
v 0.06245221 0.07498926 -0.42220587
v 0.06505545 0.07498926 -0.41494298
v 0.06310302 0.06501181 -0.41494298
v 0.06075500 0.05766000 -0.41494298
v 0.05641627 0.04500567 -0.41494298
v 0.05662045 0.04500567 -0.40495220
v 0.05663320 0.04500567 -0.13503113
v -0.05242208 0.03712874 -0.11160569
v -0.05635246 0.04500567 -0.11160569
v -0.06074224 0.05773685 -0.11160569
v -0.06075500 0.05767281 -0.13503113
v -0.06189073 0.08499233 -0.42179668
v -0.01376909 0.10499846 -0.45991844
v -0.06517030 0.07498926 -0.40495220
v -0.06388144 0.08499233 -0.41494298
v -0.06312854 0.06501181 -0.13503113
v -0.06312854 0.06501181 -0.40495220
v 0.05242208 0.03712874 -0.11160569
v 0.01376909 0.10497285 -0.45991844
v 0.06189073 0.08499233 -0.42179668
v 0.06388144 0.08499233 -0.41494298
v 0.06517030 0.07498926 -0.40495220
v 0.06312854 0.06501181 -0.40495220
v 0.06312854 0.06501181 -0.13503113
v 0.06075500 0.05767281 -0.13503113
v 0.06111231 0.05886396 -0.11160569
v 0.06048702 0.05694275 -0.11160569
v 0.05635246 0.04500567 -0.11160569
v 0.05307289 0.03838392 -0.11160569
v -0.06305198 0.06501181 -0.11160569
v -0.06076776 0.09239537 -0.42084193
v -0.01140831 0.11123597 -0.45991844
v -0.06518306 0.07498926 -0.13503113
v -0.06397077 0.08499233 -0.40495220
v -0.06116335 0.09362493 -0.41494298
v 0.01142107 0.11122316 -0.45991844
v 0.06076776 0.09239537 -0.42084193
v 0.06116335 0.09362493 -0.41494298
v 0.06397077 0.08499233 -0.40495220
v 0.06518306 0.07498926 -0.13503113
v 0.06305198 0.06501181 -0.11160569
v -0.06499165 0.07498926 -0.11160569
v -0.05179680 0.11264485 -0.42148980
v -0.05725849 0.10499846 -0.41494298
v -0.00500230 0.11366949 -0.45991844
v -0.04259613 0.12185382 -0.42145571
v -0.03136647 0.13098595 -0.42091015
v -0.02499875 0.13311207 -0.42203540
v -0.06402181 0.08341694 -0.11160569
v -0.06397077 0.08499233 -0.13503113
v -0.05747543 0.10499846 -0.40495220
v 0.00497678 0.11366949 -0.45991844
v 0.02499875 0.13311207 -0.42203540
v 0.03136647 0.13098595 -0.42091015
v 0.04259613 0.12185382 -0.42145571
v 0.05179680 0.11264485 -0.42148980
v 0.05725849 0.10499846 -0.41494298
v 0.05747543 0.10499846 -0.40495220
v 0.06397077 0.08499233 -0.13503113
v 0.06383040 0.08499233 -0.11160569
v 0.06499165 0.07498926 -0.11160569
v 0.06337100 0.06658719 -0.11160569
v -0.05281767 0.11404093 -0.41494298
v -0.04893834 0.11903606 -0.41494298
v -0.01499415 0.13965698 -0.41494298
v -0.00498954 0.13975944 -0.41494298
v -0.04393604 0.12284004 -0.41494298
v -0.03208109 0.13149826 -0.41494298
v -0.02499875 0.13630128 -0.41494298
v -0.06383040 0.08499233 -0.11160569
v -0.06158447 0.09221605 -0.11160569
v -0.06115059 0.09357370 -0.11160569
v -0.06089537 0.09436780 -0.11160569
v -0.05747543 0.10499846 -0.13503113
v -0.05291976 0.11409216 -0.40495220
v 0.00498954 0.13975944 -0.41494298
v 0.01499415 0.13965698 -0.41494298
v 0.02499875 0.13630128 -0.41494298
v 0.03208109 0.13149826 -0.41494298
v 0.04393604 0.12284004 -0.41494298
v 0.04893834 0.11903606 -0.41494298
v 0.05281767 0.11404093 -0.41494298
v 0.05291976 0.11409216 -0.40495220
v 0.05747543 0.10499846 -0.13503113
v 0.06115059 0.09357370 -0.11160569
v -0.04895110 0.11910009 -0.40495220
v -0.01499415 0.13973382 -0.40495220
v -0.00498954 0.13981068 -0.40495220
v -0.04396156 0.12287846 -0.40495220
v -0.03208109 0.13149826 -0.13503113
v -0.02499875 0.13633969 -0.40495220
v -0.05718193 0.10499846 -0.11160569
v -0.05350677 0.11256801 -0.11160569
v -0.05291976 0.11409216 -0.13503113
v -0.04896386 0.11910009 -0.13503113
v 0.00498954 0.13981068 -0.40495220
v 0.01499415 0.13973382 -0.40495220
v 0.02499875 0.13633969 -0.40495220
v 0.03208109 0.13149826 -0.13503113
v 0.04396156 0.12287846 -0.40495220
v 0.04895110 0.11910009 -0.40495220
v 0.04896386 0.11910009 -0.13503113
v 0.05291976 0.11409216 -0.13503113
v 0.05277939 0.11400250 -0.11160569
v 0.05718193 0.10499846 -0.11160569
v 0.05907055 0.09958067 -0.11160569
v -0.01499415 0.13973382 -0.13503113
v -0.00498954 0.13982348 -0.13503113
v -0.04396156 0.12287846 -0.13503113
v -0.03204281 0.13148546 -0.11160569
v -0.02499875 0.13633969 -0.13503113
v -0.05277939 0.11400250 -0.11160569
v -0.04890006 0.11899763 -0.11160569
v -0.04468893 0.12221245 -0.11160569
v 0.00498954 0.13982348 -0.13503113
v 0.01499415 0.13973382 -0.13503113
v 0.02499875 0.13633969 -0.13503113
v 0.03204281 0.13148546 -0.11160569
v 0.04396156 0.12287846 -0.13503113
v 0.04389775 0.12280162 -0.11160569
v 0.04812163 0.11959961 -0.11160569
v 0.04890006 0.11899763 -0.11160569
v 0.04952534 0.11821634 -0.11160569
v -0.02341639 0.13677517 -0.11160569
v -0.01499415 0.13960575 -0.11160569
v -0.00498954 0.13969541 -0.11160569
v -0.04389775 0.12280162 -0.11160569
v -0.04282583 0.12359571 -0.11160569
v -0.03093260 0.13224113 -0.11160569
v -0.02499875 0.13623723 -0.11160569
v 0.00498954 0.13969541 -0.11160569
v 0.00657190 0.13968259 -0.11160569
v 0.01499415 0.13960575 -0.11160569
v 0.02499875 0.13623723 -0.11160569
f 1 2 6
f 1 6 16
f 1 16 30
f 1 30 29
f 1 29 46
f 1 46 64
f 1 64 83
f 1 83 102
f 1 102 113
f 1 113 112
f 1 112 111
f 1 111 110
f 1 110 125
f 1 125 146
f 1 146 145
f 1 145 144
f 1 144 169
f 1 169 190
f 1 190 189
f 1 189 188
f 1 188 207
f 1 207 206
f 1 206 205
f 1 205 204
f 1 204 202
f 1 202 218
f 1 218 217
f 1 217 216
f 1 216 215
f 1 215 210
f 1 210 209
f 1 209 208
f 1 208 214
f 1 214 213
f 1 213 194
f 1 194 212
f 1 212 211
f 1 211 198
f 1 198 197
f 1 197 196
f 1 196 177
f 1 177 176
f 1 176 157
f 1 157 156
f 1 156 155
f 1 155 154
f 1 154 133
f 1 133 126
f 1 126 114
f 1 114 94
f 1 94 93
f 1 93 92
f 1 92 72
f 1 72 71
f 1 71 52
f 1 52 35
f 1 35 20
f 1 20 9
f 1 9 3
f 1 3 4
f 1 4 5
f 1 5 7
f 1 7 2
f 2 7 8
f 2 8 6
f 3 9 4
f 4 9 10
f 4 10 11
f 4 11 12
f 4 12 5
f 5 12 13
f 5 13 17
f 5 17 7
f 6 8 14
f 6 14 15
f 6 15 16
f 7 17 18
f 7 18 8
f 8 18 19
f 8 19 14
f 9 20 21
f 9 21 10
f 10 22 11
f 10 21 22
f 11 22 23
f 11 23 24
f 11 24 12
f 12 24 25
f 12 25 13
f 13 25 26
f 13 26 31
f 13 31 17
f 14 19 27
f 14 27 15
f 15 28 29
f 15 29 30
f 15 30 16
f 15 27 28
f 17 31 32
f 17 32 18
f 18 32 33
f 18 33 19
f 19 33 34
f 19 34 27
f 20 35 21
f 21 35 36
f 21 36 22
f 22 37 23
f 22 36 38
f 22 38 37
f 23 37 39
f 23 39 40
f 23 40 41
f 23 41 42
f 23 42 24
f 24 42 43
f 24 43 25
f 25 43 26
f 26 43 47
f 26 47 31
f 27 34 44
f 27 44 45
f 27 45 28
f 28 45 29
f 29 45 46
f 31 47 32
f 32 47 33
f 33 47 48
f 33 48 34
f 34 48 49
f 34 49 50
f 34 50 51
f 34 51 44
f 35 52 38
f 35 38 36
f 37 38 53
f 37 53 39
f 38 52 54
f 38 54 55
f 38 55 53
f 39 53 55
f 39 55 40
f 40 55 56
f 40 56 57
f 40 57 58
f 40 58 41
f 41 58 42
f 42 59 60
f 42 60 79
f 42 79 97
f 42 97 116
f 42 116 129
f 42 129 136
f 42 136 120
f 42 120 103
f 42 103 84
f 42 84 65
f 42 65 48
f 42 48 47
f 42 47 43
f 42 58 61
f 42 61 59
f 44 51 62
f 44 62 45
f 45 63 46
f 45 62 63
f 46 63 64
f 48 65 66
f 48 66 67
f 48 67 68
f 48 68 49
f 49 68 50
f 50 69 70
f 50 70 62
f 50 62 51
f 50 68 69
f 52 71 54
f 54 71 72
f 54 72 73
f 54 73 56
f 54 56 55
f 56 73 74
f 56 74 75
f 56 75 57
f 57 75 76
f 57 76 58
f 58 76 61
f 59 77 60
f 59 61 78
f 59 78 77
f 60 77 79
f 61 76 80
f 61 80 81
f 61 81 78
f 62 70 82
f 62 82 63
f 63 82 83
f 63 83 64
f 65 84 85
f 65 85 66
f 66 85 86
f 66 86 67
f 67 86 87
f 67 87 88
f 67 88 89
f 67 89 68
f 68 89 69
f 69 89 90
f 69 90 70
f 70 90 91
f 70 91 82
f 72 92 73
f 73 92 74
f 74 92 93
f 74 93 94
f 74 94 95
f 74 95 80
f 74 80 75
f 75 80 76
f 77 96 97
f 77 97 79
f 77 78 96
f 78 81 98
f 78 98 99
f 78 99 96
f 80 95 100
f 80 100 101
f 80 101 81
f 81 101 98
f 82 91 102
f 82 102 83
f 84 103 85
f 85 103 104
f 85 104 86
f 86 105 106
f 86 106 87
f 86 104 105
f 87 106 107
f 87 107 88
f 88 107 108
f 88 108 109
f 88 109 91
f 88 91 90
f 88 90 89
f 91 109 110
f 91 110 111
f 91 111 112
f 91 112 113
f 91 113 102
f 94 114 100
f 94 100 95
f 96 99 115
f 96 115 97
f 97 115 116
f 98 101 117
f 98 117 118
f 98 118 99
f 99 118 119
f 99 119 115
f 100 114 117
f 100 117 101
f 103 120 121
f 103 121 104
f 104 121 105
f 105 121 122
f 105 122 123
f 105 123 106
f 106 123 124
f 106 124 107
f 107 124 108
f 108 124 125
f 108 125 110
f 108 110 109
f 114 126 117
f 115 127 116
f 115 119 128
f 115 128 127
f 116 127 130
f 116 130 131
f 116 131 132
f 116 132 129
f 117 126 133
f 117 133 134
f 117 134 118
f 118 134 158
f 118 158 135
f 118 135 119
f 119 135 128
f 120 136 137
f 120 137 138
f 120 138 139
f 120 139 140
f 120 140 121
f 121 140 141
f 121 141 122
f 122 141 142
f 122 142 123
f 123 142 168
f 123 168 143
f 123 143 124
f 124 143 144
f 124 144 145
f 124 145 146
f 124 146 125
f 127 128 147
f 127 147 148
f 127 148 130
f 128 135 147
f 129 132 149
f 129 149 150
f 129 150 160
f 129 160 136
f 130 148 131
f 131 148 151
f 131 151 152
f 131 152 153
f 131 153 132
f 132 153 149
f 133 154 134
f 134 154 155
f 134 155 156
f 134 156 157
f 134 157 158
f 135 158 178
f 135 178 159
f 135 159 147
f 136 160 161
f 136 161 137
f 137 161 162
f 137 162 138
f 138 162 163
f 138 163 164
f 138 164 165
f 138 165 139
f 139 165 140
f 140 165 166
f 140 166 141
f 141 166 142
f 142 166 167
f 142 167 187
f 142 187 168
f 143 168 169
f 143 169 144
f 147 159 148
f 148 159 170
f 148 170 151
f 149 153 171
f 149 171 150
f 150 171 172
f 150 172 180
f 150 180 160
f 151 170 173
f 151 173 152
f 152 173 193
f 152 193 174
f 152 174 195
f 152 195 175
f 152 175 153
f 153 175 171
f 157 176 158
f 158 176 177
f 158 177 178
f 159 178 179
f 159 179 170
f 160 180 181
f 160 181 161
f 161 181 162
f 162 181 182
f 162 182 163
f 163 182 201
f 163 201 183
f 163 183 203
f 163 203 184
f 163 184 164
f 164 184 185
f 164 185 165
f 165 185 167
f 165 167 166
f 167 185 186
f 167 186 187
f 168 187 188
f 168 188 189
f 168 189 190
f 168 190 169
f 170 179 173
f 171 175 195
f 171 195 191
f 171 191 192
f 171 192 172
f 172 192 199
f 172 199 180
f 173 179 193
f 174 193 194
f 174 194 195
f 177 196 178
f 178 196 197
f 178 197 179
f 179 197 198
f 179 198 193
f 180 199 181
f 181 199 200
f 181 200 201
f 181 201 182
f 183 201 202
f 183 202 203
f 184 203 186
f 184 186 185
f 186 203 204
f 186 204 205
f 186 205 206
f 186 206 207
f 186 207 187
f 187 207 188
f 191 195 208
f 191 208 209
f 191 209 210
f 191 210 192
f 192 210 215
f 192 215 199
f 193 198 211
f 193 211 212
f 193 212 194
f 194 213 195
f 195 213 214
f 195 214 208
f 199 215 216
f 199 216 200
f 200 216 217
f 200 217 218
f 200 218 201
f 201 218 202
f 202 204 203

