# https://github.com/mikedh/trimesh
v -0.06500247 0.07495830 -0.14156882
v -0.06496429 0.07495830 -0.12499119
v -0.06380627 0.08498882 -0.12499119
v -0.06402260 0.08337399 -0.14156882
v -0.06301727 0.06503648 -0.14156882
v -0.06300455 0.06503648 -0.12499119
v -0.06231736 0.07495830 -0.11791606
v -0.06180834 0.08498882 -0.11830463
v -0.06045942 0.05857721 -0.11942495
v -0.06145202 0.06503648 -0.11855695
v -0.06070121 0.09228656 -0.11916253
v -0.06114661 0.09354425 -0.12499119
v -0.06159201 0.09220892 -0.14156882
v -0.06383172 0.08498882 -0.14156882
v -0.06070121 0.05772321 -0.14156882
v -0.06070121 0.05772321 -0.12499119
v -0.01542345 0.07494278 -0.09001416
v -0.01530892 0.08497329 -0.09001416
v -0.01481262 0.09495722 -0.09001416
v -0.01388365 0.10495668 -0.09001416
v -0.01233113 -0.01891859 -0.09001416
v -0.01514349 0.06500543 -0.09001416
v -0.05629815 0.04500651 -0.12499119
v -0.05152604 0.03817458 -0.11861751
v -0.01161849 0.11158675 -0.09001416
v -0.05171692 0.11253391 -0.11857209
v -0.05713804 0.10495668 -0.12499119
v -0.05718894 0.10495668 -0.14156882
v -0.05634905 0.04500651 -0.14156882
v -0.01183483 -0.01891859 -0.11500424
v 0.01233113 -0.01891859 -0.09001416
v -0.05240411 0.03714979 -0.12499119
v -0.05241683 0.03713427 -0.14156882
v -0.00495027 0.11399345 -0.09001416
v -0.02499312 0.13301417 -0.11818352
v -0.03127958 0.13093352 -0.11909693
v -0.04249085 0.12177254 -0.11862761
v -0.04885366 0.11897765 -0.12499119
v -0.05272225 0.11397792 -0.12499119
v -0.05349851 0.11256497 -0.14156882
v -0.01065134 -0.01891859 -0.12069666
v 0.01238203 -0.01891859 -0.10609724
v 0.05240411 0.03714979 -0.12499119
v 0.05152604 0.03817458 -0.11861751
v 0.06045942 0.05857721 -0.11942495
v 0.06145202 0.06503648 -0.11855695
v 0.06231736 0.07495830 -0.11791606
v 0.01514349 0.06503648 -0.09001416
v -0.04712297 0.03213454 -0.14156882
v 0.00495027 0.11399345 -0.09001416
v -0.00495027 0.13475320 -0.11763850
v -0.01499078 0.13469109 -0.11767382
v -0.01499078 0.13956660 -0.12499119
v -0.02499312 0.13621274 -0.12499119
v -0.03204311 0.13147697 -0.12499119
v -0.04386522 0.12278180 -0.12499119
v -0.04886638 0.11897765 -0.14156882
v -0.05274770 0.11399345 -0.14156882
v -0.00495027 -0.01891859 -0.12200369
v -0.04215998 0.02847014 -0.14156882
v -0.03026153 0.01979049 -0.14156882
v -0.02499312 0.01652980 -0.14156882
v -0.01650513 0.01260144 -0.14156882
v -0.01509259 0.01212010 -0.14156882
v 0.01183483 -0.01891859 -0.11500424
v 0.05241683 0.03713427 -0.14156882
v 0.05306584 0.03839196 -0.14156882
v 0.05634905 0.04500651 -0.14156882
v 0.05629815 0.04500651 -0.12499119
v 0.06070121 0.05772321 -0.12499119
v 0.06300455 0.06503648 -0.12499119
v 0.06496429 0.07495830 -0.12499119
v 0.06180834 0.08498882 -0.11830463
v 0.01388365 0.10495668 -0.09001416
v 0.01481262 0.09497274 -0.09001416
v 0.01530892 0.08498882 -0.09001416
v 0.01542345 0.07495830 -0.09001416
v 0.01156759 0.11158675 -0.09001416
v 0.02499312 0.13301417 -0.11818352
v 0.01499078 0.13469109 -0.11767382
v 0.00495027 0.13475320 -0.11763850
v -0.00495027 0.13967529 -0.12499119
v -0.01499078 0.13959765 -0.14156882
v -0.02499312 0.13624379 -0.14156882
v -0.03204311 0.13147697 -0.14156882
v -0.04386522 0.12278180 -0.14156882
v -0.00495027 0.00899915 -0.14156882
v 0.00495027 -0.01891859 -0.12200369
v 0.01174575 -0.01891859 -0.11573093
v 0.04712297 0.03213454 -0.14156882
v 0.01065134 -0.01891859 -0.12069666
v 0.06048487 0.05693133 -0.14156882
v 0.06110843 0.05890327 -0.14156882
v 0.06301727 0.06503648 -0.14156882
v 0.06333541 0.06657366 -0.14156882
v 0.06500247 0.07495830 -0.14156882
v 0.06380627 0.08498882 -0.12499119
v 0.06070121 0.09228656 -0.11916253
v 0.05171692 0.11253391 -0.11857209
v 0.04249085 0.12177254 -0.11862761
v 0.03127958 0.13093352 -0.11909693
v 0.02499312 0.13621274 -0.12499119
v 0.01499078 0.13956660 -0.12499119
v 0.00495027 0.13967529 -0.12499119
v -0.00495027 0.13970634 -0.14156882
v 0.00495027 0.00899915 -0.14156882
v 0.00992598 -0.01891859 -0.12094393
v 0.04291079 0.02901359 -0.14156882
v 0.02499312 0.01652980 -0.14156882
v 0.02945981 0.01926257 -0.14156882
v 0.03026153 0.01979049 -0.14156882
v 0.06383172 0.08498882 -0.14156882
v 0.06114661 0.09354425 -0.12499119
v 0.05713804 0.10495668 -0.12499119
v 0.05272225 0.11397792 -0.12499119
v 0.04885366 0.11897765 -0.12499119
v 0.03204311 0.13147697 -0.12499119
v 0.04386522 0.12278180 -0.12499119
v 0.02499312 0.13624379 -0.14156882
v 0.01499078 0.13959765 -0.14156882
v 0.00495027 0.13970634 -0.14156882
v 0.01509259 0.01212010 -0.14156882
v 0.06114661 0.09354425 -0.14156882
v 0.05718894 0.10495668 -0.14156882
v 0.05274770 0.11399345 -0.14156882
v 0.04948994 0.11820130 -0.14156882
v 0.04886638 0.11897765 -0.14156882
v 0.04811557 0.11956768 -0.14156882
v 0.03204311 0.13147697 -0.14156882
v 0.04386522 0.12278180 -0.14156882
f 1 2 3
f 1 3 4
f 1 4 14
f 1 14 13
f 1 13 28
f 1 28 40
f 1 40 58
f 1 58 57
f 1 57 86
f 1 86 85
f 1 85 84
f 1 84 83
f 1 83 105
f 1 105 121
f 1 121 120
f 1 120 119
f 1 119 129
f 1 129 130
f 1 130 128
f 1 128 127
f 1 127 126
f 1 126 125
f 1 125 124
f 1 124 123
f 1 123 112
f 1 112 96
f 1 96 95
f 1 95 94
f 1 94 93
f 1 93 92
f 1 92 68
f 1 68 67
f 1 67 66
f 1 66 90
f 1 90 108
f 1 108 111
f 1 111 110
f 1 110 109
f 1 109 122
f 1 122 106
f 1 106 87
f 1 87 64
f 1 64 63
f 1 63 62
f 1 62 61
f 1 61 60
f 1 60 49
f 1 49 33
f 1 33 29
f 1 29 15
f 1 15 5
f 1 5 6
f 1 6 2
f 2 7 8
f 2 8 3
f 2 6 9
f 2 9 10
f 2 10 7
f 3 8 11
f 3 11 12
f 3 12 13
f 3 13 14
f 3 14 4
f 5 15 16
f 5 16 6
f 6 16 9
f 7 17 18
f 7 18 19
f 7 19 20
f 7 20 8
f 7 10 21
f 7 21 22
f 7 22 17
f 8 20 11
f 9 16 23
f 9 23 24
f 9 24 21
f 9 21 10
f 11 20 25
f 11 25 26
f 11 26 27
f 11 27 12
f 12 27 28
f 12 28 13
f 15 29 16
f 16 29 23
f 17 22 21
f 17 21 31
f 17 31 48
f 17 48 77
f 17 77 76
f 17 76 75
f 17 75 74
f 17 74 78
f 17 78 50
f 17 50 34
f 17 34 25
f 17 25 20
f 17 20 19
f 17 19 18
f 21 30 41
f 21 41 59
f 21 59 88
f 21 88 107
f 21 107 91
f 21 91 89
f 21 89 65
f 21 65 42
f 21 42 31
f 21 24 32
f 21 32 33
f 21 33 30
f 23 29 32
f 23 32 24
f 25 34 35
f 25 35 36
f 25 36 37
f 25 37 26
f 26 37 38
f 26 38 39
f 26 39 27
f 27 39 40
f 27 40 28
f 29 33 32
f 30 33 41
f 31 42 43
f 31 43 44
f 31 44 45
f 31 45 46
f 31 46 47
f 31 47 48
f 33 49 41
f 34 50 81
f 34 81 51
f 34 51 52
f 34 52 35
f 35 52 53
f 35 53 54
f 35 54 36
f 36 54 55
f 36 55 56
f 36 56 38
f 36 38 37
f 38 57 58
f 38 58 39
f 38 56 57
f 39 58 40
f 41 49 60
f 41 60 61
f 41 61 62
f 41 62 63
f 41 63 64
f 41 64 59
f 42 65 66
f 42 66 43
f 43 66 67
f 43 67 68
f 43 68 69
f 43 69 44
f 44 69 45
f 45 69 70
f 45 70 71
f 45 71 72
f 45 72 46
f 46 72 47
f 47 72 73
f 47 73 74
f 47 74 75
f 47 75 76
f 47 76 77
f 47 77 48
f 50 78 79
f 50 79 80
f 50 80 81
f 51 81 104
f 51 104 82
f 51 82 52
f 52 82 53
f 53 82 105
f 53 105 83
f 53 83 84
f 53 84 54
f 54 84 55
f 55 85 86
f 55 86 56
f 55 84 85
f 56 86 57
f 59 64 87
f 59 87 106
f 59 106 88
f 65 89 66
f 66 89 91
f 66 91 90
f 68 92 69
f 69 92 70
f 70 92 93
f 70 93 71
f 71 94 95
f 71 95 96
f 71 96 72
f 71 93 94
f 72 96 97
f 72 97 73
f 73 97 98
f 73 98 74
f 74 98 78
f 78 98 99
f 78 99 100
f 78 100 101
f 78 101 79
f 79 101 102
f 79 102 103
f 79 103 80
f 80 103 104
f 80 104 81
f 82 104 121
f 82 121 105
f 88 106 107
f 90 91 108
f 91 107 109
f 91 109 110
f 91 110 111
f 91 111 108
f 96 112 97
f 97 112 113
f 97 113 98
f 98 113 114
f 98 114 99
f 99 114 115
f 99 115 116
f 99 116 100
f 100 116 101
f 101 117 102
f 101 116 118
f 101 118 117
f 102 119 120
f 102 120 103
f 102 117 119
f 103 120 121
f 103 121 104
f 106 122 107
f 107 122 109
f 112 123 113
f 113 123 124
f 113 124 114
f 114 124 115
f 115 125 116
f 115 124 125
f 116 125 126
f 116 126 127
f 116 127 128
f 116 128 118
f 117 118 130
f 117 130 129
f 117 129 119
f 118 128 130

