# https://github.com/mikedh/trimesh
v 0.00499738 0.11316455 -0.06974843
v 0.00499738 0.11401741 -0.12001006
v -0.00499666 0.11316455 -0.06974843
v 0.01103004 0.11116643 -0.06974843
v -0.00499666 0.11401741 -0.12001006
v 0.01160975 0.11160504 -0.12001006
v -0.00515065 0.11311582 -0.06974843
v 0.01106023 0.11102022 -0.06974843
v 0.01388332 0.10497709 -0.12001006
v -0.01160601 0.11160504 -0.11999530
v -0.01102932 0.11116643 -0.06974843
v -0.01161507 0.11158067 -0.12001006
v 0.01221362 0.10497709 -0.06974843
v 0.01484951 0.09498644 -0.12001006
v -0.01388562 0.10497709 -0.12001006
v -0.01218271 0.10514766 -0.06974843
v 0.01236157 0.09498644 -0.06974843
v 0.01530845 0.08499578 -0.12001006
v -0.01485181 0.09496207 -0.12001006
v -0.01221290 0.10497709 -0.06974843
v 0.01236157 -0.05499523 -0.06974843
v 0.01542319 0.07498076 -0.12001006
v -0.01530773 0.08497141 -0.12001006
v -0.01236387 0.09498644 -0.06974843
v 0.01236157 -0.05499523 -0.12001006
v 0.01235251 -0.05523890 -0.06974843
v -0.01542247 0.07495639 -0.12001006
v -0.01236387 -0.05499523 -0.06974843
v 0.01191773 -0.06498589 -0.12001006
v 0.01191773 -0.06498589 -0.06974843
v -0.01236085 -0.05499523 -0.12001006
v -0.01236387 -0.05499523 -0.11999530
v -0.01192002 -0.06498589 -0.06974843
v 0.01101192 -0.07497653 -0.12001006
v 0.01099380 -0.07517148 -0.06974843
v -0.01191700 -0.06501025 -0.12001006
v -0.01192002 -0.06498589 -0.11999530
v -0.01101422 -0.07497653 -0.06974843
v 0.01027520 -0.08296906 -0.06974843
v 0.01027520 -0.08296906 -0.11999530
v 0.00731624 -0.11498789 -0.11999530
v 0.00638930 -0.12497855 -0.12001006
v -0.01101120 -0.07497653 -0.12001006
v -0.01101422 -0.07497653 -0.11999530
v -0.00733967 -0.11474422 -0.06974843
v 0.00731624 -0.11498789 -0.06974843
v 0.00638930 -0.12497855 -0.06974843
v 0.00630476 -0.12524658 -0.06974843
v 0.00296234 -0.13492046 -0.11999530
v 0.00296234 -0.13489610 -0.12001006
v -0.01027448 -0.08296906 -0.12001006
v -0.00639160 -0.12497855 -0.11999530
v -0.00639160 -0.12497855 -0.06974843
v 0.00296234 -0.13492046 -0.06974843
v -0.00296464 -0.13492046 -0.11999530
v -0.00296162 -0.13489610 -0.12001006
v -0.00638556 -0.12500292 -0.12001006
v -0.00296464 -0.13492046 -0.06974843
f 1 2 5
f 1 5 3
f 1 3 7
f 1 7 11
f 1 11 16
f 1 16 20
f 1 20 24
f 1 24 28
f 1 28 33
f 1 33 38
f 1 38 45
f 1 45 53
f 1 53 58
f 1 58 54
f 1 54 48
f 1 48 47
f 1 47 46
f 1 46 39
f 1 39 35
f 1 35 30
f 1 30 26
f 1 26 21
f 1 21 17
f 1 17 13
f 1 13 8
f 1 8 4
f 1 4 2
f 2 4 6
f 2 6 9
f 2 9 14
f 2 14 18
f 2 18 22
f 2 22 25
f 2 25 29
f 2 29 34
f 2 34 42
f 2 42 50
f 2 50 56
f 2 56 57
f 2 57 51
f 2 51 43
f 2 43 36
f 2 36 31
f 2 31 27
f 2 27 23
f 2 23 19
f 2 19 15
f 2 15 12
f 2 12 5
f 3 5 7
f 4 8 9
f 4 9 6
f 5 10 11
f 5 11 7
f 5 12 10
f 8 13 9
f 9 13 14
f 10 12 11
f 11 12 15
f 11 15 16
f 13 17 18
f 13 18 14
f 15 19 20
f 15 20 16
f 17 21 22
f 17 22 18
f 19 23 20
f 20 23 24
f 21 25 22
f 21 26 25
f 23 27 24
f 24 27 28
f 25 26 29
f 26 30 29
f 27 31 32
f 27 32 28
f 28 32 37
f 28 37 33
f 29 30 34
f 30 35 34
f 31 36 32
f 32 36 37
f 33 37 44
f 33 44 38
f 34 35 39
f 34 39 40
f 34 40 41
f 34 41 42
f 36 43 44
f 36 44 37
f 38 44 45
f 39 46 41
f 39 41 40
f 41 46 47
f 41 47 42
f 42 47 48
f 42 48 49
f 42 49 50
f 43 51 44
f 44 51 52
f 44 52 45
f 45 52 53
f 48 54 49
f 49 55 56
f 49 56 50
f 49 54 58
f 49 58 55
f 51 57 52
f 52 57 53
f 53 57 58
f 55 58 57
f 55 57 56

