# https://github.com/mikedh/trimesh
v 0.17630794 -0.16500718 -0.44610365
v 0.18241862 -0.16564167 -0.49242424
v 0.19757013 0.04647953 -0.40151515
v 0.12181256 0.12223710 -0.35606061
v 0.12117170 -0.16549662 -0.49777507
v 0.17689347 -0.10537757 -0.35573678
v 0.12181256 -0.16564167 -0.44696970
v 0.16726710 0.12223710 -0.50757575
v 0.17232319 0.12101119 -0.35640166
v 0.19757013 -0.08988410 -0.40151515
v 0.15211559 -0.16564167 -0.50757575
v 0.12181256 -0.07473259 -0.35606061
v 0.19757013 0.01617650 -0.46212121
v 0.12175181 0.12171026 -0.49899518
v 0.19757013 0.03132802 -0.38636364
v 0.18241862 0.12223710 -0.49242424
v 0.16726710 -0.12018713 -0.50757575
v 0.19757013 -0.08988410 -0.44696970
v 0.19757013 -0.05958107 -0.38636364
v 0.19757013 0.04647953 -0.44696970
v 0.19757013 -0.05958107 -0.46212121
f 7 2 1
f 7 1 6
f 9 4 6
f 10 6 1
f 10 1 2
f 11 7 5
f 11 2 7
f 12 7 6
f 12 6 4
f 12 4 5
f 12 5 7
f 13 3 10
f 14 5 4
f 14 4 8
f 14 11 5
f 14 8 11
f 15 9 6
f 15 3 9
f 15 10 3
f 16 8 4
f 16 4 9
f 16 9 3
f 16 13 2
f 16 2 8
f 17 11 8
f 17 8 2
f 17 2 11
f 18 13 10
f 18 10 2
f 19 15 6
f 19 6 10
f 19 10 15
f 20 16 3
f 20 3 13
f 20 13 16
f 21 18 2
f 21 2 13
f 21 13 18