# https://github.com/mikedh/trimesh
v 0.17552443 -0.01621531 0.26509217
v 0.18241862 -0.01412653 0.17424241
v 0.12181256 0.09193408 0.15909089
v 0.01534158 0.10189135 0.26743839
v 0.01575196 -0.01412653 0.14393938
v 0.10666104 0.09193408 0.26515150
v 0.18241862 0.01617650 0.26515150
v 0.16451463 -0.01430515 0.14403195
v 0.01575196 -0.01412653 0.26515150
v 0.01563490 0.10420791 0.14305715
v 0.16726710 0.04647953 0.14393938
v 0.13696407 0.07678256 0.17424241
v 0.08623368 0.09502078 0.13893813
v 0.09150953 0.10708559 0.15909089
v 0.18241862 0.00102499 0.17424241
v 0.16726710 0.04647953 0.15909089
v 0.12181256 0.09193408 0.14393938
v 0.07635802 0.10708559 0.26515150
v 0.18241862 0.01617650 0.24999998
v 0.15211559 0.06163105 0.17424241
f 7 1 2
f 7 6 4
f 7 4 1
f 8 2 1
f 8 1 5
f 9 5 1
f 9 1 4
f 9 4 5
f 10 5 4
f 11 2 8
f 12 3 6
f 12 6 7
f 13 8 5
f 13 5 10
f 13 11 8
f 14 6 3
f 14 13 10
f 15 7 2
f 15 2 11
f 16 7 11
f 16 11 12
f 17 11 13
f 17 12 11
f 17 3 12
f 17 14 3
f 17 13 14
f 18 14 10
f 18 10 4
f 18 4 6
f 18 6 14
f 19 15 11
f 19 11 7
f 19 7 15
f 20 16 12
f 20 12 7
f 20 7 16