# https://github.com/mikedh/trimesh
v -0.07513975 -0.25635582 0.26505336
v -0.07424167 -0.24464399 0.28757396
v -0.18121773 -0.22624773 0.28030301
v -0.10546016 0.03132802 0.40151513
v -0.07515713 0.03132802 0.26515150
v -0.09030865 -0.15049016 0.40151513
v -0.12061168 -0.25655076 0.29545453
v -0.18121773 -0.22624773 0.26515150
v -0.16606622 -0.15049016 0.35606058
v -0.07504813 0.03126159 0.40142412
v -0.07515713 -0.24139925 0.32575755
v -0.16606622 0.03132802 0.26515150
v -0.15091471 -0.25655076 0.28030301
v -0.12061168 -0.12018713 0.40151513
v -0.07515713 -0.15049016 0.40151513
v -0.10546016 -0.22624773 0.34090907
v -0.18121773 -0.01412653 0.32575755
v -0.13576319 -0.21109622 0.34090907
v -0.15091471 -0.25655076 0.26515150
v -0.07515713 -0.22624773 0.34090907
v -0.10546016 -0.24139925 0.32575755
v -0.16606622 0.03132802 0.31060604
v -0.15091471 0.00102499 0.37121210
v -0.18121773 -0.16564167 0.32575755
v -0.18121773 0.00102499 0.31060604
v -0.16606622 -0.18079319 0.34090907
v -0.15091471 -0.15049016 0.37121210
v -0.13576319 -0.24139925 0.31060604
v -0.12061168 0.01617650 0.40151513
v -0.16606622 0.01617650 0.34090907
v -0.16606622 -0.01412653 0.35606058
v -0.16932856 -0.00558550 0.26527738
v -0.18121773 -0.19594470 0.31060604
v -0.13576319 0.03132802 0.37121210
f 5 2 1
f 10 5 4
f 10 2 5
f 11 7 1
f 11 1 2
f 12 5 1
f 12 1 8
f 12 4 5
f 13 3 8
f 14 6 4
f 15 10 4
f 15 4 6
f 15 2 10
f 16 15 6
f 17 8 3
f 18 16 6
f 19 13 8
f 19 8 1
f 19 1 7
f 19 7 13
f 20 11 2
f 20 2 15
f 20 16 11
f 20 15 16
f 21 7 11
f 21 11 16
f 21 16 18
f 22 4 12
f 24 17 3
f 24 9 17
f 25 8 17
f 25 22 12
f 26 9 24
f 27 18 6
f 27 6 14
f 27 26 18
f 27 14 9
f 27 9 26
f 28 21 18
f 28 13 7
f 28 7 21
f 28 3 13
f 29 14 4
f 29 9 14
f 30 25 17
f 30 22 25
f 30 23 29
f 31 17 9
f 31 29 23
f 31 9 29
f 31 30 17
f 31 23 30
f 32 25 12
f 32 12 8
f 32 8 25
f 33 26 24
f 33 24 3
f 33 3 28
f 33 28 18
f 33 18 26
f 34 30 29
f 34 29 4
f 34 4 22
f 34 22 30