# https://github.com/mikedh/trimesh
v 0.01575196 -0.01412653 -0.23484849
v 0.01566278 -0.01413012 -0.49881954
v 0.01575196 0.12223710 -0.25000000
v -0.19636925 0.12223710 -0.25000000
v -0.18686338 -0.01407097 -0.23540234
v -0.16606622 0.12223710 -0.50757575
v 0.01575196 0.12223710 -0.23484849
v 0.01582948 0.12190025 -0.49817870
v -0.17446356 -0.01429326 -0.48446733
v -0.19636925 0.10708559 -0.23484849
v -0.16606622 -0.01412653 -0.50757575
v -0.19636925 0.12223710 -0.47727272
v -0.17897438 0.12188628 -0.23486913
v -0.18340587 -0.01419059 -0.47159526
f 6 4 3
f 7 3 4
f 8 1 2
f 8 7 1
f 8 3 7
f 8 6 3
f 8 2 6
f 9 2 1
f 9 1 5
f 10 5 1
f 10 1 7
f 11 6 2
f 11 2 9
f 12 4 6
f 12 6 11
f 12 10 4
f 12 5 10
f 13 10 7
f 13 7 4
f 13 4 10
f 14 12 11
f 14 11 9
f 14 9 5
f 14 5 12