# https://github.com/mikedh/trimesh
v 0.01575196 -0.16564167 0.00757575
v 0.01575196 -0.16564167 -0.23484849
v 0.01575196 0.12223710 -0.23484849
v -0.19636925 0.12223710 -0.00757577
v -0.18376783 -0.16456079 0.00786801
v -0.19636925 0.10708559 -0.23484849
v 0.01575196 0.12223710 0.00757575
v -0.18257529 -0.16373972 -0.23567749
v -0.17897438 0.12188628 -0.23486913
v -0.18315652 0.12110696 0.00741776
f 1 2 3
f 5 2 1
f 6 5 4
f 7 1 3
f 7 3 4
f 7 5 1
f 8 3 2
f 8 2 5
f 8 5 6
f 9 6 4
f 9 4 3
f 9 8 6
f 9 3 8
f 10 7 4
f 10 4 5
f 10 5 7