# https://github.com/mikedh/trimesh
v 0.17603666 -0.16422813 -0.09834580
v 0.17630794 -0.16500718 -0.44610365
v 0.19757013 0.10708559 -0.09848486
v 0.12181256 0.12223710 -0.09848486
v 0.12181256 -0.16564167 -0.44696970
v 0.17232319 0.12101119 -0.35640166
v 0.18318020 -0.13291913 -0.09586049
v 0.12181256 -0.16564167 -0.09848486
v 0.19757013 0.04647953 -0.32575758
v 0.17995975 0.12176326 -0.09798896
v 0.12181256 0.12223710 -0.35606061
v 0.18051239 -0.10492763 -0.44684974
v 0.19757013 -0.15049016 -0.23484849
v 0.19757013 0.07678256 -0.26515152
v 0.19757013 0.10708559 -0.11363637
v 0.12181256 -0.10503562 -0.44696970
v 0.19757013 -0.12018713 -0.32575758
v 0.19757013 -0.15049016 -0.28030303
f 8 5 2
f 8 2 1
f 8 4 5
f 8 7 4
f 8 1 7
f 10 7 3
f 10 4 7
f 11 5 4
f 11 10 6
f 11 4 10
f 12 2 5
f 12 11 6
f 12 6 9
f 13 7 1
f 13 1 2
f 13 9 3
f 13 3 7
f 14 9 6
f 14 3 9
f 15 10 3
f 15 6 10
f 15 14 6
f 15 3 14
f 16 12 5
f 16 5 11
f 16 11 12
f 17 12 9
f 17 9 13
f 17 2 12
f 18 17 13
f 18 13 2
f 18 2 17