# https://github.com/mikedh/trimesh
v 0.15211559 -0.27170228 0.23484847
v 0.19757013 -0.19594470 0.15909089
v 0.17552443 -0.01621531 0.26509217
v 0.12181256 -0.01412653 0.26515150
v 0.12134932 -0.27048567 0.14398673
v 0.16451463 -0.01430515 0.14403195
v 0.15211559 -0.25655076 0.26515150
v 0.18241862 -0.24139925 0.14393938
v 0.18241862 -0.01412653 0.15909089
v 0.12181256 -0.01412653 0.14393938
v 0.18241862 -0.22624773 0.26515150
v 0.11772624 -0.25869045 0.24458052
v 0.15211559 -0.27170228 0.14393938
v 0.18241862 -0.04442956 0.14393938
v 0.19757013 -0.13533865 0.23484847
v 0.16726710 -0.25655076 0.24999998
v 0.18241862 -0.24139925 0.23484847
v 0.13696407 -0.27170228 0.24999998
v 0.11972640 -0.25029430 0.26238063
v 0.19757013 -0.15049016 0.15909089
v 0.19757013 -0.19594470 0.21969695
v 0.19757013 -0.13533865 0.18939392
v 0.19757013 -0.16564167 0.23484847
f 9 4 3
f 10 9 6
f 10 4 9
f 11 3 4
f 11 4 7
f 12 10 5
f 12 4 10
f 13 8 1
f 13 10 8
f 13 5 10
f 14 2 8
f 14 6 9
f 14 10 6
f 14 8 10
f 15 9 3
f 15 3 11
f 16 11 7
f 16 7 1
f 17 8 2
f 17 11 16
f 17 16 1
f 17 1 8
f 18 12 5
f 18 1 7
f 18 13 1
f 18 5 13
f 19 7 4
f 19 4 12
f 19 18 7
f 19 12 18
f 20 14 9
f 20 2 14
f 20 15 2
f 21 2 15
f 21 17 2
f 21 11 17
f 22 20 9
f 22 9 15
f 22 15 20
f 23 21 15
f 23 15 11
f 23 11 21