# https://github.com/mikedh/trimesh
v 0.13696407 0.01617650 0.37121210
v 0.16726710 0.03132802 0.21969695
v 0.16726710 0.03132802 0.31060604
v 0.12181256 0.07678256 0.34090907
v 0.10666104 0.03132802 0.18939392
v 0.12181256 0.06163105 0.37121210
v 0.15613746 0.00834508 0.30679813
v 0.10301280 0.07051457 0.18810645
v 0.13696407 0.03132802 0.37121210
v 0.13696407 0.06163105 0.34090907
v 0.10276495 0.01382008 0.38231193
v 0.16013551 0.01207418 0.21991694
v 0.11399128 0.06416597 0.18660918
v 0.12181256 0.03132802 0.38636361
v 0.12181256 0.01617650 0.38636361
v 0.10020441 0.02705509 0.37782662
v 0.14812393 0.02794043 0.18909643
v 0.10666104 0.01617650 0.21969695
v 0.09953321 0.06974109 0.33767791
v 0.10666104 0.06163105 0.37121210
v 0.14122821 0.03699579 0.18801768
f 7 3 1
f 9 1 3
f 10 4 6
f 10 3 2
f 10 2 4
f 10 9 3
f 10 6 9
f 12 2 3
f 12 3 7
f 13 8 4
f 13 4 2
f 13 5 8
f 14 9 6
f 14 1 9
f 15 11 7
f 15 7 1
f 15 14 11
f 15 1 14
f 16 11 14
f 17 2 12
f 18 17 12
f 18 5 17
f 18 11 16
f 18 16 8
f 18 8 5
f 18 12 7
f 18 7 11
f 19 4 8
f 19 8 16
f 20 16 14
f 20 14 6
f 20 19 16
f 20 6 4
f 20 4 19
f 21 13 2
f 21 2 17
f 21 17 5
f 21 5 13