# https://github.com/mikedh/trimesh
v -0.08370633 0.02738746 0.39469300
v -0.07515713 0.03132802 0.14393938
v -0.06618509 0.09978611 0.35209631
v -0.09030865 0.10708559 0.35606058
v -0.16606622 0.03132802 0.15909089
v -0.07236892 0.09818480 0.14017186
v -0.09030865 0.06163105 0.40151513
v -0.06817072 0.05783578 0.39369402
v -0.15380958 0.02626955 0.14247181
v -0.12061168 0.09193408 0.14393938
v -0.15091471 0.04647953 0.32575755
v -0.07504813 0.03126159 0.40142412
v -0.14036710 0.02348750 0.32118551
v -0.08640883 0.09441007 0.13822188
v -0.16606622 0.04647953 0.14393938
v -0.13576319 0.03132802 0.35606058
v -0.12061168 0.06163105 0.37121210
v -0.16606622 0.04647953 0.15909089
v -0.10546016 0.09193408 0.35606058
v -0.13576319 0.04647953 0.35606058
v -0.12061168 0.09193408 0.15909089
f 6 3 2
f 6 4 3
f 7 3 4
f 8 2 3
f 8 3 7
f 10 4 6
f 12 1 2
f 12 2 8
f 12 8 7
f 12 7 1
f 13 9 2
f 13 2 1
f 13 5 9
f 13 11 5
f 14 6 2
f 14 2 9
f 14 10 6
f 15 9 5
f 15 14 9
f 15 10 14
f 16 1 7
f 16 13 1
f 16 11 13
f 18 15 5
f 18 5 11
f 18 10 15
f 19 11 17
f 19 18 11
f 19 17 7
f 19 7 4
f 20 17 11
f 20 11 16
f 20 16 7
f 20 7 17
f 21 4 10
f 21 10 18
f 21 19 4
f 21 18 19