# https://github.com/mikedh/trimesh
v 0.09150953 -0.28685379 -0.29545455
v 0.15211559 -0.25655076 -0.49242424
v 0.10666104 -0.16564167 -0.28030303
v -0.12061168 -0.16564167 -0.28030303
v -0.12061168 -0.28685379 -0.46212121
v 0.10656134 -0.16545649 -0.49821794
v 0.07635802 -0.28685379 -0.28030303
v 0.15211559 -0.27170228 -0.41666666
v 0.15620703 -0.24487142 -0.41660785
v -0.12004896 -0.16538278 -0.49789376
v 0.10536549 -0.26629479 -0.28027087
v -0.11888542 -0.26378091 -0.28059570
v 0.10666104 -0.28685379 -0.47727272
v 0.15211559 -0.24139925 -0.49242424
v 0.15211559 -0.27170228 -0.46212121
v -0.12061168 -0.24139925 -0.50757575
v -0.06000562 -0.28685379 -0.28030303
v -0.12061168 -0.28685379 -0.35606061
v 0.13696407 -0.28685379 -0.41666666
v 0.10666104 -0.24139925 -0.50757575
v -0.12061168 -0.27170228 -0.49242424
v -0.07515713 -0.28685379 -0.29545455
v 0.12181256 -0.28685379 -0.46212121
v 0.12181256 -0.27170228 -0.49242424
v -0.10546016 -0.28685379 -0.47727272
v 0.07635802 -0.25655076 -0.50757575
v 0.13696407 -0.28685379 -0.43181818
v -0.07515713 -0.25655076 -0.50757575
f 7 5 1
f 9 6 3
f 10 4 3
f 10 3 6
f 11 7 1
f 11 3 4
f 11 1 8
f 11 9 3
f 11 8 9
f 13 1 5
f 14 9 2
f 14 6 9
f 15 9 8
f 15 2 9
f 16 5 4
f 16 4 10
f 16 10 6
f 17 11 4
f 17 7 11
f 17 4 12
f 17 5 7
f 18 12 4
f 18 4 5
f 18 5 17
f 19 8 1
f 19 1 13
f 19 15 8
f 20 14 2
f 20 6 14
f 20 16 6
f 21 5 16
f 22 18 17
f 22 17 12
f 22 12 18
f 23 19 13
f 23 13 15
f 24 20 2
f 24 13 21
f 24 15 13
f 24 2 15
f 25 21 13
f 25 13 5
f 25 5 21
f 26 16 20
f 26 24 21
f 26 20 24
f 27 23 15
f 27 15 19
f 27 19 23
f 28 26 21
f 28 21 16
f 28 16 26