# https://github.com/mikedh/trimesh
v 0.12181256 -0.16564167 -0.23484849
v 0.12117170 -0.16549662 -0.49777507
v 0.12183857 -0.01415007 -0.49998960
v -0.18686338 -0.01407097 -0.23540234
v -0.19636925 -0.16564167 -0.47727272
v 0.12181256 -0.01412653 -0.23484849
v -0.18257529 -0.16373972 -0.23567749
v -0.16606622 -0.16564167 -0.50757575
v -0.16606622 -0.01412653 -0.50757575
v -0.18340587 -0.01419059 -0.47159526
f 1 2 3
f 6 1 3
f 6 3 4
f 6 4 1
f 7 5 1
f 7 1 4
f 7 4 5
f 8 3 2
f 8 2 1
f 8 1 5
f 9 8 5
f 9 4 3
f 9 3 8
f 10 9 5
f 10 5 4
f 10 4 9