# https://github.com/mikedh/trimesh
v 0.09150953 -0.15049016 0.40151513
v 0.10666104 -0.15049016 0.26515150
v 0.10666104 0.09193408 0.34090907
v -0.04485410 0.18284316 0.37121210
v -0.07515713 -0.15049016 0.26515150
v 0.07635802 0.03132802 0.50757573
v 0.10666104 -0.13533865 0.40151513
v 0.04605499 0.18284316 0.26515150
v -0.07515713 -0.07473259 0.50757573
v 0.10198789 -0.14579514 0.37462846
v 0.06120650 -0.08988410 0.50757573
v 0.09150953 0.00102499 0.49242422
v 0.10666104 0.09193408 0.26515150
v -0.07515713 0.10708559 0.26515150
v 0.04605499 0.18284316 0.37121210
v -0.07515713 -0.15049016 0.40151513
v -0.04485410 0.06163105 0.50757573
v 0.10666104 -0.01412653 0.41666664
v 0.10666104 0.07678256 0.37121210
v 0.07635802 -0.07473259 0.50757573
v 0.06120650 0.16769165 0.34090907
v -0.03266671 0.18753611 0.27182923
v -0.10546016 0.01617650 0.41666664
v -0.02970259 -0.10503562 0.50757573
v 0.04605499 0.06163105 0.50757573
v 0.10666104 -0.07473259 0.41666664
v 0.10666104 0.03132802 0.40151513
v 0.09150953 -0.04442956 0.49242422
v 0.06120650 0.16769165 0.31060604
v -0.06000562 0.16769165 0.31060604
v -0.09030865 0.01617650 0.49242422
v -0.10546016 -0.08988410 0.41666664
v -0.06000562 -0.08988410 0.50757573
v 0.03090347 -0.10503562 0.50757573
v 0.10666104 0.06163105 0.38636361
v -0.06000562 0.16769165 0.34090907
v -0.07515713 0.12223710 0.29545453
v -0.07515713 0.03132802 0.50757573
v -0.09030865 -0.04442956 0.50757573
v -0.06000562 0.15254013 0.37121210
v -0.07515713 0.12223710 0.35606058
v -0.09030865 0.00102499 0.50757573
f 5 2 1
f 7 2 3
f 8 2 5
f 10 7 1
f 10 1 2
f 10 2 7
f 11 1 7
f 11 6 9
f 13 3 2
f 13 2 8
f 14 8 5
f 16 5 1
f 17 9 6
f 17 15 4
f 18 7 3
f 19 6 12
f 19 15 6
f 19 3 15
f 19 18 3
f 20 11 7
f 20 12 6
f 20 6 11
f 21 3 13
f 21 15 3
f 21 8 15
f 22 8 14
f 22 15 8
f 22 4 15
f 23 14 5
f 24 11 9
f 24 16 1
f 25 17 6
f 25 6 15
f 25 15 17
f 26 18 12
f 26 7 18
f 27 12 18
f 27 18 19
f 28 20 7
f 28 12 20
f 28 26 12
f 28 7 26
f 29 21 13
f 29 13 8
f 29 8 21
f 30 22 14
f 30 4 22
f 32 16 9
f 32 23 5
f 32 5 16
f 33 24 9
f 33 9 16
f 33 16 24
f 34 24 1
f 34 1 11
f 34 11 24
f 35 27 19
f 35 19 12
f 35 12 27
f 36 4 30
f 37 30 14
f 37 14 23
f 37 36 30
f 38 17 4
f 38 4 31
f 38 9 17
f 39 23 32
f 39 32 9
f 39 9 38
f 40 31 4
f 40 4 36
f 40 36 23
f 40 23 31
f 41 37 23
f 41 23 36
f 41 36 37
f 42 31 23
f 42 23 39
f 42 39 38
f 42 38 31