# https://github.com/mikedh/trimesh
v 0.01572496 -0.27907531 0.14425382
v 0.01569803 -0.28035720 0.00845061
v 0.01575196 0.12223710 0.00757575
v -0.18121773 0.15254013 0.06818180
v -0.18121773 -0.24139925 0.14393938
v -0.19636925 0.15254013 0.00757575
v 0.01575196 0.12223710 0.14393938
v -0.12061168 -0.28685379 0.14393938
v -0.18376783 -0.16456079 0.00786801
v -0.15091471 0.15254013 0.00757575
v -0.18121773 -0.01412653 0.14393938
v -0.14284200 -0.26013589 0.14522512
v -0.07426556 -0.27728571 0.00817541
v -0.19636925 -0.16564167 0.08333332
v -0.14986019 0.15228696 0.06685292
v -0.19636925 0.13738862 0.03787878
v -0.10546016 0.10708559 0.14393938
v -0.12061168 -0.28685379 0.11363635
v -0.16606622 -0.25655076 0.08333332
v -0.19636925 0.15254013 0.02272726
v -0.19636925 0.07678256 0.05303029
v -0.06000562 0.12223710 0.14393938
v -0.16606622 0.04647953 0.14393938
v -0.18121773 -0.22624773 0.08333332
v -0.15091471 -0.27170228 0.09848483
v -0.19636925 -0.13533865 0.08333332
v -0.10546016 0.12223710 0.12878786
v -0.18121773 -0.24139925 0.12878786
f 1 2 3
f 7 1 3
f 8 2 1
f 9 6 3
f 10 6 4
f 10 3 6
f 10 7 3
f 12 8 1
f 12 5 8
f 12 11 5
f 12 1 7
f 13 9 3
f 13 3 2
f 14 6 9
f 14 5 11
f 15 10 4
f 15 4 7
f 15 7 10
f 16 11 4
f 16 6 14
f 18 13 2
f 18 2 8
f 19 9 13
f 20 16 4
f 20 4 6
f 20 6 16
f 21 16 14
f 21 11 16
f 22 7 4
f 22 17 12
f 22 12 7
f 23 17 4
f 23 4 11
f 23 11 12
f 23 12 17
f 24 14 9
f 24 9 19
f 25 19 13
f 25 13 18
f 25 18 8
f 25 8 5
f 26 21 14
f 26 14 11
f 26 11 21
f 27 22 4
f 27 4 17
f 27 17 22
f 28 24 19
f 28 5 14
f 28 14 24
f 28 25 5
f 28 19 25