# https://github.com/mikedh/trimesh
v 0.18075713 -0.16565691 0.14409695
v 0.19757013 -0.15049016 0.00757575
v 0.19757013 0.10708559 0.02272726
v 0.12181256 0.12223710 0.11363635
v 0.12181256 -0.16564167 0.00757575
v 0.16726710 0.04647953 0.14393938
v 0.19757013 -0.10503562 0.05303029
v 0.18027537 -0.16719798 0.00670095
v 0.12181256 -0.16564167 0.14393938
v 0.12181256 0.12223710 0.00757575
v 0.18241862 -0.04442956 0.14393938
v 0.18241862 0.12223710 0.06818180
v 0.19757013 -0.15049016 0.03787878
v 0.12181256 0.09193408 0.14393938
v 0.19757013 0.10708559 0.00757575
v 0.19757013 0.09193408 0.03787878
v 0.13696407 0.09193408 0.14393938
v 0.18097517 0.12211517 0.00753408
v 0.19757013 -0.01412653 0.05303029
v 0.13696407 0.12223710 0.11363635
v 0.15211559 0.07678256 0.14393938
f 7 2 3
f 9 4 5
f 9 8 1
f 9 5 8
f 10 5 4
f 10 8 5
f 11 6 1
f 11 1 7
f 12 10 4
f 12 6 11
f 13 7 1
f 13 2 7
f 13 8 2
f 13 1 8
f 14 4 9
f 14 9 1
f 15 3 2
f 15 2 8
f 15 12 3
f 16 7 3
f 16 12 11
f 16 3 12
f 17 4 14
f 17 14 1
f 18 15 8
f 18 8 10
f 18 10 12
f 18 12 15
f 19 16 11
f 19 11 7
f 19 7 16
f 20 17 12
f 20 12 4
f 20 4 17
f 21 6 12
f 21 12 17
f 21 17 1
f 21 1 6