# https://github.com/mikedh/trimesh
v 0.04605499 0.18284316 0.35606058
v 0.03989422 0.21769253 0.14072255
v 0.04605499 0.27375225 0.23484847
v -0.02970259 0.28890377 0.23484847
v -0.04485410 0.18284316 0.24999998
v 0.02579315 0.27617212 0.14288915
v 0.01575196 0.25860074 0.31060604
v 0.04605499 0.18284316 0.24999998
v 0.03708994 0.26729209 0.14172883
v 0.03090347 0.28890377 0.21969695
v -0.04485410 0.28890377 0.14393938
v 0.04605499 0.22829771 0.32575755
v -0.04485410 0.19799468 0.35606058
v -0.04485410 0.19799468 0.14393938
v 0.03090347 0.16769165 0.24999998
v 0.03090347 0.27375225 0.28030301
v 0.02883324 0.21113764 0.13846790
v 0.01575196 0.21314619 0.35606058
v -0.02970259 0.25860074 0.31060604
v -0.02970259 0.16769165 0.24999998
v 0.04605499 0.25860074 0.28030301
v 0.03090347 0.24344922 0.32575755
v 0.01575196 0.28890377 0.23484847
v 0.04605499 0.19799468 0.35606058
v -0.04485410 0.27375225 0.24999998
v -0.02970259 0.27375225 0.28030301
v -0.02970259 0.21314619 0.35606058
v -0.03290687 0.17659500 0.34920604
v -0.04485410 0.28890377 0.17424241
v -0.04485410 0.24344922 0.31060604
f 8 2 3
f 8 3 1
f 9 3 2
f 10 9 6
f 10 3 9
f 11 10 6
f 11 4 10
f 11 6 9
f 12 1 3
f 13 11 5
f 14 5 11
f 15 8 1
f 15 2 8
f 16 3 10
f 17 11 9
f 17 9 2
f 17 14 11
f 17 15 14
f 17 2 15
f 18 13 1
f 19 7 16
f 19 18 7
f 20 5 14
f 20 14 15
f 21 16 12
f 21 12 3
f 21 3 16
f 22 16 7
f 22 12 16
f 22 7 18
f 23 16 10
f 23 10 4
f 23 4 16
f 24 18 1
f 24 1 12
f 24 22 18
f 24 12 22
f 25 11 13
f 26 19 16
f 26 16 4
f 26 25 19
f 26 4 25
f 27 13 18
f 27 18 19
f 28 13 5
f 28 5 20
f 28 1 13
f 28 20 15
f 28 15 1
f 29 25 4
f 29 4 11
f 29 11 25
f 30 25 13
f 30 19 25
f 30 27 19
f 30 13 27