# https://github.com/mikedh/trimesh
v 0.10666104 -0.28685379 0.21969695
v 0.12181256 -0.28685379 0.14393938
v 0.12181256 -0.16564167 0.26515150
v -0.12061168 -0.16564167 0.26515150
v -0.12061168 -0.28685379 0.14393938
v 0.01575196 -0.16564167 0.14393938
v 0.12181256 -0.27170228 0.26515150
v 0.12181256 -0.16564167 0.14393938
v -0.12061168 -0.16564167 0.14393938
v -0.12061168 -0.27170228 0.26515150
v 0.12181256 -0.28685379 0.20454544
v -0.06000562 -0.28685379 0.23484847
v -0.12061168 -0.28685379 0.20454544
v 0.07635802 -0.28685379 0.23484847
v -0.10546016 -0.28685379 0.21969695
f 5 2 1
f 6 4 3
f 6 2 5
f 7 3 4
f 7 2 3
f 8 6 3
f 8 3 2
f 8 2 6
f 9 6 5
f 9 5 4
f 9 4 6
f 10 7 4
f 10 4 5
f 11 7 1
f 11 1 2
f 11 2 7
f 12 5 1
f 12 7 10
f 13 10 5
f 13 5 12
f 14 12 1
f 14 1 7
f 14 7 12
f 15 13 12
f 15 12 10
f 15 10 13