# https://github.com/mikedh/trimesh
v 0.13696407 -0.25655076 0.28030301
v 0.18241862 -0.21109622 0.28030301
v 0.12181256 -0.15049016 0.38636361
v 0.10276495 0.01382008 0.38231193
v 0.10666104 0.01617650 0.26515150
v 0.18241862 -0.01412653 0.32575755
v 0.10598219 -0.25320585 0.26359575
v 0.15211559 -0.18079319 0.35606058
v 0.12181256 0.00102499 0.40151513
v 0.18241862 0.01617650 0.28030301
v 0.10666104 -0.25655076 0.29545453
v 0.09943033 -0.00146552 0.39227782
v 0.16726710 -0.24139925 0.26515150
v 0.18241862 -0.15049016 0.32575755
v 0.13696407 -0.13533865 0.38636361
v 0.12181256 0.01617650 0.38636361
v 0.12181256 -0.18079319 0.37121210
v 0.13696407 -0.24139925 0.31060604
v 0.10198789 -0.14579514 0.37462846
v 0.12181256 -0.10503562 0.40151513
v 0.13225568 -0.24626564 0.26039676
v 0.18241862 0.01617650 0.26515150
v 0.16726710 -0.19594470 0.32575755
v 0.16726710 -0.13533865 0.35606058
v 0.16726710 0.01617650 0.34090907
v 0.12181256 -0.25655076 0.29545453
v 0.13696407 -0.19594470 0.35606058
v 0.16726710 -0.24139925 0.28030301
v 0.10089976 -0.10208733 0.38996285
v 0.10666104 -0.18079319 0.37121210
v 0.16917748 -0.20596756 0.26092132
v 0.18241862 -0.18079319 0.31060604
v 0.16726710 -0.01412653 0.35606058
v 0.18241862 0.00102499 0.31060604
v 0.15211559 0.00102499 0.37121210
f 10 6 2
f 11 7 1
f 12 4 5
f 12 5 7
f 12 9 4
f 14 2 6
f 16 10 5
f 16 5 4
f 16 4 9
f 17 15 3
f 18 17 11
f 19 7 11
f 20 9 12
f 20 3 15
f 21 13 1
f 21 1 7
f 21 7 5
f 22 10 2
f 22 5 10
f 23 8 18
f 24 15 8
f 24 14 6
f 24 20 15
f 24 9 20
f 25 16 9
f 25 10 16
f 26 18 11
f 26 11 1
f 26 1 18
f 27 18 8
f 27 17 18
f 27 8 15
f 27 15 17
f 28 18 1
f 28 1 13
f 28 23 18
f 28 13 2
f 29 12 7
f 29 7 19
f 29 20 12
f 30 17 3
f 30 29 19
f 30 3 20
f 30 20 29
f 30 19 11
f 30 11 17
f 31 22 2
f 31 2 13
f 31 13 21
f 31 21 5
f 31 5 22
f 32 2 14
f 32 8 23
f 32 24 8
f 32 14 24
f 32 28 2
f 32 23 28
f 33 24 6
f 33 9 24
f 33 6 25
f 34 25 6
f 34 6 10
f 34 10 25
f 35 33 25
f 35 25 9
f 35 9 33