# https://github.com/mikedh/trimesh
v 0.01575196 -0.16564167 0.26515150
v 0.01575196 -0.16564167 0.14393938
v 0.01563490 0.10420791 0.14305715
v -0.07515713 0.10708559 0.26515150
v -0.12061168 -0.16564167 0.26515150
v 0.01534158 0.10189135 0.26743839
v -0.12061168 -0.16564167 0.14393938
v -0.12061168 0.03132802 0.26515150
v -0.07236892 0.09818480 0.14017186
v -0.12061168 0.03132802 0.14393938
f 1 2 3
f 5 2 1
f 6 1 3
f 6 3 4
f 6 5 1
f 7 2 5
f 8 6 4
f 8 5 6
f 8 7 5
f 9 3 2
f 9 2 7
f 9 4 3
f 10 9 7
f 10 7 8
f 10 8 4
f 10 4 9