# https://github.com/mikedh/trimesh
v 0.12181256 -0.28685379 0.14393938
v 0.18241862 -0.21109622 -0.47727272
v 0.18075713 -0.16565691 0.14409695
v 0.10666104 -0.16564167 0.14393938
v 0.10666104 -0.24139925 -0.50757575
v 0.15211559 -0.16564167 -0.50757575
v 0.10410874 -0.27540952 0.14404933
v 0.18241862 -0.24139925 0.14393938
v 0.15211559 -0.27170228 -0.41666666
v 0.18205908 -0.15045559 0.00760516
v 0.10656134 -0.16545649 -0.49821794
v 0.15211559 -0.21109622 -0.50757575
v 0.10457014 -0.27697486 -0.41683537
v 0.15211559 -0.27170228 0.14393938
v 0.16726710 -0.25655076 -0.46212121
v 0.16942993 -0.16416944 -0.47097426
v 0.17917429 -0.15028533 0.05284957
v 0.18241862 -0.22624773 -0.46212121
v 0.16726710 -0.22624773 -0.49242424
v 0.12181256 -0.24139925 -0.50757575
v 0.18241862 -0.24139925 0.12878786
v 0.15211559 -0.24139925 -0.49242424
f 7 3 4
f 8 3 7
f 10 8 2
f 10 3 8
f 11 6 5
f 11 7 4
f 12 6 2
f 12 5 6
f 13 1 7
f 13 9 1
f 13 11 5
f 13 7 11
f 14 9 8
f 14 1 9
f 14 8 7
f 14 7 1
f 15 9 13
f 16 10 2
f 16 2 6
f 16 11 10
f 16 6 11
f 17 4 3
f 17 3 10
f 17 11 4
f 17 10 11
f 18 15 2
f 18 2 8
f 19 12 2
f 19 2 15
f 20 15 13
f 20 13 5
f 20 5 12
f 21 18 8
f 21 15 18
f 21 8 9
f 21 9 15
f 22 19 15
f 22 15 20
f 22 20 12
f 22 12 19