# https://github.com/mikedh/trimesh
v 0.09150953 -0.27170228 0.28030301
v 0.10598219 -0.25320585 0.26359575
v 0.10666104 -0.16564167 0.38636361
v -0.12752815 -0.14627986 0.36065143
v -0.07396930 -0.25909439 0.25952253
v 0.10666104 -0.15049016 0.26515150
v -0.10546016 -0.19594470 0.37121210
v 0.10666104 -0.24139925 0.32575755
v 0.08976935 -0.25816300 0.25900391
v 0.04445067 -0.14331432 0.39017126
v -0.07515713 -0.15049016 0.26515150
v -0.07515713 -0.27170228 0.28030301
v 0.10666104 -0.25655076 0.29545453
v 0.04605499 -0.16564167 0.40151513
v 0.10198789 -0.14579514 0.37462846
v -0.14888272 -0.14959746 0.33914528
v -0.04299254 -0.14334790 0.39032162
v -0.02970259 -0.25655076 0.31060604
v 0.10666104 -0.19594470 0.37121210
v -0.14231791 -0.14678004 0.34745671
v -0.15091471 -0.18079319 0.35606058
v -0.04485410 -0.16564167 0.40151513
v -0.07515713 -0.24139925 0.32575755
v 0.01575196 -0.25655076 0.31060604
v -0.14280605 -0.17476026 0.33229099
v -0.13576319 -0.19594470 0.35606058
v -0.13576319 -0.16564167 0.37121210
v -0.10546016 -0.21109622 0.35606058
v -0.10546016 -0.16564167 0.38636361
v -0.10126006 -0.14545118 0.37520766
f 8 6 3
f 9 2 1
f 9 1 5
f 9 6 2
f 11 10 6
f 11 9 5
f 11 6 9
f 12 5 1
f 13 8 1
f 13 1 2
f 13 2 6
f 13 6 8
f 14 3 10
f 15 10 3
f 15 3 6
f 15 6 10
f 16 11 5
f 17 10 11
f 17 14 10
f 18 12 1
f 19 14 8
f 19 8 3
f 19 3 14
f 20 11 16
f 20 17 11
f 20 4 17
f 21 5 12
f 22 14 17
f 22 18 14
f 23 12 18
f 23 18 22
f 24 18 1
f 24 1 8
f 24 8 14
f 24 14 18
f 25 21 16
f 25 16 5
f 25 5 21
f 26 21 12
f 27 20 16
f 27 16 21
f 27 4 20
f 27 26 7
f 27 21 26
f 28 7 26
f 28 23 22
f 28 22 7
f 28 26 12
f 28 12 23
f 29 27 7
f 29 7 22
f 29 22 17
f 30 29 17
f 30 17 4
f 30 4 27
f 30 27 29