# https://github.com/mikedh/trimesh
v 0.10666104 -0.28685379 -0.00757577
v 0.10536549 -0.26629479 -0.28027087
v 0.10666104 -0.16564167 0.00757575
v -0.12061168 -0.16564167 0.00757575
v -0.12061168 -0.28685379 -0.00757577
v -0.12061168 -0.16564167 -0.28030303
v -0.07502811 -0.27020716 0.08344372
v 0.10666104 -0.16564167 -0.28030303
v 0.04605499 -0.28685379 -0.28030303
v 0.10324258 -0.27338147 0.00875155
v -0.07515713 -0.24139925 0.08333332
v -0.10546016 -0.28685379 0.06818180
v 0.07635802 -0.28685379 -0.23484849
v -0.11888542 -0.26378091 -0.28059570
v -0.07515713 -0.28685379 0.06818180
v -0.12061168 -0.24139925 0.08333332
v -0.06000562 -0.28685379 -0.28030303
v -0.12061168 -0.28685379 0.05303029
v -0.11828781 -0.26306103 0.08399867
f 6 4 3
f 6 5 4
f 8 1 2
f 8 3 1
f 8 6 3
f 9 1 5
f 10 1 3
f 10 3 7
f 11 7 3
f 11 3 4
f 12 5 1
f 13 9 2
f 13 2 1
f 13 1 9
f 14 5 6
f 14 6 8
f 14 8 2
f 14 2 9
f 15 10 7
f 15 1 10
f 15 12 1
f 15 7 12
f 16 4 5
f 16 11 4
f 17 14 9
f 17 9 5
f 17 5 14
f 18 16 5
f 18 5 12
f 19 12 7
f 19 7 11
f 19 11 16
f 19 18 12
f 19 16 18