# https://github.com/mikedh/trimesh
v 0.10666104 0.12223710 -0.09848486
v 0.10670755 0.12191028 -0.49912197
v 0.10666104 0.28890377 -0.46212121
v -0.16606622 0.25860074 -0.09848486
v -0.19636925 0.12223710 -0.29545455
v 0.10666104 0.27375225 -0.09848486
v -0.17873799 0.12180618 -0.09837291
v -0.18121773 0.21314619 -0.49242424
v -0.12061168 0.28890377 -0.37121212
v -0.19636925 0.12223710 -0.47727272
v -0.18121773 0.22829771 -0.09848486
v 0.10666104 0.24344922 -0.50757575
v -0.01455107 0.28890377 -0.28030303
v -0.18121773 0.24344922 -0.46212121
v -0.16606622 0.12223710 -0.50757575
v -0.12061168 0.27375225 -0.49242424
v 0.10666104 0.28890377 -0.37121212
v -0.04485410 0.28890377 -0.28030303
v -0.15091471 0.27375225 -0.47727272
v -0.18121773 0.24344922 -0.37121212
v -0.19636925 0.18284316 -0.44696970
v 0.10666104 0.27375225 -0.49242424
v -0.12061168 0.28890377 -0.46212121
v -0.15091471 0.21314619 -0.50757575
v -0.12827256 0.26191284 -0.09873933
v -0.15091471 0.27375225 -0.37121212
v -0.16606622 0.24344922 -0.49242424
v -0.19636925 0.13738862 -0.47727272
v -0.19636925 0.18284316 -0.38636364
v -0.06000562 0.28890377 -0.47727272
v -0.16606622 0.15254013 -0.50757575
v -0.12061168 0.24344922 -0.50757575
v -0.15091471 0.25860074 -0.49242424
v -0.16606622 0.25860074 -0.47727272
v -0.19636925 0.16769165 -0.46212121
v -0.19636925 0.13738862 -0.29545455
v 0.04605499 0.28890377 -0.47727272
f 6 1 2
f 7 2 1
f 7 6 4
f 7 1 6
f 10 7 5
f 10 2 7
f 11 7 4
f 11 5 7
f 13 3 9
f 15 10 8
f 15 2 10
f 15 12 2
f 17 13 6
f 17 3 13
f 17 6 2
f 17 2 3
f 18 13 9
f 18 9 4
f 18 6 13
f 20 11 4
f 20 19 14
f 21 14 8
f 21 10 5
f 21 20 14
f 22 12 16
f 22 3 2
f 22 2 12
f 23 9 3
f 23 19 9
f 23 16 19
f 24 12 15
f 25 18 4
f 25 4 6
f 25 6 18
f 26 4 9
f 26 9 19
f 26 20 4
f 26 19 20
f 27 24 8
f 28 8 10
f 28 10 21
f 29 21 5
f 29 11 20
f 29 20 21
f 30 22 16
f 30 23 3
f 30 16 23
f 31 24 15
f 31 15 8
f 31 8 24
f 32 16 12
f 32 12 24
f 32 24 27
f 33 27 19
f 33 19 16
f 33 32 27
f 33 16 32
f 34 14 19
f 34 19 27
f 34 27 8
f 34 8 14
f 35 28 21
f 35 21 8
f 35 8 28
f 36 29 5
f 36 5 11
f 36 11 29
f 37 30 3
f 37 3 22
f 37 22 30