# https://github.com/mikedh/trimesh
v -0.13576319 -0.27170228 0.24999998
v -0.12015202 -0.27023835 0.14405867
v -0.11681522 0.05922812 0.26486902
v -0.13576319 0.06163105 0.26515150
v -0.19636925 -0.15049016 0.14393938
v -0.15091471 -0.25655076 0.26515150
v -0.11902308 -0.25083605 0.26250992
v -0.12061168 0.03132802 0.14393938
v -0.19636925 -0.08988410 0.26515150
v -0.18121773 -0.24139925 0.14393938
v -0.11696429 -0.25936603 0.24461871
v -0.18121773 0.00102499 0.15909089
v -0.13576319 0.06163105 0.21969695
v -0.16932856 -0.00558550 0.26527738
v -0.15091471 -0.27170228 0.23484847
v -0.15380958 0.02626955 0.14247181
v -0.19636925 -0.19594470 0.24999998
v -0.11477584 0.05760709 0.21917085
v -0.19636925 -0.08988410 0.20454544
v -0.16606622 0.03132802 0.26515150
v -0.19636925 -0.18079319 0.26515150
v -0.14284200 -0.26013589 0.14522512
v -0.19636925 -0.19594470 0.14393938
v -0.18121773 -0.01412653 0.14393938
v -0.18121773 -0.24139925 0.24999998
v -0.19636925 -0.07473259 0.23484847
v -0.19636925 -0.21109622 0.21969695
v -0.16606622 -0.25655076 0.24999998
v -0.18121773 -0.22624773 0.26515150
v -0.19636925 -0.07473259 0.24999998
v -0.19636925 -0.21109622 0.17424241
f 6 3 4
f 7 6 1
f 7 3 6
f 11 7 1
f 11 1 2
f 11 3 7
f 13 4 3
f 14 6 4
f 15 2 1
f 16 8 2
f 16 2 10
f 16 13 8
f 16 12 13
f 17 9 5
f 18 3 11
f 18 13 3
f 18 8 13
f 18 11 2
f 18 2 8
f 19 5 9
f 20 13 12
f 20 4 13
f 20 14 4
f 20 9 14
f 21 14 9
f 21 9 17
f 22 15 10
f 22 10 2
f 22 2 15
f 23 16 10
f 23 5 16
f 23 17 5
f 24 16 5
f 24 12 16
f 24 19 12
f 24 5 19
f 25 21 17
f 25 10 15
f 26 19 9
f 26 12 19
f 27 17 23
f 27 25 17
f 27 10 25
f 28 25 15
f 28 6 25
f 28 15 1
f 28 1 6
f 29 25 6
f 29 21 25
f 29 6 14
f 29 14 21
f 30 20 12
f 30 12 26
f 30 26 9
f 30 9 20
f 31 27 23
f 31 23 10
f 31 10 27