# https://github.com/mikedh/trimesh
v 0.18055549 -0.16541877 0.00770104
v 0.19757013 -0.15049016 -0.09848486
v 0.19757013 0.12223710 -0.02272728
v 0.01575196 0.12223710 0.00757575
v 0.01575196 -0.16564167 -0.09848486
v 0.19757013 0.10708559 0.00757575
v 0.17603666 -0.16422813 -0.09834580
v 0.01575196 -0.16564167 0.00757575
v 0.01575196 0.12223710 -0.09848486
v 0.18097517 0.12211517 0.00753408
v 0.19757013 -0.15049016 0.00757575
v 0.19757013 0.10708559 -0.09848486
v 0.17995975 0.12176326 -0.09798896
v 0.19757013 0.12223710 -0.06818183
f 6 4 1
f 6 2 3
f 7 5 2
f 7 2 1
f 7 1 5
f 8 5 1
f 8 1 4
f 8 4 5
f 9 2 5
f 9 5 4
f 9 4 3
f 10 6 3
f 10 3 4
f 10 4 6
f 11 6 1
f 11 1 2
f 11 2 6
f 12 3 2
f 12 2 9
f 13 12 9
f 14 13 9
f 14 9 3
f 14 3 12
f 14 12 13