# https://github.com/mikedh/trimesh
v 0.12181256 -0.01412653 0.14393938
v 0.12181256 -0.01412653 0.00757575
v 0.12181256 0.12223710 0.11363635
v 0.01575196 0.12223710 0.14393938
v 0.01575196 -0.01412653 0.14393938
v 0.01575196 0.12223710 0.00757575
v 0.12181256 0.09193408 0.14393938
v 0.12181256 0.12223710 0.00757575
v 0.01575196 -0.01412653 0.00757575
v 0.06120650 0.12223710 0.14393938
v 0.10666104 0.10708559 0.14393938
v 0.10666104 0.12223710 0.12878786
f 1 2 3
f 5 2 1
f 5 1 4
f 6 4 3
f 6 5 4
f 7 1 3
f 7 4 1
f 8 6 3
f 8 3 2
f 8 2 6
f 9 6 2
f 9 2 5
f 9 5 6
f 10 3 4
f 10 4 7
f 11 10 7
f 11 7 3
f 12 11 3
f 12 3 10
f 12 10 11