# https://github.com/mikedh/trimesh
v -0.11828781 -0.26306103 0.08399867
v -0.12061168 -0.27170228 -0.49242424
v -0.12004896 -0.16538278 -0.49789376
v -0.19636925 -0.16564167 0.06818180
v -0.18121773 -0.25655076 -0.38636364
v -0.12061168 -0.16564167 0.08333332
v -0.13576319 -0.28685379 -0.37121212
v -0.16606622 -0.25655076 0.08333332
v -0.18121773 -0.21109622 -0.49242424
v -0.14670380 -0.16488944 -0.49352499
v -0.16606622 -0.27170228 -0.46212121
v -0.12061168 -0.28685379 -0.37121212
v -0.18121773 -0.24139925 0.05303029
v -0.17986517 -0.16556299 0.08317131
v -0.15091471 -0.27170228 0.06818180
v -0.13576319 -0.24139925 -0.50757575
v -0.19636925 -0.21109622 -0.44696970
v -0.13576319 -0.28685379 -0.46212121
v -0.12061168 -0.28685379 -0.46212121
v -0.18121773 -0.22624773 0.08333332
v -0.12847911 -0.25931348 0.08432358
v -0.16606622 -0.27170228 -0.37121212
v -0.12061168 -0.24139925 -0.50757575
v -0.16606622 -0.24139925 -0.49242424
v -0.15091471 -0.22624773 -0.50757575
v -0.19636925 -0.16564167 -0.46212121
v -0.19636925 -0.19594470 0.03787878
v -0.18121773 -0.25655076 -0.44696970
v -0.13576319 -0.27170228 -0.49242424
v -0.18121773 -0.24139925 -0.47727272
v -0.18121773 -0.16564167 -0.49242424
v -0.19636925 -0.19594470 -0.46212121
v -0.19636925 -0.18079319 0.06818180
v -0.19636925 -0.21109622 -0.38636364
f 1 2 3
f 6 1 3
f 10 6 3
f 13 5 8
f 14 10 4
f 14 6 10
f 15 1 8
f 15 12 1
f 15 7 12
f 18 7 11
f 18 12 7
f 19 2 1
f 19 1 12
f 19 18 2
f 19 12 18
f 20 13 8
f 20 14 4
f 21 1 6
f 21 6 14
f 21 14 20
f 21 20 8
f 21 8 1
f 22 11 7
f 22 7 15
f 22 5 11
f 22 15 8
f 22 8 5
f 23 3 2
f 23 2 16
f 25 23 16
f 25 3 23
f 25 24 9
f 26 17 4
f 26 4 10
f 27 4 17
f 28 11 5
f 28 5 17
f 29 18 11
f 29 2 18
f 29 16 2
f 29 25 16
f 29 24 25
f 30 9 24
f 30 11 28
f 30 28 17
f 30 29 11
f 30 24 29
f 31 10 3
f 31 3 25
f 31 25 9
f 31 26 10
f 31 9 26
f 32 26 9
f 32 17 26
f 32 30 17
f 32 9 30
f 33 20 4
f 33 4 27
f 33 27 13
f 33 13 20
f 34 27 17
f 34 17 5
f 34 5 13
f 34 13 27