# https://github.com/mikedh/trimesh
v 0.10235391 0.11342665 0.10465971
v 0.10666104 0.12223710 -0.09848486
v 0.10666104 0.27375225 0.08333332
v -0.04485410 0.28890377 0.14393938
v -0.19636925 0.12223710 -0.00757577
v -0.16606622 0.25860074 -0.09848486
v 0.06120650 0.25860074 0.14393938
v 0.10666104 0.13738862 0.11363635
v -0.17873799 0.12180618 -0.09837291
v -0.10064085 0.11215205 0.10451488
v 0.10666104 0.27375225 -0.09848486
v -0.16606622 0.25860074 0.03787878
v 0.04605499 0.28890377 0.14393938
v 0.10666104 0.25860074 0.09848483
v -0.12827256 0.26191284 -0.09873933
v -0.18121773 0.22829771 -0.09848486
v 0.04605499 0.19799468 0.14393938
v -0.12061168 0.28890377 0.03787878
v -0.16606622 0.15254013 0.08333332
v 0.09150953 0.28890377 0.05303029
v -0.18121773 0.22829771 0.03787878
v 0.06120650 0.21314619 0.14393938
v -0.06000562 0.21314619 0.14393938
v -0.13576319 0.27375225 0.06818180
v -0.15091471 0.27375225 0.03787878
v -0.04485410 0.28890377 -0.06818183
v -0.16606622 0.12223710 0.08333332
v -0.19636925 0.15254013 -0.00757577
v -0.04485410 0.19799468 0.14393938
v -0.06000562 0.25860074 0.14393938
v -0.10546016 0.28890377 0.06818180
v -0.16606622 0.22829771 0.06818180
v -0.15091471 0.27375225 -0.00757577
v -0.12061168 0.28890377 -0.00757577
v 0.06120650 0.28890377 -0.03787880
v -0.18121773 0.21314619 0.05303029
v -0.15091471 0.25860074 0.06818180
v -0.15091471 0.21314619 0.08333332
v -0.13576319 0.25860074 0.08333332
v -0.07515713 0.28890377 -0.05303031
v 0.09150953 0.28890377 -0.00757577
v 0.01575196 0.28890377 -0.06818183
v -0.19636925 0.15254013 0.00757575
f 8 1 2
f 8 2 3
f 10 5 9
f 10 9 2
f 10 2 1
f 11 3 2
f 13 4 7
f 14 8 3
f 14 7 8
f 14 13 7
f 14 3 13
f 15 2 9
f 15 11 2
f 16 9 5
f 16 15 9
f 16 6 15
f 16 12 6
f 17 10 1
f 17 1 8
f 17 7 4
f 18 4 13
f 20 13 3
f 20 3 11
f 20 18 13
f 21 12 16
f 22 17 8
f 22 8 7
f 22 7 17
f 23 17 4
f 25 6 12
f 25 24 18
f 25 12 24
f 26 15 6
f 26 11 15
f 26 18 20
f 27 5 10
f 27 23 19
f 27 10 23
f 28 21 16
f 28 16 5
f 29 23 10
f 29 10 17
f 29 17 23
f 30 23 4
f 30 19 23
f 31 24 4
f 31 4 18
f 31 18 24
f 33 25 18
f 33 6 25
f 34 18 26
f 34 33 18
f 34 6 33
f 35 26 20
f 36 27 19
f 36 19 32
f 36 12 21
f 37 24 12
f 37 36 32
f 37 12 36
f 38 32 19
f 38 19 30
f 38 30 32
f 39 32 30
f 39 30 4
f 39 37 32
f 39 4 24
f 39 24 37
f 40 34 26
f 40 26 6
f 40 6 34
f 41 35 20
f 41 20 11
f 41 11 35
f 42 35 11
f 42 11 26
f 42 26 35
f 43 5 27
f 43 27 36
f 43 28 5
f 43 36 21
f 43 21 28