# https://github.com/mikedh/trimesh
v 0.16726710 0.12223710 0.08333332
v 0.18241862 0.12223710 -0.49242424
v 0.16726710 0.24344922 0.03787878
v 0.10666104 0.27375225 0.06818180
v 0.10670755 0.12191028 -0.49912197
v 0.13696407 0.27375225 -0.47727272
v 0.13696407 0.24344922 0.08333332
v 0.18241862 0.18284316 0.05303029
v 0.12966576 0.11598928 0.08833970
v 0.18241862 0.21314619 -0.46212121
v 0.13696407 0.27375225 0.03787878
v 0.10363765 0.26222951 -0.47032108
v 0.13696407 0.22829771 -0.50757575
v 0.17112233 0.12062631 0.04553117
v 0.16726710 0.19799468 0.06818180
v 0.14622820 0.12071571 -0.49429065
v 0.10622053 0.12138674 0.09702043
v 0.16726710 0.24344922 -0.47727272
v 0.18241862 0.19799468 0.03787878
v 0.15211559 0.25860074 0.05303029
v 0.15211559 0.19799468 -0.50757575
v 0.13696407 0.25860074 -0.49242424
v 0.10529574 0.22513731 -0.49334600
v 0.15211559 0.19799468 0.08333332
v 0.16726710 0.13738862 0.08333332
v 0.10048276 0.25024794 0.07476300
v 0.18241862 0.19799468 -0.47727272
v 0.18241862 0.21314619 -0.37121212
v 0.15211559 0.24344922 0.06818180
v 0.12181256 0.27375225 0.06818180
v 0.16726710 0.21314619 -0.49242424
v 0.10455245 0.25123988 -0.48217565
v 0.15211559 0.24344922 -0.49242424
v 0.13696407 0.15254013 0.09848483
v 0.10324108 0.16612845 0.08413097
v 0.12181256 0.25860074 0.08333332
v 0.16726710 0.22829771 0.05303029
v 0.18241862 0.13738862 -0.49242424
v 0.12181256 0.16769165 0.09848483
f 10 8 2
f 11 6 4
f 11 3 6
f 12 4 6
f 14 8 1
f 14 2 8
f 14 9 2
f 14 1 9
f 16 9 5
f 16 5 2
f 16 2 9
f 17 5 9
f 17 9 1
f 18 6 3
f 18 3 10
f 19 8 10
f 20 3 11
f 21 2 5
f 21 5 13
f 23 13 5
f 23 5 12
f 24 15 7
f 25 1 8
f 25 8 15
f 25 15 24
f 26 12 5
f 26 4 12
f 27 18 10
f 27 10 2
f 28 19 10
f 28 10 3
f 28 3 19
f 29 20 7
f 29 7 15
f 30 20 11
f 30 11 4
f 30 7 20
f 31 21 13
f 31 18 27
f 32 12 6
f 32 6 22
f 32 23 12
f 32 22 13
f 32 13 23
f 33 13 22
f 33 31 13
f 33 18 31
f 33 22 6
f 33 6 18
f 34 24 7
f 34 25 24
f 34 17 1
f 34 1 25
f 35 26 5
f 35 5 17
f 35 17 26
f 36 4 26
f 36 30 4
f 36 7 30
f 36 34 7
f 37 3 20
f 37 20 29
f 37 19 3
f 37 8 19
f 37 29 15
f 37 15 8
f 38 31 27
f 38 27 2
f 38 2 21
f 38 21 31
f 39 36 26
f 39 26 17
f 39 17 34
f 39 34 36