# https://github.com/mikedh/trimesh
v 0.00111232 0.01792548 0.05388931
v 0.00092591 0.01781305 0.06817273
v 0.00191421 0.01778142 0.06817273
v 0.00226943 0.01784115 0.05388931
v -0.00104364 0.01792196 0.05388931
v -0.00054774 0.01781305 0.06817273
v 0.00062345 0.01780251 0.06923952
v 0.00296229 0.01762683 0.06817273
v 0.00493888 0.01726495 0.05388931
v -0.00231330 0.01784467 0.05388931
v -0.00231330 0.01784467 0.05390847
v -0.00153251 0.01775683 0.06817273
v -0.00036485 0.01780251 0.06923952
v 0.00116507 0.01750387 0.06999649
v 0.00296229 0.01726144 0.07014661
v 0.00493888 0.01683280 0.07014661
v 0.00493888 0.01718766 0.06817273
v 0.00691547 0.01658686 0.05388931
v -0.00460642 0.01734225 0.05388931
v -0.00296044 0.01756359 0.06817273
v -0.00012569 0.01383938 0.07908333
v -0.00296044 0.01719820 0.07014661
v -0.00100847 0.01748278 0.06999649
v 0.00090129 0.01345642 0.07985307
v 0.00018733 0.01383938 0.07908333
v 0.00296229 0.01311561 0.08002555
v 0.00493888 0.01260266 0.08002555
v 0.00597641 0.01187889 0.08103165
v 0.00626833 0.01594391 0.07126769
v 0.00692250 0.01616525 0.07013383
v 0.00809017 0.01590175 0.06946310
v 0.00691547 0.01649552 0.06817273
v 0.00818513 0.01595094 0.06817273
v 0.00823085 0.01597904 0.05388931
v -0.00493703 0.01726144 0.05388931
v -0.00493703 0.01708928 0.06817273
v -0.00493703 0.01673794 0.07014661
v -0.00086427 0.01343534 0.07985307
v -0.00296044 0.01304535 0.08002555
v 0.00098570 0.00887844 0.08651569
v 0.00296229 0.01226888 0.08126481
v 0.00493888 0.01203349 0.08113386
v 0.00296229 0.00846386 0.08651569
v 0.00381694 0.00814414 0.08651569
v 0.00415458 0.00801766 0.08651569
v 0.00514287 0.00737822 0.08651569
v 0.00820272 0.01011165 0.08114344
v 0.00730938 0.01145377 0.08002555
v 0.01006324 0.01396235 0.07124533
v 0.00880413 0.01523420 0.07013383
v 0.00758371 0.01564527 0.07077901
v 0.01042902 0.01422585 0.07014661
v 0.01069983 0.01442260 0.06817273
v 0.00917342 0.01540987 0.06817273
v 0.00899054 0.01555744 0.05388931
v -0.00645992 0.01672389 0.05388931
v -0.00691362 0.01638660 0.06817273
v -0.00804963 0.01587013 0.06937366
v -0.00687493 0.01609850 0.07007953
v -0.00618910 0.01590878 0.07123575
v -0.00591125 0.01184727 0.08100291
v -0.00296044 0.01223726 0.08125203
v -0.00098737 0.00883979 0.08651569
v 0.00042649 0.00886790 0.08651569
v -0.00459587 0.01204403 0.08114344
v 0.00640198 0.00639095 0.08651569
v 0.01013006 0.00821089 0.08114663
v 0.00952161 0.00952842 0.08039285
v 0.00887447 0.01035407 0.07984988
v 0.01141731 0.01345993 0.07014661
v 0.01168812 0.01369533 0.06817273
v 0.01173384 0.01373046 0.05388931
v 0.01074555 0.01444017 0.05388931
v 0.00921563 0.01542744 0.05388931
v -0.00691362 0.01656227 0.05388931
v -0.00811997 0.01590175 0.06817273
v -0.00910826 0.01540285 0.06817273
v -0.01031462 0.01421180 0.07014661
v -0.00878118 0.01520610 0.07007953
v -0.00750448 0.01561365 0.07068639
v -0.01001215 0.01394829 0.07122936
v -0.00698044 0.01149242 0.08021718
v -0.00811645 0.01007652 0.08112108
v -0.00502847 0.00723768 0.08651569
v -0.00404018 0.00795442 0.08651569
v -0.00326642 0.00824603 0.08651569
v -0.00296044 0.00835846 0.08651569
v 0.00668334 0.00605717 0.08651569
v 0.01037978 0.00887844 0.07984988
v 0.00739027 0.00521747 0.08651569
v 0.01190970 0.00603258 0.08105720
v 0.01148062 0.00738173 0.08002555
v 0.01347127 0.01144323 0.07014661
v 0.01248298 0.01247266 0.07014661
v 0.01271862 0.01270455 0.06817273
v 0.01270455 0.01274319 0.05388931
v 0.01370692 0.01171025 0.06817273
v -0.00790543 0.01610553 0.05388931
v -0.00822196 0.01595797 0.05388931
v -0.00844706 0.01584202 0.05388931
v -0.00920674 0.01544852 0.05388931
v -0.01065577 0.01446125 0.05388931
v -0.01054674 0.01441558 0.06817273
v -0.01153504 0.01352668 0.06817273
v -0.01130291 0.01330182 0.07014661
v -0.01200984 0.01200889 0.07124533
v -0.00847519 0.01042083 0.08002555
v -0.00946349 0.00945464 0.08002555
v -0.01004029 0.00810901 0.08111469
v -0.00786674 0.00466586 0.08651569
v -0.00623482 0.00625041 0.08651569
v -0.00537314 0.00695661 0.08651569
v 0.01398125 0.01008354 0.07125810
v 0.00806907 0.00422669 0.08651569
v 0.01208555 0.00493640 0.08116260
v 0.01349589 0.00098732 0.08035772
v 0.01336928 0.00285646 0.07990737
v 0.01271862 0.00493640 0.08002555
v 0.01698130 0.00493640 0.07014661
v 0.01623920 0.00697066 0.07019451
v 0.01568351 0.00766983 0.07087802
v 0.01528608 0.00884331 0.07019451
v 0.00859311 0.00296186 0.08651569
v 0.00905736 0.00098732 0.08651569
v 0.01425910 0.01045596 0.07014661
v 0.01370692 0.01171025 0.06422180
v 0.01370692 0.01170674 0.05631672
v 0.01346424 0.01193862 0.05388931
v 0.01445605 0.01072298 0.06817273
v -0.01088086 0.01427855 0.05388931
v -0.01164407 0.01363911 0.05388931
v -0.01266050 0.01265185 0.05388931
v -0.01253037 0.01253590 0.06817273
v -0.01230879 0.01231456 0.07014661
v -0.01033924 0.00846737 0.08002555
v -0.01329708 0.01121486 0.07014661
v -0.01387037 0.00993598 0.07116868
v -0.01137677 0.00690742 0.08015012
v -0.01176365 0.00576205 0.08089111
v -0.00899220 0.00305672 0.08651569
v 0.01349941 -0.00098721 0.08036730
v 0.01391442 0.00098732 0.07937078
v 0.01386167 0.00212918 0.07916956
v 0.00906088 0.00042518 0.08651569
v 0.01747017 0.00298997 0.07008273
v 0.01784298 0.00235053 0.06938005
v 0.01734004 0.00493640 0.06817273
v 0.01593673 0.00815117 0.06956530
v 0.01445253 0.01071947 0.05829379
v 0.01444902 0.01071947 0.05631672
v 0.01445253 0.01070190 0.05388931
v 0.01386870 0.01146431 0.05388931
v 0.01369285 0.01168917 0.05388931
v 0.01544435 0.00926140 0.06817273
v 0.01543731 0.00929302 0.05388931
v -0.01288559 0.01242699 0.05388931
v -0.01364879 0.01163998 0.05388931
v -0.01351866 0.01147485 0.06817273
v -0.01408139 0.01022408 0.07014661
v -0.01506617 0.00870628 0.06997413
v -0.01555504 0.00742038 0.07051391
v -0.01587861 0.00610285 0.07121020
v -0.01231582 0.00503828 0.08015012
v -0.01201687 0.00444803 0.08113066
v -0.00929467 0.00184108 0.08651569
v 0.01209610 -0.00493980 0.08116899
v 0.01192025 -0.00605004 0.08106359
v 0.01337631 -0.00286689 0.07991376
v 0.01386518 -0.00214664 0.07918234
v 0.01391794 -0.00098721 0.07937717
v 0.00906440 -0.00098721 0.08651569
v 0.01754403 0.00098732 0.07055224
v 0.01789574 0.00098732 0.06956850
v 0.01801180 0.00098732 0.06817273
v 0.01787464 0.00253674 0.06817273
v 0.01770933 0.00352400 0.06817273
v 0.01732597 0.00493640 0.05388931
v 0.01717122 0.00538963 0.05388931
v 0.01663663 0.00691445 0.05388931
v 0.01662256 0.00691445 0.06817273
v 0.01770933 0.00349590 0.05388931
v 0.01600356 0.00827414 0.06817273
v 0.01603521 0.00830576 0.05388931
v 0.01557799 0.00906817 0.05388931
v -0.01425373 0.01088109 0.05388931
v -0.01427131 0.01048758 0.06817273
v -0.01581882 0.00792631 0.06920119
v -0.01603336 0.00682310 0.06997413
v -0.01664181 0.00493640 0.07014661
v -0.01294186 0.00296186 0.08002555
v -0.00945294 0.00098732 0.08651569
v 0.00893778 -0.00154936 0.08651569
v 0.00861773 -0.00296175 0.08651569
v 0.01150172 -0.00741324 0.08002555
v 0.01399532 -0.01010452 0.07127088
v 0.01530718 -0.00885374 0.07020729
v 0.01569757 -0.00769432 0.07090996
v 0.01625327 -0.00698461 0.07020729
v 0.01700240 -0.00493980 0.07014661
v 0.01273973 -0.00493980 0.08002555
v 0.00808665 -0.00425820 0.08651569
v 0.00742193 -0.00524898 0.08651569
v 0.01014413 -0.00823187 0.08115302
v 0.01748072 -0.00301094 0.07008273
v 0.01754403 -0.00098721 0.07055543
v 0.01789925 -0.00098721 0.06956850
v 0.01801532 -0.00098721 0.06817273
v 0.01800828 0.00098732 0.06422180
v 0.01787112 0.00251214 0.06224473
v 0.01774450 0.00327104 0.05388931
v 0.01649946 0.00723768 0.05388931
v -0.01442606 0.01065271 0.05388931
v -0.01465115 0.01032245 0.05388931
v -0.01541436 0.00917708 0.05388931
v -0.01525961 0.00892412 0.06817273
v -0.01595950 0.00818981 0.05388931
v -0.01652575 0.00691445 0.05388931
v -0.01626549 0.00691445 0.06817273
v -0.01698648 0.00493640 0.06817273
v -0.01744370 0.00296186 0.06817273
v -0.01708144 0.00296186 0.07014661
v -0.01321268 0.00098732 0.08002555
v -0.00945645 0.00001411 0.08651569
v 0.00954272 -0.00954940 0.08045993
v 0.01040791 -0.00888888 0.07989140
v 0.01349589 -0.01147123 0.07014661
v 0.01427668 -0.01048396 0.07014661
v 0.01594729 -0.00817214 0.06959405
v 0.01736466 -0.00493980 0.06817273
v 0.01784298 -0.00238204 0.06938325
v 0.00643363 -0.00642246 0.08651569
v 0.01801180 -0.00098721 0.06422180
v 0.01787464 -0.00258582 0.06817273
v 0.01787464 -0.00258582 0.06619567
v 0.01787464 -0.00257879 0.06224473
v 0.01787112 -0.00257176 0.05631672
v 0.01800125 0.00098732 0.05829379
v 0.01786760 0.00248403 0.05631672
v 0.01786057 0.00250863 0.05388931
v -0.01722564 0.00493640 0.05388931
v -0.01731005 0.00460262 0.05388931
v -0.01781651 0.00239269 0.05388931
v -0.01764769 0.00098732 0.06817273
v -0.01728543 0.00098732 0.07014661
v -0.01729598 -0.00098721 0.07014661
v -0.01321268 -0.00098721 0.08002555
v -0.00945645 -0.00098721 0.08651569
v 0.00822733 -0.01013262 0.08114983
v 0.00601862 -0.01189987 0.08104762
v 0.00737269 -0.01148880 0.08002555
v 0.00888503 -0.01039613 0.07989140
v 0.01145600 -0.01349144 0.07014661
v 0.01250760 -0.01250066 0.07014661
v 0.01373154 -0.01173825 0.06817273
v 0.01447364 -0.01075098 0.06817273
v 0.01546193 -0.00929292 0.06817273
v 0.01602114 -0.00830565 0.06817273
v 0.01665070 -0.00691434 0.06817273
v 0.01772340 -0.00357660 0.06817273
v 0.01736466 -0.00493980 0.06619567
v 0.00555085 -0.00713217 0.08651569
v 0.01800477 -0.00098721 0.05829379
v 0.01771989 -0.00355903 0.05631672
v 0.01782188 -0.00269473 0.05388931
v 0.01785002 -0.00246987 0.05388931
v 0.01797663 -0.00098721 0.05388931
v 0.01800125 -0.00098721 0.05631672
v 0.01771285 -0.00345714 0.05388931
v 0.01799773 0.00098732 0.05631672
v 0.01795905 0.00134218 0.05388931
v -0.01785520 0.00198864 0.05388931
v -0.01791499 0.00098732 0.05388931
v -0.01765824 -0.00098721 0.06817273
v -0.01709551 -0.00296175 0.07014661
v -0.01295241 -0.00296175 0.08002555
v -0.00905551 -0.00296175 0.08651569
v -0.01202391 -0.00447603 0.08113066
v 0.00519914 -0.00740973 0.08651569
v 0.00492130 -0.00759243 0.08651569
v 0.00421437 -0.00805268 0.08651569
v 0.00331752 -0.00839348 0.08651569
v 0.00296229 -0.00852699 0.08651569
v 0.00493888 -0.01206500 0.08114983
v 0.00296229 -0.01318578 0.08002555
v 0.00493888 -0.01266579 0.08002555
v 0.00493888 -0.01689242 0.07014661
v 0.00631757 -0.01596137 0.07128366
v 0.00763295 -0.01566976 0.07084608
v 0.00883227 -0.01527625 0.07017216
v 0.01009138 -0.01398332 0.07126130
v 0.01172681 -0.01372333 0.06817273
v 0.01046770 -0.01426088 0.07014661
v 0.01274324 -0.01273606 0.06817273
v 0.01373154 -0.01173825 0.05829379
v 0.01447364 -0.01075098 0.06422180
v 0.01546193 -0.00928238 0.05388931
v 0.01601411 -0.00829511 0.05388931
v 0.01664718 -0.00691434 0.06224473
v 0.01736114 -0.00493980 0.05631672
v 0.01734356 -0.00493980 0.05388931
v 0.01798015 -0.00053398 0.05388931
v 0.01798718 0.00098732 0.05388931
v -0.01790795 -0.00098721 0.05388931
v -0.01785520 -0.00186557 0.05388931
v -0.01783058 -0.00215718 0.05388931
v -0.01745425 -0.00296175 0.06817273
v -0.01665588 -0.00493980 0.07014661
v -0.01588564 -0.00611679 0.07121339
v -0.01232989 -0.00505574 0.08016608
v -0.01178123 -0.00579356 0.08091986
v -0.00872842 -0.00358714 0.08651569
v 0.00098570 -0.00894158 0.08651569
v 0.00296229 -0.01230391 0.08127758
v 0.00115101 -0.01350198 0.07991056
v 0.00285678 -0.01740538 0.07000607
v 0.00493888 -0.01724377 0.06817273
v 0.00813589 -0.01592624 0.06953017
v 0.00695064 -0.01620380 0.07017216
v 0.00212875 -0.01780591 0.06925230
v 0.01073852 -0.01445763 0.06817273
v 0.01173736 -0.01373035 0.05388931
v 0.01274324 -0.01273606 0.06619567
v 0.01274324 -0.01273255 0.06026766
v 0.01274324 -0.01272903 0.05631672
v 0.01373154 -0.01173474 0.05631672
v 0.01446660 -0.01074747 0.05631672
v 0.01470225 -0.01039613 0.05388931
v 0.01663311 -0.00691434 0.05388931
v 0.01664015 -0.00691434 0.05631672
v 0.01664366 -0.00691434 0.05829379
v -0.01779892 -0.00238555 0.05388931
v -0.01723971 -0.00493980 0.05388931
v -0.01699703 -0.00493980 0.06817273
v -0.01582937 -0.00795079 0.06924271
v -0.01604743 -0.00683002 0.06999968
v -0.01556559 -0.00743432 0.07055543
v -0.01388795 -0.00995695 0.07118465
v -0.01140842 -0.00692488 0.08016608
v -0.01005435 -0.00812295 0.08111788
v -0.00832396 -0.00419496 0.08651569
v -0.00098737 -0.00890293 0.08651569
v -0.00102957 -0.01347739 0.07991056
v -0.00039650 -0.01386387 0.07917595
v 0.00060586 -0.01386387 0.07917595
v 0.00319090 -0.01765483 0.06817273
v 0.00493888 -0.01729295 0.05388931
v 0.00691547 -0.01661838 0.05388931
v 0.00691547 -0.01656568 0.06817273
v 0.00825195 -0.01598596 0.06817273
v 0.00924025 -0.01544490 0.06817273
v 0.00220612 -0.01781997 0.06817273
v 0.00098570 -0.01747565 0.07033505
v 0.00098570 -0.01783402 0.06935130
v 0.00098570 -0.01788672 0.06817273
v 0.01074907 -0.01446466 0.05388931
v 0.00926487 -0.01545193 0.05388931
v 0.01041143 -0.01469303 0.05388931
v 0.01271862 -0.01274309 0.05388931
v 0.01370692 -0.01171014 0.05388931
v 0.01447715 -0.01072288 0.05388931
v -0.01708496 -0.00538952 0.05388931
v -0.01655740 -0.00691434 0.05388931
v -0.01629011 -0.00691434 0.06817273
v -0.01584344 -0.00797187 0.06817273
v -0.01528774 -0.00896266 0.06817273
v -0.01429945 -0.01051910 0.06817273
v -0.01410601 -0.01025910 0.07014661
v -0.01509430 -0.00872023 0.06999968
v -0.01332170 -0.01124637 0.07014661
v -0.00949514 -0.00948615 0.08002555
v -0.01036034 -0.00849537 0.08002555
v -0.00813404 -0.01006587 0.08112427
v -0.00655488 -0.00601139 0.08651569
v -0.00240123 -0.00854807 0.08651569
v -0.00458181 -0.01205797 0.08114983
v -0.00296044 -0.01226526 0.08126161
v -0.00296044 -0.01310497 0.08002555
v -0.00277755 -0.01736674 0.06995816
v -0.00098737 -0.01745808 0.07027437
v 0.00332807 -0.01766186 0.05388931
v 0.00233977 -0.01785159 0.05388931
v 0.00796004 -0.01614758 0.05388931
v 0.00827657 -0.01600002 0.05388931
v 0.00850518 -0.01587705 0.05388931
v 0.00098570 -0.01796753 0.05388931
v 0.00199862 -0.01788672 0.05388931
v -0.00098737 -0.01781645 0.06929062
v -0.00098737 -0.01785159 0.06817273
v -0.00098737 -0.01794293 0.05388931
v 0.00053200 -0.01796402 0.05388931
v -0.01640968 -0.00723055 0.05388931
v -0.01595247 -0.00818619 0.05388931
v -0.01540732 -0.00917346 0.05388931
v -0.01441903 -0.01068774 0.05388931
v -0.01384926 -0.01145015 0.05388931
v -0.01368045 -0.01167501 0.05388931
v -0.01354680 -0.01150637 0.06817273
v -0.01233693 -0.01234256 0.07014661
v -0.01202743 -0.01202986 0.07126130
v -0.00850685 -0.01038559 0.08002555
v -0.00590070 -0.01184014 0.08099652
v -0.00504254 -0.00726217 0.08651569
v -0.00627351 -0.00627490 0.08651569
v -0.00296044 -0.00840402 0.08651569
v -0.00493703 -0.01681161 0.07014661
v -0.00199325 -0.01778483 0.06917244
v -0.00232033 -0.01783050 0.05388931
v -0.01345535 -0.01190338 0.05388931
v -0.01255850 -0.01256742 0.06817273
v -0.01153152 -0.01355468 0.06817273
v -0.01127477 -0.01332983 0.07014661
v -0.00998050 -0.01390603 0.07119742
v -0.00752910 -0.01560300 0.07066403
v -0.00621372 -0.01592975 0.07125491
v -0.00374474 -0.00809133 0.08651569
v -0.00405425 -0.00796485 0.08651569
v -0.00493703 -0.01716296 0.06817273
v -0.00688900 -0.01612650 0.07006356
v -0.00801094 -0.01586300 0.06935130
v -0.00299209 -0.01762673 0.06817273
v -0.00330863 -0.01768294 0.05388931
v -0.00308354 -0.01771807 0.05388931
v -0.01269215 -0.01267282 0.05388931
v -0.01165110 -0.01366009 0.05388931
v -0.01054323 -0.01432763 0.06817273
v -0.01028648 -0.01413440 0.07014661
v -0.00875656 -0.01513923 0.07006356
v -0.00493703 -0.01726484 0.05388931
v -0.00691362 -0.01641811 0.06817273
v -0.00691362 -0.01655865 0.05388931
v -0.00539073 -0.01710674 0.05388931
v -0.00905199 -0.01531490 0.06817273
v -0.00806370 -0.01589462 0.06817273
v -0.01066281 -0.01440844 0.05388931
v -0.00921026 -0.01539571 0.05388931
v -0.00822196 -0.01598948 0.05388931
f 1 2 3
f 1 3 4
f 1 4 9
f 1 9 18
f 1 18 34
f 1 34 55
f 1 55 74
f 1 74 73
f 1 73 72
f 1 72 96
f 1 96 128
f 1 128 153
f 1 153 152
f 1 152 151
f 1 151 155
f 1 155 184
f 1 184 183
f 1 183 211
f 1 211 179
f 1 179 178
f 1 178 177
f 1 177 181
f 1 181 210
f 1 210 239
f 1 239 270
f 1 270 302
f 1 302 301
f 1 301 266
f 1 266 265
f 1 265 264
f 1 264 268
f 1 268 300
f 1 300 328
f 1 328 297
f 1 297 296
f 1 296 327
f 1 327 360
f 1 360 359
f 1 359 358
f 1 358 321
f 1 321 355
f 1 355 357
f 1 357 356
f 1 356 384
f 1 384 383
f 1 383 382
f 1 382 347
f 1 347 346
f 1 346 380
f 1 380 381
f 1 381 386
f 1 386 385
f 1 385 390
f 1 390 389
f 1 389 407
f 1 407 422
f 1 422 421
f 1 421 428
f 1 428 431
f 1 431 430
f 1 430 436
f 1 436 435
f 1 435 434
f 1 434 424
f 1 424 423
f 1 423 408
f 1 408 396
f 1 396 395
f 1 395 394
f 1 394 393
f 1 393 392
f 1 392 391
f 1 391 362
f 1 362 361
f 1 361 332
f 1 332 331
f 1 331 305
f 1 305 304
f 1 304 303
f 1 303 272
f 1 272 271
f 1 271 242
f 1 242 241
f 1 241 240
f 1 240 217
f 1 217 216
f 1 216 214
f 1 214 213
f 1 213 212
f 1 212 185
f 1 185 157
f 1 157 156
f 1 156 132
f 1 132 131
f 1 131 130
f 1 130 102
f 1 102 101
f 1 101 100
f 1 100 99
f 1 99 98
f 1 98 75
f 1 75 56
f 1 56 35
f 1 35 19
f 1 19 10
f 1 10 5
f 1 5 6
f 1 6 2
f 2 6 13
f 2 13 7
f 2 7 3
f 3 8 4
f 3 7 8
f 4 8 9
f 5 10 11
f 5 11 12
f 5 12 6
f 6 12 13
f 7 13 14
f 7 14 15
f 7 15 8
f 8 15 16
f 8 16 17
f 8 17 9
f 9 17 18
f 10 19 11
f 11 19 20
f 11 20 12
f 12 20 13
f 13 21 14
f 13 20 22
f 13 22 23
f 13 23 21
f 14 24 15
f 14 21 25
f 14 25 24
f 15 24 26
f 15 26 16
f 16 26 27
f 16 27 28
f 16 28 29
f 16 29 30
f 16 30 31
f 16 31 17
f 17 31 32
f 17 32 18
f 18 32 33
f 18 33 34
f 19 35 36
f 19 36 20
f 20 36 37
f 20 37 22
f 21 23 22
f 21 22 38
f 21 38 24
f 21 24 25
f 22 39 38
f 22 37 39
f 24 40 41
f 24 41 26
f 24 38 40
f 26 41 42
f 26 42 28
f 26 28 27
f 28 42 43
f 28 43 44
f 28 44 45
f 28 45 46
f 28 46 47
f 28 47 48
f 28 48 49
f 28 49 50
f 28 50 51
f 28 51 29
f 29 51 30
f 30 51 31
f 31 33 32
f 31 51 50
f 31 50 52
f 31 52 53
f 31 53 54
f 31 54 33
f 33 54 34
f 34 54 55
f 35 56 36
f 36 56 57
f 36 57 58
f 36 58 37
f 37 58 59
f 37 59 60
f 37 60 61
f 37 61 39
f 38 39 62
f 38 62 63
f 38 63 64
f 38 64 40
f 39 61 65
f 39 65 62
f 40 43 42
f 40 42 41
f 40 64 63
f 40 63 87
f 40 87 86
f 40 86 85
f 40 85 84
f 40 84 112
f 40 112 111
f 40 111 110
f 40 110 140
f 40 140 165
f 40 165 191
f 40 191 223
f 40 223 247
f 40 247 276
f 40 276 311
f 40 311 340
f 40 340 373
f 40 373 403
f 40 403 402
f 40 402 416
f 40 416 415
f 40 415 404
f 40 404 374
f 40 374 341
f 40 341 312
f 40 312 282
f 40 282 281
f 40 281 280
f 40 280 279
f 40 279 278
f 40 278 261
f 40 261 231
f 40 231 202
f 40 202 201
f 40 201 193
f 40 193 192
f 40 192 171
f 40 171 144
f 40 144 124
f 40 124 123
f 40 123 114
f 40 114 90
f 40 90 88
f 40 88 66
f 40 66 46
f 40 46 45
f 40 45 44
f 40 44 43
f 46 66 47
f 47 66 67
f 47 67 68
f 47 68 69
f 47 69 48
f 48 69 49
f 49 52 50
f 49 69 70
f 49 70 52
f 52 70 71
f 52 71 53
f 53 71 72
f 53 72 73
f 53 73 54
f 54 74 55
f 54 73 74
f 56 75 57
f 57 75 76
f 57 76 58
f 58 76 77
f 58 77 78
f 58 78 79
f 58 79 80
f 58 80 59
f 59 80 60
f 60 80 61
f 61 80 79
f 61 79 81
f 61 81 82
f 61 82 83
f 61 83 84
f 61 84 85
f 61 85 86
f 61 86 87
f 61 87 63
f 61 63 65
f 62 65 63
f 66 88 67
f 67 89 68
f 67 88 90
f 67 90 91
f 67 91 92
f 67 92 89
f 68 89 93
f 68 93 94
f 68 94 70
f 68 70 69
f 70 94 71
f 71 94 95
f 71 95 72
f 72 95 97
f 72 97 96
f 75 98 76
f 76 98 99
f 76 99 77
f 77 99 100
f 77 100 101
f 77 101 102
f 77 102 103
f 77 103 78
f 78 103 104
f 78 104 105
f 78 105 81
f 78 81 79
f 81 105 106
f 81 106 107
f 81 107 82
f 82 107 83
f 83 107 108
f 83 108 109
f 83 109 110
f 83 110 111
f 83 111 112
f 83 112 84
f 89 92 113
f 89 113 93
f 90 114 91
f 91 115 116
f 91 116 117
f 91 117 118
f 91 118 119
f 91 119 120
f 91 120 121
f 91 121 122
f 91 122 113
f 91 113 92
f 91 114 123
f 91 123 124
f 91 124 115
f 93 113 125
f 93 125 97
f 93 97 94
f 94 97 95
f 96 97 126
f 96 126 127
f 96 127 128
f 97 125 129
f 97 129 126
f 102 130 103
f 103 130 131
f 103 131 104
f 104 131 132
f 104 132 133
f 104 133 134
f 104 134 105
f 105 134 106
f 106 135 108
f 106 108 107
f 106 134 136
f 106 136 137
f 106 137 135
f 108 135 109
f 109 135 137
f 109 137 138
f 109 138 139
f 109 139 140
f 109 140 110
f 113 122 125
f 115 124 116
f 116 141 142
f 116 142 143
f 116 143 117
f 116 124 144
f 116 144 141
f 117 143 119
f 117 119 118
f 119 145 146
f 119 146 147
f 119 147 148
f 119 148 120
f 119 143 145
f 120 148 121
f 121 148 122
f 122 148 125
f 125 148 129
f 126 129 127
f 127 129 149
f 127 149 150
f 127 150 151
f 127 151 152
f 127 152 153
f 127 153 128
f 129 148 154
f 129 154 155
f 129 155 149
f 132 156 133
f 133 156 157
f 133 157 158
f 133 158 134
f 134 158 136
f 136 158 159
f 136 159 137
f 137 139 138
f 137 159 160
f 137 160 161
f 137 161 139
f 139 161 162
f 139 162 163
f 139 163 164
f 139 164 140
f 140 164 165
f 141 166 167
f 141 167 168
f 141 168 169
f 141 169 170
f 141 170 142
f 141 144 171
f 141 171 166
f 142 170 172
f 142 172 143
f 143 172 145
f 145 172 146
f 146 173 174
f 146 174 175
f 146 175 176
f 146 176 147
f 146 172 173
f 147 177 178
f 147 178 179
f 147 179 180
f 147 180 148
f 147 176 181
f 147 181 177
f 148 180 182
f 148 182 154
f 149 155 150
f 150 155 151
f 154 182 183
f 154 183 184
f 154 184 155
f 157 185 158
f 158 185 186
f 158 186 159
f 159 186 187
f 159 187 160
f 160 187 161
f 161 187 188
f 161 188 162
f 162 188 189
f 162 189 190
f 162 190 163
f 163 190 164
f 164 190 191
f 164 191 165
f 166 171 192
f 166 192 193
f 166 193 167
f 167 194 195
f 167 195 196
f 167 196 197
f 167 197 198
f 167 198 199
f 167 199 200
f 167 200 168
f 167 193 201
f 167 201 202
f 167 202 203
f 167 203 194
f 168 200 199
f 168 199 169
f 169 199 204
f 169 204 205
f 169 205 170
f 170 205 172
f 172 205 206
f 172 206 173
f 173 206 207
f 173 207 174
f 174 207 232
f 174 232 208
f 174 208 175
f 175 209 210
f 175 210 181
f 175 181 176
f 175 208 209
f 179 211 180
f 180 211 183
f 180 183 182
f 185 212 186
f 186 212 213
f 186 213 214
f 186 214 215
f 186 215 187
f 187 215 214
f 187 214 216
f 187 216 217
f 187 217 218
f 187 218 219
f 187 219 189
f 187 189 188
f 189 219 220
f 189 220 221
f 189 221 190
f 190 221 222
f 190 222 191
f 191 222 223
f 194 203 224
f 194 224 225
f 194 225 195
f 195 226 227
f 195 227 196
f 195 225 226
f 196 228 197
f 196 227 228
f 197 228 198
f 198 228 199
f 199 228 229
f 199 229 230
f 199 230 204
f 202 231 203
f 203 231 224
f 204 230 205
f 205 230 206
f 206 230 207
f 207 230 233
f 207 233 234
f 207 234 235
f 207 235 236
f 207 236 232
f 208 232 262
f 208 262 237
f 208 237 238
f 208 238 209
f 209 238 210
f 210 238 239
f 217 240 219
f 217 219 218
f 219 240 241
f 219 241 220
f 220 242 243
f 220 243 244
f 220 244 221
f 220 241 242
f 221 244 222
f 222 244 245
f 222 245 246
f 222 246 247
f 222 247 223
f 224 231 248
f 224 248 249
f 224 249 250
f 224 250 251
f 224 251 252
f 224 252 253
f 224 253 226
f 224 226 225
f 226 253 254
f 226 254 227
f 227 254 255
f 227 255 256
f 227 256 228
f 228 256 257
f 228 257 258
f 228 258 229
f 229 259 230
f 229 258 260
f 229 260 259
f 230 259 233
f 231 261 248
f 232 236 262
f 233 259 234
f 234 259 235
f 235 259 263
f 235 263 236
f 236 264 265
f 236 265 266
f 236 266 267
f 236 267 262
f 236 263 268
f 236 268 264
f 237 262 267
f 237 267 269
f 237 269 238
f 238 269 239
f 239 269 270
f 242 271 243
f 243 271 272
f 243 272 273
f 243 273 245
f 243 245 244
f 245 273 274
f 245 274 246
f 246 274 275
f 246 275 247
f 247 275 277
f 247 277 276
f 248 261 278
f 248 278 249
f 249 278 279
f 249 279 280
f 249 280 281
f 249 281 282
f 249 282 283
f 249 283 284
f 249 284 285
f 249 285 286
f 249 286 287
f 249 287 288
f 249 288 289
f 249 289 290
f 249 290 250
f 250 290 251
f 251 290 252
f 252 291 253
f 252 290 292
f 252 292 291
f 253 291 293
f 253 293 254
f 254 293 322
f 254 322 294
f 254 294 295
f 254 295 255
f 255 295 256
f 256 295 296
f 256 296 257
f 257 296 297
f 257 297 298
f 257 298 258
f 258 299 260
f 258 298 299
f 259 260 299
f 259 299 263
f 263 299 300
f 263 300 268
f 266 301 267
f 267 301 302
f 267 302 269
f 269 302 270
f 272 303 273
f 273 303 304
f 273 304 305
f 273 305 306
f 273 306 274
f 274 306 307
f 274 307 275
f 275 307 308
f 275 308 309
f 275 309 310
f 275 310 277
f 276 277 310
f 276 310 311
f 282 312 283
f 283 312 313
f 283 313 284
f 284 313 312
f 284 312 314
f 284 314 315
f 284 315 286
f 284 286 285
f 286 316 317
f 286 317 318
f 286 318 287
f 286 315 319
f 286 319 316
f 287 318 288
f 288 318 317
f 288 317 289
f 289 317 292
f 289 292 290
f 291 292 320
f 291 320 355
f 291 355 321
f 291 321 293
f 292 317 320
f 293 321 322
f 294 322 323
f 294 323 324
f 294 324 325
f 294 325 326
f 294 326 295
f 295 326 296
f 296 326 327
f 297 328 329
f 297 329 330
f 297 330 298
f 298 330 299
f 299 330 329
f 299 329 328
f 299 328 300
f 305 331 306
f 306 331 332
f 306 332 333
f 306 333 307
f 307 333 334
f 307 334 335
f 307 335 308
f 308 335 336
f 308 336 310
f 308 310 309
f 310 336 337
f 310 337 338
f 310 338 339
f 310 339 340
f 310 340 311
f 312 341 342
f 312 342 314
f 314 319 315
f 314 342 343
f 314 343 344
f 314 344 319
f 316 319 345
f 316 345 346
f 316 346 347
f 316 347 348
f 316 348 317
f 317 348 349
f 317 349 350
f 317 350 320
f 319 351 345
f 319 344 352
f 319 352 353
f 319 353 354
f 319 354 351
f 320 350 356
f 320 356 357
f 320 357 355
f 321 358 325
f 321 325 324
f 321 324 323
f 321 323 322
f 325 358 359
f 325 359 360
f 325 360 326
f 326 360 327
f 332 361 333
f 333 361 362
f 333 362 363
f 333 363 334
f 334 363 364
f 334 364 365
f 334 365 366
f 334 366 367
f 334 367 368
f 334 368 336
f 334 336 335
f 336 368 337
f 337 369 370
f 337 370 371
f 337 371 338
f 337 368 367
f 337 367 369
f 338 371 339
f 339 371 370
f 339 370 372
f 339 372 373
f 339 373 340
f 341 374 375
f 341 375 376
f 341 376 342
f 342 376 377
f 342 377 378
f 342 378 343
f 343 379 352
f 343 352 344
f 343 378 379
f 345 380 346
f 345 351 381
f 345 381 380
f 347 382 349
f 347 349 348
f 349 383 384
f 349 384 350
f 349 382 383
f 350 384 356
f 351 354 385
f 351 385 386
f 351 386 381
f 352 379 387
f 352 387 353
f 353 387 354
f 354 387 388
f 354 388 389
f 354 389 390
f 354 390 385
f 362 391 364
f 362 364 363
f 364 392 393
f 364 393 365
f 364 391 392
f 365 393 366
f 366 393 394
f 366 394 395
f 366 395 396
f 366 396 397
f 366 397 367
f 367 397 369
f 369 397 398
f 369 398 399
f 369 399 370
f 370 400 372
f 370 399 400
f 372 400 401
f 372 401 402
f 372 402 403
f 372 403 373
f 374 404 401
f 374 401 375
f 375 377 376
f 375 401 377
f 377 401 405
f 377 405 378
f 378 406 379
f 378 405 406
f 379 406 387
f 387 406 388
f 388 406 389
f 389 406 407
f 396 408 409
f 396 409 397
f 397 409 398
f 398 409 410
f 398 410 411
f 398 411 399
f 399 411 400
f 400 411 412
f 400 412 401
f 401 413 414
f 401 414 405
f 401 404 415
f 401 415 416
f 401 416 402
f 401 412 413
f 405 417 406
f 405 414 418
f 405 418 419
f 405 419 417
f 406 417 420
f 406 420 421
f 406 421 422
f 406 422 407
f 408 423 409
f 409 423 410
f 410 424 425
f 410 425 426
f 410 426 411
f 410 423 424
f 411 426 412
f 412 426 427
f 412 427 413
f 413 418 414
f 413 427 419
f 413 419 418
f 417 428 421
f 417 421 420
f 417 419 429
f 417 429 430
f 417 430 431
f 417 431 428
f 419 427 426
f 419 426 425
f 419 425 432
f 419 432 433
f 419 433 429
f 424 434 425
f 425 434 435
f 425 435 432
f 429 433 436
f 429 436 430
f 432 435 436
f 432 436 433

