# https://github.com/mikedh/trimesh
v -0.00098887 0.01086042 0.09583339
v 0.00098606 0.00887903 0.08651570
v 0.00042307 0.00886836 0.08651570
v -0.00098887 0.00883850 0.08651570
v -0.00296826 0.01052344 0.09583339
v -0.00098887 0.01059382 0.09780999
v 0.00098606 0.01069193 0.09780999
v 0.00098606 0.01084549 0.09583339
v 0.00296098 0.01049358 0.09583339
v 0.00240246 0.00858256 0.08651570
v -0.00296826 0.00836075 0.08651570
v -0.03362877 0.00199853 0.08690997
v -0.00423722 0.01000089 0.09469104
v -0.00425509 0.01001156 0.09722249
v -0.00291911 0.01019498 0.09785307
v -0.03388346 0.00215636 0.08793091
v -0.03394601 0.00219475 0.08945449
v -0.00223102 0.00994970 0.09884921
v -0.00098887 0.01005635 0.09892231
v 0.00098606 0.01013953 0.09899151
v 0.00296098 0.01007341 0.09896279
v 0.00296098 0.01045945 0.09780999
v 0.00408696 0.00994117 0.09477720
v 0.00296098 0.00846313 0.08651570
v 0.00438186 0.01006701 0.09780999
v 0.00434164 0.01005635 0.09583339
v -0.00404509 0.00795551 0.08651570
v -0.03260109 0.00098757 0.08655356
v -0.03387452 0.00098757 0.08669717
v -0.03452240 0.00098757 0.08793091
v -0.03213194 0.00219048 0.09111384
v -0.03416495 0.00098117 0.09003023
v -0.03345004 0.00163382 0.09077179
v -0.00425956 0.00803869 0.09881787
v -0.00098887 0.00888969 0.09906984
v 0.00098606 0.00888969 0.09922521
v -0.02798548 0.00216489 0.09300427
v -0.02375861 0.00201559 0.09486467
v -0.01594826 0.00401192 0.09686739
v 0.00296098 0.00888969 0.09927351
v 0.00414505 0.00995610 0.09887532
v 0.00485995 0.00893875 0.09913774
v 0.00381440 0.00814533 0.08651570
v 0.00415398 0.00801737 0.08651570
v 0.00536932 0.00958499 0.09780999
v 0.00532911 0.00950608 0.09583339
v -0.00503255 0.00723675 0.08651570
v -0.03260109 -0.00098743 0.08653659
v -0.03388792 -0.00098743 0.08668934
v -0.03454921 -0.00098743 0.08793091
v -0.03417389 -0.00099596 0.09004329
v -0.03368239 0.00031786 0.09094412
v -0.03271726 0.00098117 0.09124569
v 0.00493591 0.00493970 0.09960512
v 0.00098606 0.00691469 0.09926306
v 0.00296098 0.00691469 0.09942756
v -0.01635934 0.00296257 0.09698749
v -0.01481782 0.00296257 0.09734913
v -0.01481782 0.00098757 0.09751102
v -0.00525149 0.00691469 0.09873171
v -0.00550618 -0.00691455 0.09876043
v 0.00493591 0.00691469 0.09956595
v -0.02825804 0.00098757 0.09311393
v -0.02485330 0.00098757 0.09450565
v -0.02386584 0.00098757 0.09490906
v -0.02272199 0.00098757 0.09530595
v -0.02074707 0.00098757 0.09592739
v -0.01771766 0.00142693 0.09680342
v 0.00651764 0.00831383 0.09905679
v 0.00707169 0.00707679 0.09931398
v 0.00443548 0.00783607 0.08651570
v 0.00686169 0.00859536 0.09780999
v 0.00514144 0.00737752 0.08651570
v 0.00670530 0.00851858 0.09583339
v -0.00537660 0.00695735 0.08651570
v -0.03364217 -0.00200692 0.08689953
v -0.00623896 0.00624925 0.08651570
v -0.00786983 0.00466883 0.08651570
v -0.00899581 0.00305854 0.08651570
v -0.00929964 0.00184070 0.08651570
v -0.00945603 0.00098757 0.08651570
v -0.00946050 0.00001500 0.08651570
v -0.00946050 -0.00098743 0.08651570
v -0.00905836 -0.00296242 0.08651570
v -0.00873219 -0.00358734 0.08651570
v -0.00833005 -0.00419520 0.08651570
v -0.00655620 -0.00601236 0.08651570
v -0.00627917 -0.00627470 0.08651570
v -0.00504596 -0.00726220 0.08651570
v -0.00433999 -0.00776768 0.08651570
v -0.00405849 -0.00796603 0.08651570
v -0.00375019 -0.00809187 0.08651570
v -0.00296826 -0.00840540 0.08651570
v -0.00240528 -0.00854829 0.08651570
v -0.03390580 -0.00217328 0.08793091
v -0.03395941 -0.00220954 0.08947537
v -0.03347238 -0.00165927 0.09079267
v -0.03368239 -0.00034331 0.09094412
v -0.02387031 -0.00098743 0.09491167
v 0.00493591 0.00296257 0.09961034
v 0.00691530 0.00098757 0.09978007
v 0.00691530 0.00296257 0.09976048
v 0.00691530 0.00493970 0.09972262
v -0.01695360 0.00085534 0.09704494
v -0.01481782 -0.00098743 0.09753060
v -0.01679275 -0.00098743 0.09711413
v -0.00691812 -0.00493955 0.09857504
v -0.00889304 -0.00493955 0.09830610
v -0.01481782 -0.00296242 0.09740135
v -0.01086797 -0.00493955 0.09793402
v -0.00429531 -0.00807481 0.09882048
v -0.00098887 -0.00889168 0.09908421
v 0.00296098 -0.00691455 0.09943279
v 0.00493591 -0.00493955 0.09960774
v 0.00691530 -0.00098743 0.09978007
v -0.02272199 -0.00098743 0.09531379
v -0.02074707 -0.00098743 0.09594567
v -0.01779361 0.00011098 0.09682561
v 0.00838533 0.00652865 0.09910640
v 0.00784915 0.00785740 0.09780999
v 0.00889023 0.00296257 0.09972392
v 0.00898406 0.00498235 0.09931007
v 0.00604401 0.00667155 0.08651570
v 0.00640147 0.00639002 0.08651570
v 0.00769276 0.00768251 0.09583339
v -0.00098887 -0.00890448 0.08651570
v -0.00296826 -0.01058941 0.09583339
v -0.00426850 -0.01003274 0.09727341
v -0.03215427 -0.00220740 0.09112428
v -0.03273067 -0.00099596 0.09125223
v -0.02799442 -0.00218181 0.09300949
v -0.02376307 -0.00202825 0.09486728
v -0.02826698 -0.00098743 0.09311785
v -0.02486224 -0.00098743 0.09450826
v 0.00889023 -0.00098743 0.09985186
v 0.00889023 0.00098757 0.09985057
v -0.01779361 -0.00098743 0.09682430
v -0.01778468 -0.00197706 0.09682169
v -0.01672126 -0.00276620 0.09697835
v -0.01601529 -0.00404803 0.09688827
v -0.00228910 -0.00996449 0.09885704
v 0.00098606 -0.00889168 0.09923826
v 0.00493591 -0.00691455 0.09957249
v 0.00691530 -0.00493955 0.09973045
v 0.00691530 -0.00296242 0.09976439
v -0.01878108 -0.00098743 0.09653186
v 0.01006536 0.00435317 0.09900979
v 0.00965875 0.00557315 0.09780999
v 0.00866682 0.00686990 0.09780999
v 0.01045855 0.00098757 0.09931790
v 0.01028876 0.00296257 0.09921084
v 0.00668296 0.00605730 0.08651570
v 0.00851044 0.00669501 0.09583339
v 0.00738893 0.00521696 0.08651570
v -0.00043035 -0.00891514 0.08651570
v -0.00098887 -0.01092426 0.09583339
v -0.00098887 -0.01065126 0.09780999
v -0.00295486 -0.01023109 0.09788310
v 0.00889023 -0.00296242 0.09973568
v 0.01045855 -0.00098743 0.09931921
v -0.00098887 -0.01007966 0.09893407
v 0.00098606 -0.01016284 0.09900195
v 0.00296098 -0.00889168 0.09929570
v 0.00488676 -0.00895140 0.09915209
v 0.00708956 -0.00709584 0.09932051
v 0.01074005 0.00296257 0.09780999
v 0.01017706 0.00458351 0.09780999
v 0.01008770 0.00439156 0.09622897
v 0.01109750 -0.00098743 0.09780999
v 0.01108857 0.00098757 0.09780999
v 0.00806809 0.00422947 0.08651570
v 0.00787596 0.00450887 0.08651570
v 0.00098606 -0.00894073 0.08651570
v 0.00098606 -0.01090293 0.09583339
v 0.00098606 -0.01074937 0.09780999
v 0.00899300 -0.00499927 0.09931921
v 0.01030217 -0.00296242 0.09921867
v 0.00296098 -0.01010099 0.09898237
v 0.00419420 -0.00997515 0.09889229
v 0.00655338 -0.00833288 0.09906070
v 0.00840320 -0.00655837 0.09911032
v 0.00905555 0.00098757 0.08651570
v 0.00872491 0.00240163 0.08651570
v 0.00859086 0.00296257 0.08651570
v 0.01076239 -0.00296242 0.09780999
v 0.00906449 -0.00098743 0.08651570
v 0.00906002 0.00042450 0.08651570
v 0.00154905 -0.00882343 0.08651570
v 0.00296098 -0.01055102 0.09583339
v 0.00296098 -0.01052116 0.09780999
v 0.01007429 -0.00438075 0.09901892
v 0.00445335 -0.01009673 0.09780999
v 0.00544081 -0.00961471 0.09780999
v 0.00786702 -0.00787432 0.09848104
v 0.01019046 -0.00462176 0.09780999
v 0.01009663 -0.00441701 0.09621592
v 0.00861767 -0.00296242 0.08651570
v 0.00893938 -0.00154836 0.08651570
v 0.00296098 -0.00852910 0.08651570
v 0.00412717 -0.00996023 0.09475892
v 0.00439973 -0.01008393 0.09583339
v 0.00968109 -0.00561139 0.09780999
v 0.00538719 -0.00954006 0.09583339
v 0.00792064 -0.00792338 0.09674336
v 0.00708956 -0.00849497 0.09781782
v 0.00792064 -0.00792338 0.09716375
v 0.00854618 -0.00709584 0.09781782
v 0.00808596 -0.00426131 0.08651570
v 0.00331844 -0.00839473 0.08651570
v 0.00421207 -0.00805135 0.08651570
v 0.00841661 -0.00695294 0.09598483
v 0.00519953 -0.00741150 0.08651570
v 0.00555252 -0.00713210 0.08651570
v 0.00643274 -0.00642400 0.08651570
v 0.00742021 -0.00524881 0.08651570
f 1 2 3
f 1 3 4
f 1 4 5
f 1 5 6
f 1 6 7
f 1 7 8
f 1 8 2
f 2 8 9
f 2 9 10
f 2 10 24
f 2 24 43
f 2 43 44
f 2 44 71
f 2 71 73
f 2 73 123
f 2 123 124
f 2 124 152
f 2 152 154
f 2 154 172
f 2 172 171
f 2 171 184
f 2 184 183
f 2 183 182
f 2 182 187
f 2 187 186
f 2 186 198
f 2 198 197
f 2 197 208
f 2 208 215
f 2 215 214
f 2 214 213
f 2 213 212
f 2 212 210
f 2 210 209
f 2 209 199
f 2 199 188
f 2 188 173
f 2 173 155
f 2 155 126
f 2 126 94
f 2 94 93
f 2 93 92
f 2 92 91
f 2 91 90
f 2 90 89
f 2 89 88
f 2 88 87
f 2 87 86
f 2 86 85
f 2 85 84
f 2 84 83
f 2 83 82
f 2 82 81
f 2 81 80
f 2 80 79
f 2 79 78
f 2 78 77
f 2 77 75
f 2 75 47
f 2 47 27
f 2 27 11
f 2 11 4
f 2 4 3
f 4 11 12
f 4 12 13
f 4 13 5
f 5 14 15
f 5 15 6
f 5 13 12
f 5 12 16
f 5 16 17
f 5 17 14
f 6 15 18
f 6 18 19
f 6 19 20
f 6 20 7
f 7 20 21
f 7 21 22
f 7 22 8
f 8 22 9
f 9 23 24
f 9 24 10
f 9 22 25
f 9 25 26
f 9 26 23
f 11 27 28
f 11 28 12
f 12 28 29
f 12 29 30
f 12 30 16
f 14 18 15
f 14 17 31
f 14 31 18
f 16 30 17
f 17 30 32
f 17 32 33
f 17 33 31
f 18 34 35
f 18 35 36
f 18 36 19
f 18 31 37
f 18 37 38
f 18 38 39
f 18 39 34
f 19 36 20
f 20 40 21
f 20 36 40
f 21 41 22
f 21 40 42
f 21 42 41
f 22 41 25
f 23 43 24
f 23 26 44
f 23 44 43
f 25 45 26
f 25 41 45
f 26 45 46
f 26 46 44
f 27 47 48
f 27 48 28
f 28 48 29
f 29 49 50
f 29 50 30
f 29 48 49
f 30 50 32
f 31 33 37
f 32 50 51
f 32 51 52
f 32 52 33
f 33 52 53
f 33 53 37
f 34 54 55
f 34 55 56
f 34 56 35
f 34 39 57
f 34 57 58
f 34 58 59
f 34 59 60
f 34 60 61
f 34 61 54
f 35 56 36
f 36 56 62
f 36 62 40
f 37 53 38
f 38 53 52
f 38 52 63
f 38 63 64
f 38 64 65
f 38 65 66
f 38 66 67
f 38 67 68
f 38 68 57
f 38 57 39
f 40 62 42
f 41 42 69
f 41 69 45
f 42 62 70
f 42 70 69
f 44 46 71
f 45 69 72
f 45 72 46
f 46 73 71
f 46 72 74
f 46 74 73
f 47 75 48
f 48 76 49
f 48 75 77
f 48 77 78
f 48 78 79
f 48 79 80
f 48 80 81
f 48 81 82
f 48 82 83
f 48 83 84
f 48 84 85
f 48 85 86
f 48 86 87
f 48 87 88
f 48 88 89
f 48 89 90
f 48 90 91
f 48 91 92
f 48 92 93
f 48 93 94
f 48 94 76
f 49 76 50
f 50 76 95
f 50 95 96
f 50 96 51
f 51 96 97
f 51 97 98
f 51 98 52
f 52 98 99
f 52 99 65
f 52 65 64
f 52 64 63
f 54 100 101
f 54 101 102
f 54 102 103
f 54 103 62
f 54 62 56
f 54 56 55
f 54 61 100
f 57 68 104
f 57 104 58
f 58 104 59
f 59 105 60
f 59 104 106
f 59 106 105
f 60 105 107
f 60 107 61
f 61 107 105
f 61 105 108
f 61 108 109
f 61 109 110
f 61 110 111
f 61 111 112
f 61 112 113
f 61 113 114
f 61 114 115
f 61 115 101
f 61 101 100
f 62 103 70
f 65 99 116
f 65 116 66
f 66 116 117
f 66 117 67
f 67 117 118
f 67 118 68
f 68 118 104
f 69 70 119
f 69 119 120
f 69 120 72
f 70 103 121
f 70 121 122
f 70 122 119
f 72 120 74
f 73 74 123
f 74 124 123
f 74 120 125
f 74 125 124
f 76 94 126
f 76 126 127
f 76 127 95
f 95 127 96
f 96 127 128
f 96 128 129
f 96 129 97
f 97 130 98
f 97 129 131
f 97 131 132
f 97 132 130
f 98 130 132
f 98 132 133
f 98 133 134
f 98 134 99
f 99 134 132
f 99 132 116
f 101 115 135
f 101 135 136
f 101 136 102
f 102 136 103
f 103 136 121
f 104 118 106
f 105 109 108
f 105 106 109
f 106 118 137
f 106 137 138
f 106 138 109
f 109 138 139
f 109 139 140
f 109 140 110
f 110 140 111
f 111 141 112
f 111 140 141
f 112 141 142
f 112 142 113
f 113 142 143
f 113 143 114
f 114 143 144
f 114 144 145
f 114 145 115
f 115 145 135
f 116 132 138
f 116 138 117
f 117 146 118
f 117 138 146
f 118 146 137
f 119 122 147
f 119 147 148
f 119 148 149
f 119 149 120
f 120 149 153
f 120 153 125
f 121 136 150
f 121 150 151
f 121 151 122
f 122 151 147
f 124 125 152
f 125 153 154
f 125 154 152
f 126 155 156
f 126 156 127
f 127 156 157
f 127 157 158
f 127 158 128
f 128 158 129
f 129 158 141
f 129 141 131
f 131 140 132
f 131 141 140
f 132 140 139
f 132 139 138
f 132 134 133
f 135 159 160
f 135 160 150
f 135 150 136
f 135 145 144
f 135 144 159
f 137 146 138
f 141 158 157
f 141 157 161
f 141 161 142
f 142 162 163
f 142 163 143
f 142 161 162
f 143 164 165
f 143 165 144
f 143 163 164
f 144 165 159
f 147 151 166
f 147 166 167
f 147 167 148
f 148 167 168
f 148 168 153
f 148 153 149
f 150 160 169
f 150 169 170
f 150 170 151
f 151 170 166
f 153 171 172
f 153 172 154
f 153 168 171
f 155 173 156
f 156 173 174
f 156 174 175
f 156 175 157
f 157 175 162
f 157 162 161
f 159 176 177
f 159 177 160
f 159 165 176
f 160 177 169
f 162 175 178
f 162 178 163
f 163 178 164
f 164 178 179
f 164 179 180
f 164 180 165
f 165 180 181
f 165 181 176
f 166 168 167
f 166 170 182
f 166 182 183
f 166 183 184
f 166 184 168
f 168 184 171
f 169 177 185
f 169 185 186
f 169 186 187
f 169 187 170
f 170 187 182
f 173 188 189
f 173 189 174
f 174 189 190
f 174 190 175
f 175 190 178
f 176 181 191
f 176 191 177
f 177 191 185
f 178 190 179
f 179 192 193
f 179 193 194
f 179 194 180
f 179 190 192
f 180 194 181
f 181 194 191
f 185 191 195
f 185 195 196
f 185 196 197
f 185 197 198
f 185 198 186
f 188 199 189
f 189 199 200
f 189 200 201
f 189 201 192
f 189 192 190
f 191 202 195
f 191 194 202
f 192 201 193
f 193 201 203
f 193 203 204
f 193 204 205
f 193 205 194
f 194 206 207
f 194 207 202
f 194 205 206
f 195 202 196
f 196 202 208
f 196 208 197
f 199 209 200
f 200 209 210
f 200 210 201
f 201 210 203
f 202 207 206
f 202 206 204
f 202 204 211
f 202 211 208
f 203 210 212
f 203 212 204
f 204 206 205
f 204 212 213
f 204 213 214
f 204 214 215
f 204 215 211
f 208 211 215

