# https://github.com/mikedh/trimesh
v -0.03769976 0.12458399 -0.02561679
v -0.03769976 0.12458399 0.00098277
v -0.03769976 0.16772759 -0.02660064
v -0.03499511 0.12458399 -0.02680892
v 0.00681673 0.12458399 0.00098277
v -0.03769976 0.29593638 0.00098277
v -0.03769976 0.17774126 -0.02682811
v -0.03457722 0.12458399 -0.02682536
v -0.03499511 0.12502527 -0.02681714
v 0.00681673 0.12458399 -0.00500254
v 0.04064230 0.23850212 0.00098277
v -0.03769976 0.29597032 -0.00500254
v 0.00121009 0.39651427 0.00098277
v -0.03769976 0.19505301 -0.02691854
v -0.02498905 0.12458399 -0.02701172
v 0.00673548 0.12458399 -0.01522471
v 0.04064230 0.23850212 -0.01499725
v 0.08088706 0.42791304 0.00093892
v 0.08005129 0.42591029 0.00098277
v -0.03769976 0.29444283 -0.01541107
v 0.00121009 0.39651427 -0.00500254
v 0.00122170 0.39651427 -0.01499725
v 0.00449514 0.40493256 0.00098277
v -0.03499511 0.19505301 -0.02695691
v -0.03769976 0.26504681 -0.02613475
v -0.01499461 0.30496565 -0.02694869
v -0.01499461 0.29505384 -0.02701446
v -0.01499461 0.12458399 -0.02701172
v -0.02498905 0.21501243 -0.02701172
v 0.00665422 0.12458399 -0.01557002
v 0.04042175 0.23897733 -0.02079346
v 0.08081742 0.42791304 -0.01499725
v 0.08088706 0.42791304 -0.00500254
v 0.04613286 0.47136214 0.00098277
v -0.03769976 0.28585485 -0.02326816
v -0.00035698 0.39098132 -0.02067014
v 0.00449514 0.40493256 -0.00500254
v 0.00450675 0.40493256 -0.01499725
v 0.00830255 0.41301137 0.00098277
v -0.03769976 0.26776236 -0.02609638
v -0.00498855 0.34495240 -0.02679248
v -0.00498855 0.33493876 -0.02701446
v 0.00499428 0.29505384 -0.02701446
v -0.01457672 0.12458399 -0.02700350
v 0.02498318 0.30496565 -0.02701446
v 0.03498923 0.31494537 -0.02701446
v 0.02498318 0.24501947 -0.02701172
v 0.02498318 0.23500581 -0.02695965
v 0.00353168 0.12458399 -0.02201848
v 0.00309058 0.12458399 -0.02238845
v 0.03538390 0.23541315 -0.02324076
v 0.04088607 0.24501947 -0.02156355
v 0.07938964 0.42791304 -0.02142927
v 0.04613286 0.47136214 -0.01499725
v 0.04224420 0.46806952 0.00098277
v -0.03769976 0.27825126 -0.02521942
v -0.00141331 0.38497311 -0.02196641
v 0.00726944 0.40493256 -0.02292285
v 0.00885973 0.41199303 -0.02156081
v 0.00830255 0.41301137 -0.01499725
v 0.01502355 0.42499381 0.00098277
v -0.03769976 0.27502650 -0.02592099
v 0.00499428 0.37495944 -0.02672123
v 0.01500034 0.39498678 -0.02701446
v 0.00499428 0.36497974 -0.02701446
v -0.00498855 0.14501864 -0.02674315
v -0.00498855 0.12458399 -0.02586070
v 0.06499578 0.42499381 -0.02701446
v 0.03498923 0.25506708 -0.02563324
v 0.03498923 0.24501947 -0.02507143
v 0.02498318 0.22506005 -0.02620601
v 0.06499578 0.41498014 -0.02655679
v -0.00448941 0.12458399 -0.02573464
v 0.07537329 0.42791304 -0.02402729
v 0.04613286 0.46762824 -0.02292285
v 0.03822785 0.46199343 -0.02201026
v 0.04224420 0.46806952 -0.01499725
v 0.03734564 0.46307966 0.00098277
v 0.01751926 0.42499381 -0.02257207
v 0.01444316 0.41518381 -0.02372583
v 0.01500034 0.40493256 -0.02643073
v 0.01928367 0.43127358 -0.02111685
v 0.02812893 0.44498718 -0.02203766
v 0.01502355 0.42499381 -0.01499725
v 0.02968439 0.45052016 -0.02053311
v 0.02821019 0.44844955 0.00098277
v 0.02498318 0.41498014 -0.02699254
v 0.04498367 0.44498718 -0.02701446
v 0.06499578 0.42791304 -0.02701446
v 0.04613286 0.45496690 -0.02679522
v 0.04613286 0.46515030 -0.02401084
v 0.04489081 0.46521819 -0.02365183
v 0.03734564 0.46307966 -0.01499725
v 0.04498367 0.45496690 -0.02676781
v 0.03493119 0.45432195 -0.02292833
v 0.03532586 0.46016043 0.00098277
v 0.02468137 0.43470198 -0.02338326
v 0.03498923 0.44498718 -0.02554554
v 0.02498318 0.42499381 -0.02607994
v 0.03498923 0.43497354 -0.02689662
v 0.03234262 0.45578158 -0.01499725
v 0.03234262 0.45578158 0.00098277
v 0.04613286 0.44498718 -0.02701446
f 1 2 6
f 1 6 12
f 1 12 20
f 1 20 35
f 1 35 56
f 1 56 62
f 1 62 40
f 1 40 25
f 1 25 14
f 1 14 7
f 1 7 3
f 1 3 4
f 1 4 8
f 1 8 15
f 1 15 28
f 1 28 44
f 1 44 67
f 1 67 73
f 1 73 50
f 1 50 49
f 1 49 30
f 1 30 16
f 1 16 10
f 1 10 5
f 1 5 2
f 2 5 11
f 2 11 19
f 2 19 34
f 2 34 55
f 2 55 78
f 2 78 96
f 2 96 102
f 2 102 86
f 2 86 61
f 2 61 39
f 2 39 23
f 2 23 13
f 2 13 6
f 3 7 4
f 4 7 9
f 4 9 8
f 5 10 17
f 5 17 11
f 6 13 12
f 7 14 9
f 8 9 14
f 8 14 15
f 10 16 17
f 11 17 33
f 11 33 18
f 11 18 19
f 12 13 21
f 12 21 22
f 12 22 20
f 13 23 37
f 13 37 21
f 14 24 15
f 14 25 26
f 14 26 27
f 14 27 24
f 15 24 29
f 15 29 27
f 15 27 43
f 15 43 28
f 16 30 31
f 16 31 17
f 17 31 32
f 17 32 33
f 18 33 54
f 18 54 34
f 18 34 19
f 20 22 36
f 20 36 35
f 21 37 38
f 21 38 22
f 22 38 36
f 23 39 60
f 23 60 37
f 24 27 29
f 25 40 26
f 26 40 41
f 26 41 42
f 26 42 27
f 27 42 65
f 27 65 64
f 27 64 88
f 27 88 103
f 27 103 89
f 27 89 68
f 27 68 46
f 27 46 45
f 27 45 43
f 28 43 45
f 28 45 46
f 28 46 47
f 28 47 48
f 28 48 44
f 30 49 31
f 31 49 50
f 31 50 51
f 31 51 52
f 31 52 53
f 31 53 32
f 32 53 54
f 32 54 33
f 34 54 77
f 34 77 55
f 35 36 57
f 35 57 58
f 35 58 56
f 36 38 59
f 36 59 58
f 36 58 57
f 37 60 38
f 38 60 59
f 39 61 84
f 39 84 60
f 40 62 41
f 41 62 63
f 41 63 64
f 41 64 65
f 41 65 42
f 44 48 66
f 44 66 67
f 46 68 47
f 47 68 48
f 48 69 70
f 48 70 71
f 48 71 67
f 48 67 66
f 48 68 72
f 48 72 69
f 50 73 70
f 50 70 51
f 51 70 52
f 52 70 74
f 52 74 53
f 53 74 75
f 53 75 54
f 54 75 76
f 54 76 77
f 55 77 93
f 55 93 78
f 56 58 62
f 58 59 79
f 58 79 80
f 58 80 81
f 58 81 62
f 59 60 82
f 59 82 83
f 59 83 79
f 60 84 85
f 60 85 82
f 61 86 84
f 62 81 63
f 63 81 64
f 64 81 87
f 64 87 88
f 67 71 73
f 68 89 74
f 68 74 72
f 69 72 70
f 70 73 71
f 70 72 74
f 74 89 90
f 74 90 91
f 74 91 75
f 75 91 92
f 75 92 76
f 76 93 77
f 76 92 94
f 76 94 95
f 76 95 83
f 76 83 85
f 76 85 93
f 78 93 96
f 79 83 95
f 79 95 97
f 79 97 98
f 79 98 80
f 80 98 99
f 80 99 81
f 81 99 94
f 81 94 100
f 81 100 87
f 82 85 83
f 84 86 101
f 84 101 85
f 85 101 93
f 86 102 101
f 87 100 88
f 88 100 94
f 88 94 90
f 88 90 103
f 89 103 90
f 90 94 91
f 91 94 92
f 93 101 96
f 94 99 98
f 94 98 95
f 95 98 97
f 96 101 102

