# https://github.com/mikedh/trimesh
v -0.14686923 0.11953447 -0.00923846
v -0.12723579 0.03099768 0.00098522
v -0.14686923 0.11953447 0.00098046
v -0.14686923 0.11961362 -0.01499553
v -0.12374490 0.01948933 0.00098522
v -0.12773126 0.03501849 0.00499946
v -0.13041137 0.05472674 -0.02075737
v -0.13002287 0.04983529 0.01022320
v -0.14263512 0.11351909 0.01499934
v -0.14263512 0.11499128 0.01634218
v -0.14263512 0.12013601 0.02056593
v -0.14263512 0.13498448 0.02131831
v -0.14263512 0.14498900 0.02162782
v -0.14686923 0.17573071 0.00098046
v -0.14686923 0.12089585 -0.01700503
v -0.12239922 0.01662411 0.00098522
v -0.12232039 0.02713518 0.01499934
v -0.12543404 0.03501849 0.01499934
v -0.13029313 0.05472674 -0.02085736
v -0.14686923 0.12621470 -0.02268115
v -0.14686923 0.12697454 -0.02315257
v -0.14686923 0.13685241 -0.02589540
v -0.13001160 0.05988730 0.02001356
v -0.12156028 0.03501849 0.02070879
v -0.12499486 0.07500488 0.02147068
v -0.11500642 0.04500717 0.02162782
v -0.10500670 0.04500717 0.02163259
v -0.08934838 0.14498900 0.02162782
v -0.14263512 0.15496185 0.02146592
v -0.14263512 0.16322507 0.02079450
v -0.14263512 0.16779992 0.01496600
v -0.08934838 0.16566288 0.01499934
v -0.08934838 0.16889217 0.00499946
v -0.14686923 0.17574655 -0.00499566
v -0.11500642 0.01404383 0.00098522
v -0.12191500 0.01751059 0.00329472
v -0.12501739 0.05472674 -0.02426209
v -0.12471897 0.05472674 -0.02437637
v -0.11500078 0.05472674 -0.02700967
v -0.12077201 0.02946218 0.02039927
v -0.14686923 0.14685693 -0.02701443
v -0.12499486 0.06501620 -0.02550017
v -0.11471926 0.03459108 0.02089450
v -0.09500699 0.04500717 0.02160402
v -0.08934838 0.05067428 0.02161830
v -0.08934838 0.05501168 0.02162782
v -0.08934838 0.15064028 0.02144211
v -0.08934838 0.16335171 0.01784692
v -0.08934838 0.15958419 0.02070879
v -0.08934838 0.16097721 0.02019927
v -0.08934838 0.16889217 0.00102332
v -0.14686923 0.17574655 -0.00644802
v -0.09249581 0.05472674 -0.02700967
v -0.08934838 0.01749475 0.00098522
v -0.11785543 0.02946218 0.02039927
v -0.12499486 0.11500711 -0.02701443
v -0.14686923 0.15686144 -0.02683348
v -0.13499457 0.14498900 -0.02701443
v -0.09500699 0.03854856 0.02078974
v -0.08934838 0.04220527 0.02103736
v -0.08934838 0.04500717 0.02138973
v -0.08934838 0.16463393 0.00098522
v -0.09249581 0.13498448 -0.02701443
v -0.09249581 0.14498900 -0.02680967
v -0.09249581 0.15524679 -0.02427637
v -0.09249581 0.16124633 -0.02183354
v -0.09249581 0.16289264 -0.01895739
v -0.09249581 0.16469726 -0.01499553
v -0.14686923 0.17571488 -0.01572886
v -0.14686923 0.17573071 -0.01499553
v -0.10500670 0.11500711 -0.02701443
v -0.09249581 0.12499580 -0.02701443
v -0.08934838 0.03685476 0.01880405
v -0.08934838 0.03903928 0.02057546
v -0.14686923 0.16745166 -0.02424780
v -0.14686923 0.17147246 -0.02255258
v -0.14686923 0.17370448 -0.02042404
f 1 2 3
f 1 3 14
f 1 14 34
f 1 34 52
f 1 52 70
f 1 70 69
f 1 69 77
f 1 77 76
f 1 76 75
f 1 75 57
f 1 57 41
f 1 41 22
f 1 22 21
f 1 21 20
f 1 20 15
f 1 15 4
f 1 4 2
f 2 5 6
f 2 6 3
f 2 4 7
f 2 7 5
f 3 6 8
f 3 8 9
f 3 9 10
f 3 10 11
f 3 11 12
f 3 12 13
f 3 13 14
f 4 15 7
f 5 16 17
f 5 17 18
f 5 18 6
f 5 7 16
f 6 18 8
f 7 19 16
f 7 15 20
f 7 20 21
f 7 21 22
f 7 22 19
f 8 18 23
f 8 23 9
f 9 23 10
f 10 23 11
f 11 23 24
f 11 24 12
f 12 24 13
f 13 24 25
f 13 25 26
f 13 26 27
f 13 27 28
f 13 28 29
f 13 29 14
f 14 29 30
f 14 30 31
f 14 31 32
f 14 32 33
f 14 33 34
f 16 35 36
f 16 36 17
f 16 19 37
f 16 37 38
f 16 38 39
f 16 39 35
f 17 36 40
f 17 40 18
f 18 40 23
f 19 22 37
f 22 41 42
f 22 42 38
f 22 38 37
f 23 40 24
f 24 40 26
f 24 26 25
f 26 40 43
f 26 43 27
f 27 44 45
f 27 45 46
f 27 46 28
f 27 43 44
f 28 47 29
f 28 46 45
f 28 45 61
f 28 61 60
f 28 60 74
f 28 74 73
f 28 73 54
f 28 54 62
f 28 62 51
f 28 51 33
f 28 33 32
f 28 32 48
f 28 48 50
f 28 50 49
f 28 49 47
f 29 47 30
f 30 48 32
f 30 32 31
f 30 47 49
f 30 49 50
f 30 50 48
f 33 51 52
f 33 52 34
f 35 39 53
f 35 53 54
f 35 54 55
f 35 55 40
f 35 40 36
f 38 42 39
f 39 42 41
f 39 41 56
f 39 56 71
f 39 71 53
f 40 55 43
f 41 57 58
f 41 58 63
f 41 63 72
f 41 72 71
f 41 71 56
f 43 55 44
f 44 59 60
f 44 60 61
f 44 61 45
f 44 55 59
f 51 62 63
f 51 63 64
f 51 64 65
f 51 65 66
f 51 66 67
f 51 67 68
f 51 68 69
f 51 69 70
f 51 70 52
f 53 71 72
f 53 72 54
f 54 73 55
f 54 72 63
f 54 63 62
f 55 73 74
f 55 74 59
f 57 64 63
f 57 63 58
f 57 75 64
f 59 74 60
f 64 75 65
f 65 75 66
f 66 75 76
f 66 76 77
f 66 77 67
f 67 77 68
f 68 77 69

