# https://github.com/mikedh/trimesh
v -0.10499357 0.35214353 0.00499973
v -0.12091668 0.35010821 0.01086637
v -0.11498559 0.35046688 0.01308542
v -0.10589126 0.35102576 0.01594731
v -0.09473439 0.35092565 0.01539017
v -0.09500156 0.35189328 0.00499973
v -0.10097539 0.35204342 0.00098545
v -0.10499357 0.35214353 0.00098545
v -0.13153921 0.34894037 0.00098545
v -0.13499099 0.34851497 0.00499973
v -0.10982394 0.34991634 0.01991397
v -0.14263195 0.34707189 0.00499973
v -0.14263195 0.34567049 0.01263780
v -0.14263195 0.34514499 0.01499970
v -0.10316616 0.35028335 0.02026158
v -0.09788696 0.35028335 0.02026158
v -0.09123986 0.34929073 0.01898540
v -0.08888880 0.35034177 0.01231875
v -0.08834378 0.35051692 0.00499973
v -0.09498019 0.35189328 0.00098545
v -0.09498019 0.35189328 -0.01499545
v -0.10498289 0.35213518 -0.01499545
v -0.11498559 0.35093400 -0.01499545
v -0.13498031 0.34851497 -0.00500024
v -0.13499099 0.34851497 0.00098545
v -0.12138689 0.35015824 -0.01499545
v -0.14097552 0.34738886 0.00098545
v -0.14263195 0.34260082 0.01943778
v -0.14263195 0.34159982 0.02080920
v -0.14263195 0.34707189 0.00098545
v -0.14498301 0.34662142 0.00098545
v -0.14687455 0.34604588 0.00098545
v -0.10589126 0.34594578 0.02080920
v -0.09473439 0.34557039 0.02080920
v -0.07501753 0.34134126 0.02072825
v -0.06921468 0.34059051 0.02042825
v -0.07501753 0.34438589 0.01499970
v -0.07501753 0.34609592 0.00499973
v -0.08334243 0.34894872 0.00499973
v -0.08834378 0.35051692 0.00098545
v -0.08833309 0.35050857 -0.01499545
v -0.08889949 0.35033342 -0.02064781
v -0.09498019 0.35094234 -0.02159543
v -0.10498289 0.35106748 -0.02181924
v -0.11498559 0.35045853 -0.02088591
v -0.12091668 0.35009986 -0.02023353
v -0.13498031 0.34840652 -0.01499545
v -0.14498301 0.34657973 -0.01499545
v -0.14498301 0.34662142 -0.00500024
v -0.14263195 0.33664498 0.02143301
v -0.14687455 0.34604588 -0.00500024
v -0.14687455 0.29114193 0.00098545
v -0.14263195 0.32735249 0.02162825
v -0.14263195 0.33499333 0.02162348
v -0.08500955 0.33499333 0.02162825
v -0.13499099 0.33499333 0.02162825
v -0.07501753 0.33499333 0.02154253
v -0.06552779 0.33449286 0.02085682
v -0.05920129 0.33082259 0.02045206
v -0.06306986 0.33698696 0.01499970
v -0.06807121 0.34151644 0.01499970
v -0.06732315 0.34213370 0.00499973
v -0.07191841 0.34451103 0.00098545
v -0.07500684 0.34609592 0.00098545
v -0.08334243 0.34894872 0.00098545
v -0.07999751 0.34780592 0.00098545
v -0.08333174 0.34894037 -0.00500024
v -0.08333174 0.34891534 -0.01499545
v -0.07500684 0.34606254 -0.01499545
v -0.06822082 0.34142467 -0.02180495
v -0.07500684 0.34300956 -0.02310495
v -0.09498019 0.34498650 -0.02510018
v -0.10498289 0.34498650 -0.02532399
v -0.14498301 0.34325981 -0.02331924
v -0.14687455 0.34297618 -0.02312876
v -0.14687455 0.34600416 -0.01499545
v -0.14263195 0.29521260 0.01543303
v -0.14263195 0.29604673 0.01717588
v -0.14263195 0.29853252 0.02043301
v -0.14263195 0.29937503 0.02059968
v -0.14263195 0.30483872 0.02122825
v -0.14263195 0.30736619 0.02142825
v -0.14263195 0.31499034 0.02162825
v -0.14687455 0.29113358 0.00023307
v -0.07747546 0.26692647 0.00098545
v -0.07254891 0.27138084 0.02081396
v -0.06500414 0.31499034 0.02162825
v -0.06500414 0.32499185 0.02156158
v -0.05810057 0.32499185 0.02074730
v -0.04976498 0.31093636 0.02020920
v -0.05434956 0.32499185 0.01499970
v -0.05805782 0.33199039 0.01499970
v -0.06232179 0.33774605 0.00499973
v -0.06432020 0.33951446 0.00098545
v -0.06731246 0.34213370 0.00098545
v -0.07500684 0.34609592 -0.00500024
v -0.06731246 0.34213370 -0.01499545
v -0.06231111 0.33774605 -0.01499545
v -0.05820743 0.33183190 -0.02185733
v -0.06492934 0.33509344 -0.02360019
v -0.07500684 0.33499333 -0.02661446
v -0.08500955 0.33499333 -0.02700970
v -0.13498031 0.33499333 -0.02700970
v -0.14498301 0.33499333 -0.02682399
v -0.14687455 0.33499333 -0.02663351
v -0.06500414 0.27138084 0.02162825
v -0.14687455 0.29112524 -0.00500024
v -0.07748614 0.26692647 -0.00265263
v -0.03769976 0.26692647 0.00098545
v -0.05501213 0.29500404 0.02162825
v -0.05501213 0.30501390 0.02138063
v -0.04921997 0.30501390 0.02056158
v -0.04748873 0.29185095 0.02077110
v -0.03769976 0.29591328 0.00098545
v -0.05250077 0.32499185 0.00499973
v -0.05730976 0.33274949 0.00499973
v -0.06231111 0.33774605 0.00098545
v -0.05730976 0.33274949 -0.01499545
v -0.05252214 0.32499185 -0.01499545
v -0.03769976 0.29438677 -0.01540974
v -0.04914516 0.31292164 -0.02137638
v -0.03769976 0.28580335 -0.02326685
v -0.05627315 0.32499185 -0.02314781
v -0.06500414 0.32499185 -0.02665256
v -0.06500414 0.31499034 -0.02700970
v -0.14687455 0.32499185 -0.02700970
v -0.05501213 0.27138084 0.02162825
v -0.14687455 0.29118362 -0.00980975
v -0.07728310 0.26692647 -0.01499545
v -0.07748614 0.26692647 -0.00500024
v -0.03769976 0.26692647 -0.02610970
v -0.04748873 0.27138084 0.02125682
v -0.04748873 0.27500939 0.02122825
v -0.04839709 0.29500404 0.02081396
v -0.03769976 0.29594666 -0.00344787
v -0.05249008 0.32499185 0.00098545
v -0.03769976 0.29595500 -0.00500024
v -0.05249008 0.32499185 -0.00500024
v -0.03769976 0.29475382 -0.01299070
v -0.03769976 0.27820420 -0.02521923
v -0.03769976 0.27500939 -0.02591923
v -0.05500144 0.29501238 -0.02685732
v -0.05500144 0.28501090 -0.02700970
v -0.14687455 0.31499034 -0.02700970
v -0.14687455 0.29125869 -0.01499545
v -0.07455800 0.26692647 -0.02129543
v -0.03769976 0.26771057 -0.02609542
v -0.05500144 0.26692647 -0.02700970
v -0.14687455 0.30500555 -0.02640018
v -0.05693572 0.26692647 -0.02700970
v -0.06500414 0.26692647 -0.02679065
v -0.14687455 0.29369444 -0.02197162
v -0.07370307 0.26692647 -0.02324781
v -0.14687455 0.29539612 -0.02292876
v -0.06697048 0.26692647 -0.02610018
f 1 2 3
f 1 3 4
f 1 4 5
f 1 5 6
f 1 6 20
f 1 20 7
f 1 7 8
f 1 8 9
f 1 9 10
f 1 10 2
f 2 11 3
f 2 10 12
f 2 12 13
f 2 13 14
f 2 14 11
f 3 11 4
f 4 15 16
f 4 16 5
f 4 11 15
f 5 17 18
f 5 18 6
f 5 16 17
f 6 18 19
f 6 19 20
f 7 20 21
f 7 21 8
f 8 21 22
f 8 22 23
f 8 23 9
f 9 24 25
f 9 25 10
f 9 23 26
f 9 26 24
f 10 25 27
f 10 27 12
f 11 14 28
f 11 28 29
f 11 29 15
f 12 27 30
f 12 30 49
f 12 49 31
f 12 31 32
f 12 32 13
f 13 32 14
f 14 32 28
f 15 29 33
f 15 33 16
f 16 33 34
f 16 34 35
f 16 35 36
f 16 36 17
f 17 36 37
f 17 37 18
f 18 37 38
f 18 38 39
f 18 39 19
f 19 40 21
f 19 21 20
f 19 39 65
f 19 65 40
f 21 40 41
f 21 41 42
f 21 42 43
f 21 43 22
f 22 44 45
f 22 45 46
f 22 46 23
f 22 43 44
f 23 46 26
f 24 27 25
f 24 26 47
f 24 47 48
f 24 48 49
f 24 49 27
f 26 46 47
f 27 49 30
f 28 32 29
f 29 32 50
f 29 50 33
f 31 49 51
f 31 51 32
f 32 51 76
f 32 76 75
f 32 75 105
f 32 105 126
f 32 126 144
f 32 144 149
f 32 149 154
f 32 154 152
f 32 152 145
f 32 145 128
f 32 128 107
f 32 107 84
f 32 84 52
f 32 52 83
f 32 83 53
f 32 53 54
f 32 54 50
f 33 55 34
f 33 50 54
f 33 54 56
f 33 56 55
f 34 55 57
f 34 57 35
f 35 57 36
f 36 57 58
f 36 58 59
f 36 59 60
f 36 60 61
f 36 61 37
f 37 61 38
f 38 61 62
f 38 62 63
f 38 63 64
f 38 64 39
f 39 64 66
f 39 66 65
f 40 65 41
f 41 65 67
f 41 67 68
f 41 68 42
f 42 68 69
f 42 69 70
f 42 70 71
f 42 71 43
f 43 71 72
f 43 72 44
f 44 73 74
f 44 74 45
f 44 72 73
f 45 74 46
f 46 74 75
f 46 75 48
f 46 48 47
f 48 75 76
f 48 76 51
f 48 51 49
f 52 77 78
f 52 78 79
f 52 79 80
f 52 80 81
f 52 81 82
f 52 82 83
f 52 84 85
f 52 85 86
f 52 86 77
f 53 83 106
f 53 106 127
f 53 127 110
f 53 110 87
f 53 87 55
f 53 55 56
f 53 56 54
f 55 87 88
f 55 88 57
f 57 88 58
f 58 88 59
f 59 88 89
f 59 89 90
f 59 90 91
f 59 91 92
f 59 92 60
f 60 92 116
f 60 116 93
f 60 93 61
f 61 93 62
f 62 93 94
f 62 94 95
f 62 95 63
f 63 96 64
f 63 95 97
f 63 97 96
f 64 96 66
f 65 66 67
f 66 96 67
f 67 96 68
f 68 96 69
f 69 96 97
f 69 97 70
f 70 97 98
f 70 98 99
f 70 99 100
f 70 100 101
f 70 101 71
f 71 101 72
f 72 102 73
f 72 101 102
f 73 102 103
f 73 103 104
f 73 104 74
f 74 104 105
f 74 105 75
f 77 86 78
f 78 86 79
f 79 86 106
f 79 106 80
f 80 106 81
f 81 106 82
f 82 106 83
f 84 107 85
f 85 108 130
f 85 130 129
f 85 129 146
f 85 146 153
f 85 153 155
f 85 155 151
f 85 151 150
f 85 150 148
f 85 148 131
f 85 131 109
f 85 109 127
f 85 127 106
f 85 106 86
f 85 107 108
f 87 110 88
f 88 110 111
f 88 111 89
f 89 111 112
f 89 112 90
f 90 112 113
f 90 113 114
f 90 114 91
f 91 115 92
f 91 114 115
f 92 115 116
f 93 117 94
f 93 116 117
f 94 117 98
f 94 98 97
f 94 97 95
f 98 117 116
f 98 116 118
f 98 118 99
f 99 118 119
f 99 119 120
f 99 120 121
f 99 121 122
f 99 122 123
f 99 123 100
f 100 123 124
f 100 124 101
f 101 124 102
f 102 124 125
f 102 125 143
f 102 143 148
f 102 148 150
f 102 150 144
f 102 144 126
f 102 126 103
f 103 126 104
f 104 126 105
f 107 128 129
f 107 129 130
f 107 130 108
f 109 131 147
f 109 147 141
f 109 141 140
f 109 140 122
f 109 122 120
f 109 120 139
f 109 139 137
f 109 137 135
f 109 135 114
f 109 114 132
f 109 132 127
f 110 127 132
f 110 132 133
f 110 133 111
f 111 133 134
f 111 134 112
f 112 134 113
f 113 134 133
f 113 133 114
f 114 133 132
f 114 135 115
f 115 136 116
f 115 135 137
f 115 137 136
f 116 136 138
f 116 138 118
f 118 138 119
f 119 138 137
f 119 137 139
f 119 139 120
f 120 122 121
f 122 140 123
f 123 140 141
f 123 141 124
f 124 141 142
f 124 142 125
f 125 142 143
f 128 145 129
f 129 145 146
f 131 148 143
f 131 143 142
f 131 142 147
f 136 137 138
f 141 147 142
f 144 150 151
f 144 151 149
f 145 152 153
f 145 153 146
f 149 151 154
f 151 155 152
f 151 152 154
f 152 155 153

