# https://github.com/mikedh/trimesh
v -0.09248984 0.05473237 -0.02700949
v -0.09248984 0.05473237 0.00097886
v -0.09248984 0.13502894 -0.02700949
v -0.05693206 0.26691812 -0.02701445
v -0.05500669 0.26497969 -0.02701445
v -0.07499520 0.05473237 -0.02700949
v -0.08934702 0.01747933 0.00098382
v -0.08934702 0.03686383 0.01880767
v -0.08934702 0.03902595 0.02057369
v -0.08934702 0.04220700 0.02103999
v -0.08934702 0.04501527 0.02139220
v -0.08934702 0.05065665 0.02162040
v -0.08934702 0.05500574 0.02163032
v -0.09248984 0.16514948 0.00097886
v -0.09248984 0.14499457 -0.02681106
v -0.06500363 0.26691812 -0.02679122
v -0.07837399 0.27136663 0.00098382
v -0.05500669 0.26691812 -0.02701445
v -0.03770512 0.19497180 -0.02692020
v -0.03770512 0.11842786 -0.02550143
v -0.03770512 0.11502315 -0.02537742
v -0.03770512 0.10858650 -0.02512442
v -0.03770512 0.09889425 -0.02448945
v -0.03770512 0.08930140 -0.02358164
v -0.03770512 0.07936063 -0.02229681
v -0.03770512 0.07704940 -0.02188507
v -0.07474849 0.05473237 -0.02691523
v -0.06839851 0.01949234 0.00098382
v -0.07157350 0.01867223 0.00098382
v -0.07499520 0.01800121 0.00098382
v -0.03770512 0.17767486 -0.02682594
v -0.08499750 0.03939873 0.02040998
v -0.08499750 0.04501527 0.02122850
v -0.07499520 0.05500574 0.02163032
v -0.04747681 0.17499085 0.02366421
v -0.08934702 0.14496972 0.02163032
v -0.08934702 0.15061110 0.02144181
v -0.08934702 0.15958266 0.02070763
v -0.08934702 0.16097437 0.02019667
v -0.07762851 0.27136663 0.01168905
v -0.07836326 0.27136663 0.00499704
v -0.09248984 0.16517434 -0.00048455
v -0.09248984 0.15525842 -0.02427613
v -0.07367586 0.26691812 -0.02324927
v -0.06696118 0.26691812 -0.02610168
v -0.04747681 0.27136663 0.00098382
v -0.07455005 0.26691812 -0.02129970
v -0.07725845 0.26691812 -0.01499464
v -0.09248984 0.16122288 -0.02183546
v -0.09248984 0.16286311 -0.01895825
v -0.09248984 0.16470215 -0.01499464
v -0.09248984 0.16512464 -0.00744939
v -0.09248984 0.16519919 -0.00499880
v -0.03770512 0.26691812 -0.02610664
v -0.03770512 0.26497969 -0.02613640
v -0.03770512 0.06740686 -0.01499464
v -0.06601190 0.05473237 -0.02350226
v -0.07156814 0.03007925 0.00995280
v -0.07983277 0.03997032 0.02003793
v -0.06405435 0.02500946 0.00098382
v -0.06764230 0.03673957 0.01235874
v -0.07316100 0.04188392 0.01902594
v -0.07589621 0.04513953 0.02067290
v -0.06883293 0.04854424 0.02053896
v -0.06813035 0.05500574 0.02081180
v -0.04747681 0.17230684 0.02345090
v -0.03770512 0.06720804 0.00097886
v -0.03770512 0.26691812 0.00097886
v -0.04747681 0.18495648 0.02357988
v -0.06500363 0.27136663 0.02163032
v -0.07253350 0.27136663 0.02081180
v -0.07685622 0.27136663 0.01549392
v -0.04747681 0.27136663 0.02125826
v -0.03770512 0.06733230 -0.01228609
v -0.03770512 0.06713348 -0.00499880
v -0.03770512 0.06713348 -0.00250852
v -0.04747681 0.16467729 0.02272664
v -0.04747681 0.20498712 0.02321279
v -0.04747681 0.19499665 0.02343106
v -0.05500669 0.27136663 0.02163032
f 1 2 14
f 1 14 42
f 1 42 53
f 1 53 52
f 1 52 51
f 1 51 50
f 1 50 49
f 1 49 43
f 1 43 15
f 1 15 3
f 1 3 4
f 1 4 5
f 1 5 6
f 1 6 7
f 1 7 2
f 2 7 8
f 2 8 9
f 2 9 10
f 2 10 11
f 2 11 12
f 2 12 13
f 2 13 36
f 2 36 14
f 3 15 16
f 3 16 4
f 4 16 17
f 4 17 46
f 4 46 18
f 4 18 5
f 5 18 19
f 5 19 6
f 6 20 21
f 6 21 22
f 6 22 23
f 6 23 24
f 6 24 25
f 6 25 26
f 6 26 27
f 6 27 28
f 6 28 29
f 6 29 30
f 6 30 7
f 6 19 31
f 6 31 20
f 7 30 8
f 8 32 9
f 8 30 32
f 9 32 10
f 10 33 11
f 10 32 33
f 11 33 34
f 11 34 12
f 12 34 35
f 12 35 13
f 13 35 36
f 14 37 38
f 14 38 39
f 14 39 40
f 14 40 41
f 14 41 17
f 14 17 42
f 14 36 37
f 15 43 44
f 15 44 45
f 15 45 16
f 16 45 17
f 17 41 40
f 17 40 72
f 17 72 71
f 17 71 70
f 17 70 80
f 17 80 73
f 17 73 46
f 17 45 44
f 17 44 47
f 17 47 48
f 17 48 49
f 17 49 50
f 17 50 51
f 17 51 52
f 17 52 53
f 17 53 42
f 18 54 55
f 18 55 19
f 18 46 54
f 19 55 54
f 19 54 68
f 19 68 67
f 19 67 76
f 19 76 75
f 19 75 74
f 19 74 56
f 19 56 26
f 19 26 25
f 19 25 24
f 19 24 23
f 19 23 22
f 19 22 21
f 19 21 20
f 19 20 31
f 26 56 57
f 26 57 27
f 27 57 28
f 28 58 59
f 28 59 29
f 28 57 56
f 28 56 60
f 28 60 61
f 28 61 62
f 28 62 58
f 29 59 32
f 29 32 30
f 32 59 63
f 32 63 33
f 33 63 34
f 34 63 64
f 34 64 65
f 34 65 35
f 35 66 67
f 35 67 68
f 35 68 69
f 35 69 36
f 35 65 64
f 35 64 66
f 36 69 70
f 36 70 71
f 36 71 37
f 37 71 38
f 38 71 72
f 38 72 39
f 39 72 40
f 43 49 48
f 43 48 47
f 43 47 44
f 46 73 68
f 46 68 54
f 56 74 60
f 58 62 59
f 59 62 64
f 59 64 63
f 60 74 75
f 60 75 76
f 60 76 67
f 60 67 61
f 61 64 62
f 61 67 64
f 64 67 77
f 64 77 66
f 66 77 67
f 68 73 78
f 68 78 79
f 68 79 69
f 69 79 70
f 70 79 78
f 70 78 80
f 73 80 78

