# https://github.com/mikedh/trimesh
v -0.13081908 0.05466919 -0.01526738
v -0.13081908 0.05466919 0.00098551
v -0.13040331 0.05466919 -0.02075993
v -0.12633221 -0.44499993 -0.01499878
v -0.12723304 0.03093518 0.00098551
v 0.04612648 0.05466919 0.00098551
v -0.12615897 -0.45498461 -0.01499878
v -0.12262491 -0.49497777 -0.00635159
v -0.11498510 -0.47495389 -0.00226507
v -0.10498925 -0.45498461 -0.00114957
v -0.09021203 -0.44074422 0.00001801
v -0.08409671 -0.42497608 0.00035513
v -0.13028204 0.05466919 -0.02086134
v -0.12323124 -0.44499993 -0.02341027
v -0.12265956 -0.49497777 -0.02320471
v -0.12373363 0.01942283 0.00098551
v -0.06498854 -0.35497439 0.00086766
v 0.04612648 0.05466919 -0.02680611
v 0.04612648 0.03682776 0.00098551
v -0.12529278 -0.49497777 -0.01499878
v -0.12170675 -0.50174332 -0.00755205
v -0.11498510 -0.48499310 -0.00318049
v -0.10498925 -0.46496928 -0.00164565
v -0.08988288 -0.44074422 0.00001801
v -0.07955788 -0.43086869 0.00024001
v -0.07912478 -0.42497608 0.00035513
v -0.12501559 0.05466919 -0.02426266
v -0.11498510 -0.44499993 -0.02691848
v -0.11498510 -0.46496928 -0.02682529
v -0.11498510 -0.47495389 -0.02676500
v -0.11498510 -0.48499310 -0.02579750
v -0.12174139 -0.50174332 -0.02212210
v -0.12239970 0.01658566 0.00098551
v -0.05499269 -0.30499655 0.00091151
v -0.05499269 -0.31498122 0.00089232
v -0.06933682 -0.39496756 0.00039350
v 0.04498311 0.05466919 -0.02698974
v 0.04612648 0.04501192 -0.02578654
v -0.07498439 -0.40495223 -0.02556727
v -0.07498439 -0.39496756 -0.02660603
v 0.04612648 0.03666408 0.00090603
v 0.04383974 0.03437252 0.00098551
v -0.06970062 -0.40167856 0.00022083
v -0.12259026 -0.50261629 -0.01499878
v -0.11787818 -0.50174332 -0.00755205
v -0.11472524 -0.49475956 -0.00618166
v -0.10926824 -0.49126762 -0.00850037
v -0.07827592 -0.43310565 -0.00500038
v -0.06949273 -0.41188145 -0.00768909
v -0.12472109 0.05466919 -0.02438051
v -0.11498510 -0.43496072 -0.02693493
v -0.10498925 -0.45498461 -0.02701167
v -0.10498925 -0.46496928 -0.02639499
v -0.10755318 -0.48499310 -0.02254966
v -0.11472524 -0.49470496 -0.02322116
v -0.11787818 -0.50174332 -0.02212210
v -0.10445222 -0.47511762 -0.02369257
v -0.11498510 0.01402129 0.00098551
v 0.03498726 0.02717049 0.00098551
v 0.02564972 0.02564278 0.00098551
v 0.01499556 -0.03502899 -0.02701167
v 0.03498726 0.04495735 -0.02701167
v 0.03498726 0.05466919 -0.02701167
v -0.07498439 -0.38498291 -0.02696782
v -0.06498854 -0.34498975 -0.02699522
v -0.08499756 -0.41499144 -0.02701167
v -0.05499269 -0.30499655 -0.02701167
v 0.04612648 0.03590022 -0.02303752
v -0.06860922 -0.40495223 -0.02206180
v -0.06730993 -0.39496756 -0.02310056
v -0.07642226 -0.42497608 -0.02328967
v -0.08499756 -0.42497608 -0.02679789
v 0.04612648 0.03240834 -0.00500038
v -0.06869584 -0.40500677 -0.00461393
v -0.11682142 -0.50261629 -0.01499878
v -0.11181484 -0.49688745 -0.01499878
v -0.10892176 -0.49186778 -0.01499878
v -0.10507587 -0.48499310 -0.01499878
v -0.07718451 -0.43490618 -0.01499878
v -0.07280158 -0.42497608 -0.01499878
v -0.07060146 -0.41782862 -0.01499878
v -0.06925020 -0.41280901 -0.01499878
v 0.04612648 0.02951659 -0.01499878
v -0.11498510 0.05466919 -0.02701167
v -0.11498510 0.04495735 -0.02701167
v -0.09499341 -0.44499993 -0.02663070
v -0.01500930 0.05466919 -0.02701441
v -0.01473212 0.05466919 -0.02701441
v -0.08641811 -0.44499993 -0.02312249
v -0.10928556 -0.49121308 -0.02109430
v -0.09700297 -0.46496928 -0.02288952
v -0.07812000 -0.43326935 -0.02204810
v -0.08853161 -0.45258391 -0.02182609
v -0.09890859 -0.47189850 -0.02151364
v 0.04006314 0.00971098 -0.02014051
v -0.02990779 -0.26036572 -0.02020903
v -0.06949273 -0.41188145 -0.02089148
f 1 2 6
f 1 6 18
f 1 18 37
f 1 37 63
f 1 63 88
f 1 88 87
f 1 87 84
f 1 84 50
f 1 50 27
f 1 27 13
f 1 13 3
f 1 3 4
f 1 4 2
f 2 5 16
f 2 16 33
f 2 33 58
f 2 58 60
f 2 60 59
f 2 59 42
f 2 42 19
f 2 19 6
f 2 4 7
f 2 7 8
f 2 8 9
f 2 9 10
f 2 10 11
f 2 11 12
f 2 12 5
f 3 13 14
f 3 14 4
f 4 14 15
f 4 15 7
f 5 12 17
f 5 17 16
f 6 19 41
f 6 41 73
f 6 73 83
f 6 83 68
f 6 68 38
f 6 38 18
f 7 15 20
f 7 20 8
f 8 20 21
f 8 21 22
f 8 22 9
f 9 22 23
f 9 23 24
f 9 24 11
f 9 11 10
f 11 24 25
f 11 25 12
f 12 25 26
f 12 26 17
f 13 27 14
f 14 28 29
f 14 29 30
f 14 30 15
f 14 27 28
f 15 30 31
f 15 31 32
f 15 32 20
f 16 17 34
f 16 34 33
f 17 35 34
f 17 26 36
f 17 36 19
f 17 19 35
f 18 38 39
f 18 39 40
f 18 40 37
f 19 42 34
f 19 34 35
f 19 36 43
f 19 43 41
f 20 32 44
f 20 44 21
f 21 44 75
f 21 75 45
f 21 45 22
f 22 45 46
f 22 46 25
f 22 25 24
f 22 24 23
f 25 46 47
f 25 47 48
f 25 48 49
f 25 49 43
f 25 43 36
f 25 36 26
f 27 50 28
f 28 51 52
f 28 52 29
f 28 50 51
f 29 52 30
f 30 52 53
f 30 53 31
f 31 54 55
f 31 55 56
f 31 56 32
f 31 53 57
f 31 57 54
f 32 56 75
f 32 75 44
f 33 34 58
f 34 42 59
f 34 59 60
f 34 60 58
f 37 61 62
f 37 62 63
f 37 40 64
f 37 64 65
f 37 65 66
f 37 66 67
f 37 67 61
f 38 68 69
f 38 69 70
f 38 70 39
f 39 70 71
f 39 71 72
f 39 72 40
f 40 72 64
f 41 43 74
f 41 74 49
f 41 49 73
f 43 49 74
f 45 75 76
f 45 76 47
f 45 47 46
f 47 76 77
f 47 77 78
f 47 78 79
f 47 79 48
f 48 79 80
f 48 80 49
f 49 80 81
f 49 81 82
f 49 82 83
f 49 83 73
f 50 84 85
f 50 85 51
f 51 85 52
f 52 66 72
f 52 72 86
f 52 86 53
f 52 85 87
f 52 87 88
f 52 88 66
f 53 86 89
f 53 89 57
f 54 90 55
f 54 57 91
f 54 91 92
f 54 92 93
f 54 93 94
f 54 94 90
f 55 90 56
f 56 90 76
f 56 76 75
f 57 89 91
f 61 88 62
f 61 67 88
f 62 88 63
f 64 72 66
f 64 66 65
f 66 88 67
f 68 83 95
f 68 95 96
f 68 96 97
f 68 97 69
f 69 97 71
f 69 71 70
f 71 97 92
f 71 92 89
f 71 89 86
f 71 86 72
f 76 90 77
f 77 90 78
f 78 90 79
f 79 90 94
f 79 94 92
f 79 92 80
f 80 92 97
f 80 97 81
f 81 97 82
f 82 97 96
f 82 96 83
f 83 96 95
f 84 87 85
f 89 92 91
f 92 94 93

