# https://github.com/mikedh/trimesh
v 0.13874438 0.44904098 -0.01452192
v 0.13874438 0.45028973 0.00098277
v 0.13874438 0.45206991 -0.01912372
v 0.13878788 0.23380089 -0.00500039
v 0.13878788 0.23380089 0.00098277
v 0.13874438 0.50507617 0.00098277
v 0.13874438 0.45552394 -0.02347337
v 0.13879409 0.23380089 -0.01499882
v 0.13874438 0.46057215 -0.02554267
v 0.18181381 0.23380089 0.00098277
v 0.14500101 0.50523561 0.00098277
v 0.13874438 0.50507617 -0.01499882
v 0.13939677 0.23380089 -0.02101761
v 0.13874438 0.46498272 -0.02666640
v 0.18181381 0.23380089 -0.01499882
v 0.20037243 0.30864736 0.00098277
v 0.14500101 0.50523561 -0.01499882
v 0.15500414 0.50462449 0.00098277
v 0.13874438 0.50252551 -0.02314721
v 0.14500101 0.23380089 -0.02452584
v 0.13874438 0.47125313 -0.02692403
v 0.18090668 0.23380089 -0.02153014
v 0.20024815 0.30909905 -0.02050509
v 0.20037243 0.30864736 -0.01499882
v 0.20090054 0.31502408 0.00098277
v 0.15500414 0.50462449 -0.00500039
v 0.15500414 0.50457138 -0.01499882
v 0.15500414 0.50225985 -0.02278269
v 0.14500101 0.50260520 -0.02318010
v 0.15787461 0.50356174 0.00098277
v 0.13874438 0.49497974 -0.02665269
v 0.15500414 0.23380089 -0.02701174
v 0.13874438 0.47499943 -0.02701174
v 0.17509741 0.23380089 -0.02496984
v 0.18100610 0.23502310 -0.02168911
v 0.19312792 0.29501718 -0.02325410
v 0.19555104 0.30545902 -0.02310884
v 0.19499807 0.31502408 -0.02439976
v 0.20044698 0.31502408 -0.02089154
v 0.20090054 0.31502408 -0.01499882
v 0.20102480 0.31903607 0.00098277
v 0.16216168 0.50194097 -0.00500039
v 0.16199392 0.50191438 -0.01499882
v 0.16124834 0.50125015 -0.02157125
v 0.15500414 0.49497974 -0.02628817
v 0.14500101 0.49497974 -0.02668832
v 0.16218653 0.50194097 0.00098277
v 0.13874438 0.48498958 -0.02701448
v 0.16500108 0.23380089 -0.02701174
v 0.17499800 0.23502310 -0.02519733
v 0.18186972 0.24501325 -0.02263742
v 0.18499492 0.29501718 -0.02675959
v 0.19499807 0.32501423 -0.02466013
v 0.20103723 0.35501125 -0.02181244
v 0.20090054 0.34502110 -0.02162059
v 0.20075142 0.33500439 -0.02139584
v 0.20060231 0.32501423 -0.02115191
v 0.20207483 0.35501125 -0.01499882
v 0.20180765 0.34502110 -0.01499882
v 0.20120499 0.32501423 -0.01499882
v 0.20162748 0.33901638 0.00098277
v 0.16518125 0.49883235 0.00098277
v 0.16718809 0.49654734 0.00098277
v 0.16699550 0.49588311 -0.01499882
v 0.17040651 0.49051607 -0.02063116
v 0.16475256 0.49431551 -0.02272513
v 0.18201883 0.47271445 -0.02206734
v 0.16500108 0.48498958 -0.02572905
v 0.17499800 0.46498272 -0.02681166
v 0.16500108 0.47499943 -0.02700900
v 0.15500414 0.48498958 -0.02701448
v 0.17499800 0.26502013 -0.02695144
v 0.17499800 0.25500339 -0.02669655
v 0.17499800 0.24501325 -0.02614565
v 0.18499492 0.30500734 -0.02701174
v 0.19499807 0.33500439 -0.02490406
v 0.20109937 0.36500141 -0.02189467
v 0.20219909 0.36500141 -0.01499882
v 0.19499807 0.34502110 -0.02512881
v 0.19499807 0.35501125 -0.02531793
v 0.20207483 0.35501125 0.00098277
v 0.20180765 0.34502110 0.00098277
v 0.17113964 0.49152571 0.00098277
v 0.18303157 0.47409606 -0.01499882
v 0.19051218 0.46099728 -0.02086139
v 0.17573115 0.47563711 -0.02404346
v 0.19204682 0.45499256 -0.02230853
v 0.18521239 0.46458417 -0.02316092
v 0.18499492 0.45499256 -0.02581675
v 0.18499492 0.44497582 -0.02692129
v 0.17499800 0.45499256 -0.02701174
v 0.18499492 0.43498567 -0.02701174
v 0.19499807 0.36500141 -0.02540289
v 0.19499807 0.38498175 -0.02541111
v 0.19499807 0.37499160 -0.02540837
v 0.20110556 0.38498175 -0.02190563
v 0.20221150 0.38498175 -0.01499882
v 0.20221150 0.37900358 0.00098277
v 0.20220530 0.36904001 0.00098277
v 0.20219909 0.36500141 0.00098277
v 0.18303779 0.47417578 0.00098277
v 0.18803936 0.46660346 0.00098277
v 0.18803315 0.46649718 -0.01499882
v 0.19076693 0.46150210 -0.01499882
v 0.19409716 0.45499256 -0.01499882
v 0.20027301 0.44069812 -0.02054346
v 0.19532736 0.44441786 -0.02305951
v 0.19499807 0.43498567 -0.02445731
v 0.19499807 0.42499551 -0.02471769
v 0.19499807 0.41497877 -0.02495888
v 0.19499807 0.40498862 -0.02518363
v 0.19499807 0.39499846 -0.02535355
v 0.20106208 0.39499846 -0.02184533
v 0.20212452 0.39499846 -0.01499882
v 0.20218045 0.38899374 0.00098277
v 0.20221150 0.38498175 0.00098277
v 0.19084148 0.46160838 0.00098277
v 0.19417793 0.45499256 0.00098277
v 0.19832830 0.44606519 -0.01499882
v 0.20040348 0.44107011 -0.01499882
v 0.20096888 0.43498567 -0.01499882
v 0.20048426 0.43498567 -0.02094909
v 0.20063338 0.42499551 -0.02120947
v 0.20078871 0.41497877 -0.02145066
v 0.20093782 0.40498862 -0.02167540
v 0.20188221 0.40498862 -0.01499882
v 0.20212452 0.39499846 0.00098277
v 0.19833452 0.44606519 0.00098277
v 0.19916707 0.44407246 0.00098277
v 0.20074521 0.43743008 0.00098277
v 0.20040348 0.44107011 0.00098277
v 0.20096888 0.43498567 0.00098277
v 0.20127332 0.42499551 -0.01499882
v 0.20188221 0.40498862 0.00098277
v 0.20127332 0.42499551 0.00098277
f 1 2 6
f 1 6 12
f 1 12 19
f 1 19 31
f 1 31 48
f 1 48 33
f 1 33 21
f 1 21 14
f 1 14 9
f 1 9 7
f 1 7 3
f 1 3 4
f 1 4 5
f 1 5 2
f 2 5 10
f 2 10 16
f 2 16 25
f 2 25 41
f 2 41 61
f 2 61 82
f 2 82 81
f 2 81 100
f 2 100 99
f 2 99 98
f 2 98 116
f 2 116 115
f 2 115 127
f 2 127 134
f 2 134 135
f 2 135 132
f 2 132 130
f 2 130 131
f 2 131 129
f 2 129 128
f 2 128 118
f 2 118 117
f 2 117 102
f 2 102 101
f 2 101 83
f 2 83 63
f 2 63 62
f 2 62 47
f 2 47 30
f 2 30 18
f 2 18 11
f 2 11 6
f 3 7 4
f 4 8 13
f 4 13 20
f 4 20 32
f 4 32 49
f 4 49 34
f 4 34 22
f 4 22 15
f 4 15 10
f 4 10 5
f 4 7 9
f 4 9 8
f 6 11 17
f 6 17 12
f 8 9 14
f 8 14 13
f 10 15 24
f 10 24 16
f 11 18 26
f 11 26 17
f 12 17 19
f 13 14 21
f 13 21 20
f 15 22 23
f 15 23 24
f 16 24 40
f 16 40 25
f 17 26 27
f 17 27 28
f 17 28 29
f 17 29 19
f 18 30 26
f 19 29 31
f 20 21 33
f 20 33 32
f 22 34 35
f 22 35 23
f 23 36 37
f 23 37 38
f 23 38 39
f 23 39 40
f 23 40 24
f 23 35 36
f 25 40 41
f 26 30 42
f 26 42 27
f 27 42 43
f 27 43 44
f 27 44 28
f 28 44 45
f 28 45 29
f 29 45 46
f 29 46 31
f 30 47 42
f 31 46 48
f 32 33 48
f 32 48 71
f 32 71 49
f 34 49 50
f 34 50 36
f 34 36 51
f 34 51 35
f 35 51 36
f 36 52 38
f 36 38 37
f 36 50 52
f 38 53 54
f 38 54 55
f 38 55 56
f 38 56 57
f 38 57 39
f 38 52 53
f 39 57 58
f 39 58 59
f 39 59 60
f 39 60 40
f 40 60 41
f 41 60 61
f 42 47 62
f 42 62 43
f 43 62 63
f 43 63 64
f 43 64 65
f 43 65 44
f 44 66 45
f 44 65 67
f 44 67 66
f 45 66 68
f 45 68 69
f 45 69 70
f 45 70 71
f 45 71 46
f 46 71 48
f 49 72 73
f 49 73 74
f 49 74 50
f 49 71 75
f 49 75 72
f 50 74 52
f 52 75 53
f 52 74 73
f 52 73 72
f 52 72 75
f 53 75 76
f 53 76 54
f 54 77 78
f 54 78 58
f 54 58 55
f 54 76 79
f 54 79 80
f 54 80 77
f 55 58 56
f 56 58 57
f 58 81 82
f 58 82 59
f 58 78 100
f 58 100 81
f 59 82 61
f 59 61 60
f 63 83 64
f 64 83 84
f 64 84 65
f 65 84 85
f 65 85 67
f 66 86 68
f 66 67 86
f 67 85 87
f 67 87 88
f 67 88 86
f 68 86 89
f 68 89 69
f 69 89 90
f 69 90 70
f 70 90 91
f 70 91 71
f 71 91 92
f 71 92 75
f 75 93 80
f 75 80 79
f 75 79 76
f 75 92 94
f 75 94 95
f 75 95 93
f 77 80 93
f 77 93 96
f 77 96 97
f 77 97 78
f 78 97 98
f 78 98 99
f 78 99 100
f 83 101 84
f 84 102 103
f 84 103 85
f 84 101 102
f 85 103 104
f 85 104 105
f 85 105 106
f 85 106 87
f 86 88 89
f 87 89 88
f 87 106 107
f 87 107 89
f 89 107 108
f 89 108 90
f 90 108 109
f 90 109 110
f 90 110 111
f 90 111 112
f 90 112 92
f 90 92 91
f 92 112 94
f 93 95 96
f 94 112 96
f 94 96 95
f 96 112 113
f 96 113 97
f 97 113 114
f 97 114 115
f 97 115 116
f 97 116 98
f 102 117 103
f 103 117 104
f 104 117 105
f 105 117 118
f 105 118 119
f 105 119 106
f 106 120 121
f 106 121 122
f 106 122 108
f 106 108 107
f 106 119 120
f 108 122 123
f 108 123 124
f 108 124 125
f 108 125 109
f 109 125 113
f 109 113 110
f 110 113 111
f 111 113 112
f 113 125 114
f 114 125 124
f 114 124 122
f 114 122 126
f 114 126 134
f 114 134 127
f 114 127 115
f 118 128 119
f 119 128 129
f 119 129 120
f 120 130 121
f 120 129 131
f 120 131 130
f 121 130 132
f 121 132 135
f 121 135 133
f 121 133 122
f 122 124 123
f 122 133 126
f 126 133 135
f 126 135 134

