# https://github.com/mikedh/trimesh
v 0.04614380 0.02953738 -0.01499880
v 0.10281062 0.09299983 0.00098277
v 0.09528072 0.08500204 0.00098277
v 0.08840155 0.07770406 0.00098277
v 0.06079191 0.04917195 0.00088958
v 0.04614380 0.03245658 -0.00500038
v 0.04614380 0.03595561 -0.02303755
v 0.05099109 0.03887480 -0.02124233
v 0.09020767 0.07980348 -0.02029401
v 0.12909223 0.12105207 -0.01499880
v 0.12909223 0.12105207 0.00098277
v 0.12610418 0.11781297 0.00098277
v 0.12409886 0.11565356 0.00098277
v 0.12221307 0.11363412 0.00098277
v 0.11251848 0.10331698 0.00098277
v 0.07045993 0.05920918 0.00098277
v 0.06096456 0.04947187 0.00098277
v 0.05067237 0.03937466 0.00049491
v 0.04614380 0.03671540 0.00090603
v 0.04614380 0.04507308 -0.02578656
v 0.05500172 0.05501033 -0.02604146
v 0.06500176 0.06500757 -0.02587427
v 0.07500178 0.07500480 -0.02568515
v 0.08500181 0.08500204 -0.02547959
v 0.12563936 0.12443113 -0.02398312
v 0.12273099 0.11709317 -0.02222079
v 0.08039356 0.06958631 -0.02056809
v 0.13201389 0.12737033 -0.02207827
v 0.14103118 0.13852724 -0.02140129
v 0.13303646 0.12605068 -0.01499880
v 0.13303646 0.12605068 0.00098277
v 0.05189415 0.04139410 0.00098277
v 0.04614380 0.03689535 0.00098277
v 0.04614380 0.05501033 -0.02690206
v 0.07500178 0.08500204 -0.02701170
v 0.08500181 0.09501927 -0.02701170
v 0.09500183 0.10501651 -0.02700073
v 0.10500186 0.11501374 -0.02696510
v 0.11498861 0.12501098 -0.02692673
v 0.12498864 0.13498822 -0.02681984
v 0.13498867 0.14498545 -0.02631279
v 0.13521443 0.13510819 -0.02348978
v 0.14461684 0.14596517 -0.02228657
v 0.15144289 0.15498269 -0.02164248
v 0.15003519 0.14992408 -0.02006927
v 0.13802984 0.13278882 -0.01499880
v 0.13802984 0.13278882 0.00098277
v 0.04614380 0.11635337 0.00098277
v 0.04614380 0.06500757 -0.02701170
v 0.05500172 0.06500757 -0.02701170
v 0.16498874 0.23380089 -0.02701444
v 0.13498867 0.15498269 -0.02701170
v 0.14498869 0.16499992 -0.02684999
v 0.14498869 0.15498269 -0.02515070
v 0.15385990 0.16499992 -0.02334451
v 0.16129684 0.17679664 -0.02176856
v 0.15772445 0.16499992 -0.01499880
v 0.15289044 0.15498269 -0.01499880
v 0.15004846 0.14990409 -0.01499880
v 0.14654247 0.14490548 -0.01499880
v 0.14154911 0.13778745 -0.01499880
v 0.14012812 0.13576800 0.00098277
v 0.04614380 0.11635337 -0.00614603
v 0.13878682 0.23380089 0.00098277
v 0.04614380 0.09501927 -0.02701170
v 0.15498872 0.23380089 -0.02701444
v 0.17509502 0.23380089 -0.02496981
v 0.16498874 0.22498333 -0.02701170
v 0.15498872 0.19499162 -0.02701170
v 0.15498872 0.18499438 -0.02658687
v 0.16498874 0.21498609 -0.02688014
v 0.16498874 0.20498885 -0.02593457
v 0.16293031 0.18499438 -0.02307866
v 0.17196088 0.20498885 -0.02242635
v 0.17063285 0.19839068 -0.02107240
v 0.15988913 0.17019847 -0.01499880
v 0.15861422 0.16707934 0.00098277
v 0.15773773 0.16499992 -0.00500038
v 0.15484263 0.15900157 0.00098277
v 0.15289044 0.15498269 0.00098277
v 0.15119056 0.15194353 0.00098277
v 0.15004846 0.14990409 0.00098277
v 0.14654247 0.14490548 0.00098277
v 0.14154911 0.13778745 0.00098277
v 0.04614380 0.11633337 -0.01499880
v 0.13878682 0.23380089 -0.01499880
v 0.18181482 0.23380089 0.00098277
v 0.04614380 0.10501651 -0.02681984
v 0.14498869 0.23380089 -0.02452580
v 0.18089849 0.23380089 -0.02153011
v 0.17379355 0.21498609 -0.02337466
v 0.18038055 0.22776255 -0.02073254
v 0.17763154 0.21498609 -0.01499880
v 0.17392635 0.20498885 -0.01499880
v 0.16194756 0.17519709 -0.01499880
v 0.15990241 0.17019847 -0.00500038
v 0.15773773 0.16499992 0.00098277
v 0.15990241 0.17019847 0.00098277
v 0.04614380 0.11315425 -0.02331163
v 0.13938442 0.23380089 -0.02101758
v 0.18181482 0.23380089 -0.01499880
v 0.18022120 0.22462343 0.00098277
v 0.18056647 0.22664286 -0.01499880
v 0.17966342 0.22164425 -0.01499880
v 0.17768466 0.21498609 -0.00500038
v 0.17544030 0.20900774 0.00098277
v 0.17392635 0.20498885 0.00098277
v 0.16712686 0.18803355 0.00098277
v 0.16194756 0.17519709 0.00098277
v 0.17970327 0.22164425 -0.00500038
v 0.17970327 0.22164425 0.00098277
v 0.17768466 0.21498609 0.00098277
f 1 2 3
f 1 3 4
f 1 4 5
f 1 5 6
f 1 6 19
f 1 19 33
f 1 33 48
f 1 48 63
f 1 63 85
f 1 85 99
f 1 99 88
f 1 88 65
f 1 65 49
f 1 49 34
f 1 34 20
f 1 20 7
f 1 7 8
f 1 8 9
f 1 9 10
f 1 10 11
f 1 11 12
f 1 12 13
f 1 13 14
f 1 14 15
f 1 15 2
f 2 15 14
f 2 14 13
f 2 13 12
f 2 12 11
f 2 11 31
f 2 31 47
f 2 47 62
f 2 62 84
f 2 84 83
f 2 83 82
f 2 82 81
f 2 81 80
f 2 80 79
f 2 79 97
f 2 97 77
f 2 77 98
f 2 98 109
f 2 109 108
f 2 108 107
f 2 107 106
f 2 106 112
f 2 112 111
f 2 111 102
f 2 102 87
f 2 87 64
f 2 64 48
f 2 48 33
f 2 33 32
f 2 32 17
f 2 17 16
f 2 16 4
f 2 4 3
f 4 16 5
f 5 16 17
f 5 17 18
f 5 18 6
f 6 18 19
f 7 20 21
f 7 21 22
f 7 22 23
f 7 23 24
f 7 24 25
f 7 25 26
f 7 26 8
f 8 26 27
f 8 27 9
f 9 27 26
f 9 26 28
f 9 28 10
f 10 28 29
f 10 29 30
f 10 30 31
f 10 31 11
f 17 32 18
f 18 32 19
f 19 32 33
f 20 34 21
f 21 34 35
f 21 35 36
f 21 36 37
f 21 37 38
f 21 38 39
f 21 39 40
f 21 40 22
f 22 40 23
f 23 40 24
f 24 40 25
f 25 40 41
f 25 41 42
f 25 42 28
f 25 28 26
f 28 42 29
f 29 43 44
f 29 44 45
f 29 45 30
f 29 42 43
f 30 46 47
f 30 47 31
f 30 45 46
f 34 49 50
f 34 50 35
f 35 50 51
f 35 51 36
f 36 51 52
f 36 52 37
f 37 52 38
f 38 52 39
f 39 52 40
f 40 52 53
f 40 53 41
f 41 53 54
f 41 54 42
f 42 54 43
f 43 54 44
f 44 54 55
f 44 55 56
f 44 56 45
f 45 56 57
f 45 57 58
f 45 58 59
f 45 59 60
f 45 60 61
f 45 61 46
f 46 62 47
f 46 61 62
f 48 64 86
f 48 86 63
f 49 65 66
f 49 66 51
f 49 51 50
f 51 66 89
f 51 89 100
f 51 100 86
f 51 86 64
f 51 64 87
f 51 87 101
f 51 101 90
f 51 90 67
f 51 67 68
f 51 68 69
f 51 69 52
f 52 69 53
f 53 70 54
f 53 69 71
f 53 71 70
f 54 70 55
f 55 70 72
f 55 72 73
f 55 73 56
f 56 73 74
f 56 74 75
f 56 75 57
f 57 75 76
f 57 76 77
f 57 77 78
f 57 78 58
f 58 79 80
f 58 80 81
f 58 81 59
f 58 78 79
f 59 81 82
f 59 82 83
f 59 83 60
f 60 83 84
f 60 84 61
f 61 84 62
f 63 86 85
f 65 88 66
f 66 88 89
f 67 90 91
f 67 91 72
f 67 72 71
f 67 71 68
f 68 71 69
f 70 71 72
f 72 91 74
f 72 74 73
f 74 91 92
f 74 92 75
f 75 92 93
f 75 93 94
f 75 94 95
f 75 95 76
f 76 95 96
f 76 96 77
f 77 97 78
f 77 96 98
f 78 97 79
f 85 86 100
f 85 100 99
f 87 102 101
f 88 99 89
f 89 99 100
f 90 101 92
f 90 92 91
f 92 101 103
f 92 103 104
f 92 104 93
f 93 105 94
f 93 104 105
f 94 105 106
f 94 106 107
f 94 107 108
f 94 108 95
f 95 109 98
f 95 98 96
f 95 108 109
f 101 102 110
f 101 110 103
f 102 111 110
f 103 110 104
f 104 110 105
f 105 110 111
f 105 111 112
f 105 112 106

