# https://github.com/mikedh/trimesh
v 0.06414202 0.05412149 0.00098551
v 0.07045210 0.05921068 0.00098551
v 0.07059220 0.05938073 0.00118424
v 0.06414202 0.05503245 0.00276647
v 0.06414202 0.12211497 0.00098551
v 0.08839043 0.07770909 0.00098551
v 0.09026776 0.07972533 0.00500094
v 0.09016689 0.07983464 0.01017565
v 0.07910464 0.07036074 0.00882528
v 0.07243591 0.06884249 0.01045082
v 0.06414202 0.06201641 0.00789531
v 0.06414202 0.12211497 0.00500094
v 0.12138665 0.17820534 0.00098551
v 0.10280946 0.09300093 0.00098551
v 0.09999066 0.09001301 0.00500094
v 0.12138665 0.11284755 0.00928389
v 0.12138665 0.11323623 0.01499875
v 0.12138665 0.11513101 0.01951865
v 0.12138665 0.11679501 0.02196715
v 0.11222975 0.10826850 0.02085883
v 0.06500503 0.06767646 0.01084319
v 0.06414202 0.06715418 0.01072344
v 0.09886426 0.10022783 0.01989574
v 0.06414202 0.12204210 0.01234133
v 0.12138665 0.17816891 0.01499875
v 0.12138665 0.17820534 0.00500094
v 0.12138665 0.11275038 0.00098551
v 0.12138665 0.11275038 0.00500094
v 0.10969675 0.10032500 0.00500094
v 0.11533435 0.11439010 0.02280285
v 0.12138665 0.12029307 0.02334809
v 0.10499501 0.10636157 0.02145758
v 0.06500503 0.07500052 0.01342927
v 0.06414202 0.07500052 0.01349041
v 0.09220114 0.09957194 0.02014798
v 0.10499501 0.11500955 0.02464240
v 0.09531695 0.10413885 0.02152637
v 0.06414202 0.12199351 0.01499875
v 0.11823161 0.17204730 0.02187543
v 0.12138665 0.17363843 0.02289457
v 0.06414202 0.12088823 0.01887659
v 0.11499811 0.12499359 0.02636731
v 0.12138665 0.12464134 0.02477489
v 0.06414202 0.10421173 0.02369715
v 0.09499752 0.11500955 0.02521822
v 0.06414202 0.10500122 0.02397232
v 0.06705049 0.12187205 0.02196715
v 0.12138665 0.17182867 0.02376849
v 0.06414202 0.11581118 0.02344236
v 0.10499501 0.12499359 0.02669343
v 0.08500002 0.11500955 0.02564117
v 0.12138665 0.13138239 0.02665521
v 0.07500253 0.11500955 0.02570741
v 0.06414202 0.11571401 0.02345765
v 0.12138665 0.16138309 0.02658387
v 0.08500002 0.12499359 0.02638005
v 0.12138665 0.13498977 0.02688962
v 0.09499752 0.12499359 0.02692784
v 0.12138665 0.15137476 0.02701446
v 0.10499501 0.13498977 0.02701446
v 0.11499811 0.14499809 0.02701446
v 0.11499811 0.13498977 0.02701446
v 0.12138665 0.14137858 0.02701446
f 1 2 3
f 1 3 4
f 1 4 11
f 1 11 22
f 1 22 34
f 1 34 44
f 1 44 46
f 1 46 54
f 1 54 49
f 1 49 41
f 1 41 38
f 1 38 24
f 1 24 12
f 1 12 5
f 1 5 13
f 1 13 27
f 1 27 14
f 1 14 6
f 1 6 2
f 2 6 7
f 2 7 8
f 2 8 3
f 3 8 4
f 4 8 9
f 4 9 10
f 4 10 11
f 5 12 26
f 5 26 13
f 6 14 15
f 6 15 7
f 7 15 8
f 8 15 16
f 8 16 17
f 8 17 18
f 8 18 19
f 8 19 20
f 8 20 9
f 9 20 10
f 10 21 22
f 10 22 11
f 10 20 23
f 10 23 21
f 12 24 25
f 12 25 26
f 13 26 25
f 13 25 40
f 13 40 48
f 13 48 55
f 13 55 59
f 13 59 63
f 13 63 57
f 13 57 52
f 13 52 43
f 13 43 31
f 13 31 19
f 13 19 18
f 13 18 17
f 13 17 16
f 13 16 28
f 13 28 27
f 14 27 28
f 14 28 29
f 14 29 15
f 15 29 16
f 16 29 28
f 19 30 20
f 19 31 30
f 20 30 32
f 20 32 23
f 21 23 22
f 22 33 34
f 22 23 35
f 22 35 33
f 23 32 36
f 23 36 37
f 23 37 35
f 24 38 25
f 25 39 40
f 25 38 41
f 25 41 39
f 30 31 42
f 30 42 36
f 30 36 32
f 31 43 42
f 33 35 34
f 34 35 44
f 35 37 44
f 36 45 46
f 36 46 37
f 36 42 45
f 37 46 44
f 39 41 47
f 39 47 40
f 40 47 48
f 41 49 47
f 42 50 51
f 42 51 45
f 42 43 52
f 42 52 50
f 45 51 46
f 46 51 53
f 46 53 54
f 47 49 48
f 48 49 55
f 49 54 56
f 49 56 55
f 50 52 57
f 50 57 58
f 50 58 51
f 51 58 53
f 53 58 56
f 53 56 54
f 55 56 60
f 55 60 61
f 55 61 59
f 56 58 60
f 57 62 58
f 57 63 62
f 58 62 60
f 59 61 60
f 59 60 62
f 59 62 63

