# https://github.com/mikedh/trimesh
v -0.20166504 0.26496232 0.00098403
v -0.20166504 0.26496232 0.00499810
v -0.20166504 0.26498544 -0.01499606
v -0.20073493 0.25498673 -0.01499606
v -0.20061360 0.27461386 0.01517851
v -0.20139930 0.27496102 0.00499810
v -0.20140508 0.27498418 0.00097927
v -0.20166504 0.26498544 0.00097927
v -0.20073493 0.25498673 0.00097927
v -0.20072915 0.25496358 0.00499810
v -0.20003588 0.24959391 0.01035972
v -0.20035940 0.25496358 0.01245961
v -0.20071760 0.26480028 0.01574991
v -0.20140508 0.27498418 -0.01499606
v -0.20069449 0.27498418 -0.02127668
v -0.20082736 0.26498544 -0.02149571
v -0.20036519 0.25498673 -0.02069576
v -0.20004167 0.24959391 -0.02009103
v -0.20006478 0.24940875 -0.01499606
v -0.20009366 0.27104950 0.02009253
v -0.20026697 0.28234434 0.01196439
v -0.20040563 0.28352475 0.00499810
v -0.19982791 0.28854725 0.00097927
v -0.19832008 0.23496616 0.00499810
v -0.19945817 0.24440940 0.00499810
v -0.19230027 0.18501887 0.00097927
v -0.19350192 0.19501759 0.00499810
v -0.19229449 0.18501887 0.00499810
v -0.19141059 0.18501887 0.01499757
v -0.19001830 0.17988065 0.02002110
v -0.19964881 0.26135164 0.01958780
v -0.20009366 0.26801747 0.02009253
v -0.19982791 0.28854725 -0.00499660
v -0.20040563 0.28354788 -0.01499606
v -0.20026697 0.28234434 -0.02054338
v -0.19421251 0.29498160 -0.02344799
v -0.19499820 0.27498418 -0.02478601
v -0.19499820 0.26498544 -0.02500505
v -0.19295309 0.21503817 -0.02330514
v -0.19235227 0.20503944 -0.02301468
v -0.19175144 0.19504073 -0.02256708
v -0.19114484 0.18501887 -0.02191474
v -0.19056135 0.17728838 -0.02101955
v -0.19230027 0.18501887 -0.01499606
v -0.19578968 0.26480028 0.02070678
v -0.19547193 0.27461386 0.02070678
v -0.19213851 0.29498160 0.02081154
v -0.19111595 0.30282781 0.02054013
v -0.19912887 0.27771530 0.01863070
v -0.19638473 0.29498160 0.01499757
v -0.19848183 0.29498160 0.00499810
v -0.19982213 0.28852409 0.00499810
v -0.19848761 0.29498160 0.00097927
v -0.19084443 0.17594597 0.00499810
v -0.19043425 0.17789015 0.01499757
v -0.19025517 0.18501887 0.02023538
v -0.18864910 0.17289080 0.01499757
v -0.18171073 0.16816919 0.02054013
v -0.18502106 0.17594597 0.02066393
v -0.19067690 0.19501759 0.02056869
v -0.19101197 0.20501630 0.02075440
v -0.19848761 0.29498160 -0.00499660
v -0.19979325 0.28854725 -0.01499606
v -0.19845295 0.29498160 -0.01499606
v -0.19217317 0.30498031 -0.02227186
v -0.18499216 0.30498031 -0.02577643
v -0.18499216 0.29498160 -0.02695256
v -0.18499216 0.28498289 -0.02700970
v -0.18499216 0.23498930 -0.02700970
v -0.18499216 0.22503687 -0.02696685
v -0.18499216 0.21503817 -0.02680971
v -0.18499216 0.20503944 -0.02651925
v -0.18499216 0.19504073 -0.02607642
v -0.18499216 0.18501887 -0.02542407
v -0.18588762 0.17439523 -0.02340990
v -0.19084443 0.17594597 -0.01499606
v -0.18315503 0.16673419 -0.02231948
v -0.18973522 0.17094660 -0.01499606
v -0.18499216 0.20501630 0.02157340
v -0.18499216 0.21501502 0.02163054
v -0.18499216 0.29498160 0.02163054
v -0.18570276 0.30567467 0.02097344
v -0.18266974 0.31497902 0.02073059
v -0.18071130 0.32074219 0.02043061
v -0.18950990 0.30949363 0.01937828
v -0.19241004 0.30567467 0.01562134
v -0.19601499 0.30097622 0.00097927
v -0.19435117 0.30498031 0.00499810
v -0.19018005 0.17293710 0.00097927
v -0.18972944 0.17094660 0.00499810
v -0.18499216 0.18501887 0.02105438
v -0.18365186 0.16615555 0.01499757
v -0.14264560 0.11356971 0.01499757
v -0.14264560 0.11502786 0.01634511
v -0.14264560 0.12018923 0.02056393
v -0.17511323 0.16490571 0.02097344
v -0.17499191 0.17502016 0.02163054
v -0.18499216 0.19501759 0.02138294
v -0.19435117 0.30498031 -0.01499606
v -0.19046314 0.31076661 -0.02076718
v -0.18498062 0.31444669 -0.02295754
v -0.17499769 0.31497902 -0.02662401
v -0.17499769 0.30498031 -0.02700970
v -0.16500320 0.31497902 -0.02701446
v -0.17499769 0.18501887 -0.02700970
v -0.17499769 0.17502016 -0.02700018
v -0.17597403 0.16404934 -0.02419557
v -0.14688025 0.12699392 -0.02315277
v -0.14688025 0.12625328 -0.02268136
v -0.15068163 0.12877610 -0.02097193
v -0.17009288 0.14993078 -0.02012912
v -0.14688025 0.11963375 -0.01499606
v -0.14264560 0.11063027 0.00098403
v -0.18973522 0.17094660 0.00097927
v -0.16500898 0.31497902 0.02163054
v -0.17499191 0.31497902 0.02154959
v -0.17442575 0.32442227 0.02082583
v -0.18712394 0.31444669 0.01562134
v -0.17072259 0.33064830 0.02039728
v -0.17680593 0.32687566 0.01499757
v -0.18176851 0.32187629 0.01499757
v -0.19046314 0.31076661 0.01270721
v -0.19216162 0.30868354 0.00098403
v -0.19069421 0.31116009 0.00499810
v -0.14264560 0.11063027 0.00499810
v -0.14264560 0.12583666 0.02085439
v -0.14500846 0.13502529 0.02122104
v -0.16500898 0.16502145 0.02163054
v -0.19216162 0.30868354 0.00097927
v -0.19069421 0.31116009 -0.01499606
v -0.18746479 0.31615943 -0.01499606
v -0.18246755 0.32261693 -0.01499606
v -0.18164141 0.32173741 -0.02181474
v -0.17501502 0.32502404 -0.02353846
v -0.16500320 0.32497776 -0.02656687
v -0.15500872 0.32497776 -0.02701446
v -0.15500872 0.30498031 -0.02701446
v -0.16500320 0.16502145 -0.02700970
v -0.14688025 0.13690005 -0.02589548
v -0.16500320 0.15502273 -0.02535741
v -0.14688025 0.12092988 -0.01700072
v -0.14688025 0.14689878 -0.02700970
v -0.14264560 0.34708139 0.00098403
v -0.15500872 0.32497776 0.02163054
v -0.14500846 0.33497646 0.02162102
v -0.16500898 0.32497776 0.02152102
v -0.16401531 0.33437470 0.02056869
v -0.16002329 0.33997583 0.02000682
v -0.17181447 0.33171299 0.01499757
v -0.17753385 0.32759315 0.00499810
v -0.18246755 0.32259381 0.00499810
v -0.18746479 0.31615943 0.00499810
v -0.18940014 0.31317371 0.00098403
v -0.14264560 0.13502529 0.02131628
v -0.14500846 0.14502400 0.02163054
v -0.18246755 0.32261693 0.00097927
v -0.18048598 0.32463056 0.00097927
v -0.17753963 0.32761630 -0.01499606
v -0.17169893 0.33162042 -0.02174332
v -0.16461612 0.33495331 -0.02303849
v -0.15500872 0.33497646 -0.02581453
v -0.14688025 0.33497646 -0.02663353
v -0.14688025 0.32497776 -0.02700970
v -0.14688025 0.34296155 -0.02312896
v -0.14688025 0.34599358 -0.01499606
v -0.14500846 0.34659535 0.00098403
v -0.14264560 0.34708139 0.00499810
v -0.14264560 0.32733855 0.02163054
v -0.14264560 0.33497646 0.02162578
v -0.14264560 0.33661976 0.02143055
v -0.14500846 0.34145713 0.02080678
v -0.15500872 0.33497646 0.02122104
v -0.15500872 0.34057760 0.02040680
v -0.14500846 0.34476689 0.01499757
v -0.15500872 0.34233662 0.01499757
v -0.16078587 0.34041560 0.01499757
v -0.16578312 0.33671236 0.01499757
v -0.17253661 0.33240736 0.00499810
v -0.16653414 0.33740669 0.00499810
v -0.17454706 0.33050945 0.00097927
v -0.17753963 0.32761630 0.00097927
v -0.14264560 0.14502400 0.02163054
v -0.17254239 0.33243048 -0.01499606
v -0.16653414 0.33742985 -0.01499606
v -0.16102274 0.34055445 -0.02098622
v -0.15500872 0.34173486 -0.02230519
v -0.15500872 0.34351704 -0.01499606
v -0.14688025 0.34603986 -0.00499660
v -0.14500846 0.34659535 0.00499810
v -0.14264560 0.34564638 0.01263579
v -0.14264560 0.34157285 0.02080678
v -0.14264560 0.34256810 0.01943542
v -0.14264560 0.34511405 0.01499757
v -0.15500872 0.34349388 0.00499810
v -0.16153690 0.34083220 0.00499810
v -0.17254239 0.33243048 0.00097927
v -0.16653414 0.33742985 0.00097927
v -0.16153690 0.34083220 -0.01499606
v -0.15500872 0.34351704 0.00097927
v -0.15891407 0.34192002 0.00097927
v -0.14688025 0.34603986 0.00097927
f 1 2 8
f 1 8 3
f 1 3 4
f 1 4 9
f 1 9 2
f 2 5 6
f 2 6 7
f 2 7 8
f 2 9 10
f 2 10 11
f 2 11 12
f 2 12 13
f 2 13 5
f 3 8 7
f 3 7 14
f 3 14 15
f 3 15 16
f 3 16 17
f 3 17 18
f 3 18 4
f 4 18 19
f 4 19 9
f 5 20 21
f 5 21 6
f 5 13 20
f 6 21 22
f 6 22 7
f 7 22 23
f 7 23 33
f 7 33 14
f 9 24 25
f 9 25 10
f 9 19 26
f 9 26 24
f 10 25 11
f 11 25 24
f 11 24 27
f 11 27 28
f 11 28 29
f 11 29 30
f 11 30 12
f 12 31 13
f 12 30 31
f 13 31 32
f 13 32 20
f 14 33 34
f 14 34 35
f 14 35 15
f 15 35 36
f 15 36 37
f 15 37 16
f 16 37 38
f 16 38 39
f 16 39 40
f 16 40 41
f 16 41 17
f 17 41 42
f 17 42 18
f 18 42 43
f 18 43 44
f 18 44 19
f 19 44 26
f 20 32 45
f 20 45 46
f 20 46 47
f 20 47 48
f 20 48 49
f 20 49 21
f 21 49 50
f 21 50 51
f 21 51 52
f 21 52 22
f 22 52 23
f 23 52 51
f 23 51 53
f 23 53 62
f 23 62 33
f 24 26 27
f 26 28 27
f 26 44 76
f 26 76 54
f 26 54 28
f 28 54 55
f 28 55 29
f 29 55 30
f 30 56 32
f 30 32 31
f 30 55 57
f 30 57 58
f 30 58 59
f 30 59 56
f 32 56 60
f 32 60 61
f 32 61 45
f 33 62 64
f 33 64 63
f 33 63 34
f 34 63 35
f 35 63 64
f 35 64 65
f 35 65 36
f 36 65 66
f 36 66 67
f 36 67 37
f 37 67 38
f 38 67 68
f 38 68 69
f 38 69 70
f 38 70 71
f 38 71 72
f 38 72 73
f 38 73 39
f 39 73 40
f 40 73 74
f 40 74 41
f 41 74 42
f 42 74 75
f 42 75 43
f 43 76 44
f 43 75 77
f 43 77 78
f 43 78 76
f 45 61 79
f 45 79 80
f 45 80 81
f 45 81 46
f 46 81 47
f 47 81 48
f 48 50 49
f 48 81 82
f 48 82 83
f 48 83 84
f 48 84 85
f 48 85 50
f 50 85 86
f 50 86 51
f 51 87 53
f 51 86 88
f 51 88 87
f 53 87 62
f 54 76 89
f 54 89 90
f 54 90 55
f 55 90 57
f 56 59 91
f 56 91 60
f 57 90 92
f 57 92 58
f 58 92 93
f 58 93 94
f 58 94 95
f 58 95 96
f 58 96 97
f 58 97 59
f 59 97 91
f 60 91 98
f 60 98 61
f 61 98 79
f 62 87 99
f 62 99 64
f 64 99 100
f 64 100 65
f 65 100 101
f 65 101 66
f 66 101 102
f 66 102 67
f 67 102 103
f 67 103 68
f 68 103 104
f 68 104 69
f 69 104 105
f 69 105 106
f 69 106 70
f 70 106 71
f 71 106 72
f 72 106 73
f 73 106 74
f 74 106 75
f 75 106 107
f 75 107 77
f 76 78 89
f 77 107 108
f 77 108 109
f 77 109 110
f 77 110 111
f 77 111 78
f 78 111 112
f 78 112 113
f 78 113 125
f 78 125 114
f 78 114 89
f 79 98 97
f 79 97 80
f 80 97 128
f 80 128 155
f 80 155 182
f 80 182 168
f 80 168 144
f 80 144 115
f 80 115 81
f 81 115 116
f 81 116 82
f 82 116 83
f 83 116 117
f 83 117 84
f 84 118 85
f 84 117 119
f 84 119 120
f 84 120 121
f 84 121 118
f 85 122 86
f 85 118 122
f 86 122 88
f 87 88 99
f 88 123 129
f 88 129 99
f 88 122 124
f 88 124 123
f 89 114 90
f 90 114 125
f 90 125 93
f 90 93 92
f 91 97 98
f 93 125 113
f 93 113 143
f 93 143 167
f 93 167 190
f 93 190 193
f 93 193 192
f 93 192 191
f 93 191 170
f 93 170 169
f 93 169 168
f 93 168 182
f 93 182 154
f 93 154 126
f 93 126 95
f 93 95 94
f 95 126 127
f 95 127 97
f 95 97 96
f 97 127 128
f 99 129 130
f 99 130 100
f 100 130 131
f 100 131 132
f 100 132 133
f 100 133 101
f 101 133 134
f 101 134 102
f 102 104 103
f 102 134 135
f 102 135 136
f 102 136 104
f 104 136 137
f 104 137 138
f 104 138 105
f 105 138 106
f 106 138 139
f 106 139 140
f 106 140 107
f 107 140 108
f 108 113 109
f 108 140 139
f 108 139 113
f 109 141 110
f 109 113 141
f 110 141 111
f 111 141 112
f 112 141 113
f 113 139 142
f 113 142 163
f 113 163 143
f 115 144 116
f 116 144 145
f 116 145 146
f 116 146 117
f 117 146 147
f 117 147 119
f 118 121 122
f 119 147 148
f 119 148 149
f 119 149 120
f 120 149 150
f 120 150 121
f 121 151 152
f 121 152 122
f 121 150 151
f 122 152 124
f 123 124 130
f 123 130 129
f 124 152 153
f 124 153 130
f 126 154 127
f 127 154 155
f 127 155 128
f 130 153 131
f 131 153 152
f 131 152 156
f 131 156 132
f 132 156 157
f 132 157 158
f 132 158 133
f 133 158 159
f 133 159 134
f 134 159 160
f 134 160 135
f 135 160 161
f 135 161 162
f 135 162 136
f 136 163 142
f 136 142 137
f 136 162 163
f 137 142 138
f 138 142 139
f 143 163 162
f 143 162 164
f 143 164 165
f 143 165 166
f 143 166 189
f 143 189 167
f 144 168 169
f 144 169 145
f 145 169 170
f 145 170 171
f 145 171 172
f 145 172 146
f 146 172 147
f 147 172 173
f 147 173 148
f 148 173 174
f 148 174 175
f 148 175 176
f 148 176 177
f 148 177 149
f 149 178 150
f 149 177 179
f 149 179 178
f 150 178 180
f 150 180 181
f 150 181 151
f 151 181 157
f 151 157 156
f 151 156 152
f 154 182 155
f 157 181 158
f 158 181 180
f 158 180 183
f 158 183 159
f 159 183 184
f 159 184 185
f 159 185 160
f 160 185 186
f 160 186 161
f 161 186 164
f 161 164 162
f 164 186 165
f 165 187 188
f 165 188 166
f 165 186 185
f 165 185 187
f 166 188 201
f 166 201 189
f 167 189 174
f 167 174 190
f 170 191 171
f 171 191 192
f 171 192 173
f 171 173 172
f 173 192 193
f 173 193 174
f 174 193 190
f 174 189 175
f 175 189 194
f 175 194 176
f 176 194 195
f 176 195 179
f 176 179 177
f 178 196 180
f 178 179 196
f 179 197 196
f 179 195 197
f 180 196 183
f 183 196 197
f 183 197 184
f 184 197 195
f 184 195 198
f 184 198 185
f 185 198 187
f 187 199 201
f 187 201 188
f 187 198 200
f 187 200 199
f 189 201 194
f 194 201 199
f 194 199 195
f 195 199 200
f 195 200 198

