# https://github.com/mikedh/trimesh
v 0.09981813 0.45005193 0.00098551
v 0.14173332 0.44522908 0.00098551
v 0.09981813 0.45005193 0.00510030
v 0.09981813 0.50171268 0.00098551
v 0.14173332 0.44522908 0.00500094
v 0.14173332 0.50516260 0.00098551
v 0.09981813 0.45023382 0.01499873
v 0.09981813 0.50171268 0.01499873
v 0.10500059 0.50322056 0.00098551
v 0.14173332 0.44576302 0.01452738
v 0.12499596 0.50478709 0.00098551
v 0.14173332 0.50516260 0.01499873
v 0.09981813 0.45028076 0.01509300
v 0.09981813 0.50125504 0.01969189
v 0.10500059 0.50322056 0.01499873
v 0.10901771 0.50376034 0.00098551
v 0.14173332 0.45479849 0.02377356
v 0.09981813 0.45502731 0.02374808
v 0.11901746 0.50465214 0.00098551
v 0.12499596 0.50478709 0.01499873
v 0.11500033 0.50228179 0.02299901
v 0.14173332 0.50434119 0.01765105
v 0.09981813 0.50088537 0.02139131
v 0.10500059 0.50160706 0.02231618
v 0.11500033 0.50455827 0.01499873
v 0.11500033 0.50455827 0.00098551
v 0.09981813 0.45884100 0.02526660
v 0.14173332 0.46500158 0.02671633
v 0.10500059 0.49499473 0.02582458
v 0.11500033 0.49499473 0.02650741
v 0.12499596 0.50239325 0.02306525
v 0.13499981 0.50250477 0.02312640
v 0.14173332 0.50258100 0.02316207
v 0.09981813 0.49851504 0.02291238
v 0.09981813 0.46500158 0.02686411
v 0.14173332 0.47500515 0.02701443
v 0.09981813 0.46981853 0.02701443
v 0.09981813 0.49531156 0.02461180
v 0.09981813 0.48981398 0.02644116
v 0.09981813 0.48499700 0.02701443
v 0.12499596 0.49499473 0.02657365
v 0.14173332 0.50012851 0.02430606
v 0.14173332 0.48499700 0.02701443
v 0.14173332 0.49173254 0.02679277
v 0.14173332 0.49499473 0.02667047
v 0.13499981 0.49499473 0.02663225
f 1 2 5
f 1 5 3
f 1 3 7
f 1 7 13
f 1 13 18
f 1 18 27
f 1 27 35
f 1 35 37
f 1 37 40
f 1 40 39
f 1 39 38
f 1 38 34
f 1 34 23
f 1 23 14
f 1 14 8
f 1 8 4
f 1 4 9
f 1 9 16
f 1 16 26
f 1 26 19
f 1 19 11
f 1 11 6
f 1 6 2
f 2 6 12
f 2 12 22
f 2 22 33
f 2 33 42
f 2 42 45
f 2 45 44
f 2 44 43
f 2 43 36
f 2 36 28
f 2 28 17
f 2 17 10
f 2 10 5
f 3 5 7
f 4 8 15
f 4 15 9
f 5 10 7
f 6 11 20
f 6 20 12
f 7 10 13
f 8 14 15
f 9 15 16
f 10 17 18
f 10 18 13
f 11 19 20
f 12 20 21
f 12 21 22
f 14 23 15
f 15 23 24
f 15 24 25
f 15 25 16
f 16 25 26
f 17 27 18
f 17 28 27
f 19 26 25
f 19 25 20
f 20 25 21
f 21 24 29
f 21 29 30
f 21 30 31
f 21 31 22
f 21 25 24
f 22 31 32
f 22 32 33
f 23 34 24
f 24 34 29
f 27 28 35
f 28 36 37
f 28 37 35
f 29 34 38
f 29 38 39
f 29 39 30
f 30 39 40
f 30 40 41
f 30 41 42
f 30 42 33
f 30 33 32
f 30 32 31
f 36 43 40
f 36 40 37
f 40 43 44
f 40 44 45
f 40 45 46
f 40 46 41
f 41 46 42
f 42 46 45

