# https://github.com/mikedh/trimesh
v 0.00664355 0.12494501 0.01440633
v 0.00652510 0.12494501 0.00098372
v 0.00663278 0.12494501 0.01521549
v 0.06413643 0.12210754 0.00499781
v 0.06413643 0.12210754 0.00098372
v 0.00665432 0.12457575 -0.01556978
v 0.00353146 0.12457575 -0.02201665
v 0.00308995 0.12457575 -0.02238686
v -0.00449105 0.12457575 -0.02573458
v -0.00498640 0.12457575 -0.02586151
v -0.01457034 0.12457575 -0.02699857
v -0.01499031 0.12457575 -0.02701443
v -0.04585276 0.12494501 0.00098372
v 0.00297150 0.12494501 0.02231816
v 0.06413643 0.12199093 0.01499866
v 0.06413643 0.12202980 0.01233847
v 0.06413643 0.05413444 0.00098372
v 0.04614231 0.09498632 -0.02700914
v 0.04614231 0.10499523 -0.02681875
v 0.04614231 0.11313839 -0.02330708
v -0.02499423 0.12457575 -0.02701443
v -0.00498640 0.10499523 -0.02701443
v -0.03457817 0.12457575 -0.02682404
v -0.03499813 0.12457575 -0.02680817
v -0.03769025 0.12457575 -0.02561823
v -0.03769025 0.11838578 -0.02550188
v -0.03769025 0.11499441 -0.02537495
v -0.03769025 0.10857122 -0.02512109
v -0.03769025 0.09887327 -0.02448645
v -0.03769025 0.08928221 -0.02358209
v -0.03769025 0.07934134 -0.02229695
v -0.03769025 0.07701888 -0.02188444
v -0.04555124 0.12097061 0.00098372
v -0.04587430 0.12494501 0.01499866
v -0.00499717 0.12494501 0.02582454
v 0.06413643 0.12088315 0.01887525
v 0.06413643 0.05503816 0.00276600
v 0.06093819 0.04947010 0.00098372
v 0.04614231 0.05472720 -0.02680289
v 0.04614231 0.05500901 -0.02689808
v 0.04614231 0.06500819 -0.02700914
v -0.02499423 0.09498632 -0.02701443
v -0.01499031 0.09498632 -0.02701443
v 0.04499009 0.05500901 -0.02700914
v -0.02499423 0.07500738 -0.02700914
v -0.03499813 0.11499441 -0.02662836
v -0.02499423 0.06500819 -0.02689808
v -0.03499813 0.10499523 -0.02623700
v -0.03499813 0.09498632 -0.02560236
v -0.03499813 0.08499685 -0.02469271
v -0.03352286 0.06500819 -0.02339170
v -0.03231679 0.05500901 -0.02289457
v -0.03229525 0.05472720 -0.02286812
v -0.03769025 0.06737924 -0.01499860
v -0.04507743 0.11498470 0.00098372
v -0.04507743 0.11498470 0.01499866
v -0.04194380 0.10498551 0.02273068
v -0.04254684 0.11498470 0.02312204
v -0.04292373 0.12494501 0.02330714
v -0.01499031 0.12494501 0.02700920
v 0.06413643 0.11579124 0.02343936
v 0.06413643 0.06201524 0.00789070
v 0.05187114 0.04140467 0.00098372
v 0.04382709 0.03442759 0.00098372
v 0.03498618 0.02718814 0.00098372
v 0.02564991 0.02567223 0.00098372
v 0.04499009 0.05472720 -0.02698799
v -0.01499031 0.05472720 -0.02700914
v 0.03499694 0.05472720 -0.02700914
v -0.02471424 0.05472720 -0.02641681
v -0.02499423 0.05500901 -0.02640095
v -0.02499423 0.05472720 -0.02637979
v -0.03211219 0.05472720 -0.02296861
v -0.02216212 0.02782949 0.00098372
v -0.02498346 0.03007420 0.00098372
v -0.02683563 0.03219259 0.00098372
v -0.03010925 0.03629333 0.00098372
v -0.03093842 0.03786754 0.00098372
v -0.03455663 0.05472720 -0.01518900
v -0.03711952 0.06500819 -0.01499860
v -0.03921938 0.07348175 0.00098372
v -0.03966089 0.07547382 0.00098372
v -0.04030699 0.07846677 0.00098372
v -0.04091003 0.08237316 0.00098372
v -0.04129770 0.08499685 0.00098372
v -0.04208379 0.09097304 0.00098372
v -0.04390366 0.10498551 0.00098372
v -0.03211219 0.04275539 0.00098372
v -0.04390366 0.10498551 0.01499866
v -0.04019931 0.07915670 0.02043540
v -0.04064082 0.08499685 0.02118639
v -0.04129770 0.09499604 0.02209604
v -0.03498737 0.08499685 0.02464517
v -0.03498737 0.09499604 0.02560242
v -0.03498737 0.10498551 0.02623706
v -0.03498737 0.11498470 0.02662842
v -0.03498737 0.12494501 0.02681352
v -0.02498346 0.12494501 0.02700920
v -0.01499031 0.09499604 0.02701449
v -0.00499717 0.10498551 0.02700920
v 0.00500674 0.10498551 0.02692458
v 0.01498912 0.10498551 0.02662842
v 0.05498323 0.10498551 0.02463459
v 0.06413643 0.11570378 0.02345522
v 0.06413643 0.06715573 0.01072014
v 0.06413643 0.07427858 0.01323225
v 0.06413643 0.10419840 0.02369321
v 0.06413643 0.10498551 0.02396822
v -0.01499031 0.08499685 0.02551251
v -0.02498346 0.08499685 0.02651207
v -0.02443426 0.07419112 0.02277827
v -0.02739559 0.06892430 0.02062050
v -0.03148761 0.06892430 0.02062050
v -0.01499031 0.02579855 0.00098372
v -0.03461047 0.05472720 -0.01499860
v -0.04030699 0.07860281 0.01499866
v -0.03921938 0.07348175 0.00499781
v -0.04030699 0.07846677 0.00499781
v -0.04129770 0.08499685 0.01499866
v -0.03490122 0.07549325 0.02200084
v -0.02498346 0.09499604 0.02700920
v -0.00499717 0.09499604 0.02676063
f 1 2 13
f 1 13 34
f 1 34 59
f 1 59 97
f 1 97 98
f 1 98 60
f 1 60 35
f 1 35 14
f 1 14 3
f 1 3 4
f 1 4 5
f 1 5 2
f 2 5 6
f 2 6 7
f 2 7 8
f 2 8 9
f 2 9 10
f 2 10 11
f 2 11 12
f 2 12 21
f 2 21 13
f 3 14 15
f 3 15 16
f 3 16 4
f 4 16 15
f 4 15 36
f 4 36 61
f 4 61 104
f 4 104 108
f 4 108 107
f 4 107 106
f 4 106 105
f 4 105 62
f 4 62 37
f 4 37 17
f 4 17 5
f 5 17 41
f 5 41 18
f 5 18 19
f 5 19 20
f 5 20 8
f 5 8 7
f 5 7 6
f 8 20 9
f 9 20 10
f 10 20 19
f 10 19 11
f 11 19 12
f 12 19 18
f 12 18 22
f 12 22 43
f 12 43 42
f 12 42 21
f 13 23 24
f 13 24 25
f 13 25 26
f 13 26 27
f 13 27 28
f 13 28 29
f 13 29 30
f 13 30 31
f 13 31 32
f 13 32 33
f 13 33 34
f 13 21 23
f 14 35 15
f 15 35 36
f 17 37 38
f 17 38 39
f 17 39 40
f 17 40 41
f 18 41 22
f 21 42 23
f 22 41 44
f 22 44 43
f 23 42 45
f 23 45 24
f 24 46 25
f 24 45 47
f 24 47 46
f 25 46 26
f 26 46 27
f 27 46 48
f 27 48 28
f 28 48 49
f 28 49 29
f 29 49 50
f 29 50 30
f 30 50 51
f 30 51 31
f 31 51 52
f 31 52 53
f 31 53 32
f 32 53 54
f 32 54 55
f 32 55 33
f 33 55 34
f 34 55 56
f 34 56 57
f 34 57 58
f 34 58 59
f 35 60 61
f 35 61 36
f 37 62 38
f 38 62 63
f 38 63 39
f 39 64 65
f 39 65 66
f 39 66 67
f 39 67 40
f 39 63 64
f 40 67 44
f 40 44 41
f 42 43 69
f 42 69 68
f 42 68 45
f 43 44 69
f 44 67 69
f 45 68 47
f 46 47 48
f 47 68 70
f 47 70 71
f 47 71 48
f 48 71 49
f 49 71 72
f 49 72 50
f 50 72 51
f 51 72 73
f 51 73 52
f 52 73 53
f 53 73 74
f 53 74 75
f 53 75 76
f 53 76 77
f 53 77 78
f 53 78 79
f 53 79 80
f 53 80 54
f 54 81 82
f 54 82 83
f 54 83 84
f 54 84 85
f 54 85 86
f 54 86 87
f 54 87 55
f 54 80 78
f 54 78 88
f 54 88 81
f 55 87 89
f 55 89 56
f 56 89 90
f 56 90 91
f 56 91 92
f 56 92 57
f 57 92 93
f 57 93 94
f 57 94 58
f 58 94 95
f 58 95 96
f 58 96 59
f 59 96 97
f 60 98 99
f 60 99 100
f 60 100 101
f 60 101 102
f 60 102 103
f 60 103 104
f 60 104 61
f 62 105 65
f 62 65 64
f 62 64 63
f 65 105 106
f 65 106 107
f 65 107 108
f 65 108 109
f 65 109 110
f 65 110 111
f 65 111 66
f 66 69 67
f 66 111 112
f 66 112 113
f 66 113 114
f 66 114 68
f 66 68 69
f 68 114 70
f 70 114 72
f 70 72 71
f 72 114 74
f 72 74 73
f 74 114 113
f 74 113 75
f 75 113 76
f 76 113 90
f 76 90 77
f 77 90 78
f 78 80 115
f 78 115 79
f 78 90 116
f 78 116 88
f 79 115 80
f 81 117 82
f 81 88 117
f 82 117 118
f 82 118 83
f 83 118 84
f 84 118 119
f 84 119 85
f 85 119 86
f 86 119 89
f 86 89 87
f 88 116 117
f 89 119 90
f 90 119 116
f 90 113 120
f 90 120 93
f 90 93 91
f 91 93 92
f 93 120 110
f 93 110 94
f 94 110 95
f 95 110 121
f 95 121 96
f 96 121 97
f 97 121 98
f 98 121 99
f 99 121 110
f 99 110 122
f 99 122 101
f 99 101 100
f 101 122 102
f 102 122 103
f 103 108 104
f 103 122 110
f 103 110 108
f 108 110 109
f 110 120 113
f 110 113 111
f 111 113 112
f 116 119 118
f 116 118 117

