# https://github.com/mikedh/trimesh
v -0.04747142 0.14195544 0.00098551
v -0.04587108 0.12502846 0.00098551
v -0.04747142 0.14195544 0.00500094
v -0.04747142 0.31019256 0.00098551
v -0.04587108 0.12502846 0.01499620
v -0.04585666 0.12499160 0.00098551
v -0.04747142 0.14556947 0.01505226
v -0.04747142 0.31019256 0.00500094
v 0.00831002 0.41300824 0.00098551
v -0.04747142 0.16474600 0.02272641
v -0.04585666 0.12499160 0.01499620
v -0.04292990 0.12499160 0.02330988
v 0.00653667 0.12499160 0.00098551
v -0.04747142 0.30613598 0.01499620
v 0.00887231 0.41201255 0.02155949
v 0.00831002 0.41300824 0.01499620
v 0.01892133 0.43192661 0.01499620
v 0.03234405 0.45578665 0.00098551
v -0.04747142 0.17237973 0.02345001
v -0.03498584 0.12499160 0.02681573
v -0.04292990 0.12502846 0.02331242
v -0.04747142 0.17503494 0.02366403
v 0.00665201 0.12499160 0.01440510
v 0.04063414 0.23846498 0.00098551
v -0.04747142 0.30499279 0.01579623
v 0.00727196 0.40496886 0.02292260
v 0.01752283 0.42499357 0.02257354
v 0.02813413 0.44498140 0.02203849
v 0.01929618 0.43126282 0.02111617
v 0.02969123 0.45051312 0.02053270
v 0.03234405 0.45578665 0.01499620
v 0.03734694 0.46305162 0.00098551
v -0.02499449 0.12499160 0.02701192
v -0.03498584 0.13502239 0.02690746
v -0.03498584 0.14505319 0.02698134
v -0.03498584 0.15501022 0.02701192
v -0.03498584 0.16504103 0.02701192
v -0.03498584 0.17503494 0.02693548
v -0.04747142 0.18502887 0.02358250
v 0.00663759 0.12499160 0.01521787
v 0.04063414 0.23846498 0.01499620
v 0.09981813 0.45003369 0.00098551
v -0.04747142 0.29186425 0.02076711
v 0.01501418 0.40496886 0.02643101
v 0.01446631 0.41522092 0.02372772
v 0.03499688 0.44498140 0.02554690
v 0.02470276 0.43472934 0.02338376
v 0.03493921 0.45431155 0.02292770
v 0.03822641 0.46201903 0.02201046
v 0.03734694 0.46305162 0.01499620
v 0.04223448 0.46806699 0.00098551
v -0.01498871 0.12499160 0.02701447
v -0.02499449 0.24502927 0.02701192
v -0.01498871 0.12502846 0.02701447
v -0.03498584 0.18502887 0.02681064
v -0.02499449 0.25502318 0.02691255
v -0.03498584 0.19502279 0.02666286
v -0.04747142 0.19502279 0.02342962
v 0.00297553 0.12499160 0.02232130
v 0.04041787 0.23898128 0.02079259
v 0.09981813 0.45003369 0.00500094
v 0.09981813 0.45021808 0.01499620
v 0.09981813 0.50169969 0.00098551
v -0.04747142 0.20505358 0.02321305
v -0.03498584 0.20505358 0.02636986
v -0.02499449 0.27501103 0.02661190
v -0.02499449 0.28500494 0.02612017
v -0.01498871 0.31498671 0.02654056
v -0.00498294 0.34496847 0.02679535
v 0.00500841 0.37498710 0.02672146
v 0.01501418 0.39497495 0.02701192
v 0.02500553 0.41499966 0.02699408
v 0.03499688 0.43498749 0.02689726
v 0.04500265 0.45497534 0.02676732
v 0.02500553 0.42499357 0.02607940
v 0.04490173 0.46519053 0.02365384
v 0.04816009 0.47149664 0.02174039
v 0.04223448 0.46806699 0.01499620
v 0.04723737 0.47227108 0.00098551
v -0.00498294 0.12499160 0.02582461
v -0.00498294 0.14505319 0.02674694
v 0.02500553 0.23503534 0.02696351
v 0.09981813 0.46980026 0.02701192
v -0.01498871 0.29499885 0.02701192
v -0.01498871 0.30499279 0.02695332
v 0.00500841 0.36495629 0.02701192
v -0.00498294 0.33497453 0.02701192
v 0.09981813 0.48495710 0.02701192
v 0.09498824 0.48495710 0.02701192
v 0.07497671 0.47496319 0.02701192
v 0.05497959 0.45497534 0.02701192
v 0.04500265 0.44498140 0.02701192
v -0.02499449 0.26498023 0.02676732
v 0.03537174 0.23540412 0.02324108
v 0.09981813 0.46496925 0.02686159
v 0.03498247 0.24502927 0.02507300
v 0.09981813 0.45501220 0.02374556
v 0.09981813 0.45881063 0.02526408
v 0.09736714 0.50096214 0.00098551
v 0.09981813 0.50169969 0.01499620
v 0.05497959 0.46496925 0.02656350
v 0.06498535 0.47496319 0.02621444
v 0.05529677 0.47488940 0.02321051
v 0.05882907 0.48093739 0.02127413
v 0.04723737 0.47227108 0.01499620
v 0.05823795 0.48141682 0.00098551
v 0.09981813 0.48978812 0.02643865
v 0.08498248 0.48495710 0.02668070
v 0.09736714 0.50096214 0.01499620
v 0.09534869 0.50022459 0.00098551
v 0.09823219 0.50063020 0.02110852
v 0.09981813 0.50122023 0.01968936
v 0.07497671 0.48495710 0.02520039
v 0.06580716 0.48455143 0.02238500
v 0.06968547 0.49015689 0.02036200
v 0.05823795 0.48141682 0.01499620
v 0.06453841 0.48643219 0.00098551
v 0.09981813 0.49528292 0.02460928
v 0.07497671 0.49244332 0.01499620
v 0.07497671 0.49244332 0.00098551
v 0.08498248 0.49307024 0.02317229
v 0.09981813 0.50085151 0.02138879
v 0.07497671 0.49122635 0.02169453
v 0.06954130 0.49026752 0.01499620
v 0.06453841 0.48643219 0.01499620
v 0.06954130 0.49026752 0.00098551
v 0.09981813 0.49849129 0.02290986
f 1 2 5
f 1 5 3
f 1 3 7
f 1 7 10
f 1 10 19
f 1 19 22
f 1 22 39
f 1 39 58
f 1 58 64
f 1 64 43
f 1 43 25
f 1 25 14
f 1 14 8
f 1 8 4
f 1 4 9
f 1 9 18
f 1 18 32
f 1 32 51
f 1 51 79
f 1 79 106
f 1 106 117
f 1 117 126
f 1 126 120
f 1 120 110
f 1 110 99
f 1 99 63
f 1 63 42
f 1 42 24
f 1 24 13
f 1 13 6
f 1 6 2
f 2 6 11
f 2 11 5
f 3 5 7
f 4 8 16
f 4 16 9
f 5 10 7
f 5 11 12
f 5 12 10
f 6 13 23
f 6 23 40
f 6 40 59
f 6 59 80
f 6 80 52
f 6 52 33
f 6 33 20
f 6 20 12
f 6 12 11
f 8 14 15
f 8 15 16
f 9 16 17
f 9 17 18
f 10 12 19
f 12 20 21
f 12 21 22
f 12 22 19
f 13 24 23
f 14 25 15
f 15 26 27
f 15 27 28
f 15 28 29
f 15 29 30
f 15 30 16
f 15 25 26
f 16 30 17
f 17 30 31
f 17 31 18
f 18 31 50
f 18 50 32
f 20 33 34
f 20 34 22
f 20 22 21
f 22 34 35
f 22 35 36
f 22 36 37
f 22 37 38
f 22 38 39
f 23 24 41
f 23 41 40
f 24 42 61
f 24 61 41
f 25 43 26
f 26 44 45
f 26 45 27
f 26 43 44
f 27 45 46
f 27 46 47
f 27 47 48
f 27 48 28
f 28 48 49
f 28 49 30
f 28 30 29
f 30 49 50
f 30 50 31
f 32 50 78
f 32 78 51
f 33 52 36
f 33 36 35
f 33 35 34
f 36 52 54
f 36 54 37
f 37 53 38
f 37 54 53
f 38 55 39
f 38 53 56
f 38 56 55
f 39 55 57
f 39 57 58
f 40 41 60
f 40 60 59
f 41 61 62
f 41 62 60
f 42 63 100
f 42 100 112
f 42 112 122
f 42 122 127
f 42 127 118
f 42 118 107
f 42 107 88
f 42 88 83
f 42 83 95
f 42 95 98
f 42 98 97
f 42 97 62
f 42 62 61
f 43 64 57
f 43 57 65
f 43 65 66
f 43 66 67
f 43 67 68
f 43 68 69
f 43 69 70
f 43 70 44
f 44 70 71
f 44 71 72
f 44 72 73
f 44 73 74
f 44 74 75
f 44 75 45
f 45 75 46
f 46 74 48
f 46 48 47
f 46 75 74
f 48 74 49
f 49 76 77
f 49 77 78
f 49 78 50
f 49 74 76
f 51 78 105
f 51 105 79
f 52 80 81
f 52 81 82
f 52 82 83
f 52 83 88
f 52 88 54
f 53 54 84
f 53 84 85
f 53 85 56
f 54 86 87
f 54 87 84
f 54 88 89
f 54 89 90
f 54 90 91
f 54 91 92
f 54 92 71
f 54 71 86
f 55 56 93
f 55 93 57
f 56 85 93
f 57 64 58
f 57 93 66
f 57 66 65
f 59 60 94
f 59 94 95
f 59 95 96
f 59 96 80
f 60 62 97
f 60 97 98
f 60 98 95
f 60 95 94
f 63 99 109
f 63 109 100
f 66 93 85
f 66 85 68
f 66 68 67
f 68 85 69
f 69 85 87
f 69 87 86
f 69 86 71
f 69 71 70
f 71 92 72
f 72 92 73
f 73 92 74
f 74 92 91
f 74 91 90
f 74 90 101
f 74 101 76
f 76 101 102
f 76 102 103
f 76 103 77
f 77 103 104
f 77 104 78
f 78 104 105
f 79 105 116
f 79 116 106
f 80 82 81
f 80 96 95
f 80 95 82
f 82 95 83
f 84 87 85
f 88 107 89
f 89 108 90
f 89 107 108
f 90 108 101
f 99 110 109
f 100 109 111
f 100 111 112
f 101 108 102
f 102 108 113
f 102 113 103
f 103 113 114
f 103 114 104
f 104 114 115
f 104 115 105
f 105 115 116
f 106 116 125
f 106 125 117
f 107 118 108
f 108 118 113
f 109 110 119
f 109 119 115
f 109 115 111
f 110 120 119
f 111 121 122
f 111 122 112
f 111 115 123
f 111 123 121
f 113 118 121
f 113 121 123
f 113 123 114
f 114 123 115
f 115 119 124
f 115 124 125
f 115 125 116
f 117 125 124
f 117 124 126
f 118 127 121
f 119 120 126
f 119 126 124
f 121 127 122

