# https://github.com/mikedh/trimesh
v 0.12138665 0.11274934 0.00098551
v 0.12410802 0.11564559 0.00098551
v 0.12138665 0.11274934 0.00500094
v 0.12138665 0.17821449 0.00098551
v 0.12410802 0.11564559 0.00500094
v 0.12611741 0.11781777 0.00098551
v 0.12138665 0.11284921 0.00928389
v 0.12904447 0.12106357 0.01499875
v 0.12138665 0.17821449 0.00518439
v 0.15330741 0.36781871 0.00098551
v 0.12910776 0.12106357 0.00500094
v 0.12910776 0.12106357 0.00098551
v 0.12404473 0.11582036 0.01499875
v 0.12138665 0.11324869 0.01499875
v 0.12265240 0.11731842 0.02179389
v 0.13304742 0.12605709 0.01499875
v 0.13202691 0.12738037 0.02207671
v 0.12138665 0.17818952 0.01499875
v 0.15330741 0.36781871 0.00500094
v 0.20220512 0.36781871 0.00098551
v 0.13146523 0.12403471 0.00098551
v 0.12138665 0.11514623 0.01951865
v 0.12559529 0.12443420 0.02372517
v 0.12138665 0.12031454 0.02334809
v 0.12138665 0.11681907 0.02196715
v 0.13504890 0.12875360 0.00098551
v 0.13804716 0.13279834 0.01499875
v 0.15004018 0.14995112 0.02006899
v 0.14103749 0.13854091 0.02140152
v 0.13304742 0.12605709 0.00098551
v 0.13522294 0.13512033 0.02349077
v 0.12138665 0.17364541 0.02289457
v 0.15346563 0.36781871 0.01499875
v 0.20219721 0.36499736 0.00098551
v 0.20220512 0.36781871 0.01499875
v 0.12138665 0.12465890 0.02477489
v 0.13500142 0.14500752 0.02631125
v 0.12500197 0.13502046 0.02681828
v 0.13804716 0.13279834 0.00098551
v 0.15006392 0.14992616 0.01499875
v 0.15144834 0.15501955 0.02164102
v 0.15289605 0.15501955 0.01499875
v 0.15773755 0.16500661 0.01499875
v 0.16130540 0.17681628 0.02176842
v 0.14462116 0.14598127 0.02228563
v 0.14500089 0.15501955 0.02514943
v 0.12138665 0.17184773 0.02376849
v 0.15432002 0.36781871 0.01728418
v 0.20207855 0.35498536 0.00098551
v 0.20219721 0.36499736 0.01499875
v 0.20141402 0.36781871 0.01995179
v 0.20109758 0.36499736 0.02189581
v 0.12138665 0.13140017 0.02665521
v 0.14500089 0.16500661 0.02685140
v 0.12138665 0.13502046 0.02688962
v 0.13500142 0.15501955 0.02701446
v 0.15006392 0.14992616 0.00098551
v 0.15120310 0.15197350 0.00098551
v 0.15386909 0.16500661 0.02334299
v 0.15289605 0.15501955 0.00098551
v 0.15775338 0.16500661 0.00500094
v 0.15990517 0.17022485 0.01499875
v 0.17064035 0.19841330 0.02107285
v 0.17196149 0.20500475 0.02242576
v 0.16292715 0.18500568 0.02308057
v 0.15500036 0.18500568 0.02658642
v 0.12138665 0.16141126 0.02658387
v 0.15681197 0.36781871 0.02324872
v 0.20207855 0.35498536 0.01499875
v 0.20180166 0.34499830 0.00098551
v 0.20103429 0.35498536 0.02181173
v 0.20109758 0.36781871 0.02189836
v 0.19499823 0.36499736 0.02540421
v 0.19499823 0.35498536 0.02532014
v 0.16499983 0.21501678 0.02688197
v 0.15500036 0.19501770 0.02701446
v 0.12138665 0.14138722 0.02701446
v 0.16499983 0.20500475 0.02593417
v 0.15775338 0.16500661 0.00098551
v 0.15992099 0.17022485 0.00500094
v 0.16194619 0.17521837 0.01499875
v 0.17393132 0.20500475 0.01499875
v 0.17764156 0.21501678 0.01499875
v 0.18037875 0.22777525 0.02073398
v 0.17379683 0.21501678 0.02337357
v 0.12138665 0.15139924 0.02701446
v 0.16499983 0.36781871 0.02675713
v 0.15901913 0.36781871 0.02423729
v 0.20089981 0.34499830 0.02162064
v 0.20074950 0.33498627 0.02139643
v 0.20059919 0.32499921 0.02115183
v 0.20044889 0.31498718 0.02089195
v 0.20180166 0.34499830 0.01499875
v 0.20162761 0.33900607 0.00098551
v 0.19499823 0.34499830 0.02512905
v 0.19499823 0.33498627 0.02490228
v 0.19499823 0.32499921 0.02466024
v 0.19499823 0.31498718 0.02439781
v 0.19499823 0.36781871 0.02540421
v 0.18781507 0.36781871 0.02656094
v 0.18499877 0.30497515 0.02701192
v 0.16499983 0.22500384 0.02701446
v 0.17499930 0.24497794 0.02614564
v 0.18499877 0.29498813 0.02675968
v 0.17499930 0.23501585 0.02519784
v 0.15992099 0.17022485 0.00098551
v 0.16113928 0.17322096 0.00098551
v 0.16590168 0.18500568 0.00500094
v 0.17393132 0.20500475 0.00098551
v 0.17768112 0.21501678 0.00500094
v 0.16712788 0.18805173 0.00098551
v 0.17966677 0.22165817 0.01499875
v 0.18100372 0.23501585 0.02168943
v 0.20025110 0.30909485 0.02050468
v 0.19313124 0.29498813 0.02325382
v 0.16499983 0.29498813 0.02701446
v 0.16499983 0.35498536 0.02701192
v 0.16499983 0.36499736 0.02681318
v 0.16781613 0.36781871 0.02686923
v 0.20089981 0.31498718 0.01499875
v 0.20150104 0.33498627 0.01499875
v 0.20132700 0.32899404 0.00098551
v 0.19554408 0.30544955 0.02310859
v 0.18499877 0.36781871 0.02701192
v 0.17499930 0.27498904 0.02701446
v 0.16590168 0.18500568 0.00098551
v 0.17768112 0.21501678 0.00098551
v 0.17849594 0.21768832 0.00098551
v 0.17970632 0.22165817 0.00500094
v 0.20036978 0.30862045 0.01499875
v 0.17499930 0.29498813 0.02701446
v 0.17499930 0.36781871 0.02701192
v 0.20089981 0.31498718 0.00098551
v 0.17970632 0.22165817 0.00098551
v 0.20036978 0.30862045 0.00098551
f 1 2 5
f 1 5 3
f 1 3 7
f 1 7 14
f 1 14 22
f 1 22 25
f 1 25 24
f 1 24 36
f 1 36 53
f 1 53 55
f 1 55 77
f 1 77 86
f 1 86 67
f 1 67 47
f 1 47 32
f 1 32 18
f 1 18 9
f 1 9 4
f 1 4 10
f 1 10 20
f 1 20 34
f 1 34 49
f 1 49 70
f 1 70 94
f 1 94 122
f 1 122 133
f 1 133 135
f 1 135 134
f 1 134 128
f 1 128 127
f 1 127 109
f 1 109 111
f 1 111 126
f 1 126 107
f 1 107 106
f 1 106 79
f 1 79 60
f 1 60 58
f 1 58 57
f 1 57 39
f 1 39 26
f 1 26 30
f 1 30 21
f 1 21 12
f 1 12 6
f 1 6 2
f 2 6 5
f 3 5 8
f 3 8 7
f 4 9 19
f 4 19 10
f 5 6 11
f 5 11 8
f 6 12 11
f 7 13 14
f 7 8 13
f 8 15 13
f 8 11 16
f 8 16 17
f 8 17 15
f 9 18 19
f 10 19 33
f 10 33 48
f 10 48 68
f 10 68 88
f 10 88 87
f 10 87 119
f 10 119 132
f 10 132 124
f 10 124 100
f 10 100 99
f 10 99 72
f 10 72 51
f 10 51 35
f 10 35 20
f 11 21 16
f 11 12 21
f 13 15 14
f 14 15 22
f 15 17 23
f 15 23 24
f 15 24 25
f 15 25 22
f 16 26 27
f 16 27 28
f 16 28 29
f 16 29 17
f 16 21 30
f 16 30 26
f 17 29 31
f 17 31 23
f 18 32 33
f 18 33 19
f 20 35 50
f 20 50 34
f 23 36 24
f 23 31 37
f 23 37 38
f 23 38 36
f 26 39 27
f 27 39 57
f 27 57 40
f 27 40 28
f 28 41 29
f 28 40 42
f 28 42 43
f 28 43 44
f 28 44 41
f 29 41 45
f 29 45 31
f 31 45 46
f 31 46 37
f 32 47 33
f 33 47 48
f 34 50 69
f 34 69 49
f 35 51 52
f 35 52 50
f 36 38 53
f 37 46 54
f 37 54 38
f 38 55 53
f 38 54 56
f 38 56 55
f 40 57 58
f 40 58 42
f 41 59 46
f 41 46 45
f 41 44 59
f 42 58 60
f 42 60 79
f 42 79 61
f 42 61 43
f 43 61 80
f 43 80 62
f 43 62 63
f 43 63 44
f 44 63 64
f 44 64 65
f 44 65 59
f 46 59 66
f 46 66 54
f 47 67 68
f 47 68 48
f 49 69 93
f 49 93 70
f 50 52 71
f 50 71 69
f 51 72 52
f 52 72 73
f 52 73 74
f 52 74 71
f 54 66 75
f 54 75 76
f 54 76 56
f 55 56 77
f 56 76 102
f 56 102 125
f 56 125 131
f 56 131 116
f 56 116 86
f 56 86 77
f 59 65 78
f 59 78 66
f 61 79 106
f 61 106 80
f 62 80 81
f 62 81 63
f 63 81 82
f 63 82 83
f 63 83 84
f 63 84 64
f 64 84 85
f 64 85 78
f 64 78 65
f 66 78 75
f 67 86 87
f 67 87 88
f 67 88 68
f 69 71 89
f 69 89 90
f 69 90 91
f 69 91 92
f 69 92 93
f 70 93 94
f 71 74 95
f 71 95 96
f 71 96 97
f 71 97 98
f 71 98 89
f 72 99 73
f 73 99 100
f 73 100 101
f 73 101 74
f 74 101 95
f 75 102 76
f 75 78 103
f 75 103 104
f 75 104 101
f 75 101 102
f 78 85 105
f 78 105 103
f 80 106 107
f 80 107 81
f 81 108 82
f 81 107 108
f 82 109 127
f 82 127 110
f 82 110 83
f 82 108 111
f 82 111 109
f 83 110 129
f 83 129 112
f 83 112 84
f 84 113 85
f 84 112 114
f 84 114 113
f 85 113 115
f 85 115 105
f 86 116 117
f 86 117 118
f 86 118 87
f 87 118 119
f 89 98 90
f 90 98 91
f 91 98 92
f 92 98 114
f 92 114 120
f 92 120 121
f 92 121 93
f 93 121 122
f 93 122 94
f 95 101 96
f 96 101 97
f 97 101 104
f 97 104 98
f 98 104 115
f 98 115 123
f 98 123 114
f 100 124 101
f 101 124 131
f 101 131 125
f 101 125 102
f 103 105 104
f 104 105 115
f 107 126 108
f 108 126 111
f 110 127 128
f 110 128 129
f 112 129 130
f 112 130 114
f 113 114 115
f 114 130 120
f 114 123 115
f 116 131 124
f 116 124 132
f 116 132 117
f 117 132 119
f 117 119 118
f 120 130 135
f 120 135 133
f 120 133 122
f 120 122 121
f 128 134 129
f 129 134 135
f 129 135 130

