# https://github.com/mikedh/trimesh
v 0.14173742 0.44521660 0.00098551
v 0.14173742 0.44521660 0.00500094
v 0.14173742 0.50515491 0.00098551
v 0.15331131 0.36781871 0.00098551
v 0.14173742 0.44575465 0.01452738
v 0.15331131 0.36781871 0.00500094
v 0.14173742 0.50515491 0.01499873
v 0.14500535 0.50523561 0.00098551
v 0.20219995 0.36781871 0.00098551
v 0.14173742 0.45479381 0.02377356
v 0.15346524 0.36781871 0.01499873
v 0.14500535 0.50523561 0.01499873
v 0.14173742 0.50433439 0.01765105
v 0.14901921 0.50499350 0.00098551
v 0.20220587 0.36901587 0.00098551
v 0.20219995 0.36781871 0.01499873
v 0.14173742 0.46498978 0.02671633
v 0.15431774 0.36781871 0.01728416
v 0.15681013 0.36781871 0.02324870
v 0.14173742 0.50257230 0.02316207
v 0.14500535 0.50261265 0.02317991
v 0.15500449 0.50231671 0.02283849
v 0.15500449 0.50463033 0.01499873
v 0.15500449 0.50463033 0.00098551
v 0.20221771 0.38500929 0.00098551
v 0.20221771 0.38500929 0.01499873
v 0.20141257 0.36781871 0.01995177
v 0.14173742 0.47499743 0.02701443
v 0.15901835 0.36781871 0.02423727
v 0.16500363 0.36781871 0.02675710
v 0.14173742 0.50012416 0.02430606
v 0.14173742 0.49499929 0.02667047
v 0.14500535 0.49499929 0.02668831
v 0.15500449 0.49499929 0.02634689
v 0.16146930 0.50129443 0.02164610
v 0.16220339 0.50195354 0.01499873
v 0.16220339 0.50195354 0.00500094
v 0.16218562 0.50195354 0.00098551
v 0.20212299 0.39500347 0.00098551
v 0.20212299 0.39500347 0.01499873
v 0.20106328 0.39500347 0.02184483
v 0.20110473 0.38500929 0.02190598
v 0.20110473 0.37500161 0.02190088
v 0.20109880 0.36781871 0.02189833
v 0.14173742 0.48499164 0.02701443
v 0.16782162 0.36781871 0.02686920
v 0.16500363 0.39500347 0.02701443
v 0.14173742 0.49173066 0.02679277
v 0.15500449 0.48499164 0.02701443
v 0.16488522 0.49479753 0.02328182
v 0.16500363 0.48499164 0.02637492
v 0.16720591 0.49700353 0.01499873
v 0.17126122 0.49134058 0.02148558
v 0.16518123 0.49883288 0.00098551
v 0.20202827 0.39902538 0.00098551
v 0.20188026 0.40501112 0.01499873
v 0.20048311 0.43500718 0.02095053
v 0.20063703 0.42501298 0.02121041
v 0.20093895 0.40501112 0.02167667
v 0.19499512 0.39500347 0.02535323
v 0.19499512 0.41500533 0.02495831
v 0.19499512 0.40501112 0.02518252
v 0.19499512 0.38500929 0.02541183
v 0.19671789 0.36781871 0.02441562
v 0.17499684 0.36781871 0.02701443
v 0.16500363 0.47499743 0.02701443
v 0.17499684 0.47499743 0.02537616
v 0.17474820 0.48419803 0.02250727
v 0.17499684 0.46498978 0.02686411
v 0.18499598 0.45499557 0.02595962
v 0.17176443 0.49201313 0.01499873
v 0.16720591 0.49674794 0.00500094
v 0.18019474 0.48032409 0.02035433
v 0.16718815 0.49654618 0.00098551
v 0.20188026 0.40501112 0.00098551
v 0.20157833 0.41500533 0.01499873
v 0.20096856 0.43500718 0.01499873
v 0.20026998 0.44073737 0.02054287
v 0.19499512 0.43500718 0.02445638
v 0.20078504 0.41500533 0.02145246
v 0.19499512 0.42501298 0.02471627
v 0.18499598 0.44498792 0.02694309
v 0.18499598 0.43500718 0.02701443
v 0.18499598 0.36781871 0.02701443
v 0.18781398 0.36781871 0.02656091
v 0.19499512 0.36781871 0.02540419
v 0.18171030 0.47499743 0.02187031
v 0.18525055 0.46469387 0.02330220
v 0.19218305 0.45499557 0.02245377
v 0.19536218 0.44443643 0.02307544
v 0.18019474 0.48032409 0.01860905
v 0.17134410 0.49174410 0.00500094
v 0.19063197 0.46115622 0.02102697
v 0.19092798 0.46170771 0.01499873
v 0.18808630 0.46671152 0.01499873
v 0.17114875 0.49154234 0.00098551
v 0.20157833 0.41500533 0.00098551
v 0.20115209 0.42902142 0.00098551
v 0.20096856 0.43500718 0.00098551
v 0.20040615 0.44108710 0.01499873
v 0.19837554 0.44609094 0.01499873
v 0.19430839 0.45499557 0.01499873
v 0.18803895 0.46660393 0.00098551
v 0.18303642 0.47419035 0.00098551
v 0.19417815 0.45499557 0.00098551
v 0.19086878 0.46164045 0.00500094
v 0.20040615 0.44107366 0.00098551
v 0.19833410 0.44607747 0.00098551
v 0.19083917 0.46160010 0.00098551
f 1 2 5
f 1 5 10
f 1 10 17
f 1 17 28
f 1 28 45
f 1 45 48
f 1 48 32
f 1 32 31
f 1 31 20
f 1 20 13
f 1 13 7
f 1 7 3
f 1 3 8
f 1 8 14
f 1 14 24
f 1 24 38
f 1 38 54
f 1 54 74
f 1 74 96
f 1 96 104
f 1 104 103
f 1 103 109
f 1 109 105
f 1 105 108
f 1 108 107
f 1 107 99
f 1 99 98
f 1 98 97
f 1 97 75
f 1 75 55
f 1 55 39
f 1 39 25
f 1 25 15
f 1 15 9
f 1 9 4
f 1 4 6
f 1 6 2
f 2 6 5
f 3 7 12
f 3 12 8
f 4 9 16
f 4 16 27
f 4 27 44
f 4 44 64
f 4 64 86
f 4 86 85
f 4 85 84
f 4 84 65
f 4 65 46
f 4 46 30
f 4 30 29
f 4 29 19
f 4 19 18
f 4 18 11
f 4 11 6
f 5 6 11
f 5 11 10
f 7 13 12
f 8 12 14
f 9 15 16
f 10 11 18
f 10 18 19
f 10 19 17
f 12 13 20
f 12 20 21
f 12 21 22
f 12 22 23
f 12 23 14
f 14 23 24
f 15 25 26
f 15 26 16
f 16 26 27
f 17 19 29
f 17 29 30
f 17 30 28
f 20 31 21
f 21 31 32
f 21 32 33
f 21 33 34
f 21 34 22
f 22 34 35
f 22 35 23
f 23 35 36
f 23 36 37
f 23 37 24
f 24 37 38
f 25 39 40
f 25 40 26
f 26 40 41
f 26 41 42
f 26 42 43
f 26 43 27
f 27 43 44
f 28 30 46
f 28 46 47
f 28 47 65
f 28 65 84
f 28 84 83
f 28 83 66
f 28 66 49
f 28 49 45
f 32 48 33
f 33 48 45
f 33 45 49
f 33 49 34
f 34 50 35
f 34 49 51
f 34 51 50
f 35 52 36
f 35 50 53
f 35 53 52
f 36 52 37
f 37 52 38
f 38 52 54
f 39 55 40
f 40 55 56
f 40 56 57
f 40 57 58
f 40 58 59
f 40 59 41
f 41 60 42
f 41 59 61
f 41 61 62
f 41 62 60
f 42 63 86
f 42 86 64
f 42 64 43
f 42 60 63
f 43 64 44
f 46 65 47
f 49 66 51
f 50 51 67
f 50 67 68
f 50 68 53
f 51 66 69
f 51 69 70
f 51 70 67
f 52 71 72
f 52 72 54
f 52 53 71
f 53 68 73
f 53 73 71
f 54 72 74
f 55 75 56
f 56 75 97
f 56 97 76
f 56 76 57
f 57 77 78
f 57 78 79
f 57 79 58
f 57 76 77
f 58 79 80
f 58 80 59
f 59 80 79
f 59 79 81
f 59 81 61
f 60 62 82
f 60 82 83
f 60 83 63
f 61 81 82
f 61 82 62
f 63 84 85
f 63 85 86
f 63 83 84
f 66 82 69
f 66 83 82
f 67 87 68
f 67 70 88
f 67 88 87
f 68 87 73
f 69 82 70
f 70 89 88
f 70 82 79
f 70 79 90
f 70 90 89
f 71 91 92
f 71 92 74
f 71 74 72
f 71 73 91
f 73 87 93
f 73 93 94
f 73 94 95
f 73 95 91
f 74 92 96
f 76 98 77
f 76 97 98
f 77 98 99
f 77 99 100
f 77 100 78
f 78 100 101
f 78 101 102
f 78 102 93
f 78 93 89
f 78 89 90
f 78 90 79
f 79 82 81
f 87 88 89
f 87 89 93
f 91 95 103
f 91 103 104
f 91 104 92
f 92 104 96
f 93 102 94
f 94 102 105
f 94 105 106
f 94 106 103
f 94 103 95
f 99 107 100
f 100 107 101
f 101 107 108
f 101 108 102
f 102 108 105
f 103 106 109
f 105 109 106

