# https://github.com/mikedh/trimesh
v 0.13874438 0.50508797 0.00098551
v 0.13874438 0.50508797 -0.01499883
v 0.12900935 0.50487649 0.00098551
v 0.13874438 0.45031086 0.00098551
v 0.13874438 0.50254214 -0.02314722
v 0.13499177 0.50250441 -0.02312529
v 0.12499388 0.50239110 -0.02306499
v 0.11499599 0.50227773 -0.02299922
v 0.12499388 0.50478584 -0.01499883
v 0.12499388 0.50478584 0.00098551
v 0.13874438 0.44907194 -0.01452193
v 0.08090527 0.42795733 0.00098551
v 0.08088715 0.42791957 0.00094166
v 0.13874438 0.49499530 -0.02665270
v 0.13499177 0.49499530 -0.02663351
v 0.12499388 0.49499530 -0.02657321
v 0.11499599 0.49499530 -0.02650744
v 0.10499810 0.49499530 -0.02582498
v 0.10499810 0.50160539 -0.02231676
v 0.11499599 0.50455922 -0.01499883
v 0.11499599 0.50455922 0.00098551
v 0.13874438 0.45208615 -0.01912373
v 0.08088715 0.42791957 -0.00507439
v 0.08083276 0.42791957 -0.01499883
v 0.07940061 0.42791957 -0.02143148
v 0.07623718 0.42791957 0.00098551
v 0.13874438 0.48499322 -0.02701174
v 0.09499115 0.48499322 -0.02701448
v 0.08500233 0.48499322 -0.02668285
v 0.07500444 0.48499322 -0.02520282
v 0.08500233 0.49310669 -0.02317462
v 0.09824523 0.50066113 -0.02111080
v 0.10499810 0.50322205 -0.01499883
v 0.10499810 0.50322205 0.00098551
v 0.13874438 0.45553097 -0.02347337
v 0.07537607 0.42791957 -0.02402975
v 0.04615287 0.42791957 0.00098551
v 0.13874438 0.47499871 -0.02701174
v 0.06500655 0.42791957 -0.02701174
v 0.04615287 0.42791957 -0.02701174
v 0.04615287 0.44500011 -0.02701174
v 0.05500866 0.45500216 -0.02701174
v 0.06500655 0.46500424 -0.02701174
v 0.07500444 0.47499871 -0.02701174
v 0.05500866 0.46500424 -0.02656773
v 0.06500655 0.47499871 -0.02621691
v 0.05530778 0.47491562 -0.02321300
v 0.06582233 0.48457775 -0.02238802
v 0.07500444 0.49123320 -0.02169733
v 0.09737506 0.50099349 -0.01499883
v 0.06971090 0.49019068 -0.02036531
v 0.10042971 0.50189251 0.00098551
v 0.13874438 0.46058488 -0.02554268
v 0.04615287 0.47135749 0.00098551
v 0.13874438 0.47125173 -0.02692404
v 0.13874438 0.46500424 -0.02666640
v 0.04615287 0.45500216 -0.02679796
v 0.04615287 0.46520820 -0.02401331
v 0.04615287 0.46762562 -0.02292521
v 0.04816514 0.47152370 -0.02174119
v 0.05884285 0.48096672 -0.02127525
v 0.09536279 0.50023049 0.00098551
v 0.09737506 0.50099349 0.00098551
v 0.07500444 0.49247211 -0.01499883
v 0.07901991 0.49400565 0.00098551
v 0.04724964 0.47228670 -0.01499883
v 0.05325925 0.47728771 -0.01499883
v 0.05826273 0.48145020 -0.01499883
v 0.06455334 0.48645124 -0.01499883
v 0.06955681 0.49028134 -0.01499883
v 0.04724964 0.47228670 0.00098551
v 0.04615287 0.47135749 -0.01499883
v 0.07174130 0.49116519 0.00098551
v 0.07500444 0.49247211 0.00098551
v 0.04966074 0.47429615 0.00098551
v 0.05625046 0.47978067 0.00098551
v 0.05826273 0.48145020 0.00098551
v 0.06455334 0.48645124 0.00098551
v 0.06955681 0.49028134 0.00098551
f 1 2 3
f 1 3 10
f 1 10 21
f 1 21 34
f 1 34 52
f 1 52 63
f 1 63 62
f 1 62 65
f 1 65 74
f 1 74 73
f 1 73 79
f 1 79 78
f 1 78 77
f 1 77 76
f 1 76 75
f 1 75 71
f 1 71 54
f 1 54 37
f 1 37 26
f 1 26 12
f 1 12 4
f 1 4 11
f 1 11 22
f 1 22 35
f 1 35 53
f 1 53 56
f 1 56 55
f 1 55 38
f 1 38 27
f 1 27 14
f 1 14 5
f 1 5 2
f 2 5 6
f 2 6 7
f 2 7 8
f 2 8 9
f 2 9 3
f 3 9 10
f 4 12 13
f 4 13 11
f 5 14 15
f 5 15 16
f 5 16 17
f 5 17 6
f 6 17 7
f 7 17 8
f 8 17 18
f 8 18 19
f 8 19 20
f 8 20 9
f 9 20 21
f 9 21 10
f 11 13 23
f 11 23 24
f 11 24 25
f 11 25 22
f 12 26 13
f 13 26 37
f 13 37 40
f 13 40 39
f 13 39 36
f 13 36 25
f 13 25 24
f 13 24 23
f 14 27 28
f 14 28 15
f 15 28 16
f 16 28 17
f 17 28 29
f 17 29 18
f 18 29 30
f 18 30 31
f 18 31 19
f 19 32 33
f 19 33 20
f 19 31 32
f 20 33 34
f 20 34 21
f 22 25 36
f 22 36 35
f 27 38 28
f 28 38 39
f 28 39 40
f 28 40 41
f 28 41 42
f 28 42 43
f 28 43 44
f 28 44 29
f 29 44 45
f 29 45 46
f 29 46 30
f 30 46 47
f 30 47 48
f 30 48 49
f 30 49 31
f 31 49 32
f 32 50 33
f 32 49 51
f 32 51 50
f 33 50 52
f 33 52 34
f 35 36 39
f 35 39 53
f 37 54 72
f 37 72 59
f 37 59 58
f 37 58 57
f 37 57 41
f 37 41 40
f 38 55 39
f 39 55 56
f 39 56 53
f 41 57 42
f 42 57 43
f 43 57 44
f 44 57 45
f 45 57 58
f 45 58 46
f 46 58 47
f 47 58 59
f 47 59 60
f 47 60 61
f 47 61 48
f 48 51 49
f 48 61 51
f 50 62 63
f 50 63 52
f 50 51 64
f 50 64 65
f 50 65 62
f 51 61 66
f 51 66 67
f 51 67 68
f 51 68 69
f 51 69 70
f 51 70 64
f 54 71 66
f 54 66 72
f 59 72 60
f 60 72 61
f 61 72 66
f 64 70 73
f 64 73 74
f 64 74 65
f 66 71 75
f 66 75 76
f 66 76 67
f 67 76 68
f 68 76 77
f 68 77 78
f 68 78 69
f 69 78 79
f 69 79 70
f 70 79 73

