# https://github.com/mikedh/trimesh
v 0.09647767 0.00023956 0.23682626
v 0.09612027 0.00460245 0.23682626
v 0.09620097 -0.00413015 0.23682626
v 0.05942196 0.00021233 0.10572778
v 0.09593579 0.00546006 0.23682626
v 0.05923749 0.00117203 0.10572778
v 0.09534779 -0.00843859 0.23682626
v 0.05926055 -0.00074737 0.10572778
v 0.09518638 0.00889048 0.23682626
v 0.05875325 0.00209089 0.10572778
v 0.09163530 0.01693564 0.23682626
v 0.09368755 0.01302196 0.23682626
v 0.09485202 0.00981615 0.23682626
v 0.09390661 -0.01260411 0.23682626
v 0.05878784 -0.00167304 0.10572778
v 0.09339931 -0.01361826 0.23682626
v 0.09192353 -0.01655862 0.23682626
v 0.05817678 0.00275111 0.10572778
v 0.06209680 0.02040009 0.15608314
v 0.06557870 0.02080167 0.16649044
v 0.06945260 0.02093099 0.17814249
v 0.07183920 0.01722150 0.17737253
v 0.08904117 0.02054302 0.23682626
v 0.06243116 -0.02021365 0.15600614
v 0.05806148 -0.00251703 0.10572778
v 0.07211591 -0.01694658 0.17730837
v 0.06978695 -0.02071052 0.17806549
v 0.06591305 -0.02059481 0.16641344
v 0.09116259 -0.01767487 0.23682626
v 0.05802689 0.00291447 0.10572778
v 0.05936432 0.02395303 0.15735358
v 0.06277704 0.02423209 0.16752988
v 0.06662788 0.02429334 0.17905360
v 0.08598586 0.02380328 0.23682626
v 0.05975632 -0.02383465 0.15726376
v 0.05716219 -0.00322490 0.10572778
v 0.05734666 -0.02328333 0.15014163
v 0.05295393 -0.02629857 0.14769058
v 0.06701988 -0.02414094 0.17896378
v 0.06316904 -0.02409329 0.16742721
v 0.08939859 -0.02022726 0.23682626
v 0.05723136 0.00351343 0.10572778
v 0.05252734 0.02631484 0.14779325
v 0.05696619 0.02338810 0.15023145
v 0.05398005 0.02678449 0.15200236
v 0.05625136 0.02712480 0.15873951
v 0.05959491 0.02726093 0.16867198
v 0.06342269 0.02724051 0.18008022
v 0.08445244 0.02506927 0.23682626
v 0.05668948 -0.02708811 0.15863684
v 0.05440664 -0.02676140 0.15189970
v 0.05613606 -0.00374218 0.10572778
v 0.04903391 -0.02921170 0.14783174
v 0.04976027 -0.02950438 0.14980797
v 0.06387234 -0.02716978 0.17997757
v 0.06003302 -0.02720382 0.16856933
v 0.08831482 -0.02143880 0.23682626
v 0.08640093 -0.02356240 0.23682626
v 0.05711607 0.00359511 0.10572778
v 0.04856120 0.02913950 0.14794724
v 0.04928756 0.02943898 0.14992347
v 0.05060192 0.02967039 0.15374760
v 0.05276946 0.02980652 0.16016392
v 0.05606689 0.02980652 0.16990392
v 0.05988314 0.02971804 0.18119666
v 0.08251549 0.02666197 0.23682626
v 0.05325370 -0.02985831 0.16004844
v 0.05108616 -0.02972899 0.15363210
v 0.05501770 -0.00411653 0.10572778
v 0.04549436 -0.03177771 0.14985931
v 0.04519460 -0.03153949 0.14919201
v 0.04614002 -0.03194106 0.15160455
v 0.06036738 -0.02972899 0.18109401
v 0.05655112 -0.02984470 0.16978842
v 0.08298820 -0.02649595 0.23682626
v 0.05607842 0.00409197 0.10572778
v 0.04498707 0.03161022 0.14998762
v 0.04562119 0.03177357 0.15173288
v 0.04685484 0.03186886 0.15532601
v 0.04897626 0.03187567 0.16153702
v 0.05223910 0.03180080 0.17116152
v 0.05606689 0.03166467 0.18240294
v 0.07868771 0.02905782 0.23682626
v 0.04949509 -0.03202274 0.16142154
v 0.04737367 -0.03202274 0.15519769
v 0.05487935 -0.00415057 0.10572778
v 0.04158587 -0.03354057 0.15152755
v 0.04134375 -0.03334999 0.15095007
v 0.04217388 -0.03363585 0.15317012
v 0.05657418 -0.03177090 0.18227461
v 0.05275793 -0.03192745 0.17103319
v 0.07919501 -0.02898028 0.23682626
v 0.05494853 0.00443910 0.10572778
v 0.04467577 0.03137199 0.14930749
v 0.04080187 0.03308040 0.15107840
v 0.04104399 0.03327098 0.15165588
v 0.04163199 0.03337307 0.15329845
v 0.04283106 0.03339349 0.15677610
v 0.04492942 0.03333904 0.16288446
v 0.04819226 0.03322333 0.17243196
v 0.07454863 0.03094319 0.23682626
v 0.04547130 -0.03358821 0.16275613
v 0.04338447 -0.03364947 0.15664779
v 0.05370335 -0.00438198 0.10572778
v 0.03744679 -0.03456833 0.15296480
v 0.03722773 -0.03439137 0.15241300
v 0.05050968 -0.00464063 0.10572778
v 0.05093627 -0.00462701 0.10572778
v 0.05195086 -0.00455895 0.10572778
v 0.05234287 -0.00453172 0.10572778
v 0.03800021 -0.03464320 0.15456890
v 0.04873414 -0.03345208 0.17230363
v 0.07509051 -0.03096094 0.23682626
v 0.05481017 0.00446633 0.10572778
v 0.03667432 0.03401968 0.15254132
v 0.05363417 0.00467052 0.10572778
v 0.05227369 0.00479984 0.10572778
v 0.05085557 0.00485429 0.10572778
v 0.03689338 0.03419665 0.15310597
v 0.03745832 0.03427832 0.15469721
v 0.03863433 0.03427152 0.15813637
v 0.04072116 0.03419665 0.16421905
v 0.04400706 0.03406052 0.17374089
v 0.07019049 0.03229766 0.23682626
v 0.07142414 0.03191650 0.23682626
v 0.04128611 -0.03454791 0.16409072
v 0.03918774 -0.03462959 0.15800804
v 0.03372277 -0.03500394 0.15589066
v 0.03316936 -0.03492226 0.15428656
v 0.03297336 -0.03474530 0.15372193
v -0.01711066 -0.00318406 0.10572778
v -0.01501229 -0.00334061 0.10572778
v -0.01251040 -0.00344951 0.10572778
v -0.00521224 -0.00366051 0.10572778
v -0.00197246 -0.00374218 0.10572778
v -0.00071575 -0.00376941 0.10572778
v 0.00024119 -0.00378983 0.10572778
v 0.04412236 -0.00461340 0.10572778
v 0.04669343 -0.00464743 0.10572778
v 0.04881485 -0.00466105 0.10572778
v 0.04911461 -0.00466105 0.10572778
v 0.03491031 -0.03499033 0.15931697
v 0.07202367 -0.03199552 0.23682626
v 0.07075543 -0.03241751 0.23682626
v 0.04454895 -0.03439817 0.17359973
v 0.03241994 0.03426471 0.15385026
v 0.03260441 0.03444848 0.15441489
v 0.05042898 0.00485429 0.10572778
v 0.04903391 0.00484748 0.10572778
v 0.04874567 0.00484068 0.10572778
v 0.04671649 0.00478623 0.10572778
v 0.04405318 0.00468413 0.10572778
v 0.04305011 0.00464329 0.10572778
v 0.00282380 0.00296892 0.10572778
v 0.00021813 0.00286002 0.10572778
v -0.00075034 0.00281918 0.10572778
v -0.00252588 0.00273750 0.10572778
v -0.00414000 0.00266263 0.10572778
v -0.01256805 0.00222702 0.10572778
v -0.01505841 0.00205686 0.10572778
v -0.01714525 0.00185948 0.10572778
v 0.03315783 0.03453016 0.15601897
v 0.03434537 0.03452335 0.15945813
v 0.03645526 0.03444848 0.16554081
v 0.03972963 0.03431235 0.17504983
v 0.06568246 0.03311443 0.23682626
v 0.06647800 0.03297149 0.23682626
v 0.04029457 -0.03475210 0.17492150
v 0.03700867 -0.03490185 0.16539966
v 0.02943381 -0.03475210 0.15721242
v 0.02888040 -0.03467723 0.15560834
v 0.02870746 -0.03450027 0.15503086
v -0.01849419 -0.00298667 0.10572778
v 0.03062135 -0.03473849 0.16063873
v 0.06711212 -0.03315941 0.23682626
v 0.06627047 -0.03332957 0.23682626
v 0.02815404 0.03391758 0.15515919
v -0.01854031 0.00162125 0.10572778
v 0.02832698 0.03409455 0.15573665
v 0.02886887 0.03416942 0.15734075
v 0.03005640 0.03416261 0.16077989
v 0.03217782 0.03408774 0.16684975
v 0.03548678 0.03395842 0.17635874
v 0.06110527 0.03335265 0.23682626
v 0.06142809 0.03333904 0.23682626
v 0.03992563 -0.03430969 0.18742050
v 0.03604020 -0.03450027 0.17623043
v 0.03273124 -0.03465001 0.16672142
v 0.06206221 -0.03364947 0.23682626
v 0.06169327 -0.03367670 0.23682626
v 0.02636697 -0.03386047 0.16188350
v 0.02516791 -0.03384686 0.15840586
v 0.02461449 -0.03375157 0.15676327
v 0.02445308 -0.03356099 0.15614730
v -0.01885161 -0.00289819 0.10572778
v 0.02849992 -0.03379921 0.16797902
v 0.02391120 0.03287620 0.15627563
v 0.02407261 0.03306678 0.15689160
v -0.01888620 0.00152596 0.10572778
v 0.02462602 0.03316207 0.15853418
v 0.02582509 0.03318249 0.16201183
v 0.02795804 0.03312804 0.16810735
v 0.03130159 0.03301233 0.17762919
v 0.03522161 0.03284898 0.18881926
v 0.05652807 0.03301233 0.23682626
v 0.05813066 0.03313485 0.23682626
v 0.03575196 -0.03347931 0.18869095
v 0.05711607 -0.03344528 0.23682626
v 0.05692007 -0.03341125 0.23682626
v 0.03184347 -0.03366308 0.17751369
v 0.02221636 -0.03234264 0.16294862
v 0.02439543 -0.03233584 0.16914679
v 0.02097118 -0.03226097 0.15935548
v 0.02038318 -0.03210442 0.15758456
v -0.02003914 -0.00245577 0.10572778
v 0.02776204 -0.03224055 0.17871997
v 0.01970294 0.03107932 0.15699427
v 0.01987588 0.03131073 0.15771289
v -0.02007373 0.00105632 0.10572778
v 0.02045235 0.03147409 0.15947096
v 0.02169754 0.03156257 0.16306411
v 0.02387661 0.03156938 0.16926229
v 0.02724321 0.03149451 0.17883545
v 0.03119782 0.03135157 0.19005120
v 0.05203157 0.03211389 0.23682626
v 0.03171664 -0.03207719 0.18992287
v 0.05259652 -0.03264212 0.23682626
v 0.05170875 -0.03236987 0.23682626
v 0.01820411 -0.03015779 0.16374424
v 0.02045235 -0.03026669 0.17013490
v 0.02388814 -0.03025308 0.17982358
v 0.01687822 -0.02993998 0.15993294
v 0.01622104 -0.02964731 0.15793104
v -0.02082315 -0.00191807 0.10572778
v 0.02787733 -0.03013737 0.19109064
v 0.01574833 0.02876514 0.15804654
v 0.01639398 0.02905782 0.16003561
v -0.02084621 0.00050501 0.10572778
v 0.01771987 0.02928243 0.16385974
v 0.01996812 0.02940495 0.17025040
v 0.02340390 0.02940495 0.17993906
v 0.02739310 0.02931646 0.19119331
v 0.04358047 0.02869027 0.23682626
v 0.04616307 0.02992904 0.23682626
v 0.04769649 0.03066413 0.23682626
v 0.05107462 0.03179399 0.23682626
v 0.04823838 -0.03129446 0.23682626
v 0.01438785 -0.02729230 0.16420622
v 0.01675140 -0.02759859 0.17091770
v 0.02026788 -0.02770068 0.18078601
v 0.02431473 -0.02765984 0.19214293
v 0.01292361 -0.02684308 0.15999711
v 0.01213961 -0.02633940 0.15762307
v -0.02120362 -0.00132591 0.10572778
v 0.00921112 -0.02320166 0.15972762
v 0.00772382 -0.02018643 0.16453987
v 0.00507204 -0.01628636 0.16464253
v 0.02829240 -0.02751691 0.20324318
v 0.04675107 -0.03062063 0.23682626
v 0.04409930 -0.02941589 0.23682626
v 0.04024845 -0.02702004 0.23682626
v 0.01172455 0.02536195 0.15771289
v 0.01249702 0.02587243 0.16009977
v 0.01394973 0.02632165 0.16430888
v -0.02121515 -0.00009396 0.10572778
v 0.00481839 0.01511152 0.16470669
v 0.00740100 0.01906604 0.16461687
v 0.00884218 0.02214253 0.15981744
v 0.01631328 0.02664836 0.17102036
v 0.01982976 0.02677087 0.18088868
v 0.02387661 0.02675045 0.19224559
v 0.02785427 0.02662794 0.20335868
v 0.04163199 0.02741748 0.23682626
v 0.01085984 -0.02390952 0.16443720
v 0.01337326 -0.02443361 0.17150800
v 0.01698198 -0.02467864 0.18162014
v 0.02107495 -0.02471268 0.19309254
v 0.02508720 -0.02461058 0.20423129
v -0.01957797 -0.00131911 0.11030903
v -0.01969326 -0.00070653 0.11030903
v -0.02127280 -0.00093795 0.10572778
v 0.00783912 -0.01708271 0.17241913
v 0.00585604 -0.01310778 0.17281693
v 0.00441486 -0.00902394 0.17315058
v 0.00825418 -0.00931662 0.18385303
v 0.00352709 -0.00484482 0.17338157
v 0.01037560 -0.02089429 0.17199564
v 0.03806939 -0.02523677 0.23682626
v 0.01047936 0.02286400 0.16452703
v 0.01298126 0.02340171 0.17159784
v -0.02127280 -0.00047511 0.10572778
v 0.00345792 0.00358149 0.17339441
v 0.00811582 0.00809413 0.18387869
v 0.00427651 0.00777423 0.17317624
v 0.00564852 0.01189891 0.17286827
v 0.00757394 0.01591468 0.17248328
v 0.01004124 0.01978751 0.17208548
v 0.01658998 0.02366716 0.18172280
v 0.02068294 0.02372161 0.19318238
v 0.02470673 0.02364674 0.20432112
v 0.03758515 0.02433418 0.23682626
v 0.03978727 0.02620594 0.23682626
v 0.01407656 -0.02124822 0.18233877
v 0.01822717 -0.02135712 0.19391383
v 0.02227401 -0.02128906 0.20509109
v 0.03677808 -0.02416817 0.23682626
v 0.01132102 -0.00061124 0.19595423
v 0.01156313 0.00384014 0.19587722
v 0.00730876 0.00375846 0.18412252
v -0.02130738 -0.00070653 0.10572778
v 0.00737794 -0.00500137 0.18410967
v 0.01162078 -0.01749790 0.18295474
v 0.00967230 -0.01350255 0.18345521
v 0.01390362 -0.01364548 0.19518426
v 0.01250855 -0.00942552 0.19559491
v 0.01374220 0.02016867 0.18241577
v 0.01237020 0.00823026 0.19563341
v 0.01369609 0.01248426 0.19523560
v 0.00946477 0.01231410 0.18350655
v 0.01134407 0.01635709 0.18301891
v 0.01789281 0.02029799 0.19400366
v 0.02193966 0.02025715 0.20516808
v 0.03636302 0.02327919 0.23682626
v 0.01581751 -0.01764764 0.19461963
v 0.01988741 -0.01760680 0.20582254
v 0.03371124 -0.02090790 0.23682626
v 0.01164384 -0.00505582 0.19586439
v 0.01573680 -0.00504901 0.20708014
v 0.02625168 -0.00059763 0.23682626
v 0.02625168 -0.00052957 0.23682626
v 0.02651685 0.00381291 0.23682626
v 0.01566762 0.00385375 0.20710582
v 0.02738157 0.00813497 0.23682626
v 0.01646316 0.00824387 0.20686199
v 0.01799658 -0.01362506 0.20640001
v 0.01660151 -0.00941191 0.20682350
v 0.01555233 0.01652725 0.19468379
v 0.01778905 0.01249106 0.20645134
v 0.01961070 0.01652045 0.20588671
v 0.03335383 0.01994406 0.23682626
v 0.03411478 0.02078805 0.23682626
v 0.03155524 -0.01791309 0.23682626
v 0.03111712 -0.01729371 0.23682626
v 0.02660909 -0.00502178 0.23682626
v 0.02659756 -0.00494011 0.23682626
v 0.02882275 0.01230729 0.23682626
v 0.02905334 -0.01338003 0.23682626
v 0.02761216 -0.00943913 0.23682626
v 0.02754298 -0.00923494 0.23682626
v 0.03081735 0.01627542 0.23682626
f 1 2 5
f 1 5 9
f 1 9 13
f 1 13 12
f 1 12 11
f 1 11 23
f 1 23 34
f 1 34 49
f 1 49 66
f 1 66 83
f 1 83 101
f 1 101 125
f 1 125 124
f 1 124 167
f 1 167 166
f 1 166 185
f 1 185 184
f 1 184 206
f 1 206 205
f 1 205 225
f 1 225 246
f 1 246 245
f 1 245 244
f 1 244 243
f 1 243 273
f 1 273 302
f 1 302 301
f 1 301 323
f 1 323 341
f 1 341 340
f 1 340 350
f 1 350 346
f 1 346 333
f 1 333 331
f 1 331 330
f 1 330 329
f 1 329 345
f 1 345 344
f 1 344 349
f 1 349 348
f 1 348 347
f 1 347 343
f 1 343 342
f 1 342 326
f 1 326 306
f 1 306 288
f 1 288 261
f 1 261 260
f 1 260 259
f 1 259 247
f 1 247 228
f 1 228 227
f 1 227 209
f 1 209 208
f 1 208 190
f 1 190 189
f 1 189 176
f 1 176 175
f 1 175 144
f 1 144 143
f 1 143 113
f 1 113 92
f 1 92 75
f 1 75 58
f 1 58 57
f 1 57 41
f 1 41 29
f 1 29 17
f 1 17 16
f 1 16 14
f 1 14 7
f 1 7 3
f 1 3 4
f 1 4 2
f 2 4 6
f 2 6 5
f 3 7 8
f 3 8 4
f 4 8 15
f 4 15 25
f 4 25 36
f 4 36 52
f 4 52 69
f 4 69 86
f 4 86 104
f 4 104 110
f 4 110 109
f 4 109 108
f 4 108 107
f 4 107 141
f 4 141 140
f 4 140 139
f 4 139 138
f 4 138 137
f 4 137 136
f 4 136 135
f 4 135 134
f 4 134 133
f 4 133 132
f 4 132 131
f 4 131 173
f 4 173 195
f 4 195 215
f 4 215 234
f 4 234 254
f 4 254 281
f 4 281 310
f 4 310 291
f 4 291 265
f 4 265 238
f 4 238 219
f 4 219 199
f 4 199 178
f 4 178 161
f 4 161 160
f 4 160 159
f 4 159 158
f 4 158 157
f 4 157 156
f 4 156 155
f 4 155 154
f 4 154 153
f 4 153 152
f 4 152 151
f 4 151 150
f 4 150 149
f 4 149 148
f 4 148 118
f 4 118 117
f 4 117 116
f 4 116 114
f 4 114 93
f 4 93 76
f 4 76 59
f 4 59 42
f 4 42 30
f 4 30 18
f 4 18 10
f 4 10 6
f 5 6 9
f 6 10 11
f 6 11 12
f 6 12 13
f 6 13 9
f 7 14 8
f 8 14 16
f 8 16 17
f 8 17 15
f 10 18 19
f 10 19 20
f 10 20 21
f 10 21 22
f 10 22 11
f 11 22 21
f 11 21 23
f 15 24 25
f 15 17 26
f 15 26 27
f 15 27 28
f 15 28 24
f 17 29 26
f 18 30 31
f 18 31 19
f 19 31 20
f 20 32 21
f 20 31 32
f 21 32 33
f 21 33 23
f 23 33 34
f 24 35 25
f 24 28 35
f 25 35 37
f 25 37 38
f 25 38 36
f 26 29 27
f 27 39 40
f 27 40 28
f 27 29 41
f 27 41 39
f 28 40 35
f 30 42 43
f 30 43 44
f 30 44 31
f 31 44 45
f 31 45 46
f 31 46 32
f 32 47 33
f 32 46 47
f 33 47 48
f 33 48 34
f 34 48 49
f 35 50 51
f 35 51 37
f 35 40 50
f 36 38 53
f 36 53 52
f 37 51 38
f 38 51 54
f 38 54 53
f 39 55 56
f 39 56 40
f 39 41 57
f 39 57 58
f 39 58 55
f 40 56 50
f 42 59 43
f 43 60 61
f 43 61 45
f 43 45 44
f 43 59 60
f 45 62 46
f 45 61 62
f 46 62 63
f 46 63 47
f 47 64 48
f 47 63 64
f 48 64 65
f 48 65 66
f 48 66 49
f 50 67 68
f 50 68 51
f 50 56 67
f 51 68 54
f 52 53 70
f 52 70 71
f 52 71 69
f 53 54 70
f 54 68 72
f 54 72 70
f 55 73 74
f 55 74 56
f 55 58 75
f 55 75 73
f 56 74 67
f 59 76 60
f 60 77 61
f 60 76 77
f 61 77 78
f 61 78 62
f 62 78 79
f 62 79 63
f 63 79 80
f 63 80 64
f 64 81 65
f 64 80 81
f 65 81 82
f 65 82 83
f 65 83 66
f 67 84 85
f 67 85 68
f 67 74 84
f 68 85 72
f 69 71 86
f 70 72 87
f 70 87 88
f 70 88 71
f 71 88 86
f 72 85 89
f 72 89 87
f 73 90 91
f 73 91 74
f 73 75 92
f 73 92 90
f 74 91 84
f 76 93 94
f 76 94 77
f 77 94 95
f 77 95 96
f 77 96 78
f 78 96 97
f 78 97 79
f 79 98 80
f 79 97 98
f 80 98 99
f 80 99 81
f 81 100 82
f 81 99 100
f 82 100 101
f 82 101 83
f 84 102 103
f 84 103 85
f 84 91 102
f 85 103 89
f 86 88 104
f 87 89 105
f 87 105 106
f 87 106 88
f 88 106 107
f 88 107 108
f 88 108 109
f 88 109 110
f 88 110 104
f 89 103 111
f 89 111 105
f 90 112 91
f 90 92 113
f 90 113 112
f 91 112 102
f 93 114 94
f 94 114 95
f 95 115 96
f 95 114 116
f 95 116 117
f 95 117 118
f 95 118 115
f 96 115 119
f 96 119 97
f 97 119 120
f 97 120 98
f 98 121 99
f 98 120 121
f 99 121 122
f 99 122 100
f 100 123 124
f 100 124 125
f 100 125 101
f 100 122 123
f 102 126 127
f 102 127 103
f 102 112 126
f 103 127 111
f 105 111 128
f 105 128 129
f 105 129 130
f 105 130 106
f 106 130 131
f 106 131 132
f 106 132 133
f 106 133 134
f 106 134 135
f 106 135 136
f 106 136 137
f 106 137 138
f 106 138 139
f 106 139 140
f 106 140 141
f 106 141 107
f 111 127 142
f 111 142 128
f 112 113 143
f 112 143 144
f 112 144 145
f 112 145 126
f 115 146 147
f 115 147 119
f 115 118 148
f 115 148 149
f 115 149 150
f 115 150 151
f 115 151 152
f 115 152 153
f 115 153 154
f 115 154 155
f 115 155 156
f 115 156 157
f 115 157 158
f 115 158 159
f 115 159 160
f 115 160 161
f 115 161 146
f 119 147 120
f 120 162 163
f 120 163 121
f 120 147 162
f 121 163 164
f 121 164 122
f 122 164 123
f 123 164 165
f 123 165 166
f 123 166 167
f 123 167 124
f 126 142 127
f 126 145 168
f 126 168 169
f 126 169 142
f 128 142 174
f 128 174 170
f 128 170 171
f 128 171 129
f 129 171 172
f 129 172 130
f 130 172 173
f 130 173 131
f 142 169 174
f 144 175 145
f 145 175 176
f 145 176 168
f 146 177 147
f 146 161 178
f 146 178 177
f 147 177 179
f 147 179 162
f 162 179 180
f 162 180 181
f 162 181 163
f 163 181 164
f 164 182 183
f 164 183 165
f 164 181 182
f 165 183 184
f 165 184 185
f 165 185 166
f 168 186 187
f 168 187 188
f 168 188 169
f 168 176 189
f 168 189 190
f 168 190 186
f 169 188 174
f 170 174 191
f 170 191 192
f 170 192 171
f 171 192 193
f 171 193 172
f 172 193 194
f 172 194 195
f 172 195 173
f 174 188 196
f 174 196 191
f 177 197 198
f 177 198 179
f 177 178 199
f 177 199 197
f 179 198 200
f 179 200 180
f 180 200 201
f 180 201 181
f 181 201 202
f 181 202 182
f 182 202 203
f 182 203 183
f 183 203 204
f 183 204 205
f 183 205 206
f 183 206 184
f 186 207 187
f 186 190 208
f 186 208 209
f 186 209 207
f 187 210 188
f 187 207 210
f 188 210 196
f 191 211 192
f 191 196 212
f 191 212 211
f 192 211 213
f 192 213 193
f 193 213 214
f 193 214 194
f 194 214 215
f 194 215 195
f 196 210 216
f 196 216 212
f 197 217 218
f 197 218 198
f 197 199 219
f 197 219 217
f 198 218 220
f 198 220 200
f 200 220 221
f 200 221 201
f 201 221 222
f 201 222 223
f 201 223 202
f 202 223 203
f 203 223 224
f 203 224 204
f 204 224 225
f 204 225 205
f 207 226 210
f 207 209 227
f 207 227 228
f 207 228 226
f 210 226 216
f 211 229 213
f 211 212 230
f 211 230 229
f 212 216 231
f 212 231 230
f 213 229 232
f 213 232 214
f 214 232 233
f 214 233 215
f 215 233 234
f 216 226 235
f 216 235 231
f 217 219 218
f 218 219 236
f 218 236 237
f 218 237 220
f 219 238 236
f 220 237 239
f 220 239 221
f 221 239 240
f 221 240 222
f 222 240 241
f 222 241 223
f 223 241 242
f 223 242 224
f 224 242 243
f 224 243 244
f 224 244 245
f 224 245 246
f 224 246 225
f 226 228 247
f 226 247 235
f 229 248 232
f 229 230 249
f 229 249 248
f 230 231 250
f 230 250 249
f 231 235 251
f 231 251 250
f 232 252 233
f 232 248 252
f 233 252 253
f 233 253 234
f 234 253 252
f 234 252 255
f 234 255 256
f 234 256 257
f 234 257 254
f 235 258 251
f 235 247 259
f 235 259 260
f 235 260 261
f 235 261 258
f 236 262 263
f 236 263 237
f 236 238 262
f 237 263 264
f 237 264 239
f 238 265 266
f 238 266 267
f 238 267 268
f 238 268 263
f 238 263 262
f 239 264 269
f 239 269 240
f 240 269 270
f 240 270 241
f 241 270 271
f 241 271 242
f 242 271 272
f 242 272 273
f 242 273 243
f 248 274 252
f 248 249 275
f 248 275 274
f 249 250 276
f 249 276 275
f 250 251 277
f 250 277 276
f 251 258 278
f 251 278 277
f 252 274 255
f 254 279 280
f 254 280 281
f 254 257 282
f 254 282 283
f 254 283 284
f 254 284 285
f 254 285 286
f 254 286 279
f 255 274 256
f 256 274 287
f 256 287 282
f 256 282 257
f 258 261 278
f 261 288 278
f 263 268 289
f 263 289 264
f 264 289 290
f 264 290 269
f 265 291 280
f 265 280 292
f 265 292 293
f 265 293 294
f 265 294 295
f 265 295 296
f 265 296 266
f 266 296 267
f 267 289 268
f 267 296 297
f 267 297 289
f 269 290 298
f 269 298 270
f 270 298 299
f 270 299 271
f 271 299 300
f 271 300 272
f 272 300 301
f 272 301 302
f 272 302 273
f 274 275 287
f 275 276 303
f 275 303 287
f 276 277 304
f 276 304 303
f 277 278 305
f 277 305 304
f 278 288 306
f 278 306 305
f 279 286 280
f 280 307 308
f 280 308 309
f 280 309 292
f 280 291 310
f 280 310 281
f 280 286 311
f 280 311 307
f 282 287 312
f 282 312 283
f 283 312 313
f 283 313 284
f 284 313 285
f 285 313 314
f 285 314 315
f 285 315 311
f 285 311 286
f 287 303 312
f 289 297 290
f 290 297 316
f 290 316 298
f 292 309 293
f 293 309 317
f 293 317 318
f 293 318 319
f 293 319 294
f 294 319 295
f 295 319 320
f 295 320 296
f 296 320 297
f 297 320 316
f 298 316 321
f 298 321 299
f 299 321 322
f 299 322 300
f 300 322 323
f 300 323 301
f 303 304 324
f 303 324 312
f 304 305 325
f 304 325 324
f 305 306 326
f 305 326 325
f 307 311 327
f 307 327 328
f 307 328 329
f 307 329 330
f 307 330 308
f 308 330 331
f 308 331 332
f 308 332 333
f 308 333 334
f 308 334 317
f 308 317 309
f 311 315 327
f 312 324 313
f 313 324 314
f 314 324 325
f 314 325 335
f 314 335 336
f 314 336 315
f 315 336 327
f 316 320 321
f 317 334 318
f 318 337 319
f 318 334 338
f 318 338 339
f 318 339 337
f 319 337 320
f 320 337 321
f 321 337 339
f 321 339 322
f 322 339 340
f 322 340 341
f 322 341 323
f 325 326 342
f 325 342 343
f 325 343 335
f 327 336 328
f 328 336 344
f 328 344 345
f 328 345 329
f 331 333 332
f 333 346 334
f 334 346 338
f 335 343 347
f 335 347 336
f 336 347 348
f 336 348 349
f 336 349 344
f 338 346 350
f 338 350 339
f 339 350 340

