# https://github.com/mikedh/trimesh
v 0.10308069 0.00103578 0.08232111
v 0.10263668 0.00034148 0.08089894
v 0.10266444 0.00078198 0.08089894
v 0.10205394 0.00115441 0.07923973
v 0.06889263 0.00439350 0.08398032
v 0.06953087 0.00430598 0.08522472
v 0.06991938 0.00423597 0.08629137
v 0.07030788 0.00413775 0.08759502
v 0.05360235 0.00467452 0.10566854
v 0.05490660 0.00444504 0.10566854
v 0.05607210 0.00409691 0.10566854
v 0.05709885 0.00360099 0.10566854
v 0.05801461 0.00291447 0.10566854
v 0.05898586 0.00163283 0.10566854
v 0.05931886 -0.00020599 0.10566854
v 0.05876386 -0.00167821 0.10566854
v 0.05762610 -0.00285288 0.10566854
v 0.05612760 -0.00374750 0.10566854
v 0.05493435 -0.00413451 0.10566854
v 0.06733863 -0.00370957 0.07947674
v 0.06353687 -0.00380584 0.06886968
v 0.05648835 -0.00389530 0.04919621
v -0.02098979 -0.00458377 -0.16596752
v 0.01042327 -0.00003582 -0.15956773
v 0.02501980 0.00052623 -0.12756872
v 0.03434381 0.00055930 -0.10291762
v 0.04730308 0.00060208 -0.06848906
v 0.06181636 0.00065070 -0.02955692
v 0.10133243 0.00044747 0.07716572
v 0.10208169 0.00042608 0.07923973
v 0.05368559 -0.00438053 0.10566854
v 0.07014138 -0.00340132 0.08700246
v 0.06958638 -0.00352481 0.08516547
v 0.06914237 -0.00360747 0.08386180
v 0.10136019 0.00078003 0.07710645
v 0.06728312 0.00447518 0.07947674
v 0.10133243 0.00110968 0.07716572
v 0.00454026 0.00096284 -0.17396729
v -0.02107304 0.00481649 -0.16590828
v 0.05643285 0.00459576 0.04919621
v 0.06348136 0.00454908 0.06886968
v 0.05063309 0.00486025 0.10566854
v 0.05204834 0.00480872 0.10566854
v 0.05071634 -0.00463433 0.10566854
v -0.02806605 -0.00466059 -0.18338922
v 0.00454026 -0.00009805 -0.17396729
v 0.01802678 0.00050095 -0.14552371
v 0.07596889 0.00068765 0.00848635
v 0.08776265 0.00073627 0.04024833
v 0.09522742 0.00075961 0.06045511
v 0.05213160 -0.00455070 0.10566854
v -0.00264701 0.00095798 -0.19138896
v -0.03619682 0.00482136 -0.20318119
v -0.02812155 0.00483497 -0.18338922
v -0.03783407 0.00481455 -0.20270714
v 0.04902359 0.00485247 0.10566854
v 0.04910684 -0.00466350 0.10566854
v -0.02970331 -0.00469559 -0.18279664
v -0.03775082 -0.00474324 -0.20270714
v -0.03611357 -0.00470629 -0.20324045
v -0.03400457 -0.00436400 -0.20389229
v -0.00264701 -0.00014959 -0.19138896
v 0.00592776 0.00036968 -0.17444134
v -0.00125950 0.00050387 -0.19186303
v -0.01102752 0.00093367 -0.21124020
v -0.01352503 0.00132069 -0.21046986
v -0.04330083 0.00448101 -0.22575828
v -0.04524333 0.00474551 -0.22510645
v -0.05576060 0.00468522 -0.24833536
v -0.04701934 0.00476593 -0.22457314
v -0.04047032 0.00479024 -0.20181827
v -0.04971109 0.00474162 -0.22368427
v 0.04658158 0.00478246 0.10566854
v -0.04493808 0.00473870 -0.20039611
v -0.05062684 0.00465896 -0.19855912
v -0.05975661 0.00461618 -0.22048438
v -0.06602813 0.00450435 -0.21846962
v -0.07599039 0.00445184 -0.24181704
v -0.08675741 0.00438377 -0.26605332
v -0.09266818 0.00425542 -0.26415709
v 0.04666484 -0.00464989 0.10566854
v -0.09258492 -0.00507094 -0.26415709
v -0.07590714 -0.00501940 -0.24181704
v -0.06594487 -0.00498537 -0.21846962
v -0.05970111 -0.00494161 -0.22048438
v -0.05054360 -0.00490758 -0.19861838
v -0.04485483 -0.00484534 -0.20039611
v -0.04041483 -0.00478506 -0.20181827
v -0.04693609 -0.00477241 -0.22457314
v -0.04529883 -0.00473449 -0.22510645
v -0.04077557 -0.00394587 -0.22658789
v -0.03153481 -0.00391378 -0.20472190
v -0.02742780 -0.00316989 -0.20602556
v -0.01352503 -0.00064552 -0.21046986
v -0.02054579 -0.00024197 -0.23310620
v -0.00966777 0.00029675 -0.21165501
v -0.01921379 0.00025201 -0.23352100
v -0.03114631 0.00084129 -0.25639439
v -0.02304329 0.00127888 -0.23233585
v -0.05370710 0.00439836 -0.24904644
v -0.05737011 0.00468327 -0.24786130
v -0.06722137 0.00456659 -0.27245313
v -0.06880313 0.00456950 -0.27197909
v -0.06000636 0.00466188 -0.24697244
v -0.06436312 0.00462299 -0.24555026
v -0.05412335 0.00469300 -0.22226208
v 0.04352908 0.00466772 0.10566854
v -0.09799618 0.00407941 -0.26237938
v -0.06988538 0.00455492 -0.24377254
v -0.08090215 0.00447032 -0.26800883
v -0.09796843 0.00427486 -0.29064518
v -0.10354619 0.00416109 -0.28874892
v 0.04358458 -0.00460419 0.10566854
v -0.09794068 -0.00502427 -0.26237938
v -0.10346295 -0.00507386 -0.28880820
v -0.08670191 -0.00505052 -0.26605332
v -0.06980213 -0.00496884 -0.24377254
v -0.05404010 -0.00487646 -0.22232135
v -0.04962784 -0.00481325 -0.22374353
v -0.06427987 -0.00489785 -0.24560952
v -0.05992311 -0.00483076 -0.24697244
v -0.05731460 -0.00478700 -0.24786130
v -0.05567735 -0.00475005 -0.24833536
v -0.04232958 -0.00234723 -0.25272042
v -0.03111856 -0.00029059 -0.25639439
v -0.02978656 0.00021701 -0.25680918
v -0.04260708 0.00077906 -0.28051215
v -0.07135613 0.00455492 -0.27109021
v -0.07554639 0.00452672 -0.26972729
v -0.12172247 0.00030841 -0.43310004
v -0.07940365 0.00440614 -0.29686719
v -0.08087440 0.00441295 -0.29633388
v -0.08331640 0.00440517 -0.29556352
v -0.08734016 0.00438572 -0.29420060
v 0.00301401 0.00297865 0.10566854
v -0.10301894 0.00385965 -0.26072016
v -0.10848570 0.00399481 -0.28708971
v -0.09241842 0.00434488 -0.29248214
v -0.10926270 0.00409108 -0.31488144
v -0.11442421 0.00398703 -0.31310374
v -0.00026050 -0.00377959 0.10566854
v -0.10293569 -0.00492994 -0.26077944
v -0.10843021 -0.00502913 -0.28714898
v -0.09791293 -0.00504760 -0.29064518
v -0.11434096 -0.00500190 -0.31310374
v -0.10920720 -0.00497759 -0.31488144
v -0.08081890 -0.00499023 -0.26800883
v -0.07546314 -0.00491244 -0.26972729
v -0.07127288 -0.00483757 -0.27114946
v -0.06871988 -0.00478700 -0.27197909
v -0.07932040 -0.00471504 -0.29692644
v -0.06674962 -0.00469268 -0.27263090
v -0.04502133 -0.00078360 -0.27974179
v -0.04260708 -0.00034602 -0.28051215
v -0.04127508 0.00014505 -0.28098619
v -0.06647213 0.00012560 -0.33153278
v -0.09397243 -0.00006110 -0.38403487
v -0.10804170 -0.00016418 -0.40957484
v -0.12172247 -0.00083903 -0.43310004
v -0.13468175 0.00034245 -0.45330682
v -0.09183567 0.00419026 -0.32104424
v -0.07995865 0.00001864 -0.35766533
v -0.09325092 0.00419999 -0.32057017
v -0.09555417 0.00419513 -0.31974056
v -0.09930043 0.00418540 -0.31837764
v -0.10407345 0.00415429 -0.31671843
v -0.00031600 0.00283862 0.10566854
v -0.11311996 0.00378380 -0.28554904
v -0.00228626 0.00274916 0.10566854
v -0.11897522 0.00383047 -0.31150377
v -0.11547871 0.00387131 -0.33994734
v -0.12025173 0.00380811 -0.33811039
v -0.12494148 0.00370698 -0.33633265
v -0.00253601 -0.00372999 0.10566854
v -0.11303671 -0.00493481 -0.28560829
v -0.11889197 -0.00495912 -0.31150377
v -0.09233517 -0.00498051 -0.29248214
v -0.12488598 -0.00482103 -0.33633265
v -0.12016848 -0.00480353 -0.33811039
v -0.11542322 -0.00474616 -0.34000659
v -0.10401794 -0.00490758 -0.31671843
v -0.08725691 -0.00489299 -0.29420060
v -0.08323316 -0.00481131 -0.29556352
v -0.08081890 -0.00475783 -0.29639316
v -0.09319542 -0.00468295 -0.32057017
v -0.09178017 -0.00464017 -0.32104424
v -0.05365160 0.00008865 -0.30593359
v -0.13468175 -0.00102378 -0.45330682
v -0.14650327 0.00014894 -0.46906930
v -0.12721698 0.00317702 -0.38610888
v -0.11614472 0.00356403 -0.36631691
v -0.10421219 0.00391410 -0.34433240
v -0.10551645 0.00391993 -0.34385836
v -0.10762545 0.00391702 -0.34302872
v -0.11109421 0.00390243 -0.34166580
v -0.11753222 0.00354264 -0.28406760
v -0.10787520 0.00360779 -0.25917947
v -0.00417326 0.00266164 0.10566854
v -0.12313773 0.00362724 -0.31002235
v -0.12907624 0.00355237 -0.33473271
v -0.11919722 0.00355237 -0.36483547
v -0.12233298 0.00352514 -0.36341327
v -0.12627348 0.00347457 -0.36163557
v -0.13054699 0.00339775 -0.35973933
v -0.13476500 0.00328398 -0.35784310
v -0.00414551 -0.00369110 0.10566854
v -0.10781971 -0.00479964 -0.25917947
v -0.11747672 -0.00480159 -0.28412685
v -0.12305447 -0.00485993 -0.31008160
v -0.12902074 -0.00477047 -0.33473271
v -0.13470949 -0.00449236 -0.35784310
v -0.13049150 -0.00449917 -0.35973933
v -0.12621799 -0.00446513 -0.36169481
v -0.12227748 -0.00441457 -0.36347255
v -0.11103870 -0.00466837 -0.34166580
v -0.11914173 -0.00436206 -0.36483547
v -0.09924494 -0.00482103 -0.31843692
v -0.09547093 -0.00473643 -0.31974056
v -0.10546094 -0.00454487 -0.34385836
v -0.10418445 -0.00450695 -0.34433240
v -0.14650327 -0.00103156 -0.46906930
v -0.11608921 -0.00429691 -0.36631691
v -0.12716149 -0.00404214 -0.38610888
v -0.15665980 -0.00037713 -0.48074302
v -0.17000757 -0.00017876 -0.49342409
v -0.13715151 0.00278903 -0.40317503
v -0.12827149 0.00317021 -0.38545704
v -0.11731021 0.00356403 -0.36572433
v -0.12202772 0.00327426 -0.28258616
v -0.11808722 0.00303699 -0.25580180
v -0.00583826 0.00257899 0.10566854
v -0.12713374 0.00339192 -0.30865943
v -0.13282250 0.00335399 -0.33331051
v -0.13851126 0.00312451 -0.35618389
v -0.14553203 0.00243701 -0.41662645
v -0.15194228 0.00215891 -0.42604840
v -0.15713154 0.00191386 -0.43191487
v -0.14320101 0.00281723 -0.37633142
v -0.00578276 -0.00364734 0.10566854
v -0.11803173 -0.00448264 -0.25586104
v -0.12671748 -0.00448264 -0.28104547
v -0.12705049 -0.00472379 -0.30865943
v -0.13276699 -0.00466837 -0.33331051
v -0.13842800 -0.00442721 -0.35618389
v -0.14314552 -0.00410534 -0.37633142
v -0.15710379 -0.00318544 -0.43197414
v -0.15185903 -0.00334395 -0.42610765
v -0.14547652 -0.00353648 -0.41662645
v -0.13709600 -0.00377764 -0.40317503
v -0.12821598 -0.00405964 -0.38551632
v -0.11725472 -0.00432511 -0.36572433
v -0.10756995 -0.00459349 -0.34302872
v -0.16812056 -0.00100822 -0.49182415
v -0.16418006 -0.00054633 -0.48832795
v -0.16997983 -0.00023905 -0.49348336
v -0.17333758 -0.00030906 -0.49644622
v -0.17145057 -0.00020988 -0.49443147
v -0.12677298 0.00299129 -0.28104547
v -0.12319323 0.00270345 -0.25414258
v -0.01244277 0.00223573 0.10566854
v -0.13637450 0.00312645 -0.33200687
v -0.13112974 0.00313423 -0.30729651
v -0.14184126 0.00292808 -0.35476172
v -0.14655878 0.00264511 -0.37490922
v -0.17550208 -0.00035088 -0.49763137
v -0.16132180 0.00168145 -0.43588513
v -0.01238727 -0.00345480 0.10566854
v -0.12313773 -0.00427746 -0.25414258
v -0.13132399 -0.00427454 -0.27950478
v -0.13526450 -0.00439998 -0.30587432
v -0.13104649 -0.00456724 -0.30729651
v -0.13631900 -0.00452834 -0.33200687
v -0.14178576 -0.00431830 -0.35476172
v -0.14650327 -0.00402074 -0.37490922
v -0.16129404 -0.00302597 -0.43594438
v -0.17547433 -0.00094210 -0.49763137
v -0.17145057 -0.00100822 -0.49443147
v -0.16995206 -0.00098197 -0.49348336
v -0.16515131 -0.00055411 -0.48921683
v -0.17175582 -0.00061051 -0.49508330
v -0.17516908 -0.00069414 -0.49810544
v -0.17788859 -0.00072817 -0.49958688
v -0.13137950 0.00266747 -0.27950478
v -0.13532001 0.00286293 -0.30587432
v -0.12774424 0.00230671 -0.25266117
v -0.11994648 0.00228532 -0.22753601
v -0.01510678 0.00205972 0.10566854
v -0.14353402 0.00261885 -0.32939953
v -0.14497702 0.00270832 -0.35339880
v -0.14972228 0.00244479 -0.37378335
v -0.17849909 -0.00067858 -0.49846098
v -0.17827709 -0.00047437 -0.49579439
v -0.16509581 0.00143057 -0.43884802
v -0.01505128 -0.00334006 0.10566854
v -0.12768874 -0.00399449 -0.25266117
v -0.11991872 -0.00394587 -0.22753601
v -0.13545875 -0.00398963 -0.27814186
v -0.13937151 -0.00419286 -0.30451140
v -0.14347851 -0.00420161 -0.32945877
v -0.13981551 -0.00436886 -0.33070320
v -0.14492151 -0.00417827 -0.35345805
v -0.14966677 -0.00389725 -0.37384260
v -0.16506806 -0.00284316 -0.43884802
v -0.17791633 -0.00087501 -0.49792767
v -0.17333758 -0.00094016 -0.49644622
v -0.13942701 0.00255079 -0.30451140
v -0.13551424 0.00228046 -0.27814186
v -0.13126849 0.00182343 -0.25153527
v -0.12380373 0.00179911 -0.22629160
v -0.01718803 0.00185843 0.10566854
v -0.14805727 0.00247397 -0.35221362
v -0.15116528 0.00223184 -0.35102850
v -0.14708602 0.00232616 -0.32821438
v -0.15255278 0.00222989 -0.37265745
v -0.17880434 -0.00068830 -0.49626845
v -0.17827709 -0.00089154 -0.49579439
v -0.17869334 -0.00091876 -0.49265376
v -0.17894308 -0.00059106 -0.49289078
v -0.17977558 -0.00045979 -0.47653574
v -0.17916508 -0.00026142 -0.46859524
v -0.17797184 0.00012366 -0.45052171
v -0.17555758 0.00045525 -0.44720331
v -0.17244957 0.00079365 -0.44471449
v -0.16886982 0.00112621 -0.44181088
v -0.15521678 0.00200429 -0.37153155
v -0.01713253 -0.00318642 0.10566854
v -0.13124074 -0.00359969 -0.25153527
v -0.12374823 -0.00355593 -0.22629160
v -0.13865000 -0.00359483 -0.27713448
v -0.14297901 -0.00390989 -0.30326700
v -0.14703052 -0.00399643 -0.32821438
v -0.15110978 -0.00385641 -0.35102850
v -0.14800178 -0.00402074 -0.35221362
v -0.15249728 -0.00375430 -0.37265745
v -0.16884206 -0.00260783 -0.44181088
v -0.15516129 -0.00359969 -0.37153155
v -0.17242183 -0.00234042 -0.44465524
v -0.14303452 0.00217835 -0.30326700
v -0.13870551 0.00180689 -0.27707523
v -0.13340525 0.00123123 -0.25082418
v -0.12613474 0.00120886 -0.22552125
v -0.11891972 0.00116802 -0.20140347
v -0.11647771 0.00175341 -0.20223308
v -0.01874204 0.00157741 0.10566854
v -0.15785304 0.00177967 -0.37046492
v -0.15410678 0.00196151 -0.34996188
v -0.15019403 0.00197609 -0.32714775
v -0.18008083 -0.00076221 -0.47689128
v -0.17960909 -0.00067177 -0.48329109
v -0.17977558 -0.00105879 -0.47653574
v -0.17552982 -0.00205842 -0.44714406
v -0.17794408 -0.00177934 -0.44909954
v -0.17916508 -0.00129120 -0.46859524
v -0.17996983 -0.00044228 -0.46948409
v -0.17938709 -0.00018362 -0.45674375
v -0.17930384 -0.00022058 -0.46201766
v -0.17944258 -0.00014959 -0.45129207
v -0.17794408 0.00013630 -0.44904029
v -0.17547433 0.00044552 -0.44477373
v -0.17250507 0.00077614 -0.44246271
v -0.16903631 0.00110093 -0.43985540
v -0.01871429 -0.00294234 0.10566854
v -0.11644997 -0.00348592 -0.20223308
v -0.13337749 -0.00305806 -0.25082418
v -0.12607923 -0.00302208 -0.22558051
v -0.11889197 -0.00296374 -0.20146273
v -0.14059252 -0.00305611 -0.27648264
v -0.14580952 -0.00352287 -0.30231887
v -0.15013853 -0.00372513 -0.32714775
v -0.15405129 -0.00366290 -0.34996188
v -0.15782529 -0.00344022 -0.37052417
v -0.16331980 -0.00303375 -0.38764960
v -0.16900857 -0.00259617 -0.43985540
v -0.17247732 -0.00233556 -0.44246271
v -0.14586502 0.00172229 -0.30231887
v -0.14062026 0.00121956 -0.27648264
v -0.13462625 0.00019173 -0.25040936
v -0.12746674 0.00018006 -0.22510645
v -0.12036273 0.00016158 -0.20098868
v -0.10149269 0.00041830 -0.14054608
v -0.11203770 0.00112037 -0.17900416
v -0.10573845 0.00106884 -0.15867886
v -0.09083667 0.00100369 -0.11162847
v -0.08492590 0.00101049 -0.09343643
v -0.02834355 0.00112913 0.08001009
v -0.02193329 0.00107856 0.10003909
v -0.02049029 0.00078295 0.10566854
v -0.16032280 0.00153559 -0.36957607
v -0.16334756 0.00134986 -0.38764960
v -0.15668754 0.00164742 -0.34901375
v -0.15258053 0.00154823 -0.32631814
v -0.18010859 -0.00095377 -0.46966186
v -0.18035834 -0.00102476 -0.45763260
v -0.18041384 -0.00104420 -0.45431420
v -0.18021959 -0.00063968 -0.46296579
v -0.17930384 -0.00137579 -0.46201766
v -0.17941484 -0.00148665 -0.45348459
v -0.18005309 -0.00118229 -0.46284726
v -0.16540106 -0.00285969 -0.38705701
v -0.17544658 -0.00205940 -0.44477373
v -0.17938709 -0.00152360 -0.45034394
v -0.17530783 -0.00205745 -0.44098127
v -0.17508583 -0.00205065 -0.43481851
v -0.17447533 -0.00207204 -0.42622617
v -0.17774983 -0.00178615 -0.44655147
v -0.18013634 -0.00041117 -0.45739558
v -0.18021959 -0.00078652 -0.45046246
v -0.17913733 -0.00014473 -0.44761810
v -0.17697284 0.00010226 -0.43600366
v -0.17450307 0.00036773 -0.42622617
v -0.17511357 0.00038232 -0.43481851
v -0.17533557 0.00042413 -0.44098127
v -0.17142282 0.00065848 -0.41496727
v -0.16923057 0.00080531 -0.40222692
v -0.16542882 0.00112426 -0.38705701
v -0.02007404 -0.00245517 0.10566854
v -0.02190554 -0.00248045 0.10003909
v -0.02831580 -0.00255824 0.08001009
v -0.08489816 -0.00268368 -0.09343643
v -0.10568294 -0.00282371 -0.15867886
v -0.11200996 -0.00289372 -0.17900416
v -0.12743899 -0.00202925 -0.22510645
v -0.13462625 -0.00204967 -0.25040936
v -0.12033497 -0.00199133 -0.20098868
v -0.10146494 -0.00218581 -0.14054608
v -0.11353621 -0.00194854 -0.17853011
v -0.14170252 -0.00204870 -0.27612710
v -0.14753002 -0.00299583 -0.30178556
v -0.15255278 -0.00335562 -0.32631814
v -0.15665980 -0.00341104 -0.34901375
v -0.16029505 -0.00325935 -0.36963534
v -0.14755778 0.00115344 -0.30178556
v -0.14173026 0.00018297 -0.27612710
v -0.10196444 -0.00155180 -0.14042757
v -0.11353621 0.00013727 -0.17853011
v -0.10726470 0.00011491 -0.15820481
v -0.09716368 0.00008671 -0.12585025
v -0.09247392 0.00008962 -0.11109515
v -0.08661866 0.00009740 -0.09290311
v -0.04113633 0.00050873 0.04516670
v -0.02340404 0.00050581 0.09849840
v -0.03034156 0.00052040 0.07787681
v -0.02126729 -0.00037227 0.10566854
v -0.16243181 0.00125554 -0.36886498
v -0.15871330 0.00126235 -0.34836191
v -0.15405129 0.00101633 -0.32584408
v -0.18002534 -0.00129120 -0.45034394
v -0.16717707 -0.00265257 -0.38658297
v -0.16920282 -0.00253588 -0.40222692
v -0.16240405 -0.00303180 -0.36886498
v -0.17139508 -0.00235987 -0.41496727
v -0.17744458 -0.00179393 -0.44258124
v -0.17694508 -0.00180365 -0.43600366
v -0.17872109 -0.00154694 -0.44347009
v -0.17317107 -0.00215664 -0.41538206
v -0.17980334 -0.00129800 -0.44815141
v -0.17952584 -0.00091390 -0.44406265
v -0.17552982 -0.00029059 -0.41597462
v -0.17605709 0.00010713 -0.42705578
v -0.17317107 0.00041635 -0.41538206
v -0.17086782 0.00057388 -0.40216768
v -0.16720481 0.00087533 -0.38658297
v -0.02101754 -0.00168210 0.10566854
v -0.02337629 -0.00193201 0.09849840
v -0.03034156 -0.00198063 0.07787681
v -0.04110858 -0.00201856 0.04516670
v -0.09078117 -0.00270021 -0.11162847
v -0.09549868 -0.00272452 -0.12638357
v -0.07851565 -0.00179490 -0.06807426
v -0.08659092 -0.00181241 -0.09290311
v -0.09244617 -0.00182602 -0.11109515
v -0.09713593 -0.00184352 -0.12585025
v -0.10726470 -0.00190576 -0.15820481
v -0.14855677 0.00015088 -0.30143002
v -0.14852902 -0.00201758 -0.30143002
v -0.15399578 -0.00286261 -0.32584408
v -0.15868555 -0.00307751 -0.34836191
v -0.04180233 -0.00060176 0.04475190
v -0.06716587 0.00013824 -0.03329013
v -0.05423435 0.00016644 0.00617531
v -0.03109081 -0.00057939 0.07710645
v -0.02398679 -0.00087306 0.09802434
v -0.16404131 0.00092395 -0.36833167
v -0.15488379 0.00007990 -0.32548854
v -0.16529006 0.00017131 -0.36791688
v -0.16023955 0.00037648 -0.34776932
v -0.16850907 -0.00240071 -0.38628668
v -0.17084007 -0.00234042 -0.40216768
v -0.16401356 -0.00273911 -0.36833167
v -0.17602932 -0.00184255 -0.42705578
v -0.17447533 -0.00193687 -0.41573763
v -0.17550208 -0.00149929 -0.41597462
v -0.17725033 -0.00087792 -0.42764837
v -0.16956356 -0.00180463 -0.38604963
v -0.16959132 -0.00003096 -0.38604963
v -0.17256057 0.00006045 -0.40204912
v -0.17450307 0.00016742 -0.41573763
v -0.16853681 0.00058750 -0.38628668
v -0.05423435 -0.00158000 0.00617531
v -0.06716587 -0.00177156 -0.03329013
v -0.15488379 -0.00194660 -0.32554781
v -0.16021180 -0.00222957 -0.34782860
v -0.16529006 -0.00201953 -0.36791688
v -0.17253283 -0.00186686 -0.40204912
f 1 2 3
f 1 3 4
f 1 4 5
f 1 5 6
f 1 6 7
f 1 7 8
f 1 8 9
f 1 9 10
f 1 10 11
f 1 11 12
f 1 12 13
f 1 13 14
f 1 14 15
f 1 15 16
f 1 16 17
f 1 17 18
f 1 18 19
f 1 19 2
f 2 20 21
f 2 21 22
f 2 22 23
f 2 23 24
f 2 24 25
f 2 25 26
f 2 26 27
f 2 27 28
f 2 28 29
f 2 29 30
f 2 30 3
f 2 19 31
f 2 31 32
f 2 32 33
f 2 33 34
f 2 34 20
f 3 30 35
f 3 35 4
f 4 36 5
f 4 35 37
f 4 37 27
f 4 27 26
f 4 26 25
f 4 25 38
f 4 38 39
f 4 39 40
f 4 40 41
f 4 41 36
f 5 36 42
f 5 42 43
f 5 43 6
f 6 43 7
f 7 43 8
f 8 43 9
f 9 43 42
f 9 42 56
f 9 56 73
f 9 73 107
f 9 107 135
f 9 135 167
f 9 167 169
f 9 169 198
f 9 198 231
f 9 231 260
f 9 260 287
f 9 287 310
f 9 310 344
f 9 344 387
f 9 387 443
f 9 443 463
f 9 463 416
f 9 416 362
f 9 362 326
f 9 326 294
f 9 294 267
f 9 267 239
f 9 239 206
f 9 206 174
f 9 174 141
f 9 141 113
f 9 113 81
f 9 81 57
f 9 57 44
f 9 44 51
f 9 51 31
f 9 31 19
f 9 19 18
f 9 18 17
f 9 17 16
f 9 16 15
f 9 15 14
f 9 14 13
f 9 13 12
f 9 12 11
f 9 11 10
f 20 34 44
f 20 44 21
f 21 44 22
f 22 44 23
f 23 44 45
f 23 45 24
f 24 45 46
f 24 46 47
f 24 47 25
f 25 47 38
f 27 37 28
f 28 48 29
f 28 37 48
f 29 48 49
f 29 49 50
f 29 50 35
f 29 35 30
f 31 51 32
f 32 51 33
f 33 51 34
f 34 51 44
f 35 50 37
f 36 41 42
f 37 50 49
f 37 49 48
f 38 47 52
f 38 52 53
f 38 53 54
f 38 54 39
f 39 54 42
f 39 42 40
f 40 42 41
f 42 54 55
f 42 55 56
f 44 57 58
f 44 58 45
f 45 58 59
f 45 59 60
f 45 60 61
f 45 61 46
f 46 61 62
f 46 62 47
f 47 62 63
f 47 63 64
f 47 64 52
f 52 64 65
f 52 65 66
f 52 66 67
f 52 67 53
f 53 67 68
f 53 68 69
f 53 69 70
f 53 70 55
f 53 55 54
f 55 71 56
f 55 70 72
f 55 72 71
f 56 71 74
f 56 74 75
f 56 75 76
f 56 76 77
f 56 77 78
f 56 78 79
f 56 79 80
f 56 80 73
f 57 81 82
f 57 82 83
f 57 83 84
f 57 84 85
f 57 85 86
f 57 86 87
f 57 87 88
f 57 88 59
f 57 59 58
f 59 88 89
f 59 89 60
f 60 89 90
f 60 90 61
f 61 90 91
f 61 91 92
f 61 92 62
f 62 92 93
f 62 93 94
f 62 94 95
f 62 95 96
f 62 96 63
f 63 96 64
f 64 96 97
f 64 97 65
f 65 97 98
f 65 98 99
f 65 99 67
f 65 67 66
f 67 99 98
f 67 98 100
f 67 100 69
f 67 69 68
f 69 101 70
f 69 100 102
f 69 102 103
f 69 103 101
f 70 101 104
f 70 104 105
f 70 105 72
f 71 72 106
f 71 106 74
f 72 105 106
f 73 80 108
f 73 108 107
f 74 106 76
f 74 76 75
f 76 106 109
f 76 109 78
f 76 78 77
f 78 109 79
f 79 110 111
f 79 111 112
f 79 112 80
f 79 109 110
f 80 112 108
f 81 113 114
f 81 114 82
f 82 114 115
f 82 115 116
f 82 116 83
f 83 85 84
f 83 116 85
f 85 116 117
f 85 117 118
f 85 118 87
f 85 87 86
f 87 118 88
f 88 118 119
f 88 119 89
f 89 119 120
f 89 120 121
f 89 121 122
f 89 122 123
f 89 123 90
f 90 123 91
f 91 95 94
f 91 94 93
f 91 93 92
f 91 123 124
f 91 124 125
f 91 125 95
f 95 97 96
f 95 125 97
f 97 125 126
f 97 126 98
f 98 126 127
f 98 127 100
f 100 127 102
f 101 103 128
f 101 128 129
f 101 129 104
f 102 127 130
f 102 130 131
f 102 131 132
f 102 132 103
f 103 132 133
f 103 133 134
f 103 134 128
f 104 129 105
f 105 109 106
f 105 129 110
f 105 110 109
f 107 108 136
f 107 136 135
f 108 112 137
f 108 137 136
f 110 129 138
f 110 138 111
f 111 138 139
f 111 139 140
f 111 140 112
f 112 140 137
f 113 141 142
f 113 142 114
f 114 142 143
f 114 143 115
f 115 144 116
f 115 143 145
f 115 145 146
f 115 146 144
f 116 144 147
f 116 147 117
f 117 120 118
f 117 147 120
f 118 120 119
f 120 147 148
f 120 148 121
f 121 148 122
f 122 148 149
f 122 149 150
f 122 150 123
f 123 150 151
f 123 151 152
f 123 152 153
f 123 153 124
f 124 153 154
f 124 154 125
f 125 154 155
f 125 155 126
f 126 155 127
f 127 155 156
f 127 156 130
f 128 134 129
f 129 134 138
f 130 157 158
f 130 158 159
f 130 159 188
f 130 188 160
f 130 160 161
f 130 161 131
f 130 156 162
f 130 162 157
f 131 161 163
f 131 163 132
f 132 163 164
f 132 164 165
f 132 165 133
f 133 165 134
f 134 165 166
f 134 166 138
f 135 136 167
f 136 137 168
f 136 168 169
f 136 169 167
f 137 140 170
f 137 170 168
f 138 166 139
f 139 166 171
f 139 171 172
f 139 172 140
f 140 172 173
f 140 173 170
f 141 174 142
f 142 175 143
f 142 174 175
f 143 175 176
f 143 176 145
f 144 177 147
f 144 146 177
f 145 176 178
f 145 178 179
f 145 179 146
f 146 179 180
f 146 180 181
f 146 181 177
f 147 177 148
f 148 177 182
f 148 182 149
f 149 182 150
f 150 182 183
f 150 183 184
f 150 184 151
f 151 184 185
f 151 185 186
f 151 186 159
f 151 159 152
f 152 159 153
f 153 159 154
f 154 159 162
f 154 162 187
f 154 187 155
f 155 187 156
f 156 187 162
f 157 159 158
f 157 162 159
f 159 186 188
f 160 188 221
f 160 221 189
f 160 189 190
f 160 190 191
f 160 191 192
f 160 192 161
f 161 192 163
f 163 192 193
f 163 193 194
f 163 194 164
f 164 194 165
f 165 194 195
f 165 195 166
f 166 195 171
f 168 196 197
f 168 197 198
f 168 198 169
f 168 170 199
f 168 199 196
f 170 173 200
f 170 200 199
f 171 195 201
f 171 201 202
f 171 202 172
f 172 202 203
f 172 203 204
f 172 204 173
f 173 204 205
f 173 205 200
f 174 206 207
f 174 207 175
f 175 207 208
f 175 208 209
f 175 209 176
f 176 209 210
f 176 210 178
f 177 181 182
f 178 210 211
f 178 211 212
f 178 212 179
f 179 212 213
f 179 213 214
f 179 214 180
f 180 215 181
f 180 214 216
f 180 216 215
f 181 215 217
f 181 217 182
f 182 217 183
f 183 217 184
f 184 217 218
f 184 218 185
f 185 218 219
f 185 219 220
f 185 220 186
f 186 220 188
f 188 220 222
f 188 222 223
f 188 223 221
f 189 221 224
f 189 224 225
f 189 225 226
f 189 226 190
f 190 226 227
f 190 227 201
f 190 201 228
f 190 228 191
f 191 228 194
f 191 194 193
f 191 193 192
f 194 228 195
f 195 228 201
f 196 229 230
f 196 230 231
f 196 231 197
f 196 199 232
f 196 232 229
f 197 231 198
f 199 200 233
f 199 233 232
f 200 205 234
f 200 234 233
f 201 227 202
f 202 227 203
f 203 227 226
f 203 226 204
f 204 226 235
f 204 235 236
f 204 236 205
f 205 236 237
f 205 237 238
f 205 238 234
f 206 239 207
f 207 240 208
f 207 239 240
f 208 240 241
f 208 241 242
f 208 242 209
f 209 242 243
f 209 243 210
f 210 243 244
f 210 244 211
f 211 244 245
f 211 245 246
f 211 246 247
f 211 247 248
f 211 248 212
f 212 248 249
f 212 249 213
f 213 249 250
f 213 250 214
f 214 250 223
f 214 223 216
f 215 216 251
f 215 251 252
f 215 252 217
f 216 223 251
f 217 252 219
f 217 219 218
f 219 252 222
f 219 222 220
f 221 253 224
f 221 223 249
f 221 249 253
f 222 252 251
f 222 251 223
f 223 250 249
f 224 253 254
f 224 254 225
f 225 254 255
f 225 255 256
f 225 256 257
f 225 257 236
f 225 236 235
f 225 235 226
f 229 232 258
f 229 258 230
f 230 258 259
f 230 259 260
f 230 260 231
f 232 233 261
f 232 261 262
f 232 262 258
f 233 234 263
f 233 263 261
f 234 238 264
f 234 264 263
f 236 257 265
f 236 265 237
f 237 266 238
f 237 265 266
f 238 266 264
f 239 267 240
f 240 268 241
f 240 267 268
f 241 268 269
f 241 269 270
f 241 270 271
f 241 271 242
f 242 271 243
f 243 271 272
f 243 272 273
f 243 273 244
f 244 273 274
f 244 274 245
f 245 274 246
f 246 275 276
f 246 276 247
f 246 274 275
f 247 276 277
f 247 277 253
f 247 253 248
f 248 253 249
f 253 277 278
f 253 278 279
f 253 279 254
f 254 279 255
f 255 280 281
f 255 281 256
f 255 279 280
f 256 281 282
f 256 282 265
f 256 265 257
f 258 283 259
f 258 262 284
f 258 284 283
f 259 283 285
f 259 285 286
f 259 286 287
f 259 287 260
f 261 288 284
f 261 284 262
f 261 263 289
f 261 289 288
f 263 264 290
f 263 290 289
f 264 266 290
f 265 282 291
f 265 291 292
f 265 292 293
f 265 293 266
f 266 293 290
f 267 294 268
f 268 295 269
f 268 294 296
f 268 296 295
f 269 295 297
f 269 297 298
f 269 298 270
f 270 298 299
f 270 299 300
f 270 300 272
f 270 272 271
f 272 300 301
f 272 301 273
f 273 301 302
f 273 302 274
f 274 302 275
f 275 303 304
f 275 304 276
f 275 302 303
f 276 304 282
f 276 282 305
f 276 305 277
f 277 305 278
f 278 305 281
f 278 281 280
f 278 280 279
f 281 305 282
f 282 304 291
f 283 284 306
f 283 306 307
f 283 307 285
f 284 288 306
f 285 307 308
f 285 308 309
f 285 309 286
f 286 309 310
f 286 310 287
f 288 289 311
f 288 311 312
f 288 312 313
f 288 313 306
f 289 290 314
f 289 314 311
f 290 293 314
f 291 315 292
f 291 304 316
f 291 316 317
f 291 317 315
f 292 315 318
f 292 318 319
f 292 319 320
f 292 320 321
f 292 321 322
f 292 322 323
f 292 323 324
f 292 324 293
f 293 324 325
f 293 325 314
f 294 326 296
f 295 327 297
f 295 296 328
f 295 328 327
f 296 326 328
f 297 329 330
f 297 330 298
f 297 327 329
f 298 330 331
f 298 331 299
f 299 331 332
f 299 332 333
f 299 333 301
f 299 301 300
f 301 333 334
f 301 334 302
f 302 334 303
f 303 335 304
f 303 334 336
f 303 336 335
f 304 335 337
f 304 337 316
f 306 313 338
f 306 338 307
f 307 339 308
f 307 338 339
f 308 339 340
f 308 340 341
f 308 341 309
f 309 341 342
f 309 342 343
f 309 343 310
f 310 343 344
f 311 314 312
f 312 314 325
f 312 325 345
f 312 345 346
f 312 346 313
f 313 347 338
f 313 346 347
f 315 348 349
f 315 349 318
f 315 317 350
f 315 350 348
f 316 337 351
f 316 351 317
f 317 351 352
f 317 352 353
f 317 353 350
f 318 349 319
f 319 349 348
f 319 348 354
f 319 354 355
f 319 355 356
f 319 356 320
f 320 356 321
f 321 356 355
f 321 355 357
f 321 357 358
f 321 358 322
f 322 358 359
f 322 359 360
f 322 360 323
f 323 360 361
f 323 361 324
f 324 361 345
f 324 345 325
f 326 362 363
f 326 363 328
f 327 364 329
f 327 328 365
f 327 365 364
f 328 363 366
f 328 366 365
f 329 364 367
f 329 367 368
f 329 368 330
f 330 368 369
f 330 369 331
f 331 369 370
f 331 370 332
f 332 370 371
f 332 371 336
f 332 336 334
f 332 334 333
f 335 336 371
f 335 371 372
f 335 372 373
f 335 373 337
f 337 373 372
f 337 372 374
f 337 374 351
f 338 347 375
f 338 375 339
f 339 375 376
f 339 376 340
f 340 376 377
f 340 377 378
f 340 378 341
f 341 378 379
f 341 379 342
f 342 379 380
f 342 380 381
f 342 381 343
f 343 381 344
f 344 381 382
f 344 382 383
f 344 383 384
f 344 384 385
f 344 385 386
f 344 386 387
f 345 388 346
f 345 361 389
f 345 389 388
f 346 388 390
f 346 390 347
f 347 391 375
f 347 390 391
f 348 350 392
f 348 392 393
f 348 393 394
f 348 394 395
f 348 395 354
f 350 353 396
f 350 396 397
f 350 397 398
f 350 398 392
f 351 374 399
f 351 399 400
f 351 400 352
f 352 401 397
f 352 397 396
f 352 396 353
f 352 400 402
f 352 402 403
f 352 403 404
f 352 404 405
f 352 405 401
f 354 395 406
f 354 406 357
f 354 357 355
f 357 406 407
f 357 407 408
f 357 408 358
f 358 408 409
f 358 409 410
f 358 410 411
f 358 411 412
f 358 412 359
f 359 412 413
f 359 413 414
f 359 414 415
f 359 415 360
f 360 415 389
f 360 389 361
f 362 416 417
f 362 417 418
f 362 418 419
f 362 419 420
f 362 420 421
f 362 421 363
f 363 421 366
f 364 365 422
f 364 422 423
f 364 423 367
f 365 366 424
f 365 424 422
f 366 421 425
f 366 425 426
f 366 426 424
f 367 427 428
f 367 428 368
f 367 423 427
f 368 428 429
f 368 429 369
f 369 429 430
f 369 430 370
f 370 430 431
f 370 431 371
f 371 431 372
f 372 399 374
f 372 431 399
f 375 391 432
f 375 432 376
f 376 433 377
f 376 432 433
f 377 423 378
f 377 433 423
f 378 423 422
f 378 422 379
f 379 434 435
f 379 435 380
f 379 422 424
f 379 424 426
f 379 426 434
f 380 382 381
f 380 435 436
f 380 436 437
f 380 437 438
f 380 438 439
f 380 439 440
f 380 440 383
f 380 383 382
f 383 440 384
f 384 440 385
f 385 440 386
f 386 441 387
f 386 440 442
f 386 442 441
f 387 441 443
f 388 444 390
f 388 389 415
f 388 415 444
f 390 444 445
f 390 445 391
f 391 446 432
f 391 445 446
f 392 398 393
f 393 398 394
f 394 407 406
f 394 406 395
f 394 398 447
f 394 447 407
f 397 401 398
f 398 401 447
f 399 448 449
f 399 449 400
f 399 431 450
f 399 450 448
f 400 449 451
f 400 451 402
f 401 405 452
f 401 452 453
f 401 453 454
f 401 454 447
f 402 451 403
f 403 451 404
f 404 453 452
f 404 452 405
f 404 451 449
f 404 449 455
f 404 455 453
f 407 447 456
f 407 456 457
f 407 457 458
f 407 458 408
f 408 458 459
f 408 459 409
f 409 459 460
f 409 460 410
f 410 412 411
f 410 460 461
f 410 461 414
f 410 414 413
f 410 413 412
f 414 461 462
f 414 462 415
f 415 462 444
f 416 463 464
f 416 464 465
f 416 465 417
f 417 465 466
f 417 466 418
f 418 466 419
f 419 466 425
f 419 425 467
f 419 467 420
f 420 467 468
f 420 468 425
f 420 425 421
f 423 433 427
f 425 468 467
f 425 466 469
f 425 469 470
f 425 470 471
f 425 471 472
f 425 472 473
f 425 473 426
f 426 473 434
f 427 433 474
f 427 474 475
f 427 475 428
f 428 475 476
f 428 476 429
f 429 476 477
f 429 477 430
f 430 477 450
f 430 450 431
f 432 446 474
f 432 474 433
f 434 472 471
f 434 471 470
f 434 470 439
f 434 439 438
f 434 438 437
f 434 437 436
f 434 436 435
f 434 473 472
f 439 470 469
f 439 469 478
f 439 478 479
f 439 479 440
f 440 479 480
f 440 480 442
f 441 442 481
f 441 481 443
f 442 480 481
f 443 481 482
f 443 482 463
f 444 483 445
f 444 462 483
f 445 483 446
f 446 484 474
f 446 483 485
f 446 485 486
f 446 486 484
f 447 454 456
f 448 487 488
f 448 488 449
f 448 450 489
f 448 489 487
f 449 488 455
f 450 477 489
f 453 455 490
f 453 490 454
f 454 490 491
f 454 491 492
f 454 492 456
f 455 488 491
f 455 491 490
f 456 492 457
f 457 493 458
f 457 492 493
f 458 493 492
f 458 492 494
f 458 494 495
f 458 495 496
f 458 496 497
f 458 497 459
f 459 497 460
f 460 497 461
f 461 497 498
f 461 498 462
f 462 498 483
f 463 482 464
f 464 482 465
f 465 481 478
f 465 478 499
f 465 499 500
f 465 500 466
f 465 482 481
f 466 500 469
f 469 500 478
f 474 484 501
f 474 501 475
f 475 501 476
f 476 501 502
f 476 502 503
f 476 503 489
f 476 489 477
f 478 481 480
f 478 480 479
f 478 500 499
f 483 498 495
f 483 495 485
f 484 486 485
f 484 485 503
f 484 503 501
f 485 495 503
f 487 494 504
f 487 504 491
f 487 491 488
f 487 489 503
f 487 503 494
f 491 504 492
f 492 504 494
f 494 503 495
f 495 498 496
f 496 498 497
f 501 503 502

