# https://github.com/mikedh/trimesh
v 0.18038130 0.00045839 0.47890225
v 0.18004936 0.00485003 0.47897947
v 0.17908375 0.00461344 0.48132223
v 0.17937042 0.00044360 0.48121926
v 0.17914410 -0.00371885 0.48129648
v 0.18012480 -0.00392586 0.47897947
v 0.17410478 -0.00424377 0.45413601
v 0.17436129 0.00046578 0.45403302
v 0.17402935 0.00518273 0.45413601
v 0.17920445 0.00916034 0.47923693
v 0.17826901 0.00869456 0.48157969
v 0.17541742 0.00777040 0.48335606
v 0.17614163 0.00412548 0.48312438
v 0.17641321 0.00040663 0.48304713
v 0.17620198 -0.00331221 0.48312438
v 0.17840481 -0.00782954 0.48155394
v 0.17934024 -0.00825836 0.47921118
v 0.17325987 -0.00889418 0.45439345
v 0.16983494 -0.00912338 0.44190735
v 0.17069495 -0.00436207 0.44164988
v 0.17096654 0.00046578 0.44154692
v 0.17060442 0.00529363 0.44164988
v 0.16968407 0.01003276 0.44193310
v 0.17310899 0.00981096 0.45441920
v 0.17783147 0.01331540 0.47967458
v 0.17164548 0.01426914 0.45488259
v 0.17697147 0.01264260 0.48196584
v 0.17425567 0.01129702 0.48371649
v 0.17157003 0.01015105 0.48477203
v 0.17249039 0.00701628 0.48448882
v 0.17303357 0.00373363 0.48433435
v 0.17321461 0.00036227 0.48428285
v 0.17553812 -0.00697931 0.48333031
v 0.17309391 -0.00299430 0.48430860
v 0.17259601 -0.00629912 0.48446307
v 0.17443672 -0.01052811 0.48366499
v 0.17716759 -0.01180716 0.48191437
v 0.17804269 -0.01244298 0.47962311
v 0.17185670 -0.01338933 0.45483109
v 0.16840161 -0.01372943 0.44234499
v 0.16450897 -0.00928603 0.42468423
v 0.16538405 -0.00445079 0.42442679
v 0.16564055 0.00045839 0.42432380
v 0.16529353 0.00536756 0.42442679
v 0.16434300 0.01018062 0.42473572
v 0.16281913 0.01483103 0.42519912
v 0.16817529 0.01460184 0.44239646
v 0.17596059 0.01724865 0.48024097
v 0.16612336 0.01892694 0.44304010
v 0.16963881 0.01849073 0.45550045
v 0.17519110 0.01636885 0.48250648
v 0.17267145 0.01462402 0.48417988
v 0.17024231 0.01307142 0.48518392
v 0.16883916 0.00920470 0.48569882
v 0.16929179 0.00645438 0.48557007
v 0.16948792 -0.00280947 0.48551860
v 0.16939741 -0.00581856 0.48554435
v 0.17173600 -0.00944868 0.48474628
v 0.17045355 -0.01240602 0.48513243
v 0.17291285 -0.01389947 0.48412839
v 0.17546269 -0.01557776 0.48245502
v 0.17623216 -0.01642060 0.48018947
v 0.16992548 -0.01765529 0.45542324
v 0.16641003 -0.01809889 0.44296286
v 0.16102369 -0.01841680 0.42576551
v 0.16304545 -0.01397341 0.42514762
v 0.15535069 -0.01403994 0.40254390
v 0.15681420 -0.00933778 0.40210626
v 0.15768930 -0.00448036 0.40182307
v 0.15796088 0.00044360 0.40174583
v 0.15761386 0.00536017 0.40184882
v 0.15666333 0.01019541 0.40213200
v 0.16072193 0.01922267 0.42584273
v 0.15512437 0.01486061 0.40259540
v 0.15302718 0.01925964 0.40323901
v 0.17362198 0.02087878 0.48096180
v 0.15809667 0.02327422 0.42664081
v 0.16352826 0.02291934 0.44381243
v 0.16711915 0.02238702 0.45627278
v 0.17297320 0.01982153 0.48317584
v 0.17067987 0.01769965 0.48479775
v 0.16846196 0.01571823 0.48572457
v 0.16633458 0.01811367 0.48639393
v 0.16790372 0.01164450 0.48598200
v 0.16434300 0.01556297 0.48708904
v 0.14936085 0.01831329 0.49169731
v 0.15192577 -0.00842840 0.49092495
v 0.15771946 -0.01985111 0.48914859
v 0.16247211 -0.01690117 0.48768115
v 0.16897494 -0.00857627 0.48567307
v 0.16871846 -0.01509719 0.48567307
v 0.17096654 -0.01701946 0.48472053
v 0.17327496 -0.01907481 0.48312438
v 0.17395391 -0.02010248 0.48088458
v 0.16746616 -0.02161811 0.45616981
v 0.15847386 -0.02253489 0.42656359
v 0.16389036 -0.02215043 0.44373518
v 0.15076400 -0.02263100 0.40395987
v 0.15332893 -0.01849073 0.40318754
v 0.14287311 -0.01823197 0.37445661
v 0.14486469 -0.01384772 0.37383875
v 0.14629802 -0.00921949 0.37340108
v 0.14717312 -0.00444339 0.37311789
v 0.14742962 0.00040663 0.37304068
v 0.14709768 0.00525666 0.37314364
v 0.14614715 0.01001058 0.37342682
v 0.14463837 0.01460184 0.37389022
v 0.15038681 0.02333337 0.40406284
v 0.14257134 0.01894173 0.37453383
v 0.17083074 0.02415403 0.48181140
v 0.17033285 0.02292673 0.48399967
v 0.16413178 0.02589886 0.45717385
v 0.15500367 0.02694132 0.42759335
v 0.16048053 0.02651990 0.44476497
v 0.16834125 0.02047215 0.48551860
v 0.16565564 0.02290455 0.48634243
v 0.16393563 0.02025035 0.48711476
v 0.15738754 0.02019859 0.48922580
v 0.15987702 0.01895651 0.48845348
v 0.16631949 0.01370724 0.48647115
v 0.14389908 0.02093053 0.49337068
v 0.13653624 0.01703425 0.49563622
v 0.13093868 0.01117872 0.49736109
v 0.14494014 0.01039503 0.49306175
v 0.14424610 -0.02091575 0.49329346
v 0.15242366 -0.02137413 0.49077049
v 0.15510929 -0.02079006 0.48994666
v 0.15886614 -0.02311157 0.48871094
v 0.16426757 -0.01974021 0.48703754
v 0.16662125 -0.01754439 0.48631668
v 0.16653073 -0.01313796 0.48641968
v 0.16865811 -0.01985111 0.48544139
v 0.17069495 -0.02224655 0.48392242
v 0.17122301 -0.02345166 0.48173416
v 0.16453914 -0.02520388 0.45707089
v 0.16090299 -0.02582492 0.44466200
v 0.15542613 -0.02626852 0.42749038
v 0.14771628 -0.02637942 0.40491241
v 0.14033836 -0.02230570 0.37522894
v 0.08941714 -0.02022817 0.23687774
v 0.09155960 -0.01711557 0.23687774
v 0.09392838 -0.01260564 0.23687774
v 0.09536172 -0.00842840 0.23687774
v 0.09649330 0.00023659 0.23687774
v 0.09614629 -0.00455429 0.23687774
v 0.09614629 0.00459866 0.23687774
v 0.09521084 0.00888679 0.23687774
v 0.09344558 0.01352981 0.23687774
v 0.09165013 0.01693074 0.23687774
v 0.13996117 0.02294152 0.37533194
v 0.13689835 0.02656426 0.37625873
v 0.14727873 0.02700786 0.40501541
v 0.16767740 0.02702264 0.48278970
v 0.16734546 0.02564748 0.48492646
v 0.16075212 0.02898188 0.45820364
v 0.15147313 0.03014263 0.42867464
v 0.15701035 0.02966946 0.44582051
v 0.14373311 0.03022396 0.40609667
v 0.16271353 0.02494512 0.48724347
v 0.16131036 0.02206171 0.48791283
v 0.15848894 0.02348863 0.48878816
v 0.15550157 0.02450891 0.48971498
v 0.15242366 0.02511516 0.49066752
v 0.15477735 0.02107101 0.49002391
v 0.14933068 0.02173641 0.49169731
v 0.14928541 0.02530000 0.49162006
v 0.14308433 0.02435365 0.49352515
v 0.14011204 0.02325943 0.49445194
v 0.14128889 0.01998419 0.49416876
v 0.13471062 0.01988068 0.49609959
v 0.13235693 0.01769225 0.49682045
v 0.13442396 0.01518591 0.49627984
v 0.13025974 0.01524506 0.49746406
v 0.12853973 0.01255388 0.49800470
v 0.12724218 0.00959655 0.49841660
v 0.12952043 0.00294994 0.49779874
v 0.12971658 -0.00629912 0.49774724
v 0.14160573 -0.02003594 0.49409154
v 0.13765274 -0.02191385 0.49522430
v 0.14048924 -0.02334076 0.49434900
v 0.14656961 -0.02496730 0.49249536
v 0.13466536 -0.01540771 0.49622834
v 0.15283103 -0.02489336 0.49056453
v 0.15995246 -0.02614284 0.48811880
v 0.16312090 -0.02445716 0.48714051
v 0.16167247 -0.02161811 0.48783562
v 0.15589385 -0.02421318 0.48961198
v 0.15663315 -0.02738492 0.48914859
v 0.16603282 -0.02235005 0.48626518
v 0.16775283 -0.02504123 0.48482350
v 0.16811495 -0.02640160 0.48268670
v 0.16120474 -0.02836823 0.45810065
v 0.15749316 -0.02906320 0.44571751
v 0.15195595 -0.02956595 0.42857164
v 0.14423101 -0.02968424 0.40599370
v 0.13389589 -0.02924804 0.37721127
v 0.13732080 -0.02599497 0.37615576
v 0.08642976 -0.02356256 0.23687774
v 0.08851188 0.02114494 0.23687774
v 0.08600730 0.02380654 0.23687774
v 0.08253712 0.02666037 0.23687774
v 0.13341308 0.02972860 0.37733999
v 0.16420721 0.02942548 0.48387095
v 0.16402616 0.02793202 0.48593050
v 0.15701035 0.03156954 0.45936215
v 0.15319315 0.03232367 0.44700477
v 0.14758049 0.03283381 0.42985889
v 0.13982537 0.03292252 0.40730667
v 0.12958078 0.03239021 0.37852424
v 0.15953000 0.02654947 0.48822176
v 0.16046545 0.02972860 0.48703754
v 0.15618052 0.02770283 0.48925155
v 0.15271033 0.02839041 0.49033284
v 0.14919488 0.02859742 0.49141410
v 0.14567943 0.02830169 0.49249536
v 0.14616224 0.02504123 0.49257261
v 0.14222433 0.02753278 0.49355090
v 0.13887484 0.02629070 0.49458069
v 0.13730572 0.02176598 0.49530154
v 0.13279447 0.02249792 0.49643427
v 0.13016921 0.01999158 0.49725813
v 0.12786078 0.01716733 0.49795324
v 0.12592953 0.01404734 0.49857110
v 0.12439059 0.01067598 0.49903449
v 0.12328918 0.00712718 0.49936917
v 0.12636709 0.00644699 0.49867406
v 0.12588428 0.00314217 0.49882853
v 0.12574849 -0.00021441 0.49888003
v 0.12647270 -0.00686841 0.49864832
v 0.12740815 -0.01000318 0.49836513
v 0.13111973 -0.01148924 0.49730963
v 0.13611379 -0.02479725 0.49545598
v 0.13929731 -0.02640160 0.49447769
v 0.13264360 -0.01795841 0.49676895
v 0.13502747 -0.02010248 0.49602237
v 0.13317168 -0.02275669 0.49635705
v 0.14266187 -0.02755496 0.49344793
v 0.14349170 -0.02436104 0.49342218
v 0.14613207 -0.02824254 0.49236664
v 0.14964752 -0.02844956 0.49128538
v 0.14970787 -0.02515213 0.49151707
v 0.15317805 -0.02816122 0.49020410
v 0.16094825 -0.02929979 0.48690879
v 0.16447879 -0.02741449 0.48582754
v 0.15720649 -0.03068974 0.48806733
v 0.16467494 -0.02889316 0.48374224
v 0.15752333 -0.03104462 0.45923340
v 0.15370612 -0.03181352 0.44687605
v 0.14810856 -0.03235324 0.42975590
v 0.14035344 -0.03247892 0.40717793
v 0.13009377 -0.03200575 0.37839553
v 0.07921781 -0.02898188 0.23687774
v 0.08300484 -0.02649032 0.23687774
v 0.08051535 0.02792463 0.23687774
v 0.07870483 0.02905581 0.23687774
v 0.16045035 0.03132556 0.48500371
v 0.15298191 0.03360271 0.46059787
v 0.14905909 0.03440859 0.44826624
v 0.14338610 0.03495569 0.43114612
v 0.13561589 0.03505181 0.40859389
v 0.07537043 0.03057884 0.23687774
v 0.12543164 0.03448252 0.37978575
v 0.15670860 0.03102983 0.48817030
v 0.15281594 0.03179874 0.48938030
v 0.14494014 0.03170263 0.49180028
v 0.14887804 0.03202054 0.49059027
v 0.14106257 0.03083760 0.49301028
v 0.13732080 0.02944766 0.49414301
v 0.13379027 0.02756236 0.49522430
v 0.13572150 0.02460502 0.49553323
v 0.13051623 0.02519649 0.49622834
v 0.12757412 0.02239441 0.49715513
v 0.12499410 0.01922267 0.49795324
v 0.12282147 0.01572563 0.49859685
v 0.12110145 0.01194763 0.49913746
v 0.11986426 0.00797002 0.49952364
v 0.11912496 0.00386671 0.49975532
v 0.12262532 0.00346008 0.49957514
v 0.12242918 -0.00025877 0.49965236
v 0.12268567 -0.00397761 0.49957514
v 0.12340988 -0.00762253 0.49934343
v 0.12457164 -0.01114915 0.49898300
v 0.12615585 -0.01447615 0.49851960
v 0.12873587 -0.01292355 0.49795324
v 0.13051623 -0.01557037 0.49741256
v 0.13424291 -0.02778416 0.49512130
v 0.13780361 -0.02958813 0.49404004
v 0.13093868 -0.02549962 0.49615109
v 0.12814744 -0.01755178 0.49790174
v 0.13050114 -0.02032428 0.49718088
v 0.12793621 -0.02277887 0.49707791
v 0.14156047 -0.03088197 0.49288154
v 0.14545311 -0.03165087 0.49167156
v 0.14940611 -0.03188007 0.49046156
v 0.15332893 -0.03155476 0.48925155
v 0.15701035 -0.03234585 0.48611072
v 0.16094825 -0.03087457 0.48490074
v 0.15352507 -0.03318129 0.46046916
v 0.14961734 -0.03399456 0.44813752
v 0.14394434 -0.03457124 0.43101740
v 0.13617414 -0.03470432 0.40846515
v 0.12598990 -0.03420157 0.37965700
v 0.07591359 -0.03057144 0.23687774
v 0.15648228 0.03268594 0.48621371
v 0.14872716 0.03506659 0.46191084
v 0.14471382 0.03589465 0.44960496
v 0.13895029 0.03647872 0.43251055
v 0.13118008 0.03658223 0.40995836
v 0.07022550 0.03230149 0.23687774
v 0.12105619 0.03597597 0.38112444
v 0.15239349 0.03349921 0.48747519
v 0.14822927 0.03374318 0.48876241
v 0.14408013 0.03339570 0.49004966
v 0.13999134 0.03248632 0.49131113
v 0.13605344 0.03102244 0.49252111
v 0.13232675 0.02903363 0.49365389
v 0.12577866 0.02359213 0.49568769
v 0.12888674 0.02654208 0.49470940
v 0.12306286 0.02024295 0.49651152
v 0.12076952 0.01656107 0.49723238
v 0.11895899 0.01258346 0.49777299
v 0.11766145 0.00839883 0.49818492
v 0.11888355 -0.00029573 0.49985832
v 0.11687688 0.00406634 0.49841660
v 0.11918531 -0.00446557 0.49972957
v 0.12000005 -0.00855409 0.49949789
v 0.12129760 -0.01250213 0.49911171
v 0.12307795 -0.01622837 0.49854535
v 0.12531094 -0.01967367 0.49787599
v 0.13279447 -0.02928500 0.49355090
v 0.13655134 -0.03118509 0.49239239
v 0.14051941 -0.03254547 0.49118239
v 0.12932429 -0.02687478 0.49460644
v 0.12339479 -0.02073091 0.49643427
v 0.12617095 -0.02400616 0.49558473
v 0.14462328 -0.03335134 0.48992091
v 0.14878751 -0.03360271 0.48863369
v 0.15293665 -0.03325523 0.48734647
v 0.14490995 -0.03573199 0.46312085
v 0.14930050 -0.03474868 0.46178213
v 0.14528716 -0.03560631 0.44947624
v 0.13953871 -0.03619777 0.43238187
v 0.13176851 -0.03634564 0.40980387
v 0.12164462 -0.03581332 0.38099572
v 0.07078375 -0.03241978 0.23687774
v 0.14018749 0.03679663 0.45099515
v 0.14433661 0.03593901 0.46324956
v 0.13437869 0.03738810 0.43392652
v 0.11654495 0.03688535 0.38251466
v 0.12657832 0.03749161 0.41137430
v 0.06571425 0.03311475 0.23687774
v 0.13985555 0.03619777 0.46463978
v 0.13540466 0.03582811 0.46600422
v 0.13101412 0.03484479 0.46734294
v 0.12678954 0.03327741 0.46865591
v 0.12279129 0.03114073 0.46989167
v 0.11576039 0.02530000 0.47205418
v 0.11284845 0.02171423 0.47295526
v 0.11910987 0.02846434 0.47102442
v 0.11038914 0.01775140 0.47370183
v 0.10844282 0.01348544 0.47429398
v 0.10705474 0.00899030 0.47473162
v 0.10620983 0.00433989 0.47498909
v 0.11663548 -0.00031791 0.49849385
v 0.11695232 -0.00470216 0.49841660
v 0.10595334 -0.00036967 0.47509205
v 0.11779723 -0.00901987 0.49815917
v 0.11917022 -0.01317492 0.49772152
v 0.12104110 -0.01710818 0.49715513
v 0.11957759 -0.02888577 0.47092146
v 0.12330427 -0.03146604 0.46976292
v 0.12733270 -0.03350660 0.46852720
v 0.13158746 -0.03497048 0.46721423
v 0.13597800 -0.03583550 0.46587551
v 0.11319546 -0.02229091 0.47285229
v 0.11618284 -0.02580274 0.47195122
v 0.14044398 -0.03610166 0.46448529
v 0.13621940 -0.03698886 0.45225665
v 0.14077590 -0.03661180 0.45084071
v 0.13498220 -0.03723284 0.43377206
v 0.12719691 -0.03737332 0.41121984
v 0.11713337 -0.03681881 0.38238594
v 0.06671005 -0.03324044 0.23687774
v 0.13561589 0.03706279 0.45238537
v 0.12973166 0.03766165 0.43534249
v 0.06112758 0.03335873 0.23687774
v 0.11194318 0.03715152 0.38393059
v 0.12191620 0.03776516 0.41279024
v 0.13104430 0.03668573 0.45380133
v 0.12656322 0.03567285 0.45519152
v 0.12223304 0.03406849 0.45650449
v 0.11814425 0.03188007 0.45776597
v 0.11435723 0.02914453 0.45895022
v 0.11094739 0.02590625 0.45998001
v 0.10794492 0.02222437 0.46090680
v 0.10542526 0.01817282 0.46167916
v 0.10344876 0.01380336 0.46229702
v 0.10203052 0.00919731 0.46273467
v 0.10117051 0.00443600 0.46301788
v 0.10628527 -0.00508662 0.47498909
v 0.10089894 -0.00039185 0.46309510
v 0.10720562 -0.00970745 0.47470587
v 0.10866913 -0.01417303 0.47424248
v 0.11067580 -0.01839462 0.47362462
v 0.11136985 -0.02643857 0.45990276
v 0.11484003 -0.02959552 0.45882151
v 0.11865724 -0.03224234 0.45766300
v 0.12279129 -0.03432726 0.45637578
v 0.12715165 -0.03582811 0.45503706
v 0.13164781 -0.03672270 0.45367259
v 0.10572702 -0.01885301 0.46162766
v 0.10832211 -0.02283802 0.46082959
v 0.12568814 -0.03734374 0.43662971
v 0.13033517 -0.03760990 0.43521374
v 0.12253480 -0.03776516 0.41266152
v 0.11254669 -0.03720327 0.38377613
v 0.06189705 -0.03366186 0.23687774
v 0.12508462 0.03726981 0.43678418
v 0.05654090 0.03301125 0.23687774
v 0.10737158 0.03676706 0.38534656
v 0.11726917 0.03737332 0.41423196
v 0.12052812 0.03624953 0.43817437
v 0.11612249 0.03461560 0.43956459
v 0.11195827 0.03239760 0.44085181
v 0.10812598 0.02961031 0.44203606
v 0.10464070 0.02631288 0.44309157
v 0.10162315 0.02257925 0.44404411
v 0.09905823 0.01846116 0.44481647
v 0.09703647 0.01401037 0.44546008
v 0.09558804 0.00933039 0.44589776
v 0.09471295 0.00449515 0.44618094
v 0.10124595 -0.00521970 0.46299213
v 0.09444137 -0.00041403 0.44625816
v 0.09478839 -0.00532320 0.44615519
v 0.10219648 -0.00995882 0.46270892
v 0.10367508 -0.01452791 0.46224552
v 0.10507824 -0.02689696 0.44298860
v 0.10860878 -0.03009827 0.44190735
v 0.11248634 -0.03278945 0.44072309
v 0.11668074 -0.03491133 0.43943584
v 0.12111654 -0.03643436 0.43804565
v 0.09935998 -0.01917831 0.44476497
v 0.10198525 -0.02322986 0.44394115
v 0.11787267 -0.03749161 0.41407746
v 0.10796001 -0.03693711 0.38519210
v 0.05703879 -0.03342527 0.23687774
v 0.11268248 0.03634564 0.41564789
v 0.05157702 0.03194661 0.23687774
v 0.10287543 0.03576156 0.38673675
v 0.10827685 0.03470432 0.41698661
v 0.10409754 0.03247892 0.41827384
v 0.10026525 0.02968424 0.41945809
v 0.09677997 0.02637942 0.42053935
v 0.09371716 0.02263100 0.42149192
v 0.09115224 0.01849813 0.42229000
v 0.08913048 0.01403994 0.42290786
v 0.08766696 0.00933778 0.42334551
v 0.08679187 0.00448036 0.42362869
v 0.09573892 -0.01014366 0.44587201
v 0.08652029 -0.00043621 0.42370594
v 0.08688240 -0.00536017 0.42360297
v 0.08783293 -0.01019541 0.42331976
v 0.09727787 -0.01478667 0.44538283
v 0.09409435 -0.02333337 0.42138892
v 0.09720243 -0.02700786 0.42043638
v 0.10074805 -0.03022396 0.41935509
v 0.10462561 -0.03292252 0.41814512
v 0.10883510 -0.03505181 0.41685790
v 0.11328599 -0.03657483 0.41549343
v 0.08937187 -0.01485321 0.42285636
v 0.09145399 -0.01925964 0.42221275
v 0.10344876 -0.03603512 0.38658229
v 0.05218053 -0.03250111 0.23687774
v 0.09853015 0.03414982 0.38807547
v 0.04694507 0.03029050 0.23687774
v 0.09442628 0.03195400 0.38933697
v 0.09062416 0.02919628 0.39049548
v 0.08719924 0.02594322 0.39155099
v 0.08418169 0.02225394 0.39247781
v 0.08166203 0.01818761 0.39325014
v 0.07967044 0.01379597 0.39386800
v 0.07822202 0.00916774 0.39433140
v 0.07736202 0.00439164 0.39458886
v 0.07709043 -0.00045839 0.39466608
v 0.07745254 -0.00530102 0.39456311
v 0.07838798 -0.01006233 0.39427993
v 0.07989676 -0.01465359 0.39381653
v 0.08455888 -0.02299328 0.39240056
v 0.08762170 -0.02661601 0.39144802
v 0.09110697 -0.02978036 0.39039248
v 0.09493926 -0.03244196 0.38920823
v 0.09908840 -0.03453427 0.38792101
v 0.08196378 -0.01898609 0.39319864
v 0.04825771 -0.03129599 0.23687774
v 0.04359559 0.02868614 0.23687774
v 0.04164927 0.02741449 0.23687774
v 0.03980856 0.02620938 0.23687774
v 0.03636855 0.02327422 0.23687774
v 0.03374328 0.02036864 0.23687774
v 0.03083134 0.01627273 0.23687774
v 0.02883975 0.01230990 0.23687774
v 0.02743659 0.00822139 0.23687774
v 0.02653132 0.00381496 0.23687774
v 0.02624466 -0.00052493 0.23687774
v 0.02660676 -0.00493875 0.23687774
v 0.02755729 -0.00923428 0.23687774
v 0.02906607 -0.01338194 0.23687774
v 0.03134432 -0.01760353 0.23687774
v 0.03412047 -0.02132978 0.23687774
v 0.03743978 -0.02470114 0.23687774
v 0.04027628 -0.02702264 0.23687774
v 0.04410857 -0.02941808 0.23687774
f 1 2 3
f 1 3 4
f 1 4 5
f 1 5 6
f 1 6 7
f 1 7 8
f 1 8 9
f 1 9 2
f 2 10 3
f 2 9 10
f 3 10 11
f 3 11 12
f 3 12 13
f 3 13 14
f 3 14 4
f 4 14 15
f 4 15 5
f 5 15 16
f 5 16 6
f 6 16 17
f 6 17 7
f 7 18 19
f 7 19 20
f 7 20 21
f 7 21 8
f 7 17 18
f 8 21 9
f 9 21 22
f 9 22 23
f 9 23 24
f 9 24 10
f 10 25 11
f 10 24 26
f 10 26 25
f 11 25 27
f 11 27 28
f 11 28 12
f 12 28 29
f 12 29 30
f 12 30 31
f 12 31 13
f 13 31 14
f 14 31 32
f 14 32 15
f 15 33 16
f 15 32 34
f 15 34 35
f 15 35 33
f 16 33 36
f 16 36 37
f 16 37 38
f 16 38 17
f 17 38 18
f 18 38 39
f 18 39 40
f 18 40 19
f 19 40 41
f 19 41 42
f 19 42 20
f 20 42 21
f 21 42 43
f 21 43 44
f 21 44 22
f 22 44 23
f 23 44 45
f 23 45 46
f 23 46 47
f 23 47 26
f 23 26 24
f 25 48 27
f 25 26 48
f 26 47 49
f 26 49 50
f 26 50 48
f 27 48 51
f 27 51 28
f 28 52 53
f 28 53 29
f 28 51 52
f 29 53 54
f 29 54 55
f 29 55 31
f 29 31 30
f 31 55 32
f 32 55 56
f 32 56 57
f 32 57 58
f 32 58 34
f 33 35 58
f 33 58 36
f 34 58 35
f 36 58 59
f 36 59 60
f 36 60 61
f 36 61 37
f 37 61 38
f 38 61 62
f 38 62 63
f 38 63 39
f 39 63 40
f 40 63 64
f 40 64 65
f 40 65 66
f 40 66 41
f 41 66 67
f 41 67 68
f 41 68 69
f 41 69 42
f 42 69 70
f 42 70 43
f 43 70 71
f 43 71 44
f 44 71 72
f 44 72 45
f 45 72 46
f 46 73 49
f 46 49 47
f 46 72 74
f 46 74 75
f 46 75 73
f 48 76 51
f 48 50 76
f 49 73 77
f 49 77 78
f 49 78 79
f 49 79 50
f 50 79 76
f 51 76 80
f 51 80 81
f 51 81 52
f 52 81 53
f 53 81 82
f 53 82 83
f 53 83 84
f 53 84 54
f 54 84 85
f 54 85 55
f 55 85 56
f 56 85 86
f 56 86 87
f 56 87 88
f 56 88 89
f 56 89 57
f 57 89 90
f 57 90 58
f 58 90 91
f 58 91 59
f 59 91 60
f 60 91 92
f 60 92 93
f 60 93 61
f 61 93 94
f 61 94 62
f 62 94 63
f 63 95 64
f 63 94 95
f 64 96 65
f 64 95 97
f 64 97 96
f 65 96 98
f 65 98 99
f 65 99 67
f 65 67 66
f 67 99 100
f 67 100 101
f 67 101 68
f 68 101 102
f 68 102 103
f 68 103 69
f 69 103 70
f 70 103 104
f 70 104 105
f 70 105 71
f 71 105 72
f 72 105 106
f 72 106 107
f 72 107 74
f 73 75 77
f 74 107 75
f 75 108 77
f 75 107 109
f 75 109 108
f 76 110 111
f 76 111 80
f 76 79 112
f 76 112 110
f 77 113 78
f 77 108 113
f 78 114 79
f 78 113 114
f 79 114 112
f 80 111 81
f 81 115 83
f 81 83 82
f 81 111 115
f 83 116 117
f 83 117 118
f 83 118 119
f 83 119 85
f 83 85 120
f 83 120 84
f 83 115 116
f 84 120 85
f 85 119 118
f 85 118 86
f 86 118 121
f 86 121 122
f 86 122 123
f 86 123 124
f 86 124 87
f 87 124 125
f 87 125 88
f 88 125 126
f 88 126 127
f 88 127 128
f 88 128 89
f 89 128 129
f 89 129 130
f 89 130 131
f 89 131 90
f 90 131 91
f 91 132 92
f 91 131 130
f 91 130 132
f 92 132 93
f 93 132 133
f 93 133 94
f 94 133 134
f 94 134 95
f 95 134 135
f 95 135 136
f 95 136 97
f 96 97 136
f 96 136 137
f 96 137 138
f 96 138 98
f 98 138 139
f 98 139 100
f 98 100 99
f 100 139 140
f 100 140 141
f 100 141 142
f 100 142 101
f 101 142 102
f 102 142 143
f 102 143 103
f 103 144 104
f 103 143 145
f 103 145 144
f 104 144 105
f 105 144 146
f 105 146 147
f 105 147 106
f 106 147 107
f 107 147 148
f 107 148 149
f 107 149 109
f 108 109 150
f 108 150 151
f 108 151 152
f 108 152 113
f 109 149 150
f 110 153 154
f 110 154 111
f 110 112 155
f 110 155 153
f 111 154 115
f 112 114 155
f 113 156 157
f 113 157 114
f 113 152 158
f 113 158 156
f 114 157 155
f 115 154 116
f 116 159 117
f 116 154 159
f 117 159 160
f 117 160 161
f 117 161 118
f 118 161 162
f 118 162 163
f 118 163 164
f 118 164 165
f 118 165 121
f 121 165 166
f 121 166 167
f 121 167 168
f 121 168 169
f 121 169 122
f 122 170 171
f 122 171 172
f 122 172 123
f 122 169 168
f 122 168 170
f 123 173 174
f 123 174 175
f 123 175 176
f 123 176 177
f 123 177 124
f 123 172 171
f 123 171 173
f 124 177 125
f 125 178 179
f 125 179 180
f 125 180 181
f 125 181 126
f 125 177 182
f 125 182 178
f 126 183 127
f 126 181 183
f 127 183 128
f 128 184 185
f 128 185 186
f 128 186 129
f 128 183 187
f 128 187 188
f 128 188 184
f 129 189 130
f 129 186 189
f 130 189 132
f 132 189 133
f 133 189 190
f 133 190 134
f 134 190 191
f 134 191 135
f 135 192 193
f 135 193 136
f 135 191 192
f 136 193 194
f 136 194 137
f 137 194 138
f 138 195 196
f 138 196 197
f 138 197 139
f 138 194 195
f 139 197 198
f 139 198 140
f 140 198 253
f 140 253 252
f 140 252 303
f 140 303 345
f 140 345 383
f 140 383 417
f 140 417 446
f 140 446 473
f 140 473 494
f 140 494 512
f 140 512 511
f 140 511 510
f 140 510 509
f 140 509 508
f 140 508 507
f 140 507 506
f 140 506 505
f 140 505 504
f 140 504 503
f 140 503 502
f 140 502 501
f 140 501 500
f 140 500 499
f 140 499 498
f 140 498 497
f 140 497 496
f 140 496 495
f 140 495 475
f 140 475 448
f 140 448 419
f 140 419 386
f 140 386 351
f 140 351 309
f 140 309 261
f 140 261 255
f 140 255 254
f 140 254 201
f 140 201 200
f 140 200 199
f 140 199 149
f 140 149 148
f 140 148 147
f 140 147 146
f 140 146 144
f 140 144 145
f 140 145 143
f 140 143 142
f 140 142 141
f 149 199 150
f 150 199 200
f 150 200 151
f 151 200 201
f 151 201 202
f 151 202 158
f 151 158 152
f 153 203 154
f 153 155 203
f 154 203 204
f 154 204 159
f 155 205 203
f 155 157 206
f 155 206 205
f 156 207 206
f 156 206 157
f 156 158 207
f 158 208 207
f 158 202 209
f 158 209 208
f 159 210 161
f 159 161 160
f 159 204 211
f 159 211 210
f 161 210 162
f 162 210 212
f 162 212 213
f 162 213 163
f 163 214 166
f 163 166 165
f 163 165 164
f 163 213 214
f 166 214 215
f 166 215 216
f 166 216 167
f 167 216 215
f 167 215 217
f 167 217 168
f 168 218 219
f 168 219 170
f 168 217 218
f 170 220 221
f 170 221 171
f 170 219 220
f 171 221 173
f 173 221 222
f 173 222 223
f 173 223 174
f 174 223 175
f 175 223 224
f 175 224 225
f 175 225 226
f 175 226 227
f 175 227 176
f 176 227 228
f 176 228 177
f 177 228 229
f 177 229 230
f 177 230 231
f 177 231 182
f 178 182 179
f 179 232 233
f 179 233 180
f 179 182 234
f 179 234 235
f 179 235 236
f 179 236 232
f 180 233 237
f 180 237 238
f 180 238 181
f 181 238 237
f 181 237 239
f 181 239 240
f 181 240 241
f 181 241 183
f 182 231 234
f 183 241 240
f 183 240 242
f 183 242 188
f 183 188 187
f 184 243 244
f 184 244 185
f 184 188 243
f 185 244 189
f 185 189 186
f 188 242 245
f 188 245 243
f 189 244 190
f 190 244 191
f 191 244 246
f 191 246 247
f 191 247 192
f 192 247 193
f 193 247 248
f 193 248 194
f 194 248 249
f 194 249 195
f 195 250 251
f 195 251 196
f 195 249 250
f 196 252 253
f 196 253 197
f 196 251 252
f 197 253 198
f 201 254 202
f 202 254 255
f 202 255 209
f 203 256 211
f 203 211 204
f 203 205 256
f 205 206 257
f 205 257 256
f 206 258 257
f 206 207 259
f 206 259 258
f 207 208 260
f 207 260 259
f 208 209 260
f 209 255 261
f 209 261 262
f 209 262 260
f 210 211 212
f 211 263 212
f 211 256 263
f 212 263 213
f 213 263 264
f 213 264 214
f 214 265 215
f 214 264 266
f 214 266 265
f 215 267 217
f 215 265 267
f 217 267 218
f 218 267 268
f 218 268 269
f 218 269 270
f 218 270 219
f 219 270 220
f 220 270 269
f 220 269 271
f 220 271 272
f 220 272 221
f 221 272 273
f 221 273 222
f 222 273 223
f 223 273 274
f 223 274 275
f 223 275 224
f 224 275 276
f 224 276 225
f 225 276 277
f 225 277 278
f 225 278 226
f 226 278 227
f 227 278 279
f 227 279 228
f 228 279 280
f 228 280 229
f 229 280 281
f 229 281 230
f 230 281 282
f 230 282 283
f 230 283 284
f 230 284 231
f 231 284 285
f 231 285 234
f 232 286 287
f 232 287 233
f 232 236 288
f 232 288 286
f 233 287 237
f 234 236 235
f 234 285 289
f 234 289 290
f 234 290 236
f 236 290 291
f 236 291 288
f 237 292 293
f 237 293 239
f 237 287 292
f 239 293 294
f 239 294 240
f 240 294 242
f 242 294 295
f 242 295 245
f 243 296 297
f 243 297 244
f 243 245 296
f 244 297 246
f 245 295 296
f 246 297 298
f 246 298 247
f 247 298 248
f 248 298 299
f 248 299 249
f 249 299 300
f 249 300 250
f 250 300 301
f 250 301 302
f 250 302 251
f 251 302 303
f 251 303 252
f 256 304 263
f 256 257 305
f 256 305 304
f 257 258 305
f 258 306 305
f 258 259 307
f 258 307 306
f 259 260 308
f 259 308 307
f 260 262 308
f 261 309 262
f 262 310 308
f 262 309 310
f 263 304 264
f 264 304 311
f 264 311 312
f 264 312 266
f 265 266 312
f 265 312 313
f 265 313 267
f 267 313 314
f 267 314 315
f 267 315 268
f 268 315 269
f 269 315 316
f 269 316 271
f 271 317 272
f 271 316 318
f 271 318 317
f 272 317 273
f 273 317 319
f 273 319 320
f 273 320 274
f 274 320 275
f 275 320 321
f 275 321 322
f 275 322 276
f 276 322 277
f 277 323 278
f 277 322 324
f 277 324 323
f 278 323 279
f 279 323 280
f 280 323 325
f 280 325 326
f 280 326 281
f 281 326 327
f 281 327 282
f 282 327 283
f 283 328 329
f 283 329 289
f 283 289 285
f 283 285 284
f 283 327 328
f 286 330 287
f 286 288 330
f 287 330 331
f 287 331 332
f 287 332 292
f 288 291 333
f 288 333 330
f 289 329 291
f 289 291 290
f 291 334 335
f 291 335 333
f 291 329 334
f 292 332 336
f 292 336 293
f 293 336 294
f 294 336 337
f 294 337 295
f 295 337 338
f 295 338 296
f 296 338 339
f 296 339 340
f 296 340 298
f 296 298 297
f 298 340 341
f 298 341 299
f 299 341 300
f 300 341 342
f 300 342 343
f 300 343 301
f 301 343 302
f 302 343 344
f 302 344 345
f 302 345 303
f 304 305 311
f 305 306 346
f 305 346 347
f 305 347 311
f 306 307 346
f 307 348 346
f 307 308 348
f 308 310 349
f 308 349 350
f 308 350 348
f 309 351 310
f 310 351 349
f 311 347 312
f 312 347 352
f 312 352 353
f 312 353 313
f 313 353 314
f 314 353 354
f 314 354 355
f 314 355 315
f 315 355 356
f 315 356 316
f 316 356 318
f 317 318 357
f 317 357 358
f 317 358 319
f 318 356 359
f 318 359 357
f 319 358 320
f 320 358 360
f 320 360 361
f 320 361 321
f 321 361 322
f 322 361 362
f 322 362 363
f 322 363 324
f 323 324 364
f 323 364 365
f 323 365 325
f 324 363 366
f 324 366 364
f 325 365 326
f 326 365 367
f 326 367 327
f 327 367 368
f 327 368 369
f 327 369 328
f 328 369 329
f 329 369 334
f 330 333 370
f 330 370 371
f 330 371 372
f 330 372 331
f 331 372 373
f 331 373 332
f 332 373 374
f 332 374 336
f 333 335 370
f 334 369 375
f 334 375 335
f 335 375 376
f 335 376 370
f 336 374 337
f 337 374 377
f 337 377 339
f 337 339 338
f 339 377 378
f 339 378 379
f 339 379 341
f 339 341 340
f 341 379 380
f 341 380 342
f 342 380 343
f 343 380 381
f 343 381 344
f 344 381 382
f 344 382 383
f 344 383 345
f 346 384 347
f 346 348 385
f 346 385 384
f 347 384 352
f 348 350 385
f 349 351 386
f 349 386 387
f 349 387 388
f 349 388 350
f 350 388 385
f 352 384 389
f 352 389 353
f 353 389 354
f 354 389 390
f 354 390 355
f 355 390 391
f 355 391 356
f 356 391 392
f 356 392 393
f 356 393 359
f 357 359 393
f 357 393 394
f 357 394 395
f 357 395 358
f 358 395 396
f 358 396 360
f 360 396 361
f 361 396 397
f 361 397 362
f 362 397 398
f 362 398 399
f 362 399 363
f 363 399 366
f 364 366 365
f 365 366 400
f 365 400 367
f 366 399 401
f 366 401 400
f 367 400 402
f 367 402 403
f 367 403 368
f 368 403 369
f 369 403 404
f 369 404 375
f 370 376 405
f 370 405 406
f 370 406 407
f 370 407 371
f 371 407 372
f 372 407 408
f 372 408 409
f 372 409 373
f 373 409 410
f 373 410 374
f 374 410 377
f 375 404 411
f 375 411 412
f 375 412 405
f 375 405 376
f 377 410 378
f 378 410 413
f 378 413 414
f 378 414 380
f 378 380 379
f 380 414 415
f 380 415 381
f 381 415 416
f 381 416 382
f 382 416 417
f 382 417 383
f 384 385 389
f 385 418 389
f 385 388 421
f 385 421 418
f 386 419 387
f 387 420 388
f 387 419 420
f 388 420 421
f 389 418 422
f 389 422 390
f 390 422 423
f 390 423 391
f 391 423 424
f 391 424 392
f 392 424 393
f 393 424 425
f 393 425 426
f 393 426 394
f 394 426 395
f 395 426 427
f 395 427 396
f 396 427 428
f 396 428 429
f 396 429 397
f 397 429 430
f 397 430 398
f 398 430 431
f 398 431 399
f 399 431 401
f 400 401 432
f 400 432 402
f 401 431 433
f 401 433 434
f 401 434 432
f 402 432 435
f 402 435 436
f 402 436 403
f 403 436 411
f 403 411 404
f 405 412 437
f 405 437 406
f 406 437 438
f 406 438 439
f 406 439 407
f 407 439 440
f 407 440 408
f 408 440 409
f 409 440 441
f 409 441 410
f 410 441 413
f 411 442 443
f 411 443 412
f 411 436 442
f 412 443 437
f 413 441 444
f 413 444 415
f 413 415 414
f 415 444 445
f 415 445 416
f 416 445 446
f 416 446 417
f 418 421 447
f 418 447 422
f 419 448 449
f 419 449 420
f 420 449 421
f 421 449 447
f 422 447 423
f 423 447 450
f 423 450 424
f 424 450 451
f 424 451 425
f 425 451 452
f 425 452 453
f 425 453 426
f 426 453 454
f 426 454 427
f 427 454 428
f 428 454 455
f 428 455 429
f 429 455 456
f 429 456 457
f 429 457 430
f 430 457 431
f 431 457 458
f 431 458 433
f 432 434 459
f 432 459 435
f 433 458 460
f 433 460 434
f 434 460 461
f 434 461 462
f 434 462 459
f 435 459 436
f 436 459 463
f 436 463 442
f 437 464 465
f 437 465 466
f 437 466 438
f 437 443 464
f 438 466 467
f 438 467 439
f 439 467 468
f 439 468 440
f 440 468 441
f 441 468 469
f 441 469 444
f 442 463 470
f 442 470 471
f 442 471 464
f 442 464 443
f 444 469 445
f 445 469 472
f 445 472 446
f 446 472 473
f 447 449 474
f 447 474 450
f 448 475 474
f 448 474 449
f 450 474 451
f 451 474 476
f 451 476 477
f 451 477 452
f 452 477 453
f 453 477 478
f 453 478 454
f 454 478 479
f 454 479 455
f 455 479 480
f 455 480 481
f 455 481 456
f 456 481 482
f 456 482 457
f 457 482 458
f 458 482 483
f 458 483 484
f 458 484 460
f 459 462 470
f 459 470 463
f 460 484 461
f 461 484 485
f 461 485 462
f 462 485 486
f 462 486 487
f 462 487 470
f 464 471 488
f 464 488 465
f 465 488 489
f 465 489 490
f 465 490 466
f 466 490 467
f 467 490 491
f 467 491 468
f 468 491 492
f 468 492 472
f 468 472 469
f 470 487 471
f 471 487 493
f 471 493 488
f 472 492 494
f 472 494 473
f 474 475 495
f 474 495 476
f 476 495 496
f 476 496 497
f 476 497 477
f 477 497 498
f 477 498 478
f 478 498 499
f 478 499 479
f 479 499 500
f 479 500 480
f 480 500 501
f 480 501 481
f 481 501 482
f 482 501 502
f 482 502 503
f 482 503 483
f 483 503 504
f 483 504 484
f 484 504 485
f 485 504 505
f 485 505 486
f 486 505 506
f 486 506 487
f 487 506 507
f 487 507 493
f 488 493 508
f 488 508 509
f 488 509 489
f 489 509 510
f 489 510 490
f 490 510 511
f 490 511 491
f 491 511 512
f 491 512 492
f 492 512 494
f 493 507 508

