# https://github.com/mikedh/trimesh
v 0.49359798 -0.06070499 0.10040260
v 0.48453221 -0.09878165 0.12426034
v 0.48871642 -0.08487539 0.09051868
v 0.49105757 -0.06832032 0.05277234
v 0.48991191 -0.05954613 0.01928630
v 0.45653790 -0.05996001 0.25726718
v 0.46844298 -0.06339519 0.22812669
v 0.48931417 -0.06500931 0.14266486
v 0.46714783 -0.17009261 0.10900842
v 0.47930196 -0.12489727 0.08847373
v 0.47496831 -0.12456617 0.16064338
v 0.46495610 -0.16574690 0.15859842
v 0.46122020 -0.18660629 0.13405904
v 0.48204160 -0.10685225 0.04961971
v 0.09679598 -0.05921504 0.42239678
v 0.47795704 -0.10027160 0.00667579
v 0.48199180 -0.06529902 -0.01684112
v 0.47108299 -0.06500931 -0.05969983
v 0.45927757 -0.05996001 -0.09991716
v 0.41748533 -0.05921504 -0.18980969
v 0.44308865 -0.06012556 0.28308469
v 0.45130765 -0.08715171 0.25956780
v 0.46306327 -0.09758140 0.22718942
v 0.47561586 -0.08044691 0.19753766
v 0.48468167 -0.06856865 0.16805632
v 0.48009896 -0.09782973 0.16328476
v 0.45494390 -0.20837620 0.09776121
v 0.46336216 -0.18238474 0.08242410
v 0.47456983 -0.13549252 0.05115342
v 0.46445799 -0.15121983 0.18262658
v 0.45175594 -0.19815345 0.16993086
v 0.44478226 -0.22865617 0.13175848
v 0.46714783 -0.15535860 0.03334533
v 0.46849275 -0.13785161 0.00940239
v -0.01448393 -0.07196243 0.38558775
v -0.01528090 -0.10056132 0.40143609
v -0.00646420 -0.12957408 0.41302413
v 0.12837675 -0.05996001 0.43193990
v 0.22172436 -0.06314686 -0.36593091
v -0.01423487 -0.07051386 -0.43188047
v 0.46953881 -0.11277068 -0.01914169
v 0.47088373 -0.08524787 -0.04265860
v 0.45952660 -0.12013769 -0.05032716
v 0.45300126 -0.09447733 -0.09173737
v 0.44403511 -0.06906530 -0.13161387
v 0.42804545 -0.06798922 -0.16629279
v 0.40692520 -0.09315293 -0.19083217
v 0.39551824 -0.07187966 -0.21767212
v 0.37250513 -0.06492653 -0.24996527
v 0.30814809 -0.06376767 -0.31216580
v 0.42724848 -0.06964472 0.30617553
v 0.43591577 -0.09381513 0.28666335
v 0.35661513 -0.06207079 0.37919724
v 0.38525701 -0.06546457 0.35499871
v 0.45240349 -0.12700804 0.24005555
v 0.43556708 -0.13164346 0.27345639
v 0.45628884 -0.14327340 0.21926524
v 0.46580291 -0.12692526 0.19924179
v 0.44343734 -0.23714064 0.09801683
v 0.43995053 -0.24508707 0.07364786
v 0.45160651 -0.21359105 0.06129296
v 0.46356139 -0.17481080 0.05302796
v 0.45339975 -0.17232755 0.20094591
v 0.44244111 -0.19910537 0.20597307
v 0.44089693 -0.21988198 0.17972957
v 0.43496931 -0.24322462 0.15416771
v 0.42744774 -0.26756057 0.11556930
v 0.44732267 -0.21189415 0.02056440
v 0.45788282 -0.16835433 -0.00039633
v -0.01513147 -0.10225821 -0.42387110
v -0.01264086 -0.16885099 0.41515428
v -0.01528090 -0.38232860 0.29910344
v -0.01518127 -0.36473882 0.31963813
v 0.01405834 -0.15109566 0.42120391
v 0.04379606 -0.15941459 0.42580503
v 0.16249794 -0.08624119 0.43764871
v 0.19896030 -0.07109329 0.43858600
v 0.23088975 -0.07072081 0.43517774
v 0.25933239 -0.06964472 0.42776477
v 0.26705325 -0.07047248 -0.33977258
v 0.25161153 -0.09778835 -0.34292525
v 0.22780141 -0.09629838 -0.35579133
v 0.19233531 -0.06844448 -0.37845618
v 0.16523761 -0.06736840 -0.38944781
v 0.10217567 -0.06861003 -0.41023809
v 0.03497936 -0.07208660 -0.42702371
v 0.01266360 -0.09100077 -0.42489356
v 0.45230389 -0.15829712 -0.03558648
v 0.44528040 -0.15167509 -0.06591989
v 0.44602758 -0.13023628 -0.08219427
v 0.44074750 -0.10296181 -0.11610634
v 0.42570430 -0.10105798 -0.15112609
v 0.40513197 -0.13470615 -0.16978624
v 0.39506996 -0.12671833 -0.19219546
v 0.38595438 -0.11045296 -0.21503073
v 0.35512078 -0.11980659 -0.25183982
v 0.34974107 -0.07995026 -0.27092600
v 0.29843476 -0.09754002 -0.31225097
v 0.32543284 -0.11186016 -0.28515542
v 0.40991390 -0.07634953 0.32722151
v 0.41066110 -0.11376399 0.31742275
v 0.41509438 -0.15014374 0.29893303
v 0.29430038 -0.07171410 0.41532469
v 0.32174677 -0.07477680 0.40083963
v 0.34899390 -0.09298737 0.38090140
v 0.36981529 -0.10767999 0.36181521
v 0.39233029 -0.09729169 0.34238821
v 0.43357459 -0.16682298 0.25743759
v 0.43252856 -0.19649795 0.23494318
v 0.42724848 -0.27000245 0.06734259
v 0.44264036 -0.23320881 0.04510378
v 0.42824471 -0.22820090 0.20818843
v 0.42331332 -0.25224715 0.18271178
v 0.42236692 -0.26747781 0.15135591
v 0.41195619 -0.29574558 0.09000745
v 0.40782180 -0.29479367 0.13099162
v 0.43437159 -0.23134637 -0.00797968
v 0.44523060 -0.20502380 -0.00491225
v 0.44468266 -0.18966898 -0.02732148
v 0.03547747 -0.10970800 -0.41526526
v -0.01039934 -0.14592221 -0.40580738
v -0.00925367 -0.19124171 -0.38561350
v -0.00940309 -0.24098969 -0.36005169
v -0.01259106 -0.37380272 -0.25874150
v -0.01298955 -0.39155805 -0.23812160
v -0.00696231 -0.25162631 0.40092486
v -0.00795855 -0.20941091 0.41276848
v 0.02088256 -0.18238474 0.42137432
v -0.01259106 -0.34425193 0.34034324
v -0.00850648 -0.47859633 0.09026306
v -0.00895479 -0.44134742 0.20895529
v -0.00646420 -0.40252578 0.27038896
v 0.14436640 -0.36713931 0.29237217
v 0.15816431 -0.34640411 0.31614470
v -0.01010047 -0.47996211 -0.00917256
v 0.15258537 -0.31991598 0.34707451
v 0.07871425 -0.16115287 0.42912811
v 0.20005617 -0.10002328 0.43679667
v 0.18257216 -0.12005492 0.43475169
v 0.23004295 -0.09989911 0.43262154
v 0.28697801 -0.09911275 0.41549510
v 0.27487370 -0.11136350 -0.32537276
v 0.25141227 -0.13255399 -0.33338213
v 0.20688039 -0.13938296 -0.35297954
v 0.18262197 -0.09919553 -0.37530357
v 0.13764179 -0.07221076 -0.39796841
v 0.06855261 -0.08044691 -0.41722500
v 0.14077994 -0.11169460 -0.38663602
v 0.42361218 -0.20419605 -0.07682628
v 0.42849377 -0.16562274 -0.09863906
v 0.42779642 -0.12526976 -0.12990974
v 0.40413570 -0.16864404 -0.14933676
v 0.39008874 -0.16049066 -0.18018140
v 0.38550603 -0.19939509 -0.16331057
v 0.37698823 -0.16111147 -0.20080130
v 0.36219406 -0.14364588 -0.23130511
v 0.33245632 -0.17514190 -0.25132859
v 0.33046386 -0.14679134 -0.26743251
v 0.29708984 -0.13251260 -0.30279309
v 0.39536881 -0.17456248 0.31427014
v 0.38276640 -0.14828131 0.33863914
v 0.40358779 -0.19173837 0.29211652
v 0.32772419 -0.11612308 0.39121133
v 0.33972886 -0.15068179 0.37553340
v 0.35985291 -0.13425088 0.36462700
v 0.41519397 -0.21408771 0.25411457
v 0.40443459 -0.30592695 0.05583976
v 0.41285282 -0.28920633 0.03019270
v 0.42460844 -0.26143521 0.01025445
v 0.40438479 -0.24794282 0.23724374
v 0.40039983 -0.28626782 0.17989998
v 0.39940357 -0.26991966 0.21440849
v 0.39292803 -0.31904685 0.10048781
v 0.39292803 -0.30882409 0.14658436
v 0.41957742 -0.25419235 -0.02825875
v 0.43267798 -0.22029586 -0.03141138
v 0.10073113 -0.12634584 -0.39447498
v 0.07886368 -0.15196481 -0.39106673
v 0.04972368 -0.17973593 -0.38527268
v 0.01794367 -0.19326970 -0.38254613
v -0.00800836 -0.21789537 -0.37215096
v 0.02456865 -0.22857338 -0.36380076
v 0.01943803 -0.26155937 -0.34607786
v -0.00731100 -0.26797447 -0.34462935
v -0.00760987 -0.32488251 -0.30458242
v 0.00409594 -0.34590745 -0.28617787
v 0.01928858 -0.37967980 -0.25013566
v 0.02735813 -0.40343630 -0.21835376
v -0.00188150 -0.40757507 -0.21486032
v -0.00756006 -0.42375767 -0.18793516
v -0.00756006 -0.44126463 -0.15257458
v -0.00880535 -0.45310152 -0.12215598
v -0.00880535 -0.46386230 -0.08824391
v -0.00417285 -0.28825441 0.38337237
v 0.03497936 -0.24132079 0.40799695
v 0.02651133 -0.20725873 0.41796607
v 0.05121805 -0.20026422 0.42145956
v 0.14068031 -0.29822886 0.36837608
v -0.00163244 -0.31693608 0.36343414
v -0.00501965 -0.48203149 0.04331445
v 0.02003576 -0.47859633 0.07322183
v 0.01754516 -0.47532672 0.10244755
v 0.00240234 -0.47197431 0.12468637
v -0.00760987 -0.46551782 0.14914054
v -0.00785893 -0.45446730 0.17964436
v 0.02128106 -0.44647950 0.19123240
v 0.02421997 -0.43348378 0.21636823
v 0.00021061 -0.42541316 0.23511359
v 0.02272561 -0.40600234 0.26050502
v 0.15094158 -0.38385993 0.26706594
v 0.17026861 -0.36891899 0.28410715
v 0.19577233 -0.35252947 0.29867738
v 0.19004396 -0.33597440 0.32125705
v -0.00875553 -0.47391951 -0.04743015
v 0.01804329 -0.47164321 -0.05015674
v 0.02098219 -0.47863770 -0.00278210
v 0.18486351 -0.31623247 0.34306985
v 0.17465207 -0.29019964 0.36777961
v 0.07941161 -0.18751681 0.42546421
v 0.21544805 -0.12444201 0.43091744
v 0.12628466 -0.17716990 0.42682755
v 0.19980711 -0.14931600 0.42699796
v 0.25235870 -0.12535253 0.42248201
v 0.27611899 -0.15962154 0.40595204
v 0.30496013 -0.14132817 0.39887989
v 0.26730230 -0.16156675 -0.31284744
v 0.23123844 -0.15585524 -0.33593833
v 0.17166334 -0.14530139 -0.36482322
v 0.19940861 -0.17203784 -0.34428853
v 0.41977668 -0.23382962 -0.05629159
v 0.40423536 -0.25017774 -0.08193865
v 0.39905488 -0.23478153 -0.10954546
v 0.41514415 -0.18863428 -0.11210164
v 0.39591676 -0.20609988 -0.13953803
v 0.36926734 -0.22066835 -0.17609149
v 0.38515738 -0.23449183 -0.13911201
v 0.36677676 -0.20038839 -0.19253629
v 0.35626644 -0.17315529 -0.22304010
v 0.29808608 -0.20051256 -0.27228928
v 0.30565751 -0.17137563 -0.28038388
v 0.34979087 -0.20220944 -0.21477510
v 0.32383886 -0.20494103 -0.24391563
v 0.37006435 -0.22546932 0.30907255
v 0.36244312 -0.16951318 0.35039759
v 0.36916775 -0.19451134 0.33165222
v 0.39516956 -0.22108223 0.28155094
v 0.33868283 -0.18937927 0.35994065
v 0.30954283 -0.17530745 0.38516170
v 0.39506996 -0.24268658 0.26101625
v 0.37977767 -0.33411196 0.03871332
v 0.38401169 -0.32620692 0.01187337
v 0.37788481 -0.33663660 0.07620404
v 0.40563008 -0.28804749 -0.01445535
v 0.37265456 -0.27356181 0.25675595
v 0.36717525 -0.31875712 0.18876143
v 0.36991492 -0.29243457 0.23289824
v 0.36812168 -0.34330001 0.10457771
v 0.37205684 -0.33518803 0.12894668
v 0.36891866 -0.32960069 0.15774637
v 0.40448439 -0.26880220 -0.05637680
v 0.11577433 -0.16731963 -0.37419587
v 0.07771800 -0.17659047 -0.38109761
v 0.05276223 -0.20883147 -0.37027639
v 0.06327254 -0.23283632 -0.35579133
v 0.04514100 -0.26371151 -0.34147674
v 0.02755737 -0.28701279 -0.32903659
v -0.00676307 -0.29549727 -0.32631004
v 0.02875286 -0.30812049 -0.31421071
v 0.03796807 -0.32993180 -0.29597664
v 0.03672276 -0.35617158 -0.27297091
v 0.05849059 -0.38286662 -0.23897366
v 0.06406952 -0.40107721 -0.21307099
v 0.02900192 -0.41697007 -0.19620016
v 0.02377166 -0.43513927 -0.16279933
v 0.03951223 -0.44879720 -0.12403052
v 0.01505457 -0.45699197 -0.10681886
v 0.02506678 -0.46415204 -0.07997891
v 0.12952244 -0.25940722 0.39709055
v 0.10192661 -0.25055024 0.40365142
v 0.07129227 -0.23262939 0.41234249
v 0.09465407 -0.21354967 0.41873294
v 0.15701863 -0.25692394 0.39436394
v 0.04135528 -0.47780997 0.02806254
v 0.04255077 -0.47727191 0.05992966
v 0.06406952 -0.47147763 0.08711044
v 0.04529043 -0.46816665 0.12391951
v 0.03323594 -0.46113074 0.15212277
v 0.05450563 -0.43816057 0.19856013
v 0.06626126 -0.45165294 0.16490369
v 0.15089177 -0.40625066 0.22829710
v 0.19397910 -0.38621902 0.24832055
v 0.20707965 -0.36560798 0.27626818
v 0.22177418 -0.33357391 0.31137311
v 0.21201102 -0.31946072 0.33071494
v 0.04618704 -0.46891159 -0.04845262
v 0.05799247 -0.47292620 -0.01045066
v 0.21634467 -0.28693002 0.35687321
v 0.20508717 -0.26789168 0.37459612
v 0.12130346 -0.20299581 0.42128915
v 0.22172436 -0.16649188 0.41847730
v 0.15084195 -0.22600736 0.40987152
v 0.27706543 -0.19492522 0.39044446
v 0.25345457 -0.17174812 0.40825260
v 0.27756357 -0.19608407 -0.29069382
v 0.25569612 -0.19720154 -0.30483806
v 0.22346778 -0.18590270 -0.32724726
v 0.16115302 -0.18002565 -0.35468370
v 0.18750355 -0.20059532 -0.33593833
v 0.38495812 -0.27107853 -0.10494433
v 0.35870722 -0.25137800 -0.16995665
v 0.34520817 -0.23006335 -0.20335747
v 0.37474668 -0.26462206 -0.13255113
v 0.27821112 -0.23134637 -0.27007395
v 0.30944321 -0.23614734 -0.23939970
v 0.33335292 -0.25733781 -0.19952320
v 0.33873263 -0.26896775 0.30080760
v 0.37066209 -0.25398543 0.28223264
v 0.34192061 -0.22302744 0.33778703
v 0.32144788 -0.21806093 0.35542476
v 0.29554567 -0.20920396 0.37493694
v 0.36627865 -0.34503829 0.01119172
v 0.35960382 -0.35464025 0.05992966
v 0.37414894 -0.33018014 -0.01846004
v 0.38157091 -0.30816188 -0.05339458
v 0.38560569 -0.29098600 -0.07571860
v 0.34152210 -0.30410588 0.25522226
v 0.34087455 -0.28544006 0.28052849
v 0.33972886 -0.32008153 0.23170534
v 0.33644128 -0.34288615 0.19268091
v 0.33972886 -0.36871207 0.09341569
v 0.34505874 -0.35550940 0.13729689
v 0.32378906 -0.36676684 0.15570141
v 0.12887488 -0.19633240 -0.35732508
v 0.09540124 -0.20167141 -0.36456758
v 0.08917475 -0.23333298 -0.34965652
v 0.07258737 -0.26371151 -0.33610874
v 0.07756858 -0.29297262 -0.31574446
v 0.06895110 -0.31859159 -0.29853278
v 0.07004696 -0.34197563 -0.27842414
v 0.06132987 -0.36229697 -0.26095688
v 0.08668415 -0.37446493 -0.24042217
v 0.09953564 -0.38766760 -0.22005789
v 0.08922456 -0.41009974 -0.19040614
v 0.06267479 -0.42259881 -0.17754000
v 0.07044546 -0.43480816 -0.14831428
v 0.08030823 -0.44362372 -0.12070747
v 0.05037124 -0.45550200 -0.09949113
v 0.08015878 -0.45736444 -0.07512216
v 0.21001855 -0.23515403 0.39146698
v 0.19721687 -0.20597571 0.40850818
v 0.08035804 -0.47164321 0.04450734
v 0.08304788 -0.47036016 0.00906156
v 0.10068132 -0.46311733 0.09511982
v 0.07413155 -0.46220681 0.12954313
v 0.11871324 -0.46315873 0.05873677
v 0.09385708 -0.43646365 0.18816498
v 0.09908733 -0.45185989 0.14760683
v 0.12797827 -0.44035411 0.16285874
v 0.13360702 -0.42698589 0.19259571
v 0.17898570 -0.40865117 0.21244875
v 0.23288223 -0.37690681 0.24465668
v 0.20742834 -0.40231884 0.21006297
v 0.25091416 -0.35095674 0.27320075
v 0.25151190 -0.31656358 0.31392932
v 0.23347998 -0.30439562 0.33531606
v 0.07502817 -0.46526951 -0.04368107
v 0.08504036 -0.46717334 -0.01990854
v 0.26411432 -0.23834088 0.37076187
v 0.25534743 -0.28270847 0.34264380
v 0.29091316 -0.24670120 0.35312414
v 0.24379106 -0.22116500 0.38822913
v 0.23029201 -0.19451134 0.40501475
v 0.23098938 -0.21971643 -0.30679780
v 0.24433899 -0.25870362 -0.27603835
v 0.20095277 -0.23163608 -0.31480718
v 0.16234851 -0.22298606 -0.33363777
v 0.36797225 -0.29524893 -0.10980108
v 0.34346476 -0.28883386 -0.15896505
v 0.33405030 -0.27707973 -0.18265237
v 0.27034083 -0.25547537 -0.26019001
v 0.30421296 -0.26656729 -0.22329573
v 0.31243193 -0.28941327 -0.19654098
v 0.32727587 -0.24968110 0.32815874
v 0.30615562 -0.27976996 0.31597430
v 0.31801087 -0.29471090 0.29092366
v 0.35078713 -0.36076564 0.03053352
v 0.34426177 -0.36163476 -0.00261169
v 0.35955402 -0.33800238 -0.04291422
v 0.32797325 -0.37951422 0.05524332
v 0.35905591 -0.31991598 -0.08815870
v 0.30889529 -0.31465974 0.27447885
v 0.31477308 -0.32484111 0.25462580
v 0.30640468 -0.34764573 0.22727463
v 0.30286801 -0.36809123 0.19020993
v 0.31004095 -0.39118555 0.08634358
v 0.32314149 -0.37554103 0.12519760
v 0.29918194 -0.38485324 0.15263399
v 0.12867564 -0.23445044 -0.33823889
v 0.10212587 -0.26524287 -0.32775849
v 0.12000835 -0.28076324 -0.31276220
v 0.11144070 -0.30472672 -0.29827720
v 0.10327154 -0.32943514 -0.28055429
v 0.09858921 -0.34942541 -0.26342785
v 0.13335796 -0.36308333 -0.23692872
v 0.17255996 -0.36627018 -0.21758690
v 0.12628466 -0.39325494 -0.20173857
v 0.14909853 -0.40554708 -0.17080872
v 0.11956005 -0.41614234 -0.16646320
v 0.09674618 -0.42653063 -0.15513077
v 0.10895009 -0.43840891 -0.11908855
v 0.09276122 -0.44937664 -0.09616809
v 0.10631007 -0.45587450 -0.05978505
v 0.11632227 -0.46435899 0.02806254
v 0.11004597 -0.46415204 0.00011491
v 0.15796506 -0.45198405 0.07117688
v 0.16977049 -0.44300294 0.11335394
v 0.12185139 -0.45355678 0.12221538
v 0.17485131 -0.43249047 0.15212277
v 0.16369343 -0.42504066 0.18168931
v 0.19905992 -0.41697007 0.17930354
v 0.23821211 -0.39304799 0.20878488
v 0.25913313 -0.37227139 0.23366508
v 0.28852218 -0.33746436 0.26229435
v 0.26849777 -0.32674494 0.29160529
v 0.27577034 -0.29901522 0.31665593
v 0.28732669 -0.27418262 0.33335632
v 0.11248675 -0.46067548 -0.02604339
v 0.21679297 -0.25493735 -0.29367602
v 0.26685399 -0.27906635 -0.24544933
v 0.23133807 -0.30675471 -0.24715348
v 0.20817551 -0.28841996 -0.27476025
v 0.17808908 -0.24860503 -0.31386989
v 0.15208724 -0.25708950 -0.31778938
v 0.34804747 -0.31776384 -0.11440221
v 0.33564430 -0.31039682 -0.14524685
v 0.31591874 -0.31726718 -0.16279933
v 0.27163595 -0.29884967 -0.22559629
v 0.28129944 -0.31557029 -0.20182377
v 0.31148550 -0.38907480 0.02704007
v 0.32129845 -0.37583074 -0.01931210
v 0.32622984 -0.36403525 -0.05092360
v 0.34864521 -0.34023732 -0.06668674
v 0.30077592 -0.39768344 0.06120775
v 0.33240652 -0.34309310 -0.09506041
v 0.28458703 -0.36486301 0.22199184
v 0.27895829 -0.38787454 0.17819585
v 0.29136145 -0.39822146 0.11718822
v 0.28134927 -0.40687150 0.09494940
v 0.26481169 -0.40509182 0.14513585
v 0.16538703 -0.29086185 -0.29069382
v 0.13445382 -0.31395617 -0.28387731
v 0.13465306 -0.33390501 -0.26692128
v 0.16488892 -0.34102368 -0.24851675
v 0.20080334 -0.35447469 -0.21792774
v 0.20508717 -0.37649292 -0.18537897
v 0.17231090 -0.38969558 -0.18486774
v 0.17749134 -0.40186357 -0.16041356
v 0.13564931 -0.42301267 -0.14260547
v 0.14366904 -0.43224213 -0.11235727
v 0.12025741 -0.44498953 -0.09020365
v 0.15253556 -0.44267184 -0.06736840
v 0.14511359 -0.45049411 -0.03993200
v 0.18939640 -0.44345820 0.03172641
v 0.14292185 -0.45575035 -0.00116318
v 0.23079014 -0.42901391 0.07756734
v 0.19432779 -0.43849167 0.09724997
v 0.20354299 -0.43861583 0.06120775
v 0.22257116 -0.42806196 0.10994569
v 0.19318211 -0.43249047 0.13312177
v 0.21933338 -0.42143995 0.14683998
v 0.25031641 -0.40248439 0.17402075
v 0.26481169 -0.38605350 0.20120153
v 0.19328174 -0.32500666 -0.25183982
v 0.24219707 -0.32964209 -0.21877980
v 0.21624504 -0.32748994 -0.23752517
v 0.16812670 -0.31482530 -0.27109641
v 0.31098738 -0.34007180 -0.13510732
v 0.29205883 -0.33340836 -0.16944541
v 0.26132485 -0.33551913 -0.19764866
v 0.26725248 -0.41349351 0.02397265
v 0.29748833 -0.39466214 0.00071135
v 0.29823551 -0.38518435 -0.04385148
v 0.31078812 -0.36469746 -0.08466525
v 0.26605698 -0.41572845 0.06555326
v 0.29250714 -0.36391109 -0.11746964
v 0.25853539 -0.41527319 0.10653745
v 0.23178637 -0.35393664 -0.19884156
v 0.24130045 -0.37479603 -0.15939108
v 0.20912194 -0.39408270 -0.15231897
v 0.17544906 -0.41775644 -0.12650149
v 0.16643310 -0.43207657 -0.09250422
v 0.17714266 -0.43629813 -0.06336370
v 0.17001955 -0.44739002 -0.00993942
v 0.19637008 -0.43377346 -0.04385148
v 0.23796305 -0.42711008 0.04169553
v 0.19592176 -0.43911248 -0.00746844
v 0.22277041 -0.43042105 0.00122259
v 0.27601939 -0.35542661 -0.15521598
v 0.25201002 -0.35513690 -0.18077783
v 0.24812469 -0.41990858 0.00028532
v 0.27044046 -0.40819591 -0.00780926
v 0.27253255 -0.40207052 -0.03456401
v 0.26755136 -0.39681429 -0.06805004
v 0.28752595 -0.38245276 -0.07759314
v 0.26814911 -0.38572240 -0.10213252
v 0.26346678 -0.37417522 -0.13587417
v 0.23646870 -0.39193052 -0.12965412
v 0.21245934 -0.41237605 -0.10417747
v 0.20095277 -0.42470956 -0.07759314
v 0.22805047 -0.41705287 -0.06361932
v 0.24090196 -0.41668037 -0.03916514
v 0.24020459 -0.40471932 -0.08969241
f 1 2 3
f 1 3 4
f 1 4 5
f 1 5 6
f 1 6 7
f 1 7 8
f 1 8 2
f 2 9 10
f 2 10 3
f 2 8 11
f 2 11 12
f 2 12 13
f 2 13 9
f 3 10 14
f 3 14 4
f 4 14 5
f 5 15 6
f 5 14 16
f 5 16 17
f 5 17 18
f 5 18 19
f 5 19 20
f 5 20 15
f 6 15 21
f 6 21 22
f 6 22 7
f 7 23 24
f 7 24 25
f 7 25 8
f 7 22 23
f 8 25 26
f 8 26 11
f 9 27 28
f 9 28 10
f 9 13 27
f 10 28 29
f 10 29 14
f 11 26 30
f 11 30 12
f 12 30 31
f 12 31 13
f 13 31 32
f 13 32 27
f 14 29 33
f 14 33 34
f 14 34 16
f 15 35 36
f 15 36 37
f 15 37 38
f 15 38 21
f 15 20 39
f 15 39 40
f 15 40 35
f 16 41 17
f 16 34 41
f 17 41 42
f 17 42 18
f 18 42 43
f 18 43 44
f 18 44 19
f 19 44 45
f 19 45 46
f 19 46 20
f 20 46 47
f 20 47 48
f 20 48 49
f 20 49 50
f 20 50 39
f 21 51 52
f 21 52 22
f 21 38 53
f 21 53 54
f 21 54 51
f 22 55 23
f 22 52 56
f 22 56 55
f 23 57 58
f 23 58 24
f 23 55 57
f 24 58 26
f 24 26 25
f 26 58 30
f 27 59 60
f 27 60 61
f 27 61 28
f 27 32 59
f 28 61 62
f 28 62 29
f 29 62 33
f 30 58 57
f 30 57 63
f 30 63 31
f 31 63 64
f 31 64 65
f 31 65 32
f 32 65 66
f 32 66 67
f 32 67 59
f 33 68 69
f 33 69 34
f 33 62 68
f 34 69 41
f 35 40 70
f 35 70 36
f 36 71 37
f 36 70 72
f 36 72 73
f 36 73 71
f 37 71 74
f 37 74 38
f 38 74 75
f 38 75 76
f 38 76 77
f 38 77 78
f 38 78 79
f 38 79 53
f 39 50 80
f 39 80 81
f 39 81 82
f 39 82 83
f 39 83 84
f 39 84 85
f 39 85 40
f 40 85 86
f 40 86 87
f 40 87 70
f 41 88 43
f 41 43 42
f 41 69 88
f 43 89 90
f 43 90 44
f 43 88 89
f 44 91 45
f 44 90 91
f 45 91 92
f 45 92 46
f 46 92 93
f 46 93 47
f 47 93 94
f 47 94 95
f 47 95 48
f 48 95 96
f 48 96 49
f 49 96 97
f 49 97 50
f 50 98 80
f 50 97 99
f 50 99 98
f 51 100 101
f 51 101 52
f 51 54 100
f 52 101 102
f 52 102 56
f 53 79 103
f 53 103 104
f 53 104 105
f 53 105 106
f 53 106 54
f 54 106 107
f 54 107 100
f 55 56 108
f 55 108 57
f 56 102 108
f 57 108 109
f 57 109 63
f 59 67 60
f 60 67 110
f 60 110 111
f 60 111 61
f 61 111 68
f 61 68 62
f 63 109 64
f 64 112 65
f 64 109 112
f 65 112 113
f 65 113 66
f 66 114 67
f 66 113 114
f 67 115 110
f 67 114 116
f 67 116 115
f 68 111 117
f 68 117 118
f 68 118 69
f 69 118 119
f 69 119 88
f 70 87 120
f 70 120 121
f 70 121 122
f 70 122 123
f 70 123 124
f 70 124 125
f 70 125 72
f 71 126 127
f 71 127 128
f 71 128 74
f 71 73 129
f 71 129 126
f 72 130 131
f 72 131 132
f 72 132 133
f 72 133 134
f 72 134 73
f 72 125 135
f 72 135 130
f 73 134 136
f 73 136 129
f 74 128 75
f 75 137 76
f 75 128 137
f 76 138 77
f 76 137 139
f 76 139 138
f 77 138 78
f 78 138 140
f 78 140 79
f 79 140 141
f 79 141 103
f 80 98 142
f 80 142 81
f 81 142 143
f 81 143 82
f 82 144 145
f 82 145 83
f 82 143 144
f 83 145 84
f 84 146 85
f 84 145 146
f 85 147 86
f 85 146 148
f 85 148 147
f 86 147 120
f 86 120 87
f 88 119 89
f 89 149 150
f 89 150 90
f 89 119 149
f 90 150 91
f 91 151 92
f 91 150 151
f 92 152 93
f 92 151 152
f 93 153 94
f 93 152 154
f 93 154 153
f 94 155 95
f 94 153 155
f 95 155 156
f 95 156 96
f 96 156 157
f 96 157 158
f 96 158 99
f 96 99 97
f 98 99 159
f 98 159 142
f 99 158 159
f 100 107 101
f 101 160 102
f 101 107 161
f 101 161 160
f 102 160 162
f 102 162 108
f 103 141 104
f 104 163 105
f 104 141 163
f 105 164 165
f 105 165 106
f 105 163 164
f 106 165 161
f 106 161 107
f 108 166 109
f 108 162 166
f 109 166 112
f 110 115 167
f 110 167 168
f 110 168 169
f 110 169 111
f 111 169 117
f 112 166 170
f 112 170 113
f 113 171 114
f 113 170 172
f 113 172 171
f 114 171 116
f 115 116 173
f 115 173 167
f 116 171 174
f 116 174 173
f 117 175 176
f 117 176 118
f 117 169 175
f 118 176 119
f 119 176 149
f 120 147 177
f 120 177 178
f 120 178 179
f 120 179 121
f 121 179 180
f 121 180 122
f 122 180 181
f 122 181 123
f 123 181 182
f 123 182 183
f 123 183 184
f 123 184 185
f 123 185 124
f 124 186 187
f 124 187 125
f 124 185 186
f 125 187 188
f 125 188 189
f 125 189 190
f 125 190 191
f 125 191 192
f 125 192 193
f 125 193 135
f 126 194 195
f 126 195 196
f 126 196 127
f 126 129 194
f 127 196 128
f 128 197 137
f 128 196 197
f 129 136 198
f 129 198 199
f 129 199 194
f 130 200 201
f 130 201 202
f 130 202 203
f 130 203 204
f 130 204 131
f 130 135 200
f 131 204 205
f 131 205 206
f 131 206 207
f 131 207 208
f 131 208 132
f 132 208 209
f 132 209 133
f 133 209 210
f 133 210 211
f 133 211 134
f 134 211 212
f 134 212 213
f 134 213 136
f 135 193 214
f 135 214 215
f 135 215 216
f 135 216 200
f 136 213 217
f 136 217 218
f 136 218 198
f 137 197 219
f 137 219 139
f 138 139 220
f 138 220 140
f 139 219 221
f 139 221 222
f 139 222 220
f 140 220 223
f 140 223 141
f 141 223 224
f 141 224 225
f 141 225 163
f 142 159 226
f 142 226 143
f 143 227 144
f 143 226 227
f 144 228 145
f 144 227 229
f 144 229 228
f 145 228 148
f 145 148 146
f 147 148 177
f 148 228 177
f 149 176 230
f 149 230 231
f 149 231 232
f 149 232 233
f 149 233 150
f 150 233 151
f 151 233 152
f 152 233 234
f 152 234 154
f 153 154 155
f 154 235 155
f 154 234 236
f 154 236 235
f 155 235 237
f 155 237 238
f 155 238 156
f 156 238 157
f 157 239 240
f 157 240 158
f 157 238 241
f 157 241 242
f 157 242 239
f 158 240 159
f 159 240 226
f 160 243 162
f 160 161 244
f 160 244 245
f 160 245 243
f 161 165 244
f 162 243 246
f 162 246 166
f 163 225 164
f 164 247 244
f 164 244 165
f 164 225 248
f 164 248 247
f 166 246 249
f 166 249 170
f 167 250 251
f 167 251 168
f 167 173 252
f 167 252 250
f 168 251 253
f 168 253 169
f 169 253 175
f 170 249 254
f 170 254 172
f 171 172 255
f 171 255 174
f 172 254 256
f 172 256 255
f 173 257 252
f 173 174 258
f 173 258 257
f 174 259 258
f 174 255 259
f 175 253 260
f 175 260 230
f 175 230 176
f 177 228 261
f 177 261 178
f 178 261 262
f 178 262 179
f 179 262 263
f 179 263 180
f 180 263 182
f 180 182 181
f 182 264 265
f 182 265 183
f 182 263 264
f 183 265 266
f 183 266 184
f 184 266 267
f 184 267 185
f 185 267 268
f 185 268 269
f 185 269 186
f 186 269 270
f 186 270 187
f 187 270 271
f 187 271 188
f 188 271 272
f 188 272 273
f 188 273 189
f 189 273 190
f 190 274 191
f 190 273 274
f 191 274 192
f 192 274 275
f 192 275 276
f 192 276 193
f 193 277 214
f 193 276 277
f 194 199 278
f 194 278 279
f 194 279 195
f 195 279 280
f 195 280 197
f 195 197 196
f 197 280 281
f 197 281 219
f 198 218 282
f 198 282 278
f 198 278 199
f 200 283 284
f 200 284 201
f 200 216 283
f 201 285 202
f 201 284 285
f 202 286 203
f 202 285 286
f 203 287 204
f 203 286 287
f 204 287 205
f 205 287 206
f 206 288 207
f 206 287 289
f 206 289 288
f 207 288 290
f 207 290 210
f 207 210 208
f 208 210 209
f 210 290 291
f 210 291 211
f 211 291 292
f 211 292 212
f 212 293 213
f 212 292 293
f 213 294 217
f 213 293 294
f 214 277 215
f 215 295 216
f 215 277 295
f 216 295 296
f 216 296 283
f 217 294 297
f 217 297 218
f 218 297 298
f 218 298 282
f 219 281 299
f 219 299 221
f 220 222 300
f 220 300 223
f 221 299 222
f 222 299 301
f 222 301 300
f 223 300 224
f 224 302 248
f 224 248 225
f 224 300 303
f 224 303 302
f 226 240 304
f 226 304 305
f 226 305 227
f 227 305 306
f 227 306 229
f 228 229 307
f 228 307 261
f 229 306 308
f 229 308 307
f 230 260 231
f 231 260 309
f 231 309 232
f 232 309 236
f 232 236 234
f 232 234 233
f 235 236 310
f 235 310 311
f 235 311 237
f 236 309 312
f 236 312 310
f 237 311 241
f 237 241 238
f 239 313 304
f 239 304 240
f 239 242 314
f 239 314 313
f 241 311 242
f 242 311 315
f 242 315 314
f 243 316 317
f 243 317 246
f 243 245 318
f 243 318 316
f 244 247 245
f 245 247 318
f 246 317 249
f 247 248 319
f 247 319 318
f 248 302 320
f 248 320 319
f 249 317 254
f 250 321 251
f 250 252 322
f 250 322 321
f 251 321 323
f 251 323 253
f 252 257 322
f 253 323 324
f 253 324 325
f 253 325 260
f 254 326 256
f 254 317 327
f 254 327 326
f 255 256 328
f 255 328 329
f 255 329 259
f 256 326 328
f 257 330 322
f 257 258 330
f 258 259 331
f 258 331 330
f 259 332 331
f 259 329 332
f 260 325 309
f 261 307 333
f 261 333 262
f 262 333 334
f 262 334 263
f 263 334 264
f 264 334 335
f 264 335 336
f 264 336 265
f 265 336 337
f 265 337 266
f 266 337 268
f 266 268 267
f 268 337 338
f 268 338 269
f 269 339 270
f 269 338 339
f 270 339 340
f 270 340 271
f 271 341 342
f 271 342 272
f 271 340 341
f 272 342 343
f 272 343 344
f 272 344 273
f 273 344 274
f 274 345 275
f 274 344 345
f 275 346 347
f 275 347 276
f 275 345 346
f 276 347 277
f 277 347 348
f 277 348 295
f 278 282 301
f 278 301 279
f 279 301 299
f 279 299 281
f 279 281 280
f 282 298 349
f 282 349 350
f 282 350 301
f 283 351 284
f 283 296 352
f 283 352 351
f 284 351 285
f 285 353 354
f 285 354 286
f 285 351 355
f 285 355 353
f 286 354 287
f 287 354 289
f 288 289 356
f 288 356 290
f 289 354 357
f 289 357 358
f 289 358 359
f 289 359 356
f 290 356 359
f 290 359 360
f 290 360 291
f 291 361 292
f 291 360 362
f 291 362 361
f 292 361 363
f 292 363 293
f 293 363 364
f 293 364 294
f 294 365 297
f 294 364 365
f 295 348 366
f 295 366 296
f 296 367 352
f 296 366 367
f 297 368 298
f 297 365 369
f 297 369 370
f 297 370 368
f 298 368 371
f 298 371 349
f 300 301 350
f 300 350 372
f 300 372 303
f 302 371 368
f 302 368 320
f 302 303 372
f 302 372 371
f 304 313 305
f 305 373 306
f 305 313 374
f 305 374 373
f 306 373 375
f 306 375 308
f 307 308 376
f 307 376 333
f 308 375 376
f 309 377 312
f 309 325 377
f 310 378 379
f 310 379 315
f 310 315 311
f 310 312 378
f 312 377 378
f 313 380 374
f 313 314 381
f 313 381 380
f 314 315 381
f 315 382 381
f 315 379 382
f 316 318 383
f 316 383 384
f 316 384 385
f 316 385 327
f 316 327 317
f 318 319 383
f 319 320 370
f 319 370 383
f 320 368 370
f 321 322 386
f 321 386 387
f 321 387 388
f 321 388 323
f 322 389 386
f 322 330 389
f 323 388 324
f 324 388 390
f 324 390 325
f 325 390 377
f 326 327 391
f 326 391 392
f 326 392 328
f 327 385 391
f 328 393 329
f 328 392 393
f 329 394 332
f 329 393 394
f 330 395 389
f 330 331 396
f 330 396 395
f 331 332 396
f 332 397 396
f 332 394 397
f 333 376 398
f 333 398 334
f 334 398 335
f 335 398 399
f 335 399 336
f 336 399 337
f 337 400 401
f 337 401 338
f 337 399 400
f 338 401 402
f 338 402 339
f 339 402 403
f 339 403 340
f 340 403 341
f 341 404 342
f 341 403 404
f 342 404 405
f 342 405 406
f 342 406 343
f 343 407 408
f 343 408 344
f 343 406 407
f 344 408 409
f 344 409 345
f 345 409 410
f 345 410 346
f 346 410 411
f 346 411 347
f 347 411 348
f 348 412 366
f 348 411 412
f 349 371 372
f 349 372 350
f 351 352 413
f 351 413 355
f 352 367 414
f 352 414 413
f 353 355 415
f 353 415 416
f 353 416 417
f 353 417 354
f 354 417 357
f 355 413 415
f 357 417 418
f 357 418 358
f 358 418 419
f 358 419 359
f 359 419 360
f 360 419 420
f 360 420 362
f 361 362 421
f 361 421 422
f 361 422 363
f 362 420 421
f 363 423 424
f 363 424 364
f 363 422 423
f 364 425 426
f 364 426 365
f 364 424 425
f 365 426 369
f 366 412 427
f 366 427 367
f 367 427 414
f 369 426 370
f 370 426 383
f 373 374 428
f 373 428 375
f 374 380 429
f 374 429 430
f 374 430 431
f 374 431 428
f 375 428 432
f 375 432 376
f 376 432 433
f 376 433 398
f 377 434 435
f 377 435 378
f 377 390 434
f 378 435 436
f 378 436 382
f 378 382 379
f 380 381 429
f 381 437 429
f 381 382 437
f 382 438 437
f 382 436 438
f 383 426 384
f 384 425 424
f 384 424 385
f 384 426 425
f 385 424 391
f 386 439 387
f 386 389 439
f 387 440 441
f 387 441 388
f 387 439 440
f 388 441 442
f 388 442 390
f 389 395 443
f 389 443 439
f 390 442 444
f 390 444 434
f 391 423 392
f 391 424 423
f 392 423 393
f 393 445 394
f 393 423 445
f 394 445 446
f 394 446 397
f 395 396 447
f 395 447 448
f 395 448 443
f 396 397 447
f 397 446 449
f 397 449 447
f 398 433 399
f 399 433 400
f 400 433 450
f 400 450 401
f 401 450 451
f 401 451 402
f 402 451 452
f 402 452 403
f 403 452 404
f 404 452 453
f 404 453 405
f 405 453 454
f 405 454 455
f 405 455 456
f 405 456 406
f 406 456 407
f 407 456 457
f 407 457 458
f 407 458 408
f 408 458 409
f 409 458 410
f 410 459 460
f 410 460 411
f 410 458 459
f 411 460 412
f 412 460 461
f 412 461 462
f 412 462 427
f 413 463 415
f 413 414 464
f 413 464 463
f 414 427 464
f 415 465 466
f 415 466 416
f 415 463 467
f 415 467 465
f 416 468 469
f 416 469 417
f 416 466 468
f 417 469 418
f 418 469 470
f 418 470 420
f 418 420 419
f 420 470 471
f 420 471 421
f 421 471 472
f 421 472 422
f 422 472 445
f 422 445 423
f 427 462 464
f 428 431 432
f 429 437 430
f 430 473 431
f 430 437 474
f 430 474 475
f 430 475 473
f 431 476 450
f 431 450 432
f 431 473 476
f 432 450 433
f 434 444 477
f 434 477 435
f 435 477 436
f 436 477 478
f 436 478 438
f 437 438 474
f 438 478 479
f 438 479 474
f 439 443 480
f 439 480 481
f 439 481 440
f 440 481 482
f 440 482 441
f 441 482 483
f 441 483 442
f 442 483 444
f 443 484 480
f 443 448 484
f 444 485 477
f 444 483 485
f 445 472 446
f 446 471 449
f 446 472 471
f 447 486 448
f 447 449 486
f 448 486 484
f 449 471 470
f 449 470 468
f 449 468 486
f 450 476 451
f 451 476 452
f 452 476 453
f 453 476 473
f 453 473 454
f 454 475 474
f 454 474 487
f 454 487 455
f 454 473 475
f 455 488 489
f 455 489 457
f 455 457 456
f 455 487 488
f 457 489 490
f 457 490 458
f 458 490 459
f 459 491 460
f 459 490 491
f 460 491 461
f 461 492 462
f 461 491 492
f 462 493 464
f 462 492 494
f 462 494 493
f 463 495 467
f 463 464 493
f 463 493 496
f 463 496 497
f 463 497 495
f 465 486 468
f 465 468 466
f 465 467 495
f 465 495 484
f 465 484 486
f 468 470 469
f 474 479 487
f 477 485 498
f 477 498 478
f 478 498 499
f 478 499 479
f 479 499 487
f 480 484 495
f 480 495 500
f 480 500 501
f 480 501 481
f 481 501 502
f 481 502 482
f 482 503 504
f 482 504 483
f 482 502 503
f 483 504 505
f 483 505 485
f 485 506 498
f 485 505 506
f 487 499 488
f 488 498 506
f 488 506 507
f 488 507 489
f 488 499 498
f 489 507 508
f 489 508 490
f 490 508 491
f 491 508 509
f 491 509 492
f 492 509 494
f 493 494 496
f 494 509 510
f 494 510 511
f 494 511 497
f 494 497 496
f 495 497 500
f 497 511 500
f 500 511 501
f 501 511 502
f 502 511 503
f 503 512 505
f 503 505 504
f 503 511 510
f 503 510 512
f 505 507 506
f 505 512 507
f 507 512 508
f 508 512 509
f 509 512 510

