# https://github.com/mikedh/trimesh
v -0.04499616 -0.00325069 -0.44191283
v -0.04499616 0.00500390 -0.44199425
v -0.03500820 -0.00325069 -0.44183141
v -0.05499100 -0.00325069 -0.44150570
v -0.05499100 0.00500390 -0.44134283
v -0.05556233 0.01568097 -0.44060999
v -0.04499616 0.01500184 -0.44134283
v -0.03500820 0.01500184 -0.44134283
v -0.03500820 0.00500390 -0.44191283
v -0.00028093 0.00571804 -0.44044712
v -0.00028093 -0.00325069 -0.44020283
v -0.06649333 -0.00325069 -0.44052857
v -0.06556406 0.00477286 -0.44044712
v -0.06260415 0.01279641 -0.44028428
v -0.05927942 0.01946870 -0.43987712
v -0.05260931 0.02152009 -0.44020283
v -0.04499616 0.02301138 -0.44036570
v -0.03500820 0.02845843 -0.43979570
v -0.00028093 0.01425269 -0.44012141
v -0.00028093 0.03499769 -0.43849286
v -0.00028093 0.02897653 -0.43906286
v -0.00028093 0.02433464 -0.43946999
v -0.00028093 0.01832748 -0.43987712
v -0.00028093 0.01269839 -0.44020283
v -0.00028093 -0.00325069 0.35127378
v -0.07060278 -0.00325069 -0.44003999
v -0.07060278 -0.00156336 -0.44003999
v -0.07038251 0.00129319 -0.44003999
v -0.06928115 0.00795848 -0.43987712
v -0.07060278 0.01531690 -0.43906286
v -0.06556406 0.01568097 -0.43963286
v -0.06499273 0.02500677 -0.43857428
v -0.05556233 0.02491575 -0.43946999
v -0.07060278 0.02500677 -0.43800431
v -0.05499100 0.03499769 -0.43800431
v -0.04499616 0.02801735 -0.43971428
v -0.03500820 0.03499769 -0.43889999
v -0.00028093 0.04498862 -0.43719003
v -0.00028093 0.00384868 0.35273945
v -0.07060278 -0.00325069 0.38987046
v -0.07060278 0.00148923 -0.43995857
v -0.07060278 0.00711131 -0.43971428
v -0.07060278 0.00958279 -0.43955141
v -0.07060278 0.02065893 -0.43849286
v -0.07060278 0.03060785 -0.43727145
v -0.07060278 0.03499769 -0.43662003
v -0.07060278 0.04059177 -0.43572432
v -0.06499273 0.04498862 -0.43548006
v -0.06499273 0.06499849 -0.43206009
v -0.05499100 0.04498862 -0.43629432
v -0.04499616 0.03499769 -0.43857428
v -0.03500820 0.04498862 -0.43727145
v -0.02500647 0.04498862 -0.43735287
v -0.00028093 0.05499355 -0.43548006
v -0.00028093 0.00467484 0.35290232
v -0.00028093 0.01500184 0.35477516
v -0.00028093 0.06822611 0.36365077
v -0.07060278 0.05499355 0.38237911
v -0.07060278 0.04498862 -0.43499148
v -0.06886815 0.06827512 -0.43116438
v -0.06499273 0.06827512 -0.43149009
v -0.04499616 0.04498862 -0.43686432
v -0.05891459 0.06827512 -0.43189722
v -0.05509425 0.06827512 -0.43214151
v -0.04812815 0.06827512 -0.43254864
v -0.03500820 0.05499355 -0.43548006
v -0.02500647 0.05499355 -0.43564290
v -0.00028093 0.06527854 -0.43352577
v -0.00028093 0.06827512 0.36340648
v -0.07060278 0.06827512 0.37863347
v -0.07060278 0.06216994 0.38107628
v -0.07060278 0.05996451 0.38164628
v -0.07060278 0.05499355 -0.43328151
v -0.07060278 0.06827512 -0.43100151
v -0.07060278 0.06069265 -0.43230435
v -0.04499616 0.06499849 -0.43328151
v -0.03827786 0.06827512 -0.43287435
v -0.03500820 0.06499849 -0.43360722
v -0.02828301 0.06827512 -0.43303722
v -0.02500647 0.06499849 -0.43368864
v -0.02500647 0.06827512 -0.43303722
v -0.00028093 0.06827512 -0.43287435
v -0.03500820 0.06827512 -0.43295580
f 1 2 9
f 1 9 3
f 1 3 11
f 1 11 25
f 1 25 40
f 1 40 26
f 1 26 12
f 1 12 4
f 1 4 2
f 2 4 5
f 2 5 6
f 2 6 7
f 2 7 8
f 2 8 9
f 3 9 10
f 3 10 11
f 4 12 5
f 5 12 13
f 5 13 14
f 5 14 6
f 6 14 15
f 6 15 16
f 6 16 7
f 7 16 17
f 7 17 18
f 7 18 8
f 8 19 9
f 8 18 20
f 8 20 21
f 8 21 22
f 8 22 23
f 8 23 19
f 9 19 24
f 9 24 10
f 10 24 19
f 10 19 23
f 10 23 22
f 10 22 21
f 10 21 20
f 10 20 38
f 10 38 54
f 10 54 68
f 10 68 82
f 10 82 69
f 10 69 57
f 10 57 56
f 10 56 55
f 10 55 39
f 10 39 25
f 10 25 11
f 12 26 27
f 12 27 28
f 12 28 13
f 13 28 29
f 13 29 14
f 14 29 30
f 14 30 31
f 14 31 15
f 15 32 33
f 15 33 16
f 15 31 34
f 15 34 32
f 16 33 35
f 16 35 36
f 16 36 17
f 17 36 18
f 18 36 37
f 18 37 38
f 18 38 20
f 25 39 40
f 26 40 58
f 26 58 72
f 26 72 71
f 26 71 70
f 26 70 74
f 26 74 75
f 26 75 73
f 26 73 59
f 26 59 47
f 26 47 46
f 26 46 45
f 26 45 34
f 26 34 44
f 26 44 30
f 26 30 43
f 26 43 42
f 26 42 41
f 26 41 27
f 27 41 28
f 28 41 42
f 28 42 29
f 29 42 43
f 29 43 30
f 30 44 31
f 31 44 34
f 32 34 45
f 32 45 33
f 33 45 46
f 33 46 35
f 35 46 47
f 35 47 48
f 35 48 49
f 35 49 50
f 35 50 62
f 35 62 51
f 35 51 36
f 36 51 52
f 36 52 37
f 37 52 53
f 37 53 38
f 38 53 67
f 38 67 54
f 39 55 40
f 40 55 56
f 40 56 57
f 40 57 58
f 47 59 48
f 48 59 60
f 48 60 49
f 49 60 61
f 49 61 50
f 50 61 63
f 50 63 64
f 50 64 65
f 50 65 62
f 51 62 52
f 52 62 76
f 52 76 66
f 52 66 67
f 52 67 53
f 54 67 68
f 57 69 70
f 57 70 71
f 57 71 72
f 57 72 58
f 59 73 60
f 60 74 70
f 60 70 69
f 60 69 82
f 60 82 81
f 60 81 79
f 60 79 83
f 60 83 77
f 60 77 65
f 60 65 64
f 60 64 63
f 60 63 61
f 60 73 75
f 60 75 74
f 62 65 76
f 65 77 76
f 66 76 78
f 66 78 67
f 67 78 79
f 67 79 80
f 67 80 68
f 68 80 81
f 68 81 82
f 76 77 78
f 77 83 78
f 78 83 79
f 79 81 80

