# https://github.com/mikedh/trimesh
v 0.50182182 -0.00908543 0.07491228
v 0.50005019 -0.02597106 0.07491228
v 0.50141692 -0.01204679 0.06485481
v 0.50091070 -0.00908543 0.04714679
v 0.50172055 -0.00908543 0.08694685
v 0.50005019 -0.02578965 0.08488379
v 0.49893665 -0.03499242 0.07491228
v 0.49999961 -0.02538761 0.06485481
v 0.50111318 -0.01204679 0.05591484
v 0.50025272 -0.01472868 0.04585737
v 0.49974653 -0.01076223 0.03399472
v 0.49762061 -0.01204679 0.01491132
v 0.49635518 -0.01204679 0.00597135
v 0.48602933 -0.00908543 -0.04491772
v 0.50151813 -0.00908543 0.09691836
v 0.49999961 -0.02515718 0.09485529
v 0.49868357 -0.03499242 0.09485529
v 0.49711445 -0.04499926 0.07491228
v 0.49681073 -0.04499926 0.06485481
v 0.49853170 -0.03499242 0.06485481
v 0.49711445 -0.04499926 0.08488379
v 0.49964529 -0.02284790 0.05135889
v 0.49797493 -0.02500028 0.03494029
v 0.49706382 -0.02500028 0.02488282
v 0.49873418 -0.01204679 0.02496878
v 0.49589962 -0.02500028 0.01491132
v 0.49448237 -0.02500028 0.00493981
v 0.49473545 -0.01204679 -0.00382824
v 0.49276137 -0.01204679 -0.01388571
v 0.49023053 -0.01204679 -0.02549048
v 0.49012929 -0.02342645 -0.01844165
v 0.48339725 -0.02500028 -0.04491772
v 0.48309356 -0.01204679 -0.05488923
v 0.48020840 -0.01204679 -0.06580631
v 0.47762692 -0.01204679 -0.07474628
v 0.47479236 -0.01204679 -0.08394413
v 0.47109735 -0.01204679 -0.09529103
v 0.46806031 -0.01204679 -0.10431696
v 0.46426404 -0.01204679 -0.11497615
v 0.45135671 -0.01056611 -0.14532048
v 0.44366294 -0.00908543 -0.16130927
v 0.50101197 -0.00908543 0.10766352
v 0.49999961 -0.02049451 0.10585833
v 0.49827862 -0.03499242 0.10491276
v 0.49660826 -0.04499926 0.10491276
v 0.49438113 -0.05708494 0.06485481
v 0.49468482 -0.05708494 0.07594381
v 0.49377373 -0.05708494 0.05488330
v 0.49615273 -0.04499926 0.05488330
v 0.49797493 -0.03499242 0.05488330
v 0.49458358 -0.05708494 0.09485529
v 0.49468482 -0.05708494 0.08488379
v 0.49635518 -0.03499242 0.03494029
v 0.49544409 -0.03499242 0.02488282
v 0.49427989 -0.03499242 0.01491132
v 0.49281198 -0.03499242 0.00493981
v 0.49271077 -0.02500028 -0.00485977
v 0.48658609 -0.03499242 -0.02488875
v 0.49002808 -0.03530130 -0.01010341
v 0.48010713 -0.03546309 -0.05024732
v 0.47980344 -0.02449528 -0.05953114
v 0.47545040 -0.02500028 -0.07491820
v 0.46983188 -0.02664276 -0.09133680
v 0.46552944 -0.02500028 -0.10491868
v 0.46001220 -0.02538271 -0.12004787
v 0.46011347 -0.01204679 -0.12563534
v 0.45611471 -0.01204679 -0.13466129
v 0.45373571 -0.02500028 -0.13491917
v 0.44821846 -0.02500028 -0.14635201
v 0.44391602 -0.02500028 -0.15494815
v 0.43941110 -0.02500028 -0.16388811
v 0.43930990 -0.01204679 -0.16878790
v 0.42923713 -0.01204679 -0.18623804
v 0.42397296 -0.01231155 -0.19466224
v 0.40974960 -0.01204679 -0.21580872
v 0.38950282 -0.00908543 -0.24194093
v 0.49514037 -0.01204679 0.15494221
v 0.49681073 -0.01204679 0.14497070
v 0.49843049 -0.01204679 0.13276421
v 0.49984774 -0.01308621 0.11892445
v 0.48263800 -0.00908543 0.20617513
v 0.49893665 -0.02500028 0.11488426
v 0.49762061 -0.03499242 0.11488426
v 0.49605149 -0.04499926 0.11488426
v 0.49352065 -0.05917358 0.11093005
v 0.49083793 -0.05835969 0.02565647
v 0.49296385 -0.05708494 0.04482584
v 0.49539346 -0.04499926 0.04491180
v 0.49352065 -0.04499926 0.02488282
v 0.49245769 -0.04499926 0.01491132
v 0.49007869 -0.04542581 -0.00030383
v 0.48719352 -0.04499926 -0.01491724
v 0.48466265 -0.04499926 -0.02488875
v 0.47990468 -0.04438149 -0.04397215
v 0.47696888 -0.04499926 -0.05488923
v 0.47631088 -0.03499242 -0.06486074
v 0.46988252 -0.04487178 -0.07981800
v 0.47094548 -0.03499242 -0.08291260
v 0.47428620 -0.04499926 -0.06486074
v 0.46542823 -0.05708494 -0.08497567
v 0.45945543 -0.03882650 -0.11360077
v 0.45596287 -0.03499242 -0.12494766
v 0.45029378 -0.03311460 -0.13852954
v 0.43743706 -0.03439916 -0.16406003
v 0.43480498 -0.04499926 -0.16491964
v 0.42878157 -0.03496300 -0.18056460
v 0.42888278 -0.02635839 -0.18314344
v 0.42103717 -0.02355883 -0.19663934
v 0.41810137 -0.01274300 -0.20360221
v 0.40919280 -0.02500028 -0.21391757
v 0.40053731 -0.02500028 -0.22569425
v 0.40139779 -0.01352747 -0.22681175
v 0.39178056 -0.02241154 -0.23712711
v 0.38206214 -0.02388732 -0.24804419
v 0.38155594 -0.01204679 -0.25053704
v 0.37365973 -0.00908543 -0.25956297
v 0.49301445 -0.01204679 0.16491371
v 0.49367249 -0.02500028 0.15494221
v 0.49539346 -0.02500028 0.14497070
v 0.49681073 -0.02500028 0.13491324
v 0.49797493 -0.02500028 0.12494174
v 0.45920235 -0.01056611 0.26437092
v 0.47575408 -0.01204679 0.22603218
v 0.47970220 -0.01204679 0.21459933
v 0.48243552 -0.01500325 0.20488571
v 0.48532069 -0.01204679 0.19594574
v 0.48931944 -0.01204679 0.18064463
v 0.30315030 -0.00908543 0.41583467
v 0.49676013 -0.03499242 0.12494174
v 0.49519101 -0.04499926 0.12494174
v 0.49230582 -0.05708494 0.13027133
v 0.48724413 -0.05917358 0.16302258
v 0.41445696 -0.05917358 -0.19457628
v 0.45044559 -0.05758994 -0.12434593
v 0.47585532 -0.05708494 -0.04887194
v 0.48456144 -0.05708494 -0.01491724
v 0.48694044 -0.05708494 -0.00382824
v 0.48952189 -0.05621222 0.01078518
v 0.49205273 -0.05708494 0.03494029
v 0.48248613 -0.05499630 -0.02488875
v 0.47023684 -0.05668780 -0.07010438
v 0.45429251 -0.05708494 -0.11506211
v 0.46046776 -0.05584450 -0.09958909
v 0.45353323 -0.04499926 -0.12494766
v 0.44933206 -0.04626911 -0.13362974
v 0.44254938 -0.04655839 -0.14807124
v 0.42979389 -0.04499926 -0.17471923
v 0.42883217 -0.05429028 -0.17222635
v 0.43693089 -0.05695746 -0.15443237
v 0.43207166 -0.05810964 -0.16380215
v 0.42225197 -0.04632795 -0.18769938
v 0.42002481 -0.03499242 -0.19500609
v 0.40919280 -0.03611028 -0.21099488
v 0.39967680 -0.03499242 -0.22457676
v 0.39076823 -0.03499242 -0.23592365
v 0.38069546 -0.04499926 -0.24580920
v 0.37932879 -0.03499242 -0.24916168
v 0.36966097 -0.03773805 -0.25964898
v 0.36105609 -0.02500028 -0.27108181
v 0.36697829 -0.00908543 -0.26678371
v 0.48683921 -0.02500028 0.18494269
v 0.49002808 -0.03345290 0.16714871
v 0.48997745 -0.04506790 0.15984200
v 0.49230582 -0.03499242 0.15494221
v 0.49412805 -0.03499242 0.14497070
v 0.49549469 -0.03499242 0.13491324
v 0.42918649 -0.01204679 0.31448632
v 0.44892710 -0.01204679 0.28362620
v 0.45368510 -0.01204679 0.27485818
v 0.45991099 -0.02479436 0.25990093
v 0.46355540 -0.01204679 0.25491518
v 0.39901879 -0.01130645 0.34904277
v 0.47383064 -0.03499242 0.22491468
v 0.47484297 -0.02500028 0.22491468
v 0.46978128 -0.01484635 0.24055964
v 0.47150224 -0.02500028 0.23385465
v 0.47823432 -0.03499242 0.21141876
v 0.48025900 -0.02389713 0.20883992
v 0.47980344 -0.04714673 0.20136130
v 0.48415649 -0.02500028 0.19491421
v 0.25253335 -0.00908543 0.43113577
v 0.27389371 -0.01204679 0.42632192
v 0.28391588 -0.01204679 0.42314136
v 0.29297629 -0.01204679 0.41978884
v 0.28857261 -0.02933936 0.42082042
v 0.30492190 -0.01500325 0.41480309
v 0.31494406 -0.01204679 0.41050506
v 0.32420695 -0.01204679 0.40577716
v 0.33438095 -0.01056611 0.40001780
v 0.49402681 -0.04499926 0.13491324
v 0.49023053 -0.05511396 0.14892493
v 0.49255890 -0.04499926 0.14497070
v 0.48461205 -0.05812926 0.17703426
v 0.46573192 -0.05917358 0.23703521
v 0.39415956 -0.05917358 -0.22457676
v 0.40838295 -0.05708494 -0.20480567
v 0.42058161 -0.05792334 -0.18529247
v 0.44113210 -0.05695746 -0.14557835
v 0.44639626 -0.05661426 -0.13414551
v 0.41233104 -0.04499926 -0.20343029
v 0.40463728 -0.04499926 -0.21486314
v 0.39851263 -0.04625931 -0.22302946
v 0.38975590 -0.04499926 -0.23472019
v 0.36900294 -0.04499926 -0.25896126
v 0.37953126 -0.05603571 -0.24451977
v 0.35786721 -0.03628679 -0.27271509
v 0.35032529 -0.03795868 -0.28027964
v 0.35371664 -0.02500028 -0.27864641
v 0.35948697 -0.01056611 -0.27452028
v 0.33407724 -0.01056611 -0.29910517
v 0.25825307 -0.01056611 -0.35283095
v 0.14659208 -0.00908543 -0.40346217
v 0.48299229 -0.03499242 0.19491421
v 0.48440957 -0.04499926 0.18494269
v 0.48683921 -0.04499926 0.17497119
v 0.42027789 -0.01204679 0.32600510
v 0.42862970 -0.02500028 0.31328285
v 0.43455189 -0.02500028 0.30494463
v 0.43895555 -0.01352747 0.30004483
v 0.44892710 -0.02396087 0.28139120
v 0.44047409 -0.02500028 0.29574674
v 0.45049623 -0.03499242 0.27597564
v 0.45616531 -0.03499242 0.26488668
v 0.45980975 -0.04499926 0.25465727
v 0.46168256 -0.03499242 0.25345385
v 0.46563071 -0.03499242 0.24485770
v 0.46816152 -0.02500028 0.24184905
v 0.37497574 -0.01204679 0.37087691
v 0.38327694 -0.01204679 0.36382806
v 0.39162874 -0.01352747 0.35609156
v 0.39334971 -0.02500028 0.35325485
v 0.40079039 -0.02500028 0.34586215
v 0.40934467 -0.01204679 0.33838356
v 0.47261584 -0.04499926 0.22491468
v 0.47595656 -0.04499926 0.21494317
v 0.46993315 -0.03499242 0.23497215
v 0.46922451 -0.04634756 0.23325293
v 0.47889233 -0.05708494 0.19972803
v 0.48263800 -0.05708494 0.18588828
v 0.21300152 -0.00908543 0.43448824
v 0.23400755 -0.01204679 0.43380058
v 0.24392848 -0.01204679 0.43268305
v 0.24494082 -0.02500028 0.43302691
v 0.26179627 -0.01204679 0.42933059
v 0.26113823 -0.02500028 0.42950249
v 0.26098639 -0.03499242 0.42941654
v 0.27490604 -0.02500028 0.42580616
v 0.27490604 -0.03499242 0.42546231
v 0.28427017 -0.04499926 0.42150807
v 0.29211581 -0.04499926 0.41849947
v 0.30492190 -0.03499242 0.41359967
v 0.31038854 -0.04807829 0.41016120
v 0.31631070 -0.03499242 0.40809816
v 0.32491559 -0.03499242 0.40337026
v 0.33286244 -0.03643387 0.39864242
v 0.34389696 -0.02500028 0.39253914
v 0.35270429 -0.01204679 0.38772529
v 0.36616841 -0.01204679 0.37783974
v 0.47398251 -0.05708494 0.21563086
v 0.47043931 -0.05657503 0.22611813
v 0.46041715 -0.05917358 0.24949960
v 0.36971158 -0.05917358 -0.25474918
v 0.38859171 -0.05603571 -0.23317289
v 0.40139779 -0.05659955 -0.21537891
v 0.36060053 -0.05812926 -0.26515049
v 0.34956604 -0.04759780 -0.27950603
v 0.33762044 -0.04374411 -0.29145461
v 0.34364384 -0.02500028 -0.28861791
v 0.34986973 -0.01352747 -0.28389001
v 0.34192288 -0.01204679 -0.29179847
v 0.33301431 -0.02654960 -0.29815960
v 0.32324523 -0.01204679 -0.30847496
v 0.31362802 -0.01204679 -0.31629741
v 0.30477005 -0.01204679 -0.32283050
v 0.28406772 -0.01130645 -0.33675623
v 0.26311231 -0.02500028 -0.34879076
v 0.25491235 -0.02500028 -0.35377651
v 0.24590254 -0.01204679 -0.35987979
v 0.23582977 -0.01204679 -0.36512345
v 0.21209042 -0.01056611 -0.37664223
v 0.17848077 -0.01324310 -0.39099777
v 0.15995497 -0.01204679 -0.39830446
v 0.14836368 -0.02500028 -0.40165699
v 0.13262182 -0.00908543 -0.40844792
v 0.41045821 -0.02500028 0.33554685
v 0.40985084 -0.03499242 0.33485913
v 0.41911373 -0.03499242 0.32394207
v 0.41972113 -0.02500028 0.32471573
v 0.42903465 -0.03581120 0.31087595
v 0.43100870 -0.04499926 0.30657786
v 0.42007545 -0.05898236 0.31861246
v 0.43986666 -0.03499242 0.29480118
v 0.44558638 -0.03499242 0.28491563
v 0.44897771 -0.05917358 0.27279508
v 0.44427034 -0.04499926 0.28491563
v 0.45484930 -0.04499926 0.26488668
v 0.45489991 -0.05760465 0.26136225
v 0.37487453 -0.02500028 0.36984539
v 0.38560531 -0.02500028 0.36047560
v 0.39269167 -0.03499242 0.35265315
v 0.40018299 -0.03499242 0.34526044
v 0.38499790 -0.03499242 0.35987389
v 0.20500405 -0.03499242 0.43698114
v 0.21502620 -0.02500028 0.43586361
v 0.22504836 -0.01204679 0.43440229
v 0.19700657 -0.00908543 0.43440229
v 0.22504836 -0.02500028 0.43543380
v 0.22504836 -0.03499242 0.43612152
v 0.23501989 -0.02500028 0.43457419
v 0.24494082 -0.03499242 0.43302691
v 0.23501989 -0.03499242 0.43483210
v 0.23501989 -0.04499926 0.43500400
v 0.26073331 -0.04499926 0.42915863
v 0.23689272 -0.05864897 0.43448824
v 0.27490604 -0.04499926 0.42486060
v 0.26407403 -0.05708494 0.42743939
v 0.28548500 -0.05812926 0.42013270
v 0.29489973 -0.05917358 0.41626447
v 0.30527622 -0.05693295 0.41179448
v 0.31327370 -0.05684470 0.40775430
v 0.32501683 -0.05812926 0.40104932
v 0.33174887 -0.04592591 0.39838451
v 0.34495991 -0.04499926 0.38987434
v 0.34571916 -0.03499242 0.39039010
v 0.35442525 -0.04499926 0.38325530
v 0.35903141 -0.03706635 0.38076246
v 0.36586469 -0.02500028 0.37689418
v 0.28761089 -0.05917358 -0.32833201
v 0.33382416 -0.05708494 -0.29248613
v 0.34116364 -0.05708494 -0.28560925
v 0.35138825 -0.05708494 -0.27537990
v 0.32521927 -0.05708494 -0.30013669
v 0.32800323 -0.04142504 -0.30039459
v 0.31894279 -0.02393635 -0.31079590
v 0.30608609 -0.02500028 -0.32068145
v 0.29388741 -0.02500028 -0.32919163
v 0.29398865 -0.01204679 -0.33022314
v 0.28492820 -0.02500028 -0.33503699
v 0.27612084 -0.02500028 -0.34062445
v 0.27278012 -0.03499242 -0.34174198
v 0.26149255 -0.03429620 -0.34887677
v 0.25643086 -0.04499926 -0.35076791
v 0.24362478 -0.03499242 -0.35927808
v 0.24458650 -0.02500028 -0.35970789
v 0.23501989 -0.02500028 -0.36469364
v 0.22616193 -0.01204679 -0.36993724
v 0.22474465 -0.02500028 -0.36976534
v 0.21502620 -0.02500028 -0.37432128
v 0.20389047 -0.02500028 -0.37939298
v 0.19877817 -0.01352747 -0.38248760
v 0.18106224 -0.02500028 -0.38910663
v 0.16501665 -0.02500028 -0.39538181
v 0.14922416 -0.03469334 -0.40045351
v 0.13110331 -0.02500028 -0.40767425
v 0.12406755 -0.01204679 -0.41111273
v 0.10503557 -0.00908543 -0.41755980
v 0.39952499 -0.04499926 0.34457278
v 0.40919280 -0.04499926 0.33408546
v 0.41638041 -0.04499926 0.32557529
v 0.42938897 -0.05708494 0.30614805
v 0.43865186 -0.05740853 0.29170656
v 0.43925929 -0.04499926 0.29376966
v 0.41268539 -0.05917358 0.32755244
v 0.37416589 -0.03499242 0.36924362
v 0.39203367 -0.04499926 0.35196543
v 0.37340662 -0.04499926 0.36864191
v 0.38074607 -0.05708494 0.36064750
v 0.38423866 -0.04499926 0.35918617
v 0.21502620 -0.03499242 0.43672323
v 0.19503251 -0.03499242 0.43689513
v 0.19503251 -0.04499926 0.43775475
v 0.20500405 -0.04499926 0.43775475
v 0.16501665 -0.00908543 0.43311286
v 0.17903756 -0.01056611 0.43405843
v 0.18501034 -0.02500028 0.43569171
v 0.21502620 -0.04499926 0.43749690
v 0.22504836 -0.04499926 0.43663728
v 0.22297306 -0.05812926 0.43715304
v 0.25309014 -0.05812926 0.43044806
v 0.19898063 -0.05812926 0.43861437
v 0.13292551 -0.05917358 0.43337077
v 0.27490604 -0.05917358 0.42382902
v 0.36262521 -0.05917358 0.37526095
v 0.34334016 -0.05708494 0.38953048
v 0.33422911 -0.05708494 0.39554781
v 0.35569069 -0.05708494 0.38076246
v 0.27222335 -0.05917358 -0.33873332
v 0.29160964 -0.04565625 -0.32798815
v 0.30016389 -0.05598178 -0.31990778
v 0.31433666 -0.05708494 -0.30899072
v 0.31798106 -0.04499926 -0.30830306
v 0.31651318 -0.03499242 -0.31113976
v 0.30507374 -0.03499242 -0.31999373
v 0.28761089 -0.03634562 -0.33202833
v 0.26316291 -0.05812926 -0.34483659
v 0.25501359 -0.05708494 -0.34990829
v 0.24099270 -0.04593572 -0.35927808
v 0.23501989 -0.03499242 -0.36366206
v 0.22368170 -0.03499242 -0.36924958
v 0.21502620 -0.03499242 -0.37337571
v 0.19923371 -0.03497771 -0.38051051
v 0.19503251 -0.02500028 -0.38326126
v 0.18501034 -0.03499242 -0.38652778
v 0.17594992 -0.03499242 -0.39031005
v 0.14360569 -0.04499926 -0.40114117
v 0.13500081 -0.04499926 -0.40414983
v 0.12588976 -0.03499242 -0.40853387
v 0.15504512 -0.04499926 -0.39701504
v 0.10503557 -0.02500028 -0.41635633
v 0.09840477 -0.01500325 -0.41936499
v 0.08504188 -0.01204679 -0.42392093
v 0.09395047 -0.00908543 -0.42117018
v 0.40387803 -0.05603571 0.33803970
v 0.39507067 -0.05917358 0.34672177
v 0.38762999 -0.05812926 0.35411447
v 0.37193874 -0.05728105 0.36821210
v 0.18501034 -0.03499242 0.43663728
v 0.18501034 -0.04499926 0.43749690
v 0.18501034 -0.05708494 0.43844247
v 0.14517482 -0.01046805 0.43079191
v 0.15504512 -0.01204679 0.43251115
v 0.15504512 -0.02500028 0.43388653
v 0.16501665 -0.02500028 0.43474615
v 0.10306151 -0.00908543 0.41652232
v 0.17503881 -0.03499242 0.43620747
v 0.21401386 -0.05708494 0.43792671
v 0.17503881 -0.05708494 0.43809861
v 0.16400433 -0.05708494 0.43741095
v 0.14902171 -0.05760465 0.43586361
v 0.14502296 -0.04499926 0.43448824
v 0.13500081 -0.04499926 0.43276900
v 0.12427002 -0.04499926 0.43019021
v 0.11834784 -0.05767819 0.42941654
v 0.09678502 -0.05917358 0.42236769
v 0.22575699 -0.05708494 -0.36520940
v 0.24402972 -0.05708494 -0.35601151
v 0.17903756 -0.05917358 -0.38558221
v 0.30142933 -0.04499926 -0.32102531
v 0.23557667 -0.05603571 -0.36056745
v 0.22089776 -0.04550426 -0.36933553
v 0.20222011 -0.04362154 -0.37818956
v 0.16881293 -0.04668586 -0.39159948
v 0.19402017 -0.05812926 -0.37956494
v 0.15666486 -0.05708494 -0.39460814
v 0.14016375 -0.05767819 -0.40028161
v 0.11951203 -0.04393533 -0.40956539
v 0.11500712 -0.03499242 -0.41214424
v 0.08853446 -0.02500028 -0.42168593
v 0.07501973 -0.02500028 -0.42598403
v 0.07501973 -0.01204679 -0.42692959
v 0.05993588 -0.01204679 -0.43062592
v 0.01706333 -0.00908543 -0.43715894
v 0.17503881 -0.04499926 0.43715304
v 0.13393787 -0.01158592 0.42847097
v 0.13808843 -0.01679771 0.43036211
v 0.14502296 -0.02500028 0.43259710
v 0.14502296 -0.03499242 0.43362862
v 0.15504512 -0.03499242 0.43483210
v 0.16501665 -0.03499242 0.43569171
v 0.09152086 -0.00908543 0.41110677
v -0.01209202 -0.05917358 0.37783974
v 0.11110961 -0.01223800 0.42064846
v 0.12502927 -0.01204679 0.42589211
v 0.16501665 -0.04499926 0.43655133
v 0.15504512 -0.04499926 0.43569171
v 0.13500081 -0.03499242 0.43190938
v 0.12594038 -0.03499242 0.42958844
v 0.11500712 -0.04499926 0.42709559
v 0.11500712 -0.03499242 0.42580616
v 0.11105900 -0.02500028 0.42271155
v 0.21593730 -0.05708494 -0.36985129
v -0.01512906 -0.05917358 -0.43346262
v 0.05715194 -0.05812926 -0.42572612
v 0.16734505 -0.05898236 -0.39031005
v 0.20500405 -0.05499630 -0.37518090
v 0.12280212 -0.05812926 -0.40604097
v 0.10898370 -0.05628576 -0.41076887
v 0.08787644 -0.04103280 -0.41996670
v 0.10503557 -0.03499242 -0.41532481
v 0.06504819 -0.03499242 -0.42761725
v 0.06008773 -0.02531897 -0.42985225
v 0.07501973 -0.03499242 -0.42478055
v 0.04500388 -0.02500028 -0.43277496
v 0.04707918 -0.01204679 -0.43303281
v 0.03609531 -0.01204679 -0.43483800
v 0.02607314 -0.01204679 -0.43612742
v 0.02501018 -0.02500028 -0.43509591
v -0.01528090 -0.01190460 -0.43956590
v -0.01528090 -0.00908543 0.35144967
v 0.12958479 -0.02479436 0.42933059
v -0.01528090 -0.02473062 -0.43801856
v 0.02501018 -0.04499926 -0.43286091
v 0.02809782 -0.05812926 -0.43088377
v 0.04085329 -0.05689862 -0.42959440
v 0.04996434 -0.04504339 -0.42985225
v 0.06611115 -0.05708494 -0.42374903
v 0.07886662 -0.05453542 -0.42048246
v 0.07501973 -0.04499926 -0.42331922
v 0.06504819 -0.04499926 -0.42615592
v 0.05553220 -0.03499242 -0.43002421
v 0.04500388 -0.03499242 -0.43200129
v 0.03503235 -0.02500028 -0.43415034
v 0.03503235 -0.03499242 -0.43329072
v 0.03503235 -0.04499926 -0.43217319
f 1 2 3
f 1 3 4
f 1 4 14
f 1 14 41
f 1 41 76
f 1 76 116
f 1 116 160
f 1 160 212
f 1 212 284
f 1 284 356
f 1 356 412
f 1 412 452
f 1 452 489
f 1 489 460
f 1 460 424
f 1 424 373
f 1 373 306
f 1 306 240
f 1 240 181
f 1 181 128
f 1 128 81
f 1 81 42
f 1 42 15
f 1 15 5
f 1 5 6
f 1 6 2
f 2 6 7
f 2 7 8
f 2 8 3
f 3 8 9
f 3 9 4
f 4 9 10
f 4 10 11
f 4 11 12
f 4 12 13
f 4 13 14
f 5 15 16
f 5 16 6
f 6 16 17
f 6 17 7
f 7 18 19
f 7 19 20
f 7 20 8
f 7 17 21
f 7 21 18
f 8 20 22
f 8 22 9
f 9 22 10
f 10 22 23
f 10 23 11
f 11 23 24
f 11 24 25
f 11 25 12
f 12 25 24
f 12 24 26
f 12 26 13
f 13 26 27
f 13 27 28
f 13 28 14
f 14 28 29
f 14 29 30
f 14 30 31
f 14 31 32
f 14 32 33
f 14 33 34
f 14 34 35
f 14 35 36
f 14 36 37
f 14 37 38
f 14 38 39
f 14 39 40
f 14 40 41
f 15 42 43
f 15 43 16
f 16 43 44
f 16 44 17
f 17 44 45
f 17 45 21
f 18 46 19
f 18 21 52
f 18 52 47
f 18 47 46
f 19 46 48
f 19 48 49
f 19 49 50
f 19 50 20
f 20 50 22
f 21 45 51
f 21 51 52
f 22 50 23
f 23 53 54
f 23 54 24
f 23 50 53
f 24 54 55
f 24 55 26
f 26 55 27
f 27 56 57
f 27 57 28
f 27 55 56
f 28 57 29
f 29 57 31
f 29 31 30
f 31 58 32
f 31 57 59
f 31 59 58
f 32 60 61
f 32 61 33
f 32 58 60
f 33 61 34
f 34 61 62
f 34 62 35
f 35 62 36
f 36 63 37
f 36 62 63
f 37 63 38
f 38 63 64
f 38 64 39
f 39 65 66
f 39 66 40
f 39 64 65
f 40 67 68
f 40 68 69
f 40 69 41
f 40 66 67
f 41 69 70
f 41 70 71
f 41 71 72
f 41 72 73
f 41 73 74
f 41 74 75
f 41 75 76
f 42 77 78
f 42 78 79
f 42 79 80
f 42 80 43
f 42 81 77
f 43 80 82
f 43 82 44
f 44 82 83
f 44 83 84
f 44 84 45
f 45 84 85
f 45 85 51
f 46 47 85
f 46 85 86
f 46 86 48
f 47 52 85
f 48 86 87
f 48 87 88
f 48 88 49
f 49 88 50
f 50 88 53
f 51 85 52
f 53 88 54
f 54 89 90
f 54 90 55
f 54 88 89
f 55 90 56
f 56 91 59
f 56 59 57
f 56 90 91
f 58 59 92
f 58 92 60
f 59 91 92
f 60 92 93
f 60 93 94
f 60 94 95
f 60 95 96
f 60 96 61
f 61 96 62
f 62 97 98
f 62 98 63
f 62 96 99
f 62 99 97
f 63 98 64
f 64 98 97
f 64 97 100
f 64 100 101
f 64 101 65
f 65 101 102
f 65 102 68
f 65 68 66
f 66 68 67
f 68 103 69
f 68 102 103
f 69 104 70
f 69 103 105
f 69 105 104
f 70 104 71
f 71 104 106
f 71 106 72
f 72 106 107
f 72 107 73
f 73 107 108
f 73 108 74
f 74 108 109
f 74 109 75
f 75 110 111
f 75 111 112
f 75 112 76
f 75 109 110
f 76 112 113
f 76 113 114
f 76 114 115
f 76 115 116
f 77 117 118
f 77 118 119
f 77 119 78
f 77 81 117
f 78 119 120
f 78 120 79
f 79 120 121
f 79 121 80
f 80 121 82
f 81 122 123
f 81 123 124
f 81 124 125
f 81 125 126
f 81 126 127
f 81 127 117
f 81 128 122
f 82 121 129
f 82 129 83
f 83 129 130
f 83 130 84
f 84 130 131
f 84 131 85
f 85 131 132
f 85 132 194
f 85 194 261
f 85 261 294
f 85 294 363
f 85 363 414
f 85 414 383
f 85 383 318
f 85 318 382
f 85 382 381
f 85 381 434
f 85 434 461
f 85 461 472
f 85 472 437
f 85 437 387
f 85 387 328
f 85 328 262
f 85 262 195
f 85 195 133
f 85 133 86
f 86 133 134
f 86 134 100
f 86 100 135
f 86 135 136
f 86 136 137
f 86 137 138
f 86 138 90
f 86 90 89
f 86 89 139
f 86 139 87
f 87 139 88
f 88 139 89
f 90 138 91
f 91 138 137
f 91 137 92
f 92 137 136
f 92 136 140
f 92 140 93
f 93 140 94
f 94 140 95
f 95 140 135
f 95 135 141
f 95 141 99
f 95 99 96
f 97 99 141
f 97 141 100
f 100 134 142
f 100 142 143
f 100 143 101
f 100 141 135
f 101 142 144
f 101 144 102
f 101 143 142
f 102 144 145
f 102 145 103
f 103 145 146
f 103 146 105
f 104 105 147
f 104 147 106
f 105 148 147
f 105 146 149
f 105 149 150
f 105 150 148
f 106 147 151
f 106 151 152
f 106 152 107
f 107 152 108
f 108 152 153
f 108 153 110
f 108 110 109
f 110 153 154
f 110 154 111
f 111 155 113
f 111 113 112
f 111 154 155
f 113 155 156
f 113 156 114
f 114 156 157
f 114 157 158
f 114 158 115
f 115 158 159
f 115 159 116
f 116 159 160
f 117 127 161
f 117 161 162
f 117 162 118
f 118 162 163
f 118 163 164
f 118 164 165
f 118 165 119
f 119 165 120
f 120 166 129
f 120 129 121
f 120 165 166
f 122 167 168
f 122 168 169
f 122 169 170
f 122 170 171
f 122 171 123
f 122 128 172
f 122 172 167
f 123 173 174
f 123 174 124
f 123 171 175
f 123 175 176
f 123 176 173
f 124 177 178
f 124 178 125
f 124 174 173
f 124 173 177
f 125 179 180
f 125 180 126
f 125 178 179
f 126 180 161
f 126 161 127
f 128 181 182
f 128 182 183
f 128 183 184
f 128 184 185
f 128 185 186
f 128 186 187
f 128 187 188
f 128 188 189
f 128 189 172
f 129 166 190
f 129 190 130
f 130 190 131
f 131 190 191
f 131 191 132
f 132 191 192
f 132 192 165
f 132 165 163
f 132 163 193
f 132 193 194
f 133 195 196
f 133 196 151
f 133 151 197
f 133 197 150
f 133 150 134
f 134 144 142
f 134 150 198
f 134 198 199
f 134 199 144
f 135 140 136
f 144 199 145
f 145 199 198
f 145 198 146
f 146 198 149
f 147 148 151
f 148 197 151
f 148 150 197
f 149 198 150
f 151 196 200
f 151 200 152
f 152 200 153
f 153 201 154
f 153 200 201
f 154 201 202
f 154 202 203
f 154 203 155
f 155 203 156
f 156 204 158
f 156 158 157
f 156 203 205
f 156 205 204
f 158 206 159
f 158 204 206
f 159 206 207
f 159 207 208
f 159 208 209
f 159 209 160
f 160 209 210
f 160 210 211
f 160 211 212
f 161 180 213
f 161 213 214
f 161 214 215
f 161 215 162
f 162 215 163
f 163 215 193
f 163 165 164
f 165 192 190
f 165 190 166
f 167 216 217
f 167 217 218
f 167 218 219
f 167 219 168
f 167 172 216
f 168 220 169
f 168 219 221
f 168 221 220
f 169 220 222
f 169 222 170
f 170 222 223
f 170 223 224
f 170 224 225
f 170 225 226
f 170 226 227
f 170 227 171
f 171 227 175
f 172 189 228
f 172 228 229
f 172 229 230
f 172 230 231
f 172 231 232
f 172 232 233
f 172 233 216
f 173 234 235
f 173 235 177
f 173 176 236
f 173 236 237
f 173 237 234
f 175 227 176
f 176 227 236
f 177 179 178
f 177 235 179
f 179 235 238
f 179 238 239
f 179 239 214
f 179 214 213
f 179 213 180
f 181 240 241
f 181 241 242
f 181 242 243
f 181 243 244
f 181 244 182
f 182 244 245
f 182 245 246
f 182 246 247
f 182 247 183
f 183 247 248
f 183 248 185
f 183 185 184
f 185 249 250
f 185 250 186
f 185 248 249
f 186 251 187
f 186 250 251
f 187 251 252
f 187 252 188
f 188 253 254
f 188 254 189
f 188 252 253
f 189 254 255
f 189 255 256
f 189 256 257
f 189 257 258
f 189 258 228
f 190 192 191
f 193 215 239
f 193 239 238
f 193 238 194
f 194 238 259
f 194 259 260
f 194 260 237
f 194 237 261
f 195 262 205
f 195 205 263
f 195 263 202
f 195 202 264
f 195 264 196
f 196 264 200
f 200 264 201
f 201 264 202
f 202 263 203
f 203 263 205
f 204 205 262
f 204 262 265
f 204 265 266
f 204 266 206
f 206 266 207
f 207 266 267
f 207 267 268
f 207 268 208
f 208 268 269
f 208 269 209
f 209 269 270
f 209 270 210
f 210 270 271
f 210 271 272
f 210 272 273
f 210 273 274
f 210 274 275
f 210 275 211
f 211 276 277
f 211 277 278
f 211 278 279
f 211 279 280
f 211 280 212
f 211 275 276
f 212 280 281
f 212 281 282
f 212 282 283
f 212 283 284
f 214 239 215
f 216 233 285
f 216 285 286
f 216 286 287
f 216 287 288
f 216 288 217
f 217 289 290
f 217 290 218
f 217 288 287
f 217 287 291
f 217 291 289
f 218 290 292
f 218 292 221
f 218 221 219
f 220 221 292
f 220 292 293
f 220 293 222
f 222 294 223
f 222 293 295
f 222 295 294
f 223 296 224
f 223 294 296
f 224 296 297
f 224 297 261
f 224 261 225
f 225 261 226
f 226 236 227
f 226 261 237
f 226 237 236
f 228 258 298
f 228 298 229
f 229 299 230
f 229 298 299
f 230 299 231
f 231 300 301
f 231 301 232
f 231 299 302
f 231 302 300
f 232 301 233
f 233 301 285
f 234 237 260
f 234 260 259
f 234 259 235
f 235 259 238
f 240 303 304
f 240 304 305
f 240 305 241
f 240 306 303
f 241 305 307
f 241 307 308
f 241 308 309
f 241 309 242
f 242 309 243
f 243 310 245
f 243 245 244
f 243 309 311
f 243 311 312
f 243 312 310
f 245 310 246
f 246 313 247
f 246 310 314
f 246 314 313
f 247 313 248
f 248 315 249
f 248 313 316
f 248 316 315
f 249 317 250
f 249 315 317
f 250 317 318
f 250 318 251
f 251 318 319
f 251 319 252
f 252 319 320
f 252 320 254
f 252 254 253
f 254 320 321
f 254 321 322
f 254 322 255
f 255 322 323
f 255 323 324
f 255 324 256
f 256 324 257
f 257 324 325
f 257 325 326
f 257 326 327
f 257 327 258
f 258 327 298
f 261 297 294
f 262 328 329
f 262 329 330
f 262 330 265
f 265 331 266
f 265 330 331
f 266 330 267
f 266 331 330
f 267 330 329
f 267 329 332
f 267 332 333
f 267 333 271
f 267 271 268
f 268 271 270
f 268 270 269
f 271 333 334
f 271 334 272
f 272 334 273
f 273 335 274
f 273 334 335
f 274 335 336
f 274 336 337
f 274 337 275
f 275 337 338
f 275 338 339
f 275 339 276
f 276 340 341
f 276 341 277
f 276 339 340
f 277 341 342
f 277 342 343
f 277 343 344
f 277 344 278
f 278 344 345
f 278 345 279
f 279 346 280
f 279 345 346
f 280 346 347
f 280 347 348
f 280 348 349
f 280 349 350
f 280 350 281
f 281 351 352
f 281 352 282
f 281 350 351
f 282 352 283
f 283 352 353
f 283 353 354
f 283 354 284
f 284 354 355
f 284 355 356
f 285 301 286
f 286 301 357
f 286 357 358
f 286 358 287
f 287 358 359
f 287 359 291
f 289 291 290
f 290 291 360
f 290 360 361
f 290 361 362
f 290 362 292
f 291 359 363
f 291 363 294
f 291 294 361
f 291 361 360
f 292 362 293
f 293 362 295
f 294 295 361
f 294 297 296
f 295 362 361
f 298 327 364
f 298 364 302
f 298 302 299
f 300 302 365
f 300 365 357
f 300 357 301
f 302 364 366
f 302 366 367
f 302 367 368
f 302 368 365
f 303 369 304
f 303 306 370
f 303 370 371
f 303 371 372
f 303 372 376
f 303 376 369
f 304 369 305
f 305 369 307
f 306 373 374
f 306 374 375
f 306 375 370
f 307 369 376
f 307 376 308
f 308 376 377
f 308 377 309
f 309 377 311
f 310 312 314
f 311 377 312
f 312 377 378
f 312 378 314
f 313 314 379
f 313 379 316
f 314 378 380
f 314 380 381
f 314 381 382
f 314 382 379
f 315 382 317
f 315 316 382
f 316 379 382
f 317 382 318
f 318 321 320
f 318 320 319
f 318 383 321
f 321 383 384
f 321 384 385
f 321 385 322
f 322 385 323
f 323 385 384
f 323 384 325
f 323 325 324
f 325 384 386
f 325 386 383
f 325 383 326
f 326 383 366
f 326 366 327
f 327 366 364
f 328 387 388
f 328 388 389
f 328 389 390
f 328 390 332
f 328 332 329
f 332 390 391
f 332 391 333
f 333 391 392
f 333 392 334
f 334 392 335
f 335 388 336
f 335 392 393
f 335 393 388
f 336 394 338
f 336 338 337
f 336 388 394
f 338 394 340
f 338 340 339
f 340 395 342
f 340 342 341
f 340 394 395
f 342 396 397
f 342 397 343
f 342 395 396
f 343 397 398
f 343 398 345
f 343 345 344
f 345 398 347
f 345 347 346
f 347 399 400
f 347 400 348
f 347 398 399
f 348 400 349
f 349 401 402
f 349 402 350
f 349 400 401
f 350 402 351
f 351 402 403
f 351 403 404
f 351 404 352
f 352 404 353
f 353 405 406
f 353 406 407
f 353 407 354
f 353 404 408
f 353 408 405
f 354 407 409
f 354 409 355
f 355 409 410
f 355 410 356
f 356 410 411
f 356 411 412
f 357 413 358
f 357 365 414
f 357 414 413
f 358 363 359
f 358 413 363
f 363 413 414
f 365 368 367
f 365 367 415
f 365 415 414
f 366 416 367
f 366 383 416
f 367 416 415
f 370 375 417
f 370 417 418
f 370 418 371
f 371 418 419
f 371 419 380
f 371 380 372
f 372 380 376
f 373 420 421
f 373 421 422
f 373 422 423
f 373 423 374
f 373 424 420
f 374 423 425
f 374 425 375
f 375 425 417
f 376 380 426
f 376 426 377
f 377 426 378
f 378 426 380
f 380 419 427
f 380 427 428
f 380 428 381
f 381 428 429
f 381 429 430
f 381 430 431
f 381 431 432
f 381 432 433
f 381 433 434
f 383 414 415
f 383 415 416
f 383 386 384
f 387 435 436
f 387 436 395
f 387 395 394
f 387 394 388
f 387 437 435
f 388 393 438
f 388 438 389
f 389 438 390
f 390 438 393
f 390 393 391
f 391 393 392
f 395 436 396
f 396 436 397
f 397 436 439
f 397 439 440
f 397 440 398
f 398 440 399
f 399 440 400
f 400 440 441
f 400 441 401
f 401 441 403
f 401 403 402
f 403 441 404
f 404 442 408
f 404 441 443
f 404 443 442
f 405 408 444
f 405 444 445
f 405 445 406
f 406 446 407
f 406 445 446
f 407 446 447
f 407 447 409
f 408 442 444
f 409 447 448
f 409 448 410
f 410 448 411
f 411 448 449
f 411 449 450
f 411 450 412
f 412 450 451
f 412 451 452
f 417 453 418
f 417 425 453
f 418 453 427
f 418 427 419
f 420 454 455
f 420 455 456
f 420 456 421
f 420 424 454
f 421 456 422
f 422 456 457
f 422 457 458
f 422 458 459
f 422 459 423
f 423 459 425
f 424 460 461
f 424 461 462
f 424 462 463
f 424 463 454
f 425 459 453
f 427 453 464
f 427 464 428
f 428 464 465
f 428 465 429
f 429 465 430
f 430 457 466
f 430 466 431
f 430 465 458
f 430 458 457
f 431 466 432
f 432 467 468
f 432 468 434
f 432 434 433
f 432 466 467
f 434 468 469
f 434 469 470
f 434 470 461
f 435 443 471
f 435 471 440
f 435 440 439
f 435 439 436
f 435 437 443
f 437 472 473
f 437 473 474
f 437 474 442
f 437 442 443
f 440 471 441
f 441 475 443
f 441 471 475
f 442 474 444
f 443 475 471
f 444 474 445
f 445 474 476
f 445 476 446
f 446 476 477
f 446 477 478
f 446 478 479
f 446 479 447
f 447 479 448
f 448 479 449
f 449 480 481
f 449 481 450
f 449 479 482
f 449 482 480
f 450 481 451
f 451 483 484
f 451 484 452
f 451 481 483
f 452 484 485
f 452 485 486
f 452 486 487
f 452 487 488
f 452 488 489
f 453 459 464
f 454 490 455
f 454 463 490
f 455 490 466
f 455 466 456
f 456 466 457
f 458 465 464
f 458 464 459
f 460 489 461
f 461 470 462
f 461 489 472
f 462 470 463
f 463 470 469
f 463 469 467
f 463 467 490
f 466 490 467
f 467 469 468
f 472 491 492
f 472 492 493
f 472 493 473
f 472 489 491
f 473 494 495
f 473 495 496
f 473 496 476
f 473 476 474
f 473 493 494
f 476 496 477
f 477 496 497
f 477 497 498
f 477 498 478
f 478 498 482
f 478 482 479
f 480 482 498
f 480 498 499
f 480 499 500
f 480 500 481
f 481 500 483
f 483 500 501
f 483 501 502
f 483 502 485
f 483 485 484
f 485 502 486
f 486 502 503
f 486 503 487
f 487 503 488
f 488 503 504
f 488 504 492
f 488 492 491
f 488 491 489
f 492 504 493
f 493 504 494
f 494 504 495
f 495 504 501
f 495 501 500
f 495 500 499
f 495 499 496
f 496 499 498
f 496 498 497
f 501 504 503
f 501 503 502

