# https://github.com/mikedh/trimesh
v -0.05560279 -0.47914517 0.04495658
v -0.07280934 -0.47842020 0.05493077
v -0.07280934 -0.47886634 0.03489641
v -0.07280934 -0.47875482 0.02389041
v -0.07226107 -0.47836447 0.01116472
v -0.05560279 -0.47262061 -0.03483692
v -0.05560279 -0.45215458 0.18545505
v -0.07171281 -0.47301096 0.10712329
v -0.07171281 -0.47457242 0.09714910
v -0.07280934 -0.47646844 0.08046813
v -0.07280934 -0.47780681 0.06602276
v -0.08501390 -0.47680300 0.05493077
v -0.08501390 -0.47702610 0.04495658
v -0.08501390 -0.47708184 0.03489641
v -0.08501390 -0.47697031 0.02492223
v -0.08501390 -0.47663569 0.01486205
v -0.08501390 -0.47607809 0.00488786
v -0.07280934 -0.47719336 -0.00371057
v -0.07280934 -0.47574347 -0.01480256
v -0.07280934 -0.47407049 -0.02477675
v -0.05560279 -0.46994382 -0.05014214
v -0.07280934 -0.44105721 0.20970266
v -0.07193061 -0.44735873 0.19646107
v -0.07280934 -0.45594668 0.17496496
v -0.07171281 -0.45968294 0.16430290
v -0.07226107 -0.46364230 0.15097532
v -0.07171281 -0.46709979 0.13704586
v -0.05560279 -0.40592486 0.26739818
v -0.07171281 -0.42265457 0.24203278
v -0.08318134 -0.46916312 0.12070882
v -0.08882923 -0.47100341 0.10617746
v -0.07348529 -0.46949774 0.12483607
v -0.08501390 -0.47323400 0.09491351
v -0.08501390 -0.47440511 0.08493932
v -0.08501390 -0.47540885 0.07496513
v -0.08501390 -0.47624534 0.06490496
v -0.09500286 -0.47479546 0.06490496
v -0.09500286 -0.47529733 0.05493077
v -0.09500286 -0.47540885 0.04495658
v -0.09500286 -0.47540885 0.03489641
v -0.09500286 -0.47496277 0.01486205
v -0.09500286 -0.47524160 0.02492223
v -0.09500286 -0.47434932 0.00488786
v -0.08501390 -0.47524160 -0.00482837
v -0.08501390 -0.47390318 -0.01480256
v -0.07500991 -0.47200716 -0.03483692
v -0.07280934 -0.46659791 -0.06484547
v -0.07280934 -0.46425575 -0.07481965
v -0.07280934 -0.45555627 -0.10396836
v -0.07341769 -0.44986820 -0.11970350
v -0.07280934 -0.44211677 -0.13819014
v -0.07095425 -0.41289556 -0.19769134
v -0.05560279 -0.29924512 -0.32176679
v -0.07491228 -0.43051749 0.22879119
v -0.08501390 -0.43983036 0.20987463
v -0.08436048 -0.44880867 0.19087207
v -0.08501390 -0.45455253 0.17496496
v -0.08426285 -0.45968294 0.15957376
v -0.09500286 -0.45973873 0.15450068
v -0.09500286 -0.46235973 0.14495641
v -0.09500286 -0.46464610 0.13489625
v -0.05560279 -0.34843045 0.33291826
v -0.07171281 -0.37229815 0.30987445
v -0.07226107 -0.38038415 0.30050215
v -0.07391338 -0.39131424 0.28683063
v -0.07391338 -0.40006945 0.27513677
v -0.07741328 -0.41127837 0.25879973
v -0.08501390 -0.41969895 0.24469830
v -0.08501390 -0.42577744 0.23489608
v -0.09500286 -0.46670943 0.12492205
v -0.10499182 -0.46509224 0.12492205
v -0.11498829 -0.46520376 0.11486188
v -0.09842765 -0.47100341 0.09637524
v -0.09500286 -0.47289944 0.08493932
v -0.09500286 -0.47395897 0.07496513
v -0.10499182 -0.47312248 0.06490496
v -0.10499182 -0.47356862 0.05493077
v -0.10499182 -0.47368014 0.04495658
v -0.10499182 -0.47362435 0.03489641
v -0.10499182 -0.47345710 0.02492223
v -0.10499182 -0.47306675 0.01486205
v -0.10499182 -0.47239751 0.00488786
v -0.10499182 -0.47150528 -0.00482837
v -0.09500286 -0.47340131 -0.00482837
v -0.09500286 -0.47217447 -0.01480256
v -0.10300905 -0.46949774 -0.02288509
v -0.09379367 -0.47005540 -0.02856006
v -0.08501390 -0.47217447 -0.02477675
v -0.08451820 -0.46877277 -0.04429520
v -0.08501390 -0.46676522 -0.05478529
v -0.08501390 -0.46486914 -0.06484547
v -0.09265207 -0.45934838 -0.08049462
v -0.07419878 -0.45996177 -0.08960897
v -0.08501390 -0.45633703 -0.09485401
v -0.08501390 -0.45299107 -0.10482820
v -0.08877666 -0.44931054 -0.11325467
v -0.08501390 -0.44557422 -0.12477658
v -0.08392487 -0.43949580 -0.13930793
v -0.07336511 -0.43174434 -0.16028813
v -0.07280934 -0.42555436 -0.17344373
v -0.07280934 -0.42008933 -0.18436375
v -0.08250539 -0.41111106 -0.19691747
v -0.09500286 -0.40837854 -0.19743338
v -0.08501390 -0.39962333 -0.21445829
v -0.07196065 -0.40631521 -0.20783749
v -0.07280934 -0.39560819 -0.22383058
v -0.07280934 -0.38902783 -0.23328887
v -0.07226107 -0.38222444 -0.24188730
v -0.07280934 -0.37168473 -0.25461298
v -0.07280934 -0.36460248 -0.26260954
v -0.07280934 -0.35646069 -0.27137995
v -0.07280934 -0.34647864 -0.28135413
v -0.07280934 -0.33716577 -0.28995258
v -0.07308723 -0.32166290 -0.30362409
v -0.07280934 -0.30894834 -0.31420016
v -0.07280934 -0.28837079 -0.32967734
v -0.07280934 -0.27844453 -0.33681405
v -0.07171281 -0.27007967 -0.34257501
v -0.05560279 -0.23087639 -0.36604875
v -0.08501390 -0.43079633 0.22646961
v -0.09500286 -0.43553641 0.21486172
v -0.09500286 -0.44027650 0.20574737
v -0.09500286 -0.44535118 0.19491334
v -0.09500286 -0.44970089 0.18459521
v -0.09500286 -0.45315838 0.17496496
v -0.09500286 -0.45650429 0.16490479
v -0.10449613 -0.45968294 0.14959957
v -0.10499182 -0.45494288 0.16490479
v -0.11582947 -0.46007329 0.14048523
v -0.10499182 -0.46319622 0.13489625
v -0.05560279 -0.33744460 0.34229058
v -0.07336511 -0.36410058 0.31804296
v -0.08182944 -0.37029058 0.31030437
v -0.08538191 -0.38116491 0.29740673
v -0.08501390 -0.39053351 0.28579882
v -0.08501390 -0.40112901 0.27152541
v -0.09500286 -0.40882468 0.25845578
v -0.10035785 -0.41774717 0.24366648
v -0.09965937 -0.42315644 0.23515403
v -0.11498829 -0.46341926 0.12492205
v -0.12864989 -0.46263856 0.11511984
v -0.12864989 -0.46425575 0.10557557
v -0.11498829 -0.46682096 0.10488769
v -0.11498829 -0.46827090 0.09491351
v -0.10789838 -0.47038996 0.08777680
v -0.10499182 -0.47223026 0.07496513
v -0.11498829 -0.47167259 0.05493077
v -0.12203313 -0.46938616 0.07204166
v -0.11498829 -0.47117066 0.06490496
v -0.11498829 -0.47183985 0.04495658
v -0.11498829 -0.47172832 0.03489641
v -0.11819527 -0.47083610 0.02492223
v -0.11923923 -0.47016692 0.01503402
v -0.11621250 -0.47016692 0.00488786
v -0.11655048 -0.46916312 -0.00482837
v -0.10923525 -0.46960926 -0.01377075
v -0.11498829 -0.46670943 -0.02477675
v -0.10499182 -0.46693248 -0.03483692
v -0.09500286 -0.46693248 -0.04481111
v -0.09500286 -0.46509224 -0.05478529
v -0.09500286 -0.46302891 -0.06484547
v -0.10499182 -0.45550054 -0.08487982
v -0.10409807 -0.46018487 -0.06888673
v -0.11498829 -0.45628124 -0.07481965
v -0.09500286 -0.45432943 -0.09485401
v -0.09440202 -0.45109504 -0.10482820
v -0.10499182 -0.44496083 -0.11480239
v -0.09500286 -0.44334361 -0.12477658
v -0.11498829 -0.44635499 -0.10482820
v -0.10394786 -0.43944001 -0.12924777
v -0.09500286 -0.43838048 -0.13638447
v -0.09500286 -0.43285966 -0.14859425
v -0.08562225 -0.42923489 -0.16063206
v -0.09093217 -0.42053545 -0.17636721
v -0.09500286 -0.41534925 -0.18487966
v -0.10422575 -0.40915924 -0.19270423
v -0.11498829 -0.39962333 -0.20439811
v -0.09602428 -0.39934450 -0.21144883
v -0.07391338 -0.40101749 -0.21557608
v -0.09500286 -0.39198345 -0.22288476
v -0.08239274 -0.39120269 -0.22761390
v -0.10499182 -0.38060725 -0.23586839
v -0.09567130 -0.37887847 -0.24076951
v -0.08501390 -0.38077453 -0.24094148
v -0.08501390 -0.36956561 -0.25444102
v -0.08501390 -0.36030853 -0.26544702
v -0.08501390 -0.35305899 -0.27318561
v -0.08501390 -0.34558639 -0.28040829
v -0.08501390 -0.32216480 -0.30199039
v -0.08501390 -0.31385571 -0.30895510
v -0.09500286 -0.30493319 -0.31480205
v -0.09084956 -0.29718179 -0.32116491
v -0.08501390 -0.28558251 -0.33036524
v -0.10062071 -0.27175263 -0.33767390
v -0.08501390 -0.26494920 -0.34420872
v -0.08501390 -0.25558057 -0.35031360
v -0.07226107 -0.25318265 -0.35315108
v -0.07391338 -0.24303330 -0.35908401
v -0.07391338 -0.21899830 -0.37215364
v -0.07280934 -0.20461076 -0.37972027
v -0.07280934 -0.19496329 -0.38436341
v -0.07280934 -0.18420053 -0.38952249
v -0.07171281 -0.17243397 -0.39502549
v -0.05560279 -0.07356142 -0.43070900
v -0.09500286 -0.42995983 0.22500788
v -0.10499182 -0.43364039 0.21486172
v -0.10629114 -0.42890030 0.22320220
v -0.11056460 -0.43893814 0.20187807
v -0.10499182 -0.44328785 0.19491334
v -0.11498829 -0.44546270 0.18493915
v -0.10622354 -0.45042586 0.17702860
v -0.11498829 -0.45622551 0.15493061
v -0.11498829 -0.45299107 0.16490479
v -0.13048996 -0.45689470 0.14065720
v -0.12585598 -0.46057522 0.12913530
v -0.05560279 -0.32506460 0.35174885
v -0.13233003 -0.30298141 0.35948744
v -0.13233003 -0.31636518 0.34925529
v -0.13233003 -0.32896823 0.33919513
v -0.13233003 -0.34692478 0.32285810
v -0.13233003 -0.33917332 0.33025277
v -0.13215730 -0.35634917 0.31357178
v -0.13233003 -0.36638698 0.30299571
v -0.09500286 -0.38071877 0.29594499
v -0.09500286 -0.38975281 0.28476700
v -0.09630968 -0.39839649 0.27290118
v -0.10499182 -0.40966114 0.25458649
v -0.10551004 -0.40085018 0.26722619
v -0.11912657 -0.42036813 0.23317640
v -0.11452264 -0.41189176 0.24839562
v -0.13048996 -0.46704406 0.08055412
v -0.12864989 -0.46581715 0.09491351
v -0.12904043 -0.46838242 0.06490496
v -0.12982152 -0.46888429 0.05037360
v -0.13233003 -0.46827090 0.03678807
v -0.13233003 -0.46788049 0.02492223
v -0.13233003 -0.46698827 0.01107874
v -0.12864989 -0.46592873 -0.00947153
v -0.13019705 -0.45940411 -0.04541300
v -0.10499182 -0.46314043 -0.05478529
v -0.12864989 -0.46375388 -0.02417486
v -0.11603225 -0.45957142 -0.06071822
v -0.11498829 -0.45326990 -0.08487982
v -0.11080495 -0.45020276 -0.09691764
v -0.12864989 -0.45572358 -0.06484547
v -0.12864989 -0.45260072 -0.07662532
v -0.11603976 -0.44016498 -0.12047736
v -0.12858981 -0.44167066 -0.10852553
v -0.12834947 -0.44813949 -0.09089873
v -0.11498829 -0.43447685 -0.13483675
v -0.11912657 -0.42951372 -0.14377913
v -0.11498829 -0.42533129 -0.15478513
v -0.10257344 -0.42053545 -0.17120814
v -0.11360636 -0.40737474 -0.19193038
v -0.12727547 -0.39811766 -0.20147464
v -0.12864989 -0.39053351 -0.21334049
v -0.11642279 -0.38813561 -0.22176696
v -0.11498829 -0.37770742 -0.23681423
v -0.11142831 -0.37006754 -0.24756227
v -0.09500286 -0.35936052 -0.26424325
v -0.09500286 -0.35211098 -0.27215379
v -0.09500286 -0.34469414 -0.27954847
v -0.09500286 -0.32127255 -0.30113053
v -0.09641483 -0.31290770 -0.30809528
v -0.10499182 -0.29567611 -0.32039103
v -0.11115794 -0.30766574 -0.30998692
v -0.09500286 -0.28714395 -0.32787168
v -0.10499182 -0.28363073 -0.32890350
v -0.11498829 -0.26706833 -0.33810383
v -0.09500286 -0.25424221 -0.34953976
v -0.11548398 -0.27827722 -0.33079514
v -0.08485617 -0.23985466 -0.35985786
v -0.08501390 -0.21492741 -0.37335742
v -0.08501390 -0.20366274 -0.37929034
v -0.08501390 -0.19496329 -0.38350359
v -0.08565980 -0.17907009 -0.39089823
v -0.07500240 -0.15849255 -0.40087241
v -0.07280934 -0.13183656 -0.41144851
v -0.07226107 -0.09118338 -0.42580789
v -0.07226107 -0.06118144 -0.43337452
v -0.07226107 -0.04171923 -0.43698585
v -0.07147998 -0.02549142 -0.43922144
v -0.05560279 -0.00262749 -0.44008130
v -0.07226107 -0.11058983 -0.41944504
v -0.11547647 -0.43040597 0.21683936
v -0.13233003 -0.41869518 0.23085481
v -0.12858230 -0.43280390 0.20617729
v -0.12837951 -0.44027650 0.19001223
v -0.13233003 -0.44557422 0.17470701
v -0.11868346 -0.44925475 0.17324528
v -0.12864989 -0.45321411 0.15510258
v -0.12829690 -0.45031434 0.16421692
v -0.05560279 -0.31485951 0.35879958
v -0.13233003 -0.28658628 0.37109533
v -0.13233003 -0.29489538 0.36533439
v -0.13233003 -0.37291157 0.29560104
v -0.10499182 -0.37965924 0.29474121
v -0.11498829 -0.38077453 0.29095790
v -0.10963330 -0.38863748 0.28253141
v -0.11498829 -0.40018100 0.26542053
v -0.13233003 -0.38975281 0.27479282
v -0.12801149 -0.41055340 0.24590208
v -0.13048996 -0.40012521 0.26069140
v -0.13233003 -0.45700622 -0.05478529
v -0.12864989 -0.43531334 -0.12434666
v -0.13233003 -0.42605627 -0.14360715
v -0.12996422 -0.43096364 -0.13380493
v -0.12978397 -0.42075852 -0.15641883
v -0.11498829 -0.42020085 -0.16553317
v -0.12694500 -0.41027457 -0.17911871
v -0.13144380 -0.38138795 -0.22589421
v -0.12213077 -0.38043994 -0.23053737
v -0.13233003 -0.37436146 -0.23518053
v -0.12861234 -0.36923105 -0.24309108
v -0.12864989 -0.35891438 -0.25564480
v -0.11088005 -0.35752022 -0.26243758
v -0.11803004 -0.34943420 -0.26931632
v -0.10942301 -0.34737089 -0.27361554
v -0.11097769 -0.32790866 -0.29175824
v -0.10409807 -0.32238787 -0.29829305
v -0.11356881 -0.31669977 -0.30156046
v -0.11498829 -0.29456079 -0.31953120
v -0.12864989 -0.30320448 -0.30998692
v -0.12670466 -0.28976494 -0.32090694
v -0.12864989 -0.27576774 -0.32993531
v -0.12889022 -0.26277435 -0.33810383
v -0.11498829 -0.24872141 -0.34910983
v -0.10499182 -0.23427810 -0.35951394
v -0.09500286 -0.24492934 -0.35504276
v -0.09326793 -0.21871948 -0.37034798
v -0.10499182 -0.20901625 -0.37378734
v -0.09489771 -0.19987068 -0.37989223
v -0.09684293 -0.17912585 -0.38952249
v -0.09500286 -0.15576002 -0.40009856
v -0.09500286 -0.14505301 -0.40456975
v -0.08501390 -0.14505301 -0.40542960
v -0.08501390 -0.09508698 -0.42357230
v -0.08501390 -0.08510492 -0.42623782
v -0.08146143 -0.07088467 -0.43010712
v -0.11498829 -0.07506710 -0.42460412
v -0.11498829 -0.06508504 -0.42640978
v -0.09500286 -0.04512092 -0.43294460
v -0.08501390 -0.03508312 -0.43621200
v -0.07317735 -0.01534206 -0.43965137
v -0.08501390 -0.02510105 -0.43724382
v -0.07262158 0.01075628 -0.43904948
v -0.07280934 0.02380544 -0.43784571
v -0.05560279 0.04767315 -0.43449232
v -0.08501390 -0.10545939 -0.42004693
v -0.12864989 -0.42823112 0.21520565
v -0.05560279 -0.30504474 0.36481848
v -0.13233003 -0.27420634 0.37943581
v -0.13233003 -0.38083029 0.28622875
v -0.13233003 -0.32456273 -0.28952265
v -0.12864989 -0.35043800 -0.26510307
v -0.12864989 -0.34335577 -0.27258372
v -0.12864989 -0.33593893 -0.27980641
v -0.12864989 -0.31491527 -0.29949683
v -0.13233003 -0.22591326 -0.35831016
v -0.12864989 -0.23946431 -0.35160336
v -0.11614491 -0.23093216 -0.35925597
v -0.11498829 -0.19150582 -0.38066608
v -0.10499182 -0.18921943 -0.38350359
v -0.11637773 -0.20778941 -0.37215364
v -0.10499182 -0.16892073 -0.39287588
v -0.10499182 -0.15425435 -0.39949667
v -0.10499182 -0.14505301 -0.40336597
v -0.10499182 -0.13507096 -0.40706331
v -0.10499182 -0.08510492 -0.42374426
v -0.09853279 -0.10412101 -0.41884315
v -0.11498829 -0.09447355 -0.41970301
v -0.10499182 -0.07506710 -0.42597985
v -0.11498829 -0.08510492 -0.42236853
v -0.12864989 -0.07517863 -0.42245451
v -0.12682483 -0.05917388 -0.42554992
v -0.12864989 -0.04579012 -0.42718363
v -0.13233003 -0.03636572 -0.42761356
v -0.08501390 -0.01511900 -0.43784571
v -0.08501390 -0.00513694 -0.43801767
v -0.09500286 -0.01511900 -0.43612602
v -0.08501390 0.00490089 -0.43775973
v -0.08501390 0.01488294 -0.43715784
v -0.08501390 0.02486499 -0.43621200
v -0.08501390 0.03490281 -0.43492222
v -0.07280934 0.03490281 -0.43638396
v -0.07280934 0.05771096 -0.43251467
v -0.05561030 0.08620723 -0.42744160
v -0.05560279 0.09055696 0.37943581
v -0.09500286 -0.11510685 -0.41540378
v -0.05560279 -0.29450503 0.37066540
v -0.13233003 -0.26494920 0.38511080
v -0.13233003 -0.21682344 -0.36338323
v -0.12904795 -0.20667408 -0.36983207
v -0.12835698 -0.19446141 -0.37636688
v -0.12773360 -0.18553890 -0.38092405
v -0.11971240 -0.16629975 -0.39150012
v -0.11486061 -0.15001616 -0.39984059
v -0.11498829 -0.13507096 -0.40560156
v -0.10499182 -0.11510685 -0.41411400
v -0.12864989 -0.10573822 -0.41377008
v -0.12450409 -0.08973347 -0.41970301
v -0.13233003 -0.08415690 -0.41970301
v -0.13233003 -0.02097440 -0.42864537
v -0.09500286 -0.00513694 -0.43638396
v -0.09500286 0.00490089 -0.43621200
v -0.10499182 -0.00513694 -0.43449232
v -0.09500286 0.01488294 -0.43561012
v -0.09500286 0.02486499 -0.43457830
v -0.09500286 0.03490281 -0.43337452
v -0.08501390 0.04488488 -0.43337452
v -0.08501390 0.07488681 -0.42821544
v -0.07547557 0.06997941 -0.43010712
v -0.08390985 0.08771290 -0.42597985
v -0.13139872 0.09055696 -0.41660756
v -0.09902848 0.09055696 0.40222168
v -0.12393329 0.09038965 0.41632313
v -0.11291540 0.08793597 0.41133603
v -0.05560279 -0.11510685 0.41443145
v -0.05560279 -0.27900216 0.37840399
v -0.13233003 -0.24492934 0.39577284
v -0.13233003 -0.25558057 0.39026985
v -0.13233003 -0.12776566 -0.40517163
v -0.12864989 -0.17505495 -0.38556719
v -0.12864989 -0.15704264 -0.39390770
v -0.12855977 -0.14399347 -0.39966863
v -0.12498476 -0.13507096 -0.40379590
v -0.12973140 -0.11744901 -0.40947086
v -0.13233003 -0.09491967 -0.41660756
v -0.13233003 -0.00708874 -0.42864537
v -0.10499182 0.00490089 -0.43432033
v -0.10499182 0.01488294 -0.43354648
v -0.12864989 0.02369392 -0.42778552
v -0.10587806 0.03568353 -0.43122491
v -0.09896840 0.04633477 -0.43088096
v -0.09500286 0.07488681 -0.42683971
v -0.09391384 0.08771290 -0.42477608
v -0.11749680 0.08921857 -0.42004693
v -0.13033223 0.06808339 -0.42125070
v -0.13233003 0.01326573 -0.42787153
v -0.13233003 -0.05510299 0.43652946
v -0.12958869 0.07232158 0.42122424
v -0.10553257 -0.06508504 0.42965069
v -0.10438347 -0.07506710 0.43016660
v -0.11498829 -0.07506710 0.43420786
v -0.11498829 -0.08510492 0.43489575
v -0.11498829 -0.09508698 0.43472376
v -0.05560279 -0.12508890 0.41408753
v -0.05560279 -0.26494920 0.38433692
v -0.13233003 -0.22490947 0.40514514
v -0.13233003 -0.23455693 0.40084592
v -0.13233003 0.00294909 -0.42838743
v -0.12864989 0.03490281 -0.42658174
v -0.12864989 0.04488488 -0.42520601
v -0.11498829 0.04488488 -0.42804348
v -0.10499182 0.07488681 -0.42520601
v -0.10509697 0.08771290 -0.42288440
v -0.13233003 -0.14382617 0.43128440
v -0.12864989 -0.09977129 0.43773323
v -0.12864989 -0.08510492 0.43833512
v -0.12864989 -0.07540169 0.43764725
v -0.12864989 -0.06508504 0.43678740
v -0.12498476 -0.05510299 0.43489575
v -0.11498829 -0.06508504 0.43326205
v -0.11498829 -0.10506903 0.43377796
v -0.05560279 -0.14505301 0.41271177
v -0.05560279 -0.13507096 0.41348562
v -0.05560279 -0.25491139 0.38820621
v -0.13233003 -0.20951813 0.41133603
v -0.12864989 -0.12508890 0.43403590
v -0.12864989 -0.11510685 0.43575558
v -0.13233003 -0.17382811 0.42371777
v -0.12864989 -0.16507289 0.42560944
v -0.12841706 -0.15391976 0.42836094
v -0.05560279 -0.19496329 0.40548909
v -0.05560279 -0.18503700 0.40738073
v -0.05560279 -0.16858613 0.41013223
v -0.05560279 -0.15509084 0.41167995
v -0.05560279 -0.24515241 0.39164561
v -0.13233003 -0.19496329 0.41675302
v -0.13233003 -0.18537161 0.42010644
v -0.05560279 -0.23494729 0.39482701
v -0.05560279 -0.22039245 0.39895427
v -0.05560279 -0.20494536 0.40308154
f 1 2 3
f 1 3 4
f 1 4 5
f 1 5 6
f 1 6 21
f 1 21 53
f 1 53 119
f 1 119 204
f 1 204 283
f 1 283 348
f 1 348 388
f 1 388 418
f 1 418 447
f 1 447 466
f 1 466 465
f 1 465 477
f 1 477 476
f 1 476 475
f 1 475 474
f 1 474 483
f 1 483 482
f 1 482 481
f 1 481 478
f 1 478 467
f 1 467 448
f 1 448 419
f 1 419 390
f 1 390 351
f 1 351 293
f 1 293 216
f 1 216 131
f 1 131 62
f 1 62 28
f 1 28 7
f 1 7 8
f 1 8 9
f 1 9 10
f 1 10 11
f 1 11 2
f 2 12 13
f 2 13 3
f 2 11 12
f 3 14 4
f 3 13 14
f 4 15 16
f 4 16 5
f 4 14 15
f 5 16 17
f 5 17 18
f 5 18 6
f 6 18 19
f 6 19 20
f 6 20 21
f 7 22 23
f 7 23 24
f 7 24 25
f 7 25 26
f 7 26 27
f 7 27 8
f 7 28 29
f 7 29 22
f 8 30 31
f 8 31 9
f 8 27 32
f 8 32 30
f 9 31 33
f 9 33 10
f 10 33 34
f 10 34 35
f 10 35 11
f 11 35 36
f 11 36 12
f 12 36 37
f 12 37 38
f 12 38 13
f 13 38 39
f 13 39 14
f 14 39 40
f 14 40 15
f 15 41 16
f 15 40 42
f 15 42 41
f 16 41 17
f 17 43 44
f 17 44 18
f 17 41 43
f 18 44 19
f 19 44 45
f 19 45 20
f 20 46 47
f 20 47 21
f 20 45 46
f 21 47 48
f 21 48 49
f 21 49 50
f 21 50 51
f 21 51 52
f 21 52 53
f 22 29 54
f 22 54 55
f 22 55 23
f 23 55 56
f 23 56 24
f 24 56 57
f 24 57 25
f 25 58 26
f 25 57 58
f 26 58 59
f 26 59 60
f 26 60 27
f 27 61 32
f 27 60 61
f 28 62 63
f 28 63 64
f 28 64 65
f 28 65 66
f 28 66 67
f 28 67 29
f 29 68 69
f 29 69 54
f 29 67 68
f 30 32 61
f 30 61 70
f 30 70 31
f 31 70 71
f 31 71 72
f 31 72 73
f 31 73 33
f 33 73 74
f 33 74 34
f 34 74 75
f 34 75 35
f 35 75 37
f 35 37 36
f 37 75 76
f 37 76 38
f 38 77 78
f 38 78 39
f 38 76 77
f 39 78 40
f 40 79 80
f 40 80 42
f 40 78 79
f 41 42 80
f 41 80 81
f 41 81 43
f 43 81 82
f 43 82 83
f 43 83 84
f 43 84 44
f 44 85 45
f 44 84 85
f 45 86 87
f 45 87 88
f 45 88 46
f 45 85 86
f 46 88 89
f 46 89 90
f 46 90 91
f 46 91 47
f 47 91 48
f 48 91 92
f 48 92 93
f 48 93 49
f 49 93 94
f 49 94 95
f 49 95 96
f 49 96 50
f 50 96 97
f 50 97 51
f 51 97 98
f 51 98 99
f 51 99 100
f 51 100 52
f 52 100 101
f 52 101 102
f 52 102 103
f 52 103 104
f 52 104 105
f 52 105 106
f 52 106 107
f 52 107 108
f 52 108 53
f 53 108 109
f 53 109 110
f 53 110 111
f 53 111 112
f 53 112 113
f 53 113 114
f 53 114 115
f 53 115 116
f 53 116 117
f 53 117 118
f 53 118 119
f 54 69 120
f 54 120 55
f 55 120 121
f 55 121 122
f 55 122 123
f 55 123 56
f 56 123 124
f 56 124 57
f 57 125 126
f 57 126 58
f 57 124 125
f 58 126 59
f 59 127 60
f 59 126 128
f 59 128 127
f 60 127 129
f 60 129 130
f 60 130 61
f 61 130 70
f 62 131 132
f 62 132 63
f 63 132 133
f 63 133 134
f 63 134 64
f 64 134 65
f 65 134 135
f 65 135 66
f 66 135 136
f 66 136 67
f 67 136 137
f 67 137 68
f 68 138 139
f 68 139 69
f 68 137 138
f 69 139 120
f 70 130 71
f 71 130 140
f 71 140 72
f 72 141 142
f 72 142 143
f 72 143 73
f 72 140 141
f 73 144 145
f 73 145 74
f 73 143 144
f 74 145 75
f 75 145 146
f 75 146 76
f 76 147 77
f 76 146 148
f 76 148 149
f 76 149 147
f 77 147 150
f 77 150 78
f 78 150 79
f 79 150 151
f 79 151 80
f 80 151 152
f 80 152 81
f 81 152 153
f 81 153 154
f 81 154 82
f 82 154 83
f 83 155 156
f 83 156 84
f 83 154 155
f 84 156 85
f 85 156 86
f 86 156 157
f 86 157 158
f 86 158 159
f 86 159 87
f 87 159 89
f 87 89 88
f 89 159 90
f 90 159 160
f 90 160 91
f 91 160 161
f 91 161 92
f 92 162 94
f 92 94 93
f 92 161 163
f 92 163 164
f 92 164 162
f 94 162 165
f 94 165 95
f 95 165 166
f 95 166 96
f 96 167 168
f 96 168 97
f 96 166 169
f 96 169 167
f 97 168 170
f 97 170 171
f 97 171 98
f 98 172 173
f 98 173 99
f 98 171 172
f 99 173 100
f 100 173 174
f 100 174 101
f 101 174 175
f 101 175 176
f 101 176 103
f 101 103 102
f 103 176 177
f 103 177 178
f 103 178 104
f 104 179 105
f 104 178 180
f 104 180 179
f 105 179 106
f 106 179 181
f 106 181 107
f 107 181 182
f 107 182 183
f 107 183 184
f 107 184 108
f 108 184 109
f 109 184 185
f 109 185 186
f 109 186 110
f 110 186 111
f 111 186 187
f 111 187 112
f 112 187 188
f 112 188 113
f 113 188 189
f 113 189 114
f 114 189 190
f 114 190 115
f 115 190 191
f 115 191 192
f 115 192 116
f 116 192 193
f 116 193 117
f 117 194 118
f 117 193 194
f 118 194 195
f 118 195 196
f 118 196 197
f 118 197 119
f 119 197 198
f 119 198 199
f 119 199 200
f 119 200 201
f 119 201 202
f 119 202 203
f 119 203 204
f 120 205 121
f 120 139 205
f 121 206 122
f 121 205 207
f 121 207 206
f 122 208 123
f 122 206 208
f 123 209 210
f 123 210 124
f 123 208 209
f 124 210 211
f 124 211 125
f 125 211 128
f 125 128 126
f 127 128 212
f 127 212 129
f 128 213 212
f 128 211 213
f 129 212 214
f 129 214 215
f 129 215 130
f 130 215 140
f 131 216 217
f 131 217 218
f 131 218 219
f 131 219 132
f 132 220 133
f 132 219 221
f 132 221 220
f 133 222 223
f 133 223 224
f 133 224 134
f 133 220 222
f 134 224 225
f 134 225 135
f 135 225 226
f 135 226 136
f 136 226 137
f 137 227 138
f 137 226 228
f 137 228 227
f 138 229 139
f 138 227 230
f 138 230 229
f 139 229 207
f 139 207 205
f 140 215 141
f 141 215 214
f 141 214 142
f 142 214 231
f 142 231 232
f 142 232 143
f 143 232 144
f 144 232 145
f 145 231 146
f 145 232 231
f 146 231 148
f 147 149 233
f 147 233 234
f 147 234 150
f 148 233 149
f 148 231 233
f 150 234 235
f 150 235 151
f 151 235 152
f 152 236 153
f 152 235 236
f 153 237 154
f 153 236 237
f 154 238 155
f 154 237 238
f 155 238 156
f 156 238 157
f 157 239 240
f 157 240 158
f 157 238 241
f 157 241 239
f 158 240 160
f 158 160 159
f 160 240 161
f 161 240 242
f 161 242 163
f 162 164 243
f 162 243 244
f 162 244 165
f 163 242 164
f 164 242 245
f 164 245 246
f 164 246 243
f 165 244 166
f 166 244 169
f 167 169 247
f 167 247 168
f 168 247 170
f 169 248 247
f 169 244 249
f 169 249 248
f 170 250 171
f 170 247 250
f 171 250 251
f 171 251 172
f 172 251 252
f 172 252 253
f 172 253 173
f 173 253 174
f 174 253 175
f 175 253 254
f 175 254 176
f 176 254 177
f 177 254 255
f 177 255 256
f 177 256 257
f 177 257 178
f 178 257 180
f 179 180 181
f 180 257 182
f 180 182 181
f 182 258 183
f 182 257 258
f 183 258 259
f 183 259 185
f 183 185 184
f 185 259 260
f 185 260 186
f 186 260 261
f 186 261 187
f 187 262 188
f 187 261 262
f 188 262 263
f 188 263 189
f 189 263 264
f 189 264 190
f 190 264 191
f 191 265 192
f 191 264 266
f 191 266 265
f 192 265 193
f 193 265 267
f 193 267 268
f 193 268 194
f 194 269 270
f 194 270 196
f 194 196 195
f 194 268 271
f 194 271 269
f 196 272 197
f 196 270 272
f 197 272 198
f 198 272 199
f 199 272 273
f 199 273 274
f 199 274 200
f 200 274 275
f 200 275 201
f 201 275 202
f 202 275 276
f 202 276 203
f 203 277 278
f 203 278 204
f 203 276 277
f 204 279 280
f 204 280 281
f 204 281 282
f 204 282 283
f 204 278 284
f 204 284 279
f 206 207 285
f 206 285 208
f 207 229 286
f 207 286 285
f 208 285 287
f 208 287 288
f 208 288 209
f 209 288 210
f 210 288 289
f 210 289 290
f 210 290 211
f 211 290 213
f 212 291 214
f 212 213 291
f 213 290 292
f 213 292 291
f 214 291 289
f 214 289 231
f 216 293 294
f 216 294 295
f 216 295 217
f 217 295 294
f 217 294 352
f 217 352 391
f 217 391 421
f 217 421 420
f 217 420 450
f 217 450 449
f 217 449 468
f 217 468 479
f 217 479 480
f 217 480 471
f 217 471 457
f 217 457 440
f 217 440 439
f 217 439 451
f 217 451 429
f 217 429 403
f 217 403 377
f 217 377 402
f 217 402 428
f 217 428 422
f 217 422 392
f 217 392 359
f 217 359 354
f 217 354 313
f 217 313 306
f 217 306 304
f 217 304 237
f 217 237 236
f 217 236 235
f 217 235 289
f 217 289 286
f 217 286 301
f 217 301 353
f 217 353 296
f 217 296 223
f 217 223 220
f 217 220 221
f 217 221 219
f 217 219 218
f 220 223 222
f 223 296 297
f 223 297 224
f 224 297 298
f 224 298 225
f 225 298 299
f 225 299 226
f 226 299 228
f 227 228 300
f 227 300 230
f 228 299 301
f 228 301 300
f 229 230 302
f 229 302 286
f 230 300 303
f 230 303 302
f 231 289 235
f 231 235 234
f 231 234 233
f 237 304 241
f 237 241 238
f 239 304 242
f 239 242 240
f 239 241 304
f 242 304 245
f 243 249 244
f 243 246 249
f 245 304 246
f 246 304 249
f 247 305 250
f 247 248 305
f 248 249 306
f 248 306 305
f 249 304 306
f 250 305 307
f 250 307 251
f 251 306 308
f 251 308 252
f 251 307 306
f 252 308 309
f 252 309 253
f 253 309 254
f 254 309 310
f 254 310 255
f 255 310 308
f 255 308 306
f 255 306 256
f 256 311 257
f 256 306 311
f 257 311 312
f 257 312 258
f 258 312 313
f 258 313 314
f 258 314 259
f 259 314 315
f 259 315 316
f 259 316 260
f 260 316 261
f 261 316 317
f 261 317 318
f 261 318 262
f 262 318 319
f 262 319 320
f 262 320 263
f 263 320 321
f 263 321 266
f 263 266 264
f 265 266 322
f 265 322 268
f 265 268 267
f 266 323 322
f 266 321 323
f 268 322 324
f 268 324 271
f 269 271 325
f 269 325 326
f 269 326 270
f 270 326 327
f 270 327 328
f 270 328 329
f 270 329 272
f 271 324 325
f 272 330 273
f 272 329 328
f 272 328 330
f 273 330 274
f 274 330 331
f 274 331 332
f 274 332 275
f 275 333 276
f 275 332 333
f 276 333 334
f 276 334 277
f 277 334 335
f 277 335 336
f 277 336 278
f 278 336 335
f 278 335 284
f 279 337 338
f 279 338 280
f 279 284 337
f 280 338 339
f 280 339 340
f 280 340 281
f 281 340 341
f 281 341 342
f 281 342 343
f 281 343 282
f 282 344 283
f 282 343 345
f 282 345 344
f 283 344 346
f 283 346 347
f 283 347 348
f 284 335 349
f 284 349 337
f 285 286 350
f 285 350 287
f 286 302 303
f 286 303 301
f 286 289 287
f 286 287 350
f 287 289 288
f 289 291 292
f 289 292 290
f 293 351 352
f 293 352 294
f 296 353 298
f 296 298 297
f 298 353 299
f 299 353 301
f 300 301 303
f 305 306 307
f 306 313 311
f 308 310 309
f 311 313 312
f 313 354 355
f 313 355 315
f 313 315 314
f 315 355 316
f 316 355 317
f 317 355 356
f 317 356 318
f 318 357 319
f 318 356 357
f 319 358 321
f 319 321 320
f 319 357 358
f 321 358 323
f 322 323 324
f 323 325 324
f 323 358 354
f 323 354 325
f 325 354 359
f 325 359 326
f 326 359 360
f 326 360 361
f 326 361 327
f 327 361 328
f 328 361 331
f 328 331 330
f 331 362 363
f 331 363 332
f 331 361 364
f 331 364 362
f 332 363 333
f 333 363 365
f 333 365 366
f 333 366 334
f 334 366 367
f 334 367 335
f 335 367 368
f 335 368 349
f 337 369 338
f 337 349 370
f 337 370 371
f 337 371 369
f 338 369 339
f 339 369 372
f 339 372 340
f 340 372 369
f 340 369 373
f 340 373 374
f 340 374 341
f 341 374 375
f 341 375 342
f 342 375 343
f 343 375 376
f 343 376 377
f 343 377 345
f 344 345 378
f 344 378 379
f 344 379 346
f 345 377 380
f 345 380 378
f 346 379 381
f 346 381 382
f 346 382 347
f 347 382 383
f 347 383 384
f 347 384 385
f 347 385 348
f 348 385 386
f 348 386 387
f 348 387 388
f 349 368 389
f 349 389 370
f 351 390 391
f 351 391 352
f 354 358 357
f 354 357 356
f 354 356 355
f 359 392 393
f 359 393 360
f 360 393 364
f 360 364 361
f 362 364 394
f 362 394 395
f 362 395 396
f 362 396 363
f 363 396 365
f 364 393 394
f 365 397 366
f 365 396 397
f 366 397 367
f 367 398 368
f 367 397 398
f 368 398 399
f 368 399 370
f 368 370 389
f 369 371 373
f 370 399 371
f 371 399 400
f 371 400 401
f 371 401 373
f 373 401 374
f 374 401 402
f 374 402 377
f 374 377 376
f 374 376 375
f 377 403 380
f 378 380 404
f 378 404 379
f 379 404 405
f 379 405 381
f 380 406 404
f 380 403 406
f 381 405 407
f 381 407 382
f 382 407 383
f 383 407 408
f 383 408 409
f 383 409 384
f 384 409 410
f 384 410 385
f 385 410 386
f 386 410 411
f 386 411 412
f 386 412 387
f 387 412 413
f 387 413 414
f 387 414 388
f 388 415 416
f 388 416 417
f 388 417 418
f 388 414 415
f 390 419 420
f 390 420 421
f 390 421 391
f 392 422 423
f 392 423 394
f 392 394 393
f 394 423 395
f 395 423 424
f 395 424 396
f 396 424 397
f 397 424 425
f 397 425 426
f 397 426 398
f 398 427 400
f 398 400 399
f 398 426 427
f 400 428 401
f 400 427 428
f 401 428 402
f 403 429 406
f 404 406 430
f 404 430 405
f 405 430 407
f 406 429 430
f 407 430 431
f 407 431 432
f 407 432 408
f 408 432 433
f 408 433 409
f 409 433 434
f 409 434 410
f 410 434 435
f 410 435 411
f 411 435 436
f 411 436 413
f 411 413 412
f 413 436 437
f 413 437 414
f 414 437 438
f 414 438 439
f 414 439 440
f 414 440 441
f 414 441 416
f 414 416 415
f 416 441 442
f 416 442 418
f 416 418 417
f 418 442 443
f 418 443 444
f 418 444 445
f 418 445 446
f 418 446 447
f 419 448 449
f 419 449 450
f 419 450 420
f 422 428 427
f 422 427 426
f 422 426 425
f 422 425 424
f 422 424 423
f 429 451 430
f 430 451 439
f 430 439 431
f 431 439 432
f 432 439 452
f 432 452 433
f 433 452 453
f 433 453 454
f 433 454 434
f 434 454 455
f 434 455 435
f 435 455 436
f 436 455 456
f 436 456 437
f 437 456 438
f 438 456 455
f 438 455 454
f 438 454 453
f 438 453 452
f 438 452 439
f 440 457 458
f 440 458 459
f 440 459 460
f 440 460 461
f 440 461 462
f 440 462 441
f 441 462 463
f 441 463 442
f 442 463 443
f 443 463 444
f 444 463 461
f 444 461 460
f 444 460 459
f 444 459 445
f 445 459 446
f 446 459 458
f 446 458 464
f 446 464 465
f 446 465 466
f 446 466 447
f 448 467 468
f 448 468 449
f 457 469 470
f 457 470 458
f 457 471 472
f 457 472 473
f 457 473 474
f 457 474 475
f 457 475 469
f 458 470 464
f 461 463 462
f 464 470 476
f 464 476 477
f 464 477 465
f 467 478 479
f 467 479 468
f 469 475 470
f 470 475 476
f 471 480 478
f 471 478 481
f 471 481 482
f 471 482 472
f 472 482 483
f 472 483 473
f 473 483 474
f 478 480 479

