# https://github.com/mikedh/trimesh
v -0.05560279 0.09061271 0.37941864
v -0.05560279 0.09737961 0.38553980
v -0.11170620 0.09061271 0.41035530
v -0.07862246 0.09061271 0.38628429
v -0.13233003 0.09156373 -0.41624907
v -0.12286680 0.09171005 -0.41839972
v -0.08501390 0.09280738 -0.42485175
v -0.07336511 0.09390472 -0.42576167
v -0.07171281 0.10282971 -0.42385915
v -0.05560279 0.19109201 -0.39135084
v -0.05560279 0.10312232 0.38917941
v -0.12276165 0.09061271 0.41589743
v -0.13233003 0.10370757 -0.41393295
v -0.13128607 0.09277080 0.41928890
v -0.13233003 0.10809691 0.41713822
v -0.10843163 0.09233187 -0.42129487
v -0.09500286 0.09280738 -0.42361099
v -0.08501390 0.10506095 -0.42203933
v -0.07280934 0.11215705 -0.42121217
v -0.07391338 0.12210622 -0.41782069
v -0.07280934 0.16508517 -0.40243509
v -0.07171281 0.17349806 -0.39920908
v -0.07500991 0.18505666 -0.39374965
v -0.07280934 0.20510131 -0.38390619
v -0.07280934 0.21475786 -0.37861222
v -0.07154007 0.23235179 -0.36852056
v -0.05560279 0.24555638 -0.36024874
v -0.05560279 0.10999896 0.39207456
v -0.05560279 0.13677393 0.40150446
v -0.05560279 0.14723518 0.40390328
v -0.12498476 0.10506095 -0.41517371
v -0.13233003 0.11475408 -0.41128594
v -0.05560279 0.15502626 0.40497863
v -0.05560279 0.16720667 0.40572309
v -0.05560279 0.17726558 0.40580580
v -0.05560279 0.18505666 0.40555766
v -0.05560279 0.19723707 0.40464774
v -0.05560279 0.20722282 0.40373784
v -0.05560279 0.22221974 0.40191805
v -0.07280934 0.23414411 0.40009823
v -0.08182944 0.23088868 0.40009823
v -0.13233003 0.11501013 0.41598016
v -0.10640379 0.10125686 -0.41972321
v -0.09418421 0.10498780 -0.42079857
v -0.08765759 0.11193758 -0.41972321
v -0.10499182 0.13757864 -0.40913528
v -0.10499182 0.14507709 -0.40657100
v -0.09500286 0.15502626 -0.40400675
v -0.09500286 0.16804796 -0.39920908
v -0.08273070 0.17086446 -0.39929178
v -0.09500286 0.17507091 -0.39614850
v -0.08591516 0.18600768 -0.39217803
v -0.09500286 0.19500583 -0.38671860
v -0.08483364 0.20572314 -0.38216910
v -0.08310623 0.21234372 -0.37877765
v -0.07576847 0.22748694 -0.37083668
v -0.09500286 0.22474360 -0.36976135
v -0.08501390 0.22847454 -0.36893415
v -0.08501390 0.23502198 -0.36488095
v -0.08501390 0.25857809 -0.34883359
v -0.07280934 0.27419683 -0.33923829
v -0.05560279 0.25784653 -0.35181147
v -0.13157898 0.12148440 -0.40979701
v -0.12498476 0.11501013 -0.41269216
v -0.13233003 0.13410375 -0.40582654
v -0.05560279 0.25503004 0.39579690
v -0.07280934 0.24500772 0.39803028
v -0.08501390 0.24500772 0.39736852
v -0.09500286 0.24500772 0.39662406
v -0.09500286 0.23502198 0.39836115
v -0.10499182 0.23502198 0.39745125
v -0.12498476 0.22507280 0.39720309
v -0.13233003 0.22635303 0.39612776
v -0.12498476 0.12536165 -0.41004518
v -0.11675326 0.13132383 -0.40963158
v -0.11498829 0.14507709 -0.40541294
v -0.10499182 0.15502626 -0.40301412
v -0.10499182 0.16413414 -0.39953995
v -0.10499182 0.17507091 -0.39482501
v -0.10499182 0.18545902 -0.39011005
v -0.09371857 0.18703187 -0.39085451
v -0.10499182 0.19500583 -0.38531238
v -0.10499182 0.20510131 -0.37993571
v -0.09500286 0.20374793 -0.38200366
v -0.10499182 0.21501391 -0.37406269
v -0.10782328 0.22064689 -0.37025765
v -0.09707575 0.24208149 -0.35842893
v -0.09500286 0.25470084 -0.34966078
v -0.09169824 0.26918566 -0.33923829
v -0.09154803 0.28037849 -0.33030471
v -0.07280934 0.29654589 -0.32104024
v -0.05560279 0.28813300 -0.32848489
v -0.12498476 0.13505477 -0.40715003
v -0.13233003 0.14529656 -0.40210423
v -0.07280934 0.29599723 0.37974954
v -0.07280934 0.28586516 0.38462991
v -0.07280934 0.27745226 0.38826951
v -0.07280934 0.26874673 0.39149553
v -0.08501390 0.25503004 0.39530057
v -0.05560279 0.35294890 0.33756319
v -0.07280934 0.30839711 0.37238759
v -0.09500286 0.25503004 0.39455611
v -0.10499182 0.24500772 0.39563146
v -0.12498476 0.23502198 0.39521787
v -0.13233003 0.23776531 0.39364621
v -0.12498476 0.14507709 -0.40367585
v -0.12498476 0.15509942 -0.39995354
v -0.11472543 0.15992770 -0.39978811
v -0.11498829 0.17507091 -0.39325336
v -0.11498829 0.18377644 -0.38928288
v -0.11498829 0.19500583 -0.38365802
v -0.11498829 0.20356505 -0.37910852
v -0.11585200 0.21742804 -0.37083668
v -0.11498829 0.23476593 -0.35975242
v -0.11498829 0.24680004 -0.35123244
v -0.10328694 0.25100648 -0.35065341
v -0.11760946 0.26048014 -0.34031361
v -0.09820233 0.27942747 -0.32947752
v -0.08501390 0.29468042 -0.31971675
v -0.07370309 0.30956760 -0.30945969
v -0.05560279 0.30495879 -0.31434005
v -0.13233003 0.16402441 -0.39490771
v -0.13211222 0.15242924 -0.39953995
v -0.08501390 0.29431465 0.37950137
v -0.08501390 0.28498730 0.38405088
v -0.09500286 0.27503812 0.38744232
v -0.08454074 0.26841754 0.39091650
v -0.09500286 0.26688126 0.39066836
v -0.07280934 0.37837049 0.30952165
v -0.07084910 0.36070341 0.32987037
v -0.07668476 0.34771827 0.34161636
v -0.07336511 0.33572075 0.35228705
v -0.07280934 0.32555211 0.36039343
v -0.07280934 0.31681001 0.36668003
v -0.05560279 0.44369850 0.19073813
v -0.07171281 0.41461912 0.25674736
v -0.07208833 0.39874434 0.28263819
v -0.07171281 0.38992909 0.29496324
v -0.08553212 0.31154281 0.36874798
v -0.09500286 0.30649507 0.37089866
v -0.11498829 0.24500772 0.39430794
v -0.10499182 0.26516211 0.38992387
v -0.10499182 0.25503004 0.39323261
v -0.13214228 0.24884839 0.39075106
v -0.13233003 0.25733444 0.38785592
v -0.12498476 0.16508517 -0.39590034
v -0.13233003 0.17507091 -0.39011005
v -0.12409852 0.17967972 -0.38953102
v -0.13233003 0.18388617 -0.38589141
v -0.12564568 0.19716392 -0.38059744
v -0.12422621 0.20415029 -0.37704057
v -0.12498476 0.21559915 -0.37025765
v -0.12577337 0.22595067 -0.36330932
v -0.12436140 0.23282731 -0.35900795
v -0.12498476 0.24526377 -0.35007438
v -0.12960371 0.25865126 -0.33882469
v -0.11498829 0.27192900 -0.33154547
v -0.13233003 0.25246960 -0.34287789
v -0.09756394 0.29036424 -0.32029578
v -0.08501390 0.30283728 -0.31252027
v -0.08501390 0.30788502 -0.30805346
v -0.07070640 0.32017517 -0.30011252
v -0.05560279 0.31501770 -0.30515832
v -0.09640732 0.29307100 0.37883961
v -0.09500286 0.28498730 0.38305825
v -0.10499182 0.27503812 0.38620156
v -0.07280934 0.38349140 0.30315235
v -0.10086104 0.38016281 0.30009177
v -0.08501390 0.37270093 0.31316125
v -0.07396595 0.37134755 0.31754532
v -0.07822441 0.35956949 0.32953951
v -0.08501390 0.35386336 0.33400628
v -0.08501390 0.34643805 0.34120280
v -0.08501390 0.33579391 0.35054997
v -0.08501390 0.32449135 0.35956624
v -0.05560279 0.45298928 0.15293585
v -0.07225356 0.45031908 0.16484728
v -0.07171281 0.44589317 0.18254900
v -0.07190808 0.43963835 0.20289771
v -0.07280934 0.43532217 0.21414742
v -0.07280934 0.43005496 0.22597614
v -0.07171281 0.42281255 0.24111359
v -0.07280934 0.41900846 0.24814466
v -0.08622309 0.40935192 0.26096600
v -0.07391338 0.40997374 0.26444015
v -0.07289946 0.40338972 0.27552441
v -0.07862246 0.39969537 0.27949491
v -0.08501390 0.39453790 0.28495431
v -0.08756746 0.39022171 0.29024827
v -0.09407156 0.38619816 0.29397061
v -0.09500286 0.31494454 0.36502567
v -0.10499182 0.30525142 0.37007147
v -0.10435343 0.29402202 0.37710255
v -0.11350121 0.26285771 0.38934484
v -0.12498476 0.25268906 0.39075106
v -0.12498476 0.26508895 0.38644972
v -0.13233003 0.26651549 0.38446447
v -0.13233003 0.19032387 -0.38266540
v -0.13233003 0.19690788 -0.37935668
v -0.13233003 0.20480868 -0.37497261
v -0.13233003 0.21333133 -0.36992678
v -0.13233003 0.22349995 -0.36347476
v -0.13164657 0.23110816 -0.35851166
v -0.13233003 0.24281305 -0.35007438
v -0.13233003 0.26413792 -0.33353072
v -0.13151139 0.27138034 -0.32765770
v -0.12544291 0.27452603 -0.32658237
v -0.10678683 0.28897429 -0.31905499
v -0.09820984 0.30086207 -0.31078318
v -0.09500286 0.30642191 -0.30664724
v -0.09500286 0.31168911 -0.30151871
v -0.07070640 0.33016092 -0.29026902
v -0.05560279 0.33517209 -0.28505775
v -0.10581046 0.28729171 0.38057670
v -0.11498829 0.28513360 0.37999767
v -0.11498829 0.27503812 0.38446447
v -0.10750784 0.37943125 0.29918188
v -0.10527722 0.37507850 0.30497214
v -0.09500286 0.37160361 0.31183776
v -0.08501390 0.36106917 0.32623076
v -0.11129312 0.36030105 0.32027504
v -0.09500286 0.35265628 0.33268279
v -0.09500286 0.34768170 0.33764589
v -0.09500286 0.34274369 0.34244356
v -0.09500286 0.32343060 0.35873908
v -0.09500286 0.33458683 0.34955734
v -0.07280934 0.45558628 0.13382791
v -0.07280934 0.45412317 0.14383683
v -0.05560279 0.46041456 0.09362679
v -0.07280934 0.45679337 0.12489432
v -0.07985418 0.44995332 0.15971875
v -0.07500991 0.44739285 0.17493892
v -0.08501390 0.44267431 0.18486512
v -0.07688754 0.44055280 0.19727287
v -0.08501390 0.43649268 0.20496568
v -0.09500286 0.43444431 0.20496568
v -0.09500286 0.43020129 0.21547091
v -0.08477356 0.43067679 0.21927595
v -0.09500286 0.42584851 0.22490080
v -0.08426285 0.42156890 0.23846661
v -0.09500286 0.41033953 0.25567201
v -0.10664413 0.40104875 0.26741803
v -0.09500286 0.40514547 0.26485375
v -0.10499182 0.40788880 0.25600290
v -0.09500286 0.39954907 0.27428365
v -0.08501390 0.40064639 0.27602074
v -0.10499182 0.39003882 0.28511974
v -0.09542345 0.39077038 0.28710499
v -0.11498829 0.38038227 0.29554227
v -0.10384271 0.31893152 0.36064160
v -0.11498829 0.29497305 0.37462100
v -0.11498829 0.31589556 0.36064160
v -0.11498829 0.30378830 0.36916158
v -0.12838702 0.27642807 0.38115573
v -0.13233003 0.28487757 0.37619263
v -0.13233003 0.29131526 -0.30954239
v -0.13214228 0.28290236 -0.31731790
v -0.10807864 0.29936239 -0.30937696
v -0.10201015 0.31062835 -0.30052608
v -0.10522465 0.31505427 -0.29498395
v -0.10176982 0.32050437 -0.29043445
v -0.07693260 0.33904934 -0.27893659
v -0.07280934 0.34914482 -0.26892769
v -0.05560279 0.34241450 -0.27728224
v -0.12376055 0.28279263 0.37917051
v -0.12450409 0.29541197 0.37222216
v -0.13233003 0.36995760 0.30282149
v -0.11498829 0.37142071 0.30662653
v -0.10442853 0.36871395 0.31258222
v -0.11795494 0.35945976 0.31936514
v -0.11495074 0.35496068 0.32490727
v -0.12498476 0.34874246 0.32871231
v -0.11174376 0.34043929 0.34037560
v -0.10499182 0.33330661 0.34848198
v -0.11425226 0.32544237 0.35303152
v -0.08501390 0.45306242 0.13490324
v -0.09163065 0.44984359 0.14681469
v -0.08294100 0.45053855 0.15310128
v -0.05560279 0.46154848 0.08171535
v -0.07280934 0.45902461 0.10380115
v -0.07280934 0.45789069 0.11505084
v -0.08501390 0.45547655 0.11496812
v -0.08501390 0.45430607 0.12489432
v -0.09500286 0.44757575 0.15492108
v -0.09500286 0.44538108 0.16493000
v -0.08501390 0.44761232 0.16493000
v -0.08501390 0.44527134 0.17493892
v -0.12498476 0.43404195 0.18486512
v -0.10499182 0.43557823 0.19495676
v -0.08501390 0.43982124 0.19446045
v -0.12092909 0.43020129 0.20049889
v -0.11498829 0.42994523 0.20496568
v -0.10555511 0.43009156 0.21017693
v -0.13208218 0.41900846 0.22134390
v -0.12498476 0.41952056 0.22390817
v -0.10760547 0.42028868 0.23060836
v -0.09500286 0.41922793 0.23846661
v -0.12498476 0.41088820 0.24169262
v -0.12498476 0.40390182 0.25492755
v -0.13177425 0.39863461 0.26154503
v -0.11498829 0.39442816 0.27494538
v -0.10497680 0.39717150 0.27436635
v -0.12213828 0.38813677 0.28197646
v -0.11498829 0.38718575 0.28586420
v -0.13233003 0.38341823 0.28511974
v -0.12498476 0.37910205 0.29380518
v -0.12268655 0.30221546 0.36841711
v -0.12498476 0.31691974 0.35749829
v -0.12498476 0.31187201 0.36138606
v -0.13229999 0.30799475 0.36229596
v -0.13233003 0.29570460 0.37023693
v -0.13233003 0.30064261 -0.30069155
v -0.12498476 0.30192283 -0.30176687
v -0.10867196 0.30956760 -0.29945076
v -0.13233003 0.31073809 -0.29051718
v -0.11171371 0.31893152 -0.28886279
v -0.11498829 0.32302824 -0.28332070
v -0.12498476 0.32145539 -0.28158361
v -0.08501390 0.34230477 -0.27256730
v -0.08501390 0.34929112 -0.26421276
v -0.07171281 0.36041078 -0.25585818
v -0.05560279 0.35386336 -0.26421276
v -0.13233003 0.37785840 0.29281256
v -0.13233003 0.36260545 0.31150690
v -0.12498476 0.37006733 0.30505487
v -0.12498476 0.36073998 0.31589097
v -0.13233003 0.35598487 0.31886882
v -0.13233003 0.34610885 0.32912591
v -0.12498476 0.34376788 0.33359268
v -0.12169516 0.33904934 0.33905211
v -0.12498476 0.33352607 0.34318802
v -0.11709874 0.32917333 0.34914374
v -0.12498476 0.32551554 0.35030180
v -0.09500286 0.45222113 0.12489432
v -0.10163463 0.44947779 0.13415878
v -0.10499182 0.44706365 0.14491217
v -0.05560279 0.46260923 0.07021751
v -0.08501390 0.45646417 0.10487649
v -0.05560279 0.46312132 0.06269013
v -0.05560279 0.46377972 0.05276393
v -0.07280934 0.46341395 0.02381251
v -0.09500286 0.45335504 0.11496812
v -0.10499182 0.44523478 0.15492108
v -0.12099669 0.44022360 0.16112496
v -0.13233003 0.43499297 0.17361543
v -0.10499182 0.44311327 0.16493000
v -0.12498476 0.43634635 0.17493892
v -0.09500286 0.44307667 0.17493892
v -0.13233003 0.43265200 0.18378977
v -0.12996422 0.42954287 0.19611481
v -0.11498829 0.43334699 0.19495676
v -0.13233003 0.42614114 0.20364219
v -0.13233003 0.40210950 0.25501028
v -0.13212724 0.40843746 0.24285068
v -0.11412458 0.41717958 0.23399982
v -0.13095561 0.39014855 0.27552441
v -0.13233003 0.32434505 0.34930918
v -0.13233003 0.30569035 -0.29564571
v -0.13233003 0.31545663 -0.28547135
v -0.13209720 0.32079700 -0.27968109
v -0.13233003 0.32602763 -0.27372536
v -0.13120346 0.33122167 -0.26801780
v -0.09136778 0.35042503 -0.26040769
v -0.08263307 0.36084971 -0.25097781
v -0.08478858 0.36490986 -0.24485666
v -0.08222750 0.37123781 -0.23757744
v -0.07280934 0.39106300 -0.21375455
v -0.05560279 0.38034570 -0.23046367
v -0.05560279 0.36966497 -0.24452578
v -0.13233003 0.33813488 0.33690143
v -0.13233003 0.33246532 0.34219539
v -0.10497680 0.44995332 0.12489432
v -0.11498829 0.44622236 0.13490324
v -0.13179678 0.43996757 0.14813818
v -0.11498829 0.44285721 0.15492108
v -0.10499182 0.45273322 0.09486756
v -0.09500286 0.45430607 0.10487649
v -0.05560279 0.46418208 0.04267230
v -0.05560279 0.46312132 0.00495273
v -0.07280934 0.46301159 0.01380359
v -0.08253543 0.46070719 0.02497057
v -0.13233003 0.44713682 0.05350840
v -0.13233003 0.44717339 0.06202839
v -0.13233003 0.44706365 0.07212003
v -0.13233003 0.44673446 0.08378331
v -0.05560279 0.46429181 0.03489677
v -0.10499182 0.45200166 0.10487649
v -0.10992622 0.44991672 0.11480269
v -0.12765850 0.43941888 0.15690632
v -0.13233003 0.43704134 0.16344108
v -0.13233003 0.34969348 -0.24460849
v -0.13130860 0.34025639 -0.25701624
v -0.09500286 0.37142071 -0.23186988
v -0.08501390 0.37804130 -0.22715493
v -0.05560279 0.38414979 -0.22492154
v -0.09323038 0.37858996 -0.22252271
v -0.13233003 0.37185964 -0.21309280
v -0.08553212 0.38890490 -0.21061125
v -0.07255398 0.40269476 -0.19497749
v -0.05560279 0.39874434 -0.20283574
v -0.11498829 0.44757575 0.12489432
v -0.12498476 0.44512504 0.12489432
v -0.13233003 0.44212565 0.13349703
v -0.13233003 0.44622236 0.09486756
v -0.12498476 0.44724655 0.10487649
v -0.05560279 0.46238977 -0.00439444
v -0.13233003 0.44545424 0.01355544
v -0.13233003 0.44611263 0.02356436
v -0.13233003 0.44658816 0.03349056
v -0.07162268 0.45950013 -0.02697655
v -0.07752593 0.45924407 -0.01489967
v -0.07950870 0.45982933 -0.00331910
v -0.13233003 0.44695392 0.04358220
v -0.12498476 0.44625896 0.11496812
v -0.13210471 0.35839900 -0.23302794
v -0.12498476 0.35777718 -0.23699841
v -0.13233003 0.36315411 -0.22616231
v -0.13233003 0.36787266 -0.21913125
v -0.13233003 0.38049200 -0.19911341
v -0.09002340 0.39998800 -0.18993168
v -0.08501390 0.40430418 -0.18496858
v -0.07097678 0.41955712 -0.16437171
v -0.05560279 0.40953481 -0.18381052
v -0.13233003 0.44344246 0.12357083
v -0.13233003 0.44549081 0.10355299
v -0.13233003 0.44453979 0.11364463
v -0.05560279 0.46129245 -0.01489967
v -0.13233003 0.44453979 0.00362924
v -0.08501390 0.45576918 -0.02490859
v -0.05560279 0.45811015 -0.03963245
v -0.07280934 0.45646417 -0.04608448
v -0.13233003 0.44355220 -0.00621424
v -0.13233003 0.38941699 -0.18356237
v -0.09401147 0.40148768 -0.18472043
v -0.08501390 0.41110766 -0.17206451
v -0.05560279 0.42917711 -0.14319581
v -0.05560279 0.42405620 -0.15518998
v -0.05560279 0.41439965 -0.17487694
v -0.12065121 0.40020746 -0.17032743
v -0.13233003 0.39936617 -0.16412355
v -0.13233003 0.40346289 -0.15535541
v -0.13233003 0.40862036 -0.14369212
v -0.08148396 0.43045732 -0.13111894
v -0.07171281 0.43502957 -0.12706575
v -0.10050805 0.45009962 -0.03094703
v -0.13233003 0.44223538 -0.01671947
v -0.05560279 0.45141643 -0.07495318
v -0.07280934 0.45474499 -0.05601068
v -0.13160902 0.43960178 -0.03557925
v -0.09889329 0.44962412 -0.03764721
v -0.13233003 0.39391607 -0.17512509
v -0.10879213 0.39958563 -0.17909557
v -0.05560279 0.43246910 -0.13475855
v -0.13233003 0.41143686 -0.13666107
v -0.13233003 0.41604567 -0.12491506
v -0.09196862 0.43064022 -0.12160633
v -0.08501390 0.43524903 -0.11490614
v -0.07295955 0.43897995 -0.11490614
v -0.07287693 0.44234511 -0.10497994
v -0.13233003 0.44099173 -0.02540490
v -0.07280934 0.44556397 -0.09488830
v -0.07153255 0.44918516 -0.08289415
v -0.13233003 0.43773630 -0.04492643
v -0.07317735 0.45273322 -0.06544057
v -0.08182944 0.45061171 -0.06262815
v -0.13233003 0.42281255 -0.10514538
v -0.13135366 0.41988632 -0.11482342
v -0.10213783 0.43067679 -0.11201100
v -0.09862292 0.42950630 -0.11862846
v -0.09517560 0.43188387 -0.11515430
v -0.09500286 0.43535876 -0.10497994
v -0.07856238 0.43949205 -0.10845411
v -0.08852130 0.43949205 -0.09827975
v -0.09317781 0.43941888 -0.09323394
v -0.08501390 0.44432032 -0.08487938
v -0.08511905 0.43850446 -0.10506266
v -0.13233003 0.43371275 -0.06494427
v -0.07855487 0.44947779 -0.07214076
v -0.13233003 0.43583426 -0.05485263
v -0.13233003 0.42551932 -0.09621180
v -0.11196156 0.43064022 -0.10200208
v -0.11863089 0.42950630 -0.09827975
v -0.13233003 0.42829925 -0.08612016
v -0.09812722 0.43930915 -0.08744365
v -0.13233003 0.43140835 -0.07429144
f 1 2 3
f 1 3 12
f 1 12 4
f 1 4 5
f 1 5 6
f 1 6 7
f 1 7 8
f 1 8 9
f 1 9 10
f 1 10 27
f 1 27 62
f 1 62 92
f 1 92 121
f 1 121 163
f 1 163 213
f 1 213 264
f 1 264 322
f 1 322 369
f 1 369 368
f 1 368 395
f 1 395 400
f 1 400 423
f 1 423 438
f 1 438 437
f 1 437 436
f 1 436 453
f 1 453 447
f 1 447 430
f 1 430 427
f 1 427 406
f 1 406 379
f 1 379 386
f 1 386 378
f 1 378 340
f 1 340 339
f 1 339 337
f 1 337 279
f 1 279 229
f 1 229 176
f 1 176 135
f 1 135 100
f 1 100 66
f 1 66 39
f 1 39 38
f 1 38 37
f 1 37 36
f 1 36 35
f 1 35 34
f 1 34 33
f 1 33 30
f 1 30 29
f 1 29 28
f 1 28 11
f 1 11 2
f 2 11 3
f 3 11 12
f 4 12 5
f 5 13 6
f 5 12 14
f 5 14 15
f 5 15 42
f 5 42 73
f 5 73 105
f 5 105 145
f 5 145 197
f 5 197 255
f 5 255 311
f 5 311 357
f 5 357 371
f 5 371 370
f 5 370 328
f 5 328 327
f 5 327 324
f 5 324 267
f 5 267 323
f 5 323 305
f 5 305 353
f 5 353 352
f 5 352 349
f 5 349 345
f 5 345 390
f 5 390 403
f 5 403 424
f 5 424 426
f 5 426 425
f 5 425 404
f 5 404 385
f 5 385 384
f 5 384 383
f 5 383 382
f 5 382 413
f 5 413 409
f 5 409 408
f 5 408 407
f 5 407 428
f 5 428 432
f 5 432 446
f 5 446 460
f 5 460 463
f 5 463 479
f 5 479 477
f 5 477 485
f 5 485 483
f 5 483 480
f 5 480 466
f 5 466 455
f 5 455 454
f 5 454 442
f 5 442 441
f 5 441 440
f 5 440 451
f 5 451 433
f 5 433 419
f 5 419 397
f 5 397 418
f 5 418 417
f 5 417 391
f 5 391 361
f 5 361 359
f 5 359 315
f 5 315 358
f 5 358 312
f 5 312 256
f 5 256 205
f 5 205 158
f 5 158 204
f 5 204 202
f 5 202 201
f 5 201 200
f 5 200 199
f 5 199 198
f 5 198 149
f 5 149 147
f 5 147 122
f 5 122 94
f 5 94 65
f 5 65 32
f 5 32 13
f 6 13 16
f 6 16 7
f 7 16 17
f 7 17 18
f 7 18 8
f 8 18 9
f 9 18 19
f 9 19 10
f 10 19 20
f 10 20 21
f 10 21 22
f 10 22 23
f 10 23 24
f 10 24 25
f 10 25 26
f 10 26 27
f 11 28 12
f 12 28 29
f 12 29 30
f 12 30 14
f 13 31 16
f 13 32 31
f 14 30 33
f 14 33 34
f 14 34 35
f 14 35 36
f 14 36 37
f 14 37 38
f 14 38 39
f 14 39 40
f 14 40 15
f 15 40 41
f 15 41 42
f 16 31 43
f 16 43 17
f 17 43 44
f 17 44 18
f 18 44 45
f 18 45 19
f 19 45 20
f 20 45 46
f 20 46 47
f 20 47 48
f 20 48 21
f 21 48 49
f 21 49 50
f 21 50 22
f 22 50 23
f 23 51 52
f 23 52 24
f 23 50 51
f 24 52 53
f 24 53 54
f 24 54 55
f 24 55 25
f 25 55 26
f 26 55 56
f 26 56 57
f 26 57 58
f 26 58 59
f 26 59 60
f 26 60 61
f 26 61 62
f 26 62 27
f 31 32 63
f 31 63 64
f 31 64 43
f 32 65 63
f 39 66 40
f 40 67 68
f 40 68 41
f 40 66 67
f 41 68 69
f 41 69 70
f 41 70 42
f 42 70 69
f 42 69 71
f 42 71 72
f 42 72 73
f 43 64 63
f 43 63 74
f 43 74 44
f 44 74 75
f 44 75 45
f 45 75 76
f 45 76 46
f 46 76 47
f 47 76 77
f 47 77 48
f 48 77 49
f 49 77 78
f 49 78 79
f 49 79 51
f 49 51 50
f 51 79 80
f 51 80 81
f 51 81 52
f 52 81 53
f 53 81 80
f 53 80 82
f 53 82 83
f 53 83 84
f 53 84 54
f 54 84 55
f 55 57 56
f 55 84 83
f 55 83 57
f 57 83 85
f 57 85 86
f 57 86 87
f 57 87 59
f 57 59 58
f 59 87 60
f 60 87 88
f 60 88 89
f 60 89 61
f 61 89 90
f 61 90 91
f 61 91 92
f 61 92 62
f 63 93 74
f 63 65 93
f 65 94 93
f 66 95 96
f 66 96 97
f 66 97 98
f 66 98 99
f 66 99 67
f 66 100 101
f 66 101 95
f 67 99 68
f 68 99 102
f 68 102 69
f 69 102 103
f 69 103 71
f 71 103 72
f 72 103 73
f 73 103 104
f 73 104 105
f 74 93 75
f 75 93 76
f 76 106 107
f 76 107 108
f 76 108 77
f 76 93 106
f 77 108 78
f 78 108 109
f 78 109 79
f 79 109 80
f 80 110 111
f 80 111 82
f 80 109 110
f 82 111 112
f 82 112 83
f 83 112 113
f 83 113 86
f 83 86 85
f 86 113 87
f 87 114 115
f 87 115 116
f 87 116 88
f 87 113 114
f 88 116 117
f 88 117 89
f 89 117 90
f 90 117 118
f 90 118 119
f 90 119 91
f 91 119 120
f 91 120 121
f 91 121 92
f 93 94 106
f 94 122 123
f 94 123 106
f 95 101 124
f 95 124 125
f 95 125 96
f 96 125 97
f 97 125 126
f 97 126 127
f 97 127 98
f 98 127 99
f 99 127 128
f 99 128 102
f 100 129 130
f 100 130 131
f 100 131 132
f 100 132 133
f 100 133 134
f 100 134 101
f 100 135 136
f 100 136 137
f 100 137 138
f 100 138 129
f 101 134 139
f 101 139 140
f 101 140 124
f 102 141 103
f 102 128 142
f 102 142 143
f 102 143 141
f 103 141 105
f 103 105 104
f 105 143 144
f 105 144 145
f 105 141 143
f 106 123 107
f 107 123 122
f 107 122 146
f 107 146 108
f 108 146 109
f 109 146 147
f 109 147 148
f 109 148 110
f 110 148 149
f 110 149 150
f 110 150 111
f 111 150 112
f 112 151 152
f 112 152 113
f 112 150 151
f 113 152 114
f 114 152 153
f 114 153 154
f 114 154 155
f 114 155 115
f 115 155 117
f 115 117 116
f 117 156 157
f 117 157 118
f 117 155 158
f 117 158 156
f 118 159 119
f 118 157 159
f 119 159 160
f 119 160 120
f 120 160 161
f 120 161 162
f 120 162 121
f 121 162 163
f 122 147 146
f 124 140 164
f 124 164 165
f 124 165 125
f 125 165 126
f 126 128 127
f 126 165 166
f 126 166 128
f 128 166 142
f 129 167 168
f 129 168 169
f 129 169 170
f 129 170 130
f 129 138 167
f 130 170 171
f 130 171 172
f 130 172 131
f 131 172 173
f 131 173 174
f 131 174 132
f 132 174 175
f 132 175 133
f 133 175 134
f 134 175 139
f 135 176 177
f 135 177 178
f 135 178 179
f 135 179 180
f 135 180 181
f 135 181 182
f 135 182 136
f 136 182 183
f 136 183 184
f 136 184 185
f 136 185 186
f 136 186 137
f 137 186 187
f 137 187 188
f 137 188 189
f 137 189 138
f 138 189 190
f 138 190 167
f 139 175 191
f 139 191 140
f 140 192 193
f 140 193 164
f 140 191 192
f 142 194 143
f 142 166 194
f 143 194 195
f 143 195 144
f 144 195 145
f 145 195 194
f 145 194 196
f 145 196 197
f 147 149 148
f 149 198 150
f 150 198 199
f 150 199 151
f 151 199 200
f 151 200 152
f 152 200 201
f 152 201 202
f 152 202 153
f 153 202 154
f 154 202 203
f 154 203 155
f 155 203 204
f 155 204 158
f 156 205 157
f 156 158 205
f 157 205 206
f 157 206 207
f 157 207 159
f 159 208 209
f 159 209 161
f 159 161 160
f 159 207 208
f 161 209 210
f 161 210 211
f 161 211 162
f 162 211 212
f 162 212 163
f 163 212 213
f 164 214 165
f 164 193 214
f 165 214 166
f 166 214 215
f 166 215 216
f 166 216 194
f 167 190 168
f 168 190 217
f 168 217 218
f 168 218 219
f 168 219 169
f 169 219 170
f 170 219 220
f 170 220 171
f 171 220 172
f 172 220 221
f 172 221 222
f 172 222 223
f 172 223 224
f 172 224 173
f 173 224 174
f 174 225 175
f 174 224 226
f 174 226 225
f 175 225 191
f 176 227 228
f 176 228 177
f 176 229 230
f 176 230 227
f 177 228 231
f 177 231 232
f 177 232 178
f 178 232 233
f 178 233 234
f 178 234 179
f 179 234 235
f 179 235 180
f 180 235 236
f 180 236 237
f 180 237 238
f 180 238 181
f 181 238 239
f 181 239 240
f 181 240 182
f 182 240 183
f 183 240 241
f 183 241 184
f 184 242 243
f 184 243 185
f 184 241 244
f 184 244 242
f 185 243 245
f 185 245 246
f 185 246 186
f 186 246 187
f 187 246 247
f 187 247 188
f 188 247 248
f 188 248 190
f 188 190 189
f 190 249 217
f 190 248 247
f 190 247 249
f 191 250 192
f 191 225 250
f 192 251 193
f 192 250 252
f 192 252 253
f 192 253 251
f 193 251 214
f 194 216 196
f 196 216 197
f 197 216 254
f 197 254 255
f 202 204 203
f 205 256 257
f 205 257 206
f 206 257 207
f 207 257 208
f 208 257 258
f 208 258 209
f 209 258 210
f 210 259 211
f 210 258 259
f 211 259 212
f 212 260 261
f 212 261 262
f 212 262 263
f 212 263 264
f 212 264 213
f 212 259 260
f 214 251 215
f 215 265 254
f 215 254 216
f 215 251 266
f 215 266 255
f 215 255 265
f 217 267 268
f 217 268 218
f 217 249 267
f 218 268 219
f 219 268 269
f 219 269 221
f 219 221 220
f 221 270 271
f 221 271 222
f 221 269 268
f 221 268 270
f 222 272 223
f 222 271 272
f 223 272 273
f 223 273 224
f 224 274 226
f 224 273 274
f 225 226 250
f 226 274 275
f 226 275 250
f 227 230 276
f 227 276 228
f 228 276 277
f 228 277 278
f 228 278 231
f 229 279 280
f 229 280 281
f 229 281 230
f 230 281 282
f 230 282 283
f 230 283 276
f 231 278 284
f 231 284 285
f 231 285 286
f 231 286 287
f 231 287 232
f 232 287 233
f 233 288 289
f 233 289 290
f 233 290 234
f 233 287 288
f 234 290 235
f 235 290 289
f 235 289 236
f 236 291 292
f 236 292 293
f 236 293 237
f 236 289 291
f 237 293 294
f 237 294 295
f 237 295 239
f 237 239 238
f 239 296 297
f 239 297 240
f 239 295 296
f 240 297 241
f 241 297 298
f 241 298 299
f 241 299 244
f 242 244 300
f 242 300 301
f 242 301 302
f 242 302 245
f 242 245 243
f 244 299 300
f 245 302 303
f 245 303 247
f 245 247 246
f 247 304 249
f 247 303 304
f 249 304 305
f 249 305 306
f 249 306 267
f 250 275 252
f 251 253 307
f 251 307 266
f 252 275 308
f 252 308 309
f 252 309 253
f 253 309 310
f 253 310 307
f 254 265 255
f 255 266 311
f 256 258 257
f 256 312 313
f 256 313 258
f 258 313 259
f 259 313 312
f 259 312 314
f 259 314 260
f 260 315 316
f 260 316 261
f 260 314 315
f 261 316 262
f 262 316 317
f 262 317 318
f 262 318 319
f 262 319 263
f 263 319 320
f 263 320 321
f 263 321 322
f 263 322 264
f 266 307 311
f 267 306 323
f 267 324 325
f 267 325 268
f 268 325 324
f 268 324 326
f 268 326 270
f 270 326 327
f 270 327 272
f 270 272 271
f 272 328 329
f 272 329 273
f 272 327 328
f 273 329 330
f 273 330 331
f 273 331 332
f 273 332 274
f 274 332 275
f 275 332 333
f 275 333 308
f 276 283 334
f 276 334 335
f 276 335 277
f 277 335 336
f 277 336 284
f 277 284 278
f 279 337 280
f 280 338 282
f 280 282 281
f 280 337 339
f 280 339 340
f 280 340 341
f 280 341 338
f 282 342 334
f 282 334 283
f 282 338 342
f 284 343 344
f 284 344 345
f 284 345 346
f 284 346 285
f 284 336 343
f 285 346 345
f 285 345 347
f 285 347 348
f 285 348 286
f 286 348 287
f 287 348 288
f 288 348 349
f 288 349 350
f 288 350 351
f 288 351 289
f 289 351 291
f 291 350 352
f 291 352 292
f 291 351 350
f 292 352 294
f 292 294 293
f 294 352 353
f 294 353 354
f 294 354 298
f 294 298 295
f 295 298 355
f 295 355 296
f 296 355 297
f 297 355 298
f 298 354 353
f 298 353 299
f 299 353 300
f 300 305 356
f 300 356 301
f 300 353 305
f 301 356 303
f 301 303 302
f 303 356 305
f 303 305 304
f 305 323 306
f 307 310 311
f 308 333 357
f 308 357 310
f 308 310 309
f 310 357 311
f 312 358 314
f 314 358 315
f 315 359 316
f 316 359 318
f 316 318 317
f 318 359 360
f 318 360 361
f 318 361 319
f 319 362 320
f 319 361 362
f 320 362 363
f 320 363 321
f 321 363 364
f 321 364 365
f 321 365 366
f 321 366 367
f 321 367 368
f 321 368 369
f 321 369 322
f 324 327 326
f 328 370 329
f 329 370 330
f 330 370 371
f 330 371 331
f 331 371 332
f 332 371 333
f 333 371 357
f 334 342 372
f 334 372 335
f 335 372 373
f 335 373 336
f 336 374 375
f 336 375 343
f 336 373 374
f 338 341 376
f 338 376 377
f 338 377 342
f 340 378 341
f 341 379 380
f 341 380 381
f 341 381 382
f 341 382 383
f 341 383 384
f 341 384 385
f 341 385 376
f 341 378 386
f 341 386 379
f 342 377 387
f 342 387 388
f 342 388 372
f 343 375 344
f 344 375 389
f 344 389 390
f 344 390 345
f 345 349 347
f 347 349 348
f 349 352 350
f 359 361 360
f 361 391 392
f 361 392 362
f 362 392 363
f 363 392 364
f 364 391 365
f 364 392 391
f 365 391 393
f 365 393 366
f 366 393 394
f 366 394 367
f 367 395 368
f 367 394 396
f 367 396 397
f 367 397 398
f 367 398 399
f 367 399 400
f 367 400 395
f 372 388 401
f 372 401 373
f 373 401 402
f 373 402 403
f 373 403 374
f 374 390 389
f 374 389 375
f 374 403 390
f 376 385 404
f 376 404 405
f 376 405 387
f 376 387 377
f 379 406 380
f 380 407 408
f 380 408 409
f 380 409 381
f 380 406 410
f 380 410 411
f 380 411 412
f 380 412 407
f 381 409 413
f 381 413 382
f 387 405 388
f 388 414 401
f 388 405 414
f 391 415 416
f 391 416 393
f 391 417 415
f 393 416 415
f 393 415 394
f 394 417 396
f 394 415 417
f 396 418 397
f 396 417 418
f 397 419 398
f 398 419 399
f 399 419 420
f 399 420 421
f 399 421 422
f 399 422 423
f 399 423 400
f 401 414 402
f 402 414 424
f 402 424 403
f 404 425 405
f 405 425 426
f 405 426 414
f 406 427 410
f 407 412 428
f 410 429 411
f 410 427 430
f 410 430 431
f 410 431 429
f 411 429 432
f 411 432 412
f 412 432 428
f 414 426 424
f 419 433 420
f 420 433 434
f 420 434 421
f 421 434 435
f 421 435 422
f 422 436 437
f 422 437 438
f 422 438 423
f 422 435 439
f 422 439 440
f 422 440 441
f 422 441 442
f 422 442 443
f 422 443 444
f 422 444 436
f 429 431 445
f 429 445 446
f 429 446 432
f 430 447 448
f 430 448 431
f 431 448 449
f 431 449 450
f 431 450 445
f 433 451 434
f 434 451 452
f 434 452 435
f 435 452 451
f 435 451 439
f 436 444 453
f 439 451 440
f 442 454 443
f 443 454 455
f 443 455 456
f 443 456 444
f 444 456 457
f 444 457 458
f 444 458 459
f 444 459 453
f 445 460 446
f 445 450 460
f 447 461 462
f 447 462 448
f 447 453 461
f 448 463 449
f 448 462 464
f 448 464 465
f 448 465 463
f 449 463 460
f 449 460 450
f 453 459 461
f 455 466 467
f 455 467 468
f 455 468 469
f 455 469 456
f 456 469 470
f 456 470 457
f 457 470 471
f 457 471 472
f 457 472 458
f 458 472 459
f 459 472 461
f 461 473 474
f 461 474 475
f 461 475 462
f 461 472 476
f 461 476 473
f 462 475 477
f 462 477 478
f 462 478 464
f 463 465 479
f 464 478 465
f 465 478 477
f 465 477 479
f 466 471 468
f 466 468 467
f 466 480 481
f 466 481 471
f 468 471 470
f 468 470 469
f 471 476 472
f 471 481 473
f 471 473 476
f 473 481 474
f 474 481 482
f 474 482 480
f 474 480 483
f 474 483 484
f 474 484 475
f 475 485 477
f 475 484 485
f 480 482 481
f 483 485 484

