# https://github.com/mikedh/trimesh
v -0.02501656 0.06831533 -0.43307364
v -0.01500323 0.06831533 -0.43290919
v -0.03501408 0.06831533 -0.43290919
v -0.03501408 0.09095372 -0.42855152
v -0.02501656 0.09505516 -0.42764708
v -0.01500323 0.09067224 -0.42830485
v -0.00548028 0.07949379 -0.43019593
v -0.00480007 0.06883806 -0.43233365
v -0.00480007 0.06831533 0.36372212
v -0.04499578 0.06831533 -0.43266252
v -0.04499578 0.08379629 -0.42970261
v -0.04499578 0.09505516 -0.42740044
v -0.03501408 0.10506752 -0.42542714
v -0.02501656 0.10506752 -0.42534494
v -0.01500323 0.10506752 -0.42501605
v -0.00480007 0.10486647 -0.42468718
v -0.00480007 0.09292401 -0.42740044
v -0.00480007 0.11455715 0.39027923
v -0.08560278 0.06831533 0.37876838
v -0.05700229 0.06831533 -0.43200475
v -0.05633790 0.08110219 -0.42970261
v -0.05499329 0.09505516 -0.42690712
v -0.08560278 0.10615321 -0.42304277
v -0.04499578 0.10506752 -0.42509827
v -0.04499578 0.11801523 -0.42123392
v -0.03501408 0.11821629 -0.42148057
v -0.02501656 0.11503968 -0.42254946
v -0.00480007 0.11918133 -0.42057616
v -0.00480007 0.12517266 0.39587018
v -0.00480007 0.13506439 0.39998120
v -0.06779075 0.13353640 0.40055674
v -0.06779075 0.14612222 0.40376332
v -0.06779075 0.15613458 0.40516108
v -0.08560278 0.25509208 0.39578798
v -0.06779075 0.07052690 -0.43085369
v -0.08560278 0.20507050 -0.38423485
v -0.06779075 0.16506127 -0.40289882
v -0.05499329 0.16884103 -0.40240550
v -0.05740567 0.11797503 -0.42065838
v -0.03501408 0.16506127 -0.40487212
v -0.02501656 0.16043708 -0.40684539
v -0.01500323 0.15114850 -0.41038087
v -0.02501656 0.12645939 -0.41876730
v -0.00485543 0.14925863 -0.41095641
v -0.00480007 0.13482313 -0.41572517
v -0.01500323 0.12119184 -0.42032951
v -0.00480007 0.14503655 0.40302336
v -0.05499329 0.14503655 0.40351668
v -0.00480007 0.15524995 0.40516108
v -0.04499578 0.15504891 0.40516108
v -0.03501408 0.16506127 0.40647659
v -0.04499578 0.16506127 0.40639436
v -0.06779075 0.16614693 0.40573663
v -0.06919072 0.18166810 0.40573663
v -0.06919072 0.20281872 0.40425664
v -0.06779075 0.21508285 0.40294114
v -0.06779075 0.22509521 0.40170783
v -0.06773539 0.23888734 0.39957011
v -0.04680704 0.23828419 0.40022787
v -0.04499578 0.25509208 0.39644572
v -0.03501408 0.26506424 0.39365023
v -0.04499578 0.26892442 0.39225250
v -0.05499329 0.26876357 0.39208806
v -0.06779075 0.27013072 0.39118364
v -0.06779075 0.28589317 0.38493490
v -0.06779075 0.29594573 0.38016614
v -0.06779075 0.30571684 0.37457517
v -0.08560278 0.35026982 0.34028935
v -0.01500323 0.21508285 -0.38423485
v -0.02501656 0.19940084 -0.39130577
v -0.03863660 0.19646549 -0.39179909
v -0.05499329 0.18134643 -0.39730784
v -0.06639078 0.17455089 -0.39928114
v -0.08560278 0.31130606 -0.30859229
v -0.06919072 0.26160616 -0.34937349
v -0.06849469 0.24355173 -0.36178872
v -0.05764296 0.24958327 -0.35965100
v -0.03501408 0.25444871 -0.35956877
v -0.03501408 0.24507973 -0.36548865
v -0.03501408 0.23639430 -0.37075073
v -0.01652975 0.23776145 -0.37181959
v -0.01500323 0.22421059 -0.37946606
v -0.03501408 0.18215063 -0.39845893
v -0.04499578 0.16506127 -0.40437877
v -0.02501656 0.18110517 -0.39919892
v -0.01500323 0.16506127 -0.40544763
v -0.00480007 0.16506127 -0.40544763
v -0.00480007 0.16506127 0.40614772
v -0.03501408 0.17503342 0.40688771
v -0.04499578 0.17503342 0.40680549
v -0.05499329 0.18504578 0.40622994
v -0.05499329 0.19505814 0.40548995
v -0.05499329 0.20507050 0.40458554
v -0.05499329 0.21508285 0.40343446
v -0.05499329 0.22509521 0.40211892
v -0.03436551 0.24138038 0.39965233
v -0.04499578 0.22509521 0.40228337
v -0.00480007 0.22971940 0.40146115
v -0.03501408 0.25509208 0.39644572
v -0.00480007 0.26506424 0.39348581
v -0.01500323 0.27322692 0.39101920
v -0.02501656 0.27322692 0.39101920
v -0.03501408 0.27555913 0.39011478
v -0.05499329 0.28122878 0.38756594
v -0.04499578 0.28492811 0.38641489
v -0.04069305 0.30097201 0.37909728
v -0.05499329 0.30077097 0.37843952
v -0.04499578 0.31556836 0.37029973
v -0.05499329 0.31492499 0.36988860
v -0.06919072 0.31387952 0.36914864
v -0.06779075 0.32658598 0.36010441
v -0.05499329 0.32425377 0.36322877
v -0.04422066 0.32899860 0.36076218
v -0.03501408 0.33297941 0.35829556
v -0.04499578 0.34367535 0.34884027
v -0.03501408 0.34661070 0.34719583
v -0.02501656 0.35545695 0.34037158
v -0.03501408 0.35505486 0.33996049
v -0.02501656 0.36595184 0.33083403
v -0.03501408 0.36546931 0.33042294
v -0.03501408 0.37282780 0.32302311
v -0.04499578 0.37938207 0.31430778
v -0.05657518 0.37841702 0.31323892
v -0.06849469 0.38127196 0.30715463
v -0.06779075 0.39084199 0.29482159
v -0.06779075 0.39912531 0.28331077
v -0.06919072 0.41255555 0.26144022
v -0.08560278 0.45437425 0.14485200
v -0.00491080 0.21500243 -0.38472816
v -0.01500323 0.20426628 -0.38957915
v -0.00480007 0.23104633 -0.37642393
v -0.01500323 0.19505814 -0.39369017
v -0.04499578 0.18178874 -0.39788339
v -0.02501656 0.34922436 -0.28417289
v -0.02501656 0.34178546 -0.29173714
v -0.01500323 0.33511055 -0.30012360
v -0.02501656 0.32369083 -0.30875671
v -0.01500323 0.31371868 -0.31895202
v -0.00854914 0.30065033 -0.33070952
v -0.02350586 0.29666951 -0.33128506
v -0.05183743 0.27925846 -0.33942485
v -0.08560278 0.35167718 -0.26674220
v -0.05499329 0.26474255 -0.34970236
v -0.04499578 0.26337540 -0.35225120
v -0.02912947 0.26787895 -0.35142899
v -0.02501656 0.25798723 -0.35858214
v -0.02501656 0.25292072 -0.36178872
v -0.00480007 0.25718302 -0.36129540
v -0.00485543 0.24371257 -0.36927077
v -0.01500323 0.17977822 -0.39985669
v -0.00480007 0.17849150 -0.40026778
v -0.00480007 0.17503342 0.40655881
v -0.00485543 0.19015248 0.40598327
v -0.03501408 0.18504578 0.40647659
v -0.04499578 0.18504578 0.40647659
v -0.04499578 0.19505814 0.40565440
v -0.03501408 0.20507050 0.40474996
v -0.04499578 0.21508285 0.40359887
v -0.00480007 0.24507973 0.39858347
v -0.00480007 0.25509208 0.39628130
v -0.00480007 0.21524370 0.40368110
v -0.00485543 0.29904193 0.38074169
v -0.00485543 0.28508896 0.38674375
v -0.00485543 0.27576017 0.39011478
v -0.00480007 0.33374339 0.35878891
v -0.01500323 0.27813259 0.38937479
v -0.03501408 0.28492811 0.38657930
v -0.02501656 0.29759437 0.38123500
v -0.01500323 0.30535495 0.37753510
v -0.02501656 0.31633234 0.37079304
v -0.03501408 0.31597045 0.37054637
v -0.03501408 0.32493734 0.36446208
v -0.02501656 0.33338150 0.35862446
v -0.02501656 0.34701279 0.34752473
v -0.01500323 0.34226799 0.35188240
v -0.01500323 0.35561779 0.34053603
v -0.01500323 0.36619309 0.33108070
v -0.01500323 0.37363201 0.32376310
v -0.02501656 0.37331033 0.32351643
v -0.02501656 0.38046774 0.31562331
v -0.03501408 0.37994501 0.31504777
v -0.03501408 0.38911295 0.30386582
v -0.04643530 0.38838917 0.30304360
v -0.05595825 0.39116368 0.29753485
v -0.05499329 0.40017080 0.28520185
v -0.04499578 0.40929851 0.27401990
v -0.06779075 0.40547854 0.27360880
v -0.05451873 0.41078630 0.26908669
v -0.04499578 0.41496816 0.26497567
v -0.05499329 0.41943151 0.25395817
v -0.06763256 0.42019552 0.24779165
v -0.06881107 0.43016765 0.22740105
v -0.06779075 0.43623942 0.21416360
v -0.06779075 0.43989855 0.20421496
v -0.06779075 0.44315559 0.19393744
v -0.06779075 0.44621155 0.18374214
v -0.05443173 0.44987071 0.17954890
v -0.00632659 0.46084809 0.16795586
v -0.00491080 0.46414533 0.15496507
v -0.00480007 0.46651775 0.14485200
v -0.00480007 0.46945310 0.13054569
v -0.00491080 0.47230804 0.11484163
v -0.00485543 0.47399688 0.10481077
v -0.00491080 0.47552484 0.09494435
v -0.08560278 0.45586202 0.13490336
v -0.00480007 0.20442712 -0.38974360
v -0.00480007 0.19489729 -0.39377239
v -0.01500323 0.35276288 -0.28285736
v -0.01500323 0.34532395 -0.29033941
v -0.00501362 0.34371555 -0.29362822
v -0.00480007 0.33599517 -0.30102801
v -0.01500323 0.32469609 -0.30966115
v -0.00485543 0.31472394 -0.31969202
v -0.00485543 0.32562092 -0.31048334
v -0.00480007 0.29208556 -0.33761600
v -0.01500323 0.28597358 -0.34065816
v -0.02501656 0.28492811 -0.33991817
v -0.08560278 0.36965117 -0.24454276
v -0.01722578 0.37877890 -0.25309366
v -0.01500323 0.36957076 -0.26452225
v -0.01500323 0.36008114 -0.27504644
v -0.04499578 0.26836148 -0.34871572
v -0.01500323 0.27137724 -0.35093567
v -0.01500323 0.26200825 -0.35718441
v -0.00480007 0.26852232 -0.35389560
v -0.00480007 0.20523134 0.40483218
v -0.00491080 0.31681487 0.37103969
v -0.02501656 0.28492811 0.38666153
v -0.00480007 0.34500229 0.34974468
v -0.01500323 0.32803354 0.36306435
v -0.01500323 0.31661382 0.37095749
v -0.02501656 0.32493734 0.36495540
v -0.00485543 0.35581884 0.34061822
v -0.00480007 0.37403411 0.32384533
v -0.00491080 0.36635393 0.33116290
v -0.00491080 0.38115132 0.31636328
v -0.01500323 0.38086984 0.31603441
v -0.01500323 0.39007801 0.30509913
v -0.02501656 0.38963568 0.30452359
v -0.02712838 0.40194005 0.28791511
v -0.04499578 0.39478260 0.29498604
v -0.04499578 0.40097499 0.28643513
v -0.03501408 0.41002232 0.27508876
v -0.02955658 0.41882837 0.26234463
v -0.04499578 0.42031613 0.25560257
v -0.04499578 0.42598578 0.24499616
v -0.05499329 0.42409590 0.24499616
v -0.05499329 0.42952430 0.23414311
v -0.04499578 0.43044913 0.23603417
v -0.05499329 0.43378657 0.22493444
v -0.03113055 0.43837056 0.22312561
v -0.05523849 0.43997896 0.20997037
v -0.04499578 0.43539500 0.22493444
v -0.02656681 0.45143890 0.18867534
v -0.01500323 0.45425361 0.18497545
v -0.00480007 0.45550013 0.18497545
v -0.00480007 0.47765601 0.07496484
v -0.00491080 0.47673115 0.08499570
v -0.08560278 0.45718896 0.12495472
v -0.00491080 0.36108640 -0.27611530
v -0.00480007 0.35115445 -0.28631061
v -0.01500323 0.40017080 -0.22530325
v -0.02501656 0.39048010 -0.23566298
v -0.01397500 0.39076158 -0.23886956
v -0.08560278 0.40491560 -0.19216850
v -0.00485543 0.37994501 -0.25498474
v -0.00480007 0.38923359 -0.24330945
v -0.00491080 0.37065643 -0.26575556
v -0.00485543 0.39048010 0.30542800
v -0.00480007 0.42554349 0.25478038
v -0.00483171 0.40865517 0.28092638
v -0.01500323 0.39888406 0.29350609
v -0.01500323 0.41106778 0.27656871
v -0.02501656 0.41054505 0.27591094
v -0.01500323 0.41935110 0.26407126
v -0.01500323 0.42481968 0.25494480
v -0.02501656 0.42602599 0.25066936
v -0.03491917 0.42924282 0.24154294
v -0.02501656 0.43382680 0.23496531
v -0.01500323 0.44335663 0.21498580
v -0.03501408 0.44303495 0.20939483
v -0.04499578 0.44074297 0.21194366
v -0.01500323 0.43969750 0.22435890
v -0.01500323 0.45039344 0.19607517
v -0.00489498 0.45071512 0.19804844
v -0.00480007 0.44432169 0.21498580
v -0.00480007 0.47825915 0.06493399
v -0.01500323 0.47648990 0.06493399
v -0.01500323 0.47572589 0.07496484
v -0.08560278 0.46056664 0.09206664
v -0.08560278 0.45863652 0.11163504
v -0.01457612 0.40897685 -0.21165469
v -0.00485543 0.40937895 -0.21412130
v -0.00533791 0.40017080 -0.22826317
v -0.08560278 0.41255555 -0.17819108
v -0.03501408 0.41987383 -0.18476869
v -0.02076129 0.42047697 -0.18920858
v -0.02501656 0.41030377 -0.20557040
v -0.00480007 0.41464648 -0.20499486
v -0.00485543 0.39928615 0.29383495
v -0.00485543 0.43036872 0.24581838
v -0.00485543 0.41975319 0.26464680
v -0.01500323 0.42996660 0.24507838
v -0.01500323 0.43487227 0.23496531
v -0.00491080 0.43567646 0.23496531
v -0.00485543 0.44009960 0.22518110
v -0.00480007 0.47866124 0.05498534
v -0.01500323 0.47693223 0.05498534
v -0.08560278 0.46314007 0.06271404
v -0.02501656 0.47504234 0.05498534
v -0.08560278 0.46193379 0.07718479
v -0.03501408 0.43430930 -0.15492277
v -0.03501408 0.42992640 -0.16478918
v -0.02556231 0.42920262 -0.17070904
v -0.03501408 0.42502075 -0.17490228
v -0.08560278 0.43985832 -0.11463489
v -0.01500323 0.42960471 -0.17424451
v -0.00485543 0.42011508 -0.19521065
v -0.00480007 0.42554349 -0.18517980
v -0.00480007 0.47898293 0.04495448
v -0.01500323 0.47721368 0.04495448
v -0.02501656 0.47528359 0.04495448
v -0.02501656 0.47528359 0.03492362
v -0.02501656 0.47524339 0.02497498
v -0.02501656 0.47496191 0.01494412
v -0.03501408 0.47218740 0.00499547
v -0.04482968 0.46989542 0.00499547
v -0.08560278 0.45763129 -0.04244557
v -0.02277820 0.43917477 -0.15007178
v -0.01500323 0.43414849 -0.16495363
v -0.03547283 0.46012431 -0.08034907
v -0.03501408 0.45622391 -0.09498426
v -0.02501656 0.45529908 -0.10493290
v -0.02547531 0.45011196 -0.12022585
v -0.02501656 0.44476399 -0.13494328
v -0.00491080 0.43036872 -0.17597114
v -0.00480007 0.43583730 -0.16495363
v -0.00480007 0.47910357 0.03459474
v -0.01500323 0.47725388 0.03492362
v -0.01500323 0.47725388 0.02497498
v -0.01500323 0.47693223 0.01494412
v -0.01500323 0.47636926 0.00499547
v -0.01500323 0.47572589 -0.00503539
v -0.02501656 0.47431853 0.00499547
v -0.02501656 0.47363496 -0.00503539
v -0.02501656 0.47275034 -0.01498403
v -0.01500323 0.47480106 -0.01498403
v -0.00491080 0.47568569 -0.02493267
v -0.03018142 0.46945310 -0.03471687
v -0.02346632 0.46856847 -0.05091425
v -0.03501408 0.46555269 -0.05494304
v -0.02501656 0.46571356 -0.06489168
v -0.03501408 0.46362260 -0.06489168
v -0.01500323 0.44275346 -0.14497413
v -0.00485543 0.44013980 -0.15541609
v -0.02484256 0.45984286 -0.08972217
v -0.02501656 0.46350199 -0.07492254
v -0.01057395 0.45923969 -0.10073967
v -0.01500323 0.45393193 -0.11496376
v -0.01051858 0.44906649 -0.13066782
v -0.00480007 0.45545992 -0.11496376
v -0.00480007 0.47902316 0.02464610
v -0.00480007 0.47850043 0.00984646
v -0.00480007 0.47761577 -0.00528205
v -0.00480007 0.47681159 -0.01514847
v -0.00480007 0.47427833 -0.03496353
v -0.01382472 0.46977478 -0.05346307
v -0.01500323 0.46740237 -0.06489168
v -0.01500323 0.46531144 -0.07492254
v -0.00491080 0.44428146 -0.14497413
v -0.01500323 0.46289882 -0.08495340
v -0.00480007 0.46442682 -0.08503562
v -0.00480007 0.47262973 -0.04491217
v -0.00558310 0.46961394 -0.06053401
v -0.00480007 0.46671879 -0.07516920
f 1 2 9
f 1 9 19
f 1 19 20
f 1 20 10
f 1 10 3
f 1 3 4
f 1 4 5
f 1 5 2
f 2 5 6
f 2 6 7
f 2 7 8
f 2 8 9
f 3 10 11
f 3 11 4
f 4 11 12
f 4 12 13
f 4 13 5
f 5 13 14
f 5 14 15
f 5 15 6
f 6 15 16
f 6 16 17
f 6 17 7
f 7 17 8
f 8 17 16
f 8 16 28
f 8 28 45
f 8 45 87
f 8 87 151
f 8 151 207
f 8 207 206
f 8 206 131
f 8 131 148
f 8 148 225
f 8 225 215
f 8 215 211
f 8 211 261
f 8 261 267
f 8 267 299
f 8 299 319
f 8 319 337
f 8 337 361
f 8 361 372
f 8 372 375
f 8 375 373
f 8 373 366
f 8 366 365
f 8 365 364
f 8 364 363
f 8 363 362
f 8 362 338
f 8 338 320
f 8 320 307
f 8 307 287
f 8 287 257
f 8 257 201
f 8 201 200
f 8 200 256
f 8 256 286
f 8 286 270
f 8 270 234
f 8 234 229
f 8 229 165
f 8 165 100
f 8 100 160
f 8 160 159
f 8 159 98
f 8 98 161
f 8 161 226
f 8 226 152
f 8 152 88
f 8 88 49
f 8 49 47
f 8 47 30
f 8 30 29
f 8 29 18
f 8 18 9
f 9 18 19
f 10 20 21
f 10 21 11
f 11 21 12
f 12 21 22
f 12 22 23
f 12 23 24
f 12 24 13
f 13 24 25
f 13 25 26
f 13 26 27
f 13 27 14
f 14 27 15
f 15 27 16
f 16 27 28
f 18 29 19
f 19 29 30
f 19 30 31
f 19 31 32
f 19 32 33
f 19 33 34
f 19 34 68
f 19 68 128
f 19 128 205
f 19 205 259
f 19 259 291
f 19 291 290
f 19 290 311
f 19 311 309
f 19 309 328
f 19 328 316
f 19 316 295
f 19 295 265
f 19 265 218
f 19 218 142
f 19 142 74
f 19 74 36
f 19 36 23
f 19 23 35
f 19 35 20
f 20 35 21
f 21 35 23
f 21 23 22
f 23 36 37
f 23 37 38
f 23 38 39
f 23 39 25
f 23 25 24
f 25 39 40
f 25 40 41
f 25 41 26
f 26 41 42
f 26 42 43
f 26 43 27
f 27 43 44
f 27 44 45
f 27 45 46
f 27 46 28
f 28 46 45
f 30 47 31
f 31 47 48
f 31 48 32
f 32 48 49
f 32 49 50
f 32 50 33
f 33 51 52
f 33 52 53
f 33 53 54
f 33 54 34
f 33 50 51
f 34 54 55
f 34 55 56
f 34 56 57
f 34 57 58
f 34 58 59
f 34 59 60
f 34 60 61
f 34 61 62
f 34 62 63
f 34 63 64
f 34 64 65
f 34 65 66
f 34 66 67
f 34 67 68
f 36 69 70
f 36 70 71
f 36 71 72
f 36 72 73
f 36 73 37
f 36 74 75
f 36 75 76
f 36 76 77
f 36 77 78
f 36 78 79
f 36 79 80
f 36 80 81
f 36 81 82
f 36 82 69
f 37 73 38
f 38 73 83
f 38 83 84
f 38 84 39
f 39 84 40
f 40 84 83
f 40 83 85
f 40 85 86
f 40 86 41
f 41 86 42
f 42 86 87
f 42 87 44
f 42 44 43
f 44 87 45
f 47 49 48
f 49 88 51
f 49 51 50
f 51 89 90
f 51 90 52
f 51 88 152
f 51 152 89
f 52 90 53
f 53 90 54
f 54 90 91
f 54 91 55
f 55 91 92
f 55 92 93
f 55 93 56
f 56 94 57
f 56 93 94
f 57 94 95
f 57 95 58
f 58 95 59
f 59 96 60
f 59 95 97
f 59 97 98
f 59 98 96
f 60 96 99
f 60 99 61
f 61 100 101
f 61 101 102
f 61 102 62
f 61 99 160
f 61 160 100
f 62 102 103
f 62 103 63
f 63 103 104
f 63 104 64
f 64 104 65
f 65 105 106
f 65 106 66
f 65 104 105
f 66 106 107
f 66 107 67
f 67 107 108
f 67 108 109
f 67 109 110
f 67 110 68
f 68 110 111
f 68 111 112
f 68 112 113
f 68 113 114
f 68 114 115
f 68 115 116
f 68 116 117
f 68 117 118
f 68 118 119
f 68 119 120
f 68 120 121
f 68 121 122
f 68 122 123
f 68 123 124
f 68 124 125
f 68 125 126
f 68 126 127
f 68 127 128
f 69 129 130
f 69 130 70
f 69 82 131
f 69 131 129
f 70 130 132
f 70 132 83
f 70 83 71
f 71 83 133
f 71 133 72
f 72 133 73
f 73 133 83
f 74 134 135
f 74 135 136
f 74 136 137
f 74 137 138
f 74 138 139
f 74 139 140
f 74 140 141
f 74 141 75
f 74 142 134
f 75 141 143
f 75 143 77
f 75 77 76
f 77 143 144
f 77 144 78
f 78 144 145
f 78 145 146
f 78 146 147
f 78 147 79
f 79 147 80
f 80 147 148
f 80 148 81
f 81 148 149
f 81 149 131
f 81 131 82
f 83 132 85
f 85 150 86
f 85 132 150
f 86 150 87
f 87 150 151
f 89 152 153
f 89 153 154
f 89 154 155
f 89 155 90
f 90 155 91
f 91 155 92
f 92 155 156
f 92 156 93
f 93 157 158
f 93 158 94
f 93 156 157
f 94 158 97
f 94 97 95
f 96 98 159
f 96 159 160
f 96 160 99
f 97 158 161
f 97 161 98
f 100 162 163
f 100 163 164
f 100 164 101
f 100 165 162
f 101 164 166
f 101 166 102
f 102 166 103
f 103 166 167
f 103 167 105
f 103 105 104
f 105 167 168
f 105 168 106
f 106 169 170
f 106 170 171
f 106 171 108
f 106 108 107
f 106 168 169
f 108 171 172
f 108 172 112
f 108 112 109
f 109 112 110
f 110 112 111
f 112 172 113
f 113 172 173
f 113 173 114
f 114 173 174
f 114 174 116
f 114 116 115
f 116 174 117
f 117 174 175
f 117 175 176
f 117 176 177
f 117 177 119
f 117 119 118
f 119 177 178
f 119 178 179
f 119 179 120
f 120 179 121
f 121 179 180
f 121 180 181
f 121 181 122
f 122 181 182
f 122 182 183
f 122 183 123
f 123 183 124
f 124 183 184
f 124 184 125
f 125 184 126
f 126 184 185
f 126 185 186
f 126 186 187
f 126 187 127
f 127 187 188
f 127 188 189
f 127 189 190
f 127 190 191
f 127 191 192
f 127 192 128
f 128 192 193
f 128 193 194
f 128 194 195
f 128 195 196
f 128 196 197
f 128 197 198
f 128 198 199
f 128 199 200
f 128 200 201
f 128 201 202
f 128 202 203
f 128 203 204
f 128 204 205
f 129 206 130
f 129 131 206
f 130 206 132
f 131 149 148
f 132 206 207
f 132 207 150
f 134 208 135
f 134 142 208
f 135 208 209
f 135 209 136
f 136 209 210
f 136 210 211
f 136 211 212
f 136 212 137
f 137 212 138
f 138 213 139
f 138 212 214
f 138 214 213
f 139 213 215
f 139 215 216
f 139 216 217
f 139 217 140
f 140 217 141
f 141 217 143
f 142 218 219
f 142 219 220
f 142 220 221
f 142 221 208
f 143 217 222
f 143 222 144
f 144 222 145
f 145 223 146
f 145 222 217
f 145 217 216
f 145 216 223
f 146 224 147
f 146 223 224
f 147 224 148
f 148 224 225
f 150 207 151
f 152 226 153
f 153 226 154
f 154 226 155
f 155 226 156
f 156 226 157
f 157 226 158
f 158 226 161
f 162 169 168
f 162 168 163
f 162 165 227
f 162 227 169
f 163 168 228
f 163 228 166
f 163 166 164
f 165 229 175
f 165 175 230
f 165 230 227
f 166 228 167
f 167 228 168
f 169 227 231
f 169 231 170
f 170 231 232
f 170 232 171
f 171 232 172
f 172 232 173
f 173 175 174
f 173 232 230
f 173 230 175
f 175 229 233
f 175 233 176
f 176 233 177
f 177 234 178
f 177 233 235
f 177 235 234
f 178 234 236
f 178 236 179
f 179 236 237
f 179 237 180
f 180 237 238
f 180 238 239
f 180 239 181
f 181 239 182
f 182 239 240
f 182 240 241
f 182 241 183
f 183 241 184
f 184 241 242
f 184 242 185
f 185 242 186
f 186 243 244
f 186 244 189
f 186 189 188
f 186 188 187
f 186 242 243
f 189 244 245
f 189 245 190
f 190 245 246
f 190 246 247
f 190 247 191
f 191 247 192
f 192 247 248
f 192 248 249
f 192 249 250
f 192 250 193
f 193 251 252
f 193 252 194
f 193 250 253
f 193 253 251
f 194 252 254
f 194 254 197
f 194 197 195
f 195 197 196
f 197 254 198
f 198 254 255
f 198 255 256
f 198 256 199
f 199 256 200
f 201 203 202
f 201 257 203
f 203 257 204
f 204 257 258
f 204 258 259
f 204 259 205
f 208 260 261
f 208 261 209
f 208 221 260
f 209 261 210
f 210 261 211
f 211 214 212
f 211 215 213
f 211 213 214
f 215 225 223
f 215 223 216
f 218 262 263
f 218 263 264
f 218 264 219
f 218 265 262
f 219 266 220
f 219 264 267
f 219 267 266
f 220 268 221
f 220 266 268
f 221 268 260
f 223 225 224
f 227 230 231
f 229 234 233
f 230 232 231
f 233 234 235
f 234 269 236
f 234 270 271
f 234 271 269
f 236 269 237
f 237 269 238
f 238 269 300
f 238 300 272
f 238 272 239
f 239 272 240
f 240 242 241
f 240 272 273
f 240 273 274
f 240 274 243
f 240 243 242
f 243 274 275
f 243 275 244
f 244 275 276
f 244 276 277
f 244 277 245
f 245 277 246
f 246 278 249
f 246 249 248
f 246 248 247
f 246 277 278
f 249 278 279
f 249 279 251
f 249 251 253
f 249 253 250
f 251 280 281
f 251 281 282
f 251 282 252
f 251 279 283
f 251 283 280
f 252 282 254
f 254 284 255
f 254 282 281
f 254 281 284
f 255 284 256
f 256 284 285
f 256 285 286
f 257 287 288
f 257 288 289
f 257 289 258
f 258 289 290
f 258 290 291
f 258 291 259
f 260 268 261
f 261 268 266
f 261 266 267
f 262 292 293
f 262 293 294
f 262 294 264
f 262 264 263
f 262 265 292
f 264 294 267
f 265 295 296
f 265 296 297
f 265 297 298
f 265 298 292
f 267 294 293
f 267 293 299
f 269 271 300
f 270 286 301
f 270 301 276
f 270 276 302
f 270 302 271
f 271 302 273
f 271 273 272
f 271 272 300
f 273 302 275
f 273 275 274
f 275 302 276
f 276 301 303
f 276 303 277
f 277 303 279
f 277 279 278
f 279 304 283
f 279 303 304
f 280 283 286
f 280 286 285
f 280 285 284
f 280 284 281
f 283 304 305
f 283 305 306
f 283 306 286
f 286 306 301
f 287 307 308
f 287 308 288
f 288 309 289
f 288 308 310
f 288 310 309
f 289 309 311
f 289 311 290
f 292 298 297
f 292 297 299
f 292 299 293
f 295 312 313
f 295 313 314
f 295 314 315
f 295 315 296
f 295 316 312
f 296 315 317
f 296 317 297
f 297 317 318
f 297 318 299
f 299 318 319
f 301 305 303
f 301 306 305
f 303 305 304
f 307 320 308
f 308 320 321
f 308 321 310
f 309 310 322
f 309 322 323
f 309 323 324
f 309 324 325
f 309 325 326
f 309 326 327
f 309 327 328
f 310 321 322
f 312 329 313
f 312 316 329
f 313 329 330
f 313 330 314
f 314 330 317
f 314 317 315
f 316 328 331
f 316 331 332
f 316 332 333
f 316 333 334
f 316 334 335
f 316 335 329
f 317 336 319
f 317 319 318
f 317 330 337
f 317 337 336
f 319 336 337
f 320 338 321
f 321 338 339
f 321 339 322
f 322 339 340
f 322 340 323
f 323 340 324
f 324 340 325
f 325 340 341
f 325 341 342
f 325 342 343
f 325 343 344
f 325 344 326
f 326 344 345
f 326 345 328
f 326 328 327
f 328 346 347
f 328 347 348
f 328 348 349
f 328 349 350
f 328 350 351
f 328 351 352
f 328 352 353
f 328 353 331
f 328 345 346
f 329 354 355
f 329 355 330
f 329 335 354
f 330 355 337
f 331 356 332
f 331 353 352
f 331 352 357
f 331 357 356
f 332 356 333
f 333 356 358
f 333 358 359
f 333 359 334
f 334 359 360
f 334 360 335
f 335 360 354
f 337 355 361
f 338 362 340
f 338 340 339
f 340 362 341
f 341 362 363
f 341 363 342
f 342 363 364
f 342 364 343
f 343 345 344
f 343 364 365
f 343 365 347
f 343 347 346
f 343 346 345
f 347 365 348
f 348 365 366
f 348 366 350
f 348 350 349
f 350 367 352
f 350 352 351
f 350 366 367
f 352 368 369
f 352 369 357
f 352 367 368
f 354 370 355
f 354 360 370
f 355 370 361
f 356 357 371
f 356 371 358
f 357 369 371
f 358 371 372
f 358 372 361
f 358 361 359
f 359 361 360
f 360 361 370
f 366 373 367
f 367 374 368
f 367 373 374
f 368 374 375
f 368 375 369
f 369 375 372
f 369 372 371
f 373 375 374

