# https://github.com/mikedh/trimesh
v -0.19565515 -0.06824815 0.44083434
v -0.25526029 -0.07119061 0.43065351
v -0.23304945 -0.10765927 0.43184125
v -0.18575130 -0.13039646 0.43616813
v -0.14380561 -0.11318752 0.43803465
v -0.15319969 -0.07047729 0.44032532
v -0.17308021 -0.04274685 0.44024050
v -0.22034195 -0.01073647 0.43837398
v -0.26461795 -0.01635389 0.43277448
v -0.29429308 -0.11996410 0.40766168
v -0.26702109 -0.17087755 0.40800101
v -0.30244920 -0.04649180 0.41724867
v -0.21305969 -0.19468471 0.41690928
v -0.17628439 -0.18933479 0.42242396
v -0.13958190 -0.16392265 0.42734468
v -0.13233608 0.23669755 0.39349324
v -0.14493436 0.08511635 0.42378139
v -0.15487461 0.03776952 0.43175644
v -0.17941575 0.00495665 0.43718624
v -0.21779317 0.04517025 0.43421680
v -0.25817317 0.04374360 0.43175644
v -0.29855320 0.03509456 0.42259359
v -0.32913861 -0.01983134 0.40893424
v -0.33354434 -0.09678109 0.39086318
v -0.33565620 -0.14270128 0.37728870
v -0.30390564 -0.17792161 0.38645148
v -0.28122145 -0.22464429 0.38017327
v -0.24397281 -0.21037783 0.40316510
v -0.21451615 -0.24006991 0.39552945
v -0.16616207 -0.22330680 0.40774649
v -0.14573540 -0.25487137 0.39128739
v -0.13513973 -0.29695743 0.36396867
v -0.13233608 0.40397185 0.25121537
v -0.13615926 0.28556019 0.37423444
v -0.22121581 0.16081779 0.41410953
v -0.19649261 0.11070683 0.42539334
v -0.13233608 -0.38300204 0.28328514
v -0.18160042 0.06309249 0.43184125
v -0.25955680 0.08128224 0.42641145
v -0.32025427 0.07842895 0.40867972
v -0.34024402 0.02180891 0.40604967
v -0.35535467 -0.04907759 0.38840282
v -0.37250435 -0.00030411 0.38466984
v -0.36635086 -0.12388737 0.36057508
v -0.35757574 -0.16891591 0.35183644
v -0.33700341 -0.19557637 0.35684204
v -0.32342204 -0.24212071 0.34174043
v -0.29006940 -0.27850020 0.33826196
v -0.26101324 -0.26619536 0.36405355
v -0.22624055 -0.26708704 0.37550700
v -0.19208685 -0.26343125 0.38509405
v -0.17916088 -0.29178584 0.36642909
v -0.13462998 -0.34341264 0.32553583
v -0.13233608 0.44222385 -0.01374218
v -0.13335559 0.44596881 0.09095126
v -0.14926729 0.43669558 0.14007403
v -0.15436485 0.42064577 0.20260164
v -0.21003757 0.40539849 0.20107451
v -0.18294764 0.38774377 0.25460899
v -0.14890318 0.37481475 0.28981787
v -0.14213069 0.34235859 0.32926881
v -0.18028963 0.32149386 0.33478349
v -0.28235021 0.21547619 0.37601608
v -0.25063604 0.17998835 0.40274090
v -0.25475052 0.12657827 0.41835159
v -0.18214659 -0.36258316 0.29719901
v -0.17173299 -0.39031363 0.26232952
v -0.13233608 -0.40573925 0.25172442
v -0.35764858 0.05087683 0.39400232
v -0.31512028 0.11891004 0.40172279
v -0.35699317 0.09528121 0.38500917
v -0.39948505 -0.04791844 0.35497558
v -0.39322230 0.04329778 0.36795622
v -0.40753192 0.00049838 0.35624820
v -0.38732371 -0.14252295 0.33427441
v -0.39751884 -0.09927772 0.34055263
v -0.38586724 -0.17569248 0.31976664
v -0.35619211 -0.22375263 0.32358450
v -0.33336231 -0.28099686 0.29881102
v -0.27459463 -0.32121044 0.30228949
v -0.24160609 -0.30105907 0.34258884
v -0.18400356 -0.32745200 0.33461380
v -0.13233608 0.42804652 -0.08594163
v -0.21003757 0.41574168 -0.04496356
v -0.20177223 0.42492574 -0.00101607
v -0.14726466 0.44266963 0.03622900
v -0.21032886 0.42653072 0.05608173
v -0.19001141 0.43125647 0.10384705
v -0.21229507 0.42055666 0.13922563
v -0.18986577 0.42109162 0.16959861
v -0.24149685 0.38444465 0.21923043
v -0.22562157 0.40985680 0.17002282
v -0.22147068 0.37534976 0.25062150
v -0.17781366 0.35805166 0.29838681
v -0.30019170 0.27468204 0.32349968
v -0.30521643 0.24391995 0.34733993
v -0.22500257 0.33834612 0.29711419
v -0.32928425 0.19826727 0.36261123
v -0.28788471 0.16162027 0.39926243
v -0.21793881 -0.37167805 0.26979548
v -0.22809753 -0.33556604 0.31213099
v -0.20512205 -0.39931935 0.23238073
v -0.16874728 -0.42027318 0.21184929
v -0.13233608 -0.42615813 0.21727909
v -0.38805193 0.08092558 0.36541098
v -0.34606981 0.16483024 0.36897427
v -0.37119353 0.13380067 0.36193252
v -0.43261921 -0.01296560 0.32579035
v -0.42369848 -0.05942078 0.32545102
v -0.42661136 0.04936102 0.33257765
v -0.42016661 -0.12834564 0.29872620
v -0.41969326 -0.16873758 0.27361333
v -0.39489722 -0.21233946 0.28073996
v -0.36405694 -0.25861633 0.28489715
v -0.35673830 -0.29232085 0.25469384
v -0.30441540 -0.32789785 0.26733512
v -0.26345280 -0.35241830 0.26767445
v -0.13233608 0.41360176 -0.13082236
v -0.21338740 0.39808697 -0.10621855
v -0.24637595 0.40049440 -0.06023489
v -0.24186096 0.40878677 -0.02680765
v -0.24448258 0.41467172 0.03283537
v -0.26949707 0.40637934 0.07737675
v -0.22977245 0.42002165 0.09867177
v -0.27302894 0.40058357 0.11767609
v -0.26713032 0.39603615 0.15441212
v -0.27648801 0.36687905 0.21660036
v -0.29669622 0.33763278 0.24680366
v -0.25911987 0.34182358 0.27174681
v -0.33467311 0.24828906 0.32562065
v -0.30128404 0.31043732 0.28269130
v -0.37177610 0.17240930 0.34547341
v -0.36427540 0.22278775 0.31968182
v -0.25693521 -0.37863296 0.23009004
v -0.22740571 -0.41153502 0.19216624
v -0.20326510 -0.43293470 0.15695734
v -0.14697337 -0.44488287 0.16679886
v -0.13310070 -0.45888186 0.12887506
v -0.13404740 -0.45807934 -0.04733910
v -0.13251813 0.37303150 -0.21074232
v -0.13233608 0.39648199 -0.16950972
v -0.40301692 0.10972600 0.34250396
v -0.45533982 -0.02571626 0.28871495
v -0.45734245 0.01993643 0.29126018
v -0.44554520 -0.07092312 0.28896952
v -0.43108997 0.09938282 0.31348848
v -0.45260897 0.06558913 0.29159957
v -0.44587290 -0.10471681 0.26920158
v -0.44488978 -0.13966966 0.24442811
v -0.42358926 -0.19949965 0.23730150
v -0.39551622 -0.24729231 0.24527653
v -0.37545365 -0.30186152 0.20938890
v -0.34938323 -0.32326126 0.21812749
v -0.29844397 -0.34992170 0.23848927
v -0.20392048 0.38453382 -0.14914796
v -0.23468795 0.38159132 -0.13192530
v -0.25511464 0.38818961 -0.09272888
v -0.28369743 0.38426632 -0.06269527
v -0.28457129 0.39407450 -0.00296741
v -0.28970528 0.39594698 0.04072556
v -0.30925810 0.38462299 0.07797063
v -0.32145584 0.37347728 0.11139788
v -0.30077428 0.37588477 0.15873900
v -0.30984068 0.35172093 0.20616496
v -0.32658982 0.32621962 0.23407754
v -0.34006196 0.29501176 0.26826835
v -0.36405694 0.25185567 0.29448414
v -0.39376849 0.17793755 0.31951213
v -0.39289463 0.22448190 0.28540617
v -0.25992092 -0.39503938 0.19547503
v -0.25278431 -0.41278332 0.15873900
v -0.22820675 -0.43204302 0.12929927
v -0.17482795 -0.44916278 0.12870538
v -0.14041936 -0.46494508 0.08060069
v -0.14391483 -0.46467757 0.02197576
v -0.17541052 -0.45094609 -0.02782574
v -0.16856521 -0.44265372 -0.07083998
v -0.14296815 -0.44087040 -0.09960098
v -0.13892651 -0.41697407 -0.15831076
v -0.14183940 0.00370833 -0.42589837
v -0.14264044 0.10508940 -0.41096640
v -0.13972755 0.28119111 -0.31645387
v -0.14285891 0.31436062 -0.28277206
v -0.14642721 0.33950526 -0.25197488
v -0.19521821 0.34637100 -0.22126256
v -0.18811803 0.37356645 -0.18121774
v -0.42642933 0.13549481 0.30339241
v -0.47798759 -0.04256852 0.23229590
v -0.46189383 -0.07199311 0.25579679
v -0.47674960 -0.00404906 0.24909435
v -0.47310847 0.03518372 0.25868136
v -0.45646858 0.11998002 0.26063269
v -0.47263515 0.08110391 0.24620977
v -0.45042431 -0.15857272 0.21193412
v -0.47008634 -0.09303614 0.21940011
v -0.43928248 -0.19718134 0.19912317
v -0.42118612 -0.22812174 0.21100087
v -0.40217948 -0.26245040 0.21201897
v -0.36988273 -0.32736284 0.16722307
v -0.40713137 -0.27618188 0.17799784
v -0.33642083 -0.36383152 0.14533415
v -0.30903962 -0.36071074 0.20480751
v -0.24328101 0.34877849 -0.19021086
v -0.27233714 0.36224246 -0.13964580
v -0.28256869 0.37133735 -0.10486110
v -0.31107864 0.36331242 -0.07669399
v -0.31060529 0.37481475 -0.03410395
v -0.32080042 0.37704390 0.03843486
v -0.35437155 0.35270178 0.07567994
v -0.36412975 0.33986193 0.12403914
v -0.32968476 0.35475254 0.16450816
v -0.34104505 0.33299619 0.19997159
v -0.36496723 0.30571157 0.21736392
v -0.37377873 0.27557367 0.25401512
v -0.41754499 0.19220401 0.27861893
v -0.40287128 0.26032639 0.22593284
v -0.41794550 0.22412524 0.24561588
v -0.29487565 -0.38469619 0.16968344
v -0.28373384 -0.40689838 0.11631864
v -0.24633953 -0.43115139 0.09519330
v -0.20297380 -0.44720113 0.09790820
v -0.17996192 -0.45611769 0.07432248
v -0.18349381 -0.45540440 0.02647232
v -0.22059682 -0.43953294 -0.00576715
v -0.21684647 -0.42963558 -0.05718062
v -0.20093477 -0.42276984 -0.09535895
v -0.17530128 -0.41938156 -0.12717421
v -0.17537411 -0.40475845 -0.15856528
v -0.15126990 -0.38808447 -0.20420958
v -0.14446101 -0.34849507 -0.26113772
v -0.14613593 -0.19352557 -0.37227905
v -0.17653927 -0.00627820 -0.41665071
v -0.14715543 0.05346263 -0.41928077
v -0.14726466 -0.04809678 -0.42233509
v -0.17391767 0.09073377 -0.40485787
v -0.15749621 0.13469233 -0.39857966
v -0.14730108 0.20299302 -0.37168515
v -0.14806572 0.25435233 -0.33673078
v -0.18305688 0.26558715 -0.31602967
v -0.17377202 0.29438758 -0.29252875
v -0.21218583 0.29545754 -0.27606964
v -0.19882292 0.32256383 -0.25121135
v -0.24142402 0.31462812 -0.23907912
v -0.44379747 0.15778616 0.25995398
v -0.49200588 0.00584830 0.20336521
v -0.49237001 -0.03516779 0.18478510
v -0.48490572 -0.08376294 0.17731911
v -0.48974842 0.05729675 0.20421362
v -0.47867939 0.10687272 0.21422482
v -0.46214873 0.15796450 0.21575196
v -0.47263515 -0.13182309 0.17061670
v -0.46309540 -0.16543846 0.16247198
v -0.44922274 -0.20859452 0.14957620
v -0.42701191 -0.24051574 0.17765847
v -0.40312615 -0.30391234 0.12242717
v -0.36991915 -0.34314513 0.11657316
v -0.43484032 -0.24809480 0.13540779
v -0.34235588 -0.36989474 0.09790820
v -0.31424642 -0.38496369 0.12480271
v -0.27761677 0.31703562 -0.21040295
v -0.30022812 0.32390136 -0.17706056
v -0.30984068 0.33513618 -0.14617853
v -0.30707341 0.35181010 -0.11385422
v -0.34446773 0.33433366 -0.08441450
v -0.36238202 0.33469033 -0.03384943
v -0.34268355 0.35805166 0.00628023
v -0.37265000 0.33540368 0.01671564
v -0.38437438 0.32818127 0.06117217
v -0.39158380 0.31881893 0.10350769
v -0.39285821 0.31052649 0.13752882
v -0.36132610 0.32996458 0.16968344
v -0.39588034 0.29536837 0.17384064
v -0.43760756 0.19095570 0.24341002
v -0.42628369 0.25346065 0.17791300
v -0.43524083 0.21708116 0.21617615
v -0.27612388 -0.41857904 0.06371740
v -0.31435564 -0.39352357 0.07966745
v -0.21899474 -0.44541788 0.04640989
v -0.25959322 -0.42669314 0.02307869
v -0.25500542 -0.42214566 -0.01985071
v -0.26388973 -0.40984088 -0.05192050
v -0.24175173 -0.40440178 -0.09790417
v -0.22099733 -0.39191860 -0.14558464
v -0.19503616 -0.38567704 -0.17977546
v -0.18349381 -0.36739814 -0.21685085
v -0.18403998 -0.33324778 -0.25935602
v -0.15003192 -0.30355567 -0.30253994
v -0.15032321 -0.25433636 -0.33740950
v -0.19561875 -0.20645455 -0.35106885
v -0.18928319 -0.16490346 -0.37482429
v -0.17886959 -0.13547888 -0.39043492
v -0.15505667 -0.11354419 -0.40511239
v -0.21498950 0.01494317 -0.40282172
v -0.18993859 0.05025268 -0.40689403
v -0.20373844 -0.07252809 -0.40146422
v -0.23687263 -0.01430308 -0.39476180
v -0.24222508 0.09635119 -0.37567264
v -0.20275533 0.13504899 -0.38229024
v -0.18997501 0.17695673 -0.37202454
v -0.18425845 0.22127193 -0.34903270
v -0.21568131 0.25230151 -0.31339955
v -0.24790522 0.28235024 -0.27106404
v -0.28449848 0.28752184 -0.23984268
v -0.50074458 -0.00288991 0.15551504
v -0.50118148 0.03910700 0.15076397
v -0.49499160 -0.06280906 0.14457059
v -0.48199281 -0.12379821 0.13252321
v -0.48719960 0.10972600 0.17384064
v -0.49684858 0.07486233 0.15144269
v -0.47751424 0.15413038 0.15924804
v -0.45410183 0.19764310 0.18766968
v -0.46684575 -0.17524666 0.12709340
v -0.45293668 -0.22250432 0.10333801
v -0.39679062 -0.32058626 0.09018770
v -0.42894170 -0.27716273 0.07126822
v -0.36773446 -0.35241830 0.06685650
v -0.32589799 0.28315276 -0.20217341
v -0.34519595 0.28734350 -0.17103687
v -0.33703983 0.31694645 -0.13523409
v -0.37599981 0.29010761 -0.11215740
v -0.37774754 0.30749488 -0.07245196
v -0.40039533 0.29519004 -0.04004280
v -0.40392721 0.30312580 0.01060711
v -0.42398977 0.28101277 0.07814032
v -0.42067635 0.27691114 0.13337162
v -0.44834888 0.22769184 0.14457059
v -0.32571596 -0.38621199 0.04276174
v -0.29057914 -0.40850335 0.01578239
v -0.30008247 -0.39459360 -0.03206777
v -0.31293562 -0.37604713 -0.06982189
v -0.27160892 -0.39548522 -0.08288736
v -0.25937474 -0.37988126 -0.13268887
v -0.23872960 -0.36249399 -0.18401749
v -0.22620414 -0.34403676 -0.22024448
v -0.22846164 -0.31514716 -0.25367171
v -0.20479436 -0.29178584 -0.28888059
v -0.19554591 -0.25103724 -0.32442886
v -0.24499232 -0.18594651 -0.34326351
v -0.22372818 -0.14145297 -0.37270325
v -0.23414180 -0.10641095 -0.38050860
v -0.27758035 -0.00066077 -0.37380618
v -0.27412128 0.04204946 -0.37126094
v -0.24983501 -0.05380336 -0.38559902
v -0.24652159 0.15564619 -0.35429281
v -0.27433974 0.08743465 -0.36167395
v -0.22114298 0.18194999 -0.35565025
v -0.22303638 0.21618950 -0.33622175
v -0.26203275 0.23223928 -0.30381256
v -0.29127097 0.25230151 -0.26707655
v -0.32957554 0.25007236 -0.23288575
v -0.50431287 0.02020393 0.11054946
v -0.50369388 -0.01992050 0.10927686
v -0.50121796 0.06086336 0.09935050
v -0.50067174 -0.05050424 0.08136426
v -0.49273413 -0.09687026 0.08433369
v -0.48133743 -0.14457375 0.08925445
v -0.47037762 -0.18086408 0.08950897
v -0.49338952 0.10687272 0.10842845
v -0.46244001 0.19630562 0.15000039
v -0.47613060 0.17009099 0.10554387
v -0.45406544 -0.22847840 0.06965625
v -0.41069970 -0.30649811 0.05175485
v -0.38666829 -0.33378273 0.01858213
v -0.43771678 -0.26218295 0.01637628
v -0.35917783 -0.35794657 0.00789220
v -0.35997888 0.25622475 -0.18970183
v -0.37279564 0.27191788 -0.14804503
v -0.40115994 0.25542229 -0.11826594
v -0.41805476 0.25560063 -0.07474265
v -0.42522776 0.26799464 -0.01840842
v -0.43935531 0.25123149 0.02180608
v -0.44474417 0.24498995 0.08501241
v -0.45978200 0.21262290 0.09985954
v -0.32090968 -0.38683617 0.00280176
v -0.33638442 -0.37016225 -0.02960739
v -0.33744034 -0.35188335 -0.08967461
v -0.29665983 -0.36481231 -0.12242313
v -0.28406155 -0.34715760 -0.16840680
v -0.27058941 -0.31657386 -0.22236550
v -0.26370767 -0.29000252 -0.25545335
v -0.23537976 -0.27529025 -0.28692925
v -0.26250610 -0.22856757 -0.30746073
v -0.27543208 -0.19085060 -0.32502276
v -0.26840472 -0.13663803 -0.35378379
v -0.27561414 -0.08518959 -0.36540693
v -0.31348178 0.01503234 -0.34826910
v -0.29043350 -0.04560014 -0.36320108
v -0.31191611 0.07459483 -0.34114248
v -0.29046991 0.13085821 -0.33791852
v -0.31191611 0.15430871 -0.31407833
v -0.25340331 0.19862393 -0.32977384
v -0.30037376 0.18917239 -0.30398226
v -0.30871192 0.21931030 -0.27844518
v -0.35641059 0.19202568 -0.25053263
v -0.36762524 0.22519521 -0.21065748
v -0.50347543 0.01458651 0.06303867
v -0.50296569 -0.01965301 0.05930568
v -0.49357158 0.08984212 0.03639868
v -0.50045329 0.04249528 0.04352530
v -0.49684858 -0.06013411 0.03012047
v -0.48363131 -0.13833217 0.03758645
v -0.47165203 -0.18336071 0.04055588
v -0.48508775 0.13906142 0.07321955
v -0.45927221 0.21458453 0.05192453
v -0.47172487 0.18168250 0.05862695
v -0.45930862 -0.21483609 0.01289781
v -0.40359950 -0.31113476 -0.01119696
v -0.37221307 -0.33601189 -0.04725426
v -0.42504570 -0.27484441 -0.02748637
v -0.39063710 0.23036681 -0.17018846
v -0.41605213 0.21636784 -0.13370694
v -0.43243718 0.21208790 -0.09417117
v -0.44099379 0.22207442 -0.05175082
v -0.45803425 0.20433050 -0.00169480
v -0.38375539 -0.30667645 -0.09238952
v -0.34308410 -0.32593620 -0.13345243
v -0.31570286 -0.33467442 -0.15474744
v -0.30518004 -0.31051058 -0.20030691
v -0.30492514 -0.28144264 -0.23263122
v -0.28573644 -0.25790298 -0.26902789
v -0.32484210 -0.23677079 -0.25502914
v -0.32349485 -0.19842966 -0.28217822
v -0.28934115 -0.15482777 -0.33393103
v -0.30791086 -0.11336586 -0.33452493
v -0.31872499 -0.07333059 -0.33690047
v -0.33259767 -0.02696457 -0.33130097
v -0.35102174 0.01182238 -0.31407833
v -0.33816859 0.04962852 -0.32408953
v -0.34952888 0.08315472 -0.30737591
v -0.33813217 0.12042585 -0.30678201
v -0.34898269 0.15502204 -0.28014201
v -0.38630420 0.15725116 -0.23280090
v -0.39573467 0.18266331 -0.20217341
v -0.49903327 -0.00788317 0.01518850
v -0.49466389 0.05069850 0.00152915
v -0.48199281 0.12229833 -0.00466422
v -0.49277052 -0.04925593 -0.01077275
v -0.48923862 -0.09669192 0.00984354
v -0.47121510 -0.17034255 -0.00466422
v -0.47296286 0.16714853 0.01722468
v -0.45330077 -0.21269612 -0.02969223
v -0.40323538 -0.30186152 -0.04886623
v -0.41455927 -0.27181280 -0.07525170
v -0.43997431 -0.22250432 -0.06744635
v -0.41281152 0.19309567 -0.16272247
v -0.42599240 0.15948030 -0.15983789
v -0.44281435 0.17285512 -0.10384302
v -0.45224488 0.18721075 -0.05751999
v -0.46535289 0.17009099 -0.02672281
v -0.37512594 -0.29383665 -0.13370694
v -0.34129995 -0.30070239 -0.17341240
v -0.34625188 -0.26726538 -0.20573671
v -0.35105816 -0.23775160 -0.22660753
v -0.34792680 -0.21109115 -0.25010842
v -0.32196561 -0.15732440 -0.30627298
v -0.34756267 -0.09535445 -0.30245513
v -0.35266024 -0.04408433 -0.30864853
v -0.38688678 0.00210335 -0.26911271
v -0.37305051 0.05257098 -0.28582633
v -0.38044199 0.11222263 -0.26147705
v -0.40403643 0.09171459 -0.23254637
v -0.42027584 0.11971253 -0.19224705
v -0.49382645 0.01431901 -0.01620256
v -0.49054945 -0.02081216 -0.03020128
v -0.47642189 0.11195514 -0.04623617
v -0.48574317 0.06246834 -0.03800662
v -0.48232052 -0.07948300 -0.04445452
v -0.47875220 -0.12558152 -0.02154752
v -0.46535289 -0.15892938 -0.04776331
v -0.40760472 -0.24711397 -0.12810746
v -0.45129818 -0.16713260 -0.08942010
v -0.43054378 -0.21091282 -0.10961219
v -0.43990147 0.12987739 -0.14490592
v -0.45490289 0.10901269 -0.11775689
v -0.46415132 0.14423302 -0.06371336
v -0.37672803 -0.26307458 -0.17035814
v -0.38564879 -0.22687343 -0.18868373
v -0.37461621 -0.19361472 -0.22923759
v -0.36522210 -0.16320932 -0.25604725
v -0.36522210 -0.11176088 -0.27691805
v -0.38979965 -0.04140937 -0.26071352
v -0.38462928 -0.08608124 -0.25927120
v -0.41128227 0.03741286 -0.23101924
v -0.39355001 0.05399762 -0.25799859
v -0.41790909 -0.01742387 -0.21854766
v -0.42355284 0.06041753 -0.20497315
v -0.44219536 0.08966379 -0.15848044
v -0.48068202 0.02992296 -0.06863412
v -0.46830219 -0.03195783 -0.10596403
v -0.47645831 -0.05852913 -0.07380941
v -0.47132432 0.01396235 -0.10095843
v -0.47653115 0.07593232 -0.06948253
v -0.46757400 -0.11711080 -0.07457297
v -0.41372180 -0.19798383 -0.16051662
v -0.45220846 -0.13788635 -0.10867894
v -0.43425775 -0.17257169 -0.13226466
v -0.46025532 0.06148752 -0.12378058
v -0.39668137 -0.18425237 -0.20149468
v -0.39598957 -0.13431972 -0.22660753
v -0.40633035 -0.08376294 -0.22686206
v -0.42799500 0.01993643 -0.20107047
v -0.42679343 -0.04943426 -0.19818589
v -0.44066611 -0.00066077 -0.17553341
v -0.43964660 0.04115780 -0.17612730
v -0.45796144 -0.00993398 -0.13676122
v -0.44969606 -0.05398169 -0.14931764
v -0.45861682 -0.09811857 -0.11249677
v -0.45461160 0.02314639 -0.14473625
v -0.42209640 -0.15010200 -0.17315789
v -0.44339693 -0.12049909 -0.14202134
v -0.41761780 -0.11390085 -0.19886462
v -0.43287411 -0.09125283 -0.17638183
f 1 2 3
f 1 3 4
f 1 4 5
f 1 5 6
f 1 6 7
f 1 7 8
f 1 8 9
f 1 9 2
f 2 10 11
f 2 11 3
f 2 9 12
f 2 12 10
f 3 11 13
f 3 13 4
f 4 13 14
f 4 14 15
f 4 15 5
f 5 15 16
f 5 16 17
f 5 17 6
f 6 17 18
f 6 18 19
f 6 19 7
f 7 19 8
f 8 19 20
f 8 20 21
f 8 21 9
f 9 21 22
f 9 22 23
f 9 23 12
f 10 12 23
f 10 23 24
f 10 24 25
f 10 25 26
f 10 26 11
f 11 26 27
f 11 27 28
f 11 28 13
f 13 28 29
f 13 29 30
f 13 30 14
f 14 30 15
f 15 30 31
f 15 31 32
f 15 32 16
f 16 33 34
f 16 34 35
f 16 35 36
f 16 36 17
f 16 32 37
f 16 37 68
f 16 68 104
f 16 104 141
f 16 141 118
f 16 118 83
f 16 83 54
f 16 54 33
f 17 36 38
f 17 38 18
f 18 38 19
f 19 38 20
f 20 38 36
f 20 36 39
f 20 39 21
f 21 39 22
f 22 39 40
f 22 40 41
f 22 41 23
f 23 42 24
f 23 41 43
f 23 43 42
f 24 42 25
f 25 44 45
f 25 45 46
f 25 46 26
f 25 42 44
f 26 46 27
f 27 46 47
f 27 47 48
f 27 48 49
f 27 49 28
f 28 49 50
f 28 50 29
f 29 50 51
f 29 51 30
f 30 51 31
f 31 51 32
f 32 51 52
f 32 52 53
f 32 53 37
f 33 54 55
f 33 55 56
f 33 56 57
f 33 57 58
f 33 58 59
f 33 59 60
f 33 60 61
f 33 61 34
f 34 61 62
f 34 62 63
f 34 63 64
f 34 64 35
f 35 64 65
f 35 65 36
f 36 65 39
f 37 53 66
f 37 66 67
f 37 67 68
f 39 65 40
f 40 69 41
f 40 65 70
f 40 70 71
f 40 71 69
f 41 69 43
f 42 43 72
f 42 72 44
f 43 69 73
f 43 73 74
f 43 74 72
f 44 75 45
f 44 72 76
f 44 76 75
f 45 75 77
f 45 77 78
f 45 78 46
f 46 78 47
f 47 79 48
f 47 78 79
f 48 79 80
f 48 80 81
f 48 81 49
f 49 81 50
f 50 81 52
f 50 52 51
f 52 81 82
f 52 82 53
f 53 82 66
f 54 83 84
f 54 84 85
f 54 85 86
f 54 86 55
f 55 86 87
f 55 87 88
f 55 88 56
f 56 88 89
f 56 89 90
f 56 90 57
f 57 90 58
f 58 91 59
f 58 90 92
f 58 92 91
f 59 91 93
f 59 93 94
f 59 94 60
f 60 94 61
f 61 94 62
f 62 95 96
f 62 96 63
f 62 94 97
f 62 97 95
f 63 98 99
f 63 99 64
f 63 96 98
f 64 99 65
f 65 99 70
f 66 100 67
f 66 82 101
f 66 101 100
f 67 102 103
f 67 103 104
f 67 104 68
f 67 100 102
f 69 71 105
f 69 105 73
f 70 99 106
f 70 106 71
f 71 106 107
f 71 107 105
f 72 108 109
f 72 109 76
f 72 74 108
f 73 105 110
f 73 110 74
f 74 110 108
f 75 76 109
f 75 109 111
f 75 111 77
f 77 111 112
f 77 112 113
f 77 113 78
f 78 113 114
f 78 114 79
f 79 115 116
f 79 116 80
f 79 114 115
f 80 101 81
f 80 116 117
f 80 117 101
f 81 101 82
f 83 118 119
f 83 119 84
f 84 119 120
f 84 120 121
f 84 121 85
f 85 87 86
f 85 121 122
f 85 122 87
f 87 122 123
f 87 123 124
f 87 124 88
f 88 124 89
f 89 124 125
f 89 125 92
f 89 92 90
f 91 92 126
f 91 126 127
f 91 127 128
f 91 128 93
f 92 125 126
f 93 128 129
f 93 129 97
f 93 97 94
f 95 130 96
f 95 97 131
f 95 131 130
f 96 130 98
f 97 129 131
f 98 132 106
f 98 106 99
f 98 130 133
f 98 133 132
f 100 101 117
f 100 117 134
f 100 134 102
f 102 134 135
f 102 135 103
f 103 135 136
f 103 136 137
f 103 137 104
f 104 137 138
f 104 138 139
f 104 139 140
f 104 140 141
f 105 107 142
f 105 142 110
f 106 132 107
f 107 132 142
f 108 143 109
f 108 110 144
f 108 144 143
f 109 143 145
f 109 145 111
f 110 142 146
f 110 146 147
f 110 147 144
f 111 145 148
f 111 148 112
f 112 148 149
f 112 149 150
f 112 150 113
f 113 150 151
f 113 151 114
f 114 151 115
f 115 151 152
f 115 152 153
f 115 153 116
f 116 153 154
f 116 154 117
f 117 154 134
f 118 141 155
f 118 155 119
f 119 155 156
f 119 156 157
f 119 157 120
f 120 157 158
f 120 158 121
f 121 158 159
f 121 159 122
f 122 159 160
f 122 160 123
f 123 160 161
f 123 161 125
f 123 125 124
f 125 161 162
f 125 162 163
f 125 163 126
f 126 163 127
f 127 163 164
f 127 164 165
f 127 165 128
f 128 165 166
f 128 166 131
f 128 131 129
f 130 131 166
f 130 166 167
f 130 167 133
f 132 133 168
f 132 168 142
f 133 167 169
f 133 169 168
f 134 170 135
f 134 154 170
f 135 171 136
f 135 170 171
f 136 172 173
f 136 173 137
f 136 171 172
f 137 173 138
f 138 173 174
f 138 174 139
f 139 174 175
f 139 175 176
f 139 176 177
f 139 177 178
f 139 178 179
f 139 179 180
f 139 180 140
f 140 180 181
f 140 181 182
f 140 182 183
f 140 183 184
f 140 184 185
f 140 185 186
f 140 186 141
f 141 186 155
f 142 168 187
f 142 187 146
f 143 188 189
f 143 189 145
f 143 144 190
f 143 190 188
f 144 147 191
f 144 191 190
f 145 189 148
f 146 187 192
f 146 192 147
f 147 193 191
f 147 192 193
f 148 189 149
f 149 194 150
f 149 189 195
f 149 195 194
f 150 196 197
f 150 197 151
f 150 194 196
f 151 198 152
f 151 197 198
f 152 199 153
f 152 198 200
f 152 200 199
f 153 199 201
f 153 201 202
f 153 202 154
f 154 202 170
f 155 186 203
f 155 203 156
f 156 203 204
f 156 204 157
f 157 204 205
f 157 205 158
f 158 205 206
f 158 206 207
f 158 207 159
f 159 207 208
f 159 208 160
f 160 208 161
f 161 208 209
f 161 209 162
f 162 209 210
f 162 210 211
f 162 211 163
f 163 211 164
f 164 211 212
f 164 212 165
f 165 212 213
f 165 213 166
f 166 213 214
f 166 214 167
f 167 214 169
f 168 215 187
f 168 169 215
f 169 214 216
f 169 216 217
f 169 217 215
f 170 202 218
f 170 218 171
f 171 218 219
f 171 219 220
f 171 220 172
f 172 221 173
f 172 220 221
f 173 221 174
f 174 221 222
f 174 222 175
f 175 222 223
f 175 223 176
f 176 223 224
f 176 224 225
f 176 225 177
f 177 225 226
f 177 226 178
f 178 226 227
f 178 227 179
f 179 227 228
f 179 228 229
f 179 229 230
f 179 230 231
f 179 231 180
f 180 232 233
f 180 233 181
f 180 231 234
f 180 234 232
f 181 233 235
f 181 235 236
f 181 236 237
f 181 237 182
f 182 238 239
f 182 239 240
f 182 240 183
f 182 237 238
f 183 240 241
f 183 241 242
f 183 242 184
f 184 242 185
f 185 203 186
f 185 242 243
f 185 243 203
f 187 244 192
f 187 215 244
f 188 190 245
f 188 245 246
f 188 246 247
f 188 247 195
f 188 195 189
f 190 191 245
f 191 193 248
f 191 248 245
f 192 249 193
f 192 244 250
f 192 250 249
f 193 249 248
f 194 195 251
f 194 251 252
f 194 252 196
f 195 247 251
f 196 253 254
f 196 254 197
f 196 252 253
f 197 254 198
f 198 254 200
f 199 200 255
f 199 255 256
f 199 256 201
f 200 254 257
f 200 257 255
f 201 258 259
f 201 259 218
f 201 218 202
f 201 256 258
f 203 243 260
f 203 260 204
f 204 260 261
f 204 261 262
f 204 262 263
f 204 263 205
f 205 263 206
f 206 263 264
f 206 264 265
f 206 265 207
f 207 265 266
f 207 266 208
f 208 266 267
f 208 267 209
f 209 267 268
f 209 268 269
f 209 269 210
f 210 269 270
f 210 270 271
f 210 271 211
f 211 271 212
f 212 271 213
f 213 271 272
f 213 272 216
f 213 216 214
f 215 273 244
f 215 217 273
f 216 274 275
f 216 275 217
f 216 272 274
f 217 275 273
f 218 259 219
f 219 276 220
f 219 259 277
f 219 277 276
f 220 276 278
f 220 278 221
f 221 278 222
f 222 278 223
f 223 278 224
f 224 278 279
f 224 279 280
f 224 280 225
f 225 280 281
f 225 281 282
f 225 282 226
f 226 282 283
f 226 283 227
f 227 283 228
f 228 283 284
f 228 284 229
f 229 284 285
f 229 285 230
f 230 285 286
f 230 286 287
f 230 287 288
f 230 288 231
f 231 288 289
f 231 289 290
f 231 290 291
f 231 291 292
f 231 292 234
f 232 293 294
f 232 294 233
f 232 234 295
f 232 295 296
f 232 296 293
f 233 294 235
f 234 292 295
f 235 294 297
f 235 297 298
f 235 298 236
f 236 298 299
f 236 299 237
f 237 299 300
f 237 300 238
f 238 300 239
f 239 300 301
f 239 301 241
f 239 241 240
f 241 302 243
f 241 243 242
f 241 301 302
f 243 302 303
f 243 303 260
f 244 273 250
f 245 304 246
f 245 248 305
f 245 305 304
f 246 306 247
f 246 304 306
f 247 307 251
f 247 306 307
f 248 249 308
f 248 308 309
f 248 309 305
f 249 250 310
f 249 310 308
f 250 273 311
f 250 311 310
f 251 312 252
f 251 307 312
f 252 312 253
f 253 312 313
f 253 313 257
f 253 257 254
f 255 314 256
f 255 257 315
f 255 315 314
f 256 314 316
f 256 316 258
f 257 313 315
f 258 316 277
f 258 277 259
f 260 303 317
f 260 317 261
f 261 317 318
f 261 318 262
f 262 264 263
f 262 318 319
f 262 319 264
f 264 319 320
f 264 320 321
f 264 321 265
f 265 267 266
f 265 321 322
f 265 322 323
f 265 323 267
f 267 323 268
f 268 323 324
f 268 324 269
f 269 324 325
f 269 325 270
f 270 325 272
f 270 272 271
f 272 325 274
f 273 275 311
f 274 326 311
f 274 311 275
f 274 325 326
f 276 277 327
f 276 327 328
f 276 328 279
f 276 279 278
f 277 316 327
f 279 328 280
f 280 328 329
f 280 329 281
f 281 329 330
f 281 330 331
f 281 331 282
f 282 331 332
f 282 332 283
f 283 332 333
f 283 333 284
f 284 333 285
f 285 333 334
f 285 334 286
f 286 334 335
f 286 335 336
f 286 336 287
f 287 336 337
f 287 337 288
f 288 337 289
f 289 338 290
f 289 337 338
f 290 339 291
f 290 338 339
f 291 339 340
f 291 340 295
f 291 295 292
f 293 296 341
f 293 341 342
f 293 342 297
f 293 297 294
f 295 340 343
f 295 343 296
f 296 343 341
f 297 344 298
f 297 342 345
f 297 345 344
f 298 344 299
f 299 346 347
f 299 347 300
f 299 344 346
f 300 347 301
f 301 347 348
f 301 348 302
f 302 348 349
f 302 349 303
f 303 349 350
f 303 350 317
f 304 305 351
f 304 351 352
f 304 352 306
f 305 309 353
f 305 353 351
f 306 352 354
f 306 354 355
f 306 355 356
f 306 356 307
f 307 356 357
f 307 357 312
f 308 358 309
f 308 310 358
f 309 358 353
f 310 311 359
f 310 359 360
f 310 360 358
f 311 326 359
f 312 357 313
f 313 357 361
f 313 361 315
f 314 315 362
f 314 362 363
f 314 363 316
f 315 361 364
f 315 364 362
f 316 365 327
f 316 363 365
f 317 350 366
f 317 366 318
f 318 366 367
f 318 367 320
f 318 320 319
f 320 322 321
f 320 367 368
f 320 368 322
f 322 368 369
f 322 369 370
f 322 370 323
f 323 370 324
f 324 370 371
f 324 371 372
f 324 372 325
f 325 372 326
f 326 372 373
f 326 373 359
f 327 374 328
f 327 365 374
f 328 374 329
f 329 374 375
f 329 375 330
f 330 375 376
f 330 376 377
f 330 377 331
f 331 377 332
f 332 377 378
f 332 378 333
f 333 378 334
f 334 378 379
f 334 379 335
f 335 379 380
f 335 380 381
f 335 381 336
f 336 381 337
f 337 381 382
f 337 382 338
f 338 382 383
f 338 383 384
f 338 384 339
f 339 384 340
f 340 385 343
f 340 384 385
f 341 386 342
f 341 343 387
f 341 387 386
f 342 386 388
f 342 388 345
f 343 385 387
f 344 345 389
f 344 389 390
f 344 390 391
f 344 391 346
f 345 388 389
f 346 391 347
f 347 391 348
f 348 391 392
f 348 392 393
f 348 393 349
f 349 393 350
f 350 393 394
f 350 394 395
f 350 395 366
f 351 396 397
f 351 397 352
f 351 353 396
f 352 397 354
f 353 358 398
f 353 398 399
f 353 399 396
f 354 400 401
f 354 401 355
f 354 397 400
f 355 401 356
f 356 401 402
f 356 402 357
f 357 402 361
f 358 360 403
f 358 403 398
f 359 373 360
f 360 373 404
f 360 404 405
f 360 405 403
f 361 402 406
f 361 406 364
f 362 407 363
f 362 364 407
f 363 407 408
f 363 408 365
f 364 409 407
f 364 406 409
f 365 375 374
f 365 408 375
f 366 395 410
f 366 410 367
f 367 410 368
f 368 410 411
f 368 411 369
f 369 411 412
f 369 412 413
f 369 413 370
f 370 413 414
f 370 414 371
f 371 414 404
f 371 404 372
f 372 404 373
f 375 408 376
f 376 408 415
f 376 415 416
f 376 416 377
f 377 416 417
f 377 417 378
f 378 417 418
f 378 418 379
f 379 418 419
f 379 419 380
f 380 419 420
f 380 420 381
f 381 420 382
f 382 420 383
f 383 420 421
f 383 421 422
f 383 422 423
f 383 423 384
f 384 423 385
f 385 423 424
f 385 424 425
f 385 425 387
f 386 387 426
f 386 426 427
f 386 427 428
f 386 428 388
f 387 425 426
f 388 428 429
f 388 429 430
f 388 430 389
f 389 430 390
f 390 431 392
f 390 392 391
f 390 430 431
f 392 431 393
f 393 431 394
f 394 431 432
f 394 432 433
f 394 433 395
f 395 433 410
f 396 399 434
f 396 434 397
f 397 434 400
f 398 435 399
f 398 403 436
f 398 436 435
f 399 435 434
f 400 434 437
f 400 437 438
f 400 438 401
f 401 439 402
f 401 438 439
f 402 439 406
f 403 405 440
f 403 440 436
f 404 414 405
f 405 414 440
f 406 439 441
f 406 441 409
f 407 409 442
f 407 442 408
f 408 442 415
f 409 443 442
f 409 441 444
f 409 444 443
f 410 433 445
f 410 445 411
f 411 445 446
f 411 446 447
f 411 447 412
f 412 447 448
f 412 448 413
f 413 448 449
f 413 449 414
f 414 449 440
f 415 442 443
f 415 443 450
f 415 450 416
f 416 450 451
f 416 451 417
f 417 451 418
f 418 451 452
f 418 452 419
f 419 452 421
f 419 421 420
f 421 452 453
f 421 453 454
f 421 454 422
f 422 454 455
f 422 455 423
f 423 455 424
f 424 456 425
f 424 455 456
f 425 456 457
f 425 457 426
f 426 457 427
f 427 458 459
f 427 459 428
f 427 457 458
f 428 459 429
f 429 459 460
f 429 460 430
f 430 460 431
f 431 460 432
f 432 460 461
f 432 461 462
f 432 462 433
f 433 446 445
f 433 462 446
f 434 435 463
f 434 463 464
f 434 464 437
f 435 436 465
f 435 465 466
f 435 466 463
f 436 440 449
f 436 449 465
f 437 464 467
f 437 467 438
f 438 467 468
f 438 468 439
f 439 468 469
f 439 469 441
f 441 469 444
f 443 444 470
f 443 470 450
f 444 469 471
f 444 471 472
f 444 472 470
f 446 462 473
f 446 473 447
f 447 473 474
f 447 474 475
f 447 475 448
f 448 475 449
f 449 475 465
f 450 470 476
f 450 476 451
f 451 476 452
f 452 476 453
f 453 476 477
f 453 477 478
f 453 478 454
f 454 478 479
f 454 479 455
f 455 479 480
f 455 480 456
f 456 480 457
f 457 481 458
f 457 480 482
f 457 482 481
f 458 483 484
f 458 484 459
f 458 481 485
f 458 485 483
f 459 484 460
f 460 484 461
f 461 484 483
f 461 483 486
f 461 486 462
f 462 486 487
f 462 487 473
f 463 466 488
f 463 488 464
f 464 489 490
f 464 490 467
f 464 488 491
f 464 491 489
f 465 475 474
f 465 474 492
f 465 492 466
f 466 492 488
f 467 493 468
f 467 490 493
f 468 493 469
f 469 493 471
f 470 472 494
f 470 494 477
f 470 477 476
f 471 493 495
f 471 495 496
f 471 496 472
f 472 496 494
f 473 487 474
f 474 487 497
f 474 497 492
f 477 494 498
f 477 498 478
f 478 498 499
f 478 499 479
f 479 499 480
f 480 499 482
f 481 482 500
f 481 500 485
f 482 499 500
f 483 485 501
f 483 501 486
f 485 500 502
f 485 502 503
f 485 503 501
f 486 501 504
f 486 504 487
f 487 504 497
f 488 492 497
f 488 497 491
f 489 491 505
f 489 505 506
f 489 506 507
f 489 507 490
f 490 507 493
f 491 497 508
f 491 508 505
f 493 507 495
f 494 496 509
f 494 509 498
f 495 507 510
f 495 510 496
f 496 510 509
f 497 504 508
f 498 509 511
f 498 511 499
f 499 511 500
f 500 511 502
f 501 503 504
f 502 511 512
f 502 512 506
f 502 506 503
f 503 508 504
f 503 506 505
f 503 505 508
f 506 512 510
f 506 510 507
f 509 510 511
f 510 512 511

