# https://github.com/mikedh/trimesh
v -0.03028093 -0.00907786 -0.43982345
v -0.03028093 -0.00498952 -0.44013891
v 0.01203336 -0.00907786 -0.43761545
v -0.03028093 -0.00907786 0.35143560
v -0.03028093 0.00572346 -0.44045433
v -0.00992732 0.01009950 -0.43998116
v 0.00499617 0.00501178 -0.43895602
v 0.01203336 -0.00498952 -0.43793088
v 0.01203336 -0.00907786 0.35064700
v 0.00539379 -0.00907786 0.35096246
v 0.01203336 0.06826755 0.36515686
v -0.03028093 0.06822212 0.36373740
v -0.03028093 0.01425598 -0.44013891
v -0.03028093 0.01832918 -0.43990231
v -0.01499709 0.03499297 -0.43848288
v -0.00499839 0.02500681 -0.43887717
v -0.00595933 0.01405914 -0.43958688
v 0.00499617 0.01500551 -0.43887717
v 0.01203336 0.00797204 -0.43832517
v 0.01203336 0.00501178 -0.43832517
v 0.01203336 -0.00202169 -0.43808860
v -0.03028093 0.06826755 0.36350083
v 0.01203336 0.06826755 -0.43114910
v -0.03028093 0.02407558 -0.43950802
v -0.03028093 0.03499297 -0.43848288
v -0.03028093 0.04527440 -0.43714228
v -0.01499709 0.05498800 -0.43548629
v -0.00499839 0.04499427 -0.43666914
v -0.00499839 0.03499297 -0.43793088
v 0.00499617 0.02500681 -0.43824631
v 0.01203336 0.01500551 -0.43824631
v -0.03028093 0.06826755 -0.43288398
v 0.01203336 0.06757858 -0.43130681
v 0.01125053 0.06826755 -0.43122795
v -0.03028093 0.05498800 -0.43548629
v -0.03028093 0.06526943 -0.43351483
v -0.01499709 0.06826755 -0.43288398
v -0.00484928 0.06826755 -0.43248969
v -0.00499839 0.06498930 -0.43312055
v -0.00499839 0.05498800 -0.43501315
v 0.00499617 0.04499427 -0.43595943
v 0.00499617 0.03499297 -0.43722114
v 0.01203336 0.02796708 -0.43730003
v 0.01203336 0.02500681 -0.43753660
v 0.01203336 0.06595840 -0.43162224
v 0.00499617 0.06826755 -0.43177998
v 0.00499617 0.06498930 -0.43241084
v 0.00499617 0.05498800 -0.43430340
v 0.01203336 0.05498800 -0.43359369
v 0.01203336 0.04499427 -0.43517086
v 0.01203336 0.03796080 -0.43611714
v 0.01203336 0.03499297 -0.43651143
f 1 2 8
f 1 8 3
f 1 3 9
f 1 9 10
f 1 10 4
f 1 4 12
f 1 12 22
f 1 22 32
f 1 32 36
f 1 36 35
f 1 35 26
f 1 26 25
f 1 25 24
f 1 24 14
f 1 14 13
f 1 13 5
f 1 5 2
f 2 5 6
f 2 6 7
f 2 7 8
f 3 8 21
f 3 21 20
f 3 20 19
f 3 19 31
f 3 31 44
f 3 44 43
f 3 43 52
f 3 52 51
f 3 51 50
f 3 50 49
f 3 49 45
f 3 45 33
f 3 33 23
f 3 23 11
f 3 11 9
f 4 10 11
f 4 11 12
f 5 13 6
f 6 13 14
f 6 14 15
f 6 15 16
f 6 16 17
f 6 17 18
f 6 18 7
f 7 18 19
f 7 19 20
f 7 20 21
f 7 21 8
f 9 11 10
f 11 22 12
f 11 23 34
f 11 34 46
f 11 46 38
f 11 38 37
f 11 37 32
f 11 32 22
f 14 24 15
f 15 24 25
f 15 25 26
f 15 26 27
f 15 27 28
f 15 28 29
f 15 29 16
f 16 29 30
f 16 30 18
f 16 18 17
f 18 30 31
f 18 31 19
f 23 33 34
f 26 35 27
f 27 35 36
f 27 36 37
f 27 37 38
f 27 38 39
f 27 39 40
f 27 40 28
f 28 40 48
f 28 48 41
f 28 41 42
f 28 42 29
f 29 42 30
f 30 42 43
f 30 43 44
f 30 44 31
f 32 37 36
f 33 45 46
f 33 46 34
f 38 46 47
f 38 47 48
f 38 48 40
f 38 40 39
f 41 48 49
f 41 49 50
f 41 50 51
f 41 51 52
f 41 52 42
f 42 52 43
f 45 47 46
f 45 49 48
f 45 48 47

