# https://github.com/mikedh/trimesh
v 0.50521088 0.04499427 0.08992817
v 0.50496948 0.05498800 0.09488289
v 0.50439012 0.04999114 0.10991792
v 0.50414872 0.02999611 0.10991792
v 0.50487292 0.02999611 0.08992817
v 0.50496948 0.04499427 0.06985299
v 0.50487292 0.05498800 0.06489826
v 0.50501776 0.05498800 0.07993329
v 0.50453496 0.06662464 0.08326491
v 0.50439012 0.06662464 0.09411405
v 0.50371420 0.06662464 0.10991792
v 0.50236237 0.06662464 0.12486751
v 0.50226581 0.04999114 0.12990767
v 0.50207269 0.02999611 0.12990767
v 0.50308657 0.01500551 0.10991792
v 0.50385904 0.01500551 0.08992817
v 0.50173473 0.01500551 0.12486751
v 0.50289345 0.00501178 0.06985299
v 0.50448668 0.02999611 0.06985299
v 0.50390732 0.02999611 0.05490338
v 0.50429356 0.04999114 0.04986323
v 0.50429356 0.06662464 0.05404912
v 0.50448668 0.06662464 0.06908415
v 0.50212097 0.06826755 0.02491876
v 0.49792063 0.06744231 0.15297277
v 0.50033462 0.06621581 0.13938999
v 0.49907935 0.05498800 0.14989743
v 0.49917591 0.03998984 0.15015370
v 0.49864483 0.02500681 0.15066625
v 0.49985182 0.01558091 0.13956083
v 0.50139678 -0.00856303 0.10103358
v 0.50047946 -0.00703369 0.11811884
v 0.50192785 -0.00703369 0.08591313
v 0.50303829 0.00501178 0.08488801
v 0.49830687 0.00501178 0.14485727
v 0.49932075 -0.00420213 0.13127449
v 0.50149333 -0.00805578 0.05695362
v 0.50327969 0.01500551 0.05985811
v 0.50187957 -0.00754095 0.07087810
v 0.50216925 0.00501178 0.04986323
v 0.50279689 0.02000995 0.04490851
v 0.50279689 0.03499297 0.03491363
v 0.50327969 0.04999114 0.03491363
v 0.50361764 0.06662464 0.03952665
v 0.22504355 0.06826755 0.42249274
v 0.39909202 0.06744231 0.34210658
v 0.49473417 0.06744231 0.16826408
v 0.50120366 0.04999114 0.01492388
v 0.50038290 0.06703347 0.00911489
v 0.49772751 0.06662464 -0.00993517
v 0.49536180 0.06662464 -0.02488477
v 0.49236846 0.06703347 -0.04111576
v 0.48942339 0.06703347 -0.05469855
v 0.48512650 0.06703347 -0.07110039
v 0.47870529 0.06703347 -0.09057759
v 0.46919420 0.06703347 -0.11466780
v 0.40918249 0.06744231 -0.21581253
v 0.40097493 0.06744231 -0.22623454
v 0.15305845 0.06826755 -0.39939362
v 0.49526525 0.04999114 0.16988717
v 0.49492729 0.02999611 0.16988717
v 0.49608600 0.01000865 0.15989229
v 0.49724472 -0.00703369 0.14485727
v 0.49425137 -0.00754095 0.16134454
v 0.48435402 -0.00754095 0.20098235
v 0.46557322 -0.00805578 0.25121301
v 0.24681771 -0.00907786 0.43206048
v 0.48700941 -0.00907786 -0.04077406
v 0.49758267 -0.00754095 0.01090884
v 0.50096226 -0.00703369 0.04507936
v 0.50149333 0.01000865 0.03491363
v 0.50096226 0.01500551 0.02491876
v 0.50207269 0.03998984 0.02491876
v 0.15527932 0.06826755 0.41822141
v 0.19008902 0.06744231 0.42257816
v 0.21002856 0.06662464 0.42326152
v 0.23001637 0.05498800 0.42548263
v 0.24005856 0.06662464 0.42198014
v 0.25502527 0.06744988 0.42010075
v 0.32097539 0.06704862 0.39865875
v 0.35501260 0.06662464 0.37909615
v 0.36674458 0.06662464 0.37021184
v 0.39049822 0.06573126 0.35056376
v 0.39484340 0.05498800 0.34979492
v 0.40831345 0.06580697 0.33322221
v 0.42212147 0.06572369 0.31810176
v 0.43988842 0.06662464 0.29426783
v 0.47860873 0.06703347 0.22037411
v 0.48903716 0.06662464 0.19030406
v 0.49000275 0.05593438 0.19004777
v 0.50023806 0.03034437 0.01056714
v 0.49932075 0.04999114 -0.00019657
v 0.49637568 0.04999114 -0.01993005
v 0.49372029 0.04999114 -0.03487965
v 0.49077523 0.05498800 -0.04948754
v 0.48667145 0.04999114 -0.06494970
v 0.48261595 0.05498800 -0.07921589
v 0.47730517 0.05498800 -0.09493433
v 0.47368419 0.04999114 -0.10492921
v 0.47324967 0.06662464 -0.10492921
v 0.46987012 0.04999114 -0.11466780
v 0.46557322 0.04999114 -0.12491896
v 0.46451107 0.06662464 -0.12543151
v 0.45977965 0.06662464 -0.13568267
v 0.45485511 0.06662464 -0.14542127
v 0.44988230 0.06662464 -0.15481816
v 0.44143334 0.06662464 -0.16942605
v 0.43047386 0.06662464 -0.18676759
v 0.41700381 0.06662464 -0.20581765
v 0.41087228 0.04999114 -0.21606880
v 0.39725739 0.05025612 -0.23332492
v 0.39073962 0.05498800 -0.24084243
v 0.39069134 0.06543599 -0.23939018
v 0.38291830 0.06676849 -0.24810366
v 0.36201316 0.06744231 -0.26980197
v 0.31600258 0.06744231 -0.31106287
v 0.30417404 0.06744231 -0.31994718
v 0.27506137 0.06744231 -0.34053493
v 0.21736707 0.06744231 -0.37282604
v 0.16836312 0.06744231 -0.39384091
v 0.14504403 0.05498800 -0.40366495
v 0.13925046 0.06826755 -0.40417749
v 0.49053383 0.03998984 0.18902266
v 0.48937511 0.01988881 0.19090204
v 0.49270642 0.01000865 0.17484190
v 0.48985791 -0.00699583 0.18056546
v 0.48831296 0.00501178 0.19115832
v 0.48464370 0.01000865 0.20491195
v 0.47860873 -0.00703369 0.21909271
v 0.47165647 -0.00703369 0.23763022
v 0.46499386 0.01000865 0.25497174
v 0.45895889 -0.00754095 0.26530832
v 0.42941171 -0.00703369 0.31485558
v 0.39967138 -0.00754095 0.34868437
v 0.36413747 -0.00805578 0.37969416
v 0.30707082 -0.00805578 0.41420639
v 0.27496481 -0.00703369 0.42599517
v 0.26091540 -0.00652643 0.42941225
v 0.26033604 0.00501178 0.42907053
v 0.24507964 0.00501178 0.43154788
v 0.22953357 -0.00703369 0.43368357
v 0.20954576 -0.00805578 0.43445241
v 0.19298580 -0.00907786 0.43436694
v 0.35964745 -0.00805578 -0.27467126
v 0.46402827 -0.00856303 -0.11671803
v 0.47711205 -0.00757881 -0.07870334
v 0.48082960 -0.00704883 -0.06614567
v 0.48382294 -0.00703369 -0.05495483
v 0.48802328 0.00501178 -0.04487452
v 0.49183738 0.00501178 -0.02924151
v 0.49053383 -0.00651129 -0.02770384
v 0.49439621 -0.00754095 -0.00839750
v 0.01208161 -0.00907786 0.35056376
v 0.01599227 -0.00805578 -0.43732291
v 0.03211771 -0.00805578 -0.43552893
v 0.04708442 -0.00805578 -0.43322241
v 0.21292534 -0.00805578 -0.37641394
v 0.22586431 -0.00805578 -0.37026328
v 0.29118681 -0.00805578 -0.33233398
v 0.31894764 -0.00805578 -0.31242967
v 0.49801719 0.00501178 0.00492900
v 0.49985182 0.00557961 0.02039116
v 0.49994838 -0.00511822 0.03012976
v 0.49922419 0.01500551 0.00868776
v 0.14504403 0.06826755 0.41608572
v 0.15006512 0.02500681 0.42599517
v 0.16474216 0.02036579 0.42958307
v 0.17014948 0.06744231 0.42069876
v 0.19004074 0.05498800 0.42514092
v 0.21002856 0.05498800 0.42582434
v 0.17507401 0.03499297 0.42787457
v 0.25005245 0.05498800 0.42368871
v 0.22002245 0.04035324 0.42855799
v 0.23503746 0.04499427 0.42719114
v 0.26975060 0.05607823 0.42001534
v 0.27510965 0.06662464 0.41557318
v 0.29022121 0.06691991 0.41104561
v 0.26497090 0.03998984 0.42437208
v 0.30513963 0.06617038 0.40600544
v 0.31836829 0.05666877 0.40301549
v 0.33497652 0.05498800 0.39481461
v 0.34149429 0.06240002 0.38900560
v 0.35887498 0.05193689 0.38063383
v 0.37041384 0.05638864 0.37029725
v 0.37992495 0.06498930 0.36004609
v 0.38412529 0.05498800 0.35919183
v 0.38789111 0.04499427 0.35816669
v 0.39638835 0.03998984 0.35116178
v 0.40285784 0.04999114 0.34296083
v 0.41014808 0.04999114 0.33518702
v 0.41956264 0.04999114 0.32450879
v 0.43100494 0.06189276 0.30776519
v 0.43539840 0.04499427 0.30494612
v 0.44085398 0.04999114 0.29623264
v 0.44939950 0.04499427 0.28401667
v 0.44930294 0.06368709 0.28025794
v 0.45881405 0.06580697 0.26325810
v 0.46407655 0.06662464 0.25326324
v 0.47155991 0.06662464 0.23831363
v 0.48005712 0.05589652 0.22011784
v 0.48425746 0.06662464 0.20491195
v 0.48556101 0.04999114 0.20491195
v 0.49738955 0.02999611 -0.00993517
v 0.49492729 0.02999611 -0.02488477
v 0.49328578 0.03499297 -0.03487965
v 0.49053383 0.04085293 -0.04863328
v 0.48309875 0.03499297 -0.07494458
v 0.48367810 0.04499427 -0.07494458
v 0.47880185 0.04499427 -0.09040674
v 0.47160819 0.02999611 -0.10885882
v 0.47667754 0.02999611 -0.09493433
v 0.46509042 0.02999611 -0.12491896
v 0.45852438 0.03499297 -0.14055197
v 0.45842782 0.04999114 -0.14055197
v 0.45041338 0.05498800 -0.15584327
v 0.44529572 0.05498800 -0.16489846
v 0.43964702 0.05498800 -0.17438078
v 0.43052214 0.04985486 -0.18941581
v 0.42347330 0.06621581 -0.19701874
v 0.41970748 0.04999114 -0.20453626
v 0.40947217 0.02999611 -0.21931501
v 0.39856094 0.03499297 -0.23315407
v 0.38948435 0.02999611 -0.24451576
v 0.38682896 0.04499427 -0.24630971
v 0.38137335 0.05498800 -0.25143528
v 0.37345546 0.06580697 -0.25835484
v 0.36210972 0.04999114 -0.27219391
v 0.35472292 0.04999114 -0.27962595
v 0.34723958 0.06642022 -0.28449529
v 0.32884499 0.06496659 -0.30089712
v 0.32107195 0.05431418 -0.30850005
v 0.30842265 0.04999114 -0.31883663
v 0.28997982 0.06662464 -0.33045459
v 0.27650976 0.05498800 -0.34096205
v 0.26308799 0.06580697 -0.34847957
v 0.25352859 0.06662464 -0.35420310
v 0.24324501 0.06662464 -0.35984123
v 0.23223723 0.06621581 -0.36565024
v 0.23088540 0.04999114 -0.36744422
v 0.21504964 0.04999114 -0.37513256
v 0.20360735 0.04999114 -0.38042897
v 0.20389703 0.06580697 -0.37914759
v 0.19342032 0.06662464 -0.38367522
v 0.18178490 0.06698805 -0.38862991
v 0.17835703 0.05635835 -0.39093643
v 0.16136257 0.05498800 -0.39759970
v 0.14938921 0.04499427 -0.40289611
v 0.13176709 0.03799109 -0.40964478
v 0.13505012 0.05498800 -0.40708202
v 0.12336642 0.06744231 -0.40947396
v 0.05925092 0.06785114 -0.42493612
v 0.01666819 0.06781329 -0.43074507
v 0.01208161 0.06826755 0.36508626
v 0.48556101 0.02999611 0.20491195
v 0.48044336 0.02040364 0.21866558
v 0.47894669 0.00501178 0.22071582
v 0.47175303 0.01000865 0.23968045
v 0.46538010 0.02999611 0.25497174
v 0.46011761 0.01000865 0.26522291
v 0.46996668 0.02999611 0.24497688
v 0.45514479 0.01000865 0.27496153
v 0.45171693 -0.00703369 0.27931827
v 0.43008763 0.01000865 0.31511188
v 0.42125243 0.01000865 0.32655901
v 0.42076963 -0.00703369 0.32596099
v 0.43945390 -0.00498195 0.30050397
v 0.41096884 -0.00703369 0.33706641
v 0.39986449 0.00765406 0.34979492
v 0.39213973 0.00501178 0.35705620
v 0.38629788 -0.00703369 0.36158377
v 0.37524182 -0.00703369 0.37106609
v 0.36505479 0.01000865 0.37995040
v 0.34849486 0.01000865 0.39199555
v 0.34854314 -0.00627659 0.39105582
v 0.33463857 -0.00703369 0.40011102
v 0.32000980 -0.00652643 0.40831196
v 0.32058915 0.00501178 0.40831196
v 0.30494651 0.01000865 0.41523147
v 0.29022121 -0.00703369 0.42095506
v 0.28877282 0.01000865 0.42129678
v 0.27496481 0.01000865 0.42548263
v 0.26497090 0.02000995 0.42702031
v 0.24923170 0.01449825 0.43018109
v 0.24348640 0.02324277 0.42975396
v 0.23001637 0.01000865 0.43214589
v 0.21002856 0.01000865 0.43265843
v 0.19004074 0.00501178 0.43282932
v 0.17903295 -0.00907786 0.43385440
v 0.33975622 -0.00703369 -0.29423386
v 0.34999150 -0.00601161 -0.28449529
v 0.35279173 0.00501178 -0.28270131
v 0.36022681 0.00501178 -0.27518380
v 0.37002760 0.00501178 -0.26501805
v 0.36954480 -0.00601161 -0.26450551
v 0.37973183 -0.00805578 -0.25305837
v 0.47107711 -0.00660972 -0.09792425
v 0.38866359 -0.00805578 -0.24306352
v 0.44737175 -0.00780593 -0.15439102
v 0.45871750 -0.00492138 -0.13132593
v 0.46673194 0.00501178 -0.11492408
v 0.47020808 0.00501178 -0.10561261
v 0.47701550 0.00501178 -0.08493945
v 0.48174691 0.00501178 -0.06870846
v 0.48729908 0.02000995 -0.05495483
v 0.49135458 0.02018408 -0.03889468
v 0.49483073 0.01500551 -0.01993005
v 0.07460389 -0.00907786 0.40019643
v 0.01208161 0.05498800 -0.43356413
v 0.01357828 0.00501178 -0.43826258
v 0.03004168 0.01000865 -0.43604153
v 0.04505667 0.01000865 -0.43364960
v 0.05983028 0.01000865 -0.43083048
v 0.05958888 -0.00703369 -0.43083048
v 0.07508668 -0.00703369 -0.42715716
v 0.08508058 -0.00703369 -0.42416728
v 0.15103072 -0.00754095 -0.40187097
v 0.19144085 -0.00754095 -0.38598168
v 0.20269004 -0.00703369 -0.38111240
v 0.21046308 0.01000865 -0.37820792
v 0.23074056 0.01000865 -0.36846930
v 0.23580994 -0.00703369 -0.36539394
v 0.24565899 -0.00703369 -0.36026841
v 0.25507355 -0.00703369 -0.35497195
v 0.26424670 -0.00703369 -0.34950465
v 0.27834439 -0.00557249 -0.34079117
v 0.27762020 0.00501178 -0.34181631
v 0.29543543 0.01000865 -0.33019835
v 0.30769846 -0.00763180 -0.32114315
v 0.31136772 0.00920612 -0.31883663
v 0.32392046 0.01000865 -0.30901259
v 0.32923123 -0.00703369 -0.30380160
v 0.49685848 0.01000865 -0.00489502
v 0.13253957 0.02751281 0.42112589
v 0.13060838 0.06826755 0.41241241
v 0.13505012 0.00501178 0.42608064
v 0.14697522 0.01054619 0.42795998
v 0.15701739 0.01314304 0.42958307
v 0.15904514 -0.00754095 0.43240213
v 0.17005292 0.00501178 0.43188959
v 0.17507401 0.01977525 0.43043739
v 0.20003465 0.04499427 0.42753285
v 0.18506792 0.02596833 0.43001020
v 0.25005245 0.03998984 0.42659318
v 0.20322111 0.02973869 0.43009567
v 0.21504964 0.02500681 0.43086451
v 0.22905077 0.02669515 0.43035191
v 0.28008246 0.04529711 0.41992992
v 0.28495872 0.05498800 0.41617119
v 0.29857358 0.05627507 0.41147274
v 0.25507355 0.02500681 0.42813087
v 0.27496481 0.02999611 0.42385954
v 0.30967793 0.03989898 0.41061848
v 0.32995543 0.04495642 0.39985472
v 0.34786722 0.03921759 0.39079958
v 0.36433059 0.03499297 0.37935245
v 0.37442106 0.04499427 0.36952841
v 0.37572461 0.02999611 0.37055355
v 0.38909811 0.02999611 0.35919183
v 0.39793330 0.02198598 0.35184515
v 0.40411311 0.03499297 0.34424222
v 0.41149992 0.02999611 0.33672470
v 0.42076963 0.02999611 0.32587558
v 0.42897719 0.04499427 0.31365961
v 0.42965311 0.02999611 0.31451386
v 0.44085398 0.02950399 0.29888088
v 0.44983402 0.02999611 0.28478551
v 0.45538619 0.02999611 0.27496153
v 0.45422748 0.04999114 0.27496153
v 0.45982793 0.04999114 0.26471037
v 0.46484903 0.04999114 0.25497174
v 0.47247723 0.05498800 0.23848449
v 0.48111928 0.03998984 0.21849473
v 0.47445667 0.04499427 0.23498200
v 0.48459542 0.02000995 -0.06494970
v 0.48049164 0.02010837 -0.07964303
v 0.48010540 0.03499297 -0.08536658
v 0.46991840 0.01494494 -0.10988393
v 0.46388343 0.01500551 -0.12491896
v 0.47455323 0.01000865 -0.09493433
v 0.46006933 0.02000995 -0.13517012
v 0.45562759 0.02000995 -0.14490871
v 0.45031682 0.02000995 -0.15558700
v 0.44828907 0.03998984 -0.16062714
v 0.43993667 0.03998984 -0.17489333
v 0.42859095 0.03499297 -0.19300371
v 0.42004544 0.02999611 -0.20504881
v 0.41116196 0.01000865 -0.21658137
v 0.39865750 0.01500551 -0.23332492
v 0.39682287 0.02500681 -0.23588771
v 0.38011807 0.02000995 -0.25510859
v 0.38224238 0.03499297 -0.25237501
v 0.38933951 0.01000865 -0.24425949
v 0.37949044 0.04499427 -0.25451064
v 0.37166911 0.05498800 -0.26168644
v 0.36051649 0.02999611 -0.27552551
v 0.35298485 0.03499297 -0.28270131
v 0.36785501 0.03499297 -0.26766628
v 0.34202537 0.04499427 -0.29167110
v 0.33347985 0.04999114 -0.29859060
v 0.32169959 0.03894503 -0.30926889
v 0.30673286 0.03499297 -0.32122856
v 0.29408360 0.04999114 -0.32925862
v 0.26714349 0.03499297 -0.34822327
v 0.26395702 0.04999114 -0.34933382
v 0.28099978 0.04053495 -0.33891183
v 0.25125945 0.05498800 -0.35642421
v 0.24594867 0.03998984 -0.36035383
v 0.23194756 0.02999611 -0.36778593
v 0.21504964 0.02500681 -0.37607223
v 0.20447639 0.02999611 -0.38085610
v 0.19095805 0.02999611 -0.38683599
v 0.18381265 0.04499427 -0.38931334
v 0.19506183 0.05498800 -0.38393146
v 0.16508012 0.04499427 -0.39691627
v 0.15687256 0.03499297 -0.40058959
v 0.14504403 0.02999611 -0.40511721
v 0.13442248 0.02000995 -0.40887594
v 0.09888859 0.01259036 -0.42032307
v 0.09584697 0.02409072 -0.42109191
v 0.09647460 0.03499297 -0.42032307
v 0.11506230 0.05498800 -0.41323268
v 0.10506840 0.05498800 -0.41613716
v 0.10506840 0.06662464 -0.41477036
v 0.07783861 0.06662464 -0.42151904
v 0.07006559 0.04999114 -0.42553407
v 0.04587743 0.05257285 -0.42963451
v 0.04505667 0.06662464 -0.42741346
v 0.03298675 0.06515586 -0.42937827
v 0.02506886 0.05498800 -0.43211192
v 0.08715661 -0.00907786 0.40873909
v 0.09782644 -0.00907786 0.41412091
v 0.10994466 -0.00907786 0.41958821
v 0.07363829 0.06826755 0.39088500
v 0.47436011 0.02999611 0.23498200
v 0.46026245 0.02999611 0.26556462
v 0.46996668 0.04499427 0.24497688
v 0.44978574 0.01000865 0.28470010
v 0.44104710 0.01000865 0.29888088
v 0.41193444 0.01000865 0.33706641
v 0.38716692 0.01500551 0.36192548
v 0.37640053 0.01000865 0.37106609
v 0.36239940 0.02500681 0.38182980
v 0.34791550 0.02500681 0.39242268
v 0.33555588 0.01000865 0.40028191
v 0.32498261 0.02000995 0.40557832
v 0.31556806 0.02000995 0.41019136
v 0.30494651 0.02500681 0.41437721
v 0.29022121 0.03016267 0.41933197
v 0.18506792 0.01500551 0.43146247
v 0.13297409 -0.00805578 0.42770374
v 0.34516355 0.00501178 -0.29004800
v 0.35564023 0.01500551 -0.28048021
v 0.37277955 0.02000995 -0.26288241
v 0.37973183 0.00501178 -0.25468147
v 0.40083009 -0.00321790 -0.22896817
v 0.41048604 -0.00703369 -0.21564168
v 0.41903156 -0.00703369 -0.20334029
v 0.44949606 0.00501178 -0.15396389
v 0.45601383 0.00501178 -0.14029568
v 0.42612869 -0.00652643 -0.19240573
v 0.43926078 -0.00545135 -0.17122000
v 0.01357828 0.04036082 -0.43561435
v 0.01357828 0.02075190 -0.43766463
v 0.03506278 0.02500681 -0.43450385
v 0.04505667 0.02999611 -0.43245363
v 0.06055447 0.03065478 -0.42963451
v 0.07508668 0.02999611 -0.42647374
v 0.07508668 0.01000865 -0.42732805
v 0.08508058 0.01000865 -0.42450893
v 0.09724708 -0.00601161 -0.42032307
v 0.13167053 -0.00620845 -0.40896136
v 0.14504403 0.01000865 -0.40494633
v 0.16508012 -0.00703369 -0.39665997
v 0.19506183 0.00501178 -0.38495660
v 0.17845359 -0.00703369 -0.39136356
v 0.17970887 0.01000865 -0.39153439
v 0.25072837 0.02000995 -0.35813272
v 0.25058353 0.00501178 -0.35796189
v 0.26482606 0.01000865 -0.34984636
v 0.27887547 0.02000995 -0.34104747
v 0.26487434 0.02500681 -0.34984636
v 0.29504919 0.02999611 -0.32994205
v 0.31102976 0.02500681 -0.31849492
v 0.32353422 0.02500681 -0.30875635
v 0.33439717 0.02999611 -0.29944485
v 0.33468685 0.01000865 -0.29970115
v 0.12500793 0.00958467 0.42198014
v 0.11506230 0.06826755 0.40754312
v 0.14412671 -0.00703369 0.43018109
v 0.29495263 0.04499427 0.41540235
v 0.33463857 0.02999611 0.39976931
v 0.44500604 0.01500551 -0.16489846
v 0.44360593 0.02500681 -0.16865721
v 0.42868751 0.02054749 -0.19206402
v 0.41970748 0.01000865 -0.20462169
v 0.35047430 0.02500681 -0.28543496
v 0.34501871 0.03499297 -0.28987712
v 0.25507355 0.03998984 -0.35522825
v 0.16112117 0.02500681 -0.39913738
v 0.17507401 0.03499297 -0.39332837
v 0.08508058 0.02999611 -0.42382556
v 0.09406061 0.04957473 -0.41981053
v 0.08508058 0.04499427 -0.42262959
v 0.09116383 0.06480759 -0.41869998
v 0.03004168 0.04499427 -0.43296617
v 0.12148350 -0.00754095 0.42377412
v 0.09526761 0.06826755 0.39985472
v 0.34781894 0.01500551 -0.28791231
v 0.43105322 0.00501178 -0.18668216
v 0.43940562 0.01000865 -0.17395365
v 0.02506886 0.02999611 -0.43544352
v 0.16092806 0.01000865 -0.39896649
f 1 2 3
f 1 3 4
f 1 4 5
f 1 5 6
f 1 6 7
f 1 7 8
f 1 8 2
f 2 8 9
f 2 9 10
f 2 10 11
f 2 11 3
f 3 12 13
f 3 13 14
f 3 14 4
f 3 11 12
f 4 15 16
f 4 16 5
f 4 14 17
f 4 17 15
f 5 16 18
f 5 18 19
f 5 19 6
f 6 19 20
f 6 20 21
f 6 21 7
f 7 21 22
f 7 22 23
f 7 23 8
f 8 23 9
f 9 23 24
f 9 24 10
f 10 24 11
f 11 24 25
f 11 25 12
f 12 25 26
f 12 26 13
f 13 26 27
f 13 27 28
f 13 28 14
f 14 28 29
f 14 29 30
f 14 30 17
f 15 31 16
f 15 17 32
f 15 32 31
f 16 31 33
f 16 33 34
f 16 34 18
f 17 30 35
f 17 35 36
f 17 36 32
f 18 37 38
f 18 38 19
f 18 34 39
f 18 39 37
f 19 38 20
f 20 38 40
f 20 40 41
f 20 41 42
f 20 42 21
f 21 42 43
f 21 43 44
f 21 44 22
f 22 44 24
f 22 24 23
f 24 45 46
f 24 46 47
f 24 47 25
f 24 44 43
f 24 43 48
f 24 48 49
f 24 49 50
f 24 50 51
f 24 51 52
f 24 52 53
f 24 53 54
f 24 54 55
f 24 55 56
f 24 56 57
f 24 57 58
f 24 58 59
f 24 59 122
f 24 122 253
f 24 253 433
f 24 433 507
f 24 507 488
f 24 488 334
f 24 334 165
f 24 165 74
f 24 74 45
f 25 27 26
f 25 47 60
f 25 60 27
f 27 60 28
f 28 60 61
f 28 61 29
f 29 61 62
f 29 62 35
f 29 35 30
f 31 37 39
f 31 39 33
f 31 32 63
f 31 63 64
f 31 64 65
f 31 65 66
f 31 66 67
f 31 67 68
f 31 68 37
f 32 36 63
f 33 39 34
f 35 63 36
f 35 62 63
f 37 69 70
f 37 70 40
f 37 40 38
f 37 68 69
f 40 70 71
f 40 71 41
f 41 71 42
f 42 71 72
f 42 72 73
f 42 73 43
f 43 73 48
f 45 74 75
f 45 75 76
f 45 76 77
f 45 77 78
f 45 78 79
f 45 79 80
f 45 80 46
f 46 80 81
f 46 81 82
f 46 82 83
f 46 83 84
f 46 84 85
f 46 85 86
f 46 86 87
f 46 87 88
f 46 88 47
f 47 88 89
f 47 89 90
f 47 90 60
f 48 91 92
f 48 92 49
f 48 73 91
f 49 92 50
f 50 92 93
f 50 93 51
f 51 94 52
f 51 93 94
f 52 94 95
f 52 95 53
f 53 95 54
f 54 95 96
f 54 96 97
f 54 97 55
f 55 97 98
f 55 98 99
f 55 99 100
f 55 100 56
f 56 100 101
f 56 101 102
f 56 102 103
f 56 103 104
f 56 104 105
f 56 105 106
f 56 106 57
f 57 106 107
f 57 107 108
f 57 108 109
f 57 109 110
f 57 110 111
f 57 111 58
f 58 111 112
f 58 112 113
f 58 113 114
f 58 114 115
f 58 115 59
f 59 115 116
f 59 116 117
f 59 117 118
f 59 118 119
f 59 119 120
f 59 120 121
f 59 121 122
f 60 90 123
f 60 123 61
f 61 123 124
f 61 124 125
f 61 125 62
f 62 125 64
f 62 64 63
f 64 125 126
f 64 126 65
f 65 126 127
f 65 127 128
f 65 128 129
f 65 129 66
f 66 129 130
f 66 130 131
f 66 131 132
f 66 132 133
f 66 133 134
f 66 134 135
f 66 135 67
f 67 135 136
f 67 136 137
f 67 137 138
f 67 138 139
f 67 139 140
f 67 140 141
f 67 141 142
f 67 142 143
f 67 143 288
f 67 288 432
f 67 432 431
f 67 431 430
f 67 430 307
f 67 307 153
f 67 153 68
f 68 144 145
f 68 145 146
f 68 146 147
f 68 147 148
f 68 148 149
f 68 149 150
f 68 150 151
f 68 151 152
f 68 152 69
f 68 153 154
f 68 154 155
f 68 155 156
f 68 156 157
f 68 157 158
f 68 158 159
f 68 159 160
f 68 160 144
f 69 152 161
f 69 161 162
f 69 162 163
f 69 163 70
f 70 163 71
f 71 163 72
f 72 162 164
f 72 164 91
f 72 91 73
f 72 163 162
f 74 165 166
f 74 166 167
f 74 167 168
f 74 168 75
f 75 169 170
f 75 170 76
f 75 168 171
f 75 171 169
f 76 170 77
f 77 172 78
f 77 170 173
f 77 173 174
f 77 174 172
f 78 172 79
f 79 175 176
f 79 176 177
f 79 177 80
f 79 172 178
f 79 178 175
f 80 177 179
f 80 179 180
f 80 180 181
f 80 181 182
f 80 182 81
f 81 182 183
f 81 183 82
f 82 183 184
f 82 184 185
f 82 185 83
f 83 185 84
f 84 185 186
f 84 186 187
f 84 187 188
f 84 188 189
f 84 189 85
f 85 189 190
f 85 190 86
f 86 191 192
f 86 192 87
f 86 190 191
f 87 192 193
f 87 193 194
f 87 194 195
f 87 195 196
f 87 196 197
f 87 197 198
f 87 198 88
f 88 198 199
f 88 199 200
f 88 200 201
f 88 201 89
f 89 201 90
f 90 201 202
f 90 202 123
f 91 164 203
f 91 203 92
f 92 203 93
f 93 203 204
f 93 204 94
f 94 204 205
f 94 205 95
f 95 205 206
f 95 206 96
f 96 207 208
f 96 208 97
f 96 206 207
f 97 209 98
f 97 208 209
f 98 209 99
f 99 210 101
f 99 101 100
f 99 209 211
f 99 211 210
f 101 210 212
f 101 212 102
f 102 212 213
f 102 213 214
f 102 214 103
f 103 214 104
f 104 214 215
f 104 215 105
f 105 215 106
f 106 215 216
f 106 216 107
f 107 217 108
f 107 216 217
f 108 217 218
f 108 218 219
f 108 219 109
f 109 219 220
f 109 220 110
f 110 220 221
f 110 221 222
f 110 222 111
f 111 222 112
f 112 222 223
f 112 223 224
f 112 224 225
f 112 225 114
f 112 114 113
f 114 225 226
f 114 226 115
f 115 226 227
f 115 227 228
f 115 228 229
f 115 229 116
f 116 230 231
f 116 231 232
f 116 232 117
f 116 229 230
f 117 232 233
f 117 233 118
f 118 233 234
f 118 234 235
f 118 235 236
f 118 236 119
f 119 236 237
f 119 237 238
f 119 238 239
f 119 239 240
f 119 240 241
f 119 241 242
f 119 242 243
f 119 243 244
f 119 244 120
f 120 245 246
f 120 246 121
f 120 244 245
f 121 246 247
f 121 247 248
f 121 248 249
f 121 249 122
f 122 249 250
f 122 250 251
f 122 251 252
f 122 252 253
f 123 202 254
f 123 254 124
f 124 254 128
f 124 128 127
f 124 127 125
f 125 127 126
f 128 254 255
f 128 255 256
f 128 256 129
f 129 256 130
f 130 257 131
f 130 256 257
f 131 258 259
f 131 259 132
f 131 257 260
f 131 260 258
f 132 259 261
f 132 261 262
f 132 262 133
f 133 263 264
f 133 264 265
f 133 265 134
f 133 262 266
f 133 266 263
f 134 267 268
f 134 268 269
f 134 269 270
f 134 270 135
f 134 265 267
f 135 270 271
f 135 271 272
f 135 272 273
f 135 273 274
f 135 274 275
f 135 275 136
f 136 275 276
f 136 276 277
f 136 277 278
f 136 278 279
f 136 279 137
f 137 279 280
f 137 280 281
f 137 281 138
f 138 281 139
f 139 281 282
f 139 282 283
f 139 283 140
f 140 283 284
f 140 284 285
f 140 285 141
f 141 285 142
f 142 285 286
f 142 286 143
f 143 286 287
f 143 287 288
f 144 289 290
f 144 290 291
f 144 291 292
f 144 292 293
f 144 293 294
f 144 294 295
f 144 295 145
f 144 160 289
f 145 296 146
f 145 295 297
f 145 297 298
f 145 298 299
f 145 299 300
f 145 300 301
f 145 301 296
f 146 302 303
f 146 303 147
f 146 296 302
f 147 303 148
f 148 304 149
f 148 303 304
f 149 304 305
f 149 305 150
f 150 305 306
f 150 306 152
f 150 152 151
f 152 306 161
f 153 307 253
f 153 253 308
f 153 308 309
f 153 309 154
f 154 309 155
f 155 309 310
f 155 310 156
f 156 310 311
f 156 311 312
f 156 312 313
f 156 313 314
f 156 314 315
f 156 315 316
f 156 316 157
f 157 317 318
f 157 318 319
f 157 319 158
f 157 316 317
f 158 319 320
f 158 320 321
f 158 321 322
f 158 322 323
f 158 323 159
f 159 324 325
f 159 325 326
f 159 326 327
f 159 327 328
f 159 328 160
f 159 323 324
f 160 328 329
f 160 329 330
f 160 330 331
f 160 331 289
f 161 332 203
f 161 203 164
f 161 164 162
f 161 306 332
f 165 333 166
f 165 334 333
f 166 333 335
f 166 335 336
f 166 336 337
f 166 337 167
f 167 337 338
f 167 338 339
f 167 339 340
f 167 340 171
f 167 171 168
f 169 171 341
f 169 341 170
f 170 341 173
f 171 340 342
f 171 342 341
f 172 174 343
f 172 343 178
f 173 341 344
f 173 344 345
f 173 345 346
f 173 346 174
f 174 346 284
f 174 284 343
f 175 347 348
f 175 348 176
f 175 178 347
f 176 348 177
f 177 349 179
f 177 348 349
f 178 343 350
f 178 350 282
f 178 282 351
f 178 351 347
f 179 349 180
f 180 349 352
f 180 352 353
f 180 353 181
f 181 353 354
f 181 354 182
f 182 354 183
f 183 354 355
f 183 355 356
f 183 356 184
f 184 356 186
f 184 186 185
f 186 356 187
f 187 356 357
f 187 357 358
f 187 358 188
f 188 359 360
f 188 360 189
f 188 358 359
f 189 360 190
f 190 360 361
f 190 361 191
f 191 362 363
f 191 363 192
f 191 361 362
f 192 363 193
f 193 363 364
f 193 364 365
f 193 365 194
f 194 365 195
f 195 366 367
f 195 367 368
f 195 368 196
f 195 365 366
f 196 368 197
f 197 368 369
f 197 369 198
f 198 369 370
f 198 370 199
f 199 370 371
f 199 371 200
f 200 372 202
f 200 202 201
f 200 371 373
f 200 373 372
f 202 372 254
f 203 332 306
f 203 306 204
f 204 306 205
f 205 305 206
f 205 306 305
f 206 305 304
f 206 304 207
f 207 304 374
f 207 374 375
f 207 375 376
f 207 376 208
f 208 376 209
f 209 376 211
f 210 377 378
f 210 378 212
f 210 211 377
f 211 376 375
f 211 375 379
f 211 379 377
f 212 378 380
f 212 380 213
f 213 380 381
f 213 381 382
f 213 382 383
f 213 383 214
f 214 383 215
f 215 383 216
f 216 383 384
f 216 384 217
f 217 384 218
f 218 384 385
f 218 385 220
f 218 220 219
f 220 385 386
f 220 386 221
f 221 387 388
f 221 388 389
f 221 389 222
f 221 386 387
f 222 389 223
f 223 390 391
f 223 391 224
f 223 389 392
f 223 392 390
f 224 391 393
f 224 393 225
f 225 393 394
f 225 394 226
f 226 394 227
f 227 395 396
f 227 396 228
f 227 394 393
f 227 393 397
f 227 397 395
f 228 396 398
f 228 398 229
f 229 398 230
f 230 399 231
f 230 398 399
f 231 399 400
f 231 400 232
f 232 400 401
f 232 401 402
f 232 402 233
f 233 402 234
f 234 403 404
f 234 404 235
f 234 402 405
f 234 405 403
f 235 404 236
f 236 406 237
f 236 404 406
f 237 407 238
f 237 406 407
f 238 407 239
f 239 407 408
f 239 408 240
f 240 409 410
f 240 410 241
f 240 408 409
f 241 410 411
f 241 411 412
f 241 412 413
f 241 413 242
f 242 413 243
f 243 413 244
f 244 413 245
f 245 412 414
f 245 414 246
f 245 413 412
f 246 414 247
f 247 414 415
f 247 415 248
f 248 415 416
f 248 416 417
f 248 417 418
f 248 418 419
f 248 419 420
f 248 420 421
f 248 421 249
f 249 421 250
f 250 421 422
f 250 422 423
f 250 423 424
f 250 424 251
f 251 424 425
f 251 425 426
f 251 426 427
f 251 427 252
f 252 427 428
f 252 428 429
f 252 429 308
f 252 308 253
f 253 307 430
f 253 430 431
f 253 431 432
f 253 432 433
f 254 372 255
f 255 372 434
f 255 434 257
f 255 257 256
f 257 434 260
f 258 435 259
f 258 260 436
f 258 436 435
f 259 435 261
f 260 434 373
f 260 373 436
f 261 367 437
f 261 437 262
f 261 435 367
f 262 437 266
f 263 266 438
f 263 438 365
f 263 365 364
f 263 364 264
f 264 364 362
f 264 362 361
f 264 361 439
f 264 439 267
f 264 267 265
f 266 437 438
f 267 439 268
f 268 359 440
f 268 440 269
f 268 439 359
f 269 440 270
f 270 440 441
f 270 441 271
f 271 441 272
f 272 442 443
f 272 443 273
f 272 441 442
f 273 443 444
f 273 444 275
f 273 275 274
f 275 444 276
f 276 444 277
f 277 444 445
f 277 445 446
f 277 446 278
f 278 280 279
f 278 446 447
f 278 447 280
f 280 447 448
f 280 448 281
f 281 448 351
f 281 351 282
f 282 350 283
f 283 350 284
f 284 350 343
f 284 346 285
f 285 346 286
f 286 346 345
f 286 345 344
f 286 344 287
f 287 344 449
f 287 449 339
f 287 339 288
f 288 339 338
f 288 338 450
f 288 450 432
f 289 451 290
f 289 331 451
f 290 451 291
f 291 452 292
f 291 451 452
f 292 452 293
f 293 453 390
f 293 390 454
f 293 454 294
f 293 452 453
f 294 454 295
f 295 454 297
f 296 301 379
f 296 379 302
f 297 454 392
f 297 392 455
f 297 455 456
f 297 456 457
f 297 457 298
f 298 458 459
f 298 459 299
f 298 457 460
f 298 460 461
f 298 461 458
f 299 378 300
f 299 459 380
f 299 380 378
f 300 378 377
f 300 377 301
f 301 377 379
f 302 375 303
f 302 379 375
f 303 374 304
f 303 375 374
f 308 429 462
f 308 462 463
f 308 463 309
f 309 463 310
f 310 463 464
f 310 464 311
f 311 465 466
f 311 466 312
f 311 464 465
f 312 466 467
f 312 467 468
f 312 468 313
f 313 468 314
f 314 468 469
f 314 469 315
f 315 469 418
f 315 418 470
f 315 470 471
f 315 471 316
f 316 471 472
f 316 472 473
f 316 473 317
f 317 474 318
f 317 473 475
f 317 475 476
f 317 476 474
f 318 474 319
f 319 409 320
f 319 474 411
f 319 411 410
f 319 410 409
f 320 408 477
f 320 477 478
f 320 478 322
f 320 322 321
f 320 409 408
f 322 478 323
f 323 478 479
f 323 479 324
f 324 326 325
f 324 479 326
f 326 480 327
f 326 479 481
f 326 481 480
f 327 480 482
f 327 482 329
f 327 329 328
f 329 482 483
f 329 483 484
f 329 484 330
f 330 484 485
f 330 485 486
f 330 486 331
f 331 486 451
f 333 487 335
f 333 334 488
f 333 488 487
f 335 487 450
f 335 450 489
f 335 489 336
f 336 489 337
f 337 489 338
f 338 489 450
f 339 449 340
f 340 449 342
f 341 342 344
f 342 449 344
f 347 448 490
f 347 490 348
f 347 351 448
f 348 490 349
f 349 490 352
f 352 490 448
f 352 448 447
f 352 447 446
f 352 446 491
f 352 491 353
f 353 491 354
f 354 491 443
f 354 443 355
f 355 357 356
f 355 443 442
f 355 442 357
f 357 440 358
f 357 442 440
f 358 440 359
f 359 439 361
f 359 361 360
f 362 364 363
f 365 438 366
f 366 438 437
f 366 437 367
f 367 435 369
f 367 369 368
f 369 435 370
f 370 435 436
f 370 436 371
f 371 436 373
f 372 373 434
f 380 459 381
f 381 459 458
f 381 458 382
f 382 492 493
f 382 493 383
f 382 458 492
f 383 493 384
f 384 493 385
f 385 494 495
f 385 495 386
f 385 493 494
f 386 495 387
f 387 456 455
f 387 455 388
f 387 495 456
f 388 392 389
f 388 455 392
f 390 453 397
f 390 397 391
f 390 392 454
f 391 397 393
f 395 452 496
f 395 496 396
f 395 397 453
f 395 453 452
f 396 496 497
f 396 497 398
f 398 497 485
f 398 485 399
f 399 485 400
f 400 485 484
f 400 484 401
f 401 482 402
f 401 484 483
f 401 483 482
f 402 482 405
f 403 405 480
f 403 480 481
f 403 481 498
f 403 498 404
f 404 498 406
f 405 482 480
f 406 498 407
f 407 498 477
f 407 477 408
f 411 474 476
f 411 476 499
f 411 499 500
f 411 500 412
f 412 500 414
f 414 500 415
f 415 500 499
f 415 499 416
f 416 472 417
f 416 499 472
f 417 471 470
f 417 470 418
f 417 472 471
f 418 469 419
f 419 469 468
f 419 468 501
f 419 501 420
f 420 502 421
f 420 501 503
f 420 503 502
f 421 502 422
f 422 502 423
f 423 502 504
f 423 504 424
f 424 504 425
f 425 504 503
f 425 503 467
f 425 467 466
f 425 466 426
f 426 428 427
f 426 466 465
f 426 465 505
f 426 505 429
f 426 429 428
f 429 505 462
f 432 450 506
f 432 506 488
f 432 488 507
f 432 507 433
f 440 442 441
f 443 491 444
f 444 491 445
f 445 491 446
f 450 487 506
f 451 508 452
f 451 486 508
f 452 508 496
f 456 495 457
f 457 495 509
f 457 509 460
f 458 461 492
f 460 509 461
f 461 509 510
f 461 510 492
f 462 511 463
f 462 505 511
f 463 511 464
f 464 511 465
f 465 511 505
f 467 503 501
f 467 501 468
f 472 499 512
f 472 512 473
f 473 476 475
f 473 512 476
f 476 512 499
f 477 498 481
f 477 481 479
f 477 479 478
f 485 497 496
f 485 496 486
f 486 496 508
f 487 488 506
f 492 510 493
f 493 510 494
f 494 510 509
f 494 509 495
f 502 503 504

