# https://github.com/mikedh/trimesh
v 0.50324696 0.07856216 0.05043060
v 0.49732959 0.10869427 0.02369933
v 0.49847329 0.11505279 0.06150617
v 0.50319725 0.07961516 0.09523254
v 0.49608648 0.07333764 0.15860480
v 0.49215814 0.07471465 -0.03875691
v 0.49673289 0.08763419 -0.00411451
v 0.48887625 0.13813788 0.00837673
v 0.48857790 0.14947793 0.03993795
v 0.48763311 0.12027732 -0.02634893
v 0.49300349 0.13927189 0.07532982
v 0.49906999 0.10764126 0.10297711
v 0.50175524 0.07933167 0.12029830
v 0.49369964 0.12035832 0.12854253
v 0.48793146 0.11152928 0.16651592
v 0.48678780 0.08078967 0.19116531
v 0.47733992 0.07941267 0.21914570
v 0.46585327 0.07260863 0.24804214
v 0.30225590 0.06827512 0.40626457
v 0.38673979 0.07046214 -0.24303043
v 0.44581383 0.07491715 -0.15950562
v 0.48201412 0.08087067 -0.07764632
v 0.48276001 0.11331129 -0.05691085
v 0.48186493 0.14992343 -0.01985349
v 0.47460499 0.18467255 0.00679451
v 0.47127336 0.20192561 0.03993795
v 0.48216331 0.17337301 0.06800162
v 0.47599733 0.14542791 -0.05274710
v 0.48832929 0.15190792 0.09989593
v 0.48012453 0.16539448 0.12920873
v 0.47873223 0.14611641 0.16243544
v 0.47276515 0.12542084 0.20274054
v 0.46550518 0.11351378 0.22905543
v 0.45302406 0.10707426 0.25653619
v 0.44884712 0.08018216 0.27518976
v 0.42875797 0.07896717 0.30516875
v 0.37092701 0.07609165 0.36346126
v 0.33741194 0.07495765 0.38719460
v 0.29395172 0.19621509 0.37070617
v 0.27082929 0.18361954 0.38486290
v 0.23602134 0.18912756 0.39602175
v 0.26103333 0.06827512 0.41825619
v -0.00475025 0.06827512 0.36362779
v 0.21816982 0.06997614 -0.37218991
v 0.31921235 0.07601066 -0.30690235
v 0.35610878 0.08155917 -0.27275959
v 0.37381110 0.09484322 -0.25185758
v 0.38480049 0.11610579 -0.23403673
v 0.40498906 0.08192368 -0.21804793
v 0.42522740 0.08313867 -0.19015081
v 0.43442667 0.11760430 -0.16408575
v 0.44830012 0.10160674 -0.14626491
v 0.46366537 0.08556868 -0.12178206
v 0.47430664 0.09986524 -0.09296892
v 0.47231761 0.12926835 -0.08089405
v 0.46644998 0.18495604 -0.04217118
v 0.46102989 0.21290115 -0.01685559
v 0.46038347 0.22663070 0.01745371
v 0.45899114 0.23501423 0.06367132
v 0.46828985 0.21107864 0.07741169
v 0.47853333 0.18046054 0.09989593
v 0.46207413 0.17341352 -0.07206690
v 0.45272571 0.23744425 0.12637737
v 0.45531145 0.22015068 0.15011075
v 0.46580356 0.19159807 0.15152642
v 0.45680320 0.19289407 0.18025629
v 0.45556009 0.16446298 0.21048510
v 0.44427234 0.16818899 0.23105402
v 0.44825041 0.13323736 0.24937451
v 0.43054807 0.11335179 0.28676498
v 0.40886769 0.08828220 0.32448855
v 0.39171234 0.07945317 0.34472439
v 0.33900315 0.21703216 0.33389863
v 0.31349391 0.21039015 0.35496721
v 0.28002852 0.23626974 0.35929748
v 0.26346990 0.21978618 0.37428698
v 0.22846304 0.22209468 0.38536257
v 0.20981592 0.18928957 0.40226740
v 0.16501310 0.18240455 0.41009524
v 0.22756797 0.06827512 0.42233667
v 0.12284575 0.06827512 0.41001195
v -0.00475025 0.11983182 0.39302385
v -0.00475025 0.42406893 -0.18790239
v -0.00047384 0.26895335 -0.35386944
v 0.00449872 0.11630830 -0.42073923
v 0.01469247 0.08095168 -0.42840055
v 0.04984851 0.07669915 -0.42473644
v 0.10951929 0.07236564 -0.41274485
v 0.14134370 0.07212263 -0.40300167
v 0.17098019 0.08115417 -0.39117661
v 0.19450042 0.08743170 -0.38060069
v 0.21687695 0.09739473 -0.36894220
v 0.24706043 0.08431318 -0.35545164
v 0.27629912 0.08240968 -0.33746424
v 0.31533372 0.11946732 -0.30098981
v 0.33442840 0.10087775 -0.28933132
v 0.29534402 0.09703022 -0.32180855
v 0.34780461 0.13088836 -0.26826274
v 0.37818694 0.16535398 -0.22312771
v 0.39618766 0.14668341 -0.20888768
v 0.40434265 0.12100631 -0.20847131
v 0.35322469 0.16446298 -0.25169104
v 0.42005596 0.12967335 -0.18215641
v 0.42065266 0.16559699 -0.16333628
v 0.44442153 0.13153635 -0.14018583
v 0.46088070 0.12979485 -0.10970718
v 0.45919004 0.15575545 -0.09563372
v 0.45232791 0.22217569 -0.04133843
v 0.45078641 0.19479759 -0.08339229
v 0.44218385 0.26162285 -0.00003404
v 0.44641054 0.25939533 0.02744670
v 0.44143799 0.27146438 0.07774479
v 0.45322296 0.24436978 0.10081196
v 0.43915060 0.26834586 0.11846626
v 0.43512285 0.26097482 0.15335847
v 0.44253194 0.22954671 0.17759149
v 0.44213414 0.20492262 0.20415621
v 0.42816123 0.19913110 0.23638363
v 0.40459126 0.21367066 0.26378110
v 0.38196611 0.21233416 0.29442629
v 0.35287660 0.23059972 0.31499520
v 0.32557723 0.25344181 0.32315615
v 0.30225590 0.24149425 0.34522402
v 0.23472847 0.24748828 0.37028980
v 0.25974047 0.26518685 0.34988743
v 0.18704157 0.24651627 0.38461310
v 0.17366537 0.21772067 0.39943603
v 0.11081216 0.19937411 0.40992868
v 0.13781318 0.18418655 0.41142765
v 0.11871853 0.23464973 0.40101826
v 0.18932895 0.06827512 0.42208683
v 0.09693870 0.16879649 0.41400915
v 0.15014514 0.06827512 0.41717359
v -0.00475025 0.15012592 0.40351650
v -0.00475025 0.28029341 0.38844374
v -0.00226396 0.47748864 0.07982667
v 0.00027204 0.46367806 -0.08963792
v 0.01260400 0.45136601 -0.13069248
v 0.00981936 0.43694797 -0.16541815
v 0.02896373 0.42171991 -0.19839504
v 0.00071956 0.40726137 -0.21863087
v 0.00221133 0.37903276 -0.25727046
v 0.00047094 0.35781068 -0.28042090
v 0.00017259 0.32055056 -0.31539640
v 0.00370310 0.30042198 -0.33205140
v 0.02881455 0.28377640 -0.34512556
v 0.01693013 0.24967529 -0.36669376
v 0.01011771 0.20872964 -0.38759580
v 0.00390200 0.17580302 -0.40116963
v 0.01036635 0.14984243 -0.41024658
v 0.03135057 0.13060485 -0.41457689
v 0.05258341 0.10265975 -0.41890720
v 0.07998225 0.08135667 -0.41857409
v 0.12026003 0.09747574 -0.40574974
v 0.15004569 0.09937924 -0.39600655
v 0.17475933 0.11132678 -0.38493100
v 0.19683751 0.13190086 -0.37152371
v 0.23368423 0.13052385 -0.35420254
v 0.27107790 0.11501229 -0.33538237
v 0.28783545 0.13011885 -0.32014307
v 0.29345447 0.15595794 -0.30773509
v 0.32632309 0.16478698 -0.27684006
v 0.34581557 0.19297507 -0.24669454
v 0.36684951 0.20617813 -0.21579951
v 0.39325383 0.19248909 -0.18948461
v 0.41931009 0.19864510 -0.14509906
v 0.44457072 0.16632599 -0.12019984
v 0.43731076 0.20577313 -0.10587654
v 0.43666434 0.23768725 -0.07264982
v 0.43586871 0.25660083 -0.04525235
v 0.43442667 0.26899385 -0.02285139
v 0.42617220 0.29211944 0.01245721
v 0.43094587 0.28924394 0.04143690
v 0.41582927 0.31111401 0.05992395
v 0.41483477 0.30981800 0.09115206
v 0.42716673 0.28964895 0.10814016
v 0.41662490 0.29106644 0.15077695
v 0.41274628 0.27826840 0.18516952
v 0.42572469 0.25052580 0.19424649
v 0.42497879 0.22675221 0.21914570
v 0.39966846 0.24720478 0.24521077
v 0.37341329 0.24230427 0.28476638
v 0.34293148 0.26781934 0.29775730
v 0.30325040 0.27531189 0.32132411
v 0.32721817 0.29110694 0.28976288
v 0.16531146 0.27381337 0.37620232
v 0.21329671 0.27057338 0.36337796
v 0.26610535 0.29872096 0.32099101
v 0.24288347 0.29029694 0.33847874
v 0.12881283 0.28547743 0.37911695
v 0.14382997 0.25502130 0.39060888
v 0.11936496 0.26291883 0.39135838
v 0.07878883 0.23456873 0.40260050
v -0.00475025 0.22233769 0.40260050
v 0.08381112 0.25915232 0.39585522
v 0.08505426 0.14502290 0.41434225
v -0.00475025 0.19018057 0.40584821
v 0.01011771 0.25943583 0.39518902
v 0.05690955 0.27369186 0.39102527
v 0.07003713 0.30106997 0.37886712
v 0.00514515 0.31249103 0.37320441
v 0.00017259 0.35104716 0.34464109
v 0.00425009 0.40762585 0.28285107
v 0.00579159 0.46481207 0.15627310
v 0.01016743 0.47339809 0.11954883
v 0.02359337 0.47870362 0.09498271
v 0.02961017 0.48178163 0.06017377
v 0.00971991 0.48085013 0.03619058
v 0.00698499 0.47991863 0.00812691
v 0.00996853 0.47809613 -0.01877091
v 0.01011771 0.47331709 -0.04991575
v 0.02563211 0.46780908 -0.07981147
v 0.05914721 0.45736003 -0.11420403
v 0.06158376 0.44557452 -0.14734748
v 0.05934611 0.43087295 -0.18040764
v 0.07481079 0.41386288 -0.20963717
v 0.03005770 0.40843588 -0.22121239
v 0.02006285 0.39503032 -0.24003252
v 0.04666607 0.37911376 -0.26051816
v 0.03030632 0.36113170 -0.27983797
v 0.01031661 0.33845162 -0.30024034
v 0.03005770 0.31403002 -0.32264131
v 0.07237422 0.27373236 -0.34887293
v 0.04736222 0.25064731 -0.36569446
v 0.07968390 0.30584899 -0.32538939
v 0.04641744 0.21010664 -0.38568047
v 0.03880942 0.17191499 -0.40075323
v 0.06695414 0.15818545 -0.40200236
v 0.07505941 0.12708133 -0.40924728
v 0.09808239 0.13809738 -0.40216893
v 0.12901175 0.13145536 -0.39600655
v 0.15909576 0.13757087 -0.38484773
v 0.17003539 0.16004845 -0.37493801
v 0.20867223 0.16596147 -0.35711715
v 0.23393285 0.16215447 -0.34587502
v 0.26003882 0.14473940 -0.33521584
v 0.26302236 0.17790902 -0.32264131
v 0.29519486 0.18463205 -0.29557693
v 0.31215131 0.19892859 -0.27509129
v 0.32199699 0.21662717 -0.25810319
v 0.34283203 0.22735971 -0.23028935
v 0.36113107 0.23683675 -0.20305844
v 0.38758510 0.22606370 -0.17532787
v 0.40036458 0.24052225 -0.14526561
v 0.42129910 0.23367773 -0.11378766
v 0.41334301 0.26988485 -0.08705639
v 0.40951413 0.29296994 -0.05582828
v 0.42184609 0.29037794 -0.01835454
v 0.40454155 0.31941655 0.00887638
v 0.41528231 0.31042552 0.02986168
v 0.39340299 0.33577859 0.07832772
v 0.38997194 0.33833012 0.04035433
v 0.40707755 0.31147853 0.12970838
v 0.39136428 0.30965602 0.18000646
v 0.39489478 0.28207541 0.21664746
v 0.38703811 0.26895335 0.24346200
v 0.36078298 0.27320588 0.27344099
v 0.34845102 0.30216348 0.25645289
v 0.29340473 0.30297348 0.30233741
v 0.31065953 0.31103301 0.28168520
v 0.32716843 0.32419556 0.25120658
v 0.15745482 0.30305448 0.36062989
v 0.26043662 0.32391205 0.30008897
v 0.22776687 0.32990608 0.31024852
v 0.20146200 0.33444211 0.31807637
v 0.16312353 0.32261604 0.34405819
v 0.09629226 0.28495091 0.38486290
v 0.13159747 0.31504253 0.36021352
v 0.09808239 0.31358451 0.36862430
v 0.07202615 0.32415506 0.36429399
v 0.02379227 0.33739862 0.35555011
v 0.03005770 0.36186069 0.33481464
v 0.00728336 0.37619776 0.32149065
v 0.01011771 0.39308631 0.30258724
v 0.03756627 0.40766639 0.28310090
v 0.01011771 0.42419043 0.25786856
v 0.00887458 0.43881097 0.22947180
v 0.01384714 0.45132554 0.20032556
v 0.03627340 0.45760304 0.18533607
v 0.03035605 0.47056311 0.13920173
v 0.04880427 0.47846061 0.09781406
v 0.05631284 0.47368163 0.12479515
v 0.06004226 0.48141712 0.05867482
v 0.05054466 0.48202464 0.02128435
v 0.06148431 0.47878462 -0.00819499
v 0.04880427 0.47562563 -0.03800743
v 0.06118596 0.46789008 -0.07506479
v 0.09683925 0.45213553 -0.12086604
v 0.09067327 0.44132197 -0.15226071
v 0.10728163 0.42868596 -0.17549442
v 0.12011085 0.39891833 -0.22071274
v 0.07754569 0.38522929 -0.25027537
v 0.05253369 0.39786533 -0.23636843
v 0.14029947 0.41317439 -0.19181632
v 0.07819213 0.36708522 -0.27067772
v 0.05830187 0.34359515 -0.29632643
v 0.08142430 0.33140460 -0.30482048
v 0.11444212 0.29746547 -0.32430682
v 0.11314926 0.26814336 -0.34395972
v 0.09609336 0.24655677 -0.36094779
v 0.07505941 0.23274623 -0.37210664
v 0.07495996 0.19455460 -0.38867837
v 0.11712731 0.17244151 -0.38767907
v 0.14810640 0.17871903 -0.37660348
v 0.17744452 0.18900606 -0.36219692
v 0.22085501 0.19544560 -0.34046215
v 0.23999938 0.22541571 -0.31631240
v 0.26794520 0.20075111 -0.30973369
v 0.29439923 0.24137276 -0.26784638
v 0.31861565 0.24785279 -0.24169803
v 0.33487591 0.26190633 -0.21371764
v 0.35919178 0.25890931 -0.18723619
v 0.38281143 0.25583130 -0.15784013
v 0.39733136 0.27004686 -0.11920054
v 0.38450211 0.29143095 -0.11387093
v 0.38683921 0.31087101 -0.07506479
v 0.40096131 0.31261253 -0.03226146
v 0.38664031 0.33553562 -0.00294866
v 0.37117565 0.35594767 0.07741169
v 0.38012627 0.34302813 0.11363631
v 0.35973874 0.36433122 0.03993795
v 0.36829156 0.35428718 0.00796036
v 0.37405974 0.33638611 0.15660620
v 0.34999251 0.33521160 0.20657118
v 0.37684435 0.31208602 0.20324019
v 0.37261769 0.29309145 0.23696655
v 0.34601447 0.32447907 0.22947180
v 0.29260913 0.33112109 0.27152568
v 0.30688038 0.35416567 0.22622408
v 0.25113794 0.35104716 0.27435702
v 0.20578814 0.35821569 0.29201132
v 0.17754397 0.34327114 0.32015824
v 0.14586873 0.35116866 0.32490492
v 0.11314926 0.35060167 0.33573067
v 0.07555667 0.35205966 0.34072718
v 0.06252855 0.37559026 0.31932551
v 0.04005255 0.38555330 0.31058162
v 0.06670550 0.39936385 0.29159492
v 0.05129056 0.42366391 0.25836822
v 0.04880427 0.43727198 0.23421848
v 0.04756112 0.44832850 0.21023528
v 0.08003198 0.45245951 0.19599526
v 0.06630769 0.46258456 0.16776504
v 0.08962902 0.47700262 0.08340749
v 0.08903232 0.46853811 0.14003448
v 0.09017600 0.47886562 0.04976440
v 0.09256284 0.47833914 0.02486518
v 0.09877855 0.47445112 -0.01244201
v 0.09400488 0.46740407 -0.06357285
v 0.10986736 0.45865607 -0.09230272
v 0.13214445 0.44776154 -0.11945036
v 0.11603335 0.44172698 -0.14360011
v 0.14741023 0.42682293 -0.16391920
v 0.15854877 0.38769978 -0.22229496
v 0.11369623 0.36663973 -0.26318297
v 0.18017943 0.41272891 -0.17208014
v 0.17356592 0.39656931 -0.20280862
v 0.10091674 0.34493163 -0.28866512
v 0.13134885 0.32115805 -0.30157274
v 0.13965303 0.28920344 -0.32280785
v 0.14179122 0.25263181 -0.34520882
v 0.12508342 0.23416373 -0.36036488
v 0.11066298 0.21249616 -0.37402198
v 0.14929980 0.21286066 -0.36294639
v 0.17282003 0.22841272 -0.34720743
v 0.20757827 0.22565870 -0.33338377
v 0.21235192 0.25870681 -0.31281486
v 0.24984506 0.24598977 -0.29790863
v 0.27222160 0.26137984 -0.27242649
v 0.29524457 0.27239588 -0.24527885
v 0.31598017 0.27968588 -0.21838103
v 0.34228504 0.28118441 -0.18690309
v 0.36754566 0.28369540 -0.15034537
v 0.36575556 0.30179897 -0.13002628
v 0.37197125 0.31508303 -0.09696612
v 0.35277715 0.34209663 -0.07814597
v 0.37420893 0.33545461 -0.04583528
v 0.36068353 0.35448968 -0.02076951
v 0.34835157 0.37376773 0.06991694
v 0.35745138 0.36493871 0.09706458
v 0.35063896 0.36530322 0.12379585
v 0.33099732 0.38567477 0.04993095
v 0.34059438 0.37688625 0.01853628
v 0.32632309 0.37907326 -0.02751478
v 0.34959471 0.34699714 0.18142214
v 0.33845615 0.36591071 0.15310864
v 0.31896371 0.36339971 0.19291408
v 0.28037661 0.35521868 0.24779230
v 0.26033717 0.38587728 0.21598126
v 0.27913347 0.38628229 0.19416322
v 0.24621509 0.37575224 0.24421148
v 0.20583786 0.37571174 0.27060965
v 0.17117909 0.36574870 0.29992244
v 0.17013484 0.38324478 0.27968663
v 0.13756454 0.37445626 0.30325344
v 0.09902717 0.38401428 0.30425274
v 0.10046922 0.40624887 0.27635562
v 0.11518800 0.42078841 0.25004071
v 0.09087217 0.43540895 0.23122057
v 0.11404432 0.45254052 0.18350402
v 0.10847504 0.47080609 0.11013876
v 0.12200043 0.47104910 0.08882036
v 0.12841503 0.47238559 0.05034732
v 0.11951414 0.46015456 0.15435778
v 0.11628197 0.47412711 0.01304013
v 0.13552579 0.46946961 -0.00769534
v 0.13114995 0.46473110 -0.05074850
v 0.14079672 0.45691454 -0.08122715
v 0.16327271 0.44452149 -0.10762531
v 0.15347676 0.43646199 -0.13918653
v 0.18052751 0.37615725 -0.22637543
v 0.16272573 0.37097323 -0.24111511
v 0.14054808 0.36060518 -0.26135093
v 0.15665920 0.34436464 -0.27300942
v 0.19748396 0.39260030 -0.19281562
v 0.20399801 0.42155790 -0.13310745
v 0.22209816 0.40519586 -0.14901298
v 0.16451585 0.30507949 -0.30290514
v 0.17406318 0.26190633 -0.32838729
v 0.19181523 0.28750244 -0.30448738
v 0.24412662 0.27223387 -0.28516757
v 0.25969073 0.29211944 -0.25935233
v 0.27426034 0.31265301 -0.22904024
v 0.29574183 0.30187997 -0.21821448
v 0.32060465 0.30576798 -0.18632017
v 0.33572125 0.31026351 -0.16175406
v 0.34939581 0.32488406 -0.11936709
v 0.31841671 0.33087808 -0.15684083
v 0.33104706 0.34902215 -0.10437759
v 0.30668148 0.37785825 -0.08089405
v 0.35441810 0.35173565 -0.04908300
v 0.31274801 0.39770332 0.07241520
v 0.32696953 0.38591778 0.10064541
v 0.32025659 0.38486478 0.12845926
v 0.31816810 0.39251930 0.02128435
v 0.29166433 0.40920538 0.01978540
v 0.29052064 0.40628937 -0.00952739
v 0.32413518 0.37202623 -0.05924255
v 0.28778574 0.39523283 -0.06781987
v 0.28430495 0.40576285 -0.03367713
v 0.30280289 0.38405478 0.16659920
v 0.23562352 0.39450383 0.22164395
v 0.25377339 0.40013334 0.19249772
v 0.26615506 0.40624887 0.16018702
v 0.22160089 0.38757831 0.24387838
v 0.18291435 0.39669085 0.25395465
v 0.14552066 0.41596889 0.24404493
v 0.12876311 0.40098384 0.27385736
v 0.12443698 0.43261445 0.22522478
v 0.17311838 0.44229400 0.16426750
v 0.15153745 0.45217603 0.15269227
v 0.15312868 0.43662399 0.19757749
v 0.13194555 0.46323258 0.12504497
v 0.14750968 0.46481207 0.09365031
v 0.15526688 0.46606758 0.05992395
v 0.16073671 0.46546006 0.02428225
v 0.17545550 0.45979005 -0.01294166
v 0.15253198 0.46424508 -0.02743151
v 0.16446613 0.45630705 -0.05999203
v 0.18962730 0.44533151 -0.07456515
v 0.20006970 0.43297896 -0.10437759
v 0.19300865 0.35052067 -0.24919277
v 0.21901517 0.37745327 -0.19864486
v 0.18077615 0.33051360 -0.27509129
v 0.24387799 0.38207027 -0.16916552
v 0.23278916 0.41293138 -0.11803468
v 0.25983992 0.38470277 -0.14451613
v 0.20568869 0.30321649 -0.28533411
v 0.23045206 0.31026351 -0.26518157
v 0.24865165 0.32213005 -0.24178131
v 0.23830871 0.34525564 -0.22470993
v 0.27963072 0.33509010 -0.19764556
v 0.30026686 0.32383105 -0.18898498
v 0.30901858 0.34881964 -0.14160150
v 0.28445411 0.35003465 -0.17232998
v 0.30359849 0.36506021 -0.11878416
v 0.26446441 0.40641087 -0.08131042
v 0.28336015 0.38150328 -0.11595281
v 0.28340986 0.41390339 0.08340749
v 0.26794520 0.42350191 0.05426124
v 0.29385227 0.40414286 0.11147115
v 0.28206730 0.40410236 0.13911845
v 0.25874597 0.42694443 0.01362306
v 0.24939753 0.42645842 -0.03067923
v 0.25809953 0.41617140 -0.05832652
v 0.23065096 0.41374141 0.18442003
v 0.20867223 0.40620837 0.22056139
v 0.24268457 0.42147690 0.14669648
v 0.16973704 0.41519940 0.23122057
v 0.17963246 0.43212846 0.18700156
v 0.20056695 0.43050843 0.17109604
v 0.18982621 0.44245601 0.14453132
v 0.16625625 0.45691454 0.11088824
v 0.19052237 0.45254052 0.08965311
v 0.19499767 0.45432252 0.05859154
v 0.20683238 0.45112303 0.02977840
v 0.21071097 0.44755900 -0.00769534
v 0.19643971 0.44881451 -0.04425306
v 0.21926379 0.43605697 -0.05924255
v 0.24129225 0.41641438 -0.09321874
v 0.22120309 0.33116159 -0.25235724
v 0.25685638 0.35987619 -0.18906824
v 0.28266400 0.36445272 -0.15142795
v 0.25765198 0.39790583 -0.11803468
v 0.24536976 0.43058944 0.09631511
v 0.26506111 0.41864192 0.11363631
v 0.24954671 0.43164247 0.06991694
v 0.23741364 0.43836546 0.03993795
v 0.22776687 0.43435597 0.11755023
v 0.21369451 0.43451798 0.14178325
v 0.19325727 0.44678950 0.11879936
v 0.22284403 0.44213200 0.07857754
f 1 2 3
f 1 3 4
f 1 4 5
f 1 5 6
f 1 6 7
f 1 7 2
f 2 8 9
f 2 9 3
f 2 7 10
f 2 10 8
f 3 11 12
f 3 12 4
f 3 9 11
f 4 12 13
f 4 13 5
f 5 13 14
f 5 14 15
f 5 15 16
f 5 16 17
f 5 17 18
f 5 18 19
f 5 19 20
f 5 20 6
f 6 20 21
f 6 21 22
f 6 22 23
f 6 23 10
f 6 10 7
f 8 10 24
f 8 24 25
f 8 25 9
f 9 25 26
f 9 26 27
f 9 27 11
f 10 23 28
f 10 28 24
f 11 27 29
f 11 29 12
f 12 29 14
f 12 14 13
f 14 29 30
f 14 30 31
f 14 31 15
f 15 31 32
f 15 32 16
f 16 32 17
f 17 33 18
f 17 32 33
f 18 33 34
f 18 34 35
f 18 35 36
f 18 36 37
f 18 37 19
f 19 38 39
f 19 39 40
f 19 40 41
f 19 41 42
f 19 42 80
f 19 80 131
f 19 131 133
f 19 133 81
f 19 81 43
f 19 43 44
f 19 44 20
f 19 37 38
f 20 44 45
f 20 45 46
f 20 46 47
f 20 47 48
f 20 48 49
f 20 49 50
f 20 50 21
f 21 50 51
f 21 51 52
f 21 52 53
f 21 53 22
f 22 54 23
f 22 53 54
f 23 54 55
f 23 55 28
f 24 28 56
f 24 56 25
f 25 56 57
f 25 57 58
f 25 58 26
f 26 58 59
f 26 59 60
f 26 60 27
f 27 60 61
f 27 61 29
f 28 55 62
f 28 62 56
f 29 61 30
f 30 63 64
f 30 64 65
f 30 65 31
f 30 61 63
f 31 66 32
f 31 65 66
f 32 66 67
f 32 67 33
f 33 68 69
f 33 69 34
f 33 67 68
f 34 69 70
f 34 70 35
f 35 70 36
f 36 70 71
f 36 71 72
f 36 72 37
f 37 72 73
f 37 73 74
f 37 74 38
f 38 74 39
f 39 74 75
f 39 75 76
f 39 76 40
f 40 76 41
f 41 76 77
f 41 77 78
f 41 78 42
f 42 79 80
f 42 78 79
f 43 81 82
f 43 82 134
f 43 134 197
f 43 197 194
f 43 194 135
f 43 135 83
f 43 83 84
f 43 84 85
f 43 85 86
f 43 86 87
f 43 87 88
f 43 88 44
f 44 88 89
f 44 89 90
f 44 90 91
f 44 91 92
f 44 92 93
f 44 93 94
f 44 94 45
f 45 95 96
f 45 96 46
f 45 94 97
f 45 97 95
f 46 96 47
f 47 96 98
f 47 98 48
f 48 99 100
f 48 100 101
f 48 101 49
f 48 98 102
f 48 102 99
f 49 101 50
f 50 101 103
f 50 103 51
f 51 104 105
f 51 105 52
f 51 103 104
f 52 105 106
f 52 106 53
f 53 106 54
f 54 106 55
f 55 106 107
f 55 107 62
f 56 108 57
f 56 62 109
f 56 109 108
f 57 110 58
f 57 108 110
f 58 111 59
f 58 110 111
f 59 112 113
f 59 113 60
f 59 111 112
f 60 113 61
f 61 113 63
f 62 107 109
f 63 114 115
f 63 115 64
f 63 113 114
f 64 115 116
f 64 116 66
f 64 66 65
f 66 116 117
f 66 117 67
f 67 117 68
f 68 118 69
f 68 117 118
f 69 118 119
f 69 119 70
f 70 119 120
f 70 120 71
f 71 120 121
f 71 121 72
f 72 121 73
f 73 122 74
f 73 121 122
f 74 122 123
f 74 123 75
f 75 124 76
f 75 123 125
f 75 125 124
f 76 124 77
f 77 126 127
f 77 127 78
f 77 124 126
f 78 127 79
f 79 128 129
f 79 129 80
f 79 127 130
f 79 130 128
f 80 129 132
f 80 132 131
f 81 133 134
f 81 134 82
f 83 135 136
f 83 136 137
f 83 137 138
f 83 138 139
f 83 139 140
f 83 140 141
f 83 141 142
f 83 142 143
f 83 143 144
f 83 144 84
f 84 144 145
f 84 145 146
f 84 146 147
f 84 147 148
f 84 148 149
f 84 149 85
f 85 149 150
f 85 150 151
f 85 151 86
f 86 151 152
f 86 152 87
f 87 152 153
f 87 153 88
f 88 153 154
f 88 154 89
f 89 154 155
f 89 155 90
f 90 155 156
f 90 156 91
f 91 157 92
f 91 156 157
f 92 157 158
f 92 158 93
f 93 158 159
f 93 159 94
f 94 159 97
f 95 97 160
f 95 160 161
f 95 161 162
f 95 162 98
f 95 98 96
f 97 159 160
f 98 162 102
f 99 102 163
f 99 163 164
f 99 164 165
f 99 165 100
f 100 165 104
f 100 104 103
f 100 103 101
f 102 162 163
f 104 165 166
f 104 166 167
f 104 167 105
f 105 167 106
f 106 167 107
f 107 167 168
f 107 168 109
f 108 109 169
f 108 169 170
f 108 170 110
f 109 168 169
f 110 170 171
f 110 171 172
f 110 172 173
f 110 173 111
f 111 173 112
f 112 173 174
f 112 174 175
f 112 175 176
f 112 176 114
f 112 114 113
f 114 177 115
f 114 176 177
f 115 177 178
f 115 178 179
f 115 179 116
f 116 179 117
f 117 179 180
f 117 180 118
f 118 180 181
f 118 181 119
f 119 182 120
f 119 181 182
f 120 182 121
f 121 182 183
f 121 183 122
f 122 184 123
f 122 183 185
f 122 185 184
f 123 184 125
f 124 186 126
f 124 125 187
f 124 187 186
f 125 184 188
f 125 188 189
f 125 189 187
f 126 190 191
f 126 191 127
f 126 186 190
f 127 191 192
f 127 192 130
f 128 193 194
f 128 194 132
f 128 132 129
f 128 130 193
f 130 192 195
f 130 195 193
f 131 132 196
f 131 196 134
f 131 134 133
f 132 194 197
f 132 197 196
f 134 196 197
f 135 194 198
f 135 198 199
f 135 199 200
f 135 200 201
f 135 201 202
f 135 202 136
f 136 202 203
f 136 203 204
f 136 204 205
f 136 205 206
f 136 206 207
f 136 207 208
f 136 208 209
f 136 209 137
f 137 210 211
f 137 211 212
f 137 212 138
f 137 209 210
f 138 213 214
f 138 214 139
f 138 212 213
f 139 215 140
f 139 214 215
f 140 215 216
f 140 216 217
f 140 217 141
f 141 217 218
f 141 218 142
f 142 218 219
f 142 219 220
f 142 220 143
f 143 220 221
f 143 221 144
f 144 222 145
f 144 221 222
f 145 222 146
f 146 223 224
f 146 224 147
f 146 222 225
f 146 225 223
f 147 224 148
f 148 226 149
f 148 224 226
f 149 226 227
f 149 227 150
f 150 227 151
f 151 227 228
f 151 228 229
f 151 229 152
f 152 229 153
f 153 229 230
f 153 230 154
f 154 230 231
f 154 231 155
f 155 232 156
f 155 231 232
f 156 232 157
f 157 232 233
f 157 233 234
f 157 234 158
f 158 235 236
f 158 236 159
f 158 234 235
f 159 236 160
f 160 236 237
f 160 237 161
f 161 238 162
f 161 237 238
f 162 239 163
f 162 238 239
f 163 239 240
f 163 240 241
f 163 241 164
f 164 241 242
f 164 242 243
f 164 243 165
f 165 243 166
f 166 244 245
f 166 245 168
f 166 168 167
f 166 243 244
f 168 245 169
f 169 245 246
f 169 246 170
f 170 246 247
f 170 247 171
f 171 247 248
f 171 248 172
f 172 249 250
f 172 250 173
f 172 248 249
f 173 250 174
f 174 251 175
f 174 250 252
f 174 252 251
f 175 251 253
f 175 253 176
f 176 253 177
f 177 253 254
f 177 254 178
f 178 254 255
f 178 255 179
f 179 255 181
f 179 181 180
f 181 255 256
f 181 256 182
f 182 256 257
f 182 257 183
f 183 257 258
f 183 258 185
f 184 185 259
f 184 259 188
f 185 260 259
f 185 258 261
f 185 261 260
f 186 187 262
f 186 262 190
f 187 189 262
f 188 259 263
f 188 263 264
f 188 264 265
f 188 265 189
f 189 266 262
f 189 265 266
f 190 267 192
f 190 192 191
f 190 262 268
f 190 268 269
f 190 269 267
f 192 267 195
f 193 195 198
f 193 198 194
f 195 267 199
f 195 199 198
f 199 267 200
f 200 269 270
f 200 270 201
f 200 267 269
f 201 270 271
f 201 271 202
f 202 271 272
f 202 272 273
f 202 273 203
f 203 273 274
f 203 274 275
f 203 275 276
f 203 276 277
f 203 277 204
f 204 278 279
f 204 279 280
f 204 280 205
f 204 277 278
f 205 280 206
f 206 281 207
f 206 280 282
f 206 282 281
f 207 281 283
f 207 283 284
f 207 284 208
f 208 284 209
f 209 284 210
f 210 285 286
f 210 286 211
f 210 284 285
f 211 286 212
f 212 286 287
f 212 287 213
f 213 288 214
f 213 287 288
f 214 288 289
f 214 289 215
f 215 289 290
f 215 290 216
f 216 291 292
f 216 292 293
f 216 293 217
f 216 290 294
f 216 294 291
f 217 293 218
f 218 293 219
f 219 295 296
f 219 296 220
f 219 293 292
f 219 292 295
f 220 296 221
f 221 296 222
f 222 296 297
f 222 297 225
f 223 225 298
f 223 298 299
f 223 299 300
f 223 300 301
f 223 301 224
f 224 301 226
f 225 297 298
f 226 302 227
f 226 301 302
f 227 302 228
f 228 230 229
f 228 302 303
f 228 303 230
f 230 303 231
f 231 303 304
f 231 304 232
f 232 304 233
f 233 304 305
f 233 305 234
f 234 305 306
f 234 306 235
f 235 306 237
f 235 237 236
f 237 307 308
f 237 308 238
f 237 306 307
f 238 308 239
f 239 308 309
f 239 309 240
f 240 310 241
f 240 309 310
f 241 311 242
f 241 310 311
f 242 312 313
f 242 313 243
f 242 311 312
f 243 313 244
f 244 314 245
f 244 313 314
f 245 314 246
f 246 314 315
f 246 315 247
f 247 315 316
f 247 316 317
f 247 317 248
f 248 317 249
f 249 252 250
f 249 317 318
f 249 318 252
f 251 252 319
f 251 319 320
f 251 320 253
f 252 321 319
f 252 318 322
f 252 322 321
f 253 320 323
f 253 323 254
f 254 323 324
f 254 324 325
f 254 325 255
f 255 326 256
f 255 325 326
f 256 326 257
f 257 326 258
f 258 326 327
f 258 327 261
f 259 260 328
f 259 328 263
f 260 261 328
f 261 327 329
f 261 329 328
f 262 266 268
f 263 328 330
f 263 330 331
f 263 331 264
f 264 331 265
f 265 331 332
f 265 332 266
f 266 333 334
f 266 334 268
f 266 332 333
f 268 334 269
f 269 334 270
f 270 334 335
f 270 335 272
f 270 272 271
f 272 335 336
f 272 336 337
f 272 337 273
f 273 337 274
f 274 337 275
f 275 337 338
f 275 338 339
f 275 339 276
f 276 339 340
f 276 340 277
f 277 340 341
f 277 341 278
f 278 341 279
f 279 341 342
f 279 342 343
f 279 343 280
f 280 343 282
f 281 344 283
f 281 282 345
f 281 345 344
f 282 343 345
f 283 346 284
f 283 344 346
f 284 346 347
f 284 347 285
f 285 348 349
f 285 349 286
f 285 347 348
f 286 349 287
f 287 349 350
f 287 350 288
f 288 350 351
f 288 351 352
f 288 352 289
f 289 352 290
f 290 352 353
f 290 353 294
f 291 294 354
f 291 354 355
f 291 355 292
f 292 355 295
f 294 353 356
f 294 356 357
f 294 357 354
f 295 355 358
f 295 358 297
f 295 297 296
f 297 358 359
f 297 359 298
f 298 360 299
f 298 359 360
f 299 361 362
f 299 362 300
f 299 360 361
f 300 362 363
f 300 363 301
f 301 363 302
f 302 363 303
f 303 363 304
f 304 363 364
f 304 364 305
f 305 364 365
f 305 365 366
f 305 366 306
f 306 366 307
f 307 366 367
f 307 367 368
f 307 368 308
f 308 368 309
f 309 368 369
f 309 369 370
f 309 370 310
f 310 370 371
f 310 371 311
f 311 371 372
f 311 372 312
f 312 372 373
f 312 373 313
f 313 373 314
f 314 373 315
f 315 373 374
f 315 374 375
f 315 375 316
f 316 375 376
f 316 376 377
f 316 377 317
f 317 377 318
f 318 377 378
f 318 378 322
f 319 379 380
f 319 380 320
f 319 321 379
f 320 381 323
f 320 380 381
f 321 382 379
f 321 322 383
f 321 383 382
f 322 378 384
f 322 384 383
f 323 385 324
f 323 381 386
f 323 386 385
f 324 385 387
f 324 387 329
f 324 329 327
f 324 327 325
f 325 327 326
f 328 329 388
f 328 388 330
f 329 389 388
f 329 387 390
f 329 390 389
f 330 388 391
f 330 391 392
f 330 392 331
f 331 393 332
f 331 392 394
f 331 394 393
f 332 393 333
f 333 393 395
f 333 395 334
f 334 395 396
f 334 396 336
f 334 336 335
f 336 396 338
f 336 338 337
f 338 397 339
f 338 396 397
f 339 398 399
f 339 399 340
f 339 397 398
f 340 399 342
f 340 342 341
f 342 400 343
f 342 399 400
f 343 400 345
f 344 345 401
f 344 401 402
f 344 402 403
f 344 403 346
f 345 404 401
f 345 400 404
f 346 403 347
f 347 405 348
f 347 403 405
f 348 405 406
f 348 406 407
f 348 407 349
f 349 407 408
f 349 408 350
f 350 408 351
f 351 409 410
f 351 410 352
f 351 408 409
f 352 410 353
f 353 410 356
f 354 411 412
f 354 412 413
f 354 413 355
f 354 357 411
f 355 413 414
f 355 414 358
f 356 415 357
f 356 410 416
f 356 416 417
f 356 417 415
f 357 415 411
f 358 414 359
f 359 418 360
f 359 414 418
f 360 419 361
f 360 418 419
f 361 365 362
f 361 419 365
f 362 364 363
f 362 365 364
f 365 419 366
f 366 419 367
f 367 420 421
f 367 421 368
f 367 419 420
f 368 421 369
f 369 421 422
f 369 422 370
f 370 422 423
f 370 423 424
f 370 424 371
f 371 424 425
f 371 425 372
f 372 425 426
f 372 426 373
f 373 426 374
f 374 427 375
f 374 426 428
f 374 428 427
f 375 427 376
f 376 427 429
f 376 429 430
f 376 430 431
f 376 431 377
f 377 431 378
f 378 431 384
f 379 432 433
f 379 433 380
f 379 382 432
f 380 433 381
f 381 434 386
f 381 433 434
f 382 383 435
f 382 435 436
f 382 436 432
f 383 384 437
f 383 437 435
f 384 431 438
f 384 438 439
f 384 439 440
f 384 440 437
f 385 386 387
f 386 434 441
f 386 441 387
f 387 441 390
f 388 389 391
f 389 442 391
f 389 390 443
f 389 443 442
f 390 441 444
f 390 444 443
f 391 442 445
f 391 445 392
f 392 445 446
f 392 446 394
f 393 394 395
f 394 446 447
f 394 447 448
f 394 448 395
f 395 448 396
f 396 448 397
f 397 448 398
f 398 447 449
f 398 449 399
f 398 448 447
f 399 449 400
f 400 450 451
f 400 451 404
f 400 449 452
f 400 452 450
f 401 404 453
f 401 453 454
f 401 454 402
f 402 454 455
f 402 455 403
f 403 455 456
f 403 456 405
f 404 451 453
f 405 456 406
f 406 457 458
f 406 458 407
f 406 456 457
f 407 459 408
f 407 458 459
f 408 459 409
f 409 416 410
f 409 459 460
f 409 460 461
f 409 461 416
f 411 462 412
f 411 415 463
f 411 463 462
f 412 462 414
f 412 414 413
f 414 462 464
f 414 464 418
f 415 417 465
f 415 465 463
f 416 461 466
f 416 466 417
f 417 466 467
f 417 467 465
f 418 464 420
f 418 420 419
f 420 464 468
f 420 468 421
f 421 469 422
f 421 468 469
f 422 470 423
f 422 469 470
f 423 471 472
f 423 472 473
f 423 473 424
f 423 470 471
f 424 473 425
f 425 473 426
f 426 473 428
f 427 428 474
f 427 474 429
f 428 473 475
f 428 475 474
f 429 474 476
f 429 476 430
f 430 477 439
f 430 439 438
f 430 438 431
f 430 476 478
f 430 478 477
f 432 479 433
f 432 436 480
f 432 480 479
f 433 479 481
f 433 481 434
f 434 481 482
f 434 482 441
f 435 437 436
f 436 483 480
f 436 437 483
f 437 440 484
f 437 484 483
f 439 485 440
f 439 477 485
f 440 485 484
f 441 482 444
f 442 443 486
f 442 486 487
f 442 487 445
f 443 444 486
f 444 482 488
f 444 488 486
f 445 487 489
f 445 489 446
f 446 489 447
f 447 489 449
f 449 489 452
f 450 452 490
f 450 490 491
f 450 491 492
f 450 492 451
f 451 492 493
f 451 493 453
f 452 489 490
f 453 493 454
f 454 494 455
f 454 493 494
f 455 495 456
f 455 494 495
f 456 495 496
f 456 496 457
f 457 496 497
f 457 497 498
f 457 498 459
f 457 459 458
f 459 498 460
f 460 498 499
f 460 499 461
f 461 499 500
f 461 500 466
f 462 463 471
f 462 471 501
f 462 501 464
f 463 465 502
f 463 502 471
f 464 501 468
f 465 475 502
f 465 467 503
f 465 503 475
f 466 504 467
f 466 500 504
f 467 504 478
f 467 478 503
f 468 501 469
f 469 501 470
f 470 501 471
f 471 502 472
f 472 502 475
f 472 475 473
f 474 503 476
f 474 475 503
f 476 503 478
f 477 478 504
f 477 504 500
f 477 500 485
f 479 505 506
f 479 506 481
f 479 480 507
f 479 507 505
f 480 483 508
f 480 508 507
f 481 506 482
f 482 506 488
f 483 484 497
f 483 497 508
f 484 485 499
f 484 499 498
f 484 498 497
f 485 500 499
f 486 488 491
f 486 491 490
f 486 490 487
f 487 490 489
f 488 506 509
f 488 509 510
f 488 510 491
f 491 510 492
f 492 510 511
f 492 511 493
f 493 511 494
f 494 512 495
f 494 511 509
f 494 509 512
f 495 508 496
f 495 512 508
f 496 508 497
f 505 507 512
f 505 512 509
f 505 509 506
f 507 508 512
f 509 511 510

