# https://github.com/mikedh/trimesh
v -0.01528093 -0.48288679 0.03483805
v -0.01528093 -0.48269898 0.04456764
v -0.02500732 -0.48241729 0.04481927
v -0.02500732 -0.48260510 0.03483805
v -0.02500732 -0.48241729 0.02477296
v -0.01528093 -0.48260510 0.02452133
v -0.01528093 -0.48218256 0.05454886
v -0.02500732 -0.48204169 0.05480049
v -0.03500905 -0.48204169 0.04481927
v -0.03500905 -0.48218256 0.03483805
v -0.03500905 -0.48204169 0.02477296
v -0.03500905 -0.48166609 0.01479174
v -0.02500732 -0.48199475 0.01479174
v -0.01528093 -0.48204169 0.01454011
v -0.01528093 -0.48143137 0.06453008
v -0.02500732 -0.48143137 0.06478171
v -0.03500905 -0.48166609 0.05480049
v -0.03500905 -0.48114967 0.06478171
v -0.04500389 -0.48152524 0.04481927
v -0.04500389 -0.48166609 0.03483805
v -0.04500389 -0.48157221 0.02477296
v -0.04500389 -0.48114967 0.01479174
v -0.04500389 -0.48058626 0.00481052
v -0.03500905 -0.48096186 0.00481052
v -0.02500732 -0.48124355 0.00481052
v -0.01528093 -0.48143137 0.00481052
v -0.01528093 -0.48011678 0.07828571
v -0.02500732 -0.48021066 0.07912447
v -0.03538764 -0.47997591 0.07996323
v -0.04500389 -0.48114967 0.05480049
v -0.05028354 -0.47969422 0.07207891
v -0.05845425 -0.48049235 0.04481927
v -0.05499185 -0.48100880 0.03483805
v -0.05874336 -0.48006982 0.05605862
v -0.05499185 -0.48091489 0.02477296
v -0.05644427 -0.47997591 0.00632028
v -0.05023535 -0.47950643 -0.00391256
v -0.03500905 -0.47978812 -0.00802248
v -0.01967261 -0.47960031 -0.01473254
v -0.01528093 -0.48053932 -0.00550620
v -0.01528093 -0.47837964 0.09480924
v -0.02500732 -0.47837964 0.09480924
v -0.03500905 -0.47814488 0.09480924
v -0.04500389 -0.47889608 0.08482802
v -0.06919940 -0.47856742 0.06151056
v -0.05499185 -0.47805101 0.08482802
v -0.06779516 -0.47715896 0.08038261
v -0.06768503 -0.47955337 0.03869634
v -0.06557179 -0.47983506 0.02477296
v -0.06782958 -0.47894302 0.01009469
v -0.06779516 -0.47715896 -0.00953224
v -0.05499185 -0.47767538 -0.01490029
v -0.04500389 -0.47842658 -0.01490029
v -0.02500732 -0.47833270 -0.02496539
v -0.01528093 -0.47856742 -0.02496539
v -0.01528093 -0.47687724 0.10470659
v -0.02500732 -0.47683030 0.10479046
v -0.04500389 -0.47748759 0.09480924
v -0.03500905 -0.47645470 0.10479046
v -0.04500389 -0.47584435 0.10479046
v -0.05499185 -0.47668946 0.09480924
v -0.08560278 -0.46786296 0.13439861
v -0.06779516 -0.47542182 0.09480924
v -0.06779516 -0.47481146 -0.02496539
v -0.05499185 -0.47476453 -0.03494661
v -0.05499185 -0.47621995 -0.02496539
v -0.04500389 -0.47701812 -0.02496539
v -0.03500905 -0.47767538 -0.02496539
v -0.04500389 -0.47556266 -0.03494661
v -0.03500905 -0.47612607 -0.03494661
v -0.02500732 -0.47664249 -0.03494661
v -0.01528093 -0.47673640 -0.03503048
v -0.01528093 -0.47504622 0.11477168
v -0.02500732 -0.47495234 0.11477168
v -0.05499185 -0.47509319 0.10479046
v -0.03500905 -0.47457671 0.11477168
v -0.04500389 -0.47406030 0.11477168
v -0.03500905 -0.47255790 0.12483677
v -0.04500389 -0.46988177 0.13448249
v -0.05499185 -0.46683007 0.14488310
v -0.05499185 -0.46410698 0.15478043
v -0.06779516 -0.46312106 0.15478043
v -0.06779516 -0.45997542 0.16492940
v -0.06779516 -0.45645422 0.17482674
v -0.06779516 -0.45086724 0.18908563
v -0.08560278 -0.42631263 0.23622383
v -0.08560278 -0.40485671 -0.21075027
v -0.06779516 -0.47316825 -0.03494661
v -0.06639093 -0.47082075 -0.04861836
v -0.05499185 -0.47288653 -0.04492783
v -0.04500389 -0.47373164 -0.04492783
v -0.03500905 -0.47434199 -0.04492783
v -0.02500732 -0.47260484 -0.05490905
v -0.01528093 -0.47467062 -0.04517945
v -0.01528093 -0.47288653 0.12483677
v -0.02500732 -0.47288653 0.12483677
v -0.03500905 -0.47006959 0.13532124
v -0.04500389 -0.46729955 0.14488310
v -0.04500389 -0.46438867 0.15478043
v -0.05499185 -0.45884866 0.17063296
v -0.05499185 -0.45133671 0.18925339
v -0.06779516 -0.44373089 0.20485428
v -0.06919940 -0.43772137 0.21642914
v -0.05499185 -0.43814391 0.21634527
v -0.05499185 -0.43185267 0.22766849
v -0.05499185 -0.42077261 0.24620503
v -0.05499185 -0.40926996 0.26398671
v -0.06639093 -0.40926996 0.26314795
v -0.06779516 -0.40039653 0.27556157
v -0.06821506 -0.38654640 0.29376262
v -0.06779516 -0.37095916 0.31213140
v -0.06849040 -0.36138147 0.32160938
v -0.08560278 -0.29339859 0.37134773
v -0.08560278 -0.18114233 -0.39108321
v -0.06919940 -0.31480756 -0.30980757
v -0.06919940 -0.33635738 -0.29118714
v -0.06919940 -0.36138147 -0.26686317
v -0.06709304 -0.37457430 -0.25218493
v -0.06639093 -0.38462147 -0.24027455
v -0.05499185 -0.39025542 -0.23532587
v -0.03354286 -0.39152306 -0.23708726
v -0.03500905 -0.40006787 -0.22509302
v -0.03609664 -0.40926996 -0.21091802
v -0.04500389 -0.41274422 -0.20420796
v -0.04500389 -0.41927022 -0.19380736
v -0.05858504 -0.42016226 -0.18919419
v -0.06779516 -0.42621875 -0.17426430
v -0.06919940 -0.43110150 -0.16361207
v -0.06779516 -0.44058529 -0.14381738
v -0.06779516 -0.44471684 -0.13442329
v -0.06779516 -0.45044470 -0.12033217
v -0.06779516 -0.45636031 -0.10406026
v -0.06779516 -0.46499902 -0.07495536
v -0.06779516 -0.46729955 -0.06497414
v -0.05516394 -0.46955311 -0.06052873
v -0.04500389 -0.47067991 -0.05935446
v -0.03500905 -0.47232315 -0.05490905
v -0.03500905 -0.47006959 -0.06547740
v -0.02500732 -0.46908364 -0.07050994
v -0.01528093 -0.47255790 -0.05516067
v -0.01528093 -0.47016346 0.13540512
v -0.02500732 -0.46889585 0.14026992
v -0.03500905 -0.46758124 0.14488310
v -0.04500389 -0.45898950 0.17071684
v -0.03500905 -0.46452951 0.15478043
v -0.04500389 -0.45340249 0.18480797
v -0.04500389 -0.44941181 0.19386655
v -0.05499185 -0.44401258 0.20485428
v -0.04500389 -0.43950546 0.21391286
v -0.03500905 -0.43950546 0.21408062
v -0.04500389 -0.43349591 0.22481672
v -0.03500905 -0.43110150 0.22884275
v -0.04500389 -0.42077261 0.24620503
v -0.04500389 -0.40941083 0.26407060
v -0.05499185 -0.40072516 0.27606481
v -0.05499185 -0.39429307 0.28478792
v -0.05499185 -0.38828355 0.29267225
v -0.06639093 -0.37851804 0.30382770
v -0.05499185 -0.36992627 0.31489933
v -0.05499185 -0.36264911 0.32253203
v -0.05499185 -0.35494938 0.32991308
v -0.06639093 -0.34814173 0.33410686
v -0.06779516 -0.34044200 0.34039757
v -0.07026634 -0.32626325 0.35096592
v -0.05401440 -0.31889218 0.36069551
v -0.04500389 -0.30565241 0.37025735
v -0.04060533 -0.29170841 0.37881267
v -0.03500905 -0.28499463 0.38334197
v -0.08560278 -0.28461903 0.37570927
v -0.08560278 -0.08470805 -0.42782080
v -0.06639093 -0.12973262 -0.41263929
v -0.06849040 -0.15522620 -0.40265808
v -0.05499185 -0.16424051 -0.39947081
v -0.05499185 -0.17874791 -0.39276072
v -0.06779516 -0.19508633 -0.38470864
v -0.06779516 -0.20503962 -0.37984386
v -0.06709304 -0.21696480 -0.37372094
v -0.06498670 -0.23508731 -0.36415908
v -0.06919940 -0.24644908 -0.35744902
v -0.06779516 -0.27480659 -0.33983511
v -0.06919940 -0.29959592 -0.32171795
v -0.05499185 -0.30429089 -0.31936941
v -0.05499185 -0.31297654 -0.31240773
v -0.02652169 -0.33269534 -0.29798108
v -0.06639093 -0.32640409 -0.30024573
v -0.05213520 -0.33983165 -0.28984514
v -0.04500389 -0.35067698 -0.28061879
v -0.06779516 -0.34861121 -0.28003168
v -0.05941794 -0.35992604 -0.26988271
v -0.05431039 -0.37335360 -0.25570768
v -0.05499185 -0.38124111 -0.24639748
v -0.03500905 -0.38509098 -0.24488771
v -0.02500732 -0.40044346 -0.22568016
v -0.02474575 -0.38912863 -0.24102943
v -0.02500732 -0.41119489 -0.20898888
v -0.03500905 -0.41959885 -0.19431061
v -0.03500905 -0.42682910 -0.18122599
v -0.04500389 -0.42626569 -0.18072273
v -0.05744238 -0.42898875 -0.17199965
v -0.06498670 -0.43598422 -0.15488899
v -0.04947129 -0.44114870 -0.14843056
v -0.05499185 -0.44645399 -0.13492656
v -0.05499185 -0.45016298 -0.12561634
v -0.05499185 -0.45415369 -0.11496411
v -0.05358073 -0.45889559 -0.10154399
v -0.06639093 -0.46091443 -0.09047238
v -0.05499185 -0.46373141 -0.08493658
v -0.05499185 -0.46640751 -0.07495536
v -0.04500389 -0.46720564 -0.07495536
v -0.03500905 -0.46772209 -0.07495536
v -0.01528093 -0.46903670 -0.07034219
v -0.02500732 -0.46528071 -0.08493658
v -0.01528093 -0.46734649 0.14488310
v -0.02500732 -0.46448258 0.15478043
v -0.03500905 -0.45898950 0.17080072
v -0.02500732 -0.45335555 0.18480797
v -0.02500732 -0.44950569 0.19386655
v -0.03500905 -0.44631314 0.20066050
v -0.04500389 -0.44410649 0.20485428
v -0.02500732 -0.44424736 0.20485428
v -0.02500732 -0.43950546 0.21408062
v -0.02500732 -0.43105453 0.22884275
v -0.03500905 -0.41513866 0.25484425
v -0.03500905 -0.42227498 0.24360490
v -0.03500905 -0.40926996 0.26390284
v -0.03500905 -0.40086600 0.27606481
v -0.04500389 -0.40086600 0.27614871
v -0.04500389 -0.39448088 0.28478792
v -0.04500389 -0.38387030 0.29845965
v -0.05499185 -0.37917534 0.30391160
v -0.04500389 -0.37016103 0.31515095
v -0.04500389 -0.36302471 0.32303527
v -0.04500389 -0.35565364 0.33041635
v -0.04500389 -0.33443245 0.34945613
v -0.05499185 -0.34189743 0.34157181
v -0.05656818 -0.33339956 0.34861737
v -0.04500389 -0.31494841 0.36446992
v -0.04500389 -0.32344627 0.35859862
v -0.03500905 -0.30649751 0.37084448
v -0.02500732 -0.28823414 0.38258708
v -0.01528093 -0.27565169 0.39021978
v -0.02500732 -0.27452490 0.38971654
v -0.03577311 -0.27025250 0.39005202
v -0.08560278 -0.27555779 0.37998694
v -0.08560278 -0.07353407 -0.43067259
v -0.05499185 -0.07508340 -0.43218234
v -0.04500389 -0.07865156 -0.43176296
v -0.04500389 -0.09508389 -0.42647880
v -0.04500389 -0.10508414 -0.42303988
v -0.06822194 -0.10672738 -0.42119461
v -0.05499185 -0.12508462 -0.41515556
v -0.05499185 -0.13414589 -0.41154891
v -0.04500389 -0.13696285 -0.41071016
v -0.04500389 -0.15508536 -0.40332907
v -0.04500389 -0.16409966 -0.39947081
v -0.04500389 -0.17508584 -0.39452213
v -0.04500389 -0.18738662 -0.38865083
v -0.05499185 -0.20527437 -0.38001162
v -0.05499185 -0.21508682 -0.37506294
v -0.05499185 -0.22743455 -0.36852062
v -0.04500389 -0.24161328 -0.36080405
v -0.04500389 -0.25893766 -0.35099059
v -0.05571462 -0.25879681 -0.35082284
v -0.06714123 -0.26114428 -0.34872594
v -0.06714123 -0.28823414 -0.33052489
v -0.05499185 -0.27565169 -0.34033835
v -0.04973286 -0.29260045 -0.32859576
v -0.04500389 -0.30461952 -0.31962106
v -0.04500389 -0.31335214 -0.31274322
v -0.03500905 -0.31875134 -0.30896881
v -0.01528093 -0.34382236 -0.28892252
v -0.02500732 -0.34358761 -0.28867087
v -0.03500905 -0.34321201 -0.28833538
v -0.02500732 -0.32199085 -0.30678806
v -0.01528093 -0.33288312 -0.29831660
v -0.03500905 -0.35119343 -0.28103817
v -0.03500905 -0.35861146 -0.27357322
v -0.03500905 -0.36847085 -0.26334038
v -0.04777106 -0.37016103 -0.26015311
v -0.03500905 -0.37814245 -0.25293979
v -0.02500732 -0.38091248 -0.25092679
v -0.01528093 -0.40058431 -0.22584791
v -0.01528093 -0.40875351 -0.21335042
v -0.01528093 -0.39199257 -0.23767440
v -0.01528093 -0.38593608 -0.24522321
v -0.01528093 -0.41391796 -0.20496283
v -0.02500732 -0.41983360 -0.19472998
v -0.02500732 -0.42725164 -0.18147762
v -0.02500732 -0.43551475 -0.16495408
v -0.03500905 -0.43490440 -0.16495408
v -0.03500905 -0.44424736 -0.14490777
v -0.03500905 -0.43978715 -0.15455349
v -0.04017856 -0.44992822 -0.12972626
v -0.04500389 -0.45499879 -0.11496411
v -0.03500905 -0.46114916 -0.09785345
v -0.04500389 -0.46448258 -0.08493658
v -0.03500905 -0.46504599 -0.08493658
v -0.01528093 -0.46518683 -0.08493658
v -0.02500732 -0.46133697 -0.09802120
v -0.01528093 -0.46086746 -0.09944709
v -0.01528093 -0.46424782 0.15452881
v -0.02500732 -0.45889559 0.17063296
v -0.01528093 -0.45692372 0.17482674
v -0.01528093 -0.45128977 0.18908563
v -0.01528093 -0.44401258 0.20460266
v -0.01528093 -0.43941155 0.21366124
v -0.01528093 -0.43039724 0.22951376
v -0.02500732 -0.42049089 0.24578565
v -0.01528093 -0.42035004 0.24536628
v -0.02500732 -0.40743893 0.26599973
v -0.02500732 -0.40063125 0.27589709
v -0.03500905 -0.38833049 0.29267225
v -0.03500905 -0.37941009 0.30424708
v -0.03500905 -0.37016103 0.31515095
v -0.03500905 -0.36302471 0.32320303
v -0.03500905 -0.35579449 0.33050022
v -0.03500905 -0.34532475 0.34022981
v -0.03500905 -0.33480805 0.34970778
v -0.03500905 -0.31494841 0.36522481
v -0.03500905 -0.32368103 0.35893410
v -0.02500732 -0.30668530 0.37109610
v -0.01528093 -0.29457232 0.37939981
v -0.01528093 -0.28499463 0.38518724
v -0.01528093 -0.26499414 0.39508459
v -0.02500732 -0.26499414 0.39391032
v -0.08560278 -0.26499414 0.38434848
v -0.06816687 -0.00428355 -0.44031832
v -0.06779516 -0.02090368 -0.43989894
v -0.06779516 -0.03616227 -0.43838915
v -0.06779516 -0.04616252 -0.43696329
v -0.05499185 -0.05508292 -0.43646002
v -0.05499185 -0.06508316 -0.43469864
v -0.08560278 -0.00780477 0.39214891
v -0.04500389 -0.06508316 -0.43503413
v -0.03500905 -0.07508340 -0.43260172
v -0.03500905 -0.08498976 -0.42991772
v -0.03500905 -0.09508389 -0.42681432
v -0.04500389 -0.11428624 -0.41960099
v -0.05499185 -0.10945044 -0.42094299
v -0.03500905 -0.10508414 -0.42337540
v -0.03500905 -0.12104697 -0.41716859
v -0.03500905 -0.13705674 -0.41071016
v -0.03500905 -0.16630629 -0.39829654
v -0.02500732 -0.13926338 -0.40961978
v -0.03500905 -0.17870095 -0.39267686
v -0.04500389 -0.20527437 -0.38001162
v -0.04500389 -0.21508682 -0.37514681
v -0.04500389 -0.22748148 -0.36852062
v -0.03500905 -0.24166024 -0.36080405
v -0.03500905 -0.26306921 -0.34880981
v -0.04500389 -0.27593338 -0.34050611
v -0.04500389 -0.28499463 -0.33438319
v -0.03500905 -0.30738956 -0.31794351
v -0.03500905 -0.29321080 -0.32859576
v -0.01528093 -0.35156903 -0.28179306
v -0.02500732 -0.35152209 -0.28145757
v -0.01528093 -0.32203779 -0.30695578
v -0.02500732 -0.35894009 -0.27390873
v -0.02500732 -0.36879951 -0.26367590
v -0.01528093 -0.36889338 -0.26409528
v -0.01528093 -0.37856498 -0.25369465
v -0.01528093 -0.41983360 -0.19506550
v -0.01528093 -0.42565534 -0.18500040
v -0.01528093 -0.43035030 -0.17602569
v -0.01528093 -0.44011581 -0.15547612
v -0.02500732 -0.44006884 -0.15514062
v -0.02500732 -0.44471684 -0.14490777
v -0.02500732 -0.45086724 -0.12913913
v -0.03500905 -0.45556217 -0.11496411
v -0.02500732 -0.45584387 -0.11496411
v -0.01528093 -0.45579693 -0.11496411
v -0.01528093 -0.46030408 0.16560040
v -0.01528093 -0.40701640 0.26532874
v -0.01528093 -0.40025568 0.27522606
v -0.02045044 -0.39241511 0.28646544
v -0.02430520 -0.38696897 0.29393038
v -0.02500732 -0.37926924 0.30407935
v -0.02500732 -0.36997324 0.31498319
v -0.02500732 -0.36034858 0.32538378
v -0.02500732 -0.35302445 0.33284873
v -0.02500732 -0.34527779 0.34014595
v -0.02500732 -0.33485502 0.34970778
v -0.02500732 -0.32377493 0.35893410
v -0.01528093 -0.30682614 0.37126386
v -0.01528093 -0.23508731 0.40548518
v -0.01987911 -0.24950081 0.40036875
v -0.08560278 -0.24893741 0.39021978
v -0.05499185 -0.00414270 -0.44149256
v -0.06424328 -0.00325066 0.38543886
v -0.05499185 -0.01503499 -0.44115707
v -0.04965714 -0.03038748 -0.43981504
v -0.05499185 -0.04503572 -0.43796977
v -0.08560278 -0.02447183 0.40053651
v -0.03500905 -0.06508316 -0.43444699
v -0.02500732 -0.07508340 -0.43209848
v -0.04500389 -0.04503572 -0.43780205
v -0.02500732 -0.08470805 -0.42974997
v -0.02500732 -0.09508389 -0.42673042
v -0.02500732 -0.10508414 -0.42329153
v -0.02500732 -0.11447404 -0.41968486
v -0.02500732 -0.12508462 -0.41540721
v -0.02500732 -0.15508536 -0.40282583
v -0.02500732 -0.17508584 -0.39401886
v -0.01528093 -0.12508462 -0.41507170
v -0.01528093 -0.13869998 -0.40936813
v -0.02500732 -0.18456964 -0.38965732
v -0.03500905 -0.20508657 -0.37992772
v -0.03500905 -0.21874888 -0.37313381
v -0.02500732 -0.24147244 -0.36063629
v -0.02045733 -0.26006445 -0.35015184
v -0.02500732 -0.27607423 -0.34059000
v -0.03500905 -0.27612117 -0.34067386
v -0.03500905 -0.28499463 -0.33455095
v -0.02500732 -0.30241290 -0.32180181
v -0.02500732 -0.29325774 -0.32859576
v -0.01528093 -0.35908094 -0.27424425
v -0.01528093 -0.30213121 -0.32188568
v -0.01528093 -0.44476378 -0.14515939
v -0.01528093 -0.44936484 -0.13333291
v -0.01528093 -0.37884670 0.30340832
v -0.01528093 -0.36955070 0.31447995
v -0.01528093 -0.35011360 0.33494562
v -0.01528093 -0.35997298 0.32479668
v -0.01528093 -0.34255472 0.34232670
v -0.01528093 -0.33476111 0.34945613
v -0.01528093 -0.32368103 0.35868248
v -0.01528093 -0.31494841 0.36530867
v -0.01528093 -0.22513402 0.40825307
v -0.08560278 -0.22508706 0.39768472
v -0.08560278 -0.23508731 0.39474908
v -0.04500389 -0.00414270 -0.44191194
v -0.02089787 -0.00395490 -0.44073769
v -0.01528093 -0.00325066 0.35113367
v -0.08560278 -0.03503548 0.40540129
v -0.01528093 -0.10508414 0.40330440
v -0.01528093 -0.09616373 0.39944613
v -0.04500389 -0.01503499 -0.44132483
v -0.03303348 -0.02076283 -0.44023442
v -0.02500732 -0.06508316 -0.43369213
v -0.03500905 -0.04503572 -0.43721491
v -0.01528093 -0.06508316 -0.43285337
v -0.01528093 -0.07935581 -0.43050483
v -0.01528093 -0.09508389 -0.42639494
v -0.01528093 -0.10949738 -0.42127851
v -0.01528093 -0.15715113 -0.40139994
v -0.01528093 -0.18400624 -0.38957345
v -0.01528093 -0.19485158 -0.38437316
v -0.02500732 -0.20489877 -0.37976000
v -0.02500732 -0.21856108 -0.37279829
v -0.01528093 -0.23907802 -0.36139119
v -0.01528093 -0.27555779 -0.34042224
v -0.01528093 -0.28499463 -0.33421543
v -0.02500732 -0.28499463 -0.33455095
v -0.01528093 -0.29306996 -0.32851186
v -0.01528093 -0.21006322 0.41152424
v -0.08560278 -0.19508633 0.40540129
v -0.08560278 -0.20508657 0.40305278
v -0.08560278 -0.21503988 0.40045261
v -0.03500905 -0.00414270 -0.44182807
v -0.01706376 -0.01296921 -0.43964729
v -0.01528093 -0.02480049 -0.43805367
v -0.08560278 -0.04498877 0.40800145
v -0.01528093 -0.12076527 0.40867245
v -0.01528093 -0.21095526 -0.37623721
v -0.08560278 -0.17250362 0.40959510
v -0.08560278 -0.18508609 0.40741432
v -0.01528093 -0.19508633 0.41362113
v -0.08560278 -0.07057625 0.41177586
v -0.01528093 -0.14541376 0.41345337
v -0.01528093 -0.13423978 0.41177586
v -0.08560278 -0.15508536 0.41169199
v -0.01528093 -0.18532084 0.41437602
v -0.08560278 -0.13508487 0.41345337
v -0.08560278 -0.14508511 0.41261461
v -0.08560278 -0.08508365 0.41345337
v -0.01528093 -0.15508536 0.41437602
v -0.01528093 -0.17536753 0.41479540
v -0.08560278 -0.12508462 0.41404051
v -0.08560278 -0.09508389 0.41420826
v -0.01528093 -0.16541424 0.41496313
v -0.08560278 -0.11508438 0.41445988
v -0.08560278 -0.10508414 0.41462764
f 1 2 3
f 1 3 4
f 1 4 5
f 1 5 6
f 1 6 14
f 1 14 26
f 1 26 40
f 1 40 55
f 1 55 72
f 1 72 94
f 1 94 140
f 1 140 211
f 1 211 298
f 1 298 300
f 1 300 371
f 1 371 419
f 1 419 418
f 1 418 365
f 1 365 364
f 1 364 363
f 1 363 362
f 1 362 286
f 1 286 283
f 1 283 282
f 1 282 284
f 1 284 285
f 1 285 361
f 1 361 360
f 1 360 416
f 1 416 355
f 1 355 271
f 1 271 275
f 1 275 357
f 1 357 417
f 1 417 454
f 1 454 452
f 1 452 451
f 1 451 450
f 1 450 464
f 1 464 447
f 1 447 446
f 1 446 445
f 1 445 405
f 1 405 404
f 1 404 444
f 1 444 443
f 1 443 442
f 1 442 441
f 1 441 461
f 1 461 433
f 1 433 436
f 1 436 435
f 1 435 463
f 1 463 470
f 1 470 469
f 1 469 476
f 1 476 480
f 1 480 477
f 1 477 472
f 1 472 467
f 1 467 455
f 1 455 428
f 1 428 385
f 1 385 324
f 1 324 241
f 1 241 323
f 1 323 322
f 1 322 384
f 1 384 427
f 1 427 426
f 1 426 425
f 1 425 424
f 1 424 422
f 1 422 423
f 1 423 421
f 1 421 420
f 1 420 374
f 1 374 373
f 1 373 309
f 1 309 307
f 1 307 306
f 1 306 305
f 1 305 304
f 1 304 303
f 1 303 372
f 1 372 301
f 1 301 213
f 1 213 141
f 1 141 95
f 1 95 73
f 1 73 56
f 1 56 41
f 1 41 27
f 1 27 15
f 1 15 7
f 1 7 2
f 2 7 8
f 2 8 3
f 3 8 17
f 3 17 9
f 3 9 4
f 4 10 11
f 4 11 5
f 4 9 10
f 5 11 12
f 5 12 13
f 5 13 6
f 6 13 14
f 7 15 16
f 7 16 8
f 8 16 18
f 8 18 17
f 9 17 30
f 9 30 19
f 9 19 20
f 9 20 10
f 10 20 21
f 10 21 11
f 11 21 12
f 12 22 23
f 12 23 24
f 12 24 13
f 12 21 22
f 13 24 25
f 13 25 26
f 13 26 14
f 15 27 28
f 15 28 16
f 16 28 29
f 16 29 18
f 17 18 30
f 18 31 30
f 18 29 31
f 19 32 33
f 19 33 20
f 19 30 34
f 19 34 32
f 20 33 35
f 20 35 21
f 21 35 22
f 22 35 36
f 22 36 23
f 23 36 37
f 23 37 38
f 23 38 24
f 24 38 25
f 25 38 39
f 25 39 40
f 25 40 26
f 27 41 28
f 28 41 42
f 28 42 29
f 29 42 43
f 29 43 44
f 29 44 31
f 30 31 34
f 31 45 34
f 31 44 46
f 31 46 47
f 31 47 45
f 32 34 48
f 32 48 33
f 33 48 49
f 33 49 35
f 34 45 48
f 35 49 36
f 36 50 51
f 36 51 37
f 36 49 50
f 37 51 52
f 37 52 53
f 37 53 54
f 37 54 38
f 38 54 39
f 39 54 55
f 39 55 40
f 41 56 42
f 42 56 57
f 42 57 43
f 43 58 44
f 43 57 59
f 43 59 60
f 43 60 58
f 44 58 61
f 44 61 46
f 45 47 62
f 45 62 48
f 46 61 63
f 46 63 47
f 47 63 62
f 48 50 49
f 48 62 50
f 50 62 51
f 51 64 65
f 51 65 66
f 51 66 52
f 51 62 64
f 52 66 67
f 52 67 53
f 53 67 68
f 53 68 54
f 54 68 69
f 54 69 70
f 54 70 71
f 54 71 55
f 55 71 72
f 56 73 57
f 57 73 74
f 57 74 76
f 57 76 59
f 58 60 75
f 58 75 61
f 59 76 77
f 59 77 60
f 60 77 62
f 60 62 75
f 61 75 62
f 61 62 63
f 62 77 78
f 62 78 79
f 62 79 80
f 62 80 81
f 62 81 82
f 62 82 83
f 62 83 84
f 62 84 85
f 62 85 86
f 62 86 113
f 62 113 169
f 62 169 244
f 62 244 326
f 62 326 387
f 62 387 430
f 62 430 429
f 62 429 458
f 62 458 457
f 62 457 456
f 62 456 466
f 62 466 465
f 62 465 471
f 62 471 474
f 62 474 473
f 62 473 478
f 62 478 481
f 62 481 482
f 62 482 479
f 62 479 475
f 62 475 468
f 62 468 462
f 62 462 434
f 62 434 393
f 62 393 333
f 62 333 245
f 62 245 170
f 62 170 114
f 62 114 87
f 62 87 88
f 62 88 64
f 64 88 65
f 65 88 89
f 65 89 90
f 65 90 91
f 65 91 69
f 65 69 67
f 65 67 66
f 67 69 68
f 69 91 92
f 69 92 70
f 70 92 71
f 71 92 137
f 71 137 93
f 71 93 72
f 72 93 94
f 73 95 96
f 73 96 74
f 74 96 78
f 74 78 76
f 76 78 77
f 78 97 79
f 78 96 97
f 79 97 98
f 79 98 80
f 80 98 81
f 81 99 100
f 81 100 83
f 81 83 82
f 81 98 99
f 83 100 84
f 84 100 85
f 85 100 101
f 85 101 102
f 85 102 86
f 86 102 103
f 86 103 104
f 86 104 105
f 86 105 106
f 86 106 107
f 86 107 108
f 86 108 109
f 86 109 110
f 86 110 111
f 86 111 112
f 86 112 113
f 87 114 115
f 87 115 116
f 87 116 117
f 87 117 118
f 87 118 119
f 87 119 120
f 87 120 121
f 87 121 122
f 87 122 123
f 87 123 124
f 87 124 125
f 87 125 126
f 87 126 127
f 87 127 128
f 87 128 129
f 87 129 130
f 87 130 131
f 87 131 132
f 87 132 133
f 87 133 134
f 87 134 88
f 88 134 89
f 89 134 90
f 90 134 135
f 90 135 136
f 90 136 91
f 91 136 137
f 91 137 92
f 93 138 139
f 93 139 140
f 93 140 94
f 93 137 138
f 95 141 96
f 96 141 142
f 96 142 97
f 97 142 143
f 97 143 98
f 98 143 99
f 99 144 100
f 99 143 145
f 99 145 144
f 100 144 146
f 100 146 101
f 101 146 147
f 101 147 102
f 102 147 148
f 102 148 104
f 102 104 103
f 104 148 149
f 104 149 150
f 104 150 151
f 104 151 105
f 105 151 152
f 105 152 153
f 105 153 106
f 106 153 154
f 106 154 107
f 107 154 227
f 107 227 155
f 107 155 108
f 108 155 109
f 109 155 156
f 109 156 110
f 110 156 157
f 110 157 158
f 110 158 111
f 111 158 159
f 111 159 160
f 111 160 112
f 112 160 161
f 112 161 162
f 112 162 163
f 112 163 113
f 113 163 164
f 113 164 165
f 113 165 166
f 113 166 167
f 113 167 168
f 113 168 169
f 114 170 171
f 114 171 172
f 114 172 173
f 114 173 174
f 114 174 175
f 114 175 176
f 114 176 177
f 114 177 178
f 114 178 179
f 114 179 180
f 114 180 181
f 114 181 115
f 115 181 182
f 115 182 183
f 115 183 184
f 115 184 185
f 115 185 116
f 116 186 187
f 116 187 188
f 116 188 117
f 116 185 186
f 117 188 189
f 117 189 190
f 117 190 118
f 118 191 119
f 118 190 191
f 119 191 120
f 120 191 192
f 120 192 121
f 121 193 122
f 121 192 194
f 121 194 193
f 122 193 123
f 123 195 125
f 123 125 124
f 123 193 195
f 125 195 196
f 125 196 197
f 125 197 198
f 125 198 126
f 126 198 199
f 126 199 127
f 127 199 200
f 127 200 128
f 128 200 129
f 129 201 202
f 129 202 130
f 129 200 201
f 130 202 131
f 131 202 203
f 131 203 204
f 131 204 132
f 132 204 205
f 132 205 206
f 132 206 133
f 133 206 207
f 133 207 208
f 133 208 134
f 134 208 135
f 135 208 136
f 136 208 209
f 136 209 138
f 136 138 137
f 138 209 210
f 138 210 139
f 139 211 140
f 139 210 212
f 139 212 211
f 141 213 142
f 142 213 214
f 142 214 143
f 143 214 145
f 144 145 215
f 144 215 146
f 145 214 215
f 146 215 216
f 146 216 217
f 146 217 147
f 147 217 218
f 147 218 148
f 148 218 219
f 148 219 149
f 149 219 150
f 150 219 218
f 150 218 220
f 150 220 221
f 150 221 151
f 151 221 222
f 151 222 152
f 152 222 153
f 153 223 154
f 153 222 224
f 153 224 223
f 154 225 226
f 154 226 227
f 154 223 225
f 155 227 156
f 156 228 157
f 156 227 228
f 157 229 230
f 157 230 158
f 157 228 229
f 158 230 159
f 159 230 231
f 159 231 232
f 159 232 160
f 160 232 233
f 160 233 161
f 161 233 234
f 161 234 235
f 161 235 162
f 162 235 236
f 162 236 163
f 163 236 165
f 163 165 164
f 165 237 166
f 165 236 238
f 165 238 237
f 166 237 239
f 166 239 240
f 166 240 168
f 166 168 167
f 168 240 241
f 168 241 242
f 168 242 243
f 168 243 244
f 168 244 169
f 170 245 246
f 170 246 247
f 170 247 248
f 170 248 249
f 170 249 250
f 170 250 171
f 171 251 172
f 171 250 251
f 172 251 252
f 172 252 173
f 173 252 253
f 173 253 254
f 173 254 255
f 173 255 256
f 173 256 174
f 174 256 257
f 174 257 258
f 174 258 175
f 175 258 176
f 176 258 259
f 176 259 177
f 177 259 260
f 177 260 178
f 178 261 262
f 178 262 263
f 178 263 179
f 178 260 261
f 179 263 264
f 179 264 180
f 180 265 181
f 180 264 266
f 180 266 265
f 181 265 182
f 182 265 267
f 182 267 268
f 182 268 269
f 182 269 183
f 183 269 270
f 183 270 184
f 184 271 272
f 184 272 273
f 184 273 185
f 184 270 274
f 184 274 275
f 184 275 271
f 185 273 186
f 186 273 187
f 187 273 276
f 187 276 277
f 187 277 189
f 187 189 188
f 189 277 278
f 189 278 279
f 189 279 190
f 190 279 280
f 190 280 192
f 190 192 191
f 192 280 281
f 192 281 194
f 193 282 283
f 193 283 195
f 193 194 284
f 193 284 282
f 194 281 285
f 194 285 284
f 195 283 286
f 195 286 287
f 195 287 196
f 196 287 288
f 196 288 197
f 197 288 289
f 197 289 290
f 197 290 198
f 198 290 201
f 198 201 199
f 199 201 200
f 201 291 202
f 201 290 292
f 201 292 291
f 202 291 293
f 202 293 203
f 203 293 204
f 204 293 294
f 204 294 205
f 205 294 295
f 205 295 296
f 205 296 207
f 205 207 206
f 207 296 209
f 207 209 208
f 209 296 297
f 209 297 210
f 210 297 212
f 211 212 298
f 212 299 300
f 212 300 298
f 212 297 299
f 213 301 214
f 214 301 302
f 214 302 215
f 215 302 216
f 216 302 303
f 216 303 304
f 216 304 217
f 217 304 305
f 217 305 220
f 217 220 218
f 220 305 306
f 220 306 221
f 221 306 307
f 221 307 222
f 222 307 224
f 223 224 308
f 223 308 309
f 223 309 225
f 224 307 308
f 225 309 310
f 225 310 311
f 225 311 226
f 226 311 312
f 226 312 228
f 226 228 227
f 228 312 313
f 228 313 229
f 229 313 230
f 230 313 231
f 231 314 315
f 231 315 232
f 231 313 314
f 232 315 316
f 232 316 233
f 233 316 317
f 233 317 318
f 233 318 234
f 234 318 238
f 234 238 236
f 234 236 235
f 237 238 319
f 237 319 239
f 238 318 320
f 238 320 319
f 239 319 321
f 239 321 322
f 239 322 240
f 240 323 241
f 240 322 323
f 241 324 242
f 242 324 325
f 242 325 243
f 243 326 244
f 243 325 326
f 245 327 328
f 245 328 329
f 245 329 330
f 245 330 331
f 245 331 332
f 245 332 246
f 245 333 327
f 246 332 247
f 247 332 334
f 247 334 335
f 247 335 336
f 247 336 337
f 247 337 248
f 248 337 340
f 248 340 249
f 249 338 251
f 249 251 339
f 249 339 250
f 249 340 338
f 250 339 251
f 251 253 252
f 251 338 341
f 251 341 253
f 253 342 254
f 253 341 342
f 254 343 255
f 254 342 344
f 254 344 343
f 255 343 256
f 256 345 257
f 256 343 345
f 257 346 258
f 257 345 346
f 258 346 347
f 258 347 259
f 259 347 260
f 260 347 348
f 260 348 261
f 261 348 349
f 261 349 350
f 261 350 262
f 262 350 263
f 263 350 351
f 263 351 266
f 263 266 264
f 265 266 352
f 265 352 267
f 266 351 352
f 267 353 268
f 267 352 354
f 267 354 353
f 268 353 269
f 269 353 270
f 270 353 274
f 271 355 356
f 271 356 272
f 272 356 273
f 273 356 276
f 274 357 275
f 274 353 357
f 276 356 277
f 277 356 358
f 277 358 359
f 277 359 278
f 278 359 281
f 278 281 280
f 278 280 279
f 281 359 360
f 281 360 361
f 281 361 285
f 286 362 287
f 287 362 363
f 287 363 288
f 288 363 364
f 288 364 289
f 289 365 366
f 289 366 292
f 289 292 290
f 289 364 365
f 291 292 366
f 291 366 367
f 291 367 293
f 293 368 369
f 293 369 294
f 293 367 368
f 294 369 295
f 295 369 370
f 295 370 299
f 295 299 297
f 295 297 296
f 299 370 300
f 300 370 371
f 301 372 302
f 302 372 303
f 307 309 308
f 309 373 310
f 310 373 374
f 310 374 311
f 311 374 375
f 311 375 376
f 311 376 312
f 312 376 377
f 312 377 313
f 313 377 314
f 314 377 378
f 314 378 315
f 315 378 379
f 315 379 380
f 315 380 316
f 316 380 381
f 316 381 317
f 317 382 318
f 317 381 382
f 318 383 320
f 318 382 383
f 319 384 321
f 319 320 384
f 320 383 384
f 321 384 322
f 324 385 386
f 324 386 325
f 325 387 326
f 325 386 387
f 327 388 328
f 327 333 389
f 327 389 388
f 328 388 390
f 328 390 329
f 329 390 391
f 329 391 392
f 329 392 330
f 330 392 331
f 331 334 332
f 331 392 334
f 333 393 389
f 334 394 395
f 334 395 335
f 334 392 396
f 334 396 440
f 334 440 394
f 335 395 397
f 335 397 336
f 336 397 398
f 336 398 337
f 337 398 399
f 337 399 340
f 338 340 341
f 340 399 400
f 340 400 341
f 341 400 401
f 341 401 342
f 342 401 344
f 343 344 402
f 343 402 403
f 343 403 345
f 344 401 404
f 344 404 405
f 344 405 402
f 345 403 406
f 345 406 407
f 345 407 346
f 346 407 347
f 347 408 348
f 347 407 408
f 348 408 349
f 349 408 409
f 349 409 410
f 349 410 350
f 350 410 411
f 350 411 412
f 350 412 351
f 351 412 352
f 352 413 354
f 352 412 413
f 353 354 414
f 353 414 357
f 354 413 415
f 354 415 414
f 355 416 356
f 356 416 358
f 357 414 417
f 358 416 360
f 358 360 359
f 365 418 367
f 365 367 366
f 367 418 368
f 368 370 369
f 368 418 419
f 368 419 370
f 370 419 371
f 374 420 375
f 375 420 377
f 375 377 376
f 377 420 421
f 377 421 378
f 378 421 379
f 379 422 380
f 379 421 423
f 379 423 422
f 380 422 424
f 380 424 381
f 381 424 382
f 382 424 425
f 382 425 426
f 382 426 383
f 383 426 427
f 383 427 384
f 385 428 429
f 385 429 430
f 385 430 386
f 386 430 387
f 388 431 390
f 388 389 432
f 388 432 431
f 389 433 432
f 389 393 434
f 389 434 435
f 389 435 436
f 389 436 433
f 390 431 437
f 390 437 391
f 391 438 396
f 391 396 392
f 391 437 438
f 394 439 395
f 394 440 439
f 395 439 441
f 395 441 442
f 395 442 397
f 396 438 440
f 397 443 398
f 397 442 443
f 398 443 399
f 399 444 400
f 399 443 444
f 400 444 404
f 400 404 401
f 402 405 445
f 402 445 403
f 403 446 406
f 403 445 446
f 406 446 447
f 406 447 448
f 406 448 407
f 407 448 408
f 408 449 409
f 408 448 449
f 409 449 450
f 409 450 410
f 410 451 411
f 410 450 451
f 411 451 452
f 411 452 453
f 411 453 412
f 412 453 413
f 413 453 415
f 414 415 417
f 415 453 454
f 415 454 417
f 428 455 456
f 428 456 457
f 428 457 458
f 428 458 429
f 431 459 437
f 431 432 459
f 432 460 438
f 432 438 459
f 432 433 460
f 433 461 460
f 434 462 463
f 434 463 435
f 437 459 438
f 438 460 461
f 438 461 441
f 438 441 440
f 439 440 441
f 447 464 448
f 448 464 449
f 449 464 450
f 452 454 453
f 455 465 466
f 455 466 456
f 455 467 465
f 462 468 469
f 462 469 470
f 462 470 463
f 465 467 471
f 467 472 473
f 467 473 474
f 467 474 471
f 468 475 469
f 469 475 476
f 472 477 478
f 472 478 473
f 475 479 476
f 476 479 480
f 477 480 481
f 477 481 478
f 479 482 480
f 480 482 481

