# https://github.com/mikedh/trimesh
v 0.01254128 -0.12661651 0.00179519
v 0.01254128 -0.12661651 -0.15294194
v -0.08375862 -0.12661651 0.00179519
v 0.01254128 -0.39189512 0.00179519
v -0.04400922 -0.12661651 -0.16106737
v 0.01254128 -0.13739926 -0.15125249
v -0.04002108 -0.12997887 -0.15998934
v -0.08375862 -0.12661651 -0.16121218
v -0.08375862 -0.42134476 0.00179519
v 0.00578124 -0.39575022 0.00179519
v 0.01254128 -0.38847479 -0.04501050
v -0.04425436 -0.12661651 -0.16109955
v -0.04400922 -0.13568908 -0.15961927
v -0.04668684 -0.13281949 -0.16043985
v 0.01254128 -0.14192104 -0.15051235
v -0.07500923 -0.12661651 -0.16216148
v -0.08375862 -0.13096438 -0.16058466
v -0.08375862 -0.42070705 -0.00032868
v -0.08027960 -0.42172158 0.00179519
v 0.00486670 -0.39624301 0.00179519
v -0.03972881 -0.42009836 0.00179519
v -0.04007765 -0.41995344 0.00012183
v -0.02961232 -0.41024315 -0.02066639
v -0.03500526 -0.41105479 -0.02240411
v -0.03500526 -0.40890980 -0.02739199
v 0.01254128 -0.38290951 -0.05743194
v -0.05327716 -0.12661651 -0.16206494
v -0.04499919 -0.14502253 -0.15818727
v -0.05113696 -0.13948624 -0.15990889
v 0.01254128 -0.14502253 -0.14996529
v -0.06499645 -0.12661651 -0.16257982
v -0.07184134 -0.14081958 -0.16013415
v -0.07510351 -0.13557315 -0.16072947
v -0.07850710 -0.13928333 -0.15987670
v -0.08307979 -0.13261658 -0.16040768
v -0.08375862 -0.13337022 -0.16019851
v -0.08375862 -0.42041719 -0.00127799
v -0.07499979 -0.42227229 0.00179519
v -0.04175587 -0.42064911 0.00179519
v -0.04675283 -0.42062011 -0.00196986
v -0.04404693 -0.41914183 -0.00518785
v -0.03500526 -0.41357654 -0.01500273
v -0.04499919 -0.41598237 -0.01500273
v -0.04499919 -0.41201133 -0.02438317
v -0.04499919 -0.40969244 -0.02938715
v -0.03500526 -0.40519965 -0.03500254
v 0.01254128 -0.38064861 -0.06079475
v -0.03500526 -0.40125754 -0.04214649
v -0.03500526 -0.39821404 -0.04713437
v -0.05494596 -0.12661651 -0.16222584
v 0.01254128 -0.14647183 -0.14970785
v -0.04499919 -0.15502265 -0.15640128
v -0.04499919 -0.16502278 -0.15458311
v -0.05499310 -0.16502278 -0.15562895
v -0.05499310 -0.15502265 -0.15744713
v -0.05468197 -0.14455876 -0.15928137
v -0.05780271 -0.14093553 -0.16015023
v -0.06499645 -0.13502242 -0.16124436
v -0.06499645 -0.14131235 -0.16021460
v -0.06499645 -0.14629792 -0.15934575
v -0.06499645 -0.15502265 -0.15778501
v -0.06499645 -0.16502278 -0.15596685
v -0.07499979 -0.16502278 -0.15556461
v -0.07499979 -0.15502265 -0.15738276
v -0.07510351 -0.14450079 -0.15923311
v -0.08375862 -0.16502278 -0.15463138
v -0.08375862 -0.15502265 -0.15644956
v -0.08375862 -0.14623994 -0.15801027
v -0.08375862 -0.14496456 -0.15823554
v -0.08375862 -0.13664562 -0.15965146
v -0.07499979 -0.42088097 -0.00271000
v -0.08375862 -0.41870704 -0.00626588
v -0.07499979 -0.41919979 -0.00769789
v -0.06499645 -0.42273608 0.00179519
v -0.06499645 -0.42114186 -0.00343405
v -0.04506518 -0.42119983 0.00179519
v -0.05499310 -0.42253315 0.00179519
v -0.05499310 -0.42105490 -0.00325706
v -0.05499310 -0.41940272 -0.00826103
v -0.05499310 -0.41679397 -0.01500273
v -0.05413514 -0.41201133 -0.02599217
v -0.05023185 -0.40998229 -0.02998248
v -0.04499919 -0.40673590 -0.03500254
v 0.01254128 -0.37566304 -0.06697329
v -0.03562753 -0.39264876 -0.05554942
v -0.03937996 -0.39009801 -0.06018333
v -0.04499919 -0.38661969 -0.06575046
v -0.04499919 -0.40204018 -0.04341759
v -0.04499919 -0.39899665 -0.04842157
v 0.01254128 -0.14867476 -0.14930561
v 0.01254128 -0.16255897 -0.14671512
v 0.01254128 -0.16502278 -0.14624852
v -0.04499919 -0.17502290 -0.15265232
v -0.04914761 -0.19055933 -0.15011010
v -0.05499310 -0.17502290 -0.15369818
v -0.06499645 -0.17502290 -0.15405214
v -0.07499979 -0.17502290 -0.15363380
v -0.08066616 -0.19044338 -0.15007792
v -0.08375862 -0.17502290 -0.15271667
v -0.08375862 -0.41575050 -0.01410169
v -0.07499979 -0.41641715 -0.01500273
v -0.06499645 -0.41943169 -0.00843802
v -0.06499645 -0.41690993 -0.01500273
v -0.06499645 -0.41267797 -0.02501068
v -0.05689760 -0.41018522 -0.03036864
v -0.05413514 -0.40795329 -0.03423022
v -0.04499919 -0.38163412 -0.07186463
v 0.01254128 -0.37163401 -0.07173592
v -0.04499919 -0.39456183 -0.05500236
v -0.04499919 -0.39053279 -0.06074648
v -0.05499310 -0.38725740 -0.06650668
v -0.05499310 -0.40244597 -0.04418991
v -0.05499310 -0.39948940 -0.04919389
v -0.05499310 -0.39560533 -0.05500236
v 0.01254128 -0.17484899 -0.14434990
v -0.04248185 -0.18829843 -0.14964350
v -0.04548945 -0.18499404 -0.15072152
v -0.05499310 -0.19171876 -0.15035146
v -0.05499310 -0.18502302 -0.15170300
v -0.04548945 -0.19432747 -0.14880681
v -0.04499919 -0.20502326 -0.14645769
v -0.04499919 -0.21502340 -0.14426945
v -0.05499310 -0.21502340 -0.14533138
v -0.05499310 -0.20502326 -0.14751962
v -0.06499645 -0.18502302 -0.15205699
v -0.07499979 -0.18502302 -0.15163866
v -0.08375862 -0.19363183 -0.14898381
v -0.08375862 -0.18939990 -0.14986876
v -0.08375862 -0.18586361 -0.15057671
v -0.07499979 -0.19157383 -0.15031928
v -0.07499979 -0.20502326 -0.14745526
v -0.07499979 -0.21502340 -0.14526702
v -0.08375862 -0.21502340 -0.14434990
v -0.08375862 -0.20502326 -0.14652205
v -0.08375862 -0.41540265 -0.01500273
v -0.08375862 -0.41221422 -0.02254892
v -0.07471696 -0.41183740 -0.02576691
v -0.07120022 -0.41009825 -0.03022383
v -0.06499645 -0.41021419 -0.03044908
v -0.06499645 -0.40754747 -0.03543697
v -0.06499645 -0.40253294 -0.04446344
v -0.05499310 -0.37777901 -0.07762484
v -0.04499919 -0.37705436 -0.07686862
v -0.05499310 -0.38227183 -0.07262087
v -0.04499919 -0.37206879 -0.08206567
v 0.01254128 -0.36467740 -0.07875114
v -0.05499310 -0.39111251 -0.06151880
v -0.06499645 -0.38748926 -0.06678021
v -0.06499645 -0.38250369 -0.07295875
v -0.06499645 -0.39966333 -0.04946741
v -0.06499645 -0.39595315 -0.05500236
v -0.06499645 -0.39128643 -0.06177624
v 0.01254128 -0.18502302 -0.14232257
v 0.01254128 -0.19276226 -0.14076184
v -0.06499645 -0.19754492 -0.14946651
v -0.06499645 -0.19253036 -0.15052845
v 0.01254128 -0.19650143 -0.13997343
v 0.01254128 -0.19989276 -0.13924938
v 0.01254128 -0.21255960 -0.13640146
v 0.01254128 -0.22502351 -0.13358572
v -0.03973823 -0.23024097 -0.14005388
v -0.04499919 -0.22502351 -0.14200076
v -0.05332431 -0.23893672 -0.13974817
v -0.05499310 -0.22502351 -0.14307879
v -0.06499645 -0.21502340 -0.14568537
v -0.05999006 -0.24000920 -0.13998953
v -0.06499645 -0.20502326 -0.14785752
v -0.07499979 -0.22502351 -0.14303052
v -0.08375862 -0.22502351 -0.14209731
v -0.08375862 -0.41163450 -0.02386829
v -0.07786598 -0.40977940 -0.02959632
v -0.07471696 -0.40775037 -0.03413369
v -0.07499979 -0.40233004 -0.04406119
v -0.06499645 -0.37809783 -0.07796273
v -0.06499645 -0.37311226 -0.08311152
v -0.05499310 -0.37276444 -0.08277363
v -0.05499310 -0.36757597 -0.08777761
v -0.04499919 -0.36679336 -0.08705356
v 0.01254128 -0.36172083 -0.08155079
v -0.07499979 -0.38734433 -0.06653886
v -0.07499979 -0.38235876 -0.07284613
v -0.07499979 -0.37803987 -0.07785010
v -0.07499979 -0.39943144 -0.04906517
v -0.07499979 -0.39551836 -0.05500236
v -0.07499979 -0.39108351 -0.06153489
v 0.01254128 -0.23713960 -0.13081825
v -0.04499919 -0.23687872 -0.13926548
v -0.04499919 -0.23186418 -0.14042395
v -0.04499919 -0.24502376 -0.13731858
v -0.04499919 -0.25502387 -0.13490510
v -0.05499310 -0.25502387 -0.13598312
v -0.06499645 -0.22502351 -0.14343277
v -0.06005606 -0.24000920 -0.13998953
v -0.05499310 -0.26502401 -0.13352136
v -0.05934894 -0.28018361 -0.13004592
v -0.06499645 -0.26502401 -0.13389143
v -0.06499645 -0.25502387 -0.13635319
v -0.06672182 -0.23995122 -0.13997343
v -0.07499979 -0.23409608 -0.14093883
v -0.08375862 -0.23270476 -0.14032741
v -0.08375862 -0.40940258 -0.02877573
v -0.08375862 -0.40673590 -0.03406933
v -0.08375862 -0.40630108 -0.03490600
v -0.08375862 -0.40183729 -0.04316015
v -0.07499979 -0.37302533 -0.08306325
v -0.07499979 -0.36786583 -0.08805113
v -0.06499645 -0.36792380 -0.08811550
v -0.05499310 -0.36256143 -0.09221844
v -0.04499919 -0.36180779 -0.09155875
v 0.01254128 -0.35348886 -0.08851775
v -0.08375862 -0.39064872 -0.06090738
v -0.08375862 -0.38734433 -0.06529994
v -0.08375862 -0.38688058 -0.06591135
v -0.08375862 -0.38250369 -0.07152675
v -0.08375862 -0.38186601 -0.07229906
v -0.08375862 -0.37812683 -0.07667553
v -0.08375862 -0.37757611 -0.07730304
v -0.08375862 -0.37319922 -0.08198522
v -0.08375862 -0.37259054 -0.08262882
v -0.08375862 -0.39888072 -0.04816413
v -0.08375862 -0.39499661 -0.05427831
v -0.08375862 -0.39453283 -0.05500236
v 0.01254128 -0.24053095 -0.13001375
v 0.01254128 -0.24450201 -0.12906444
v -0.04499919 -0.26502401 -0.13244334
v -0.06403477 -0.23598017 -0.14090665
v -0.05268319 -0.27916911 -0.12978849
v -0.05560594 -0.28409669 -0.12872654
v -0.05499310 -0.29499537 -0.12574992
v -0.06499645 -0.29499537 -0.12613606
v -0.06499645 -0.28522715 -0.12875873
v -0.06499645 -0.28024158 -0.13006201
v -0.07051197 -0.28012565 -0.13002983
v -0.07499979 -0.24502376 -0.13836443
v -0.07499979 -0.23911065 -0.13978034
v -0.07499979 -0.25502387 -0.13595094
v -0.08375862 -0.23708163 -0.13931374
v -0.08375862 -0.36737308 -0.08763280
v -0.07499979 -0.36285129 -0.09242760
v -0.06499645 -0.36293823 -0.09250806
v -0.05499310 -0.35638744 -0.09722241
v -0.04666798 -0.35073519 -0.10052085
v -0.04399979 -0.35441640 -0.09723850
v 0.01254128 -0.35085115 -0.09064162
v 0.01254128 -0.27719808 -0.12089074
v -0.04499919 -0.27238640 -0.13059299
v -0.04499919 -0.27734300 -0.12932187
v -0.04499919 -0.28499526 -0.12734282
v -0.04499919 -0.29499537 -0.12463970
v -0.05499310 -0.30499551 -0.12288590
v -0.07499979 -0.29499537 -0.12574992
v -0.06499645 -0.30499551 -0.12327205
v -0.07431154 -0.28406772 -0.12871046
v -0.07717772 -0.27914011 -0.12977239
v -0.07431154 -0.27548790 -0.13091478
v -0.07499979 -0.26502401 -0.13348918
v -0.08375862 -0.24502376 -0.13743122
v -0.08375862 -0.25502387 -0.13501772
v -0.08375862 -0.36235851 -0.09199318
v -0.07499979 -0.35656136 -0.09743159
v -0.06499645 -0.35670629 -0.09749594
v -0.05499310 -0.35137290 -0.10098746
v -0.05499310 -0.34499598 -0.10515476
v -0.04399979 -0.34598151 -0.10312743
v -0.03999280 -0.34998155 -0.09998988
v 0.01254128 -0.33827126 -0.09904058
v 0.01254128 -0.28058940 -0.12002188
v 0.01254128 -0.28424162 -0.11905649
v 0.01254128 -0.29456058 -0.11611202
v -0.04460320 -0.30569115 -0.12150216
v -0.04766737 -0.31093761 -0.12032759
v -0.05499310 -0.31198108 -0.12069766
v -0.07499979 -0.30499551 -0.12288590
v -0.08375862 -0.29499537 -0.12481669
v -0.06499645 -0.31253183 -0.12089074
v -0.07499979 -0.31201008 -0.12069766
v -0.08375862 -0.27763286 -0.12940232
v -0.08375862 -0.27345890 -0.13046427
v -0.08375862 -0.26502401 -0.13255596
v -0.08375862 -0.28621265 -0.12716582
v -0.08375862 -0.28487933 -0.12751980
v -0.08375862 -0.35595265 -0.09699716
v -0.07499979 -0.35157579 -0.10111618
v -0.06499645 -0.35172072 -0.10122881
v -0.06499645 -0.34499598 -0.10562137
v -0.06499645 -0.33885098 -0.10937033
v -0.05499310 -0.33841622 -0.10914508
v -0.04499919 -0.33722779 -0.10851756
v -0.04499919 -0.33224222 -0.11112414
v 0.01254128 -0.33357558 -0.10145407
v 0.01254128 -0.30282158 -0.11373071
v 0.01254128 -0.30499551 -0.11310320
v -0.04100162 -0.30948830 -0.11984490
v 0.01254128 -0.31247386 -0.11068971
v -0.04460320 -0.31456083 -0.11855769
v -0.05499310 -0.31696665 -0.11889559
v -0.06499645 -0.31754637 -0.11910476
v -0.08258009 -0.31099558 -0.12034369
v -0.08375862 -0.30563319 -0.12175959
v -0.07499979 -0.31702465 -0.11892776
v -0.08375862 -0.35096708 -0.10068175
v -0.07499979 -0.34499598 -0.10533175
v -0.07499979 -0.33853215 -0.10920943
v -0.06499645 -0.33383644 -0.11196081
v -0.05499310 -0.33340165 -0.11173555
v -0.05499310 -0.32499576 -0.11564541
v -0.04499919 -0.32499576 -0.11443867
v 0.01254128 -0.32450300 -0.10573400
v 0.01254128 -0.31690869 -0.10903244
v 0.01254128 -0.31719854 -0.10891981
v -0.06499645 -0.32499576 -0.11607984
v -0.07499979 -0.32499576 -0.11574195
v -0.08375862 -0.31073469 -0.12026323
v -0.08375862 -0.30890858 -0.12081029
v -0.08375862 -0.31499562 -0.11871859
v -0.08375862 -0.31241590 -0.11966790
v -0.08375862 -0.32499576 -0.11484092
v -0.08375862 -0.34499598 -0.10444681
v -0.08375862 -0.33766258 -0.10877500
v -0.07499979 -0.33351758 -0.11179991
v -0.08375862 -0.33267701 -0.11134940
f 1 2 5
f 1 5 12
f 1 12 27
f 1 27 50
f 1 50 31
f 1 31 16
f 1 16 8
f 1 8 3
f 1 3 9
f 1 9 19
f 1 19 38
f 1 38 74
f 1 74 77
f 1 77 76
f 1 76 39
f 1 39 21
f 1 21 20
f 1 20 10
f 1 10 4
f 1 4 11
f 1 11 26
f 1 26 47
f 1 47 84
f 1 84 108
f 1 108 146
f 1 146 179
f 1 179 210
f 1 210 244
f 1 244 266
f 1 266 290
f 1 290 308
f 1 308 310
f 1 310 309
f 1 309 294
f 1 294 292
f 1 292 291
f 1 291 269
f 1 269 268
f 1 268 267
f 1 267 245
f 1 245 224
f 1 224 223
f 1 223 186
f 1 186 160
f 1 160 159
f 1 159 158
f 1 158 157
f 1 157 154
f 1 154 153
f 1 153 115
f 1 115 92
f 1 92 91
f 1 91 90
f 1 90 51
f 1 51 30
f 1 30 15
f 1 15 6
f 1 6 2
f 2 6 7
f 2 7 5
f 3 8 17
f 3 17 36
f 3 36 70
f 3 70 69
f 3 69 68
f 3 68 67
f 3 67 66
f 3 66 99
f 3 99 129
f 3 129 128
f 3 128 127
f 3 127 134
f 3 134 133
f 3 133 169
f 3 169 200
f 3 200 237
f 3 237 257
f 3 257 258
f 3 258 279
f 3 279 278
f 3 278 277
f 3 277 281
f 3 281 280
f 3 280 274
f 3 274 299
f 3 299 314
f 3 314 313
f 3 313 316
f 3 316 315
f 3 315 317
f 3 317 321
f 3 321 319
f 3 319 318
f 3 318 301
f 3 301 282
f 3 282 259
f 3 259 238
f 3 238 219
f 3 219 218
f 3 218 217
f 3 217 216
f 3 216 215
f 3 215 214
f 3 214 213
f 3 213 212
f 3 212 211
f 3 211 222
f 3 222 221
f 3 221 220
f 3 220 204
f 3 204 203
f 3 203 202
f 3 202 201
f 3 201 170
f 3 170 136
f 3 136 135
f 3 135 100
f 3 100 72
f 3 72 37
f 3 37 18
f 3 18 9
f 4 10 11
f 5 7 13
f 5 13 14
f 5 14 12
f 6 15 7
f 7 15 13
f 8 16 17
f 9 18 19
f 10 20 11
f 11 20 21
f 11 21 22
f 11 22 23
f 11 23 24
f 11 24 25
f 11 25 26
f 12 14 27
f 13 15 28
f 13 28 29
f 13 29 14
f 14 29 27
f 15 30 28
f 16 31 32
f 16 32 33
f 16 33 34
f 16 34 35
f 16 35 17
f 17 35 36
f 18 37 19
f 19 37 38
f 21 39 22
f 22 39 40
f 22 40 41
f 22 41 42
f 22 42 23
f 23 42 24
f 24 42 41
f 24 41 43
f 24 43 44
f 24 44 25
f 25 44 45
f 25 45 46
f 25 46 26
f 26 46 48
f 26 48 49
f 26 49 47
f 27 29 50
f 28 30 51
f 28 51 52
f 28 52 29
f 29 52 53
f 29 53 54
f 29 54 55
f 29 55 56
f 29 56 57
f 29 57 50
f 31 50 57
f 31 57 58
f 31 58 32
f 32 59 60
f 32 60 61
f 32 61 62
f 32 62 63
f 32 63 64
f 32 64 65
f 32 65 34
f 32 34 33
f 32 58 59
f 34 65 64
f 34 64 63
f 34 63 66
f 34 66 67
f 34 67 68
f 34 68 69
f 34 69 70
f 34 70 36
f 34 36 35
f 37 71 38
f 37 72 73
f 37 73 71
f 38 71 75
f 38 75 74
f 39 76 40
f 40 76 77
f 40 77 78
f 40 78 79
f 40 79 43
f 40 43 41
f 43 79 80
f 43 80 44
f 44 81 82
f 44 82 45
f 44 80 81
f 45 82 83
f 45 83 46
f 46 83 48
f 47 49 85
f 47 85 86
f 47 86 87
f 47 87 84
f 48 83 88
f 48 88 89
f 48 89 49
f 49 89 85
f 51 90 53
f 51 53 52
f 53 90 91
f 53 91 92
f 53 92 93
f 53 93 94
f 53 94 54
f 54 62 57
f 54 57 55
f 54 94 95
f 54 95 96
f 54 96 62
f 55 57 56
f 57 62 61
f 57 61 60
f 57 60 59
f 57 59 58
f 62 96 63
f 63 96 97
f 63 97 98
f 63 98 99
f 63 99 66
f 71 73 75
f 72 100 73
f 73 100 101
f 73 101 102
f 73 102 75
f 74 75 78
f 74 78 77
f 75 102 79
f 75 79 78
f 79 102 103
f 79 103 80
f 80 103 104
f 80 104 105
f 80 105 81
f 81 105 82
f 82 106 83
f 82 105 106
f 83 106 88
f 84 87 107
f 84 107 108
f 85 89 109
f 85 109 86
f 86 109 110
f 86 110 87
f 87 111 144
f 87 144 107
f 87 110 111
f 88 112 113
f 88 113 89
f 88 106 112
f 89 113 114
f 89 114 109
f 92 115 93
f 93 115 116
f 93 116 117
f 93 117 94
f 94 118 119
f 94 119 95
f 94 117 116
f 94 116 120
f 94 120 121
f 94 121 122
f 94 122 123
f 94 123 124
f 94 124 118
f 95 119 125
f 95 125 96
f 96 125 126
f 96 126 97
f 97 126 98
f 98 127 128
f 98 128 129
f 98 129 99
f 98 126 130
f 98 130 131
f 98 131 132
f 98 132 133
f 98 133 134
f 98 134 127
f 100 135 101
f 101 135 136
f 101 136 137
f 101 137 104
f 101 104 103
f 101 103 102
f 104 137 138
f 104 138 139
f 104 139 105
f 105 139 140
f 105 140 141
f 105 141 112
f 105 112 106
f 107 142 143
f 107 143 108
f 107 144 142
f 108 145 146
f 108 143 145
f 109 147 110
f 109 114 147
f 110 147 111
f 111 148 149
f 111 149 144
f 111 147 148
f 112 141 150
f 112 150 113
f 113 150 114
f 114 150 151
f 114 151 152
f 114 152 147
f 115 153 116
f 116 153 154
f 116 154 120
f 118 155 156
f 118 156 125
f 118 125 119
f 118 124 155
f 120 154 157
f 120 157 121
f 121 157 158
f 121 158 122
f 122 159 160
f 122 160 161
f 122 161 162
f 122 162 163
f 122 163 164
f 122 164 123
f 122 158 159
f 123 165 124
f 123 164 166
f 123 166 165
f 124 165 167
f 124 167 155
f 125 156 130
f 125 130 126
f 130 156 155
f 130 155 131
f 131 167 165
f 131 165 132
f 131 155 167
f 132 165 168
f 132 168 133
f 133 168 169
f 136 170 137
f 137 170 171
f 137 171 138
f 138 171 172
f 138 172 173
f 138 173 140
f 138 140 139
f 140 173 141
f 141 173 150
f 142 144 174
f 142 174 175
f 142 175 176
f 142 176 145
f 142 145 143
f 144 149 174
f 145 176 177
f 145 177 178
f 145 178 179
f 145 179 146
f 147 152 148
f 148 180 181
f 148 181 149
f 148 152 180
f 149 181 182
f 149 182 174
f 150 173 183
f 150 183 184
f 150 184 151
f 151 184 185
f 151 185 152
f 152 185 180
f 160 186 161
f 161 186 187
f 161 187 188
f 161 188 162
f 162 188 163
f 163 166 164
f 163 188 187
f 163 187 189
f 163 189 190
f 163 190 191
f 163 191 166
f 165 166 192
f 165 192 168
f 166 193 192
f 166 191 194
f 166 194 195
f 166 195 196
f 166 196 197
f 166 197 193
f 168 192 198
f 168 198 199
f 168 199 200
f 168 200 169
f 170 201 171
f 171 201 202
f 171 202 203
f 171 203 172
f 172 203 204
f 172 204 173
f 173 204 183
f 174 182 205
f 174 205 175
f 175 205 206
f 175 206 207
f 175 207 177
f 175 177 176
f 177 207 208
f 177 208 209
f 177 209 178
f 178 209 179
f 179 209 210
f 180 185 211
f 180 211 212
f 180 212 213
f 180 213 214
f 180 214 181
f 181 214 215
f 181 215 216
f 181 216 182
f 182 216 217
f 182 217 218
f 182 218 219
f 182 219 205
f 183 204 220
f 183 220 221
f 183 221 222
f 183 222 211
f 183 211 184
f 184 211 185
f 186 223 187
f 187 223 189
f 189 223 224
f 189 224 190
f 190 225 194
f 190 194 191
f 190 224 225
f 192 193 226
f 192 226 198
f 193 198 226
f 193 197 198
f 194 225 227
f 194 227 195
f 195 227 228
f 195 228 229
f 195 229 230
f 195 230 231
f 195 231 232
f 195 232 196
f 196 232 233
f 196 233 197
f 197 233 198
f 198 234 235
f 198 235 199
f 198 233 236
f 198 236 234
f 199 235 200
f 200 235 237
f 205 219 206
f 206 238 239
f 206 239 240
f 206 240 207
f 206 219 238
f 207 240 208
f 208 240 241
f 208 241 209
f 209 241 242
f 209 242 243
f 209 243 244
f 209 244 210
f 224 245 225
f 225 245 246
f 225 246 227
f 227 247 248
f 227 248 249
f 227 249 229
f 227 229 228
f 227 246 247
f 229 250 252
f 229 252 230
f 229 249 250
f 230 251 233
f 230 233 231
f 230 252 273
f 230 273 251
f 231 233 232
f 233 251 253
f 233 253 254
f 233 254 255
f 233 255 256
f 233 256 236
f 234 257 235
f 234 236 258
f 234 258 257
f 235 257 237
f 236 256 279
f 236 279 258
f 238 259 239
f 239 259 260
f 239 260 261
f 239 261 240
f 240 261 241
f 241 261 262
f 241 262 242
f 242 262 263
f 242 263 264
f 242 264 265
f 242 265 244
f 242 244 243
f 244 265 266
f 245 267 246
f 246 267 247
f 247 267 248
f 248 267 268
f 248 268 249
f 249 268 269
f 249 269 270
f 249 270 250
f 250 270 271
f 250 271 272
f 250 272 252
f 251 273 274
f 251 274 254
f 251 254 253
f 252 272 275
f 252 275 276
f 252 276 273
f 254 277 278
f 254 278 279
f 254 279 256
f 254 256 255
f 254 274 280
f 254 280 281
f 254 281 277
f 259 282 260
f 260 282 301
f 260 301 283
f 260 283 284
f 260 284 261
f 261 284 262
f 262 284 263
f 263 285 286
f 263 286 287
f 263 287 264
f 263 284 285
f 264 287 288
f 264 288 266
f 264 266 265
f 266 288 289
f 266 289 290
f 269 291 270
f 270 291 292
f 270 292 293
f 270 293 271
f 271 293 294
f 271 294 295
f 271 295 296
f 271 296 272
f 272 296 297
f 272 297 275
f 273 276 298
f 273 298 299
f 273 299 274
f 275 297 300
f 275 300 276
f 276 300 298
f 283 301 302
f 283 302 285
f 283 285 284
f 285 302 286
f 286 303 320
f 286 320 304
f 286 304 305
f 286 305 287
f 286 302 303
f 287 305 289
f 287 289 288
f 289 305 306
f 289 306 307
f 289 307 308
f 289 308 290
f 292 294 293
f 294 309 295
f 295 309 310
f 295 310 307
f 295 307 296
f 296 307 306
f 296 306 297
f 297 306 311
f 297 311 312
f 297 312 300
f 298 313 314
f 298 314 299
f 298 300 315
f 298 315 316
f 298 316 313
f 300 312 317
f 300 317 315
f 301 318 302
f 302 318 303
f 303 318 319
f 303 319 320
f 304 311 305
f 304 320 311
f 305 311 306
f 307 310 308
f 311 320 312
f 312 320 321
f 312 321 317
f 319 321 320

