# https://github.com/mikedh/trimesh
v 0.01255651 -0.44437632 0.17169705
v 0.02485298 -0.44408232 0.16940655
v 0.01990999 -0.44014981 0.16996281
v 0.01255651 -0.43820196 0.17074813
v 0.01255651 -0.45389515 0.17114079
v 0.01500187 -0.45316011 0.17091174
v 0.02142019 -0.45095497 0.17025732
v 0.02142019 -0.44683874 0.17025732
v 0.03500032 -0.44496435 0.16662522
v 0.03500032 -0.43496776 0.16528365
v 0.02500400 -0.43496776 0.16793409
v 0.02550352 -0.12661648 0.10147676
v 0.02340668 -0.12661648 0.10183670
v 0.01338712 -0.12661648 0.10353821
v 0.01255651 -0.43735665 0.17058453
v 0.01255651 -0.45639431 0.17045364
v 0.01255651 -0.45900372 0.16970104
v 0.02485298 -0.45455670 0.16849035
v 0.03500032 -0.45499772 0.16515276
v 0.04380591 -0.44496435 0.16233870
v 0.04296369 -0.43496776 0.16171700
v 0.04003043 -0.41989934 0.16001548
v 0.03555793 -0.12661648 0.09892448
v 0.03222969 -0.12661648 0.10000429
v 0.03139909 -0.12735152 0.10039695
v 0.03001087 -0.12661648 0.10059328
v 0.01255651 -0.12661648 0.10366909
v 0.01255651 -0.46506783 0.16786864
v 0.01500187 -0.46499431 0.16737781
v 0.02500400 -0.46499431 0.16525093
v 0.03512811 -0.46470031 0.16191334
v 0.04066936 -0.46117210 0.16040814
v 0.04233638 -0.45499772 0.16148795
v 0.04880698 -0.44496435 0.15923017
v 0.04796476 -0.43496776 0.15877207
v 0.04499664 -0.12661648 0.09444164
v 0.04390465 -0.12661648 0.09503063
v 0.01255651 -0.12661648 -0.15293275
v 0.01255651 -0.46741998 0.16675611
v 0.02500400 -0.47252852 0.16181517
v 0.03187538 -0.47116870 0.16083352
v 0.03854347 -0.46782425 0.15890296
v 0.05190288 -0.46238494 0.15167151
v 0.04733744 -0.45499772 0.15831397
v 0.05499877 -0.44496435 0.15474732
v 0.06043547 -0.43496776 0.15049353
v 0.05499877 -0.43496776 0.15428923
v 0.06005792 -0.42967543 0.15003543
v 0.05126395 -0.12661648 0.09074411
v 0.01486246 -0.12661648 -0.15381624
v 0.01255651 -0.13742164 -0.15126395
v 0.01255651 -0.47528493 0.16279681
v 0.01255651 -0.47627726 0.16210966
v 0.01255651 -0.47719607 0.16145523
v 0.01255651 -0.47962171 0.15962283
v 0.01684314 -0.47888666 0.15890296
v 0.02500400 -0.47752684 0.15749593
v 0.03179406 -0.48101830 0.15108252
v 0.03516876 -0.47502768 0.15500909
v 0.04234799 -0.47223452 0.15226050
v 0.05857097 -0.45676184 0.14790854
v 0.06004631 -0.45010966 0.15003543
v 0.05514399 -0.45404217 0.15268587
v 0.04901608 -0.46903706 0.14902107
v 0.05897175 -0.46837553 0.13858292
v 0.06042386 -0.44496435 0.15049353
v 0.06383922 -0.43496776 0.14499633
v 0.07188390 -0.12661648 0.07510325
v 0.06393796 -0.44496435 0.14499633
v 0.05626502 -0.12661648 0.08747196
v 0.02500400 -0.12661648 -0.15705566
v 0.02500400 -0.13503274 -0.15571408
v 0.01631457 -0.14502935 -0.15129668
v 0.01403766 -0.13595155 -0.15201655
v 0.01255651 -0.14194216 -0.15051137
v 0.01255651 -0.48190036 0.15720144
v 0.02500400 -0.48234138 0.15248954
v 0.03846215 -0.47888666 0.14889018
v 0.02500400 -0.48733968 0.14702506
v 0.03135843 -0.49050039 0.14077525
v 0.03491319 -0.48491403 0.14483272
v 0.04223182 -0.48212087 0.14221500
v 0.06078398 -0.46168661 0.14123335
v 0.06181788 -0.45404217 0.14473455
v 0.07089647 -0.45183703 0.13154779
v 0.06850921 -0.44496435 0.13756855
v 0.05230366 -0.47223452 0.14234589
v 0.04889991 -0.47888666 0.13805938
v 0.06092919 -0.47109520 0.13190773
v 0.06259041 -0.46499431 0.13514715
v 0.07147732 -0.44496435 0.13256216
v 0.06840465 -0.43496776 0.13727406
v 0.07188390 -0.12661648 -0.16229109
v 0.07132049 -0.43496776 0.13230039
v 0.07188390 -0.43496776 0.13079520
v 0.03448918 -0.12661648 -0.15937889
v 0.03500032 -0.13503274 -0.15816818
v 0.02500400 -0.14502935 -0.15404528
v 0.01835914 -0.15322511 -0.15057680
v 0.01255651 -0.14866783 -0.14930066
v 0.01255651 -0.48925081 0.14918467
v 0.01410737 -0.48314995 0.15533632
v 0.01500187 -0.48888329 0.14875929
v 0.02500400 -0.49138242 0.14205140
v 0.01500187 -0.49638075 0.13498355
v 0.02500400 -0.49399185 0.13498355
v 0.03347270 -0.49138242 0.13498355
v 0.03846796 -0.48906705 0.13498355
v 0.04533934 -0.48359096 0.13481994
v 0.07188390 -0.45378488 0.12497078
v 0.07188390 -0.44970539 0.12951908
v 0.07188390 -0.44496435 0.13138419
v 0.06634265 -0.46499431 0.12497078
v 0.05074700 -0.48057729 0.13138419
v 0.06192824 -0.47238153 0.12497078
v 0.05697945 -0.47737983 0.12497078
v 0.07188390 -0.44342077 0.13138419
v 0.06654595 -0.12661648 -0.16252014
v 0.07188390 -0.14080285 -0.16013148
v 0.07187229 -0.14083959 -0.16013148
v 0.03870029 -0.12661648 -0.16026236
v 0.04001300 -0.12999769 -0.15996787
v 0.03500032 -0.14502935 -0.15646668
v 0.03500032 -0.15502596 -0.15469971
v 0.02891308 -0.17152771 -0.15028231
v 0.02674072 -0.16502257 -0.15090401
v 0.02007844 -0.15991402 -0.14995509
v 0.01500187 -0.16502257 -0.14720650
v 0.01501348 -0.15594476 -0.14887530
v 0.01255651 -0.16502257 -0.14625756
v 0.01255651 -0.49281579 0.14430918
v 0.01500187 -0.49259526 0.14375290
v 0.01255651 -0.49406534 0.14159329
v 0.01255651 -0.49693203 0.13491811
v 0.01255651 -0.49748331 0.13256216
v 0.01255651 -0.49902689 0.12588698
v 0.02500400 -0.49638075 0.12497078
v 0.03500032 -0.49568245 0.11499073
v 0.03993749 -0.48994911 0.12984627
v 0.07147732 -0.46304646 0.10497796
v 0.07188390 -0.46220118 0.10497796
v 0.06907262 -0.46804476 0.10497796
v 0.05197839 -0.48156959 0.12497078
v 0.06300280 -0.47385162 0.11499073
v 0.05869294 -0.47884992 0.11499073
v 0.05969780 -0.47973198 0.10864276
v 0.06499510 -0.12661648 -0.16258559
v 0.07188390 -0.16502257 -0.15568136
v 0.06499510 -0.16502257 -0.15597585
v 0.06499510 -0.14631568 -0.15934616
v 0.06499510 -0.14131738 -0.16019692
v 0.06499510 -0.13503274 -0.16124400
v 0.04338190 -0.12661648 -0.16098224
v 0.04400340 -0.13569428 -0.15960793
v 0.04499664 -0.14502935 -0.15820090
v 0.04499664 -0.15502596 -0.15640123
v 0.03500032 -0.16502257 -0.15286730
v 0.03174759 -0.17821662 -0.14962788
v 0.02500400 -0.19501239 -0.14439245
v 0.02500400 -0.18501578 -0.14645390
v 0.02534669 -0.17494567 -0.14858079
v 0.02174546 -0.16502257 -0.14949700
v 0.01500187 -0.17501917 -0.14524320
v 0.01255651 -0.17255677 -0.14478511
v 0.01255651 -0.50053376 0.11917908
v 0.01806872 -0.49954143 0.11806655
v 0.02484136 -0.49873286 0.11482712
v 0.02140277 -0.50027645 0.11139137
v 0.03500032 -0.49678501 0.10497796
v 0.04343417 -0.49252176 0.10497796
v 0.04244093 -0.49189699 0.11499073
v 0.04744200 -0.48792773 0.11499073
v 0.05369188 -0.48292941 0.11499073
v 0.07188390 -0.46234816 0.10412720
v 0.06350814 -0.47583622 0.10517428
v 0.06914233 -0.46844906 0.09499791
v 0.07188390 -0.46330374 0.09499791
v 0.06042386 -0.48032001 0.10196758
v 0.05778102 -0.14094986 -0.16013148
v 0.05661352 -0.12661648 -0.16229109
v 0.07188390 -0.17189524 -0.15437250
v 0.05499877 -0.16502257 -0.15561591
v 0.06499510 -0.17501917 -0.15404528
v 0.05499877 -0.17501917 -0.15371807
v 0.04468879 -0.12661648 -0.16114585
v 0.04667528 -0.13282761 -0.16042598
v 0.05111293 -0.13951652 -0.15990242
v 0.04499664 -0.16502257 -0.15456882
v 0.03840987 -0.18167134 -0.15031503
v 0.03504679 -0.17494567 -0.15096946
v 0.03504679 -0.18501578 -0.14894073
v 0.03500032 -0.19501239 -0.14684656
v 0.02955200 -0.22055520 -0.14010593
v 0.02738546 -0.21500561 -0.14072764
v 0.02417920 -0.20578080 -0.14184017
v 0.02029916 -0.20963979 -0.13990961
v 0.01821393 -0.20295088 -0.14062947
v 0.01500187 -0.18501578 -0.14324719
v 0.01255651 -0.18501578 -0.14233099
v 0.01255651 -0.50145257 0.11485984
v 0.01484504 -0.50097477 0.11482712
v 0.01255651 -0.50159955 0.11253662
v 0.01255651 -0.50207734 0.10497796
v 0.02625281 -0.49921066 0.10497796
v 0.03500032 -0.49549869 0.09499791
v 0.04274297 -0.49189699 0.09499791
v 0.04843524 -0.48880976 0.10497796
v 0.06042386 -0.48032001 0.09862999
v 0.06357203 -0.47565246 0.09516151
v 0.06314801 -0.47355759 0.08498513
v 0.06205022 -0.47227126 0.07497235
v 0.06814908 -0.46686870 0.08498513
v 0.07109977 -0.46187037 0.08498513
v 0.07188390 -0.46051055 0.08498513
v 0.05499877 -0.15502596 -0.15744832
v 0.05466769 -0.14458832 -0.15928072
v 0.05494650 -0.12661648 -0.16222565
v 0.07188390 -0.17501917 -0.15375079
v 0.06499510 -0.18501578 -0.15204927
v 0.05499877 -0.19174144 -0.15034775
v 0.04913806 -0.19056538 -0.15008599
v 0.04499664 -0.17501917 -0.15263826
v 0.04246997 -0.18832348 -0.14962788
v 0.03500032 -0.20500901 -0.14471966
v 0.03306611 -0.22724411 -0.13935333
v 0.02898278 -0.26116642 -0.13028949
v 0.02500400 -0.23503558 -0.13545948
v 0.02573005 -0.22434068 -0.13814265
v 0.03500032 -0.21500561 -0.14252733
v 0.01500187 -0.21500561 -0.13680106
v 0.01492636 -0.20578080 -0.13882980
v 0.01960796 -0.25061852 -0.13012588
v 0.01772602 -0.24503219 -0.13081303
v 0.01500187 -0.22500223 -0.13451056
v 0.01255651 -0.19990045 -0.13925518
v 0.01492636 -0.19442436 -0.14128390
v 0.01255651 -0.19277051 -0.14076036
v 0.01255651 -0.50071752 0.09568506
v 0.02027012 -0.50001919 0.09974252
v 0.02416177 -0.49847561 0.09584866
v 0.02500400 -0.49402860 0.07497235
v 0.03508744 -0.49123544 0.07569223
v 0.03847377 -0.48932433 0.07284546
v 0.04016402 -0.49009609 0.07948792
v 0.05140335 -0.48098156 0.07497235
v 0.05930863 -0.47947472 0.09195480
v 0.04409052 -0.48638415 0.07569223
v 0.06099889 -0.47109520 0.06767546
v 0.06745788 -0.46440631 0.07484147
v 0.05639861 -0.47726959 0.07497235
v 0.06969412 -0.45948148 0.07140572
v 0.07040276 -0.46065757 0.07808090
v 0.07188390 -0.45859945 0.07958609
v 0.07188390 -0.18501578 -0.15175478
v 0.07188390 -0.19188845 -0.15038048
v 0.06499510 -0.19255000 -0.15051137
v 0.05499877 -0.19673975 -0.14930066
v 0.05499877 -0.21500561 -0.14534137
v 0.04499664 -0.21500561 -0.14426155
v 0.04499664 -0.20500901 -0.14645390
v 0.04548455 -0.19435085 -0.14880985
v 0.04548455 -0.18501578 -0.15070769
v 0.03972839 -0.23025779 -0.14004049
v 0.03583673 -0.22434068 -0.14059675
v 0.03583673 -0.23415354 -0.13830625
v 0.03500032 -0.24503219 -0.13555765
v 0.02538735 -0.26473138 -0.12835892
v 0.02231469 -0.25727069 -0.12930784
v 0.02538735 -0.25436726 -0.13091120
v 0.02500400 -0.24503219 -0.13307081
v 0.03500032 -0.25502878 -0.13313626
v 0.03256077 -0.26785535 -0.12943873
v 0.02500400 -0.28501862 -0.12302531
v 0.02500400 -0.27502203 -0.12561032
v 0.01255651 -0.21257997 -0.13640840
v 0.01255651 -0.23713046 -0.13081303
v 0.01576277 -0.25436726 -0.12780266
v 0.01975898 -0.29034770 -0.12008039
v 0.01500187 -0.26502541 -0.12489045
v 0.01255651 -0.24481168 -0.12898062
v 0.01255651 -0.24054842 -0.13002771
v 0.01255651 -0.19651924 -0.13997504
v 0.01255651 -0.50046027 0.09431075
v 0.01408994 -0.50046027 0.09584866
v 0.01500187 -0.49612349 0.07497235
v 0.03180568 -0.49064738 0.06865712
v 0.03508744 -0.48733968 0.06518863
v 0.04120373 -0.48079780 0.05880795
v 0.04471784 -0.48223114 0.06564674
v 0.05036945 -0.48024651 0.06940971
v 0.06872411 -0.45819515 0.06499231
v 0.05483614 -0.47480717 0.06522135
v 0.05930283 -0.46929434 0.06100028
v 0.07188390 -0.40964547 -0.03091435
v 0.07188390 -0.41041726 -0.02937644
v 0.07188390 -0.45657808 0.07399071
v 0.07188390 -0.45727634 0.07585584
v 0.07188390 -0.45319688 0.06499231
v 0.07188390 -0.19534317 -0.14966060
v 0.06499510 -0.19754830 -0.14946428
v 0.06499510 -0.20500901 -0.14786093
v 0.06499510 -0.21500561 -0.14566858
v 0.05997080 -0.24003389 -0.13997504
v 0.05499877 -0.22500223 -0.14308359
v 0.04499664 -0.22500223 -0.14200377
v 0.04499664 -0.23690996 -0.13925518
v 0.04499664 -0.24503219 -0.13732460
v 0.04499664 -0.25502878 -0.13490322
v 0.03922886 -0.27064851 -0.13015860
v 0.03554051 -0.26473138 -0.13084576
v 0.03554051 -0.27439722 -0.12842436
v 0.03500032 -0.28501862 -0.12554488
v 0.02954620 -0.30045456 -0.12011310
v 0.02573005 -0.29420668 -0.12073481
v 0.01782477 -0.28501862 -0.12076753
v 0.02287811 -0.29699984 -0.11913146
v 0.01500187 -0.30501184 -0.11405963
v 0.01585571 -0.29420668 -0.11756083
v 0.01255651 -0.28501862 -0.11883697
v 0.01255651 -0.28060836 -0.12001494
v 0.01255651 -0.27722716 -0.12089843
v 0.01255651 -0.49663800 0.07516868
v 0.01255651 -0.49571919 0.07251824
v 0.02500400 -0.49149269 0.06705376
v 0.02500400 -0.48873627 0.06208009
v 0.03005153 -0.47998923 0.04994043
v 0.03403612 -0.48175335 0.05527402
v 0.04786020 -0.47855592 0.06276724
v 0.07188390 -0.39950186 -0.04917294
v 0.07188390 -0.40152323 -0.04573718
v 0.07188390 -0.40240526 -0.04416655
v 0.07188390 -0.40769759 -0.03451372
v 0.07188390 -0.19688676 -0.14933339
v 0.07188390 -0.20269361 -0.14808998
v 0.07188390 -0.21500561 -0.14540681
v 0.06720811 -0.23996037 -0.13997504
v 0.06499510 -0.22500223 -0.14341080
v 0.06054002 -0.24003389 -0.13997504
v 0.06499510 -0.25502878 -0.13634296
v 0.06499510 -0.26502541 -0.13388886
v 0.05932606 -0.28020409 -0.13002771
v 0.05499877 -0.26502541 -0.13352892
v 0.05499877 -0.25502878 -0.13598302
v 0.05598040 -0.24403988 -0.13873163
v 0.05330271 -0.23893133 -0.13974600
v 0.04499664 -0.26502541 -0.13244911
v 0.04499664 -0.27241260 -0.13058399
v 0.04499664 -0.27741092 -0.12930784
v 0.04499664 -0.28501862 -0.12734455
v 0.03500032 -0.29501525 -0.12286171
v 0.03500032 -0.30247593 -0.12073481
v 0.03500032 -0.30747426 -0.11919691
v 0.02573005 -0.30427679 -0.11782260
v 0.01564079 -0.31434691 -0.11114742
v 0.01255651 -0.31250930 -0.11068932
v 0.01255651 -0.30501184 -0.11311071
v 0.01255651 -0.29461095 -0.11612108
v 0.01255651 -0.49266875 0.06456693
v 0.01468240 -0.49219099 0.06443604
v 0.01780734 -0.48950809 0.06073852
v 0.02500400 -0.48432600 0.05497953
v 0.01500187 -0.48164308 0.04738815
v 0.01255651 -0.48090804 0.04542486
v 0.01255651 -0.47862941 0.04195638
v 0.02500400 -0.47719607 0.04408328
v 0.07188390 -0.39115909 -0.06160710
v 0.07188390 -0.39567959 -0.05499736
v 0.07188390 -0.22500223 -0.14314903
v 0.07188390 -0.23944585 -0.13984416
v 0.07188390 -0.24301082 -0.13899340
v 0.07188390 -0.25502878 -0.13608119
v 0.07054216 -0.28016734 -0.13002771
v 0.06499510 -0.28027758 -0.13006043
v 0.06499510 -0.28527588 -0.12875158
v 0.06499510 -0.29501525 -0.12613386
v 0.05499877 -0.29501525 -0.12574120
v 0.05559123 -0.28413656 -0.12871885
v 0.05265797 -0.27921176 -0.12976594
v 0.05559123 -0.27553654 -0.13094392
v 0.04499664 -0.29501525 -0.12466139
v 0.04099463 -0.30953237 -0.11981861
v 0.03500032 -0.31497169 -0.11657919
v 0.02500400 -0.31497169 -0.11399419
v 0.01939885 -0.32048452 -0.11019850
v 0.01273076 -0.31728709 -0.10895509
v 0.01255651 -0.31691957 -0.10902052
v 0.01255651 -0.49101490 0.06152383
v 0.01255651 -0.48895681 0.05805535
v 0.01255651 -0.48175335 0.04673372
v 0.06499510 -0.38248557 -0.07296146
v 0.07188390 -0.38241205 -0.07286329
v 0.07188390 -0.38741034 -0.06661349
v 0.01255651 -0.47385162 0.03662278
v 0.04499664 -0.38164026 -0.07184892
v 0.05499877 -0.38226503 -0.07260152
v 0.07188390 -0.27851349 -0.13035493
v 0.07188390 -0.28156391 -0.12956962
v 0.07188390 -0.29501525 -0.12587209
v 0.07188390 -0.30192465 -0.12390880
v 0.06499510 -0.30501184 -0.12328710
v 0.05499877 -0.30501184 -0.12289444
v 0.04765691 -0.31096572 -0.12034216
v 0.04459005 -0.30571014 -0.12148741
v 0.04459005 -0.31456742 -0.11854248
v 0.02500400 -0.32246915 -0.11104926
v 0.04499664 -0.32496831 -0.11445230
v 0.03465181 -0.32566661 -0.11219451
v 0.02500400 -0.32746747 -0.10885692
v 0.01564079 -0.32430676 -0.10708996
v 0.01255651 -0.32449052 -0.10571565
v 0.06499510 -0.37811205 -0.07793512
v 0.07188390 -0.37807530 -0.07786968
v 0.01255651 -0.37164366 -0.07171804
v 0.01500187 -0.37226844 -0.07237247
v 0.02323823 -0.37895733 -0.06880583
v 0.02990632 -0.38002315 -0.07001652
v 0.03500032 -0.38061118 -0.07070367
v 0.04499664 -0.37708297 -0.07685531
v 0.05499877 -0.37778127 -0.07760791
v 0.07188390 -0.30501184 -0.12302531
v 0.07188390 -0.31221527 -0.12076753
v 0.06499510 -0.31258279 -0.12089843
v 0.05499877 -0.31203151 -0.12070209
v 0.05499877 -0.31699306 -0.11890242
v 0.03108543 -0.32941532 -0.10974040
v 0.05499877 -0.32496831 -0.11566298
v 0.04499664 -0.33224526 -0.11114742
v 0.03775352 -0.33099568 -0.11049299
v 0.02500400 -0.33496490 -0.10506123
v 0.01550139 -0.33492815 -0.10188724
v 0.01255651 -0.33356833 -0.10146187
v 0.06499510 -0.37311375 -0.08310512
v 0.07188390 -0.37307698 -0.08307239
v 0.01255651 -0.36469749 -0.07872044
v 0.01500187 -0.36734363 -0.07737885
v 0.02275032 -0.36903423 -0.07904765
v 0.02632832 -0.37458384 -0.07453208
v 0.02941841 -0.37017357 -0.08019290
v 0.03500032 -0.37094536 -0.08094550
v 0.03500032 -0.37594366 -0.07571006
v 0.04499664 -0.37208468 -0.08205803
v 0.05499877 -0.37278298 -0.08277790
v 0.07188390 -0.31563324 -0.11955684
v 0.07188390 -0.31717682 -0.11900058
v 0.06499510 -0.31754434 -0.11909875
v 0.06499510 -0.32496831 -0.11608837
v 0.03465181 -0.33459738 -0.10787527
v 0.06499510 -0.33386233 -0.11196546
v 0.05499877 -0.33342132 -0.11173641
v 0.05499877 -0.33841962 -0.10915142
v 0.04499664 -0.33724356 -0.10852970
v 0.02500400 -0.34187433 -0.10120009
v 0.01916651 -0.34044099 -0.10028389
v 0.01255651 -0.33823586 -0.09904047
v 0.06499510 -0.36793166 -0.08811150
v 0.07188390 -0.37145990 -0.08464302
v 0.01255651 -0.36172053 -0.08153448
v 0.01500187 -0.36234534 -0.08212347
v 0.02500400 -0.35878035 -0.08899498
v 0.02565454 -0.36539575 -0.08330144
v 0.03037099 -0.35984617 -0.08987846
v 0.03422199 -0.36451373 -0.08667175
v 0.03703908 -0.36087525 -0.09072922
v 0.04499664 -0.36679235 -0.08706442
v 0.05499877 -0.36756414 -0.08778428
v 0.07188390 -0.32265291 -0.11680824
v 0.07188390 -0.32496831 -0.11585931
v 0.07188390 -0.33088541 -0.11314343
v 0.07188390 -0.33364183 -0.11186729
v 0.03599937 -0.34521878 -0.10201813
v 0.06499510 -0.33886066 -0.10938046
v 0.05499877 -0.34499827 -0.10515939
v 0.04499664 -0.34499827 -0.10391597
v 0.03999558 -0.34999657 -0.09998940
v 0.03332749 -0.34871024 -0.09913864
v 0.02500400 -0.34687263 -0.09792794
v 0.01550139 -0.34426323 -0.09632459
v 0.01255651 -0.33834612 -0.09897503
v 0.05499877 -0.36256585 -0.09223440
v 0.06499510 -0.36293337 -0.09249618
v 0.07188390 -0.36635134 -0.08945308
v 0.07188390 -0.36789492 -0.08807878
v 0.01500187 -0.35650173 -0.08709713
v 0.01255651 -0.35348803 -0.08850416
v 0.01500187 -0.35150343 -0.09112187
v 0.02500400 -0.35378206 -0.09292156
v 0.04499664 -0.36179405 -0.09154726
v 0.04499664 -0.35554618 -0.09655364
v 0.07188390 -0.33864015 -0.10928230
v 0.07188390 -0.34499827 -0.10545389
v 0.06499510 -0.34499827 -0.10561749
v 0.05499877 -0.35139316 -0.10100377
v 0.04499664 -0.35054785 -0.10038205
v 0.01255651 -0.35084188 -0.09063105
v 0.05499877 -0.35639146 -0.09720808
v 0.06499510 -0.35672224 -0.09750257
v 0.07188390 -0.36289662 -0.09246346
v 0.07188390 -0.34955555 -0.10254167
v 0.06499510 -0.35172394 -0.10123281
v 0.07188390 -0.35664874 -0.09746984
v 0.07188390 -0.36098549 -0.09400137
v 0.07188390 -0.35165042 -0.10116737
f 1 2 3
f 1 3 4
f 1 4 15
f 1 15 27
f 1 27 38
f 1 38 51
f 1 51 75
f 1 75 100
f 1 100 130
f 1 130 164
f 1 164 199
f 1 199 237
f 1 237 282
f 1 282 235
f 1 235 275
f 1 275 276
f 1 276 281
f 1 281 280
f 1 280 321
f 1 321 320
f 1 320 319
f 1 319 357
f 1 357 356
f 1 356 355
f 1 355 386
f 1 386 410
f 1 410 431
f 1 431 454
f 1 454 478
f 1 478 494
f 1 494 484
f 1 484 457
f 1 457 434
f 1 434 413
f 1 413 393
f 1 393 364
f 1 364 363
f 1 363 389
f 1 389 388
f 1 388 387
f 1 387 358
f 1 358 323
f 1 323 322
f 1 322 283
f 1 283 238
f 1 238 203
f 1 203 202
f 1 202 200
f 1 200 165
f 1 165 136
f 1 136 135
f 1 135 134
f 1 134 133
f 1 133 131
f 1 131 101
f 1 101 76
f 1 76 55
f 1 55 54
f 1 54 53
f 1 53 52
f 1 52 39
f 1 39 28
f 1 28 17
f 1 17 16
f 1 16 5
f 1 5 6
f 1 6 7
f 1 7 8
f 1 8 2
f 2 8 7
f 2 7 9
f 2 9 10
f 2 10 11
f 2 11 3
f 3 11 12
f 3 12 13
f 3 13 14
f 3 14 15
f 3 15 4
f 5 16 6
f 6 16 17
f 6 17 7
f 7 17 18
f 7 18 19
f 7 19 9
f 9 20 21
f 9 21 10
f 9 19 20
f 10 21 22
f 10 22 23
f 10 23 24
f 10 24 25
f 10 25 11
f 11 25 26
f 11 26 12
f 12 26 24
f 12 24 23
f 12 23 37
f 12 37 36
f 12 36 49
f 12 49 70
f 12 70 68
f 12 68 93
f 12 93 118
f 12 118 147
f 12 147 180
f 12 180 217
f 12 217 185
f 12 185 153
f 12 153 121
f 12 121 96
f 12 96 71
f 12 71 50
f 12 50 38
f 12 38 27
f 12 27 14
f 12 14 13
f 14 27 15
f 17 28 18
f 18 28 29
f 18 29 30
f 18 30 19
f 19 30 31
f 19 31 32
f 19 32 33
f 19 33 20
f 20 33 34
f 20 34 35
f 20 35 21
f 21 35 36
f 21 36 37
f 21 37 22
f 22 37 23
f 24 26 25
f 28 39 40
f 28 40 30
f 28 30 29
f 30 40 41
f 30 41 31
f 31 41 42
f 31 42 32
f 32 42 43
f 32 43 44
f 32 44 33
f 33 44 34
f 34 44 45
f 34 45 46
f 34 46 47
f 34 47 35
f 35 47 48
f 35 48 49
f 35 49 36
f 38 50 51
f 39 52 40
f 40 52 53
f 40 53 54
f 40 54 55
f 40 55 41
f 41 55 56
f 41 56 57
f 41 57 58
f 41 58 59
f 41 59 60
f 41 60 42
f 42 60 43
f 43 61 62
f 43 62 63
f 43 63 44
f 43 60 64
f 43 64 65
f 43 65 61
f 44 63 62
f 44 62 45
f 45 62 66
f 45 66 46
f 46 67 68
f 46 68 48
f 46 48 47
f 46 66 69
f 46 69 67
f 48 68 70
f 48 70 49
f 50 71 72
f 50 72 73
f 50 73 74
f 50 74 51
f 51 74 73
f 51 73 75
f 55 76 77
f 55 77 57
f 55 57 56
f 57 77 58
f 58 78 59
f 58 77 79
f 58 79 80
f 58 80 81
f 58 81 78
f 59 78 60
f 60 78 82
f 60 82 64
f 61 65 83
f 61 83 84
f 61 84 62
f 62 84 85
f 62 85 86
f 62 86 69
f 62 69 66
f 64 82 87
f 64 87 65
f 65 87 88
f 65 88 89
f 65 89 90
f 65 90 83
f 67 69 86
f 67 86 91
f 67 91 92
f 67 92 68
f 68 92 94
f 68 94 95
f 68 95 117
f 68 117 112
f 68 112 111
f 68 111 110
f 68 110 141
f 68 141 174
f 68 174 177
f 68 177 214
f 68 214 253
f 68 253 297
f 68 297 296
f 68 296 298
f 68 298 295
f 68 295 294
f 68 294 332
f 68 332 331
f 68 331 330
f 68 330 329
f 68 329 367
f 68 367 366
f 68 366 392
f 68 392 391
f 68 391 412
f 68 412 433
f 68 433 456
f 68 456 482
f 68 482 481
f 68 481 497
f 68 497 501
f 68 501 500
f 68 500 502
f 68 502 498
f 68 498 490
f 68 490 489
f 68 489 469
f 68 469 468
f 68 468 467
f 68 467 466
f 68 466 444
f 68 444 443
f 68 443 421
f 68 421 420
f 68 420 399
f 68 399 398
f 68 398 397
f 68 397 396
f 68 396 371
f 68 371 370
f 68 370 369
f 68 369 368
f 68 368 335
f 68 335 334
f 68 334 333
f 68 333 299
f 68 299 255
f 68 255 254
f 68 254 218
f 68 218 181
f 68 181 148
f 68 148 119
f 68 119 93
f 71 96 97
f 71 97 72
f 72 97 98
f 72 98 99
f 72 99 73
f 73 99 75
f 75 99 100
f 76 101 102
f 76 102 77
f 77 102 79
f 78 81 82
f 79 102 103
f 79 103 104
f 79 104 80
f 80 104 105
f 80 105 106
f 80 106 107
f 80 107 108
f 80 108 82
f 80 82 81
f 82 88 87
f 82 108 109
f 82 109 88
f 83 85 84
f 83 90 85
f 85 110 111
f 85 111 112
f 85 112 91
f 85 91 86
f 85 90 89
f 85 89 113
f 85 113 110
f 88 109 114
f 88 114 89
f 89 115 113
f 89 114 116
f 89 116 115
f 91 112 117
f 91 117 94
f 91 94 92
f 93 119 120
f 93 120 118
f 94 117 95
f 96 121 97
f 97 121 122
f 97 122 123
f 97 123 98
f 98 123 124
f 98 124 125
f 98 125 126
f 98 126 127
f 98 127 99
f 99 127 128
f 99 128 129
f 99 129 100
f 100 129 128
f 100 128 130
f 101 131 104
f 101 104 103
f 101 103 102
f 104 131 132
f 104 132 133
f 104 133 134
f 104 134 105
f 105 134 135
f 105 135 136
f 105 136 137
f 105 137 106
f 106 137 138
f 106 138 107
f 107 139 108
f 107 138 139
f 108 139 109
f 109 139 114
f 110 140 141
f 110 113 142
f 110 142 140
f 113 115 142
f 114 143 116
f 114 139 143
f 115 144 142
f 115 116 145
f 115 145 146
f 115 146 144
f 116 143 145
f 118 120 147
f 119 148 120
f 120 148 149
f 120 149 150
f 120 150 151
f 120 151 152
f 120 152 147
f 121 153 122
f 122 153 154
f 122 154 155
f 122 155 123
f 123 155 124
f 124 155 156
f 124 156 188
f 124 188 157
f 124 157 125
f 125 158 159
f 125 159 160
f 125 160 161
f 125 161 162
f 125 162 126
f 125 157 158
f 126 162 127
f 127 162 163
f 127 163 128
f 128 163 164
f 128 164 130
f 131 133 132
f 136 165 166
f 136 166 167
f 136 167 137
f 137 167 138
f 138 167 168
f 138 168 169
f 138 169 170
f 138 170 171
f 138 171 139
f 139 171 172
f 139 172 173
f 139 173 143
f 140 174 141
f 140 142 174
f 142 144 175
f 142 175 176
f 142 176 177
f 142 177 174
f 143 173 145
f 144 146 175
f 145 173 146
f 146 178 175
f 146 173 172
f 146 172 171
f 146 171 178
f 147 152 179
f 147 179 180
f 148 181 149
f 149 182 179
f 149 179 150
f 149 181 183
f 149 183 184
f 149 184 182
f 150 179 151
f 151 179 152
f 153 185 186
f 153 186 154
f 154 187 155
f 154 186 187
f 155 187 156
f 156 187 188
f 157 188 189
f 157 189 190
f 157 190 158
f 158 190 189
f 158 189 191
f 158 191 192
f 158 192 193
f 158 193 159
f 159 193 194
f 159 194 195
f 159 195 196
f 159 196 160
f 160 196 197
f 160 197 162
f 160 162 161
f 162 197 198
f 162 198 163
f 163 198 199
f 163 199 164
f 165 200 201
f 165 201 168
f 165 168 166
f 166 168 167
f 168 201 200
f 168 200 202
f 168 202 203
f 168 203 204
f 168 204 169
f 169 205 206
f 169 206 170
f 169 204 205
f 170 207 171
f 170 206 208
f 170 208 178
f 170 178 207
f 171 207 178
f 175 178 176
f 176 178 208
f 176 208 209
f 176 209 210
f 176 210 211
f 176 211 212
f 176 212 213
f 176 213 214
f 176 214 177
f 179 182 215
f 179 215 216
f 179 216 187
f 179 187 217
f 179 217 180
f 181 218 183
f 182 188 187
f 182 187 215
f 182 184 188
f 183 218 254
f 183 254 219
f 183 219 184
f 184 219 220
f 184 220 221
f 184 221 188
f 185 217 187
f 185 187 186
f 187 216 215
f 188 221 222
f 188 222 189
f 189 222 223
f 189 223 224
f 189 224 192
f 189 192 191
f 192 224 193
f 193 225 226
f 193 226 227
f 193 227 228
f 193 228 196
f 193 196 194
f 193 224 229
f 193 229 225
f 194 196 195
f 196 230 231
f 196 231 197
f 196 228 227
f 196 227 232
f 196 232 233
f 196 233 234
f 196 234 230
f 197 231 235
f 197 235 236
f 197 236 198
f 198 236 237
f 198 237 199
f 203 238 239
f 203 239 204
f 204 239 240
f 204 240 205
f 205 240 241
f 205 241 242
f 205 242 243
f 205 243 244
f 205 244 206
f 206 244 208
f 208 245 246
f 208 246 211
f 208 211 210
f 208 210 209
f 208 244 247
f 208 247 245
f 211 248 249
f 211 249 212
f 211 246 250
f 211 250 248
f 212 249 251
f 212 251 252
f 212 252 213
f 213 252 214
f 214 252 253
f 219 254 255
f 219 255 256
f 219 256 220
f 220 256 300
f 220 300 257
f 220 257 221
f 221 257 258
f 221 258 259
f 221 259 260
f 221 260 261
f 221 261 223
f 221 223 262
f 221 262 222
f 222 262 223
f 223 261 260
f 223 260 224
f 224 260 263
f 224 263 229
f 225 229 264
f 225 264 263
f 225 263 265
f 225 265 266
f 225 266 226
f 226 267 268
f 226 268 269
f 226 269 270
f 226 270 227
f 226 266 271
f 226 271 272
f 226 272 273
f 226 273 274
f 226 274 267
f 227 270 232
f 229 263 264
f 230 275 235
f 230 235 231
f 230 234 276
f 230 276 275
f 232 277 233
f 232 270 268
f 232 268 278
f 232 278 279
f 232 279 277
f 233 277 280
f 233 280 281
f 233 281 234
f 234 281 276
f 235 282 236
f 236 282 237
f 238 283 284
f 238 284 239
f 239 284 283
f 239 283 240
f 240 285 241
f 240 283 285
f 241 285 286
f 241 286 242
f 242 286 243
f 243 286 287
f 243 287 288
f 243 288 289
f 243 289 290
f 243 290 247
f 243 247 244
f 245 290 250
f 245 250 246
f 245 247 290
f 248 291 249
f 248 250 290
f 248 290 292
f 248 292 293
f 248 293 294
f 248 294 295
f 248 295 291
f 249 291 251
f 251 296 297
f 251 297 252
f 251 291 298
f 251 298 296
f 252 297 253
f 255 299 256
f 256 299 300
f 257 300 301
f 257 301 258
f 258 301 302
f 258 302 303
f 258 303 304
f 258 304 305
f 258 305 259
f 259 305 263
f 259 263 260
f 263 305 306
f 263 306 307
f 263 307 308
f 263 308 309
f 263 309 271
f 263 271 266
f 263 266 265
f 267 274 278
f 267 278 268
f 268 270 269
f 271 310 272
f 271 309 310
f 272 309 311
f 272 311 312
f 272 312 273
f 272 310 309
f 273 312 313
f 273 313 314
f 273 314 278
f 273 278 274
f 277 279 280
f 278 315 279
f 278 314 313
f 278 313 316
f 278 316 317
f 278 317 318
f 278 318 319
f 278 319 320
f 278 320 321
f 278 321 315
f 279 315 321
f 279 321 280
f 283 322 285
f 285 322 323
f 285 323 324
f 285 324 286
f 286 324 325
f 286 325 326
f 286 326 327
f 286 327 287
f 287 327 288
f 288 328 289
f 288 327 329
f 288 329 330
f 288 330 331
f 288 331 328
f 289 328 290
f 290 328 292
f 291 295 298
f 292 328 293
f 293 328 331
f 293 331 332
f 293 332 294
f 299 333 300
f 300 333 334
f 300 334 301
f 301 334 335
f 301 335 302
f 302 335 336
f 302 336 337
f 302 337 303
f 303 338 339
f 303 339 340
f 303 340 341
f 303 341 342
f 303 342 343
f 303 343 344
f 303 344 345
f 303 345 304
f 303 337 338
f 304 345 305
f 305 345 306
f 306 345 307
f 307 345 308
f 308 345 343
f 308 343 342
f 308 342 346
f 308 346 309
f 309 346 347
f 309 347 348
f 309 348 349
f 309 349 312
f 309 312 311
f 312 349 380
f 312 380 350
f 312 350 313
f 313 350 351
f 313 351 352
f 313 352 353
f 313 353 316
f 316 353 317
f 317 353 354
f 317 354 355
f 317 355 356
f 317 356 318
f 318 357 319
f 318 356 357
f 323 358 324
f 324 359 360
f 324 360 325
f 324 358 359
f 325 361 326
f 325 360 361
f 326 361 362
f 326 362 363
f 326 363 364
f 326 364 365
f 326 365 366
f 326 366 367
f 326 367 329
f 326 329 327
f 335 368 336
f 336 369 370
f 336 370 371
f 336 371 372
f 336 372 339
f 336 339 338
f 336 338 337
f 336 368 369
f 339 372 340
f 340 372 373
f 340 373 341
f 341 373 374
f 341 374 375
f 341 375 376
f 341 376 377
f 341 377 378
f 341 378 379
f 341 379 342
f 342 379 378
f 342 378 346
f 343 345 344
f 346 378 347
f 347 378 348
f 348 378 349
f 349 378 380
f 350 380 381
f 350 381 351
f 351 381 352
f 352 381 382
f 352 382 383
f 352 383 353
f 353 383 354
f 354 383 384
f 354 384 385
f 354 385 355
f 355 385 386
f 358 387 359
f 359 387 360
f 360 387 388
f 360 388 361
f 361 388 389
f 361 389 362
f 362 389 363
f 364 390 391
f 364 391 392
f 364 392 366
f 364 366 365
f 364 393 394
f 364 394 395
f 364 395 390
f 371 396 372
f 372 374 373
f 372 396 397
f 372 397 398
f 372 398 375
f 372 375 374
f 375 398 399
f 375 399 400
f 375 400 401
f 375 401 376
f 376 380 378
f 376 378 377
f 376 401 380
f 380 401 402
f 380 402 403
f 380 403 381
f 381 402 404
f 381 404 382
f 381 403 402
f 382 405 383
f 382 404 406
f 382 406 407
f 382 407 405
f 383 405 384
f 384 405 408
f 384 408 409
f 384 409 385
f 385 409 410
f 385 410 386
f 390 395 411
f 390 411 412
f 390 412 391
f 393 413 414
f 393 414 415
f 393 415 416
f 393 416 417
f 393 417 418
f 393 418 394
f 394 418 419
f 394 419 395
f 395 419 411
f 399 420 400
f 400 420 421
f 400 421 422
f 400 422 423
f 400 423 401
f 401 423 402
f 402 423 424
f 402 424 404
f 404 424 406
f 405 407 425
f 405 425 408
f 406 426 427
f 406 427 428
f 406 428 407
f 406 424 426
f 407 428 425
f 408 425 429
f 408 429 430
f 408 430 409
f 409 430 431
f 409 431 410
f 411 432 433
f 411 433 412
f 411 419 442
f 411 442 432
f 413 434 435
f 413 435 414
f 414 435 436
f 414 436 415
f 415 436 437
f 415 437 416
f 416 437 438
f 416 438 439
f 416 439 440
f 416 440 417
f 417 440 418
f 418 440 439
f 418 439 441
f 418 441 419
f 419 441 442
f 421 443 422
f 422 443 444
f 422 444 445
f 422 445 424
f 422 424 423
f 424 445 446
f 424 446 426
f 425 428 447
f 425 447 429
f 426 446 448
f 426 448 449
f 426 449 427
f 427 449 450
f 427 450 451
f 427 451 428
f 428 451 447
f 429 452 453
f 429 453 430
f 429 447 452
f 430 453 454
f 430 454 431
f 432 442 455
f 432 455 456
f 432 456 433
f 434 457 458
f 434 458 435
f 435 458 436
f 436 438 437
f 436 458 459
f 436 459 460
f 436 460 438
f 438 460 461
f 438 461 462
f 438 462 439
f 439 462 463
f 439 463 464
f 439 464 441
f 441 464 465
f 441 465 442
f 442 465 455
f 444 466 445
f 445 466 446
f 446 466 467
f 446 467 468
f 446 468 469
f 446 469 448
f 447 451 470
f 447 470 452
f 448 469 489
f 448 489 471
f 448 471 450
f 448 450 449
f 450 471 472
f 450 472 473
f 450 473 451
f 451 473 474
f 451 474 470
f 452 470 475
f 452 475 476
f 452 476 453
f 453 476 477
f 453 477 478
f 453 478 454
f 455 465 479
f 455 479 480
f 455 480 481
f 455 481 482
f 455 482 456
f 457 483 458
f 457 484 483
f 458 483 459
f 459 461 460
f 459 483 485
f 459 485 486
f 459 486 461
f 461 463 462
f 461 486 475
f 461 475 474
f 461 474 463
f 463 487 464
f 463 474 488
f 463 488 487
f 464 487 465
f 465 487 479
f 470 474 475
f 471 489 490
f 471 490 491
f 471 491 472
f 472 491 492
f 472 492 493
f 472 493 473
f 473 493 474
f 474 493 488
f 475 486 476
f 476 486 485
f 476 485 477
f 477 485 494
f 477 494 478
f 479 487 495
f 479 495 496
f 479 496 480
f 480 496 497
f 480 497 481
f 483 484 485
f 484 494 485
f 487 488 495
f 488 493 495
f 490 498 491
f 491 498 499
f 491 499 492
f 492 499 496
f 492 496 495
f 492 495 493
f 496 499 500
f 496 500 501
f 496 501 497
f 498 502 499
f 499 502 500

