# https://github.com/mikedh/trimesh
v 0.07188971 -0.12661649 0.07512268
v 0.07188971 -0.12498607 0.07495833
v 0.06098026 0.02480547 0.07095927
v 0.05625690 -0.12661649 0.08747596
v 0.07188971 -0.12661649 -0.16227391
v 0.07188971 0.02480547 0.05819513
v 0.06085837 0.02480547 0.07104144
v 0.05125927 -0.12661649 0.09073547
v 0.05499225 0.02480547 0.07495833
v 0.06498751 -0.12661649 -0.16257522
v 0.07188971 -0.12498607 -0.16254783
v 0.07188971 0.02480547 -0.17459980
v 0.04828812 0.02480547 0.07898479
v 0.05007081 -0.12661649 0.09144764
v -0.06498124 -0.12661649 -0.16254783
v 0.06498751 -0.11499602 -0.16435562
v 0.07188971 -0.11499602 -0.16405432
v 0.07188971 0.01804662 -0.17457241
v 0.06498751 0.02480547 -0.17490110
v 0.04329050 0.02480547 0.08194301
v 0.04498177 -0.12661649 0.09446062
v -0.06498124 -0.11499602 -0.16432823
v -0.07500696 -0.12661649 -0.16213696
v -0.06498124 -0.10499114 -0.16572516
v 0.06498751 -0.09498626 -0.16709471
v 0.07188971 -0.10499114 -0.16545126
v 0.07188971 -0.11188339 -0.16449258
v 0.07188971 0.01499328 -0.17454502
v 0.06498751 0.01499328 -0.17481893
v -0.06498124 0.02480547 -0.17487371
v 0.04312290 0.02480547 0.08202518
v 0.04389996 -0.12661649 0.09503584
v -0.07499173 -0.11499602 -0.16391736
v -0.08376805 -0.12661649 -0.16117828
v -0.08376805 -0.11499602 -0.16298607
v -0.07499173 -0.09498626 -0.16665645
v -0.06498124 -0.09498626 -0.16706732
v 0.06498751 -0.08499621 -0.16829990
v 0.07188971 -0.08499621 -0.16802600
v 0.07188971 -0.09188846 -0.16717687
v 0.07188971 -0.09498626 -0.16679341
v 0.07188971 0.00810103 -0.17443545
v 0.06498751 0.00498841 -0.17465459
v -0.06498124 0.01499328 -0.17479153
v -0.07479365 0.02480547 -0.17446284
v -0.07499173 0.01499328 -0.17438067
v 0.03500175 0.02480547 0.08555859
v 0.03555027 -0.12661649 0.09892534
v -0.08376805 -0.10499114 -0.16438301
v -0.08376805 -0.12661649 0.06898712
v -0.08376805 -0.08622643 -0.16679341
v -0.07499173 -0.08499621 -0.16786166
v -0.08376805 -0.09623131 -0.16556081
v -0.08376805 -0.09498626 -0.16572516
v -0.06498124 -0.08499621 -0.16827251
v 0.06498751 -0.06978879 -0.16997075
v 0.07188971 -0.07499133 -0.16912162
v 0.07188971 0.00498841 -0.17438067
v -0.06498124 0.00498841 -0.17462718
v 0.07188971 -0.00190384 -0.17421633
v 0.06498751 -0.00500165 -0.17440806
v -0.08376805 0.02480547 -0.17350416
v -0.08376805 0.01376306 -0.17344938
v -0.08376805 0.02359007 -0.17350416
v -0.07499173 0.00498841 -0.17421633
v 0.03480367 0.02480547 0.08561338
v 0.03221344 -0.12661649 0.10002097
v -0.08370711 -0.12661649 0.07832741
v -0.08376805 -0.12498607 0.07810828
v -0.08376805 -0.08499621 -0.16693036
v -0.08047692 -0.06059913 -0.17002553
v -0.07499173 -0.07499133 -0.16895728
v -0.06498124 -0.06974433 -0.16994335
v -0.06498124 -0.06476412 -0.17046379
v 0.06498751 -0.06479377 -0.17049117
v 0.07188971 -0.06839552 -0.16983379
v -0.06498124 -0.00500165 -0.17438067
v 0.07188971 -0.00500165 -0.17413415
v 0.06498751 -0.01500653 -0.17399719
v -0.08376805 0.02480547 0.05830469
v -0.08376805 0.00498841 -0.17328504
v -0.07499173 -0.00500165 -0.17396981
v -0.08376805 0.00375817 -0.17325765
v 0.02499126 0.02480547 0.08805116
v 0.03000413 -0.12661649 0.10056879
v -0.03555924 -0.12661649 0.09892534
v -0.03499549 0.02480547 0.08555859
v -0.04329947 0.02480547 0.08194301
v -0.08376805 -0.06383033 -0.16925858
v -0.07499173 -0.06775817 -0.16972423
v -0.08376805 -0.05785705 -0.16980641
v -0.08376805 -0.05498157 -0.17005292
v -0.08376805 -0.05028298 -0.17043638
v -0.08376805 -0.03500146 -0.17155941
v -0.07499173 -0.03500146 -0.17246331
v -0.07499173 -0.04500634 -0.17172375
v -0.07499173 -0.05498157 -0.17092943
v -0.07499173 -0.06277797 -0.17024465
v -0.06498124 -0.05498157 -0.17136768
v 0.07188971 -0.06340049 -0.17035422
v 0.06498751 -0.05498157 -0.17139506
v -0.06498124 -0.01500653 -0.17396981
v 0.07188971 -0.01500653 -0.17372330
v 0.06498751 -0.02501141 -0.17350416
v -0.07499173 -0.01500653 -0.17355895
v -0.08376805 -0.00500165 -0.17303853
v 0.02485413 0.02480547 0.08807856
v 0.02549407 -0.12661649 0.10147269
v -0.03222241 -0.12661649 0.10002097
v -0.03118632 -0.12661649 0.10034966
v -0.02500024 0.02480547 0.08805116
v -0.08376805 -0.02624164 -0.17207985
v -0.07499173 -0.02501141 -0.17306592
v -0.06498124 -0.03500146 -0.17290157
v -0.06498124 -0.04500634 -0.17213462
v 0.07188971 -0.06036197 -0.17062813
v 0.07188971 -0.05498157 -0.17109378
v 0.06498751 -0.04500634 -0.17216201
v 0.07188971 -0.04500634 -0.17188810
v -0.06498124 -0.02501141 -0.17347677
v 0.07188971 -0.02501141 -0.17323026
v 0.06498751 -0.03500146 -0.17292896
v -0.08376805 -0.01623676 -0.17257288
v -0.08376805 -0.01500653 -0.17262766
v 0.01164394 0.02480547 0.09032461
v 0.02340665 -0.12661649 0.10182877
v -0.02550304 -0.12661649 0.10150008
v -0.01678767 0.02480547 0.08944810
v 0.07188971 -0.03500146 -0.17262766
v 0.07188971 -0.03190365 -0.17281939
v 0.00498552 0.02480547 0.09139284
v 0.00498552 -0.12661649 0.10489655
v 0.00513789 -0.12658685 0.10486916
v 0.01338092 -0.12661649 0.10352699
v -0.00500973 -0.12661649 0.10492393
v -0.01179005 0.02480547 0.09029722
v -0.00500973 0.02480547 0.09139284
f 1 2 3
f 1 3 4
f 1 4 8
f 1 8 14
f 1 14 21
f 1 21 32
f 1 32 48
f 1 48 67
f 1 67 85
f 1 85 108
f 1 108 126
f 1 126 134
f 1 134 132
f 1 132 135
f 1 135 127
f 1 127 110
f 1 110 109
f 1 109 86
f 1 86 68
f 1 68 50
f 1 50 34
f 1 34 23
f 1 23 15
f 1 15 10
f 1 10 5
f 1 5 11
f 1 11 17
f 1 17 27
f 1 27 26
f 1 26 41
f 1 41 40
f 1 40 39
f 1 39 57
f 1 57 76
f 1 76 100
f 1 100 116
f 1 116 117
f 1 117 119
f 1 119 129
f 1 129 130
f 1 130 121
f 1 121 103
f 1 103 78
f 1 78 60
f 1 60 58
f 1 58 42
f 1 42 28
f 1 28 18
f 1 18 12
f 1 12 6
f 1 6 2
f 2 6 3
f 3 6 12
f 3 12 19
f 3 19 30
f 3 30 45
f 3 45 62
f 3 62 80
f 3 80 88
f 3 88 87
f 3 87 111
f 3 111 128
f 3 128 136
f 3 136 137
f 3 137 131
f 3 131 125
f 3 125 107
f 3 107 84
f 3 84 66
f 3 66 47
f 3 47 31
f 3 31 20
f 3 20 13
f 3 13 9
f 3 9 7
f 3 7 4
f 4 7 9
f 4 9 8
f 5 10 11
f 8 13 14
f 8 9 13
f 10 15 22
f 10 22 16
f 10 16 11
f 11 16 17
f 12 18 19
f 13 20 21
f 13 21 14
f 15 23 22
f 16 22 24
f 16 24 25
f 16 25 26
f 16 26 27
f 16 27 17
f 18 28 29
f 18 29 19
f 19 29 44
f 19 44 30
f 20 31 32
f 20 32 21
f 22 23 33
f 22 33 24
f 23 34 35
f 23 35 33
f 24 33 36
f 24 36 37
f 24 37 25
f 25 37 55
f 25 55 38
f 25 38 39
f 25 39 40
f 25 40 41
f 25 41 26
f 28 42 29
f 29 42 43
f 29 43 59
f 29 59 44
f 30 44 46
f 30 46 45
f 31 47 48
f 31 48 32
f 33 35 49
f 33 49 36
f 34 50 69
f 34 69 80
f 34 80 62
f 34 62 64
f 34 64 63
f 34 63 81
f 34 81 83
f 34 83 106
f 34 106 124
f 34 124 123
f 34 123 112
f 34 112 94
f 34 94 93
f 34 93 92
f 34 92 91
f 34 91 89
f 34 89 70
f 34 70 51
f 34 51 54
f 34 54 53
f 34 53 49
f 34 49 35
f 36 51 52
f 36 52 55
f 36 55 37
f 36 49 53
f 36 53 54
f 36 54 51
f 38 55 56
f 38 56 39
f 39 56 57
f 42 58 43
f 43 58 60
f 43 60 61
f 43 61 77
f 43 77 59
f 44 59 65
f 44 65 46
f 45 46 63
f 45 63 64
f 45 64 62
f 46 65 63
f 47 66 67
f 47 67 48
f 50 68 69
f 51 70 71
f 51 71 52
f 52 72 73
f 52 73 55
f 52 71 72
f 55 73 56
f 56 73 74
f 56 74 75
f 56 75 100
f 56 100 76
f 56 76 57
f 59 77 82
f 59 82 65
f 60 78 61
f 61 78 103
f 61 103 79
f 61 79 102
f 61 102 77
f 63 65 81
f 65 82 83
f 65 83 81
f 66 84 67
f 67 84 85
f 68 86 87
f 68 87 88
f 68 88 69
f 69 88 80
f 70 89 71
f 71 90 72
f 71 89 91
f 71 91 92
f 71 92 93
f 71 93 94
f 71 94 95
f 71 95 96
f 71 96 97
f 71 97 98
f 71 98 90
f 72 90 73
f 73 90 98
f 73 98 74
f 74 98 99
f 74 99 75
f 75 99 101
f 75 101 100
f 77 102 105
f 77 105 82
f 79 103 121
f 79 121 104
f 79 104 120
f 79 120 102
f 82 105 124
f 82 124 106
f 82 106 83
f 84 107 108
f 84 108 85
f 86 109 87
f 87 109 110
f 87 110 111
f 94 112 113
f 94 113 95
f 95 113 114
f 95 114 96
f 96 114 115
f 96 115 99
f 96 99 97
f 97 99 98
f 99 115 118
f 99 118 101
f 100 101 116
f 101 117 116
f 101 118 119
f 101 119 117
f 102 120 113
f 102 113 105
f 104 121 122
f 104 122 114
f 104 114 120
f 105 113 112
f 105 112 123
f 105 123 124
f 107 125 126
f 107 126 108
f 110 127 111
f 111 127 128
f 113 120 114
f 114 122 118
f 114 118 115
f 118 122 119
f 119 122 129
f 121 130 122
f 122 130 129
f 125 131 132
f 125 132 133
f 125 133 134
f 125 134 126
f 127 135 136
f 127 136 128
f 131 137 135
f 131 135 132
f 132 134 133
f 135 137 136

