# https://github.com/mikedh/trimesh
v 0.00499870 -0.44496417 0.17310877
v 0.01254128 -0.44437367 0.17168340
v 0.01254128 -0.43821043 0.17076109
v 0.00518726 -0.43455678 0.17116356
v 0.00197224 -0.42861497 0.17030832
v -0.00197819 -0.42861497 0.17030832
v -0.00500465 -0.44496417 0.17309201
v -0.00579662 -0.45585132 0.17185108
v 0.00592266 -0.45592511 0.17185108
v 0.01254128 -0.45389530 0.17116356
v 0.01254128 -0.43732470 0.17059341
v 0.00499870 -0.12665339 0.10490866
v -0.00519321 -0.43455678 0.17116356
v -0.00500465 -0.12665339 0.10490866
v -0.01324492 -0.43761992 0.17054310
v -0.01991068 -0.44016641 0.16997294
v -0.01595082 -0.44407842 0.17104617
v -0.02136262 -0.44684634 0.17025802
v -0.02136262 -0.45083213 0.17025802
v -0.01500800 -0.45297265 0.17089525
v -0.00299644 -0.46205145 0.17059341
v 0.00320733 -0.46205145 0.17059341
v 0.00988252 -0.45991093 0.16997294
v 0.01254128 -0.45636797 0.17045924
v 0.01254128 -0.12665339 0.10366774
v -0.00661688 -0.12665339 0.10465712
v -0.01500800 -0.12665339 0.10326529
v -0.01662022 -0.12665339 0.10299698
v -0.02482278 -0.44407842 0.16940279
v -0.02550161 -0.12665339 0.10148776
v -0.02500192 -0.43499964 0.16794387
v -0.03500526 -0.44496417 0.16663589
v -0.03500526 -0.45496556 0.16516021
v -0.02482278 -0.45448577 0.16843018
v -0.00579662 -0.46522534 0.16910094
v -0.00500465 -0.47496840 0.16477451
v 0.00499870 -0.47496840 0.16482481
v 0.00592266 -0.46522534 0.16915125
v 0.01254128 -0.45898828 0.16970465
v 0.01254128 -0.46504080 0.16787681
v 0.01254128 -0.12665339 0.00179519
v -0.03500526 -0.43499964 0.16529435
v -0.03119626 -0.12665339 0.10036422
v -0.04297212 -0.43499964 0.16173929
v -0.04383951 -0.44496417 0.16235974
v -0.04242528 -0.45496556 0.16155483
v -0.04073763 -0.46123952 0.16044807
v -0.03512783 -0.46474555 0.16190699
v -0.02500192 -0.46496698 0.16514343
v -0.01500800 -0.46496698 0.16725634
v -0.02500192 -0.47253263 0.16180637
v -0.00500465 -0.48076260 0.16083376
v 0.01254128 -0.47626010 0.16212499
v 0.01254128 -0.47526366 0.16279575
v 0.01254128 -0.46743965 0.16677004
v 0.00499870 -0.48079950 0.16085052
v -0.08375862 -0.12665339 0.00179519
v 0.01254128 -0.39189389 0.00179519
v -0.04003051 -0.41986835 0.16001207
v -0.04102990 -0.42499822 0.16059899
v -0.03223336 -0.12665339 0.10002884
v -0.03556153 -0.12665339 0.09892207
v -0.04796908 -0.43499964 0.15880468
v -0.08375862 -0.12676410 0.07843018
v -0.04884590 -0.44496417 0.15927422
v -0.04742224 -0.45496556 0.15836869
v -0.05189122 -0.46253121 0.15171134
v -0.03854085 -0.46791941 0.15895560
v -0.03187509 -0.47113022 0.16085052
v -0.01009589 -0.48002446 0.16002885
v -0.00250617 -0.49072710 0.15078904
v 0.01254128 -0.47718275 0.16145422
v 0.01016536 -0.48002446 0.16004561
v 0.00256621 -0.49072710 0.15078904
v 0.00923197 -0.48976755 0.14974935
v -0.08375862 -0.12665339 0.06902269
v -0.08375862 -0.42134458 0.00179519
v 0.01254128 -0.40244889 0.00457887
v 0.00018087 -0.43009120 0.00997853
v 0.00597923 -0.39565828 0.00179519
v -0.08371148 -0.12665339 0.07836311
v -0.06006549 -0.42964834 0.15006797
v -0.05499310 -0.43499964 0.15431055
v -0.08375862 -0.16514592 0.08426584
v -0.06043319 -0.43499964 0.15050396
v -0.05499310 -0.44496417 0.15474656
v -0.06001835 -0.45005712 0.15001765
v -0.05513453 -0.45400602 0.15271750
v -0.05544566 -0.46544677 0.14520492
v -0.04922303 -0.46921113 0.14921275
v -0.05855697 -0.45670015 0.14783767
v -0.04255727 -0.47234809 0.15229827
v -0.03520326 -0.47507912 0.15503164
v -0.03185624 -0.48102093 0.15109089
v -0.02500192 -0.47751489 0.15747993
v -0.02500192 -0.48227572 0.15248272
v -0.02500192 -0.48729485 0.14703275
v -0.01500800 -0.48884490 0.14874321
v -0.00917193 -0.48973066 0.14971581
v -0.02500192 -0.49139139 0.14203554
v -0.00550435 -0.49342120 0.14582537
v 0.00553611 -0.49342120 0.14584213
v 0.01254128 -0.47961849 0.15964314
v 0.01254128 -0.48190665 0.15719485
v 0.01254128 -0.49279380 0.14431615
v 0.01254128 -0.48925087 0.14917921
v 0.01254128 -0.48375195 0.15518256
v -0.08027960 -0.42171362 0.00179519
v -0.00500465 -0.45271432 0.01817864
v -0.00500465 -0.45769659 0.02175047
v -0.00500465 -0.46422887 0.02674767
v -0.00500465 -0.46921113 0.03060458
v -0.01500800 -0.47338146 0.03664147
v -0.02500192 -0.47223741 0.03773146
v -0.03247850 -0.47109330 0.03887177
v -0.03913483 -0.46943256 0.04063253
v -0.03674006 -0.47847444 0.05227031
v -0.04105819 -0.48068875 0.05894443
v -0.04463148 -0.48216498 0.06566886
v -0.05038270 -0.48024589 0.06945869
v -0.05482340 -0.47478387 0.06523286
v -0.05927352 -0.46928495 0.06102381
v -0.06098945 -0.47109330 0.06768116
v -0.06201713 -0.47227430 0.07500927
v -0.08375862 -0.42230412 0.00501486
v 0.01254128 -0.43477821 0.01326528
v 0.00410302 -0.43404010 0.01165544
v 0.00499870 -0.44496417 0.01487512
v -0.03972881 -0.42008978 0.00179519
v -0.08375862 -0.40514302 0.10666942
v -0.07132279 -0.43499964 0.13229267
v -0.06840947 -0.43499964 0.13728988
v -0.06384621 -0.43499964 0.14498691
v -0.06849432 -0.44496417 0.13757496
v -0.06390278 -0.44496417 0.14498691
v -0.06040490 -0.44496417 0.15047044
v -0.07089852 -0.45182860 0.13153806
v -0.06176257 -0.45400602 0.14470184
v -0.05900953 -0.46832538 0.13859788
v -0.05233435 -0.47231120 0.14255539
v -0.04229328 -0.48216498 0.14232062
v -0.06073489 -0.46164548 0.14118032
v -0.03851257 -0.47899109 0.14899474
v -0.03494870 -0.48489600 0.14488630
v -0.03136597 -0.49050564 0.14077786
v -0.00474066 -0.49869871 0.13470742
v -0.01500800 -0.49257237 0.14374600
v 0.00477242 -0.49873561 0.13470742
v 0.01254128 -0.49404860 0.14159955
v -0.07499979 -0.42226720 0.00179519
v -0.06499645 -0.42271006 0.00179519
v 0.00499870 -0.45267743 0.01819541
v 0.00499870 -0.45769659 0.02180078
v 0.00499870 -0.46917421 0.03063812
v 0.00027516 -0.48002446 0.03992822
v -0.00029054 -0.48002446 0.03992822
v -0.00417497 -0.47555888 0.03644024
v -0.00695629 -0.47928637 0.04100145
v -0.01500800 -0.47836369 0.04234298
v -0.02500192 -0.47721964 0.04407020
v -0.03008373 -0.48002446 0.04995617
v -0.03460928 -0.47478387 0.04529435
v -0.03405301 -0.48175901 0.05537260
v -0.03509955 -0.48733178 0.06519932
v -0.03848428 -0.48932469 0.07281251
v -0.04410350 -0.48640913 0.07568004
v -0.05143866 -0.48102093 0.07500927
v -0.05643562 -0.47729343 0.07500927
v -0.05933952 -0.47947088 0.09191258
v -0.06042376 -0.48031971 0.09858669
v -0.06355393 -0.47566962 0.09514902
v -0.06310138 -0.47356600 0.08500368
v -0.06911658 -0.46839920 0.09499809
v -0.08375862 -0.42488751 0.01500927
v 0.01254128 -0.44496417 0.01614957
v 0.01254128 -0.44983569 0.01801095
v -0.05499310 -0.42252555 0.00179519
v -0.04506518 -0.42119694 0.00179519
v -0.04175587 -0.42064336 0.00179519
v -0.08375862 -0.41551349 0.10435528
v -0.07148308 -0.44496417 0.13257775
v -0.07411355 -0.44496417 0.12499809
v -0.07618776 -0.44496417 0.11498691
v -0.07346300 -0.45496556 0.11498691
v -0.07152078 -0.45511317 0.12404226
v -0.06927687 -0.45850849 0.12674209
v -0.06093289 -0.47109330 0.13194051
v -0.06257340 -0.46496698 0.13516019
v -0.04895904 -0.47895420 0.13807803
v -0.04537632 -0.48360431 0.13484159
v -0.03845600 -0.48906633 0.13499251
v -0.03345904 -0.49135447 0.13499251
v -0.02500192 -0.49393788 0.13499251
v -0.01500800 -0.49629983 0.13499251
v -0.02136262 -0.50028563 0.11128093
v -0.00500465 -0.50305355 0.11498691
v -0.00123336 -0.50024873 0.13120268
v 0.00129341 -0.50024873 0.13120268
v 0.00477242 -0.50094992 0.12483040
v 0.00795916 -0.49954754 0.12806685
v 0.01254128 -0.49903083 0.12590364
v 0.01254128 -0.49748081 0.13257775
v 0.01254128 -0.49692723 0.13492543
v -0.05879268 -0.42259938 0.00179519
v 0.01254128 -0.45171785 0.01883264
v 0.01254128 -0.45673704 0.02257216
v 0.01254128 -0.46814087 0.03144303
v 0.01254128 -0.47231120 0.03521609
v 0.01254128 -0.47386122 0.03664147
v 0.00415958 -0.47555888 0.03647378
v 0.00694091 -0.47928637 0.04101822
v 0.00415958 -0.48220190 0.04462358
v 0.00499870 -0.49087471 0.05860905
v -0.00500465 -0.49087471 0.05859228
v -0.00500465 -0.48773772 0.05357831
v -0.00417497 -0.48220190 0.04460681
v -0.01500800 -0.48168522 0.04735695
v -0.02500192 -0.48057806 0.04906741
v -0.02500192 -0.48437932 0.05500368
v -0.02500192 -0.48877108 0.06204673
v -0.03182795 -0.49065328 0.06867054
v -0.03509955 -0.49128067 0.07568004
v -0.03500526 -0.49556172 0.09499809
v -0.04017193 -0.49009970 0.07946987
v -0.05560594 -0.48294002 0.09514902
v -0.05315460 -0.48223880 0.08500368
v -0.04778051 -0.48840204 0.09499809
v -0.04277412 -0.49190807 0.09499809
v -0.04343410 -0.49253547 0.10499251
v -0.06042376 -0.48031971 0.10192375
v -0.06910716 -0.46817777 0.10499251
v -0.07178478 -0.46341693 0.09499809
v -0.08375862 -0.42695421 0.02500368
v -0.08375862 -0.42514583 0.01623342
v -0.08375862 -0.41986835 0.10234298
v -0.08375862 -0.42544109 0.09786562
v -0.07803569 -0.44496417 0.10499251
v -0.07546178 -0.45496556 0.10499251
v -0.08375862 -0.42640063 0.09674209
v -0.07053082 -0.46109188 0.11498691
v -0.07001227 -0.46002162 0.12006797
v -0.06712723 -0.46400744 0.12404226
v -0.06195113 -0.47238499 0.12499809
v -0.05693532 -0.47736728 0.12499809
v -0.05072212 -0.48057806 0.13140391
v -0.03990794 -0.48995209 0.12982760
v -0.03500526 -0.49563554 0.11498691
v -0.02500192 -0.49626291 0.12499809
v -0.02482278 -0.49869871 0.11475214
v -0.02635958 -0.49925229 0.10499251
v -0.01500800 -0.50161421 0.10499251
v -0.00500465 -0.50364405 0.10499251
v -0.03500526 -0.49677962 0.10499251
v 0.00499870 -0.50305355 0.11498691
v 0.01254128 -0.50017494 0.12082258
v 0.01254128 -0.47862205 0.04199083
v 0.01254128 -0.48091018 0.04546204
v 0.01254128 -0.48175901 0.04677003
v 0.01254128 -0.48895562 0.05808920
v 0.01112704 -0.49021041 0.05963197
v 0.01254128 -0.49102235 0.06156042
v 0.00499870 -0.49445456 0.06501486
v -0.00500465 -0.49449146 0.06501486
v -0.01124614 -0.49024731 0.05959843
v -0.01475344 -0.48707342 0.05575829
v -0.01792132 -0.48954612 0.06073873
v -0.02500192 -0.49150211 0.06704393
v -0.01500800 -0.49622601 0.07500927
v -0.02500192 -0.49412239 0.07500927
v -0.02500192 -0.49622601 0.08500368
v -0.02427594 -0.49855107 0.09571917
v -0.04110533 -0.49076399 0.08500368
v -0.04240642 -0.49187118 0.11498691
v -0.05967893 -0.47969231 0.10859787
v -0.06353508 -0.47581723 0.10516020
v -0.06806062 -0.46607417 0.11498691
v -0.07153964 -0.46315861 0.10499251
v -0.07620661 -0.45496556 0.09499809
v -0.06305423 -0.47382432 0.11498691
v -0.08375862 -0.42717564 0.02627814
v -0.08375862 -0.42798758 0.09472979
v -0.08375862 -0.43245316 0.08500368
v -0.05865125 -0.47880659 0.11498691
v -0.05193836 -0.48153758 0.12499809
v -0.04462206 -0.48722106 0.12590364
v -0.05364487 -0.48290312 0.11498691
v -0.04741281 -0.48788536 0.11498691
v -0.02045751 -0.50006419 0.09954254
v -0.00500465 -0.50213093 0.09499809
v -0.00030939 -0.50002730 0.07972141
v 0.00027516 -0.50002730 0.07972141
v 0.00499870 -0.50360715 0.10499251
v 0.01254128 -0.50205708 0.10499251
v 0.01254128 -0.50146663 0.11486953
v 0.01254128 -0.49268308 0.06457886
v 0.01254128 -0.49570936 0.07256098
v 0.00415958 -0.49847728 0.07583096
v -0.00418440 -0.49851418 0.07583096
v -0.01475344 -0.49220330 0.06444471
v -0.00697515 -0.49943680 0.08289077
v -0.01712935 -0.49943680 0.09286841
v -0.08375862 -0.43260077 0.07500927
v -0.08375862 -0.43182576 0.06501486
v -0.08375862 -0.42975906 0.04480805
v -0.08375862 -0.42850426 0.03494779
v -0.01046359 -0.50006419 0.08953135
v 0.01254128 -0.50072849 0.09570239
v 0.00499870 -0.50205708 0.09499809
v 0.01254128 -0.49663198 0.07519373
f 1 2 3
f 1 3 4
f 1 4 5
f 1 5 6
f 1 6 7
f 1 7 8
f 1 8 9
f 1 9 10
f 1 10 2
f 2 10 24
f 2 24 39
f 2 39 40
f 2 40 55
f 2 55 54
f 2 54 53
f 2 53 72
f 2 72 103
f 2 103 104
f 2 104 107
f 2 107 106
f 2 106 105
f 2 105 149
f 2 149 203
f 2 203 202
f 2 202 201
f 2 201 255
f 2 255 294
f 2 294 293
f 2 293 307
f 2 307 309
f 2 309 296
f 2 296 295
f 2 295 261
f 2 261 259
f 2 259 258
f 2 258 257
f 2 257 256
f 2 256 209
f 2 209 208
f 2 208 207
f 2 207 206
f 2 206 205
f 2 205 176
f 2 176 175
f 2 175 126
f 2 126 78
f 2 78 58
f 2 58 41
f 2 41 25
f 2 25 11
f 2 11 3
f 3 11 4
f 4 11 12
f 4 12 5
f 5 12 14
f 5 14 6
f 6 13 7
f 6 14 13
f 7 13 15
f 7 15 16
f 7 16 17
f 7 17 18
f 7 18 19
f 7 19 8
f 8 19 20
f 8 20 21
f 8 21 9
f 9 21 22
f 9 22 23
f 9 23 10
f 10 23 24
f 11 25 12
f 12 25 41
f 12 41 57
f 12 57 76
f 12 76 81
f 12 81 62
f 12 62 61
f 12 61 43
f 12 43 30
f 12 30 28
f 12 28 27
f 12 27 26
f 12 26 14
f 13 14 26
f 13 26 15
f 15 26 27
f 15 27 28
f 15 28 16
f 16 29 17
f 16 28 30
f 16 30 31
f 16 31 29
f 17 29 18
f 18 29 19
f 19 29 32
f 19 32 33
f 19 33 34
f 19 34 35
f 19 35 20
f 20 35 21
f 21 35 36
f 21 36 37
f 21 37 22
f 22 37 38
f 22 38 23
f 23 39 24
f 23 38 40
f 23 40 39
f 29 31 42
f 29 42 32
f 30 43 31
f 31 43 42
f 32 42 44
f 32 44 45
f 32 45 33
f 33 46 47
f 33 47 48
f 33 48 49
f 33 49 34
f 33 45 46
f 34 49 50
f 34 50 35
f 35 50 49
f 35 49 51
f 35 51 36
f 36 51 52
f 36 52 37
f 37 53 54
f 37 54 55
f 37 55 38
f 37 52 56
f 37 56 53
f 38 55 40
f 41 58 80
f 41 80 129
f 41 129 179
f 41 179 178
f 41 178 177
f 41 177 204
f 41 204 151
f 41 151 150
f 41 150 108
f 41 108 77
f 41 77 57
f 42 59 60
f 42 60 44
f 42 43 61
f 42 61 62
f 42 62 59
f 44 63 45
f 44 60 64
f 44 64 63
f 45 65 46
f 45 63 65
f 46 66 47
f 46 65 66
f 47 66 67
f 47 67 68
f 47 68 48
f 48 68 69
f 48 69 49
f 49 69 51
f 51 69 70
f 51 70 52
f 52 70 71
f 52 71 56
f 53 56 73
f 53 73 72
f 56 71 74
f 56 74 75
f 56 75 73
f 57 77 125
f 57 125 174
f 57 174 234
f 57 234 233
f 57 233 280
f 57 280 305
f 57 305 304
f 57 304 303
f 57 303 302
f 57 302 282
f 57 282 281
f 57 281 239
f 57 239 236
f 57 236 235
f 57 235 180
f 57 180 130
f 57 130 84
f 57 84 64
f 57 64 76
f 58 78 79
f 58 79 80
f 59 62 64
f 59 64 60
f 62 81 64
f 63 82 83
f 63 83 65
f 63 64 82
f 64 81 76
f 64 84 85
f 64 85 82
f 65 86 66
f 65 83 85
f 65 85 86
f 66 86 87
f 66 87 88
f 66 88 67
f 67 89 90
f 67 90 68
f 67 88 87
f 67 87 91
f 67 91 89
f 68 90 92
f 68 92 69
f 69 92 93
f 69 93 94
f 69 94 95
f 69 95 70
f 70 96 97
f 70 97 98
f 70 98 99
f 70 99 71
f 70 95 96
f 71 99 100
f 71 100 101
f 71 101 102
f 71 102 74
f 72 73 103
f 73 75 104
f 73 104 103
f 74 102 105
f 74 105 75
f 75 106 107
f 75 107 104
f 75 105 106
f 77 108 109
f 77 109 110
f 77 110 111
f 77 111 112
f 77 112 113
f 77 113 114
f 77 114 115
f 77 115 116
f 77 116 117
f 77 117 118
f 77 118 119
f 77 119 120
f 77 120 121
f 77 121 122
f 77 122 123
f 77 123 124
f 77 124 125
f 78 126 127
f 78 127 79
f 79 127 128
f 79 128 129
f 79 129 80
f 82 85 83
f 84 130 131
f 84 131 132
f 84 132 133
f 84 133 85
f 85 133 134
f 85 134 135
f 85 135 136
f 85 136 86
f 86 136 87
f 87 137 138
f 87 138 91
f 87 136 135
f 87 135 134
f 87 134 137
f 89 139 90
f 89 91 139
f 90 139 140
f 90 140 141
f 90 141 92
f 91 138 142
f 91 142 139
f 92 141 143
f 92 143 93
f 93 143 94
f 94 143 144
f 94 144 145
f 94 145 97
f 94 97 96
f 94 96 95
f 97 145 100
f 97 100 98
f 98 100 99
f 100 146 147
f 100 147 101
f 100 145 146
f 101 147 146
f 101 146 148
f 101 148 102
f 102 148 105
f 105 148 149
f 108 150 109
f 109 151 152
f 109 152 110
f 109 150 151
f 110 152 153
f 110 153 111
f 111 153 154
f 111 154 112
f 112 154 155
f 112 155 156
f 112 156 157
f 112 157 113
f 113 157 156
f 113 156 114
f 114 156 158
f 114 158 159
f 114 159 160
f 114 160 115
f 115 160 161
f 115 161 162
f 115 162 116
f 116 162 117
f 117 162 161
f 117 161 163
f 117 163 118
f 118 163 164
f 118 164 119
f 119 164 165
f 119 165 120
f 120 165 166
f 120 166 167
f 120 167 168
f 120 168 123
f 120 123 121
f 121 123 122
f 123 168 124
f 124 168 169
f 124 169 170
f 124 170 171
f 124 171 172
f 124 172 173
f 124 173 125
f 125 173 174
f 126 175 128
f 126 128 127
f 128 175 176
f 128 176 152
f 128 152 177
f 128 177 178
f 128 178 179
f 128 179 129
f 130 180 181
f 130 181 131
f 131 181 132
f 132 181 133
f 133 181 134
f 134 181 137
f 137 181 182
f 137 182 183
f 137 183 184
f 137 184 185
f 137 185 186
f 137 186 187
f 137 187 188
f 137 188 142
f 137 142 138
f 139 142 188
f 139 188 187
f 139 187 189
f 139 189 140
f 140 189 141
f 141 189 190
f 141 190 191
f 141 191 145
f 141 145 144
f 141 144 143
f 145 191 192
f 145 192 193
f 145 193 194
f 145 194 146
f 146 194 195
f 146 195 196
f 146 196 197
f 146 197 148
f 148 197 198
f 148 198 199
f 148 199 200
f 148 200 201
f 148 201 202
f 148 202 203
f 148 203 149
f 151 204 152
f 152 204 177
f 152 176 205
f 152 205 153
f 153 205 206
f 153 206 154
f 154 207 208
f 154 208 209
f 154 209 210
f 154 210 155
f 154 206 207
f 155 210 209
f 155 209 211
f 155 211 212
f 155 212 213
f 155 213 214
f 155 214 156
f 156 214 215
f 156 215 216
f 156 216 217
f 156 217 158
f 158 217 218
f 158 218 161
f 158 161 159
f 159 161 160
f 161 218 219
f 161 219 220
f 161 220 221
f 161 221 164
f 161 164 163
f 164 221 165
f 165 221 222
f 165 222 223
f 165 223 224
f 165 224 166
f 166 224 225
f 166 225 226
f 166 226 167
f 167 226 169
f 167 169 168
f 169 226 170
f 170 226 225
f 170 225 227
f 170 227 228
f 170 228 229
f 170 229 230
f 170 230 173
f 170 173 171
f 171 173 172
f 173 230 231
f 173 231 232
f 173 232 233
f 173 233 234
f 173 234 174
f 180 235 182
f 180 182 181
f 182 235 236
f 182 236 183
f 183 237 238
f 183 238 184
f 183 236 239
f 183 239 237
f 184 238 240
f 184 240 241
f 184 241 185
f 185 241 186
f 186 241 242
f 186 242 187
f 187 242 243
f 187 243 244
f 187 244 245
f 187 245 189
f 189 245 190
f 190 246 191
f 190 245 246
f 191 246 192
f 192 247 193
f 192 246 247
f 193 247 248
f 193 248 249
f 193 249 194
f 194 249 195
f 195 250 251
f 195 251 252
f 195 252 196
f 195 249 247
f 195 247 253
f 195 253 250
f 196 252 254
f 196 254 198
f 196 198 197
f 198 254 199
f 199 254 255
f 199 255 200
f 200 255 201
f 209 256 211
f 211 256 257
f 211 257 258
f 211 258 212
f 212 258 259
f 212 259 213
f 213 259 260
f 213 260 261
f 213 261 262
f 213 262 263
f 213 263 214
f 214 264 215
f 214 263 264
f 215 264 265
f 215 265 217
f 215 217 216
f 217 265 219
f 217 219 218
f 219 265 266
f 219 266 220
f 220 266 267
f 220 267 221
f 221 267 268
f 221 268 269
f 221 269 222
f 222 269 223
f 223 270 271
f 223 271 250
f 223 250 253
f 223 253 228
f 223 228 272
f 223 272 224
f 223 269 270
f 224 272 225
f 225 272 227
f 227 272 228
f 228 253 229
f 229 273 230
f 229 253 247
f 229 247 273
f 230 273 274
f 230 274 275
f 230 275 231
f 231 276 241
f 231 241 240
f 231 240 277
f 231 277 278
f 231 278 232
f 231 275 279
f 231 279 243
f 231 243 276
f 232 278 233
f 233 278 280
f 237 239 281
f 237 281 238
f 238 278 277
f 238 277 240
f 238 281 282
f 238 282 278
f 241 276 242
f 242 276 243
f 243 279 274
f 243 274 283
f 243 283 244
f 244 283 284
f 244 284 245
f 245 284 246
f 246 284 285
f 246 285 286
f 246 286 287
f 246 287 273
f 246 273 247
f 247 249 248
f 250 288 251
f 250 271 288
f 251 288 252
f 252 289 290
f 252 290 291
f 252 291 292
f 252 292 254
f 252 288 289
f 254 292 293
f 254 293 294
f 254 294 255
f 259 261 260
f 261 295 262
f 262 295 296
f 262 296 297
f 262 297 291
f 262 291 263
f 263 291 290
f 263 290 298
f 263 298 268
f 263 268 267
f 263 267 299
f 263 299 266
f 263 266 264
f 264 266 265
f 266 299 267
f 268 270 269
f 268 298 300
f 268 300 301
f 268 301 270
f 270 301 271
f 271 301 288
f 273 287 274
f 274 286 283
f 274 279 275
f 274 287 286
f 278 282 302
f 278 302 303
f 278 303 304
f 278 304 305
f 278 305 280
f 283 286 284
f 284 286 285
f 288 301 289
f 289 301 306
f 289 306 300
f 289 300 290
f 290 300 298
f 291 297 307
f 291 307 308
f 291 308 292
f 292 308 307
f 292 307 293
f 296 309 297
f 297 309 307
f 300 306 301

