# https://github.com/mikedh/trimesh
v -0.06499924 0.02480547 -0.17486954
v -0.06499924 0.02500693 -0.17489672
v -0.06480010 0.02480547 -0.17486954
v -0.07499979 0.02480547 -0.17446160
v -0.07499979 0.02500693 -0.17446160
v -0.07499979 0.03501258 -0.17435282
v -0.06499924 0.03501258 -0.17476076
v -0.05499868 0.03501258 -0.17443439
v -0.05479954 0.02480547 -0.17454320
v -0.08290499 0.02480547 -0.17361856
v -0.08290499 0.02496663 -0.17361856
v -0.08290499 0.03291743 -0.17353696
v -0.08290499 0.03501258 -0.17350978
v -0.07499979 0.04500479 -0.17418966
v -0.06499924 0.04500479 -0.17459759
v -0.05499868 0.04500479 -0.17427123
v -0.04499813 0.03501258 -0.17342818
v -0.04499813 0.02500693 -0.17353696
v -0.04499813 0.02480547 -0.17353696
v -0.08290499 0.02480547 -0.08803575
v -0.08290499 0.04500479 -0.17334661
v -0.07499979 0.05501044 -0.17389050
v -0.06499924 0.05501044 -0.17429844
v -0.05499868 0.05501044 -0.17397210
v -0.04499813 0.04500479 -0.17323783
v -0.03500623 0.04500479 -0.17157891
v -0.03500623 0.03501258 -0.17174211
v -0.04479899 0.02480547 -0.17350978
v -0.07514699 0.02480547 0.05685945
v -0.08290499 0.02481890 0.05748493
v -0.08290499 0.05501044 -0.17304745
v -0.08290499 0.06290752 -0.17269394
v -0.07499979 0.06500266 -0.17342818
v -0.06499924 0.06500266 -0.17383611
v -0.05499868 0.06500266 -0.17350978
v -0.04499813 0.05501044 -0.17293867
v -0.03500623 0.05501044 -0.17125258
v -0.02952541 0.05501044 -0.17011040
v -0.02897127 0.04500479 -0.17027357
v -0.03500623 0.02500693 -0.17185089
v -0.02866822 0.03501258 -0.17035514
v -0.03500623 0.02480547 -0.17185089
v -0.06099036 0.02480547 0.07097368
v -0.05499868 0.02480547 0.07497135
v -0.08290499 0.15753812 0.07573281
v -0.08290499 0.07291316 -0.17220441
v -0.07499979 0.07500830 -0.17293867
v -0.06499924 0.07500830 -0.17334661
v -0.05499868 0.07500830 -0.17302027
v -0.04499813 0.06500266 -0.17247635
v -0.03669464 0.07500830 -0.17065430
v -0.03444343 0.06418340 -0.17073590
v -0.02994967 0.06030202 -0.17000163
v 0.00555013 0.05429863 -0.16208786
v 0.00555013 0.04500479 -0.16238701
v 0.00555013 0.03501258 -0.16255018
v -0.02846041 0.02500693 -0.17040953
v -0.03487635 0.02480547 -0.17182368
v 0.00555013 0.02499350 -0.16265896
v -0.04842689 0.02480547 0.07891463
v -0.04330106 0.02480547 0.08196048
v -0.08290499 0.16201043 0.07624952
v -0.08290499 0.07500830 -0.17209563
v -0.07499979 0.08500052 -0.17228600
v -0.06499924 0.08500052 -0.17269394
v -0.05499868 0.08500052 -0.17236757
v -0.04499813 0.08500052 -0.17136136
v -0.04499813 0.07500830 -0.17198685
v -0.03827914 0.08500052 -0.17032796
v -0.03169869 0.07500830 -0.16964808
v -0.03072894 0.06697693 -0.16983846
v 0.00555013 0.07500830 -0.16110882
v 0.00555013 0.06560703 -0.16157115
v 0.00555013 0.06324328 -0.16167992
v -0.02846907 0.02480547 -0.17040953
v 0.00555013 0.02480547 -0.16265896
v -0.03517074 0.02480547 0.08549583
v -0.08290499 0.16201043 -0.16303968
v -0.03500623 0.16201043 0.09705373
v -0.08290499 0.08500052 -0.17144296
v -0.08181403 0.10283609 -0.17021918
v -0.07946758 0.10951100 -0.16994724
v -0.07499979 0.09499274 -0.17149734
v -0.06499924 0.09499274 -0.17190528
v -0.05499868 0.09499274 -0.17157891
v -0.05004603 0.10995420 -0.16997442
v -0.04789006 0.10327929 -0.17027357
v -0.04472972 0.09475099 -0.17054552
v -0.04122303 0.09790713 -0.16981125
v -0.03949999 0.09125908 -0.17008319
v -0.03328319 0.08500052 -0.16932175
v 0.00555013 0.08500052 -0.16045615
v 0.00555013 0.07711688 -0.16097286
v 0.00555013 0.02480547 0.09030936
v -0.03500623 0.02480547 0.08555022
v -0.07499979 0.16201043 -0.16388273
v -0.08290499 0.15499976 -0.16404590
v -0.02985443 0.16201043 0.09849506
v -0.08290499 0.10005600 -0.17030075
v -0.08290499 0.10378965 -0.17000163
v -0.07567516 0.11520549 -0.16964808
v -0.07280054 0.11200906 -0.17019197
v -0.07567516 0.10569677 -0.17057270
v -0.08290499 0.10718754 -0.16970247
v -0.08290499 0.11292233 -0.16913137
v -0.08290499 0.12279367 -0.16804358
v -0.08290499 0.12499624 -0.16779882
v -0.08290499 0.13289332 -0.16690138
v -0.07499979 0.13498847 -0.16749966
v -0.07499979 0.12499624 -0.16864187
v -0.06499924 0.10499839 -0.17108941
v -0.05671307 0.11218365 -0.17021918
v -0.05402894 0.10596538 -0.17059991
v -0.05402894 0.11529950 -0.16970247
v -0.05499868 0.12499624 -0.16872343
v -0.05499868 0.13498847 -0.16758126
v -0.04499813 0.13498847 -0.16654783
v -0.04499813 0.12499624 -0.16769004
v -0.04499813 0.11499061 -0.16877782
v -0.04472972 0.10596538 -0.16962087
v -0.03500623 0.11499061 -0.16706455
v -0.03500623 0.10499839 -0.16804358
v 0.00555013 0.11446682 -0.15800861
v 0.00555013 0.02483233 0.09131557
v 0.00499599 0.02480547 0.09139716
v -0.02500568 0.02480547 0.08805217
v -0.06499924 0.16201043 -0.16429067
v -0.07499979 0.15499976 -0.16488895
v -0.08290499 0.14499411 -0.16537845
v -0.02651225 0.16201043 0.09931091
v -0.06499924 0.11313721 -0.17032796
v -0.06499924 0.12499624 -0.16904980
v -0.08290499 0.13498847 -0.16665661
v -0.06499924 0.13498847 -0.16790760
v -0.08290499 0.14289898 -0.16565040
v -0.07499979 0.14499411 -0.16622150
v -0.05499868 0.14499411 -0.16630310
v -0.04499813 0.14499411 -0.16526967
v -0.03500623 0.13498847 -0.16486174
v -0.03500623 0.12499624 -0.16600394
v 0.00555013 0.11478914 -0.15798140
v 0.00555013 0.16201043 0.10281908
v 0.00499599 0.16201043 0.10290066
v -0.00500457 0.16201043 0.10292786
v -0.00500457 0.02480547 0.09139716
v -0.01189672 0.02480547 0.09028216
v -0.02127387 0.16201043 0.10020835
v -0.06499924 0.15499976 -0.16529688
v -0.05499868 0.16201043 -0.16396430
v -0.06499924 0.14499411 -0.16662943
v -0.05499868 0.15499976 -0.16497052
v -0.04499813 0.15499976 -0.16393712
v -0.03500623 0.14499411 -0.16358358
v 0.00555013 0.13419607 -0.15575141
v 0.00555013 0.16201043 -0.15194410
v -0.01477134 0.16201043 0.10129615
v -0.04499813 0.16201043 -0.16293091
v -0.03497160 0.16201043 -0.16121763
v -0.03500623 0.15499976 -0.16222385
v -0.02935224 0.16116431 -0.16015701
v 0.00555013 0.14498068 -0.15436447
v 0.00555013 0.14434946 -0.15444605
v 0.00555013 0.16150007 -0.15202570
v -0.02963797 0.16201043 -0.16010262
v -0.03067699 0.16201043 -0.16032018
v 0.00555013 0.15446255 -0.15305910
f 1 2 3
f 1 3 9
f 1 9 19
f 1 19 28
f 1 28 42
f 1 42 58
f 1 58 75
f 1 75 76
f 1 76 94
f 1 94 125
f 1 125 145
f 1 145 146
f 1 146 126
f 1 126 95
f 1 95 77
f 1 77 61
f 1 61 60
f 1 60 44
f 1 44 43
f 1 43 29
f 1 29 20
f 1 20 10
f 1 10 4
f 1 4 2
f 2 4 5
f 2 5 6
f 2 6 7
f 2 7 8
f 2 8 9
f 2 9 3
f 4 10 11
f 4 11 5
f 5 11 12
f 5 12 6
f 6 12 13
f 6 13 21
f 6 21 14
f 6 14 15
f 6 15 7
f 7 15 16
f 7 16 8
f 8 16 17
f 8 17 9
f 9 17 18
f 9 18 19
f 10 20 30
f 10 30 45
f 10 45 62
f 10 62 78
f 10 78 97
f 10 97 129
f 10 129 135
f 10 135 133
f 10 133 108
f 10 108 107
f 10 107 106
f 10 106 105
f 10 105 104
f 10 104 100
f 10 100 99
f 10 99 80
f 10 80 63
f 10 63 46
f 10 46 32
f 10 32 31
f 10 31 21
f 10 21 13
f 10 13 12
f 10 12 11
f 14 22 23
f 14 23 15
f 14 21 31
f 14 31 22
f 15 23 24
f 15 24 16
f 16 24 36
f 16 36 25
f 16 25 17
f 17 25 26
f 17 26 27
f 17 27 28
f 17 28 18
f 18 28 19
f 20 29 30
f 22 31 32
f 22 32 33
f 22 33 34
f 22 34 23
f 23 34 35
f 23 35 24
f 24 35 50
f 24 50 36
f 25 36 26
f 26 36 37
f 26 37 38
f 26 38 39
f 26 39 27
f 27 40 28
f 27 39 41
f 27 41 40
f 28 40 42
f 29 43 30
f 30 43 44
f 30 44 45
f 32 46 47
f 32 47 33
f 33 47 48
f 33 48 34
f 34 48 49
f 34 49 35
f 35 49 68
f 35 68 50
f 36 50 51
f 36 51 37
f 37 51 52
f 37 52 53
f 37 53 38
f 38 53 54
f 38 54 55
f 38 55 39
f 39 55 56
f 39 56 41
f 40 41 57
f 40 57 58
f 40 58 42
f 41 56 59
f 41 59 57
f 44 60 45
f 45 60 61
f 45 61 62
f 46 63 47
f 47 63 80
f 47 80 64
f 47 64 65
f 47 65 48
f 48 65 66
f 48 66 49
f 49 66 67
f 49 67 68
f 50 68 51
f 51 69 91
f 51 91 70
f 51 70 52
f 51 68 69
f 52 70 71
f 52 71 53
f 53 71 72
f 53 72 73
f 53 73 74
f 53 74 54
f 54 74 73
f 54 73 72
f 54 72 93
f 54 93 92
f 54 92 123
f 54 123 141
f 54 141 154
f 54 154 162
f 54 162 161
f 54 161 166
f 54 166 163
f 54 163 155
f 54 155 142
f 54 142 124
f 54 124 94
f 54 94 76
f 54 76 59
f 54 59 56
f 54 56 55
f 57 75 58
f 57 59 76
f 57 76 75
f 61 77 62
f 62 77 79
f 62 79 98
f 62 98 130
f 62 130 147
f 62 147 156
f 62 156 144
f 62 144 143
f 62 143 142
f 62 142 155
f 62 155 164
f 62 164 165
f 62 165 158
f 62 158 157
f 62 157 149
f 62 149 127
f 62 127 96
f 62 96 78
f 64 80 81
f 64 81 82
f 64 82 83
f 64 83 84
f 64 84 65
f 65 84 85
f 65 85 66
f 66 85 86
f 66 86 87
f 66 87 67
f 67 87 88
f 67 88 89
f 67 89 90
f 67 90 69
f 67 69 68
f 69 90 91
f 70 91 92
f 70 92 93
f 70 93 72
f 70 72 71
f 77 95 79
f 78 96 128
f 78 128 97
f 79 95 98
f 80 99 81
f 81 99 100
f 81 100 82
f 82 101 102
f 82 102 103
f 82 103 83
f 82 100 104
f 82 104 105
f 82 105 106
f 82 106 107
f 82 107 108
f 82 108 109
f 82 109 110
f 82 110 101
f 83 103 102
f 83 102 111
f 83 111 84
f 84 111 85
f 85 111 112
f 85 112 113
f 85 113 86
f 86 114 115
f 86 115 116
f 86 116 117
f 86 117 118
f 86 118 119
f 86 119 120
f 86 120 87
f 86 113 112
f 86 112 114
f 87 120 89
f 87 89 88
f 89 120 121
f 89 121 122
f 89 122 90
f 90 122 91
f 91 122 123
f 91 123 92
f 94 124 125
f 95 126 98
f 96 127 148
f 96 148 128
f 97 128 136
f 97 136 129
f 98 126 130
f 101 110 102
f 102 131 111
f 102 110 132
f 102 132 131
f 108 133 109
f 109 134 132
f 109 132 110
f 109 133 135
f 109 135 136
f 109 136 150
f 109 150 134
f 111 131 112
f 112 131 132
f 112 132 115
f 112 115 114
f 115 132 134
f 115 134 116
f 116 134 150
f 116 150 137
f 116 137 138
f 116 138 117
f 117 138 153
f 117 153 139
f 117 139 140
f 117 140 118
f 118 140 119
f 119 140 121
f 119 121 120
f 121 140 141
f 121 141 122
f 122 141 123
f 124 142 125
f 125 142 143
f 125 143 144
f 125 144 145
f 126 146 147
f 126 147 130
f 127 149 151
f 127 151 148
f 128 148 150
f 128 150 136
f 129 136 135
f 137 150 148
f 137 148 151
f 137 151 152
f 137 152 138
f 138 152 153
f 139 153 154
f 139 154 141
f 139 141 140
f 144 156 146
f 144 146 145
f 146 156 147
f 149 157 152
f 149 152 151
f 152 157 158
f 152 158 159
f 152 159 153
f 153 159 160
f 153 160 161
f 153 161 162
f 153 162 154
f 155 163 164
f 158 165 159
f 159 165 164
f 159 164 160
f 160 164 166
f 160 166 161
f 163 166 164

