# https://github.com/mikedh/trimesh
v 0.00556311 0.44546783 0.16159900
v 0.00556311 0.44495237 0.16156605
v 0.01210812 0.44495237 0.16038026
v 0.02500983 0.44495237 0.15800868
v 0.01229642 0.45151278 0.16044614
v 0.00556311 0.45446497 0.16090728
v 0.00556311 0.43782967 0.16047908
v 0.01052381 0.43956348 0.16005087
v 0.02500983 0.43497121 0.15652645
v 0.03500915 0.43497121 0.15385841
v 0.03500915 0.44495237 0.15517595
v 0.02500983 0.45498043 0.15682289
v 0.00556311 0.46439928 0.15810749
v 0.00556311 0.45605820 0.16047908
v 0.00556311 0.02485235 0.09130792
v 0.01179645 0.02480549 0.09028682
v 0.02486049 0.02480549 0.08804700
v 0.02500983 0.02480549 0.08801406
v 0.03500915 0.02480549 0.08554366
v 0.04177492 0.43497121 0.15102568
v 0.04268394 0.44495237 0.15161858
v 0.03500915 0.45498043 0.15375960
v 0.03107435 0.47063166 0.15043280
v 0.02500983 0.46496162 0.15385841
v 0.01501052 0.46496162 0.15596649
v 0.02500983 0.47175631 0.15119039
v 0.00556311 0.47569257 0.15306789
v 0.00556311 0.02480549 0.09028682
v 0.04329429 0.02480549 0.08195335
v 0.04677457 0.43497121 0.14806122
v 0.06023469 0.43853256 0.14025475
v 0.04768360 0.44495237 0.14852235
v 0.04133339 0.45498043 0.15082805
v 0.04002829 0.45999444 0.15000460
v 0.03464554 0.46397755 0.15112451
v 0.04211256 0.47194374 0.14183581
v 0.03450918 0.47461477 0.14460266
v 0.03127564 0.48065972 0.14068295
v 0.02500983 0.47677034 0.14690836
v 0.00900444 0.47958195 0.14964226
v 0.03773623 0.46669543 0.14848942
v 0.00556311 0.47588000 0.15293613
v 0.00556311 0.02480549 -0.16264904
v 0.05499479 0.02480549 0.07493742
v 0.05567007 0.43511176 0.14259340
v 0.06799390 0.43497121 0.12658522
v 0.07093526 0.43497121 0.12157854
v 0.07110408 0.44495237 0.12184204
v 0.06023469 0.44157845 0.14025475
v 0.06086452 0.02480549 0.07105066
v 0.06098139 0.02480549 0.07095184
v 0.07188974 0.02480549 0.05817164
v 0.05578045 0.44495237 0.14298865
v 0.04633304 0.45498043 0.14766595
v 0.05148854 0.46196258 0.14124291
v 0.04196322 0.48192495 0.13195421
v 0.03794401 0.47859788 0.13860781
v 0.04878093 0.46866357 0.13877252
v 0.03446373 0.48459595 0.13455637
v 0.03098994 0.49031287 0.13050491
v 0.02500983 0.48679838 0.13659856
v 0.02500983 0.48178434 0.14190169
v 0.01501052 0.48337758 0.14361449
v 0.00556311 0.48497084 0.14503086
v 0.00556311 0.48464280 0.14536025
v 0.01517284 0.02480549 -0.16633816
v 0.00556311 0.02503979 -0.16264904
v 0.07188974 0.43497121 0.11923990
v 0.06804584 0.44495237 0.12684873
v 0.07188974 0.44495237 0.11970103
v 0.07063657 0.45137221 0.12105152
v 0.06257869 0.44495237 0.13570921
v 0.05964382 0.44823259 0.13953009
v 0.07188974 0.02480549 -0.17457283
v 0.05335205 0.45498043 0.14265928
v 0.05863740 0.46763265 0.12823215
v 0.05834521 0.45498043 0.13768554
v 0.04517728 0.48333073 0.12460889
v 0.03805439 0.48881334 0.12497121
v 0.05196902 0.47194374 0.13211891
v 0.04863159 0.47859788 0.12770513
v 0.03305474 0.49120322 0.12497121
v 0.02500983 0.49359310 0.12497121
v 0.01501052 0.49598294 0.12497121
v 0.00556311 0.49827909 0.12457596
v 0.02500983 0.49115634 0.13159189
v 0.01501052 0.48834476 0.13827842
v 0.00823825 0.48942256 0.13936540
v 0.00556311 0.48543942 0.14450383
v 0.02355539 0.02480549 -0.16903913
v 0.00556311 0.03502096 -0.16255023
v 0.01501052 0.03502096 -0.16614053
v 0.02365928 0.03502096 -0.16897325
v 0.02345799 0.02503979 -0.16900620
v 0.07188974 0.45230940 0.11495787
v 0.07188974 0.45380893 0.11354151
v 0.07188974 0.46514904 0.09918026
v 0.06083854 0.47095969 0.12157854
v 0.06224754 0.46453989 0.12493828
v 0.06044247 0.46097851 0.13070254
v 0.06172160 0.45498043 0.13267887
v 0.06518240 0.02480549 -0.17486927
v 0.06499410 0.02503979 -0.17490222
v 0.07188974 0.02813254 -0.17457283
v 0.05059899 0.48042542 0.12105152
v 0.03974259 0.48984426 0.11950341
v 0.03585324 0.49237472 0.11568252
v 0.03500915 0.49537376 0.10494452
v 0.02500983 0.49602979 0.11495787
v 0.00556311 0.49851340 0.12358780
v 0.00556311 0.49307764 0.13547865
v 0.01501052 0.49237472 0.13327175
v 0.00556311 0.49242157 0.13630211
v 0.02865893 0.03502096 -0.17035668
v 0.02845765 0.02503979 -0.17038962
v 0.02845765 0.02480549 -0.17038962
v 0.00556311 0.04448669 -0.16238552
v 0.01501052 0.04504901 -0.16597584
v 0.02396445 0.04504901 -0.16884150
v 0.02896411 0.04504901 -0.17025787
v 0.07188974 0.47166258 0.08768467
v 0.05674142 0.47719207 0.11495787
v 0.06499410 0.02480549 -0.17486927
v 0.06499410 0.04504901 -0.17457283
v 0.07188974 0.04504901 -0.17430931
v 0.07188974 0.03502096 -0.17447402
v 0.05518958 0.02480549 -0.17457283
v 0.05499479 0.04504901 -0.17427638
v 0.05174177 0.48136261 0.11495787
v 0.04093731 0.49068776 0.11284979
v 0.04456044 0.48703268 0.11568252
v 0.04224891 0.49171868 0.10494452
v 0.04342416 0.49251530 0.09496411
v 0.03500915 0.49673271 0.09496411
v 0.02111400 0.50020033 0.10099188
v 0.02467219 0.49856025 0.10461514
v 0.00556311 0.50277764 0.10494452
v 0.03500915 0.03502096 -0.17174010
v 0.03500915 0.02503979 -0.17183892
v 0.02858102 0.02480549 -0.17042255
v 0.03500915 0.04504901 -0.17157541
v 0.00556311 0.05306208 -0.16212201
v 0.01501052 0.05503020 -0.16567940
v 0.02451636 0.05503020 -0.16870974
v 0.02951602 0.05503020 -0.17009316
v 0.07188974 0.47456792 0.06828381
v 0.06051389 0.48037857 0.09180200
v 0.05953993 0.47958195 0.09848855
v 0.05845559 0.47864473 0.10494452
v 0.06499410 0.05503020 -0.17427638
v 0.07188974 0.05503020 -0.17401287
v 0.04519027 0.02480549 -0.17355172
v 0.04499548 0.03502096 -0.17341997
v 0.04499548 0.04504901 -0.17322235
v 0.04499548 0.05503020 -0.17292589
v 0.05499479 0.05503020 -0.17394699
v 0.04724857 0.48773557 0.10494452
v 0.07188974 0.47597373 0.05810577
v 0.07188974 0.47611427 0.05497660
v 0.07188974 0.47644234 0.04499619
v 0.02635390 0.49916941 0.09496411
v 0.07188974 0.47597373 0.03494990
v 0.03500915 0.49570179 0.08495076
v 0.02135424 0.50024724 0.09496411
v 0.00556311 0.50352740 0.09496411
v 0.04499548 0.02503979 -0.17351879
v 0.03500915 0.02480549 -0.17183892
v 0.03500915 0.05503020 -0.17124602
v 0.00556311 0.06562056 -0.16156206
v 0.00582284 0.06501138 -0.16169381
v 0.01501052 0.06501138 -0.16521825
v 0.02994456 0.06037223 -0.16999435
v 0.02500983 0.07503942 -0.16788629
v 0.05499479 0.07503942 -0.17302471
v 0.06499410 0.06501138 -0.17381524
v 0.07188974 0.06815100 -0.17338704
v 0.03668436 0.07503942 -0.17065313
v 0.04499548 0.06501138 -0.17246476
v 0.02070493 0.50010663 0.08926573
v 0.07188974 0.47466165 0.02496949
v 0.02442546 0.49860710 0.08557660
v 0.00556311 0.50212157 0.08498370
v 0.03443776 0.06421475 -0.17071900
v 0.00556311 0.07503942 -0.16106798
v 0.00644617 0.07503942 -0.16146325
v 0.01501052 0.07503942 -0.16472417
v 0.03072373 0.06702636 -0.16982967
v 0.03168470 0.07503942 -0.16959909
v 0.02500983 0.08502060 -0.16726045
v 0.04499548 0.07503942 -0.17197068
v 0.05499479 0.08502060 -0.17236593
v 0.06499410 0.08502060 -0.17269532
v 0.06499410 0.07503942 -0.17332116
v 0.07188974 0.07503942 -0.17302471
v 0.03326901 0.08502060 -0.16930264
v 0.03826866 0.08502060 -0.17032374
v 0.02500983 0.49640468 0.07497036
v 0.01736750 0.49945056 0.08257918
v 0.01070562 0.50010663 0.07928532
v 0.07188974 0.47264665 0.01495614
v 0.00556311 0.50010663 0.07431158
v 0.00556311 0.07714812 -0.16093622
v 0.00556311 0.08502060 -0.16040921
v 0.00725131 0.08502060 -0.16113386
v 0.01501052 0.08502060 -0.16406539
v 0.01501052 0.09500179 -0.16327487
v 0.02500983 0.10502984 -0.16561352
v 0.04499548 0.08502060 -0.17131190
v 0.04787190 0.10334288 -0.17025787
v 0.05002110 0.10999699 -0.16996142
v 0.05499479 0.09500179 -0.17157541
v 0.07188974 0.08502060 -0.17239888
v 0.07188974 0.07813218 -0.17286001
v 0.06499410 0.09500179 -0.17190480
v 0.07188974 0.08816023 -0.17216830
v 0.03500915 0.10502984 -0.16805097
v 0.03948936 0.09129985 -0.17006023
v 0.02500983 0.49429598 0.06495701
v 0.01501052 0.49640468 0.06495701
v 0.00723832 0.49945056 0.07259877
v 0.07188974 0.47072539 0.00721556
v 0.00556311 0.49837279 0.06558284
v 0.00556311 0.11449556 -0.15800469
v 0.00919923 0.10502984 -0.16031039
v 0.00980958 0.11079362 -0.16007982
v 0.01501052 0.10502984 -0.16241847
v 0.01446510 0.11449556 -0.16133149
v 0.01691299 0.12503906 -0.16106798
v 0.02500983 0.11501102 -0.16462536
v 0.04121002 0.09795398 -0.16979672
v 0.04472277 0.09476748 -0.17052138
v 0.04472277 0.10601389 -0.16959909
v 0.05400784 0.10601389 -0.17058726
v 0.04499548 0.11501102 -0.16877562
v 0.04499548 0.12503906 -0.16768865
v 0.04499548 0.13502024 -0.16653579
v 0.05499479 0.13502024 -0.16755690
v 0.05499479 0.12503906 -0.16870974
v 0.05668299 0.11219941 -0.17022492
v 0.06499410 0.10502984 -0.17108133
v 0.07188974 0.11219941 -0.17022492
v 0.03500915 0.11501102 -0.16706282
v 0.07188974 0.46931958 0.00220889
v 0.07188974 0.46697658 -0.00500468
v 0.00556311 0.49471772 0.05494366
v 0.01191333 0.12503906 -0.15928930
v 0.00556311 0.13502024 -0.15563311
v 0.01852326 0.13502024 -0.16050802
v 0.02500983 0.12503906 -0.16353838
v 0.03500915 0.12503906 -0.16600879
v 0.03500915 0.13502024 -0.16485593
v 0.04499548 0.14500143 -0.16525120
v 0.05499479 0.14500143 -0.16630523
v 0.06499410 0.13502024 -0.16788629
v 0.06499410 0.12503906 -0.16903913
v 0.06499410 0.11318347 -0.17032374
v 0.07188974 0.13502024 -0.16762277
v 0.07188974 0.46444616 -0.01185592
v 0.00556311 0.49453026 0.05451545
v 0.07188974 0.46327466 -0.01495215
v 0.06499410 0.46360266 -0.01495215
v 0.06499410 0.46079105 -0.02180339
v 0.01352361 0.13502024 -0.15869640
v 0.00556311 0.14500143 -0.15434849
v 0.02500983 0.13502024 -0.16241847
v 0.01575722 0.14467341 -0.15826820
v 0.01958813 0.14111204 -0.16011275
v 0.02781484 0.15502948 -0.16057390
v 0.02935369 0.16121499 -0.16014570
v 0.03500915 0.14500143 -0.16357131
v 0.04499548 0.15502948 -0.16390070
v 0.05499479 0.15502948 -0.16495474
v 0.06499410 0.14500143 -0.16663462
v 0.07188974 0.14500143 -0.16633816
v 0.00556311 0.49106264 0.04815830
v 0.05499479 0.45844805 -0.02667831
v 0.04499548 0.45802635 -0.02585484
v 0.04499548 0.45348090 -0.03497884
v 0.03958676 0.45006013 -0.04008434
v 0.03293137 0.44940409 -0.03896442
v 0.07188974 0.46060362 -0.02144106
v 0.07188974 0.45905727 -0.02486668
v 0.07188974 0.45835435 -0.02641480
v 0.06499410 0.45849493 -0.02684300
v 0.00556311 0.15502948 -0.15296507
v 0.01501052 0.15502948 -0.15658833
v 0.02464622 0.14467341 -0.16106798
v 0.02107504 0.14776617 -0.15965162
v 0.02281518 0.15502948 -0.15915754
v 0.03500915 0.15502948 -0.16222084
v 0.02847713 0.16201161 -0.15978338
v 0.02500983 0.18501988 -0.15517196
v 0.03159380 0.16786912 -0.15961868
v 0.03065880 0.16201161 -0.16031039
v 0.03825568 0.17227396 -0.16034333
v 0.04499548 0.16505751 -0.16248435
v 0.06499410 0.15502948 -0.16528413
v 0.05499479 0.16505751 -0.16353838
v 0.07188974 0.15502948 -0.16498768
v 0.00556311 0.48253411 0.03452170
v 0.02458778 0.44298428 -0.04565097
v 0.02097115 0.43965721 -0.04940597
v 0.01200423 0.42883253 -0.05783826
v 0.06499410 0.45441812 -0.03497884
v 0.05499479 0.45427752 -0.03497884
v 0.05499479 0.45080990 -0.04143482
v 0.04499548 0.45038813 -0.04071017
v 0.04499548 0.44734225 -0.04571684
v 0.03576234 0.44692051 -0.04406991
v 0.02763952 0.44068813 -0.05101997
v 0.07188974 0.45540217 -0.03244257
v 0.07188974 0.45413697 -0.03497884
v 0.00556311 0.16201161 -0.15194398
v 0.01501052 0.16505751 -0.15513903
v 0.01734153 0.16201161 -0.15635775
v 0.02561369 0.16472949 -0.15856464
v 0.03495720 0.16472949 -0.16080447
v 0.01434173 0.18530104 -0.15168047
v 0.01710128 0.19504791 -0.15098876
v 0.01891934 0.20217064 -0.15036292
v 0.02500983 0.19504791 -0.15345916
v 0.03500915 0.19504791 -0.15589662
v 0.03500915 0.18501988 -0.15757649
v 0.02500983 0.17503870 -0.15675302
v 0.01501052 0.17503870 -0.15355797
v 0.03495720 0.17536671 -0.15915754
v 0.04127495 0.17892808 -0.15978338
v 0.04476172 0.17536671 -0.16083741
v 0.04794332 0.18173969 -0.16024451
v 0.06499410 0.16201161 -0.16429597
v 0.07188974 0.15812223 -0.16455948
v 0.05499479 0.17503870 -0.16195732
v 0.06499410 0.17503870 -0.16228671
v 0.06499410 0.16505751 -0.16383483
v 0.00556311 0.47981626 0.03020674
v 0.02458778 0.43722048 -0.05457734
v 0.01867260 0.43066007 -0.06080274
v 0.01068614 0.41964799 -0.06953149
v 0.00807593 0.42217842 -0.06287788
v 0.07188974 0.45076305 -0.04133600
v 0.06499410 0.45090359 -0.04159951
v 0.06499410 0.44799829 -0.04660619
v 0.05499479 0.44781083 -0.04644150
v 0.05499479 0.44284368 -0.05424795
v 0.04499548 0.44237506 -0.05345742
v 0.03500915 0.44157845 -0.05223870
v 0.03500915 0.43797022 -0.05727831
v 0.02500983 0.43173784 -0.06218617
v 0.00556311 0.16688505 -0.15121932
v 0.00921221 0.18211456 -0.15032998
v 0.01056277 0.18881553 -0.14977002
v 0.01210163 0.19504791 -0.14921007
v 0.01535465 0.20531027 -0.14848542
v 0.01501052 0.21505715 -0.14654204
v 0.02077636 0.20882477 -0.14973709
v 0.02446442 0.20531027 -0.15144990
v 0.02969782 0.22044605 -0.15006648
v 0.03500915 0.20502910 -0.15408500
v 0.04499548 0.20502910 -0.15579779
v 0.04499548 0.19504791 -0.15757649
v 0.04476172 0.18506673 -0.15928930
v 0.05499479 0.19504791 -0.15863052
v 0.05499479 0.18872182 -0.15975043
v 0.07188974 0.16505751 -0.16357131
v 0.06499410 0.18979961 -0.15991513
v 0.07188974 0.18394209 -0.16060685
v 0.07188974 0.17808460 -0.16152912
v 0.00556311 0.41805473 -0.06508477
v 0.02500983 0.42756730 -0.06719284
v 0.01734802 0.42119437 -0.07127723
v 0.00556311 0.41650838 -0.06709403
v 0.01049784 0.40971366 -0.07970953
v 0.00556311 0.41088516 -0.07427465
v 0.00556311 0.41411850 -0.07019026
v 0.07188974 0.44781083 -0.04634268
v 0.07188974 0.44284368 -0.05428089
v 0.06499410 0.44298428 -0.05447852
v 0.05499479 0.43946975 -0.05925463
v 0.04499548 0.43890744 -0.05846410
v 0.03500915 0.43300307 -0.06380016
v 0.03500915 0.42897314 -0.06880683
v 0.00556311 0.18516046 -0.14825484
v 0.00556311 0.19504791 -0.14660792
v 0.00556311 0.20423248 -0.14492804
v 0.01501052 0.22503833 -0.14456572
v 0.00556311 0.21557261 -0.14275409
v 0.00669290 0.22503833 -0.14137067
v 0.01020565 0.23970552 -0.13988844
v 0.02284764 0.21505715 -0.14917713
v 0.03500915 0.21505715 -0.15224043
v 0.02582147 0.22433543 -0.14818896
v 0.02500983 0.23506637 -0.14578445
v 0.02500983 0.24504755 -0.14367637
v 0.03500915 0.24504755 -0.14617972
v 0.03280800 0.22710016 -0.14940770
v 0.04499548 0.21505715 -0.15392029
v 0.05499479 0.21505715 -0.15497433
v 0.05499479 0.20502910 -0.15681890
v 0.06499410 0.19504791 -0.15899284
v 0.07188974 0.19054936 -0.15951987
v 0.02500983 0.42255330 -0.07279241
v 0.02500983 0.41777357 -0.07776614
v 0.01715972 0.41126004 -0.08119176
v 0.01443913 0.40521508 -0.08521028
v 0.01171204 0.39898270 -0.08926173
v 0.00556311 0.39607739 -0.08801007
v 0.00556311 0.40235662 -0.08283870
v 0.00556311 0.40277839 -0.08244343
v 0.00556311 0.40844843 -0.07674505
v 0.07188974 0.43946975 -0.05928757
v 0.06499410 0.43961036 -0.05948520
v 0.06499410 0.43548667 -0.06498595
v 0.05499479 0.43515864 -0.06498595
v 0.04813162 0.43028522 -0.07035495
v 0.04487860 0.43328422 -0.06577648
v 0.04146325 0.42967603 -0.06963030
v 0.03985297 0.41997600 -0.08000597
v 0.03592467 0.42316246 -0.07546044
v 0.01412746 0.23581614 -0.14209533
v 0.01680260 0.24504755 -0.14114010
v 0.00556311 0.22077407 -0.14173299
v 0.00556311 0.22503833 -0.14087659
v 0.00556311 0.24448524 -0.13692395
v 0.00556311 0.25423211 -0.13478294
v 0.01180295 0.24504755 -0.13932848
v 0.03945689 0.23061468 -0.15006648
v 0.01887389 0.25188911 -0.14034957
v 0.02112698 0.25854325 -0.13962492
v 0.02779536 0.26280752 -0.14058015
v 0.03059386 0.26941475 -0.13985549
v 0.03500915 0.25502875 -0.14400576
v 0.04499548 0.24504755 -0.14789252
v 0.03568443 0.23436347 -0.14851835
v 0.04499548 0.22503833 -0.15197691
v 0.05135218 0.23951808 -0.14986885
v 0.06499410 0.21505715 -0.15533666
v 0.05499479 0.22503833 -0.15303095
v 0.05802055 0.24073644 -0.15013236
v 0.06499410 0.20502910 -0.15718122
v 0.07188974 0.20816873 -0.15632482
v 0.03320407 0.41903880 -0.07908369
v 0.02500983 0.41275954 -0.08260813
v 0.02500983 0.40718323 -0.08761480
v 0.01837392 0.40076339 -0.09061222
v 0.01503000 0.39537448 -0.09308261
v 0.00693964 0.39232859 -0.09160038
v 0.00556311 0.39387497 -0.08968993
v 0.07188974 0.43525237 -0.06498595
v 0.07188974 0.43220645 -0.06903741
v 0.06499410 0.43084753 -0.07104667
v 0.05499479 0.43061322 -0.07075021
v 0.05499479 0.42611468 -0.07575689
v 0.05499479 0.42114750 -0.08115882
v 0.04499548 0.42044461 -0.08050005
v 0.04448252 0.41425908 -0.08629726
v 0.04080745 0.40980738 -0.08982169
v 0.03592467 0.41543058 -0.08329984
v 0.01532868 0.25512245 -0.13837326
v 0.00556311 0.26814955 -0.13162082
v 0.00773180 0.27499110 -0.13096206
v 0.00939402 0.28112978 -0.13023740
v 0.01501052 0.26496306 -0.13606755
v 0.04499548 0.23258279 -0.15049468
v 0.04499548 0.23759681 -0.14947358
v 0.01501052 0.27499110 -0.13376184
v 0.01809472 0.29284477 -0.13066560
v 0.02042573 0.29949889 -0.12984215
v 0.02500983 0.28501916 -0.13465118
v 0.02467869 0.26566598 -0.13906497
v 0.03726224 0.27246067 -0.14054720
v 0.02993807 0.31008926 -0.13000683
v 0.03500915 0.28501916 -0.13715452
v 0.03435984 0.27545971 -0.13926260
v 0.04499548 0.25502875 -0.14571857
v 0.05480649 0.23576927 -0.15088993
v 0.04499548 0.26496306 -0.14351168
v 0.04805371 0.28112978 -0.14025076
v 0.05499479 0.26496306 -0.14456572
v 0.05499479 0.25502875 -0.14677261
v 0.05480649 0.24443838 -0.14907831
v 0.06499410 0.22503833 -0.15339328
v 0.07188974 0.24064271 -0.15009941
v 0.07188974 0.21505715 -0.15504020
v 0.05499479 0.27499110 -0.14232589
v 0.06499410 0.26496306 -0.14492804
v 0.06499410 0.25502875 -0.14713493
v 0.06499410 0.24603161 -0.14911126
v 0.06499410 0.24101759 -0.15016529
v 0.06499410 0.23506637 -0.15138403
v 0.03500915 0.40891704 -0.08909704
v 0.02500983 0.40212232 -0.09173213
v 0.02478258 0.39453101 -0.09710113
v 0.02130229 0.38932955 -0.09957153
v 0.01501052 0.38731456 -0.09838574
v 0.00947194 0.38042614 -0.10023031
v 0.00556311 0.38440925 -0.09584946
v 0.00556311 0.38750201 -0.09390608
v 0.07188974 0.43070692 -0.07091491
v 0.07188974 0.42639583 -0.07592158
v 0.06499410 0.42644268 -0.07602040
v 0.06499410 0.42142865 -0.08148821
v 0.06499410 0.41627407 -0.08649489
v 0.05499479 0.41589916 -0.08616550
v 0.04746933 0.41041654 -0.09038164
v 0.04448252 0.40587115 -0.09357670
v 0.04499548 0.39879525 -0.09914333
v 0.03500915 0.40394986 -0.09311555
v 0.00556311 0.28469113 -0.12776701
v 0.00556311 0.29504719 -0.12526368
v 0.01142635 0.28778389 -0.12944688
v 0.01486118 0.28469113 -0.13142321
v 0.01486118 0.29570323 -0.12878811
v 0.01501052 0.30498153 -0.12654829
v 0.01501052 0.31500956 -0.12404494
v 0.01813368 0.33258206 -0.12065227
v 0.02276973 0.30498153 -0.12918338
v 0.02426313 0.29570323 -0.13188434
v 0.04138533 0.27916166 -0.13975668
v 0.03500915 0.31219795 -0.13053386
v 0.03500915 0.30498153 -0.13231254
v 0.03500915 0.29500034 -0.13475001
v 0.02500983 0.32499075 -0.12476959
v 0.02441247 0.33553424 -0.12183806
v 0.02735383 0.34261012 -0.12075108
v 0.03500915 0.33497193 -0.12467078
v 0.03500915 0.32499075 -0.12727293
v 0.04077499 0.31955498 -0.12987509
v 0.04482666 0.27545971 -0.14110716
v 0.05499479 0.28253558 -0.14054720
v 0.04482666 0.28469113 -0.13896614
v 0.04499548 0.30498153 -0.13409123
v 0.05499479 0.30498153 -0.13517821
v 0.05499479 0.29500034 -0.13758273
v 0.07188974 0.26810268 -0.14393988
v 0.06499410 0.28328532 -0.14074484
v 0.06499410 0.27499110 -0.14265528
v 0.07188974 0.27499110 -0.14239177
v 0.03500915 0.39729574 -0.09808929
v 0.02796417 0.39092278 -0.10059263
v 0.02478258 0.38558075 -0.10279952
v 0.01501052 0.38230056 -0.10131728
v 0.01501052 0.37499037 -0.10503934
v 0.00556311 0.37438118 -0.10144904
v 0.07188974 0.42138180 -0.08145528
v 0.07188974 0.41622719 -0.08646195
v 0.06499410 0.41126004 -0.09110630
v 0.05499479 0.41088516 -0.09080985
v 0.05581292 0.40399674 -0.09650823
v 0.05302739 0.39959189 -0.09970328
v 0.04499548 0.39378124 -0.10250307
v 0.03500915 0.39228171 -0.10148197
v 0.00556311 0.30901149 -0.12180512
v 0.00928364 0.32124195 -0.12028994
v 0.01146531 0.32789606 -0.11943353
v 0.01488066 0.32475644 -0.12150867
v 0.01488066 0.33553424 -0.11867595
v 0.02068545 0.33918932 -0.11976292
v 0.02441247 0.34556228 -0.11903827
v 0.03091202 0.34931108 -0.11976292
v 0.03454814 0.34556228 -0.12164042
v 0.04499548 0.34495312 -0.12371556
v 0.04499548 0.33497193 -0.12644947
v 0.04446305 0.32485017 -0.12905163
v 0.06499410 0.29500034 -0.13797799
v 0.04743687 0.32142937 -0.13030329
v 0.05499479 0.31500956 -0.13267487
v 0.06499410 0.31500956 -0.13307013
v 0.07188974 0.28422254 -0.14025076
v 0.03500915 0.38497156 -0.10589575
v 0.03500915 0.37869233 -0.10935431
v 0.02439949 0.37499037 -0.10826733
v 0.02065299 0.36946091 -0.10978251
v 0.01424434 0.36561838 -0.10889316
v 0.00556311 0.36440003 -0.10576399
v 0.07188974 0.41121316 -0.09107336
v 0.06499410 0.40507451 -0.09611297
v 0.05968928 0.40001363 -0.09996679
v 0.05581292 0.39574939 -0.10253601
v 0.05499479 0.38675225 -0.10813558
v 0.04409943 0.38454983 -0.10797089
v 0.00556311 0.32475644 -0.11778660
v 0.00556311 0.33436275 -0.11525033
v 0.01501052 0.34495312 -0.11604086
v 0.01424434 0.35568404 -0.11248348
v 0.02500983 0.35498115 -0.11630436
v 0.03758040 0.35165408 -0.12048757
v 0.03454814 0.35498115 -0.11877476
v 0.05499479 0.34495312 -0.12483547
v 0.04499548 0.35362220 -0.12111340
v 0.05054704 0.35980773 -0.11992761
v 0.05499479 0.33497193 -0.12756938
v 0.07188974 0.30498153 -0.13527702
v 0.07188974 0.29500034 -0.13768154
v 0.07188974 0.28769016 -0.13942729
v 0.05499479 0.32784921 -0.12941393
v 0.05499479 0.32288206 -0.13069855
v 0.06499410 0.32358494 -0.13089618
v 0.07188974 0.32306948 -0.13076442
v 0.04017113 0.37991068 -0.10994720
v 0.03500915 0.37367830 -0.11172589
v 0.02732136 0.37166333 -0.11077067
v 0.02439949 0.36561838 -0.11235172
v 0.01706233 0.36275992 -0.11103418
v 0.01040044 0.35952657 -0.10984839
v 0.00556311 0.35619950 -0.10869554
v 0.07188974 0.40006047 -0.10003267
v 0.06499410 0.40006047 -0.10003267
v 0.06499410 0.39495274 -0.10345829
v 0.06499410 0.38722086 -0.10839909
v 0.05499479 0.38178509 -0.11096830
v 0.04683951 0.38089475 -0.11047422
v 0.00556311 0.34682751 -0.11169295
v 0.00796555 0.35282558 -0.11090242
v 0.03500915 0.36496234 -0.11538208
v 0.04499548 0.35863623 -0.11953235
v 0.06499410 0.35498115 -0.12220038
v 0.06499410 0.34495312 -0.12519780
v 0.06499410 0.33497193 -0.12796465
v 0.05432601 0.35587150 -0.12147573
v 0.05720893 0.36060435 -0.12019112
v 0.04499548 0.36496234 -0.11722665
v 0.05432601 0.36435315 -0.11857713
v 0.06499410 0.32859898 -0.12961158
v 0.07188974 0.32808352 -0.12947983
v 0.04409943 0.37592757 -0.11241760
v 0.00556311 0.35502803 -0.10909080
v 0.07188974 0.39945132 -0.10042793
v 0.07188974 0.38703340 -0.10830027
v 0.07188974 0.38361263 -0.11021071
v 0.06499410 0.38220683 -0.11119887
v 0.06499410 0.37499037 -0.11469037
v 0.05499479 0.37499037 -0.11422922
v 0.06499410 0.36088550 -0.12028994
v 0.07188974 0.36060435 -0.12019112
v 0.07188974 0.35559034 -0.12173924
v 0.07188974 0.34495312 -0.12496722
v 0.07188974 0.33806467 -0.12684473
v 0.07188974 0.33497193 -0.12766820
v 0.06499410 0.36585268 -0.11847831
v 0.07188974 0.38201940 -0.11106712
v 0.07188974 0.37499037 -0.11445980
v 0.07188974 0.36486861 -0.11854419
f 1 2 3
f 1 3 4
f 1 4 5
f 1 5 6
f 1 6 14
f 1 14 13
f 1 13 27
f 1 27 42
f 1 42 65
f 1 65 64
f 1 64 89
f 1 89 113
f 1 113 111
f 1 111 85
f 1 85 110
f 1 110 137
f 1 137 165
f 1 165 182
f 1 182 201
f 1 201 222
f 1 222 245
f 1 245 259
f 1 259 275
f 1 275 300
f 1 300 335
f 1 335 368
f 1 368 371
f 1 371 374
f 1 374 373
f 1 373 409
f 1 409 408
f 1 408 407
f 1 407 406
f 1 406 447
f 1 447 497
f 1 497 496
f 1 496 543
f 1 543 574
f 1 574 605
f 1 605 626
f 1 626 612
f 1 612 582
f 1 582 581
f 1 581 552
f 1 552 509
f 1 509 508
f 1 508 459
f 1 459 424
f 1 424 423
f 1 423 422
f 1 422 421
f 1 421 386
f 1 386 384
f 1 384 383
f 1 383 382
f 1 382 349
f 1 349 313
f 1 313 285
f 1 285 264
f 1 264 247
f 1 247 223
f 1 223 203
f 1 203 202
f 1 202 184
f 1 184 169
f 1 169 142
f 1 142 117
f 1 117 91
f 1 91 67
f 1 67 43
f 1 43 28
f 1 28 15
f 1 15 7
f 1 7 2
f 2 7 8
f 2 8 3
f 3 8 4
f 4 8 9
f 4 9 10
f 4 10 11
f 4 11 12
f 4 12 5
f 5 12 13
f 5 13 14
f 5 14 6
f 7 15 8
f 8 15 16
f 8 16 17
f 8 17 9
f 9 17 18
f 9 18 19
f 9 19 10
f 10 20 11
f 10 19 20
f 11 21 22
f 11 22 12
f 11 20 21
f 12 22 23
f 12 23 24
f 12 24 25
f 12 25 13
f 13 25 23
f 13 23 26
f 13 26 27
f 15 28 16
f 16 28 43
f 16 43 66
f 16 66 90
f 16 90 116
f 16 116 140
f 16 140 167
f 16 167 152
f 16 152 127
f 16 127 123
f 16 123 102
f 16 102 74
f 16 74 52
f 16 52 51
f 16 51 50
f 16 50 44
f 16 44 29
f 16 29 19
f 16 19 18
f 16 18 17
f 19 29 20
f 20 30 21
f 20 29 30
f 21 31 32
f 21 32 33
f 21 33 22
f 21 30 31
f 22 33 34
f 22 34 35
f 22 35 23
f 23 36 37
f 23 37 38
f 23 38 39
f 23 39 40
f 23 40 26
f 23 25 24
f 23 35 34
f 23 34 41
f 23 41 36
f 26 40 27
f 27 40 42
f 29 44 30
f 30 45 31
f 30 44 45
f 31 46 47
f 31 47 48
f 31 48 49
f 31 49 32
f 31 45 44
f 31 44 50
f 31 50 51
f 31 51 52
f 31 52 46
f 32 49 53
f 32 53 54
f 32 54 33
f 33 54 34
f 34 55 41
f 34 54 55
f 36 56 57
f 36 57 37
f 36 41 55
f 36 55 58
f 36 58 56
f 37 57 38
f 38 59 60
f 38 60 61
f 38 61 62
f 38 62 39
f 38 57 59
f 39 62 40
f 40 62 63
f 40 63 64
f 40 64 65
f 40 65 42
f 43 67 66
f 46 52 47
f 47 68 48
f 47 52 68
f 48 69 49
f 48 68 70
f 48 70 71
f 48 71 69
f 49 69 72
f 49 72 73
f 49 73 53
f 52 74 104
f 52 104 126
f 52 126 125
f 52 125 151
f 52 151 176
f 52 176 194
f 52 194 213
f 52 213 212
f 52 212 215
f 52 215 241
f 52 241 257
f 52 257 274
f 52 274 299
f 52 299 331
f 52 331 364
f 52 364 367
f 52 367 366
f 52 366 400
f 52 400 440
f 52 440 483
f 52 483 482
f 52 482 534
f 52 534 537
f 52 537 568
f 52 568 594
f 52 594 593
f 52 593 592
f 52 592 598
f 52 598 624
f 52 624 638
f 52 638 637
f 52 637 636
f 52 636 635
f 52 635 634
f 52 634 642
f 52 642 641
f 52 641 640
f 52 640 629
f 52 629 628
f 52 628 627
f 52 627 606
f 52 606 575
f 52 575 545
f 52 545 544
f 52 544 499
f 52 499 498
f 52 498 449
f 52 449 448
f 52 448 410
f 52 410 376
f 52 376 375
f 52 375 340
f 52 340 312
f 52 312 311
f 52 311 283
f 52 283 282
f 52 282 281
f 52 281 260
f 52 260 258
f 52 258 244
f 52 244 243
f 52 243 221
f 52 221 200
f 52 200 180
f 52 180 162
f 52 162 160
f 52 160 159
f 52 159 158
f 52 158 146
f 52 146 121
f 52 121 97
f 52 97 96
f 52 96 95
f 52 95 70
f 52 70 68
f 53 73 75
f 53 75 54
f 54 75 55
f 55 76 58
f 55 75 77
f 55 77 76
f 56 78 79
f 56 79 60
f 56 60 59
f 56 59 57
f 56 58 80
f 56 80 81
f 56 81 78
f 58 76 80
f 60 82 83
f 60 83 84
f 60 84 85
f 60 85 86
f 60 86 87
f 60 87 61
f 60 79 82
f 61 87 63
f 61 63 62
f 63 87 88
f 63 88 64
f 64 88 89
f 66 67 91
f 66 91 92
f 66 92 93
f 66 93 94
f 66 94 90
f 69 71 72
f 70 95 71
f 71 95 96
f 71 96 97
f 71 97 98
f 71 98 99
f 71 99 100
f 71 100 101
f 71 101 73
f 71 73 72
f 73 101 77
f 73 77 75
f 74 102 103
f 74 103 104
f 76 77 100
f 76 100 99
f 76 99 98
f 76 98 80
f 77 101 100
f 78 81 105
f 78 105 106
f 78 106 79
f 79 106 82
f 80 98 81
f 81 98 105
f 82 106 107
f 82 107 108
f 82 108 109
f 82 109 83
f 83 109 84
f 84 109 85
f 85 111 112
f 85 112 86
f 85 109 110
f 86 112 111
f 86 111 88
f 86 88 87
f 88 111 113
f 88 113 89
f 90 94 93
f 90 93 114
f 90 114 115
f 90 115 116
f 91 117 118
f 91 118 92
f 92 118 93
f 93 118 119
f 93 119 120
f 93 120 114
f 97 121 98
f 98 121 122
f 98 122 105
f 102 123 103
f 103 124 125
f 103 125 126
f 103 126 104
f 103 123 127
f 103 127 128
f 103 128 124
f 105 122 129
f 105 129 106
f 106 130 108
f 106 108 107
f 106 129 131
f 106 131 130
f 108 130 132
f 108 132 133
f 108 133 134
f 108 134 135
f 108 135 136
f 108 136 109
f 109 136 110
f 110 136 135
f 110 135 137
f 114 138 139
f 114 139 140
f 114 140 115
f 114 120 141
f 114 141 138
f 115 140 116
f 117 142 143
f 117 143 118
f 118 143 119
f 119 143 144
f 119 144 120
f 120 144 145
f 120 145 141
f 121 146 147
f 121 147 148
f 121 148 149
f 121 149 122
f 122 149 129
f 124 150 151
f 124 151 125
f 124 128 150
f 127 152 153
f 127 153 128
f 128 154 155
f 128 155 156
f 128 156 150
f 128 153 154
f 129 149 148
f 129 148 131
f 130 131 157
f 130 157 132
f 131 148 157
f 132 157 148
f 132 148 147
f 132 147 133
f 133 147 158
f 133 158 159
f 133 159 160
f 133 160 134
f 134 161 135
f 134 160 162
f 134 162 163
f 134 163 161
f 135 164 165
f 135 165 137
f 135 161 164
f 138 153 166
f 138 166 139
f 138 141 153
f 139 166 152
f 139 152 167
f 139 167 140
f 141 145 168
f 141 168 155
f 141 155 154
f 141 154 153
f 142 169 170
f 142 170 143
f 143 170 171
f 143 171 144
f 144 172 145
f 144 171 173
f 144 173 172
f 145 172 168
f 146 158 147
f 150 156 174
f 150 174 175
f 150 175 151
f 151 175 176
f 152 166 153
f 155 168 177
f 155 177 178
f 155 178 174
f 155 174 156
f 161 163 179
f 161 179 164
f 162 180 163
f 163 181 179
f 163 180 181
f 164 179 165
f 165 179 182
f 168 172 183
f 168 183 177
f 169 184 185
f 169 185 170
f 170 185 171
f 171 185 186
f 171 186 173
f 172 173 187
f 172 187 177
f 172 177 183
f 173 188 187
f 173 186 189
f 173 189 188
f 174 190 208
f 174 208 191
f 174 191 192
f 174 192 193
f 174 193 175
f 174 178 190
f 175 193 176
f 176 193 194
f 177 188 195
f 177 195 196
f 177 196 190
f 177 190 178
f 177 187 188
f 179 181 197
f 179 197 198
f 179 198 199
f 179 199 182
f 180 200 197
f 180 197 181
f 182 199 201
f 184 202 185
f 185 202 203
f 185 203 204
f 185 204 186
f 186 204 205
f 186 205 189
f 188 189 195
f 189 205 206
f 189 206 207
f 189 207 195
f 190 196 208
f 191 208 209
f 191 209 210
f 191 210 211
f 191 211 214
f 191 214 192
f 192 212 213
f 192 213 193
f 192 214 215
f 192 215 212
f 193 213 194
f 195 207 216
f 195 216 196
f 196 216 217
f 196 217 208
f 197 218 219
f 197 219 198
f 197 200 218
f 198 219 199
f 199 219 220
f 199 220 201
f 200 221 219
f 200 219 218
f 201 220 222
f 203 223 204
f 204 223 224
f 204 224 205
f 205 224 206
f 206 224 225
f 206 225 226
f 206 226 207
f 207 226 227
f 207 227 228
f 207 228 229
f 207 229 242
f 207 242 216
f 208 217 230
f 208 230 231
f 208 231 209
f 209 231 230
f 209 230 232
f 209 232 210
f 210 233 211
f 210 232 234
f 210 234 235
f 210 235 236
f 210 236 237
f 210 237 238
f 210 238 239
f 210 239 233
f 211 233 239
f 211 239 214
f 214 239 240
f 214 240 241
f 214 241 215
f 216 242 234
f 216 234 230
f 216 230 217
f 219 222 220
f 219 221 222
f 221 243 222
f 222 243 244
f 222 244 245
f 223 246 225
f 223 225 224
f 223 247 246
f 225 246 228
f 225 228 227
f 225 227 226
f 228 246 248
f 228 248 229
f 229 248 249
f 229 249 250
f 229 250 242
f 230 234 232
f 234 242 250
f 234 250 235
f 235 250 251
f 235 251 236
f 236 251 270
f 236 270 252
f 236 252 253
f 236 253 237
f 237 253 273
f 237 273 254
f 237 254 255
f 237 255 238
f 238 255 239
f 239 255 256
f 239 256 240
f 240 256 241
f 241 256 255
f 241 255 257
f 244 258 245
f 245 258 260
f 245 260 261
f 245 261 262
f 245 262 259
f 246 247 263
f 246 263 248
f 247 264 263
f 248 265 249
f 248 263 266
f 248 266 267
f 248 267 265
f 249 265 250
f 250 265 251
f 251 265 268
f 251 268 269
f 251 269 270
f 252 270 290
f 252 290 271
f 252 271 272
f 252 272 253
f 253 272 297
f 253 297 273
f 254 273 257
f 254 257 255
f 257 273 274
f 259 262 276
f 259 276 277
f 259 277 278
f 259 278 279
f 259 279 280
f 259 280 275
f 260 281 262
f 260 262 261
f 262 281 282
f 262 282 283
f 262 283 284
f 262 284 276
f 263 264 266
f 264 285 286
f 264 286 266
f 265 267 287
f 265 287 268
f 266 286 267
f 267 286 288
f 267 288 287
f 268 287 288
f 268 288 289
f 268 289 269
f 269 290 270
f 269 289 291
f 269 291 292
f 269 292 293
f 269 293 294
f 269 294 290
f 271 290 295
f 271 295 296
f 271 296 298
f 271 298 272
f 272 298 297
f 273 297 299
f 273 299 274
f 275 280 301
f 275 301 302
f 275 302 303
f 275 303 300
f 276 284 304
f 276 304 305
f 276 305 278
f 276 278 277
f 278 305 306
f 278 306 307
f 278 307 279
f 279 307 308
f 279 308 309
f 279 309 280
f 280 309 310
f 280 310 301
f 283 311 284
f 284 311 312
f 284 312 304
f 285 313 314
f 285 314 286
f 286 315 288
f 286 314 315
f 288 315 289
f 289 315 316
f 289 316 291
f 290 294 317
f 290 317 295
f 291 316 292
f 292 318 319
f 292 319 320
f 292 320 321
f 292 321 322
f 292 322 323
f 292 323 293
f 292 316 324
f 292 324 314
f 292 314 325
f 292 325 318
f 293 323 326
f 293 326 295
f 293 295 317
f 293 317 294
f 295 326 323
f 295 323 322
f 295 322 327
f 295 327 296
f 296 327 328
f 296 328 329
f 296 329 298
f 297 298 330
f 297 330 331
f 297 331 299
f 298 329 332
f 298 332 333
f 298 333 334
f 298 334 330
f 300 303 335
f 301 310 302
f 302 310 336
f 302 336 337
f 302 337 303
f 303 337 338
f 303 338 339
f 303 339 335
f 304 312 340
f 304 340 341
f 304 341 305
f 305 341 306
f 306 342 343
f 306 343 307
f 306 341 342
f 307 343 308
f 308 343 344
f 308 344 345
f 308 345 346
f 308 346 309
f 309 346 310
f 310 346 347
f 310 347 348
f 310 348 336
f 313 349 314
f 314 349 350
f 314 350 351
f 314 351 325
f 314 324 316
f 314 316 315
f 318 351 319
f 318 325 351
f 319 352 320
f 319 351 352
f 320 352 353
f 320 353 354
f 320 354 355
f 320 355 321
f 321 355 356
f 321 356 357
f 321 357 322
f 322 357 358
f 322 358 359
f 322 359 360
f 322 360 327
f 327 360 361
f 327 361 328
f 328 361 329
f 329 361 360
f 329 360 362
f 329 362 363
f 329 363 332
f 330 334 364
f 330 364 331
f 332 363 365
f 332 365 333
f 333 366 367
f 333 367 364
f 333 364 334
f 333 365 366
f 335 339 368
f 336 348 337
f 337 348 369
f 337 369 370
f 337 370 338
f 338 371 368
f 338 368 339
f 338 370 372
f 338 372 373
f 338 373 374
f 338 374 371
f 340 375 342
f 340 342 341
f 342 375 376
f 342 376 377
f 342 377 344
f 342 344 343
f 344 377 411
f 344 411 378
f 344 378 345
f 345 378 379
f 345 379 346
f 346 379 347
f 347 379 380
f 347 380 348
f 348 380 381
f 348 381 369
f 349 382 350
f 350 382 383
f 350 383 351
f 351 383 384
f 351 384 352
f 352 384 354
f 352 354 353
f 354 385 355
f 354 384 386
f 354 386 387
f 354 387 388
f 354 388 385
f 355 385 389
f 355 389 356
f 356 389 357
f 357 390 358
f 357 389 391
f 357 391 392
f 357 392 393
f 357 393 394
f 357 394 395
f 357 395 390
f 358 390 359
f 359 390 396
f 359 396 397
f 359 397 398
f 359 398 362
f 359 362 360
f 362 399 363
f 362 398 439
f 362 439 399
f 363 399 365
f 365 399 400
f 365 400 366
f 369 381 401
f 369 401 370
f 370 401 402
f 370 402 403
f 370 403 372
f 372 403 404
f 372 404 405
f 372 405 406
f 372 406 407
f 372 407 408
f 372 408 409
f 372 409 373
f 376 410 411
f 376 411 377
f 378 412 413
f 378 413 379
f 378 411 412
f 379 413 414
f 379 414 415
f 379 415 380
f 380 415 416
f 380 416 381
f 381 416 417
f 381 417 418
f 381 418 401
f 385 388 419
f 385 419 420
f 385 420 389
f 386 421 387
f 387 422 423
f 387 423 388
f 387 421 422
f 388 423 424
f 388 424 425
f 388 425 420
f 388 420 419
f 389 420 392
f 389 392 391
f 390 395 426
f 390 426 396
f 392 420 427
f 392 427 393
f 393 427 428
f 393 428 429
f 393 429 394
f 394 429 430
f 394 430 431
f 394 431 474
f 394 474 432
f 394 432 426
f 394 426 433
f 394 433 395
f 395 433 426
f 396 426 434
f 396 434 435
f 396 435 397
f 397 436 439
f 397 439 398
f 397 435 437
f 397 437 438
f 397 438 436
f 399 439 440
f 399 440 400
f 401 418 441
f 401 441 402
f 402 441 442
f 402 442 403
f 403 442 443
f 403 443 444
f 403 444 404
f 404 444 405
f 405 445 446
f 405 446 447
f 405 447 406
f 405 444 445
f 410 448 411
f 411 448 412
f 412 448 449
f 412 449 450
f 412 450 413
f 413 450 451
f 413 451 414
f 414 416 415
f 414 451 452
f 414 452 453
f 414 453 454
f 414 454 417
f 414 417 416
f 417 455 456
f 417 456 457
f 417 457 441
f 417 441 418
f 417 454 455
f 420 425 458
f 420 458 427
f 424 459 460
f 424 460 461
f 424 461 425
f 425 461 462
f 425 462 458
f 426 463 434
f 426 432 464
f 426 464 463
f 427 458 462
f 427 462 428
f 428 462 465
f 428 465 466
f 428 466 467
f 428 467 468
f 428 468 469
f 428 469 429
f 429 469 430
f 430 470 431
f 430 469 468
f 430 468 471
f 430 471 472
f 430 472 473
f 430 473 470
f 431 470 474
f 432 435 464
f 432 474 435
f 434 463 435
f 435 475 437
f 435 463 464
f 435 474 476
f 435 476 477
f 435 477 478
f 435 478 479
f 435 479 480
f 435 480 438
f 435 438 475
f 436 438 481
f 436 481 482
f 436 482 483
f 436 483 440
f 436 440 439
f 437 475 438
f 438 480 479
f 438 479 478
f 438 478 484
f 438 484 485
f 438 485 486
f 438 486 487
f 438 487 488
f 438 488 489
f 438 489 481
f 441 457 442
f 442 490 443
f 442 457 490
f 443 491 444
f 443 490 491
f 444 491 492
f 444 492 493
f 444 493 445
f 445 493 494
f 445 494 446
f 446 494 495
f 446 495 496
f 446 496 497
f 446 497 447
f 449 498 450
f 450 498 499
f 450 499 500
f 450 500 451
f 451 500 452
f 452 501 453
f 452 500 501
f 453 501 502
f 453 502 503
f 453 503 454
f 454 503 504
f 454 504 455
f 455 504 456
f 456 504 505
f 456 505 506
f 456 506 507
f 456 507 490
f 456 490 457
f 459 508 460
f 460 508 461
f 461 465 462
f 461 508 509
f 461 509 510
f 461 510 465
f 465 510 511
f 465 511 466
f 466 511 510
f 466 510 512
f 466 512 513
f 466 513 467
f 467 513 514
f 467 514 515
f 467 515 516
f 467 516 517
f 467 517 468
f 468 517 471
f 470 473 472
f 470 472 518
f 470 518 474
f 471 519 520
f 471 520 521
f 471 521 472
f 471 517 516
f 471 516 522
f 471 522 523
f 471 523 524
f 471 524 525
f 471 525 526
f 471 526 527
f 471 527 519
f 472 521 518
f 474 518 476
f 476 518 528
f 476 528 477
f 477 529 484
f 477 484 478
f 477 528 530
f 477 530 531
f 477 531 532
f 477 532 533
f 477 533 529
f 481 489 482
f 482 489 488
f 482 488 487
f 482 487 486
f 482 486 485
f 482 485 534
f 484 529 535
f 484 535 536
f 484 536 485
f 485 536 537
f 485 537 534
f 490 507 491
f 491 507 538
f 491 538 492
f 492 538 539
f 492 539 493
f 493 539 540
f 493 540 541
f 493 541 494
f 494 541 495
f 495 542 543
f 495 543 496
f 495 541 542
f 499 544 500
f 500 544 501
f 501 544 545
f 501 545 502
f 502 545 575
f 502 575 546
f 502 546 547
f 502 547 503
f 503 547 504
f 504 547 548
f 504 548 549
f 504 549 505
f 505 549 506
f 506 549 550
f 506 550 551
f 506 551 538
f 506 538 507
f 509 552 553
f 509 553 510
f 510 513 512
f 510 553 513
f 513 553 514
f 514 553 554
f 514 554 555
f 514 555 515
f 515 522 516
f 515 555 554
f 515 554 556
f 515 556 557
f 515 557 522
f 518 531 530
f 518 530 528
f 518 521 527
f 518 527 531
f 519 527 520
f 520 527 521
f 522 557 523
f 523 557 524
f 524 557 558
f 524 558 559
f 524 559 525
f 525 559 560
f 525 560 561
f 525 561 562
f 525 562 527
f 525 527 526
f 527 562 563
f 527 563 531
f 529 533 564
f 529 564 535
f 531 563 565
f 531 565 532
f 532 564 533
f 532 565 566
f 532 566 567
f 532 567 564
f 535 564 568
f 535 568 537
f 535 537 536
f 538 551 539
f 539 551 569
f 539 569 540
f 540 569 570
f 540 570 571
f 540 571 541
f 541 571 542
f 542 571 572
f 542 572 573
f 542 573 543
f 543 573 574
f 546 575 576
f 546 576 577
f 546 577 548
f 546 548 547
f 548 577 549
f 549 577 578
f 549 578 550
f 550 578 579
f 550 579 580
f 550 580 551
f 551 580 569
f 552 581 553
f 553 581 582
f 553 582 554
f 554 582 556
f 556 583 557
f 556 582 583
f 557 583 584
f 557 584 558
f 558 585 559
f 558 584 585
f 559 586 560
f 559 585 587
f 559 587 586
f 560 586 561
f 561 588 591
f 561 591 562
f 561 586 589
f 561 589 590
f 561 590 588
f 562 591 565
f 562 565 563
f 564 592 593
f 564 593 594
f 564 594 568
f 564 567 592
f 565 591 595
f 565 595 596
f 565 596 566
f 566 596 567
f 567 597 598
f 567 598 592
f 567 596 597
f 569 580 599
f 569 599 570
f 570 599 600
f 570 600 601
f 570 601 571
f 571 601 572
f 572 601 602
f 572 602 603
f 572 603 604
f 572 604 573
f 573 604 574
f 574 604 605
f 575 606 576
f 576 606 607
f 576 607 577
f 577 607 608
f 577 608 578
f 578 608 609
f 578 609 579
f 579 610 611
f 579 611 580
f 579 609 610
f 580 611 599
f 582 612 583
f 583 612 613
f 583 613 604
f 583 604 584
f 584 604 603
f 584 603 585
f 585 603 602
f 585 602 614
f 585 614 587
f 586 587 615
f 586 615 589
f 587 614 615
f 588 616 617
f 588 617 618
f 588 618 591
f 588 590 619
f 588 619 620
f 588 620 616
f 589 615 590
f 590 620 619
f 590 615 621
f 590 621 622
f 590 622 620
f 591 618 595
f 595 618 596
f 596 618 623
f 596 623 597
f 597 623 624
f 597 624 598
f 599 611 625
f 599 625 600
f 600 625 621
f 600 621 614
f 600 614 601
f 601 614 602
f 604 613 626
f 604 626 605
f 606 627 608
f 606 608 607
f 608 627 609
f 609 627 628
f 609 628 629
f 609 629 630
f 609 630 610
f 610 630 631
f 610 631 632
f 610 632 611
f 611 632 625
f 612 626 613
f 614 621 615
f 616 633 634
f 616 634 635
f 616 635 636
f 616 636 617
f 616 620 633
f 617 636 618
f 618 636 637
f 618 637 638
f 618 638 624
f 618 624 623
f 620 622 639
f 620 639 633
f 621 625 632
f 621 632 622
f 622 632 639
f 629 640 630
f 630 640 631
f 631 640 641
f 631 641 639
f 631 639 632
f 633 639 634
f 634 639 642
f 639 641 642

