# https://github.com/mikedh/trimesh
v -0.00500457 0.44498417 0.16170081
v -0.01234696 0.45167229 0.16045627
v -0.01215648 0.44498417 0.16039246
v -0.01052868 0.43960026 0.16007334
v -0.00500457 0.43762726 0.16052011
v 0.00499599 0.43766069 0.16052011
v 0.00499599 0.44498417 0.16166890
v 0.00449380 0.45491600 0.16099876
v -0.00454567 0.45498288 0.16099876
v -0.02500568 0.44498417 0.15803102
v -0.00756748 0.45832694 0.15953085
v -0.01541207 0.45498288 0.15892455
v -0.02500568 0.45498288 0.15694606
v -0.02500568 0.43498546 0.15653121
v -0.02651225 0.16201043 0.09931454
v -0.02127387 0.16201043 0.10020805
v -0.01477134 0.16201043 0.10129303
v -0.00500457 0.16201043 0.10292050
v 0.00499599 0.16201043 0.10292050
v 0.00555013 0.43782789 0.16048819
v 0.00555013 0.44498417 0.16157317
v 0.00555013 0.44548577 0.16157317
v 0.00555013 0.45448127 0.16093495
v 0.00083126 0.46056747 0.16013718
v -0.00090044 0.46056747 0.16013718
v -0.03500623 0.44498417 0.15519094
v -0.03500623 0.43498546 0.15388259
v -0.00454567 0.46434623 0.15841398
v -0.01500512 0.46498162 0.15611637
v -0.02500568 0.46498162 0.15397832
v -0.03107528 0.47063306 0.15043619
v -0.03328319 0.46498162 0.15142542
v -0.03599330 0.45595267 0.15302098
v -0.02985443 0.16201043 0.09851676
v 0.00555013 0.16201043 0.10282477
v 0.00555013 0.46441311 0.15812677
v 0.00449380 0.46434623 0.15835014
v 0.00539428 0.47574946 0.15308481
v -0.04265168 0.44498417 0.15161690
v -0.04177717 0.43498546 0.15104249
v -0.04170790 0.45327741 0.15110633
v -0.04053901 0.42856488 0.15030855
v -0.03500623 0.16201043 0.09704885
v -0.00543749 0.47578290 0.15311670
v -0.02500568 0.47183692 0.15123397
v -0.00905674 0.47966200 0.14967030
v -0.02500568 0.47681957 0.14695787
v -0.03124845 0.48069865 0.14073521
v -0.03449538 0.47457904 0.14459646
v -0.04193302 0.47183692 0.14178827
v -0.04515398 0.46511537 0.14379868
v -0.03828780 0.46498162 0.14880872
v -0.03996755 0.45993209 0.14995751
v 0.00555013 0.16201043 -0.15195373
v 0.00555013 0.47571602 0.15308481
v 0.00232052 0.48066521 0.15069148
v -0.04765629 0.44498417 0.14852151
v -0.06024573 0.43853015 0.14025652
v -0.04678178 0.43498546 0.14807475
v -0.08290499 0.16201043 0.07624279
v -0.04502410 0.45595267 0.14810666
v -0.05336223 0.45498288 0.14261794
v -0.05579527 0.44498417 0.14296898
v -0.03758646 0.16201043 0.09593196
v -0.00238970 0.48066521 0.15069148
v -0.00533359 0.48507935 0.14507511
v -0.00827747 0.48946008 0.13942683
v -0.01500512 0.48344079 0.14367101
v -0.02500568 0.48183563 0.14197972
v -0.03791548 0.47852504 0.13853332
v -0.02500568 0.48685169 0.13665056
v -0.03098869 0.49036297 0.13052362
v -0.03445209 0.48461121 0.13451251
v -0.04188107 0.48186907 0.13186389
v -0.04860006 0.46855974 0.13859716
v -0.05149200 0.46187162 0.14121386
v -0.02963797 0.16201043 -0.16009107
v 0.00555013 0.16331461 -0.15176228
v 0.00555013 0.47591668 0.15295717
v 0.00555013 0.48467809 0.14539424
v 0.00155857 0.49042985 0.14047989
v -0.06024573 0.44167358 0.14025652
v -0.05567405 0.43511921 0.14261794
v -0.07112079 0.44498417 0.12187572
v -0.07094762 0.43498546 0.12162042
v -0.08290499 0.37499315 0.09752752
v -0.08290499 0.37445810 0.09749561
v -0.08290499 0.34499699 0.09570859
v -0.08290499 0.22628313 0.08517791
v -0.08290499 0.21611720 0.08377382
v -0.08290499 0.16201043 -0.16302690
v -0.05836684 0.45498288 0.13779938
v -0.05965695 0.44832823 0.13958639
v -0.00161044 0.49042985 0.14047989
v -0.01500512 0.48842341 0.13830996
v -0.02500568 0.49116555 0.13164052
v -0.00463225 0.49855590 0.12455625
v -0.01500512 0.49608129 0.12497110
v -0.02500568 0.49367356 0.12497110
v -0.03307539 0.49123242 0.12497110
v -0.03976840 0.48986137 0.11954620
v -0.03807134 0.48882473 0.12497110
v -0.04512801 0.48334044 0.12462007
v -0.04854811 0.47852504 0.12771544
v -0.05192492 0.47187036 0.13195965
v -0.05859196 0.46779060 0.12825793
v -0.06051414 0.46110252 0.13081083
v -0.03067699 0.16201043 -0.16031444
v -0.03159479 0.16786253 -0.15964431
v 0.00555013 0.16685931 -0.15121979
v 0.00555013 0.48548067 0.14453262
v 0.00555013 0.49243629 0.13633147
v 0.00555013 0.49310511 0.13550177
v 0.00493538 0.49313855 0.13562942
v -0.00496993 0.49313855 0.13566133
v -0.06260949 0.44498417 0.13575706
v -0.06807300 0.44498417 0.12688577
v -0.08290499 0.44498417 0.10081436
v -0.08290499 0.44150636 0.10087819
v -0.08290499 0.43498546 0.10091010
v -0.07065323 0.45143819 0.12104603
v -0.08290499 0.45488256 0.09931454
v -0.08290499 0.45237452 0.09985703
v -0.07499979 0.16201043 -0.16388848
v -0.08290499 0.16502008 -0.16261205
v -0.06179560 0.45498288 0.13278931
v -0.01500512 0.49240285 0.13333181
v 0.00458904 0.49855590 0.12455625
v -0.00104764 0.50019449 0.12095029
v -0.00771467 0.49949223 0.11782300
v -0.01470207 0.49865621 0.11469571
v -0.02500568 0.49618161 0.11498291
v -0.03500623 0.49547938 0.10499472
v -0.03587208 0.49243629 0.11571687
v -0.04096327 0.49073082 0.11287677
v -0.08290499 0.47461247 0.07289212
v -0.08290499 0.47136873 0.08501835
v -0.05062615 0.48049802 0.12104603
v -0.06084317 0.47100091 0.12158851
v -0.08290499 0.46518224 0.09459169
v -0.03497160 0.16201043 -0.16120797
v -0.03496294 0.16471912 -0.16082504
v -0.03826182 0.17224324 -0.16034636
v -0.03496294 0.17535321 -0.15916565
v -0.03500623 0.18501753 -0.15763393
v 0.00555013 0.17501880 -0.14991143
v 0.00555013 0.49832183 0.12458815
v -0.07499979 0.16502008 -0.16344175
v -0.06499924 0.16201043 -0.16430333
v -0.08290499 0.17943296 -0.16041020
v -0.08180536 0.18153970 -0.16021872
v 0.00555013 0.49855590 0.12359892
v 0.00555013 0.50082988 0.11364264
v 0.00098711 0.50019449 0.12095029
v -0.00500457 0.50293660 0.10499472
v -0.01116941 0.50022793 0.11115357
v -0.02470263 0.49865621 0.10467561
v -0.01470207 0.50089675 0.10467561
v -0.02116997 0.50022793 0.10113348
v -0.03500623 0.49675012 0.09497463
v -0.04343960 0.49253660 0.09497463
v -0.04228802 0.49176747 0.10499472
v -0.08290499 0.47584978 0.06497816
v -0.04200229 0.16201043 -0.16242060
v -0.04129229 0.17889790 -0.15980387
v -0.04499813 0.16201043 -0.16293117
v -0.04499813 0.16502008 -0.16248441
v 0.00555013 0.18515128 -0.14825204
v -0.03500623 0.19501624 -0.15591070
v 0.00555013 0.19501624 -0.14662457
v -0.07499979 0.17501880 -0.16187811
v -0.06499924 0.16502008 -0.16385660
v -0.05499868 0.16201043 -0.16395232
v -0.05499868 0.16502008 -0.16353747
v -0.08290499 0.18267669 -0.15989959
v -0.07499979 0.18849534 -0.15974006
v -0.07499979 0.18347925 -0.16053784
v -0.08290499 0.19501624 -0.15776157
v 0.00555013 0.50276941 0.10496281
v 0.00499599 0.50290316 0.10499472
v 0.00499599 0.50363886 0.09497463
v -0.00500457 0.50360543 0.09497463
v -0.01500512 0.50156558 0.09497463
v -0.02626982 0.49922472 0.09497463
v -0.03500623 0.49568003 0.08498644
v -0.08290499 0.47531474 0.03498169
v -0.08290499 0.47605044 0.04289566
v -0.08290499 0.47621763 0.04496988
v -0.08290499 0.47651857 0.05288384
v -0.08290499 0.47648513 0.05498997
v -0.08290499 0.47615075 0.06290394
v -0.04477301 0.17535321 -0.16085693
v -0.04477301 0.18505096 -0.15929329
v -0.04499813 0.19501624 -0.15760201
v -0.04795933 0.18174034 -0.16025063
v -0.04499813 0.20501496 -0.15581498
v -0.03500623 0.20501496 -0.15409178
v 0.00555013 0.20501496 -0.14480564
v -0.06499924 0.18474999 -0.16076121
v -0.06499924 0.17501880 -0.16229293
v -0.05499868 0.17501880 -0.16197383
v -0.06499924 0.18976608 -0.15993151
v -0.07499979 0.19501624 -0.15859124
v -0.08290499 0.20501496 -0.15594262
v 0.00555013 0.50283629 0.10442033
v 0.00555013 0.50350511 0.09497463
v 0.00555013 0.50343823 0.09443214
v 0.00555013 0.50213403 0.08501835
v 0.00499599 0.50223434 0.08498644
v 0.00055419 0.50009418 0.06944572
v -0.00051947 0.50009418 0.06944572
v -0.00500457 0.50216746 0.08498644
v -0.02052924 0.50009418 0.08951782
v -0.02432166 0.49855590 0.08568849
v -0.08290499 0.47377646 0.02499351
v -0.05499868 0.19501624 -0.15865508
v -0.05499868 0.18872942 -0.15977195
v -0.05499868 0.20501496 -0.15686804
v -0.04499813 0.21501368 -0.15396413
v -0.03500623 0.21501368 -0.15224093
v -0.02969858 0.22043103 -0.15007097
v 0.00555013 0.22076544 -0.14177409
v -0.06499924 0.19501624 -0.15900609
v -0.07499979 0.20501496 -0.15677232
v -0.08290499 0.21501368 -0.15409178
v 0.00555013 0.50203371 0.08444396
v 0.00555013 0.50049543 0.07627470
v 0.00555013 0.49899063 0.06858412
v 0.00555013 0.49838871 0.06558447
v 0.00432929 0.49862278 0.06568021
v 0.00499599 0.49484402 0.05498997
v -0.00500457 0.49484402 0.05498997
v -0.00431189 0.49858934 0.06568021
v -0.01500512 0.49628192 0.06497816
v -0.02500568 0.49417520 0.06497816
v -0.08290499 0.47334176 0.02288737
v -0.06499924 0.20501496 -0.15718716
v -0.06499924 0.21501368 -0.15533632
v -0.05499868 0.21501368 -0.15498528
v -0.05137943 0.23949215 -0.14987952
v -0.04499813 0.22501239 -0.15198565
v -0.03946535 0.23056352 -0.15010288
v -0.03280698 0.22711915 -0.14940083
v 0.00555013 0.24444133 -0.13692358
v 0.00555013 0.22501239 -0.14091247
v -0.07499979 0.21501368 -0.15492147
v -0.08290499 0.22290564 -0.15256006
v -0.07834198 0.23939182 -0.14984760
v 0.00555013 0.49474367 0.05495806
v 0.00499599 0.49116555 0.04809717
v -0.03958657 0.45006713 -0.04010521
v -0.04499813 0.45347807 -0.03499943
v -0.05499868 0.45431408 -0.03499943
v -0.05499868 0.45846069 -0.02667062
v -0.06499924 0.45856103 -0.02683017
v -0.06499924 0.46080154 -0.02185204
v -0.06499924 0.46361053 -0.01499114
v -0.07499979 0.46314240 -0.01499114
v -0.07499979 0.46682084 -0.00497105
v -0.08290499 0.46595138 -0.00497105
v -0.08252402 0.47036552 0.00875074
v -0.08290499 0.47046584 0.00945279
v -0.08290499 0.47156939 0.01446283
v -0.06499924 0.22501239 -0.15338972
v -0.05804648 0.24069600 -0.15013480
v -0.07167494 0.24062911 -0.15010288
v -0.05499868 0.22501239 -0.15303871
v -0.05482551 0.24440789 -0.14908174
v -0.05499868 0.25500855 -0.14678413
v -0.05499868 0.26500726 -0.14458227
v -0.04499813 0.26500726 -0.14352921
v -0.04499813 0.25500855 -0.14573106
v -0.04499813 0.24500982 -0.14790103
v -0.04499813 0.23755258 -0.14949659
v -0.05482551 0.23571336 -0.15090066
v -0.03500623 0.25500855 -0.14400786
v -0.03500623 0.24500982 -0.14617783
v -0.03569025 0.23434231 -0.14853925
v 0.00555013 0.25420597 -0.13481745
v -0.07499979 0.22501239 -0.15297490
v -0.08290499 0.23798731 -0.14959231
v -0.07499979 0.23564649 -0.15086874
v -0.08290499 0.24323747 -0.14847541
v -0.08290499 0.25280148 -0.14640120
v -0.08290499 0.26293394 -0.14416742
v -0.07499979 0.26500726 -0.14455035
v -0.07499979 0.25500855 -0.14675221
v -0.07499979 0.24437445 -0.14904982
v 0.00555013 0.49109864 0.04819290
v -0.03292819 0.44943178 -0.03895640
v -0.03575952 0.44692373 -0.04406219
v -0.03500623 0.44157323 -0.05226335
v -0.04499813 0.44735846 -0.04572156
v -0.04499813 0.45040154 -0.04071152
v -0.05499868 0.45083627 -0.04147739
v -0.06499924 0.45448127 -0.03499943
v -0.07499979 0.45401311 -0.03499943
v -0.07499979 0.45829350 -0.02628768
v -0.07499979 0.46056747 -0.02127764
v -0.08172745 0.46023303 -0.02054368
v -0.08290499 0.46203884 -0.01550172
v -0.08290499 0.46518224 -0.00707718
v -0.08290499 0.47016490 0.00830398
v -0.06499924 0.24096352 -0.15019861
v -0.06499924 0.24597961 -0.14911366
v -0.06499924 0.25500855 -0.14713514
v -0.06499924 0.26500726 -0.14493328
v -0.05499868 0.27500597 -0.14231658
v -0.04806323 0.28115904 -0.14024234
v -0.04483362 0.27550757 -0.14110395
v -0.04139620 0.27915260 -0.13979560
v -0.03726610 0.27249795 -0.14056146
v -0.03436550 0.26567608 -0.14148688
v -0.03059906 0.26945484 -0.13985941
v 0.00555013 0.26818413 -0.13162634
v -0.08290499 0.28226256 -0.13982749
v -0.08184000 0.28109217 -0.14024234
v -0.07499979 0.28242978 -0.14056146
v -0.06499924 0.27500597 -0.14266759
v 0.00555013 0.49096489 0.04796953
v -0.02763786 0.44070378 -0.05101882
v -0.04499813 0.44237581 -0.05350788
v -0.03500623 0.43802854 -0.05727340
v -0.04499813 0.43889800 -0.05848602
v -0.05499868 0.44782662 -0.04645552
v -0.05499868 0.44284397 -0.05427375
v -0.06499924 0.44799381 -0.04661508
v -0.06499924 0.45090315 -0.04160503
v -0.07499979 0.45070249 -0.04125401
v -0.08290499 0.45277581 -0.03560574
v -0.08228159 0.45036811 -0.04061579
v -0.08290499 0.45076939 -0.03965845
v -0.08290499 0.45805943 -0.02472404
v -0.08290499 0.45943049 -0.02188395
v -0.08290499 0.46076810 -0.01878857
v -0.06499924 0.28329924 -0.14075291
v -0.05499868 0.28754616 -0.13941267
v -0.04499813 0.29500341 -0.13654065
v -0.04483362 0.28470373 -0.13896590
v -0.05499868 0.30500212 -0.13516846
v -0.04078145 0.31958219 -0.12987122
v -0.03500623 0.29500341 -0.13478553
v -0.03500623 0.28500471 -0.13714698
v -0.03436550 0.27550757 -0.13925311
v 0.00555013 0.28470373 -0.12779701
v -0.08290499 0.30292881 -0.13481745
v -0.07499979 0.29500341 -0.13756180
v -0.07499979 0.28744584 -0.13938075
v -0.07499979 0.30500212 -0.13513657
v 0.00555013 0.48802215 0.04321477
v -0.02097082 0.43966714 -0.04945517
v -0.02459007 0.43722597 -0.05459286
v -0.02500568 0.43174171 -0.06218771
v -0.05499868 0.43946648 -0.05925189
v -0.03500623 0.43301246 -0.06381518
v -0.04488557 0.43331343 -0.06579367
v -0.04814116 0.43030378 -0.07035697
v -0.05499868 0.43515265 -0.06499589
v -0.06499924 0.44301116 -0.05452904
v -0.06499924 0.43966714 -0.05950718
v -0.07499979 0.44779319 -0.04626406
v -0.07499979 0.44277710 -0.05424184
v -0.08290499 0.44979960 -0.04138165
v -0.08290499 0.44230893 -0.05357170
v -0.06499924 0.28828186 -0.13957220
v -0.06499924 0.29500341 -0.13797665
v -0.06499924 0.30500212 -0.13555142
v -0.04744848 0.32142141 -0.13034990
v -0.04499813 0.30500212 -0.13408351
v -0.05499868 0.31500083 -0.13271132
v -0.03500623 0.31724137 -0.12929684
v -0.03500623 0.31222528 -0.13054135
v -0.03500623 0.30500212 -0.13232839
v -0.04446996 0.32486579 -0.12904155
v -0.04499813 0.33499828 -0.12648866
v -0.03500623 0.33499828 -0.12470163
v -0.03500623 0.32503301 -0.12728643
v -0.02994101 0.31008509 -0.12999886
v 0.00555013 0.29507029 -0.12530795
v -0.08290499 0.32075262 -0.13044563
v -0.08256732 0.32138798 -0.13034990
v -0.07499979 0.31500083 -0.13267940
v 0.00555013 0.48257133 0.03453494
v 0.00555013 0.47982919 0.03022693
v 0.00555013 0.41809797 -0.06509162
v -0.01866766 0.43067163 -0.06081553
v -0.02500568 0.42759511 -0.06719776
v -0.03500623 0.42899960 -0.06882523
v -0.06499924 0.43555394 -0.06499589
v -0.04147412 0.42970186 -0.06965492
v -0.04488557 0.42622405 -0.07421821
v -0.04499813 0.42047226 -0.08047279
v -0.05499868 0.42114109 -0.08117484
v -0.05499868 0.42615715 -0.07578185
v -0.05499868 0.43067163 -0.07077181
v -0.06499924 0.43087226 -0.07105901
v -0.07499979 0.43946648 -0.05921998
v -0.07499979 0.43521953 -0.06499589
v -0.08290499 0.43903175 -0.05858175
v -0.06499924 0.31500083 -0.13306233
v -0.05499868 0.32289281 -0.13070092
v -0.05499868 0.32787544 -0.12942448
v -0.05499868 0.33499828 -0.12757364
v -0.06499924 0.32359505 -0.13089240
v -0.06499924 0.32861114 -0.12961593
v -0.05499868 0.34499699 -0.12482927
v -0.04499813 0.34499699 -0.12371238
v 0.00555013 0.33436292 -0.11528784
v -0.03757780 0.35165167 -0.12052127
v -0.03454733 0.34556550 -0.12167007
v -0.03091077 0.34931082 -0.11978731
v 0.00555013 0.32503301 -0.11771309
v 0.00555013 0.30901501 -0.12179771
v -0.08290499 0.32178926 -0.13019034
v -0.07499979 0.32282594 -0.13070092
v -0.08290499 0.33349347 -0.12712687
v -0.07499979 0.33499828 -0.12757364
v -0.07499979 0.32784200 -0.12942448
v 0.00555013 0.41655973 -0.06713394
v 0.00555013 0.41415203 -0.07019740
v 0.00555013 0.41087484 -0.07428204
v -0.02500568 0.42261246 -0.07281412
v -0.03592403 0.42321438 -0.07546274
v -0.03986365 0.42000410 -0.08002604
v -0.07499979 0.43070507 -0.07089945
v -0.04448728 0.41425234 -0.08631253
v -0.04747446 0.41044012 -0.09039716
v -0.05499868 0.41595781 -0.08618489
v -0.06499924 0.42147547 -0.08149395
v -0.06499924 0.42645812 -0.07603715
v -0.07499979 0.42639124 -0.07587759
v -0.08290499 0.43073851 -0.06994212
v -0.06499924 0.33499828 -0.12795657
v -0.06499924 0.34499699 -0.12521219
v -0.06499924 0.35499573 -0.12221256
v -0.05719794 0.36061373 -0.12020215
v -0.05431467 0.35589862 -0.12147860
v -0.05053090 0.35984460 -0.11994687
v -0.04499813 0.35362464 -0.12112758
v 0.00555013 0.34683624 -0.11171380
v -0.04499813 0.35864073 -0.11956393
v -0.03454733 0.35499573 -0.11879806
v 0.00555013 0.35623300 -0.10871415
v -0.08290499 0.34289023 -0.12457398
v -0.08290499 0.34499699 -0.12399958
v -0.07499979 0.34499699 -0.12482927
v 0.00555013 0.40850055 -0.07677110
v -0.02500568 0.41779703 -0.07779226
v -0.03320527 0.41910121 -0.07910062
v -0.03592403 0.41545618 -0.08331288
v -0.04080742 0.40980473 -0.08985467
v -0.08255000 0.43037066 -0.07045270
v -0.04448728 0.40589219 -0.09355636
v -0.05298126 0.39960539 -0.09971520
v -0.05578661 0.40401953 -0.09652409
v -0.05499868 0.41094172 -0.09084391
v -0.06499924 0.41629219 -0.08650400
v -0.07499979 0.42140859 -0.08146204
v -0.08290499 0.42100731 -0.08104719
v -0.08290499 0.42993593 -0.07089945
v -0.07297371 0.36058030 -0.12020215
v -0.06499924 0.36091468 -0.12032980
v -0.06499924 0.36589733 -0.11847895
v -0.05431467 0.36435908 -0.11857469
v -0.04499813 0.36499444 -0.11723442
v -0.03500623 0.36499444 -0.11538357
v 0.00555013 0.36442596 -0.10577832
v -0.08290499 0.35426003 -0.12125523
v -0.07964075 0.35991147 -0.11994687
v -0.07578772 0.35593206 -0.12147860
v 0.00555013 0.40281567 -0.08245128
v -0.02500568 0.41278094 -0.08261084
v -0.03500623 0.40896872 -0.08912071
v -0.03500623 0.40395266 -0.09314151
v -0.04499813 0.39880282 -0.09917272
v -0.04499813 0.39382017 -0.10252339
v -0.05578661 0.39575970 -0.10255530
v -0.05964829 0.40004009 -0.10000241
v -0.06499924 0.41130957 -0.09113111
v -0.07499979 0.41622531 -0.08644018
v -0.08290499 0.41582403 -0.08605724
v -0.08290499 0.41993722 -0.08210026
v -0.07578772 0.36435908 -0.11863851
v -0.06499924 0.37499315 -0.11471344
v -0.05499868 0.37499315 -0.11426669
v -0.07499979 0.37499315 -0.11439433
v -0.04408899 0.37596291 -0.11244775
v -0.03500623 0.37372240 -0.11174571
v -0.02732615 0.37168252 -0.11078837
v 0.00555013 0.36502787 -0.10552303
v -0.08290499 0.35920921 -0.11975540
v -0.08290499 0.36298800 -0.11838322
v -0.08290499 0.36482722 -0.11768118
v 0.00555013 0.40234751 -0.08286612
v 0.00555013 0.39609411 -0.08800382
v 0.00555013 0.39388704 -0.08969511
v -0.03500623 0.39733142 -0.09811965
v -0.03500623 0.39231533 -0.10150223
v -0.04408899 0.38455713 -0.10798019
v -0.05499868 0.38679767 -0.10817166
v -0.06499924 0.38723239 -0.10842694
v -0.06499924 0.39499059 -0.10351263
v -0.06499924 0.40010700 -0.10006623
v -0.06499924 0.40512305 -0.09614116
v -0.07499979 0.41124269 -0.09106729
v -0.08290499 0.41080797 -0.09071627
v -0.08290499 0.37255198 -0.11455388
v -0.08290499 0.37499315 -0.11356464
v -0.07499979 0.38198221 -0.11107557
v -0.06499924 0.38224974 -0.11120322
v -0.05499868 0.38181502 -0.11097984
v -0.04680775 0.38091213 -0.11050117
v -0.08290499 0.37977514 -0.11136277
v -0.04014072 0.37994236 -0.10995868
v -0.03500623 0.37873849 -0.10938428
v 0.00555013 0.37439123 -0.10147032
v 0.00555013 0.38753334 -0.09393929
v -0.02795822 0.39094427 -0.10060872
v -0.03500623 0.38499188 -0.10590596
v -0.07499979 0.38696486 -0.10826739
v -0.07499979 0.39589348 -0.10268294
v -0.07166628 0.40010700 -0.10006623
v -0.07499979 0.40405297 -0.09681129
v -0.07833332 0.39983946 -0.09990668
v -0.08290499 0.40338415 -0.09661983
v -0.08290499 0.38124654 -0.11066072
v -0.08290499 0.38622916 -0.10788446
v 0.00555013 0.38442338 -0.09585396
v -0.08290499 0.39275008 -0.10392748
v -0.08290499 0.39462274 -0.10274676
v -0.08290499 0.39947161 -0.09961947
f 1 2 3
f 1 3 4
f 1 4 5
f 1 5 6
f 1 6 7
f 1 7 8
f 1 8 9
f 1 9 2
f 2 10 3
f 2 9 11
f 2 11 12
f 2 12 13
f 2 13 10
f 3 10 4
f 4 10 14
f 4 14 15
f 4 15 16
f 4 16 17
f 4 17 18
f 4 18 5
f 5 18 19
f 5 19 6
f 6 20 7
f 6 19 20
f 7 21 22
f 7 22 23
f 7 23 8
f 7 20 21
f 8 23 24
f 8 24 9
f 9 24 25
f 9 25 11
f 10 13 26
f 10 26 27
f 10 27 14
f 11 25 28
f 11 28 12
f 12 28 29
f 12 29 13
f 13 29 30
f 13 30 31
f 13 31 32
f 13 32 33
f 13 33 26
f 14 27 34
f 14 34 15
f 15 34 43
f 15 43 64
f 15 64 60
f 15 60 91
f 15 91 124
f 15 124 149
f 15 149 173
f 15 173 166
f 15 166 164
f 15 164 141
f 15 141 108
f 15 108 77
f 15 77 54
f 15 54 35
f 15 35 19
f 15 19 18
f 15 18 17
f 15 17 16
f 19 35 20
f 20 35 54
f 20 54 78
f 20 78 110
f 20 110 146
f 20 146 168
f 20 168 170
f 20 170 198
f 20 198 222
f 20 222 245
f 20 245 244
f 20 244 279
f 20 279 315
f 20 315 345
f 20 345 379
f 20 379 413
f 20 413 412
f 20 412 408
f 20 408 440
f 20 440 443
f 20 443 467
f 20 467 490
f 20 490 516
f 20 516 528
f 20 528 517
f 20 517 496
f 20 496 495
f 20 495 494
f 20 494 471
f 20 471 447
f 20 447 421
f 20 421 420
f 20 420 419
f 20 419 385
f 20 385 384
f 20 384 383
f 20 383 350
f 20 350 320
f 20 320 289
f 20 289 249
f 20 249 229
f 20 229 228
f 20 228 227
f 20 227 226
f 20 226 208
f 20 208 207
f 20 207 206
f 20 206 205
f 20 205 179
f 20 179 153
f 20 153 152
f 20 152 147
f 20 147 113
f 20 113 112
f 20 112 111
f 20 111 80
f 20 80 79
f 20 79 55
f 20 55 36
f 20 36 23
f 20 23 22
f 20 22 21
f 23 36 24
f 24 36 37
f 24 37 38
f 24 38 28
f 24 28 25
f 26 39 40
f 26 40 27
f 26 33 41
f 26 41 39
f 27 40 42
f 27 42 43
f 27 43 34
f 28 38 44
f 28 44 45
f 28 45 29
f 29 45 31
f 29 31 30
f 31 45 46
f 31 46 47
f 31 47 48
f 31 48 49
f 31 49 50
f 31 50 51
f 31 51 52
f 31 52 53
f 31 53 32
f 32 53 33
f 33 53 41
f 36 55 37
f 37 55 38
f 38 55 56
f 38 56 44
f 39 57 58
f 39 58 59
f 39 59 40
f 39 41 57
f 40 59 60
f 40 60 42
f 41 53 61
f 41 61 62
f 41 62 63
f 41 63 57
f 42 60 64
f 42 64 43
f 44 56 65
f 44 65 45
f 45 65 46
f 46 65 66
f 46 66 67
f 46 67 68
f 46 68 69
f 46 69 47
f 47 69 48
f 48 70 49
f 48 69 71
f 48 71 72
f 48 72 73
f 48 73 70
f 49 70 50
f 50 70 74
f 50 74 75
f 50 75 76
f 50 76 51
f 51 76 52
f 52 76 53
f 53 76 61
f 54 77 78
f 55 79 56
f 56 79 80
f 56 80 81
f 56 81 94
f 56 94 65
f 57 63 82
f 57 82 58
f 58 83 59
f 58 82 84
f 58 84 85
f 58 85 86
f 58 86 87
f 58 87 88
f 58 88 89
f 58 89 90
f 58 90 60
f 58 60 83
f 59 83 60
f 60 90 89
f 60 89 88
f 60 88 87
f 60 87 86
f 60 86 120
f 60 120 119
f 60 119 118
f 60 118 123
f 60 123 122
f 60 122 140
f 60 140 137
f 60 137 136
f 60 136 163
f 60 163 191
f 60 191 190
f 60 190 189
f 60 189 188
f 60 188 187
f 60 187 186
f 60 186 215
f 60 215 236
f 60 236 263
f 60 263 262
f 60 262 303
f 60 303 260
f 60 260 302
f 60 302 301
f 60 301 335
f 60 335 334
f 60 334 333
f 60 333 330
f 60 330 332
f 60 332 363
f 60 363 364
f 60 364 399
f 60 399 432
f 60 432 460
f 60 460 459
f 60 459 482
f 60 482 481
f 60 481 506
f 60 506 525
f 60 525 531
f 60 531 530
f 60 530 529
f 60 529 527
f 60 527 526
f 60 526 513
f 60 513 508
f 60 508 507
f 60 507 493
f 60 493 492
f 60 492 491
f 60 491 468
f 60 468 445
f 60 445 444
f 60 444 416
f 60 416 414
f 60 414 380
f 60 380 346
f 60 346 316
f 60 316 285
f 60 285 284
f 60 284 283
f 60 283 281
f 60 281 247
f 60 247 225
f 60 225 204
f 60 204 178
f 60 178 175
f 60 175 150
f 60 150 125
f 60 125 91
f 61 76 62
f 62 92 93
f 62 93 63
f 62 76 92
f 63 93 82
f 65 94 66
f 66 94 67
f 67 95 68
f 67 94 96
f 67 96 72
f 67 72 95
f 68 95 71
f 68 71 69
f 70 73 74
f 71 95 72
f 72 96 97
f 72 97 98
f 72 98 99
f 72 99 100
f 72 100 101
f 72 101 102
f 72 102 74
f 72 74 73
f 74 102 103
f 74 103 104
f 74 104 105
f 74 105 75
f 75 106 76
f 75 105 106
f 76 106 107
f 76 107 92
f 77 108 109
f 77 109 110
f 77 110 78
f 80 111 81
f 81 111 112
f 81 112 113
f 81 113 114
f 81 114 115
f 81 115 94
f 82 93 116
f 82 116 117
f 82 117 84
f 84 118 119
f 84 119 120
f 84 120 85
f 84 117 121
f 84 121 122
f 84 122 123
f 84 123 118
f 85 120 86
f 91 125 124
f 92 107 126
f 92 126 93
f 93 121 116
f 93 126 121
f 94 115 127
f 94 127 96
f 96 127 97
f 97 127 115
f 97 115 128
f 97 128 154
f 97 154 129
f 97 129 130
f 97 130 131
f 97 131 98
f 98 131 132
f 98 132 99
f 99 132 100
f 100 132 133
f 100 133 134
f 100 134 101
f 101 134 133
f 101 133 135
f 101 135 136
f 101 136 137
f 101 137 102
f 102 137 103
f 103 137 138
f 103 138 104
f 104 138 139
f 104 139 105
f 105 139 106
f 106 140 107
f 106 139 140
f 107 140 126
f 108 141 142
f 108 142 109
f 109 143 144
f 109 144 145
f 109 145 146
f 109 146 110
f 109 142 143
f 113 147 128
f 113 128 114
f 114 128 115
f 116 121 117
f 121 126 140
f 121 140 122
f 124 125 148
f 124 148 172
f 124 172 149
f 125 150 151
f 125 151 148
f 128 147 152
f 128 152 153
f 128 153 154
f 129 154 155
f 129 155 130
f 130 155 156
f 130 156 131
f 131 157 132
f 131 156 158
f 131 158 157
f 132 157 133
f 133 157 159
f 133 159 160
f 133 160 161
f 133 161 162
f 133 162 135
f 135 162 136
f 136 162 163
f 137 139 138
f 137 140 139
f 141 164 143
f 141 143 142
f 143 165 145
f 143 145 144
f 143 164 166
f 143 166 167
f 143 167 165
f 145 168 146
f 145 165 169
f 145 169 170
f 145 170 168
f 148 151 171
f 148 171 200
f 148 200 172
f 149 172 174
f 149 174 173
f 150 175 151
f 151 176 177
f 151 177 171
f 151 175 178
f 151 178 176
f 153 179 180
f 153 180 154
f 154 180 155
f 155 158 156
f 155 180 181
f 155 181 182
f 155 182 159
f 155 159 158
f 157 158 159
f 159 182 183
f 159 183 184
f 159 184 160
f 160 184 185
f 160 185 186
f 160 186 187
f 160 187 188
f 160 188 189
f 160 189 190
f 160 190 191
f 160 191 161
f 161 191 162
f 162 191 163
f 165 192 193
f 165 193 194
f 165 194 169
f 165 167 192
f 166 173 174
f 166 174 167
f 167 174 195
f 167 195 192
f 169 194 196
f 169 196 197
f 169 197 198
f 169 198 170
f 171 177 199
f 171 199 200
f 172 200 201
f 172 201 174
f 174 201 195
f 176 202 199
f 176 199 177
f 176 178 203
f 176 203 202
f 178 204 224
f 178 224 203
f 179 205 180
f 180 205 181
f 181 205 206
f 181 206 207
f 181 207 208
f 181 208 209
f 181 209 210
f 181 210 211
f 181 211 182
f 182 212 213
f 182 213 183
f 182 211 212
f 183 213 184
f 184 213 185
f 185 213 214
f 185 214 215
f 185 215 186
f 192 195 193
f 193 195 194
f 194 216 218
f 194 218 196
f 194 195 217
f 194 217 216
f 195 201 217
f 196 218 219
f 196 219 220
f 196 220 197
f 197 220 221
f 197 221 198
f 198 221 222
f 199 202 217
f 199 217 201
f 199 201 200
f 202 223 217
f 202 203 223
f 203 224 237
f 203 237 223
f 204 225 246
f 204 246 224
f 208 226 209
f 209 226 227
f 209 227 210
f 210 227 228
f 210 228 229
f 210 229 230
f 210 230 231
f 210 231 232
f 210 232 211
f 211 232 233
f 211 233 213
f 211 213 212
f 213 233 234
f 213 234 214
f 214 234 235
f 214 235 215
f 215 235 234
f 215 234 236
f 216 223 218
f 216 217 223
f 218 237 238
f 218 238 239
f 218 239 219
f 218 223 237
f 219 239 240
f 219 240 241
f 219 241 242
f 219 242 220
f 220 242 243
f 220 243 221
f 221 243 244
f 221 244 245
f 221 245 222
f 224 246 238
f 224 238 237
f 225 247 248
f 225 248 246
f 229 249 230
f 230 249 231
f 231 249 250
f 231 250 251
f 231 251 252
f 231 252 253
f 231 253 254
f 231 254 255
f 231 255 256
f 231 256 232
f 232 256 257
f 232 257 258
f 232 258 259
f 232 259 233
f 233 259 260
f 233 260 261
f 233 261 262
f 233 262 263
f 233 263 234
f 234 263 236
f 238 264 265
f 238 265 239
f 238 246 266
f 238 266 264
f 239 265 267
f 239 267 240
f 240 265 268
f 240 268 269
f 240 269 270
f 240 270 271
f 240 271 272
f 240 272 273
f 240 273 274
f 240 274 241
f 240 267 275
f 240 275 265
f 241 274 242
f 242 274 273
f 242 273 272
f 242 272 276
f 242 276 277
f 242 277 278
f 242 278 243
f 243 278 277
f 243 277 244
f 244 277 279
f 246 248 280
f 246 280 266
f 247 281 248
f 248 266 282
f 248 282 280
f 248 281 283
f 248 283 284
f 248 284 285
f 248 285 286
f 248 286 287
f 248 287 288
f 248 288 266
f 249 289 250
f 250 289 290
f 250 290 251
f 251 290 291
f 251 291 292
f 251 292 293
f 251 293 294
f 251 294 252
f 252 294 295
f 252 295 253
f 253 295 296
f 253 296 255
f 253 255 254
f 255 296 297
f 255 297 298
f 255 298 299
f 255 299 256
f 256 299 258
f 256 258 257
f 258 299 300
f 258 300 301
f 258 301 302
f 258 302 259
f 259 302 260
f 260 303 261
f 261 303 262
f 264 266 304
f 264 304 265
f 265 304 305
f 265 305 306
f 265 306 307
f 265 307 270
f 265 270 269
f 265 269 268
f 265 275 267
f 266 288 287
f 266 287 286
f 266 286 307
f 266 307 306
f 266 306 305
f 266 305 304
f 266 280 282
f 270 307 319
f 270 319 308
f 270 308 309
f 270 309 271
f 271 309 310
f 271 310 311
f 271 311 312
f 271 312 272
f 272 312 276
f 276 312 313
f 276 313 314
f 276 314 277
f 277 314 279
f 279 314 315
f 285 316 317
f 285 317 286
f 286 317 318
f 286 318 319
f 286 319 307
f 289 320 290
f 290 321 291
f 290 320 321
f 291 321 292
f 292 322 293
f 292 321 323
f 292 323 324
f 292 324 322
f 293 325 294
f 293 322 326
f 293 326 325
f 294 325 295
f 295 325 327
f 295 327 328
f 295 328 296
f 296 328 329
f 296 329 297
f 297 330 298
f 297 329 331
f 297 331 332
f 297 332 330
f 298 333 300
f 298 300 299
f 298 330 333
f 300 333 334
f 300 334 335
f 300 335 301
f 308 319 336
f 308 336 337
f 308 337 309
f 309 338 339
f 309 339 311
f 309 311 310
f 309 337 340
f 309 340 338
f 311 339 338
f 311 338 341
f 311 341 342
f 311 342 312
f 312 314 313
f 312 342 343
f 312 343 344
f 312 344 314
f 314 344 342
f 314 342 345
f 314 345 315
f 316 346 317
f 317 347 348
f 317 348 318
f 317 346 349
f 317 349 347
f 318 348 336
f 318 336 319
f 320 350 351
f 320 351 321
f 321 351 352
f 321 352 353
f 321 353 323
f 322 324 354
f 322 354 326
f 323 353 355
f 323 355 356
f 323 356 324
f 324 356 357
f 324 357 358
f 324 358 354
f 325 326 359
f 325 359 327
f 326 354 360
f 326 360 359
f 327 361 329
f 327 329 328
f 327 359 362
f 327 362 361
f 329 361 331
f 331 363 332
f 331 361 364
f 331 364 363
f 336 365 337
f 336 348 365
f 337 365 366
f 337 366 367
f 337 367 340
f 338 340 368
f 338 368 369
f 338 369 341
f 340 367 370
f 340 370 368
f 341 371 372
f 341 372 373
f 341 373 342
f 341 369 368
f 341 368 374
f 341 374 375
f 341 375 376
f 341 376 377
f 341 377 371
f 342 344 343
f 342 373 378
f 342 378 345
f 345 378 379
f 346 380 381
f 346 381 349
f 347 366 348
f 347 349 367
f 347 367 366
f 348 366 365
f 349 381 382
f 349 382 367
f 350 383 351
f 351 383 384
f 351 384 385
f 351 385 386
f 351 386 352
f 352 386 353
f 353 386 387
f 353 387 388
f 353 388 355
f 354 358 389
f 354 389 360
f 355 388 390
f 355 390 356
f 356 390 357
f 357 390 391
f 357 391 392
f 357 392 393
f 357 393 394
f 357 394 395
f 357 395 358
f 358 396 389
f 358 395 396
f 359 360 397
f 359 397 362
f 360 389 398
f 360 398 397
f 361 362 364
f 362 397 399
f 362 399 364
f 367 382 400
f 367 400 370
f 368 370 401
f 368 401 402
f 368 402 403
f 368 403 375
f 368 375 374
f 370 400 404
f 370 404 405
f 370 405 401
f 371 378 372
f 371 377 378
f 372 378 373
f 375 403 406
f 375 406 407
f 375 407 376
f 376 408 378
f 376 378 377
f 376 407 409
f 376 409 410
f 376 410 411
f 376 411 408
f 378 408 412
f 378 412 413
f 378 413 379
f 380 414 381
f 381 415 382
f 381 414 416
f 381 416 417
f 381 417 418
f 381 418 415
f 382 415 404
f 382 404 400
f 385 419 386
f 386 419 420
f 386 420 421
f 386 421 387
f 387 422 388
f 387 421 422
f 388 422 423
f 388 423 424
f 388 424 390
f 389 396 425
f 389 425 398
f 390 424 391
f 391 424 392
f 392 424 426
f 392 426 427
f 392 427 428
f 392 428 393
f 393 428 457
f 393 457 429
f 393 429 394
f 394 429 430
f 394 430 395
f 395 430 396
f 396 430 431
f 396 431 425
f 397 398 432
f 397 432 399
f 398 425 432
f 401 405 402
f 402 405 433
f 402 433 403
f 403 433 434
f 403 434 406
f 404 415 418
f 404 418 405
f 405 418 417
f 405 417 433
f 406 434 435
f 406 435 436
f 406 436 437
f 406 437 438
f 406 438 407
f 407 438 439
f 407 439 409
f 408 411 440
f 409 411 410
f 409 439 441
f 409 441 442
f 409 442 411
f 411 442 443
f 411 443 440
f 416 444 417
f 417 444 445
f 417 445 446
f 417 446 434
f 417 434 433
f 421 447 422
f 422 448 449
f 422 449 423
f 422 447 448
f 423 449 424
f 424 449 450
f 424 450 451
f 424 451 426
f 425 431 452
f 425 452 432
f 426 451 427
f 427 451 453
f 427 453 454
f 427 454 455
f 427 455 456
f 427 456 428
f 428 456 457
f 429 458 430
f 429 457 458
f 430 458 431
f 431 458 459
f 431 459 452
f 432 452 460
f 434 446 435
f 435 461 462
f 435 462 436
f 435 446 461
f 436 462 463
f 436 463 464
f 436 464 438
f 436 438 437
f 438 464 465
f 438 465 441
f 438 441 439
f 441 465 466
f 441 466 442
f 442 466 443
f 443 466 467
f 445 468 469
f 445 469 446
f 446 469 470
f 446 470 461
f 447 471 448
f 448 471 472
f 448 472 449
f 449 472 473
f 449 473 450
f 450 473 451
f 451 473 474
f 451 474 475
f 451 475 453
f 452 459 460
f 453 475 454
f 454 475 476
f 454 476 477
f 454 477 478
f 454 478 455
f 455 478 456
f 456 478 479
f 456 479 457
f 457 480 458
f 457 479 505
f 457 505 480
f 458 480 481
f 458 481 482
f 458 482 459
f 461 469 483
f 461 483 463
f 461 463 462
f 461 470 469
f 463 484 485
f 463 485 464
f 463 483 486
f 463 486 484
f 464 485 465
f 465 485 487
f 465 487 488
f 465 488 466
f 466 488 489
f 466 489 467
f 467 489 490
f 468 491 469
f 469 491 492
f 469 492 493
f 469 493 483
f 471 473 472
f 471 494 473
f 473 494 495
f 473 495 474
f 474 495 496
f 474 496 497
f 474 497 475
f 475 497 498
f 475 498 476
f 476 498 499
f 476 499 500
f 476 500 477
f 477 500 501
f 477 501 502
f 477 502 478
f 478 502 503
f 478 503 504
f 478 504 479
f 479 504 505
f 480 505 506
f 480 506 481
f 483 493 507
f 483 507 508
f 483 508 486
f 484 486 509
f 484 509 510
f 484 510 511
f 484 511 485
f 485 511 512
f 485 512 487
f 486 508 513
f 486 513 509
f 487 512 514
f 487 514 488
f 488 514 515
f 488 515 516
f 488 516 489
f 489 516 490
f 496 517 518
f 496 518 497
f 497 518 498
f 498 518 519
f 498 519 499
f 499 519 514
f 499 514 512
f 499 512 500
f 500 512 511
f 500 511 501
f 501 511 510
f 501 510 509
f 501 509 520
f 501 520 521
f 501 521 502
f 502 521 522
f 502 522 503
f 503 522 504
f 504 522 505
f 505 522 523
f 505 523 524
f 505 524 506
f 506 524 525
f 509 513 526
f 509 526 527
f 509 527 520
f 514 519 515
f 515 519 516
f 516 519 528
f 517 528 518
f 518 528 519
f 520 527 529
f 520 529 521
f 521 524 522
f 521 529 524
f 522 524 523
f 524 529 530
f 524 530 531
f 524 531 525

