# https://github.com/mikedh/trimesh
v 0.16436705 0.27752209 -0.09227633
v 0.16436705 0.30961972 -0.08726333
v 0.17701544 0.27752209 -0.09126915
v 0.16436705 0.27752209 -0.01007676
v 0.16436705 0.32717049 -0.08451648
v 0.21790379 0.29990920 -0.08451648
v 0.20163116 0.27752209 -0.08930057
v 0.16436705 0.42512602 0.12925735
v 0.36370078 0.27752209 0.12925735
v 0.16436705 0.34358773 -0.07623014
v 0.22661172 0.31188679 -0.07623014
v 0.24660590 0.27752209 -0.08199853
v 0.24028170 0.27752209 -0.08451648
v 0.22683063 0.27752209 -0.08618748
v 0.16436705 0.43366525 0.13669674
v 0.37447622 0.27752209 0.13669674
v 0.16436705 0.35150352 -0.07096533
v 0.23760608 0.32701936 -0.06242720
v 0.26098129 0.27752209 -0.07623014
v 0.16436705 0.36433125 -0.06242720
v 0.16436705 0.44407481 0.14157242
v 0.38641924 0.27752209 0.14157242
v 0.16436705 0.36895981 -0.05729974
v 0.24507350 0.33731556 -0.04679303
v 0.29783186 0.27752209 -0.05299634
v 0.28710505 0.27752209 -0.06242720
v 0.27307022 0.27752209 -0.06984371
v 0.16436705 0.45639244 0.14122905
v 0.27990520 0.38520703 0.14157242
v 0.39875141 0.27752209 0.14122905
v 0.39420286 0.28642026 0.14122905
v 0.38520303 0.27988356 0.14157242
v 0.16436705 0.37840587 -0.04679303
v 0.16436705 0.39015675 -0.03221182
v 0.25130039 0.34587368 -0.03221182
v 0.31965035 0.27752209 -0.03221182
v 0.30486146 0.27752209 -0.04679303
v 0.16436705 0.46455383 0.13758947
v 0.28642401 0.39419967 0.14122905
v 0.40765393 0.27752209 0.13724612
v 0.40069732 0.29114327 0.13724612
v 0.16436705 0.39911160 -0.02001121
v 0.25762460 0.35458294 -0.01595961
v 0.32346916 0.27752209 -0.02809154
v 0.16436705 0.46530950 0.13724612
v 0.29111850 0.40069854 0.13724612
v 0.41232410 0.27752209 0.13353786
v 0.40410265 0.29361814 0.13353786
v 0.29359952 0.40411800 0.13353786
v 0.16436705 0.40207767 -0.01595961
v 0.16436705 0.42899889 0.03064533
v 0.27190268 0.37421182 0.03064533
v 0.36858988 0.27752209 0.03064533
v 0.33774728 0.27752209 -0.01174776
v 0.33468246 0.27752209 -0.01595961
v 0.16436705 0.46995696 0.13353786
v 0.41285923 0.27752209 0.12893689
v 0.40449184 0.29390150 0.12893689
v 0.29389140 0.40449584 0.12893689
v 0.16436705 0.47050482 0.12893689
v 0.16436705 0.47046706 0.12925735
v 0.36931959 0.27752209 0.03208743
v 0.38194364 0.27752209 0.05777051
f 1 2 3
f 1 3 7
f 1 7 14
f 1 14 13
f 1 13 12
f 1 12 19
f 1 19 27
f 1 27 26
f 1 26 25
f 1 25 37
f 1 37 36
f 1 36 44
f 1 44 55
f 1 55 54
f 1 54 53
f 1 53 62
f 1 62 63
f 1 63 57
f 1 57 47
f 1 47 40
f 1 40 30
f 1 30 22
f 1 22 16
f 1 16 9
f 1 9 4
f 1 4 8
f 1 8 15
f 1 15 21
f 1 21 28
f 1 28 38
f 1 38 45
f 1 45 56
f 1 56 61
f 1 61 60
f 1 60 51
f 1 51 50
f 1 50 42
f 1 42 34
f 1 34 33
f 1 33 23
f 1 23 20
f 1 20 17
f 1 17 10
f 1 10 5
f 1 5 2
f 2 5 6
f 2 6 3
f 3 6 7
f 4 9 8
f 5 10 6
f 6 11 12
f 6 12 13
f 6 13 14
f 6 14 7
f 6 10 11
f 8 9 16
f 8 16 15
f 10 17 11
f 11 18 19
f 11 19 12
f 11 17 20
f 11 20 18
f 15 16 22
f 15 22 21
f 18 20 23
f 18 23 24
f 18 24 25
f 18 25 26
f 18 26 27
f 18 27 19
f 21 22 32
f 21 32 29
f 21 29 28
f 22 30 31
f 22 31 32
f 23 33 24
f 24 33 34
f 24 34 35
f 24 35 36
f 24 36 37
f 24 37 25
f 28 29 39
f 28 39 38
f 29 32 31
f 29 31 39
f 30 40 41
f 30 41 31
f 31 41 39
f 34 42 43
f 34 43 35
f 35 43 44
f 35 44 36
f 38 39 46
f 38 46 45
f 39 41 46
f 40 47 41
f 41 47 48
f 41 48 49
f 41 49 46
f 42 50 43
f 43 50 51
f 43 51 52
f 43 52 53
f 43 53 54
f 43 54 55
f 43 55 44
f 45 46 49
f 45 49 56
f 47 57 48
f 48 57 58
f 48 58 49
f 49 58 59
f 49 59 60
f 49 60 61
f 49 61 56
f 51 60 52
f 52 59 58
f 52 58 53
f 52 60 59
f 53 58 62
f 57 63 58
f 58 63 62

