# https://github.com/mikedh/trimesh
v -0.16582456 -0.25851381 -0.14157242
v -0.16582456 -0.31380180 -0.08648930
v -0.16582456 -0.16584089 -0.14157242
v -0.09561795 -0.29429096 -0.14157242
v -0.00013825 -0.30941296 -0.14157242
v -0.14678054 -0.31380180 -0.08800935
v -0.16582456 -0.31380180 0.01217872
v -0.16582456 -0.16584089 -0.04522210
v -0.00013825 -0.16584089 -0.14157242
v -0.00013825 -0.31380180 -0.09928183
v -0.10196055 -0.31380180 -0.09156115
v -0.00013825 -0.31380180 -0.01608524
v -0.00013825 -0.16584089 -0.06284569
f 1 2 7
f 1 7 8
f 1 8 3
f 1 3 9
f 1 9 5
f 1 5 4
f 1 4 2
f 2 4 5
f 2 5 6
f 2 6 11
f 2 11 10
f 2 10 12
f 2 12 7
f 3 8 13
f 3 13 9
f 5 9 13
f 5 13 12
f 5 12 10
f 5 10 11
f 5 11 6
f 7 12 13
f 7 13 8

