# https://github.com/mikedh/trimesh
v 0.38669690 0.27750319 0.14154972
v 0.39875913 0.27750319 0.14119621
v 0.38645416 0.27750319 0.14154972
v 0.45283380 0.14714226 0.14154972
v 0.46342093 0.15056495 0.14119621
v 0.40764710 0.27750319 0.13723671
v 0.47105783 0.15306406 0.13723671
v 0.38626742 0.27750319 0.14147903
v 0.47613668 -0.00000614 0.14152616
v 0.45565328 0.12937689 0.14154972
v 0.45699769 0.12937689 0.14152616
v 0.47481096 0.12937689 0.13723671
v 0.48724663 0.00002103 0.14119621
v 0.41177365 0.27750319 0.13393714
v 0.47505370 0.15436794 0.13351290
v 0.47834000 0.12937689 0.13412568
v 0.37452263 0.27750319 0.13669464
v 0.47613668 0.00002103 0.14152616
v 0.46676326 -0.00000614 0.13669464
v 0.48724663 -0.00000614 0.14119621
v 0.49529436 0.00002103 0.13721314
v 0.49949560 0.00002103 0.13351290
v 0.41229647 0.27750319 0.13351290
v 0.47901219 0.12937689 0.13351290
v 0.49999976 0.00002103 0.12891705
v 0.47942299 0.12937689 0.12967125
v 0.47550184 0.15450376 0.12894063
v 0.41278195 0.27750319 0.12948270
v 0.36373010 0.27750319 0.12924701
v 0.45905164 -0.00000614 0.12922345
v 0.49529436 -0.00000614 0.13721314
v 0.49949560 -0.00000614 0.13351290
v 0.46254334 0.00002103 0.03063674
v 0.44205993 0.12937689 0.03063674
v 0.47949767 0.12937689 0.12891705
v 0.47949767 0.12937689 0.12894063
v 0.49998108 -0.00000614 0.12891705
v 0.46254334 -0.00000614 0.03063674
v 0.43989396 0.14293182 0.03063674
v 0.37424254 0.27185303 0.03063674
v 0.41283795 0.27750319 0.12894063
v 0.30926332 0.27750319 0.06556514
v 0.31385669 0.00002103 -0.01605230
v 0.31387535 -0.00000614 -0.01605230
v 0.43826950 0.00002103 -0.01595802
v 0.41778609 0.12937689 -0.01593446
v 0.41681513 0.13546166 -0.01593446
v 0.43825081 -0.00000614 -0.01595802
v 0.35459942 0.25759184 -0.01593446
v 0.36862221 0.27750319 0.03063674
v 0.38197282 0.27750319 0.05776399
v 0.30926332 0.27750319 -0.04247249
v 0.30926332 0.12937689 -0.00377315
v 0.31385669 -0.00000614 -0.01640582
v 0.42749563 0.00002103 -0.03222023
v 0.40682551 0.12937689 -0.03252662
v 0.41730061 0.12937689 -0.01668864
v 0.42749563 -0.00000614 -0.03222023
v 0.40658277 0.13214763 -0.03222023
v 0.34587950 0.25126261 -0.03222023
v 0.31968242 0.27750319 -0.03222023
v 0.33469486 0.27750319 -0.01593446
v 0.33732763 0.24504200 -0.04678551
v 0.30926332 0.27310258 -0.04678551
v 0.30926332 0.12937689 -0.09008071
v 0.31385669 -0.00000614 -0.09922525
v 0.41690850 0.00002103 -0.04678551
v 0.39653713 0.12886076 -0.04678551
v 0.41690850 -0.00000614 -0.04678551
v 0.39621970 0.12937689 -0.04685622
v 0.32703924 0.23757184 -0.06243495
v 0.30926332 0.26318768 -0.05552940
v 0.38219690 0.12937689 -0.06243495
v 0.30926332 0.19954199 -0.08451855
v 0.31385669 0.10196821 -0.09154195
v 0.31385669 0.00002103 -0.09922525
v 0.37071350 -0.00000614 -0.08449499
v 0.40423009 0.00002103 -0.06241138
v 0.38443756 0.12492196 -0.06241138
v 0.40423009 -0.00000614 -0.06241138
v 0.31189609 0.22657034 -0.07622248
v 0.30926332 0.22920528 -0.07622248
v 0.30926332 0.25533721 -0.06243495
v 0.36664295 0.11913598 -0.07619891
v 0.36143342 0.12937689 -0.07622248
v 0.30926332 0.22466886 -0.07803725
v 0.34502056 0.12937689 -0.08451855
v 0.35256413 0.11454523 -0.08449499
v 0.37071350 0.00002103 -0.08449499
v 0.38552055 -0.00000614 -0.07619891
v 0.38552055 0.00002103 -0.07619891
f 1 2 6
f 1 6 14
f 1 14 23
f 1 23 28
f 1 28 41
f 1 41 51
f 1 51 50
f 1 50 62
f 1 62 61
f 1 61 52
f 1 52 42
f 1 42 29
f 1 29 17
f 1 17 8
f 1 8 3
f 1 3 10
f 1 10 4
f 1 4 5
f 1 5 2
f 2 5 7
f 2 7 6
f 3 8 9
f 3 9 10
f 4 10 11
f 4 11 5
f 5 12 7
f 5 11 13
f 5 13 12
f 6 7 15
f 6 15 14
f 7 12 16
f 7 16 15
f 8 17 9
f 9 18 10
f 9 17 19
f 9 19 30
f 9 30 44
f 9 44 54
f 9 54 66
f 9 66 77
f 9 77 90
f 9 90 80
f 9 80 69
f 9 69 58
f 9 58 48
f 9 48 38
f 9 38 37
f 9 37 32
f 9 32 31
f 9 31 20
f 9 20 13
f 9 13 18
f 10 18 11
f 11 18 13
f 12 13 21
f 12 21 22
f 12 22 16
f 13 20 31
f 13 31 21
f 14 15 23
f 15 16 24
f 15 24 25
f 15 25 26
f 15 26 27
f 15 27 28
f 15 28 23
f 16 22 24
f 17 29 19
f 19 29 30
f 21 31 32
f 21 32 22
f 22 32 25
f 22 25 24
f 25 33 34
f 25 34 35
f 25 35 36
f 25 36 26
f 25 32 37
f 25 37 38
f 25 38 33
f 26 36 27
f 27 36 35
f 27 35 34
f 27 34 39
f 27 39 40
f 27 40 41
f 27 41 28
f 29 42 43
f 29 43 30
f 30 43 44
f 33 45 34
f 33 38 45
f 34 45 46
f 34 46 47
f 34 47 39
f 38 48 45
f 39 47 40
f 40 49 50
f 40 50 51
f 40 51 41
f 40 47 49
f 42 52 64
f 42 64 72
f 42 72 83
f 42 83 82
f 42 82 86
f 42 86 74
f 42 74 65
f 42 65 53
f 42 53 43
f 43 54 44
f 43 53 54
f 45 55 56
f 45 56 57
f 45 57 46
f 45 48 58
f 45 58 55
f 46 57 47
f 47 59 49
f 47 57 59
f 49 60 61
f 49 61 62
f 49 62 50
f 49 59 60
f 52 61 63
f 52 63 64
f 53 65 66
f 53 66 54
f 55 67 56
f 55 58 69
f 55 69 67
f 56 67 68
f 56 68 59
f 56 59 57
f 59 68 70
f 59 70 60
f 60 63 61
f 60 70 63
f 63 71 72
f 63 72 64
f 63 70 73
f 63 73 71
f 65 74 75
f 65 75 76
f 65 76 66
f 66 76 89
f 66 89 77
f 67 78 68
f 67 69 80
f 67 80 78
f 68 78 79
f 68 79 70
f 70 79 73
f 71 81 82
f 71 82 83
f 71 83 72
f 71 73 81
f 73 79 84
f 73 84 85
f 73 85 81
f 74 86 81
f 74 81 85
f 74 85 87
f 74 87 75
f 75 87 88
f 75 88 76
f 76 88 89
f 77 89 91
f 77 91 90
f 78 91 79
f 78 80 90
f 78 90 91
f 79 91 84
f 81 86 82
f 84 88 85
f 84 91 88
f 85 88 87
f 88 91 89

