# https://github.com/mikedh/trimesh
v -0.16584080 -0.44331446 0.14157242
v -0.27988073 -0.38518685 0.14157242
v -0.28396225 -0.39082628 0.14135069
v -0.16584080 -0.45561868 0.14121211
v -0.16584080 -0.43289006 0.13669443
v -0.41554469 -0.22037396 0.14157242
v -0.28398928 -0.38113427 0.14157242
v -0.38518992 -0.27991754 0.14157242
v -0.39419094 -0.28643584 0.14121211
v -0.28642201 -0.39419529 0.14121211
v -0.28396225 -0.39546478 0.14121211
v -0.16584080 -0.46452945 0.13724875
v -0.40513813 -0.22037396 0.13669443
v -0.16584080 -0.22034955 -0.03209492
v -0.42787042 -0.22037396 0.14121211
v -0.28396225 -0.22034955 0.01346989
v -0.43227631 -0.22037396 0.13924429
v -0.40070519 -0.29114756 0.13722104
v -0.29115227 -0.40071359 0.13722104
v -0.28396225 -0.40435115 0.13724875
v -0.28396225 -0.40461969 0.13705474
v -0.16584080 -0.46919236 0.13353483
v -0.16584080 -0.22034955 -0.14157242
v -0.28396225 -0.22034955 -0.08619621
v -0.44198012 -0.22037396 0.12890628
v -0.44141251 -0.22037396 0.13350712
v -0.43676332 -0.22037396 0.13722104
v -0.40411097 -0.29363769 0.13350712
v -0.29361200 -0.40408260 0.13350712
v -0.28396225 -0.40901405 0.13353483
v -0.28398928 -0.40901405 0.13350712
v -0.28398928 -0.40906286 0.13320224
v -0.16584080 -0.46975386 0.12893400
v -0.16584080 -0.25855607 -0.14157242
v -0.21190006 -0.22034955 -0.14157242
v -0.33580595 -0.22037396 -0.06241603
v -0.33804947 -0.22037396 -0.05994932
v -0.34988862 -0.22037396 -0.04678431
v -0.35867342 -0.22037396 -0.03589199
v -0.36161968 -0.22037396 -0.03220578
v -0.37353995 -0.22037396 -0.01596431
v -0.40046191 -0.22037396 0.03062598
v -0.40448940 -0.29390624 0.12890628
v -0.37418866 -0.27191004 0.03062598
v -0.29390934 -0.40447322 0.12890628
v -0.28398928 -0.40955114 0.12890628
v -0.16584080 -0.42822716 0.03065370
v -0.18189667 -0.25037766 -0.14157242
v -0.16584080 -0.36353242 -0.06244374
v -0.23760566 -0.32703483 -0.06244374
v -0.31185731 -0.22659931 -0.07621851
v -0.31504685 -0.22037396 -0.07621851
v -0.28396225 -0.28067434 -0.06244374
v -0.32702118 -0.23760962 -0.06241603
v -0.33729261 -0.24508002 -0.04678431
v -0.34586114 -0.25130537 -0.03220578
v -0.35456485 -0.25765279 -0.01596431
v -0.28398928 -0.36214089 0.03062598
v -0.27190685 -0.37417653 0.03065370
v -0.25763497 -0.35454839 -0.01596431
v -0.16584080 -0.40129951 -0.01596431
v -0.16584080 -0.37761879 -0.04678431
v -0.24506597 -0.33733717 -0.04678431
v -0.28398928 -0.29842266 -0.04678431
v -0.28398928 -0.28892598 -0.05515448
v -0.28398928 -0.31324142 -0.03220578
v -0.28398928 -0.32823107 -0.01596431
v -0.25130993 -0.34585735 -0.03223350
v -0.16584080 -0.39817464 -0.02023255
v -0.16584080 -0.38589483 -0.03658488
v -0.16584080 -0.38938591 -0.03223350
f 1 2 3
f 1 3 4
f 1 4 12
f 1 12 22
f 1 22 33
f 1 33 47
f 1 47 61
f 1 61 69
f 1 69 71
f 1 71 70
f 1 70 62
f 1 62 49
f 1 49 34
f 1 34 23
f 1 23 14
f 1 14 5
f 1 5 6
f 1 6 8
f 1 8 7
f 1 7 2
f 2 7 3
f 3 7 8
f 3 8 9
f 3 9 10
f 3 10 11
f 3 11 4
f 4 11 12
f 5 13 6
f 5 14 13
f 6 15 8
f 6 13 14
f 6 14 16
f 6 16 15
f 8 15 9
f 9 15 17
f 9 17 18
f 9 18 19
f 9 19 10
f 10 19 11
f 11 19 20
f 11 20 12
f 12 20 21
f 12 21 22
f 14 23 35
f 14 35 24
f 14 24 16
f 15 16 17
f 16 24 25
f 16 25 26
f 16 26 27
f 16 27 17
f 17 27 18
f 18 27 28
f 18 28 19
f 19 28 29
f 19 29 30
f 19 30 21
f 19 21 20
f 21 30 22
f 22 30 31
f 22 31 32
f 22 32 33
f 23 34 48
f 23 48 35
f 24 35 36
f 24 36 37
f 24 37 38
f 24 38 39
f 24 39 40
f 24 40 41
f 24 41 42
f 24 42 25
f 25 43 28
f 25 28 26
f 25 42 44
f 25 44 43
f 26 28 27
f 28 43 45
f 28 45 29
f 29 45 32
f 29 32 31
f 29 31 30
f 32 45 46
f 32 46 33
f 33 46 47
f 34 49 50
f 34 50 48
f 35 51 52
f 35 52 36
f 35 48 53
f 35 53 54
f 35 54 51
f 36 54 37
f 36 52 54
f 37 55 38
f 37 54 55
f 38 55 39
f 39 56 40
f 39 55 56
f 40 56 57
f 40 57 41
f 41 57 42
f 42 57 44
f 43 44 58
f 43 58 45
f 44 57 58
f 45 58 59
f 45 59 46
f 46 59 47
f 47 59 60
f 47 60 61
f 48 50 53
f 49 62 63
f 49 63 50
f 50 63 64
f 50 64 65
f 50 65 53
f 51 54 52
f 53 65 54
f 54 65 55
f 55 65 64
f 55 64 66
f 55 66 56
f 56 66 57
f 57 66 67
f 57 67 58
f 58 67 60
f 58 60 59
f 60 67 68
f 60 68 69
f 60 69 61
f 62 70 63
f 63 70 68
f 63 68 66
f 63 66 64
f 66 68 67
f 68 70 71
f 68 71 69

