# https://github.com/mikedh/trimesh
v -0.12857279 0.27750647 -0.14157242
v -0.16584076 0.27750647 -0.09212739
v -0.16584076 0.30333513 -0.08810860
v -0.16584076 0.31128407 -0.08686139
v -0.16580844 0.32644153 -0.08450554
v -0.16580844 0.33508739 -0.08012644
v -0.16580844 0.34284031 -0.07619079
v -0.16580844 0.36359471 -0.06241603
v -0.09560373 0.29429728 -0.14157242
v 0.12852126 0.27750647 -0.14157242
v -0.16584076 0.27750647 -0.00972825
v -0.16584076 0.31128407 0.01042115
v -0.16580844 0.46971869 0.12890628
v -0.16580844 0.42820990 0.03059827
v -0.16580844 0.40133592 -0.01593660
v -0.16580844 0.39262474 -0.02782669
v -0.16580844 0.38940158 -0.03217807
v -0.16580844 0.38123485 -0.04237749
v -0.16580844 0.37768507 -0.04675659
v -0.12879905 0.39652300 -0.04675659
v -0.12485570 0.38443622 -0.06241603
v -0.00005809 0.30945474 -0.14157242
v 0.09558452 0.29429728 -0.14157242
v 0.16436704 0.36435694 -0.06238832
v 0.16436704 0.34362435 -0.07621851
v 0.16436704 0.32720375 -0.08447783
v 0.16436704 0.31128407 -0.08697225
v 0.16433471 0.27750647 -0.09223825
v -0.16580844 0.42433342 0.12923887
v -0.16580844 0.43289217 0.13669443
v 0.16433471 0.27750647 -0.01008856
v -0.16580844 0.44328025 0.14157242
v -0.16580844 0.45560658 0.14121211
v -0.16580844 0.46451378 0.13722104
v -0.16580844 0.46919602 0.13350712
v -0.15446320 0.47548985 0.12890628
v -0.14289171 0.43988290 0.03059827
v -0.13539286 0.41679826 -0.01593660
v -0.13206364 0.40656263 -0.03217807
v -0.00009041 0.42749125 -0.03217807
v -0.00009041 0.41688538 -0.04675659
v -0.00009041 0.40421060 -0.06241603
v 0.12486881 0.38445801 -0.06238832
v 0.16436704 0.37844729 -0.04675659
v 0.12881216 0.39654475 -0.04675659
v 0.16436704 0.31128407 0.00994998
v 0.16436704 0.42509568 0.12923887
v 0.16436704 0.43365440 0.13669443
v -0.14709365 0.45281899 0.14157242
v 0.16436704 0.44404247 0.14157242
v -0.15055217 0.46338129 0.14121211
v -0.15300868 0.47102538 0.13722104
v -0.15433392 0.47503251 0.13350712
v -0.00009041 0.49999005 0.12890628
v -0.00009041 0.46253198 0.03062598
v -0.00002576 0.43827131 -0.01593660
v -0.00002576 0.42749125 -0.03217807
v -0.00002576 0.41688538 -0.04675659
v 0.16436704 0.39018559 -0.03217807
v 0.13207676 0.40656263 -0.03217807
v -0.00009041 0.47612143 0.14157242
v -0.00002576 0.48724994 0.14121211
v 0.16436704 0.45636880 0.14121211
v 0.14710677 0.45284078 0.14157242
v -0.00002576 0.49528602 0.13722104
v -0.00009041 0.49948916 0.13350712
v -0.00002576 0.49948916 0.13350712
v 0.15447631 0.47551161 0.12890628
v 0.14290483 0.43990469 0.03062598
v -0.00002576 0.46253198 0.03062598
v 0.13540599 0.41679826 -0.01593660
v 0.16436704 0.40209815 -0.01593660
v -0.00002576 0.47612143 0.14157242
v 0.15056528 0.46340308 0.14121211
v 0.16436704 0.46453553 0.13758133
v 0.15302180 0.47102538 0.13722104
v 0.15434703 0.47503251 0.13350712
v 0.16436704 0.46993649 0.13350712
v 0.16436704 0.47048092 0.12890628
v 0.16436704 0.42899391 0.03062598
v 0.16436704 0.46529776 0.13722104
v 0.16436704 0.46960980 0.13378426
f 1 2 3
f 1 3 4
f 1 4 5
f 1 5 6
f 1 6 7
f 1 7 8
f 1 8 9
f 1 9 22
f 1 22 23
f 1 23 10
f 1 10 28
f 1 28 31
f 1 31 11
f 1 11 2
f 2 11 12
f 2 12 4
f 2 4 3
f 4 12 13
f 4 13 14
f 4 14 15
f 4 15 16
f 4 16 17
f 4 17 18
f 4 18 19
f 4 19 8
f 4 8 7
f 4 7 6
f 4 6 5
f 8 19 20
f 8 20 21
f 8 21 9
f 9 21 22
f 10 23 24
f 10 24 25
f 10 25 26
f 10 26 27
f 10 27 28
f 11 29 30
f 11 30 12
f 11 31 29
f 12 30 32
f 12 32 33
f 12 33 34
f 12 34 35
f 12 35 13
f 13 35 36
f 13 36 37
f 13 37 14
f 14 37 15
f 15 37 38
f 15 38 16
f 16 38 39
f 16 39 17
f 17 39 18
f 18 39 20
f 18 20 19
f 20 39 40
f 20 40 41
f 20 41 42
f 20 42 21
f 21 42 22
f 22 43 23
f 22 42 43
f 23 43 24
f 24 44 59
f 24 59 72
f 24 72 80
f 24 80 79
f 24 79 78
f 24 78 82
f 24 82 81
f 24 81 75
f 24 75 63
f 24 63 50
f 24 50 48
f 24 48 47
f 24 47 46
f 24 46 27
f 24 27 26
f 24 26 25
f 24 43 45
f 24 45 44
f 27 46 31
f 27 31 28
f 29 31 47
f 29 47 48
f 29 48 30
f 30 48 50
f 30 50 32
f 31 46 47
f 32 49 33
f 32 50 64
f 32 64 73
f 32 73 61
f 32 61 49
f 33 49 51
f 33 51 34
f 34 51 52
f 34 52 35
f 35 52 53
f 35 53 36
f 36 53 54
f 36 54 37
f 37 54 55
f 37 55 56
f 37 56 38
f 38 56 39
f 39 56 40
f 40 56 57
f 40 57 58
f 40 58 41
f 41 58 42
f 42 58 45
f 42 45 43
f 44 45 59
f 45 58 57
f 45 57 60
f 45 60 59
f 49 61 62
f 49 62 51
f 50 63 64
f 51 62 65
f 51 65 52
f 52 65 53
f 53 65 66
f 53 66 54
f 54 66 67
f 54 67 68
f 54 68 69
f 54 69 70
f 54 70 55
f 55 70 56
f 56 70 69
f 56 69 71
f 56 71 60
f 56 60 57
f 59 60 71
f 59 71 72
f 61 73 62
f 62 73 64
f 62 64 74
f 62 74 65
f 63 75 74
f 63 74 64
f 65 74 76
f 65 76 77
f 65 77 67
f 65 67 66
f 67 77 68
f 68 77 78
f 68 78 79
f 68 79 80
f 68 80 69
f 69 80 72
f 69 72 71
f 74 75 76
f 75 81 76
f 76 81 77
f 77 81 82
f 77 82 78

