# https://github.com/mikedh/trimesh
v 0.40695822 -0.28908405 0.12894924
v 0.40642345 -0.28908405 0.13353132
v 0.40409920 -0.29361919 0.13353132
v 0.40448999 -0.29389358 0.12894924
v 0.35701805 -0.28908405 0.03063678
v 0.40181610 -0.28908405 0.13719249
v 0.40070540 -0.29114988 0.13723741
v 0.29362616 -0.40410903 0.13353132
v 0.29389355 -0.40449637 0.12894924
v 0.27190590 -0.37421900 0.03063678
v 0.25763139 -0.35459358 -0.01597011
v 0.32310072 -0.28908405 -0.01597011
v 0.40175441 -0.28908405 0.13723741
v 0.29115793 -0.40070364 0.13723741
v 0.39788753 -0.28908405 0.13896692
v 0.28642720 -0.39421564 0.14121303
v 0.19683111 -0.45021909 0.13609189
v 0.19683111 -0.45341468 0.13353132
v 0.19683111 -0.45359224 0.13213873
v 0.19683111 -0.45396343 0.12894924
v 0.19683111 -0.41245309 0.03063678
v 0.19683111 -0.38554883 -0.01597011
v 0.19683111 -0.37362185 -0.03223198
v 0.25129631 -0.34587833 -0.03223198
v 0.30806521 -0.28908405 -0.03223198
v 0.19683111 -0.44876656 0.13723741
v 0.39153188 -0.28908405 0.14121303
v 0.19683111 -0.43545163 0.14134780
v 0.19683111 -0.43985766 0.14121303
v 0.19683111 -0.44277889 0.13991028
v 0.37600273 -0.28908405 0.14157242
v 0.27988645 -0.38520989 0.14157242
v 0.19683111 -0.36840886 -0.03870079
v 0.19683111 -0.36188856 -0.04678681
v 0.24506408 -0.33730835 -0.04678681
v 0.29329705 -0.28908405 -0.04678681
v 0.30158615 -0.28908405 -0.03863341
v 0.19683111 -0.42752722 0.14157242
v 0.36290064 -0.28908405 0.13669834
v 0.19683111 -0.41713348 0.13669834
v 0.19683111 -0.35307649 -0.05657987
v 0.23759775 -0.32702762 -0.06244223
v 0.27552593 -0.28908405 -0.06244223
v 0.36127573 -0.28908405 0.13557528
v 0.19683111 -0.40857965 0.12924124
v 0.19683111 -0.41213030 0.13234088
v 0.19683111 -0.34779891 -0.06244223
v 0.22659364 -0.31188893 -0.07623339
v 0.26565307 -0.28908405 -0.06765322
v 0.35212278 -0.28908405 0.12924124
v 0.19683111 -0.28908405 0.00601936
v 0.19683111 -0.32704374 -0.07623339
v 0.19683111 -0.31063005 -0.08452155
v 0.21789318 -0.29989740 -0.08452155
v 0.22871219 -0.28908405 -0.08452155
v 0.24938345 -0.28908405 -0.07623339
v 0.19683111 -0.28908405 -0.08789071
v 0.21003604 -0.28908405 -0.08683504
f 1 2 3
f 1 3 4
f 1 4 5
f 1 5 12
f 1 12 25
f 1 25 37
f 1 37 36
f 1 36 43
f 1 43 49
f 1 49 56
f 1 56 55
f 1 55 58
f 1 58 57
f 1 57 51
f 1 51 50
f 1 50 44
f 1 44 39
f 1 39 31
f 1 31 27
f 1 27 15
f 1 15 13
f 1 13 6
f 1 6 2
f 2 6 7
f 2 7 3
f 3 7 8
f 3 8 4
f 4 8 9
f 4 9 10
f 4 10 5
f 5 10 11
f 5 11 12
f 6 13 7
f 7 14 8
f 7 13 15
f 7 15 16
f 7 16 14
f 8 14 17
f 8 17 18
f 8 18 19
f 8 19 20
f 8 20 9
f 9 20 10
f 10 21 11
f 10 20 21
f 11 21 22
f 11 22 23
f 11 23 24
f 11 24 25
f 11 25 12
f 14 16 26
f 14 26 17
f 15 27 16
f 16 28 29
f 16 29 30
f 16 30 26
f 16 27 31
f 16 31 32
f 16 32 28
f 17 26 30
f 17 30 29
f 17 29 28
f 17 28 38
f 17 38 40
f 17 40 46
f 17 46 45
f 17 45 51
f 17 51 57
f 17 57 53
f 17 53 52
f 17 52 47
f 17 47 41
f 17 41 34
f 17 34 33
f 17 33 23
f 17 23 22
f 17 22 21
f 17 21 20
f 17 20 19
f 17 19 18
f 23 33 24
f 24 33 34
f 24 34 35
f 24 35 36
f 24 36 37
f 24 37 25
f 28 32 38
f 31 38 32
f 31 39 40
f 31 40 38
f 34 41 42
f 34 42 35
f 35 42 36
f 36 42 43
f 39 44 45
f 39 45 46
f 39 46 40
f 41 47 42
f 42 47 48
f 42 48 49
f 42 49 43
f 44 50 45
f 45 50 51
f 47 52 48
f 48 52 53
f 48 53 54
f 48 54 55
f 48 55 56
f 48 56 49
f 53 57 54
f 54 57 58
f 54 58 55

