# https://github.com/mikedh/trimesh
v 0.22710475 0.12935573 -0.14157242
v 0.22710475 0.20511164 -0.14157242
v 0.27709946 0.12935573 -0.14157242
v 0.22710475 0.12935573 -0.03659059
v 0.25034127 0.18189472 -0.14157242
v 0.22710475 0.27750319 -0.08615126
v 0.24028283 0.27750319 -0.08452898
v 0.26097059 0.27750319 -0.07623507
v 0.28710163 0.27750319 -0.06242541
v 0.30924466 0.22845908 -0.07653925
v 0.30924466 0.22467418 -0.07803985
v 0.30924466 0.19954306 -0.08452898
v 0.30924466 0.12935573 -0.09010556
v 0.30924466 0.12935573 -0.00382053
v 0.30924466 0.27750319 0.06559280
v 0.22710475 0.27750319 0.01363926
v 0.30924466 0.22921315 -0.07623507
v 0.30924466 0.25535938 -0.06242541
v 0.30924466 0.25073341 -0.06487910
v 0.29782742 0.27750319 -0.05299591
v 0.30924466 0.27750319 -0.04249164
v 0.30924466 0.26812071 -0.05119112
v 0.30485463 0.27750319 -0.04679068
v 0.30924466 0.27310923 -0.04679068
f 1 2 5
f 1 5 3
f 1 3 13
f 1 13 14
f 1 14 4
f 1 4 16
f 1 16 6
f 1 6 2
f 2 6 7
f 2 7 8
f 2 8 9
f 2 9 5
f 3 5 10
f 3 10 11
f 3 11 12
f 3 12 13
f 4 14 15
f 4 15 16
f 5 17 10
f 5 9 18
f 5 18 19
f 5 19 17
f 6 16 15
f 6 15 21
f 6 21 23
f 6 23 20
f 6 20 9
f 6 9 8
f 6 8 7
f 9 20 18
f 10 17 19
f 10 19 18
f 10 18 22
f 10 22 24
f 10 24 21
f 10 21 15
f 10 15 14
f 10 14 13
f 10 13 12
f 10 12 11
f 18 20 22
f 20 23 24
f 20 24 22
f 21 24 23

