# https://github.com/mikedh/trimesh
v 0.31384414 -0.16584086 0.01219797
v 0.22711323 -0.16584086 -0.03033875
v 0.31384414 -0.16584086 -0.08648240
v 0.31384414 0.12935573 -0.00064132
v 0.22711323 0.12935573 -0.03658529
v 0.22711323 -0.16584086 -0.14157242
v 0.25851974 -0.16584086 -0.14157242
v 0.29429042 -0.09559587 -0.14157242
v 0.30943754 -0.00000951 -0.14157242
v 0.31384414 -0.14674094 -0.08800264
v 0.31384414 0.12935573 -0.08938742
v 0.22711323 0.12935573 -0.14157242
v 0.29429042 0.09560576 -0.14157242
v 0.31384414 0.10196277 -0.09155490
v 0.31384414 -0.00000951 -0.09924643
v 0.31384414 -0.10195289 -0.09155490
v 0.27709705 0.12935573 -0.14157242
f 1 2 6
f 1 6 7
f 1 7 3
f 1 3 10
f 1 10 16
f 1 16 15
f 1 15 14
f 1 14 11
f 1 11 4
f 1 4 5
f 1 5 2
f 2 5 12
f 2 12 6
f 3 7 8
f 3 8 9
f 3 9 10
f 4 11 17
f 4 17 12
f 4 12 5
f 6 12 17
f 6 17 13
f 6 13 9
f 6 9 8
f 6 8 7
f 9 13 11
f 9 11 14
f 9 14 15
f 9 15 16
f 9 16 10
f 11 13 17

