# https://github.com/mikedh/trimesh
v 0.00002580 -0.31383449 -0.09935986
v 0.10194285 -0.31383449 -0.09153003
v 0.11454492 -0.35257646 -0.08450205
v -0.00011619 -0.37067184 -0.08452563
v -0.11452881 -0.35255826 -0.08452563
v -0.10192674 -0.31381628 -0.09155361
v -0.00011619 -0.31381628 -0.09928910
v 0.19051236 -0.31383449 -0.08450205
v 0.11908877 -0.36666280 -0.07620054
v 0.00002580 -0.38552353 -0.07620054
v 0.00002580 -0.37070829 -0.08450205
v 0.19239378 -0.31383449 -0.08403037
v 0.19683114 -0.31414428 -0.08273326
v 0.19683114 -0.32706434 -0.07620054
v -0.00011619 -0.38548708 -0.07622413
v -0.11910816 -0.36664456 -0.07622413
v -0.16582456 -0.32642657 -0.08452563
v -0.16582456 -0.31381628 -0.08648309
v -0.00011619 -0.31381628 -0.01629765
v 0.19683114 -0.31383449 -0.08287477
v 0.19683114 -0.33313259 -0.07216771
v 0.12487508 -0.38444838 -0.06240401
v 0.00002580 -0.40423849 -0.06240401
v -0.00011619 -0.40420204 -0.06242760
v -0.12489446 -0.38443017 -0.06242760
v -0.16582456 -0.36358312 -0.06242760
v -0.16582456 -0.34284541 -0.07622413
v -0.16582456 -0.31381628 0.01219160
v 0.19683114 -0.31383449 0.02306374
v 0.19683114 -0.34780204 -0.06240401
v 0.12881544 -0.39654842 -0.04676794
v 0.19683114 -0.35308671 -0.05655523
v 0.00002580 -0.41690344 -0.04676794
v -0.00011619 -0.41688520 -0.04679152
v -0.12879932 -0.39653018 -0.04679152
v -0.16582456 -0.37766945 -0.04679152
v -0.16582456 -0.42435661 0.12923807
v 0.19683114 -0.40857553 0.12923807
v 0.13208133 -0.40660748 -0.03221673
v 0.00002580 -0.42750919 -0.03221673
v 0.19683114 -0.36190662 -0.04676794
v 0.19683114 -0.37364218 -0.03221673
v -0.00011619 -0.42749095 -0.03221673
v -0.13206521 -0.40660748 -0.03219314
v -0.16582456 -0.38942325 -0.03219314
v -0.16582456 -0.43290317 0.13671415
v 0.19683114 -0.41211081 0.13232756
v 0.19683114 -0.37980154 -0.02382089
v 0.19683114 -0.38557822 -0.01594390
v 0.13541821 -0.41681230 -0.01594390
v 0.00002580 -0.43826070 -0.01594390
v -0.00011619 -0.43822426 -0.01596748
v -0.13540211 -0.41681230 -0.01596748
v -0.16582456 -0.39822492 -0.02023615
v -0.16582456 -0.44330847 0.14157242
v 0.19683114 -0.42114937 0.13857727
v 0.19683114 -0.41712210 0.13669056
v 0.19683114 -0.41245702 0.03063414
v 0.14290845 -0.43990076 0.03063414
v 0.00002580 -0.46255189 0.03063414
v -0.14292786 -0.43990076 0.03063414
v -0.16582456 -0.40134105 -0.01596748
v -0.16582456 -0.45562717 0.14121866
v -0.15056008 -0.46340835 0.14121866
v -0.14711672 -0.45283905 0.14157242
v -0.00011619 -0.47610974 0.14157242
v 0.19683114 -0.42752740 0.14154883
v 0.19683114 -0.45393243 0.12890790
v 0.15448108 -0.47550839 0.12890790
v 0.00002580 -0.49998179 0.12890790
v -0.00011619 -0.49996358 0.12890790
v -0.15450045 -0.47550839 0.12893149
v -0.16582456 -0.42823809 0.03063414
v -0.16582456 -0.46368170 0.13763392
v -0.15304500 -0.47104377 0.13723299
v -0.00011619 -0.49526206 0.13723299
v -0.00011619 -0.48722574 0.14121866
v 0.15054071 -0.46340835 0.14119507
v 0.14709732 -0.45283905 0.14154883
v 0.19683114 -0.43984610 0.14119507
v 0.19683114 -0.45356798 0.13211530
v 0.15433908 -0.47505283 0.13350675
v 0.00002580 -0.49948978 0.13350675
v -0.00011619 -0.49996358 0.12893149
v -0.15432295 -0.47505283 0.13353033
v -0.16582456 -0.46920326 0.13353033
v -0.16582456 -0.46973172 0.12893149
v -0.16582456 -0.46453819 0.13723299
v 0.00002580 -0.49528027 0.13720942
v 0.15302563 -0.47104377 0.13720942
v -0.00011619 -0.49947155 0.13353033
v 0.19683114 -0.44277999 0.13989797
v 0.19683114 -0.45340398 0.13350675
v 0.19683114 -0.45019674 0.13605380
v 0.19683114 -0.44873890 0.13720942
f 1 2 3
f 1 3 4
f 1 4 5
f 1 5 6
f 1 6 7
f 1 7 2
f 2 7 8
f 2 8 3
f 3 9 10
f 3 10 11
f 3 11 4
f 3 8 12
f 3 12 13
f 3 13 14
f 3 14 9
f 4 15 5
f 4 11 10
f 4 10 15
f 5 15 16
f 5 16 17
f 5 17 6
f 6 17 18
f 6 18 28
f 6 28 19
f 6 19 7
f 7 19 29
f 7 29 20
f 7 20 12
f 7 12 8
f 9 14 21
f 9 21 22
f 9 22 23
f 9 23 10
f 10 23 24
f 10 24 15
f 12 20 13
f 13 20 29
f 13 29 38
f 13 38 47
f 13 47 57
f 13 57 56
f 13 56 67
f 13 67 80
f 13 80 92
f 13 92 95
f 13 95 94
f 13 94 93
f 13 93 81
f 13 81 68
f 13 68 58
f 13 58 49
f 13 49 48
f 13 48 42
f 13 42 41
f 13 41 32
f 13 32 30
f 13 30 21
f 13 21 14
f 15 24 16
f 16 25 26
f 16 26 27
f 16 27 17
f 16 24 25
f 17 27 26
f 17 26 36
f 17 36 45
f 17 45 54
f 17 54 62
f 17 62 73
f 17 73 87
f 17 87 86
f 17 86 88
f 17 88 74
f 17 74 63
f 17 63 55
f 17 55 46
f 17 46 37
f 17 37 28
f 17 28 18
f 19 28 29
f 21 30 22
f 22 31 23
f 22 30 32
f 22 32 31
f 23 31 33
f 23 33 34
f 23 34 24
f 24 34 35
f 24 35 25
f 25 35 26
f 26 35 36
f 28 37 38
f 28 38 29
f 31 39 40
f 31 40 33
f 31 32 41
f 31 41 42
f 31 42 39
f 33 40 34
f 34 40 43
f 34 43 35
f 35 44 45
f 35 45 36
f 35 43 44
f 37 46 38
f 38 46 47
f 39 42 48
f 39 48 49
f 39 49 50
f 39 50 51
f 39 51 40
f 40 51 43
f 43 51 52
f 43 52 53
f 43 53 44
f 44 53 54
f 44 54 45
f 46 55 56
f 46 56 57
f 46 57 47
f 49 58 59
f 49 59 50
f 50 59 60
f 50 60 51
f 51 60 53
f 51 53 52
f 53 61 62
f 53 62 54
f 53 60 61
f 55 63 64
f 55 64 65
f 55 65 66
f 55 66 67
f 55 67 56
f 58 68 69
f 58 69 59
f 59 69 60
f 60 69 70
f 60 70 71
f 60 71 61
f 61 71 72
f 61 72 73
f 61 73 62
f 63 74 64
f 64 74 75
f 64 75 76
f 64 76 77
f 64 77 65
f 65 77 66
f 66 77 78
f 66 78 79
f 66 79 67
f 67 79 78
f 67 78 80
f 68 81 69
f 69 81 82
f 69 82 70
f 70 82 83
f 70 83 91
f 70 91 84
f 70 84 71
f 71 84 72
f 72 84 85
f 72 85 86
f 72 86 87
f 72 87 73
f 74 88 75
f 75 88 86
f 75 86 85
f 75 85 76
f 76 89 90
f 76 90 78
f 76 78 77
f 76 85 91
f 76 91 83
f 76 83 89
f 78 90 92
f 78 92 80
f 81 93 82
f 82 90 89
f 82 89 83
f 82 93 94
f 82 94 95
f 82 95 90
f 84 91 85
f 90 95 92

