# https://github.com/mikedh/trimesh
v -0.00009358 -0.30939889 -0.14157242
v -0.00009358 -0.16584089 -0.14157242
v 0.00002024 -0.30941337 -0.14157242
v -0.00009358 -0.31380180 -0.09928144
v -0.00009358 -0.16584089 -0.06281414
v 0.19681762 -0.16584089 -0.14157242
v 0.09565876 -0.29427838 -0.14157242
v 0.19681762 -0.31380180 -0.08289988
v 0.19237858 -0.31380180 -0.08404876
v 0.19052899 -0.31380180 -0.08450435
v 0.17669967 -0.31380180 -0.08561362
v 0.10197586 -0.31380180 -0.09155615
v 0.00002024 -0.31380180 -0.09936067
v -0.00009358 -0.31380180 -0.01608608
v 0.29057810 -0.28906441 0.06079039
v 0.29057810 -0.16585538 -0.00388410
v 0.19681762 -0.16584089 -0.03831112
v 0.19681762 -0.23540395 -0.14157242
v 0.29057810 -0.16585538 -0.09009033
v 0.25848043 -0.16585538 -0.14153279
v 0.18185011 -0.25032172 -0.14157242
v 0.24937472 -0.28906441 -0.07620463
v 0.27549675 -0.28906441 -0.06241797
v 0.29057810 -0.28906441 -0.04914633
v 0.19681762 -0.31380180 0.02307516
v 0.25031373 -0.18190283 -0.14153279
v 0.29057810 -0.27400181 -0.06241797
v 0.29057810 -0.21114451 -0.08648520
v 0.29057810 -0.22720644 -0.08450435
v 0.29057810 -0.24785955 -0.07620463
v 0.29057810 -0.25534740 -0.07226275
f 1 2 6
f 1 6 18
f 1 18 21
f 1 21 7
f 1 7 3
f 1 3 4
f 1 4 14
f 1 14 5
f 1 5 2
f 2 5 17
f 2 17 6
f 3 7 8
f 3 8 9
f 3 9 10
f 3 10 11
f 3 11 12
f 3 12 13
f 3 13 4
f 4 13 12
f 4 12 11
f 4 11 10
f 4 10 9
f 4 9 8
f 4 8 25
f 4 25 14
f 5 14 15
f 5 15 16
f 5 16 17
f 6 17 16
f 6 16 19
f 6 19 20
f 6 20 18
f 7 21 8
f 8 21 22
f 8 22 23
f 8 23 24
f 8 24 15
f 8 15 25
f 14 25 15
f 15 24 27
f 15 27 31
f 15 31 30
f 15 30 29
f 15 29 28
f 15 28 19
f 15 19 16
f 18 20 26
f 18 26 27
f 18 27 23
f 18 23 21
f 19 28 20
f 20 28 29
f 20 29 30
f 20 30 26
f 21 23 22
f 23 27 24
f 26 30 31
f 26 31 27

