# https://github.com/mikedh/trimesh
v -0.31632555 0.34875664 0.14157242
v -0.31632555 0.33565205 0.13671197
v -0.31632555 0.35957986 0.14132258
v -0.38523927 0.27986476 0.14157242
v -0.45855868 0.11107033 0.14157242
v -0.44917834 0.11107033 0.13671197
v -0.44145623 0.11107033 0.12923960
v -0.31632555 0.11107033 -0.00483138
v -0.31632555 0.36430174 0.14120901
v -0.39422944 0.28639051 0.14120901
v -0.46341953 0.15059629 0.14120901
v -0.45285243 0.14714772 0.14157242
v -0.46967852 0.11107033 0.14120901
v -0.31632555 0.11107033 -0.09045693
v -0.31632555 0.36721978 0.14018697
v -0.47106037 0.15306336 0.13723436
v -0.40071601 0.29111239 0.13723436
v -0.47179192 0.11107033 0.14016426
v -0.31632555 0.18563911 -0.08452900
v -0.34184915 0.11107033 -0.08645955
v -0.35254630 0.11457196 -0.08452900
v -0.31632555 0.37552285 0.13723436
v -0.40411374 0.29360598 0.13353224
v -0.47505960 0.15436320 0.13353224
v -0.48192006 0.11107033 0.13353224
v -0.47770950 0.11107033 0.13723436
v -0.31632555 0.21787000 -0.07621629
v -0.35309905 0.11107033 -0.08452900
v -0.36691755 0.11107033 -0.07678410
v -0.36664119 0.11913469 -0.07621629
v -0.31632555 0.37682271 0.13641670
v -0.40450391 0.29387125 0.12894434
v -0.47551480 0.15452236 0.12894434
v -0.31632555 0.38138545 0.13353224
v -0.31632555 0.38207516 0.12894434
v -0.48239154 0.11107033 0.12894434
v -0.31632555 0.22983390 -0.07217349
v -0.36790925 0.11107033 -0.07621629
v -0.38455647 0.11107033 -0.06395162
v -0.38444269 0.12491769 -0.06242989
v -0.37423325 0.27187997 0.03064531
v -0.43991181 0.14295638 0.03064531
v -0.44496775 0.11107033 0.03064531
v -0.31632555 0.32976294 0.03064531
v -0.31632555 0.24827051 -0.06242989
v -0.32702273 0.23760645 -0.06242989
v -0.38662115 0.11107033 -0.06242989
v -0.39759466 0.11107033 -0.04896147
v -0.39935043 0.11107033 -0.04680379
v -0.39652169 0.12884375 -0.04680379
v -0.33731344 0.24508721 -0.04680379
v -0.35457844 0.25760818 -0.01596043
v -0.41682678 0.13544910 -0.01596043
v -0.31632555 0.29586083 -0.01596043
v -0.42067969 0.11107033 -0.01596043
v -0.31632555 0.26601741 -0.04680379
v -0.40991750 0.11107033 -0.03222247
v -0.40658483 0.13213316 -0.03222247
v -0.34588093 0.25126812 -0.03222247
v -0.31632555 0.28081974 -0.03222247
v -0.31632555 0.27649575 -0.03649239
v -0.41164076 0.11107033 -0.02963326
f 1 2 8
f 1 8 14
f 1 14 19
f 1 19 27
f 1 27 37
f 1 37 45
f 1 45 56
f 1 56 61
f 1 61 60
f 1 60 54
f 1 54 44
f 1 44 35
f 1 35 34
f 1 34 31
f 1 31 22
f 1 22 15
f 1 15 9
f 1 9 3
f 1 3 4
f 1 4 12
f 1 12 5
f 1 5 6
f 1 6 2
f 2 6 7
f 2 7 8
f 3 9 10
f 3 10 4
f 4 10 11
f 4 11 12
f 5 12 13
f 5 13 18
f 5 18 26
f 5 26 25
f 5 25 36
f 5 36 43
f 5 43 55
f 5 55 62
f 5 62 57
f 5 57 49
f 5 49 48
f 5 48 47
f 5 47 39
f 5 39 38
f 5 38 29
f 5 29 28
f 5 28 20
f 5 20 14
f 5 14 8
f 5 8 7
f 5 7 6
f 9 15 10
f 10 16 11
f 10 15 17
f 10 17 16
f 11 16 18
f 11 18 13
f 11 13 12
f 14 20 21
f 14 21 19
f 15 22 17
f 16 17 23
f 16 23 24
f 16 24 25
f 16 25 26
f 16 26 18
f 17 22 23
f 19 21 27
f 20 28 21
f 21 28 29
f 21 29 30
f 21 30 27
f 22 31 23
f 23 32 33
f 23 33 24
f 23 31 34
f 23 34 35
f 23 35 32
f 24 33 25
f 25 33 36
f 27 30 37
f 29 38 30
f 30 38 39
f 30 39 40
f 30 40 37
f 32 35 41
f 32 41 33
f 33 41 42
f 33 42 43
f 33 43 36
f 35 44 41
f 37 40 46
f 37 46 45
f 39 47 40
f 40 47 48
f 40 48 49
f 40 49 50
f 40 50 51
f 40 51 46
f 41 52 53
f 41 53 42
f 41 44 54
f 41 54 52
f 42 53 43
f 43 53 55
f 45 46 56
f 46 51 56
f 49 57 58
f 49 58 50
f 50 58 51
f 51 59 60
f 51 60 61
f 51 61 56
f 51 58 59
f 52 54 59
f 52 59 53
f 53 58 62
f 53 62 55
f 53 59 58
f 54 60 59
f 57 62 58

