# https://github.com/mikedh/trimesh
v -0.31409207 -0.22034955 0.03223229
v -0.31409207 -0.22034955 -0.07671255
v -0.16585529 -0.22034955 -0.03211714
v -0.16585529 0.11107033 -0.05520603
v -0.31409207 0.11107033 -0.00586352
v -0.21188633 -0.22034955 -0.14155540
v -0.31409207 -0.19001698 -0.08452228
v -0.30943382 -0.00000854 -0.14155540
v -0.29428363 -0.09561293 -0.14155540
v -0.25032777 -0.18187422 -0.14155540
v -0.16585529 -0.22034955 -0.14155540
v -0.16585529 0.11107033 -0.14155540
v -0.31409207 0.11107033 -0.09080069
v -0.31409207 -0.10203630 -0.09151530
v -0.31409207 -0.00000854 -0.09840624
v -0.31409207 0.10205165 -0.09151530
v -0.29428363 0.09559584 -0.14155540
v -0.28641829 0.11107033 -0.14155540
f 1 2 6
f 1 6 11
f 1 11 3
f 1 3 4
f 1 4 5
f 1 5 13
f 1 13 16
f 1 16 15
f 1 15 14
f 1 14 7
f 1 7 2
f 2 7 8
f 2 8 9
f 2 9 10
f 2 10 6
f 3 11 12
f 3 12 4
f 4 12 18
f 4 18 13
f 4 13 5
f 6 10 9
f 6 9 8
f 6 8 17
f 6 17 18
f 6 18 12
f 6 12 11
f 7 14 8
f 8 15 16
f 8 16 13
f 8 13 17
f 8 14 15
f 13 18 17

