# https://github.com/mikedh/trimesh
v -0.16584077 -0.16579750 -0.14155722
v -0.16584077 -0.16579750 -0.04523735
v -0.16584077 0.12409469 -0.14157242
v 0.09013538 -0.16579750 -0.14157242
v 0.22710475 -0.16579750 -0.03034644
v 0.22710475 0.27745980 0.01365772
v -0.16584077 0.27745980 -0.00974228
v -0.16584077 0.25845191 -0.14157242
v 0.22710475 -0.16579750 -0.14157242
v 0.22710475 0.27745980 -0.08615696
v -0.16584077 0.27745980 -0.09214371
v -0.12849250 0.27745980 -0.14157242
v 0.22710475 0.20503016 -0.14157242
v 0.18187138 0.25029325 -0.14157242
v 0.12856066 0.27745980 -0.14157242
f 1 2 7
f 1 7 11
f 1 11 8
f 1 8 3
f 1 3 4
f 1 4 9
f 1 9 5
f 1 5 2
f 2 5 6
f 2 6 7
f 3 8 12
f 3 12 15
f 3 15 14
f 3 14 13
f 3 13 9
f 3 9 4
f 5 9 13
f 5 13 10
f 5 10 6
f 6 10 15
f 6 15 12
f 6 12 11
f 6 11 7
f 8 11 12
f 10 13 14
f 10 14 15

