# https://github.com/mikedh/trimesh
v -0.16584080 0.44331604 0.14157242
v -0.16584080 0.43288839 0.13669443
v -0.16584080 0.45563966 0.14121211
v -0.27986115 0.38520905 0.14157242
v -0.31630170 0.34876490 0.14157242
v -0.31630170 0.33566886 0.13669443
v -0.16584080 0.42435667 0.12923887
v -0.16585553 0.11110543 -0.05520992
v -0.16584080 0.46452248 0.13722104
v -0.29112914 0.40069255 0.13722104
v -0.28640100 0.39419720 0.14121211
v -0.31630170 0.36428350 0.14121211
v -0.31631643 0.27429661 0.06818092
v -0.31631643 0.11110543 -0.00482255
v -0.16584080 0.27429661 -0.01116948
v -0.16585553 0.11110543 -0.14157242
v -0.16584080 0.46919212 0.13350712
v -0.29358894 0.40409821 0.13350712
v -0.31630170 0.38138205 0.13350712
v -0.31630170 0.37681776 0.13638955
v -0.31630170 0.37548357 0.13722104
v -0.31631643 0.27429661 -0.03866357
v -0.31630170 0.38152251 0.13256477
v -0.31630170 0.38204914 0.12893400
v -0.31631643 0.11110543 -0.09043673
v -0.16584080 0.27429661 -0.09265399
v -0.16585553 0.25853223 -0.14157242
v -0.28640100 0.11110543 -0.14157242
v -0.16584080 0.46975386 0.12893400
v -0.29388353 0.40448442 0.12893400
v -0.30808270 0.27429661 -0.04678431
v -0.31631643 0.26604578 -0.04675659
v -0.31630170 0.32977039 0.03062598
v -0.31630170 0.29585415 -0.01596431
v -0.31630170 0.29034188 -0.02195093
v -0.31630170 0.28086218 -0.03220578
v -0.31631643 0.14474079 -0.08777601
v -0.16584080 0.32639983 -0.08450554
v -0.16584080 0.36358130 -0.06244374
v -0.16584080 0.34283131 -0.07621851
v -0.18191059 0.25035161 -0.14157242
v -0.31631643 0.18567902 -0.08450554
v -0.31631643 0.21432877 -0.07713313
v -0.31631643 0.21787488 -0.07619079
v -0.31631643 0.22981226 -0.07214428
v -0.25034341 0.18188715 -0.14157242
v -0.16584080 0.42821878 0.03062598
v -0.27187780 0.37418452 0.03062598
v -0.29685888 0.27429661 -0.05667885
v -0.31631643 0.24828012 -0.06241603
v -0.25128609 0.34588587 -0.03220578
v -0.24505556 0.33728391 -0.04678431
v -0.23760247 0.32699668 -0.06244374
v -0.25760502 0.35459316 -0.01596431
v -0.16584080 0.37762529 -0.04678431
v -0.22297618 0.20927294 -0.14157242
v -0.29031903 0.27429661 -0.06244374
v -0.16584080 0.40132451 -0.01596431
v -0.16584080 0.38938713 -0.03220578
f 1 2 7
f 1 7 15
f 1 15 26
f 1 26 38
f 1 38 40
f 1 40 39
f 1 39 55
f 1 55 59
f 1 59 58
f 1 58 47
f 1 47 29
f 1 29 17
f 1 17 9
f 1 9 3
f 1 3 4
f 1 4 5
f 1 5 6
f 1 6 2
f 2 6 8
f 2 8 7
f 3 9 10
f 3 10 11
f 3 11 4
f 4 11 5
f 5 12 13
f 5 13 6
f 5 11 12
f 6 13 14
f 6 14 8
f 7 8 15
f 8 14 25
f 8 25 28
f 8 28 16
f 8 16 26
f 8 26 15
f 9 17 10
f 10 18 19
f 10 19 20
f 10 20 21
f 10 21 12
f 10 12 11
f 10 17 18
f 12 21 13
f 13 22 32
f 13 32 50
f 13 50 45
f 13 45 44
f 13 44 43
f 13 43 42
f 13 42 37
f 13 37 25
f 13 25 14
f 13 21 20
f 13 20 19
f 13 19 23
f 13 23 24
f 13 24 22
f 16 27 26
f 16 28 46
f 16 46 56
f 16 56 41
f 16 41 27
f 17 29 18
f 18 23 19
f 18 29 30
f 18 30 23
f 22 31 32
f 22 24 33
f 22 33 34
f 22 34 35
f 22 35 36
f 22 36 31
f 23 30 24
f 24 30 33
f 25 37 28
f 26 27 38
f 27 39 40
f 27 40 38
f 27 41 39
f 28 37 42
f 28 42 43
f 28 43 44
f 28 44 45
f 28 45 46
f 29 47 48
f 29 48 30
f 30 48 33
f 31 49 50
f 31 50 32
f 31 36 51
f 31 51 52
f 31 52 53
f 31 53 49
f 33 48 54
f 33 54 34
f 34 54 35
f 35 54 36
f 36 54 51
f 39 53 52
f 39 52 55
f 39 41 53
f 41 56 57
f 41 57 53
f 45 50 46
f 46 50 57
f 46 57 56
f 47 58 54
f 47 54 48
f 49 53 57
f 49 57 50
f 51 54 58
f 51 58 59
f 51 59 55
f 51 55 52

