# https://github.com/mikedh/trimesh
v -0.45854908 0.11104874 0.14157242
v -0.44915989 0.11104874 0.13668627
v -0.46966690 0.11104874 0.14122005
v -0.47614470 0.00000954 0.14157242
v -0.41553354 -0.22034957 0.14157242
v -0.40516177 -0.22034957 0.13668627
v -0.44144475 0.11104874 0.12921610
v -0.40166810 -0.22034957 0.13365592
v -0.39662778 -0.22034957 0.12923960
v -0.47769135 0.11104874 0.13725005
v -0.49528697 0.00000954 0.13725005
v -0.48724431 0.00000954 0.14122005
v -0.45878562 -0.10960232 0.14157242
v -0.45283550 -0.14713441 0.14157242
v -0.42121071 -0.22034957 0.14140798
v -0.31412673 0.11104874 -0.00583407
v -0.31410855 -0.22034957 0.03222147
v -0.47885591 0.11104874 0.13621645
v -0.49949026 0.00000954 0.13351497
v -0.47505292 -0.15433590 0.13351497
v -0.47792792 -0.10956988 0.13725005
v -0.47565341 -0.10956988 0.13837764
v -0.46988523 -0.10956988 0.14122005
v -0.46340743 -0.15057297 0.14119656
v -0.42785227 -0.22034957 0.14119656
v -0.31412673 0.11104874 -0.09080128
v -0.31410855 -0.10960232 -0.00616294
v -0.31410855 -0.22034957 -0.07670663
v -0.48189467 0.11104874 0.13351497
v -0.48204023 0.11104874 0.13224646
v -0.49999976 0.00000954 0.12891072
v -0.47550783 -0.15449810 0.12893422
v -0.44142658 -0.22034957 0.13351497
v -0.43898830 -0.22034957 0.13546474
v -0.47104979 -0.15303834 0.13722657
v -0.43227392 -0.22034957 0.13924681
v -0.31410855 -0.10960232 -0.09091873
v -0.31412673 0.10203065 -0.09150600
v -0.34185758 0.11104874 -0.08645543
v -0.31507295 -0.22034957 -0.07621333
v -0.36664066 -0.11910699 -0.07621333
v -0.35255688 -0.11453307 -0.08450568
v -0.31410855 -0.18998653 -0.08450568
v -0.48238593 0.11104874 0.12891072
v -0.44495660 0.11104874 0.03062408
v -0.46253401 0.00000954 0.03062408
v -0.44519314 -0.10956988 0.03062408
v -0.43991628 -0.14291732 0.03064757
v -0.40048537 -0.22034957 0.03064757
v -0.44195426 -0.22034957 0.12893422
v -0.43676835 -0.22034957 0.13722657
v -0.31412673 -0.10956988 -0.09091873
v -0.31412673 -0.10201156 -0.09150600
v -0.31412673 0.00000954 -0.09841238
v -0.35312095 0.11104874 -0.08452916
v -0.31634668 -0.22034957 -0.07536764
v -0.38445461 -0.12488116 -0.06242406
v -0.36816913 -0.10956988 -0.07623681
v -0.35335749 -0.10956988 -0.08452916
v -0.33734494 -0.10956988 -0.08727762
v -0.42066482 0.11104874 -0.01595872
v -0.43826044 0.00000954 -0.01595872
v -0.41682544 -0.13542388 -0.01593523
v -0.37357336 -0.22034957 -0.01593523
v -0.37071657 0.00000954 -0.08452916
v -0.36793256 0.11104874 -0.07623681
v -0.33581647 -0.22034957 -0.06242406
v -0.34991845 -0.22034957 -0.04677901
v -0.39653683 -0.12883873 -0.04677901
v -0.39959377 -0.10956988 -0.04680250
v -0.38687471 -0.10960232 -0.06242406
v -0.40423375 0.00000954 -0.06242406
v -0.38551000 0.00000954 -0.07623681
v -0.41162136 0.11104874 -0.02963052
v -0.42750657 0.00000954 -0.03221454
v -0.40659925 -0.13211510 -0.03221454
v -0.37004331 -0.22034957 -0.02077439
v -0.38663813 0.11104874 -0.06242406
v -0.36165494 -0.22034957 -0.03221454
v -0.41689825 0.00000954 -0.04680250
v -0.39935720 0.11104874 -0.04680250
v -0.40991095 0.11104874 -0.03221454
f 1 2 7
f 1 7 16
f 1 16 26
f 1 26 39
f 1 39 55
f 1 55 66
f 1 66 78
f 1 78 81
f 1 81 82
f 1 82 74
f 1 74 61
f 1 61 45
f 1 45 44
f 1 44 30
f 1 30 29
f 1 29 18
f 1 18 10
f 1 10 3
f 1 3 4
f 1 4 13
f 1 13 14
f 1 14 5
f 1 5 6
f 1 6 2
f 2 6 8
f 2 8 9
f 2 9 7
f 3 10 11
f 3 11 12
f 3 12 4
f 4 12 13
f 5 14 15
f 5 15 25
f 5 25 36
f 5 36 51
f 5 51 34
f 5 34 33
f 5 33 50
f 5 50 49
f 5 49 64
f 5 64 77
f 5 77 79
f 5 79 68
f 5 68 67
f 5 67 56
f 5 56 40
f 5 40 28
f 5 28 17
f 5 17 9
f 5 9 8
f 5 8 6
f 7 9 16
f 9 17 16
f 10 18 11
f 11 19 20
f 11 20 21
f 11 21 22
f 11 22 12
f 11 18 19
f 12 22 23
f 12 23 13
f 13 23 14
f 14 24 15
f 14 23 24
f 15 24 25
f 16 17 27
f 16 27 37
f 16 37 26
f 17 28 43
f 17 43 37
f 17 37 27
f 18 29 19
f 19 29 30
f 19 30 31
f 19 31 20
f 20 32 33
f 20 33 34
f 20 34 35
f 20 35 21
f 20 31 32
f 21 35 22
f 22 35 24
f 22 24 23
f 24 35 36
f 24 36 25
f 26 37 38
f 26 38 39
f 28 40 41
f 28 41 42
f 28 42 43
f 30 44 31
f 31 44 45
f 31 45 46
f 31 46 47
f 31 47 48
f 31 48 32
f 32 48 49
f 32 49 50
f 32 50 33
f 34 51 35
f 35 51 36
f 37 52 53
f 37 53 54
f 37 54 38
f 37 43 52
f 38 54 39
f 39 54 55
f 40 56 41
f 41 56 57
f 41 57 58
f 41 58 59
f 41 59 42
f 42 52 43
f 42 59 54
f 42 54 60
f 42 60 52
f 45 61 62
f 45 62 46
f 46 62 47
f 47 62 63
f 47 63 48
f 48 63 49
f 49 63 64
f 52 60 53
f 53 60 54
f 54 59 65
f 54 65 55
f 55 65 66
f 56 67 57
f 57 67 68
f 57 68 69
f 57 69 70
f 57 70 71
f 57 71 58
f 58 72 73
f 58 73 65
f 58 65 59
f 58 71 72
f 61 74 62
f 62 74 75
f 62 75 76
f 62 76 63
f 63 76 77
f 63 77 64
f 65 73 66
f 66 73 72
f 66 72 78
f 68 79 69
f 69 79 76
f 69 76 70
f 70 75 80
f 70 80 72
f 70 72 71
f 70 76 75
f 72 80 81
f 72 81 78
f 74 82 75
f 75 82 81
f 75 81 80
f 76 79 77

