# https://github.com/mikedh/trimesh
v 0.47613865 -0.00002238 0.14157242
v 0.45283198 -0.14712192 0.14157242
v 0.46340916 -0.15054546 0.14121883
v 0.48724878 -0.00002238 0.14121883
v 0.46677089 -0.00002238 0.13671649
v 0.36294657 -0.28907198 0.13671649
v 0.37604505 -0.28907198 0.14157242
v 0.44332075 -0.16582413 0.14157242
v 0.45564026 -0.16582413 0.14121883
v 0.46455705 -0.16582413 0.13723508
v 0.47105506 -0.15303533 0.13723508
v 0.49528414 -0.00002238 0.13723508
v 0.45904300 -0.00002238 0.12924400
v 0.35216442 -0.28907198 0.12924400
v 0.39154181 -0.28907198 0.14119525
v 0.38522831 -0.27987647 0.14157242
v 0.39420661 -0.28638405 0.14119525
v 0.40175003 -0.28907198 0.13723508
v 0.47505224 -0.15433684 0.13353419
v 0.40181151 -0.28907198 0.13718793
v 0.46882072 -0.16582413 0.13384064
v 0.49948633 -0.00002238 0.13353419
v 0.31387344 -0.00002238 -0.01603327
v 0.29058728 -0.28907198 0.06078948
v 0.39787582 -0.28907198 0.13895588
v 0.47552371 -0.15447831 0.12893756
v 0.49999878 -0.00002238 0.12893756
v 0.40642366 -0.28907198 0.13351062
v 0.31387344 -0.00002238 -0.09924418
v 0.29058728 -0.16582413 -0.00384629
v 0.29058728 -0.28907198 -0.04915262
v 0.46974316 -0.16582413 0.12893756
v 0.43991801 -0.14296272 0.03064026
v 0.46254823 -0.00002238 0.03064026
v 0.40693611 -0.28907198 0.12893756
v 0.37071547 -0.00002238 -0.08451137
v 0.35255390 -0.11455574 -0.08451137
v 0.31387344 -0.10196500 -0.09155954
v 0.29058728 -0.16582413 -0.09009804
v 0.29329306 -0.28907198 -0.04679537
v 0.29058728 -0.27399138 -0.06242393
v 0.37424117 -0.27186933 0.03064026
v 0.41679582 -0.13546486 -0.01593898
v 0.43825763 -0.00002238 -0.01593898
v 0.35458323 -0.25760925 -0.01593898
v 0.40134004 -0.16582413 -0.01593898
v 0.35704303 -0.28907198 0.03064026
v 0.38551530 -0.00002238 -0.07621385
v 0.36663628 -0.11913934 -0.07621385
v 0.29991406 -0.21788475 -0.08451137
v 0.31387344 -0.16582413 -0.08649145
v 0.29058728 -0.21112251 -0.08649145
v 0.30159491 -0.28907198 -0.03861572
v 0.32703340 -0.23757723 -0.06242393
v 0.33732361 -0.24504679 -0.04679537
v 0.29058728 -0.24784788 -0.07621385
v 0.31188512 -0.22657093 -0.07621385
v 0.32313871 -0.28907198 -0.01593898
v 0.40660813 -0.13212620 -0.03220400
v 0.42749599 -0.00002238 -0.03220400
v 0.34589192 -0.25127143 -0.03220400
v 0.40420982 -0.00002238 -0.06240037
v 0.38444939 -0.12491127 -0.06240037
v 0.35103703 -0.16582413 -0.07079217
v 0.29058728 -0.22719342 -0.08451137
v 0.29058728 -0.22159123 -0.08521853
v 0.30809289 -0.28907198 -0.03220400
v 0.36358202 -0.16582413 -0.06242393
v 0.37768492 -0.16582413 -0.04679537
v 0.39652294 -0.12884411 -0.04677180
v 0.41691881 -0.00002238 -0.04677180
f 1 2 3
f 1 3 4
f 1 4 12
f 1 12 22
f 1 22 27
f 1 27 34
f 1 34 44
f 1 44 60
f 1 60 71
f 1 71 62
f 1 62 48
f 1 48 36
f 1 36 29
f 1 29 23
f 1 23 13
f 1 13 5
f 1 5 6
f 1 6 7
f 1 7 16
f 1 16 8
f 1 8 2
f 2 8 9
f 2 9 3
f 3 9 10
f 3 10 11
f 3 11 4
f 4 11 12
f 5 13 14
f 5 14 6
f 6 14 24
f 6 24 31
f 6 31 40
f 6 40 53
f 6 53 67
f 6 67 58
f 6 58 47
f 6 47 35
f 6 35 28
f 6 28 20
f 6 20 18
f 6 18 25
f 6 25 15
f 6 15 7
f 7 15 16
f 8 16 9
f 9 16 17
f 9 17 18
f 9 18 10
f 10 19 11
f 10 18 20
f 10 20 21
f 10 21 19
f 11 19 12
f 12 19 22
f 13 23 14
f 14 23 24
f 15 25 17
f 15 17 16
f 17 25 18
f 19 26 27
f 19 27 22
f 19 21 28
f 19 28 26
f 20 28 21
f 23 29 39
f 23 39 30
f 23 30 24
f 24 30 39
f 24 39 52
f 24 52 66
f 24 66 65
f 24 65 56
f 24 56 41
f 24 41 31
f 26 28 32
f 26 32 33
f 26 33 27
f 27 33 34
f 28 35 32
f 29 36 37
f 29 37 38
f 29 38 39
f 31 41 40
f 32 35 42
f 32 42 33
f 33 43 44
f 33 44 34
f 33 42 45
f 33 45 46
f 33 46 43
f 35 47 42
f 36 48 49
f 36 49 37
f 37 49 50
f 37 50 51
f 37 51 38
f 38 51 39
f 39 51 50
f 39 50 52
f 40 41 54
f 40 54 55
f 40 55 53
f 41 56 57
f 41 57 54
f 42 47 58
f 42 58 45
f 43 59 44
f 43 46 59
f 44 59 60
f 45 58 61
f 45 61 59
f 45 59 46
f 48 62 63
f 48 63 49
f 49 63 64
f 49 64 57
f 49 57 50
f 50 57 56
f 50 56 65
f 50 65 66
f 50 66 52
f 53 55 61
f 53 61 67
f 54 57 64
f 54 64 68
f 54 68 63
f 54 63 69
f 54 69 55
f 55 69 59
f 55 59 61
f 58 67 61
f 59 70 71
f 59 71 60
f 59 69 70
f 62 71 63
f 63 71 70
f 63 70 69
f 63 68 64

