# https://github.com/mikedh/trimesh
v -0.42229390 -0.13271940 0.39130270
v -0.41291291 -0.19696970 0.39010179
v -0.41515127 -0.13860297 0.41140571
v -0.41947711 -0.07102719 0.40391213
v -0.42010584 -0.06987604 0.38340080
v -0.42005554 -0.35957795 0.24491331
v -0.41552851 -0.39279026 0.24491331
v -0.39950785 -0.20596559 0.41020483
v -0.41489977 -0.39547625 0.24491331
v -0.40222406 -0.14333540 0.43100435
v -0.41105178 -0.07362789 0.42387104
v -0.39513171 -0.01052873 0.42408720
v -0.40312949 -0.01133879 0.40191862
v -0.40534270 -0.01492009 0.37893346
v -0.40325522 -0.06923653 0.30841675
v -0.41122782 -0.10961147 0.32294762
v -0.37787873 -0.21184917 0.24488929
v -0.37194327 -0.09285608 0.24488929
v -0.37599245 -0.21069804 0.42516801
v -0.38280815 -0.14717253 0.44865754
v -0.41069967 -0.40276676 0.24491331
v -0.39384907 -0.42127016 0.25271913
v -0.36600783 -0.34729919 0.33536491
v -0.39832580 -0.07652704 0.44222075
v -0.38298419 -0.01163723 0.44435835
v -0.38881904 -0.00093596 0.42615274
v -0.39110771 -0.00093596 0.42209369
v -0.39880365 -0.00093596 0.39925262
v -0.39930665 -0.00093596 0.38171953
v -0.39923120 -0.00093596 0.37420192
v -0.37805477 -0.00093596 0.30503023
v -0.39005139 -0.04459375 0.29484662
v -0.35152134 -0.43640542 0.24491331
v -0.35931790 -0.43614963 0.24491331
v -0.36427248 -0.43452951 0.24491331
v -0.39342153 -0.42246395 0.24491331
v -0.16535980 -0.21184917 0.24488929
v -0.35096803 -0.00093596 0.24488929
v -0.35753223 -0.15194759 0.46462947
v -0.33861929 -0.35979110 0.34463581
v -0.33829236 -0.26249903 0.40614578
v -0.35308063 -0.08449970 0.47430873
v -0.35931790 -0.43512639 0.25608164
v -0.33970076 -0.02076103 0.48007303
v -0.36381978 -0.01534644 0.46174735
v -0.37850747 -0.00093596 0.44255698
v -0.31535539 -0.43504113 0.24491331
v -0.16538495 -0.37275201 0.24491331
v -0.26716766 -0.41773149 0.24491331
v -0.30521989 -0.43397528 0.24491331
v -0.16535980 -0.00093596 0.24488929
v -0.16535980 -0.21184917 0.39262369
v -0.32217109 -0.15527309 0.46883261
v -0.31995788 -0.09213130 0.49025664
v -0.30275515 -0.36107016 0.34413144
v -0.30690494 -0.25942934 0.40861964
v -0.31490269 -0.43380475 0.25343966
v -0.30703068 -0.02954374 0.48739851
v -0.27111626 -0.00093596 0.48163420
v -0.33107424 -0.00093596 0.47356415
v -0.34015346 -0.00093596 0.47087416
v -0.35780889 -0.00093596 0.45924947
v -0.16538495 -0.36290345 0.27090073
v -0.16538495 -0.35927951 0.28045988
v -0.16535980 -0.00093596 0.46234778
v -0.16535980 -0.15569943 0.45490223
v -0.16538495 -0.33561730 0.32273147
v -0.27393305 -0.10539065 0.48737448
v -0.26067892 -0.35535711 0.33817500
v -0.21191275 -0.04710919 0.48024115
v -0.20693302 -0.00093596 0.47586989
f 1 2 3
f 1 3 4
f 1 4 5
f 1 5 6
f 1 6 7
f 1 7 2
f 2 8 3
f 2 7 9
f 2 9 8
f 3 10 11
f 3 11 4
f 3 8 10
f 4 11 12
f 4 12 13
f 4 13 14
f 4 14 5
f 5 14 15
f 5 15 16
f 5 16 6
f 6 17 7
f 6 16 15
f 6 15 18
f 6 18 17
f 7 17 9
f 8 19 20
f 8 20 10
f 8 9 21
f 8 21 22
f 8 22 23
f 8 23 19
f 9 17 21
f 10 24 11
f 10 20 24
f 11 24 25
f 11 25 12
f 12 25 26
f 12 26 27
f 12 27 13
f 13 27 28
f 13 28 14
f 14 28 29
f 14 29 30
f 14 30 15
f 15 30 31
f 15 31 32
f 15 32 18
f 17 33 34
f 17 34 35
f 17 35 36
f 17 36 21
f 17 18 38
f 17 38 51
f 17 51 37
f 17 37 33
f 18 32 38
f 19 39 20
f 19 23 40
f 19 40 41
f 19 41 39
f 20 39 42
f 20 42 24
f 21 36 22
f 22 36 43
f 22 43 40
f 22 40 23
f 24 42 44
f 24 44 45
f 24 45 25
f 25 45 46
f 25 46 26
f 26 46 62
f 26 62 61
f 26 61 60
f 26 60 59
f 26 59 71
f 26 71 65
f 26 65 51
f 26 51 38
f 26 38 31
f 26 31 30
f 26 30 29
f 26 29 28
f 26 28 27
f 31 38 32
f 33 37 47
f 33 47 43
f 33 43 34
f 34 43 35
f 35 43 36
f 37 48 49
f 37 49 50
f 37 50 47
f 37 51 65
f 37 65 66
f 37 66 52
f 37 52 48
f 39 41 53
f 39 53 54
f 39 54 42
f 40 43 55
f 40 55 56
f 40 56 41
f 41 56 53
f 42 54 44
f 43 47 57
f 43 57 55
f 44 58 59
f 44 59 60
f 44 60 61
f 44 61 62
f 44 62 45
f 44 54 58
f 45 62 46
f 47 50 57
f 48 63 49
f 48 52 63
f 49 63 64
f 49 64 50
f 50 64 57
f 52 66 67
f 52 67 64
f 52 64 63
f 53 66 68
f 53 68 54
f 53 56 66
f 54 68 58
f 55 57 69
f 55 69 66
f 55 66 56
f 57 64 67
f 57 67 69
f 58 70 71
f 58 71 59
f 58 68 70
f 65 71 70
f 65 70 66
f 66 70 68
f 66 69 67

