# https://github.com/mikedh/trimesh
v 0.01783456 0.46112531 -0.15243950
v 0.03499629 0.45572340 -0.15243950
v -0.01919577 0.39804530 -0.25616491
v -0.00667828 0.46879250 -0.15250124
v -0.01125383 0.46983802 -0.15250124
v -0.04645668 0.47489136 -0.15250124
v -0.05416504 0.47497851 -0.15250124
v -0.06977411 0.46748561 -0.15250124
v 0.01783456 -0.40944868 -0.15243950
v 0.07059762 0.43969202 -0.15243950
v 0.07059762 0.37251705 -0.24097656
v 0.07059762 0.34350371 -0.27891660
v -0.06765809 0.40545112 -0.25931373
v -0.04604447 0.47567552 -0.15466219
v -0.01124009 0.46992517 -0.15271734
v 0.07059762 0.27772278 -0.35840857
v 0.07059762 0.18127306 -0.46741286
v -0.06977411 0.40545112 -0.25909764
v -0.06977411 -0.40700912 -0.15250124
v 0.01504526 -0.40962297 -0.15250124
v 0.03785429 -0.40892595 -0.15243950
v 0.07059762 -0.40770614 -0.15243950
v 0.06268317 0.18136019 -0.46682632
v -0.06977411 0.21603677 -0.42462611
v 0.07059762 -0.02844189 -0.45994216
v -0.04295288 -0.03750311 -0.46781418
v -0.06977411 -0.03645758 -0.46722764
v -0.06977411 -0.40361118 -0.20232649
v 0.07059762 -0.41371793 -0.23011008
v 0.07059762 -0.41424072 -0.21646525
v 0.05511221 -0.40831608 -0.15243950
v -0.06977411 0.19564903 -0.43450475
v -0.06977411 0.17447715 -0.43993798
v 0.07059762 -0.08002113 -0.43932056
v -0.03823993 -0.22770156 -0.38199374
v -0.06977411 -0.22961836 -0.38174677
v -0.06977411 -0.40265280 -0.21266815
v 0.07059762 -0.40369833 -0.23788950
v -0.06977411 -0.39733803 -0.22054018
v -0.06977411 -0.37564337 -0.24455756
v 0.07059762 -0.17115608 -0.39381722
v 0.07059762 -0.21585229 -0.37054074
v 0.07059762 -0.25767332 -0.34204710
f 1 2 3
f 1 3 4
f 1 4 5
f 1 5 6
f 1 6 7
f 1 7 8
f 1 8 19
f 1 19 9
f 1 9 21
f 1 21 31
f 1 31 22
f 1 22 10
f 1 10 2
f 2 10 11
f 2 11 12
f 2 12 3
f 3 13 14
f 3 14 15
f 3 15 4
f 3 12 16
f 3 16 17
f 3 17 13
f 4 15 5
f 5 15 6
f 6 15 14
f 6 14 7
f 7 14 18
f 7 18 8
f 8 18 24
f 8 24 32
f 8 32 33
f 8 33 27
f 8 27 36
f 8 36 40
f 8 40 39
f 8 39 37
f 8 37 28
f 8 28 19
f 9 19 20
f 9 20 21
f 10 22 30
f 10 30 29
f 10 29 38
f 10 38 43
f 10 43 42
f 10 42 41
f 10 41 34
f 10 34 25
f 10 25 17
f 10 17 16
f 10 16 12
f 10 12 11
f 13 18 14
f 13 17 23
f 13 23 24
f 13 24 18
f 17 25 26
f 17 26 27
f 17 27 23
f 19 28 29
f 19 29 30
f 19 30 20
f 20 30 21
f 21 30 31
f 22 31 30
f 23 32 24
f 23 27 33
f 23 33 32
f 25 34 26
f 26 34 35
f 26 35 36
f 26 36 27
f 28 37 29
f 29 37 39
f 29 39 40
f 29 40 36
f 29 36 35
f 29 35 38
f 34 41 35
f 35 41 42
f 35 42 43
f 35 43 38

