# https://github.com/mikedh/trimesh
v -0.16538511 -0.00099199 0.24488930
v -0.16535980 -0.00089785 0.03825231
v -0.35097826 -0.00099199 0.24488930
v -0.16538511 -0.37270814 0.24488930
v -0.26579127 -0.00089785 0.03825231
v -0.16535980 -0.04711528 0.03825231
v -0.16535980 -0.00089785 -0.07055213
v -0.30028138 -0.00089785 0.01650449
v -0.30296561 -0.00089785 0.01418602
v -0.31461424 -0.00089785 -0.01278651
v -0.40509373 -0.28107336 0.14388928
v -0.37194580 -0.09290913 0.24488930
v -0.26715872 -0.41770187 0.24488930
v -0.27115977 -0.43445688 0.21478195
v -0.16538511 -0.42104346 0.13735840
v -0.16535980 -0.04711528 -0.07055213
v -0.16538511 -0.42226714 0.13337456
v -0.16538511 -0.43572760 0.07972339
v -0.16538511 -0.44062233 -0.03819162
v -0.26442382 -0.00089785 -0.07055213
v -0.16538511 -0.04720941 -0.08870797
v -0.27194479 -0.04720941 -0.08870797
v -0.33601227 -0.25203452 -0.08870797
v -0.33786088 -0.25377589 -0.08498536
v -0.35414362 -0.26878950 -0.04769406
v -0.41137388 -0.32931456 0.11596976
v -0.42406076 -0.37077847 0.22882335
v -0.42005971 -0.35957712 0.24488930
v -0.30521938 -0.43393916 0.24488930
v -0.29772374 -0.46674317 0.14865682
v -0.16538511 -0.43408036 -0.08870797
v -0.27797168 -0.47295570 0.08932378
v -0.25811836 -0.47450882 0.03825231
v -0.24307644 -0.47625023 -0.00494945
v -0.34307742 -0.36687213 -0.08870797
v -0.37073028 -0.31688952 -0.01850102
v -0.40240949 -0.35788277 0.06698818
v -0.39932007 -0.33072650 0.07270269
v -0.41985714 -0.39633453 0.17422520
v -0.41555220 -0.39275765 0.24488930
v -0.41519767 -0.41850197 0.18059281
v -0.41572946 -0.39727584 0.24253818
v -0.31537396 -0.43502164 0.24488930
v -0.34495133 -0.46966118 0.13281943
v -0.32140085 -0.48053309 0.06829435
v -0.35153535 -0.43638653 0.24488930
v -0.35933489 -0.43615121 0.24488930
v -0.23206088 -0.45074123 -0.08870797
v -0.28754383 -0.48170972 -0.02415024
v -0.34160870 -0.39572269 -0.08870797
v -0.34730640 -0.37030783 -0.07754016
v -0.36070234 -0.40843016 -0.03711403
v -0.37559232 -0.41299540 0.01167163
v -0.38288537 -0.41341901 0.03825231
v -0.38972262 -0.41379553 0.06329823
v -0.39757279 -0.43431568 0.12037811
v -0.41491911 -0.39544034 0.24488930
v -0.37592152 -0.45530647 0.12537423
v -0.39339447 -0.42240834 0.24488930
v -0.41071546 -0.40273535 0.24488930
v -0.36427289 -0.43450391 0.24488930
v -0.35502994 -0.46288389 0.06313495
v -0.27126107 -0.45055294 -0.08870797
v -0.32117292 -0.45996588 -0.03466495
v -0.30521938 -0.44302261 -0.08276486
v -0.30369997 -0.44024581 -0.08870797
v -0.32773161 -0.41977271 -0.08870797
v -0.34340662 -0.39732289 -0.08384246
v -0.32874456 -0.42099640 -0.08560580
v -0.34510329 -0.43408036 -0.03802835
v -0.37893498 -0.44081059 0.06169816
f 1 2 5
f 1 5 3
f 1 3 12
f 1 12 28
f 1 28 40
f 1 40 57
f 1 57 60
f 1 60 59
f 1 59 61
f 1 61 47
f 1 47 46
f 1 46 43
f 1 43 29
f 1 29 13
f 1 13 4
f 1 4 6
f 1 6 2
f 2 6 16
f 2 16 7
f 2 7 20
f 2 20 10
f 2 10 9
f 2 9 8
f 2 8 5
f 3 5 8
f 3 8 9
f 3 9 10
f 3 10 11
f 3 11 12
f 4 13 14
f 4 14 15
f 4 15 6
f 6 15 17
f 6 17 18
f 6 18 19
f 6 19 16
f 7 16 31
f 7 31 21
f 7 21 22
f 7 22 20
f 10 20 22
f 10 22 23
f 10 23 24
f 10 24 25
f 10 25 26
f 10 26 11
f 11 26 27
f 11 27 12
f 12 27 28
f 13 29 14
f 14 29 30
f 14 30 15
f 15 30 17
f 16 19 31
f 17 30 18
f 18 30 32
f 18 32 33
f 18 33 34
f 18 34 19
f 19 34 31
f 21 31 48
f 21 48 63
f 21 63 66
f 21 66 67
f 21 67 50
f 21 50 35
f 21 35 23
f 21 23 22
f 23 35 24
f 24 35 36
f 24 36 25
f 25 36 37
f 25 37 38
f 25 38 26
f 26 38 37
f 26 37 39
f 26 39 27
f 27 40 28
f 27 39 41
f 27 41 42
f 27 42 40
f 29 43 30
f 30 44 45
f 30 45 32
f 30 43 46
f 30 46 47
f 30 47 44
f 31 34 48
f 32 45 34
f 32 34 33
f 34 45 49
f 34 49 48
f 35 50 51
f 35 51 36
f 36 51 37
f 37 51 52
f 37 52 53
f 37 53 54
f 37 54 55
f 37 55 39
f 39 55 56
f 39 56 41
f 40 42 57
f 41 56 58
f 41 58 59
f 41 59 60
f 41 60 42
f 42 60 57
f 44 47 61
f 44 61 59
f 44 59 58
f 44 58 45
f 45 58 62
f 45 62 49
f 48 49 63
f 49 64 65
f 49 65 66
f 49 66 63
f 49 62 64
f 50 67 68
f 50 68 51
f 51 68 52
f 52 68 69
f 52 69 70
f 52 70 71
f 52 71 53
f 53 71 54
f 54 71 55
f 55 71 56
f 56 71 58
f 58 71 62
f 62 71 64
f 64 71 70
f 64 70 69
f 64 69 65
f 65 69 67
f 65 67 66
f 67 69 68

