# https://github.com/mikedh/trimesh
v -0.26780394 0.08651148 -0.08669803
v 0.07060277 0.08651148 -0.08669803
v -0.26233047 -0.00087623 -0.08669803
v -0.48473275 0.05634711 0.05544160
v -0.32281807 0.08651148 0.02230613
v 0.07060277 0.08651148 0.07699247
v 0.07060277 -0.00087623 -0.08669803
v -0.31460786 -0.00087623 -0.01278414
v -0.49998033 0.04854509 0.07691235
v -0.28182277 0.08651148 0.07699247
v 0.07060277 -0.00087623 0.07699247
v -0.30299065 -0.00087623 0.01415044
v -0.27087581 -0.00087623 0.07699247
f 1 2 7
f 1 7 3
f 1 3 4
f 1 4 5
f 1 5 10
f 1 10 6
f 1 6 2
f 2 6 11
f 2 11 7
f 3 7 11
f 3 11 13
f 3 13 12
f 3 12 8
f 3 8 9
f 3 9 4
f 4 9 10
f 4 10 5
f 6 10 13
f 6 13 11
f 8 12 9
f 9 12 13
f 9 13 10

