# https://github.com/mikedh/trimesh
v 0.07060277 0.28873557 0.13566734
v 0.07060277 0.08651149 0.13566734
v 0.07060277 0.28873557 -0.05619651
v 0.07055993 0.28873557 0.34193039
v 0.07055993 0.28303465 0.34708828
v 0.07055993 0.23794201 0.37862682
v 0.07055993 0.18950404 0.40420151
v 0.07055993 0.08724390 0.45116007
v 0.07060277 0.08651149 0.02563173
v 0.07055993 0.08651149 0.45110631
v 0.07060277 0.11559011 -0.05619651
v -0.30252412 0.28873557 -0.05619651
v -0.20944595 0.28873557 0.37771344
v -0.10158326 0.08993600 0.48834005
v -0.00799085 0.09110390 0.47211409
v 0.07055993 0.08651149 -0.05619651
v -0.00490539 0.08651149 0.47055599
v -0.30796653 0.24718620 -0.05619651
v -0.31100917 0.28873557 -0.03486636
v -0.23314403 0.28873557 0.37980884
v -0.19281873 0.08651149 0.49269205
v -0.10192609 0.08651149 0.48694313
v -0.26862687 0.08651149 -0.05619651
v -0.28169724 0.12677419 -0.05619651
v -0.32279390 0.08651149 0.02235430
v -0.33277881 0.20435017 0.04809017
v -0.32086551 0.28873557 -0.00042650
v -0.25097114 0.28873557 0.38002375
v -0.22243062 0.08651149 0.49199358
v -0.36650467 0.08651149 0.34638983
v -0.36153364 0.28873557 0.23775116
v -0.33659279 0.28873557 0.07457824
v -0.27021247 0.28873557 0.37368381
v -0.30196702 0.25409460 0.38448322
v -0.26892686 0.25791502 0.39243501
v -0.26772696 0.20134136 0.42424217
v -0.23631519 0.08682821 0.49145630
v -0.23665804 0.08651149 0.49134883
v -0.36719030 0.08651149 0.36766624
v -0.36560473 0.16252367 0.32608050
v -0.36440480 0.20783406 0.29857162
v -0.36311921 0.25193697 0.26993442
v -0.36071938 0.28873557 0.26370195
v -0.30128136 0.28873557 0.35482517
v -0.29785305 0.19902536 0.41408750
v -0.32557940 0.28873557 0.33086234
v -0.32712212 0.24459308 0.36793488
v -0.24240042 0.08651149 0.48914596
v -0.36586183 0.08651149 0.37244806
v -0.35879099 0.26549643 0.29335997
v -0.35939094 0.28873557 0.27391031
v -0.32626504 0.08651149 0.44089794
v -0.30200988 0.08710533 0.45873576
v -0.29446763 0.08651149 0.46357131
v -0.27304080 0.08651149 0.47646609
v -0.34284943 0.28873557 0.31098285
v -0.34477782 0.23261720 0.34714204
v -0.34554923 0.08651149 0.42160946
v -0.35827672 0.08651149 0.39678699
v -0.34584919 0.28873557 0.30539513
v -0.35647690 0.17390570 0.35213876
v -0.30248126 0.08651149 0.45862830
v -0.34632057 0.08651149 0.42021254
f 1 2 9
f 1 9 11
f 1 11 3
f 1 3 12
f 1 12 19
f 1 19 27
f 1 27 32
f 1 32 31
f 1 31 43
f 1 43 51
f 1 51 60
f 1 60 56
f 1 56 46
f 1 46 44
f 1 44 33
f 1 33 28
f 1 28 20
f 1 20 13
f 1 13 4
f 1 4 5
f 1 5 6
f 1 6 7
f 1 7 8
f 1 8 2
f 2 8 10
f 2 10 17
f 2 17 22
f 2 22 21
f 2 21 29
f 2 29 38
f 2 38 48
f 2 48 55
f 2 55 54
f 2 54 62
f 2 62 52
f 2 52 58
f 2 58 63
f 2 63 59
f 2 59 49
f 2 49 39
f 2 39 30
f 2 30 25
f 2 25 23
f 2 23 16
f 2 16 9
f 3 11 16
f 3 16 23
f 3 23 24
f 3 24 18
f 3 18 12
f 4 13 5
f 5 13 6
f 6 13 14
f 6 14 15
f 6 15 7
f 7 15 8
f 8 15 10
f 9 16 11
f 10 15 17
f 12 18 19
f 13 20 14
f 14 21 22
f 14 22 17
f 14 17 15
f 14 20 21
f 18 24 25
f 18 25 26
f 18 26 27
f 18 27 19
f 20 28 21
f 21 28 29
f 23 25 24
f 25 30 26
f 26 31 32
f 26 32 27
f 26 30 31
f 28 33 34
f 28 34 35
f 28 35 36
f 28 36 37
f 28 37 29
f 29 37 38
f 30 39 40
f 30 40 41
f 30 41 42
f 30 42 31
f 31 42 43
f 33 44 34
f 34 45 36
f 34 36 35
f 34 44 46
f 34 46 47
f 34 47 45
f 36 45 37
f 37 48 38
f 37 45 48
f 39 49 50
f 39 50 40
f 40 50 51
f 40 51 43
f 40 43 41
f 41 43 42
f 45 47 52
f 45 52 53
f 45 53 54
f 45 54 55
f 45 55 48
f 46 56 47
f 47 56 57
f 47 57 58
f 47 58 52
f 49 59 50
f 50 60 51
f 50 59 61
f 50 61 57
f 50 57 60
f 52 62 53
f 53 62 54
f 56 60 57
f 57 61 59
f 57 59 63
f 57 63 58

