# https://github.com/mikedh/trimesh
v 0.39001289 -0.49815360 -0.04021537
v 0.42676684 -0.48407879 0.08091880
v 0.40782979 -0.48388597 0.08423754
v 0.36579207 -0.49786440 -0.03718946
v 0.45041704 -0.49699676 -0.22196543
v 0.44263932 -0.49603274 -0.16369219
v 0.44270271 -0.47395650 0.07603829
v 0.44285068 -0.45641115 0.13821594
v 0.42602712 -0.46431619 0.14436539
v 0.40689984 -0.46528023 0.14778173
v 0.45705348 -0.49179101 -0.16457067
v 0.38713852 -0.46055648 0.14875783
v 0.38832209 -0.47819820 0.08628736
v 0.28408372 -0.46287015 -0.02205989
v 0.42327955 -0.49092337 -0.22206305
v 0.43701738 -0.49632195 -0.22196543
v 0.45984331 -0.48793489 -0.22079411
v 0.45274192 -0.46180972 -0.34993231
v 0.45458066 -0.46547303 -0.33392426
v 0.45874429 -0.46017087 -0.34719923
v 0.46345741 -0.45641115 -0.34417331
v 0.45538378 -0.45805001 0.06959602
v 0.45639828 -0.44233635 0.12962624
v 0.46269655 -0.38844714 0.24275640
v 0.45035362 -0.40020829 0.25310308
v 0.42763340 -0.43587735 0.20234580
v 0.43384713 -0.40647447 0.26081428
v 0.40837932 -0.43607014 0.20615259
v 0.46601474 -0.47916225 -0.16710854
v 0.38876593 -0.43105721 0.20703109
v 0.36883551 -0.42286298 0.20634781
v 0.36672199 -0.45188022 0.14856261
v 0.28408372 -0.43115363 0.09321767
v 0.28408372 -0.40030470 -0.17599106
v 0.42245528 -0.46238813 -0.29761329
v 0.41091552 -0.48205432 -0.22323437
v 0.42947215 -0.47964424 -0.26549956
v 0.46884686 -0.45168743 -0.34114739
v 0.47472242 -0.44407159 -0.33860955
v 0.47474355 -0.44580686 -0.32572499
v 0.44587299 -0.46296656 -0.33626691
v 0.44449919 -0.45554355 -0.35227495
v 0.45079747 -0.45515794 -0.36174315
v 0.45658851 -0.45612195 -0.36154792
v 0.46140730 -0.45332628 -0.35871723
v 0.46559206 -0.45004857 -0.35549608
v 0.46559206 -0.43790182 0.06178721
v 0.46652201 -0.42401981 0.11957241
v 0.47013611 -0.35239246 0.29917505
v 0.45806795 -0.36241838 0.31020498
v 0.44122326 -0.36685291 0.31742814
v 0.41419145 -0.40493202 0.26403540
v 0.47985825 -0.43327448 -0.32416323
v 0.48467708 -0.41891044 -0.32387042
v 0.47106606 -0.46200252 -0.16984162
v 0.47000930 -0.45853204 -0.11371580
v 0.39436671 -0.39943707 0.26481628
v 0.37399247 -0.39153203 0.26384017
v 0.28408372 -0.38815793 0.20195536
v 0.28408372 -0.35798386 0.25378633
v 0.28408372 -0.41351190 0.14826979
v 0.28408372 -0.39480972 -0.18760666
v 0.47011498 -0.44619247 -0.35168931
v 0.47425744 -0.44195074 -0.34729683
v 0.47939327 -0.43288887 -0.33831671
v 0.28408372 -0.37292629 -0.22606505
v 0.28408372 -0.35846585 -0.24646558
v 0.28408372 -0.34699392 -0.26227841
v 0.44428787 -0.44185433 -0.36525711
v 0.45305893 -0.44233635 -0.37072328
v 0.28408372 -0.31894070 -0.29614913
v 0.28408372 -0.28751335 -0.32777482
v 0.28408372 -0.25030184 -0.35598415
v 0.46113253 -0.44108310 -0.36925912
v 0.46696585 -0.43857664 -0.36535472
v 0.47233415 -0.43578094 -0.35940048
v 0.47402495 -0.40223277 0.10815202
v 0.47711068 -0.33831766 0.28590006
v 0.48345122 -0.29233348 0.33636451
v 0.47639209 -0.30419105 0.35061559
v 0.46411258 -0.31277090 0.36174315
v 0.44701430 -0.31681982 0.36818540
v 0.42731637 -0.31595221 0.36994240
v 0.42144081 -0.36511767 0.31996602
v 0.48366258 -0.41958526 -0.33978087
v 0.48907316 -0.40213636 -0.32552978
v 0.48905203 -0.40223277 -0.30630058
v 0.47484922 -0.44011909 -0.11967002
v 0.40129903 -0.36010471 0.31996602
v 0.38020620 -0.35277808 0.31772098
v 0.28408372 -0.35595939 0.25642180
v 0.47713184 -0.43356368 -0.35032275
v 0.48087275 -0.42112771 -0.35325107
v 0.28408372 -0.23960114 -0.36281684
v 0.28408372 -0.20884863 -0.37980101
v 0.45857519 -0.42527303 -0.37716553
v 0.28408372 -0.16488892 -0.40000632
v 0.44733131 -0.42459822 -0.37540856
v 0.43240994 -0.17848173 -0.46823579
v 0.44900098 -0.18079539 -0.47428763
v 0.46546525 -0.18272345 -0.47809440
v 0.46912163 -0.23902272 -0.45505843
v 0.48482502 -0.24095078 -0.45417994
v 0.46795920 -0.42440543 -0.37248024
v 0.47871697 -0.40763131 -0.37043044
v 0.47569463 -0.42295936 -0.36447623
v 0.48034436 -0.37437233 0.09419377
v 0.48161247 -0.32270041 0.27184421
v 0.48734009 -0.27902991 0.32084450
v 0.48351464 -0.23786588 0.38028908
v 0.47639209 -0.24798818 0.39551625
v 0.46464097 -0.25579682 0.40713185
v 0.44766948 -0.25955653 0.41269562
v 0.40702665 -0.31190327 0.36877108
v 0.42858446 -0.25974932 0.41328129
v 0.48748803 -0.40329319 -0.34280679
v 0.49099645 -0.38324139 -0.34915143
v 0.49266613 -0.38102412 -0.33128878
v 0.49308884 -0.37977087 -0.31118110
v 0.28408372 -0.32077235 0.30083442
v 0.38570133 -0.30525148 0.36467144
v 0.48769939 -0.38613349 -0.36496428
v 0.28408372 -0.15920115 -0.40205613
v 0.28408372 -0.11620548 -0.41738090
v 0.28408372 -0.07292059 -0.43007022
v 0.42991599 -0.11861555 -0.48453668
v 0.44604206 -0.11890475 -0.49107656
v 0.46214703 -0.11919396 -0.49517620
v 0.48083046 -0.18330187 -0.47682548
v 0.49112326 -0.18127741 -0.46589315
v 0.49378628 -0.23844430 -0.44188106
v 0.48514202 -0.29011622 -0.42821562
v 0.48133773 -0.38815793 -0.37862968
v 0.48493069 -0.33118385 -0.40683901
v 0.48972836 -0.26302704 0.30288422
v 0.48955926 -0.21357237 0.34349003
v 0.48719215 -0.22668315 0.36330491
v 0.47920308 0.00265925 0.44168583
v 0.47355998 0.00024918 0.46150070
v 0.47243983 -0.06019541 0.45281339
v 0.47624415 -0.17906013 0.41406217
v 0.46899480 -0.18735078 0.43046066
v 0.45813137 -0.19409898 0.44363803
v 0.44192073 -0.19776230 0.44890898
v 0.40886542 -0.25714645 0.41025537
v 0.42340636 -0.19872633 0.44822571
v 0.49423012 -0.35779104 -0.36018139
v 0.49566731 -0.35470614 -0.34251395
v 0.49598435 -0.35200685 -0.32289430
v 0.28408372 -0.27690905 0.34134263
v 0.49357495 -0.32896659 -0.39317361
v 0.49059489 -0.36097234 -0.37638465
v 0.28408372 -0.02684002 -0.44139302
v 0.44466829 -0.05103714 -0.49459052
v 0.46092120 -0.04968750 -0.49859253
v 0.47738546 -0.11900116 -0.49185744
v 0.48839682 -0.11813353 -0.48141316
v 0.49577299 -0.04949469 -0.47018799
v 0.49528688 -0.17848173 -0.44968987
v 0.49759060 -0.23458819 -0.42558017
v 0.49416673 -0.28789896 -0.41552633
v 0.49230683 -0.23979394 0.27760321
v 0.49226457 -0.19535223 0.31645203
v 0.49196869 0.15574700 0.36750212
v 0.49017221 0.10831679 0.37814164
v 0.49568844 0.14437145 0.32670110
v 0.48336667 0.00506932 0.41845462
v 0.48425436 0.05963334 0.41630721
v 0.48579723 0.11304052 0.40918165
v 0.47954124 0.06059737 0.43983126
v 0.47275686 0.06088658 0.46023175
v 0.46601474 -0.00196809 0.47965616
v 0.46483117 -0.06472635 0.47028559
v 0.46436623 -0.12632778 0.45417994
v 0.45341823 -0.13143712 0.46804056
v 0.43665808 -0.13413641 0.47321391
v 0.41799578 -0.13529325 0.47282347
v 0.40455386 -0.19756949 0.44354042
v 0.28408372 -0.22976804 0.37560377
v 0.39929122 -0.13500403 0.46823579
v 0.49676633 -0.32520688 -0.37657988
v 0.49782309 -0.32144716 -0.35891244
v 0.49794990 -0.31797665 -0.33997607
v 0.49784422 -0.28394645 -0.39912781
v 0.43938452 0.02116860 -0.48668411
v 0.28408372 0.05722327 -0.43094873
v 0.45557401 0.02463910 -0.48971000
v 0.47142535 0.02656716 -0.48775780
v 0.47656119 -0.04891628 -0.49517620
v 0.48869273 -0.04891628 -0.48531756
v 0.49215889 0.02338587 -0.46423379
v 0.49651271 0.01981896 -0.44685918
v 0.49921802 -0.05026592 -0.45261818
v 0.49873191 -0.23073207 -0.40820557
v 0.49909121 -0.27980113 -0.38165560
v 0.49420899 -0.21077667 0.24627036
v 0.49435693 -0.17202273 0.28277653
v 0.49249706 0.19961029 0.35110363
v 0.48778391 0.21281749 0.38272932
v 0.48727667 0.16442324 0.39912781
v 0.49752721 0.13241750 0.28141001
v 0.49602661 0.18273979 0.31196198
v 0.48000622 0.11660743 0.43309614
v 0.47163671 0.11911391 0.45417994
v 0.46388012 0.06079017 0.47868007
v 0.45420024 -0.00399255 0.49322399
v 0.45373526 -0.06829325 0.48375580
v 0.43623537 -0.07002851 0.48844108
v 0.41691789 -0.07070333 0.48736736
v 0.39753699 -0.07089613 0.48287731
v 0.28408372 -0.12603857 0.42792282
v 0.28408372 -0.17472202 0.40693662
v 0.28408372 -0.17963855 0.40478921
v 0.28408372 -0.06993210 0.44480935
v 0.28408372 -0.08236807 0.44129539
v 0.49919689 -0.27575222 -0.36310968
v 0.49537143 -0.17877093 0.21288769
v 0.42340636 0.09761607 -0.46316007
v 0.28408372 0.09385636 -0.42538494
v 0.28408372 0.09568801 -0.42509210
v 0.28408372 0.12084916 -0.41982117
v 0.44122326 0.10195419 -0.46452659
v 0.45827931 0.10388225 -0.46306247
v 0.47315842 0.10166499 -0.45603451
v 0.48425436 0.02608515 -0.47887528
v 0.48419094 0.09655564 -0.44344282
v 0.49110213 0.27171963 -0.33499795
v 0.49809787 0.01567364 -0.42772758
v 0.49368063 0.25860885 -0.32143015
v 0.49997890 -0.05151916 -0.43338898
v 0.49556166 -0.14541554 0.24627036
v 0.48594517 0.25716281 0.35696024
v 0.49456829 0.21705921 0.29204950
v 0.49078512 0.23932827 0.32777482
v 0.47968918 0.27017719 0.37892252
v 0.48083046 0.22245777 0.40713185
v 0.48038661 0.17068943 0.42362797
v 0.49809787 0.12248801 0.23387387
v 0.49750608 0.16461605 0.26881829
v 0.49651271 0.19334410 0.25339589
v 0.49313110 0.31943905 0.12445291
v 0.49110213 0.35414407 0.13509242
v 0.49048921 0.34276855 0.18038352
v 0.47117174 0.17560598 0.44539502
v 0.46117482 0.12075275 0.47292107
v 0.45048046 0.06011535 0.49185744
v 0.43226197 0.05857291 0.49781165
v 0.43631992 -0.00563139 0.49859253
v 0.41685447 -0.00669183 0.49634752
v 0.39683953 -0.00755945 0.49029568
v 0.28408372 -0.01286161 0.45281339
v 0.28408372 0.13347793 -0.41630721
v 0.28408372 0.17271389 -0.40264177
v 0.28408372 0.18312541 -0.39805409
v 0.28408372 0.21320309 -0.38331497
v 0.42706275 0.17560598 -0.42479929
v 0.44750041 0.17473835 -0.42616582
v 0.46586680 0.23364051 -0.39063573
v 0.48045003 0.22534986 -0.38224128
v 0.48218310 0.28251675 -0.34583268
v 0.48710760 0.31712538 -0.29243994
v 0.48330328 0.39096996 -0.20449322
v 0.48765713 0.40581602 -0.14817217
v 0.49518120 0.24520883 -0.30698386
v 0.49640703 0.23055561 -0.29019493
v 0.49010879 0.38875270 -0.14212035
v 0.49234909 0.37053257 -0.13567808
v 0.49718904 0.21117863 -0.26628044
v 0.49759060 0.18900597 -0.23611890
v 0.48089388 0.37207499 0.25339589
v 0.47766021 0.31336567 0.34407571
v 0.48465592 0.39019874 0.20078404
v 0.48782620 0.36927933 0.19190152
v 0.47195372 0.28126350 0.39795649
v 0.47100264 0.32772970 0.36086464
v 0.47203827 0.23065200 0.42831326
v 0.49778083 0.14986642 0.22352719
v 0.49342698 0.32618725 0.08277339
v 0.49615341 0.28646928 -0.10229541
v 0.49547711 0.31780019 -0.11537518
v 0.49150372 0.36021745 0.08931327
v 0.48852366 0.38094407 0.14270601
v 0.46121708 0.23759301 0.44666395
v 0.46003354 0.17936569 0.46442899
v 0.44253364 0.18119735 0.47682548
v 0.44523895 0.12084916 0.48492712
v 0.42319500 0.18167935 0.48531756
v 0.41275427 0.05625924 0.49566424
v 0.42636529 0.11978872 0.49195504
v 0.40660396 0.11737865 0.48990524
v 0.28408372 0.04440169 0.45037314
v 0.39250684 0.05384917 0.48873392
v 0.28408372 0.21773402 -0.38067952
v 0.42516059 0.23894265 -0.38760981
v 0.44629571 0.23730381 -0.39053813
v 0.46681789 0.28965056 -0.35227495
v 0.47761792 0.32792249 -0.30102965
v 0.47277799 0.40224910 -0.21064267
v 0.48304966 0.42191529 -0.15402879
v 0.47992167 0.42818147 0.09995277
v 0.48552245 0.40841889 0.09702447
v 0.48886180 0.38672823 0.09380333
v 0.49429354 0.34787789 -0.12708838
v 0.47446880 0.39010233 0.26354736
v 0.47077015 0.36494118 0.31674486
v 0.47742772 0.34807068 0.30307946
v 0.47909740 0.40909371 0.20849523
v 0.48539567 0.40273112 0.14866023
v 0.48013300 0.42249370 0.15393117
v 0.46202022 0.29090381 0.41464782
v 0.46172434 0.33978006 0.37618944
v 0.46174547 0.38046205 0.32914135
v 0.44380176 0.24222036 0.45964611
v 0.42406157 0.24491963 0.46833339
v 0.40258828 0.17965490 0.48287731
v 0.38599721 0.11458297 0.48297492
v 0.38113615 0.17695563 0.47584939
v 0.28408372 0.10147218 0.44227150
v 0.28408372 0.25427070 -0.35832679
v 0.28408372 0.25581315 -0.35725307
v 0.42644984 0.29244626 -0.35042036
v 0.44724679 0.29206064 -0.35247019
v 0.44433013 0.33611673 -0.30708146
v 0.46269655 0.33438149 -0.30620298
v 0.45783547 0.40890089 -0.21386379
v 0.47136194 0.43415844 -0.15871407
v 0.47419405 0.43791816 -0.09907428
v 0.47022063 0.44563037 0.10258824
v 0.47070676 0.43984622 0.15851885
v 0.46491572 0.40629801 0.27242988
v 0.46950203 0.42577139 0.21532795
v 0.44483736 0.29678437 0.42616582
v 0.44526008 0.34749228 0.38692656
v 0.44728905 0.39203039 0.33860955
v 0.42444199 0.29967645 0.43290094
v 0.40172175 0.29774839 0.43182722
v 0.40208104 0.24231675 0.46540511
v 0.37885356 0.23797862 0.45827955
v 0.28408372 0.15767504 0.43114394
v 0.28408372 0.12547649 0.43758622
v 0.28408372 0.29495272 -0.32738438
v 0.28408372 0.33322465 -0.29048774
v 0.42446312 0.33602035 -0.30620298
v 0.42173669 0.37429228 -0.25974056
v 0.44126552 0.37419587 -0.26081428
v 0.45870200 0.37197861 -0.26013100
v 0.44008198 0.41092536 -0.21405901
v 0.45483428 0.43974981 -0.16144715
v 0.44538689 0.45690951 -0.10502850
v 0.46174547 0.45016131 -0.10229541
v 0.45248827 0.46433255 0.00136654
v 0.46597248 0.44987211 0.00087849
v 0.46798033 0.44823328 0.05036683
v 0.45580649 0.45893398 0.10502850
v 0.45671532 0.45324621 0.16222803
v 0.45060727 0.41834837 0.27867693
v 0.45479202 0.43801457 0.22011085
v 0.42513946 0.35183039 0.39317361
v 0.42811951 0.39781457 0.34368527
v 0.40258828 0.35115558 0.39385688
v 0.37836745 0.34681746 0.39092857
v 0.37752205 0.29331386 0.42694670
v 0.35256147 0.28560165 0.41738090
v 0.35433683 0.23142323 0.44666395
v 0.28408372 0.21098582 0.41357413
v 0.28408372 0.36725485 -0.24851538
v 0.41996133 0.41053975 -0.21298531
v 0.43591836 0.44090664 -0.16261847
v 0.42672458 0.45931959 -0.10717592
v 0.41816485 0.47262320 -0.05231903
v 0.43739781 0.46857426 -0.05095249
v 0.45405227 0.45980161 -0.04939073
v 0.43454456 0.47320160 0.00195220
v 0.39170370 0.47927499 0.17355081
v 0.43188155 0.42384335 0.28150761
v 0.40673077 0.39733255 0.34475899
v 0.36393216 0.48669800 0.17921220
v 0.35323781 0.33756277 0.38282692
v 0.38401052 0.39145198 0.34290439
v 0.28408372 0.25976568 0.38653612
v 0.28408372 0.37467790 -0.23719262
v 0.39500079 0.40812966 -0.21103311
v 0.41529047 0.43936419 -0.16261847
v 0.40607557 0.45806634 -0.10854246
v 0.39686066 0.47252679 -0.05309991
v 0.33218724 0.48660159 0.11752260
v 0.41425487 0.47705773 0.00234264
v 0.36541161 0.48592678 0.11254448
v 0.28408372 0.46163327 0.12435530
v 0.33347645 0.46847787 0.18272616
v 0.28408372 0.34604624 0.31606159
v 0.28408372 0.30546063 0.35383672
v 0.28408372 0.37805200 0.27203944
v 0.28408372 0.39627212 -0.20263863
v 0.38950565 0.43531528 -0.16154477
v 0.38077685 0.45353541 -0.10834724
v 0.37135059 0.46809226 -0.05270947
v 0.28408372 0.41950521 -0.15383357
v 0.28408372 0.44852248 -0.04714569
v 0.28408372 0.43425485 0.17930980
v 0.28408372 0.43647212 -0.10170975
v 0.28408372 0.44408795 -0.06949841
f 1 2 3
f 1 3 4
f 1 4 5
f 1 5 6
f 1 6 2
f 2 7 8
f 2 8 9
f 2 9 10
f 2 10 3
f 2 6 11
f 2 11 7
f 3 10 12
f 3 12 13
f 3 13 4
f 4 13 14
f 4 14 15
f 4 15 16
f 4 16 5
f 5 17 11
f 5 11 6
f 5 16 18
f 5 18 19
f 5 19 20
f 5 20 21
f 5 21 17
f 7 22 23
f 7 23 8
f 7 11 22
f 8 23 24
f 8 24 25
f 8 25 9
f 9 26 10
f 9 25 27
f 9 27 26
f 10 26 27
f 10 27 28
f 10 28 12
f 11 17 29
f 11 29 22
f 12 28 30
f 12 30 31
f 12 31 32
f 12 32 13
f 13 32 14
f 14 32 33
f 14 33 61
f 14 61 59
f 14 59 60
f 14 60 91
f 14 91 120
f 14 120 150
f 14 150 179
f 14 179 213
f 14 213 212
f 14 212 211
f 14 211 215
f 14 215 214
f 14 214 251
f 14 251 291
f 14 291 318
f 14 318 340
f 14 340 339
f 14 339 365
f 14 365 380
f 14 380 392
f 14 392 391
f 14 391 393
f 14 393 400
f 14 400 389
f 14 389 399
f 14 399 402
f 14 402 401
f 14 401 398
f 14 398 394
f 14 394 381
f 14 381 366
f 14 366 342
f 14 342 341
f 14 341 320
f 14 320 319
f 14 319 293
f 14 293 255
f 14 255 254
f 14 254 253
f 14 253 252
f 14 252 221
f 14 221 220
f 14 220 219
f 14 219 186
f 14 186 153
f 14 153 125
f 14 125 124
f 14 124 123
f 14 123 97
f 14 97 95
f 14 95 94
f 14 94 73
f 14 73 72
f 14 72 71
f 14 71 68
f 14 68 67
f 14 67 66
f 14 66 62
f 14 62 34
f 14 34 35
f 14 35 36
f 14 36 15
f 15 36 37
f 15 37 16
f 16 37 18
f 17 21 38
f 17 38 39
f 17 39 40
f 17 40 29
f 18 41 42
f 18 42 43
f 18 43 44
f 18 44 20
f 18 20 19
f 18 37 41
f 20 44 45
f 20 45 21
f 21 45 46
f 21 46 38
f 22 47 48
f 22 48 23
f 22 29 47
f 23 48 49
f 23 49 24
f 24 49 25
f 25 49 50
f 25 50 27
f 27 50 51
f 27 51 52
f 27 52 28
f 28 52 30
f 29 40 53
f 29 53 54
f 29 54 55
f 29 55 56
f 29 56 47
f 30 52 57
f 30 57 58
f 30 58 31
f 31 59 32
f 31 58 60
f 31 60 59
f 32 59 61
f 32 61 33
f 34 62 35
f 35 37 36
f 35 62 42
f 35 42 41
f 35 41 37
f 38 46 63
f 38 63 64
f 38 64 39
f 39 64 65
f 39 65 40
f 40 65 53
f 42 62 66
f 42 66 67
f 42 67 68
f 42 68 43
f 43 69 70
f 43 70 44
f 43 68 71
f 43 71 72
f 43 72 73
f 43 73 69
f 44 70 74
f 44 74 75
f 44 75 45
f 45 75 46
f 46 75 76
f 46 76 63
f 47 56 48
f 48 56 77
f 48 77 78
f 48 78 49
f 49 78 79
f 49 79 80
f 49 80 50
f 50 80 81
f 50 81 51
f 51 81 82
f 51 82 83
f 51 83 84
f 51 84 52
f 52 84 57
f 53 65 54
f 54 65 85
f 54 85 86
f 54 86 87
f 54 87 55
f 55 88 56
f 55 87 88
f 56 88 77
f 57 84 89
f 57 89 58
f 58 89 90
f 58 90 91
f 58 91 60
f 63 76 64
f 64 76 92
f 64 92 65
f 65 92 93
f 65 93 85
f 69 73 94
f 69 94 95
f 69 95 70
f 70 96 74
f 70 95 97
f 70 97 98
f 70 98 99
f 70 99 100
f 70 100 101
f 70 101 102
f 70 102 103
f 70 103 96
f 74 104 75
f 74 96 103
f 74 103 104
f 75 104 105
f 75 105 106
f 75 106 76
f 76 106 92
f 77 107 108
f 77 108 78
f 77 88 107
f 78 108 79
f 79 108 109
f 79 109 110
f 79 110 80
f 80 110 111
f 80 111 112
f 80 112 81
f 81 112 82
f 82 112 113
f 82 113 83
f 83 114 89
f 83 89 84
f 83 113 115
f 83 115 114
f 85 93 116
f 85 116 86
f 86 116 117
f 86 117 118
f 86 118 119
f 86 119 87
f 87 119 107
f 87 107 88
f 89 114 90
f 90 120 91
f 90 114 121
f 90 121 120
f 92 106 93
f 93 106 105
f 93 105 122
f 93 122 116
f 97 123 99
f 97 99 98
f 99 123 124
f 99 124 125
f 99 125 126
f 99 126 127
f 99 127 100
f 100 127 101
f 101 127 128
f 101 128 129
f 101 129 103
f 101 103 102
f 103 129 130
f 103 130 131
f 103 131 132
f 103 132 104
f 104 133 105
f 104 132 134
f 104 134 133
f 105 133 122
f 107 109 108
f 107 119 109
f 109 135 136
f 109 136 137
f 109 137 110
f 109 119 135
f 110 138 139
f 110 139 140
f 110 140 141
f 110 141 142
f 110 142 111
f 110 137 138
f 111 142 143
f 111 143 112
f 112 143 113
f 113 143 144
f 113 144 115
f 114 115 145
f 114 145 121
f 115 144 146
f 115 146 145
f 116 122 117
f 117 122 147
f 117 147 118
f 118 147 148
f 118 148 119
f 119 148 149
f 119 149 135
f 120 121 150
f 121 145 150
f 122 133 151
f 122 151 152
f 122 152 147
f 125 153 126
f 126 153 127
f 127 154 128
f 127 153 154
f 128 154 155
f 128 155 156
f 128 156 129
f 129 156 157
f 129 157 130
f 130 157 158
f 130 158 159
f 130 159 131
f 131 159 160
f 131 160 161
f 131 161 132
f 132 161 134
f 133 134 151
f 134 161 151
f 135 162 163
f 135 163 136
f 135 149 162
f 136 164 165
f 136 165 137
f 136 163 166
f 136 166 164
f 137 165 167
f 137 167 138
f 138 167 168
f 138 168 169
f 138 169 170
f 138 170 139
f 139 171 172
f 139 172 140
f 139 170 171
f 140 172 173
f 140 173 142
f 140 142 141
f 142 173 174
f 142 174 175
f 142 175 143
f 143 175 144
f 144 175 176
f 144 176 177
f 144 177 146
f 145 146 178
f 145 178 179
f 145 179 150
f 146 177 180
f 146 180 178
f 147 152 151
f 147 151 181
f 147 181 148
f 148 181 182
f 148 182 149
f 149 182 183
f 149 183 162
f 151 161 184
f 151 184 181
f 153 185 154
f 153 186 185
f 154 185 155
f 155 185 187
f 155 187 188
f 155 188 189
f 155 189 156
f 156 189 190
f 156 190 157
f 157 190 158
f 158 190 191
f 158 191 192
f 158 192 193
f 158 193 159
f 159 193 160
f 160 194 195
f 160 195 184
f 160 184 161
f 160 193 194
f 162 196 197
f 162 197 163
f 162 183 196
f 163 197 166
f 164 166 198
f 164 198 199
f 164 199 200
f 164 200 169
f 164 169 165
f 165 169 168
f 165 168 167
f 166 197 201
f 166 201 202
f 166 202 198
f 169 200 170
f 170 200 203
f 170 203 171
f 171 204 205
f 171 205 172
f 171 203 204
f 172 205 206
f 172 206 207
f 172 207 173
f 173 207 175
f 173 175 174
f 175 207 176
f 176 207 208
f 176 208 177
f 177 208 209
f 177 209 210
f 177 210 180
f 178 211 212
f 178 212 213
f 178 213 179
f 178 180 211
f 180 210 214
f 180 214 215
f 180 215 211
f 181 195 182
f 181 184 195
f 182 195 183
f 183 195 216
f 183 216 217
f 183 217 196
f 185 218 187
f 185 186 219
f 185 219 220
f 185 220 221
f 185 221 218
f 187 218 222
f 187 222 223
f 187 223 188
f 188 223 224
f 188 224 225
f 188 225 189
f 189 225 190
f 190 225 191
f 191 225 226
f 191 226 227
f 191 227 192
f 192 228 193
f 192 227 229
f 192 229 228
f 193 228 230
f 193 230 194
f 194 230 195
f 195 230 216
f 196 217 231
f 196 231 197
f 197 231 201
f 198 232 199
f 198 202 233
f 198 233 234
f 198 234 232
f 199 235 236
f 199 236 200
f 199 232 235
f 200 236 237
f 200 237 203
f 201 231 238
f 201 238 239
f 201 239 202
f 202 239 240
f 202 240 241
f 202 241 242
f 202 242 243
f 202 243 233
f 203 237 204
f 204 237 244
f 204 244 205
f 205 244 245
f 205 245 246
f 205 246 206
f 206 246 247
f 206 247 248
f 206 248 207
f 207 248 208
f 208 248 209
f 209 248 249
f 209 249 210
f 210 249 250
f 210 250 251
f 210 251 214
f 216 230 238
f 216 238 231
f 216 231 217
f 218 221 252
f 218 252 253
f 218 253 254
f 218 254 222
f 222 254 255
f 222 255 256
f 222 256 257
f 222 257 223
f 223 257 258
f 223 258 224
f 224 226 225
f 224 258 259
f 224 259 226
f 226 259 227
f 227 259 260
f 227 260 261
f 227 261 262
f 227 262 263
f 227 263 229
f 228 229 264
f 228 264 265
f 228 265 230
f 229 263 266
f 229 266 267
f 229 267 264
f 230 265 268
f 230 268 269
f 230 269 238
f 232 270 271
f 232 271 235
f 232 234 272
f 232 272 270
f 233 243 273
f 233 273 234
f 234 273 272
f 235 274 236
f 235 271 275
f 235 275 274
f 236 274 276
f 236 276 237
f 237 276 244
f 238 277 239
f 238 269 277
f 239 278 241
f 239 241 240
f 239 277 279
f 239 279 280
f 239 280 278
f 241 278 281
f 241 281 242
f 242 281 282
f 242 282 273
f 242 273 243
f 244 283 284
f 244 284 245
f 244 276 283
f 245 284 246
f 246 284 285
f 246 285 286
f 246 286 287
f 246 287 247
f 247 288 248
f 247 287 289
f 247 289 290
f 247 290 288
f 248 288 249
f 249 288 250
f 250 288 251
f 251 288 292
f 251 292 291
f 255 293 256
f 256 293 294
f 256 294 295
f 256 295 257
f 257 295 258
f 258 295 296
f 258 296 260
f 258 260 259
f 260 296 297
f 260 297 261
f 261 297 262
f 262 297 298
f 262 298 299
f 262 299 263
f 263 299 300
f 263 300 301
f 263 301 302
f 263 302 266
f 264 267 303
f 264 303 265
f 265 303 280
f 265 280 268
f 266 302 267
f 267 302 281
f 267 281 303
f 268 280 279
f 268 279 269
f 269 279 277
f 270 304 305
f 270 305 306
f 270 306 271
f 270 272 307
f 270 307 304
f 271 306 275
f 272 273 308
f 272 308 309
f 272 309 307
f 273 282 308
f 274 310 276
f 274 275 311
f 274 311 310
f 275 306 305
f 275 305 312
f 275 312 311
f 276 310 283
f 278 280 303
f 278 303 281
f 281 302 282
f 282 302 308
f 283 313 284
f 283 310 313
f 284 313 285
f 285 314 287
f 285 287 286
f 285 313 314
f 287 314 315
f 287 315 290
f 287 290 289
f 288 290 316
f 288 316 292
f 290 315 317
f 290 317 316
f 291 292 316
f 291 316 317
f 291 317 318
f 293 319 294
f 294 319 320
f 294 320 321
f 294 321 322
f 294 322 295
f 295 322 296
f 296 322 323
f 296 323 324
f 296 324 297
f 297 324 298
f 298 324 325
f 298 325 326
f 298 326 299
f 299 326 327
f 299 327 328
f 299 328 300
f 300 328 329
f 300 329 309
f 300 309 301
f 301 309 308
f 301 308 302
f 304 330 312
f 304 312 305
f 304 307 330
f 307 309 329
f 307 329 331
f 307 331 330
f 310 332 313
f 310 311 333
f 310 333 332
f 311 312 334
f 311 334 333
f 312 330 334
f 313 332 314
f 314 335 336
f 314 336 337
f 314 337 315
f 314 332 335
f 315 337 338
f 315 338 317
f 317 338 339
f 317 339 340
f 317 340 318
f 320 341 321
f 321 341 342
f 321 342 343
f 321 343 322
f 322 343 323
f 323 343 344
f 323 344 345
f 323 345 324
f 324 345 346
f 324 346 325
f 325 347 348
f 325 348 326
f 325 346 345
f 325 345 347
f 326 348 349
f 326 349 350
f 326 350 327
f 327 350 351
f 327 351 352
f 327 352 353
f 327 353 328
f 328 354 355
f 328 355 329
f 328 353 351
f 328 351 354
f 329 355 331
f 330 356 334
f 330 331 356
f 331 355 357
f 331 357 356
f 332 333 358
f 332 358 335
f 333 334 359
f 333 359 358
f 334 356 359
f 335 358 360
f 335 360 336
f 336 360 361
f 336 361 362
f 336 362 337
f 337 362 338
f 338 362 363
f 338 363 364
f 338 364 339
f 339 364 365
f 342 366 344
f 342 344 343
f 344 366 367
f 344 367 347
f 344 347 345
f 347 367 368
f 347 368 348
f 348 368 369
f 348 369 349
f 349 369 370
f 349 370 371
f 349 371 350
f 350 371 372
f 350 372 351
f 351 353 352
f 351 372 371
f 351 371 373
f 351 373 354
f 354 374 355
f 354 373 374
f 355 374 357
f 356 375 359
f 356 357 374
f 356 374 375
f 358 359 376
f 358 376 360
f 359 375 377
f 359 377 376
f 360 376 361
f 361 378 362
f 361 376 379
f 361 379 378
f 362 378 363
f 363 365 364
f 363 378 380
f 363 380 365
f 366 381 367
f 367 381 382
f 367 382 383
f 367 383 368
f 368 383 384
f 368 384 369
f 369 384 385
f 369 385 370
f 370 385 386
f 370 386 387
f 370 387 373
f 370 373 371
f 373 387 377
f 373 377 374
f 374 377 375
f 376 377 379
f 377 387 388
f 377 388 386
f 377 386 389
f 377 389 390
f 377 390 379
f 378 379 391
f 378 391 392
f 378 392 380
f 379 393 391
f 379 390 393
f 381 394 382
f 382 394 383
f 383 394 395
f 383 395 384
f 384 396 397
f 384 397 385
f 384 395 398
f 384 398 396
f 385 397 386
f 386 397 399
f 386 399 389
f 386 388 387
f 389 400 390
f 390 400 393
f 394 398 395
f 396 398 401
f 396 401 397
f 397 401 402
f 397 402 399

