# https://github.com/mikedh/trimesh
v 0.07060975 0.11330152 -0.43598467
v 0.07060975 0.18140563 -0.46739227
v 0.13421050 0.18080117 -0.47194284
v 0.07404113 0.11330152 -0.43589544
v 0.07060975 0.11330152 0.43861097
v 0.07060975 0.27640888 -0.35996389
v 0.07279534 0.27647603 -0.36014235
v 0.11979651 0.11330152 -0.43098795
v 0.18224981 0.33746079 -0.28492463
v 0.18224981 0.30596095 -0.31731373
v 0.18224981 0.30233410 -0.32097203
v 0.18224981 0.26609921 -0.35184431
v 0.18224981 0.20054734 -0.40332782
v 0.18224981 0.16411096 -0.42848963
v 0.18224981 0.16018188 -0.42956036
v 0.18224981 0.11726418 -0.42277914
v 0.14180543 0.11330152 -0.42795432
v 0.14180543 0.11330152 0.43870020
v 0.18224981 0.11726418 0.43959242
v 0.18224981 0.19809586 0.40559721
v 0.18180177 0.19806227 0.40559721
v 0.07060975 0.18956605 0.40416962
v 0.07060975 0.27781931 -0.35835785
v 0.07060975 0.34360629 -0.27885723
v 0.18224981 0.36949793 -0.24396978
v 0.18224981 0.24675605 0.38043547
v 0.07060975 0.23802474 0.37856168
v 0.07060975 0.44435203 -0.14894384
v 0.18224981 0.39703509 -0.19846441
v 0.18224981 0.29158789 0.34884936
v 0.07060975 0.28305808 0.34706485
v 0.18224981 0.43515056 -0.09665726
v 0.18224981 0.41913199 -0.14912230
v 0.18224981 0.40160224 -0.18847106
v 0.07060975 0.45617285 0.12301774
v 0.08124265 0.45637435 0.12346387
v 0.18224981 0.45234451 0.12515917
v 0.18224981 0.44535947 -0.02599008
v 0.18224981 0.44455349 -0.04222926
v 0.18224981 0.29501325 0.34563720
v 0.07060975 0.32402802 0.30967903
v 0.07060975 0.29497966 0.33626842
v 0.07060975 0.44384831 0.16905847
v 0.08433527 0.43958339 0.18654682
v 0.13047312 0.43948263 0.18458384
v 0.14180543 0.43897891 0.18306699
v 0.17654541 0.43736696 0.17842723
v 0.18224981 0.43662816 0.17807032
v 0.18224981 0.33108023 0.31101745
v 0.07060975 0.43901250 0.18583301
f 1 2 3
f 1 3 4
f 1 4 8
f 1 8 17
f 1 17 18
f 1 18 5
f 1 5 22
f 1 22 27
f 1 27 31
f 1 31 42
f 1 42 41
f 1 41 50
f 1 50 43
f 1 43 35
f 1 35 28
f 1 28 24
f 1 24 23
f 1 23 6
f 1 6 2
f 2 6 7
f 2 7 3
f 3 8 4
f 3 7 9
f 3 9 10
f 3 10 11
f 3 11 12
f 3 12 13
f 3 13 14
f 3 14 15
f 3 15 16
f 3 16 17
f 3 17 8
f 5 18 19
f 5 19 20
f 5 20 21
f 5 21 22
f 6 23 7
f 7 23 24
f 7 24 9
f 9 24 25
f 9 25 29
f 9 29 34
f 9 34 33
f 9 33 32
f 9 32 39
f 9 39 38
f 9 38 37
f 9 37 48
f 9 48 49
f 9 49 40
f 9 40 30
f 9 30 26
f 9 26 20
f 9 20 19
f 9 19 16
f 9 16 15
f 9 15 14
f 9 14 13
f 9 13 12
f 9 12 11
f 9 11 10
f 16 19 18
f 16 18 17
f 20 26 21
f 21 26 22
f 22 26 27
f 24 28 25
f 25 28 29
f 26 30 31
f 26 31 27
f 28 32 33
f 28 33 34
f 28 34 29
f 28 35 36
f 28 36 37
f 28 37 38
f 28 38 39
f 28 39 32
f 30 40 41
f 30 41 42
f 30 42 31
f 35 43 44
f 35 44 36
f 36 44 45
f 36 45 37
f 37 45 46
f 37 46 47
f 37 47 48
f 40 49 41
f 41 44 50
f 41 49 44
f 43 50 44
f 44 49 45
f 45 49 46
f 46 49 47
f 47 49 48

