# https://github.com/mikedh/trimesh
v 0.07060277 0.28873557 -0.05619650
v 0.07060277 0.08651729 -0.05619650
v 0.07060277 0.28873557 -0.15243948
v -0.30253142 0.28873557 -0.05619650
v -0.26860294 0.08651729 -0.05619650
v 0.07060277 -0.00088477 -0.08670107
v 0.07060277 -0.00088477 -0.15243948
v -0.29884529 0.28873557 -0.15243948
v -0.30752558 0.27110207 -0.15243948
v -0.33364576 0.21420425 -0.15243948
v -0.33253598 0.21170948 -0.14253820
v -0.30796158 0.24720329 -0.05619650
v -0.26234043 -0.00088477 -0.08670107
v -0.28172249 0.12677383 -0.05619650
v -0.28013706 -0.00088477 -0.15243948
v -0.33431959 0.20660654 -0.15243948
f 1 2 6
f 1 6 7
f 1 7 3
f 1 3 8
f 1 8 4
f 1 4 12
f 1 12 14
f 1 14 5
f 1 5 2
f 2 5 13
f 2 13 6
f 3 7 15
f 3 15 16
f 3 16 10
f 3 10 9
f 3 9 8
f 4 8 9
f 4 9 10
f 4 10 11
f 4 11 12
f 5 14 13
f 6 13 15
f 6 15 7
f 10 16 11
f 11 14 12
f 11 16 13
f 11 13 14
f 13 16 15

