# https://github.com/mikedh/trimesh
v -0.06980434 0.02478188 -0.15243948
v -0.06980434 0.02478188 -0.44048825
v -0.28094381 0.02478188 -0.15243948
v -0.06980434 -0.40704882 -0.15243948
v -0.19594353 0.02478188 -0.45856863
v -0.06980434 -0.00547753 -0.45514286
v -0.34365040 0.02478188 -0.29609907
v -0.30868232 -0.04891880 -0.17413591
v -0.29567516 -0.04565731 -0.15243948
v -0.22582974 -0.43798772 -0.15243948
v -0.22123186 -0.43526980 -0.18714109
v -0.06980434 -0.40365145 -0.20227149
v -0.30344921 0.02478188 -0.47163725
v -0.06980434 -0.03664289 -0.46722817
v -0.34619135 0.02478188 -0.30269682
v -0.36887825 -0.10667440 -0.29502061
v -0.36542982 -0.14227903 -0.28061974
v -0.32144749 -0.34381211 -0.15243948
v -0.30853108 -0.18984246 -0.15243948
v -0.25120884 -0.43739885 -0.15243948
v -0.24609672 -0.35839823 -0.33631995
v -0.20217486 -0.34911203 -0.34402791
v -0.06980434 -0.40279078 -0.21264392
v -0.26920712 -0.42915452 -0.18974212
v -0.30804709 0.02478188 -0.47135174
v -0.30792609 0.01603927 -0.47335011
v -0.28523919 -0.10395649 -0.46193093
v -0.23913939 -0.04665387 -0.47452375
v -0.27906835 -0.04751454 -0.47649038
v -0.06980434 -0.22975045 -0.38174292
v -0.26116082 -0.30924934 -0.38945088
v -0.28418046 -0.16683082 -0.44220114
v -0.36881775 0.02478188 -0.38773799
v -0.37879997 -0.11872380 -0.32420295
v -0.32057026 -0.35998368 -0.15243948
v -0.26681742 -0.43440914 -0.15243948
v -0.27555943 -0.35391366 -0.31934980
v -0.29419294 -0.30603313 -0.37127534
v -0.06980434 -0.37579286 -0.24452245
v -0.06980434 -0.39740026 -0.22051045
v -0.28408971 -0.42448875 -0.15243948
v -0.29334599 -0.41715038 -0.15243948
v -0.29328549 -0.41044623 -0.18761688
v -0.29606840 -0.34779838 -0.30241135
v -0.31288695 0.02478188 -0.47062218
v -0.33460587 0.01526919 -0.46846524
v -0.33545285 0.02478188 -0.46637172
v -0.32253647 -0.16488299 -0.43855333
v -0.30804709 -0.04592909 -0.46675235
v -0.30571789 -0.25964749 -0.39547765
v -0.27401674 -0.25914919 -0.40784842
v -0.36972523 0.02478188 -0.39325726
v -0.37613803 -0.14495164 -0.39189330
v -0.37365761 -0.19781500 -0.36800820
v -0.31966278 -0.37203306 -0.15243948
v -0.31349194 -0.30299816 -0.34875417
v -0.35998499 -0.20311493 -0.38234562
v -0.31034601 -0.39590538 -0.15243948
v -0.35686931 -0.24587673 -0.33939680
v -0.32749733 -0.29837769 -0.32689914
v -0.35429811 0.01585807 -0.44924295
v -0.33971801 0.02478188 -0.46367553
v -0.34906501 -0.15949246 -0.42694384
v -0.36866650 -0.15238060 -0.41070324
v -0.36745653 0.02478188 -0.41485855
v -0.36636755 0.02478188 -0.42021921
v -0.35584083 0.02478188 -0.44791073
v -0.31748486 -0.38362950 -0.15243948
f 1 2 5
f 1 5 13
f 1 13 25
f 1 25 45
f 1 45 47
f 1 47 62
f 1 62 67
f 1 67 66
f 1 66 65
f 1 65 52
f 1 52 33
f 1 33 15
f 1 15 7
f 1 7 3
f 1 3 9
f 1 9 19
f 1 19 18
f 1 18 35
f 1 35 55
f 1 55 68
f 1 68 58
f 1 58 42
f 1 42 41
f 1 41 36
f 1 36 20
f 1 20 10
f 1 10 4
f 1 4 12
f 1 12 23
f 1 23 40
f 1 40 39
f 1 39 30
f 1 30 14
f 1 14 6
f 1 6 2
f 2 6 5
f 3 7 8
f 3 8 9
f 4 10 11
f 4 11 12
f 5 6 13
f 6 14 13
f 7 15 16
f 7 16 8
f 8 16 17
f 8 17 18
f 8 18 19
f 8 19 9
f 10 20 11
f 11 21 22
f 11 22 23
f 11 23 12
f 11 20 24
f 11 24 21
f 13 14 26
f 13 26 25
f 14 27 28
f 14 28 29
f 14 29 26
f 14 30 31
f 14 31 32
f 14 32 27
f 15 33 16
f 16 34 17
f 16 33 34
f 17 34 18
f 18 34 35
f 20 36 24
f 21 37 38
f 21 38 31
f 21 31 22
f 21 24 37
f 22 39 40
f 22 40 23
f 22 31 30
f 22 30 39
f 24 36 41
f 24 41 42
f 24 42 43
f 24 43 44
f 24 44 37
f 25 26 45
f 26 46 47
f 26 47 45
f 26 29 46
f 27 29 28
f 27 32 48
f 27 48 29
f 29 49 46
f 29 48 49
f 31 38 50
f 31 50 48
f 31 48 51
f 31 51 32
f 32 51 48
f 33 52 34
f 34 53 54
f 34 54 55
f 34 55 35
f 34 52 53
f 37 44 38
f 38 44 56
f 38 56 57
f 38 57 50
f 42 58 43
f 43 58 59
f 43 59 60
f 43 60 44
f 44 60 56
f 46 61 62
f 46 62 47
f 46 49 48
f 46 48 63
f 46 63 64
f 46 64 61
f 48 50 63
f 50 57 63
f 52 65 53
f 53 65 66
f 53 66 67
f 53 67 64
f 53 64 54
f 54 64 57
f 54 57 56
f 54 56 59
f 54 59 68
f 54 68 55
f 56 60 59
f 57 64 63
f 58 68 59
f 61 67 62
f 61 64 67

