# https://github.com/mikedh/trimesh
v -0.34313232 -0.36689079 -0.08872154
v -0.26841614 -0.04709841 -0.07055993
v -0.33601567 -0.25198400 -0.08872154
v -0.32143435 -0.34376851 -0.15243948
v -0.34179252 -0.39221525 -0.08872154
v -0.34160113 -0.39573863 -0.08872154
v -0.32773322 -0.41982985 -0.08872154
v -0.30372101 -0.44026557 -0.08872154
v -0.27121755 -0.45052749 -0.08872154
v -0.23204985 -0.45083576 -0.08872154
v -0.16538994 -0.04709841 -0.07055993
v -0.26474473 -0.00292380 -0.07055993
v -0.30854085 -0.18984006 -0.15243948
v -0.26441410 -0.00089785 -0.07055993
v -0.29568216 -0.04568905 -0.15243948
v -0.32056436 -0.35993209 -0.15243948
v -0.31965953 -0.37199974 -0.15243948
v -0.31748453 -0.38362694 -0.15243948
v -0.31033307 -0.39587075 -0.15243948
v -0.29333314 -0.41714329 -0.15243948
v -0.26681533 -0.43436390 -0.15243948
v -0.28409368 -0.42449838 -0.15243948
v -0.25124222 -0.43735877 -0.15243948
v -0.22587281 -0.43793130 -0.15243948
v -0.22973564 -0.44726831 -0.10786898
v -0.16538994 -0.43405557 -0.08981156
v -0.16538994 -0.43414366 -0.08872154
v -0.16538994 -0.00089785 -0.07055993
v -0.28017864 -0.00089785 -0.15243948
v -0.28792170 -0.01926357 -0.15243948
v -0.18562630 -0.42436624 -0.15243948
v -0.16538994 -0.41604221 -0.15243948
v -0.16538994 -0.00089785 -0.15243948
f 1 2 3
f 1 3 4
f 1 4 5
f 1 5 2
f 2 5 6
f 2 6 7
f 2 7 8
f 2 8 9
f 2 9 10
f 2 10 11
f 2 11 28
f 2 28 14
f 2 14 12
f 2 12 3
f 3 13 4
f 3 12 14
f 3 14 15
f 3 15 13
f 4 13 15
f 4 15 30
f 4 30 29
f 4 29 33
f 4 33 32
f 4 32 31
f 4 31 24
f 4 24 23
f 4 23 21
f 4 21 22
f 4 22 20
f 4 20 19
f 4 19 18
f 4 18 17
f 4 17 16
f 4 16 5
f 5 16 6
f 6 16 17
f 6 17 18
f 6 18 7
f 7 18 19
f 7 19 20
f 7 20 8
f 8 21 9
f 8 20 22
f 8 22 21
f 9 21 23
f 9 23 24
f 9 24 25
f 9 25 10
f 10 25 26
f 10 26 27
f 10 27 11
f 11 27 26
f 11 26 32
f 11 32 33
f 11 33 28
f 14 28 33
f 14 33 29
f 14 29 30
f 14 30 15
f 24 26 25
f 24 31 26
f 26 31 32

