# https://github.com/mikedh/trimesh
v 0.07060279 0.28873557 0.34196153
v 0.07060279 0.29502815 0.33627936
v -0.19405350 0.36932984 0.33393353
v -0.19312194 0.31288105 0.36656690
v -0.20951740 0.28873557 0.37777486
v 0.07060279 0.28873557 -0.15243948
v 0.07060279 0.32409292 0.30969304
v 0.07060279 0.43906072 0.18583214
v -0.19000122 0.46841246 0.19109729
v -0.24971423 0.47279882 0.19292183
v -0.23974654 0.37379819 0.33221322
v -0.23448321 0.31751338 0.36849570
v -0.23322561 0.28873557 0.37991217
v -0.07173963 0.28873557 -0.15243948
v 0.07060279 0.43971661 -0.15243948
v 0.07060279 0.44387752 0.16909842
v 0.07060279 0.45619622 0.12306762
v -0.22563340 0.49813312 -0.00809149
v -0.29787588 0.44930923 0.18025425
v -0.31394532 0.38761318 0.26882315
v -0.28166676 0.39966545 0.27528727
v -0.25926274 0.49647287 -0.00767444
v -0.25725988 0.48491254 0.08642022
v -0.30598047 0.47558641 0.08548188
v -0.34342921 0.46078756 0.07995610
v -0.27691579 0.36459503 0.32272556
v -0.27123326 0.31259412 0.35911232
v -0.25106499 0.28873557 0.38012069
v -0.29885405 0.28877658 -0.15243948
v -0.29033026 0.28873557 -0.10844176
v 0.07060279 0.44436944 -0.14894676
v 0.06734234 0.44119239 -0.15243948
v 0.03525008 0.45843041 -0.15035427
v -0.00667013 0.46882239 -0.15243948
v -0.01128136 0.46986774 -0.15243948
v -0.04649434 0.47493050 -0.15243948
v -0.22167426 0.49743623 -0.02513799
v -0.24594142 0.49544802 -0.07132518
v -0.25562963 0.49620640 -0.02513799
v -0.37095681 0.42417988 0.11931426
v -0.39433897 0.40519965 0.11154689
v -0.33658224 0.36961681 0.25761518
v -0.33392727 0.33807188 0.30020541
v -0.30877516 0.35207134 0.31313366
v -0.32083887 0.47634479 0.03309122
v -0.28814110 0.48505604 0.03554133
v -0.37100339 0.44221726 0.07276216
v -0.30127609 0.28873557 0.35483766
v -0.27020857 0.28873557 0.37365657
v -0.39890361 0.39331135 0.05743594
v -0.37440360 0.39995241 0.01656601
v -0.28469431 0.35088253 -0.15243948
v -0.32083887 0.28873557 -0.00042837
v -0.33653566 0.28873557 0.07458671
v -0.37757090 0.33386999 0.08944377
v -0.39792550 0.35899934 0.09773244
v -0.39419925 0.36625528 0.05847854
v 0.03497061 0.45578629 -0.15243948
v -0.04747248 0.47495100 -0.15243948
v -0.21207920 0.49569398 -0.06652923
v -0.14048877 0.48093611 -0.13169174
v -0.21068186 0.48624486 -0.10844176
v -0.22078928 0.46980625 -0.15243948
v -0.24193570 0.45966023 -0.15243948
v -0.27006882 0.47759512 -0.06819738
v -0.34552521 0.45867637 0.02798248
v -0.40523821 0.38402620 0.10456147
v -0.34953094 0.32050595 0.28133434
v -0.38870305 0.41831774 0.06290959
v -0.34282368 0.28873557 0.31089205
v -0.32558984 0.28873557 0.33090997
v -0.36201382 0.43164080 0.02125771
v -0.25576937 0.44211477 -0.15243948
v -0.26457262 0.42090034 -0.15243948
v -0.27034831 0.40335491 -0.15243948
v -0.27575135 0.38613740 -0.15243948
v -0.36145490 0.28873557 0.23780578
v -0.36075622 0.28873557 0.26366228
v -0.05417971 0.47501248 -0.15243948
v -0.18906966 0.48056719 -0.13106617
v -0.18860388 0.47167146 -0.15243948
v -0.24864294 0.45244527 -0.15243948
v -0.35935891 0.28873557 0.27387974
v -0.34585124 0.28873557 0.30536628
f 1 2 3
f 1 3 4
f 1 4 5
f 1 5 13
f 1 13 28
f 1 28 49
f 1 49 48
f 1 48 71
f 1 71 70
f 1 70 84
f 1 84 83
f 1 83 78
f 1 78 77
f 1 77 54
f 1 54 53
f 1 53 30
f 1 30 14
f 1 14 6
f 1 6 15
f 1 15 31
f 1 31 17
f 1 17 16
f 1 16 8
f 1 8 7
f 1 7 2
f 2 7 3
f 3 7 8
f 3 8 9
f 3 9 10
f 3 10 11
f 3 11 12
f 3 12 4
f 4 12 5
f 5 12 13
f 6 14 29
f 6 29 52
f 6 52 76
f 6 76 75
f 6 75 74
f 6 74 73
f 6 73 82
f 6 82 64
f 6 64 63
f 6 63 81
f 6 81 79
f 6 79 59
f 6 59 36
f 6 36 35
f 6 35 34
f 6 34 58
f 6 58 32
f 6 32 15
f 8 16 9
f 9 16 17
f 9 17 18
f 9 18 10
f 10 19 20
f 10 20 21
f 10 21 11
f 10 18 22
f 10 22 23
f 10 23 24
f 10 24 25
f 10 25 19
f 11 26 27
f 11 27 12
f 11 21 26
f 12 27 28
f 12 28 13
f 14 30 29
f 15 32 31
f 17 31 33
f 17 33 34
f 17 34 35
f 17 35 36
f 17 36 18
f 18 36 37
f 18 37 38
f 18 38 39
f 18 39 22
f 19 40 20
f 19 25 40
f 20 40 41
f 20 41 42
f 20 42 43
f 20 43 44
f 20 44 26
f 20 26 21
f 22 39 45
f 22 45 46
f 22 46 24
f 22 24 23
f 24 46 45
f 24 45 25
f 25 45 47
f 25 47 40
f 26 44 27
f 27 48 49
f 27 49 28
f 27 44 48
f 29 50 51
f 29 51 52
f 29 30 53
f 29 53 54
f 29 54 55
f 29 55 56
f 29 56 57
f 29 57 50
f 31 32 58
f 31 58 33
f 33 58 34
f 36 59 38
f 36 38 60
f 36 60 37
f 37 60 38
f 38 61 62
f 38 62 63
f 38 63 64
f 38 64 65
f 38 65 66
f 38 66 45
f 38 45 39
f 38 59 61
f 40 47 41
f 41 67 68
f 41 68 43
f 41 43 42
f 41 47 69
f 41 69 67
f 43 70 71
f 43 71 48
f 43 48 44
f 43 68 70
f 45 66 47
f 47 66 69
f 50 67 69
f 50 69 72
f 50 72 51
f 50 57 67
f 51 72 73
f 51 73 74
f 51 74 75
f 51 75 76
f 51 76 52
f 54 77 55
f 55 77 56
f 56 67 57
f 56 77 78
f 56 78 67
f 59 79 61
f 61 80 62
f 61 79 80
f 62 80 63
f 63 80 81
f 64 82 66
f 64 66 65
f 66 72 69
f 66 82 72
f 67 78 83
f 67 83 68
f 68 83 84
f 68 84 70
f 72 82 73
f 79 81 80

