# https://github.com/mikedh/trimesh
v 0.28408369 -0.46290660 -0.02204985
v 0.28408369 -0.43123126 0.09314283
v 0.18225978 -0.41675115 0.10622667
v 0.18225978 -0.42616326 0.05178691
v 0.18225978 -0.42896879 -0.00100591
v 0.18225978 -0.42896879 -0.00228685
v 0.18225978 -0.42833525 -0.05050492
v 0.18225978 -0.41684163 -0.09689307
v 0.18225978 -0.40534806 -0.13770001
v 0.18225978 -0.39285892 -0.17750050
v 0.18225978 -0.39249694 -0.17859845
v 0.28408369 -0.40037048 -0.17594507
v 0.28408369 -0.41349310 0.14831454
v 0.18225978 -0.40082300 0.15883651
v 0.18225978 -0.37584478 -0.21547107
v 0.28408369 -0.39484996 -0.18765649
v 0.28408369 -0.38815290 0.20193084
v 0.18225978 -0.37747377 0.21080588
v 0.18225978 -0.37430626 -0.21830744
v 0.28408369 -0.37294877 -0.22608455
v 0.28408369 -0.35801607 0.25380871
v 0.18225978 -0.34471250 0.26881397
v 0.18225978 -0.37222475 -0.22141828
v 0.28408369 -0.35846859 -0.24639651
v 0.28408369 -0.35593456 0.25646207
v 0.18225978 -0.31810522 0.30458865
v 0.18225978 -0.34742749 -0.25399065
v 0.28408369 -0.34706551 -0.26231670
v 0.28408369 -0.32072973 0.30083734
v 0.28408369 -0.27692735 0.34136978
v 0.18225978 -0.28642994 0.33377567
v 0.18225978 -0.31864822 -0.28738645
v 0.28408369 -0.31891972 -0.29617000
v 0.28408369 -0.22968590 0.37558907
v 0.18225978 -0.23004791 0.37256971
v 0.18225978 -0.30661160 -0.29918936
v 0.28408369 -0.28751594 -0.32782739
v 0.28408369 -0.17963894 0.40477610
v 0.18225978 -0.18181096 0.39910337
v 0.18225978 -0.28624892 -0.31849489
v 0.18225978 -0.25041062 -0.34759042
v 0.28408369 -0.25032011 -0.35591650
v 0.28408369 -0.17475189 0.40697196
v 0.28408369 -0.12606244 0.42792442
v 0.18225978 -0.16090527 0.40761244
v 0.18225978 -0.21086173 -0.37348360
v 0.28408369 -0.23955050 -0.36287013
v 0.18225978 -0.13031599 0.42005581
v 0.28408369 -0.08235054 0.44128275
v 0.18225978 -0.03167006 -0.47476900
v 0.18747309 -0.03239407 -0.47723937
v 0.23594785 -0.03547110 -0.48181412
v 0.28408369 -0.20878021 -0.37979677
v 0.18225978 -0.12850596 0.42060480
v 0.28408369 -0.06995192 0.44475958
v 0.18225978 0.16010122 -0.42957026
v 0.18225978 0.16399275 -0.42847231
v 0.28408369 0.13349397 -0.41630343
v 0.28408369 0.12082385 -0.41978025
v 0.28408369 0.09566462 -0.42508700
v 0.28408369 0.09385460 -0.42545298
v 0.28408369 0.05729226 -0.43094268
v 0.28408369 -0.02687352 -0.44137317
v 0.28408369 -0.07302895 -0.43002775
v 0.28408369 -0.11628836 -0.41740137
v 0.28408369 -0.16488731 -0.40001726
v 0.18225978 -0.07610598 0.43506107
v 0.28408369 -0.01284589 0.45290264
v 0.18225978 -0.02026696 0.44311264
v 0.18225978 -0.07311945 0.43551853
v 0.18225978 0.20046459 -0.40340260
v 0.28408369 0.25431257 -0.35838687
v 0.28408369 0.21765976 -0.38071173
v 0.28408369 0.21322522 -0.38327360
v 0.28408369 0.18308844 -0.39809585
v 0.28408369 0.17268084 -0.40267062
v 0.28408369 0.04435064 0.45043227
v 0.18225978 0.09294959 0.45217070
v 0.18225978 0.09285909 0.45217070
v 0.18225978 0.03421455 0.44851089
v 0.18225978 0.26598722 -0.35198218
v 0.28408369 0.29503798 -0.32736993
v 0.28408369 0.25585109 -0.35728893
v 0.28408369 0.10154717 0.44228920
v 0.28408369 0.12543939 0.43762293
v 0.28408369 0.15765770 0.43112674
v 0.28408369 0.21096270 0.41355965
v 0.22721581 0.20381312 0.40935084
v 0.18225978 0.19802107 0.40569103
v 0.18225978 0.30227804 -0.32105675
v 0.28408369 0.33322930 -0.29049730
v 0.28408369 0.25983316 0.38656852
v 0.22569069 0.25223106 0.38336617
v 0.18225978 0.24671052 0.38043833
v 0.18225978 0.30598855 -0.31739694
v 0.18225978 0.33739239 -0.28500757
v 0.28408369 0.36725765 -0.24850091
v 0.28408369 0.30544555 0.35381317
v 0.18225978 0.29150844 0.34896392
v 0.18225978 0.36952019 -0.24401765
v 0.28408369 0.37467873 -0.23715548
v 0.28408369 0.34598994 0.31611708
v 0.18225978 0.33105731 0.31099331
v 0.28408369 0.39630842 -0.20266172
v 0.18225978 0.39703244 -0.19845293
v 0.28408369 0.37811774 0.27201629
v 0.18225978 0.43658131 0.17805053
v 0.28408369 0.41956711 -0.15380320
v 0.18225978 0.40155745 -0.18847995
v 0.28408369 0.43422824 0.17933148
v 0.28408369 0.46165001 0.12434275
v 0.18225978 0.45232844 0.12516621
v 0.18225978 0.41911465 -0.14913693
v 0.28408369 0.43649077 -0.10174233
v 0.28408369 0.44852740 -0.04721108
v 0.18225978 0.44454539 -0.04227033
v 0.18225978 0.44535989 -0.02607565
v 0.18225978 0.43513328 -0.09671008
v 0.28408369 0.44409287 -0.06953596
f 1 2 3
f 1 3 4
f 1 4 5
f 1 5 6
f 1 6 7
f 1 7 8
f 1 8 9
f 1 9 10
f 1 10 11
f 1 11 12
f 1 12 16
f 1 16 20
f 1 20 24
f 1 24 28
f 1 28 33
f 1 33 37
f 1 37 42
f 1 42 47
f 1 47 53
f 1 53 66
f 1 66 65
f 1 65 64
f 1 64 63
f 1 63 62
f 1 62 61
f 1 61 60
f 1 60 59
f 1 59 58
f 1 58 76
f 1 76 75
f 1 75 74
f 1 74 73
f 1 73 72
f 1 72 83
f 1 83 82
f 1 82 91
f 1 91 97
f 1 97 101
f 1 101 104
f 1 104 108
f 1 108 114
f 1 114 119
f 1 119 115
f 1 115 111
f 1 111 110
f 1 110 106
f 1 106 102
f 1 102 98
f 1 98 92
f 1 92 87
f 1 87 86
f 1 86 85
f 1 85 84
f 1 84 77
f 1 77 68
f 1 68 55
f 1 55 49
f 1 49 44
f 1 44 43
f 1 43 38
f 1 38 34
f 1 34 30
f 1 30 29
f 1 29 25
f 1 25 21
f 1 21 17
f 1 17 13
f 1 13 2
f 2 13 14
f 2 14 3
f 3 14 18
f 3 18 22
f 3 22 26
f 3 26 31
f 3 31 35
f 3 35 39
f 3 39 45
f 3 45 48
f 3 48 54
f 3 54 67
f 3 67 70
f 3 70 69
f 3 69 80
f 3 80 79
f 3 79 78
f 3 78 89
f 3 89 94
f 3 94 99
f 3 99 103
f 3 103 107
f 3 107 112
f 3 112 117
f 3 117 116
f 3 116 118
f 3 118 113
f 3 113 109
f 3 109 105
f 3 105 100
f 3 100 96
f 3 96 95
f 3 95 90
f 3 90 81
f 3 81 71
f 3 71 57
f 3 57 56
f 3 56 50
f 3 50 46
f 3 46 41
f 3 41 40
f 3 40 36
f 3 36 32
f 3 32 27
f 3 27 23
f 3 23 19
f 3 19 15
f 3 15 11
f 3 11 10
f 3 10 9
f 3 9 8
f 3 8 7
f 3 7 6
f 3 6 5
f 3 5 4
f 11 15 12
f 12 15 16
f 13 17 18
f 13 18 14
f 15 19 16
f 16 19 20
f 17 21 22
f 17 22 18
f 19 23 20
f 20 23 24
f 21 25 26
f 21 26 22
f 23 27 28
f 23 28 24
f 25 29 26
f 26 29 30
f 26 30 31
f 27 32 33
f 27 33 28
f 30 34 31
f 31 34 35
f 32 36 37
f 32 37 33
f 34 38 35
f 35 38 39
f 36 40 37
f 37 41 42
f 37 40 41
f 38 43 39
f 39 43 44
f 39 44 45
f 41 46 42
f 42 46 47
f 44 48 45
f 44 49 48
f 46 50 51
f 46 51 52
f 46 52 47
f 47 52 53
f 48 49 54
f 49 55 54
f 50 56 51
f 51 56 52
f 52 56 57
f 52 57 58
f 52 58 59
f 52 59 60
f 52 60 61
f 52 61 62
f 52 62 63
f 52 63 64
f 52 64 65
f 52 65 66
f 52 66 53
f 54 55 67
f 55 68 69
f 55 69 70
f 55 70 67
f 57 71 72
f 57 72 73
f 57 73 74
f 57 74 75
f 57 75 76
f 57 76 58
f 68 77 78
f 68 78 79
f 68 79 80
f 68 80 69
f 71 81 82
f 71 82 83
f 71 83 72
f 77 84 78
f 78 84 85
f 78 85 86
f 78 86 87
f 78 87 88
f 78 88 89
f 81 90 82
f 82 90 91
f 87 92 93
f 87 93 94
f 87 94 88
f 88 94 89
f 90 95 91
f 91 95 96
f 91 96 97
f 92 98 99
f 92 99 93
f 93 99 94
f 96 100 97
f 97 100 101
f 98 102 99
f 99 102 103
f 100 104 101
f 100 105 104
f 102 106 107
f 102 107 103
f 104 105 108
f 105 109 108
f 106 110 107
f 107 110 111
f 107 111 112
f 108 109 113
f 108 113 114
f 111 115 116
f 111 116 117
f 111 117 112
f 113 118 114
f 114 118 119
f 115 119 118
f 115 118 116

