# https://github.com/mikedh/trimesh
v -0.28183925 0.08651148 0.07699248
v -0.33124185 -0.00088478 0.15204775
v -0.29195896 0.08651148 0.09614339
v 0.07060277 0.08651148 0.07699248
v -0.27089155 -0.00088478 0.07699248
v -0.37806851 -0.00088478 0.30501056
v -0.33326578 0.00497586 0.15815975
v -0.31725824 0.08651148 0.15424807
v 0.07060277 0.08651148 0.45116866
v 0.07060277 -0.00088478 0.07699248
v -0.39922792 -0.00088478 0.37419832
v -0.32314608 0.08651148 0.17209509
v 0.07060277 -0.00088478 0.44387501
v -0.00488108 0.08651148 0.47064555
v -0.39931992 -0.00088478 0.38173646
v -0.36716682 0.08651148 0.36771959
v -0.36652285 0.08651148 0.34644988
v -0.33827966 0.08651148 0.23101470
v -0.10189234 0.08651148 0.48698497
v 0.05827513 -0.00088478 0.44587162
v -0.39881393 -0.00088478 0.39925748
v -0.36587888 0.08651148 0.37248695
v -0.19278577 0.08584414 0.49325994
v -0.27107555 -0.00088478 0.48164713
v -0.20690736 -0.00088478 0.47586113
v -0.19283177 0.08651148 0.49273023
v -0.39108616 -0.00088478 0.42211634
v -0.35838109 0.08651148 0.39689419
v -0.22245494 0.08651148 0.49207827
v -0.23648453 0.08651148 0.49146709
v -0.33110386 -0.00088478 0.47357932
v -0.38883221 -0.00088478 0.42615026
v -0.34632942 0.08651148 0.42032349
v -0.23666853 0.08651148 0.49142635
v -0.34011960 -0.00088478 0.47089005
v -0.37848252 -0.00088478 0.44257113
v -0.36040503 0.04227862 0.43544048
v -0.34554744 0.08651148 0.42170888
v -0.24237236 0.08651148 0.48922601
v -0.35778308 -0.00088478 0.45923650
v -0.27323750 0.08489446 0.47728726
v -0.29444289 0.08651148 0.46363714
v -0.30244666 0.08651148 0.45870680
v -0.32636601 0.08651148 0.44098204
v -0.27305350 0.08651148 0.47655380
f 1 2 3
f 1 3 8
f 1 8 12
f 1 12 18
f 1 18 17
f 1 17 16
f 1 16 22
f 1 22 28
f 1 28 33
f 1 33 38
f 1 38 44
f 1 44 43
f 1 43 42
f 1 42 45
f 1 45 39
f 1 39 34
f 1 34 30
f 1 30 29
f 1 29 26
f 1 26 19
f 1 19 14
f 1 14 9
f 1 9 4
f 1 4 10
f 1 10 5
f 1 5 2
f 2 6 7
f 2 7 3
f 2 5 10
f 2 10 13
f 2 13 20
f 2 20 25
f 2 25 24
f 2 24 31
f 2 31 35
f 2 35 40
f 2 40 36
f 2 36 32
f 2 32 27
f 2 27 21
f 2 21 15
f 2 15 11
f 2 11 6
f 3 7 8
f 4 9 13
f 4 13 10
f 6 11 7
f 7 12 8
f 7 11 12
f 9 14 13
f 11 15 16
f 11 16 17
f 11 17 18
f 11 18 12
f 13 14 19
f 13 19 20
f 15 21 16
f 16 21 22
f 19 23 24
f 19 24 25
f 19 25 20
f 19 26 23
f 21 27 28
f 21 28 22
f 23 26 29
f 23 29 24
f 24 29 30
f 24 30 31
f 27 32 33
f 27 33 28
f 30 34 31
f 31 34 35
f 32 36 37
f 32 37 38
f 32 38 33
f 34 39 35
f 35 39 41
f 35 41 42
f 35 42 43
f 35 43 40
f 36 40 44
f 36 44 37
f 37 44 38
f 39 45 41
f 40 43 44
f 41 45 42

