# https://github.com/mikedh/trimesh
v -0.41926616 0.19975941 -0.34132040
v -0.41841090 0.22156592 -0.29582649
v -0.41690564 0.23829301 -0.32057318
v -0.41235560 0.21350890 -0.36928540
v -0.39367652 0.11787553 -0.40759277
v -0.39788443 0.11248958 -0.37575328
v -0.37735799 0.06274623 -0.36097401
v -0.34615779 0.02482566 -0.30273181
v -0.34362617 0.02482566 -0.29613894
v -0.31786549 0.06887656 -0.18865336
v -0.33428663 0.20663416 -0.15243948
v -0.40585554 0.25655267 -0.26808020
v -0.40096343 0.27761477 -0.28817126
v -0.40893453 0.25493252 -0.34288269
v -0.39908183 0.22625126 -0.39368838
v -0.38358435 0.12501299 -0.44136947
v -0.36634213 0.02482566 -0.42021608
v -0.36743689 0.02482566 -0.41481054
v -0.38221592 0.06309652 -0.38940769
v -0.36969477 0.02482566 -0.39325094
v -0.36877108 0.02482566 -0.38775167
v -0.28091785 0.02482566 -0.15243948
v -0.31023648 0.08402728 -0.16812487
v -0.33360243 0.21420951 -0.15243948
v -0.37944484 0.28729197 -0.23377231
v -0.37277377 0.31028077 -0.25077003
v -0.39158967 0.29648748 -0.30660629
v -0.37643430 0.31194472 -0.32416645
v -0.39367652 0.26881337 -0.36103651
v -0.37024215 0.28120542 -0.38028392
v -0.37520272 0.23597223 -0.41581041
v -0.36788160 0.18491521 -0.43761998
v -0.35758418 0.13092440 -0.46146053
v -0.33969194 0.02482566 -0.46367899
v -0.35580522 0.02482566 -0.44789985
v -0.06983744 0.02482566 -0.15243948
v -0.28752053 0.32262903 -0.15243948
v -0.25577295 0.44208315 -0.15247072
v -0.26459932 0.42093349 -0.15247072
v -0.24869131 0.45241717 -0.15247072
v -0.36535001 0.32262903 -0.26179981
v -0.36740267 0.32262903 -0.27520427
v -0.24202020 0.45964223 -0.15247072
v -0.26100719 0.43061066 -0.21961796
v -0.26774672 0.40385610 -0.28167215
v -0.35224730 0.31991416 -0.34022680
v -0.33904195 0.28904349 -0.40071869
v -0.33671561 0.19100177 -0.45736733
v -0.34270248 0.24113923 -0.43390173
v -0.32327077 0.13394579 -0.46658486
v -0.31287071 0.02482566 -0.47061557
v -0.33544981 0.02482566 -0.46633488
v -0.06983744 0.02482566 -0.44049460
v -0.06980322 0.32262903 -0.15247072
v -0.06983744 0.32262903 -0.15243948
v -0.15693805 0.47207806 -0.15247072
v -0.18865141 0.47168398 -0.15247072
v -0.22080953 0.46980107 -0.15247072
v -0.36148420 0.32897830 -0.26754904
v -0.24332023 0.43350068 -0.23677191
v -0.21612266 0.42767686 -0.24527077
v -0.23418595 0.39544874 -0.29035848
v -0.25864664 0.35573289 -0.33329022
v -0.14766693 0.22309850 -0.43568274
v -0.20650944 0.22887854 -0.43712005
v -0.29504690 0.19117692 -0.45771104
v -0.06983744 0.17462501 -0.43993217
v -0.30342853 0.02482566 -0.47164667
v -0.30801278 0.02482566 -0.47133422
v -0.19597253 0.02482566 -0.45855469
v -0.06980322 0.32262903 -0.30741870
v -0.06980322 0.46748030 -0.15247072
v -0.06980322 0.46756786 -0.15250196
v -0.21697792 0.46038660 -0.18527882
v -0.18783036 0.45543855 -0.19143423
v -0.06980322 0.40552002 -0.25905019
v -0.09477709 0.21863212 -0.42821500
v -0.06983744 0.19581848 -0.43452665
v -0.06983744 0.21613619 -0.42462173
f 1 2 3
f 1 3 4
f 1 4 5
f 1 5 6
f 1 6 2
f 2 6 7
f 2 7 8
f 2 8 9
f 2 9 10
f 2 10 11
f 2 11 12
f 2 12 3
f 3 12 13
f 3 13 14
f 3 14 4
f 4 14 15
f 4 15 16
f 4 16 5
f 5 16 17
f 5 17 18
f 5 18 19
f 5 19 6
f 6 19 20
f 6 20 21
f 6 21 7
f 7 21 8
f 8 21 20
f 8 20 18
f 8 18 17
f 8 17 35
f 8 35 34
f 8 34 52
f 8 52 51
f 8 51 69
f 8 69 68
f 8 68 70
f 8 70 53
f 8 53 36
f 8 36 22
f 8 22 9
f 9 22 10
f 10 22 23
f 10 23 11
f 11 24 12
f 11 23 22
f 11 22 36
f 11 36 55
f 11 55 37
f 11 37 24
f 12 25 26
f 12 26 13
f 12 24 25
f 13 26 27
f 13 27 14
f 14 27 28
f 14 28 29
f 14 29 15
f 15 29 30
f 15 30 31
f 15 31 16
f 16 31 32
f 16 32 33
f 16 33 34
f 16 34 35
f 16 35 17
f 18 20 19
f 24 37 38
f 24 38 39
f 24 39 25
f 25 39 38
f 25 38 26
f 26 38 40
f 26 40 41
f 26 41 27
f 27 41 42
f 27 42 40
f 27 40 43
f 27 43 28
f 28 30 29
f 28 43 44
f 28 44 45
f 28 45 46
f 28 46 30
f 30 46 47
f 30 47 31
f 31 48 32
f 31 47 49
f 31 49 48
f 32 48 33
f 33 48 50
f 33 50 51
f 33 51 52
f 33 52 34
f 36 53 71
f 36 71 54
f 36 54 72
f 36 72 55
f 37 55 56
f 37 56 57
f 37 57 58
f 37 58 43
f 37 43 40
f 37 40 38
f 40 42 59
f 40 59 41
f 41 59 42
f 43 58 44
f 44 58 60
f 44 60 45
f 45 60 61
f 45 61 62
f 45 62 63
f 45 63 47
f 45 47 46
f 47 64 65
f 47 65 49
f 47 63 64
f 48 49 66
f 48 66 50
f 49 65 66
f 50 67 68
f 50 68 69
f 50 69 51
f 50 66 67
f 53 70 67
f 53 67 71
f 54 71 76
f 54 76 73
f 54 73 72
f 55 72 56
f 56 73 74
f 56 74 57
f 56 72 73
f 57 74 58
f 58 74 60
f 60 74 61
f 61 74 75
f 61 75 73
f 61 73 76
f 61 76 62
f 62 76 63
f 63 76 64
f 64 77 78
f 64 78 67
f 64 67 66
f 64 66 65
f 64 76 77
f 67 70 68
f 67 78 71
f 71 78 79
f 71 79 76
f 73 75 74
f 76 79 77
f 77 79 78

