# https://github.com/mikedh/trimesh
v 0.03551789 -0.44557694 0.07607549
v -0.01305583 -0.44544637 0.08010776
v -0.16535978 -0.44065827 -0.03821208
v -0.16535978 -0.43404198 -0.08978893
v -0.05867311 -0.42851391 -0.08196513
v 0.07060277 -0.42629397 -0.04031849
v 0.07060277 -0.44222528 0.07047847
v 0.03778144 -0.44100648 0.14420268
v -0.16535978 -0.43573958 0.07974666
v -0.16535978 -0.41602135 -0.15243948
v 0.05510445 -0.40836036 -0.15243948
v 0.07060277 -0.40779451 -0.15243948
v 0.07060277 -0.41880715 -0.08804363
v 0.07060277 -0.42398697 -0.05572534
v 0.07060277 -0.43408552 0.13577706
v 0.07060277 -0.34411281 0.34888518
v 0.03992949 -0.34611511 0.34996846
v -0.16535978 -0.35930413 0.28039688
v -0.16535978 -0.42107058 0.13740200
v -0.16535978 -0.42233291 0.13342991
v -0.16535978 -0.00089332 -0.15243948
v 0.07060277 -0.00093685 -0.15243948
v 0.07060277 -0.31917119 0.36447257
v -0.16535978 -0.33562481 0.32270557
v 0.07060277 -0.29710239 0.37705082
v 0.03457090 -0.29819059 0.37723136
v -0.12267587 -0.15446064 0.46076542
v -0.16535978 -0.15572296 0.45486748
v -0.06985223 -0.00089332 -0.15243948
v -0.16535978 -0.00089332 0.46239036
v 0.07060277 -0.00093685 0.44385397
v 0.07060277 -0.08520736 0.43247938
v 0.07060277 -0.01586699 0.44331235
v 0.05824569 -0.00093685 0.44584003
v -0.06985223 -0.00089332 0.45288143
f 1 2 3
f 1 3 4
f 1 4 5
f 1 5 6
f 1 6 7
f 1 7 8
f 1 8 2
f 2 9 3
f 2 8 9
f 3 9 20
f 3 20 19
f 3 19 18
f 3 18 24
f 3 24 28
f 3 28 30
f 3 30 21
f 3 21 10
f 3 10 4
f 4 10 11
f 4 11 12
f 4 12 5
f 5 12 13
f 5 13 14
f 5 14 6
f 6 14 13
f 6 13 12
f 6 12 22
f 6 22 31
f 6 31 33
f 6 33 32
f 6 32 25
f 6 25 23
f 6 23 16
f 6 16 15
f 6 15 7
f 7 15 8
f 8 16 17
f 8 17 18
f 8 18 19
f 8 19 20
f 8 20 9
f 8 15 16
f 10 21 29
f 10 29 22
f 10 22 12
f 10 12 11
f 16 23 17
f 17 24 18
f 17 23 25
f 17 25 26
f 17 26 27
f 17 27 28
f 17 28 24
f 21 30 35
f 21 35 29
f 22 29 35
f 22 35 31
f 25 32 27
f 25 27 26
f 27 30 28
f 27 32 33
f 27 33 34
f 27 34 30
f 30 34 35
f 31 35 34
f 31 34 33

