# https://github.com/mikedh/trimesh
v 0.07060975 -0.44224352 0.07036786
v 0.08455382 -0.44098377 0.06809922
v 0.07060975 -0.43408254 0.13561398
v 0.07060975 -0.41376224 -0.23000021
v 0.08581054 -0.41715807 -0.23535420
v 0.14181635 -0.41513151 -0.23780434
v 0.18224981 -0.42833152 -0.05050533
v 0.18224981 -0.42898878 -0.00104896
v 0.18224981 -0.42614064 0.05176500
v 0.13441813 -0.42460704 0.11782783
v 0.14180543 -0.42093733 0.12418003
v 0.18224981 -0.40078133 0.15875411
v 0.09759089 -0.34239465 0.34786803
v 0.07060975 -0.34414738 0.34886622
v 0.07060975 -0.40373901 -0.23771359
v 0.07060975 -0.25766280 -0.34198034
v 0.07060975 -0.21587197 -0.37047446
v 0.14180543 -0.41513151 -0.23780434
v 0.18224981 -0.37213570 -0.22137937
v 0.18224981 -0.37438136 -0.21829402
v 0.18224981 -0.37586021 -0.21548091
v 0.18224981 -0.39245602 -0.17854743
v 0.18224981 -0.39289421 -0.17745848
v 0.18224981 -0.40538216 -0.13771190
v 0.18224981 -0.41688421 -0.09687635
v 0.18224981 -0.25043294 -0.34751582
v 0.18224981 -0.28630841 -0.31847721
v 0.18224981 -0.30657396 -0.29923913
v 0.18224981 -0.31862372 -0.28744221
v 0.18224981 -0.34743369 -0.25395706
v 0.18224981 -0.41677466 0.10603090
v 0.18224981 -0.41671991 0.10621239
v 0.18224981 -0.37744856 0.21084212
v 0.18224981 -0.34469509 0.26873782
v 0.18224981 -0.31802124 0.30458236
v 0.18224981 -0.28641796 0.33371171
v 0.18224981 -0.23005785 0.37255085
v 0.09671665 -0.29627687 0.37681589
v 0.07060975 -0.31917146 0.36447448
v 0.07060975 -0.17128779 -0.39370534
v 0.18224981 -0.03178419 -0.47483194
v 0.14180543 -0.21258567 -0.37247086
v 0.18224981 -0.21083298 -0.37346908
v 0.18224981 -0.18289940 0.39850411
v 0.18224981 -0.18174919 0.39904857
v 0.18224981 -0.13196169 0.41946635
v 0.18224981 -0.13037330 0.42010155
v 0.18224981 -0.12862061 0.42064604
v 0.18224981 -0.07620407 0.43507460
v 0.07060975 -0.29709846 0.37699738
v 0.07060975 -0.08009286 -0.43925965
v 0.07060975 -0.02860744 -0.45994967
v 0.07060975 0.11325133 -0.43590206
v 0.07404113 0.11325133 -0.43590206
v 0.14218791 0.11724967 -0.42782572
v 0.18224981 0.11724967 -0.42283469
v 0.18224981 -0.07324640 0.43552831
v 0.07060975 -0.01590040 0.44333243
v 0.07060975 -0.08524141 0.43253371
v 0.14180543 0.11724967 -0.42782572
v 0.07060975 0.11325133 0.43861368
v 0.18224981 0.11724967 0.43952113
v 0.18224981 -0.02039167 0.44315097
v 0.18159413 0.03492777 0.44859570
v 0.07060975 0.08717999 0.45122731
v 0.14180543 0.11724967 0.43661729
v 0.18218425 0.09287626 0.45222551
v 0.16673210 0.11724967 0.43852293
v 0.16267782 0.11724967 0.43825069
v 0.15751983 0.11724967 0.43788770
v 0.18224981 0.09293103 0.45213479
v 0.18224981 0.03421573 0.44850495
v 0.18224981 0.09287626 0.45213479
f 1 2 3
f 1 3 14
f 1 14 39
f 1 39 50
f 1 50 59
f 1 59 58
f 1 58 65
f 1 65 61
f 1 61 53
f 1 53 52
f 1 52 51
f 1 51 40
f 1 40 17
f 1 17 16
f 1 16 15
f 1 15 4
f 1 4 5
f 1 5 6
f 1 6 7
f 1 7 2
f 2 7 8
f 2 8 9
f 2 9 3
f 3 9 10
f 3 10 11
f 3 11 12
f 3 12 13
f 3 13 14
f 4 15 5
f 5 15 16
f 5 16 17
f 5 17 18
f 5 18 6
f 6 19 20
f 6 20 21
f 6 21 22
f 6 22 23
f 6 23 24
f 6 24 25
f 6 25 7
f 6 18 26
f 6 26 27
f 6 27 28
f 6 28 29
f 6 29 30
f 6 30 19
f 7 25 24
f 7 24 23
f 7 23 22
f 7 22 21
f 7 21 20
f 7 20 19
f 7 19 30
f 7 30 29
f 7 29 28
f 7 28 27
f 7 27 26
f 7 26 43
f 7 43 41
f 7 41 56
f 7 56 62
f 7 62 71
f 7 71 73
f 7 73 72
f 7 72 63
f 7 63 57
f 7 57 49
f 7 49 48
f 7 48 47
f 7 47 46
f 7 46 45
f 7 45 44
f 7 44 37
f 7 37 36
f 7 36 35
f 7 35 34
f 7 34 33
f 7 33 12
f 7 12 32
f 7 32 31
f 7 31 9
f 7 9 8
f 9 31 10
f 10 31 11
f 11 31 32
f 11 32 12
f 12 33 13
f 13 33 34
f 13 34 35
f 13 35 36
f 13 36 37
f 13 37 38
f 13 38 14
f 14 38 39
f 17 40 41
f 17 41 42
f 17 42 26
f 17 26 18
f 26 42 43
f 37 44 38
f 38 44 45
f 38 45 46
f 38 46 47
f 38 47 48
f 38 48 49
f 38 49 50
f 38 50 39
f 40 51 41
f 41 51 52
f 41 52 53
f 41 53 54
f 41 54 55
f 41 55 56
f 41 43 42
f 49 57 58
f 49 58 59
f 49 59 50
f 53 60 55
f 53 55 54
f 53 61 66
f 53 66 60
f 55 60 66
f 55 66 70
f 55 70 69
f 55 69 68
f 55 68 62
f 55 62 56
f 57 63 58
f 58 63 64
f 58 64 65
f 61 65 67
f 61 67 62
f 61 62 68
f 61 68 69
f 61 69 70
f 61 70 66
f 62 67 71
f 63 72 64
f 64 72 67
f 64 67 65
f 67 72 73
f 67 73 71

