# https://github.com/mikedh/trimesh
v 0.22291797 0.23484849 0.01537210
v 0.22291797 0.23484849 -0.24220366
v 0.22291797 0.44696970 -0.16644608
v 0.01079675 0.50757577 -0.10584002
v 0.01079675 0.23484849 0.01537210
v 0.13200888 0.43181819 -0.33311275
v 0.19261494 0.41666667 0.00022059
v 0.22341226 0.36405109 0.02212129
v 0.22291797 0.41666667 -0.30280972
v 0.10170585 0.50757577 -0.21190063
v 0.01079675 0.23484849 -0.24220366
v 0.01079675 0.35606061 0.01537210
v 0.22291797 0.41666667 -0.03008244
v 0.17746342 0.40151516 -0.33311275
v 0.22291797 0.44696970 -0.27250669
v 0.01079675 0.50757577 -0.24220366
v 0.01008534 0.46572043 -0.06723703
v 0.17746342 0.41666667 0.00022059
v 0.11685736 0.49242425 -0.09068851
v 0.22291797 0.35606061 -0.28765821
v 0.17746342 0.41666667 -0.33311275
v 0.13083918 0.39971989 -0.32866050
v 0.20776646 0.46212122 -0.19674911
v 0.14716039 0.46212122 -0.30280972
v 0.01079675 0.49242425 -0.07553699
v 0.13200888 0.47727274 -0.06038547
v 0.08655433 0.50757577 -0.10584002
v 0.20776646 0.41666667 -0.31796124
v 0.20776646 0.46212122 -0.24220366
v 0.11685736 0.49242425 -0.25735518
v 0.13200888 0.46212122 -0.30280972
v 0.16231191 0.44696970 -0.31796124
v 0.10170585 0.49242425 -0.07553699
v 0.10170585 0.50757577 -0.13614305
v 0.17746342 0.46212122 -0.28765821
v 0.13200888 0.49242425 -0.24220366
v 0.04109978 0.50757577 -0.24220366
v 0.14716039 0.43181819 -0.33311275
v 0.20776646 0.44696970 -0.28765821
v 0.13200888 0.49242425 -0.13614305
v 0.19261494 0.46212122 -0.27250669
v 0.08655433 0.50757577 -0.22705215
f 5 2 1
f 8 1 2
f 8 5 1
f 11 2 5
f 12 5 8
f 13 8 3
f 13 7 8
f 14 2 11
f 15 3 8
f 15 8 9
f 16 4 10
f 16 6 11
f 17 11 5
f 17 16 11
f 17 4 16
f 17 5 12
f 18 12 8
f 18 8 7
f 20 2 14
f 20 9 8
f 20 8 2
f 21 14 6
f 22 14 11
f 22 11 6
f 22 6 14
f 23 3 15
f 25 17 12
f 25 12 18
f 25 4 17
f 26 13 3
f 26 23 19
f 26 3 23
f 26 7 13
f 26 25 18
f 26 18 7
f 27 10 4
f 27 26 19
f 27 4 25
f 28 20 14
f 28 9 20
f 28 14 21
f 28 15 9
f 29 23 15
f 29 10 23
f 31 24 6
f 31 6 16
f 31 16 24
f 32 28 21
f 33 27 25
f 33 25 26
f 33 26 27
f 34 23 10
f 34 10 27
f 34 27 19
f 35 24 30
f 35 32 24
f 36 30 10
f 36 10 29
f 37 30 24
f 37 24 16
f 37 16 10
f 38 32 21
f 38 21 6
f 38 6 24
f 38 24 32
f 39 15 28
f 39 28 32
f 39 35 15
f 39 32 35
f 40 34 19
f 40 19 23
f 40 23 34
f 41 29 15
f 41 15 35
f 41 36 29
f 41 35 30
f 41 30 36
f 42 37 10
f 42 10 30
f 42 30 37