# https://github.com/mikedh/trimesh
v 0.25322100 -0.46212123 0.04567514
v 0.40473616 -0.29545456 0.01537210
v 0.11685736 -0.26515153 0.27294787
v -0.30216348 -0.25824619 0.02419032
v 0.04008814 -0.48127292 0.00894732
v 0.40231220 -0.25992585 0.04243315
v 0.28352403 -0.44696972 0.01537210
v -0.29745179 -0.29061291 0.00512800
v -0.09526386 -0.43181820 0.12143271
v 0.40733611 -0.27095144 0.01809282
v 0.06545103 -0.25834430 0.26467412
v 0.28352403 -0.37121214 0.12143271
v 0.25322100 -0.46212123 0.01537210
v 0.04109978 -0.49242426 0.03052362
v 0.14716039 -0.35606062 0.19719029
v -0.21647598 -0.46212123 0.03052362
v 0.40473616 -0.28030304 0.04567514
v -0.30599322 -0.26368231 0.01397974
v -0.06496083 -0.28030304 0.25779635
v 0.13200888 -0.29545456 0.25779635
v 0.25322100 -0.41666668 0.10628120
v 0.01079675 -0.47727275 0.06082665
v -0.21175587 -0.45191828 0.00981289
v -0.08011234 -0.49242426 0.01537210
v 0.40473616 -0.29545456 0.03052362
v 0.35928161 -0.26515153 0.09112968
v -0.30738508 -0.29545456 0.03052362
v -0.06496083 -0.26515153 0.25779635
v -0.15586992 -0.44696972 0.09112968
v 0.05625130 -0.28030304 0.27294787
v 0.28352403 -0.43181820 0.06082665
v 0.20776646 -0.37121214 0.16688726
v -0.04980931 -0.43181820 0.12143271
v 0.22291797 -0.46212123 0.06082665
v -0.14071840 -0.47727275 0.06082665
v -0.18617295 -0.47727275 0.01537210
v 0.31382706 -0.37121214 0.09112968
v 0.17746342 -0.29545456 0.22749332
v 0.35928161 -0.28030304 0.09112968
v -0.09526386 -0.31060608 0.22749332
v -0.12556689 -0.26515153 0.21234181
v 0.11685736 -0.28030304 0.27294787
v 0.25322100 -0.44696972 0.07597817
v 0.28352403 -0.44696972 0.03052362
v 0.14716039 -0.32575759 0.22749332
v 0.23806949 -0.37121214 0.15173575
v -0.08011234 -0.49242426 0.03052362
v -0.15586992 -0.46212123 0.07597817
v -0.17102143 -0.47727275 0.04567514
v 0.20776646 -0.32575759 0.19719029
v -0.21647598 -0.29545456 0.12143271
v -0.18617295 -0.46212123 0.06082665
v -0.09526386 -0.41666668 0.13658423
v -0.12556689 -0.28030304 0.21234181
v 0.26837252 -0.44696972 0.06082665
v 0.20776646 -0.38636365 0.15173575
v 0.26837252 -0.38636365 0.12143271
v 0.19261494 -0.34090911 0.19719029
v -0.18617295 -0.47727275 0.03052362
v 0.25322100 -0.35606062 0.15173575
v -0.08011234 -0.40151517 0.15173575
f 7 5 2
f 8 2 5
f 10 4 6
f 10 2 8
f 11 6 4
f 11 3 6
f 13 7 1
f 13 5 7
f 14 13 1
f 14 5 13
f 17 10 6
f 18 10 8
f 18 4 10
f 23 16 8
f 23 8 5
f 24 5 14
f 24 23 5
f 25 2 10
f 25 10 17
f 25 7 2
f 26 17 6
f 26 6 3
f 27 4 18
f 27 18 8
f 27 8 16
f 28 3 11
f 28 11 4
f 30 28 19
f 30 3 28
f 33 22 15
f 33 9 22
f 33 20 9
f 34 15 22
f 34 22 14
f 34 14 1
f 35 14 22
f 35 22 9
f 36 16 23
f 36 23 24
f 37 25 17
f 37 31 25
f 37 12 21
f 37 21 31
f 38 26 3
f 39 17 26
f 39 37 17
f 39 12 37
f 39 26 38
f 41 19 28
f 41 28 4
f 41 4 27
f 42 30 20
f 42 3 30
f 42 38 3
f 42 20 38
f 43 34 1
f 43 15 34
f 44 1 7
f 44 7 25
f 44 25 31
f 45 32 20
f 45 33 15
f 45 20 33
f 46 32 21
f 47 24 14
f 47 14 35
f 47 36 24
f 48 35 9
f 48 9 29
f 49 47 35
f 50 39 38
f 50 38 20
f 51 27 16
f 51 41 27
f 52 29 40
f 52 48 29
f 52 16 49
f 52 49 35
f 52 35 48
f 52 51 16
f 52 40 51
f 53 40 29
f 53 29 9
f 53 9 20
f 54 40 19
f 54 19 41
f 54 51 40
f 54 41 51
f 55 43 1
f 55 31 21
f 55 21 43
f 55 44 31
f 55 1 44
f 56 15 43
f 56 45 15
f 56 32 45
f 56 43 21
f 56 21 32
f 57 46 21
f 57 21 12
f 57 12 46
f 58 20 32
f 58 32 46
f 58 50 20
f 58 46 50
f 59 49 16
f 59 16 36
f 59 36 47
f 59 47 49
f 60 12 39
f 60 39 50
f 60 50 46
f 60 46 12
f 61 30 19
f 61 19 40
f 61 40 53
f 61 53 20
f 61 20 30