# https://github.com/mikedh/trimesh
v -0.09526386 0.12878788 0.25779635
v 0.13134210 0.24906334 0.15081800
v -0.01950628 0.23484849 0.27294787
v -0.08011234 0.37121213 0.16688726
v -0.20132447 0.20454545 0.15173575
v 0.08655433 0.32575758 0.16688726
v 0.08191321 0.19618960 0.23247110
v 0.08655433 0.20454545 0.15173575
v -0.01135301 0.36273951 0.14274489
v -0.20132447 0.21969697 0.24264484
v -0.01950628 0.34090909 0.21234181
v -0.00435476 0.21969697 0.27294787
v 0.08655433 0.21969697 0.24264484
v -0.19789138 0.15795128 0.17773853
v -0.08576794 0.12846183 0.23603521
v 0.13027971 0.24245058 0.16323114
v -0.16512565 0.33064116 0.14387484
v 0.10811193 0.29030100 0.14217283
v -0.08011234 0.20454545 0.27294787
v -0.04980931 0.29545455 0.24264484
v -0.00435476 0.37121213 0.16688726
v -0.01059626 0.19820350 0.26440023
v -0.01950628 0.29545455 0.24264484
v 0.08655433 0.31060606 0.18203878
v -0.20132447 0.15909091 0.19719029
v -0.07038076 0.13355591 0.25057792
v -0.10942138 0.12792779 0.22454596
v 0.11685736 0.29545455 0.16688726
v -0.08011234 0.37121213 0.15173575
v -0.17102143 0.34090909 0.16688726
v 0.12617155 0.26121769 0.14558139
v -0.19407954 0.26068202 0.14495252
v 0.08224053 0.32084485 0.14473539
v -0.15586992 0.17424242 0.25779635
v -0.08011234 0.21969697 0.27294787
v -0.04980931 0.35606061 0.19719029
v -0.01950628 0.35606061 0.19719029
v -0.12556689 0.15909091 0.18203878
v -0.11041537 0.12878788 0.24264484
v 0.13200888 0.26515152 0.16688726
v 0.10170585 0.29545455 0.18203878
v -0.17102143 0.29545455 0.21234181
v -0.18617295 0.32575758 0.16688726
v -0.20132447 0.26515152 0.16688726
v -0.20132447 0.17424242 0.24264484
v -0.15586992 0.20454545 0.25779635
v -0.04980931 0.23484849 0.27294787
v -0.04980931 0.34090909 0.21234181
v -0.17527143 0.31982557 0.14619951
v -0.18617295 0.31060606 0.18203878
f 13 3 12
f 14 5 8
f 15 8 7
f 16 8 2
f 16 7 8
f 16 13 7
f 18 17 9
f 19 12 3
f 19 1 12
f 22 12 1
f 22 1 7
f 22 13 12
f 22 7 13
f 23 13 11
f 23 3 13
f 23 20 3
f 23 11 20
f 24 6 11
f 24 11 13
f 25 10 5
f 25 5 14
f 26 15 7
f 26 7 1
f 26 1 15
f 27 8 15
f 27 15 1
f 27 25 14
f 28 6 24
f 29 9 17
f 29 21 9
f 29 4 21
f 30 29 17
f 30 4 29
f 31 2 8
f 31 8 18
f 31 18 28
f 32 18 8
f 32 8 5
f 32 17 18
f 33 18 9
f 33 28 18
f 33 6 28
f 33 21 6
f 33 9 21
f 34 1 19
f 35 19 3
f 35 34 19
f 36 21 4
f 36 4 30
f 37 11 6
f 37 6 21
f 37 36 11
f 37 21 36
f 38 27 14
f 38 14 8
f 38 8 27
f 39 27 1
f 39 25 27
f 40 16 2
f 40 31 28
f 40 2 31
f 40 28 13
f 40 13 16
f 41 28 24
f 41 24 13
f 41 13 28
f 43 30 17
f 43 42 30
f 44 32 5
f 44 5 10
f 44 43 32
f 44 10 43
f 45 1 34
f 45 39 1
f 45 25 39
f 45 34 10
f 45 10 25
f 46 35 10
f 46 10 34
f 46 34 35
f 47 35 3
f 47 3 20
f 47 10 35
f 47 42 10
f 47 20 42
f 48 20 11
f 48 11 36
f 48 42 20
f 48 36 30
f 48 30 42
f 49 43 17
f 49 17 32
f 49 32 43
f 50 43 10
f 50 10 42
f 50 42 43