# https://github.com/mikedh/trimesh
v 0.39601846 0.23128130 0.01212886
v 0.40473616 0.23484849 -0.22705215
v 0.37443313 0.32575758 -0.01493093
v 0.22291797 0.32575758 0.01537210
v 0.22291797 0.23484849 -0.27250669
v 0.37443313 0.31060606 0.01537210
v 0.40473616 0.28030303 -0.03008244
v 0.32435601 0.23357085 -0.29298111
v 0.22291797 0.23484849 0.01537210
v 0.22291797 0.32575758 -0.27250669
v 0.34567471 0.32205190 0.01221359
v 0.40473616 0.26515152 0.01537210
v 0.38958464 0.31060606 -0.19674911
v 0.37656060 0.23434794 -0.25050167
v 0.34413010 0.23484849 -0.30280972
v 0.40473616 0.28030303 -0.19674911
v 0.38958464 0.31060606 -0.04523396
v 0.37443313 0.32575758 -0.21190063
v 0.32897858 0.32575758 -0.27250669
v 0.38958464 0.26515152 -0.25735518
v 0.34413010 0.29545455 -0.28765821
v 0.40473616 0.25000000 -0.22705215
v 0.38958464 0.29545455 -0.22705215
v 0.34413010 0.25000000 -0.30280972
v 0.37443313 0.29545455 -0.25735518
v 0.35928161 0.26515152 -0.28765821
v 0.34413010 0.32575758 -0.25735518
f 8 1 5
f 9 5 1
f 9 4 5
f 9 6 4
f 10 5 4
f 10 4 3
f 11 6 3
f 11 3 4
f 11 4 6
f 12 1 2
f 12 2 7
f 12 9 1
f 12 6 9
f 12 3 6
f 14 2 1
f 14 1 8
f 15 8 5
f 15 5 10
f 15 14 8
f 15 2 14
f 16 13 7
f 16 7 2
f 17 13 3
f 17 7 13
f 17 12 7
f 17 3 12
f 18 10 3
f 18 3 13
f 19 10 18
f 20 2 15
f 21 10 19
f 22 20 16
f 22 16 2
f 22 2 20
f 23 18 13
f 23 13 16
f 23 16 20
f 24 15 10
f 24 10 21
f 24 20 15
f 25 21 19
f 25 18 23
f 25 23 20
f 25 20 21
f 26 24 21
f 26 21 20
f 26 20 24
f 27 25 19
f 27 19 18
f 27 18 25