# https://github.com/mikedh/trimesh
v 0.22341226 0.36405109 0.02212129
v 0.22291797 0.35606061 -0.06038547
v 0.10170585 0.47727274 -0.04523396
v -0.18617295 0.46212122 -0.04523396
v -0.18617295 0.35606061 0.00022059
v -0.06257589 0.46590454 -0.08446726
v -0.12556689 0.44696970 0.00022059
v 0.22290740 0.40221560 -0.06020865
v 0.01079675 0.35606061 0.01537210
v -0.06496083 0.47727274 -0.06038547
v -0.18617295 0.35606061 -0.07553699
v 0.13200888 0.43181819 0.01537210
v -0.18617295 0.44696970 -0.01493093
v 0.09813583 0.46603101 -0.06657137
v 0.01069787 0.47275226 -0.07846209
v -0.18425892 0.45033455 -0.07805408
v -0.01950628 0.47727274 -0.04523396
v 0.01079675 0.35606061 -0.07553699
v 0.10170585 0.44696970 0.00022059
v 0.22291797 0.40151516 0.00022059
v 0.01164812 0.42151350 0.01197873
v -0.18507817 0.42107452 -0.00663477
v 0.12731684 0.45309081 -0.06400063
v -0.12556689 0.46212122 -0.03008244
v 0.13200888 0.46212122 -0.03008244
v 0.20776646 0.40151516 0.01537210
f 8 1 2
f 9 5 2
f 9 2 1
f 9 7 5
f 11 5 4
f 11 2 5
f 13 7 4
f 13 4 5
f 15 8 2
f 15 2 6
f 15 14 8
f 15 3 14
f 15 10 3
f 15 6 10
f 16 10 6
f 16 4 10
f 16 11 4
f 16 6 11
f 17 7 3
f 17 3 10
f 17 10 4
f 18 11 6
f 18 6 2
f 18 2 11
f 19 12 3
f 19 3 7
f 19 7 12
f 20 1 8
f 21 9 1
f 21 1 12
f 21 12 7
f 21 7 9
f 22 13 5
f 22 5 7
f 22 7 13
f 23 14 3
f 23 3 8
f 23 8 14
f 24 17 4
f 24 4 7
f 24 7 17
f 25 20 8
f 25 8 3
f 25 3 12
f 26 12 1
f 26 1 20
f 26 25 12
f 26 20 25