# https://github.com/mikedh/trimesh
v 0.38958464 -0.14393940 -0.13614305
v 0.38958464 -0.14393940 -0.22705215
v 0.39719316 0.23788726 -0.13657293
v 0.01079675 0.23484849 -0.13614305
v 0.01069253 -0.14394547 -0.30219098
v 0.01079675 -0.14393940 -0.13614305
v 0.31382706 0.23484849 -0.31796124
v 0.00799706 -0.11297498 -0.30313837
v 0.38958464 0.23484849 -0.27250669
v 0.26837252 -0.14393940 -0.30280972
v 0.01078512 0.23485516 -0.31755624
v 0.37443313 0.23484849 -0.28765821
v 0.38958464 0.00757575 -0.28765821
v 0.02594827 -0.14393940 -0.31796124
v 0.38958464 0.14393939 -0.28765821
v 0.38958464 -0.11363637 -0.25735518
v 0.31382706 0.15909091 -0.31796124
v 0.35928161 -0.14393940 -0.27250669
v 0.34413010 0.03787878 -0.30280972
v 0.05625130 -0.14393940 -0.31796124
v 0.37443313 -0.14393940 -0.25735518
v 0.32897858 -0.14393940 -0.28765821
v 0.37443313 -0.11363637 -0.27250669
v 0.28352403 -0.11363637 -0.30280972
v 0.34413010 -0.11363637 -0.28765821
f 1 2 3
f 1 3 4
f 5 2 1
f 6 5 1
f 6 1 4
f 8 6 4
f 8 5 6
f 11 4 3
f 11 3 7
f 11 8 4
f 12 7 3
f 12 3 9
f 14 5 8
f 14 8 11
f 14 11 7
f 15 9 3
f 15 3 13
f 15 12 9
f 15 13 7
f 15 7 12
f 16 13 3
f 16 3 2
f 17 7 13
f 17 14 7
f 19 17 13
f 20 17 10
f 20 14 17
f 20 10 5
f 20 5 14
f 21 18 16
f 21 16 2
f 21 2 5
f 21 5 18
f 22 18 5
f 22 5 10
f 23 13 16
f 23 16 18
f 23 18 22
f 24 10 17
f 24 17 19
f 24 22 10
f 25 19 13
f 25 23 22
f 25 13 23
f 25 24 19
f 25 22 24