# https://github.com/mikedh/trimesh
v 0.45019071 -0.26515153 0.01537210
v 0.46534222 -0.26515153 -0.09068851
v 0.45554271 -0.14718237 0.01414131
v 0.26837252 -0.14393940 0.01537210
v 0.26837252 -0.26515153 -0.13614305
v 0.46534222 -0.25000001 0.01537210
v 0.26837252 -0.26515153 0.01537210
v 0.45330712 -0.14020087 -0.13287462
v 0.46534222 -0.26515153 0.00022059
v 0.43503919 -0.26515153 -0.13614305
v 0.46534222 -0.17424244 -0.13614305
v 0.26837252 -0.14393940 -0.13614305
v 0.45019071 -0.25000001 -0.13614305
v 0.45110288 -0.14422276 -0.13639078
v 0.46534222 -0.21969698 -0.12099154
v 0.45019071 -0.26515153 -0.12099154
v 0.46534222 -0.25000001 -0.10584002
f 5 2 1
f 6 3 4
f 6 4 1
f 7 5 1
f 7 1 4
f 7 4 5
f 8 4 3
f 9 6 1
f 9 1 2
f 9 2 6
f 10 2 5
f 11 6 2
f 11 8 3
f 11 3 6
f 12 5 4
f 12 4 8
f 14 10 5
f 14 5 12
f 14 12 8
f 14 8 11
f 14 13 10
f 14 11 13
f 15 13 11
f 15 11 2
f 16 13 2
f 16 2 10
f 16 10 13
f 17 15 2
f 17 2 13
f 17 13 15