# https://github.com/mikedh/trimesh
v 0.22291797 -0.00757576 0.31840242
v 0.23806949 -0.00757576 0.19719029
v 0.23806949 0.21969697 0.25779635
v 0.22291797 0.32575758 0.16688726
v -0.03465779 -0.02272728 0.31840242
v 0.24048950 0.32050980 0.14936044
v 0.23806949 0.02272727 0.30325090
v 0.02594827 -0.03787879 0.31840242
v 0.08655433 0.12878788 0.34870545
v 0.23806949 0.25000000 0.24264484
v 0.01079675 0.20454545 0.19719029
v 0.23549974 -0.00721427 0.29698916
v 0.17746342 0.17424242 0.31840242
v 0.24111727 0.31471413 0.16031572
v 0.01079675 -0.00757576 0.19719029
v 0.11685736 0.03787878 0.34870545
v 0.08655433 0.25000000 0.15173575
v 0.01079675 0.17424242 0.30325090
v 0.22291797 0.02272727 0.31840242
v 0.20776646 0.20454545 0.28809938
v -0.01887785 -0.03724106 0.29936065
v -0.03194013 -0.02302227 0.29710305
v 0.16231191 0.00757575 0.33355393
v 0.11685736 0.12878788 0.34870545
v 0.04109978 0.03787878 0.34870545
v 0.08208535 0.24625439 0.19168327
v 0.23036270 0.31526166 0.14763161
v 0.08655433 0.20454545 0.15173575
v 0.13200888 0.17424242 0.31840242
v -0.00435476 0.14393939 0.33355393
v -0.01950628 -0.03787879 0.31840242
v 0.02533692 -0.03711959 0.29903545
v -0.03465779 -0.00757576 0.31840242
v 0.00437361 0.19832833 0.25021545
v 0.23806949 0.20454545 0.15173575
v 0.19261494 0.29545455 0.19719029
v -0.00435476 0.00757575 0.33355393
v 0.04109978 0.11363636 0.34870545
f 12 7 1
f 12 2 7
f 12 8 2
f 12 1 8
f 14 3 7
f 14 10 3
f 14 6 4
f 14 4 10
f 14 7 2
f 14 2 6
f 17 15 11
f 19 7 3
f 19 1 7
f 19 16 1
f 20 3 10
f 20 10 13
f 20 19 3
f 20 13 19
f 21 15 2
f 22 11 15
f 22 21 5
f 22 15 21
f 23 16 8
f 23 8 1
f 23 1 16
f 24 13 9
f 24 9 16
f 24 19 13
f 24 16 19
f 25 16 9
f 25 8 16
f 26 17 11
f 26 4 17
f 27 17 4
f 27 4 6
f 28 2 15
f 28 15 17
f 28 17 27
f 29 13 10
f 29 10 4
f 29 9 13
f 30 9 29
f 31 21 8
f 31 5 21
f 31 8 25
f 32 21 2
f 32 2 8
f 32 8 21
f 33 22 5
f 33 11 22
f 33 5 30
f 34 18 4
f 34 4 26
f 34 26 11
f 34 30 18
f 34 33 30
f 34 11 33
f 35 27 6
f 35 6 2
f 35 28 27
f 35 2 28
f 36 29 4
f 36 4 18
f 36 30 29
f 36 18 30
f 37 30 5
f 37 25 30
f 37 31 25
f 37 5 31
f 38 30 25
f 38 25 9
f 38 9 30