# https://github.com/mikedh/trimesh
v 0.30899980 0.18242241 0.17793411
v 0.40238671 0.18938223 0.01489655
v 0.38958464 0.25000000 0.06082665
v 0.23806949 0.34090909 0.15173575
v 0.23806949 0.18939394 0.01537210
v 0.28352403 0.32575758 0.16688726
v 0.38958464 0.18939394 0.09112968
v 0.39194203 0.18414684 0.05470029
v 0.23804378 0.20453982 0.22747489
v 0.34567471 0.32205190 0.01221359
v 0.40473616 0.20454545 0.06082665
v 0.35928161 0.20454545 0.13658423
v 0.23806949 0.18939394 0.18203878
v 0.23171140 0.24516857 0.21833224
v 0.40473616 0.25000000 0.01537210
v 0.23806949 0.32575758 0.01537210
v 0.35928161 0.32575758 0.03052362
v 0.35928161 0.18939394 0.13658423
v 0.25322100 0.25000000 0.22749332
v 0.37443313 0.21969697 0.10628120
v 0.38958464 0.20454545 0.09112968
v 0.40473616 0.23484849 0.04567514
v 0.32897858 0.32575758 0.09112968
v 0.28352403 0.34090909 0.15173575
v 0.31382706 0.20454545 0.18203878
v 0.26837252 0.29545455 0.19719029
v 0.25322100 0.28030303 0.21234181
v 0.38958464 0.26515152 0.04567514
v 0.23435685 0.27234736 0.20084744
v 0.40473616 0.25000000 0.03052362
f 8 5 2
f 8 1 5
f 8 7 1
f 8 2 7
f 10 2 5
f 11 7 2
f 13 5 1
f 13 1 9
f 14 13 9
f 14 5 13
f 15 2 10
f 15 11 2
f 16 10 5
f 16 14 4
f 16 5 14
f 17 15 10
f 17 10 16
f 18 1 7
f 18 7 12
f 19 14 9
f 20 3 6
f 20 6 12
f 21 12 7
f 21 7 11
f 21 20 12
f 21 3 20
f 22 11 15
f 22 21 11
f 22 3 21
f 23 6 3
f 24 17 16
f 24 16 4
f 24 23 17
f 24 6 23
f 25 19 9
f 25 9 1
f 25 1 18
f 25 18 12
f 25 12 19
f 26 19 12
f 26 12 6
f 27 14 19
f 27 19 26
f 27 26 6
f 27 24 4
f 27 6 24
f 28 23 3
f 28 17 23
f 29 27 4
f 29 4 14
f 29 14 27
f 30 22 15
f 30 15 17
f 30 17 28
f 30 28 3
f 30 3 22