# https://github.com/mikedh/trimesh
v -0.21647598 -0.26515153 0.13658423
v -0.20132447 -0.26515153 0.01537210
v -0.19806225 0.40776505 0.00907827
v -0.32253659 0.41666667 0.01537210
v -0.42859720 -0.17424244 0.01537210
v -0.20132447 0.21969697 0.24264484
v -0.33768811 -0.26515153 0.01537210
v -0.43653830 -0.00505510 -0.00454323
v -0.21647598 0.25000000 0.21234181
v -0.27708204 -0.15909092 0.19719029
v -0.19325104 -0.26189821 0.12757786
v -0.31855917 0.40393123 -0.00619214
v -0.40633695 -0.20185819 0.01137968
v -0.35283962 0.29545455 0.12143271
v -0.35283962 -0.23484850 0.09112968
v -0.20041781 0.22254161 0.21936172
v -0.20132447 -0.12878789 0.22749332
v -0.36799114 0.38636364 0.00022059
v -0.20084134 0.41495540 -0.00140435
v -0.26193053 0.25000000 0.21234181
v -0.42859720 0.03787878 0.06082665
v -0.33768811 -0.26515153 0.03052362
v -0.29223356 -0.17424244 0.18203878
v -0.41344569 -0.20454547 0.04567514
v -0.21647598 -0.12878789 0.22749332
v -0.20132447 0.05303030 0.24264484
v -0.43303136 0.04494310 -0.00420291
v -0.35283962 0.40151516 0.00022059
v -0.20132447 -0.00757576 0.00022059
v -0.35283962 0.38636364 0.04567514
v -0.44374872 0.00757575 0.03052362
v -0.30738508 0.12878788 0.21234181
v -0.42859720 0.15909091 0.03052362
v -0.35283962 -0.25000001 0.06082665
v -0.35283962 -0.21969698 0.10628120
v -0.42859720 0.17424242 0.00022059
v -0.35283962 0.34090909 0.09112968
v -0.36799114 0.38636364 0.03052362
v -0.44374872 -0.00757576 0.01537210
v -0.41344569 -0.17424244 0.06082665
v -0.32253659 0.26515152 0.16688726
v -0.36799114 0.12878788 0.15173575
v -0.26193053 0.06818181 0.24264484
v -0.44374872 0.03787878 0.03052362
v -0.36799114 -0.23484850 0.07597817
v -0.32253659 -0.18939395 0.15173575
v -0.35283962 0.40151516 0.01537210
v -0.36799114 0.35606061 0.06082665
v -0.42859720 0.17424242 0.01537210
v -0.42859720 -0.17424244 0.03052362
v -0.44374872 0.05303030 0.01537210
v -0.42859720 0.02272727 0.06082665
v -0.39829417 -0.18939395 0.07597817
v -0.27708204 0.23484849 0.21234181
v -0.29223356 0.25000000 0.19719029
v -0.41344569 0.17424242 0.06082665
v -0.35283962 0.14393939 0.16688726
v -0.26193053 -0.12878789 0.21234181
v -0.23162750 0.05303030 0.24264484
v -0.29223356 0.06818181 0.22749332
v -0.38314265 -0.21969698 0.07597817
v -0.36799114 0.08333333 0.15173575
v -0.29223356 0.11363636 0.22749332
v -0.24677901 0.23484849 0.22749332
f 7 2 1
f 8 2 7
f 9 6 3
f 9 3 4
f 11 1 2
f 11 2 3
f 13 8 7
f 13 5 8
f 16 11 3
f 16 3 6
f 16 6 11
f 17 1 11
f 19 12 4
f 19 4 3
f 20 9 4
f 22 7 1
f 23 1 10
f 24 5 13
f 24 13 7
f 24 7 22
f 25 10 1
f 25 1 17
f 26 17 11
f 26 11 6
f 26 25 17
f 27 12 8
f 28 4 12
f 28 12 18
f 29 19 3
f 29 3 2
f 29 2 8
f 29 8 12
f 29 12 19
f 30 20 4
f 34 22 1
f 34 1 15
f 34 24 22
f 35 15 1
f 36 18 12
f 36 12 27
f 36 27 8
f 37 20 30
f 38 28 18
f 38 18 36
f 39 8 5
f 41 37 14
f 43 26 6
f 44 31 21
f 44 39 31
f 45 34 15
f 45 24 34
f 45 15 35
f 46 35 1
f 46 1 23
f 47 4 28
f 47 28 38
f 47 38 30
f 47 30 4
f 48 14 37
f 48 37 30
f 48 30 38
f 49 38 36
f 49 48 38
f 49 33 48
f 49 44 33
f 50 39 5
f 50 31 39
f 50 40 31
f 50 5 24
f 50 24 40
f 51 36 8
f 51 8 39
f 51 39 44
f 51 49 36
f 51 44 49
f 52 21 31
f 52 31 40
f 52 42 21
f 53 40 24
f 53 35 46
f 55 20 37
f 55 37 41
f 55 54 20
f 55 41 32
f 55 32 54
f 56 21 42
f 56 44 21
f 56 33 44
f 56 42 14
f 56 48 33
f 56 14 48
f 57 41 14
f 57 14 42
f 57 42 32
f 57 32 41
f 58 10 25
f 58 25 43
f 59 43 25
f 59 25 26
f 59 26 43
f 60 23 10
f 60 58 43
f 60 10 58
f 60 46 23
f 60 53 46
f 61 45 35
f 61 24 45
f 61 53 24
f 61 35 53
f 62 52 40
f 62 42 52
f 62 40 53
f 62 53 60
f 62 60 32
f 62 32 42
f 63 54 32
f 63 60 43
f 63 32 60
f 64 20 54
f 64 6 9
f 64 9 20
f 64 54 63
f 64 63 43
f 64 43 6