# https://github.com/mikedh/trimesh
v 0.01079675 -0.00757576 0.00022059
v 0.00770413 -0.00734003 -0.30651423
v 0.01079675 0.23484849 -0.33311275
v -0.35145936 0.23379972 -0.00055314
v -0.35283962 -0.00757576 0.00022059
v 0.01079675 0.23484849 0.00022059
v 0.01079675 0.20454545 -0.33311275
v -0.35261584 -0.00755646 -0.31117028
v -0.35283962 0.23484849 -0.31796124
v -0.00435476 0.18939394 -0.33311275
v -0.30738508 0.18939394 -0.33311275
v -0.29223356 0.23484849 -0.33311275
v -0.30738508 0.21969697 -0.33311275
f 6 1 3
f 6 5 1
f 6 4 5
f 7 1 2
f 7 3 1
f 8 2 1
f 8 1 5
f 9 6 3
f 9 4 6
f 9 8 5
f 9 5 4
f 10 7 2
f 10 2 8
f 10 3 7
f 11 10 8
f 11 8 9
f 11 3 10
f 12 9 3
f 12 3 11
f 13 12 11
f 13 11 9
f 13 9 12