# https://github.com/mikedh/trimesh
v -0.18617295 0.23484849 0.00022059
v -0.18572201 0.23547300 -0.31891703
v -0.18617295 0.46212122 -0.06038547
v -0.29223356 0.44696970 -0.06038547
v -0.41344569 0.23484849 -0.24220366
v -0.20132447 0.43181819 -0.28765821
v -0.24677901 0.43181819 0.00022059
v -0.18105782 0.39204912 -0.30760982
v -0.35925872 0.22770661 -0.00522830
v -0.20132447 0.46212122 -0.19674911
v -0.35283962 0.41666667 -0.13614305
v -0.18507817 0.42107452 -0.00663477
v -0.23162750 0.44696970 -0.01493093
v -0.33768811 0.26515152 -0.31796124
v -0.33180871 0.23168179 -0.30609218
v -0.36799114 0.38636364 0.00022059
v -0.21647598 0.46212122 -0.07553699
v -0.18617295 0.43181819 -0.28765821
v -0.27708204 0.43181819 -0.21190063
v -0.29223356 0.44696970 -0.12099154
v -0.18617295 0.44696970 -0.01493093
v -0.18617295 0.37121213 -0.33311275
v -0.33768811 0.38636364 -0.22705215
v -0.40121599 0.22786686 -0.09531669
v -0.29223356 0.23484849 -0.33311275
v -0.36799114 0.23484849 -0.30280972
v -0.35283962 0.41666667 -0.01493093
v -0.41344569 0.26515152 -0.21190063
v -0.20132447 0.46212122 -0.06038547
v -0.18617295 0.46212122 -0.19674911
v -0.21647598 0.44696970 -0.24220366
v -0.33768811 0.43181819 -0.06038547
v -0.32253659 0.43181819 -0.15129457
v -0.21647598 0.46212122 -0.16644608
v -0.23162750 0.38636364 -0.31796124
v -0.20132447 0.40151516 -0.31796124
v -0.30738508 0.41666667 -0.21190063
v -0.39829417 0.23484849 -0.04523396
v -0.24677901 0.32575758 -0.33311275
v -0.38314265 0.23484849 -0.28765821
v -0.36799114 0.40151516 -0.01493093
v -0.30738508 0.43181819 -0.01493093
v -0.33768811 0.41666667 0.00022059
v -0.41344569 0.25000000 -0.24220366
v -0.26193053 0.44696970 -0.03008244
v -0.33768811 0.43181819 -0.10584002
v -0.27708204 0.38636364 -0.28765821
v -0.20132447 0.37121213 -0.33311275
v -0.33768811 0.41666667 -0.16644608
v -0.38314265 0.23484849 -0.01493093
v -0.41344569 0.25000000 -0.09068851
v -0.29223356 0.25000000 -0.33311275
v -0.27708204 0.34090909 -0.31796124
v -0.35283962 0.28030303 -0.30280972
v -0.36799114 0.40151516 -0.12099154
v -0.32253659 0.43181819 -0.03008244
v -0.23162750 0.41666667 -0.28765821
v -0.39829417 0.25000000 -0.04523396
v -0.41344569 0.26515152 -0.12099154
v -0.27708204 0.28030303 -0.33311275
v -0.36799114 0.25000000 -0.30280972
v -0.36799114 0.28030303 -0.28765821
v -0.33768811 0.34090909 -0.27250669
v -0.32253659 0.34090909 -0.28765821
f 8 1 2
f 9 2 1
f 12 7 1
f 12 8 3
f 12 1 8
f 15 2 9
f 16 9 1
f 16 1 7
f 17 3 10
f 18 6 10
f 20 4 17
f 21 12 3
f 21 3 13
f 21 13 7
f 21 7 12
f 22 8 2
f 22 18 8
f 24 15 9
f 24 5 15
f 25 2 15
f 25 22 2
f 26 25 15
f 26 14 25
f 29 13 3
f 29 3 17
f 29 17 4
f 30 18 10
f 30 10 3
f 30 3 8
f 30 8 18
f 31 10 6
f 31 6 19
f 32 4 20
f 33 31 19
f 33 20 10
f 33 10 31
f 34 20 17
f 34 17 10
f 34 10 20
f 36 6 18
f 36 18 22
f 36 35 6
f 37 19 6
f 37 33 19
f 38 24 9
f 39 22 25
f 40 26 15
f 40 15 5
f 41 16 27
f 41 27 32
f 43 27 16
f 43 16 7
f 43 42 27
f 43 7 13
f 43 13 42
f 44 5 28
f 44 40 5
f 45 29 4
f 45 13 29
f 45 42 13
f 45 4 42
f 46 32 20
f 46 20 33
f 46 33 11
f 46 41 32
f 48 36 22
f 48 35 36
f 48 39 35
f 48 22 39
f 49 37 23
f 49 23 11
f 49 11 33
f 49 33 37
f 50 38 9
f 50 9 16
f 51 28 5
f 51 5 24
f 51 24 38
f 51 16 41
f 52 39 25
f 52 25 14
f 53 39 14
f 53 35 39
f 54 53 14
f 55 28 41
f 55 44 28
f 55 11 23
f 55 23 44
f 55 46 11
f 55 41 46
f 56 32 27
f 56 27 42
f 56 42 4
f 56 4 32
f 57 6 35
f 57 35 47
f 57 37 6
f 57 47 23
f 57 23 37
f 58 50 16
f 58 38 50
f 58 51 38
f 58 16 51
f 59 51 41
f 59 41 28
f 59 28 51
f 60 52 14
f 60 14 39
f 60 39 52
f 61 54 14
f 61 14 26
f 61 26 40
f 61 40 44
f 62 44 23
f 62 61 44
f 62 54 61
f 63 23 47
f 63 62 23
f 63 54 62
f 64 53 54
f 64 47 35
f 64 35 53
f 64 63 47
f 64 54 63