# https://github.com/mikedh/trimesh
v -0.38314265 -0.25000001 0.04567514
v -0.35283962 -0.25000001 -0.30280972
v -0.35166290 -0.22901729 0.05772553
v -0.38314265 0.23484849 0.00022059
v -0.48920326 -0.08333334 -0.21190063
v -0.34848335 0.23266027 -0.29637323
v -0.38724976 -0.14368666 0.06387623
v -0.35161993 -0.23611964 0.04101144
v -0.44374872 -0.21969698 -0.24220366
v -0.35145936 0.23379972 -0.00055314
v -0.44374872 0.21969697 -0.18159760
v -0.42859720 0.09848485 -0.30280972
v -0.39829417 -0.21969698 0.06082665
v -0.34895953 -0.18693197 -0.30421271
v -0.41344569 -0.25000001 -0.25735518
v -0.36799114 0.23484849 -0.30280972
v -0.35283962 -0.14393940 0.06082665
v -0.47405175 0.03787878 -0.04523396
v -0.47405175 0.06818181 -0.24220366
v -0.44374872 -0.15909092 -0.28765821
v -0.38314265 -0.23484850 0.06082665
v -0.42859720 -0.23484850 -0.01493093
v -0.39829417 -0.11363637 -0.31796124
v -0.42859720 0.23484849 -0.21190063
v -0.35283962 0.21969697 -0.31796124
v -0.44374872 0.15909091 -0.01493093
v -0.48920326 0.02272727 -0.09068851
v -0.47405175 -0.14393940 -0.24220366
v -0.47405175 0.03787878 -0.25735518
v -0.42859720 -0.21969698 -0.27250669
v -0.39829417 -0.25000001 0.03052362
v -0.47405175 -0.05303031 -0.04523396
v -0.36799114 -0.18939395 -0.31796124
v -0.42859720 -0.11363637 -0.30280972
v -0.42859720 0.23484849 -0.10584002
v -0.41344569 0.21969697 -0.27250669
v -0.45890023 0.11363636 -0.25735518
v -0.39829417 0.11363636 -0.31796124
v -0.36799114 0.21969697 -0.31796124
v -0.42859720 0.17424242 0.00022059
v -0.45890023 0.03787878 0.00022059
v -0.45890023 0.17424242 -0.19674911
v -0.48920326 0.02272727 -0.19674911
v -0.47405175 -0.17424244 -0.12099154
v -0.47405175 -0.08333334 -0.25735518
v -0.42859720 -0.23484850 -0.25735518
v -0.45890023 -0.17424244 -0.25735518
v -0.38314265 -0.23484850 -0.30280972
v -0.41344569 -0.25000001 0.00022059
v -0.42859720 -0.20454547 0.01537210
v -0.41344569 -0.17424244 -0.30280972
v -0.45890023 0.15909091 -0.07553699
v -0.41344569 0.23484849 -0.25735518
v -0.44374872 0.11363636 -0.28765821
v -0.38314265 0.17424242 -0.31796124
v -0.39829417 0.21969697 0.00022059
v -0.44374872 -0.00757576 0.01537210
v -0.44374872 0.20454545 -0.21190063
v -0.48920326 0.00757575 -0.21190063
v -0.47405175 0.09848485 -0.21190063
v -0.47405175 -0.17424244 -0.19674911
v -0.48920326 -0.08333334 -0.10584002
v -0.44374872 -0.21969698 -0.06038547
v -0.45890023 -0.12878789 -0.27250669
f 8 1 2
f 8 3 1
f 10 3 6
f 10 4 7
f 14 6 3
f 14 3 8
f 14 8 2
f 15 2 1
f 16 10 6
f 16 4 10
f 17 10 7
f 17 3 10
f 21 1 3
f 21 7 13
f 21 17 7
f 21 3 17
f 22 9 15
f 24 4 16
f 25 16 6
f 25 6 14
f 27 18 26
f 31 21 13
f 31 1 21
f 31 15 1
f 32 18 27
f 33 14 2
f 33 25 14
f 33 23 25
f 34 12 23
f 35 24 11
f 35 4 24
f 37 29 19
f 38 25 23
f 38 23 12
f 39 16 25
f 39 36 16
f 39 25 38
f 40 35 26
f 41 26 18
f 41 40 26
f 41 18 32
f 43 5 27
f 43 27 42
f 45 28 5
f 45 5 29
f 46 30 15
f 46 15 9
f 47 20 30
f 47 46 9
f 47 30 46
f 48 30 20
f 48 2 15
f 48 15 30
f 48 33 2
f 49 22 15
f 49 15 31
f 49 31 13
f 50 41 32
f 50 13 41
f 50 49 13
f 50 22 49
f 50 44 22
f 51 34 23
f 51 20 34
f 51 48 20
f 51 23 33
f 51 33 48
f 52 35 11
f 52 26 35
f 52 11 42
f 52 42 27
f 52 27 26
f 53 24 16
f 53 16 36
f 54 37 36
f 54 12 29
f 54 29 37
f 54 39 12
f 54 36 39
f 55 39 38
f 55 38 12
f 55 12 39
f 56 40 7
f 56 7 4
f 56 4 35
f 56 35 40
f 57 41 13
f 57 13 7
f 57 7 40
f 57 40 41
f 58 42 11
f 58 11 24
f 58 24 53
f 58 37 42
f 58 53 36
f 58 36 37
f 59 29 5
f 59 5 43
f 59 19 29
f 60 43 42
f 60 59 43
f 60 19 59
f 60 42 37
f 60 37 19
f 61 44 5
f 61 5 28
f 61 9 44
f 61 47 9
f 61 28 47
f 62 32 27
f 62 27 5
f 62 5 44
f 62 50 32
f 62 44 50
f 63 44 9
f 63 9 22
f 63 22 44
f 64 28 45
f 64 47 28
f 64 20 47
f 64 34 20
f 64 45 29
f 64 29 12
f 64 12 34