# https://github.com/mikedh/trimesh
v 0.23806949 0.20454545 0.15173575
v 0.23806949 0.20454545 0.01537210
v 0.22291797 0.38636364 0.03052362
v -0.20132447 0.43181819 0.01537210
v -0.20132447 0.20454545 0.15173575
v 0.01097284 0.42850042 -0.00177472
v -0.00435476 0.38636364 0.15173575
v 0.23819708 0.37058903 0.01484733
v -0.20132447 0.20454545 0.00022059
v 0.24048950 0.32050980 0.14936044
v -0.18617295 0.34090909 0.15173575
v 0.07140282 0.43181819 0.04567514
v 0.10170585 0.43181819 0.01537210
v 0.22183460 0.37613264 0.00825156
v 0.01079675 0.20454545 0.00022059
v -0.19903937 0.42038743 -0.00788685
v 0.23806949 0.37121213 0.04567514
v -0.06496083 0.38636364 0.15173575
v -0.20132447 0.32575758 0.13658423
v 0.08655433 0.40151516 0.10628120
v 0.10170585 0.43181819 0.03052362
v -0.18617295 0.35606061 0.13658423
v -0.08011234 0.40151516 0.12143271
v -0.20132447 0.29545455 0.15173575
v 0.08655433 0.41666667 0.07597817
v -0.15586992 0.35606061 0.15173575
v -0.20132447 0.40151516 0.06082665
v -0.11041537 0.43181819 0.03052362
v 0.01079675 0.40151516 0.12143271
v 0.02594827 0.43181819 0.04567514
f 5 2 1
f 7 5 1
f 9 5 4
f 9 2 5
f 10 7 1
f 10 1 2
f 10 2 8
f 11 5 7
f 13 6 4
f 13 4 12
f 14 8 2
f 14 6 13
f 14 13 3
f 14 3 8
f 15 2 9
f 15 14 2
f 15 6 14
f 16 9 4
f 16 4 6
f 16 15 9
f 16 6 15
f 17 10 8
f 17 8 3
f 17 3 10
f 18 11 7
f 19 4 5
f 20 7 10
f 21 13 12
f 21 3 13
f 22 19 11
f 23 22 18
f 23 4 22
f 23 18 7
f 24 19 5
f 24 5 11
f 24 11 19
f 25 20 10
f 25 10 3
f 25 3 21
f 25 21 12
f 26 22 11
f 26 11 18
f 26 18 22
f 27 22 4
f 27 4 19
f 27 19 22
f 28 12 4
f 28 4 23
f 29 23 7
f 29 12 23
f 29 25 12
f 29 7 20
f 29 20 25
f 30 28 23
f 30 23 12
f 30 12 28