# https://github.com/mikedh/trimesh
v 0.38958464 -0.14393940 0.16688726
v 0.38544969 -0.13779140 0.14303267
v 0.34413010 0.17424242 0.18203878
v 0.23108140 0.20318956 0.23734659
v 0.25322100 -0.15909092 0.18203878
v 0.25322100 0.00757575 0.30325090
v 0.38958464 -0.02272728 0.15173575
v 0.26664840 -0.15715302 0.16121404
v 0.35928161 -0.03787879 0.22749332
v 0.26837252 0.15909091 0.25779635
v 0.26837252 -0.06818183 0.28809938
v 0.23284504 0.00325127 0.29678289
v 0.26837252 -0.15909092 0.18203878
v 0.23806949 0.18939394 0.16688726
v 0.38958464 -0.05303031 0.18203878
v 0.25322100 0.20454545 0.24264484
v 0.31382706 0.15909091 0.22749332
v 0.32897858 -0.06818183 0.25779635
v 0.25322100 0.17424242 0.25779635
v 0.25322100 -0.06818183 0.28809938
v 0.25256952 -0.15868919 0.16512314
v 0.28352403 -0.11363637 0.24264484
v 0.33767755 0.16744984 0.16061291
v 0.23806949 -0.00757576 0.16688726
v 0.38958464 -0.02272728 0.16688726
v 0.34413010 0.14393939 0.19719029
v 0.38958464 -0.11363637 0.18203878
v 0.23806949 0.20454545 0.18203878
v 0.28352403 0.17424242 0.24264484
v 0.32897858 0.18939394 0.19719029
v 0.32897858 -0.00757576 0.25779635
v 0.28352403 -0.05303031 0.28809938
v 0.32897858 -0.09848486 0.24264484
v 0.22799490 0.17208162 0.24803582
v 0.23549974 -0.00721427 0.29698916
v 0.34413010 -0.08333334 0.24264484
v 0.29154911 0.19853589 0.17484052
v 0.32897858 0.15909091 0.21234181
v 0.28352403 -0.00757576 0.28809938
v 0.32897858 -0.11363637 0.22749332
v 0.28352403 -0.08333334 0.27294787
v 0.35928161 -0.11363637 0.21234181
v 0.35928161 -0.08333334 0.22749332
v 0.32163726 0.18070728 0.16217763
v 0.29867555 0.20454545 0.19719029
f 7 1 2
f 8 2 1
f 13 8 1
f 14 2 8
f 15 1 7
f 19 12 6
f 19 16 4
f 19 6 10
f 19 10 16
f 20 11 6
f 21 13 5
f 21 8 13
f 21 5 12
f 22 5 13
f 22 20 5
f 22 11 20
f 22 13 1
f 23 7 2
f 23 2 14
f 23 3 7
f 24 21 12
f 24 14 8
f 24 8 21
f 25 15 7
f 25 7 3
f 26 9 15
f 26 25 3
f 26 15 25
f 27 15 9
f 27 1 15
f 28 14 4
f 28 4 16
f 29 16 10
f 29 10 17
f 30 29 17
f 30 16 29
f 31 17 10
f 31 18 9
f 32 6 11
f 32 11 18
f 32 18 31
f 33 18 11
f 34 19 4
f 34 12 19
f 34 24 12
f 34 4 14
f 34 14 24
f 35 20 6
f 35 6 12
f 35 12 5
f 35 5 20
f 36 18 33
f 36 9 18
f 37 14 28
f 38 30 17
f 38 26 3
f 38 3 30
f 38 17 31
f 38 31 9
f 38 9 26
f 39 31 10
f 39 10 6
f 39 32 31
f 39 6 32
f 40 33 22
f 40 22 1
f 41 33 11
f 41 11 22
f 41 22 33
f 42 36 33
f 42 1 27
f 42 40 1
f 42 33 40
f 43 27 9
f 43 9 36
f 43 42 27
f 43 36 42
f 44 23 14
f 44 14 37
f 44 3 23
f 44 30 3
f 45 37 28
f 45 28 16
f 45 16 30
f 45 44 37
f 45 30 44