# https://github.com/mikedh/trimesh
v 0.31382706 0.32575758 0.12143271
v 0.37443313 0.34090909 -0.15129457
v 0.34413010 0.40151516 0.00022059
v 0.25322100 0.43181819 -0.04523396
v 0.22291797 0.32575758 -0.27250669
v 0.26837252 0.44696970 -0.24220366
v 0.28352403 0.35606061 0.13658423
v 0.35928161 0.34090909 0.01537210
v 0.34934614 0.31643371 -0.20649662
v 0.34413010 0.40151516 -0.15129457
v 0.31382706 0.43181819 -0.06038547
v 0.22291797 0.44696970 -0.27250669
v 0.32897858 0.35606061 0.09112968
v 0.23883349 0.32449705 0.13617965
v 0.37443313 0.34090909 -0.06038547
v 0.34413010 0.34090909 -0.24220366
v 0.35928161 0.38636364 -0.12099154
v 0.26837252 0.44696970 -0.16644608
v 0.31382706 0.43181819 -0.12099154
v 0.32897858 0.40151516 0.03052362
v 0.31382706 0.34090909 0.12143271
v 0.34413010 0.35606061 0.06082665
v 0.29867555 0.32575758 0.13658423
v 0.25322100 0.35606061 0.13658423
v 0.22183460 0.37613264 0.00825156
v 0.35928161 0.38636364 -0.04523396
v 0.36282924 0.31901767 -0.15001122
v 0.35928161 0.34090909 -0.21190063
v 0.25322100 0.40151516 -0.30280972
v 0.30678989 0.32041210 -0.26655644
v 0.35928161 0.37121213 -0.16644608
v 0.29867555 0.43181819 -0.04523396
v 0.22291797 0.44696970 -0.16644608
v 0.29867555 0.43181819 -0.21190063
v 0.32897858 0.41666667 -0.01493093
v 0.34413010 0.38636364 0.03052362
v 0.32897858 0.38636364 0.06082665
v 0.34413010 0.32575758 0.06082665
v 0.29867555 0.34090909 0.13658423
v 0.36164019 0.31865101 -0.06230888
v 0.26837252 0.41666667 0.00022059
v 0.21768512 0.38122391 -0.30713349
v 0.22291797 0.32575758 0.01537210
v 0.22291797 0.40151516 0.00022059
v 0.35928161 0.35606061 0.00022059
v 0.34413010 0.32575758 -0.24220366
v 0.23806949 0.44696970 -0.27250669
v 0.28352403 0.40151516 -0.27250669
v 0.32897858 0.41666667 -0.15129457
v 0.34413010 0.38636364 -0.18159760
v 0.31382706 0.41666667 0.00022059
v 0.29867555 0.37121213 0.10628120
v 0.22291797 0.41666667 -0.30280972
v 0.21973317 0.36885068 -0.31185196
v 0.22291797 0.41666667 -0.04523396
v 0.31382706 0.35606061 -0.27250669
v 0.28352403 0.43181819 -0.24220366
v 0.26837252 0.37121213 0.10628120
v 0.23806949 0.41666667 -0.30280972
v 0.23806949 0.38636364 -0.31796124
f 14 5 9
f 17 15 2
f 18 11 6
f 18 6 12
f 19 6 11
f 19 17 10
f 19 11 17
f 22 21 1
f 22 13 21
f 23 1 21
f 24 23 7
f 24 14 23
f 26 15 17
f 26 17 11
f 26 11 3
f 27 9 2
f 27 2 15
f 28 2 9
f 30 9 5
f 31 17 2
f 31 10 17
f 31 2 28
f 32 18 4
f 32 11 18
f 33 18 12
f 33 4 18
f 34 6 19
f 35 20 3
f 35 3 11
f 36 26 3
f 37 13 22
f 37 22 36
f 37 36 3
f 37 3 20
f 37 21 13
f 37 7 21
f 38 22 1
f 38 8 22
f 38 15 8
f 39 23 21
f 39 21 7
f 39 7 23
f 40 23 14
f 40 14 9
f 40 1 23
f 40 9 27
f 40 38 1
f 40 27 15
f 40 15 38
f 41 4 24
f 41 32 4
f 42 33 12
f 43 5 14
f 43 14 25
f 43 42 5
f 43 25 42
f 44 24 4
f 44 25 14
f 44 14 24
f 45 8 15
f 45 15 26
f 45 26 36
f 45 36 22
f 45 22 8
f 46 28 9
f 46 16 28
f 46 9 30
f 47 12 6
f 48 29 47
f 49 34 19
f 49 19 10
f 49 10 34
f 50 34 10
f 50 10 31
f 50 31 28
f 50 28 16
f 51 20 35
f 51 32 41
f 51 35 11
f 51 11 32
f 52 37 20
f 52 7 37
f 52 20 51
f 52 51 41
f 52 24 7
f 53 42 12
f 53 12 47
f 54 30 5
f 54 5 42
f 54 42 53
f 55 44 4
f 55 4 33
f 55 33 42
f 55 42 25
f 55 25 44
f 56 46 30
f 56 16 46
f 56 29 48
f 57 56 48
f 57 16 56
f 57 50 16
f 57 34 50
f 57 6 34
f 57 48 47
f 57 47 6
f 58 52 41
f 58 41 24
f 58 24 52
f 59 53 47
f 59 47 29
f 60 29 56
f 60 59 29
f 60 54 53
f 60 53 59
f 60 56 30
f 60 30 54