# https://github.com/mikedh/trimesh
v 0.25322100 -0.46212123 0.01537210
v 0.32897858 -0.38636365 -0.04523396
v 0.32897858 -0.38636365 0.06082665
v 0.29107663 -0.36539059 0.08372926
v 0.24550701 -0.37857340 -0.12594479
v 0.31918787 -0.36401851 -0.04308170
v 0.29867555 -0.38636365 0.09112968
v 0.28352403 -0.44696972 0.00022059
v 0.23806949 -0.37121214 0.01537210
v 0.32897858 -0.37121214 0.06082665
v 0.27992390 -0.36352395 -0.11754047
v 0.29867555 -0.41666668 0.06082665
v 0.25322100 -0.43181820 -0.09068851
v 0.22937781 -0.42312116 -0.08439009
v 0.27744016 -0.38000466 0.08401611
v 0.29458330 -0.36296011 -0.10221424
v 0.28352403 -0.44696972 0.01537210
v 0.25322100 -0.46212123 -0.04523396
v 0.28352403 -0.38636365 -0.12099154
v 0.23271307 -0.39620482 -0.11765504
v 0.23456694 -0.45197630 0.01357571
v 0.28163897 -0.36960241 0.08880249
v 0.23806949 -0.46212123 -0.04523396
v 0.29867555 -0.38636365 -0.10584002
v 0.25322100 -0.40151517 -0.12099154
f 8 2 3
f 10 3 2
f 10 2 6
f 10 6 4
f 10 7 3
f 10 4 7
f 11 5 9
f 11 9 4
f 12 7 1
f 12 3 7
f 16 6 2
f 16 11 4
f 16 4 6
f 17 8 3
f 17 3 12
f 17 12 1
f 17 1 8
f 18 2 8
f 18 8 1
f 19 5 11
f 20 14 9
f 20 9 5
f 20 13 14
f 21 9 14
f 21 15 9
f 21 1 7
f 21 7 15
f 22 15 7
f 22 7 4
f 22 4 9
f 22 9 15
f 23 14 13
f 23 13 18
f 23 21 14
f 23 18 1
f 23 1 21
f 24 19 11
f 24 11 16
f 24 16 2
f 24 2 18
f 24 18 13
f 24 13 19
f 25 19 13
f 25 13 20
f 25 20 5
f 25 5 19