# https://github.com/mikedh/trimesh
v -0.09526386 -0.49242426 0.01537210
v -0.09526386 -0.40151517 -0.30280972
v -0.09526386 -0.26515153 0.01537210
v -0.39237116 -0.24347398 -0.01740934
v -0.32253659 -0.44696972 -0.15129457
v -0.23137524 -0.25015713 -0.31093077
v -0.35283962 -0.26515153 0.01537210
v -0.09511969 -0.26646186 -0.30844865
v -0.09526386 -0.49242426 -0.13614305
v -0.23162750 -0.25000001 0.01537210
v -0.39829417 -0.26515153 -0.25735518
v -0.24677901 -0.46212123 0.01537210
v -0.09526386 -0.37121214 -0.31796124
v -0.17102143 -0.41666668 -0.28765821
v -0.24677901 -0.47727275 -0.10584002
v -0.35196282 -0.24362319 0.01347277
v -0.41344569 -0.26515153 -0.06038547
v -0.38915631 -0.24267813 -0.25139480
v -0.39829417 -0.26515153 -0.01493093
v -0.30738508 -0.25000001 -0.31796124
v -0.26193053 -0.46212123 -0.16644608
v -0.09526386 -0.43181820 -0.27250669
v -0.30738508 -0.37121214 -0.27250669
v -0.20132447 -0.37121214 -0.31796124
v -0.14071840 -0.49242426 -0.01493093
v -0.29223356 -0.46212123 -0.06038547
v -0.35283962 -0.40151517 -0.16644608
v -0.40294025 -0.24294812 -0.19522077
v -0.35283962 -0.25000001 -0.30280972
v -0.29223356 -0.46212123 -0.15129457
v -0.12556689 -0.46212123 -0.21190063
v -0.18617295 -0.40151517 -0.30280972
v -0.14071840 -0.49242426 -0.09068851
v -0.20132447 -0.47727275 0.01537210
v -0.32253659 -0.43181820 -0.06038547
v -0.41344569 -0.26515153 -0.19674911
v -0.33768811 -0.40151517 -0.21190063
v -0.40382442 -0.24343808 -0.06116217
v -0.36799114 -0.28030304 -0.28765821
v -0.29223356 -0.29545456 -0.31796124
v -0.30738508 -0.44696972 -0.18159760
v -0.11041537 -0.49242426 -0.13614305
v -0.12556689 -0.43181820 -0.27250669
v -0.09526386 -0.47727275 -0.18159760
v -0.24677901 -0.37121214 -0.30280972
v -0.12556689 -0.49242426 0.01537210
v -0.21647598 -0.47727275 0.00022059
v -0.26193053 -0.46212123 0.00022059
v -0.33768811 -0.41666668 -0.07553699
v -0.32253659 -0.44696972 -0.09068851
v -0.33768811 -0.43181820 -0.15129457
v -0.35283962 -0.38636365 -0.19674911
v -0.35283962 -0.34090911 -0.25735518
v -0.35283962 -0.26515153 -0.30280972
v -0.29223356 -0.34090911 -0.30280972
v -0.21647598 -0.41666668 -0.27250669
v -0.30738508 -0.41666668 -0.22705215
v -0.23162750 -0.47727275 -0.12099154
v -0.11041537 -0.47727275 -0.18159760
v -0.24677901 -0.47727275 -0.07553699
v -0.32253659 -0.40151517 -0.03008244
v -0.33768811 -0.43181820 -0.10584002
v -0.35283962 -0.35606062 -0.24220366
v -0.33768811 -0.34090911 -0.27250669
f 7 1 3
f 8 3 1
f 8 6 3
f 9 8 1
f 10 3 6
f 10 7 3
f 12 1 7
f 13 8 2
f 16 10 6
f 16 7 10
f 18 16 6
f 18 4 16
f 19 12 7
f 19 4 17
f 19 16 4
f 19 7 16
f 20 6 8
f 20 8 13
f 20 18 6
f 22 14 2
f 22 2 8
f 24 13 2
f 24 20 13
f 25 9 1
f 28 4 18
f 29 11 18
f 29 18 20
f 30 26 5
f 30 15 26
f 32 24 2
f 32 2 14
f 33 25 15
f 33 9 25
f 34 1 12
f 36 27 17
f 36 11 27
f 36 28 18
f 36 18 11
f 38 17 4
f 38 4 28
f 38 36 17
f 38 28 36
f 39 11 29
f 40 20 24
f 41 21 30
f 41 30 5
f 42 30 21
f 42 33 15
f 42 9 33
f 43 14 22
f 43 22 31
f 44 31 22
f 44 9 42
f 44 22 8
f 44 8 9
f 45 32 23
f 45 24 32
f 46 25 1
f 46 1 34
f 47 34 12
f 47 46 34
f 47 25 46
f 48 35 26
f 48 12 19
f 48 47 12
f 48 26 47
f 49 35 19
f 49 19 17
f 50 5 26
f 50 26 35
f 51 27 37
f 51 5 50
f 51 41 5
f 51 37 41
f 52 37 27
f 52 27 11
f 53 11 39
f 54 29 20
f 54 20 40
f 54 39 29
f 55 54 40
f 55 39 54
f 55 45 23
f 55 40 24
f 55 24 45
f 56 32 14
f 56 21 41
f 56 14 43
f 56 43 31
f 56 31 21
f 56 23 32
f 57 41 37
f 57 56 41
f 57 23 56
f 58 42 15
f 58 15 30
f 58 30 42
f 59 42 21
f 59 21 31
f 59 44 42
f 59 31 44
f 60 47 26
f 60 26 15
f 60 15 25
f 60 25 47
f 61 48 19
f 61 19 35
f 61 35 48
f 62 51 50
f 62 49 17
f 62 17 27
f 62 27 51
f 62 50 35
f 62 35 49
f 63 52 11
f 63 37 52
f 63 53 37
f 63 11 53
f 64 53 39
f 64 37 53
f 64 57 37
f 64 23 57
f 64 55 23
f 64 39 55