# https://github.com/mikedh/trimesh
v -0.11742569 -0.26345595 0.19209913
v 0.01079675 -0.14393940 0.18203878
v 0.01060529 -0.00446826 0.31183400
v -0.12548291 0.20801613 0.22989451
v -0.19789138 0.15795128 0.17773853
v 0.01079675 0.20454545 0.18203878
v -0.00435476 -0.14393940 0.30325090
v -0.12861225 -0.26284406 0.17375438
v 0.01079675 0.15909091 0.31840242
v -0.12556689 0.20454545 0.18203878
v 0.00558012 -0.14242763 0.27799701
v -0.20132447 -0.12878789 0.22749332
v -0.12366166 -0.26486714 0.18088981
v 0.01079675 -0.11363637 0.30325090
v -0.00435476 0.20454545 0.28809938
v -0.03465779 -0.00757576 0.31840242
v -0.20132447 0.15909091 0.19719029
v -0.12556689 -0.20454547 0.25779635
v -0.20309380 -0.15264963 0.17695182
v -0.14071840 -0.26515153 0.19719029
v 0.01079675 0.20454545 0.27294787
v -0.06496083 0.20454545 0.28809938
v -0.09526386 -0.15909092 0.28809938
v -0.20132447 0.12878788 0.24264484
v -0.20132447 -0.15909092 0.19719029
v -0.14071840 -0.23484850 0.22749332
v -0.08011234 -0.18939395 0.27294787
v -0.03465779 0.15909091 0.31840242
v -0.06496083 -0.12878789 0.30325090
v -0.20132447 0.05303030 0.24264484
v -0.09526386 -0.18939395 0.27294787
v -0.18617295 0.09848485 0.25779635
v -0.03465779 -0.14393940 0.30325090
v -0.18617295 0.06818181 0.25779635
f 8 6 2
f 8 5 6
f 9 2 6
f 10 6 5
f 10 4 6
f 11 7 1
f 11 1 2
f 13 8 2
f 13 2 1
f 14 9 3
f 14 2 9
f 14 11 2
f 14 3 7
f 14 7 11
f 16 7 3
f 16 3 9
f 17 10 5
f 17 4 10
f 19 5 8
f 19 17 5
f 20 8 13
f 20 19 8
f 20 13 1
f 21 15 9
f 21 9 6
f 21 6 4
f 21 4 15
f 22 15 4
f 22 9 15
f 23 12 18
f 24 17 19
f 24 22 4
f 24 4 17
f 25 12 19
f 25 19 20
f 26 18 12
f 26 25 20
f 26 12 25
f 27 20 1
f 27 1 7
f 27 26 20
f 27 18 26
f 28 16 9
f 28 9 22
f 28 22 24
f 30 24 19
f 30 19 12
f 31 23 18
f 31 18 27
f 31 27 7
f 32 28 24
f 32 16 28
f 32 24 30
f 33 29 23
f 33 7 16
f 33 16 29
f 33 31 7
f 33 23 31
f 34 29 16
f 34 16 32
f 34 23 29
f 34 12 23
f 34 32 30
f 34 30 12