# https://github.com/mikedh/trimesh
v 0.01079675 0.35606061 -0.07553699
v 0.00999662 0.35820451 -0.33560560
v 0.01079675 0.50757577 -0.24220366
v -0.03465779 0.50757577 -0.10584002
v -0.18617295 0.31060606 -0.28765821
v 0.01079675 0.49242425 -0.07553699
v 0.01136987 0.41089208 -0.33429781
v -0.08011234 0.31060606 -0.30280972
v -0.18617295 0.35606061 -0.07553699
v -0.18617295 0.44696970 -0.27250669
v 0.01079675 0.50757577 -0.10584002
v -0.14071840 0.35606061 -0.34826427
v -0.12556689 0.31060606 -0.28765821
v -0.14071840 0.47727274 -0.07553699
v -0.06496083 0.50757577 -0.21190063
v -0.11041537 0.43181819 -0.33311275
v -0.08011234 0.41666667 -0.34826427
v -0.18617295 0.38636364 -0.33311275
v -0.18408511 0.31146009 -0.32255732
v -0.03465779 0.49242425 -0.07553699
v -0.18425892 0.45033455 -0.07805408
v -0.06496083 0.50757577 -0.13614305
v -0.17102143 0.47727274 -0.16644608
v -0.09526386 0.46212122 -0.30280972
v -0.08011234 0.32575758 -0.34826427
v -0.18617295 0.41666667 -0.31796124
v -0.12556689 0.38636364 -0.34826427
v -0.17102143 0.40151516 -0.33311275
v -0.14071840 0.34090909 -0.34826427
v -0.18617295 0.46212122 -0.21190063
v -0.11041537 0.49242425 -0.10584002
v -0.12556689 0.49242425 -0.15129457
v -0.17102143 0.47727274 -0.12099154
v -0.04980931 0.50757577 -0.22705215
v -0.08011234 0.46212122 -0.30280972
v -0.07995010 0.31214464 -0.32784017
v -0.11041537 0.44696970 -0.31796124
v -0.11041537 0.40151516 -0.34826427
v -0.11041537 0.32575758 -0.34826427
v -0.11041537 0.49242425 -0.22705215
v -0.12556689 0.49242425 -0.18159760
v -0.15586992 0.47727274 -0.09068851
v -0.00435476 0.50757577 -0.24220366
v -0.17102143 0.44696970 -0.28765821
v -0.15586992 0.47727274 -0.21190063
v -0.09526386 0.49242425 -0.24220366
v -0.14071840 0.47727274 -0.24220366
v -0.12556689 0.46212122 -0.28765821
v -0.12556689 0.47727274 -0.25735518
f 7 1 2
f 7 6 1
f 8 2 1
f 9 5 1
f 9 1 6
f 10 5 9
f 11 3 4
f 11 4 6
f 11 7 3
f 11 6 7
f 13 8 1
f 13 1 5
f 13 5 8
f 14 9 6
f 15 4 3
f 17 7 2
f 17 3 7
f 18 5 10
f 19 8 5
f 19 5 18
f 20 14 6
f 20 6 4
f 20 4 14
f 21 9 14
f 22 4 15
f 25 17 2
f 25 12 17
f 26 18 10
f 27 17 12
f 27 12 18
f 28 27 18
f 28 26 16
f 28 18 26
f 29 19 18
f 29 18 12
f 29 12 25
f 30 10 9
f 30 9 21
f 31 14 4
f 31 4 22
f 32 22 15
f 33 32 23
f 33 31 22
f 33 22 32
f 33 30 21
f 33 23 30
f 34 15 3
f 35 24 3
f 35 3 17
f 35 17 16
f 35 16 24
f 36 25 2
f 36 2 8
f 36 8 19
f 37 24 16
f 37 16 26
f 38 17 27
f 38 27 28
f 38 28 16
f 38 16 17
f 39 29 25
f 39 19 29
f 39 36 19
f 39 25 36
f 40 15 34
f 41 32 15
f 41 23 32
f 41 40 23
f 41 15 40
f 42 33 21
f 42 21 14
f 42 14 31
f 42 31 33
f 43 34 3
f 43 3 24
f 44 37 26
f 44 26 10
f 44 24 37
f 45 30 23
f 45 23 40
f 45 10 30
f 46 40 34
f 46 43 24
f 46 34 43
f 47 45 40
f 47 10 45
f 48 24 44
f 49 44 10
f 49 10 47
f 49 48 44
f 49 46 24
f 49 24 48
f 49 47 40
f 49 40 46