# https://github.com/mikedh/trimesh
v 0.37443313 -0.26515153 0.09112968
v 0.37443313 -0.26515153 0.01537210
v 0.37443313 -0.00757576 0.16688726
v -0.20451943 -0.00509106 0.18625615
v -0.20132447 -0.26515153 0.01537210
v 0.23806949 -0.25000001 0.18203878
v -0.20132447 -0.00757576 0.01537210
v 0.37443313 -0.14393940 0.16688726
v 0.25322100 -0.00757576 0.18203878
v -0.20132447 -0.26515153 0.15173575
v 0.37443313 -0.00757576 0.01537210
v 0.25322100 -0.26515153 0.16688726
v 0.25322100 -0.20454547 0.18203878
v -0.15586992 -0.25000001 0.18203878
v 0.37443313 -0.21969698 0.12143271
v -0.20132447 -0.17424244 0.18203878
v -0.12861225 -0.26284406 0.17375438
v 0.35928161 -0.23484850 0.12143271
v 0.21345392 -0.26326930 0.17322547
f 1 2 3
f 5 2 1
f 7 2 5
f 7 5 4
f 8 1 3
f 9 3 4
f 9 8 3
f 10 5 1
f 10 4 5
f 11 3 2
f 11 2 7
f 11 7 4
f 11 4 3
f 12 8 6
f 12 10 1
f 13 9 4
f 13 4 6
f 13 6 8
f 13 8 9
f 14 6 4
f 15 1 8
f 15 8 12
f 16 14 4
f 16 4 10
f 16 10 14
f 17 6 14
f 17 14 10
f 17 10 12
f 18 15 12
f 18 12 1
f 18 1 15
f 19 17 12
f 19 12 6
f 19 6 17