# https://github.com/mikedh/trimesh
v 0.41988767 -0.26515153 0.06082665
v 0.46534222 -0.23484850 0.01537210
v 0.43503919 -0.17424244 0.12143271
v 0.35928161 0.18939394 0.13658423
v 0.35928161 0.18939394 0.01537210
v 0.45019071 0.08333333 0.03052362
v 0.37443313 -0.15909092 0.15173575
v 0.45019071 -0.21969698 0.07597817
v 0.37443313 -0.26515153 0.01537210
v 0.38958464 0.15909091 0.13658423
v 0.43692800 0.08141368 0.01023756
v 0.40473616 -0.23484850 0.10628120
v 0.45019071 -0.26515153 0.03052362
v 0.46534222 -0.14393940 0.04567514
v 0.35040161 0.01825281 0.15847882
v 0.43503919 -0.09848486 0.12143271
v 0.41988767 0.17424242 0.01537210
v 0.35928161 -0.00757576 0.01537210
v 0.45019071 -0.26515153 0.01537210
v 0.40473616 -0.15909092 0.15173575
v 0.41988767 -0.20454547 0.12143271
v 0.36814126 -0.25820789 0.06740524
v 0.46534222 -0.23484850 0.03052362
v 0.45019071 -0.18939395 0.09112968
v 0.35150824 0.16738872 0.14435228
v 0.43503919 0.02272727 0.09112968
v 0.41988767 0.17424242 0.04567514
v 0.40473616 0.18939394 0.07597817
v 0.40238671 0.18938223 0.01489655
v 0.43503919 0.14393939 0.01537210
v 0.38958464 -0.21969698 0.12143271
v 0.40473616 -0.05303031 0.15173575
v 0.37443313 -0.00757576 0.16688726
v 0.43503919 -0.20454547 0.10628120
v 0.40473616 -0.26515153 0.07597817
v 0.37443313 -0.21969698 0.12143271
v 0.46534222 -0.20454547 0.04567514
v 0.45019071 -0.11363637 0.09112968
v 0.37443313 0.17424242 0.15173575
v 0.40473616 0.15909091 0.10628120
v 0.43503919 0.14393939 0.03052362
v 0.35637549 -0.00890247 0.16483478
v 0.45019071 0.05303030 0.04567514
v 0.37443313 0.18939394 0.13658423
v 0.37443313 0.02272727 0.16688726
v 0.43503919 0.12878788 0.04567514
f 11 6 2
f 13 1 9
f 14 2 6
f 18 11 9
f 18 5 11
f 18 15 5
f 19 11 2
f 19 9 11
f 19 13 9
f 19 2 13
f 20 3 16
f 21 3 20
f 21 12 1
f 22 18 9
f 22 15 18
f 23 13 2
f 23 8 13
f 23 2 14
f 24 3 8
f 24 8 23
f 24 16 3
f 25 4 5
f 25 5 15
f 26 10 16
f 28 5 4
f 28 27 17
f 29 17 11
f 29 11 5
f 29 28 17
f 29 5 28
f 30 6 11
f 30 11 17
f 30 17 27
f 31 20 7
f 31 21 20
f 31 12 21
f 32 20 16
f 32 16 10
f 33 7 20
f 33 20 32
f 34 8 3
f 34 3 21
f 34 21 1
f 34 13 8
f 34 1 13
f 35 22 9
f 35 9 1
f 35 1 12
f 36 7 15
f 36 15 22
f 36 31 7
f 36 22 35
f 36 35 12
f 36 12 31
f 37 24 23
f 37 23 14
f 37 14 24
f 38 24 14
f 38 16 24
f 38 26 16
f 39 4 25
f 39 32 10
f 40 10 26
f 40 27 28
f 41 30 27
f 41 6 30
f 42 15 7
f 42 7 33
f 42 39 25
f 42 25 15
f 43 38 14
f 43 14 6
f 43 26 38
f 43 40 26
f 44 28 4
f 44 4 39
f 44 39 10
f 44 40 28
f 44 10 40
f 45 33 32
f 45 32 39
f 45 42 33
f 45 39 42
f 46 6 41
f 46 43 6
f 46 40 43
f 46 41 27
f 46 27 40