# https://github.com/mikedh/trimesh
v 0.32897858 0.23484849 -0.27250669
v 0.32435601 0.23357085 -0.29298111
v 0.13200888 0.47727274 -0.28765821
v -0.06496083 0.49242425 -0.25735518
v -0.18617295 0.23484849 -0.24220366
v 0.08500704 0.48315683 -0.23776606
v 0.29867555 0.35606061 -0.28765821
v 0.22291797 0.23484849 -0.24220366
v -0.08011234 0.32575758 -0.34826427
v 0.08655433 0.49242425 -0.27250669
v -0.06193494 0.47941217 -0.23702638
v 0.32897858 0.31060606 -0.28765821
v 0.13200888 0.47727274 -0.27250669
v 0.22291797 0.35606061 -0.24220366
v -0.18572201 0.23547300 -0.31891703
v 0.13200888 0.40151516 -0.34826427
v -0.18617295 0.35606061 -0.24220366
v 0.32897858 0.28030303 -0.30280972
v 0.28352403 0.37121213 -0.28765821
v 0.32136835 0.30395960 -0.26548976
v 0.22291797 0.23484849 -0.33311275
v -0.08011234 0.43181819 -0.33311275
v -0.07905851 0.47342746 -0.24071729
v -0.18617295 0.35606061 -0.28765821
v 0.23806949 0.35606061 -0.33311275
v 0.27530018 0.36515794 -0.26663154
v 0.14716039 0.34090909 -0.34826427
v 0.31382706 0.23484849 -0.31796124
v -0.18408511 0.31146009 -0.32255732
v 0.10170585 0.41666667 -0.34826427
v -0.06496083 0.46212122 -0.31796124
v -0.08011234 0.47727274 -0.28765821
v 0.25322100 0.37121213 -0.31796124
v 0.28772553 0.34882732 -0.26524439
v -0.00435476 0.32575758 -0.34826427
v 0.14716039 0.38636364 -0.34826427
v 0.29867555 0.29545455 -0.31796124
v 0.25322100 0.26515152 -0.33311275
v -0.06496083 0.44696970 -0.33311275
v 0.11685736 0.46212122 -0.31796124
v -0.03465779 0.49242425 -0.27250669
v 0.28352403 0.35606061 -0.30280972
v 0.22291797 0.40151516 -0.31796124
v 0.25322100 0.31060606 -0.33311275
v 0.31382706 0.25000000 -0.31796124
v 0.31382706 0.31060606 -0.30280972
v 0.19261494 0.40151516 -0.33311275
v 0.10170585 0.44696970 -0.33311275
v 0.08655433 0.47727274 -0.30280972
v 0.28352403 0.32575758 -0.31796124
v -0.01950628 0.47727274 -0.30280972
f 8 5 2
f 8 2 1
f 10 4 6
f 11 6 4
f 11 8 6
f 11 5 8
f 13 10 6
f 13 3 10
f 14 6 8
f 15 2 5
f 17 5 11
f 18 12 1
f 18 1 2
f 19 3 13
f 20 14 8
f 20 8 1
f 20 1 12
f 20 12 7
f 21 15 9
f 21 2 15
f 23 17 11
f 23 11 4
f 23 4 17
f 24 15 5
f 24 5 17
f 26 19 13
f 26 13 6
f 26 6 14
f 26 7 19
f 27 9 16
f 28 18 2
f 28 2 21
f 29 22 9
f 29 9 15
f 29 24 22
f 29 15 24
f 30 16 9
f 32 24 17
f 32 17 4
f 32 22 24
f 33 19 7
f 34 26 14
f 34 14 20
f 34 20 7
f 34 7 26
f 35 27 21
f 35 21 9
f 35 9 27
f 36 27 16
f 36 16 25
f 38 27 36
f 38 28 21
f 38 21 27
f 39 30 9
f 39 9 22
f 39 32 31
f 39 22 32
f 41 32 4
f 41 4 10
f 42 33 7
f 42 7 12
f 43 3 19
f 43 19 33
f 43 40 3
f 43 33 25
f 44 28 38
f 44 38 36
f 44 36 25
f 45 37 18
f 45 18 28
f 45 28 44
f 45 44 25
f 45 25 37
f 46 18 37
f 46 33 42
f 46 42 12
f 46 12 18
f 47 16 30
f 47 40 43
f 47 43 25
f 47 25 16
f 48 30 39
f 48 47 30
f 48 40 47
f 49 10 3
f 49 3 40
f 49 41 10
f 49 48 39
f 49 40 48
f 50 46 37
f 50 37 25
f 50 25 33
f 50 33 46
f 51 41 49
f 51 31 32
f 51 32 41
f 51 49 39
f 51 39 31