# https://github.com/mikedh/trimesh
v 0.35637549 -0.00890247 0.16483478
v 0.35928161 -0.00757576 0.01537210
v 0.35928161 0.18939394 0.15173575
v -0.20132447 0.20454545 0.18203878
v -0.20132447 -0.00757576 0.00022059
v 0.23806949 0.20454545 0.19719029
v 0.35928161 0.17424242 0.16688726
v -0.20451943 -0.00509106 0.18625615
v 0.01079675 0.20454545 0.00022059
v 0.23806949 -0.00757576 0.19719029
v 0.34413010 0.18939394 0.16688726
v 0.01079675 -0.00757576 0.19719029
v -0.20132447 0.20454545 0.00022059
v 0.35928161 0.18939394 0.01537210
v 0.01079675 -0.00757576 0.00022059
v 0.01079675 0.20454545 0.19719029
v 0.23806949 0.20454545 0.01537210
f 7 1 2
f 7 2 3
f 9 4 6
f 10 7 6
f 10 1 7
f 11 7 3
f 11 3 6
f 11 6 7
f 12 8 5
f 12 5 1
f 12 1 10
f 12 10 6
f 13 8 4
f 13 5 8
f 13 9 5
f 13 4 9
f 14 3 2
f 14 2 9
f 14 6 3
f 15 9 2
f 15 5 9
f 15 2 1
f 15 1 5
f 16 12 6
f 16 6 4
f 16 4 8
f 16 8 12
f 17 14 9
f 17 9 6
f 17 6 14