# https://github.com/mikedh/trimesh
v 0.16231191 -0.26515153 0.24264484
v 0.25322100 -0.14393940 0.19719029
v 0.22291797 -0.00757576 0.31840242
v -0.01959147 -0.00759417 0.30344766
v -0.12366166 -0.26486714 0.18088981
v 0.25322100 -0.00757576 0.18203878
v 0.04109978 -0.20454547 0.30325090
v 0.20776646 -0.20454547 0.27294787
v 0.20636005 -0.26492521 0.18069748
v 0.25322100 -0.03787879 0.30325090
v 0.16159172 -0.00103894 0.30959006
v 0.01079675 -0.00757576 0.18203878
v 0.16231191 -0.02272728 0.31840242
v -0.04980931 -0.26515153 0.27294787
v 0.10170585 -0.25000001 0.28809938
v -0.12556689 -0.26515153 0.21234181
v 0.20776646 -0.23484850 0.24264484
v 0.24934780 -0.13854932 0.17626761
v 0.24533203 -0.00895674 0.29162457
v 0.22291797 -0.21969698 0.24264484
v 0.22291797 -0.02272728 0.31840242
v -0.12556689 -0.14393940 0.18203878
v -0.01950628 -0.00757576 0.25779635
v -0.08011234 -0.15909092 0.28809938
v 0.11685736 -0.26515153 0.27294787
v 0.05625130 -0.25000001 0.28809938
v 0.22291797 -0.25000001 0.19719029
v 0.21532949 -0.24834797 0.17459710
v 0.25322100 -0.06818183 0.28809938
v 0.08655433 -0.20454547 0.30325090
v -0.03465779 -0.23484850 0.28809938
v -0.12556689 -0.21969698 0.24264484
v 0.23806949 -0.20454547 0.19719029
v 0.22808646 -0.20242389 0.17478351
v -0.04980931 -0.21969698 0.28809938
v -0.12556689 -0.25000001 0.22749332
v -0.11481459 -0.14542850 0.24090592
v -0.11041537 -0.26515153 0.22749332
f 10 2 6
f 11 4 3
f 12 11 6
f 13 3 4
f 13 4 7
f 16 9 1
f 16 5 9
f 16 1 14
f 18 6 2
f 18 12 6
f 19 10 6
f 19 3 10
f 19 11 3
f 19 6 11
f 20 8 17
f 21 10 3
f 21 8 10
f 21 15 8
f 21 13 7
f 21 3 13
f 22 5 16
f 23 4 11
f 23 11 12
f 23 22 4
f 23 12 22
f 24 7 4
f 25 8 15
f 25 17 8
f 25 1 17
f 25 15 14
f 25 14 1
f 26 15 7
f 26 14 15
f 27 17 1
f 27 1 9
f 27 20 17
f 28 9 5
f 28 5 22
f 28 27 9
f 29 10 8
f 29 8 20
f 29 2 10
f 30 21 7
f 30 7 15
f 30 15 21
f 31 26 7
f 31 14 26
f 32 22 16
f 33 20 27
f 33 29 20
f 33 2 29
f 33 18 2
f 33 28 18
f 33 27 28
f 34 28 22
f 34 22 12
f 34 12 18
f 34 18 28
f 35 14 31
f 35 32 14
f 35 24 32
f 35 31 7
f 35 7 24
f 36 32 16
f 36 14 32
f 37 32 24
f 37 24 4
f 37 4 22
f 37 22 32
f 38 36 16
f 38 16 14
f 38 14 36