# https://github.com/mikedh/trimesh
v 0.41988767 -0.26515153 -0.15129457
v 0.46534222 -0.15909092 -0.15129457
v 0.42628718 -0.24406752 -0.12771136
v 0.01079675 -0.14393940 -0.13614305
v 0.01069253 -0.14394547 -0.30219098
v 0.45330712 -0.14020087 -0.13287462
v 0.01079675 -0.26515153 -0.13614305
v 0.45019071 -0.21969698 -0.13614305
v 0.31382706 -0.15909092 -0.28765821
v 0.33848010 -0.13790495 -0.26210711
v 0.41265648 -0.25796727 -0.12935131
v 0.13200888 -0.26515153 -0.30280972
v 0.01009633 -0.26447232 -0.29766245
v 0.45019071 -0.21969698 -0.15129457
v 0.43503919 -0.25000001 -0.15129457
v 0.46534222 -0.15909092 -0.13614305
v 0.23587202 -0.14091872 -0.28883893
v 0.45019071 -0.14393940 -0.18159760
v 0.32897858 -0.26515153 -0.24220366
v 0.23806949 -0.15909092 -0.30280972
v 0.46534222 -0.14393940 -0.15129457
v 0.30984172 -0.13954232 -0.27383455
v 0.34413010 -0.15909092 -0.27250669
v 0.45019071 -0.15909092 -0.18159760
v 0.23806949 -0.26515153 -0.28765821
v 0.43503919 -0.14393940 -0.19674911
v 0.34413010 -0.21969698 -0.25735518
v 0.37443313 -0.23484850 -0.22705215
v 0.22291797 -0.23484850 -0.30280972
v 0.43503919 -0.15909092 -0.19674911
v 0.26837252 -0.23484850 -0.28765821
v 0.38958464 -0.23484850 -0.21190063
v 0.34413010 -0.25000001 -0.24220366
v 0.37443313 -0.18939395 -0.24220366
v 0.31382706 -0.21969698 -0.27250669
f 6 4 3
f 7 3 4
f 10 5 4
f 10 4 6
f 11 7 1
f 11 1 3
f 11 3 7
f 12 1 7
f 13 7 4
f 13 4 5
f 13 12 7
f 13 5 12
f 14 2 8
f 15 8 3
f 15 3 1
f 15 14 8
f 16 6 3
f 16 3 8
f 16 8 2
f 17 5 10
f 18 10 6
f 19 1 12
f 19 15 1
f 20 12 5
f 20 5 17
f 21 16 2
f 21 6 16
f 21 18 6
f 21 2 18
f 22 17 10
f 22 10 9
f 22 20 17
f 22 9 20
f 23 9 10
f 24 18 2
f 24 2 14
f 25 19 12
f 26 23 10
f 26 10 18
f 26 18 24
f 27 9 23
f 27 19 25
f 29 20 9
f 29 25 12
f 29 12 20
f 30 26 24
f 30 23 26
f 31 29 9
f 31 25 29
f 32 24 14
f 32 14 15
f 32 15 28
f 32 30 24
f 32 28 30
f 33 19 27
f 33 27 28
f 33 28 15
f 33 15 19
f 34 27 23
f 34 23 30
f 34 30 28
f 34 28 27
f 35 31 9
f 35 9 27
f 35 27 25
f 35 25 31