# https://github.com/mikedh/trimesh
v 0.01079675 -0.26515153 0.01537210
v 0.01009633 -0.26447232 -0.29766245
v 0.01079675 -0.00757576 0.01537210
v -0.35283962 -0.00757576 0.01537210
v -0.35283962 -0.25000001 -0.30280972
v 0.01079675 -0.18939395 -0.31796124
v -0.23127908 -0.26511784 -0.31108409
v -0.35196282 -0.24362319 0.01347277
v -0.35261584 -0.00755646 -0.31117028
v -0.01950628 -0.26515153 -0.31796124
v -0.23162750 -0.26515153 0.01537210
v 0.00770413 -0.00734003 -0.30651423
v -0.35283962 -0.21969698 -0.31796124
v -0.32253659 -0.25000001 -0.31796124
f 1 3 4
f 6 1 2
f 6 3 1
f 8 4 5
f 10 2 1
f 10 6 2
f 11 1 4
f 11 4 8
f 11 10 1
f 11 7 10
f 11 8 5
f 11 5 7
f 12 9 4
f 12 4 3
f 12 3 6
f 12 6 9
f 13 5 4
f 13 4 9
f 13 9 6
f 13 6 10
f 14 7 5
f 14 5 13
f 14 13 10
f 14 10 7