# https://github.com/mikedh/trimesh
v 0.10170585 -0.50757578 -0.01493093
v 0.45019071 -0.28030304 -0.09068851
v 0.41988767 -0.28030304 0.04567514
v -0.09526386 -0.26515153 0.01537210
v -0.09526386 -0.35606062 -0.31796124
v 0.42862682 -0.25562278 0.02537195
v -0.09526386 -0.49242426 0.01537210
v 0.22291797 -0.47727275 0.01537210
v -0.01950628 -0.26515153 -0.31796124
v 0.45019071 -0.28030304 0.00022059
v 0.41476362 -0.25545156 0.03971424
v 0.40473616 -0.28030304 0.04567514
v -0.03465779 -0.49242426 -0.19674911
v 0.10170585 -0.49242426 0.01537210
v -0.09511969 -0.26646186 -0.30844865
v 0.23806949 -0.31060608 -0.27250669
v 0.31382706 -0.26515153 -0.24220366
v 0.43503919 -0.28030304 0.03052362
v 0.44335549 -0.25804200 -0.08786550
v 0.21822150 -0.26070259 -0.27437924
v 0.40231220 -0.25992585 0.04243315
v -0.09526386 -0.46212123 -0.22705215
v -0.06496083 -0.50757578 -0.10584002
v 0.13200888 -0.49242426 -0.15129457
v 0.22291797 -0.28030304 -0.28765821
v 0.05625130 -0.46212123 -0.24220366
v 0.38958464 -0.29545456 -0.15129457
v 0.34413010 -0.37121214 0.01537210
v 0.44216899 -0.25729303 -0.00269598
v 0.43503919 -0.28030304 -0.12099154
v 0.42743258 -0.25739403 -0.11422202
v -0.04980931 -0.50757578 -0.03008244
v -0.09526386 -0.49242426 -0.15129457
v 0.13200888 -0.50757578 -0.07553699
v 0.22291797 -0.47727275 -0.06038547
v -0.00435476 -0.38636365 -0.30280972
v -0.01950628 -0.29545456 -0.31796124
v 0.11685736 -0.26515153 -0.30280972
v 0.31382706 -0.28030304 -0.24220366
v -0.03465779 -0.47727275 -0.22705215
v 0.04109978 -0.49242426 -0.19674911
v 0.11685736 -0.47727275 -0.19674911
v -0.01950628 -0.50757578 -0.01493093
v -0.06496083 -0.50757578 -0.06038547
v -0.01950628 -0.50757578 -0.15129457
v 0.13200888 -0.50757578 -0.04523396
v 0.17746342 -0.49242426 -0.09068851
v 0.20776646 -0.29545456 -0.28765821
v 0.04109978 -0.40151517 -0.28765821
v -0.08011234 -0.35606062 -0.31796124
v 0.11685736 -0.28030304 -0.30280972
v -0.09526386 -0.40151517 -0.30280972
v 0.04109978 -0.47727275 -0.22705215
v 0.11685736 -0.43181820 -0.24220366
v 0.11685736 -0.49242426 -0.16644608
v 0.31382706 -0.31060608 -0.21190063
v 0.13200888 -0.47727275 -0.18159760
v 0.11685736 -0.50757578 -0.10584002
v 0.01079675 -0.41666668 -0.28765821
v -0.06496083 -0.40151517 -0.30280972
v -0.09526386 -0.43181820 -0.27250669
v 0.08655433 -0.47727275 -0.21190063
v 0.08655433 -0.40151517 -0.27250669
v 0.23806949 -0.34090911 -0.24220366
f 7 4 5
f 10 8 2
f 12 7 3
f 12 4 7
f 14 7 1
f 14 1 8
f 14 8 3
f 14 3 7
f 15 9 5
f 15 5 4
f 15 11 9
f 15 4 11
f 18 10 6
f 18 3 8
f 18 11 3
f 18 6 11
f 19 10 2
f 20 9 11
f 21 11 4
f 21 4 12
f 21 12 3
f 21 3 11
f 22 7 5
f 25 20 17
f 28 18 8
f 28 8 10
f 28 10 18
f 29 19 6
f 29 6 10
f 29 10 19
f 30 19 2
f 31 20 11
f 31 11 6
f 31 6 19
f 31 17 20
f 31 30 17
f 31 19 30
f 32 23 1
f 33 22 13
f 33 23 7
f 33 7 22
f 34 1 23
f 35 2 8
f 35 30 2
f 37 5 9
f 38 9 20
f 38 20 25
f 38 37 9
f 39 25 17
f 39 16 25
f 39 17 30
f 40 13 22
f 41 13 40
f 43 32 1
f 43 1 7
f 43 7 32
f 44 32 7
f 44 7 23
f 44 23 32
f 45 33 13
f 45 23 33
f 45 13 41
f 45 34 23
f 46 8 1
f 46 1 34
f 47 35 8
f 47 46 34
f 47 8 46
f 48 25 16
f 49 48 16
f 49 36 48
f 50 5 37
f 51 38 25
f 51 37 38
f 51 25 48
f 51 50 37
f 51 48 36
f 51 36 50
f 52 5 50
f 52 22 5
f 53 41 40
f 54 16 42
f 55 42 24
f 56 16 39
f 56 39 30
f 56 30 27
f 57 27 30
f 57 30 35
f 57 24 42
f 57 47 24
f 57 35 47
f 57 56 27
f 57 42 56
f 58 47 34
f 58 24 47
f 58 55 24
f 58 34 45
f 58 45 41
f 58 41 55
f 59 26 53
f 59 36 49
f 60 52 50
f 60 50 36
f 60 59 52
f 60 36 59
f 61 40 22
f 61 22 52
f 61 52 59
f 61 59 53
f 61 53 40
f 62 41 53
f 62 55 41
f 62 42 55
f 62 53 26
f 62 54 42
f 62 26 54
f 63 49 16
f 63 16 54
f 63 59 49
f 63 54 26
f 63 26 59
f 64 56 42
f 64 42 16
f 64 16 56