# https://github.com/mikedh/trimesh
v 0.46534222 -0.14393940 0.04567514
v 0.48049374 -0.09848486 -0.15129457
v 0.49564525 0.02272727 -0.09068851
v 0.39213147 0.23610582 0.01663940
v 0.38242549 -0.10482475 -0.23623771
v 0.45019071 0.11363636 0.01537210
v 0.49564525 -0.02272728 -0.10584002
v 0.46534222 -0.14393940 -0.16644608
v 0.38958464 -0.14393940 0.01537210
v 0.40473616 0.14393939 -0.27250669
v 0.48049374 0.05303030 -0.03008244
v 0.45019071 -0.09848486 0.06082665
v 0.48049374 -0.09848486 -0.10584002
v 0.49564525 -0.00757576 -0.09068851
v 0.38086227 0.14265525 -0.26558808
v 0.44380674 -0.14455990 0.05912012
v 0.38703790 -0.14230327 -0.20786855
v 0.41988767 0.03787878 -0.27250669
v 0.46534222 0.15909091 -0.16644608
v 0.46534222 0.03787878 0.01537210
v 0.46534222 -0.12878789 0.04567514
v 0.41988767 0.21969697 0.01537210
v 0.38198882 -0.08166569 -0.24655768
v 0.38531382 0.23458355 -0.22598552
v 0.41988767 -0.14393940 -0.21190063
v 0.44267266 -0.14319746 0.06286720
v 0.40473616 -0.00757576 -0.27250669
v 0.48049374 -0.05303031 -0.18159760
v 0.45019071 0.09848485 -0.24220366
v 0.46534222 0.15909091 -0.09068851
v 0.46534222 0.09848485 -0.01493093
v 0.41988767 0.23484849 -0.15129457
v 0.40473616 -0.11363637 -0.24220366
v 0.42807912 -0.10327956 0.06100724
v 0.38293727 -0.00435182 -0.26150034
v 0.48049374 -0.08333334 -0.16644608
v 0.48049374 0.09848485 -0.16644608
v 0.41988767 0.08333333 -0.27250669
v 0.40473616 0.23484849 -0.22705215
v 0.45019071 0.02272727 -0.24220366
v 0.48049374 0.06818181 -0.04523396
v 0.41988767 0.23484849 0.00022059
v 0.45019071 0.18939394 -0.07553699
v 0.40473616 -0.08333334 -0.25735518
v 0.49564525 -0.02272728 -0.13614305
v 0.48049374 0.11363636 -0.12099154
v 0.46534222 0.11363636 -0.21190063
v 0.43503919 0.09848485 -0.25735518
v 0.41988767 0.21969697 -0.21190063
v 0.41988767 0.20454545 -0.22705215
v 0.45019071 0.18939394 -0.15129457
v 0.41988767 -0.09848486 -0.24220366
v 0.49564525 0.02272727 -0.12099154
v 0.48049374 0.11363636 -0.15129457
v 0.48049374 -0.02272728 -0.18159760
v 0.49564525 0.00757575 -0.13614305
v 0.41988767 0.17424242 -0.24220366
v 0.45019071 0.12878788 -0.22705215
v 0.43503919 0.02272727 -0.25735518
v 0.45019071 -0.09848486 -0.21190063
v 0.46534222 -0.08333334 -0.19674911
v 0.45019071 -0.12878789 -0.19674911
v 0.43503919 -0.12878789 -0.21190063
f 8 2 1
f 13 7 1
f 13 1 2
f 13 2 7
f 14 7 3
f 14 3 1
f 14 1 7
f 15 9 4
f 16 8 1
f 17 9 5
f 20 6 12
f 21 1 3
f 21 3 11
f 21 11 20
f 21 20 12
f 21 12 1
f 22 12 6
f 22 4 12
f 23 5 9
f 23 9 15
f 24 15 4
f 24 10 15
f 25 16 9
f 25 8 16
f 25 9 17
f 26 16 1
f 26 1 12
f 26 9 16
f 27 15 10
f 27 10 18
f 31 22 6
f 31 20 11
f 31 6 20
f 33 25 17
f 33 17 5
f 34 26 12
f 34 12 4
f 34 4 9
f 34 9 26
f 35 27 23
f 35 23 15
f 35 15 27
f 36 2 8
f 38 18 10
f 39 24 4
f 39 4 32
f 39 10 24
f 41 11 3
f 41 31 11
f 41 30 31
f 42 31 30
f 42 22 31
f 42 32 4
f 42 4 22
f 43 30 19
f 43 42 30
f 43 32 42
f 44 33 5
f 44 5 23
f 44 23 27
f 44 27 18
f 45 36 28
f 45 7 2
f 45 2 36
f 45 3 7
f 46 41 3
f 46 30 41
f 46 19 30
f 47 40 29
f 47 28 40
f 48 38 10
f 48 10 29
f 48 18 38
f 48 29 40
f 49 39 32
f 49 19 47
f 50 10 39
f 50 49 47
f 50 39 49
f 51 43 19
f 51 32 43
f 51 49 32
f 51 19 49
f 52 44 18
f 52 25 33
f 52 33 44
f 53 3 45
f 53 46 3
f 54 19 46
f 54 47 19
f 54 37 47
f 54 46 53
f 55 45 28
f 55 28 47
f 56 47 37
f 56 55 47
f 56 45 55
f 56 53 45
f 56 54 53
f 56 37 54
f 57 50 29
f 57 29 10
f 57 10 50
f 58 50 47
f 58 47 29
f 58 29 50
f 59 52 18
f 59 48 40
f 59 18 48
f 60 59 40
f 60 52 59
f 61 60 40
f 61 40 28
f 61 8 60
f 61 36 8
f 61 28 36
f 62 60 8
f 63 25 52
f 63 52 60
f 63 60 62
f 63 62 8
f 63 8 25