# https://github.com/mikedh/trimesh
v 0.26515153 -0.16874612 0.03970732
v 0.32575759 -0.13844309 -0.02089874
v 0.29545456 -0.12329157 0.02455580
v 0.16385246 -0.11560663 0.01785250
v 0.23484850 -0.16874612 -0.03605026
v 0.26515153 -0.12329157 -0.03605026
v 0.17424244 -0.12329157 0.03970732
v 0.32380772 -0.15900910 0.00460548
v 0.31060608 -0.12329157 -0.00574723
v 0.15909092 -0.13844309 -0.02089874
v 0.28030304 -0.15359460 -0.03605026
v 0.25000001 -0.12329157 0.03970732
v 0.31060608 -0.13844309 0.02455580
v 0.32221308 -0.16238355 -0.01363979
v 0.29545456 -0.12329157 -0.02089874
v 0.31060608 -0.12329157 0.00940429
v 0.18939395 -0.13844309 -0.03605026
v 0.15909092 -0.13844309 0.02455580
v 0.28030304 -0.13844309 -0.03605026
v 0.30757611 -0.16163483 0.01752537
v 0.26515153 -0.15359460 0.03970732
v 0.32575759 -0.13844309 0.00940429
v 0.26694032 -0.16711997 -0.02266523
v 0.16441856 -0.11486644 -0.01240016
v 0.20454547 -0.15359460 -0.03605026
v 0.17424244 -0.13844309 0.03970732
v 0.20454547 -0.16874612 0.00940429
v 0.19328913 -0.11917664 -0.02221709
v 0.20454547 -0.16874612 -0.02089874
v 0.20454547 -0.15359460 0.03970732
v 0.21969698 -0.16874612 0.02455580
v 0.25000001 -0.16874612 0.03970732
f 11 5 6
f 12 7 1
f 12 3 4
f 12 4 7
f 13 3 12
f 14 5 11
f 14 11 2
f 14 2 8
f 15 9 2
f 15 2 6
f 16 4 3
f 16 3 13
f 16 2 9
f 17 6 5
f 18 7 4
f 18 4 10
f 19 11 6
f 19 6 2
f 19 2 11
f 20 13 1
f 20 8 13
f 20 14 8
f 20 1 14
f 21 13 12
f 21 12 1
f 21 1 13
f 22 13 8
f 22 8 2
f 22 16 13
f 22 2 16
f 23 14 1
f 23 1 5
f 23 5 14
f 24 15 6
f 24 9 15
f 24 16 9
f 24 4 16
f 24 17 10
f 24 10 4
f 25 17 5
f 25 10 17
f 26 1 7
f 26 7 18
f 27 18 10
f 27 5 1
f 27 26 18
f 28 24 6
f 28 6 17
f 28 17 24
f 29 25 5
f 29 10 25
f 29 27 10
f 29 5 27
f 30 1 26
f 30 26 27
f 31 30 27
f 31 27 1
f 32 31 1
f 32 1 30
f 32 30 31