# https://github.com/mikedh/trimesh
v 0.18417229 -0.12993566 0.01220543
v 0.19006529 -0.11954890 0.02630289
v 0.14393941 -0.10814006 0.03970732
v 0.14437521 -0.01670090 0.02386671
v 0.19022338 -0.01725506 0.02299035
v 0.14940037 -0.11405663 0.00665679
v 0.15909092 -0.12329157 0.03970732
v 0.15909092 -0.03238248 0.03970732
v 0.14393941 -0.12329157 0.02455580
v 0.18930182 -0.01722829 0.02304666
v 0.14393941 -0.03238248 0.03970732
v 0.18939395 -0.04753400 0.03970732
v 0.14391967 -0.01725498 0.02390074
f 5 2 1
f 6 5 1
f 6 4 5
f 7 1 2
f 8 3 7
f 9 7 3
f 9 6 1
f 9 1 7
f 10 8 5
f 10 5 4
f 10 4 8
f 11 8 4
f 11 3 8
f 12 8 7
f 12 7 2
f 12 2 5
f 12 5 8
f 13 4 6
f 13 6 9
f 13 11 4
f 13 9 3
f 13 3 11