# https://github.com/mikedh/trimesh
v 0.14393941 -0.12329157 0.02455580
v 0.14393941 -0.12329157 -0.02089874
v 0.14393941 0.11913267 0.02455580
v 0.11363638 0.11913267 0.00940429
v 0.05303032 -0.10814006 -0.02089874
v 0.14393941 0.11913267 -0.02089874
v 0.05303032 -0.09298854 0.03970732
v 0.12878789 -0.12329157 0.02455580
v 0.05303032 0.10398115 -0.02089874
v 0.14393941 -0.10814006 0.03970732
v 0.05303032 0.08882964 0.03970732
v 0.12878789 -0.12329157 -0.02089874
v 0.05303032 -0.10814006 0.02455580
v 0.11363638 0.11913267 -0.00574723
v 0.11363638 -0.10814006 0.03970732
v 0.05303032 0.10398115 0.02455580
v 0.14393941 0.10398115 0.03970732
v 0.12878789 0.11913267 -0.02089874
v 0.11363638 0.10398115 0.03970732
v 0.12878789 0.11913267 0.02455580
f 1 2 3
f 6 3 2
f 6 4 3
f 6 2 5
f 8 2 1
f 9 6 5
f 9 5 7
f 10 1 3
f 10 8 1
f 11 9 7
f 11 7 10
f 12 8 5
f 12 5 2
f 12 2 8
f 13 7 5
f 13 5 8
f 14 9 4
f 14 4 6
f 15 10 7
f 15 8 10
f 15 13 8
f 15 7 13
f 16 4 9
f 16 9 11
f 17 11 10
f 17 10 3
f 18 14 6
f 18 6 9
f 18 9 14
f 19 16 11
f 19 17 3
f 19 11 17
f 20 3 4
f 20 4 16
f 20 19 3
f 20 16 19