# https://github.com/mikedh/trimesh
v -0.35606059 -0.09298854 0.02455580
v -0.35343525 -0.05272961 -0.02654007
v -0.35606059 -0.01723097 0.00940429
v -0.44696968 -0.01723097 0.00940429
v -0.44696968 -0.07783703 -0.03605026
v -0.43181817 -0.03238248 -0.03605026
v -0.43181817 -0.03238248 0.02455580
v -0.35173967 -0.05640896 0.01327329
v -0.35683718 -0.08237329 -0.01387955
v -0.36088721 -0.02144749 -0.01148528
v -0.45136765 -0.03779288 -0.02592750
v -0.43181817 -0.09298854 0.02455580
v -0.35708807 -0.07107292 -0.02524246
v -0.43181817 -0.09298854 -0.02089874
v -0.44879636 -0.02213830 -0.01479478
v -0.44696968 -0.03238248 0.02455580
v -0.44402375 -0.06954305 0.01479799
f 6 2 5
f 7 1 3
f 7 3 4
f 8 1 2
f 8 2 3
f 8 3 1
f 9 2 1
f 10 3 2
f 10 2 6
f 10 4 3
f 11 6 5
f 12 1 7
f 13 5 2
f 13 2 9
f 14 9 1
f 14 13 9
f 14 5 13
f 14 12 5
f 14 1 12
f 15 10 6
f 15 4 10
f 15 11 4
f 15 6 11
f 16 12 7
f 16 7 4
f 16 4 11
f 17 16 11
f 17 11 5
f 17 5 12
f 17 12 16