# https://github.com/mikedh/trimesh
v -0.03771618 -0.09073781 0.00859037
v -0.03787877 -0.07783703 -0.03605026
v -0.03787877 -0.06268551 0.00940429
v -0.35598206 -0.06383047 0.01524004
v -0.35683718 -0.08237329 -0.01387955
v -0.35639112 -0.06244897 -0.02831228
v -0.09845072 -0.06261052 0.02341203
v -0.03772420 -0.08533250 -0.01357005
v -0.35606059 -0.09298854 0.02455580
v -0.03856663 -0.06223292 -0.02355839
v -0.35708807 -0.07107292 -0.02524246
f 7 1 3
f 7 6 4
f 8 2 3
f 8 3 1
f 8 5 2
f 9 7 4
f 9 1 7
f 9 8 1
f 9 5 8
f 10 3 2
f 10 2 6
f 10 7 3
f 10 6 7
f 11 4 6
f 11 9 4
f 11 5 9
f 11 6 2
f 11 2 5