# https://github.com/mikedh/trimesh
v 0.19022338 -0.01725506 0.02299035
v 0.21981855 0.01308266 0.02206348
v 0.20454547 0.05852661 0.03970732
v 0.20454547 0.14943570 0.03970732
v 0.14298966 0.10695239 0.01104598
v 0.21969698 0.08882964 0.03970732
v 0.21992370 0.14903238 0.00929333
v 0.14393941 0.04337509 0.03970732
v 0.18939395 0.14943570 0.00940429
v 0.21969698 0.14943570 0.03970732
v 0.14391967 -0.01725498 0.02390074
v 0.18939395 0.04337509 0.03970732
v 0.14393941 0.10398115 0.03970732
v 0.18930182 -0.01722829 0.02304666
v 0.18939395 0.14943570 0.02455580
f 1 2 3
f 6 3 2
f 6 4 3
f 7 2 1
f 7 1 5
f 7 6 2
f 8 3 4
f 9 7 5
f 10 4 6
f 10 6 7
f 10 9 4
f 10 7 9
f 11 8 5
f 11 5 1
f 12 1 3
f 12 3 8
f 12 8 11
f 13 8 4
f 13 5 8
f 14 12 11
f 14 11 1
f 14 1 12
f 15 9 5
f 15 5 13
f 15 13 4
f 15 4 9