# https://github.com/mikedh/trimesh
v 0.05303032 -0.10814006 0.02455580
v 0.05303032 -0.10814006 -0.02089874
v 0.05354829 -0.01755671 0.02016086
v -0.09838073 -0.01748561 0.02068631
v -0.09835945 -0.08794088 0.00756173
v 0.02272729 -0.01723097 -0.03605026
v 0.05303032 -0.03238248 0.03970732
v 0.05343491 -0.07578282 0.02662948
v -0.02272726 -0.10814006 -0.00574723
v 0.05296609 -0.01733381 -0.01796164
v -0.09875839 -0.01746444 -0.02557204
v -0.06818180 -0.07783703 0.03970732
v 0.05303032 -0.09298854 0.03970732
v 0.00757577 -0.10814006 0.02455580
v 0.03787880 -0.03238248 -0.03605026
v -0.03787877 -0.07783703 -0.03605026
v -0.03787877 -0.03238248 0.03970732
v -0.09786436 -0.08396630 0.01311136
v -0.02272726 -0.10814006 0.00940429
v 0.00757577 -0.09298854 0.03970732
v -0.09849414 -0.06172650 -0.02525544
v 0.02272729 -0.10814006 -0.02089874
v 0.03787880 -0.07783703 -0.03605026
v -0.06818180 -0.04753400 0.03970732
f 7 3 4
f 8 1 2
f 8 2 3
f 8 3 7
f 9 2 1
f 10 3 2
f 10 6 4
f 10 4 3
f 11 5 4
f 11 4 6
f 13 8 7
f 13 1 8
f 13 7 12
f 14 9 1
f 14 12 5
f 14 1 13
f 15 10 2
f 15 6 10
f 16 9 5
f 16 11 6
f 16 6 15
f 17 12 7
f 17 7 4
f 18 12 4
f 18 4 5
f 18 5 12
f 19 14 5
f 19 5 9
f 19 9 14
f 20 14 13
f 20 13 12
f 20 12 14
f 21 16 5
f 21 5 11
f 21 11 16
f 22 16 2
f 22 2 9
f 22 9 16
f 23 16 15
f 23 15 2
f 23 2 16
f 24 17 4
f 24 4 12
f 24 12 17