# https://github.com/mikedh/trimesh
v 0.05284911 0.02841672 0.02169910
v 0.05281975 0.02837989 -0.01788126
v 0.05303032 0.10398115 -0.02089874
v -0.09848483 0.10398115 0.00940429
v -0.09885698 0.02832460 -0.02516908
v 0.05303032 0.08882964 0.03970732
v 0.05303032 0.04337509 0.03970732
v 0.02272729 0.02822358 -0.03605026
v -0.09848483 0.08882964 -0.03605026
v 0.05303032 0.10398115 0.02455580
v -0.03787877 0.04337509 0.03970732
v -0.09848483 0.10398115 -0.00574723
v 0.02272729 0.07367812 -0.03605026
v -0.03787877 0.10398115 0.02455580
v -0.09832201 0.02851692 0.02062117
v -0.06818180 0.10398115 -0.02089874
v -0.00757574 0.08882964 -0.03605026
v -0.03787877 0.07367812 0.03970732
v -0.00757574 0.08882964 0.03970732
v -0.09783129 0.08054261 0.01519100
f 7 1 2
f 7 2 3
f 7 3 6
f 8 2 1
f 8 1 5
f 8 3 2
f 9 8 5
f 10 6 3
f 10 3 4
f 11 7 6
f 11 1 7
f 12 9 5
f 12 5 4
f 12 4 3
f 13 3 8
f 13 8 9
f 14 10 4
f 14 6 10
f 15 4 5
f 15 5 1
f 15 1 11
f 16 12 3
f 16 3 9
f 16 9 12
f 17 13 9
f 17 9 3
f 17 3 13
f 18 11 6
f 18 15 11
f 19 18 6
f 19 6 14
f 19 14 4
f 19 4 18
f 20 18 4
f 20 4 15
f 20 15 18