# https://github.com/mikedh/trimesh
v 0.27230098 -0.12890433 0.01798733
v 0.27488360 -0.12744069 -0.01396400
v 0.28030304 -0.07783703 0.00940429
v 0.18811057 -0.07878340 0.02524415
v 0.19328913 -0.11917664 -0.02221709
v 0.21969698 -0.07783703 0.03970732
v 0.28030304 -0.09298854 0.02455580
v 0.19006529 -0.11954890 0.02630289
v 0.26515153 -0.07783703 -0.03605026
v 0.28030304 -0.07783703 -0.02089874
v 0.23484850 -0.12329157 0.03970732
v 0.19055253 -0.07774697 -0.02302663
v 0.26515153 -0.12329157 -0.03605026
v 0.23484850 -0.10814006 0.03970732
f 5 2 1
f 7 1 2
f 7 3 6
f 8 5 1
f 8 6 4
f 10 7 2
f 10 3 7
f 11 1 7
f 11 8 1
f 11 6 8
f 12 8 4
f 12 5 8
f 12 4 6
f 12 6 3
f 12 10 9
f 12 3 10
f 13 2 5
f 13 12 9
f 13 5 12
f 13 10 2
f 13 9 10
f 14 11 7
f 14 7 6
f 14 6 11