# https://github.com/mikedh/trimesh
v 0.46212123 0.16458722 0.03970732
v 0.46212123 0.17973873 -0.02089874
v 0.41666668 0.21004176 0.02455580
v 0.31060608 0.21004176 0.03970732
v 0.31060608 0.16458722 -0.03605026
v 0.40151517 0.21004176 0.03970732
v 0.46212123 0.17973873 0.03970732
v 0.45822469 0.16030097 -0.01694929
v 0.31060608 0.16458722 0.03970732
v 0.32575759 0.21004176 -0.03605026
v 0.44696971 0.19489024 0.00940429
v 0.44696971 0.17973873 -0.03605026
v 0.31368305 0.19654318 -0.01535829
v 0.44696971 0.19489024 0.02455580
v 0.44637924 0.16260912 -0.02110703
v 0.41666668 0.21004176 -0.02089874
v 0.31322580 0.18949344 -0.02240159
v 0.38636365 0.21004176 -0.03605026
v 0.44696971 0.19489024 -0.02089874
v 0.43181820 0.19489024 -0.03605026
f 6 3 4
f 6 4 1
f 7 1 2
f 7 6 1
f 8 2 1
f 9 1 4
f 9 4 5
f 9 8 1
f 9 5 8
f 10 4 3
f 11 7 2
f 12 2 8
f 12 5 10
f 13 4 10
f 14 11 3
f 14 7 11
f 14 3 6
f 14 6 7
f 15 12 8
f 15 8 5
f 15 5 12
f 16 10 3
f 16 3 11
f 17 13 10
f 17 10 5
f 17 5 4
f 17 4 13
f 18 12 10
f 18 10 16
f 19 16 11
f 19 11 2
f 19 2 12
f 20 18 16
f 20 12 18
f 20 19 12
f 20 16 19