# https://github.com/mikedh/trimesh
v 0.32575759 0.13428419 0.00940429
v 0.40151517 0.14943570 -0.02089874
v 0.40163082 0.16659424 0.00807164
v 0.31019121 0.16621115 0.02242338
v 0.31056208 0.16518241 -0.01985188
v 0.32575759 0.14943570 0.02455580
v 0.40470501 0.15446083 -0.00138749
v 0.31060608 0.13428419 -0.02089874
v 0.40337016 0.17135624 -0.01459701
v 0.32389064 0.16910504 0.02054588
v 0.31060608 0.13428419 0.00940429
v 0.32575759 0.13428419 -0.02089874
v 0.30605193 0.16088238 0.01802291
f 7 1 2
f 7 6 1
f 7 3 6
f 8 5 2
f 9 2 5
f 9 7 2
f 9 3 7
f 10 6 3
f 10 4 6
f 10 3 9
f 10 9 5
f 10 5 4
f 11 1 6
f 11 8 1
f 12 8 2
f 12 2 1
f 12 1 8
f 13 4 5
f 13 5 8
f 13 8 11
f 13 11 6
f 13 6 4