# https://github.com/mikedh/trimesh
v 0.05354829 -0.01755671 0.02016086
v 0.05296609 -0.01733381 -0.01796164
v 0.05284911 0.02841672 0.02169910
v -0.09832201 0.02851692 0.02062117
v -0.09875839 -0.01746444 -0.02557204
v -0.09838073 -0.01748561 0.02068631
v 0.05281975 0.02837989 -0.01788126
v -0.09885698 0.02832460 -0.02516908
v 0.02272729 0.01307206 -0.03605026
v 0.02272729 -0.01723097 -0.03605026
v 0.00757577 0.02822358 -0.03605026
f 5 2 1
f 6 1 3
f 6 3 4
f 6 5 1
f 7 1 2
f 7 3 1
f 7 4 3
f 8 6 4
f 8 5 6
f 8 4 7
f 9 7 2
f 10 9 2
f 10 2 5
f 11 8 7
f 11 7 9
f 11 5 8
f 11 10 5
f 11 9 10