# https://github.com/mikedh/trimesh
v 0.47879980 0.08926707 0.01748820
v 0.48186237 0.10465656 -0.02215093
v 0.47707656 0.13412349 0.02348024
v 0.45437223 0.14086223 0.01827246
v 0.43181820 0.08882964 -0.02089874
v 0.47578653 0.13384461 -0.02183921
v 0.44696971 0.08882964 0.02455580
v 0.47826022 0.08888554 -0.01868840
v 0.43181820 0.13428419 -0.02089874
v 0.46212123 0.10398115 -0.03605026
v 0.46463005 0.13703237 -0.02158120
v 0.43181820 0.08882964 0.00940429
v 0.43891151 0.13986471 -0.00155650
f 1 2 3
f 6 3 2
f 6 4 3
f 7 1 3
f 7 3 4
f 8 2 1
f 8 7 5
f 8 1 7
f 10 8 5
f 10 2 8
f 10 5 9
f 10 6 2
f 11 4 6
f 11 10 9
f 11 6 10
f 12 7 4
f 12 9 5
f 12 5 7
f 13 11 9
f 13 4 11
f 13 12 4
f 13 9 12