# https://github.com/mikedh/trimesh
v 0.40151517 -0.21420066 0.02455580
v 0.40151517 -0.21420066 -0.00574723
v 0.40009961 -0.19201147 0.02127179
v 0.29817357 -0.19151007 0.01979899
v 0.29545456 -0.21420066 -0.00574723
v 0.38557087 -0.19367320 -0.01771007
v 0.29545456 -0.21420066 0.02455580
v 0.40029793 -0.19527036 -0.00494593
v 0.31120246 -0.19424304 -0.01753612
v 0.29623779 -0.19595802 -0.00496861
v 0.38636365 -0.21420066 -0.02089874
v 0.31060608 -0.21420066 -0.02089874
f 1 2 3
f 5 2 1
f 6 4 3
f 7 1 3
f 7 3 4
f 7 5 1
f 8 6 3
f 8 3 2
f 9 4 6
f 10 7 4
f 10 5 7
f 10 4 9
f 11 8 2
f 11 6 8
f 11 2 5
f 12 10 9
f 12 5 10
f 12 11 5
f 12 9 6
f 12 6 11