# https://github.com/mikedh/trimesh
v -0.31032085 -0.06261285 0.01625238
v -0.31059439 -0.06118718 -0.02544825
v -0.31060382 0.04306878 0.01624808
v -0.34976025 0.05435280 0.00849696
v -0.35639112 -0.06244897 -0.02831228
v -0.31078210 0.04275314 -0.02715820
v -0.35606059 -0.03238248 0.02455580
v -0.35493522 0.04706936 -0.01526794
v -0.35606059 -0.03238248 -0.03605026
v -0.33751501 0.04993000 0.01345950
v -0.35598206 -0.06383047 0.01524004
v -0.33967951 0.05015158 -0.02615076
f 5 2 1
f 6 4 3
f 6 1 2
f 6 3 1
f 7 1 3
f 8 7 4
f 9 6 2
f 9 2 5
f 9 5 7
f 9 7 8
f 10 7 3
f 10 3 4
f 10 4 7
f 11 7 5
f 11 5 1
f 11 1 7
f 12 8 4
f 12 4 6
f 12 9 8
f 12 6 9