# https://github.com/mikedh/trimesh
v 0.44696971 -0.19904915 0.02455580
v 0.49242426 -0.15359460 -0.02089874
v 0.48902698 -0.12220288 0.02164884
v 0.41666668 -0.12329157 0.00940429
v 0.40151517 -0.19904915 -0.03605026
v 0.49242426 -0.12329157 -0.03605026
v 0.40151517 -0.16874612 0.03970732
v 0.49242426 -0.15359460 0.02455580
v 0.44696971 -0.19904915 -0.02089874
v 0.43181820 -0.12329157 -0.02089874
v 0.44696971 -0.12329157 0.02455580
v 0.40151517 -0.19904915 0.03970732
v 0.40151517 -0.15359460 -0.02089874
v 0.46212123 -0.15359460 0.03970732
v 0.44696971 -0.18389763 -0.03605026
v 0.46212123 -0.12329157 -0.03605026
v 0.41666668 -0.15359460 0.03970732
v 0.40151517 -0.15359460 0.02455580
v 0.43181820 -0.19904915 0.03970732
v 0.49242426 -0.13844309 -0.03605026
v 0.41666668 -0.19904915 -0.03605026
v 0.41666668 -0.15359460 -0.03605026
v 0.46212123 -0.16874612 0.03970732
v 0.40151517 -0.16874612 -0.03605026
f 8 1 2
f 8 6 3
f 8 2 6
f 9 2 1
f 9 1 5
f 10 4 3
f 11 3 4
f 12 7 5
f 12 5 1
f 13 5 7
f 13 4 10
f 14 8 3
f 14 7 12
f 14 3 11
f 15 5 6
f 16 10 3
f 16 3 6
f 16 6 5
f 17 11 4
f 17 4 7
f 17 14 11
f 17 7 14
f 18 13 7
f 18 7 4
f 18 4 13
f 19 14 12
f 19 12 1
f 19 1 8
f 20 15 6
f 20 6 2
f 20 2 9
f 20 9 15
f 21 15 9
f 21 9 5
f 21 5 15
f 22 13 10
f 22 10 16
f 22 16 5
f 23 19 8
f 23 8 14
f 23 14 19
f 24 22 5
f 24 5 13
f 24 13 22