# https://github.com/mikedh/trimesh
v -0.41421933 0.02456441 -0.00090427
v -0.41666665 0.04337509 -0.03605026
v -0.41543009 0.07861352 0.01373625
v -0.44696968 0.08882964 0.02455580
v -0.49242423 0.02822358 -0.03605026
v -0.41666665 0.08882964 -0.03605026
v -0.41666665 0.04337509 0.02455580
v -0.43181817 0.02822358 -0.03605026
v -0.47727271 0.07367812 -0.02089874
v -0.48743044 0.02546911 0.01484581
v -0.41669218 0.02816876 -0.01517754
v -0.46212120 0.07367812 -0.03605026
v -0.44696968 0.08882964 -0.02089874
v -0.44696968 0.02822358 0.02455580
v -0.49242423 0.05852661 0.02455580
v -0.49242423 0.04337509 -0.03605026
v -0.43181817 0.08882964 -0.03605026
v -0.47727271 0.07367812 0.02455580
v -0.49242423 0.05852661 -0.02089874
f 6 4 3
f 6 2 5
f 6 1 2
f 6 3 1
f 7 1 3
f 7 3 4
f 8 5 2
f 8 1 5
f 10 5 1
f 11 8 2
f 11 2 1
f 11 1 8
f 12 6 5
f 13 9 4
f 13 4 6
f 14 10 1
f 14 1 7
f 14 7 4
f 15 5 10
f 15 14 4
f 15 10 14
f 16 12 5
f 16 9 12
f 16 5 15
f 17 13 6
f 17 6 12
f 17 12 9
f 17 9 13
f 18 15 4
f 18 4 9
f 18 9 15
f 19 16 15
f 19 15 9
f 19 9 16