# https://github.com/mikedh/trimesh
v 0.25454417 -0.08001740 0.01522650
v 0.25823178 -0.07901890 -0.01304973
v 0.26515153 0.07367812 0.02455580
v 0.21968367 0.07372958 0.02289314
v 0.21924869 -0.07779355 -0.02412199
v 0.21965862 -0.07789243 0.02320909
v 0.25000001 0.07367812 -0.03605026
v 0.25688800 0.07501058 -0.01192417
v 0.25000001 -0.07783703 -0.03605026
v 0.21963243 0.07358414 -0.02352801
f 1 2 3
f 5 2 1
f 6 1 3
f 6 3 4
f 6 5 1
f 6 4 5
f 8 3 2
f 8 2 7
f 8 4 3
f 9 7 2
f 9 2 5
f 9 5 7
f 10 7 5
f 10 5 4
f 10 8 7
f 10 4 8