# https://github.com/mikedh/trimesh
v 0.20454547 -0.07783703 0.03970732
v 0.21924869 -0.07779355 -0.02412199
v 0.21981855 0.01308266 0.02206348
v 0.18932448 0.01308377 0.02353581
v 0.19055253 -0.07774697 -0.02302663
v 0.20454547 -0.06268551 0.03970732
v 0.21965862 -0.07789243 0.02320909
v 0.18811057 -0.07878340 0.02524415
v 0.21962231 0.01341998 -0.02437943
v 0.19045918 0.01302657 -0.02278546
v 0.18939395 -0.06268551 0.03970732
f 6 3 4
f 7 6 1
f 7 3 6
f 8 7 1
f 8 5 2
f 8 2 7
f 9 2 5
f 9 7 2
f 9 3 7
f 9 4 3
f 10 8 4
f 10 5 8
f 10 9 5
f 10 4 9
f 11 6 4
f 11 4 8
f 11 8 1
f 11 1 6