# https://github.com/mikedh/trimesh
v -0.31060382 0.04306878 0.01624808
v -0.31078210 0.04275314 -0.02715820
v -0.31060605 0.08882964 -0.03605026
v -0.41666665 0.08882964 -0.03605026
v -0.41607315 0.04257929 -0.00443153
v -0.38636362 0.04337509 -0.03605026
v -0.41543009 0.07861352 0.01373625
v -0.31028237 0.07864347 0.01350735
v -0.41665929 0.04401912 -0.01556624
v -0.37121211 0.04337509 0.02455580
v -0.41804321 0.06408367 -0.02652646
v -0.41868142 0.06684554 0.01496451
f 5 2 1
f 6 3 2
f 6 4 3
f 6 2 5
f 7 3 4
f 8 1 2
f 8 2 3
f 8 3 7
f 9 6 5
f 10 5 1
f 10 8 7
f 10 1 8
f 11 4 6
f 11 6 9
f 12 10 7
f 12 5 10
f 12 7 4
f 12 4 11
f 12 11 9
f 12 9 5