# https://github.com/mikedh/trimesh
v 0.18417229 -0.12993566 0.01220543
v 0.19328913 -0.11917664 -0.02221709
v 0.18939395 0.10398115 0.00940429
v 0.14298966 0.10695239 0.01104598
v 0.14393941 -0.12329157 -0.02089874
v 0.15909092 0.10398115 -0.03605026
v 0.17424244 -0.12329157 -0.03605026
v 0.14940037 -0.11405663 0.00665679
v 0.19063624 0.10371180 -0.02317423
v 0.14591399 0.09971114 -0.01378772
v 0.15909092 -0.10814006 -0.03605026
f 1 2 3
f 1 3 4
f 7 2 1
f 7 1 5
f 8 5 1
f 8 1 4
f 8 4 5
f 9 3 2
f 9 7 6
f 9 2 7
f 9 6 4
f 9 4 3
f 10 6 5
f 10 5 4
f 10 4 6
f 11 7 5
f 11 5 6
f 11 6 7