# https://github.com/mikedh/trimesh
v 0.50757577 -0.12329157 0.02455580
v 0.50757577 -0.12329157 -0.02089874
v 0.50757577 -0.03238248 0.02455580
v 0.43690170 -0.01652590 0.00156448
v 0.43181820 -0.12329157 -0.02089874
v 0.49242426 -0.03238248 -0.03605026
v 0.47727274 -0.10814006 0.03970732
v 0.44098058 -0.12466537 -0.00076250
v 0.50757577 -0.03238248 -0.02089874
v 0.41666668 -0.04753400 -0.00574723
v 0.46212123 -0.12329157 -0.03605026
v 0.50757577 -0.09298854 0.03970732
v 0.47727274 -0.04753400 0.03970732
v 0.44696971 -0.12329157 0.02455580
v 0.49242426 -0.01723097 -0.02089874
v 0.43910024 -0.01642737 -0.00956639
v 0.49242426 -0.12329157 -0.03605026
v 0.47727274 -0.03238248 -0.03605026
v 0.49242426 -0.10814006 0.03970732
v 0.49242426 -0.01723097 0.02455580
v 0.41666668 -0.04753400 0.00940429
v 0.50757577 -0.06268551 0.03970732
v 0.46212123 -0.10814006 -0.03605026
v 0.45412485 -0.01641067 0.01502907
v 0.41666668 -0.07783703 0.00940429
v 0.49242426 -0.04753400 0.03970732
f 1 2 3
f 8 2 1
f 9 3 2
f 9 2 6
f 11 8 5
f 12 1 3
f 13 7 12
f 14 8 1
f 14 1 7
f 14 7 13
f 14 5 8
f 15 9 6
f 15 3 9
f 16 10 4
f 17 11 6
f 17 6 2
f 17 2 8
f 17 8 11
f 18 6 11
f 18 10 16
f 18 16 15
f 18 15 6
f 19 12 7
f 19 7 1
f 19 1 12
f 20 3 15
f 21 4 10
f 21 14 13
f 22 13 12
f 22 12 3
f 22 3 20
f 23 18 11
f 23 11 5
f 23 5 10
f 23 10 18
f 24 13 20
f 24 21 13
f 24 4 21
f 24 16 4
f 24 20 15
f 24 15 16
f 25 21 10
f 25 10 5
f 25 5 14
f 25 14 21
f 26 22 20
f 26 20 13
f 26 13 22