# https://github.com/mikedh/trimesh
v 0.40151517 -0.19904915 0.03970732
v 0.40151517 -0.19904915 -0.03605026
v 0.40151517 -0.15359460 -0.02089874
v 0.26515153 -0.15359460 0.03970732
v 0.25000001 -0.19904915 0.00940429
v 0.40151517 -0.15359460 0.02455580
v 0.28030304 -0.19904915 0.03970732
v 0.25000001 -0.16874612 -0.03605026
v 0.40151517 -0.16874612 0.03970732
v 0.23484850 -0.18389763 0.02455580
v 0.40151517 -0.16874612 -0.03605026
v 0.28030304 -0.19904915 -0.03605026
v 0.26275588 -0.15545103 -0.02238061
v 0.29545456 -0.15359460 0.03970732
v 0.26515153 -0.18389763 0.03970732
v 0.23484850 -0.18389763 -0.02089874
v 0.32575759 -0.15359460 -0.03605026
v 0.23963183 -0.16218758 -0.01550954
v 0.25000001 -0.19904915 -0.02089874
v 0.24018594 -0.16215033 0.01962397
v 0.25000001 -0.18389763 -0.03605026
f 1 2 3
f 5 2 1
f 6 1 3
f 6 3 4
f 7 5 1
f 7 1 4
f 9 4 1
f 9 1 6
f 10 5 7
f 11 3 2
f 11 2 8
f 12 8 2
f 12 2 5
f 14 9 6
f 14 6 4
f 14 4 9
f 15 10 7
f 15 7 4
f 15 4 10
f 16 5 10
f 17 11 8
f 17 3 11
f 17 8 13
f 17 13 4
f 17 4 3
f 18 4 13
f 18 16 10
f 18 13 8
f 18 8 16
f 19 12 5
f 19 5 16
f 20 18 10
f 20 10 4
f 20 4 18
f 21 19 16
f 21 16 8
f 21 8 12
f 21 12 19