# https://github.com/mikedh/trimesh
v 0.48588032 0.13046903 0.02072732
v 0.49242426 0.13428419 -0.03605026
v 0.47727274 0.16458722 0.03970732
v 0.40163082 0.16659424 0.00807164
v 0.40151517 0.13428419 -0.00574723
v 0.47727274 0.16458722 -0.03605026
v 0.49242426 0.14943570 0.02455580
v 0.44696971 0.13428419 -0.03605026
v 0.44696971 0.13428419 0.03970732
v 0.40337016 0.17135624 -0.01459701
v 0.47727274 0.13428419 0.03970732
v 0.49242426 0.14943570 -0.03605026
v 0.41666668 0.13428419 -0.02089874
v 0.40151517 0.13428419 0.00940429
v 0.43181820 0.14943570 0.03970732
v 0.43434978 0.16858496 0.02627379
v 0.43181820 0.16458722 -0.03605026
v 0.40151517 0.14943570 -0.02089874
v 0.43181820 0.14943570 -0.03605026
f 7 1 2
f 7 6 3
f 8 2 1
f 8 6 2
f 11 7 3
f 11 1 7
f 11 9 1
f 11 3 9
f 12 7 2
f 12 2 6
f 12 6 7
f 13 8 1
f 13 1 5
f 14 5 1
f 14 1 9
f 15 9 3
f 15 14 9
f 15 4 14
f 16 10 4
f 16 3 6
f 16 6 10
f 16 15 3
f 16 4 15
f 17 10 6
f 17 6 8
f 18 4 10
f 18 14 4
f 18 5 14
f 18 13 5
f 18 10 17
f 18 8 13
f 19 18 17
f 19 17 8
f 19 8 18