# https://github.com/mikedh/trimesh
v 0.49242426 0.04337509 0.03970732
v 0.50757577 0.04337509 -0.02089874
v 0.50757577 0.13428419 0.02455580
v 0.47707656 0.13412349 0.02348024
v 0.47727274 0.04337509 -0.03605026
v 0.47727274 0.11913267 0.03970732
v 0.50757577 0.05852661 0.03970732
v 0.49242426 0.13428419 -0.03605026
v 0.47727274 0.04337509 0.03970732
v 0.50757577 0.04337509 0.02455580
v 0.50757577 0.10398115 0.03970732
v 0.50757577 0.11913267 -0.02089874
v 0.49242426 0.04337509 -0.03605026
v 0.47578653 0.13384461 -0.02183921
v 0.49242426 0.11913267 0.03970732
v 0.50757577 0.13428419 -0.00574723
f 5 2 1
f 6 3 4
f 7 2 3
f 7 6 1
f 8 4 3
f 9 5 1
f 9 1 6
f 10 7 1
f 10 1 2
f 10 2 7
f 11 7 3
f 11 6 7
f 12 3 2
f 12 2 8
f 13 8 2
f 13 2 5
f 13 5 8
f 14 8 5
f 14 4 8
f 14 5 9
f 14 9 6
f 14 6 4
f 15 11 3
f 15 3 6
f 15 6 11
f 16 12 8
f 16 8 3
f 16 3 12