# https://github.com/mikedh/trimesh
v 0.21908129 0.01301839 0.02202724
v 0.21962231 0.01341998 -0.02437943
v 0.22679690 0.15489701 0.00621691
v 0.20454547 0.16458722 0.00940429
v 0.19045918 0.01302657 -0.02278546
v 0.20454547 0.14943570 -0.03605026
v 0.19035165 0.01291074 0.02346386
v 0.21969698 0.14943570 -0.03605026
v 0.18939395 0.14943570 -0.02089874
v 0.18939395 0.13428419 -0.03605026
v 0.21969698 0.16458722 -0.02089874
v 0.18939395 0.14943570 0.00940429
v 0.20454547 0.16458722 -0.02089874
f 1 2 3
f 1 3 4
f 5 2 1
f 7 5 1
f 7 1 4
f 8 3 2
f 10 2 5
f 10 9 6
f 10 5 7
f 10 8 2
f 10 6 8
f 11 8 6
f 11 4 3
f 11 3 8
f 12 7 4
f 12 4 9
f 12 10 7
f 12 9 10
f 13 9 4
f 13 4 11
f 13 11 6
f 13 6 9