# https://github.com/mikedh/trimesh
v 0.49242426 -0.01723097 0.02455580
v 0.49242426 -0.01723097 -0.02089874
v 0.47879980 0.08926707 0.01748820
v 0.41666668 0.08882964 0.00940429
v 0.43181820 -0.01723097 0.02455580
v 0.47826022 0.08888554 -0.01868840
v 0.48868793 0.04557689 0.02139977
v 0.43910024 -0.01642737 -0.00956639
v 0.44696971 0.08882964 0.02455580
v 0.43181820 0.08882964 -0.02089874
v 0.48682226 0.04596519 -0.01640157
v 0.41666668 0.08882964 -0.00574723
v 0.43181820 0.01307206 0.02455580
f 5 2 1
f 7 1 2
f 7 6 3
f 8 2 5
f 9 3 4
f 9 7 3
f 9 5 1
f 9 1 7
f 10 3 6
f 10 6 2
f 10 2 8
f 11 7 2
f 11 2 6
f 11 6 7
f 12 8 5
f 12 5 4
f 12 10 8
f 12 4 3
f 12 3 10
f 13 9 4
f 13 4 5
f 13 5 9