# https://github.com/mikedh/trimesh
v 0.16163110 0.09860879 0.02703477
v 0.19063624 0.10371180 -0.02317423
v 0.18939395 0.13428419 0.03970732
v 0.15909092 0.13428419 0.02455580
v 0.14393941 0.11913267 -0.02089874
v 0.15909092 0.11913267 0.03970732
v 0.18857279 0.10477808 0.02708510
v 0.14591399 0.09971114 -0.01378772
v 0.19340575 0.12868646 -0.01545190
v 0.17424244 0.13428419 0.03970732
v 0.14393941 0.11913267 0.02455580
v 0.17424244 0.11913267 -0.03605026
v 0.19298067 0.11554246 -0.02212738
v 0.15909092 0.13428419 -0.02089874
v 0.14298966 0.10695239 0.01104598
v 0.14517837 0.10035662 0.02110816
v 0.17622432 0.10255136 -0.02133674
v 0.19086615 0.13176514 0.00850014
f 7 1 2
f 7 6 1
f 7 3 6
f 8 2 1
f 9 3 7
f 10 6 3
f 10 3 4
f 11 4 5
f 11 10 4
f 11 6 10
f 12 8 5
f 13 9 7
f 13 7 2
f 13 12 9
f 13 2 12
f 14 5 4
f 14 4 3
f 14 12 5
f 14 9 12
f 15 11 5
f 15 5 8
f 16 1 6
f 16 6 11
f 16 11 15
f 16 15 8
f 16 8 1
f 17 12 2
f 17 2 8
f 17 8 12
f 18 14 3
f 18 3 9
f 18 9 14