# https://github.com/mikedh/trimesh
v -0.46212120 -0.07783703 0.02455580
v -0.44154194 -0.06701268 -0.01587138
v -0.45646799 0.03538544 0.00707532
v -0.50757574 0.02822358 0.02455580
v -0.49242423 -0.04753400 -0.03605026
v -0.44696968 -0.01723097 0.02455580
v -0.46212120 -0.07783703 -0.02089874
v -0.50757574 -0.03238248 0.02455580
v -0.45454947 0.03495711 -0.02493622
v -0.46655780 0.03092562 0.01504948
v -0.44402375 -0.06954305 0.01479799
v -0.46212120 -0.06268551 -0.03605026
v -0.49242423 -0.06268551 0.00940429
v -0.50757574 -0.03238248 -0.02089874
v -0.50757574 0.02822358 -0.02089874
v -0.47727271 -0.06268551 -0.03605026
v -0.44323776 -0.05761974 -0.02664250
v -0.49242423 0.02822358 -0.03605026
v -0.49242423 -0.06268551 0.02455580
v -0.49242423 -0.06268551 -0.00574723
f 6 4 1
f 8 1 4
f 9 6 2
f 9 3 6
f 10 6 3
f 10 3 4
f 10 4 6
f 11 6 1
f 11 2 6
f 11 7 2
f 11 1 7
f 13 7 1
f 14 8 4
f 14 13 8
f 15 4 3
f 15 3 9
f 15 14 4
f 15 5 14
f 16 12 7
f 16 5 12
f 17 2 7
f 17 7 12
f 17 12 9
f 17 9 2
f 18 12 5
f 18 9 12
f 18 15 9
f 18 5 15
f 19 13 1
f 19 1 8
f 19 8 13
f 20 14 5
f 20 13 14
f 20 5 16
f 20 16 7
f 20 7 13