# https://github.com/mikedh/trimesh
v 0.26515153 0.07367812 0.02455580
v 0.31060608 0.14943570 -0.03605026
v 0.31060608 0.16458722 0.03970732
v 0.28030304 0.21004176 0.00940429
v 0.21969698 0.14943570 -0.03605026
v 0.31368305 0.19654318 -0.01535829
v 0.21969698 0.14943570 0.03970732
v 0.28030304 0.07367812 0.00940429
v 0.31060608 0.13428419 0.00940429
v 0.31442403 0.19715960 0.01907383
v 0.28030304 0.19489024 -0.03605026
v 0.23484850 0.10398115 0.03970732
v 0.28030304 0.19489024 0.03970732
v 0.25000001 0.19489024 0.02455580
v 0.25000001 0.07367812 -0.03605026
v 0.28030304 0.07367812 -0.02089874
v 0.29545456 0.21004176 -0.02089874
v 0.31060608 0.13428419 -0.02089874
v 0.28030304 0.13428419 0.03970732
v 0.21963243 0.07358414 -0.02352801
v 0.29545456 0.21004176 0.02455580
v 0.21969698 0.16458722 -0.02089874
v 0.25000001 0.17973873 0.03970732
v 0.26515153 0.08882964 -0.03605026
v 0.31322580 0.18949344 -0.02240159
v 0.21968367 0.07372958 0.02289314
v 0.31308194 0.18941940 0.02584715
v 0.21969698 0.16458722 0.02455580
v 0.25000001 0.19489024 -0.02089874
v 0.21969698 0.10398115 0.03970732
v 0.25000001 0.17973873 -0.03605026
v 0.28030304 0.21004176 -0.00574723
f 8 3 1
f 9 3 8
f 10 3 9
f 11 2 5
f 12 3 7
f 13 7 3
f 15 5 2
f 16 9 8
f 17 10 6
f 18 10 9
f 18 16 2
f 18 9 16
f 19 12 1
f 19 1 3
f 19 3 12
f 20 5 15
f 20 8 1
f 20 16 8
f 20 15 16
f 21 14 13
f 21 4 14
f 21 17 4
f 21 10 17
f 21 13 3
f 22 5 20
f 23 14 7
f 23 7 13
f 23 13 14
f 24 16 15
f 24 15 2
f 24 2 16
f 25 17 6
f 25 2 11
f 25 11 17
f 25 18 2
f 25 6 10
f 25 10 18
f 26 20 1
f 27 21 3
f 27 3 10
f 27 10 21
f 28 7 14
f 28 14 22
f 28 22 20
f 28 20 7
f 29 5 22
f 29 17 11
f 29 22 14
f 29 14 4
f 30 12 7
f 30 7 20
f 30 20 26
f 30 26 1
f 30 1 12
f 31 29 11
f 31 11 5
f 31 5 29
f 32 29 4
f 32 4 17
f 32 17 29