# https://github.com/mikedh/trimesh
v 0.03990384 -0.01765025 0.08333335
v 0.05505535 -0.01765025 0.03787880
v 0.03990384 0.05810732 0.06818183
v -0.02509137 0.06134700 0.08552767
v -0.02219342 -0.01760533 0.00595417
v 0.03990384 0.04295581 0.08333335
v 0.02766856 -0.01846985 0.00381152
v -0.03585374 -0.01765025 0.08333335
v -0.03483372 0.05806180 0.00871393
v 0.02129038 0.05899033 0.08435399
v 0.05505535 0.01265278 0.06818183
v 0.05505535 -0.01765025 0.06818183
v 0.03990384 0.05810732 0.00757577
v -0.05100526 0.05810732 0.05303032
v 0.05505535 0.01265278 0.03787880
v -0.05100526 0.04295581 0.06818183
v -0.05100526 0.05810732 0.02272729
v -0.05100526 0.02780429 0.02272729
v -0.05100526 0.02780429 0.06818183
f 8 1 4
f 8 7 1
f 8 5 7
f 9 7 5
f 10 6 3
f 10 3 4
f 10 4 1
f 10 1 6
f 11 6 1
f 11 3 6
f 12 7 2
f 12 1 7
f 12 11 1
f 12 2 11
f 13 2 7
f 13 3 11
f 13 7 9
f 13 9 4
f 13 4 3
f 15 13 11
f 15 11 2
f 15 2 13
f 16 8 4
f 16 4 14
f 17 14 4
f 17 4 9
f 17 16 14
f 18 17 9
f 18 9 5
f 18 5 8
f 18 16 17
f 19 18 8
f 19 8 16
f 19 16 18