# https://github.com/mikedh/trimesh
v 0.00804627 0.13366880 -0.05287679
v 0.02475232 0.16416793 -0.15909090
v 0.00525406 0.16161037 -0.05481223
v -0.02565496 0.16168721 -0.05611807
v -0.01693656 0.13409771 -0.15919155
v -0.02085016 0.16602075 -0.14335728
v -0.02227125 0.13497864 -0.05211706
v 0.02475232 0.14901642 -0.11363635
v 0.02475232 0.16416793 -0.14393939
v -0.03585374 0.14901642 -0.14393939
v -0.02016505 0.16422603 -0.15907501
v -0.03585374 0.13386490 -0.11363635
v 0.01086546 0.13324505 -0.15924019
v 0.02475232 0.13386490 -0.11363635
f 6 4 3
f 7 1 3
f 7 3 4
f 8 3 1
f 9 6 3
f 9 2 6
f 9 8 2
f 9 3 8
f 10 4 6
f 11 6 2
f 11 10 6
f 11 5 10
f 12 1 7
f 12 10 5
f 12 7 4
f 12 4 10
f 13 11 2
f 13 5 11
f 13 12 5
f 13 1 12
f 14 13 2
f 14 2 8
f 14 8 1
f 14 1 13