# https://github.com/mikedh/trimesh
v 0.00960081 0.25507703 0.26515154
v 0.02475232 0.25507703 0.18939396
v 0.02475232 0.37628915 0.31060608
v -0.02070223 0.39144067 0.29545457
v -0.03585374 0.25507703 0.18939396
v 0.02475232 0.36113764 0.25000002
v -0.05100526 0.33083460 0.31060608
v 0.02475232 0.31568309 0.31060608
v 0.00960081 0.39144067 0.29545457
v -0.03585374 0.33083460 0.21969699
v -0.01874085 0.37719398 0.31428670
v -0.03585374 0.25507703 0.26515154
v 0.02475232 0.25507703 0.25000002
v 0.00960081 0.37628915 0.26515154
v 0.02475232 0.37628915 0.28030305
v -0.05100526 0.36113764 0.28030305
v 0.00960081 0.31568309 0.20454547
v 0.00960081 0.39144067 0.31060608
v -0.03585374 0.31568309 0.31060608
v -0.05100526 0.30053157 0.23484850
v -0.03585374 0.37628915 0.26515154
v -0.05100526 0.36113764 0.31060608
v 0.02475232 0.33083460 0.21969699
v 0.02475232 0.27022854 0.18939396
v -0.03585374 0.27022854 0.18939396
v -0.05100526 0.30053157 0.25000002
v -0.05100526 0.31568309 0.23484850
v -0.02070223 0.31568309 0.20454547
f 5 2 1
f 6 3 2
f 8 2 3
f 11 8 3
f 12 5 1
f 12 1 8
f 13 8 1
f 13 1 2
f 13 2 8
f 14 4 9
f 15 9 3
f 15 3 6
f 15 14 9
f 15 6 14
f 18 9 4
f 18 4 11
f 18 11 3
f 18 3 9
f 19 11 7
f 19 8 11
f 19 12 8
f 19 7 12
f 20 5 12
f 20 7 16
f 21 14 10
f 21 4 14
f 21 10 16
f 22 11 4
f 22 21 16
f 22 4 21
f 22 16 7
f 22 7 11
f 23 6 2
f 23 14 6
f 23 17 10
f 23 10 14
f 24 2 5
f 24 23 2
f 24 17 23
f 25 5 20
f 25 24 5
f 25 17 24
f 26 20 12
f 26 12 7
f 26 7 20
f 27 20 16
f 27 16 10
f 27 25 20
f 27 10 25
f 28 25 10
f 28 10 17
f 28 17 25