# https://github.com/mikedh/trimesh
v 0.02475232 0.02780429 0.15909093
v 0.02223986 0.02372059 0.13173045
v 0.01821838 0.05732034 0.14390328
v -0.01978016 0.06240734 0.21850483
v -0.03585374 0.04295581 0.20454547
v 0.02475232 0.04295581 0.20454547
v -0.02070223 0.02780429 0.15909093
v -0.02383030 0.05831991 0.14491248
v 0.01491138 0.06303740 0.20286991
v 0.00960081 0.04295581 0.21969699
v -0.02472551 0.06265165 0.20323672
v -0.02009789 0.02660446 0.13325949
v 0.01639262 0.06179944 0.18840743
v -0.02070223 0.04295581 0.21969699
v 0.00811299 0.06141641 0.21877753
f 1 2 3
f 6 1 3
f 7 2 1
f 10 1 6
f 10 7 1
f 11 8 5
f 11 5 4
f 11 9 8
f 11 4 9
f 12 7 5
f 12 5 8
f 12 2 7
f 12 8 3
f 12 3 2
f 13 9 6
f 13 6 3
f 13 3 8
f 13 8 9
f 14 5 7
f 14 7 10
f 14 4 5
f 15 9 4
f 15 14 10
f 15 4 14
f 15 10 6
f 15 6 9