# https://github.com/mikedh/trimesh
v 0.00960081 0.10356187 -0.17424242
v 0.02475232 0.13386490 -0.20454545
v 0.02475232 0.16416793 -0.15909090
v -0.02016505 0.16422603 -0.15907501
v -0.02070223 0.14901642 -0.23484848
v 0.00430485 0.10757974 -0.15556473
v 0.02475232 0.11871339 -0.18939393
v 0.00320450 0.16999350 -0.23020800
v -0.01245728 0.10882149 -0.15526194
v 0.01030188 0.12120677 -0.15723413
v 0.00960081 0.14901642 -0.23484848
v 0.02475232 0.16416793 -0.20454545
v -0.01338225 0.17041374 -0.22923769
v -0.02070223 0.10356187 -0.17424242
v 0.00960081 0.11871339 -0.20454545
v -0.02070223 0.11871339 -0.20454545
f 7 2 3
f 7 6 1
f 9 6 3
f 9 3 4
f 10 7 3
f 10 3 6
f 10 6 7
f 11 2 7
f 11 5 8
f 12 8 3
f 12 3 2
f 12 11 8
f 12 2 11
f 13 8 5
f 13 5 4
f 13 4 3
f 13 3 8
f 14 9 4
f 14 4 5
f 14 1 6
f 14 6 9
f 15 11 7
f 15 7 1
f 15 5 11
f 15 1 14
f 16 15 14
f 16 14 5
f 16 5 15