# https://github.com/mikedh/trimesh
v 0.02475232 -0.12371086 0.02272729
v 0.05505535 -0.10855935 0.00757577
v 0.03990384 -0.07825632 0.08333335
v -0.01675417 -0.01742718 0.08381473
v -0.02219342 -0.01760533 0.00595417
v -0.02070223 -0.10855935 0.08333335
v 0.05505535 -0.10855935 0.02272729
v -0.03585374 -0.10855935 0.00757577
v 0.03410657 -0.01057801 0.06092630
v 0.01904358 -0.09892667 0.08871624
v 0.01989492 -0.11831643 0.00079461
v -0.02070223 -0.12371086 0.02272729
v -0.03585374 -0.03280177 0.08333335
v 0.02766856 -0.01846985 0.00381152
v 0.05505535 -0.04795329 0.00757577
v -0.03585374 -0.01765025 0.02272729
v 0.03990384 -0.03280177 0.08333335
v -0.03585374 -0.10855935 0.03787880
v -0.02070223 -0.12371086 0.00757577
v -0.03585374 -0.06310480 0.08333335
v 0.02182326 -0.01748541 0.08372790
v 0.05505535 -0.04795329 0.05303032
v 0.05505535 -0.07825632 0.05303032
f 7 1 2
f 10 7 3
f 10 6 1
f 10 1 7
f 11 8 5
f 11 2 1
f 12 1 6
f 13 10 4
f 14 5 9
f 14 11 5
f 15 7 2
f 15 14 9
f 15 2 11
f 15 11 14
f 16 9 5
f 16 4 9
f 16 13 4
f 16 5 8
f 16 8 13
f 17 10 3
f 18 12 6
f 18 8 12
f 18 13 8
f 19 11 1
f 19 1 12
f 19 12 8
f 19 8 11
f 20 6 10
f 20 10 13
f 20 18 6
f 20 13 18
f 21 17 9
f 21 9 4
f 21 4 10
f 21 10 17
f 22 15 9
f 22 9 17
f 22 7 15
f 22 17 3
f 23 22 3
f 23 3 7
f 23 7 22