# https://github.com/mikedh/trimesh
v 0.03990384 -0.18431693 -0.03787878
v 0.03990384 -0.16916541 -0.06818181
v 0.03990384 -0.15401389 -0.03787878
v -0.00260288 -0.15122991 -0.02584809
v -0.00102653 -0.18050567 -0.05547724
v 0.02201746 -0.15413772 -0.06810275
v 0.02475232 -0.18431693 -0.02272726
v 0.03990384 -0.18431693 -0.05303029
v 0.03990384 -0.15401389 -0.06818181
v -0.00445180 -0.15404433 -0.05290705
v 0.02319083 -0.16935542 -0.06804221
v 0.02018175 -0.15212924 -0.02665695
v -0.00555071 -0.18431693 -0.02272726
f 1 2 3
f 7 1 3
f 8 2 1
f 8 1 7
f 9 3 2
f 9 2 6
f 9 6 4
f 10 6 5
f 10 4 6
f 11 6 2
f 11 5 6
f 11 8 5
f 11 2 8
f 12 7 3
f 12 4 7
f 12 9 4
f 12 3 9
f 13 7 4
f 13 8 7
f 13 5 8
f 13 10 5
f 13 4 10