# https://github.com/mikedh/trimesh
v 0.02475232 -0.15401389 -0.00757575
v 0.03990384 -0.12371086 -0.00757575
v 0.03693473 -0.08034947 0.01382929
v -0.01768523 -0.06000230 0.01108814
v -0.00588079 -0.07773245 -0.05267619
v -0.00555071 -0.13886238 0.00757577
v 0.03990384 -0.12371086 0.00757577
v 0.02251802 -0.15420597 -0.05296398
v 0.01879446 -0.07867866 -0.05350453
v -0.02070223 -0.12371086 0.00757577
v 0.03990384 -0.07825632 -0.00757575
v 0.02475232 -0.13886238 0.00757577
v -0.02070223 -0.15401389 -0.00757575
v -0.02070223 -0.15401389 -0.05303029
v -0.00684977 -0.06167003 -0.03769827
v 0.02000506 -0.06107291 0.00970808
v 0.01691079 -0.06383707 -0.03786834
f 7 1 2
f 8 2 1
f 10 6 3
f 10 3 4
f 11 7 2
f 11 3 7
f 11 2 8
f 11 8 9
f 12 6 1
f 12 1 7
f 12 7 3
f 12 3 6
f 13 8 1
f 13 1 6
f 13 6 10
f 14 9 8
f 14 5 9
f 14 8 13
f 14 13 10
f 14 10 4
f 15 9 5
f 15 14 4
f 15 5 14
f 16 4 3
f 16 3 11
f 16 15 4
f 17 16 11
f 17 11 9
f 17 9 15
f 17 15 16