# https://github.com/mikedh/trimesh
v 0.02475232 0.16416793 0.26515154
v 0.02475232 0.20962248 0.17424244
v 0.02475232 0.25507703 0.25000002
v -0.02818878 0.25746863 0.24340604
v -0.02783682 0.16220638 0.17902782
v 0.02475232 0.25507703 0.18939396
v -0.02070223 0.19447096 0.26515154
v 0.00508122 0.15502918 0.16660031
v -0.03585374 0.25507703 0.18939396
v 0.00960081 0.19447096 0.26515154
v -0.02778814 0.15969098 0.26247632
v 0.01237286 0.16181449 0.17974624
v 0.00960081 0.17931945 0.15909093
v 0.02475232 0.17931945 0.26515154
v -0.03585374 0.17931945 0.26515154
v -0.01778356 0.15509315 0.16691921
v -0.03585374 0.20962248 0.17424244
v -0.02070223 0.17931945 0.15909093
f 1 2 3
f 6 3 2
f 6 4 3
f 7 3 4
f 9 4 6
f 10 7 1
f 10 3 7
f 11 8 1
f 12 2 1
f 12 1 8
f 13 9 6
f 13 6 2
f 13 12 8
f 13 2 12
f 14 10 1
f 14 1 3
f 14 3 10
f 15 11 1
f 15 1 7
f 15 7 4
f 15 4 9
f 15 5 11
f 16 11 5
f 16 8 11
f 17 15 9
f 17 5 15
f 18 13 8
f 18 8 16
f 18 16 5
f 18 5 17
f 18 17 9
f 18 9 13