# https://github.com/mikedh/trimesh
v 0.03990384 -0.29037754 0.50757579
v 0.03482421 -0.29234037 0.45441559
v 0.03990384 -0.19946844 0.41666669
v 0.02475232 -0.15401389 0.47727275
v -0.02070223 -0.29037754 0.50757579
v 0.03990384 -0.15401389 0.47727275
v -0.00555071 -0.21461996 0.50757579
v -0.02070223 -0.29037754 0.44696972
v -0.01014047 -0.17704537 0.42295356
v 0.03990384 -0.21461996 0.50757579
v 0.03208940 -0.17829101 0.42204329
v 0.02237420 -0.15974384 0.45692379
v -0.02070223 -0.19946844 0.41666669
v -0.02070223 -0.18431693 0.49242427
v 0.03174145 -0.16244765 0.45381372
v -0.02070223 -0.22977147 0.50757579
f 1 2 3
f 5 2 1
f 6 1 3
f 7 5 1
f 8 3 2
f 8 2 5
f 10 7 1
f 10 1 6
f 11 6 3
f 12 9 4
f 12 4 6
f 12 11 9
f 13 3 8
f 13 8 5
f 13 11 3
f 13 9 11
f 14 4 9
f 14 6 4
f 14 10 6
f 14 7 10
f 14 9 13
f 14 13 5
f 15 12 6
f 15 6 11
f 15 11 12
f 16 14 5
f 16 5 7
f 16 7 14