# https://github.com/mikedh/trimesh
v 0.02475232 0.28538006 0.50757579
v 0.02475232 0.30053157 0.43181821
v 0.02475232 0.39144067 0.41666669
v -0.03585374 0.39144067 0.43181821
v -0.03585374 0.28538006 0.50757579
v -0.02070223 0.31568309 0.40151518
v 0.02475232 0.34598612 0.49242427
v -0.00555071 0.28538006 0.43181821
v 0.02475232 0.33083460 0.40151518
v -0.02779969 0.37976051 0.39901420
v -0.02830155 0.34146693 0.40353353
v 0.02475232 0.37628915 0.46212124
v -0.03585374 0.31568309 0.50757579
v 0.02475232 0.28538006 0.44696972
v -0.02070223 0.28538006 0.43181821
v -0.00555071 0.31568309 0.40151518
v 0.02475232 0.39144067 0.40151518
v 0.00960081 0.39144067 0.43181821
v 0.00960081 0.31568309 0.50757579
v -0.03585374 0.34598612 0.49242427
v -0.02798631 0.28707851 0.45743163
v 0.02475232 0.30053157 0.50757579
v -0.03585374 0.37628915 0.46212124
f 1 2 3
f 7 1 3
f 8 1 5
f 9 3 2
f 11 5 4
f 11 10 6
f 11 4 10
f 12 7 3
f 13 5 1
f 13 4 5
f 14 8 2
f 14 2 1
f 14 1 8
f 15 8 5
f 15 6 8
f 15 11 6
f 16 8 6
f 16 10 9
f 16 6 10
f 16 9 2
f 16 2 8
f 17 10 4
f 17 4 3
f 17 3 9
f 17 9 10
f 18 12 3
f 18 3 4
f 18 4 12
f 19 13 1
f 19 7 13
f 20 4 13
f 20 13 7
f 20 7 12
f 21 15 5
f 21 5 11
f 21 11 15
f 22 19 1
f 22 1 7
f 22 7 19
f 23 20 12
f 23 12 4
f 23 4 20