# https://github.com/mikedh/trimesh
v 0.00525406 0.16161037 -0.05481223
v 0.00960081 0.31568309 -0.43181818
v 0.00960081 0.45204673 -0.44696970
v -0.03585374 0.46719824 -0.46212121
v -0.03585374 0.16416793 -0.17424242
v 0.00960081 0.40659218 -0.50757576
v 0.00960081 0.20962248 -0.08333332
v 0.00960081 0.16416793 -0.24999999
v -0.03585374 0.40659218 -0.50757576
v -0.00555071 0.46719824 -0.50757576
v -0.00555071 0.45204673 -0.43181818
v -0.03585374 0.17931945 -0.05303029
v -0.02070223 0.16416793 -0.24999999
v -0.02070223 0.39144067 -0.50757576
v -0.00555071 0.46719824 -0.46212121
v 0.00960081 0.45204673 -0.49242424
v -0.03585374 0.46719824 -0.50757576
v 0.00960081 0.43689521 -0.41666667
v -0.02565496 0.16168721 -0.05611807
v -0.03585374 0.20962248 -0.08333332
v -0.03585374 0.30053157 -0.40151515
v 0.00960081 0.19447096 -0.29545454
v 0.00960081 0.37628915 -0.49242424
v 0.00960081 0.42174370 -0.50757576
v 0.00960081 0.40659218 -0.37121212
v -0.03585374 0.45204673 -0.43181818
v -0.02070223 0.31568309 -0.23484848
v -0.03585374 0.23992551 -0.31060606
v -0.02070223 0.31568309 -0.43181818
v -0.00555071 0.39144067 -0.50757576
v -0.00555071 0.31568309 -0.23484848
v -0.03585374 0.19447096 -0.23484848
v -0.02070223 0.19447096 -0.29545454
f 6 3 2
f 7 2 3
f 8 7 1
f 8 2 7
f 9 5 4
f 10 6 9
f 12 1 7
f 12 4 5
f 13 8 1
f 14 9 6
f 15 10 4
f 15 3 10
f 15 11 3
f 15 4 11
f 16 10 3
f 16 3 6
f 17 10 9
f 17 9 4
f 17 4 10
f 18 7 3
f 18 3 11
f 19 12 5
f 19 1 12
f 19 13 1
f 19 5 13
f 20 4 12
f 20 12 7
f 21 5 9
f 22 2 8
f 22 8 13
f 23 6 2
f 24 16 6
f 24 6 10
f 24 10 16
f 25 18 11
f 25 11 7
f 25 7 18
f 26 11 4
f 26 4 20
f 27 20 7
f 27 26 20
f 27 11 26
f 28 21 13
f 28 5 21
f 29 14 2
f 29 2 22
f 29 21 9
f 29 9 14
f 30 14 6
f 30 6 23
f 30 23 2
f 30 2 14
f 31 27 7
f 31 7 11
f 31 11 27
f 32 28 13
f 32 13 5
f 32 5 28
f 33 29 22
f 33 22 13
f 33 13 21
f 33 21 29