# https://github.com/mikedh/trimesh
v 0.03990384 -0.47219572 -0.46212121
v 0.05505535 -0.45704421 -0.50757576
v 0.05505535 -0.35098360 -0.35606060
v 0.03913156 -0.32079703 -0.35601015
v 0.00960081 -0.42674118 -0.50757576
v 0.05505535 -0.36613511 -0.44696970
v 0.00960081 -0.39643814 -0.34090909
v 0.05505535 -0.45704421 -0.46212121
v 0.00960081 -0.47219572 -0.49242424
v 0.05505535 -0.32068057 -0.37121212
v 0.05505535 -0.42674118 -0.50757576
v 0.03990384 -0.39643814 -0.34090909
v 0.01352873 -0.35400564 -0.41319373
v 0.00960081 -0.45704421 -0.50757576
v 0.03990384 -0.47219572 -0.49242424
v 0.00960081 -0.44189269 -0.40151515
v 0.05505535 -0.32068057 -0.35606060
v 0.03990384 -0.44189269 -0.40151515
v 0.01292233 -0.37485072 -0.34538006
v 0.03775088 -0.32112613 -0.37086631
v 0.03990384 -0.35098360 -0.43181818
v 0.00960081 -0.47219572 -0.46212121
v 0.03990384 -0.41158966 -0.35606060
v 0.05505535 -0.33583208 -0.40151515
v 0.00960081 -0.41158966 -0.35606060
f 6 3 2
f 8 1 2
f 8 2 3
f 9 7 5
f 10 3 6
f 11 6 2
f 11 2 5
f 12 4 7
f 12 8 3
f 13 5 7
f 14 9 5
f 14 5 2
f 14 2 9
f 15 9 2
f 15 2 1
f 15 1 9
f 16 7 9
f 17 10 4
f 17 3 10
f 17 12 3
f 17 4 12
f 18 1 8
f 18 16 1
f 19 13 7
f 19 7 4
f 19 4 13
f 20 13 4
f 20 4 10
f 21 5 13
f 21 11 5
f 21 6 11
f 21 13 20
f 21 20 10
f 22 16 9
f 22 9 1
f 22 1 16
f 23 12 7
f 23 16 18
f 23 18 8
f 23 8 12
f 24 21 10
f 24 10 6
f 24 6 21
f 25 23 7
f 25 7 16
f 25 16 23