# https://github.com/mikedh/trimesh
v 0.03782475 -0.06088159 0.01577157
v 0.03990384 -0.03280177 -0.03787878
v 0.03990384 0.05810732 0.00757577
v -0.03461126 0.07261485 0.01089924
v -0.03585374 -0.06310480 -0.00757575
v -0.00790552 0.04357569 -0.04081001
v 0.01911138 0.07200879 0.00931095
v 0.03990384 -0.06310480 -0.00757575
v -0.03585374 -0.06310480 0.00757577
v 0.03990384 0.05810732 -0.02272726
v -0.03585374 0.02780429 -0.03787878
v 0.01691079 -0.06383707 -0.03786834
v 0.03990384 0.01265278 -0.03787878
v -0.01313315 0.07630745 -0.02392805
v -0.03585374 0.07325884 -0.00757575
v -0.03585374 -0.03280177 -0.03787878
v 0.01386203 0.04110737 -0.03628546
v 0.01426554 0.07293096 -0.02065031
v -0.03585374 0.05810732 -0.02272726
v -0.00684977 -0.06167003 -0.03769827
f 7 1 3
f 7 4 1
f 8 2 3
f 8 3 1
f 9 1 4
f 9 8 1
f 10 3 2
f 10 7 3
f 11 5 9
f 12 2 8
f 12 6 2
f 12 9 5
f 12 8 9
f 13 10 2
f 13 2 6
f 14 4 7
f 14 6 11
f 15 11 9
f 15 9 4
f 15 4 14
f 16 5 11
f 16 11 6
f 17 13 6
f 17 6 10
f 17 10 13
f 18 10 6
f 18 6 14
f 18 14 7
f 18 7 10
f 19 15 14
f 19 14 11
f 19 11 15
f 20 12 5
f 20 5 16
f 20 16 6
f 20 6 12