# https://github.com/mikedh/trimesh
v 0.02475232 0.05810732 0.26515154
v 0.02075979 0.05187230 0.05174412
v 0.02475232 0.16416793 0.15909093
v -0.00439996 0.16734306 0.39248672
v -0.03585374 0.05810732 0.26515154
v 0.02475232 0.10356187 0.38636366
v 0.02475232 0.11871339 0.05303032
v -0.03137727 0.04936025 0.04825802
v 0.01254050 0.15826338 0.38815579
v -0.03585374 0.08841035 0.37121214
v 0.00960081 0.05810732 0.28030305
v -0.03365489 0.09469175 0.04558822
v 0.00428962 0.16681196 0.39240023
v -0.03585374 0.10356187 0.38636366
v -0.02070223 0.05810732 0.28030305
v 0.02475232 0.08841035 0.35606063
v -0.02070223 0.16416793 0.14393941
v -0.03585374 0.11871339 0.06818183
v -0.03585374 0.17931945 0.26515154
v -0.03585374 0.07325884 0.32575760
v 0.00960081 0.08841035 0.37121214
v 0.02475232 0.14901642 0.11363638
v -0.02070223 0.11871339 0.05303032
v 0.00417342 0.16952148 0.25698303
v -0.03585374 0.17931945 0.28030305
v 0.00960081 0.16416793 0.14393941
v -0.03585374 0.16416793 0.15909093
v -0.02819642 0.15731594 0.38870760
f 6 1 3
f 7 1 2
f 7 3 1
f 8 2 1
f 9 6 3
f 11 8 1
f 12 7 2
f 12 2 8
f 13 9 3
f 13 4 6
f 13 6 9
f 14 10 6
f 14 6 4
f 14 5 10
f 15 5 8
f 15 8 11
f 15 11 10
f 16 11 1
f 16 1 6
f 18 12 8
f 18 8 5
f 18 5 14
f 19 18 14
f 20 15 10
f 20 10 5
f 20 5 15
f 21 16 6
f 21 6 10
f 21 10 11
f 21 11 16
f 22 3 7
f 23 18 17
f 23 7 12
f 23 12 18
f 23 22 7
f 23 17 22
f 24 13 3
f 24 3 19
f 25 4 13
f 25 24 19
f 25 13 24
f 25 19 14
f 26 19 3
f 26 17 19
f 26 22 17
f 26 3 22
f 27 19 17
f 27 17 18
f 27 18 19
f 28 25 14
f 28 14 4
f 28 4 25