# https://github.com/mikedh/trimesh
v 0.03624622 -0.29205847 0.26314498
v 0.03990384 -0.27522602 0.18939396
v 0.03990384 -0.06310480 0.26515154
v -0.02070223 -0.04795329 0.21969699
v -0.02070223 -0.29037754 0.20454547
v 0.03102122 -0.07570226 0.14344629
v -0.02070223 -0.06310480 0.26515154
v 0.03359203 -0.28460467 0.21616450
v 0.03990384 -0.15401389 0.14393941
v 0.03990384 -0.04795329 0.18939396
v -0.02070223 -0.15401389 0.14393941
v -0.02070223 -0.29037754 0.26515154
v -0.00555071 -0.04795329 0.23484850
v -0.02070223 -0.04795329 0.18939396
v -0.00555071 -0.27522602 0.18939396
v 0.03990384 -0.04795329 0.21969699
v -0.01644270 -0.07701500 0.14350468
v -0.02070223 -0.26007450 0.18939396
v 0.02475232 -0.04795329 0.23484850
f 1 2 3
f 7 4 5
f 8 5 2
f 8 2 1
f 8 1 5
f 9 3 2
f 10 9 6
f 10 3 9
f 11 5 4
f 11 6 9
f 11 9 2
f 12 1 3
f 12 3 7
f 12 7 5
f 12 5 1
f 13 7 3
f 13 4 7
f 13 10 4
f 14 10 6
f 14 4 10
f 14 11 4
f 15 11 2
f 15 2 5
f 16 3 10
f 16 10 13
f 17 14 6
f 17 6 11
f 17 11 14
f 18 15 5
f 18 5 11
f 18 11 15
f 19 16 13
f 19 13 3
f 19 3 16