# https://github.com/mikedh/trimesh
v 0.02103783 -0.19063778 0.47997450
v 0.03990384 -0.18431693 0.40151518
v 0.03990384 -0.10855935 0.41666669
v -0.02070223 -0.09340783 0.37121214
v -0.02070223 -0.18431693 0.40151518
v 0.03167108 -0.10179511 0.33884803
v -0.02070223 -0.15401389 0.47727275
v 0.03990384 -0.13886238 0.46212124
v -0.00555071 -0.18431693 0.38636366
v 0.03990384 -0.09340783 0.37121214
v -0.02070223 -0.10855935 0.41666669
v -0.01131703 -0.18750736 0.47137342
v 0.03618347 -0.18521955 0.46133651
v 0.02475232 -0.16916541 0.49242427
v 0.02475232 -0.18431693 0.38636366
v -0.00182349 -0.19088149 0.47989703
v -0.02070223 -0.15401389 0.34090911
v 0.03003495 -0.14353564 0.34254040
v 0.02475232 -0.09340783 0.38636366
v 0.02475232 -0.12371086 0.44696972
v -0.00555071 -0.16916541 0.49242427
v -0.01132593 -0.10330019 0.33775749
v 0.02475232 -0.16916541 0.35606063
v -0.00555071 -0.09340783 0.38636366
v -0.00555071 -0.12371086 0.44696972
v -0.00555071 -0.16916541 0.35606063
v -0.02070223 -0.13886238 0.46212124
f 7 4 5
f 8 2 3
f 10 3 2
f 10 6 4
f 11 4 7
f 12 7 5
f 13 1 2
f 13 2 8
f 14 8 7
f 14 13 8
f 14 1 13
f 15 2 1
f 16 5 9
f 16 12 5
f 16 1 14
f 16 15 1
f 16 9 15
f 17 9 5
f 17 5 4
f 18 10 2
f 18 6 10
f 18 17 6
f 19 10 4
f 19 3 10
f 19 11 3
f 20 8 3
f 20 3 11
f 20 7 8
f 21 16 14
f 21 14 7
f 21 7 12
f 21 12 16
f 22 17 4
f 22 4 6
f 22 6 17
f 23 15 9
f 23 17 18
f 23 18 2
f 23 2 15
f 24 19 4
f 24 4 11
f 24 11 19
f 25 20 11
f 25 7 20
f 26 23 9
f 26 9 17
f 26 17 23
f 27 25 11
f 27 11 7
f 27 7 25