# https://github.com/mikedh/trimesh
v 0.03990384 -0.13886238 0.14393941
v 0.03990384 -0.12371086 0.09848486
v 0.03990384 0.05810732 0.12878790
v -0.02383030 0.05831991 0.14491248
v -0.02070223 -0.13886238 0.12878790
v -0.02509137 0.06134700 0.08552767
v 0.03990384 0.04295581 0.14393941
v 0.02475232 -0.13886238 0.11363638
v -0.00889977 -0.13221106 0.14858475
v 0.02129038 0.05899033 0.08435399
v -0.03585374 -0.06310480 0.08333335
v 0.01821838 0.05732034 0.14390328
v -0.02070223 -0.10855935 0.08333335
v 0.03990384 -0.13886238 0.12878790
v -0.02130965 -0.05911654 0.14388455
v 0.03990384 0.05810732 0.09848486
v -0.00555071 -0.13886238 0.11363638
v -0.02070223 -0.12371086 0.09848486
v 0.03990384 -0.03280177 0.08333335
v 0.03990384 -0.10855935 0.08333335
f 1 2 3
f 6 4 3
f 7 1 3
f 8 1 5
f 9 5 1
f 9 7 4
f 9 1 7
f 11 4 6
f 11 6 10
f 12 7 3
f 12 3 4
f 12 4 7
f 13 2 8
f 14 8 2
f 14 2 1
f 14 1 8
f 15 9 4
f 15 5 9
f 15 11 5
f 15 4 11
f 16 10 6
f 16 6 3
f 16 3 2
f 17 13 8
f 17 8 5
f 18 5 11
f 18 11 13
f 18 17 5
f 18 13 17
f 19 13 11
f 19 11 10
f 19 16 2
f 19 10 16
f 20 19 2
f 20 2 13
f 20 13 19