# https://github.com/mikedh/trimesh
v 0.03990384 -0.38128663 -0.32575757
v 0.04117410 -0.38129902 -0.41655145
v 0.03990384 -0.16916541 -0.24999999
v -0.00422834 -0.16903042 -0.05300719
v -0.00555071 -0.38128663 -0.37121212
v 0.03990384 -0.18431693 -0.05303029
v -0.00555071 -0.21461996 -0.06818181
v -0.00555071 -0.32068057 -0.40151515
v 0.02530050 -0.17036888 -0.05231215
v 0.03990384 -0.27522602 -0.15909090
v -0.00555071 -0.38128663 -0.32575757
v -0.00555071 -0.19946844 -0.05303029
v 0.03990384 -0.33583208 -0.41666667
v 0.01379972 -0.38087790 -0.41643620
v -0.00555071 -0.16916541 -0.24999999
v 0.03990384 -0.36613511 -0.29545454
v 0.03990384 -0.22977147 -0.09848484
v 0.02475232 -0.19946844 -0.05303029
v -0.00555071 -0.35098360 -0.40151515
v -0.00555071 -0.33583208 -0.24999999
v 0.02475232 -0.21461996 -0.06818181
v 0.00960081 -0.36613511 -0.29545454
f 6 2 3
f 8 5 7
f 9 6 3
f 9 3 4
f 11 7 5
f 11 5 2
f 11 2 1
f 12 8 7
f 12 9 4
f 13 8 3
f 13 3 2
f 14 2 5
f 14 13 2
f 14 8 13
f 15 4 3
f 15 3 8
f 15 12 4
f 15 8 12
f 16 1 2
f 16 2 10
f 16 11 1
f 17 10 2
f 17 2 6
f 18 6 9
f 18 9 12
f 18 17 6
f 18 12 7
f 19 14 5
f 19 5 8
f 19 8 14
f 20 16 7
f 20 7 11
f 21 18 7
f 21 10 17
f 21 17 18
f 21 16 10
f 21 7 16
f 22 20 11
f 22 11 16
f 22 16 20