# https://github.com/mikedh/trimesh
v 0.01827261 0.04171721 -0.01974510
v 0.01295487 0.04422893 -0.08081645
v 0.02475232 0.14901642 -0.03787878
v -0.03585374 0.17931945 -0.03787878
v -0.03461126 0.07261485 0.01089924
v 0.00649956 0.13357625 -0.08340194
v 0.02475232 0.11871339 -0.08333332
v -0.01683216 0.03765512 -0.01569911
v 0.02475232 0.13386490 0.00757577
v -0.03585374 0.07325884 -0.08333332
v 0.00960081 0.17931945 -0.03787878
v 0.01911138 0.07200879 0.00931095
v -0.03653150 0.10736750 0.01449700
v -0.03585374 0.13386490 -0.08333332
v -0.01362349 0.04490751 -0.08146264
v 0.00146177 0.16971220 -0.05972720
v 0.02475232 0.14901642 -0.00757575
v -0.02070223 0.13386490 0.00757577
v -0.03585374 0.17931945 -0.05303029
v -0.03585374 0.14901642 -0.00757575
f 7 1 2
f 8 2 1
f 9 7 3
f 9 1 7
f 10 8 5
f 10 7 2
f 10 6 7
f 11 3 7
f 12 8 1
f 12 5 8
f 12 1 9
f 13 12 9
f 13 5 12
f 13 10 5
f 14 6 10
f 14 10 13
f 15 10 2
f 15 2 8
f 15 8 10
f 16 11 7
f 16 7 6
f 16 6 14
f 17 9 3
f 17 3 11
f 17 11 4
f 18 13 9
f 18 9 17
f 19 14 13
f 19 13 4
f 19 16 14
f 19 4 11
f 19 11 16
f 20 4 13
f 20 13 18
f 20 18 17
f 20 17 4