# https://github.com/mikedh/trimesh
v 0.03004621 -0.07599473 0.18959943
v 0.03102122 -0.07570226 0.14344629
v 0.03990384 -0.00249874 0.15909093
v -0.02070223 -0.00249874 0.15909093
v -0.03585374 -0.06310480 0.15909093
v 0.02870928 -0.00590096 0.13809302
v -0.02070223 -0.04795329 0.18939396
v 0.03990384 -0.04795329 0.18939396
v -0.01644270 -0.07701500 0.14350468
v -0.01998064 -0.00315598 0.14075417
v -0.01302438 -0.07592630 0.18986392
v -0.03585374 -0.01765025 0.15909093
v -0.02324935 -0.01829301 0.13986679
v -0.02130965 -0.05911654 0.14388455
f 6 3 2
f 7 3 4
f 8 1 2
f 8 2 3
f 8 3 7
f 9 2 1
f 9 6 2
f 10 4 3
f 10 3 6
f 11 7 5
f 11 8 7
f 11 1 8
f 11 9 1
f 11 5 9
f 12 7 4
f 12 5 7
f 12 4 10
f 13 10 6
f 13 6 9
f 13 12 10
f 13 5 12
f 14 13 9
f 14 9 5
f 14 5 13