# https://github.com/mikedh/trimesh
v 0.00960081 0.20962248 0.50757579
v 0.02475232 0.20962248 0.43181821
v 0.02475232 0.28538006 0.50757579
v -0.03585374 0.28538006 0.50757579
v -0.03585374 0.20962248 0.43181821
v 0.02475232 0.28538006 0.44696972
v 0.02475232 0.22477400 0.50757579
v -0.03585374 0.20962248 0.50757579
v -0.02798631 0.28707851 0.45743163
v -0.03585374 0.22477400 0.43181821
v 0.02475232 0.22477400 0.43181821
f 1 3 4
f 5 2 1
f 6 3 2
f 7 1 2
f 7 2 3
f 7 3 1
f 8 5 1
f 8 1 4
f 8 4 5
f 9 4 3
f 9 3 6
f 10 2 5
f 10 9 6
f 10 5 4
f 10 4 9
f 11 10 6
f 11 6 2
f 11 2 10