# https://github.com/mikedh/trimesh
v 0.03990384 -0.16916541 0.28030305
v 0.03990384 -0.16916541 0.26515154
v 0.03990384 -0.07825632 0.32575760
v -0.00555071 -0.06310480 0.28030305
v -0.02070223 -0.15401389 0.34090911
v 0.03199756 -0.08317063 0.26425074
v -0.00555071 -0.16916541 0.28030305
v 0.03003495 -0.14353564 0.34254040
v -0.00555071 -0.07825632 0.34090911
v 0.02475232 -0.06310480 0.28030305
v -0.01183441 -0.08347802 0.26416029
v 0.02475232 -0.07825632 0.34090911
v -0.00105105 -0.07582690 0.26211593
v -0.00857031 -0.14962719 0.26389050
v -0.02070223 -0.07825632 0.32575760
v 0.03167108 -0.10179511 0.33884803
v 0.02053326 -0.07614934 0.26207493
v -0.00098623 -0.16099603 0.25907379
f 1 2 3
f 6 3 2
f 7 2 1
f 7 1 5
f 8 5 1
f 8 1 3
f 9 5 8
f 10 3 6
f 10 4 9
f 12 9 8
f 12 10 9
f 12 3 10
f 13 4 10
f 13 11 4
f 14 7 5
f 14 5 11
f 15 9 4
f 15 4 11
f 15 11 5
f 15 5 9
f 16 12 8
f 16 8 3
f 16 3 12
f 17 13 10
f 17 10 6
f 17 6 2
f 18 2 7
f 18 7 14
f 18 17 2
f 18 13 17
f 18 14 11
f 18 11 13