# https://github.com/mikedh/trimesh
v 0.03990384 -0.39643814 0.38636366
v 0.05505535 -0.38128663 0.34090911
v 0.05505535 -0.32068057 0.46212124
v -0.02070223 -0.32068057 0.49242427
v -0.02070223 -0.38128663 0.34090911
v 0.03990384 -0.38128663 0.44696972
v 0.00960081 -0.39643814 0.35606063
v -0.00555071 -0.32068057 0.34090911
v 0.03990384 -0.33583208 0.49242427
v -0.02070223 -0.36613511 0.46212124
v 0.05505535 -0.36613511 0.44696972
v 0.03990384 -0.39643814 0.35606063
v 0.05505535 -0.33583208 0.34090911
v 0.03362178 -0.33369836 0.33842886
v -0.02070223 -0.33583208 0.34090911
v 0.03277998 -0.31602038 0.48402563
v -0.02070223 -0.38128663 0.41666669
v -0.02070223 -0.33583208 0.49242427
v 0.05505535 -0.38128663 0.38636366
v 0.05505535 -0.35098360 0.46212124
v 0.05505535 -0.32068057 0.41666669
v -0.02070223 -0.32068057 0.41666669
v 0.00960081 -0.39643814 0.38636366
v -0.00555071 -0.38128663 0.44696972
f 7 5 2
f 10 4 5
f 10 6 9
f 11 6 1
f 11 2 3
f 11 9 6
f 12 7 2
f 12 2 1
f 12 1 7
f 13 3 2
f 14 2 5
f 14 13 2
f 14 8 13
f 15 5 4
f 15 14 5
f 15 8 14
f 16 9 3
f 16 4 9
f 17 10 5
f 17 5 7
f 18 10 9
f 18 9 4
f 18 4 10
f 19 11 1
f 19 1 2
f 19 2 11
f 20 11 3
f 20 3 9
f 20 9 11
f 21 13 8
f 21 3 13
f 21 16 3
f 21 8 16
f 22 15 4
f 22 8 15
f 22 16 8
f 22 4 16
f 23 17 7
f 23 7 1
f 23 1 6
f 24 6 10
f 24 10 17
f 24 23 6
f 24 17 23