# https://github.com/mikedh/trimesh
v 0.02475232 0.33083460 0.40151518
v 0.02475232 0.33083460 0.31060608
v 0.02475232 0.39144067 0.40151518
v -0.05100526 0.36113764 0.40151518
v -0.03585374 0.31568309 0.31060608
v -0.02830155 0.34146693 0.40353353
v 0.00960081 0.31568309 0.32575760
v -0.03585374 0.39144067 0.31060608
v -0.05100526 0.37628915 0.40151518
v -0.02070223 0.31568309 0.34090911
v -0.05100526 0.34598612 0.38636366
v 0.00304616 0.32592964 0.30387551
v 0.00960081 0.39144067 0.31060608
v -0.00555071 0.31568309 0.34090911
v -0.03585374 0.31568309 0.32575760
v -0.05100526 0.37628915 0.31060608
v 0.02475232 0.37628915 0.31060608
v 0.02475232 0.39144067 0.34090911
f 1 2 3
f 6 1 3
f 7 2 1
f 9 6 3
f 9 4 6
f 9 3 8
f 10 1 6
f 10 5 7
f 11 6 4
f 11 4 9
f 12 7 5
f 12 2 7
f 13 8 3
f 13 12 8
f 14 10 7
f 14 7 1
f 14 1 10
f 15 10 6
f 15 6 11
f 15 11 5
f 15 5 10
f 16 5 11
f 16 12 5
f 16 8 12
f 16 11 9
f 16 9 8
f 17 3 2
f 17 2 12
f 17 12 13
f 18 17 13
f 18 13 3
f 18 3 17