# https://github.com/mikedh/trimesh
v 0.03529108 -0.37554079 0.34219367
v 0.05505535 -0.33583208 0.25000002
v 0.05505535 -0.33583208 0.34090911
v -0.00555071 -0.27522602 0.28030305
v -0.02070223 -0.33583208 0.23484850
v 0.05505535 -0.29037754 0.23484850
v -0.02070223 -0.33583208 0.34090911
v 0.05505535 -0.36613511 0.28030305
v 0.03990384 -0.27522602 0.28030305
v -0.02070223 -0.29037754 0.21969699
v 0.03990384 -0.30552905 0.20454547
v -0.00555071 -0.32068057 0.34090911
v -0.02070223 -0.38128663 0.32575760
v 0.05505535 -0.29037754 0.25000002
v 0.03359203 -0.28460467 0.21616450
v -0.02070223 -0.29037754 0.26515154
v 0.05505535 -0.32068057 0.23484850
v -0.00555071 -0.30552905 0.20454547
v 0.03990384 -0.35098360 0.23484850
v 0.02475232 -0.30552905 0.32575760
v -0.02070223 -0.38128663 0.34090911
v 0.03990384 -0.38128663 0.29545457
v 0.00002659 -0.28511769 0.21461544
v -0.02070223 -0.30552905 0.21969699
v 0.03990384 -0.33583208 0.21969699
v -0.00555071 -0.38128663 0.28030305
v 0.00960081 -0.30552905 0.32575760
v -0.00555071 -0.35098360 0.23484850
v -0.02070223 -0.36613511 0.28030305
v 0.02475232 -0.38128663 0.28030305
v -0.00555071 -0.33583208 0.21969699
f 6 3 2
f 8 2 3
f 8 3 1
f 10 5 7
f 12 7 1
f 12 1 3
f 12 4 7
f 13 7 5
f 14 9 3
f 14 3 6
f 14 6 9
f 15 9 6
f 15 6 11
f 15 4 9
f 16 10 7
f 16 7 4
f 16 4 10
f 17 11 6
f 17 6 2
f 19 2 8
f 20 9 4
f 20 12 3
f 20 3 9
f 21 1 7
f 21 7 13
f 22 8 1
f 22 21 13
f 22 1 21
f 23 10 4
f 23 4 15
f 23 18 10
f 23 15 11
f 23 11 18
f 24 18 5
f 24 5 10
f 24 10 18
f 25 18 11
f 25 11 17
f 25 17 2
f 25 2 19
f 26 22 13
f 27 20 4
f 27 4 12
f 27 12 20
f 28 25 19
f 28 26 5
f 28 19 26
f 29 26 13
f 29 13 5
f 29 5 26
f 30 26 19
f 30 22 26
f 30 19 8
f 30 8 22
f 31 28 5
f 31 5 18
f 31 18 25
f 31 25 28