# https://github.com/mikedh/trimesh
v 0.02475232 0.10356187 0.40151518
v 0.02475232 0.10356187 0.38636366
v 0.02475232 0.20962248 0.43181821
v -0.02676455 0.21244179 0.48453552
v -0.03585374 0.10356187 0.38636366
v 0.02475232 0.17931945 0.49242427
v -0.03585374 0.17931945 0.38636366
v 0.01420669 0.21193776 0.48486634
v -0.02070223 0.13386490 0.46212124
v 0.02475232 0.17931945 0.38636366
v -0.03585374 0.17931945 0.49242427
v -0.02070223 0.20962248 0.41666669
v -0.03585374 0.10356187 0.40151518
v 0.00960081 0.13386490 0.46212124
v -0.03585374 0.20962248 0.43181821
v 0.00960081 0.20962248 0.41666669
v -0.03585374 0.11871339 0.43181821
v 0.02475232 0.11871339 0.43181821
v 0.02475232 0.19447096 0.40151518
f 1 2 3
f 5 2 1
f 6 1 3
f 7 2 5
f 8 6 3
f 10 3 2
f 10 2 7
f 11 7 5
f 11 9 6
f 11 8 4
f 11 6 8
f 12 10 7
f 13 5 1
f 13 1 9
f 13 11 5
f 14 9 1
f 14 6 9
f 15 11 4
f 15 7 11
f 15 12 7
f 15 4 12
f 16 10 12
f 16 8 3
f 16 12 4
f 16 4 8
f 17 13 9
f 17 9 11
f 17 11 13
f 18 14 1
f 18 1 6
f 18 6 14
f 19 16 3
f 19 3 10
f 19 10 16