# https://github.com/mikedh/trimesh
v 0.02075979 0.05187230 0.05174412
v 0.03990384 0.07325884 0.00757577
v 0.03990384 0.10356187 0.05303032
v -0.00555071 0.13386490 0.02272729
v -0.05100526 0.05810732 0.00757577
v 0.03990384 0.11871339 0.00757577
v -0.05100526 0.10356187 0.05303032
v 0.03990384 0.07325884 0.05303032
v 0.02343848 0.05764045 0.00762190
v 0.02475232 0.13386490 0.02272729
v -0.05100526 0.11871339 0.00757577
v -0.05100526 0.05810732 0.05303032
v 0.02475232 0.13386490 0.00757577
v 0.03990384 0.11871339 0.03787880
v -0.05100526 0.11871339 0.03787880
v -0.00555071 0.13386490 0.00757577
f 6 3 2
f 6 2 5
f 7 3 4
f 8 1 2
f 8 2 3
f 8 3 7
f 9 5 2
f 9 2 1
f 9 1 5
f 10 4 3
f 11 6 5
f 11 5 7
f 12 7 5
f 12 5 1
f 12 8 7
f 12 1 8
f 13 10 6
f 13 4 10
f 13 6 11
f 14 10 3
f 14 3 6
f 14 6 10
f 15 11 7
f 15 7 4
f 15 4 11
f 16 13 11
f 16 11 4
f 16 4 13