# https://github.com/mikedh/trimesh
v 0.02475232 -0.32068057 0.50757579
v 0.03990384 -0.30552905 0.41666669
v 0.03990384 -0.29037754 0.50757579
v 0.00048513 -0.28783465 0.49551666
v -0.02070223 -0.32068057 0.43181821
v 0.03990384 -0.29037754 0.43181821
v -0.00555071 -0.32068057 0.50757579
v 0.03990384 -0.30552905 0.50757579
v 0.03391512 -0.32792945 0.42033638
v -0.02070223 -0.29037754 0.44696972
v -0.00555071 -0.30552905 0.41666669
v -0.00024340 -0.32823128 0.42081821
v -0.00555071 -0.29037754 0.43181821
v -0.02070223 -0.32068057 0.49242427
v -0.02070223 -0.30552905 0.43181821
v -0.00827415 -0.28903569 0.48658195
f 6 3 2
f 6 4 3
f 7 1 3
f 7 3 4
f 8 2 3
f 8 3 1
f 9 8 1
f 9 2 8
f 11 2 9
f 11 6 2
f 12 11 9
f 12 5 11
f 12 9 1
f 12 1 7
f 13 10 4
f 13 4 6
f 13 11 10
f 13 6 11
f 14 7 4
f 14 10 5
f 14 12 7
f 14 5 12
f 15 11 5
f 15 5 10
f 15 10 11
f 16 14 4
f 16 4 10
f 16 10 14