# https://github.com/mikedh/trimesh
v 0.03990384 -0.01765025 -0.05303029
v 0.03990384 -0.00249874 -0.05303029
v 0.02644636 -0.01386276 -0.03248188
v -0.00790552 0.04357569 -0.04081001
v -0.02070223 0.01265278 -0.08333332
v 0.01386203 0.04110737 -0.03628546
v 0.02475232 0.01265278 -0.08333332
v -0.03585374 -0.01765025 -0.05303029
v -0.02542250 0.00750750 -0.03293000
v 0.02475232 -0.01765025 -0.06818181
v 0.01295487 0.04422893 -0.08081645
v -0.02267130 -0.01289589 -0.03711740
v -0.03585374 0.01265278 -0.05303029
v -0.01318756 -0.01857366 -0.06013471
v -0.01362349 0.04490751 -0.08146264
f 1 2 3
f 6 3 2
f 7 2 1
f 8 1 3
f 9 6 4
f 9 3 6
f 10 7 1
f 10 5 7
f 11 6 2
f 11 2 7
f 11 4 6
f 12 9 8
f 12 8 3
f 12 3 9
f 13 9 4
f 13 5 8
f 13 8 9
f 14 8 5
f 14 5 10
f 14 10 1
f 14 1 8
f 15 11 7
f 15 7 5
f 15 4 11
f 15 13 4
f 15 5 13