# https://github.com/mikedh/trimesh
v 0.02475232 0.02780429 -0.09848484
v 0.02475232 0.04295581 -0.11363635
v 0.02475232 0.13386490 -0.09848484
v -0.02024151 0.13389991 -0.08331112
v -0.02070223 0.02780429 -0.09848484
v -0.01693656 0.13409771 -0.15919155
v 0.01225325 0.03305636 -0.07685399
v 0.02475232 0.10356187 -0.15909090
v -0.02070223 0.08841035 -0.15909090
v 0.02475232 0.11871339 -0.08333332
v -0.01052950 0.03351050 -0.07852600
v 0.01086546 0.13324505 -0.15924019
v 0.00960081 0.08841035 -0.15909090
v 0.00649956 0.13357625 -0.08340194
f 1 2 3
f 5 2 1
f 6 4 3
f 7 5 1
f 8 3 2
f 9 5 4
f 9 4 6
f 9 2 5
f 10 7 1
f 10 1 3
f 11 7 4
f 11 4 5
f 11 5 7
f 12 6 3
f 12 3 8
f 12 9 6
f 13 8 2
f 13 2 9
f 13 12 8
f 13 9 12
f 14 10 3
f 14 3 4
f 14 4 7
f 14 7 10