# https://github.com/mikedh/trimesh
v 0.02507561 -0.16912317 -0.05307135
v 0.03990384 -0.16916541 -0.23484848
v 0.03990384 -0.06310480 -0.06818181
v -0.02059018 -0.01760010 -0.03786375
v -0.02070223 -0.16916541 -0.17424242
v 0.02475232 -0.01765025 -0.08333332
v 0.02320563 -0.01715370 -0.03709963
v 0.03990384 -0.16916541 -0.09848484
v -0.00422834 -0.16903042 -0.05300719
v 0.03990384 -0.07825632 -0.14393939
v -0.00555071 -0.15401389 -0.23484848
v 0.03990384 -0.07825632 -0.06818181
v -0.02070223 -0.01765025 -0.08333332
v 0.00329646 -0.17620163 -0.22741783
v -0.02070223 -0.16916541 -0.12878787
v -0.00651622 -0.07768222 -0.03706558
v 0.03990384 -0.06310480 -0.11363635
v 0.03990384 -0.15401389 -0.23484848
v 0.02475232 -0.09340783 -0.17424242
v -0.02070223 -0.13886238 -0.17424242
v 0.01804559 -0.07869429 -0.03795042
v -0.00555071 -0.09340783 -0.17424242
f 7 3 6
f 8 2 3
f 10 3 2
f 12 7 1
f 12 3 7
f 12 8 3
f 12 1 8
f 13 7 6
f 13 4 7
f 14 2 8
f 14 11 2
f 14 5 11
f 14 8 1
f 14 1 9
f 15 9 4
f 15 14 9
f 15 5 14
f 15 13 5
f 15 4 13
f 16 7 4
f 16 4 9
f 16 9 1
f 17 10 6
f 17 6 3
f 17 3 10
f 18 10 2
f 18 2 11
f 18 6 10
f 19 13 6
f 19 18 11
f 19 6 18
f 20 13 11
f 20 11 5
f 20 5 13
f 21 16 1
f 21 1 7
f 21 7 16
f 22 19 11
f 22 11 13
f 22 13 19