# https://github.com/mikedh/trimesh
v -0.34505561 0.09586805 -0.00127462
v -0.34470242 0.09132116 0.00085924
v -0.27589232 0.09078807 -0.00108106
v -0.28636342 0.08343153 -0.02092781
v -0.34412068 0.08669901 -0.02125827
v -0.41147649 0.07960586 -0.00163341
v -0.41012606 0.07544781 0.00085924
v -0.27678567 0.08622864 0.00085924
v -0.27229807 0.08412766 0.00085924
v -0.27229807 0.08911356 -0.00109522
v -0.27229807 0.08838607 -0.00328101
v -0.29101723 0.06674287 -0.03743214
v -0.27229807 0.07877801 -0.02084755
v -0.34538803 0.06768361 -0.03494894
v -0.40031978 0.06006992 -0.02827828
v -0.40393481 0.07335311 -0.01476228
v -0.45331937 0.05864000 -0.00247845
v -0.45138720 0.05541015 0.00085924
v -0.27229807 0.03180395 -0.03921193
v -0.48165783 0.03180395 0.00085924
v -0.27229807 0.06139322 -0.03418415
v -0.27229807 0.05334680 -0.03795616
v -0.27229807 0.03821977 -0.04347020
v -0.28864878 0.04067823 -0.04637828
v -0.34628141 0.04223984 -0.04431053
v -0.40553457 0.03565470 -0.03425024
v -0.42591581 0.03180395 -0.02924135
v -0.44532061 0.03180395 -0.02322217
v -0.43364450 0.04930791 -0.02089476
v -0.44708657 0.05597459 -0.00922937
v -0.48319525 0.03449446 -0.00341319
v -0.48111767 0.03283876 0.00085924
v -0.27229807 0.03180395 -0.04431996
v -0.48435873 0.03180395 -0.00308273
v -0.27713886 0.03180395 -0.04527831
v -0.28808782 0.03180395 -0.04736496
v -0.34638527 0.03180395 -0.04556629
v -0.39917710 0.03180395 -0.03588840
v -0.40590852 0.03180395 -0.03455710
v -0.48452491 0.03180395 -0.00343680
f 1 2 3
f 1 3 4
f 1 4 5
f 1 5 6
f 1 6 7
f 1 7 2
f 2 8 3
f 2 7 18
f 2 18 32
f 2 32 20
f 2 20 9
f 2 9 8
f 3 9 10
f 3 10 11
f 3 11 4
f 3 8 9
f 4 12 5
f 4 11 13
f 4 13 12
f 5 12 14
f 5 14 15
f 5 15 16
f 5 16 6
f 6 16 17
f 6 17 18
f 6 18 7
f 9 19 33
f 9 33 23
f 9 23 22
f 9 22 21
f 9 21 13
f 9 13 11
f 9 11 10
f 9 20 19
f 12 13 21
f 12 21 22
f 12 22 23
f 12 23 24
f 12 24 25
f 12 25 14
f 14 25 15
f 15 25 26
f 15 26 27
f 15 27 28
f 15 28 29
f 15 29 30
f 15 30 16
f 16 30 17
f 17 30 31
f 17 31 32
f 17 32 18
f 19 20 34
f 19 34 40
f 19 40 28
f 19 28 27
f 19 27 39
f 19 39 38
f 19 38 37
f 19 37 36
f 19 36 35
f 19 35 33
f 20 32 31
f 20 31 34
f 23 33 35
f 23 35 24
f 24 35 36
f 24 36 37
f 24 37 25
f 25 37 38
f 25 38 26
f 26 39 27
f 26 38 39
f 28 40 31
f 28 31 29
f 29 31 30
f 31 40 34

