# https://github.com/mikedh/trimesh
v -0.19250795 0.02741421 0.00652015
v -0.18078086 0.01886471 0.00652015
v -0.19250795 -0.02741421 0.00652015
v -0.18613601 0.00000000 0.01023817
v -0.18606821 0.02031915 0.01023817
v 0.48983201 0.02265912 0.04787008
v 0.49010319 0.02202583 0.04287942
v -0.18078086 -0.01896668 0.00652015
v -0.15115809 0.00842069 0.00773198
v 0.48983201 -0.02265912 0.04787008
v -0.18606821 -0.02031915 0.01023817
v -0.18979648 -0.02610468 0.00652015
v 0.49010319 -0.02202583 0.04287942
v -0.17257866 0.00000537 0.01469458
v -0.17237532 0.01364807 0.01345234
v 0.15164465 0.00000000 0.03468762
v 0.49972886 0.00000000 0.05089314
v 0.49993223 0.00000000 0.04586339
v -0.15115809 -0.00842069 0.00773198
v -0.17237532 -0.01413109 0.01345234
f 1 2 8
f 1 8 12
f 1 12 3
f 1 3 4
f 1 4 5
f 1 5 6
f 1 6 7
f 1 7 2
f 2 7 9
f 2 9 19
f 2 19 8
f 3 10 11
f 3 11 4
f 3 12 13
f 3 13 10
f 4 11 14
f 4 14 5
f 5 14 15
f 5 15 6
f 6 16 17
f 6 17 18
f 6 18 7
f 6 15 16
f 7 18 13
f 7 13 19
f 7 19 9
f 8 19 13
f 8 13 12
f 10 13 18
f 10 18 17
f 10 17 16
f 10 16 20
f 10 20 11
f 11 20 14
f 14 20 16
f 14 16 15

