# https://github.com/mikedh/trimesh
v -0.27227730 0.03179768 -0.03921030
v -0.27227730 -0.05786602 -0.03010620
v -0.27227730 0.03179768 -0.04432218
v -0.48165467 0.03179768 0.00086396
v -0.27227730 -0.05786602 -0.03583616
v -0.44632378 -0.05786602 0.00086396
v -0.27227730 0.02805877 -0.04481867
v -0.27713668 0.03179768 -0.04527970
v -0.48435187 0.03179768 -0.00308267
v -0.49788237 -0.00000063 0.00086396
v -0.27860788 -0.05786602 -0.03778161
v -0.27227730 -0.05333720 -0.03795893
v -0.45138377 -0.05539975 0.00086396
v -0.45285499 -0.05786602 -0.00168438
v -0.27227730 -0.00000063 -0.04827387
v -0.28605300 -0.00000063 -0.05089314
v -0.28808147 0.03179768 -0.04736194
v -0.28507221 0.03179768 -0.04678945
v -0.48450792 0.03179768 -0.00343731
v -0.50000000 -0.00000063 -0.00371089
v -0.48321503 -0.03448465 -0.00341705
v -0.48111969 -0.03283461 0.00086396
v -0.28518367 -0.05786602 -0.03931163
v -0.28863874 -0.04067229 -0.04637908
v -0.27227730 -0.03821479 -0.04346597
v -0.45428160 -0.05786602 -0.00251018
v -0.27227730 -0.02806004 -0.04481867
v -0.34677312 -0.00000063 -0.04939352
v -0.34639418 0.03179768 -0.04556848
v -0.44532070 0.03179768 -0.02322619
v -0.44812933 0.02758482 -0.02378348
v -0.48646951 -0.00000063 -0.01011973
v -0.44812933 -0.02758609 -0.02378348
v -0.43364033 -0.04929987 -0.02089571
v -0.44708166 -0.05596146 -0.00923313
v -0.29022139 -0.05786602 -0.04047687
v -0.34628272 -0.04223455 -0.04431204
v -0.45151752 -0.05786602 -0.00443030
v -0.39917877 0.03179768 -0.03588682
v -0.40553164 -0.03565196 -0.03425042
v -0.40900901 -0.00000063 -0.03707740
v -0.42590541 0.03179768 -0.02924493
v -0.45468283 -0.00000063 -0.02497913
v -0.40078369 -0.05786602 -0.02881937
v -0.40713656 -0.05786602 -0.02676752
v -0.42543730 -0.05786602 -0.01804846
v -0.44237831 -0.05786602 -0.00983602
v -0.34572545 -0.05786602 -0.03856182
v -0.39362836 -0.05786602 -0.03026325
v -0.40591058 0.03179768 -0.03455439
f 1 2 5
f 1 5 12
f 1 12 25
f 1 25 27
f 1 27 15
f 1 15 7
f 1 7 3
f 1 3 8
f 1 8 18
f 1 18 17
f 1 17 29
f 1 29 39
f 1 39 50
f 1 50 42
f 1 42 30
f 1 30 19
f 1 19 9
f 1 9 4
f 1 4 2
f 2 4 6
f 2 6 14
f 2 14 26
f 2 26 38
f 2 38 47
f 2 47 46
f 2 46 45
f 2 45 44
f 2 44 49
f 2 49 48
f 2 48 36
f 2 36 23
f 2 23 11
f 2 11 5
f 3 7 8
f 4 9 10
f 4 10 22
f 4 22 13
f 4 13 6
f 5 11 12
f 6 13 14
f 7 15 16
f 7 16 17
f 7 17 18
f 7 18 8
f 9 19 20
f 9 20 10
f 10 20 21
f 10 21 22
f 11 23 12
f 12 23 24
f 12 24 25
f 13 22 14
f 14 22 26
f 15 27 24
f 15 24 16
f 16 24 28
f 16 28 17
f 17 28 29
f 19 30 31
f 19 31 20
f 20 32 33
f 20 33 21
f 20 31 32
f 21 26 22
f 21 33 34
f 21 34 35
f 21 35 26
f 23 36 24
f 24 36 37
f 24 37 28
f 24 27 25
f 26 35 38
f 28 39 29
f 28 37 40
f 28 40 41
f 28 41 39
f 30 42 31
f 31 42 43
f 31 43 32
f 32 43 33
f 33 43 40
f 33 40 44
f 33 44 45
f 33 45 34
f 34 45 46
f 34 46 35
f 35 46 47
f 35 47 38
f 36 48 37
f 37 48 49
f 37 49 40
f 39 41 50
f 40 43 41
f 40 49 44
f 41 43 50
f 42 50 43

