# https://github.com/mikedh/trimesh
v -0.29021832 -0.05786602 -0.04048190
v -0.27860209 -0.05786602 -0.03778244
v -0.29102007 -0.06674531 -0.03743438
v -0.34573397 -0.05786602 -0.03855950
v -0.27227730 -0.05786602 -0.03583980
v -0.27227730 -0.06139616 -0.03418856
v -0.27227730 -0.07877532 -0.02084504
v -0.28637001 -0.08343258 -0.02092194
v -0.34411269 -0.08670233 -0.02125381
v -0.34539545 -0.06768644 -0.03494943
v -0.39364204 -0.05786602 -0.03026281
v -0.27227730 -0.05786602 -0.03010901
v -0.27227730 -0.08838742 -0.00328034
v -0.27589402 -0.09079045 -0.00107868
v -0.34505695 -0.09586805 -0.00127294
v -0.41149399 -0.07960857 -0.00163314
v -0.40392205 -0.07335550 -0.01476215
v -0.40032315 -0.06007189 -0.02827969
v -0.40078637 -0.05786602 -0.02881797
v -0.27227730 -0.08412819 0.00085992
v -0.44632488 -0.05786602 0.00085992
v -0.27227730 -0.08911280 -0.00109082
v -0.27227730 -0.08866642 -0.00090465
v -0.27678484 -0.08622991 0.00085992
v -0.34470063 -0.09131867 0.00085992
v -0.41012213 -0.07544977 0.00085992
v -0.45286345 -0.05786602 -0.00168171
v -0.45332670 -0.05863603 -0.00247900
v -0.45152724 -0.05786602 -0.00442973
v -0.44236967 -0.05786602 -0.00983675
v -0.42544416 -0.05786602 -0.01804440
v -0.40712899 -0.05786602 -0.02676605
v -0.45428878 -0.05786602 -0.00250733
f 1 2 3
f 1 3 4
f 1 4 11
f 1 11 19
f 1 19 32
f 1 32 31
f 1 31 30
f 1 30 29
f 1 29 33
f 1 33 27
f 1 27 21
f 1 21 12
f 1 12 5
f 1 5 2
f 2 5 6
f 2 6 3
f 3 6 7
f 3 7 8
f 3 8 9
f 3 9 10
f 3 10 4
f 4 10 11
f 5 12 20
f 5 20 23
f 5 23 22
f 5 22 13
f 5 13 7
f 5 7 6
f 7 13 8
f 8 13 14
f 8 14 15
f 8 15 9
f 9 15 16
f 9 16 17
f 9 17 18
f 9 18 10
f 10 18 11
f 11 18 19
f 12 21 20
f 13 22 14
f 14 22 23
f 14 23 24
f 14 24 25
f 14 25 15
f 15 25 26
f 15 26 16
f 16 26 21
f 16 21 27
f 16 27 28
f 16 28 17
f 17 28 29
f 17 29 30
f 17 30 18
f 18 30 31
f 18 31 32
f 18 32 19
f 20 24 23
f 20 21 26
f 20 26 25
f 20 25 24
f 27 33 28
f 28 33 29

