# https://github.com/mikedh/trimesh
v -0.19059038 -0.02955754 0.00208761
v -0.19207762 -0.02955754 0.00430556
v -0.19876227 -0.03991115 -0.00234341
v -0.21913601 -0.04237130 -0.02277012
v -0.21636142 -0.02955754 -0.02299044
v -0.19444443 -0.02955754 0.00539740
v -0.23310500 -0.07085541 -0.00123688
v -0.24377963 -0.06935716 -0.02068436
v -0.24549876 -0.03419218 -0.03870706
v -0.22419748 -0.02955754 -0.02838599
v -0.23551978 -0.06696697 0.00086357
v -0.27226931 -0.02955754 -0.03951003
v -0.27226931 -0.08412972 0.00086357
v -0.27226931 -0.08866525 -0.00090883
v -0.27226931 -0.08910832 -0.00109489
v -0.27226931 -0.08838543 -0.00327857
v -0.27226931 -0.07877802 -0.02084593
v -0.27226931 -0.06138791 -0.03418792
v -0.26432130 -0.05912597 -0.03280721
v -0.24419542 -0.02955754 -0.03906448
v -0.27226931 -0.05334870 -0.03795796
v -0.27226931 -0.03822053 -0.04346611
v -0.27226931 -0.02955754 -0.04462161
f 1 2 3
f 1 3 4
f 1 4 5
f 1 5 10
f 1 10 20
f 1 20 23
f 1 23 12
f 1 12 6
f 1 6 2
f 2 6 7
f 2 7 3
f 3 7 8
f 3 8 4
f 4 8 9
f 4 9 10
f 4 10 5
f 6 11 7
f 6 12 13
f 6 13 11
f 7 11 14
f 7 14 15
f 7 15 16
f 7 16 8
f 8 16 17
f 8 17 18
f 8 18 19
f 8 19 9
f 9 20 10
f 9 19 21
f 9 21 22
f 9 22 23
f 9 23 20
f 11 13 14
f 12 23 22
f 12 22 21
f 12 21 18
f 12 18 17
f 12 17 16
f 12 16 15
f 12 15 14
f 12 14 13
f 18 21 19

