# https://github.com/mikedh/trimesh
v -0.27227730 -0.02955754 -0.04461685
v -0.27227730 -0.02955754 -0.03951066
v -0.27227730 -0.02805904 -0.04481530
v -0.23586772 0.00000584 -0.04134502
v -0.26402315 -0.02955754 -0.04298630
v -0.19444479 -0.02955754 0.00539379
v -0.27227730 0.08411916 0.00086151
v -0.27227730 0.00000584 -0.04827485
v -0.27227730 0.02807071 -0.04481530
v -0.27227730 0.03821171 -0.04346903
v -0.24550055 0.03418086 -0.03870611
v -0.21913563 0.04235871 -0.02277072
v -0.20995937 0.00000584 -0.02348945
v -0.21636036 -0.02955754 -0.02299063
v -0.22420271 -0.02955754 -0.02838646
v -0.24419349 -0.02955754 -0.03906547
v -0.19207239 -0.02955754 0.00430497
v -0.18985219 -0.02610751 0.00652015
v -0.19251107 -0.02740853 0.00652015
v -0.19251107 0.02742020 0.00652015
v -0.23551859 0.06696194 0.00086151
v -0.27227730 0.08911414 -0.00109086
v -0.27227730 0.05333607 -0.03795520
v -0.26431859 0.05912097 -0.03280610
v -0.24378169 0.06935489 -0.02068963
v -0.19875987 0.03990768 -0.00234595
v -0.18082814 0.01887064 0.00652015
v -0.18081918 -0.01896351 0.00652015
v -0.19059524 -0.02955754 0.00208442
v -0.19079220 -0.02955754 0.00238478
v -0.23310143 0.07085339 -0.00123568
v -0.27227730 0.08838232 -0.00327923
v -0.27227730 0.06138614 -0.03418456
v -0.27227730 0.07877567 -0.02085053
f 1 2 7
f 1 7 22
f 1 22 32
f 1 32 34
f 1 34 33
f 1 33 23
f 1 23 10
f 1 10 9
f 1 9 8
f 1 8 3
f 1 3 4
f 1 4 5
f 1 5 16
f 1 16 15
f 1 15 14
f 1 14 29
f 1 29 30
f 1 30 17
f 1 17 6
f 1 6 2
f 2 6 7
f 3 8 4
f 4 8 9
f 4 9 10
f 4 10 11
f 4 11 12
f 4 12 13
f 4 13 14
f 4 14 15
f 4 15 16
f 4 16 5
f 6 17 18
f 6 18 19
f 6 19 7
f 7 20 21
f 7 21 22
f 7 19 20
f 10 23 11
f 11 23 24
f 11 24 25
f 11 25 12
f 12 25 26
f 12 26 27
f 12 27 13
f 13 28 14
f 13 27 28
f 14 28 29
f 17 30 28
f 17 28 18
f 18 28 27
f 18 27 20
f 18 20 19
f 20 27 31
f 20 31 21
f 21 31 22
f 22 31 25
f 22 25 32
f 23 33 24
f 24 33 25
f 25 33 34
f 25 34 32
f 25 31 26
f 26 31 27
f 28 30 29

