# https://github.com/mikedh/trimesh
v 0.07350898 -0.14393940 0.13292454
v 0.08586786 -0.14451692 0.08495081
v 0.07350898 -0.00757576 0.10262150
v -0.06285467 -0.00757576 0.11777302
v -0.10467594 -0.14507877 0.08445215
v 0.02805443 -0.03787879 0.13292454
v 0.08866049 -0.12878788 0.11777302
v -0.09788012 -0.14788901 0.09361142
v 0.06718982 -0.00950923 0.08007227
v 0.05835746 -0.08333334 0.13292454
v 0.04320594 -0.00757576 0.11777302
v -0.04770315 -0.14393940 0.14807605
v 0.08866049 -0.14393940 0.11777302
v 0.08866049 -0.06818182 0.10262150
v -0.09315770 -0.08333334 0.11777302
v -0.10186054 -0.11588013 0.07892899
v 0.01290291 -0.00757576 0.08746999
v 0.07350898 -0.05303031 0.11777302
v -0.03255163 -0.03787879 0.13292454
v 0.02805443 -0.12878788 0.14807605
v 0.02805443 -0.14393940 0.14807605
v 0.07607347 -0.06857374 0.08135283
v -0.10830921 -0.11363637 0.10262150
v -0.06285467 -0.06818182 0.13292454
v -0.07032276 -0.00936373 0.08102566
v 0.05835746 -0.02272727 0.11777302
v 0.07350898 -0.12878788 0.13292454
v 0.04320594 -0.05303031 0.13292454
v -0.04770315 -0.12878788 0.14807605
v -0.07800618 -0.14393940 0.13292454
v -0.07800618 -0.00757576 0.10262150
v -0.07800618 -0.11363637 0.13292454
v -0.09315770 -0.05303031 0.10262150
f 8 5 2
f 11 3 4
f 11 4 6
f 13 7 1
f 13 8 2
f 13 1 8
f 14 9 3
f 14 13 2
f 14 7 13
f 16 2 5
f 17 4 3
f 17 3 9
f 18 14 3
f 18 7 14
f 19 6 4
f 20 6 19
f 21 12 8
f 21 8 1
f 21 20 12
f 21 1 20
f 22 14 2
f 22 9 14
f 22 16 9
f 22 2 16
f 23 16 5
f 24 4 15
f 24 19 4
f 25 17 9
f 25 9 16
f 26 18 3
f 26 3 11
f 26 11 6
f 26 10 18
f 27 18 10
f 27 1 7
f 27 7 18
f 27 20 1
f 27 10 20
f 28 20 10
f 28 6 20
f 28 26 6
f 28 10 26
f 29 20 19
f 29 12 20
f 29 19 24
f 30 23 5
f 30 5 8
f 30 8 12
f 30 12 29
f 31 15 4
f 31 4 17
f 31 17 25
f 32 30 29
f 32 29 24
f 32 24 15
f 32 15 23
f 32 23 30
f 33 23 15
f 33 15 31
f 33 16 23
f 33 31 25
f 33 25 16