# https://github.com/mikedh/trimesh
v 0.05835746 -0.40151517 -0.06404517
v 0.05835746 -0.40151517 -0.13980275
v 0.05835746 -0.34090910 -0.06404517
v -0.12957280 -0.33907029 -0.04597336
v -0.12346073 -0.40151517 -0.07919668
v -0.06285467 -0.34090910 -0.13980275
v -0.06285467 -0.34090910 -0.04889365
v -0.11591300 -0.39835453 -0.04494335
v 0.05442892 -0.33970335 -0.12963593
v -0.12346073 -0.34090910 -0.09434820
v -0.04770315 -0.40151517 -0.13980275
v -0.06285467 -0.40151517 -0.04889365
v -0.13861224 -0.38636365 -0.04889365
v -0.12551828 -0.33767514 -0.05955017
v -0.09315770 -0.37121213 -0.12465123
v -0.13861224 -0.38636365 -0.06404517
v -0.09315770 -0.34090910 -0.12465123
v -0.06285467 -0.37121213 -0.13980275
v -0.07800618 -0.40151517 -0.12465123
v -0.10830921 -0.37121213 -0.10949971
v -0.12346073 -0.35606062 -0.09434820
f 1 2 3
f 5 2 1
f 7 1 3
f 7 3 4
f 8 7 4
f 9 3 2
f 9 2 6
f 11 6 2
f 11 2 5
f 12 8 5
f 12 5 1
f 12 1 7
f 12 7 8
f 13 8 4
f 13 5 8
f 14 9 6
f 14 4 3
f 14 3 9
f 14 10 4
f 16 5 13
f 16 13 4
f 16 4 10
f 17 14 6
f 17 10 14
f 17 15 10
f 17 6 15
f 18 15 6
f 18 6 11
f 18 11 15
f 19 15 11
f 19 11 5
f 19 5 15
f 20 15 5
f 20 10 15
f 21 16 10
f 21 10 20
f 21 20 5
f 21 5 16