# https://github.com/mikedh/trimesh
v 0.08866049 0.23484849 0.05716696
v 0.10381201 0.23484849 -0.04889365
v 0.08866049 0.38636365 0.01171241
v 0.01290291 0.49242426 -0.00343910
v -0.06285467 0.23484849 -0.00343910
v 0.05835746 0.44696971 -0.04889365
v 0.04320594 0.40151516 0.07231847
v 0.10381201 0.25000000 0.02686393
v 0.06123939 0.23394947 0.06370715
v 0.08866049 0.37121213 -0.03374214
v 0.05835746 0.44696971 0.02686393
v -0.04770315 0.35606062 -0.04889365
v 0.07350898 0.32575758 0.07231847
v -0.07800618 0.26515152 0.07231847
v 0.10381201 0.23484849 0.02686393
v 0.10381201 0.26515152 -0.04889365
v -0.04770315 0.23484849 -0.04889365
v 0.07350898 0.43181819 -0.03374214
v 0.02805443 0.44696971 0.05716696
v -0.00224860 0.49242426 -0.04889365
v 0.07350898 0.41666668 0.04201544
v 0.08866049 0.28030304 0.05716696
v 0.02805443 0.23484849 0.10262150
v -0.06285467 0.28030304 -0.00343910
v 0.10381201 0.26515152 0.01171241
v 0.08866049 0.38636365 -0.01859062
v 0.07350898 0.41666668 -0.04889365
v 0.04320594 0.46212122 0.02686393
v -0.04770315 0.29545455 0.08746999
v 0.01290291 0.49242426 -0.04889365
v -0.00784345 0.48005907 -0.00687509
v 0.05835746 0.38636365 0.07231847
v 0.07350898 0.43181819 -0.00343910
v 0.08866049 0.34090910 0.04201544
v 0.05835746 0.23484849 0.08746999
v -0.06285467 0.23484849 0.08746999
v 0.01290291 0.47727274 0.02686393
v -0.00224860 0.44696971 0.05716696
v -0.01740012 0.26515152 0.10262150
v 0.05835746 0.29545455 0.08746999
v 0.02805443 0.25000000 0.10262150
v 0.04320594 0.43181819 0.05716696
v 0.08866049 0.37121213 0.02686393
v -0.07800618 0.25000000 0.07231847
v -0.03255163 0.23484849 0.10262150
v -0.06285467 0.26515152 0.08746999
v 0.02805443 0.46212122 0.04201544
v -0.04460381 0.35529657 0.06076206
v 0.01290291 0.26515152 0.10262150
v -0.03255163 0.25000000 0.10262150
f 12 6 2
f 15 8 1
f 15 2 8
f 15 9 2
f 15 1 9
f 16 8 2
f 16 2 6
f 17 9 5
f 17 2 9
f 17 12 2
f 17 5 12
f 20 6 12
f 22 13 1
f 22 1 8
f 24 14 12
f 24 12 5
f 24 5 14
f 25 16 3
f 25 3 8
f 25 8 16
f 26 16 10
f 26 3 16
f 26 18 3
f 26 10 18
f 27 16 6
f 27 6 18
f 27 18 10
f 27 10 16
f 28 19 11
f 28 11 4
f 30 20 4
f 30 6 20
f 30 18 6
f 30 4 18
f 31 4 20
f 31 20 12
f 31 12 14
f 32 13 21
f 32 19 7
f 33 11 21
f 33 18 4
f 33 4 11
f 33 21 3
f 33 3 18
f 34 21 13
f 34 13 22
f 34 22 8
f 35 23 9
f 35 9 1
f 35 1 13
f 36 5 9
f 37 28 4
f 37 4 31
f 38 7 19
f 38 19 37
f 38 37 31
f 39 38 29
f 39 7 38
f 40 13 32
f 40 35 13
f 40 23 35
f 41 40 32
f 41 23 40
f 41 39 23
f 42 32 21
f 42 19 32
f 42 21 11
f 42 11 19
f 43 3 21
f 43 21 34
f 43 34 8
f 43 8 3
f 44 36 14
f 44 14 5
f 44 5 36
f 45 36 9
f 45 9 23
f 45 23 39
f 46 14 36
f 46 36 45
f 47 37 19
f 47 19 28
f 47 28 37
f 48 38 31
f 48 31 14
f 48 14 46
f 48 46 29
f 48 29 38
f 49 7 39
f 49 39 41
f 49 41 32
f 49 32 7
f 50 46 45
f 50 45 39
f 50 39 29
f 50 29 46