# https://github.com/mikedh/trimesh
v 0.01227165 0.09817202 0.09799470
v 0.01290291 0.09848485 0.01171241
v 0.01290291 0.23484849 0.01171241
v -0.06285467 0.23484849 0.08746999
v -0.07800618 0.15909091 0.07231847
v 0.01070359 0.23303283 0.08992548
v -0.03255163 0.09848485 0.01171241
v -0.04770315 0.15909091 0.10262150
v -0.07718709 0.23495719 0.01152284
v -0.03255163 0.23484849 0.10262150
v -0.02992157 0.09777743 0.09470953
v -0.07800618 0.18939394 0.07231847
v -0.07576191 0.15901889 0.01149616
v -0.04770315 0.20454546 0.10262150
f 1 2 3
f 6 1 3
f 8 4 5
f 10 6 3
f 10 8 1
f 10 1 6
f 10 9 4
f 10 3 9
f 11 7 2
f 11 2 1
f 11 5 7
f 11 8 5
f 11 1 8
f 12 9 5
f 12 5 4
f 12 4 9
f 13 7 5
f 13 5 9
f 13 2 7
f 13 9 3
f 13 3 2
f 14 10 4
f 14 4 8
f 14 8 10