# https://github.com/mikedh/trimesh
v 0.07568981 -0.00995386 0.06776918
v 0.10170461 -0.00819646 0.01018683
v 0.10381201 0.21969697 0.04201544
v 0.02805443 0.23484849 0.10262150
v 0.01290291 -0.00757576 0.01171241
v 0.05835746 0.09848485 0.10262150
v 0.10381201 -0.00757576 0.04201544
v 0.08976531 0.23433027 0.00888960
v 0.05835746 0.23484849 0.08746999
v 0.01284043 0.05299093 0.10220432
v 0.10381201 0.23484849 0.02686393
v 0.05835746 0.05303030 0.10262150
v 0.08866049 0.14393940 0.07231847
v 0.01290291 0.23484849 0.01171241
v 0.04320594 0.20454546 0.10262150
v 0.01290291 -0.00757576 0.07231847
v 0.08866049 0.23484849 0.05716696
v 0.07350898 0.15909091 0.08746999
v 0.01070359 0.23303283 0.08992548
f 5 2 1
f 7 1 2
f 8 2 5
f 11 7 2
f 11 3 7
f 11 2 8
f 11 4 9
f 12 1 7
f 12 6 4
f 12 4 10
f 13 7 3
f 13 12 7
f 14 8 5
f 14 11 8
f 14 4 11
f 15 9 4
f 15 4 6
f 16 5 1
f 16 12 10
f 16 1 12
f 17 11 9
f 17 3 11
f 17 13 3
f 18 6 12
f 18 12 13
f 18 15 6
f 18 9 15
f 18 17 9
f 18 13 17
f 19 10 4
f 19 4 14
f 19 14 5
f 19 16 10
f 19 5 16