# https://github.com/mikedh/trimesh
v -0.04770315 -0.08333334 0.08746999
v -0.03255163 -0.00757576 -0.04889365
v -0.02730429 0.02060041 0.10378338
v -0.07800618 0.03787879 0.08746999
v -0.12346073 -0.08333334 -0.04889365
v -0.03255163 0.03787879 -0.04889365
v -0.04770315 -0.00757576 0.11777302
v -0.02968645 -0.00956971 0.10852234
v -0.04770315 -0.08333334 -0.04889365
v -0.12346073 -0.06818182 0.05716696
v -0.03174992 0.03756705 0.10000101
v -0.10830921 0.02272727 -0.04889365
v -0.04770315 0.02272727 0.11777302
v -0.10950877 -0.08697082 0.05345424
v -0.08200545 -0.08252051 0.08975356
v -0.06285467 0.03787879 0.10262150
v -0.08459077 0.03658581 -0.04497331
v -0.10830921 0.02272727 0.02686393
v -0.12346073 -0.03787879 -0.03374214
v -0.07800618 -0.00757576 0.10262150
v -0.09315770 0.02272727 0.07231847
v -0.12346073 -0.05303031 -0.04889365
v -0.12346073 -0.03787879 0.02686393
v -0.07800618 0.00757576 0.10262150
f 6 3 2
f 6 2 5
f 8 2 3
f 8 7 1
f 9 5 2
f 9 8 1
f 9 2 8
f 11 3 6
f 12 6 5
f 13 8 3
f 13 7 8
f 13 3 11
f 14 9 1
f 14 5 9
f 14 10 5
f 15 1 7
f 15 14 1
f 15 10 14
f 16 11 6
f 16 6 4
f 16 13 11
f 17 4 6
f 17 6 12
f 18 17 12
f 18 4 17
f 19 5 10
f 19 18 12
f 20 7 13
f 20 15 7
f 20 10 15
f 21 18 10
f 21 4 18
f 22 19 12
f 22 12 5
f 22 5 19
f 23 19 10
f 23 10 18
f 23 18 19
f 24 20 13
f 24 13 16
f 24 16 4
f 24 4 21
f 24 21 10
f 24 10 20