# https://github.com/mikedh/trimesh
v -0.09514097 -0.40261635 0.08842535
v -0.09315770 -0.40151517 0.05716696
v -0.07238765 -0.02483984 0.08269390
v -0.09315770 -0.00757576 0.07231847
v -0.13861224 -0.40151517 0.05716696
v -0.08601568 -0.00906595 0.05159052
v -0.13861224 -0.17424243 0.08746999
v -0.07800618 -0.14393940 0.08746999
v -0.07800618 -0.14393940 0.05716696
v -0.07496596 -0.00827004 0.07154924
v -0.09540888 -0.04222276 0.05090973
v -0.09315770 -0.02272727 0.08746999
v -0.13861224 -0.38636365 0.08746999
v -0.07908040 -0.00731801 0.05814083
v -0.13861224 -0.14393940 0.07231847
v -0.12346073 -0.40151517 0.08746999
v -0.12379746 -0.14573399 0.05554590
v -0.10830921 -0.03787879 0.07231847
v -0.13861224 -0.40151517 0.07231847
v -0.10950877 -0.08697082 0.05345424
v -0.12346073 -0.08333334 0.07231847
v -0.12346073 -0.11363637 0.08746999
f 5 2 1
f 8 1 2
f 9 2 6
f 9 8 2
f 9 3 8
f 10 3 9
f 11 6 2
f 11 2 5
f 12 10 4
f 12 3 10
f 12 8 3
f 12 1 8
f 13 7 5
f 13 1 7
f 14 6 4
f 14 4 10
f 14 10 9
f 14 9 6
f 15 5 7
f 16 1 13
f 17 11 5
f 17 5 15
f 18 4 6
f 18 12 4
f 19 16 13
f 19 13 5
f 19 5 1
f 19 1 16
f 20 17 15
f 20 11 17
f 21 18 6
f 21 6 11
f 21 20 15
f 21 11 20
f 22 12 18
f 22 18 21
f 22 7 1
f 22 1 12
f 22 21 15
f 22 15 7