# https://github.com/mikedh/trimesh
v -0.07800618 -0.44696971 0.10262150
v -0.05938859 -0.44406790 0.08644886
v -0.05562632 -0.32474263 0.13787103
v -0.07800618 -0.14393940 0.13292454
v -0.11521399 -0.17563590 0.07906793
v -0.06285467 -0.14393940 0.08746999
v -0.12346073 -0.38636365 0.10262150
v -0.05363464 -0.39764928 0.12222772
v -0.05886820 -0.14498247 0.12640130
v -0.10467594 -0.14507877 0.08445215
v -0.07429666 -0.44192032 0.08050351
v -0.07800618 -0.32575759 0.14807605
v -0.12346073 -0.17424243 0.10262150
v -0.05846175 -0.43985460 0.09511407
v -0.05617532 -0.20531716 0.13460058
v -0.11360390 -0.38488111 0.07859952
v -0.10830921 -0.41666668 0.10262150
v -0.07800618 -0.40151517 0.13292454
v -0.10830921 -0.15909092 0.11777302
v -0.07800618 -0.43181820 0.11777302
v -0.07800618 -0.20454546 0.14807605
v -0.10211744 -0.41175875 0.07773613
v -0.09315770 -0.37121213 0.13292454
v -0.10830921 -0.38636365 0.11777302
v -0.05823961 -0.42474123 0.10648147
v -0.09315770 -0.15909092 0.13292454
f 8 2 6
f 9 6 4
f 10 6 5
f 10 4 6
f 11 6 2
f 11 5 6
f 11 2 1
f 13 5 7
f 13 10 5
f 14 1 2
f 14 2 8
f 15 8 6
f 15 6 9
f 15 3 8
f 16 7 5
f 17 11 1
f 18 8 3
f 18 3 12
f 19 4 10
f 19 10 13
f 20 1 14
f 20 8 18
f 20 18 17
f 20 17 1
f 21 12 3
f 21 3 15
f 21 15 9
f 21 9 4
f 22 16 5
f 22 5 11
f 22 11 17
f 22 17 7
f 22 7 16
f 23 18 12
f 23 13 7
f 23 12 21
f 24 7 17
f 24 17 18
f 24 23 7
f 24 18 23
f 25 20 14
f 25 14 8
f 25 8 20
f 26 21 4
f 26 4 19
f 26 19 13
f 26 23 21
f 26 13 23