# https://github.com/mikedh/trimesh
v 0.09092919 -0.19138876 0.09539083
v 0.14926655 -0.18939395 -0.04889365
v 0.13411504 -0.17424243 0.05716696
v 0.08586786 -0.14451692 0.08495081
v 0.08825782 -0.18948414 -0.10881319
v 0.13411504 -0.14393940 -0.07919668
v 0.10381201 -0.15909092 0.10262150
v 0.13411504 -0.18939395 0.05716696
v 0.11896352 -0.18939395 -0.10949971
v 0.08250501 -0.16143702 0.09817601
v 0.14926655 -0.15909092 -0.00343910
v 0.08592484 -0.14483417 -0.10496412
v 0.14926655 -0.18939395 0.01171241
v 0.08666150 -0.18997301 0.10081553
v 0.14926655 -0.15909092 -0.04889365
v 0.13411504 -0.14393940 0.04201544
v 0.10381201 -0.14393940 0.08746999
v 0.11896352 -0.15909092 -0.10949971
v 0.14926655 -0.17424243 0.01171241
f 8 3 7
f 9 2 1
f 9 1 5
f 9 6 2
f 10 7 4
f 12 10 4
f 12 5 10
f 13 8 1
f 13 1 2
f 13 2 11
f 13 3 8
f 14 8 7
f 14 1 8
f 14 7 10
f 14 10 5
f 14 5 1
f 15 11 2
f 15 2 6
f 15 6 11
f 16 7 3
f 16 11 6
f 17 12 4
f 17 6 12
f 17 16 6
f 17 4 7
f 17 7 16
f 18 9 5
f 18 5 12
f 18 12 6
f 18 6 9
f 19 13 11
f 19 11 16
f 19 16 3
f 19 3 13