# https://github.com/mikedh/trimesh
v 0.07350898 -0.00757576 0.10262150
v 0.07322433 -0.00766583 0.07219149
v 0.05835746 0.05303030 0.10262150
v -0.02992157 0.09777743 0.09470953
v -0.03255163 -0.00757576 0.07231847
v 0.01290291 0.09848485 0.07231847
v -0.03255163 0.05303030 0.11777302
v 0.07095370 0.03773303 0.07119316
v -0.02968645 -0.00956971 0.10852234
v 0.01227165 0.09817202 0.09799470
v -0.03255163 0.09848485 0.07231847
v 0.04320594 0.02272727 0.11777302
v 0.07350898 0.00757576 0.10262150
v -0.01740012 0.06818182 0.11777302
v 0.04320594 -0.00757576 0.11777302
v 0.01290291 0.06818182 0.11777302
v 0.02805443 0.05303030 0.11777302
f 8 6 3
f 8 2 5
f 9 5 2
f 9 2 1
f 9 7 5
f 10 3 6
f 11 10 6
f 11 4 10
f 11 7 4
f 11 5 7
f 11 8 5
f 11 6 8
f 13 1 2
f 13 2 8
f 13 8 3
f 13 12 1
f 13 3 12
f 14 10 4
f 14 4 7
f 14 7 12
f 15 9 1
f 15 1 12
f 15 12 7
f 15 7 9
f 16 14 12
f 16 3 10
f 16 10 14
f 17 16 12
f 17 12 3
f 17 3 16