# https://github.com/mikedh/trimesh
v 0.10381201 -0.47727274 0.04201544
v 0.14926655 -0.41666668 -0.01859062
v 0.13411504 -0.41666668 0.07231847
v 0.08685706 -0.40040529 0.09970840
v 0.08658945 -0.40031765 -0.09210980
v 0.13585302 -0.39767823 0.00841582
v 0.10381201 -0.43181820 0.10262150
v 0.13411504 -0.44696971 0.02686393
v 0.10381201 -0.46212123 -0.06404517
v 0.08269813 -0.46503154 -0.01595335
v 0.13411504 -0.40151517 0.07231847
v 0.09726377 -0.39813214 -0.08503846
v 0.11896352 -0.46212123 0.05716696
v 0.08124659 -0.43897657 0.07851194
v 0.14926655 -0.41666668 0.01171241
v 0.11896352 -0.46212123 -0.03374214
v 0.10381201 -0.47727274 -0.01859062
v 0.07969891 -0.45170225 -0.05916409
v 0.09283813 -0.39918483 0.09512576
v 0.13411504 -0.40151517 -0.06404517
v 0.10381201 -0.44696971 0.08746999
v 0.13411504 -0.43181820 0.05716696
v 0.08866049 -0.43181820 0.10262150
v 0.08866049 -0.47727274 0.04201544
v 0.14926655 -0.40151517 -0.01859062
v 0.13411504 -0.43181820 -0.04889365
v 0.13411504 -0.44696971 -0.01859062
v 0.08866049 -0.43181820 -0.09434820
v 0.10381201 -0.43181820 -0.09434820
v 0.13411504 -0.41666668 -0.06404517
v 0.11896352 -0.43181820 -0.07919668
f 11 7 3
f 11 4 7
f 12 5 4
f 13 3 7
f 13 1 8
f 14 4 5
f 15 8 2
f 15 11 3
f 17 9 16
f 17 8 1
f 18 17 10
f 18 9 17
f 18 14 5
f 18 10 14
f 19 11 6
f 19 4 11
f 19 12 4
f 19 6 12
f 20 12 6
f 21 13 7
f 21 1 13
f 22 13 8
f 22 3 13
f 22 15 3
f 22 8 15
f 23 7 4
f 23 4 14
f 23 21 7
f 24 14 10
f 24 23 14
f 24 1 21
f 24 21 23
f 24 17 1
f 24 10 17
f 25 15 2
f 25 6 11
f 25 11 15
f 25 20 6
f 25 2 20
f 26 16 9
f 27 2 8
f 27 17 16
f 27 8 17
f 27 26 2
f 27 16 26
f 28 18 5
f 28 9 18
f 29 5 12
f 29 12 20
f 29 28 5
f 29 9 28
f 30 20 2
f 30 2 26
f 30 29 20
f 31 26 9
f 31 9 29
f 31 30 26
f 31 29 30