# https://github.com/mikedh/trimesh
v -0.04770315 -0.49242426 0.05716696
v -0.04252910 -0.48083881 -0.04543963
v -0.04770315 -0.40151517 0.08746999
v -0.12346073 -0.40151517 0.08746999
v -0.12346073 -0.44696971 -0.03374214
v -0.07800618 -0.46212123 0.08746999
v -0.04755563 -0.45621570 0.08053169
v -0.07800618 -0.49242426 -0.03374214
v -0.07291018 -0.39836530 -0.10087944
v -0.12346073 -0.44696971 0.05716696
v -0.06285467 -0.49242426 -0.04889365
v -0.04770315 -0.40151517 -0.04889365
v -0.12346073 -0.40151517 -0.06404517
v -0.12536962 -0.39728014 0.03810198
v -0.12346073 -0.41666668 0.08746999
v -0.07800618 -0.49242426 0.04201544
v -0.07800618 -0.41666668 -0.10949971
v -0.09315770 -0.46212123 -0.07919668
v -0.12488916 -0.39762273 -0.01445078
v -0.13861224 -0.41666668 0.04201544
v -0.06285467 -0.49242426 0.05716696
v -0.09315770 -0.47727274 0.05716696
v -0.07800618 -0.46212123 -0.07919668
v -0.09315770 -0.40151517 -0.10949971
v -0.10830921 -0.41666668 -0.09434820
v -0.13861224 -0.41666668 -0.01859062
v -0.10830921 -0.40151517 -0.09434820
v -0.09315770 -0.41666668 -0.10949971
v -0.12346073 -0.41666668 -0.06404517
f 6 3 4
f 7 1 2
f 7 2 3
f 7 6 1
f 7 3 6
f 10 5 8
f 11 2 1
f 11 1 8
f 12 9 3
f 12 3 2
f 12 2 9
f 14 4 3
f 14 3 9
f 15 10 6
f 15 6 4
f 16 10 8
f 16 8 1
f 17 9 2
f 18 11 8
f 18 8 5
f 19 14 9
f 20 5 10
f 20 10 15
f 20 15 4
f 20 4 14
f 21 16 1
f 21 1 6
f 22 6 10
f 22 10 16
f 22 21 6
f 22 16 21
f 23 17 2
f 23 2 11
f 23 18 17
f 23 11 18
f 24 9 17
f 25 18 5
f 26 20 14
f 26 14 19
f 26 19 13
f 26 5 20
f 27 19 9
f 27 9 24
f 27 13 19
f 27 25 13
f 27 24 25
f 28 24 17
f 28 17 18
f 28 25 24
f 28 18 25
f 29 25 5
f 29 5 26
f 29 26 13
f 29 13 25