# https://github.com/mikedh/trimesh
v 0.12740146 -0.14348142 -0.04760590
v 0.13411504 -0.14393940 -0.07919668
v 0.07378231 0.09851338 -0.07953157
v -0.04122814 0.10004275 -0.09058170
v -0.10830921 -0.14393940 -0.10949971
v -0.08459077 0.03658581 -0.04497331
v 0.13411504 -0.08333334 -0.04889365
v -0.05602209 -0.14606672 -0.12677647
v -0.04770315 -0.14393940 -0.04889365
v -0.09315770 0.03787879 -0.07919668
v 0.11896352 -0.00757576 -0.07919668
v 0.10754767 -0.00749942 -0.04586332
v -0.03255163 0.05303030 -0.12465123
v -0.10659910 -0.08352144 -0.04824019
v -0.10751174 -0.14415758 -0.07883522
v 0.13411504 -0.08333334 -0.06404517
v 0.01290291 0.03787879 -0.04889365
v -0.06285467 -0.11363637 -0.13980275
v 0.05835746 0.09848485 -0.10949971
v -0.06285467 0.03787879 -0.10949971
v -0.10830921 -0.00757576 -0.06404517
v 0.13411504 -0.11363637 -0.07919668
v -0.09315770 -0.14393940 -0.12465123
v 0.05835746 -0.14393940 -0.13980275
v -0.01740012 0.06818182 -0.12465123
v -0.09315770 -0.11363637 -0.12465123
v -0.10830921 -0.06818182 -0.09434820
v -0.10830921 -0.00757576 -0.04889365
v 0.08866049 -0.14393940 -0.12465123
v -0.02835649 0.09730397 -0.09944314
v 0.02805443 0.06818182 -0.12465123
v -0.03255163 -0.05303031 -0.13980275
v -0.04770315 0.02272727 -0.12465123
v -0.09315770 -0.00757576 -0.09434820
v -0.10830921 -0.12878788 -0.10949971
v 0.10381201 -0.08333334 -0.10949971
v 0.07350898 -0.05303031 -0.12465123
v 0.02805443 -0.05303031 -0.13980275
v -0.07800618 -0.00757576 -0.10949971
v 0.11896352 -0.08333334 -0.09434820
v 0.07350898 0.05303030 -0.10949971
v 0.05835746 -0.11363637 -0.13980275
v 0.08866049 -0.11363637 -0.12465123
v 0.10381201 -0.00757576 -0.09434820
v 0.04320594 0.03787879 -0.12465123
f 6 3 4
f 7 1 2
f 8 2 1
f 9 1 6
f 9 8 1
f 10 6 4
f 12 6 1
f 12 1 7
f 12 11 3
f 12 7 11
f 14 9 6
f 15 5 8
f 15 8 9
f 15 9 14
f 16 11 7
f 16 7 2
f 17 12 3
f 17 3 6
f 17 6 12
f 19 4 3
f 19 3 11
f 20 10 4
f 20 4 13
f 22 16 2
f 22 11 16
f 23 8 5
f 24 23 18
f 24 8 23
f 25 13 4
f 26 18 23
f 26 23 5
f 27 21 10
f 27 5 21
f 28 15 14
f 28 14 6
f 28 6 10
f 28 10 21
f 28 21 5
f 28 5 15
f 29 2 8
f 29 8 24
f 29 22 2
f 30 25 4
f 30 4 19
f 30 19 25
f 31 25 19
f 32 18 13
f 32 13 25
f 32 25 31
f 32 24 18
f 33 20 13
f 33 13 18
f 33 18 26
f 34 10 20
f 34 27 10
f 34 26 27
f 35 27 26
f 35 26 5
f 35 5 27
f 38 32 31
f 38 24 32
f 39 34 20
f 39 26 34
f 39 33 26
f 39 20 33
f 40 36 11
f 40 11 22
f 40 22 36
f 41 19 11
f 41 37 19
f 42 29 24
f 42 24 38
f 42 38 31
f 43 42 37
f 43 29 42
f 43 36 22
f 43 22 29
f 43 41 36
f 43 37 41
f 44 41 11
f 44 11 36
f 44 36 41
f 45 42 31
f 45 31 19
f 45 19 37
f 45 37 42