# https://github.com/mikedh/trimesh
v 0.08605202 0.23502222 -0.04807361
v 0.08866049 0.23484849 -0.07919668
v 0.05835746 0.43181819 -0.06404517
v -0.00437325 0.47262791 -0.04503704
v -0.10830921 0.28030304 -0.06404517
v 0.04580964 0.42812591 -0.04127561
v 0.08866049 0.29545455 -0.04889365
v -0.07800618 0.23484849 -0.07919668
v 0.02805443 0.47727274 -0.06404517
v -0.07338035 0.23559889 -0.04734797
v 0.08866049 0.28030304 -0.07919668
v 0.07350898 0.37121213 -0.04889365
v 0.04320594 0.46212122 -0.06404517
v 0.03282615 0.45485189 -0.04403205
v -0.07800618 0.41666668 -0.12465123
v -0.09315770 0.25000000 -0.04889365
v -0.10778122 0.35614609 -0.04855918
v 0.07350898 0.37121213 -0.06404517
v 0.02091555 0.46486110 -0.04652555
v -0.09315770 0.29545455 -0.10949971
v -0.00224860 0.47727274 -0.07919668
v 0.02805443 0.40151516 -0.10949971
v -0.09315770 0.25000000 -0.06404517
v -0.10830921 0.28030304 -0.04889365
v -0.10830921 0.41666668 -0.09434820
v 0.07350898 0.32575758 -0.09434820
v 0.08866049 0.29545455 -0.06404517
v 0.05835746 0.23484849 -0.10949971
v 0.04320594 0.41666668 -0.09434820
v -0.01740012 0.41666668 -0.12465123
v -0.09457585 0.41295669 -0.07695580
v -0.10830921 0.32575758 -0.09434820
v 0.07350898 0.35606062 -0.07919668
v -0.04770315 0.23484849 -0.10949971
v 0.05835746 0.32575758 -0.10949971
v 0.01290291 0.46212122 -0.09434820
v -0.04770315 0.29545455 -0.12465123
v -0.10830921 0.29545455 -0.07919668
v -0.07800618 0.25000000 -0.09434820
v -0.00224860 0.38636365 -0.12465123
v 0.02805443 0.44696971 -0.09434820
v 0.01290291 0.47727274 -0.07919668
v -0.00224860 0.46212122 -0.09434820
v -0.07800618 0.32575758 -0.12465123
v 0.01290291 0.32575758 -0.12465123
v 0.01290291 0.43181819 -0.10949971
v 0.01290291 0.29545455 -0.12465123
f 7 1 2
f 7 6 1
f 8 2 1
f 10 1 6
f 10 8 1
f 11 7 2
f 12 3 6
f 12 6 7
f 13 6 3
f 14 4 6
f 14 13 9
f 14 6 13
f 16 8 10
f 17 10 6
f 17 6 4
f 18 3 12
f 18 12 7
f 19 14 9
f 19 9 4
f 19 4 14
f 20 8 5
f 21 4 9
f 23 16 5
f 23 5 8
f 23 8 16
f 24 16 10
f 24 10 17
f 24 5 16
f 25 15 20
f 25 24 17
f 25 5 24
f 25 21 15
f 25 4 21
f 26 11 2
f 27 18 7
f 27 7 11
f 27 11 18
f 28 2 8
f 28 26 2
f 31 25 17
f 31 17 4
f 31 4 25
f 32 25 20
f 32 5 25
f 33 18 11
f 33 11 26
f 33 3 18
f 33 29 3
f 33 26 29
f 34 28 8
f 35 26 28
f 35 29 26
f 35 22 29
f 36 30 15
f 37 15 30
f 37 28 34
f 38 32 20
f 38 20 5
f 38 5 32
f 39 34 8
f 39 8 20
f 39 20 34
f 40 22 35
f 40 37 30
f 41 29 22
f 41 13 3
f 41 3 29
f 41 9 13
f 42 36 21
f 42 21 9
f 42 41 36
f 42 9 41
f 43 36 15
f 43 15 21
f 43 21 36
f 44 37 34
f 44 34 20
f 44 20 15
f 44 15 37
f 45 40 35
f 45 35 28
f 45 37 40
f 46 41 22
f 46 30 36
f 46 36 41
f 46 40 30
f 46 22 40
f 47 45 28
f 47 28 37
f 47 37 45