# https://github.com/mikedh/trimesh
v 0.10381201 -0.40151517 0.11777302
v 0.14926655 -0.40151517 0.04201544
v 0.13411504 -0.25000001 0.08746999
v 0.08666150 -0.18997301 0.10081553
v 0.08866049 -0.40151517 0.01171241
v 0.10381201 -0.20454546 0.11777302
v 0.13411504 -0.38636365 0.08746999
v 0.08866049 -0.40151517 0.11777302
v 0.14926655 -0.18939395 0.01171241
v 0.13411504 -0.40151517 0.07231847
v 0.14926655 -0.37121213 0.05716696
v 0.08082883 -0.20504808 0.11030029
v 0.13585302 -0.39767823 0.00841582
v 0.08866049 -0.18939395 0.01171241
v 0.14926655 -0.18939395 0.02686393
v 0.11896352 -0.18939395 0.08746999
v 0.14926655 -0.26515152 0.05716696
f 5 2 1
f 6 1 3
f 7 3 1
f 8 5 1
f 8 1 6
f 10 7 1
f 10 1 2
f 10 2 7
f 11 7 2
f 11 3 7
f 11 2 9
f 12 5 8
f 12 8 6
f 12 6 4
f 13 9 2
f 13 2 5
f 14 12 4
f 14 5 12
f 14 13 5
f 14 9 13
f 15 11 9
f 15 9 14
f 16 6 3
f 16 3 15
f 16 4 6
f 16 15 14
f 16 14 4
f 17 15 3
f 17 3 11
f 17 11 15