# https://github.com/mikedh/trimesh
v -0.00123304 0.35585208 0.06870773
v -0.00224860 0.35606062 -0.07919668
v -0.00224860 0.49242426 -0.04889365
v -0.09315770 0.50757577 -0.03374214
v -0.12346073 0.35606062 0.02686393
v -0.07800618 0.46212122 -0.10949971
v -0.00224860 0.44696971 0.05716696
v -0.00224860 0.44696971 -0.10949971
v -0.05814868 0.35503120 0.05999358
v -0.04770315 0.50757577 -0.09434820
v -0.12346073 0.41666668 -0.06404517
v -0.00224860 0.49242426 0.01171241
v -0.09315770 0.43181819 0.04201544
v -0.00224860 0.47727274 -0.07919668
v -0.07197507 0.41310434 -0.10067183
v -0.12346073 0.35606062 -0.06404517
v -0.04770315 0.41666668 0.07231847
v -0.10830921 0.49242426 -0.07919668
v -0.01740012 0.46212122 -0.10949971
v -0.03255163 0.50757577 -0.03374214
v -0.10830921 0.46212122 -0.00343910
v -0.06285467 0.47727274 0.02686393
v -0.00645216 0.41303500 -0.10110013
v -0.09844644 0.35600150 -0.07715120
v -0.06285467 0.38636365 0.07231847
v -0.00224860 0.41666668 0.07231847
v -0.07800618 0.50757577 -0.09434820
v -0.03255163 0.50757577 -0.06404517
v -0.10830921 0.40151516 0.04201544
v -0.10830921 0.49242426 -0.03374214
v -0.03255163 0.49242426 0.01171241
v -0.06285467 0.46212122 0.04201544
v -0.09315770 0.35606062 0.05716696
v -0.07800618 0.41666668 0.05716696
v -0.09315770 0.50757577 -0.07919668
v -0.12346073 0.40151516 0.01171241
v -0.12346073 0.43181819 -0.04889365
v -0.04770315 0.44696971 0.05716696
v -0.09315770 0.37121213 0.05716696
v -0.12346073 0.37121213 0.02686393
v -0.12346073 0.43181819 -0.01859062
f 8 1 2
f 9 2 1
f 12 7 1
f 12 1 3
f 14 3 1
f 14 1 8
f 14 10 3
f 14 8 10
f 15 6 8
f 16 9 5
f 16 5 11
f 16 11 6
f 18 6 11
f 19 10 8
f 19 8 6
f 19 6 10
f 20 10 4
f 20 4 12
f 20 12 3
f 22 7 12
f 23 15 8
f 23 8 2
f 23 2 15
f 24 2 9
f 24 9 16
f 24 15 2
f 24 16 6
f 24 6 15
f 26 1 7
f 26 7 17
f 26 25 1
f 26 17 25
f 27 10 6
f 27 6 18
f 27 4 10
f 28 20 3
f 28 3 10
f 28 10 20
f 29 13 21
f 30 4 18
f 30 21 13
f 30 22 4
f 30 13 22
f 31 22 12
f 31 12 4
f 31 4 22
f 32 22 13
f 33 9 1
f 33 1 25
f 33 5 9
f 34 25 17
f 34 17 13
f 34 29 25
f 34 13 29
f 35 27 18
f 35 18 4
f 35 4 27
f 36 29 21
f 36 21 30
f 36 11 5
f 37 30 18
f 37 18 11
f 37 11 36
f 38 17 7
f 38 7 22
f 38 22 32
f 38 32 13
f 38 13 17
f 39 33 25
f 39 25 29
f 39 5 33
f 40 36 5
f 40 29 36
f 40 39 29
f 40 5 39
f 41 37 36
f 41 36 30
f 41 30 37