# https://github.com/mikedh/trimesh
v 0.02805443 -0.47727274 0.10262150
v 0.05914628 -0.45296745 0.07687042
v 0.05835746 -0.40151517 0.13292454
v -0.05363464 -0.39764928 0.12222772
v -0.04770315 -0.46212123 0.01171241
v -0.04770315 -0.43181820 0.13292454
v 0.05835746 -0.46212123 0.10262150
v 0.01290291 -0.46212123 0.01171241
v 0.04320594 -0.43181820 0.13292454
v -0.06285467 -0.41666668 0.13292454
v -0.06285467 -0.46212123 0.10262150
v 0.05835746 -0.44696971 0.11777302
v 0.01290291 -0.40151517 0.01171241
v 0.02805443 -0.46212123 0.11777302
v -0.04770315 -0.40151517 0.01171241
v -0.03255163 -0.47727274 0.10262150
v -0.04770315 -0.46212123 0.11777302
v 0.05835746 -0.41666668 0.13292454
v 0.05835746 -0.40151517 0.08746999
v -0.06285467 -0.40151517 0.08746999
v -0.06285467 -0.44696971 0.11777302
f 8 1 5
f 8 7 1
f 8 2 7
f 9 3 6
f 10 6 3
f 10 3 4
f 12 7 2
f 12 1 7
f 13 2 8
f 13 8 5
f 14 9 6
f 14 12 9
f 14 1 12
f 15 13 5
f 15 4 13
f 16 11 5
f 16 5 1
f 16 1 14
f 17 6 10
f 17 11 16
f 17 16 14
f 17 14 6
f 18 12 2
f 18 2 3
f 18 3 9
f 18 9 12
f 19 3 2
f 19 2 13
f 19 13 4
f 19 4 3
f 20 10 4
f 20 4 15
f 20 11 10
f 20 15 5
f 20 5 11
f 21 17 10
f 21 10 11
f 21 11 17