# https://github.com/mikedh/trimesh
v -0.06185160 0.23485586 0.05647489
v -0.04770315 0.23484849 -0.04889365
v -0.04460381 0.35529657 0.06076206
v -0.12346073 0.35606062 0.02686393
v -0.09315770 0.23484849 -0.04889365
v -0.04770315 0.35606062 -0.04889365
v -0.07800618 0.35606062 0.07231847
v -0.04628582 0.27982645 0.06899547
v -0.06685812 0.23419265 0.04979430
v -0.12346073 0.31060607 -0.04889365
v -0.09315770 0.28030304 0.05716696
v -0.11134649 0.35724187 -0.04282613
v -0.04770315 0.23484849 -0.00343910
v -0.07800618 0.29545455 0.07231847
v -0.09315770 0.25000000 0.04201544
v -0.09315770 0.23484849 0.02686393
v -0.12346073 0.29545455 0.01171241
v -0.10830921 0.29545455 0.04201544
v -0.12346073 0.29545455 -0.03374214
v -0.12346073 0.34090910 0.02686393
f 6 3 2
f 6 2 5
f 7 3 6
f 8 2 3
f 8 3 7
f 9 5 2
f 10 6 5
f 12 7 6
f 12 4 7
f 12 10 4
f 12 6 10
f 13 8 1
f 13 2 8
f 13 9 2
f 13 1 9
f 14 8 7
f 14 7 4
f 14 11 1
f 14 1 8
f 15 1 11
f 16 9 1
f 16 1 15
f 16 5 9
f 17 16 15
f 17 4 10
f 17 5 16
f 18 17 15
f 18 15 11
f 19 17 10
f 19 10 5
f 19 5 17
f 20 4 17
f 20 17 18
f 20 18 11
f 20 14 4
f 20 11 14