# https://github.com/mikedh/trimesh
v 0.08866049 -0.44696971 -0.09434820
v 0.14926655 -0.34090910 -0.07919668
v 0.12573811 -0.38351373 -0.05603724
v -0.06285467 -0.14393940 -0.06404517
v 0.01290291 -0.15909092 -0.15495426
v 0.12901433 -0.18988099 -0.06235040
v -0.06285467 -0.34090910 -0.06404517
v 0.13411504 -0.38636365 -0.07919668
v 0.07350898 -0.37121213 -0.13980275
v 0.14926655 -0.25000001 -0.06404517
v 0.08866049 -0.14393940 -0.06404517
v 0.08121337 -0.44071656 -0.07013577
v -0.06285467 -0.34090910 -0.13980275
v 0.11590747 -0.40005314 -0.06237061
v 0.10381201 -0.18939395 -0.12465123
v 0.11896352 -0.37121213 -0.10949971
v 0.13685978 -0.33986334 -0.05801750
v 0.05835746 -0.14393940 -0.13980275
v 0.05982878 -0.44836071 -0.08043185
v 0.05835746 -0.40151517 -0.06404517
v -0.04770315 -0.18939395 -0.15495426
v 0.07350898 -0.41666668 -0.12465123
v 0.13411504 -0.18939395 -0.09434820
v 0.11896352 -0.40151517 -0.09434820
v 0.10381201 -0.35606062 -0.12465123
v -0.05602209 -0.14606672 -0.12677647
v 0.04320594 -0.20454546 -0.15495426
v -0.01740012 -0.34090910 -0.15495426
v 0.05559053 -0.44273561 -0.08878398
v 0.14926655 -0.25000001 -0.07919668
v 0.08866049 -0.14393940 -0.12465123
v 0.10381201 -0.40151517 -0.10949971
v 0.13411504 -0.37121213 -0.09434820
v -0.03255163 -0.15909092 -0.15495426
v 0.07350898 -0.17424243 -0.13980275
v 0.02805443 -0.17424243 -0.15495426
v -0.04770315 -0.31060607 -0.15495426
v 0.02805443 -0.34090910 -0.15495426
v 0.04320594 -0.31060607 -0.15495426
f 6 4 3
f 7 3 4
f 8 2 3
f 11 4 6
f 13 7 4
f 14 8 3
f 14 1 8
f 14 12 1
f 14 3 12
f 17 10 6
f 17 6 3
f 17 3 2
f 17 2 10
f 18 4 11
f 19 12 7
f 19 1 12
f 19 7 13
f 20 12 3
f 20 3 7
f 20 7 12
f 23 6 10
f 23 11 6
f 24 8 1
f 25 9 15
f 25 15 23
f 25 22 9
f 26 4 18
f 26 21 13
f 26 13 4
f 27 15 9
f 27 21 5
f 28 22 13
f 28 21 27
f 29 19 13
f 29 13 22
f 29 22 1
f 29 1 19
f 30 23 10
f 30 10 2
f 30 2 23
f 31 18 11
f 31 11 23
f 31 23 15
f 32 25 16
f 32 22 25
f 32 24 1
f 32 1 22
f 33 2 8
f 33 8 24
f 33 16 25
f 33 25 23
f 33 23 2
f 33 32 16
f 33 24 32
f 34 26 18
f 34 18 5
f 34 5 21
f 34 21 26
f 35 27 18
f 35 15 27
f 35 31 15
f 35 18 31
f 36 27 5
f 36 5 18
f 36 18 27
f 37 28 13
f 37 13 21
f 37 21 28
f 38 9 22
f 38 22 28
f 38 28 27
f 39 38 27
f 39 27 9
f 39 9 38