# https://github.com/mikedh/trimesh
v -0.06285467 -0.34090910 -0.04889365
v -0.05630999 -0.32494348 -0.12819731
v -0.06285467 -0.14393940 -0.04889365
v -0.12346073 -0.08333334 -0.04889365
v -0.13861224 -0.34090910 -0.07919668
v -0.07800618 -0.14393940 -0.13980275
v -0.12474831 -0.16169435 -0.04498941
v -0.05602209 -0.14606672 -0.12677647
v -0.06136300 -0.34024345 -0.12220511
v -0.12346073 -0.14393940 -0.09434820
v -0.07800618 -0.32575759 -0.13980275
v -0.07800618 -0.08333334 -0.04889365
v -0.12957280 -0.33907029 -0.04597336
v -0.13861224 -0.15909092 -0.06404517
v -0.09315770 -0.34090910 -0.12465123
v -0.12346073 -0.09848485 -0.07919668
v -0.08526981 -0.08124350 -0.08846767
v -0.13861224 -0.20454546 -0.07919668
v -0.12346073 -0.25000001 -0.10949971
v -0.12346073 -0.08333334 -0.06404517
v -0.12346073 -0.28030304 -0.10949971
f 7 1 3
f 8 1 2
f 8 3 1
f 8 2 6
f 9 2 1
f 11 6 2
f 11 2 9
f 12 7 3
f 12 4 7
f 12 3 8
f 13 5 1
f 13 1 7
f 14 7 4
f 14 13 7
f 14 5 13
f 15 9 1
f 15 1 5
f 15 11 9
f 16 6 10
f 16 10 14
f 17 12 8
f 17 8 6
f 17 6 16
f 17 4 12
f 18 14 10
f 18 5 14
f 19 10 6
f 19 6 11
f 19 18 10
f 19 5 18
f 20 16 14
f 20 14 4
f 20 17 16
f 20 4 17
f 21 15 5
f 21 5 19
f 21 19 11
f 21 11 15