# https://github.com/mikedh/trimesh
v -0.09315770 -0.40151517 0.05716696
v -0.09315770 -0.40151517 -0.04889365
v -0.10321285 -0.08079008 0.06388602
v -0.10487180 -0.08227191 -0.05249126
v -0.15376376 -0.37121213 0.04201544
v -0.13861224 -0.40151517 0.05716696
v -0.15376376 -0.34090910 -0.03374214
v -0.15376376 -0.21969698 0.05716696
v -0.13861224 -0.38636365 -0.04889365
v -0.15376376 -0.35606062 0.05716696
v -0.13861224 -0.09848485 0.02686393
v -0.13861224 -0.12878788 -0.04889365
v -0.13861224 -0.40151517 -0.03374214
v -0.13861224 -0.11363637 0.05716696
v -0.12346073 -0.08333334 -0.04889365
v -0.15376376 -0.20454546 -0.03374214
v -0.11591300 -0.39835453 -0.04494335
v -0.15376376 -0.37121213 -0.00343910
v -0.15376376 -0.18939395 0.04201544
v -0.13861224 -0.09848485 -0.01859062
v -0.15376376 -0.18939395 -0.01859062
f 1 2 3
f 3 2 4
f 6 2 1
f 6 1 3
f 8 7 5
f 9 4 2
f 10 6 3
f 10 3 8
f 10 8 5
f 10 5 6
f 12 9 7
f 12 4 9
f 13 2 6
f 13 6 5
f 13 7 9
f 14 8 3
f 14 3 11
f 15 11 3
f 15 3 4
f 15 4 12
f 16 12 7
f 16 7 8
f 17 13 9
f 17 9 2
f 17 2 13
f 18 13 5
f 18 5 7
f 18 7 13
f 19 14 11
f 19 8 14
f 19 16 8
f 20 15 12
f 20 11 15
f 20 19 11
f 21 16 19
f 21 19 20
f 21 20 12
f 21 12 16