# https://github.com/mikedh/trimesh
v -0.03174992 0.03756705 0.10000101
v -0.03150142 0.03754407 -0.10669257
v -0.02780961 0.15863900 0.09143272
v -0.06285467 0.15909091 0.08746999
v -0.09315770 0.03787879 -0.06404517
v -0.04770315 0.15909091 -0.03374214
v -0.04770315 0.15909091 0.10262150
v -0.02835649 0.09730397 -0.09944314
v -0.08002116 0.03624116 0.05015493
v -0.09315770 0.14393940 -0.01859062
v -0.06285467 0.03787879 0.10262150
v -0.03255163 0.15909091 0.01171241
v -0.06285467 0.06818182 -0.10949971
v -0.07800618 0.03787879 -0.09434820
v -0.07552523 0.15900240 -0.03300943
v -0.09315770 0.08333333 0.05716696
v -0.07800618 0.06818182 0.08746999
v -0.04770315 0.09848485 -0.10949971
v -0.06285467 0.03787879 -0.10949971
v -0.07800618 0.06818182 -0.09434820
v -0.07800618 0.15909091 0.07231847
v -0.07800618 0.03787879 0.08746999
v -0.06285467 0.06818182 0.10262150
v -0.09315770 0.06818182 -0.06404517
v -0.07800618 0.09848485 -0.07919668
v -0.09315770 0.12878788 0.02686393
v -0.09315770 0.09848485 -0.04889365
v -0.09315770 0.14393940 -0.00343910
f 7 1 3
f 7 6 4
f 8 1 2
f 8 3 1
f 9 2 1
f 11 1 7
f 11 9 1
f 12 7 3
f 12 6 7
f 12 8 6
f 12 3 8
f 14 9 5
f 16 10 5
f 17 7 4
f 18 8 2
f 18 15 6
f 18 6 8
f 19 14 13
f 19 2 9
f 19 9 14
f 19 18 2
f 19 13 18
f 20 14 5
f 20 13 14
f 20 18 13
f 21 15 10
f 21 4 6
f 21 6 15
f 21 17 4
f 21 16 17
f 22 16 5
f 22 5 9
f 22 17 16
f 22 9 11
f 22 11 17
f 23 17 11
f 23 11 7
f 23 7 17
f 24 20 5
f 24 5 10
f 25 10 15
f 25 15 18
f 25 18 20
f 25 20 24
f 26 10 16
f 26 16 21
f 27 25 24
f 27 24 10
f 27 10 25
f 28 26 21
f 28 21 10
f 28 10 26