# https://github.com/mikedh/trimesh
v 0.10381201 -0.14393940 0.08746999
v 0.12740146 -0.14348142 -0.04760590
v 0.11896352 -0.00757576 0.02686393
v -0.05316265 -0.00455533 0.09597549
v -0.04770315 -0.14393940 -0.04889365
v 0.08866049 -0.00757576 0.08746999
v 0.13411504 -0.06818182 0.01171241
v 0.12416282 -0.14636439 0.00664679
v -0.04770315 -0.14393940 0.08746999
v -0.04770315 -0.00757576 -0.04889365
v 0.10381201 -0.11363637 0.08746999
v 0.13411504 -0.06818182 -0.04889365
v 0.10754767 -0.00749942 -0.04586332
v 0.13411504 -0.05303031 -0.03374214
v 0.13411504 -0.05303031 -0.00343910
f 6 3 4
f 8 5 2
f 8 7 1
f 8 2 7
f 9 1 4
f 9 4 5
f 9 8 1
f 9 5 8
f 10 5 4
f 11 6 4
f 11 4 1
f 11 1 7
f 11 7 3
f 11 3 6
f 12 7 2
f 12 2 5
f 12 5 10
f 13 10 4
f 13 4 3
f 13 12 10
f 14 7 12
f 14 13 3
f 14 12 13
f 15 14 3
f 15 3 7
f 15 7 14