# https://github.com/mikedh/trimesh
v 0.01290291 -0.40151517 0.14807605
v 0.01290291 -0.40151517 -0.06404517
v 0.01290291 -0.14393940 -0.06404517
v -0.04770315 -0.14393940 0.14807605
v -0.06285467 -0.40151517 -0.06404517
v 0.01039102 -0.14593656 0.13412790
v -0.06285467 -0.38636365 0.14807605
v -0.06285467 -0.14393940 -0.06404517
v -0.04770315 -0.40151517 0.14807605
v -0.06285467 -0.15909092 0.14807605
v -0.05363464 -0.39764928 0.12222772
v -0.05886820 -0.14498247 0.12640130
f 1 2 3
f 5 2 1
f 5 3 2
f 6 1 3
f 6 3 4
f 6 4 1
f 7 1 4
f 8 4 3
f 8 3 5
f 8 5 7
f 9 5 1
f 9 1 7
f 10 8 7
f 10 7 4
f 11 9 7
f 11 7 5
f 11 5 9
f 12 10 4
f 12 4 8
f 12 8 10