# https://github.com/mikedh/trimesh
v 0.09639720 0.09841907 0.00831976
v 0.09610233 0.09802708 -0.04750316
v 0.10381201 0.23484849 -0.04889365
v -0.09315770 0.23484849 0.01171241
v -0.07718500 0.09837705 -0.03357905
v 0.08976531 0.23433027 0.00888960
v 0.10381201 0.21969697 -0.06404517
v -0.04770315 0.09848485 0.01171241
v -0.04770315 0.09848485 -0.10949971
v -0.03255163 0.23484849 -0.10949971
v 0.06736939 0.09775188 -0.08370425
v -0.07576191 0.15901889 0.01149616
v -0.07800618 0.23484849 -0.07919668
v 0.05835746 0.23484849 -0.10949971
v -0.07800618 0.09848485 -0.07919668
v 0.05835746 0.09848485 -0.10949971
v -0.09315770 0.21969697 0.01171241
v -0.06285467 0.23484849 -0.09434820
v 0.08866049 0.23484849 -0.07919668
v -0.09315770 0.23484849 -0.03374214
v -0.04770315 0.12878788 -0.10949971
v -0.09315770 0.21969697 -0.03374214
f 6 1 3
f 6 3 4
f 7 1 2
f 7 3 1
f 8 6 4
f 8 1 6
f 10 4 3
f 11 8 5
f 11 2 1
f 11 1 8
f 12 5 8
f 13 4 10
f 14 10 3
f 14 9 10
f 15 11 5
f 15 9 11
f 15 13 9
f 16 7 2
f 16 2 11
f 16 11 9
f 16 9 14
f 17 12 8
f 17 8 4
f 17 5 12
f 17 15 5
f 18 13 10
f 18 9 13
f 19 14 3
f 19 3 7
f 19 16 14
f 19 7 16
f 20 4 13
f 20 13 15
f 20 17 4
f 21 18 10
f 21 10 9
f 21 9 18
f 22 20 15
f 22 15 17
f 22 17 20