# https://github.com/mikedh/trimesh
v 0.13585302 -0.39767823 0.00841582
v 0.14926655 -0.38636365 -0.06404517
v 0.14926655 -0.18939395 0.01171241
v 0.01290291 -0.14393940 0.01171241
v 0.01290291 -0.40151517 -0.06404517
v 0.08866049 -0.14393940 -0.06404517
v 0.01290291 -0.40151517 0.01171241
v 0.14926655 -0.40151517 -0.03374214
v 0.14926655 -0.18939395 -0.06404517
v 0.08866049 -0.14393940 0.01171241
v 0.01290291 -0.14393940 -0.06404517
v 0.13411504 -0.40151517 -0.06404517
f 6 2 5
f 7 1 3
f 7 3 4
f 7 4 5
f 8 2 3
f 8 3 1
f 8 7 5
f 8 1 7
f 9 6 3
f 9 3 2
f 9 2 6
f 10 6 4
f 10 4 3
f 10 3 6
f 11 6 5
f 11 5 4
f 11 4 6
f 12 8 5
f 12 5 2
f 12 2 8