# https://github.com/mikedh/trimesh
v 0.08866049 -0.46212123 0.08746999
v 0.08818619 -0.46122588 0.01233040
v 0.08866049 -0.14393940 0.01171241
v 0.01039102 -0.14593656 0.13412790
v 0.01291940 -0.46298628 0.08827386
v 0.08866049 -0.20454546 0.13292454
v 0.01290291 -0.46212123 0.01171241
v 0.08866049 -0.14393940 0.11777302
v 0.02805443 -0.40151517 0.14807605
v 0.01290291 -0.14393940 0.01171241
v 0.04320594 -0.14393940 0.14807605
v 0.07350898 -0.43181820 0.11777302
v 0.01290291 -0.40151517 0.14807605
v 0.07350898 -0.14393940 0.13292454
v 0.05835746 -0.37121213 0.14807605
v 0.08866049 -0.37121213 0.13292454
v 0.05835746 -0.18939395 0.14807605
v 0.07350898 -0.40151517 0.13292454
v 0.08866049 -0.41666668 0.11777302
f 1 2 3
f 6 1 3
f 7 2 1
f 7 1 5
f 7 3 2
f 7 5 4
f 8 6 3
f 10 7 4
f 10 3 7
f 10 8 3
f 11 10 4
f 11 8 10
f 12 9 5
f 12 5 1
f 13 4 5
f 13 5 9
f 13 11 4
f 13 9 11
f 14 6 8
f 14 8 11
f 15 11 9
f 16 1 6
f 16 6 15
f 17 14 11
f 17 6 14
f 17 15 6
f 17 11 15
f 18 15 9
f 18 9 12
f 18 16 15
f 19 18 12
f 19 12 1
f 19 1 16
f 19 16 18