# https://github.com/mikedh/trimesh
v -0.04770315 -0.14393940 0.08746999
v -0.04770315 -0.14393940 -0.07919668
v -0.04770315 -0.08333334 0.08746999
v -0.10321285 -0.08079008 0.06388602
v -0.09315770 -0.14393940 -0.04889365
v -0.04770315 -0.08333334 -0.07919668
v -0.08200545 -0.08252051 0.08975356
v -0.09315770 -0.14393940 0.05716696
v -0.08526981 -0.08124350 -0.08846767
v -0.10487180 -0.08227191 -0.05249126
v -0.07800618 -0.14393940 0.08746999
v -0.07800618 -0.14393940 -0.07919668
f 1 2 3
f 5 2 1
f 6 3 2
f 7 1 3
f 7 3 4
f 8 5 1
f 9 4 3
f 9 3 6
f 9 6 2
f 10 8 4
f 10 5 8
f 10 4 9
f 11 7 4
f 11 4 8
f 11 8 1
f 11 1 7
f 12 9 2
f 12 2 5
f 12 10 9
f 12 5 10