# https://github.com/mikedh/trimesh
v 0.11896352 -0.00757576 0.01171241
v 0.11896352 -0.00757576 -0.06404517
v 0.11896352 0.09848485 -0.03374214
v 0.01290291 0.09848485 0.01171241
v 0.01290291 -0.00757576 -0.07919668
v 0.11896352 0.06818182 0.01171241
v 0.07173498 -0.00792617 -0.09196027
v 0.01290291 -0.00757576 0.01171241
v 0.01290291 0.09848485 -0.07919668
v 0.09639720 0.09841907 0.00831976
v 0.08866049 0.11363637 -0.09434820
v 0.11896352 0.09848485 -0.00343910
v 0.10381201 0.09848485 -0.07919668
v 0.10381201 -0.00757576 -0.09434820
v 0.06671943 0.11323468 -0.08335793
v 0.09492936 0.11223702 -0.04716061
v 0.11896352 0.02272727 -0.06404517
v 0.10381201 0.00757576 -0.09434820
v 0.07350898 0.11363637 -0.04889365
f 1 2 3
f 6 1 3
f 6 4 1
f 7 2 1
f 8 1 4
f 8 4 5
f 8 7 1
f 8 5 7
f 9 5 4
f 9 7 5
f 10 4 6
f 11 7 9
f 12 10 6
f 12 6 3
f 13 11 3
f 14 2 7
f 14 7 11
f 15 11 9
f 15 9 4
f 16 10 12
f 16 12 3
f 16 3 11
f 17 13 3
f 17 3 2
f 17 2 14
f 18 14 11
f 18 11 13
f 18 17 14
f 18 13 17
f 19 16 11
f 19 11 15
f 19 15 4
f 19 4 10
f 19 10 16