# https://github.com/mikedh/trimesh
v 0.02805443 -0.50757577 0.04201544
v 0.08866049 -0.46212123 -0.07919668
v 0.08866049 -0.40151517 0.01171241
v -0.04770315 -0.40151517 0.01171241
v -0.07800618 -0.47727274 -0.06404517
v 0.02609769 -0.39520786 -0.12711548
v 0.04082919 -0.45921487 0.08495487
v 0.02805443 -0.50757577 -0.04889365
v 0.09275818 -0.40467048 -0.08486578
v -0.07291018 -0.39836530 -0.10087944
v -0.05544881 -0.45400179 0.07959408
v 0.08866049 -0.47727274 0.05716696
v -0.04770315 -0.50757577 -0.03374214
v 0.01290291 -0.47727274 -0.10949971
v 0.05482800 -0.39873163 -0.11787936
v -0.06285467 -0.47727274 0.08746999
v -0.07800618 -0.40151517 -0.04889365
v 0.04320594 -0.47727274 0.08746999
v 0.06922547 -0.45350551 0.06895181
v 0.08866049 -0.47727274 -0.04889365
v 0.07350898 -0.49242426 -0.04889365
v -0.01740012 -0.41666668 -0.13980275
v -0.04770315 -0.49242426 -0.07919668
v 0.05835746 -0.43181820 -0.12465123
v -0.04770315 -0.50757577 0.02686393
v -0.07800618 -0.43181820 -0.10949971
v -0.07800618 -0.47727274 -0.04889365
v 0.04320594 -0.49242426 0.07231847
v 0.07350898 -0.47727274 0.07231847
v 0.07350898 -0.49242426 0.04201544
v 0.04320594 -0.50757577 0.02686393
v 0.04320594 -0.49242426 -0.07919668
v -0.06285467 -0.40151517 -0.12465123
v -0.03255163 -0.50757577 -0.04889365
v 0.02805443 -0.41666668 -0.13980275
v -0.03255163 -0.50757577 0.04201544
v -0.03255163 -0.44696971 -0.12465123
v 0.04320594 -0.50757577 -0.03374214
v 0.07350898 -0.47727274 -0.07919668
v -0.01427760 -0.39614150 -0.12707850
v 0.02805443 -0.44696971 -0.12465123
v -0.03255163 -0.49242426 0.07231847
v -0.01740012 -0.47727274 -0.10949971
v -0.06285467 -0.41666668 -0.12465123
v 0.07350898 -0.46212123 -0.09434820
v -0.04770315 -0.46212123 -0.10949971
v 0.04320594 -0.46212123 -0.10949971
f 6 4 3
f 11 7 3
f 11 3 4
f 12 9 3
f 13 8 1
f 15 6 3
f 15 3 9
f 16 7 11
f 17 11 4
f 17 4 10
f 17 16 11
f 18 7 16
f 19 12 3
f 19 3 7
f 20 2 9
f 20 9 12
f 21 20 12
f 21 2 20
f 23 13 5
f 23 14 8
f 24 15 9
f 24 9 2
f 25 13 1
f 25 5 13
f 26 17 10
f 26 5 17
f 26 23 5
f 27 17 5
f 27 16 17
f 27 25 16
f 27 5 25
f 28 18 16
f 29 12 19
f 29 18 28
f 29 19 7
f 29 7 18
f 30 21 12
f 30 28 1
f 30 29 28
f 30 12 29
f 31 1 8
f 31 30 1
f 31 21 30
f 32 21 8
f 32 8 14
f 33 26 10
f 34 23 8
f 34 8 13
f 34 13 23
f 35 22 6
f 35 6 15
f 35 15 24
f 36 25 1
f 36 16 25
f 36 1 28
f 37 22 35
f 38 31 8
f 38 8 21
f 38 21 31
f 39 2 21
f 39 21 32
f 39 32 14
f 40 33 10
f 40 6 22
f 40 22 33
f 40 10 4
f 40 4 6
f 41 35 24
f 41 24 14
f 41 37 35
f 41 14 37
f 42 36 28
f 42 28 16
f 42 16 36
f 43 37 14
f 43 14 23
f 44 33 22
f 44 22 37
f 44 37 26
f 44 26 33
f 45 24 2
f 45 2 39
f 45 39 14
f 46 43 23
f 46 23 26
f 46 26 37
f 46 37 43
f 47 45 14
f 47 14 24
f 47 24 45