# https://github.com/mikedh/trimesh
v 0.01290291 -0.00757576 0.07231847
v 0.01290291 -0.00757576 -0.04889365
v 0.01290291 0.09848485 -0.07919668
v -0.03255163 0.09848485 0.07231847
v -0.03255163 -0.00757576 -0.04889365
v 0.01290291 0.09848485 0.07231847
v -0.03255163 -0.00757576 0.07231847
v -0.03255163 0.03787879 -0.07919668
v -0.04122814 0.10004275 -0.09058170
v 0.01290291 0.03787879 -0.07919668
f 1 2 3
f 5 2 1
f 6 1 3
f 6 4 1
f 7 5 1
f 7 1 4
f 8 2 5
f 9 6 3
f 9 4 6
f 9 8 5
f 9 7 4
f 9 5 7
f 10 3 2
f 10 2 8
f 10 9 3
f 10 8 9