# https://github.com/mikedh/trimesh
v 0.03713374 -0.01180927 0.00392301
v 0.03698834 -0.00919106 0.00392301
v 0.03674845 -0.00766074 0.00526155
v 0.03681387 -0.00919106 0.00533490
v 0.03687930 -0.01180927 0.00540824
v 0.03683569 -0.01442748 0.00535323
v 0.03703197 -0.01442748 0.00392301
v 0.03688657 -0.01442748 -0.12243167
v 0.03695927 -0.01180927 -0.12463201
v 0.03686476 -0.00919106 -0.12256002
v 0.03677753 -0.00740690 -0.12366019
v 0.03680661 -0.00713130 0.00214440
v 0.03679934 -0.00715306 0.00392301
v 0.03666121 -0.00584032 0.00392301
v 0.03620322 -0.00394012 0.00392301
v 0.03412410 0.00264530 0.00524322
v 0.01755651 -0.00656559 0.05491595
v 0.01781822 -0.00768250 0.05491595
v 0.01815989 -0.00915479 0.05491595
v 0.01822532 -0.01063434 0.05491595
v 0.01826894 -0.01180927 0.05491595
v 0.01822532 -0.01461605 0.05491595
v 0.03676299 -0.01610285 0.00527989
v 0.03680661 -0.01700943 0.00370298
v 0.03673391 -0.01837294 0.00265781
v 0.03673391 -0.01837294 0.00260280
v 0.03679206 -0.01635669 -0.12375188
v 0.03687203 -0.01430419 -0.12463201
v 0.03675572 -0.01335409 -0.12600723
v 0.03675572 -0.01180927 -0.12600723
v 0.03674118 -0.01041676 -0.12597055
v 0.03684295 -0.00940138 -0.12457700
v 0.03665394 -0.00866886 -0.12540214
v 0.03655943 -0.00654383 -0.12457700
v 0.03607237 -0.00394012 -0.12463201
v 0.03543264 -0.00131466 0.00392301
v 0.03531632 -0.00131466 -0.12463201
v 0.03414591 0.00268882 -0.12355018
v 0.03464024 0.00131081 0.00392301
v 0.03416771 0.00273959 0.00392301
v 0.03149975 0.00788898 0.00282284
v 0.03142705 0.00776569 0.00458311
v 0.01636429 -0.00372979 0.05491595
v 0.01684408 -0.00486846 0.05491595
v 0.01799996 -0.01565318 0.05491595
v 0.03666848 -0.01785074 0.00441809
v 0.01769464 -0.01705295 0.05491595
v 0.03638496 -0.01942457 0.00370298
v 0.03557076 -0.02230388 0.00392301
v 0.03480745 -0.02492210 0.00392301
v 0.03545444 -0.02230388 -0.12463201
v 0.03616687 -0.01967842 -0.12463201
v 0.03658852 -0.01716174 -0.12463201
v 0.03666848 -0.01510198 -0.12551215
v 0.03584701 -0.01705295 -0.12725409
v 0.03621777 -0.01430419 -0.12703406
v 0.03618868 -0.01180927 -0.12732743
v 0.03618868 -0.00940138 -0.12701572
v 0.03580339 -0.00656559 -0.12725409
v 0.03533813 -0.00394012 -0.12725409
v 0.03432038 0.00060730 -0.12648397
v 0.03400778 0.00235520 -0.12531045
v 0.03445124 0.00141235 -0.12450366
v 0.03345528 0.00371145 -0.12450366
v 0.03205224 0.00630065 -0.12463201
v 0.03133981 0.00761338 -0.12463201
v 0.03149975 0.00788898 0.00254780
v 0.03417498 0.00275409 0.00219941
v 0.02916618 0.01086983 0.00392301
v 0.03064192 0.00893337 0.00379466
v 0.02902079 0.01068851 0.00537157
v 0.01498305 -0.00147421 0.05491595
v 0.03418226 -0.02639439 0.00531656
v 0.01726573 -0.01817711 0.05491595
v 0.03426949 -0.02657571 0.00392301
v 0.03420406 -0.02644516 -0.12406359
v 0.03454574 -0.02515418 -0.12481537
v 0.03408775 -0.02618406 -0.12582387
v 0.03436399 -0.02443617 -0.12659399
v 0.03542537 -0.01967842 -0.12725409
v 0.03448758 -0.01967842 -0.12903270
v 0.03469840 -0.01705295 -0.12925273
v 0.03482199 -0.01442748 -0.12938109
v 0.03488014 -0.01180927 -0.12943609
v 0.03480018 -0.00919106 -0.12936275
v 0.03467659 -0.00656559 -0.12923439
v 0.03445124 -0.00394012 -0.12897769
v 0.03422587 -0.00222124 -0.12872098
v 0.03458936 -0.00132916 -0.12730910
v 0.03394963 -0.00046609 -0.12822591
v 0.03364430 0.00141235 -0.12730910
v 0.03235030 0.00411034 -0.12743745
v 0.03179053 0.00582197 -0.12666733
v 0.02948604 0.00915095 -0.12707073
v 0.02891901 0.01055797 -0.12606224
v 0.03023482 0.00917996 -0.12463201
v 0.02906440 0.01074653 -0.12463201
v 0.02806846 0.01218256 0.00392301
v 0.02797395 0.01205927 -0.12463201
v 0.02675992 0.01368387 0.00392301
v 0.02652729 0.01343728 0.00548159
v 0.01352184 0.00043324 0.05491595
v 0.01416884 -0.00040807 0.05491595
v 0.03151429 -0.03153653 0.00527989
v 0.01669142 -0.01967842 0.05491595
v 0.01636429 -0.02035292 0.05491595
v 0.01591357 -0.02127400 0.05491595
v 0.03157971 -0.03163807 0.00392301
v 0.03157971 -0.03163807 0.00208939
v 0.03154336 -0.03158005 -0.12369687
v 0.03360068 -0.02740976 -0.12481537
v 0.03207405 -0.03034709 -0.12459534
v 0.03140524 -0.03134071 -0.12543881
v 0.03179053 -0.02943326 -0.12725409
v 0.03149975 -0.02888931 -0.12859263
v 0.03376788 -0.02515418 -0.12738244
v 0.03400051 -0.02329750 -0.12835426
v 0.03466932 -0.02237641 -0.12738244
v 0.03426949 -0.02154961 -0.12875765
v 0.03316450 -0.01967842 -0.13033457
v 0.03335351 -0.01705295 -0.13057294
v 0.03345528 -0.01442748 -0.13070129
v 0.03349891 -0.01180927 -0.13073797
v 0.03344075 -0.00919106 -0.13066462
v 0.03333170 -0.00656559 -0.13053627
v 0.03312088 -0.00394012 -0.13029790
v 0.03277194 -0.00137268 -0.12987617
v 0.03229214 0.00131081 -0.12939943
v 0.03140524 0.00510396 -0.12842761
v 0.03184869 0.00335606 -0.12894102
v 0.03098360 0.00664152 -0.12743745
v 0.02914437 0.00825162 -0.12886767
v 0.02844648 0.01000676 -0.12780417
v 0.02745054 0.01168938 -0.12708906
v 0.02644732 0.01334299 -0.12639229
v 0.02666541 0.01358233 -0.12463201
v 0.02540776 0.01499660 0.00392301
v 0.02387386 0.01595395 0.00542658
v 0.01212607 0.00174597 0.05491595
v 0.02912256 -0.03443760 0.00546325
v 0.02934065 -0.03469870 0.00392301
v 0.03064919 -0.03295081 0.00392301
v 0.01541196 -0.02202103 0.05491595
v 0.01502667 -0.02258674 0.05491595
v 0.01371813 -0.02428386 0.05491595
v 0.02925342 -0.03458991 -0.12463201
v 0.03070008 -0.03259542 -0.12459534
v 0.02904260 -0.03432881 -0.12631894
v 0.02967506 -0.03285652 -0.12721742
v 0.03104903 -0.03073874 -0.12725409
v 0.02923888 -0.03202246 -0.12895935
v 0.03013305 -0.02992644 -0.12928941
v 0.03011851 -0.02769987 -0.13038957
v 0.03182688 -0.02754756 -0.12892269
v 0.03238664 -0.02492210 -0.12949110
v 0.03281555 -0.02239817 -0.12993117
v 0.03163787 -0.02149158 -0.13130638
v 0.03185596 -0.01967842 -0.13143473
v 0.03204497 -0.01705295 -0.13152642
v 0.03214675 -0.01442748 -0.13156309
v 0.03219036 -0.01180927 -0.13156309
v 0.03212494 -0.00919106 -0.13156309
v 0.03202316 -0.00656559 -0.13152642
v 0.03180507 -0.00394012 -0.13139807
v 0.03159425 -0.00227926 -0.13126972
v 0.03123804 -0.00053137 -0.13104968
v 0.03086001 0.00131081 -0.13070129
v 0.02966779 0.00655449 -0.12934442
v 0.03027844 0.00413935 -0.13000452
v 0.02810481 0.00655449 -0.13064628
v 0.02634555 0.00800503 -0.13126972
v 0.02739965 0.00900590 -0.12980282
v 0.02669449 0.01107291 -0.12897769
v 0.02596025 0.01282080 -0.12813423
v 0.02486253 0.01436562 -0.12716241
v 0.02375754 0.01585967 -0.12619059
v 0.02529871 0.01488781 -0.12463201
v 0.02409922 0.01613527 0.00392301
v 0.02108957 0.01843437 0.00531656
v 0.02398290 0.01604824 -0.12463201
v 0.01081753 0.00286288 0.05491595
v 0.02664360 -0.03720087 0.00555493
v 0.02694166 -0.03752724 0.00392301
v 0.02825747 -0.03601143 0.00392301
v 0.01297662 -0.02503089 0.05491595
v 0.02817023 -0.03590264 -0.12463201
v 0.02657091 -0.03710658 -0.12664899
v 0.02612019 -0.03660615 -0.12839093
v 0.02857734 -0.03377036 -0.12806088
v 0.02682535 -0.03485826 -0.12906937
v 0.02752323 -0.03276949 -0.12989450
v 0.02646913 -0.03176862 -0.13132472
v 0.02827928 -0.03017303 -0.13077464
v 0.02872273 -0.02867898 -0.13112302
v 0.03094725 -0.02492210 -0.13079298
v 0.03129619 -0.02323948 -0.13108635
v 0.02920253 -0.02693109 -0.13139807
v 0.02963144 -0.02492210 -0.13156309
v 0.03016939 -0.01967842 -0.13200317
v 0.03016939 -0.01705295 -0.13214985
v 0.03016939 -0.01442748 -0.13222320
v 0.03016939 -0.01180927 -0.13224153
v 0.03016939 -0.00919106 -0.13222320
v 0.03016939 -0.00656559 -0.13213152
v 0.03016939 -0.00394012 -0.13194815
v 0.03028571 -0.00136542 -0.13161810
v 0.02954420 0.00131081 -0.13152642
v 0.02914437 0.00316750 -0.13137974
v 0.02861369 0.00492264 -0.13104968
v 0.02562585 0.00975292 -0.13073797
v 0.02678900 0.00655449 -0.13143473
v 0.02492796 0.00655449 -0.13198483
v 0.02481891 0.00899864 -0.13150809
v 0.02387386 0.01077555 -0.13134306
v 0.02421553 0.01364035 -0.12903270
v 0.02492069 0.01179817 -0.12987617
v 0.02319778 0.01539550 -0.12795087
v 0.02231815 0.01654142 -0.12714407
v 0.02092964 0.01832558 -0.12573218
v 0.02252170 0.01744800 0.00392301
v 0.02112592 0.01846338 -0.12397191
v 0.02120589 0.01852865 0.00392301
v 0.01967926 0.01941348 0.00392301
v 0.01762194 0.02055940 0.00392301
v 0.01630613 0.02128467 0.00392301
v 0.01604442 0.02113961 0.00538990
v 0.00918185 0.00387100 0.05491595
v 0.01012691 0.00329079 0.05491595
v 0.02212187 0.01753503 -0.12476037
v 0.02404833 -0.03970304 0.00551826
v 0.02567674 -0.03883997 0.00392301
v 0.01241685 -0.02558934 0.05491595
v 0.02686169 -0.03742570 -0.12463201
v 0.02557496 -0.03873844 -0.12463201
v 0.02394655 -0.03963051 -0.12650230
v 0.02503701 -0.03814372 -0.12745579
v 0.02339406 -0.03917360 -0.12826258
v 0.02437547 -0.03742570 -0.12914272
v 0.02505154 -0.03556177 -0.12998618
v 0.02572763 -0.03351651 -0.13082964
v 0.02397563 -0.03451738 -0.13137974
v 0.02487707 -0.03270421 -0.13158144
v 0.02696347 -0.03017303 -0.13150809
v 0.02772679 -0.02769987 -0.13170979
v 0.02755231 -0.02492210 -0.13218653
v 0.02755231 -0.02230388 -0.13235155
v 0.02755231 -0.01967842 -0.13236988
v 0.02755231 -0.00394012 -0.13236988
v 0.02755231 -0.00131466 -0.13233322
v 0.02755231 0.00131081 -0.13214985
v 0.02766136 0.00400155 -0.13167311
v 0.02230361 0.00917996 -0.13209484
v 0.02492796 0.00392903 -0.13231489
v 0.02216548 0.01171114 -0.13152642
v 0.02119862 0.01329222 -0.13130638
v 0.02295061 0.01252344 -0.13077464
v 0.02145306 0.01611351 -0.12890435
v 0.02220183 0.01434386 -0.12983949
v 0.02041349 0.01796294 -0.12725409
v 0.01990462 0.01908711 -0.12476037
v 0.01910495 0.01879700 -0.12725409
v 0.01586995 0.02105983 -0.12611725
v 0.01744747 0.02050138 -0.12463201
v 0.01443055 0.02211147 0.00392301
v 0.01613893 0.02119763 -0.12463201
v 0.01443055 0.02198092 -0.12463201
v 0.01032319 0.02355475 0.00450977
v 0.00577237 0.00543033 0.05491595
v 0.00633214 0.00522000 0.05491595
v 0.00708091 0.00493715 0.05491595
v 0.02124224 -0.04217620 0.00540824
v 0.02436819 -0.03996414 0.00392301
v 0.02425915 -0.03989161 -0.12463201
v 0.01184982 -0.02607527 0.05491595
v 0.02112592 -0.04208917 -0.12619059
v 0.02050800 -0.04162500 -0.12793253
v 0.02164934 -0.03987710 -0.12903270
v 0.02238357 -0.03810745 -0.12996784
v 0.02311781 -0.03626527 -0.13090299
v 0.02137309 -0.03704856 -0.13136139
v 0.02226726 -0.03540220 -0.13161810
v 0.02230361 -0.03279850 -0.13218653
v 0.02492796 -0.03017303 -0.13207651
v 0.02492796 -0.02754756 -0.13233322
v 0.02230361 -0.03017303 -0.13238821
v 0.02492796 -0.02492210 -0.13238821
v 0.02492796 0.00131081 -0.13238821
v 0.01967926 0.01180543 -0.13203983
v 0.02230361 0.00655449 -0.13236988
v 0.01967926 0.00917996 -0.13236988
v 0.01705490 0.01180543 -0.13233322
v 0.01941755 0.01427133 -0.13143473
v 0.01837072 0.01574363 -0.13119637
v 0.02012271 0.01504012 -0.13066462
v 0.01853065 0.01846338 -0.12868431
v 0.01932304 0.01680252 -0.12967446
v 0.01430697 0.02137170 -0.12708906
v 0.01180620 0.02296003 -0.12463201
v 0.01510663 0.02063918 -0.12785918
v 0.01051947 0.02362002 0.00256613
v 0.01051947 0.02362002 0.00276783
v 0.01155903 0.02319212 0.00375798
v 0.00857120 0.02379409 0.00542658
v 0.00934178 0.02388837 0.00375798
v 0.00500179 0.00564066 0.05491595
v 0.01632794 -0.04488870 0.00549992
v 0.01804358 -0.04442453 0.00392301
v 0.01967926 -0.04348168 0.00392301
v 0.02146760 -0.04234301 0.00392301
v 0.02277614 -0.04127687 0.00392301
v 0.01110104 -0.02671351 0.05491595
v 0.00894922 -0.02811327 0.05491595
v 0.02265255 -0.04120434 -0.12463201
v 0.02133674 -0.04224873 -0.12463201
v 0.01967926 -0.04330037 -0.12463201
v 0.01787638 -0.04434475 -0.12463201
v 0.01615347 -0.04482343 -0.12646563
v 0.01965018 -0.04256059 -0.12714407
v 0.01875601 -0.04221246 -0.12881266
v 0.01954113 -0.04056611 -0.12980282
v 0.02031899 -0.03879646 -0.13077464
v 0.01857427 -0.03950722 -0.13128805
v 0.01954113 -0.03796965 -0.13154475
v 0.01967926 -0.03542396 -0.13214985
v 0.01705490 -0.03542396 -0.13236988
v 0.01967926 -0.03279850 -0.13238821
v 0.01443055 0.01180543 -0.13240656
v 0.01705490 0.01443089 -0.13185646
v 0.01443055 0.01443089 -0.13224153
v 0.01180620 0.01443089 -0.13236988
v 0.01705490 0.01604824 -0.13136139
v 0.01323833 0.01842711 -0.13123303
v 0.01705490 0.01883326 -0.12905103
v 0.01335464 0.02109610 -0.12870265
v 0.01180620 0.02221301 -0.12725409
v 0.00825133 0.02372882 -0.12624560
v 0.01007602 0.02348948 -0.12463201
v 0.00876748 0.02388112 -0.12463201
v 0.00655750 0.02446859 0.00392301
v 0.00393315 0.02477320 0.00392301
v 0.00655750 0.02396815 0.00560994
v 0.00130879 0.00635142 0.05491595
v 0.00393315 0.00592351 0.05491595
v 0.01081753 -0.04731835 0.00533490
v 0.01443055 -0.04620143 0.00392301
v 0.01673504 -0.04511353 0.00392301
v 0.00663019 -0.02921568 0.05491595
v 0.01656784 -0.04504101 -0.12463201
v 0.01443055 -0.04605638 -0.12463201
v 0.01449598 -0.04524408 -0.12730910
v 0.01541196 -0.04442453 -0.12822591
v 0.01704037 -0.04396036 -0.12730910
v 0.01365997 -0.04484518 -0.12884934
v 0.01705490 -0.04267664 -0.12925273
v 0.01705490 -0.04118259 -0.13055461
v 0.01351457 -0.04219071 -0.13132472
v 0.01705490 -0.03986985 -0.13145308
v 0.01705490 -0.03804218 -0.13200317
v 0.01443055 -0.03804218 -0.13229654
v 0.01180620 -0.03804218 -0.13236988
v -0.01967875 -0.03279850 -0.13238821
v 0.00393315 -0.04066765 -0.13236988
v -0.02230310 -0.03017303 -0.13238821
v -0.02492746 -0.02492210 -0.13238821
v -0.02492746 0.00131081 -0.13238821
v -0.01443005 0.01180543 -0.13238821
v -0.00393264 0.01704911 -0.13236988
v 0.00393315 0.01704911 -0.13236988
v 0.01180620 0.01704911 -0.13191149
v 0.01424154 0.01703460 -0.13154475
v 0.00655750 0.01704911 -0.13231489
v 0.00918185 0.01704911 -0.13216818
v 0.00918185 0.02030556 -0.13064628
v 0.01180620 0.01995743 -0.13027956
v 0.01416884 0.01953677 -0.12976615
v 0.01180620 0.01864469 -0.13137974
v 0.01180620 0.02132093 -0.12895935
v 0.00655750 0.02333717 -0.12796920
v 0.00914550 0.02303981 -0.12718074
v 0.00655750 0.02388837 -0.12666733
v 0.00655750 0.02433079 -0.12463201
v 0.00393315 0.02464265 -0.12463201
v 0.00130879 0.02500529 0.00392301
v 0.00130879 0.02490375 -0.12463201
v -0.00130829 0.00635142 0.05491595
v -0.00130829 0.02501254 0.00392301
v 0.00918185 -0.04752867 0.00555493
v 0.00655750 -0.04851504 0.00392301
v 0.00918185 -0.04797109 0.00392301
v 0.01113739 -0.04741988 0.00392301
v 0.01244593 -0.04700648 0.00392301
v 0.00499452 -0.02968710 0.05491595
v 0.00393315 -0.02999171 0.05491595
v 0.01214061 -0.04692670 -0.12463201
v 0.01049766 -0.04723131 -0.12595222
v 0.01154449 -0.04645528 -0.12699738
v 0.01180620 -0.04514979 -0.12917939
v 0.01180620 -0.04376454 -0.13049960
v 0.01446690 -0.04330762 -0.12991283
v 0.00918185 -0.04686868 -0.12778584
v 0.00740805 -0.04713703 -0.12839093
v 0.00739351 -0.04443904 -0.13110469
v 0.01180620 -0.04245180 -0.13147142
v 0.01180620 -0.04066765 -0.13205816
v 0.01440874 -0.04072567 -0.13163643
v 0.00918185 -0.04066765 -0.13225986
v 0.00655750 -0.04066765 -0.13235155
v -0.00393264 -0.04066765 -0.13236988
v -0.01180570 -0.03804218 -0.13236988
v -0.01705440 -0.03542396 -0.13236988
v -0.02230310 -0.03279850 -0.13218653
v 0.00130879 -0.04329311 -0.13196648
v -0.02492746 -0.02754756 -0.13233322
v -0.02755181 -0.02230388 -0.13235155
v -0.02755181 -0.01967842 -0.13236988
v -0.02755181 -0.00394012 -0.13236988
v -0.02755181 -0.00131466 -0.13233322
v -0.02230310 0.00655449 -0.13236988
v -0.01967875 0.00917996 -0.13236988
v -0.01180570 0.01443089 -0.13236988
v -0.00655699 0.01704911 -0.13231489
v -0.00130829 0.01967457 -0.13176479
v 0.00130879 0.01967457 -0.13176479
v 0.00918185 0.01899282 -0.13154475
v 0.00655750 0.01931919 -0.13161810
v 0.00655750 0.02063193 -0.13095800
v 0.00918185 0.02169807 -0.12934442
v 0.00451472 0.02086401 -0.13112302
v 0.00439113 0.02351124 -0.12835426
v 0.00130879 0.02423650 -0.12725409
v 0.00368598 0.02396090 -0.12738244
v -0.00130829 0.02490375 -0.12463201
v -0.00242782 0.00617010 0.05491595
v -0.00655699 0.02396815 0.00560994
v -0.00857069 0.02379409 0.00542658
v -0.00393264 0.02477320 0.00392301
v 0.00242832 -0.03023830 0.05491595
v 0.00130879 -0.03041237 0.05491595
v 0.00393315 -0.04881239 0.00392301
v 0.00393315 -0.04873262 -0.12463201
v 0.00655750 -0.04840624 -0.12463201
v 0.00918185 -0.04782603 -0.12463201
v 0.01093384 -0.04736186 -0.12259670
v 0.01082480 -0.04733285 -0.12463201
v 0.00918185 -0.04743439 -0.12646563
v 0.00918185 -0.04555594 -0.12954611
v 0.00654296 -0.04766647 -0.12740078
v 0.00566333 -0.04729659 -0.12864764
v 0.00652842 -0.04591133 -0.12987617
v 0.00564152 -0.04468563 -0.13125138
v 0.00653569 -0.04345267 -0.13161810
v 0.00393315 -0.04329311 -0.13185646
v -0.00130829 -0.04329311 -0.13196648
v -0.00655699 -0.04066765 -0.13235155
v -0.01443005 -0.03804218 -0.13229654
v -0.01967875 -0.03542396 -0.13214985
v -0.02226675 -0.03540220 -0.13161810
v -0.02487657 -0.03270421 -0.13158144
v -0.02492746 -0.03017303 -0.13207651
v 0.00130879 -0.04491046 -0.13141640
v -0.02755181 -0.02492210 -0.13218653
v -0.03017616 -0.01967842 -0.13200317
v -0.03017616 -0.01705295 -0.13214985
v -0.03017616 -0.01442748 -0.13222320
v -0.03017616 -0.01180927 -0.13224153
v -0.03017616 -0.00919106 -0.13222320
v -0.03017616 -0.00656559 -0.13213152
v -0.02755181 0.00131081 -0.13214985
v -0.02492746 0.00392903 -0.13231489
v -0.02230310 0.00917996 -0.13209484
v -0.01705440 0.01180543 -0.13233322
v -0.01443005 0.01443089 -0.13224153
v -0.00918135 0.01704911 -0.13216818
v -0.00655699 0.01931919 -0.13161810
v -0.00375817 0.01986314 -0.13158144
v -0.00130829 0.02107434 -0.13125138
v 0.00130879 0.02107434 -0.13125138
v 0.00375867 0.01986314 -0.13158144
v 0.00277000 0.02100181 -0.13119637
v 0.00655750 0.02202444 -0.12965613
v 0.00358420 0.02225652 -0.12983949
v 0.00264641 0.02361277 -0.12857429
v -0.00130829 0.02423650 -0.12725409
v 0.00130879 0.02367805 -0.12864764
v -0.00655699 0.02388837 -0.12666733
v -0.00393264 0.02464265 -0.12463201
v -0.00393264 0.00592351 0.05491595
v -0.00655699 0.02446859 0.00392301
v -0.00934128 0.02388837 0.00375798
v -0.01032268 0.02355475 0.00450977
v -0.00577187 0.00543033 0.05491595
v -0.00470323 0.00572044 0.05491595
v -0.00130829 -0.03041237 0.05491595
v 0.00130879 -0.04908074 0.00392301
v 0.00130879 -0.04899371 -0.12463201
v 0.00393315 -0.04805086 -0.12725409
v 0.00130879 -0.04828295 -0.12725409
v 0.00393315 -0.04738362 -0.12877599
v 0.00393315 -0.04609990 -0.13007787
v 0.00393315 -0.04478716 -0.13134306
v -0.00130829 -0.04491046 -0.13141640
v -0.00393264 -0.04329311 -0.13185646
v -0.00918135 -0.04066765 -0.13225986
v -0.01180570 -0.04066765 -0.13205816
v -0.01705440 -0.03804218 -0.13200317
v -0.01954063 -0.03796965 -0.13154475
v -0.02137259 -0.03704856 -0.13136139
v -0.02397513 -0.03451738 -0.13137974
v -0.02646863 -0.03176862 -0.13132472
v -0.02696297 -0.03017303 -0.13150809
v -0.02772628 -0.02769987 -0.13170979
v 0.00130879 -0.04622319 -0.13020621
v -0.02920202 -0.02693109 -0.13139807
v -0.02963820 -0.02492210 -0.13156309
v -0.03163736 -0.02149158 -0.13130638
v -0.03185545 -0.01967842 -0.13143473
v -0.03204447 -0.01705295 -0.13152642
v -0.03214624 -0.01442748 -0.13156309
v -0.03218986 -0.01180927 -0.13156309
v -0.03212443 -0.00919106 -0.13156309
v -0.03202266 -0.00656559 -0.13152642
v -0.03017616 -0.00394012 -0.13194815
v -0.03028521 -0.00136542 -0.13161810
v -0.02954370 0.00131081 -0.13152642
v -0.02914387 0.00316750 -0.13137974
v -0.02766085 0.00400155 -0.13167311
v -0.02492746 0.00655449 -0.13198483
v -0.02481841 0.00899864 -0.13150809
v -0.02387335 0.01077555 -0.13134306
v -0.02216498 0.01171114 -0.13152642
v -0.01967875 0.01180543 -0.13203983
v -0.01705440 0.01443089 -0.13185646
v -0.01180570 0.01704911 -0.13191149
v -0.00918135 0.01899282 -0.13154475
v -0.00451421 0.02086401 -0.13112302
v -0.00276949 0.02100181 -0.13119637
v -0.00130829 0.02238707 -0.12996784
v 0.00130879 0.02238707 -0.12996784
v -0.00130829 0.02367805 -0.12864764
v -0.00264591 0.02361277 -0.12857429
v -0.00368547 0.02396090 -0.12738244
v -0.00825083 0.02372882 -0.12624560
v -0.00655699 0.02433079 -0.12463201
v -0.00439063 0.02351124 -0.12835426
v -0.00655699 0.02333717 -0.12796920
v -0.00876697 0.02388112 -0.12463201
v -0.01051896 0.02362002 0.00256613
v -0.01051896 0.02362002 0.00276783
v -0.01604392 0.02113961 0.00538990
v -0.01155853 0.02319212 0.00375798
v -0.01443005 0.02211147 0.00392301
v -0.00652064 0.00515473 0.05491595
v -0.00281311 -0.03017303 0.05491595
v -0.00918135 -0.04752867 0.00555493
v -0.00655699 -0.04851504 0.00392301
v -0.00393264 -0.04881239 0.00392301
v -0.00130829 -0.04907349 0.00392301
v -0.00130829 -0.04899371 -0.12463201
v -0.00130829 -0.04828295 -0.12725409
v 0.00130879 -0.04749241 -0.12890435
v -0.00130829 -0.04622319 -0.13020621
v -0.00393264 -0.04478716 -0.13134306
v -0.00653518 -0.04345267 -0.13161810
v -0.01180570 -0.04245180 -0.13147142
v -0.01351407 -0.04219071 -0.13132472
v -0.01440824 -0.04072567 -0.13163643
v -0.01705440 -0.03986985 -0.13145308
v -0.01857376 -0.03950722 -0.13128805
v -0.02311731 -0.03626527 -0.13090299
v -0.02572712 -0.03351651 -0.13082964
v -0.02752273 -0.03276949 -0.12989450
v -0.02923837 -0.03202246 -0.12895935
v -0.02827878 -0.03017303 -0.13077464
v -0.02872222 -0.02867898 -0.13112302
v -0.03094675 -0.02492210 -0.13079298
v -0.03130296 -0.02323948 -0.13108635
v -0.03282232 -0.02239817 -0.12993117
v -0.03316399 -0.01967842 -0.13033457
v -0.03335301 -0.01705295 -0.13057294
v -0.03345478 -0.01442748 -0.13070129
v -0.03349840 -0.01180927 -0.13073797
v -0.03180457 -0.00394012 -0.13139807
v -0.03344025 -0.00919106 -0.13066462
v -0.03333120 -0.00656559 -0.13053627
v -0.03159375 -0.00227926 -0.13126972
v -0.02678849 0.00655449 -0.13143473
v -0.03123753 -0.00053137 -0.13104968
v -0.03085951 0.00131081 -0.13070129
v -0.03027794 0.00413935 -0.13000452
v -0.02861318 0.00492264 -0.13104968
v -0.02634504 0.00800503 -0.13126972
v -0.02562535 0.00975292 -0.13073797
v -0.02492019 0.01179817 -0.12987617
v -0.02295010 0.01252344 -0.13077464
v -0.02120538 0.01329222 -0.13130638
v -0.01941704 0.01427133 -0.13143473
v -0.01837021 0.01574363 -0.13119637
v -0.01705440 0.01604824 -0.13136139
v -0.01424104 0.01703460 -0.13154475
v -0.01180570 0.01864469 -0.13137974
v -0.00655699 0.02063193 -0.13095800
v -0.00655699 0.02202444 -0.12965613
v -0.00358370 0.02225652 -0.12983949
v -0.00914500 0.02303981 -0.12718074
v -0.01180570 0.02221301 -0.12725409
v -0.01180570 0.02296003 -0.12463201
v -0.01007551 0.02348948 -0.12463201
v -0.00918135 0.02169807 -0.12934442
v -0.01180570 0.02132093 -0.12895935
v -0.01335414 0.02109610 -0.12870265
v -0.01443005 0.02198092 -0.12463201
v -0.01630562 0.02128467 0.00392301
v -0.02108907 0.01843437 0.00531656
v -0.00918135 0.00387100 0.05491595
v -0.00799639 0.00447298 0.05491595
v -0.00708041 0.00493715 0.05491595
v -0.00393264 -0.02999171 0.05491595
v -0.01081702 -0.04731835 0.00533490
v -0.00918135 -0.04797109 0.00392301
v -0.00655699 -0.04840624 -0.12463201
v -0.00393264 -0.04873262 -0.12463201
v -0.00393264 -0.04805086 -0.12725409
v -0.00566282 -0.04729659 -0.12864764
v -0.00393264 -0.04738362 -0.12877599
v -0.00130829 -0.04749241 -0.12890435
v -0.00393264 -0.04609990 -0.13007787
v -0.00564101 -0.04468563 -0.13125138
v -0.00739301 -0.04443904 -0.13110469
v -0.01180570 -0.04376454 -0.13049960
v -0.01365946 -0.04484518 -0.12884934
v -0.01446640 -0.04330762 -0.12991283
v -0.01705440 -0.04118259 -0.13055461
v -0.01705440 -0.04267664 -0.12925273
v -0.01875550 -0.04221246 -0.12881266
v -0.01954063 -0.04056611 -0.12980282
v -0.02031848 -0.03879646 -0.13077464
v -0.02238307 -0.03810745 -0.12996784
v -0.02437496 -0.03742570 -0.12914272
v -0.02505104 -0.03556177 -0.12998618
v -0.02682484 -0.03485826 -0.12906937
v -0.03013254 -0.02992644 -0.12928941
v -0.02611968 -0.03660615 -0.12839093
v -0.02857683 -0.03377036 -0.12806088
v -0.02967455 -0.03285652 -0.12721742
v -0.03104852 -0.03073874 -0.12725409
v -0.03149924 -0.02888931 -0.12859263
v -0.03011800 -0.02769987 -0.13038957
v -0.03182637 -0.02754756 -0.12892269
v -0.03238614 -0.02492210 -0.12949110
v -0.03426898 -0.02154961 -0.12875765
v -0.03449435 -0.01967842 -0.12903270
v -0.03469789 -0.01705295 -0.12925273
v -0.03482875 -0.01442748 -0.12938109
v -0.03487964 -0.01180927 -0.12943609
v -0.03312038 -0.00394012 -0.13029790
v -0.03479967 -0.00919106 -0.12936275
v -0.03467608 -0.00656559 -0.12923439
v -0.03277143 -0.00137268 -0.12987617
v -0.03229163 0.00131081 -0.12939943
v -0.03184819 0.00335606 -0.12894102
v -0.02967455 0.00655449 -0.12934442
v -0.02810430 0.00655449 -0.13064628
v -0.02914387 0.00825162 -0.12886767
v -0.02739915 0.00900590 -0.12980282
v -0.02669399 0.01107291 -0.12897769
v -0.02421503 0.01364035 -0.12903270
v -0.02220133 0.01434386 -0.12983949
v -0.02012220 0.01504012 -0.13066462
v -0.01323782 0.01842711 -0.13123303
v -0.02145255 0.01611351 -0.12890435
v -0.01932254 0.01680252 -0.12967446
v -0.01853014 0.01846338 -0.12868431
v -0.00918135 0.02030556 -0.13064628
v -0.01431373 0.02137170 -0.12708906
v -0.01586944 0.02105983 -0.12611725
v -0.01180570 0.01995743 -0.13027956
v -0.01416834 0.01953677 -0.12976615
v -0.01705440 0.01883326 -0.12905103
v -0.01510613 0.02063918 -0.12785918
v -0.01613842 0.02119763 -0.12463201
v -0.01762144 0.02055940 0.00392301
v -0.01744696 0.02050138 -0.12463201
v -0.01967875 0.01941348 0.00392301
v -0.02120538 0.01852865 0.00392301
v -0.02252119 0.01744800 0.00392301
v -0.02409871 0.01613527 0.00392301
v -0.02540725 0.01499660 0.00392301
v -0.02387335 0.01595395 0.00542658
v -0.01212556 0.00174597 0.05491595
v -0.01156580 0.00222465 0.05491595
v -0.01081702 0.00286288 0.05491595
v -0.00662969 -0.02921568 0.05491595
v -0.01632743 -0.04488870 0.00549992
v -0.01443005 -0.04620143 0.00392301
v -0.01244543 -0.04700648 0.00392301
v -0.01113689 -0.04741988 0.00392301
v -0.01093334 -0.04736186 -0.12259670
v -0.00918135 -0.04782603 -0.12463201
v -0.00918135 -0.04743439 -0.12646563
v -0.00654245 -0.04766647 -0.12740078
v -0.00740754 -0.04713703 -0.12839093
v -0.00652791 -0.04591133 -0.12987617
v -0.00918135 -0.04555594 -0.12954611
v -0.01180570 -0.04514979 -0.12917939
v -0.00918135 -0.04686868 -0.12778584
v -0.01154399 -0.04645528 -0.12699738
v -0.01449548 -0.04524408 -0.12730910
v -0.01541145 -0.04442453 -0.12822591
v -0.02050750 -0.04162500 -0.12793253
v -0.02164883 -0.03987710 -0.12903270
v -0.01964967 -0.04256059 -0.12714407
v -0.02339356 -0.03917360 -0.12826258
v -0.02503650 -0.03814372 -0.12745579
v -0.02657040 -0.03710658 -0.12664899
v -0.02904209 -0.03432881 -0.12631894
v -0.03140473 -0.03134071 -0.12543881
v -0.03179003 -0.02943326 -0.12725409
v -0.03377465 -0.02515418 -0.12738244
v -0.03400001 -0.02329750 -0.12835426
v -0.03409451 -0.02618406 -0.12582387
v -0.03542486 -0.01967842 -0.12725409
v -0.03584651 -0.01705295 -0.12725409
v -0.03621726 -0.01430419 -0.12703406
v -0.03618818 -0.01180927 -0.12732743
v -0.03445073 -0.00394012 -0.12897769
v -0.03422537 -0.00221399 -0.12872098
v -0.03618818 -0.00940138 -0.12701572
v -0.03580288 -0.00656559 -0.12725409
v -0.03394912 -0.00046609 -0.12822591
v -0.03140473 0.00510396 -0.12842761
v -0.03098309 0.00664152 -0.12743745
v -0.02948554 0.00915095 -0.12707073
v -0.02844598 0.01000676 -0.12780417
v -0.02595975 0.01282080 -0.12813423
v -0.02320454 0.01539550 -0.12795087
v -0.02041299 0.01796294 -0.12725409
v -0.01910445 0.01879700 -0.12725409
v -0.02093641 0.01832558 -0.12573218
v -0.02112542 0.01846338 -0.12397191
v -0.01990411 0.01908711 -0.12476037
v -0.02398240 0.01604824 -0.12463201
v -0.02675941 0.01368387 0.00392301
v -0.02652678 0.01343728 0.00548159
v -0.02529821 0.01489506 -0.12463201
v -0.02666491 0.01358233 -0.12463201
v -0.01272894 0.00118026 0.05491595
v -0.00894872 -0.02811327 0.05491595
v -0.02124900 -0.04217620 0.00540824
v -0.01804308 -0.04442453 0.00392301
v -0.01673454 -0.04511353 0.00392301
v -0.01443005 -0.04605638 -0.12463201
v -0.01214010 -0.04692670 -0.12463201
v -0.01082429 -0.04733285 -0.12463201
v -0.01050442 -0.04723131 -0.12595222
v -0.01615296 -0.04482343 -0.12646563
v -0.01703986 -0.04396036 -0.12730910
v -0.02112542 -0.04208917 -0.12619059
v -0.02394605 -0.03963051 -0.12650230
v -0.02557446 -0.03873844 -0.12463201
v -0.02686119 -0.03743296 -0.12463201
v -0.02816973 -0.03590264 -0.12463201
v -0.02925291 -0.03458991 -0.12463201
v -0.03070685 -0.03259542 -0.12459534
v -0.03360744 -0.02740976 -0.12481537
v -0.03154286 -0.03158005 -0.12369687
v -0.03207354 -0.03034709 -0.12459534
v -0.03436349 -0.02443617 -0.12659399
v -0.03466882 -0.02237641 -0.12738244
v -0.03421082 -0.02644516 -0.12406359
v -0.03454524 -0.02515418 -0.12481537
v -0.03546121 -0.02230388 -0.12463201
v -0.03616637 -0.01967842 -0.12463201
v -0.03658801 -0.01716174 -0.12463201
v -0.03666798 -0.01510198 -0.12551215
v -0.03675521 -0.01335409 -0.12600723
v -0.03675521 -0.01180927 -0.12600723
v -0.03674068 -0.01041676 -0.12597055
v -0.03533762 -0.00394012 -0.12725409
v -0.03458885 -0.00132916 -0.12730910
v -0.03665344 -0.00866886 -0.12540214
v -0.03655893 -0.00654383 -0.12457700
v -0.03431987 0.00060730 -0.12648397
v -0.03364379 0.00141235 -0.12730910
v -0.03234979 0.00411034 -0.12743745
v -0.03179730 0.00582197 -0.12666733
v -0.03133931 0.00761338 -0.12463201
v -0.02891851 0.01055797 -0.12606224
v -0.02745003 0.01168938 -0.12708906
v -0.02644682 0.01334299 -0.12639229
v -0.02486203 0.01436562 -0.12716241
v -0.02375704 0.01585967 -0.12619059
v -0.02231764 0.01654142 -0.12714407
v -0.02212136 0.01753503 -0.12476037
v -0.02807522 0.01218256 0.00392301
v -0.02902028 0.01068851 0.00537157
v -0.01352134 0.00043324 0.05491595
v -0.02797345 0.01205927 -0.12463201
v -0.01025726 -0.02726471 0.05491595
v -0.02404783 -0.03970304 0.00551826
v -0.02567623 -0.03883997 0.00392301
v -0.02436769 -0.03996414 0.00392301
v -0.02277563 -0.04127687 0.00392301
v -0.02146709 -0.04234301 0.00392301
v -0.01967875 -0.04348168 0.00392301
v -0.01110054 -0.02671351 0.05491595
v -0.01166757 -0.02623483 0.05491595
v -0.01241635 -0.02559660 0.05491595
v -0.01787587 -0.04434475 -0.12463201
v -0.01656733 -0.04504101 -0.12463201
v -0.01967875 -0.04330037 -0.12463201
v -0.02133624 -0.04224873 -0.12463201
v -0.02265205 -0.04120434 -0.12463201
v -0.02425865 -0.03989161 -0.12463201
v -0.02694116 -0.03752724 0.00392301
v -0.02825697 -0.03601143 0.00392301
v -0.02934015 -0.03469870 0.00392301
v -0.03064869 -0.03295081 0.00392301
v -0.03157921 -0.03163807 0.00208939
v -0.03427626 -0.02657571 0.00392301
v -0.03480694 -0.02492210 0.00392301
v -0.03673340 -0.01837294 0.00260280
v -0.03679156 -0.01635669 -0.12375188
v -0.03687153 -0.01430419 -0.12463201
v -0.03695876 -0.01180927 -0.12463201
v -0.03684245 -0.00940138 -0.12457700
v -0.03607186 -0.00394012 -0.12463201
v -0.03677703 -0.00740690 -0.12366019
v -0.03531582 -0.00131466 -0.12463201
v -0.03400728 0.00235520 -0.12531045
v -0.03205174 0.00630065 -0.12463201
v -0.03023432 0.00917996 -0.12463201
v -0.03414540 0.00268882 -0.12355018
v -0.03149924 0.00788898 0.00254780
v -0.02906390 0.01074653 -0.12463201
v -0.02916568 0.01086983 0.00392301
v -0.03142654 0.00776569 0.00458311
v -0.01498254 -0.00147421 0.05491595
v -0.02664310 -0.03720087 0.00555493
v -0.01371762 -0.02428386 0.05491595
v -0.02912206 -0.03443760 0.00546325
v -0.03151378 -0.03153653 0.00527989
v -0.03157921 -0.03163807 0.00392301
v -0.03418175 -0.02639439 0.00531656
v -0.03557025 -0.02230388 0.00392301
v -0.03673340 -0.01837294 0.00265781
v -0.03703146 -0.01442748 0.00392301
v -0.03688607 -0.01442748 -0.12243167
v -0.03713324 -0.01180927 0.00392301
v -0.03686426 -0.00919106 -0.12256002
v -0.03666071 -0.00584032 0.00392301
v -0.03620272 -0.00394012 0.00392301
v -0.03698784 -0.00919106 0.00392301
v -0.03680610 -0.00712404 0.00214440
v -0.03445073 0.00141235 -0.12452200
v -0.03345478 0.00371145 -0.12452200
v -0.03543213 -0.00131466 0.00392301
v -0.03463974 0.00131081 0.00392301
v -0.03418175 0.00275409 0.00219941
v -0.03149924 0.00788898 0.00282284
v -0.03064142 0.00892611 0.00379466
v -0.03412359 0.00264530 0.00524322
v -0.01637105 -0.00372979 0.05491595
v -0.01502616 -0.02258674 0.05491595
v -0.01591306 -0.02127400 0.05491595
v -0.03666798 -0.01785074 0.00441809
v -0.01669092 -0.01967842 0.05491595
v -0.01769413 -0.01705295 0.05491595
v -0.03638446 -0.01942457 0.00370298
v -0.03680610 -0.01700943 0.00370298
v -0.03676248 -0.01610285 0.00527989
v -0.03683518 -0.01442748 0.00535323
v -0.03687880 -0.01180927 0.00540824
v -0.03681337 -0.00919106 0.00533490
v -0.03675521 -0.00766074 0.00526155
v -0.03679883 -0.00715306 0.00392301
v -0.03416721 0.00273959 0.00392301
v -0.01755601 -0.00656559 0.05491595
v -0.01703259 -0.00531088 0.05491595
v -0.01793403 -0.01596505 0.05491595
v -0.01822482 -0.01461605 0.05491595
v -0.01826844 -0.01180927 0.05491595
v -0.01825390 -0.01309299 0.05491595
v -0.01815939 -0.00915479 0.05491595
v -0.01789768 -0.00802338 0.05491595
f 1 2 3
f 1 3 4
f 1 4 5
f 1 5 6
f 1 6 7
f 1 7 8
f 1 8 9
f 1 9 10
f 1 10 11
f 1 11 2
f 2 12 13
f 2 13 3
f 2 11 12
f 3 13 14
f 3 14 15
f 3 15 16
f 3 16 17
f 3 17 18
f 3 18 19
f 3 19 4
f 4 19 20
f 4 20 21
f 4 21 5
f 5 21 22
f 5 22 6
f 6 23 7
f 6 22 23
f 7 23 24
f 7 24 25
f 7 25 26
f 7 26 27
f 7 27 8
f 8 27 28
f 8 28 9
f 9 28 29
f 9 29 30
f 9 30 31
f 9 31 32
f 9 32 11
f 9 11 10
f 11 32 33
f 11 33 34
f 11 34 35
f 11 35 14
f 11 14 12
f 12 14 13
f 14 35 15
f 15 36 16
f 15 35 37
f 15 37 38
f 15 38 36
f 16 36 39
f 16 39 40
f 16 40 41
f 16 41 42
f 16 42 43
f 16 43 44
f 16 44 17
f 17 44 43
f 17 43 72
f 17 72 103
f 17 103 102
f 17 102 139
f 17 139 181
f 17 181 228
f 17 228 227
f 17 227 270
f 17 270 269
f 17 269 268
f 17 268 305
f 17 305 343
f 17 343 342
f 17 342 385
f 17 385 433
f 17 433 487
f 17 487 492
f 17 492 491
f 17 491 552
f 17 552 616
f 17 616 615
f 17 615 614
f 17 614 691
f 17 691 690
f 17 690 689
f 17 689 746
f 17 746 796
f 17 796 837
f 17 837 862
f 17 862 878
f 17 878 877
f 17 877 884
f 17 884 883
f 17 883 881
f 17 881 882
f 17 882 880
f 17 880 879
f 17 879 867
f 17 867 866
f 17 866 864
f 17 864 863
f 17 863 839
f 17 839 807
f 17 807 806
f 17 806 805
f 17 805 798
f 17 798 747
f 17 747 692
f 17 692 617
f 17 617 553
f 17 553 493
f 17 493 438
f 17 438 437
f 17 437 393
f 17 393 392
f 17 392 347
f 17 347 312
f 17 312 311
f 17 311 274
f 17 274 232
f 17 232 185
f 17 185 145
f 17 145 144
f 17 144 143
f 17 143 107
f 17 107 106
f 17 106 105
f 17 105 74
f 17 74 47
f 17 47 45
f 17 45 22
f 17 22 21
f 17 21 20
f 17 20 19
f 17 19 18
f 22 45 23
f 23 46 24
f 23 45 47
f 23 47 46
f 24 46 25
f 25 46 48
f 25 48 49
f 25 49 50
f 25 50 26
f 26 50 51
f 26 51 52
f 26 52 27
f 27 52 53
f 27 53 28
f 28 53 54
f 28 54 29
f 29 54 55
f 29 55 56
f 29 56 57
f 29 57 30
f 30 57 31
f 31 33 32
f 31 57 58
f 31 58 59
f 31 59 33
f 33 59 34
f 34 59 60
f 34 60 35
f 35 60 61
f 35 61 37
f 36 38 39
f 37 61 62
f 37 62 63
f 37 63 38
f 38 63 62
f 38 62 64
f 38 64 65
f 38 65 66
f 38 66 67
f 38 67 68
f 38 68 39
f 39 68 40
f 40 68 41
f 41 68 67
f 41 67 69
f 41 69 70
f 41 70 42
f 42 70 69
f 42 69 71
f 42 71 72
f 42 72 43
f 46 47 73
f 46 73 49
f 46 49 48
f 47 74 73
f 49 73 50
f 50 73 75
f 50 75 76
f 50 76 51
f 51 76 77
f 51 77 78
f 51 78 79
f 51 79 52
f 52 79 80
f 52 80 53
f 53 80 54
f 54 80 55
f 55 80 81
f 55 81 82
f 55 82 56
f 56 82 83
f 56 83 57
f 57 83 84
f 57 84 85
f 57 85 86
f 57 86 58
f 58 86 59
f 59 86 87
f 59 87 60
f 60 87 88
f 60 88 89
f 60 89 61
f 61 89 90
f 61 90 91
f 61 91 62
f 62 91 92
f 62 92 93
f 62 93 65
f 62 65 64
f 65 93 66
f 66 93 94
f 66 94 95
f 66 95 96
f 66 96 67
f 67 96 97
f 67 97 69
f 69 98 71
f 69 97 99
f 69 99 98
f 71 98 100
f 71 100 101
f 71 101 102
f 71 102 103
f 71 103 72
f 73 104 75
f 73 74 105
f 73 105 106
f 73 106 107
f 73 107 104
f 75 104 108
f 75 108 109
f 75 109 110
f 75 110 76
f 76 110 111
f 76 111 78
f 76 78 77
f 78 111 112
f 78 112 113
f 78 113 114
f 78 114 115
f 78 115 116
f 78 116 117
f 78 117 79
f 79 117 118
f 79 118 80
f 80 118 117
f 80 117 119
f 80 119 81
f 81 119 120
f 81 120 82
f 82 120 121
f 82 121 83
f 83 121 122
f 83 122 84
f 84 122 123
f 84 123 124
f 84 124 85
f 85 124 125
f 85 125 86
f 86 125 126
f 86 126 87
f 87 126 88
f 88 90 89
f 88 126 127
f 88 127 128
f 88 128 90
f 90 129 91
f 90 128 130
f 90 130 129
f 91 129 92
f 92 129 93
f 93 129 131
f 93 131 94
f 94 131 132
f 94 132 133
f 94 133 95
f 95 133 134
f 95 134 135
f 95 135 99
f 95 99 97
f 95 97 96
f 98 99 136
f 98 136 100
f 99 135 136
f 100 137 101
f 100 136 137
f 101 137 138
f 101 138 139
f 101 139 102
f 104 140 141
f 104 141 142
f 104 142 108
f 104 107 143
f 104 143 144
f 104 144 145
f 104 145 140
f 108 142 109
f 109 142 110
f 110 146 147
f 110 147 113
f 110 113 112
f 110 112 111
f 110 142 141
f 110 141 146
f 113 148 149
f 113 149 150
f 113 150 114
f 113 147 146
f 113 146 148
f 114 150 115
f 115 151 152
f 115 152 153
f 115 153 154
f 115 154 117
f 115 117 116
f 115 150 151
f 117 154 155
f 117 155 119
f 119 155 156
f 119 156 120
f 120 156 157
f 120 157 158
f 120 158 121
f 121 158 159
f 121 159 122
f 122 159 160
f 122 160 123
f 123 160 161
f 123 161 162
f 123 162 163
f 123 163 124
f 124 163 125
f 125 163 164
f 125 164 126
f 126 164 165
f 126 165 127
f 127 165 166
f 127 166 128
f 128 166 167
f 128 167 130
f 129 130 168
f 129 168 132
f 129 132 131
f 130 167 169
f 130 169 168
f 132 168 170
f 132 170 171
f 132 171 172
f 132 172 173
f 132 173 174
f 132 174 133
f 133 174 134
f 134 174 135
f 135 174 175
f 135 175 176
f 135 176 177
f 135 177 136
f 136 177 137
f 137 178 179
f 137 179 138
f 137 177 180
f 137 180 178
f 138 179 139
f 139 179 181
f 140 182 183
f 140 183 184
f 140 184 141
f 140 145 182
f 141 184 186
f 141 186 146
f 145 185 182
f 146 186 148
f 148 187 188
f 148 188 189
f 148 189 149
f 148 186 187
f 149 189 151
f 149 151 150
f 151 189 188
f 151 188 190
f 151 190 191
f 151 191 192
f 151 192 193
f 151 193 152
f 152 193 194
f 152 194 153
f 153 194 195
f 153 195 154
f 154 195 155
f 155 195 196
f 155 196 156
f 156 196 157
f 157 196 197
f 157 197 198
f 157 198 199
f 157 199 158
f 158 199 159
f 159 199 200
f 159 200 201
f 159 201 160
f 160 201 202
f 160 202 161
f 161 202 203
f 161 203 162
f 162 203 163
f 163 203 204
f 163 204 205
f 163 205 164
f 164 205 206
f 164 206 165
f 165 206 207
f 165 207 208
f 165 208 166
f 166 208 167
f 167 208 169
f 168 169 209
f 168 209 170
f 169 208 209
f 170 209 171
f 171 210 172
f 171 209 208
f 171 208 211
f 171 211 212
f 171 212 213
f 171 213 214
f 171 214 210
f 172 210 173
f 173 215 174
f 173 210 216
f 173 216 215
f 174 217 175
f 174 215 217
f 175 217 176
f 176 217 218
f 176 218 219
f 176 219 180
f 176 180 177
f 178 220 179
f 178 180 221
f 178 221 220
f 179 220 222
f 179 222 223
f 179 223 224
f 179 224 225
f 179 225 226
f 179 226 227
f 179 227 228
f 179 228 181
f 180 219 229
f 180 229 221
f 182 230 231
f 182 231 183
f 182 185 232
f 182 232 230
f 183 231 233
f 183 233 184
f 184 233 186
f 186 233 187
f 187 233 234
f 187 234 235
f 187 235 236
f 187 236 188
f 188 236 237
f 188 237 238
f 188 238 239
f 188 239 190
f 190 239 240
f 190 240 191
f 191 240 192
f 192 194 193
f 192 240 241
f 192 241 242
f 192 242 243
f 192 243 197
f 192 197 194
f 194 197 195
f 195 197 196
f 197 243 244
f 197 244 245
f 197 245 198
f 198 245 199
f 199 245 246
f 199 246 200
f 200 246 201
f 201 246 202
f 202 246 247
f 202 247 248
f 202 248 203
f 203 248 249
f 203 249 204
f 204 249 250
f 204 250 205
f 205 250 206
f 206 250 207
f 207 250 208
f 208 250 251
f 208 251 211
f 210 214 216
f 211 251 212
f 212 252 213
f 212 251 250
f 212 250 253
f 212 253 252
f 213 252 214
f 214 252 254
f 214 254 255
f 214 255 256
f 214 256 216
f 215 257 217
f 215 216 256
f 215 256 258
f 215 258 257
f 217 257 259
f 217 259 218
f 218 259 219
f 219 260 221
f 219 221 229
f 219 259 261
f 219 261 262
f 219 262 263
f 219 263 260
f 220 221 222
f 221 260 263
f 221 263 224
f 221 224 223
f 221 223 222
f 224 263 225
f 225 264 226
f 225 263 265
f 225 265 266
f 225 266 264
f 226 264 267
f 226 267 268
f 226 268 269
f 226 269 270
f 226 270 227
f 230 271 231
f 230 232 271
f 231 271 272
f 231 272 273
f 231 273 234
f 231 234 233
f 232 274 271
f 234 273 235
f 235 273 275
f 235 275 237
f 235 237 236
f 237 275 276
f 237 276 277
f 237 277 238
f 238 277 278
f 238 278 279
f 238 279 239
f 239 279 240
f 240 279 241
f 241 280 281
f 241 281 242
f 241 279 280
f 242 281 282
f 242 282 283
f 242 283 243
f 243 283 244
f 244 283 245
f 245 284 246
f 245 283 284
f 246 285 286
f 246 286 247
f 246 284 285
f 247 286 287
f 247 287 248
f 248 287 249
f 249 253 250
f 249 287 289
f 249 289 253
f 252 288 254
f 252 253 289
f 252 289 290
f 252 290 291
f 252 291 288
f 254 292 255
f 254 288 292
f 255 293 294
f 255 294 256
f 255 292 293
f 256 294 258
f 257 295 259
f 257 258 294
f 257 294 293
f 257 293 296
f 257 296 295
f 259 295 261
f 261 295 262
f 262 297 298
f 262 298 266
f 262 266 265
f 262 265 263
f 262 295 299
f 262 299 297
f 264 300 301
f 264 301 302
f 264 302 267
f 264 266 300
f 266 298 300
f 267 303 268
f 267 302 301
f 267 301 304
f 267 304 303
f 268 303 305
f 271 306 307
f 271 307 308
f 271 308 309
f 271 309 310
f 271 310 272
f 271 274 311
f 271 311 312
f 271 312 306
f 272 310 273
f 273 313 275
f 273 310 313
f 275 313 314
f 275 314 315
f 275 315 316
f 275 316 317
f 275 317 318
f 275 318 276
f 276 319 277
f 276 318 319
f 277 319 320
f 277 320 321
f 277 321 278
f 278 321 279
f 279 321 322
f 279 322 280
f 280 323 281
f 280 322 323
f 281 323 324
f 281 324 282
f 282 324 325
f 282 325 326
f 282 326 285
f 282 285 284
f 282 284 283
f 285 326 327
f 285 327 286
f 286 327 287
f 287 327 289
f 288 328 292
f 288 291 329
f 288 329 328
f 289 327 290
f 290 327 330
f 290 330 291
f 291 330 329
f 292 328 293
f 293 328 331
f 293 331 332
f 293 332 295
f 293 295 296
f 295 332 333
f 295 333 334
f 295 334 299
f 297 335 298
f 297 299 334
f 297 334 335
f 298 335 336
f 298 336 337
f 298 337 300
f 300 304 301
f 300 337 338
f 300 338 304
f 303 304 339
f 303 339 340
f 303 340 341
f 303 341 342
f 303 342 343
f 303 343 305
f 304 338 339
f 306 344 345
f 306 345 346
f 306 346 307
f 306 312 347
f 306 347 344
f 307 346 348
f 307 348 316
f 307 316 308
f 308 316 315
f 308 315 314
f 308 314 309
f 309 314 313
f 309 313 310
f 316 348 317
f 317 348 349
f 317 349 350
f 317 350 351
f 317 351 352
f 317 352 318
f 318 352 351
f 318 351 319
f 319 351 353
f 319 353 354
f 319 354 322
f 319 322 320
f 320 322 321
f 322 354 355
f 322 355 356
f 322 356 357
f 322 357 358
f 322 358 323
f 323 358 324
f 324 359 325
f 324 358 359
f 325 360 326
f 325 359 360
f 326 361 327
f 326 360 362
f 326 362 408
f 326 408 361
f 327 361 363
f 327 363 364
f 327 364 365
f 327 365 366
f 327 366 367
f 327 367 368
f 327 368 330
f 328 329 369
f 328 369 370
f 328 370 331
f 329 330 371
f 329 371 372
f 329 372 369
f 330 368 371
f 331 370 332
f 332 373 374
f 332 374 334
f 332 334 375
f 332 375 333
f 332 370 376
f 332 376 373
f 333 375 334
f 334 374 377
f 334 377 378
f 334 378 379
f 334 379 335
f 335 379 336
f 336 379 378
f 336 378 380
f 336 380 381
f 336 381 338
f 336 338 337
f 338 381 339
f 339 381 382
f 339 382 340
f 340 383 341
f 340 382 384
f 340 384 383
f 341 383 342
f 342 383 386
f 342 386 385
f 344 387 388
f 344 388 389
f 344 389 390
f 344 390 391
f 344 391 345
f 344 347 392
f 344 392 393
f 344 393 387
f 345 391 349
f 345 349 346
f 346 349 348
f 349 394 395
f 349 395 350
f 349 391 394
f 350 353 351
f 350 395 396
f 350 396 353
f 353 397 398
f 353 398 356
f 353 356 399
f 353 399 354
f 353 396 400
f 353 400 401
f 353 401 397
f 354 399 355
f 355 399 356
f 356 398 402
f 356 402 403
f 356 403 404
f 356 404 405
f 356 405 357
f 357 405 358
f 358 405 404
f 358 404 359
f 359 406 407
f 359 407 360
f 359 404 406
f 360 407 362
f 361 408 409
f 361 409 410
f 361 410 411
f 361 411 363
f 362 407 412
f 362 412 453
f 362 453 408
f 363 411 413
f 363 413 414
f 363 414 364
f 364 414 415
f 364 415 416
f 364 416 365
f 365 416 417
f 365 417 469
f 365 469 418
f 365 418 419
f 365 419 366
f 366 419 420
f 366 420 367
f 367 420 421
f 367 421 422
f 367 422 423
f 367 423 368
f 368 423 371
f 369 424 376
f 369 376 370
f 369 372 424
f 371 423 425
f 371 425 372
f 372 425 424
f 373 376 426
f 373 426 480
f 373 480 427
f 373 427 374
f 374 427 377
f 376 424 428
f 376 428 426
f 377 427 378
f 378 427 429
f 378 429 380
f 380 430 384
f 380 384 382
f 380 382 381
f 380 429 431
f 380 431 430
f 383 384 386
f 384 430 483
f 384 483 432
f 384 432 386
f 385 386 434
f 385 434 435
f 385 435 433
f 386 436 434
f 386 432 436
f 387 393 437
f 387 437 438
f 387 438 388
f 388 438 439
f 388 439 440
f 388 440 441
f 388 441 389
f 389 441 442
f 389 442 443
f 389 443 390
f 390 443 391
f 391 443 394
f 394 443 444
f 394 444 395
f 395 444 442
f 395 442 445
f 395 445 396
f 396 445 400
f 397 401 446
f 397 446 398
f 398 446 402
f 400 445 401
f 401 445 447
f 401 447 448
f 401 448 449
f 401 449 446
f 402 450 403
f 402 446 449
f 402 449 450
f 403 451 404
f 403 450 451
f 404 451 406
f 406 451 452
f 406 452 412
f 406 412 407
f 408 453 454
f 408 454 409
f 409 454 455
f 409 455 410
f 410 455 456
f 410 456 411
f 411 456 457
f 411 457 458
f 411 458 459
f 411 459 413
f 412 452 460
f 412 460 501
f 412 501 453
f 413 459 461
f 413 461 414
f 414 461 462
f 414 462 463
f 414 463 464
f 414 464 465
f 414 465 415
f 415 465 416
f 416 465 466
f 416 466 417
f 417 466 467
f 417 467 522
f 417 522 468
f 417 468 469
f 418 469 470
f 418 470 419
f 419 471 420
f 419 470 471
f 420 471 472
f 420 472 421
f 421 472 473
f 421 473 474
f 421 474 422
f 422 474 475
f 422 475 476
f 422 476 477
f 422 477 423
f 423 477 478
f 423 478 425
f 424 425 428
f 425 478 479
f 425 479 428
f 426 428 480
f 427 480 429
f 428 479 481
f 428 481 480
f 429 482 431
f 429 480 482
f 430 431 482
f 430 482 484
f 430 484 539
f 430 539 483
f 432 483 485
f 432 485 486
f 432 486 436
f 433 435 487
f 434 436 435
f 435 436 488
f 435 488 489
f 435 489 490
f 435 490 491
f 435 491 492
f 435 492 487
f 436 486 488
f 438 493 494
f 438 494 439
f 439 494 440
f 440 495 496
f 440 496 441
f 440 494 495
f 441 496 447
f 441 447 445
f 441 445 442
f 442 444 443
f 447 496 448
f 448 496 497
f 448 497 498
f 448 498 499
f 448 499 450
f 448 450 449
f 450 499 500
f 450 500 451
f 451 500 452
f 452 500 460
f 453 501 502
f 453 502 503
f 453 503 454
f 454 503 455
f 455 503 504
f 455 504 505
f 455 505 456
f 456 505 506
f 456 506 457
f 457 506 507
f 457 507 508
f 457 508 458
f 458 508 509
f 458 509 510
f 458 510 459
f 459 510 511
f 459 511 461
f 460 500 512
f 460 512 561
f 460 561 501
f 461 511 513
f 461 513 514
f 461 514 462
f 462 514 515
f 462 515 516
f 462 516 517
f 462 517 463
f 463 517 464
f 464 517 518
f 464 518 465
f 465 518 519
f 465 519 466
f 466 519 520
f 466 520 521
f 466 521 467
f 467 521 522
f 468 522 523
f 468 523 524
f 468 524 525
f 468 525 526
f 468 526 527
f 468 527 469
f 469 527 470
f 470 527 528
f 470 528 529
f 470 529 530
f 470 530 531
f 470 531 471
f 471 531 472
f 472 531 532
f 472 532 533
f 472 533 473
f 473 533 534
f 473 534 474
f 474 534 535
f 474 535 536
f 474 536 475
f 475 536 476
f 476 536 537
f 476 537 538
f 476 538 477
f 477 538 479
f 477 479 478
f 479 538 481
f 480 481 482
f 481 538 482
f 482 538 484
f 483 539 540
f 483 540 541
f 483 541 485
f 484 538 537
f 484 537 539
f 485 542 543
f 485 543 486
f 485 541 544
f 485 544 545
f 485 545 542
f 486 543 488
f 488 543 546
f 488 546 489
f 489 547 548
f 489 548 490
f 489 546 547
f 490 549 491
f 490 548 550
f 490 550 551
f 490 551 549
f 491 549 552
f 493 553 554
f 493 554 555
f 493 555 556
f 493 556 557
f 493 557 494
f 494 557 558
f 494 558 495
f 495 558 559
f 495 559 497
f 495 497 496
f 497 559 625
f 497 625 560
f 497 560 498
f 498 560 512
f 498 512 499
f 499 512 500
f 501 561 562
f 501 562 502
f 502 562 563
f 502 563 503
f 503 563 504
f 504 563 564
f 504 564 565
f 504 565 566
f 504 566 505
f 505 566 567
f 505 567 568
f 505 568 506
f 506 568 507
f 507 568 569
f 507 569 508
f 508 569 570
f 508 570 509
f 509 513 510
f 509 570 571
f 509 571 572
f 509 572 573
f 509 573 574
f 509 574 513
f 510 513 511
f 512 560 625
f 512 625 561
f 513 574 575
f 513 575 576
f 513 576 515
f 513 515 514
f 515 576 577
f 515 577 578
f 515 578 516
f 516 578 579
f 516 579 517
f 517 579 580
f 517 580 518
f 518 580 581
f 518 581 519
f 519 581 520
f 520 581 521
f 521 582 522
f 521 581 583
f 521 583 584
f 521 584 582
f 522 582 523
f 523 582 585
f 523 585 524
f 524 585 525
f 525 586 526
f 525 585 587
f 525 587 588
f 525 588 589
f 525 589 590
f 525 590 591
f 525 591 586
f 526 586 527
f 527 586 591
f 527 591 528
f 528 591 529
f 529 591 592
f 529 592 593
f 529 593 594
f 529 594 595
f 529 595 530
f 530 595 596
f 530 596 531
f 531 596 532
f 532 596 597
f 532 597 598
f 532 598 599
f 532 599 533
f 533 599 600
f 533 600 534
f 534 600 535
f 535 601 602
f 535 602 603
f 535 603 536
f 535 600 601
f 536 603 537
f 537 603 540
f 537 540 539
f 540 544 541
f 540 603 602
f 540 602 544
f 542 545 604
f 542 604 605
f 542 605 606
f 542 606 607
f 542 607 546
f 542 546 543
f 544 602 608
f 544 608 545
f 545 608 609
f 545 609 610
f 545 610 604
f 546 607 547
f 547 551 548
f 547 607 606
f 547 606 611
f 547 611 551
f 548 551 550
f 549 551 612
f 549 612 613
f 549 613 614
f 549 614 615
f 549 615 616
f 549 616 552
f 551 611 612
f 553 617 554
f 554 618 555
f 554 617 618
f 555 618 619
f 555 619 620
f 555 620 621
f 555 621 556
f 556 621 558
f 556 558 557
f 558 621 622
f 558 622 559
f 559 622 623
f 559 623 624
f 559 624 625
f 561 625 624
f 561 624 626
f 561 626 562
f 562 626 627
f 562 627 563
f 563 627 564
f 564 627 628
f 564 628 565
f 565 567 566
f 565 628 629
f 565 629 630
f 565 630 631
f 565 631 632
f 565 632 568
f 565 568 567
f 568 632 633
f 568 633 634
f 568 634 635
f 568 635 636
f 568 636 569
f 569 636 637
f 569 637 638
f 569 638 639
f 569 639 570
f 570 639 640
f 570 640 571
f 571 640 572
f 572 641 573
f 572 640 642
f 572 642 643
f 572 643 644
f 572 644 645
f 572 645 646
f 572 646 641
f 573 641 574
f 574 641 647
f 574 647 575
f 575 647 648
f 575 648 649
f 575 649 576
f 576 649 577
f 577 649 650
f 577 650 578
f 578 650 651
f 578 651 579
f 579 651 652
f 579 652 653
f 579 653 580
f 580 653 654
f 580 654 581
f 581 654 583
f 582 584 655
f 582 655 585
f 583 654 656
f 583 656 584
f 584 656 657
f 584 657 655
f 585 655 658
f 585 658 587
f 587 658 659
f 587 659 588
f 588 659 660
f 588 660 589
f 589 660 661
f 589 661 590
f 590 661 662
f 590 662 591
f 591 662 663
f 591 663 664
f 591 664 592
f 592 664 665
f 592 665 593
f 593 665 666
f 593 666 594
f 594 666 667
f 594 667 668
f 594 668 595
f 595 668 597
f 595 597 596
f 597 669 598
f 597 668 670
f 597 670 671
f 597 671 672
f 597 672 669
f 598 669 599
f 599 669 600
f 600 669 673
f 600 673 601
f 601 673 608
f 601 608 602
f 604 610 605
f 605 674 606
f 605 610 674
f 606 674 675
f 606 675 611
f 608 673 676
f 608 676 609
f 609 676 610
f 610 676 669
f 610 669 677
f 610 677 678
f 610 678 672
f 610 672 679
f 610 679 674
f 611 675 680
f 611 680 612
f 612 681 613
f 612 680 682
f 612 682 681
f 613 681 683
f 613 683 684
f 613 684 685
f 613 685 686
f 613 686 687
f 613 687 688
f 613 688 689
f 613 689 690
f 613 690 691
f 613 691 614
f 617 692 618
f 618 693 694
f 618 694 695
f 618 695 696
f 618 696 619
f 618 692 693
f 619 696 697
f 619 697 698
f 619 698 620
f 620 698 699
f 620 699 700
f 620 700 622
f 620 622 621
f 622 700 623
f 623 700 701
f 623 701 702
f 623 702 627
f 623 627 626
f 623 626 624
f 627 702 628
f 628 702 703
f 628 703 629
f 629 703 704
f 629 704 630
f 630 634 633
f 630 633 631
f 630 704 701
f 630 701 705
f 630 705 706
f 630 706 707
f 630 707 708
f 630 708 634
f 631 633 632
f 634 709 710
f 634 710 635
f 634 708 711
f 634 711 709
f 635 710 636
f 636 710 637
f 637 710 638
f 638 710 712
f 638 712 642
f 638 642 639
f 639 642 640
f 641 646 647
f 642 712 713
f 642 713 714
f 642 714 715
f 642 715 643
f 643 715 644
f 644 715 716
f 644 716 645
f 645 717 646
f 645 716 717
f 646 718 719
f 646 719 648
f 646 648 647
f 646 717 720
f 646 720 718
f 648 719 649
f 649 719 650
f 650 719 721
f 650 721 651
f 651 721 722
f 651 722 652
f 652 722 723
f 652 723 653
f 653 724 654
f 653 723 724
f 654 724 656
f 655 657 725
f 655 725 726
f 655 726 658
f 656 724 657
f 657 724 727
f 657 727 728
f 657 728 725
f 658 726 659
f 659 726 729
f 659 729 660
f 660 729 730
f 660 730 661
f 661 730 663
f 661 663 662
f 663 665 664
f 663 730 731
f 663 731 732
f 663 732 733
f 663 733 734
f 663 734 665
f 665 734 666
f 666 734 735
f 666 735 670
f 666 670 667
f 667 670 668
f 669 672 678
f 669 678 677
f 669 676 673
f 670 735 736
f 670 736 672
f 670 672 671
f 672 736 737
f 672 737 675
f 672 675 679
f 674 679 675
f 675 737 738
f 675 738 682
f 675 682 680
f 681 682 739
f 681 739 683
f 682 738 740
f 682 740 739
f 683 739 684
f 684 739 685
f 685 739 686
f 686 739 741
f 686 741 687
f 687 742 743
f 687 743 688
f 687 741 744
f 687 744 745
f 687 745 742
f 688 743 746
f 688 746 689
f 692 747 693
f 693 748 749
f 693 749 750
f 693 750 694
f 693 747 748
f 694 750 751
f 694 751 695
f 695 751 752
f 695 752 697
f 695 697 696
f 697 752 753
f 697 753 698
f 698 753 754
f 698 754 699
f 699 754 706
f 699 706 705
f 699 705 701
f 699 701 700
f 701 704 703
f 701 703 702
f 706 754 707
f 707 754 751
f 707 751 755
f 707 755 708
f 708 755 756
f 708 756 711
f 709 712 710
f 709 711 757
f 709 757 712
f 711 755 757
f 711 756 755
f 712 757 758
f 712 758 713
f 713 758 714
f 714 758 759
f 714 759 760
f 714 760 715
f 715 760 761
f 715 761 762
f 715 762 763
f 715 763 716
f 716 764 720
f 716 720 717
f 716 763 765
f 716 765 766
f 716 766 764
f 718 720 719
f 719 720 767
f 719 767 768
f 719 768 721
f 720 764 769
f 720 769 770
f 720 770 771
f 720 771 767
f 721 768 767
f 721 767 772
f 721 772 773
f 721 773 774
f 721 774 722
f 722 774 775
f 722 775 723
f 723 775 724
f 724 776 777
f 724 777 727
f 724 775 776
f 725 728 778
f 725 778 726
f 726 778 779
f 726 779 729
f 727 777 728
f 728 777 780
f 728 780 781
f 728 781 778
f 729 779 782
f 729 782 783
f 729 783 730
f 730 783 784
f 730 784 785
f 730 785 731
f 731 785 732
f 732 785 786
f 732 786 787
f 732 787 733
f 733 787 788
f 733 788 734
f 734 788 789
f 734 789 790
f 734 790 735
f 735 790 791
f 735 791 792
f 735 792 736
f 736 792 738
f 736 738 737
f 738 741 793
f 738 793 739
f 738 739 740
f 738 792 791
f 738 791 741
f 739 793 741
f 741 791 744
f 742 794 795
f 742 795 743
f 742 745 794
f 743 795 796
f 743 796 746
f 744 791 789
f 744 789 745
f 745 789 797
f 745 797 794
f 747 798 748
f 748 799 800
f 748 800 801
f 748 801 802
f 748 802 803
f 748 803 804
f 748 804 749
f 748 798 805
f 748 805 806
f 748 806 807
f 748 807 799
f 749 804 808
f 749 808 809
f 749 809 750
f 750 809 751
f 751 809 755
f 751 754 752
f 752 754 753
f 755 809 808
f 755 808 757
f 757 808 810
f 757 810 811
f 757 811 812
f 757 812 813
f 757 813 758
f 758 813 759
f 759 813 800
f 759 800 760
f 760 800 814
f 760 814 815
f 760 815 761
f 761 815 816
f 761 816 762
f 762 765 763
f 762 816 765
f 764 766 765
f 764 765 769
f 765 816 817
f 765 817 818
f 765 818 819
f 765 819 769
f 767 771 772
f 769 771 770
f 769 819 820
f 769 820 771
f 771 820 821
f 771 821 772
f 772 822 773
f 772 821 822
f 773 822 823
f 773 823 774
f 774 823 775
f 775 823 824
f 775 824 776
f 776 824 777
f 777 824 825
f 777 825 780
f 778 781 826
f 778 826 782
f 778 782 779
f 780 825 827
f 780 827 781
f 781 827 826
f 782 826 828
f 782 828 829
f 782 829 783
f 783 829 784
f 784 829 785
f 785 829 830
f 785 830 786
f 786 831 787
f 786 830 832
f 786 832 833
f 786 833 831
f 787 831 834
f 787 834 797
f 787 797 789
f 787 789 788
f 789 791 790
f 794 835 795
f 794 797 834
f 794 834 835
f 795 835 836
f 795 836 837
f 795 837 796
f 799 838 800
f 799 807 838
f 800 838 814
f 800 813 801
f 801 813 802
f 802 813 812
f 802 812 803
f 803 812 811
f 803 811 804
f 804 811 810
f 804 810 808
f 807 839 838
f 814 838 840
f 814 840 815
f 815 840 816
f 816 840 841
f 816 841 817
f 817 841 842
f 817 842 818
f 818 842 819
f 819 842 841
f 819 841 843
f 819 843 820
f 820 843 844
f 820 844 845
f 820 845 821
f 821 845 846
f 821 846 822
f 822 847 823
f 822 846 847
f 823 847 824
f 824 848 849
f 824 849 827
f 824 827 825
f 824 847 848
f 826 827 850
f 826 850 851
f 826 851 828
f 827 849 848
f 827 848 852
f 827 852 853
f 827 853 850
f 828 832 854
f 828 854 829
f 828 851 832
f 829 854 832
f 829 832 855
f 829 855 830
f 830 855 832
f 831 833 834
f 832 851 856
f 832 856 857
f 832 857 858
f 832 858 833
f 833 858 859
f 833 859 835
f 833 835 834
f 835 859 860
f 835 860 836
f 836 860 859
f 836 859 861
f 836 861 862
f 836 862 837
f 838 839 840
f 839 863 841
f 839 841 840
f 841 863 864
f 841 864 843
f 843 865 844
f 843 864 866
f 843 866 867
f 843 867 865
f 844 868 845
f 844 865 868
f 845 868 865
f 845 865 869
f 845 869 846
f 846 869 870
f 846 870 871
f 846 871 848
f 846 848 847
f 848 871 872
f 848 872 873
f 848 873 874
f 848 874 852
f 850 853 875
f 850 875 874
f 850 874 851
f 851 874 861
f 851 861 856
f 852 874 875
f 852 875 853
f 856 861 857
f 857 861 876
f 857 876 858
f 858 876 859
f 859 876 861
f 861 874 877
f 861 877 878
f 861 878 862
f 865 867 870
f 865 870 869
f 867 879 870
f 870 879 880
f 870 880 871
f 871 880 872
f 872 881 873
f 872 880 882
f 872 882 881
f 873 881 883
f 873 883 874
f 874 883 884
f 874 884 877

