# https://github.com/mikedh/trimesh
v 0.00131085 0.03542415 0.13223454
v 0.00328071 0.03542415 0.13170062
v 0.00318481 0.03745470 0.13166315
v 0.00131085 0.03782982 0.13190670
v -0.00130960 0.03542415 0.13223454
v 0.00131085 -0.01180050 0.13183644
v 0.00321073 -0.01180050 0.13151795
v 0.00423454 0.03542415 0.12988810
v 0.00419825 -0.01180050 0.12988810
v 0.00378614 0.04329356 0.12463788
v 0.00285564 0.04479405 0.12622560
v 0.00131085 0.04492453 0.12653002
v -0.00130960 0.03782982 0.13190670
v -0.00318356 0.03745470 0.13166315
v -0.00327946 0.03542415 0.13170062
v -0.00320948 -0.01180050 0.13151795
v -0.00130960 -0.01180050 0.13183644
v 0.00131085 -0.01396153 0.13151795
v 0.00301374 -0.01368426 0.13141024
v 0.00449114 0.03542415 0.12726533
v 0.00417234 0.04066771 0.12463788
v 0.01313005 -0.01061804 0.08664525
v 0.01313005 -0.01045495 0.08664525
v 0.00361507 -0.01450790 0.13004266
v 0.00419048 -0.01705221 0.12726533
v 0.01257019 -0.01442635 0.08790980
v 0.01285530 -0.01162109 0.08767563
v 0.01322335 -0.01016953 0.08439249
v 0.00386390 0.03804185 0.08439249
v 0.00364358 0.03882471 0.08439249
v 0.00321851 0.04017026 0.08439249
v 0.00306817 0.04494084 0.12463788
v 0.00131085 0.04527519 0.12463788
v -0.00130960 0.04528335 0.12463788
v -0.00130960 0.04492453 0.12653002
v -0.00285698 0.04479405 0.12622560
v -0.00423329 0.03542415 0.12988810
v -0.00378230 0.04329356 0.12463788
v -0.00419960 -0.01180050 0.12988810
v -0.00301509 -0.01368426 0.13141024
v -0.00130960 -0.01396153 0.13151795
v 0.00131085 -0.01527445 0.13093252
v 0.00285045 -0.01855270 0.12870317
v 0.00324442 -0.01705221 0.12919494
v 0.01318707 -0.01027554 0.08528235
v 0.01323113 -0.01150692 0.08439249
v 0.01290973 -0.01442635 0.08528235
v 0.00265865 -0.03677875 0.11809503
v 0.00363321 -0.03541689 0.11676959
v 0.00412050 -0.03279919 0.11676959
v 0.00437451 -0.02754748 0.11939235
v 0.00439524 -0.01967806 0.12463788
v 0.00131085 0.04110807 0.08439249
v 0.00298264 0.04486745 0.12251625
v 0.00152338 0.04501423 0.12179031
v -0.00152473 0.04501423 0.12179031
v -0.00298139 0.04486745 0.12251625
v -0.00306692 0.04494084 0.12463788
v -0.00416331 0.04066771 0.12463788
v -0.00448989 0.03542415 0.12726533
v -0.01314694 -0.01290140 0.08671082
v -0.01314694 -0.01321944 0.08671082
v -0.00321726 0.04017026 0.08439249
v -0.00386524 0.03804185 0.08439249
v -0.01286960 -0.00918279 0.08439249
v -0.00421256 -0.01705221 0.12726533
v -0.00361900 -0.01450790 0.13004266
v -0.00325095 -0.01705221 0.12919494
v -0.00284920 -0.01855270 0.12870317
v -0.00130960 -0.01527445 0.13093252
v 0.00131085 -0.03681953 0.11810907
v 0.01297971 -0.01442635 0.08439249
v 0.01219177 -0.01705221 0.08528235
v 0.01230581 -0.01697066 0.08439249
v 0.00131085 -0.03801828 0.11676959
v 0.00308632 -0.03731697 0.11676959
v -0.00130960 0.04110807 0.08439249
v -0.00255113 0.04054538 0.08439249
v -0.01324025 -0.01215115 0.08439249
v -0.01321174 -0.01242842 0.08528235
v -0.01321174 -0.01345593 0.08528235
v -0.01284109 -0.01476885 0.08528235
v -0.00308507 -0.03731697 0.11676959
v -0.00363196 -0.03541689 0.11676959
v -0.00411925 -0.03279919 0.11676959
v -0.00437326 -0.02754748 0.11939235
v -0.00441214 -0.01967806 0.12463788
v -0.00265740 -0.03677875 0.11809503
v -0.00130960 -0.03681953 0.11810907
v -0.00130960 -0.03802644 0.11676959
v 0.00320555 -0.03746376 0.11474631
v 0.01151268 -0.01847115 0.08439249
v 0.00131085 -0.03792858 0.11436695
v -0.01324802 -0.01290140 0.08439249
v -0.01324802 -0.01358640 0.08439249
v -0.01300438 -0.01445082 0.08439249
v -0.01287738 -0.01489933 0.08439249
v -0.01215682 -0.01705221 0.08528235
v -0.00320430 -0.03746376 0.11474631
v -0.01223199 -0.01705221 0.08439249
v -0.00130960 -0.03792858 0.11436695
v 0.00393388 -0.02479114 0.08439249
v 0.00525058 -0.02429370 0.08439249
v 0.00600224 -0.02400013 0.08439249
v 0.00645064 -0.02375548 0.08439249
v 0.00731635 -0.02324173 0.08439249
v 0.00836867 -0.02237731 0.08439249
v 0.00889483 -0.02192880 0.08439249
v 0.00934324 -0.02149659 0.08439249
v 0.01020635 -0.02061587 0.08439249
v 0.01078694 -0.01975146 0.08439249
v 0.01107205 -0.01930294 0.08439249
v -0.00130960 -0.02533752 0.08439249
v 0.00131085 -0.02532121 0.08439249
v -0.00879768 -0.02195326 0.08439249
v -0.00727622 -0.02326619 0.08439249
v -0.00596470 -0.02397566 0.08439249
v -0.00393522 -0.02477484 0.08439249
v -0.01116152 -0.01922955 0.08439249
v -0.01047207 -0.02009396 0.08439249
v -0.01011179 -0.02054248 0.08439249
v -0.00220381 -0.02514996 0.08439249
f 1 2 3
f 1 3 4
f 1 4 13
f 1 13 5
f 1 5 17
f 1 17 6
f 1 6 7
f 1 7 2
f 2 8 3
f 2 7 9
f 2 9 8
f 3 8 10
f 3 10 11
f 3 11 4
f 4 11 12
f 4 12 35
f 4 35 13
f 5 13 14
f 5 14 15
f 5 15 16
f 5 16 17
f 6 17 41
f 6 41 18
f 6 18 19
f 6 19 7
f 7 19 9
f 8 20 21
f 8 21 10
f 8 9 22
f 8 22 23
f 8 23 20
f 9 19 24
f 9 24 25
f 9 25 26
f 9 26 27
f 9 27 22
f 10 21 28
f 10 28 29
f 10 29 30
f 10 30 31
f 10 31 32
f 10 32 11
f 11 32 33
f 11 33 12
f 12 33 34
f 12 34 35
f 13 35 36
f 13 36 14
f 14 37 15
f 14 36 38
f 14 38 37
f 15 37 39
f 15 39 16
f 16 39 40
f 16 40 17
f 17 40 41
f 18 41 70
f 18 70 42
f 18 42 19
f 19 42 43
f 19 43 44
f 19 44 24
f 20 23 21
f 21 23 45
f 21 45 28
f 22 46 23
f 22 27 26
f 22 26 47
f 22 47 46
f 23 46 45
f 24 44 48
f 24 48 25
f 25 48 49
f 25 49 50
f 25 50 51
f 25 51 52
f 25 52 26
f 26 52 51
f 26 51 50
f 26 50 49
f 26 49 47
f 28 45 46
f 28 46 72
f 28 72 74
f 28 74 92
f 28 92 112
f 28 112 111
f 28 111 110
f 28 110 109
f 28 109 108
f 28 108 107
f 28 107 106
f 28 106 105
f 28 105 104
f 28 104 103
f 28 103 102
f 28 102 114
f 28 114 113
f 28 113 122
f 28 122 118
f 28 118 117
f 28 117 116
f 28 116 115
f 28 115 121
f 28 121 120
f 28 120 119
f 28 119 100
f 28 100 97
f 28 97 96
f 28 96 95
f 28 95 94
f 28 94 79
f 28 79 65
f 28 65 64
f 28 64 63
f 28 63 78
f 28 78 77
f 28 77 53
f 28 53 31
f 28 31 30
f 28 30 29
f 31 53 54
f 31 54 32
f 32 54 33
f 33 55 34
f 33 54 55
f 34 55 56
f 34 56 57
f 34 57 58
f 34 58 36
f 34 36 35
f 36 58 38
f 37 38 59
f 37 59 60
f 37 60 61
f 37 61 62
f 37 62 39
f 38 58 63
f 38 63 64
f 38 64 65
f 38 65 59
f 39 62 66
f 39 66 67
f 39 67 40
f 40 67 68
f 40 68 69
f 40 69 70
f 40 70 41
f 42 70 89
f 42 89 71
f 42 71 48
f 42 48 43
f 43 48 44
f 46 47 72
f 47 49 73
f 47 73 74
f 47 74 72
f 48 71 75
f 48 75 76
f 48 76 49
f 49 76 73
f 53 55 54
f 53 77 56
f 53 56 55
f 56 77 57
f 57 77 78
f 57 78 63
f 57 63 58
f 59 65 79
f 59 79 80
f 59 80 61
f 59 61 60
f 61 80 81
f 61 81 62
f 62 81 82
f 62 82 83
f 62 83 84
f 62 84 85
f 62 85 86
f 62 86 87
f 62 87 66
f 66 87 86
f 66 86 85
f 66 85 84
f 66 84 88
f 66 88 67
f 67 88 68
f 68 88 69
f 69 88 70
f 70 88 89
f 71 89 90
f 71 90 75
f 73 76 74
f 74 76 91
f 74 91 92
f 75 90 93
f 75 93 91
f 75 91 76
f 79 94 80
f 80 94 95
f 80 95 81
f 81 95 96
f 81 96 82
f 82 96 97
f 82 97 98
f 82 98 83
f 83 99 90
f 83 90 88
f 83 88 84
f 83 98 100
f 83 100 99
f 88 90 89
f 90 99 101
f 90 101 93
f 91 93 102
f 91 102 103
f 91 103 104
f 91 104 105
f 91 105 106
f 91 106 107
f 91 107 108
f 91 108 109
f 91 109 110
f 91 110 111
f 91 111 112
f 91 112 92
f 93 101 113
f 93 113 114
f 93 114 102
f 97 100 98
f 99 115 116
f 99 116 117
f 99 117 118
f 99 118 101
f 99 100 119
f 99 119 120
f 99 120 121
f 99 121 115
f 101 118 122
f 101 122 113

