# https://github.com/mikedh/trimesh
v -0.00315753 0.02297721 0.08438494
v -0.00364815 0.02492883 0.08265605
v -0.00298936 0.02328295 0.08265605
v 0.00315733 0.02297721 0.08438494
v -0.00381632 0.02492883 0.08438494
v -0.00377852 0.02755307 0.08003260
v -0.00331412 0.03015438 0.07480291
v -0.00321153 0.02760912 0.07751810
v -0.00308038 0.02506132 0.08023330
v 0.00298916 0.02328295 0.08265605
v -0.00272322 0.02354282 0.08123967
v 0.00338181 0.02354028 0.08438494
v 0.00364796 0.02492883 0.08265605
v -0.00393820 0.02755307 0.08438494
v -0.00393898 0.02755307 0.08265605
v -0.00385026 0.03017731 0.07740915
v -0.00379163 0.04329595 0.06166561
v -0.00371295 0.04067171 0.06429192
v -0.00338587 0.03270473 0.07208772
v -0.00322387 0.04333926 0.05912531
v -0.00301558 0.03101554 0.07291346
v -0.00294230 0.02851869 0.07568886
v -0.00284587 0.02602439 0.07846426
v 0.00272302 0.02354282 0.08123967
v 0.00308019 0.02506132 0.08023330
v -0.00276102 0.03923475 0.06282968
v 0.00381613 0.02492883 0.08438494
v 0.00321210 0.02760912 0.07751810
v 0.00331393 0.03015438 0.07480291
v 0.00377833 0.02755307 0.08003260
v -0.00393435 0.02928303 0.08438494
v -0.00392895 0.03804747 0.07740915
v -0.00393358 0.03804747 0.07478284
v -0.00393666 0.03804747 0.07215940
v -0.00393743 0.03542578 0.07478284
v -0.00393975 0.03542578 0.07215940
v -0.00390581 0.03280154 0.07478284
v -0.00380398 0.04592019 0.05904217
v -0.00293921 0.04424373 0.05730754
v -0.00287287 0.04172905 0.06005714
v -0.00242622 0.03923475 0.06282968
v 0.00275928 0.03923475 0.06283254
v 0.00284568 0.02602439 0.07846426
v 0.00294210 0.02851869 0.07568886
v 0.00391564 0.02582311 0.08438494
v 0.00301616 0.03101554 0.07291346
v 0.00322290 0.04333926 0.05912818
v 0.00338567 0.03270473 0.07208772
v 0.00371198 0.04067171 0.06429192
v 0.00379067 0.04329595 0.06166561
v 0.00385007 0.03017731 0.07740915
v -0.00391969 0.03542578 0.08438494
v -0.00392278 0.03804747 0.08003260
v -0.00392740 0.04067171 0.07215940
v -0.00392972 0.04329595 0.06429192
v -0.00393898 0.03804747 0.06953881
v -0.00384795 0.04592019 0.06166561
v -0.00324084 0.04805525 0.05904217
v -0.00301790 0.04772149 0.05690040
v -0.00315598 0.04592019 0.05679145
v -0.00024232 0.04720683 0.05509696
v 0.00293979 0.04424373 0.05730754
v -0.00226499 0.04172905 0.06005714
v 0.00287113 0.04173160 0.06006000
v 0.00393955 0.02755307 0.08265605
v 0.00393801 0.02755307 0.08438494
v 0.00390561 0.03280154 0.07478284
v 0.00380378 0.04592019 0.05904217
v 0.00393955 0.03542578 0.07215940
v -0.00386492 0.03804747 0.08438494
v -0.00391583 0.03804747 0.08265605
v -0.00391661 0.04329595 0.06953881
v -0.00319610 0.04796863 0.06166561
v -0.00387109 0.04329595 0.07215940
v -0.00322233 0.04564503 0.07215940
v -0.00131151 0.04900303 0.05904217
v -0.00119503 0.04787945 0.05618361
v -0.00024232 0.04724250 0.05509696
v 0.00024290 0.04720683 0.05509696
v 0.00315656 0.04592019 0.05678858
v 0.00393878 0.03804747 0.06953881
v 0.00393724 0.03542578 0.07478284
v 0.00393647 0.02844735 0.08438494
v 0.00393647 0.03804747 0.07215940
v 0.00301770 0.04772149 0.05690040
v 0.00324142 0.04805525 0.05904217
v 0.00384775 0.04592019 0.06166561
v 0.00393030 0.04329595 0.06429192
v -0.00321847 0.04016979 0.08438494
v -0.00131151 0.04882723 0.06166561
v -0.00131151 0.04680428 0.07215940
v -0.00299398 0.04520171 0.07404312
v 0.00131132 0.04900303 0.05904217
v 0.00119561 0.04787945 0.05618361
v 0.00024290 0.04724250 0.05509696
v 0.00393261 0.03804747 0.07478284
v 0.00392798 0.03804747 0.07740915
v 0.00393030 0.03107159 0.08438494
v 0.00319667 0.04796863 0.06166561
v 0.00322213 0.04564503 0.07215940
v 0.00387012 0.04329595 0.07215940
v 0.00391641 0.04329595 0.06953881
v 0.00391641 0.03804747 0.08265605
v 0.00392644 0.04067171 0.07215940
v -0.00255196 0.04054942 0.08438494
v 0.00131132 0.04882723 0.06166561
v 0.00131132 0.04680428 0.07215940
v -0.00131151 0.04110739 0.08438494
v 0.00391795 0.03631751 0.08438494
v 0.00299379 0.04520426 0.07404312
v 0.00321827 0.04016979 0.08438494
v 0.00364410 0.03882965 0.08438494
v 0.00386472 0.03804747 0.08438494
v 0.00131132 0.04110739 0.08438494
f 1 2 3
f 1 3 10
f 1 10 4
f 1 4 12
f 1 12 27
f 1 27 45
f 1 45 66
f 1 66 83
f 1 83 98
f 1 98 109
f 1 109 113
f 1 113 112
f 1 112 111
f 1 111 114
f 1 114 108
f 1 108 105
f 1 105 89
f 1 89 70
f 1 70 52
f 1 52 31
f 1 31 14
f 1 14 5
f 1 5 2
f 2 5 6
f 2 6 7
f 2 7 8
f 2 8 9
f 2 9 3
f 3 9 11
f 3 11 24
f 3 24 10
f 4 10 13
f 4 13 12
f 5 14 15
f 5 15 16
f 5 16 6
f 6 16 17
f 6 17 18
f 6 18 19
f 6 19 7
f 7 19 20
f 7 20 21
f 7 21 8
f 8 21 22
f 8 22 9
f 9 22 23
f 9 23 11
f 10 24 25
f 10 25 13
f 11 23 26
f 11 26 41
f 11 41 24
f 12 13 27
f 13 25 28
f 13 28 29
f 13 29 30
f 13 30 27
f 14 31 32
f 14 32 33
f 14 33 34
f 14 34 35
f 14 35 36
f 14 36 15
f 15 36 37
f 15 37 16
f 16 37 17
f 17 38 20
f 17 20 18
f 17 37 36
f 17 36 38
f 18 20 19
f 20 38 39
f 20 39 21
f 21 39 40
f 21 40 22
f 22 40 23
f 23 40 26
f 24 41 42
f 24 42 43
f 24 43 25
f 25 43 44
f 25 44 28
f 26 40 63
f 26 63 41
f 27 30 45
f 28 44 46
f 28 46 29
f 29 46 47
f 29 47 48
f 29 48 30
f 30 48 49
f 30 49 50
f 30 50 51
f 30 51 45
f 31 52 32
f 32 52 53
f 32 53 54
f 32 54 33
f 33 54 55
f 33 55 34
f 34 55 56
f 34 56 35
f 35 56 36
f 36 56 38
f 38 56 55
f 38 55 57
f 38 57 58
f 38 58 59
f 38 59 60
f 38 60 39
f 39 60 61
f 39 61 79
f 39 79 62
f 39 62 63
f 39 63 40
f 41 63 42
f 42 63 64
f 42 64 43
f 43 64 44
f 44 64 46
f 45 65 66
f 45 51 67
f 45 67 65
f 46 64 62
f 46 62 47
f 47 62 68
f 47 68 50
f 47 50 49
f 47 49 48
f 50 68 69
f 50 69 67
f 50 67 51
f 52 70 71
f 52 71 53
f 53 71 54
f 54 72 55
f 54 71 72
f 55 72 57
f 57 73 58
f 57 72 74
f 57 74 75
f 57 75 73
f 58 76 59
f 58 73 76
f 59 77 78
f 59 78 60
f 59 76 77
f 60 78 61
f 61 78 95
f 61 95 79
f 62 79 80
f 62 80 68
f 62 64 63
f 65 67 69
f 65 69 81
f 65 81 82
f 65 82 66
f 66 82 84
f 66 84 83
f 68 80 85
f 68 85 86
f 68 86 87
f 68 87 88
f 68 88 81
f 68 81 69
f 70 89 75
f 70 75 74
f 70 74 71
f 71 74 72
f 73 90 76
f 73 75 91
f 73 91 90
f 75 89 92
f 75 92 91
f 76 93 94
f 76 94 77
f 76 90 106
f 76 106 93
f 77 94 95
f 77 95 78
f 79 95 80
f 80 95 85
f 81 84 82
f 81 88 84
f 83 96 97
f 83 97 98
f 83 84 96
f 84 88 96
f 85 95 94
f 85 94 93
f 85 93 86
f 86 93 99
f 86 99 87
f 87 99 100
f 87 100 101
f 87 101 102
f 87 102 88
f 88 102 103
f 88 103 104
f 88 104 97
f 88 97 96
f 89 105 92
f 90 91 107
f 90 107 106
f 91 92 108
f 91 108 114
f 91 114 107
f 92 105 108
f 93 106 99
f 97 103 109
f 97 109 98
f 97 104 103
f 99 106 107
f 99 107 100
f 100 107 110
f 100 110 111
f 100 111 112
f 100 112 113
f 100 113 101
f 101 113 103
f 101 103 102
f 103 113 109
f 107 114 110
f 110 114 111

