# https://github.com/mikedh/trimesh
v -0.02201315 -0.01181253 0.06691413
v -0.02201315 -0.01181253 0.07215883
v -0.02185801 -0.00918707 0.06691413
v -0.02176320 -0.00918707 0.06429179
v -0.02190111 -0.01181253 0.06429179
v -0.02180630 -0.01442936 0.06429179
v -0.02190542 -0.01442936 0.06691413
v -0.02150032 -0.01181253 0.07428787
v -0.02142275 -0.00918707 0.07420709
v -0.02185801 -0.00918707 0.07215883
v -0.02190542 -0.01442936 0.07215883
v -0.02144861 -0.01442936 0.07423017
v -0.02135811 -0.00660478 0.06691413
v -0.02131501 -0.00671274 0.06429179
v -0.02118142 -0.00717479 0.06273973
v -0.02132794 -0.00918707 0.06256087
v -0.02139258 -0.01181253 0.06249163
v -0.02134949 -0.01442936 0.06253779
v -0.02119435 -0.01660141 0.06272242
v -0.02098749 -0.01835460 0.06304552
v -0.02129346 -0.01730960 0.06406965
v -0.02143999 -0.01705483 0.06691413
v -0.01324760 -0.01358731 0.08438492
v -0.01324760 -0.01290504 0.08438492
v -0.01323898 -0.01215799 0.08438492
v -0.01286836 -0.00919138 0.08438492
v -0.02123744 -0.00702797 0.07391572
v -0.02135811 -0.00660478 0.07215883
v -0.02143999 -0.01705483 0.07215883
v -0.02102627 -0.01848415 0.07355800
v -0.02121590 -0.01705483 0.07388399
v -0.02097887 -0.00529205 0.06691413
v -0.02094009 -0.00540001 0.06429179
v -0.01755712 -0.00656160 0.05491596
v -0.01789757 -0.00802547 0.05491596
v -0.01816045 -0.00915684 0.05491596
v -0.01838023 0.00001933 0.06295898
v -0.01826819 -0.01181253 0.05491596
v -0.01825095 -0.01309504 0.05491596
v -0.01822509 -0.01461504 0.05491596
v -0.02102627 -0.01848415 0.06479376
v -0.01769933 -0.01705483 0.05491596
v -0.01669521 -0.01968029 0.05491596
v -0.01845780 -0.02375235 0.06287243
v -0.01938435 -0.02230144 0.06429179
v -0.02061256 -0.01948597 0.06406965
v -0.02104782 -0.01854461 0.06691413
v -0.01287698 -0.01490004 0.08438492
v -0.01210558 -0.00656160 0.08438492
v -0.02097887 -0.00529205 0.07215883
v -0.01880687 -0.00131499 0.07405420
v -0.01842764 0.00008411 0.07359838
v -0.02045742 -0.00393614 0.07215883
v -0.02104782 -0.01854461 0.07215883
v -0.01223055 -0.01705483 0.08438492
v -0.02059532 -0.01985734 0.07215883
v -0.01949640 -0.02230144 0.07215883
v -0.01850952 -0.02382576 0.07373974
v -0.01893185 -0.02230144 0.07419556
v -0.01268305 -0.01554777 0.08438492
v -0.02045742 -0.00393614 0.06691413
v -0.02034537 -0.00393614 0.06429179
v -0.01703566 -0.00531364 0.05491596
v -0.01498433 -0.00147476 0.05491596
v -0.01636769 -0.00372886 0.05491596
v -0.01914302 -0.00131499 0.06429179
v -0.01842333 0.00007979 0.06429179
v -0.01737181 0.00139252 0.06429179
v -0.01605740 0.00296435 0.06429179
v -0.01592381 0.00281753 0.06280031
v -0.01352341 0.00043388 0.05491596
v -0.02059532 -0.01985734 0.06691413
v -0.01591519 -0.02127371 0.05491596
v -0.01854399 -0.02387758 0.06429179
v -0.01553595 -0.02183507 0.05491596
v -0.01502743 -0.02258644 0.05491596
v -0.01371734 -0.02428349 0.05491596
v -0.01603586 -0.02656782 0.06270223
v -0.01623840 -0.02679237 0.06429179
v -0.01754849 -0.02519031 0.06429179
v -0.01949640 -0.02230144 0.06691413
v -0.01139451 -0.00523160 0.08438492
v -0.01099372 -0.00448887 0.08438492
v -0.01845780 0.00012729 0.07215883
v -0.01925075 -0.00131499 0.07215883
v -0.01065758 -0.00404409 0.08438492
v -0.01598414 0.00288230 0.07383783
v -0.01610481 0.00301617 0.07215883
v -0.01741921 0.00144002 0.07215883
v -0.01116179 -0.01923120 0.08438492
v -0.01857847 -0.02393372 0.07215883
v -0.01760452 -0.02524645 0.07215883
v -0.01629443 -0.02685714 0.07215883
v -0.01610912 -0.02664986 0.07395899
v -0.01925075 -0.00131499 0.06691413
v -0.01845780 0.00012729 0.06691413
v -0.01741921 0.00144002 0.06691413
v -0.01610481 0.00301617 0.06691413
v -0.01470421 0.00432890 0.06691413
v -0.01465250 0.00427708 0.06429179
v -0.01323467 0.00533936 0.06288397
v -0.01213143 0.00174661 0.05491596
v -0.01857847 -0.02393372 0.06691413
v -0.01760452 -0.02524645 0.06691413
v -0.01241586 -0.02559622 0.05491596
v -0.01340705 -0.02909828 0.06275127
v -0.01492400 -0.02810510 0.06429179
v -0.01629443 -0.02685714 0.06691413
v -0.00995944 -0.00317613 0.08438492
v -0.01330362 0.00539549 0.07372244
v -0.01470421 0.00432890 0.07215883
v -0.00909753 -0.00236431 0.08438492
v -0.00864934 -0.00194545 0.08438492
v -0.01047227 -0.02009484 0.08438492
v -0.01498433 -0.02816555 0.07215883
v -0.01348893 -0.02916737 0.07390129
v -0.00879587 -0.02195598 0.08438492
v -0.01011027 -0.02054393 0.08438492
v -0.01339412 0.00546890 0.06691413
v -0.01334241 0.00542572 0.06429179
v -0.01180822 0.00640163 0.06429179
v -0.00988618 0.00753300 0.06429179
v -0.00828735 0.00805550 0.06275127
v -0.00918372 0.00387117 0.05491596
v -0.00987325 0.00344798 0.05491596
v -0.01081703 0.00286503 0.05491596
v -0.01110577 -0.02671464 0.05491596
v -0.01025679 -0.02726737 0.05491596
v -0.00895101 -0.02811373 0.05491596
v -0.00858901 -0.03180148 0.06262433
v -0.01034298 -0.03139988 0.06429179
v -0.01180822 -0.03048874 0.06429179
v -0.01361391 -0.02926669 0.06429179
v -0.01498433 -0.02816555 0.06691413
v -0.01180822 0.00587913 0.07421575
v -0.00839508 0.00811164 0.07390129
v -0.00996806 0.00760209 0.07215883
v -0.01180822 0.00651391 0.07215883
v -0.01339412 0.00546890 0.07215883
v -0.00806325 -0.00150067 0.08438492
v -0.00690399 -0.00063703 0.08438492
v -0.01367424 -0.02931851 0.07215883
v -0.01180822 -0.03059238 0.07215883
v -0.01042056 -0.03144738 0.07215883
v -0.00869675 -0.03188352 0.07405131
v -0.01180822 -0.02972442 0.07439749
v -0.00727461 -0.02326440 0.08438492
v -0.01180822 0.00651391 0.06691413
v -0.00996806 0.00760209 0.06691413
v -0.00857608 0.00819368 0.06429179
v -0.00655923 0.00888460 0.06429179
v -0.00393473 0.00947619 0.06429179
v -0.00655923 0.00831891 0.06246855
v -0.00393473 0.00592231 0.05491596
v -0.00470614 0.00571936 0.05491596
v -0.00577059 0.00543436 0.05491596
v -0.00652044 0.00515367 0.05491596
v -0.00708068 0.00493776 0.05491596
v -0.00799430 0.00447572 0.05491596
v -0.00662818 -0.02921487 0.05491596
v -0.00393473 -0.02999647 0.05491596
v -0.00655923 -0.03293716 0.06429179
v -0.00902858 -0.03201739 0.06429179
v -0.01180822 -0.03059238 0.06691413
v -0.00911046 -0.03207784 0.06691413
v -0.01042056 -0.03144738 0.06691413
v -0.01367424 -0.02931851 0.06691413
v -0.00603778 -0.00009294 0.08438492
v -0.00558959 0.00017047 0.08438492
v -0.00655923 0.00843551 0.07429075
v -0.00393473 0.00961869 0.07215883
v -0.00655923 0.00899687 0.07215883
v -0.00865365 0.00823687 0.07215883
v -0.00911046 -0.03207784 0.07215883
v -0.00655923 -0.03307103 0.07215883
v -0.00655923 -0.03228080 0.07446962
v -0.00393473 -0.02477577 0.08438492
v -0.00596452 -0.02397258 0.08438492
v -0.00683073 -0.02350622 0.08438492
v -0.00865365 0.00823687 0.06691413
v -0.00655923 0.00899687 0.06691413
v -0.00393473 0.00961869 0.06691413
v -0.00131024 0.00983460 0.06429179
v -0.00131024 0.00635413 0.05491596
v -0.00131024 -0.03041102 0.05491596
v -0.00393473 -0.03357194 0.06429179
v -0.00655923 -0.03307103 0.06691413
v -0.00497764 0.00038638 0.08438492
v -0.00393473 0.00874641 0.07453885
v -0.00393473 0.00073184 0.08438492
v -0.00131024 0.00127161 0.08438492
v -0.00131024 0.00996847 0.07215883
v -0.00393473 -0.03369285 0.07215883
v -0.00020269 -0.03412899 0.07352049
v -0.00131024 -0.02534145 0.08438492
v -0.00220231 -0.02515145 0.08438492
v -0.00131024 0.00996847 0.06691413
v 0.00130995 0.00983460 0.06429179
v 0.00130995 0.00635413 0.05491596
v 0.00130995 -0.03041102 0.05491596
v -0.00117233 -0.03397785 0.06428313
v -0.00393473 -0.03369285 0.06691413
v -0.00131024 0.00891914 0.07464271
v 0.00130995 0.00128888 0.08438492
v 0.00130995 0.00996847 0.07215883
v -0.00161621 -0.03401239 0.07215883
v -0.00030612 -0.03413762 0.07215883
v 0.00020240 -0.03412899 0.07352049
v 0.00130995 -0.02532418 0.08438492
v 0.00130995 0.00996847 0.06691413
v 0.00393444 0.00961869 0.06691413
v 0.00393444 0.00947619 0.06429179
v 0.00280966 0.00610800 0.05491596
v 0.00243473 -0.03023829 0.05491596
v 0.00393444 -0.03357194 0.06429179
v 0.00117204 -0.03397785 0.06428313
v -0.00020269 -0.03412899 0.06515436
v -0.00161621 -0.03401239 0.06691413
v 0.00130995 0.00891914 0.07464271
v 0.00220202 0.00110320 0.08438492
v 0.00655894 0.00843551 0.07429075
v 0.00393444 0.00874641 0.07453885
v 0.00393444 0.00961869 0.07215883
v -0.00030612 -0.03413762 0.06691413
v 0.00030583 -0.03413762 0.07215883
v 0.00161592 -0.03401239 0.07215883
v 0.00393444 -0.03369285 0.07215883
v 0.00655894 -0.03307103 0.07215883
v 0.00655894 -0.03228080 0.07446962
v 0.00393444 -0.03258739 0.07465425
v 0.00393444 -0.02478872 0.08438492
v 0.00655894 0.00899687 0.06691413
v 0.00655894 0.00888460 0.06429179
v 0.00828705 0.00805550 0.06275127
v 0.00655894 0.00831891 0.06246855
v 0.00393444 0.00592231 0.05491596
v 0.00393444 -0.02999647 0.05491596
v 0.00655894 -0.03293716 0.06429179
v 0.00655894 -0.03307103 0.06691413
v 0.00393444 -0.03369285 0.06691413
v 0.00161592 -0.03401239 0.06691413
v 0.00020240 -0.03412899 0.06515436
v 0.00393444 0.00074047 0.08438492
v 0.00839479 0.00811164 0.07390129
v 0.00557637 0.00016183 0.08438492
v 0.00655894 0.00899687 0.07215883
v 0.00030583 -0.03413762 0.06691413
v 0.00911017 -0.03207784 0.07215883
v 0.00869646 -0.03188352 0.07405131
v 0.00524884 -0.02429645 0.08438492
v 0.00865336 0.00823687 0.06691413
v 0.00857579 0.00819368 0.06429179
v 0.00988588 0.00753300 0.06429179
v 0.01323438 0.00533936 0.06288397
v 0.00918343 0.00387117 0.05491596
v 0.00708470 0.00493776 0.05491596
v 0.00633053 0.00522277 0.05491596
v 0.00577030 0.00543436 0.05491596
v 0.00499458 -0.02968988 0.05491596
v 0.00858872 -0.03180148 0.06262433
v 0.00902829 -0.03201739 0.06429179
v 0.00911017 -0.03207784 0.06691413
v 0.01180793 0.00587913 0.07421575
v 0.01330333 0.00539549 0.07372244
v 0.00996776 0.00760209 0.07215883
v 0.00865336 0.00823687 0.07215883
v 0.00688646 -0.00058521 0.08438492
v 0.01042026 -0.03144738 0.07215883
v 0.01180793 -0.02972442 0.07439749
v 0.00731310 -0.02324281 0.08438492
v 0.00645120 -0.02375235 0.08438492
v 0.00600301 -0.02400281 0.08438492
v 0.01348864 -0.02916737 0.07390129
v 0.00996776 0.00760209 0.06691413
v 0.01180793 0.00640163 0.06429179
v 0.01334212 0.00542572 0.06429179
v 0.01465652 0.00427708 0.06429179
v 0.01592352 0.00281753 0.06280031
v 0.01213114 0.00174661 0.05491596
v 0.01138129 0.00238571 0.05491596
v 0.01081674 0.00286503 0.05491596
v 0.00662789 -0.02921487 0.05491596
v 0.01034269 -0.03139988 0.06429179
v 0.00895072 -0.02811373 0.05491596
v 0.01340676 -0.02909828 0.06275127
v 0.01042026 -0.03144738 0.06691413
v 0.01598385 0.00288230 0.07383783
v 0.01470392 0.00432890 0.07215883
v 0.01339383 0.00546890 0.07215883
v 0.01180793 0.00651391 0.07215883
v 0.00865767 -0.00189795 0.08438492
v 0.01180793 -0.03059238 0.07215883
v 0.00836893 -0.02237917 0.08438492
v 0.01367395 -0.02931851 0.07215883
v 0.01498404 -0.02816555 0.07215883
v 0.01610883 -0.02664986 0.07395899
v 0.00889470 -0.02193007 0.08438492
v 0.01180793 0.00651391 0.06691413
v 0.01339383 0.00546890 0.06691413
v 0.01470392 0.00432890 0.06691413
v 0.01606142 0.00296435 0.06429179
v 0.01352312 0.00043388 0.05491596
v 0.01837994 0.00001933 0.06295898
v 0.01180793 -0.03048874 0.06429179
v 0.01180793 -0.03059238 0.06691413
v 0.01110548 -0.02671464 0.05491596
v 0.01185533 -0.02607555 0.05491596
v 0.01241557 -0.02559622 0.05491596
v 0.01603556 -0.02656782 0.06270223
v 0.01492371 -0.02810510 0.06429179
v 0.01361362 -0.02926669 0.06429179
v 0.01610883 0.00301617 0.07215883
v 0.00997207 -0.00320636 0.08438492
v 0.01103653 -0.00451909 0.08438492
v 0.01842734 0.00008411 0.07359838
v 0.01367395 -0.02931851 0.06691413
v 0.01629413 -0.02685714 0.07215883
v 0.01498404 -0.02816555 0.06691413
v 0.01850923 -0.02382576 0.07373974
v 0.01020479 -0.02061734 0.08438492
v 0.00934289 -0.02149393 0.08438492
v 0.01610883 0.00301617 0.06691413
v 0.01737151 0.00139252 0.06429179
v 0.01416954 -0.00040817 0.05491596
v 0.01842304 0.00007979 0.06429179
v 0.01914703 -0.00131499 0.06429179
v 0.02034508 -0.00393614 0.06429179
v 0.02093979 -0.00540001 0.06429179
v 0.02118113 -0.00717479 0.06273973
v 0.01755682 -0.00656160 0.05491596
v 0.01636740 -0.00372886 0.05491596
v 0.01498404 -0.00147476 0.05491596
v 0.01297581 -0.02503486 0.05491596
v 0.01623811 -0.02679237 0.06429179
v 0.01371704 -0.02428349 0.05491596
v 0.01845751 -0.02375235 0.06287243
v 0.01629413 -0.02685714 0.06691413
v 0.01741892 0.00144002 0.07215883
v 0.01881089 -0.00131499 0.07405420
v 0.01201479 -0.00656160 0.08438492
v 0.02123715 -0.00702797 0.07391284
v 0.02045713 -0.00393614 0.07215883
v 0.01925046 -0.00131499 0.07215883
v 0.01845751 0.00012729 0.07215883
v 0.01760854 -0.02524645 0.07215883
v 0.01857818 -0.02393372 0.07215883
v 0.01949611 -0.02230144 0.07215883
v 0.02103029 -0.01848415 0.07355800
v 0.01893156 -0.02230144 0.07419556
v 0.01107100 -0.01930461 0.08438492
v 0.01078657 -0.01975370 0.08438492
v 0.01741892 0.00144002 0.06691413
v 0.01845751 0.00012729 0.06691413
v 0.01925046 -0.00131499 0.06691413
v 0.02045713 -0.00393614 0.06691413
v 0.02097858 -0.00529205 0.06691413
v 0.02135782 -0.00660478 0.06691413
v 0.02131472 -0.00671274 0.06429179
v 0.01816016 -0.00915684 0.05491596
v 0.01781970 -0.00768433 0.05491596
v 0.02176291 -0.00918707 0.06429179
v 0.02132765 -0.00918707 0.06256087
v 0.01754820 -0.02519031 0.06429179
v 0.01446690 -0.02331621 0.05491596
v 0.01502714 -0.02258644 0.05491596
v 0.01541068 -0.02202507 0.05491596
v 0.01591490 -0.02127371 0.05491596
v 0.01636740 -0.02034961 0.05491596
v 0.01669492 -0.01968029 0.05491596
v 0.02098720 -0.01835029 0.06304841
v 0.01938406 -0.02230144 0.06429179
v 0.01854370 -0.02387758 0.06429179
v 0.01760854 -0.02524645 0.06691413
v 0.01941422 -0.00393614 0.07458501
v 0.01254917 -0.00815070 0.08438492
v 0.01293702 -0.00930798 0.08438492
v 0.01322145 -0.01017593 0.08438492
v 0.02142246 -0.00918707 0.07420421
v 0.02185772 -0.00918707 0.07215883
v 0.02135782 -0.00660478 0.07215883
v 0.02097858 -0.00529205 0.07215883
v 0.01857818 -0.02393372 0.06691413
v 0.01949611 -0.02230144 0.06691413
v 0.02059503 -0.01985302 0.07215883
v 0.02104753 -0.01854461 0.07215883
v 0.02143970 -0.01705483 0.07215883
v 0.02190512 -0.01442936 0.07215883
v 0.02121560 -0.01705483 0.07388110
v 0.01230783 -0.01697278 0.08438492
v 0.02185772 -0.00918707 0.06691413
v 0.01822480 -0.01063366 0.05491596
v 0.02201286 -0.01181253 0.06691413
v 0.02190081 -0.01181253 0.06429179
v 0.02139229 -0.01181253 0.06249163
v 0.01826789 -0.01181253 0.05491596
v 0.01769904 -0.01705483 0.05491596
v 0.01800070 -0.01565573 0.05491596
v 0.01822480 -0.01461504 0.05491596
v 0.02119405 -0.01660141 0.06272242
v 0.02180601 -0.01442936 0.06429179
v 0.02129318 -0.01730960 0.06406965
v 0.02103029 -0.01848415 0.06479664
v 0.02061227 -0.01948597 0.06406965
v 0.02059503 -0.01985302 0.06691413
v 0.01323007 -0.01151026 0.08438492
v 0.02150003 -0.01181253 0.07428498
v 0.02201286 -0.01181253 0.07215883
v 0.02104753 -0.01854461 0.06691413
v 0.02143970 -0.01705483 0.06691413
v 0.02144832 -0.01442936 0.07423017
v 0.02190512 -0.01442936 0.06691413
v 0.01298012 -0.01442936 0.08438492
v 0.02134920 -0.01442936 0.06253779
f 1 2 10
f 1 10 3
f 1 3 4
f 1 4 5
f 1 5 6
f 1 6 7
f 1 7 11
f 1 11 2
f 2 8 9
f 2 9 10
f 2 11 12
f 2 12 8
f 3 10 28
f 3 28 13
f 3 13 14
f 3 14 4
f 4 14 15
f 4 15 16
f 4 16 5
f 5 16 17
f 5 17 18
f 5 18 6
f 6 18 19
f 6 19 20
f 6 20 21
f 6 21 7
f 7 21 22
f 7 22 29
f 7 29 11
f 8 12 23
f 8 23 24
f 8 24 25
f 8 25 9
f 9 26 27
f 9 27 10
f 9 25 26
f 10 27 28
f 11 29 30
f 11 30 31
f 11 31 12
f 12 31 23
f 13 28 50
f 13 50 32
f 13 32 33
f 13 33 14
f 14 33 15
f 15 34 35
f 15 35 36
f 15 36 16
f 15 33 37
f 15 37 34
f 16 38 17
f 16 36 38
f 17 39 40
f 17 40 18
f 17 38 39
f 18 40 19
f 19 40 20
f 20 41 21
f 20 40 42
f 20 42 43
f 20 43 44
f 20 44 45
f 20 45 46
f 20 46 41
f 21 41 22
f 22 41 47
f 22 47 54
f 22 54 29
f 23 31 48
f 23 48 60
f 23 60 55
f 23 55 90
f 23 90 114
f 23 114 118
f 23 118 117
f 23 117 147
f 23 147 179
f 23 179 178
f 23 178 177
f 23 177 196
f 23 196 195
f 23 195 209
f 23 209 231
f 23 231 250
f 23 250 272
f 23 272 271
f 23 271 270
f 23 270 293
f 23 293 297
f 23 297 321
f 23 321 320
f 23 320 351
f 23 351 350
f 23 350 389
f 23 389 412
f 23 412 405
f 23 405 377
f 23 377 376
f 23 376 375
f 23 375 340
f 23 340 314
f 23 314 313
f 23 313 291
f 23 291 267
f 23 267 245
f 23 245 243
f 23 243 220
f 23 220 204
f 23 204 191
f 23 191 190
f 23 190 188
f 23 188 169
f 23 169 168
f 23 168 141
f 23 141 140
f 23 140 113
f 23 113 112
f 23 112 109
f 23 109 86
f 23 86 83
f 23 83 82
f 23 82 49
f 23 49 26
f 23 26 25
f 23 25 24
f 26 49 27
f 27 50 28
f 27 49 51
f 27 51 52
f 27 52 53
f 27 53 50
f 29 54 30
f 30 55 31
f 30 54 56
f 30 56 57
f 30 57 58
f 30 58 59
f 30 59 55
f 31 55 60
f 31 60 48
f 32 50 53
f 32 53 61
f 32 61 33
f 33 61 62
f 33 62 37
f 34 63 65
f 34 65 64
f 34 64 71
f 34 71 102
f 34 102 126
f 34 126 125
f 34 125 124
f 34 124 159
f 34 159 158
f 34 158 157
f 34 157 156
f 34 156 155
f 34 155 154
f 34 154 184
f 34 184 199
f 34 199 213
f 34 213 236
f 34 236 258
f 34 258 257
f 34 257 256
f 34 256 255
f 34 255 281
f 34 281 280
f 34 280 279
f 34 279 302
f 34 302 324
f 34 324 332
f 34 332 331
f 34 331 330
f 34 330 360
f 34 360 359
f 34 359 391
f 34 391 395
f 34 395 398
f 34 398 397
f 34 397 396
f 34 396 369
f 34 369 368
f 34 368 367
f 34 367 366
f 34 366 365
f 34 365 364
f 34 364 335
f 34 335 333
f 34 333 308
f 34 308 307
f 34 307 306
f 34 306 284
f 34 284 282
f 34 282 259
f 34 259 237
f 34 237 214
f 34 214 200
f 34 200 185
f 34 185 161
f 34 161 160
f 34 160 129
f 34 129 128
f 34 128 127
f 34 127 105
f 34 105 77
f 34 77 76
f 34 76 75
f 34 75 73
f 34 73 43
f 34 43 42
f 34 42 40
f 34 40 39
f 34 39 38
f 34 38 36
f 34 36 35
f 34 37 63
f 37 64 65
f 37 65 63
f 37 62 66
f 37 66 67
f 37 67 68
f 37 68 69
f 37 69 70
f 37 70 71
f 37 71 64
f 41 46 72
f 41 72 47
f 43 73 44
f 44 74 45
f 44 73 75
f 44 75 76
f 44 76 77
f 44 77 78
f 44 78 79
f 44 79 80
f 44 80 74
f 45 74 81
f 45 81 72
f 45 72 46
f 47 72 56
f 47 56 54
f 49 82 51
f 51 82 83
f 51 83 52
f 52 84 85
f 52 85 53
f 52 83 86
f 52 86 87
f 52 87 88
f 52 88 89
f 52 89 84
f 53 85 95
f 53 95 61
f 55 59 90
f 56 72 81
f 56 81 57
f 57 81 103
f 57 103 91
f 57 91 58
f 58 90 59
f 58 91 92
f 58 92 93
f 58 93 94
f 58 94 90
f 61 95 66
f 61 66 62
f 66 95 67
f 67 95 96
f 67 96 97
f 67 97 68
f 68 97 98
f 68 98 69
f 69 98 99
f 69 99 100
f 69 100 70
f 70 100 101
f 70 101 102
f 70 102 71
f 74 103 81
f 74 80 104
f 74 104 103
f 77 105 78
f 78 105 106
f 78 106 107
f 78 107 79
f 79 107 108
f 79 108 80
f 80 108 104
f 84 96 95
f 84 95 85
f 84 89 97
f 84 97 96
f 86 109 87
f 87 110 111
f 87 111 88
f 87 109 112
f 87 112 113
f 87 113 110
f 88 98 97
f 88 97 89
f 88 111 99
f 88 99 98
f 90 94 114
f 91 103 104
f 91 104 92
f 92 104 108
f 92 108 93
f 93 108 134
f 93 134 115
f 93 115 94
f 94 115 116
f 94 116 117
f 94 117 118
f 94 118 114
f 99 111 139
f 99 139 119
f 99 119 120
f 99 120 100
f 100 120 101
f 101 120 121
f 101 121 122
f 101 122 123
f 101 123 124
f 101 124 125
f 101 125 126
f 101 126 102
f 105 127 106
f 106 127 128
f 106 128 129
f 106 129 130
f 106 130 131
f 106 131 132
f 106 132 133
f 106 133 107
f 107 133 134
f 107 134 108
f 110 135 136
f 110 136 137
f 110 137 138
f 110 138 139
f 110 139 111
f 110 113 140
f 110 140 141
f 110 141 135
f 115 134 167
f 115 167 142
f 115 142 116
f 116 142 143
f 116 143 144
f 116 144 145
f 116 145 146
f 116 146 147
f 116 147 117
f 119 139 138
f 119 138 148
f 119 148 120
f 120 148 121
f 121 148 149
f 121 149 122
f 122 149 150
f 122 150 123
f 123 150 151
f 123 151 152
f 123 152 153
f 123 153 154
f 123 154 155
f 123 155 156
f 123 156 157
f 123 157 158
f 123 158 159
f 123 159 124
f 129 160 130
f 130 160 161
f 130 161 162
f 130 162 163
f 130 163 131
f 131 164 132
f 131 163 165
f 131 165 166
f 131 166 164
f 132 164 133
f 133 164 167
f 133 167 134
f 135 141 168
f 135 168 169
f 135 169 136
f 136 170 171
f 136 171 172
f 136 172 173
f 136 173 137
f 136 169 170
f 137 173 180
f 137 180 149
f 137 149 148
f 137 148 138
f 142 167 164
f 142 164 143
f 143 164 166
f 143 166 144
f 144 166 165
f 144 165 174
f 144 174 145
f 145 174 175
f 145 175 176
f 145 176 177
f 145 177 178
f 145 178 179
f 145 179 147
f 145 147 146
f 149 180 150
f 150 180 181
f 150 181 151
f 151 181 182
f 151 182 152
f 152 182 183
f 152 183 184
f 152 184 154
f 152 154 153
f 161 185 186
f 161 186 162
f 162 186 187
f 162 187 163
f 163 187 165
f 165 187 175
f 165 175 174
f 169 188 170
f 170 189 171
f 170 188 190
f 170 190 191
f 170 191 189
f 171 192 197
f 171 197 182
f 171 182 181
f 171 181 172
f 171 189 192
f 172 181 180
f 172 180 173
f 175 187 202
f 175 202 193
f 175 193 194
f 175 194 176
f 176 194 195
f 176 195 196
f 176 196 177
f 182 197 183
f 183 197 210
f 183 210 198
f 183 198 199
f 183 199 184
f 185 200 216
f 185 216 201
f 185 201 186
f 186 201 202
f 186 202 187
f 189 203 192
f 189 191 203
f 191 204 203
f 192 205 210
f 192 210 197
f 192 203 219
f 192 219 205
f 193 202 218
f 193 218 206
f 193 206 194
f 194 206 207
f 194 207 225
f 194 225 208
f 194 208 195
f 195 208 209
f 198 210 211
f 198 211 212
f 198 212 199
f 199 212 213
f 200 214 215
f 200 215 216
f 201 216 242
f 201 242 217
f 201 217 218
f 201 218 202
f 203 204 219
f 204 220 221
f 204 221 222
f 204 222 219
f 205 219 222
f 205 222 223
f 205 223 211
f 205 211 210
f 206 218 224
f 206 224 207
f 207 224 247
f 207 247 225
f 208 225 226
f 208 226 227
f 208 227 228
f 208 228 229
f 208 229 230
f 208 230 209
f 209 230 229
f 209 229 231
f 211 232 233
f 211 233 212
f 211 223 246
f 211 246 232
f 212 233 234
f 212 234 235
f 212 235 236
f 212 236 213
f 214 237 215
f 215 238 239
f 215 239 240
f 215 240 216
f 215 237 238
f 216 240 241
f 216 241 242
f 217 224 218
f 217 242 247
f 217 247 224
f 220 243 221
f 221 244 223
f 221 223 222
f 221 243 245
f 221 245 244
f 223 244 246
f 225 247 241
f 225 241 226
f 226 241 240
f 226 240 227
f 227 240 239
f 227 239 228
f 228 239 262
f 228 262 248
f 228 248 249
f 228 249 229
f 229 249 231
f 231 249 250
f 232 246 266
f 232 266 251
f 232 251 252
f 232 252 233
f 233 252 234
f 234 252 253
f 234 253 254
f 234 254 255
f 234 255 256
f 234 256 257
f 234 257 258
f 234 258 236
f 234 236 235
f 237 259 260
f 237 260 238
f 238 260 261
f 238 261 239
f 239 261 262
f 241 247 242
f 244 263 264
f 244 264 265
f 244 265 266
f 244 266 246
f 244 245 263
f 245 267 263
f 248 262 286
f 248 286 268
f 248 268 249
f 249 269 270
f 249 270 271
f 249 271 272
f 249 272 250
f 249 268 273
f 249 273 269
f 251 266 265
f 251 265 274
f 251 274 252
f 252 274 253
f 253 274 275
f 253 275 254
f 254 275 276
f 254 276 277
f 254 277 278
f 254 278 279
f 254 279 280
f 254 280 281
f 254 281 255
f 259 282 260
f 260 283 261
f 260 282 284
f 260 284 285
f 260 285 283
f 261 283 262
f 262 283 286
f 263 267 264
f 264 287 288
f 264 288 289
f 264 289 290
f 264 290 265
f 264 267 291
f 264 291 287
f 265 290 298
f 265 298 274
f 268 286 305
f 268 305 292
f 268 292 273
f 269 273 270
f 270 273 293
f 273 292 294
f 273 294 295
f 273 295 296
f 273 296 297
f 273 297 293
f 274 298 275
f 275 298 276
f 276 298 299
f 276 299 300
f 276 300 277
f 277 300 322
f 277 322 301
f 277 301 278
f 278 302 279
f 278 301 303
f 278 303 302
f 283 304 305
f 283 305 286
f 283 285 304
f 284 306 285
f 285 306 307
f 285 307 308
f 285 308 309
f 285 309 310
f 285 310 311
f 285 311 304
f 287 312 288
f 287 291 313
f 287 313 314
f 287 314 315
f 287 315 312
f 288 312 322
f 288 322 300
f 288 300 299
f 288 299 289
f 289 299 298
f 289 298 290
f 292 305 316
f 292 316 294
f 294 316 318
f 294 318 295
f 295 317 296
f 295 318 337
f 295 337 317
f 296 317 319
f 296 319 320
f 296 320 321
f 296 321 297
f 301 322 323
f 301 323 303
f 302 303 324
f 303 325 326
f 303 326 327
f 303 327 328
f 303 328 329
f 303 329 330
f 303 330 331
f 303 331 332
f 303 332 324
f 303 323 325
f 304 311 305
f 305 311 316
f 308 333 309
f 309 334 310
f 309 333 335
f 309 335 336
f 309 336 334
f 310 337 318
f 310 318 311
f 310 334 337
f 311 318 316
f 312 315 338
f 312 338 352
f 312 352 322
f 314 339 315
f 314 340 339
f 315 339 341
f 315 341 342
f 315 342 343
f 315 343 344
f 315 344 338
f 317 337 373
f 317 373 345
f 317 345 319
f 319 346 347
f 319 347 348
f 319 348 349
f 319 349 350
f 319 350 351
f 319 351 320
f 319 345 346
f 322 352 323
f 323 352 325
f 325 353 354
f 325 354 326
f 325 352 353
f 326 354 355
f 326 355 327
f 327 355 328
f 328 356 357
f 328 357 358
f 328 358 329
f 328 355 356
f 329 359 360
f 329 360 330
f 329 358 361
f 329 361 362
f 329 362 359
f 334 336 363
f 334 363 337
f 335 364 336
f 336 364 365
f 336 365 366
f 336 366 367
f 336 367 368
f 336 368 369
f 336 369 370
f 336 370 371
f 336 371 372
f 336 372 363
f 337 363 373
f 338 344 353
f 338 353 352
f 339 340 374
f 339 374 341
f 340 375 341
f 340 341 374
f 341 375 376
f 341 376 377
f 341 377 378
f 341 378 379
f 341 379 380
f 341 380 381
f 341 381 342
f 342 381 356
f 342 356 355
f 342 355 354
f 342 354 343
f 343 354 353
f 343 353 344
f 345 373 382
f 345 382 346
f 346 382 383
f 346 383 347
f 347 383 404
f 347 404 384
f 347 384 348
f 348 385 386
f 348 386 387
f 348 387 388
f 348 388 389
f 348 389 349
f 348 384 385
f 349 389 350
f 356 381 380
f 356 380 357
f 357 390 358
f 357 380 379
f 357 379 390
f 358 390 361
f 359 362 391
f 361 392 393
f 361 393 362
f 361 390 392
f 362 393 394
f 362 394 395
f 362 395 391
f 363 372 373
f 369 396 370
f 370 396 397
f 370 397 398
f 370 398 399
f 370 399 400
f 370 400 401
f 370 401 402
f 370 402 403
f 370 403 371
f 371 404 383
f 371 383 372
f 371 403 404
f 372 383 382
f 372 382 373
f 377 405 406
f 377 406 378
f 378 406 407
f 378 407 379
f 379 407 392
f 379 392 390
f 384 404 408
f 384 408 385
f 385 408 409
f 385 409 386
f 386 409 411
f 386 411 387
f 387 410 388
f 387 411 392
f 387 392 407
f 387 407 410
f 388 410 412
f 388 412 389
f 392 411 400
f 392 400 393
f 393 400 413
f 393 413 394
f 394 413 398
f 394 398 395
f 398 413 399
f 399 413 400
f 400 411 401
f 401 409 402
f 401 411 409
f 402 408 404
f 402 404 403
f 402 409 408
f 405 412 410
f 405 410 406
f 406 410 407

