# https://github.com/mikedh/trimesh
v 0.06039388 0.09848486 0.31310836
v 0.06039388 0.09848486 0.28280533
v 0.03930869 0.23497645 0.25322755
v -0.06081824 0.23484849 0.28280533
v -0.06081824 0.09848486 0.23735079
v 0.04524236 0.20454546 0.29795685
v -0.04879730 0.09601317 0.30529959
v -0.01536370 0.09848486 0.23735079
v -0.06081824 0.23484849 0.25250230
v 0.03969588 0.23396080 0.27607262
v 0.06039388 0.18939395 0.26765382
v -0.06081824 0.14393940 0.31310836
v 0.03997103 0.09849569 0.26858690
v -0.01536370 0.15909092 0.23735079
v -0.01536370 0.21969698 0.29795685
v 0.06039388 0.17424243 0.29795685
v 0.06039388 0.18939395 0.28280533
v 0.03904203 0.15903128 0.25349032
v 0.04524236 0.14393940 0.31310836
v -0.04328890 0.15899992 0.23752245
v -0.04566673 0.21969698 0.29795685
v 0.06039388 0.12878789 0.26765382
v 0.06039388 0.12878789 0.31310836
v -0.06081824 0.12878789 0.23735079
v -0.06081824 0.20454546 0.29795685
f 7 2 1
f 8 7 5
f 9 5 4
f 9 4 3
f 10 3 4
f 11 1 2
f 12 4 5
f 12 5 7
f 12 7 1
f 13 2 7
f 13 7 8
f 14 8 5
f 14 9 3
f 14 3 8
f 15 10 4
f 15 6 10
f 16 1 11
f 17 11 3
f 17 3 10
f 17 16 11
f 17 10 6
f 17 6 16
f 18 8 3
f 19 12 1
f 19 15 12
f 19 6 15
f 20 9 14
f 21 15 4
f 21 12 15
f 22 18 3
f 22 3 11
f 22 11 2
f 22 2 13
f 22 13 8
f 22 8 18
f 23 16 6
f 23 6 19
f 23 19 1
f 23 1 16
f 24 20 14
f 24 14 5
f 24 5 9
f 24 9 20
f 25 21 4
f 25 4 12
f 25 12 21