# https://github.com/mikedh/trimesh
v 0.03009085 0.20454546 0.01007807
v 0.04524236 0.21969698 -0.06567951
v 0.03807485 0.24026512 0.01559178
v -0.03815445 0.24104513 0.01731640
v -0.04566673 0.21969698 -0.06567951
v 0.03009342 0.24913309 -0.06595129
v 0.04080577 0.22489356 0.00895627
v -0.01536370 0.20454546 -0.06567951
v -0.03051521 0.20454546 0.01007807
v 0.04160537 0.24673512 -0.06704837
v -0.04170073 0.24669916 -0.06777816
v 0.01493933 0.20454546 -0.06567951
v -0.06081824 0.21969698 -0.00507345
v 0.03009085 0.20454546 -0.03537648
v -0.06081824 0.21969698 -0.03537648
v -0.06081824 0.23484849 -0.00507345
v -0.03051521 0.20454546 -0.03537648
v -0.06081824 0.23484849 -0.03537648
f 1 3 4
f 6 4 3
f 7 1 2
f 7 3 1
f 9 1 4
f 9 8 1
f 10 6 3
f 10 7 2
f 10 3 7
f 11 4 6
f 11 6 10
f 11 8 5
f 12 1 8
f 12 10 2
f 12 11 10
f 12 8 11
f 13 9 4
f 14 12 2
f 14 2 1
f 14 1 12
f 15 5 8
f 15 9 13
f 16 13 4
f 16 4 11
f 16 15 13
f 17 15 8
f 17 8 9
f 17 9 15
f 18 11 5
f 18 5 15
f 18 16 11
f 18 15 16