# https://github.com/mikedh/trimesh
v -0.01536370 -0.00757574 0.28280533
v -0.01536370 -0.00757574 0.19189624
v -0.01536370 0.15909092 0.19189624
v -0.04328890 0.15899992 0.23752245
v -0.06081824 0.00757577 0.19189624
v -0.01536370 0.08333335 0.32825987
v -0.04734361 -0.01179259 0.28064920
v -0.04192639 0.15906878 0.19155803
v -0.01536370 0.15909092 0.23735079
v -0.04639696 -0.00810095 0.19366316
v -0.06081824 0.05303032 0.32825987
v -0.01581626 0.05048247 0.31736631
v -0.06081824 0.08333335 0.32825987
v -0.06081824 0.09848486 0.23735079
f 1 2 3
f 6 1 3
f 7 2 1
f 8 3 2
f 8 2 5
f 9 6 3
f 9 4 6
f 9 8 4
f 9 3 8
f 10 7 5
f 10 5 2
f 10 2 7
f 11 7 1
f 11 5 7
f 12 11 1
f 12 1 6
f 12 6 11
f 13 11 6
f 13 6 4
f 13 5 11
f 14 13 4
f 14 4 8
f 14 8 5
f 14 5 13