# https://github.com/mikedh/trimesh
v 0.07554539 0.31060606 0.17674473
v 0.07554539 0.31060606 0.16159321
v 0.07554539 0.40151515 0.22219927
v 0.05883604 0.40140786 0.22219026
v 0.05845015 0.31111156 0.17670972
v 0.07554539 0.37121212 0.14644170
v 0.07554539 0.34090909 0.23735079
v 0.05965191 0.31061564 0.16151169
v 0.07554539 0.40151515 0.17674473
v 0.05920768 0.37121098 0.23741295
v 0.05906477 0.32591973 0.22214501
v 0.07554539 0.34090909 0.14644170
v 0.05779592 0.37120924 0.14671982
v 0.07554539 0.37121212 0.23735079
v 0.07554539 0.32575758 0.22219927
v 0.05885871 0.34094276 0.23723384
v 0.05789614 0.34095439 0.14672300
v 0.05892042 0.40138174 0.17682804
f 1 2 3
f 6 3 2
f 7 1 3
f 8 2 1
f 8 1 5
f 9 4 3
f 9 3 6
f 10 3 4
f 11 5 1
f 12 6 2
f 12 2 8
f 13 6 12
f 14 10 7
f 14 7 3
f 14 3 10
f 15 11 1
f 15 1 7
f 16 7 10
f 16 10 4
f 16 4 13
f 16 5 11
f 16 15 7
f 16 11 15
f 17 8 5
f 17 16 13
f 17 5 16
f 17 13 12
f 17 12 8
f 18 9 6
f 18 6 13
f 18 13 4
f 18 4 9