# https://github.com/mikedh/trimesh
v 0.04524236 -0.32575755 0.34341139
v 0.04315339 -0.32560073 0.32543095
v 0.04418055 0.00731012 0.32571065
v 0.03009085 0.00757577 0.34341139
v 0.01493933 -0.31060604 0.34341139
v 0.04524236 0.00757577 0.34341139
v 0.03009085 -0.32575755 0.34341139
v 0.01497385 -0.03789993 0.32682298
v 0.03038906 0.00744045 0.32644005
v 0.01495268 -0.31055049 0.32683123
v 0.01493933 -0.03787877 0.34341139
v 0.03039071 -0.32563850 0.32705827
f 1 2 3
f 5 1 4
f 6 1 3
f 6 4 1
f 7 1 5
f 8 3 2
f 9 6 3
f 9 4 6
f 9 8 4
f 9 3 8
f 10 7 5
f 10 8 2
f 11 5 4
f 11 4 8
f 11 10 5
f 11 8 10
f 12 10 2
f 12 7 10
f 12 2 1
f 12 1 7