# https://github.com/mikedh/trimesh
v 0.04524236 -0.50757573 0.23735079
v 0.06039388 -0.44696967 0.08583564
v 0.07554539 -0.40151513 0.25250230
v -0.04799545 -0.39898438 0.30953074
v -0.06081824 -0.47727270 0.10098715
v -0.06081824 -0.40151513 0.07068413
v 0.04524236 -0.44696967 0.31310836
v 0.07554539 -0.43181815 0.16159321
v 0.04524236 -0.50757573 0.14644170
v -0.04566673 -0.50757573 0.23735079
v 0.06039388 -0.40151513 0.07068413
v -0.07596976 -0.40151513 0.26765382
v -0.04566673 -0.43181815 0.05553261
v 0.07554539 -0.43181815 0.23735079
v 0.04135307 -0.40042384 0.31134814
v 0.06039388 -0.47727270 0.22219927
v 0.06039388 -0.47727270 0.11613867
v -0.04566673 -0.44696967 0.31310836
v 0.04524236 -0.49242421 0.26765382
v -0.04566673 -0.50757573 0.14644170
v 0.06039388 -0.41666664 0.07068413
v 0.06332038 -0.39936342 0.16876464
v -0.07596976 -0.41666664 0.14644170
v -0.07596976 -0.40151513 0.14644170
v -0.07596976 -0.44696967 0.20704776
v -0.06081824 -0.41666664 0.07068413
v 0.04524236 -0.40151513 0.05553261
v 0.07554539 -0.41666664 0.25250230
v 0.04524236 -0.49242421 0.11613867
v -0.07596976 -0.43181815 0.26765382
v -0.06081824 -0.43181815 0.31310836
v -0.04566673 -0.49242421 0.26765382
v -0.06081824 -0.49242421 0.13129018
v -0.03429245 -0.40106432 0.06530758
v -0.07596976 -0.43181815 0.16159321
v 0.04524236 -0.43181815 0.05553261
v -0.04566673 -0.49242421 0.11613867
v -0.06081824 -0.47727270 0.23735079
v -0.06081824 -0.44696967 0.29795685
v -0.07596976 -0.44696967 0.19189624
v -0.06081824 -0.49242421 0.16159321
f 10 9 1
f 11 3 8
f 14 8 3
f 15 7 3
f 16 1 9
f 16 14 1
f 16 8 14
f 17 2 8
f 17 16 9
f 17 8 16
f 19 10 1
f 19 7 18
f 19 14 7
f 19 1 14
f 20 9 10
f 21 11 8
f 21 8 2
f 22 4 15
f 22 15 3
f 22 3 11
f 24 12 4
f 24 4 6
f 24 23 12
f 24 6 23
f 25 12 23
f 26 13 5
f 26 6 13
f 26 23 6
f 26 5 23
f 27 11 21
f 27 22 11
f 28 14 3
f 28 3 7
f 28 7 14
f 29 2 17
f 29 17 9
f 29 9 20
f 30 12 25
f 31 4 12
f 31 12 30
f 31 15 4
f 31 18 7
f 31 7 15
f 32 19 18
f 32 10 19
f 32 18 31
f 32 30 10
f 33 20 10
f 33 5 20
f 34 6 4
f 34 4 22
f 34 22 27
f 34 27 13
f 34 13 6
f 35 25 23
f 35 23 5
f 36 27 21
f 36 21 2
f 36 13 27
f 36 2 29
f 36 29 5
f 36 5 13
f 37 29 20
f 37 20 5
f 37 5 29
f 38 30 25
f 38 10 30
f 39 32 31
f 39 31 30
f 39 30 32
f 40 33 25
f 40 25 35
f 40 35 5
f 40 5 33
f 41 33 10
f 41 10 38
f 41 38 25
f 41 25 33