# https://github.com/mikedh/trimesh
v 0.04524236 -0.41666664 0.32825987
v 0.07554539 -0.40151513 0.14644170
v 0.06039388 -0.34090907 0.32825987
v 0.01486544 -0.34052816 0.32393360
v 0.01493933 -0.40151513 0.16159321
v 0.07554539 -0.34090907 0.16159321
v 0.01493933 -0.41666664 0.32825987
v 0.07554539 -0.40151513 0.26765382
v 0.07554539 -0.34090907 0.25250230
v 0.01493933 -0.34090907 0.16159321
v 0.01417717 -0.41306974 0.30643203
v 0.06039388 -0.37121210 0.32825987
v 0.07554539 -0.37121210 0.26765382
v 0.07554539 -0.35606058 0.14644170
v 0.05198332 -0.39966831 0.15225306
f 7 1 3
f 7 3 4
f 7 5 2
f 7 2 1
f 8 1 2
f 8 2 6
f 9 6 4
f 9 4 3
f 9 8 6
f 10 4 6
f 11 7 4
f 11 5 7
f 11 10 5
f 11 4 10
f 12 8 3
f 12 3 1
f 12 1 8
f 13 9 3
f 13 3 8
f 13 8 9
f 14 10 6
f 14 6 2
f 15 2 5
f 15 5 10
f 15 14 2
f 15 10 14