# https://github.com/mikedh/trimesh
v -0.01536370 0.18939395 0.05553261
v 0.06039388 0.21969698 0.04038110
v 0.06039388 0.21969698 0.07068413
v -0.04566673 0.28030304 0.07068413
v -0.04116926 0.22450348 0.00889823
v 0.04524236 0.28030304 0.07068413
v -0.02915155 0.19461730 0.08053813
v 0.04524236 0.20454546 0.02522958
v 0.06039388 0.25000001 0.07068413
v -0.04566673 0.26515152 0.02522958
v 0.04524236 0.20454546 0.07068413
v -0.04566673 0.20454546 0.02522958
v -0.01607899 0.19530641 0.08112336
v 0.06039388 0.25000001 0.04038110
v -0.04566673 0.28030304 0.05553261
v -0.03051521 0.18939395 0.05553261
v -0.03051521 0.20454546 0.01007807
v -0.06081824 0.26515152 0.07068413
v 0.04524236 0.26515152 0.02522958
v 0.04080577 0.22489356 0.00895627
v -0.06081824 0.21969698 0.04038110
v 0.03009085 0.20454546 0.01007807
v -0.06081824 0.26515152 0.05553261
v 0.04524236 0.28030304 0.05553261
v -0.04794836 0.22732387 0.07211303
v -0.06081824 0.25000001 0.04038110
f 8 2 3
f 9 3 2
f 11 8 3
f 11 1 8
f 13 6 4
f 13 4 7
f 13 9 6
f 13 3 9
f 13 11 3
f 13 7 1
f 13 1 11
f 14 9 2
f 14 6 9
f 15 4 6
f 16 1 7
f 17 16 12
f 17 1 16
f 17 12 5
f 18 7 4
f 18 4 15
f 19 10 15
f 20 14 2
f 20 2 8
f 20 19 14
f 20 5 10
f 20 10 19
f 21 16 7
f 21 12 16
f 21 5 12
f 22 8 1
f 22 1 17
f 22 20 8
f 22 17 5
f 22 5 20
f 23 18 15
f 23 15 10
f 23 21 18
f 24 6 14
f 24 14 19
f 24 19 15
f 24 15 6
f 25 21 7
f 25 7 18
f 25 18 21
f 26 10 5
f 26 5 21
f 26 23 10
f 26 21 23