# https://github.com/mikedh/trimesh
v 0.01493933 -0.34090907 0.11613867
v 0.06039388 -0.23484846 0.08583564
v 0.04303472 -0.14399138 0.11613179
v -0.04631868 -0.14277309 0.11397215
v -0.05124313 -0.34109492 0.08580548
v 0.04769420 -0.14400448 0.08489837
v -0.05070549 -0.34088609 0.11636085
v 0.04334490 -0.26522843 0.11604653
v 0.01493933 -0.34090907 0.08583564
v 0.06039388 -0.14393938 0.10098715
v -0.05070368 -0.14353964 0.08478332
v 0.06039388 -0.23484846 0.10098715
f 7 1 3
f 7 3 4
f 7 5 1
f 8 3 1
f 9 2 1
f 9 1 5
f 9 6 2
f 10 2 6
f 10 3 8
f 10 6 4
f 10 4 3
f 11 4 6
f 11 7 4
f 11 5 7
f 11 9 5
f 11 6 9
f 12 8 1
f 12 1 2
f 12 10 8
f 12 2 10