# https://github.com/mikedh/trimesh
v 0.01493933 0.41666667 0.23735079
v 0.01493933 0.41666667 0.16159321
v 0.01493933 0.50757576 0.23735079
v -0.04566673 0.50757576 0.23735079
v -0.06232220 0.41700974 0.23798808
v -0.01536370 0.50757576 0.13129018
v 0.01658250 0.49631501 0.16545738
v -0.06105452 0.41636593 0.16152297
v -0.01536370 0.44696970 0.13129018
v -0.07596976 0.46212121 0.14644170
v -0.05717569 0.44208401 0.13499906
v -0.07596976 0.46212121 0.23735079
v -0.04566673 0.50757576 0.13129018
v -0.06081824 0.46212121 0.13129018
f 5 1 3
f 5 3 4
f 6 4 3
f 7 1 2
f 7 3 1
f 7 6 3
f 7 2 6
f 8 2 1
f 8 1 5
f 9 6 2
f 10 8 5
f 11 9 2
f 11 2 8
f 11 8 10
f 12 10 5
f 12 5 4
f 12 4 10
f 13 10 4
f 13 4 6
f 13 6 9
f 14 11 10
f 14 10 13
f 14 13 9
f 14 9 11