# https://github.com/mikedh/trimesh
v 0.01493933 -0.40151513 0.28280533
v 0.01493933 -0.40151513 0.04038110
v 0.01524144 -0.34085549 0.04271827
v -0.07596976 -0.34090907 0.25250230
v -0.07596976 -0.40151513 0.26765382
v -0.06081824 -0.38636361 0.05553261
v 0.01493933 -0.34090907 0.28280533
v -0.04566673 -0.38636361 0.04038110
v -0.04852290 -0.34054286 0.06241578
v -0.07596976 -0.40151513 0.14644170
v -0.04750189 -0.34439001 0.28082381
v -0.03051521 -0.40151513 0.04038110
v -0.07596976 -0.34090907 0.14644170
v -0.03592075 -0.33912447 0.04931902
v -0.05292798 -0.39835313 0.27627404
v -0.07596976 -0.37121210 0.26765382
v -0.06081824 -0.40151513 0.07068413
v -0.01578352 -0.34091595 0.04456560
f 1 2 3
f 5 2 1
f 7 1 3
f 8 3 2
f 10 5 4
f 10 2 5
f 11 1 7
f 11 7 4
f 12 8 2
f 12 6 8
f 12 2 10
f 13 9 6
f 13 10 4
f 13 6 10
f 14 8 6
f 14 6 9
f 14 7 3
f 14 4 7
f 14 13 4
f 14 9 13
f 15 11 5
f 15 5 1
f 15 1 11
f 16 11 4
f 16 4 5
f 16 5 11
f 17 12 10
f 17 10 6
f 17 6 12
f 18 14 3
f 18 3 8
f 18 8 14