# https://github.com/mikedh/trimesh
v 0.06039388 -0.34090907 0.26765382
v 0.07554539 -0.34090907 0.16159321
v 0.04182379 -0.26589062 0.28302400
v -0.01536370 -0.26515149 0.28280533
v -0.01536370 -0.34090907 0.11613867
v -0.01536370 -0.34090907 0.28280533
v 0.07554539 -0.32575755 0.23735079
v 0.06139256 -0.34470863 0.23424107
v 0.01493933 -0.26515149 0.11613867
v 0.03996713 -0.34117181 0.28269076
v 0.04243709 -0.26574975 0.16154176
v 0.06039388 -0.32575755 0.26765382
v 0.01493933 -0.34090907 0.11613867
v -0.01536370 -0.26515149 0.11613867
v 0.07554539 -0.32575755 0.16159321
f 6 3 4
f 6 4 5
f 7 1 2
f 8 2 1
f 8 6 5
f 9 4 3
f 10 1 3
f 10 3 6
f 10 8 1
f 10 6 8
f 11 3 7
f 11 9 3
f 12 7 3
f 12 3 1
f 12 1 7
f 13 8 5
f 13 2 8
f 13 9 2
f 13 5 9
f 14 9 5
f 14 5 4
f 14 4 9
f 15 11 7
f 15 7 2
f 15 2 9
f 15 9 11