# https://github.com/mikedh/trimesh
v -0.01536370 0.15909092 0.25250230
v 0.06039388 0.21969698 0.07068413
v 0.06039388 0.21969698 0.17674473
v -0.04374757 0.23493671 0.25285461
v -0.06081824 0.15909092 0.08583564
v 0.05308035 0.24438927 0.17036546
v -0.01536370 0.23484849 0.25250230
v 0.04021281 0.15948776 0.09247629
v -0.04450865 0.15906196 0.25265615
v -0.04952689 0.23458294 0.07272366
v 0.06039388 0.20454546 0.16159321
v 0.04524236 0.17424243 0.07068413
v 0.03881964 0.15914892 0.19142220
v -0.06081824 0.23484849 0.20704776
v 0.04775885 0.23480386 0.07241271
v 0.06039388 0.20454546 0.14644170
v -0.04566673 0.17424243 0.07068413
v -0.06081824 0.17424243 0.20704776
v -0.04794836 0.22732387 0.07211303
v -0.06081824 0.15909092 0.11613867
f 6 3 2
f 7 1 3
f 7 4 1
f 7 6 4
f 7 3 6
f 9 1 4
f 11 2 3
f 12 8 5
f 13 5 8
f 13 9 5
f 13 1 9
f 13 8 11
f 13 11 3
f 13 3 1
f 14 9 4
f 14 10 5
f 14 4 6
f 14 6 10
f 15 10 6
f 15 6 2
f 15 2 10
f 16 11 8
f 16 8 12
f 16 12 2
f 16 2 11
f 17 2 12
f 17 12 5
f 17 5 10
f 18 14 5
f 18 9 14
f 19 17 10
f 19 10 2
f 19 2 17
f 20 18 5
f 20 5 9
f 20 9 18