# https://github.com/mikedh/trimesh
v 0.03969588 0.23396080 0.27607262
v 0.06039388 0.29545455 0.25250230
v 0.04524236 0.43181818 0.29795685
v -0.04566673 0.49242424 0.26765382
v -0.07596976 0.31060606 0.23735079
v 0.04524236 0.49242424 0.23735079
v -0.04566673 0.32575758 0.29795685
v 0.04524236 0.34090909 0.29795685
v 0.03770097 0.23513169 0.23861583
v 0.06039388 0.41666667 0.26765382
v 0.03009085 0.47727273 0.28280533
v -0.07596976 0.44696970 0.23735079
v -0.04566673 0.44696970 0.29795685
v -0.06081824 0.23484849 0.28280533
v 0.06039388 0.32575758 0.26765382
v 0.05308640 0.30141284 0.23073572
v 0.04524236 0.46212121 0.28280533
v 0.03009085 0.49242424 0.26765382
v -0.04566673 0.49242424 0.23735079
v -0.07596976 0.44696970 0.25250230
v -0.04566673 0.47727273 0.28280533
v 0.03009085 0.44696970 0.29795685
v 0.03009085 0.32575758 0.29795685
v -0.04159037 0.23502170 0.23793653
v 0.05694319 0.41490100 0.23437228
v 0.04524236 0.49242424 0.25250230
v -0.07596976 0.41666667 0.26765382
v -0.06081824 0.23484849 0.25250230
v -0.07596976 0.35606061 0.26765382
v -0.07596976 0.31060606 0.25250230
f 8 3 7
f 9 2 1
f 10 3 8
f 13 7 3
f 14 7 13
f 15 8 1
f 15 1 2
f 15 10 8
f 15 2 10
f 16 2 9
f 16 5 12
f 17 3 10
f 17 11 3
f 18 6 4
f 18 4 11
f 19 12 4
f 19 4 6
f 19 16 12
f 20 4 12
f 20 12 5
f 21 13 11
f 21 11 4
f 21 20 13
f 21 4 20
f 22 13 3
f 22 3 11
f 22 11 13
f 23 8 7
f 23 7 14
f 23 14 1
f 23 1 8
f 24 9 1
f 24 16 9
f 24 5 16
f 25 10 2
f 25 2 16
f 25 6 10
f 25 19 6
f 25 16 19
f 26 17 10
f 26 10 6
f 26 6 18
f 26 18 11
f 26 11 17
f 27 14 13
f 27 13 20
f 27 20 5
f 28 24 1
f 28 1 14
f 28 14 5
f 28 5 24
f 29 27 5
f 29 14 27
f 30 29 5
f 30 5 14
f 30 14 29