# https://github.com/mikedh/trimesh
v 0.04592168 -0.21785722 0.08392470
v 0.06039388 -0.21969695 0.05553261
v 0.04769420 -0.14400448 0.08489837
v -0.05070368 -0.14353964 0.08478332
v -0.04783031 -0.21953560 0.06162061
v -0.01536370 -0.15909089 0.04038110
v -0.04976561 -0.21830855 0.08491393
v 0.06039388 -0.15909089 0.05553261
v 0.04524236 -0.14393938 0.05553261
v -0.06081824 -0.14393938 0.05553261
v 0.04524236 -0.21969695 0.04038110
v -0.03793683 -0.22067584 0.05185788
v -0.06081824 -0.18939392 0.05553261
v 0.04524236 -0.17424240 0.04038110
v -0.04566673 -0.15909089 0.04038110
f 1 2 3
f 7 1 3
f 7 3 4
f 8 3 2
f 9 4 3
f 9 3 8
f 10 9 6
f 10 4 9
f 11 8 2
f 12 7 5
f 12 2 1
f 12 1 7
f 12 11 2
f 13 7 4
f 13 4 10
f 13 5 7
f 13 12 5
f 14 9 8
f 14 8 11
f 14 11 6
f 14 6 9
f 15 6 11
f 15 11 12
f 15 12 13
f 15 13 10
f 15 10 6