# https://github.com/mikedh/trimesh
v 0.05886269 -0.40105475 0.16266025
v 0.06039388 -0.40151513 0.07068413
v 0.06039388 -0.21969695 0.05553261
v 0.01493933 -0.21969695 0.08583564
v 0.01493933 -0.40151513 0.04038110
v 0.04243709 -0.26574975 0.16154176
v 0.01493933 -0.40151513 0.16159321
v 0.04524236 -0.37121210 0.04038110
v 0.01493933 -0.23484846 0.02522958
v 0.04995893 -0.33240193 0.16718921
v 0.04592168 -0.21785722 0.08392470
v 0.01493933 -0.26515149 0.16159321
v 0.06039388 -0.38636361 0.05553261
v 0.01498892 -0.21991630 0.04266313
v 0.03009085 -0.29545452 0.02522958
v 0.03009085 -0.40151513 0.04038110
v 0.04524236 -0.21969695 0.04038110
v 0.01493933 -0.29545452 0.02522958
v 0.03009085 -0.23484846 0.02522958
f 1 2 3
f 7 5 2
f 7 2 1
f 7 4 5
f 9 5 4
f 10 1 3
f 10 3 6
f 10 7 1
f 11 6 3
f 12 4 7
f 12 11 4
f 12 6 11
f 12 10 6
f 12 7 10
f 13 8 3
f 13 3 2
f 14 9 4
f 14 4 11
f 16 13 2
f 16 2 5
f 16 8 13
f 16 15 8
f 16 5 15
f 17 9 14
f 17 3 8
f 17 8 15
f 17 14 11
f 17 11 3
f 18 15 5
f 18 5 9
f 18 9 15
f 19 17 15
f 19 15 9
f 19 9 17