# https://github.com/mikedh/trimesh
v 0.03770097 0.23513169 0.23861583
v 0.05661300 0.23838800 0.15821300
v 0.05694319 0.41490100 0.23437228
v -0.06232220 0.41700974 0.23798808
v -0.07596976 0.23484849 0.16159321
v -0.06105452 0.41636593 0.16152297
v 0.06039388 0.28030304 0.23735079
v 0.06039388 0.23484849 0.19189624
v -0.07596976 0.28030304 0.23735079
v 0.05646981 0.41661580 0.16184125
v -0.04159037 0.23502170 0.23793653
v -0.07596976 0.23484849 0.19189624
f 6 2 5
f 7 3 4
f 7 4 1
f 8 5 2
f 8 7 1
f 9 6 5
f 9 4 6
f 10 2 6
f 10 8 2
f 10 3 7
f 10 7 8
f 10 6 4
f 10 4 3
f 11 8 1
f 11 1 4
f 11 4 9
f 12 5 8
f 12 8 11
f 12 11 9
f 12 9 5