# https://github.com/mikedh/trimesh
v -0.03051521 -0.41666664 0.32825987
v 0.01493933 -0.40151513 0.28280533
v 0.01486544 -0.34052816 0.32393360
v -0.05075128 -0.26520959 0.32509009
v -0.05458649 -0.34184133 0.25185099
v -0.01537782 -0.26515795 0.32747856
v 0.01403045 -0.39611815 0.31434863
v -0.05292798 -0.39835313 0.27627404
v -0.06081824 -0.40151513 0.32825987
v -0.01536370 -0.26515149 0.25250230
v -0.01536370 -0.34090907 0.25250230
v -0.04401957 -0.41418689 0.30792577
v -0.06081824 -0.28030301 0.25250230
v -0.04795807 -0.26034724 0.27075586
v 0.01493933 -0.34090907 0.28280533
v -0.03188635 -0.41396438 0.30739746
v -0.04566673 -0.41666664 0.32825987
v -0.04254005 -0.26485086 0.25243747
f 6 1 3
f 7 1 2
f 7 2 3
f 7 3 1
f 9 6 4
f 9 1 6
f 10 6 3
f 11 8 5
f 11 2 8
f 11 10 2
f 11 5 10
f 12 9 8
f 13 9 4
f 13 5 8
f 13 8 9
f 14 4 6
f 14 6 10
f 14 13 4
f 15 10 3
f 15 3 2
f 15 2 10
f 16 12 8
f 16 8 2
f 16 2 1
f 16 1 12
f 17 12 1
f 17 1 9
f 17 9 12
f 18 10 5
f 18 5 13
f 18 14 10
f 18 13 14