# https://github.com/mikedh/trimesh
v 0.04092439 -0.14381910 0.19165887
v 0.04276357 -0.14419083 0.13116361
v 0.04135124 -0.00693849 0.19250692
v -0.04345675 0.03777532 0.19182824
v -0.06081824 -0.14393938 0.13129018
v -0.01536370 0.03787880 0.13129018
v -0.04614989 -0.14178033 0.19252615
v 0.04257985 -0.00773783 0.13104343
v -0.01536370 0.03787880 0.19189624
v -0.06081824 0.00757577 0.13129018
v -0.06081824 0.00757577 0.19189624
v -0.04427709 0.03781207 0.13113729
v -0.06081824 0.02272729 0.17674473
v -0.06081824 0.02272729 0.14644170
f 1 2 3
f 5 2 1
f 7 1 3
f 7 5 1
f 8 3 2
f 8 2 5
f 9 4 3
f 9 8 6
f 9 3 8
f 11 7 3
f 11 3 4
f 11 10 5
f 11 5 7
f 12 9 6
f 12 4 9
f 12 6 8
f 12 8 5
f 12 5 10
f 13 11 4
f 13 4 12
f 13 10 11
f 14 13 12
f 14 12 10
f 14 10 13