# https://github.com/mikedh/trimesh
v 0.04201920 -0.00814899 0.28279071
v 0.04135124 -0.00693849 0.19250692
v 0.04200200 0.23402040 0.19079711
v -0.01536370 0.23484849 0.25250230
v -0.01536370 -0.00757574 0.28280533
v -0.01536370 -0.00757574 0.19189624
v 0.03930869 0.23497645 0.25322755
v 0.04323676 0.09858716 0.28327727
v -0.01536370 0.23484849 0.19189624
v -0.01536370 0.09848486 0.28280533
f 6 3 2
f 6 5 4
f 6 2 1
f 6 1 5
f 8 1 2
f 8 2 3
f 8 3 7
f 8 5 1
f 9 6 4
f 9 3 6
f 9 7 3
f 9 4 7
f 10 8 7
f 10 7 4
f 10 4 5
f 10 5 8