# https://github.com/mikedh/trimesh
v 0.06039388 -0.08333332 0.11613867
v 0.04524236 -0.08333332 0.07068413
v 0.06039388 -0.00757574 0.08583564
v -0.06081824 -0.00757574 0.13129018
v -0.04713946 -0.08353641 0.17584581
v -0.04566673 -0.03787877 0.07068413
v -0.03944542 -0.08606483 0.08086652
v 0.04257985 -0.00773783 0.13104343
v 0.03009085 -0.02272726 0.07068413
v -0.06081824 -0.00757574 0.08583564
v 0.04719838 -0.08589968 0.09232082
v -0.01536370 -0.08333332 0.17674473
v 0.04524236 -0.05303029 0.07068413
v -0.03051521 -0.02272726 0.07068413
v -0.05014813 -0.08405096 0.09147518
v 0.04333693 -0.08311434 0.13105297
v -0.01536370 -0.05303029 0.17674473
v -0.06081824 -0.05303029 0.17674473
f 1 2 3
f 7 6 2
f 8 1 3
f 8 3 4
f 9 2 6
f 10 4 3
f 10 3 9
f 11 7 2
f 11 2 1
f 11 5 7
f 12 11 1
f 12 5 11
f 13 9 3
f 13 3 2
f 13 2 9
f 14 10 9
f 14 9 6
f 14 6 10
f 15 10 6
f 15 6 7
f 15 7 5
f 16 12 1
f 16 1 8
f 17 8 4
f 17 16 8
f 17 12 16
f 18 15 5
f 18 4 10
f 18 10 15
f 18 17 4
f 18 5 12
f 18 12 17