# https://github.com/mikedh/trimesh
v 0.04524236 0.21969698 -0.06567951
v 0.04524236 0.23484849 -0.27780071
v 0.04524236 0.26515152 -0.06567951
v -0.04566673 0.26515152 -0.06567951
v -0.01536370 0.18939395 -0.30810374
v 0.03009085 0.26515152 -0.27780071
v 0.01493933 0.18939395 -0.30810374
v -0.04566673 0.21969698 -0.06567951
v 0.04524236 0.26515152 -0.26264920
v -0.04566673 0.26515152 -0.26264920
v 0.03009085 0.20454546 -0.29295223
v 0.01493933 0.18939395 -0.24749768
v 0.03009085 0.25000001 -0.32325526
v -0.04566673 0.23484849 -0.27780071
v 0.04524236 0.21969698 -0.08083102
v -0.01536370 0.18939395 -0.24749768
v 0.01493933 0.20454546 -0.33840677
v 0.04524236 0.25000001 -0.27780071
v -0.01536370 0.25000001 -0.33840677
v -0.03051521 0.20454546 -0.27780071
v 0.03009085 0.21969698 -0.32325526
v -0.03051521 0.26515152 -0.27780071
v -0.00021218 0.25000001 -0.33840677
v -0.03051521 0.25000001 -0.32325526
v -0.01536370 0.20454546 -0.33840677
v -0.04566673 0.21969698 -0.08083102
v -0.04566673 0.25000001 -0.27780071
v -0.03051521 0.21969698 -0.32325526
f 1 2 3
f 1 3 4
f 6 4 3
f 8 1 4
f 9 6 3
f 9 3 2
f 10 4 6
f 10 8 4
f 11 1 7
f 12 7 1
f 12 5 7
f 12 1 8
f 13 6 9
f 14 8 10
f 15 11 2
f 15 2 1
f 15 1 11
f 16 12 8
f 16 8 5
f 16 5 12
f 17 11 7
f 17 7 5
f 18 13 9
f 18 9 2
f 18 2 13
f 20 5 8
f 21 17 13
f 21 13 2
f 21 2 11
f 21 11 17
f 22 19 10
f 22 10 6
f 22 6 19
f 23 19 6
f 23 6 13
f 23 13 17
f 23 17 19
f 24 10 19
f 25 19 17
f 25 17 5
f 25 24 19
f 26 20 8
f 26 8 14
f 26 14 20
f 27 24 14
f 27 14 10
f 27 10 24
f 28 14 24
f 28 24 25
f 28 20 14
f 28 25 5
f 28 5 20