# https://github.com/mikedh/trimesh
v 0.06039388 -0.14393938 0.11613867
v 0.06039388 -0.08333332 0.07068413
v 0.04333693 -0.08311434 0.13105297
v -0.06081824 -0.08333332 0.13129018
v -0.03984389 -0.14529774 0.06752257
v -0.06081824 -0.08333332 0.07068413
v 0.04276357 -0.14419083 0.13116361
v 0.06039388 -0.08333332 0.11613867
v 0.04524236 -0.14393938 0.05553261
v -0.06081824 -0.14393938 0.13129018
v 0.04669242 -0.14495723 0.07636921
v 0.01493933 -0.09848483 0.05553261
v -0.04924258 -0.14524301 0.07559765
v 0.04524236 -0.11363635 0.05553261
v -0.04566673 -0.11363635 0.05553261
v -0.03051521 -0.09848483 0.05553261
f 6 3 2
f 6 4 3
f 7 1 3
f 7 3 4
f 8 1 2
f 8 2 3
f 8 3 1
f 9 2 1
f 10 4 6
f 10 7 4
f 11 1 7
f 11 9 1
f 11 5 9
f 12 6 2
f 13 10 6
f 13 7 10
f 13 11 7
f 13 5 11
f 14 12 2
f 14 2 9
f 14 9 12
f 15 12 9
f 15 9 5
f 15 13 6
f 15 5 13
f 16 15 6
f 16 6 12
f 16 12 15