# https://github.com/mikedh/trimesh
v 0.05661300 0.23838800 0.15821300
v 0.06039388 0.26515152 0.07068413
v 0.06039388 0.46212121 0.14644170
v -0.01536370 0.50757576 0.14644170
v -0.07596976 0.23484849 0.14644170
v 0.04524236 0.44696970 0.07068413
v 0.05181841 0.45251247 0.16704410
v 0.04775885 0.23480386 0.07241271
v 0.06039388 0.41666667 0.10098715
v 0.04524236 0.50757576 0.14644170
v -0.04566673 0.44696970 0.07068413
v -0.07596976 0.23484849 0.16159321
v -0.03051521 0.47727273 0.08583564
v 0.04524236 0.49242424 0.11613867
v 0.04524236 0.50757576 0.16159321
v -0.04952689 0.23458294 0.07272366
v -0.07596976 0.44696970 0.13129018
v -0.01536370 0.47727273 0.08583564
v -0.06296200 0.44522388 0.16155100
v -0.06081824 0.28030304 0.07068413
v -0.04566673 0.49242424 0.11613867
v -0.01787774 0.49675888 0.16436718
v -0.07596976 0.43181818 0.11613867
v -0.04566673 0.49242424 0.13129018
v -0.07596976 0.35606061 0.11613867
f 1 2 3
f 7 1 3
f 8 2 1
f 9 6 3
f 9 3 2
f 9 2 6
f 11 6 2
f 12 1 7
f 12 8 1
f 13 4 10
f 13 6 11
f 14 10 3
f 14 3 6
f 15 7 3
f 15 3 10
f 15 10 4
f 16 12 5
f 16 8 12
f 16 2 8
f 17 5 12
f 18 14 6
f 18 6 13
f 18 13 10
f 18 10 14
f 19 17 12
f 20 11 2
f 20 2 16
f 20 16 5
f 21 13 11
f 21 11 17
f 21 4 13
f 22 19 12
f 22 12 7
f 22 7 15
f 22 15 4
f 23 17 11
f 23 11 20
f 23 5 17
f 24 21 17
f 24 17 19
f 24 19 22
f 24 22 4
f 24 4 21
f 25 23 20
f 25 20 5
f 25 5 23