# https://github.com/mikedh/trimesh
v 0.06039388 0.41666667 0.26765382
v 0.05646981 0.41661580 0.16184125
v 0.04524236 0.50757576 0.16159321
v 0.01493933 0.50757576 0.23735079
v 0.01453247 0.41804877 0.28901430
v 0.01493933 0.41666667 0.16159321
v 0.04524236 0.49242424 0.23735079
v 0.06039388 0.47727273 0.17674473
v 0.01658250 0.49631501 0.16545738
v 0.03092465 0.41663718 0.28260892
v 0.04524236 0.50757576 0.20704776
v 0.04524236 0.44696970 0.28280533
v 0.06039388 0.44696970 0.26765382
v 0.03009085 0.50757576 0.23735079
v 0.01514271 0.44542019 0.28006799
v 0.06039388 0.47727273 0.20704776
f 6 3 2
f 6 5 4
f 8 1 2
f 8 2 3
f 9 6 4
f 9 4 3
f 9 3 6
f 10 6 2
f 10 2 1
f 10 5 6
f 11 3 4
f 11 8 3
f 12 5 10
f 12 10 1
f 13 1 8
f 13 12 1
f 13 7 12
f 14 11 4
f 14 7 11
f 14 12 7
f 14 4 12
f 15 12 4
f 15 4 5
f 15 5 12
f 16 13 8
f 16 8 11
f 16 11 7
f 16 7 13