# https://github.com/mikedh/trimesh
v -0.01536370 -0.34090907 0.25250230
v -0.00021218 -0.26515149 0.11613867
v -0.00021218 -0.14393938 0.28280533
v -0.04757091 -0.14417097 0.27955755
v -0.07596976 -0.34090907 0.16159321
v -0.04631868 -0.14277309 0.11397215
v -0.04765356 -0.26342043 0.28360837
v -0.00021218 -0.26515149 0.28280533
v -0.01536370 -0.34090907 0.11613867
v -0.00021218 -0.14393938 0.11613867
v -0.07596976 -0.32575755 0.16159321
v -0.07596976 -0.32575755 0.23735079
v -0.06235578 -0.34538183 0.23428065
v -0.05070549 -0.34088609 0.11636085
v -0.05458649 -0.34184133 0.25185099
f 6 4 3
f 7 3 4
f 8 1 2
f 8 2 3
f 8 7 1
f 8 3 7
f 9 2 1
f 9 6 2
f 10 6 3
f 10 3 2
f 10 2 6
f 11 4 6
f 12 11 5
f 12 7 4
f 12 4 11
f 13 9 1
f 13 12 5
f 14 6 9
f 14 11 6
f 14 5 11
f 14 13 5
f 14 9 13
f 15 13 1
f 15 1 7
f 15 7 12
f 15 12 13