# https://github.com/mikedh/trimesh
v 0.01493933 -0.34090907 0.08583564
v 0.01524144 -0.34085549 0.04271827
v 0.01493933 -0.21969695 0.08583564
v -0.04976561 -0.21830855 0.08491393
v -0.06081824 -0.32575755 0.04038110
v -0.05124313 -0.34109492 0.08580548
v -0.01536370 -0.23484846 0.02522958
v -0.06081824 -0.23484846 0.04038110
v -0.03592075 -0.33912447 0.04931902
v 0.01498892 -0.21991630 0.04266313
v -0.03051521 -0.29545452 0.02522958
v -0.04852290 -0.34054286 0.06241578
v -0.03793683 -0.22067584 0.05185788
v -0.01536370 -0.29545452 0.02522958
v -0.03051521 -0.23484846 0.02522958
v -0.04783031 -0.21953560 0.06162061
f 1 2 3
f 6 1 3
f 6 3 4
f 6 2 1
f 8 6 4
f 8 5 6
f 9 5 2
f 10 3 2
f 10 2 7
f 10 4 3
f 11 2 5
f 11 5 8
f 12 6 5
f 12 5 9
f 12 9 2
f 12 2 6
f 14 11 7
f 14 7 2
f 14 2 11
f 15 11 8
f 15 7 11
f 15 8 13
f 15 13 10
f 15 10 7
f 16 13 8
f 16 8 4
f 16 4 10
f 16 10 13