# https://github.com/mikedh/trimesh
v 0.06039388 -0.34090907 0.32825987
v 0.06039388 -0.34090907 0.29795685
v 0.06039388 0.09848486 0.31310836
v -0.01571376 0.09678208 0.30664594
v -0.05075128 -0.26520959 0.32509009
v 0.06039388 0.09848486 0.28280533
v -0.01536370 -0.34090907 0.28280533
v -0.01536370 0.08333335 0.32825987
v -0.01536370 0.09848486 0.28280533
v 0.03996713 -0.34117181 0.28269076
v -0.01555457 -0.34041153 0.32421967
v -0.06081824 0.05303032 0.32825987
v 0.06039388 0.06818183 0.32825987
v 0.06039388 0.05303032 0.28280533
v -0.06081824 0.05303032 0.28280533
v 0.04524236 0.08333335 0.32825987
v -0.04765356 -0.26342043 0.28360837
f 1 2 3
f 6 3 2
f 8 3 4
f 9 4 3
f 9 3 6
f 10 2 1
f 10 1 7
f 10 9 6
f 11 7 1
f 11 1 5
f 11 5 7
f 12 5 1
f 12 1 8
f 12 8 4
f 12 4 9
f 13 8 1
f 13 1 3
f 14 10 6
f 14 6 2
f 14 2 10
f 15 10 7
f 15 9 10
f 15 12 9
f 15 5 12
f 16 13 3
f 16 3 8
f 16 8 13
f 17 15 7
f 17 7 5
f 17 5 15