# https://github.com/mikedh/trimesh
v 0.04135124 -0.00693849 0.19250692
v 0.06039388 -0.00757574 0.08583564
v 0.06039388 0.14393940 0.11613867
v -0.04192639 0.15906878 0.19155803
v -0.06081824 -0.00757574 0.08583564
v 0.03881964 0.15914892 0.19142220
v -0.01536370 -0.00757574 0.19189624
v -0.06081824 0.15909092 0.08583564
v 0.04600753 -0.00769725 0.11227809
v -0.04345675 0.03777532 0.19182824
v 0.04021281 0.15948776 0.09247629
v -0.06081824 -0.00757574 0.13129018
v 0.06039388 0.08333335 0.08583564
v -0.06081824 0.15909092 0.13129018
v 0.06039388 0.14393940 0.10098715
f 1 2 3
f 6 1 3
f 6 4 1
f 8 2 5
f 9 5 2
f 9 2 1
f 9 1 7
f 10 7 1
f 10 1 4
f 11 6 3
f 11 4 6
f 12 9 7
f 12 5 9
f 12 7 10
f 12 8 5
f 13 3 2
f 13 2 8
f 13 8 11
f 14 11 8
f 14 4 11
f 14 8 12
f 14 12 10
f 14 10 4
f 15 13 11
f 15 11 3
f 15 3 13