# https://github.com/mikedh/trimesh
v -0.03051521 -0.32575755 0.34341139
v -0.03066779 -0.32549591 0.32617467
v -0.03051521 0.00757577 0.34341139
v -0.04566673 0.00757577 0.34341139
v -0.06081824 -0.32575755 0.34341139
v -0.04999445 -0.00773689 0.32457155
v -0.03101384 0.00730929 0.32586751
v -0.06081824 -0.00757574 0.34341139
v -0.04951606 -0.32490517 0.32405601
v -0.04515601 0.00742906 0.32706102
f 1 2 3
f 1 3 4
f 5 2 1
f 5 1 4
f 7 3 2
f 8 6 5
f 8 5 4
f 9 2 5
f 9 5 6
f 9 7 2
f 9 6 7
f 10 7 6
f 10 4 3
f 10 3 7
f 10 8 4
f 10 6 8