# https://github.com/mikedh/trimesh
v -0.10035057 -0.34500629 -0.03062183
v -0.10035057 -0.34500629 -0.02873017
v -0.10024999 -0.33501422 -0.03045836
v -0.09507455 -0.34500629 -0.03562539
v -0.10015856 -0.35220340 -0.03029488
v -0.09499226 -0.34500629 -0.02487095
v -0.09499226 -0.33501422 -0.02518039
v -0.09386756 -0.30501470 -0.02534386
v -0.10024999 -0.33501422 -0.02907464
v -0.10015856 -0.35220340 -0.02938992
v -0.09336464 -0.37500581 -0.02515703
v -0.09405959 -0.33529371 -0.03629098
v -0.10003054 -0.32951742 -0.03007302
v -0.09386756 -0.30501470 -0.03408988
v -0.09437962 -0.31500679 -0.03446938
v -0.08907616 -0.31500679 -0.03946710
v -0.08999969 -0.35003728 -0.04000424
v -0.09493740 -0.35446265 -0.03505322
v -0.09010027 -0.33881074 -0.04006263
v -0.09007284 -0.34500629 -0.04004511
v -0.09435219 -0.36501375 -0.03445186
v -0.09336464 -0.37500581 -0.03388553
v -0.09214851 -0.38499787 -0.03286380
v -0.09074035 -0.39498997 -0.03110643
v -0.09001798 -0.40006751 -0.03004383
v -0.08499798 -0.29502264 -0.02243631
v -0.08499798 -0.38499787 -0.02243631
v -0.09279773 -0.29502264 -0.02519206
v -0.10003054 -0.32951742 -0.02984532
v -0.09001798 -0.40006751 -0.02992122
v -0.09074035 -0.39498997 -0.02802372
v -0.09214851 -0.38499787 -0.02560659
v -0.09031059 -0.27909121 -0.03051090
v -0.09125240 -0.28500727 -0.03169611
v -0.09279773 -0.29502264 -0.03323162
v -0.08832636 -0.30501470 -0.03909344
v -0.08407445 -0.31500679 -0.04233379
v -0.08451336 -0.32502216 -0.04258484
v -0.05256460 -0.35502166 -0.06147811
v -0.05227199 -0.36501375 -0.06137885
v -0.05192453 -0.37500581 -0.06118035
v -0.08967966 -0.35669866 -0.03980573
v -0.07117242 -0.33501422 -0.05067695
v -0.06499115 -0.33501422 -0.05419170
v -0.05764860 -0.34500629 -0.05865229
v -0.07137358 -0.34500629 -0.05079372
v -0.07637529 -0.34500629 -0.04792120
v -0.08499798 -0.34500629 -0.04296434
v -0.07576265 -0.32502216 -0.04758257
v -0.07076094 -0.32502216 -0.05043757
v -0.08905787 -0.36501375 -0.03944959
v -0.08823492 -0.37500581 -0.03888326
v -0.08716509 -0.38499787 -0.03786153
v -0.08264800 -0.41499740 -0.03323746
v -0.08113012 -0.42256716 -0.03156766
v -0.07499456 -0.26502311 -0.02232538
v -0.08499798 -0.28500727 -0.02313692
v -0.08264800 -0.41499740 -0.02550734
v -0.07499456 -0.41499740 -0.02269904
v -0.02500491 -0.48498851 -0.02219109
v -0.08251999 -0.26502311 -0.02586349
v -0.09125240 -0.28500727 -0.02676845
v -0.09031059 -0.27909121 -0.02888197
v -0.08113012 -0.42256716 -0.02727056
v -0.08221824 -0.26376539 -0.03256604
v -0.08251999 -0.26502311 -0.03286380
v -0.08548261 -0.27545774 -0.03379212
v -0.08450422 -0.28435510 -0.03729520
v -0.08702793 -0.29502264 -0.03822935
v -0.08203536 -0.29502264 -0.04109020
v -0.08333380 -0.30501470 -0.04185503
v -0.06986484 -0.31081432 -0.04992963
v -0.07421733 -0.31449437 -0.04782194
v -0.07036775 -0.31749898 -0.05021571
v -0.06499115 -0.32502216 -0.05372463
v -0.05265604 -0.34500629 -0.06145475
v -0.04500260 -0.35502166 -0.06519137
v -0.04500260 -0.36501375 -0.06516217
v -0.04500260 -0.37500581 -0.06490529
v -0.05113815 -0.38332090 -0.06069575
v -0.06985570 -0.37854612 -0.04991211
v -0.05734685 -0.33501422 -0.05851801
v -0.08216338 -0.38499787 -0.04134125
v -0.08002371 -0.40009081 -0.04002176
v -0.07897216 -0.40675220 -0.03941456
v -0.07741770 -0.41499740 -0.03824103
v -0.07339439 -0.43498155 -0.03380963
v -0.07153817 -0.44273764 -0.03201139
v -0.07374185 -0.26376539 -0.02237792
v -0.07506771 -0.26376539 -0.02266401
v -0.07339439 -0.43498155 -0.02539057
v -0.05499687 -0.45498899 -0.02282749
v -0.04524948 -0.47520605 -0.02482424
v -0.03498089 -0.48522142 -0.02500523
v -0.02500491 -0.49323371 -0.02576423
v -0.00693658 -0.49516690 -0.02310773
v -0.08165132 -0.26376539 -0.02576423
v -0.08221824 -0.26376539 -0.02621963
v -0.07153817 -0.44273764 -0.02693192
v -0.07511344 -0.26376539 -0.03787904
v -0.07508601 -0.26439425 -0.03815345
v -0.07872527 -0.27501521 -0.03935617
v -0.07982254 -0.28058189 -0.03989331
v -0.08084665 -0.28724325 -0.04045380
v -0.07589067 -0.28435510 -0.04262571
v -0.06265031 -0.29502264 -0.05141260
v -0.06909676 -0.30501470 -0.04952094
v -0.07499456 -0.30501470 -0.04636817
v -0.06592382 -0.31449437 -0.05241681
v -0.06409504 -0.30501470 -0.05217160
v -0.05097356 -0.31500679 -0.06049725
v -0.05595698 -0.31500679 -0.05785826
v -0.05688052 -0.32502216 -0.05829031
v -0.04500260 -0.34500629 -0.06513882
v -0.05235429 -0.33501422 -0.06125624
v -0.04500260 -0.33501422 -0.06481187
v -0.03704741 -0.34500629 -0.06868277
v -0.03705656 -0.36501375 -0.06878202
v -0.03660851 -0.37500581 -0.06872364
v -0.04599928 -0.38597614 -0.06272170
v -0.06407676 -0.38499787 -0.05251607
v -0.04999517 -0.38998228 -0.05999514
v -0.06754229 -0.39498997 -0.04855759
v -0.06906933 -0.38499787 -0.04943336
v -0.07499456 -0.38499787 -0.04577264
v -0.07242513 -0.41499740 -0.04138212
v -0.07091639 -0.42221779 -0.04052971
v -0.06946251 -0.42887917 -0.03974151
v -0.06773432 -0.43498155 -0.03881320
v -0.06287891 -0.45498899 -0.03297473
v -0.06086725 -0.46137089 -0.03118816
v -0.06499115 -0.26376539 -0.02463157
v -0.06287891 -0.45498899 -0.02605616
v -0.05515232 -0.46481803 -0.02532635
v -0.04207655 -0.48203048 -0.02689689
v -0.05193367 -0.47203839 -0.02696696
v -0.03163423 -0.49106759 -0.02740484
v -0.01310870 -0.50087333 -0.02761502
v -0.00693658 -0.50166523 -0.02647652
v -0.01587016 -0.49593553 -0.02522709
v -0.00693658 -0.48498851 -0.02418201
v -0.06373844 -0.26376539 -0.02509281
v -0.06086725 -0.46137089 -0.02785440
v -0.07412589 -0.26376539 -0.03843370
v -0.07181250 -0.26730570 -0.04087417
v -0.07372356 -0.27501521 -0.04191926
v -0.06126958 -0.28703362 -0.05068279
v -0.05499687 -0.29502264 -0.05537108
v -0.04918136 -0.30270886 -0.05958645
v -0.05410992 -0.30562028 -0.05749044
v -0.05019633 -0.30937022 -0.06009439
v -0.04500260 -0.31500679 -0.06338145
v -0.05188795 -0.32502216 -0.06098768
v -0.03010720 -0.30967301 -0.07004897
v -0.03683710 -0.33501422 -0.06854849
v -0.03183539 -0.33501422 -0.07083133
v -0.02500491 -0.33501422 -0.07392571
v -0.01573300 -0.33501422 -0.07809437
v -0.04500260 -0.32502216 -0.06427473
v -0.03628847 -0.32502216 -0.06828576
v -0.03128676 -0.32502216 -0.07058611
v -0.03204570 -0.34500629 -0.07090722
v -0.01004550 -0.37009129 -0.08001523
v -0.01073129 -0.33501422 -0.08031882
v -0.01072215 -0.34500629 -0.08030715
v -0.03069241 -0.38087529 -0.07023580
v -0.03442311 -0.38450876 -0.06784203
v -0.00693658 -0.42035446 -0.06996723
v -0.00708288 -0.42498946 -0.06871197
v -0.06115071 -0.40276933 -0.05065944
v -0.05856299 -0.44795495 -0.03944375
v -0.06084896 -0.44129357 -0.04036039
v -0.06273261 -0.43498155 -0.04125367
v -0.05515232 -0.46481803 -0.03363448
v -0.05193367 -0.47203839 -0.03185375
v -0.04207655 -0.48203048 -0.03195300
v -0.03163423 -0.49106759 -0.03135164
v -0.01310870 -0.50087333 -0.03125823
v -0.00693658 -0.50166523 -0.03220405
v -0.00693658 -0.26376539 -0.04761760
v -0.06583238 -0.26376539 -0.04225789
v -0.01472717 -0.28570601 -0.07142685
v -0.01500149 -0.29502264 -0.07438695
v -0.05979742 -0.28037226 -0.04992379
v -0.04775491 -0.29502264 -0.05896173
v -0.02908308 -0.30301163 -0.06952935
v -0.02545296 -0.30580664 -0.07173628
v -0.01500149 -0.30501470 -0.07657637
v -0.00967974 -0.31305030 -0.07978169
v -0.02500491 -0.31500679 -0.07288063
v -0.03057354 -0.31500679 -0.07026500
v -0.02500491 -0.32502216 -0.07345279
v -0.01003635 -0.31971169 -0.08000939
v -0.01530324 -0.32502216 -0.07786667
v -0.01030153 -0.32502216 -0.08013199
v -0.01402309 -0.31582201 -0.07796593
v -0.00693658 -0.37242046 -0.08059324
v -0.00693658 -0.41634831 -0.07086635
v -0.00693658 -0.34500629 -0.08179012
v -0.00693658 -0.36501375 -0.08121211
v -0.00693658 -0.32502216 -0.08148652
v -0.00693658 -0.33501422 -0.08183683
v -0.00693658 -0.42510593 -0.06874116
v -0.00693658 -0.42545530 -0.06863023
v -0.00693658 -0.43193036 -0.06649919
v -0.04929109 -0.45908830 -0.03968897
v -0.05513403 -0.45545483 -0.03818848
v -0.04557867 -0.46581957 -0.03885407
v -0.04524948 -0.47520605 -0.03421248
v -0.03584042 -0.47571847 -0.03898251
v -0.03498089 -0.48522142 -0.03386218
v -0.02500491 -0.49323371 -0.03303896
v -0.01587016 -0.49593553 -0.03428839
v -0.00693658 -0.49479425 -0.03745867
v -0.00693658 -0.50087333 -0.03281710
v -0.00693658 -0.26376539 -0.06620143
v -0.02197828 -0.26376539 -0.06091177
v -0.01121592 -0.27864867 -0.07052188
v -0.00693658 -0.29483631 -0.07767400
v -0.00877450 -0.30501470 -0.07944305
v -0.03500833 -0.29502264 -0.06496951
v -0.00693658 -0.31503007 -0.08101945
v -0.00693658 -0.30501470 -0.08018454
v -0.00693658 -0.32297251 -0.08139894
v -0.00693658 -0.31687009 -0.08111870
v -0.00693658 -0.43421292 -0.06574602
v -0.03973572 -0.46970925 -0.03988747
v -0.02933911 -0.47951499 -0.03980573
v -0.00693658 -0.44704658 -0.06084172
v -0.02560840 -0.48501179 -0.03831693
v -0.01500149 -0.48857540 -0.03942040
v -0.00693658 -0.49379271 -0.03811842
v -0.00693658 -0.27051991 -0.06889296
v -0.00763151 -0.27196401 -0.06924910
v -0.01624506 -0.26376539 -0.06316543
v -0.00693658 -0.28302747 -0.07355205
v -0.00693658 -0.29315931 -0.07711351
v -0.00693658 -0.29975080 -0.07889424
v -0.00693658 -0.44432145 -0.06188680
v -0.02267321 -0.48168111 -0.04066399
v -0.00693658 -0.44935244 -0.05977912
v -0.00693658 -0.49022910 -0.04010934
v -0.00693658 -0.27270934 -0.06973954
f 1 2 9
f 1 9 3
f 1 3 4
f 1 4 5
f 1 5 10
f 1 10 2
f 2 6 7
f 2 7 8
f 2 8 9
f 2 10 11
f 2 11 6
f 3 12 4
f 3 9 29
f 3 29 13
f 3 13 14
f 3 14 15
f 3 15 16
f 3 16 12
f 4 17 18
f 4 18 5
f 4 12 19
f 4 19 20
f 4 20 17
f 5 18 21
f 5 21 22
f 5 22 23
f 5 23 24
f 5 24 25
f 5 25 30
f 5 30 10
f 6 26 8
f 6 8 7
f 6 11 27
f 6 27 26
f 8 26 28
f 8 28 9
f 9 28 29
f 10 30 31
f 10 31 32
f 10 32 11
f 11 32 27
f 12 16 19
f 13 29 63
f 13 63 33
f 13 33 34
f 13 34 35
f 13 35 14
f 14 36 16
f 14 16 15
f 14 35 36
f 16 36 37
f 16 37 38
f 16 38 19
f 17 20 39
f 17 39 40
f 17 40 41
f 17 41 42
f 17 42 18
f 18 42 21
f 19 43 44
f 19 44 45
f 19 45 46
f 19 46 47
f 19 47 48
f 19 48 20
f 19 38 49
f 19 49 50
f 19 50 43
f 20 48 39
f 21 51 52
f 21 52 22
f 21 42 51
f 22 52 53
f 22 53 23
f 23 53 54
f 23 54 24
f 24 54 25
f 25 54 55
f 25 55 64
f 25 64 30
f 26 56 57
f 26 57 28
f 26 27 56
f 27 32 58
f 27 58 59
f 27 59 60
f 27 60 56
f 28 57 61
f 28 61 62
f 28 62 29
f 29 62 63
f 30 64 31
f 31 64 58
f 31 58 32
f 33 63 98
f 33 98 65
f 33 65 66
f 33 66 67
f 33 67 34
f 34 67 68
f 34 68 69
f 34 69 35
f 35 69 36
f 36 69 70
f 36 70 71
f 36 71 72
f 36 72 73
f 36 73 37
f 37 73 74
f 37 74 75
f 37 75 50
f 37 50 49
f 37 49 38
f 39 48 47
f 39 47 46
f 39 46 45
f 39 45 76
f 39 76 77
f 39 77 78
f 39 78 40
f 40 78 79
f 40 79 41
f 41 51 42
f 41 79 80
f 41 80 81
f 41 81 51
f 43 50 75
f 43 75 44
f 44 75 82
f 44 82 45
f 45 82 76
f 51 81 52
f 52 81 83
f 52 83 53
f 53 83 84
f 53 84 85
f 53 85 54
f 54 85 86
f 54 86 55
f 55 87 88
f 55 88 99
f 55 99 64
f 55 86 87
f 56 89 90
f 56 90 61
f 56 61 57
f 56 60 89
f 58 64 91
f 58 91 59
f 59 91 92
f 59 92 60
f 60 92 93
f 60 93 94
f 60 94 95
f 60 95 96
f 60 96 89
f 61 90 97
f 61 97 98
f 61 98 63
f 61 63 62
f 64 99 91
f 65 98 97
f 65 97 90
f 65 90 89
f 65 89 132
f 65 132 142
f 65 142 180
f 65 180 216
f 65 216 235
f 65 235 217
f 65 217 181
f 65 181 144
f 65 144 100
f 65 100 66
f 66 100 101
f 66 101 102
f 66 102 67
f 67 102 68
f 68 102 69
f 69 102 103
f 69 103 104
f 69 104 70
f 70 104 105
f 70 105 106
f 70 106 107
f 70 107 108
f 70 108 71
f 71 108 72
f 72 109 74
f 72 74 73
f 72 108 107
f 72 107 110
f 72 110 111
f 72 111 112
f 72 112 109
f 74 113 75
f 74 109 113
f 75 113 82
f 76 114 77
f 76 82 115
f 76 115 116
f 76 116 114
f 77 114 117
f 77 117 118
f 77 118 78
f 78 118 79
f 79 119 120
f 79 120 80
f 79 118 119
f 80 121 81
f 80 120 122
f 80 122 85
f 80 85 123
f 80 123 121
f 81 121 124
f 81 124 125
f 81 125 83
f 82 113 115
f 83 125 84
f 84 123 85
f 84 125 124
f 84 124 121
f 84 121 123
f 85 122 126
f 85 126 127
f 85 127 128
f 85 128 86
f 86 128 87
f 87 129 88
f 87 128 129
f 88 129 130
f 88 130 131
f 88 131 143
f 88 143 99
f 89 96 132
f 91 99 133
f 91 133 134
f 91 134 92
f 92 134 93
f 93 135 94
f 93 134 136
f 93 136 135
f 94 135 137
f 94 137 95
f 95 137 138
f 95 138 139
f 95 139 140
f 95 140 96
f 96 140 139
f 96 139 179
f 96 179 215
f 96 215 214
f 96 214 232
f 96 232 242
f 96 242 241
f 96 241 229
f 96 229 239
f 96 239 226
f 96 226 205
f 96 205 204
f 96 204 203
f 96 203 168
f 96 168 198
f 96 198 197
f 96 197 200
f 96 200 199
f 96 199 202
f 96 202 201
f 96 201 224
f 96 224 225
f 96 225 222
f 96 222 223
f 96 223 238
f 96 238 219
f 96 219 237
f 96 237 236
f 96 236 243
f 96 243 233
f 96 233 216
f 96 216 180
f 96 180 141
f 96 141 142
f 96 142 132
f 99 143 133
f 100 144 101
f 101 145 102
f 101 144 145
f 102 145 146
f 102 146 147
f 102 147 103
f 103 147 105
f 103 105 104
f 105 147 106
f 106 148 149
f 106 149 150
f 106 150 110
f 106 110 107
f 106 147 148
f 109 112 113
f 110 150 151
f 110 151 111
f 111 152 153
f 111 153 112
f 111 151 154
f 111 154 152
f 112 153 113
f 113 153 115
f 114 116 155
f 114 155 156
f 114 156 157
f 114 157 158
f 114 158 117
f 115 153 116
f 116 153 159
f 116 159 160
f 116 160 161
f 116 161 155
f 117 162 118
f 117 158 164
f 117 164 162
f 118 163 119
f 118 162 164
f 118 164 165
f 118 165 163
f 119 163 166
f 119 166 120
f 120 166 167
f 120 167 168
f 120 168 169
f 120 169 122
f 122 170 126
f 122 169 171
f 122 171 172
f 122 172 173
f 122 173 128
f 122 128 127
f 122 127 170
f 126 170 127
f 128 173 172
f 128 172 129
f 129 172 171
f 129 171 130
f 130 174 131
f 130 171 174
f 131 174 175
f 131 175 136
f 131 136 143
f 133 143 134
f 134 143 136
f 135 176 177
f 135 177 137
f 135 136 175
f 135 175 176
f 137 177 178
f 137 178 138
f 138 178 179
f 138 179 139
f 141 180 142
f 144 181 145
f 145 181 182
f 145 182 183
f 145 183 184
f 145 184 146
f 146 184 147
f 147 184 185
f 147 185 148
f 148 185 149
f 149 185 186
f 149 186 154
f 149 154 151
f 149 151 150
f 152 154 153
f 153 154 159
f 154 187 188
f 154 188 189
f 154 189 190
f 154 190 191
f 154 191 159
f 154 186 187
f 155 161 156
f 156 161 192
f 156 192 193
f 156 193 194
f 156 194 157
f 157 194 195
f 157 195 158
f 158 195 164
f 159 191 190
f 159 190 160
f 160 190 161
f 161 190 196
f 161 196 193
f 161 193 192
f 163 197 198
f 163 198 166
f 163 165 199
f 163 199 200
f 163 200 197
f 164 195 201
f 164 201 202
f 164 202 165
f 165 202 199
f 166 198 168
f 166 168 167
f 168 203 169
f 169 203 171
f 171 203 204
f 171 204 205
f 171 205 206
f 171 206 207
f 171 207 174
f 174 208 175
f 174 207 208
f 175 208 209
f 175 209 176
f 176 209 210
f 176 210 211
f 176 211 177
f 177 212 178
f 177 211 212
f 178 212 213
f 178 213 214
f 178 214 215
f 178 215 179
f 181 217 182
f 182 218 219
f 182 219 183
f 182 217 218
f 183 219 220
f 183 220 188
f 183 188 186
f 183 186 221
f 183 221 184
f 184 221 185
f 185 221 186
f 186 188 187
f 188 220 189
f 189 222 193
f 189 193 196
f 189 196 190
f 189 220 223
f 189 223 222
f 193 224 195
f 193 195 194
f 193 222 225
f 193 225 224
f 195 224 201
f 205 226 206
f 206 227 208
f 206 208 207
f 206 226 227
f 208 227 210
f 208 210 209
f 210 228 211
f 210 227 229
f 210 229 228
f 211 228 230
f 211 230 212
f 212 230 213
f 213 230 231
f 213 231 214
f 214 231 232
f 216 233 234
f 216 234 235
f 217 235 218
f 218 236 237
f 218 237 219
f 218 235 234
f 218 234 236
f 219 238 220
f 220 238 223
f 226 239 227
f 227 239 229
f 228 240 230
f 228 229 240
f 229 241 240
f 230 240 231
f 231 242 232
f 231 240 241
f 231 241 242
f 233 243 234
f 234 243 236

