# https://github.com/mikedh/trimesh
v -0.00692607 -0.50167745 -0.03220213
v -0.00499373 -0.50192589 -0.03249761
v -0.00692607 -0.50167745 -0.02647563
v -0.00692607 -0.49478438 -0.03745585
v -0.00564484 -0.49462914 -0.03791090
v 0.00500406 -0.50192589 -0.03249761
v -0.00499373 -0.50192589 -0.02612104
v 0.00565517 -0.49462914 -0.03792272
v -0.00692607 -0.49515700 -0.02310710
v -0.00692607 -0.49379081 -0.03811774
v -0.00274632 -0.49104288 -0.04054072
v 0.01311151 -0.50087017 -0.03125658
v 0.00500406 -0.50192589 -0.02612104
v 0.00500406 -0.49498621 -0.02259886
v -0.00499373 -0.49498621 -0.02264614
v 0.01587350 -0.49594876 -0.03430007
v 0.00275666 -0.49104288 -0.04054072
v 0.01500184 -0.48857442 -0.03942969
v -0.00692607 -0.48498815 -0.02418266
v -0.00692607 -0.49022007 -0.04010931
v -0.00191668 -0.45126796 -0.06064552
v 0.02501013 -0.49323189 -0.03304131
v 0.03163681 -0.49105841 -0.03135113
v 0.01311151 -0.50087017 -0.02761620
v 0.02501013 -0.49323189 -0.02576055
v 0.01587350 -0.49594876 -0.02519322
v 0.02501013 -0.48498815 -0.02219109
v 0.08499684 -0.38500750 -0.02243930
v 0.08499684 -0.37500942 -0.02272297
v 0.08499684 -0.34335408 -0.02495683
v 0.02560874 -0.48501921 -0.03831276
v 0.00192701 -0.45126796 -0.06064552
v -0.00692607 -0.47693071 -0.02646381
v -0.00692607 -0.44935840 -0.05977680
v -0.00515126 -0.44522876 -0.06230024
v -0.00037290 -0.43044901 -0.07014242
v 0.03498691 -0.48522103 -0.03386275
v 0.03163681 -0.49105841 -0.02740345
v 0.04207568 -0.48203841 -0.03194801
v 0.03498691 -0.48522103 -0.02500411
v 0.04524724 -0.47522295 -0.02482091
v 0.05499298 -0.45499396 -0.02282343
v 0.07499906 -0.41500169 -0.02269342
v 0.09214862 -0.38500750 -0.02560690
v 0.09336683 -0.37500942 -0.02515776
v 0.09499463 -0.34501523 -0.02486819
v 0.08265492 -0.41500169 -0.02550643
v 0.09499463 -0.34335408 -0.02492137
v -0.00692607 -0.34335408 -0.06655522
v -0.00692607 -0.46935451 -0.02870358
v -0.00692607 -0.47499007 -0.02703114
v 0.02933690 -0.47952336 -0.03980792
v 0.00038323 -0.43044901 -0.07014242
v 0.00516159 -0.44522876 -0.06230024
v -0.00692607 -0.44704518 -0.06084054
v -0.00421659 -0.43426815 -0.06711074
v -0.00692607 -0.42510843 -0.06874181
v -0.00692607 -0.42035779 -0.06996512
v -0.00207421 -0.42499974 -0.07077475
v -0.00130757 -0.38224405 -0.08047257
v 0.03583756 -0.47571975 -0.03898647
v 0.04207568 -0.48203841 -0.02689522
v 0.04524724 -0.47522295 -0.03421143
v 0.05192644 -0.47204036 -0.03185345
v 0.05192644 -0.47204036 -0.02696613
v 0.05515051 -0.46482125 -0.02532323
v 0.07339227 -0.43499783 -0.02539415
v 0.09073086 -0.39500555 -0.02802397
v 0.10016155 -0.35220328 -0.02938911
v 0.10034008 -0.34501523 -0.02872722
v 0.07154394 -0.44274476 -0.02693067
v 0.08112165 -0.42259338 -0.02726753
v 0.10032958 -0.34335408 -0.02878632
v -0.00692607 -0.34335408 -0.08179635
v 0.00208453 -0.42499974 -0.07077475
v 0.03070215 -0.38087785 -0.07023697
v 0.03441981 -0.38452622 -0.06784354
v 0.04600338 -0.38600111 -0.06271983
v 0.04999409 -0.38999102 -0.05999546
v 0.05856362 -0.44796115 -0.03944742
v 0.04927997 -0.45910805 -0.03968972
v 0.04558330 -0.46583036 -0.03885054
v 0.03973376 -0.46971160 -0.03988474
v 0.00131790 -0.38224405 -0.08047257
v -0.00692607 -0.44432831 -0.06188656
v -0.00692607 -0.43422157 -0.06574559
v -0.00692607 -0.43192390 -0.06650203
v -0.00692607 -0.41638342 -0.07086340
v -0.00543481 -0.41500169 -0.07174985
v -0.00499373 -0.40500364 -0.07413737
v -0.00692607 -0.37243229 -0.08059668
v -0.00478369 -0.37404689 -0.08099854
v -0.00499373 -0.36501136 -0.08192636
v 0.05515051 -0.46482125 -0.03363227
v 0.06086353 -0.46137470 -0.03118566
v 0.06086353 -0.46137470 -0.02785850
v 0.06287989 -0.45499396 -0.02605604
v 0.09001674 -0.40008223 -0.02992098
v 0.10016155 -0.35220328 -0.03029920
v 0.10034008 -0.34501523 -0.03062424
v 0.07154394 -0.44274476 -0.03200711
v 0.08112165 -0.42259338 -0.03156979
v 0.10032958 -0.34335408 -0.03059469
v -0.00499373 -0.34335408 -0.08256461
v -0.00692607 -0.34501523 -0.08179043
v 0.00500406 -0.40500364 -0.07413737
v 0.01004496 -0.37007251 -0.08001161
v 0.03660420 -0.37500942 -0.06872408
v 0.04500570 -0.37500942 -0.06490642
v 0.05112829 -0.38333079 -0.06069871
v 0.07896876 -0.40677348 -0.03941787
v 0.07242610 -0.41500169 -0.04137990
v 0.06114708 -0.40278357 -0.05065813
v 0.07092433 -0.42223632 -0.04052890
v 0.06946456 -0.42888099 -0.03974291
v 0.06273287 -0.43499783 -0.04125579
v 0.06084253 -0.44130096 -0.04036342
v 0.06287989 -0.45499396 -0.03297630
v 0.05514001 -0.45545971 -0.03818865
v 0.06773176 -0.43499783 -0.03880917
v 0.00500406 -0.36501136 -0.08192636
v 0.00479402 -0.37404689 -0.08099854
v -0.00692607 -0.36501136 -0.08121128
v -0.00499373 -0.34501523 -0.08255279
v 0.09001674 -0.40008223 -0.03004509
v 0.09073086 -0.39500555 -0.03110883
v 0.09214862 -0.38500750 -0.03286401
v 0.09336683 -0.37500942 -0.03388639
v 0.09434351 -0.36501136 -0.03445372
v 0.09494212 -0.35445440 -0.03505060
v 0.09506814 -0.34501523 -0.03562384
v 0.07339227 -0.43499783 -0.03380957
v 0.07742499 -0.41500169 -0.03823593
v 0.08265492 -0.41500169 -0.03323632
v 0.09490011 -0.34335408 -0.03573613
v 0.00500406 -0.34335408 -0.08256461
v 0.03705578 -0.36501136 -0.06877727
v 0.00500406 -0.34501523 -0.08255279
v 0.01071708 -0.34501523 -0.08030710
v 0.04500570 -0.36501136 -0.06516054
v 0.05226250 -0.36501136 -0.06137833
v 0.05191594 -0.37500942 -0.06117740
v 0.06985314 -0.37853360 -0.04991350
v 0.06407711 -0.38500750 -0.05251968
v 0.06754272 -0.39500555 -0.04855427
v 0.07499906 -0.39500555 -0.04402153
v 0.08001895 -0.40009776 -0.04002066
v 0.08716023 -0.38500750 -0.03786362
v 0.08824192 -0.37500942 -0.03888600
v 0.08906107 -0.36501136 -0.03945333
v 0.08968068 -0.35670552 -0.03980200
v 0.08999573 -0.35002980 -0.04000293
v 0.09006925 -0.34501523 -0.04005021
v 0.09007975 -0.34335408 -0.04005021
v 0.09373440 -0.34335408 -0.03681169
v 0.00977191 -0.34335408 -0.08069123
v 0.01072758 -0.34335408 -0.08031301
v 0.01489682 -0.34335408 -0.07848691
v 0.02501013 -0.34501523 -0.07403100
v 0.03204639 -0.34501523 -0.07090476
v 0.04500570 -0.35501331 -0.06519599
v 0.05254605 -0.35501331 -0.06147879
v 0.08216134 -0.38500750 -0.04134443
v 0.06907600 -0.38500750 -0.04943482
v 0.08074358 -0.39500555 -0.04046980
v 0.07637480 -0.34501523 -0.04792193
v 0.07031522 -0.34335408 -0.05136138
v 0.07136541 -0.34501523 -0.05079405
v 0.05764996 -0.34501523 -0.05864804
v 0.02346635 -0.34335408 -0.07470471
v 0.03704528 -0.34501523 -0.06868272
v 0.04500570 -0.34501523 -0.06514280
v 0.05265107 -0.34501523 -0.06145515
v 0.05759745 -0.34335408 -0.05863031
v 0.03088068 -0.34335408 -0.07140709
v 0.04365096 -0.34335408 -0.06571013
v 0.04500570 -0.34335408 -0.06508371
v 0.05138034 -0.34335408 -0.06201066
v 0.05259856 -0.34335408 -0.06141970
f 1 2 7
f 1 7 3
f 1 3 9
f 1 9 19
f 1 19 33
f 1 33 51
f 1 51 50
f 1 50 49
f 1 49 74
f 1 74 105
f 1 105 123
f 1 123 91
f 1 91 88
f 1 88 58
f 1 58 57
f 1 57 87
f 1 87 86
f 1 86 85
f 1 85 55
f 1 55 34
f 1 34 20
f 1 20 10
f 1 10 4
f 1 4 5
f 1 5 2
f 2 6 13
f 2 13 7
f 2 5 8
f 2 8 6
f 3 7 9
f 4 10 5
f 5 10 11
f 5 11 8
f 6 12 24
f 6 24 13
f 6 8 12
f 7 13 14
f 7 14 15
f 7 15 9
f 8 16 12
f 8 11 17
f 8 17 18
f 8 18 16
f 9 15 19
f 10 20 11
f 11 20 21
f 11 21 32
f 11 32 17
f 12 16 22
f 12 22 23
f 12 23 38
f 12 38 24
f 13 24 25
f 13 25 26
f 13 26 14
f 14 26 25
f 14 25 27
f 14 27 15
f 15 27 28
f 15 28 29
f 15 29 30
f 15 30 19
f 16 18 31
f 16 31 22
f 17 32 18
f 18 32 31
f 19 30 33
f 20 34 21
f 21 34 35
f 21 35 36
f 21 36 53
f 21 53 32
f 22 31 37
f 22 37 23
f 23 37 39
f 23 39 62
f 23 62 38
f 24 38 25
f 25 38 40
f 25 40 27
f 27 40 41
f 27 41 42
f 27 42 43
f 27 43 28
f 28 44 45
f 28 45 46
f 28 46 29
f 28 43 47
f 28 47 44
f 29 46 48
f 29 48 30
f 30 48 73
f 30 73 103
f 30 103 135
f 30 135 155
f 30 155 154
f 30 154 167
f 30 167 174
f 30 174 179
f 30 179 178
f 30 178 177
f 30 177 176
f 30 176 175
f 30 175 170
f 30 170 158
f 30 158 157
f 30 157 156
f 30 156 136
f 30 136 104
f 30 104 74
f 30 74 49
f 30 49 50
f 30 50 51
f 30 51 33
f 31 52 37
f 31 32 52
f 32 53 54
f 32 54 52
f 34 55 35
f 35 55 56
f 35 56 36
f 36 56 57
f 36 57 58
f 36 58 59
f 36 59 60
f 36 60 84
f 36 84 53
f 37 52 61
f 37 61 39
f 38 62 40
f 39 61 63
f 39 63 64
f 39 64 65
f 39 65 62
f 40 62 41
f 41 62 65
f 41 65 66
f 41 66 42
f 42 66 67
f 42 67 43
f 43 67 47
f 44 68 69
f 44 69 45
f 44 47 68
f 45 69 70
f 45 70 46
f 46 70 48
f 47 67 71
f 47 71 72
f 47 72 68
f 48 70 73
f 52 54 53
f 52 53 61
f 53 75 76
f 53 76 77
f 53 77 78
f 53 78 79
f 53 79 80
f 53 80 81
f 53 81 82
f 53 82 83
f 53 83 61
f 53 84 75
f 55 85 56
f 56 85 86
f 56 86 87
f 56 87 57
f 58 88 89
f 58 89 59
f 59 89 90
f 59 90 60
f 60 91 92
f 60 92 93
f 60 93 121
f 60 121 84
f 60 90 91
f 61 83 82
f 61 82 63
f 63 82 64
f 64 82 94
f 64 94 95
f 64 95 96
f 64 96 65
f 65 96 66
f 66 96 97
f 66 97 67
f 67 97 71
f 68 98 69
f 68 72 98
f 69 99 100
f 69 100 70
f 69 98 125
f 69 125 99
f 70 100 103
f 70 103 73
f 71 101 102
f 71 102 72
f 71 97 96
f 71 96 95
f 71 95 101
f 72 102 125
f 72 125 98
f 74 104 105
f 75 84 106
f 75 106 76
f 76 84 107
f 76 107 108
f 76 108 78
f 76 78 77
f 76 106 84
f 78 108 109
f 78 109 110
f 78 110 79
f 79 110 111
f 79 111 112
f 79 112 113
f 79 113 114
f 79 114 115
f 79 115 116
f 79 116 117
f 79 117 80
f 80 118 94
f 80 94 119
f 80 119 81
f 80 117 120
f 80 120 118
f 81 119 82
f 82 119 94
f 84 121 122
f 84 122 107
f 88 90 89
f 88 91 90
f 91 123 93
f 91 93 92
f 93 123 124
f 93 124 138
f 93 138 121
f 94 118 95
f 95 118 101
f 99 125 126
f 99 126 127
f 99 127 128
f 99 128 129
f 99 129 130
f 99 130 131
f 99 131 100
f 100 131 103
f 101 118 120
f 101 120 132
f 101 132 102
f 102 132 133
f 102 133 134
f 102 134 125
f 103 131 135
f 104 136 138
f 104 138 124
f 104 124 105
f 105 124 123
f 107 137 108
f 107 122 121
f 107 121 138
f 107 138 139
f 107 139 137
f 108 137 109
f 109 137 140
f 109 140 141
f 109 141 142
f 109 142 110
f 110 142 143
f 110 143 144
f 110 144 145
f 110 145 111
f 111 134 133
f 111 133 115
f 111 115 114
f 111 114 112
f 111 145 146
f 111 146 147
f 111 147 148
f 111 148 134
f 112 114 113
f 115 133 132
f 115 132 120
f 115 120 117
f 115 117 116
f 125 134 126
f 126 134 127
f 127 148 128
f 127 134 148
f 128 148 149
f 128 149 129
f 129 150 151
f 129 151 130
f 129 149 150
f 130 152 131
f 130 151 152
f 131 152 153
f 131 153 154
f 131 154 155
f 131 155 135
f 136 156 138
f 137 139 157
f 137 157 158
f 137 158 159
f 137 159 160
f 137 160 161
f 137 161 140
f 138 156 139
f 139 156 157
f 140 161 162
f 140 162 141
f 141 162 152
f 141 152 142
f 142 152 151
f 142 151 150
f 142 150 143
f 143 150 149
f 143 149 163
f 143 163 164
f 143 164 144
f 144 164 146
f 144 146 145
f 146 164 163
f 146 163 165
f 146 165 147
f 147 165 148
f 148 165 163
f 148 163 149
f 152 162 153
f 153 162 166
f 153 166 154
f 154 166 168
f 154 168 169
f 154 169 167
f 158 170 159
f 159 170 160
f 160 170 171
f 160 171 161
f 161 171 172
f 161 172 173
f 161 173 162
f 162 173 169
f 162 169 168
f 162 168 166
f 167 169 174
f 169 173 174
f 170 175 172
f 170 172 171
f 172 175 176
f 172 176 177
f 172 177 178
f 172 178 173
f 173 178 179
f 173 179 174

