# https://github.com/mikedh/trimesh
v 0.08222209 -0.26374209 -0.02621463
v 0.08252660 -0.26500428 -0.02586644
v 0.09030738 -0.27908325 -0.02888213
v 0.08222209 -0.26374209 -0.03256470
v 0.07506084 -0.26374209 -0.02266190
v 0.08499419 -0.28500468 -0.02313402
v 0.09279597 -0.29500100 -0.02519366
v 0.09125242 -0.28500468 -0.02676347
v 0.07499783 -0.26500428 -0.02231961
v 0.10003072 -0.32950890 -0.02984408
v 0.09030738 -0.27908325 -0.03051096
v 0.08165507 -0.26374209 -0.03301911
v 0.08252660 -0.26500428 -0.03286567
v 0.06499098 -0.26374209 -0.02463301
v 0.08499419 -0.29500100 -0.02243764
v 0.09386700 -0.30499730 -0.02534120
v 0.10025123 -0.33499402 -0.02907098
v 0.08499419 -0.34333855 -0.02495170
v 0.10003072 -0.32950890 -0.03007424
v 0.09125242 -0.28500468 -0.03169717
v 0.08548771 -0.27545249 -0.03379222
v 0.07511334 -0.26374209 -0.03788199
v 0.07872547 -0.27500060 -0.03935738
v 0.07508184 -0.26438877 -0.03815346
v -0.00692607 -0.26374209 -0.04761955
v 0.09499054 -0.34333855 -0.02492219
v 0.09499054 -0.33499402 -0.02518186
v 0.10032474 -0.34333855 -0.02878770
v 0.10025123 -0.33499402 -0.03045784
v -0.00692607 -0.34333855 -0.06655762
v 0.09386700 -0.30499730 -0.03409320
v 0.09279597 -0.29500100 -0.03323157
v 0.08703126 -0.29500100 -0.03823018
v 0.08450067 -0.28434244 -0.03729774
v 0.07458832 -0.26374209 -0.03822428
v 0.07981750 -0.28057140 -0.03989442
v 0.06127385 -0.28702265 -0.05068835
v 0.07372729 -0.27500060 -0.04191865
v 0.07180572 -0.26731053 -0.04087408
v -0.00692607 -0.26374209 -0.06620353
v 0.10032474 -0.34333855 -0.03059358
v 0.09927469 -0.34333855 -0.03159094
v 0.09489604 -0.34333855 -0.03573973
v 0.09405601 -0.33528230 -0.03629448
v 0.08907884 -0.31499362 -0.03946951
v 0.09438153 -0.31499362 -0.03447090
v -0.00692607 -0.34333855 -0.08179542
v 0.08833331 -0.30499730 -0.03909181
v 0.08203308 -0.29500100 -0.04108653
v 0.08084655 -0.28724080 -0.04045507
v 0.07056668 -0.26374209 -0.04028392
v 0.07589036 -0.28434244 -0.04262093
v 0.06264940 -0.29500100 -0.05141424
v 0.05499462 -0.29500100 -0.05537418
v 0.04774937 -0.29500100 -0.05896233
v 0.05979329 -0.28035325 -0.04992115
v 0.01500921 -0.29500100 -0.07437717
v -0.00692607 -0.27052057 -0.06889463
v -0.00475250 -0.26374209 -0.06685270
v -0.00457399 -0.26558083 -0.06767301
v 0.09374100 -0.34333855 -0.03681381
v 0.09009737 -0.33880398 -0.04005966
v 0.08451118 -0.32499769 -0.04258553
v 0.08408066 -0.31499362 -0.04233766
v -0.00692607 -0.33499402 -0.08183673
v -0.00499400 -0.33499402 -0.08260983
v -0.00499400 -0.34333855 -0.08256263
v 0.07422081 -0.31447938 -0.04782610
v 0.06987365 -0.31080186 -0.04992705
v 0.08332463 -0.30499730 -0.04185373
v 0.07499783 -0.30499730 -0.04636842
v 0.06909662 -0.30499730 -0.04951985
v 0.06764758 -0.29500100 -0.04875265
v 0.01472570 -0.28569812 -0.07142640
v 0.01121857 -0.27863136 -0.07052346
v 0.02197095 -0.26374209 -0.06090984
v 0.06408795 -0.30499730 -0.05217554
v 0.05411259 -0.30561283 -0.05749284
v 0.04916692 -0.30269107 -0.05958789
v 0.02907971 -0.30301049 -0.06953200
v 0.03500191 -0.29500100 -0.06497011
v 0.01500921 -0.30499730 -0.07657255
v 0.00878248 -0.30499730 -0.07944070
v 0.00202024 -0.29799289 -0.08076265
v -0.00692607 -0.27268657 -0.06973855
v -0.00095136 -0.26929733 -0.07028740
v 0.00476084 -0.26374209 -0.06685270
v 0.09007637 -0.34333855 -0.04005376
v 0.08588672 -0.33528230 -0.04229635
v 0.07031467 -0.34333855 -0.05136113
v 0.05759872 -0.34333855 -0.05863184
v 0.06499098 -0.33499402 -0.05419387
v 0.07117570 -0.33499402 -0.05067655
v 0.07576436 -0.32499769 -0.04758414
v 0.07075568 -0.32499769 -0.05044049
v 0.06499098 -0.32499769 -0.05372765
v 0.07036717 -0.31747127 -0.05021623
v -0.00692607 -0.32499769 -0.08148853
v -0.00499400 -0.32499769 -0.08226755
v 0.00500235 -0.33499402 -0.08260983
v 0.00500235 -0.34333855 -0.08256263
v 0.05687419 -0.32499769 -0.05828955
v 0.06591501 -0.31447938 -0.05241751
v 0.05596066 -0.31499362 -0.05785874
v 0.00762744 -0.27196196 -0.06924873
v 0.01500921 -0.26500428 -0.06405536
v 0.01500921 -0.26374209 -0.06357144
v 0.05096248 -0.31499362 -0.06049673
v 0.05018545 -0.30935267 -0.06009542
v 0.04551279 -0.30561283 -0.06184228
v 0.03010874 -0.30966431 -0.07004543
v 0.02544658 -0.30579981 -0.07173328
v 0.00968552 -0.31303018 -0.07978889
v 0.00377380 -0.30499730 -0.08146493
v -0.00201190 -0.29799289 -0.08076265
v 0.00097021 -0.26929733 -0.07028740
v 0.00458233 -0.27517980 -0.07142050
v -0.00692607 -0.28301790 -0.07355095
v -0.00457399 -0.27517980 -0.07142050
v 0.00458233 -0.26558083 -0.06767301
v 0.05260054 -0.34333855 -0.06142327
v 0.05734671 -0.33499402 -0.05851971
v -0.00692607 -0.32295638 -0.08140001
v -0.00376546 -0.30499730 -0.08146493
v 0.00500235 -0.32499769 -0.08226755
v -0.00580253 -0.31581950 -0.08152985
v 0.01073555 -0.33499402 -0.08032003
v 0.01072505 -0.34333855 -0.08031413
v 0.00976952 -0.34333855 -0.08069183
v 0.05234853 -0.33499402 -0.06125803
v 0.05187602 -0.32499769 -0.06098656
v 0.04500877 -0.31499362 -0.06338259
v 0.03058126 -0.31499362 -0.07026379
v 0.02500556 -0.31499362 -0.07288408
v 0.04500877 -0.32499769 -0.06427962
v 0.01402217 -0.31581950 -0.07796531
v 0.01003203 -0.31969959 -0.08001316
v 0.00581088 -0.31581950 -0.08152985
v -0.00692607 -0.30499730 -0.08018430
v -0.00692607 -0.29973814 -0.07889186
v -0.00692607 -0.29482958 -0.07767024
v -0.00692607 -0.29314667 -0.07711549
v 0.04500877 -0.34333855 -0.06508813
v 0.04500877 -0.33499402 -0.06481076
v -0.00692607 -0.31685573 -0.08112264
v -0.00692607 -0.31500140 -0.08101641
v 0.01030504 -0.32499769 -0.08013118
v 0.01573373 -0.33499402 -0.07809515
v 0.03087527 -0.34333855 -0.07140869
v 0.02346200 -0.34333855 -0.07470766
v 0.01489370 -0.34333855 -0.07848465
v 0.03128478 -0.32499769 -0.07058248
v 0.02500556 -0.32499769 -0.07345062
v 0.03683948 -0.33499402 -0.06855235
v 0.03184130 -0.33499402 -0.07083035
v 0.02500556 -0.33499402 -0.07392865
v 0.04364372 -0.34333855 -0.06570780
v 0.03617796 -0.34333855 -0.06904218
f 1 2 3
f 1 3 11
f 1 11 4
f 1 4 12
f 1 12 22
f 1 22 35
f 1 35 51
f 1 51 76
f 1 76 107
f 1 107 87
f 1 87 59
f 1 59 40
f 1 40 25
f 1 25 14
f 1 14 5
f 1 5 2
f 2 6 7
f 2 7 8
f 2 8 3
f 2 5 9
f 2 9 6
f 3 8 10
f 3 10 19
f 3 19 11
f 4 11 13
f 4 13 12
f 5 14 9
f 6 9 15
f 6 15 7
f 7 16 17
f 7 17 10
f 7 10 8
f 7 15 16
f 9 18 15
f 9 14 18
f 10 17 29
f 10 29 19
f 11 19 20
f 11 20 21
f 11 21 13
f 12 13 22
f 13 21 23
f 13 23 24
f 13 24 22
f 14 25 18
f 15 18 26
f 15 26 16
f 16 26 27
f 16 27 28
f 16 28 17
f 17 28 41
f 17 41 29
f 18 25 30
f 18 30 47
f 18 47 67
f 18 67 101
f 18 101 129
f 18 129 128
f 18 128 151
f 18 151 150
f 18 150 149
f 18 149 158
f 18 158 157
f 18 157 143
f 18 143 121
f 18 121 91
f 18 91 90
f 18 90 88
f 18 88 61
f 18 61 43
f 18 43 42
f 18 42 41
f 18 41 28
f 18 28 26
f 19 29 31
f 19 31 32
f 19 32 20
f 20 32 33
f 20 33 34
f 20 34 21
f 21 34 23
f 22 24 35
f 23 36 37
f 23 37 38
f 23 38 39
f 23 39 24
f 23 34 33
f 23 33 36
f 24 39 35
f 25 40 58
f 25 58 85
f 25 85 118
f 25 118 142
f 25 142 141
f 25 141 140
f 25 140 139
f 25 139 146
f 25 146 145
f 25 145 123
f 25 123 98
f 25 98 65
f 25 65 47
f 25 47 30
f 26 28 27
f 29 41 42
f 29 42 43
f 29 43 44
f 29 44 45
f 29 45 46
f 29 46 31
f 31 46 45
f 31 45 48
f 31 48 32
f 32 48 33
f 33 48 49
f 33 49 50
f 33 50 36
f 35 39 51
f 36 50 52
f 36 52 37
f 37 53 54
f 37 54 55
f 37 55 56
f 37 56 38
f 37 52 53
f 38 56 39
f 39 56 57
f 39 57 51
f 40 59 60
f 40 60 58
f 43 61 44
f 44 61 62
f 44 62 45
f 45 63 64
f 45 64 48
f 45 62 63
f 47 65 66
f 47 66 67
f 48 64 68
f 48 68 69
f 48 69 70
f 48 70 49
f 49 71 72
f 49 72 73
f 49 73 50
f 49 70 71
f 50 73 52
f 51 57 74
f 51 74 75
f 51 75 76
f 52 73 53
f 53 77 78
f 53 78 54
f 53 73 72
f 53 72 77
f 54 78 79
f 54 79 55
f 55 79 80
f 55 80 81
f 55 81 56
f 56 81 57
f 57 81 80
f 57 80 82
f 57 82 83
f 57 83 84
f 57 84 74
f 58 60 86
f 58 86 85
f 59 87 116
f 59 116 86
f 59 86 60
f 61 88 62
f 62 89 63
f 62 88 90
f 62 90 91
f 62 91 92
f 62 92 93
f 62 93 89
f 63 89 94
f 63 94 64
f 64 94 95
f 64 95 96
f 64 96 97
f 64 97 68
f 65 98 99
f 65 99 66
f 66 99 125
f 66 125 100
f 66 100 101
f 66 101 67
f 68 97 69
f 69 97 102
f 69 102 103
f 69 103 104
f 69 104 77
f 69 77 72
f 69 72 71
f 69 71 70
f 74 84 75
f 75 105 106
f 75 106 76
f 75 84 105
f 76 106 107
f 77 104 108
f 77 108 109
f 77 109 78
f 78 109 79
f 79 109 110
f 79 110 80
f 80 111 112
f 80 112 82
f 80 110 111
f 82 113 83
f 82 112 111
f 82 111 113
f 83 113 114
f 83 114 84
f 84 114 124
f 84 124 115
f 84 115 86
f 84 86 116
f 84 116 117
f 84 117 105
f 85 86 119
f 85 119 115
f 85 115 118
f 86 115 119
f 87 120 116
f 87 107 120
f 89 93 94
f 91 121 122
f 91 122 92
f 92 122 96
f 92 96 93
f 93 95 94
f 93 96 95
f 96 122 102
f 96 102 97
f 98 123 99
f 99 124 114
f 99 114 125
f 99 123 126
f 99 126 124
f 100 125 127
f 100 127 128
f 100 128 129
f 100 129 101
f 102 104 103
f 102 122 130
f 102 130 131
f 102 131 104
f 104 131 108
f 105 107 106
f 105 117 116
f 105 116 120
f 105 120 107
f 108 131 132
f 108 132 111
f 108 111 109
f 109 111 110
f 111 133 134
f 111 134 113
f 111 132 135
f 111 135 133
f 113 134 136
f 113 136 137
f 113 137 138
f 113 138 114
f 114 138 125
f 115 124 139
f 115 139 140
f 115 140 141
f 115 141 142
f 115 142 118
f 121 143 144
f 121 144 130
f 121 130 122
f 123 145 126
f 124 126 146
f 124 146 139
f 125 138 137
f 125 137 147
f 125 147 127
f 126 145 146
f 127 147 148
f 127 148 149
f 127 149 150
f 127 150 151
f 127 151 128
f 130 144 131
f 131 144 135
f 131 135 132
f 133 135 134
f 134 135 152
f 134 152 136
f 135 144 152
f 136 152 137
f 137 152 153
f 137 153 154
f 137 154 155
f 137 155 156
f 137 156 147
f 143 157 155
f 143 155 154
f 143 154 144
f 144 154 152
f 147 156 148
f 148 156 157
f 148 157 158
f 148 158 149
f 152 154 153
f 155 157 156

