# https://github.com/mikedh/trimesh
v 0.00428193 -0.11665834 -0.01145583
v 0.01493845 -0.12499524 -0.01145583
v 0.02163500 -0.17851558 -0.03058789
v 0.02499937 -0.19498782 -0.03602707
v 0.02499937 -0.20279196 -0.03901510
v 0.01854429 -0.20058894 -0.03975804
v 0.00474875 -0.26374209 -0.06685093
v -0.00474875 -0.26374209 -0.06685635
v -0.00428193 -0.11665834 -0.01145583
v 0.01514772 -0.12525442 -0.01145583
v 0.04421975 -0.21575089 -0.03703031
v 0.03121300 -0.18793240 -0.03100545
v 0.03689541 -0.21292871 -0.03909644
v 0.02498328 -0.18476467 -0.03195988
v 0.03023105 -0.20978978 -0.04006714
v 0.02499937 -0.20778835 -0.04082635
v 0.01498675 -0.26374209 -0.06357007
v -0.00688972 -0.26374209 -0.06621103
v -0.03023105 -0.20978978 -0.04006714
v -0.02499937 -0.20778835 -0.04082635
v -0.02499937 -0.20279196 -0.03901510
v -0.01854429 -0.20058894 -0.03975804
v -0.00986775 -0.12034443 -0.01145583
v 0.01981599 -0.13500240 -0.01145583
v 0.08087370 -0.25814095 -0.02778424
v 0.08087370 -0.25814095 -0.03123863
v 0.07049083 -0.23923533 -0.03071804
v 0.06158893 -0.22768749 -0.03175381
v 0.05209142 -0.21498775 -0.03196531
v 0.05555238 -0.22460614 -0.03438935
v 0.04753584 -0.22499491 -0.03916152
v 0.04037246 -0.21959536 -0.04012137
v 0.02195695 -0.26374209 -0.06091284
v -0.01624235 -0.26374209 -0.06316335
v -0.03689541 -0.21292871 -0.03909644
v -0.02499937 -0.19498782 -0.03602707
v -0.01493845 -0.12499524 -0.01145583
v -0.02498328 -0.18476467 -0.03195988
v 0.02060477 -0.13827094 -0.01145583
v 0.07506251 -0.26374209 -0.02266500
v 0.08222589 -0.26374209 -0.02621701
v 0.08222589 -0.26374209 -0.03256725
v 0.07554544 -0.25488684 -0.03408567
v 0.07232594 -0.24499485 -0.03238829
v 0.06495330 -0.23553483 -0.03320716
v 0.06456696 -0.24512443 -0.03763225
v 0.05521433 -0.23426774 -0.03870057
v 0.05869138 -0.24188471 -0.03953570
v 0.06781865 -0.25498763 -0.03917779
v 0.07055522 -0.26374209 -0.04027864
v -0.02195695 -0.26374209 -0.06091284
v -0.04753584 -0.22499491 -0.03916152
v -0.04037246 -0.21959536 -0.04012137
v -0.04421975 -0.21575089 -0.03703031
v -0.03121300 -0.18793240 -0.03100545
v -0.01514772 -0.12525442 -0.01145583
v 0.02065306 -0.14500958 -0.01145583
v 0.02047599 -0.15370645 -0.01145583
v 0.01988038 -0.15834287 -0.01145583
v 0.01563065 -0.16722693 -0.01145583
v 0.00499022 -0.17212252 -0.01145583
v -0.07372642 -0.26374209 -0.02238301
v 0.08164638 -0.26374209 -0.03301735
v 0.07511081 -0.26374209 -0.03788171
v 0.07457959 -0.26374209 -0.03822335
v -0.06582256 -0.26374209 -0.04225258
v -0.06781865 -0.25498763 -0.03917779
v -0.05869138 -0.24188471 -0.03953570
v -0.05521433 -0.23426774 -0.03870057
v -0.05555238 -0.22460614 -0.03438935
v -0.05209142 -0.21498775 -0.03196531
v -0.01885014 -0.13035160 -0.01145583
v -0.00499022 -0.17212252 -0.01145583
v -0.00861215 -0.17118660 -0.01145583
v -0.01563065 -0.16722693 -0.01145583
v -0.01637113 -0.16613261 -0.01145583
v -0.02008964 -0.16053148 -0.01145583
v -0.02047599 -0.15370645 -0.01145583
v -0.02062086 -0.14970359 -0.01145583
v -0.02065306 -0.14500958 -0.01145583
v -0.02060477 -0.13827094 -0.01145583
v -0.07506251 -0.26374209 -0.02266500
v -0.07412886 -0.26374209 -0.03843484
v -0.07511081 -0.26374209 -0.03788171
v -0.06456696 -0.24512443 -0.03763225
v -0.06495330 -0.23553483 -0.03320716
v -0.06158893 -0.22768749 -0.03175381
v -0.02021842 -0.13569355 -0.01145583
v -0.07049083 -0.23923533 -0.03071804
v -0.08087370 -0.25814095 -0.03123863
v -0.08087370 -0.25814095 -0.02778424
v -0.08222589 -0.26374209 -0.02621701
v -0.08164638 -0.26374209 -0.02576149
v -0.07232594 -0.24499485 -0.03238829
v -0.08222589 -0.26374209 -0.03256725
v -0.07554544 -0.25488684 -0.03408567
f 1 2 3
f 1 3 4
f 1 4 5
f 1 5 6
f 1 6 7
f 1 7 8
f 1 8 9
f 1 9 23
f 1 23 37
f 1 37 56
f 1 56 72
f 1 72 88
f 1 88 81
f 1 81 80
f 1 80 79
f 1 79 78
f 1 78 77
f 1 77 76
f 1 76 75
f 1 75 74
f 1 74 73
f 1 73 61
f 1 61 60
f 1 60 59
f 1 59 58
f 1 58 57
f 1 57 39
f 1 39 24
f 1 24 10
f 1 10 2
f 2 10 11
f 2 11 12
f 2 12 13
f 2 13 14
f 2 14 3
f 3 14 4
f 4 14 13
f 4 13 15
f 4 15 5
f 5 16 7
f 5 7 6
f 5 15 16
f 7 16 15
f 7 15 13
f 7 13 17
f 7 17 33
f 7 33 50
f 7 50 65
f 7 65 64
f 7 64 63
f 7 63 42
f 7 42 41
f 7 41 40
f 7 40 62
f 7 62 82
f 7 82 93
f 7 93 92
f 7 92 95
f 7 95 84
f 7 84 83
f 7 83 66
f 7 66 51
f 7 51 34
f 7 34 18
f 7 18 8
f 8 18 19
f 8 19 20
f 8 20 21
f 8 21 22
f 8 22 9
f 9 22 21
f 9 21 23
f 10 24 25
f 10 25 26
f 10 26 27
f 10 27 28
f 10 28 29
f 10 29 11
f 11 13 12
f 11 29 30
f 11 30 31
f 11 31 13
f 13 31 32
f 13 32 17
f 17 32 31
f 17 31 33
f 18 34 35
f 18 35 19
f 19 35 36
f 19 36 21
f 19 21 20
f 21 36 23
f 23 36 38
f 23 38 35
f 23 35 37
f 24 39 40
f 24 40 41
f 24 41 25
f 25 41 42
f 25 42 26
f 26 42 43
f 26 43 44
f 26 44 27
f 27 44 28
f 28 44 45
f 28 45 30
f 28 30 29
f 30 45 46
f 30 46 47
f 30 47 31
f 31 47 48
f 31 48 33
f 33 48 49
f 33 49 50
f 34 51 52
f 34 52 53
f 34 53 35
f 35 53 52
f 35 52 54
f 35 54 55
f 35 55 37
f 35 38 36
f 37 55 54
f 37 54 56
f 39 57 40
f 40 57 58
f 40 58 59
f 40 59 60
f 40 60 61
f 40 61 62
f 42 63 43
f 43 64 44
f 43 63 64
f 44 64 46
f 44 46 45
f 46 64 65
f 46 65 49
f 46 49 48
f 46 48 47
f 49 65 50
f 51 66 67
f 51 67 68
f 51 68 52
f 52 68 69
f 52 69 70
f 52 70 54
f 54 70 71
f 54 71 56
f 56 71 72
f 61 73 62
f 62 73 74
f 62 74 75
f 62 75 76
f 62 76 77
f 62 77 78
f 62 78 79
f 62 79 80
f 62 80 81
f 62 81 82
f 66 83 67
f 67 83 84
f 67 84 85
f 67 85 68
f 68 85 69
f 69 85 70
f 70 85 86
f 70 86 87
f 70 87 71
f 71 87 72
f 72 87 89
f 72 89 90
f 72 90 91
f 72 91 92
f 72 92 93
f 72 93 88
f 81 88 82
f 82 88 93
f 84 94 85
f 84 95 96
f 84 96 94
f 85 94 86
f 86 94 87
f 87 94 89
f 89 94 90
f 90 95 92
f 90 92 91
f 90 94 96
f 90 96 95

