# https://github.com/mikedh/trimesh
v 0.00499542 0.48499900 0.08252326
v 0.01054747 0.46837652 0.08013146
v 0.01131164 0.47497275 0.08037064
v 0.01219374 0.48499900 0.08075701
v 0.01172203 0.49212292 0.08064662
v 0.00513694 0.49528912 0.08157574
v -0.00499542 0.48499900 0.08252326
v 0.00168873 0.45861411 0.08015906
v 0.02022699 0.36824590 0.07014112
v 0.02145344 0.42497340 0.07182458
v 0.02133079 0.43499964 0.07194417
v 0.02118928 0.44495994 0.07205456
v 0.01631179 0.47497275 0.07670016
v 0.01769390 0.48565862 0.07455674
v 0.02132608 0.39496058 0.07114384
v 0.02152891 0.40498686 0.07148421
v 0.02154778 0.41494712 0.07169579
v 0.01400040 0.49528912 0.07539387
v 0.00856628 0.49878511 0.07899996
v 0.00189628 0.50050008 0.08060982
v -0.00513694 0.49528912 0.08157574
v -0.00168873 0.45861411 0.08015906
v -0.01172203 0.49212292 0.08064662
v -0.01219374 0.48499900 0.08075701
v -0.01131164 0.47497275 0.08037064
v -0.01054747 0.46837652 0.08013146
v -0.02022699 0.36824590 0.07014112
v 0.01499571 0.36778414 0.07018712
v 0.02094399 0.38493431 0.07072987
v 0.01499571 0.36283699 0.06963517
v 0.00264630 0.18803711 0.05019724
v 0.00499542 0.15505600 0.04617719
v 0.00499542 0.14502974 0.04496290
v 0.00931630 0.19034578 0.04992127
v 0.01188241 0.19707394 0.05036283
v 0.01499571 0.22497594 0.05326978
v 0.02029775 0.28843158 0.06018759
v 0.02087795 0.29496187 0.06060155
v 0.02166571 0.30498812 0.06123629
v 0.02229309 0.31494841 0.06187104
v 0.02277423 0.32497466 0.06249658
v 0.02313745 0.33493495 0.06308533
v 0.02347236 0.38493431 0.06499877
v 0.02101475 0.45498618 0.07210976
v 0.02332142 0.39496058 0.06499877
v 0.02081191 0.46494648 0.07205456
v 0.02053360 0.47497275 0.07170499
v 0.02024586 0.48282224 0.07093225
v 0.02337331 0.34496123 0.06359129
v 0.02341104 0.35498747 0.06426283
v 0.02349123 0.37497401 0.06499877
v 0.01170788 0.50089586 0.07233053
v -0.00189628 0.50050008 0.08060982
v 0.00513694 0.50168741 0.07539387
v -0.01499571 0.36778414 0.07018712
v -0.01400040 0.49528912 0.07539387
v -0.01769390 0.48565862 0.07455674
v -0.00856628 0.49878511 0.07899996
v -0.01631179 0.47497275 0.07670016
v -0.02118928 0.44495994 0.07205456
v -0.02133079 0.43499964 0.07194417
v -0.02145344 0.42497340 0.07182458
v -0.02154778 0.41494712 0.07169579
v -0.02152891 0.40498686 0.07148421
v -0.02132608 0.39496058 0.07114384
v -0.01499571 0.36283699 0.06963517
v -0.02094399 0.38493431 0.07072987
v -0.02313745 0.33493495 0.06308533
v -0.02277423 0.32497466 0.06249658
v -0.02229309 0.31494841 0.06187104
v -0.02166571 0.30498812 0.06123629
v -0.02087795 0.29496187 0.06060155
v -0.02029775 0.28843158 0.06018759
v -0.01499571 0.22497594 0.05326978
v -0.01188241 0.19707394 0.05036283
v -0.00931630 0.19034578 0.04992127
v -0.00499542 0.14502974 0.04496290
v -0.00499542 0.15505600 0.04617719
v -0.00264630 0.18803711 0.05019724
v 0.00171231 0.10776109 0.04032650
v 0.00499542 0.13500348 0.04361061
v 0.01061351 -0.03168304 0.02021703
v 0.01580233 0.13440983 0.04125562
v 0.01499571 0.14502974 0.04283788
v 0.01512779 0.20531921 0.05077679
v 0.01499571 0.21494970 0.05201869
v 0.02017510 0.20888117 0.05013285
v 0.02063266 0.21494970 0.05051002
v 0.02130721 0.22497594 0.05113557
v 0.02184968 0.23493624 0.05176111
v 0.02223176 0.24496250 0.05233146
v 0.02398653 0.30498812 0.05499923
v 0.02409502 0.31494841 0.05499923
v 0.02326009 0.36494777 0.05666429
v 0.02296292 0.37497401 0.05714265
v 0.02290159 0.40498686 0.06499877
v 0.02053360 0.47497275 0.06923960
v 0.02024586 0.48282224 0.06966276
v 0.01170788 0.50089586 0.06913841
v 0.00499542 0.50175345 0.06845767
v -0.00513694 0.50168741 0.07539387
v -0.01170788 0.50089586 0.07233053
v -0.02024586 0.48282224 0.07093225
v -0.02053360 0.47497275 0.07170499
v -0.02081191 0.46494648 0.07205456
v -0.02101475 0.45498618 0.07210976
v -0.02332142 0.39496058 0.06499877
v -0.02347236 0.38493431 0.06499877
v -0.02349123 0.37497401 0.06499877
v -0.02341104 0.35498747 0.06426283
v -0.02337331 0.34496123 0.06359129
v -0.02398653 0.30498812 0.05499923
v -0.02223176 0.24496250 0.05233146
v -0.02184968 0.23493624 0.05176111
v -0.02130721 0.22497594 0.05113557
v -0.02063266 0.21494970 0.05051002
v -0.02017510 0.20888117 0.05013285
v -0.01512779 0.20531921 0.05077679
v -0.01499571 0.21494970 0.05201869
v -0.01499571 0.14502974 0.04283788
v -0.01580233 0.13440983 0.04125562
v -0.01061351 -0.03168304 0.02021703
v -0.00499542 0.13500348 0.04361061
v -0.00171231 0.10776109 0.04032650
v 0.00499542 -0.06499396 0.01586581
v 0.00970311 -0.09988797 0.00998752
v 0.01167958 -0.09322578 0.01054867
v 0.01307584 -0.08498050 0.01125701
v 0.01967037 0.13064998 0.03971015
v 0.02034963 0.13731216 0.04033570
v 0.02079304 0.14502974 0.04080486
v 0.02124589 0.15505600 0.04137521
v 0.02023642 -0.12205127 0.00038354
v 0.02041096 -0.11499330 0.00083430
v 0.02066568 -0.14494017 -0.00871447
v 0.02341104 0.35498747 0.05621353
v 0.02066568 -0.14494017 -0.01145583
v 0.02060436 -0.13821203 -0.01145583
v 0.02252894 0.38493431 0.05768540
v 0.01370794 0.49495929 0.06836568
v 0.02199119 0.39496058 0.05826495
v 0.02137325 0.40498686 0.05885370
v 0.02067040 0.41494712 0.05946085
v 0.02019869 0.42121354 0.05983801
v 0.00499542 0.49495929 0.06635106
v -0.00499542 0.50175345 0.06845767
v -0.01170788 0.50089586 0.06913841
v -0.02024586 0.48282224 0.06966276
v -0.02053360 0.47497275 0.06923960
v -0.02290159 0.40498686 0.06499877
v -0.02296292 0.37497401 0.05714265
v -0.02326009 0.36494777 0.05666429
v -0.02409502 0.31494841 0.05499923
v -0.02066568 -0.14494017 -0.00871447
v -0.02041096 -0.11499330 0.00083430
v -0.02023642 -0.12205127 0.00038354
v -0.02124589 0.15505600 0.04137521
v -0.02079304 0.14502974 0.04080486
v -0.02034963 0.13731216 0.04033570
v -0.01967037 0.13064998 0.03971015
v -0.01307584 -0.08498050 0.01125701
v -0.01167958 -0.09322578 0.01054867
v -0.00970311 -0.09988797 0.00998752
v -0.00499542 -0.06499396 0.01586581
v 0.00303782 -0.10061356 0.01010711
v 0.00582092 -0.10437340 0.00940797
v 0.00499542 -0.11499330 0.00718176
v 0.01276451 -0.13220945 0.00076071
v 0.01565611 -0.12521747 0.00180022
v 0.02014680 0.06831568 0.03018897
v 0.01942980 -0.12871346 -0.00108833
v 0.01965150 -0.15938589 -0.01036113
v 0.02042511 -0.15272370 -0.00938601
v 0.02048171 -0.15364718 -0.01145583
v 0.01981660 -0.13497987 -0.01145583
v 0.02030718 -0.12858152 -0.01039793
v 0.01516081 -0.12521747 -0.01145583
v -0.00499542 0.49495929 0.06635106
v 0.01505231 -0.12508553 -0.01145583
v 0.01493910 -0.12495360 -0.01145583
v 0.01443909 -0.12455782 -0.01145583
v 0.00428786 -0.11664239 -0.01145583
v -0.01370794 0.49495929 0.06836568
v -0.02019869 0.42121354 0.05983801
v -0.02067040 0.41494712 0.05946085
v -0.02137325 0.40498686 0.05885370
v -0.02199119 0.39496058 0.05826495
v -0.02252894 0.38493431 0.05768540
v -0.02060436 -0.13821203 -0.01145583
v -0.02341104 0.35498747 0.05621353
v -0.02066568 -0.14494017 -0.01145583
v -0.02062323 -0.14968944 -0.01145583
v -0.02042511 -0.15272370 -0.00938601
v -0.01965150 -0.15938589 -0.01036113
v -0.01942980 -0.12871346 -0.00108833
v -0.01565611 -0.12521747 0.00180022
v -0.02014680 0.06831568 0.03018897
v -0.01276451 -0.13220945 0.00076071
v -0.00499542 -0.11499330 0.00718176
v -0.00582092 -0.10437340 0.00940797
v -0.00303782 -0.10061356 0.01010711
v 0.00499542 -0.12495360 0.00417362
v 0.00499542 -0.16400325 -0.00866847
v 0.01298622 -0.16228822 -0.00922043
v 0.01563724 -0.16716942 -0.01145583
v 0.01988736 -0.15833050 -0.01145583
v -0.00428786 -0.11664239 -0.01145583
v -0.00988236 -0.12033626 -0.01145583
v -0.01493910 -0.12495360 -0.01145583
v -0.01516081 -0.12521747 -0.01145583
v -0.01885431 -0.13029656 -0.01145583
v -0.02022699 -0.13563949 -0.01145583
v -0.02048171 -0.15364718 -0.01145583
v -0.02009019 -0.16050723 -0.01145583
v -0.01638254 -0.16611403 -0.01145583
v -0.01563724 -0.16716942 -0.01145583
v -0.01298622 -0.16228822 -0.00922043
v -0.00862289 -0.17112717 -0.01145583
v -0.00499542 -0.12495360 0.00417362
v -0.00499542 -0.16400325 -0.00866847
v 0.00499542 -0.16895041 -0.01033353
v 0.00499542 -0.17211661 -0.01145583
v -0.00499542 -0.17211661 -0.01145583
v -0.00499542 -0.16895041 -0.01033353
f 1 2 3
f 1 3 4
f 1 4 5
f 1 5 6
f 1 6 21
f 1 21 7
f 1 7 22
f 1 22 8
f 1 8 9
f 1 9 2
f 2 9 3
f 3 9 4
f 4 10 11
f 4 11 12
f 4 12 13
f 4 13 14
f 4 14 5
f 4 9 15
f 4 15 16
f 4 16 17
f 4 17 10
f 5 14 18
f 5 18 19
f 5 19 20
f 5 20 6
f 6 20 53
f 6 53 21
f 7 21 23
f 7 23 24
f 7 24 25
f 7 25 26
f 7 26 27
f 7 27 22
f 8 22 55
f 8 55 28
f 8 28 9
f 9 29 15
f 9 28 30
f 9 30 31
f 9 31 32
f 9 32 33
f 9 33 34
f 9 34 35
f 9 35 36
f 9 36 37
f 9 37 38
f 9 38 39
f 9 39 40
f 9 40 41
f 9 41 42
f 9 42 29
f 10 17 43
f 10 43 11
f 11 43 12
f 12 44 13
f 12 43 45
f 12 45 44
f 13 46 14
f 13 44 46
f 14 46 47
f 14 47 48
f 14 48 18
f 15 29 42
f 15 42 49
f 15 49 50
f 15 50 16
f 16 50 51
f 16 51 17
f 17 51 43
f 18 52 19
f 18 48 52
f 19 52 20
f 20 52 54
f 20 54 101
f 20 101 53
f 21 53 23
f 22 27 55
f 23 56 57
f 23 57 24
f 23 53 58
f 23 58 56
f 24 57 59
f 24 59 60
f 24 60 61
f 24 61 62
f 24 62 63
f 24 63 64
f 24 64 65
f 24 65 27
f 24 27 25
f 25 27 26
f 27 66 55
f 27 65 67
f 27 67 68
f 27 68 69
f 27 69 70
f 27 70 71
f 27 71 72
f 27 72 73
f 27 73 74
f 27 74 75
f 27 75 76
f 27 76 77
f 27 77 78
f 27 78 79
f 27 79 66
f 28 55 79
f 28 79 31
f 28 31 30
f 31 79 77
f 31 77 33
f 31 33 32
f 33 77 124
f 33 124 80
f 33 80 81
f 33 81 82
f 33 82 83
f 33 83 84
f 33 84 85
f 33 85 35
f 33 35 34
f 35 85 86
f 35 86 36
f 36 86 37
f 37 86 85
f 37 85 87
f 37 87 38
f 38 87 39
f 39 87 88
f 39 88 89
f 39 89 40
f 40 89 90
f 40 90 41
f 41 90 91
f 41 91 42
f 42 91 92
f 42 92 49
f 43 51 93
f 43 93 45
f 44 45 46
f 45 94 95
f 45 95 96
f 45 96 97
f 45 97 47
f 45 47 46
f 45 93 94
f 47 97 98
f 47 98 48
f 48 98 99
f 48 99 52
f 49 92 50
f 50 92 93
f 50 93 51
f 52 99 100
f 52 100 54
f 53 101 102
f 53 102 58
f 54 100 146
f 54 146 101
f 55 66 79
f 56 58 102
f 56 102 103
f 56 103 57
f 57 103 104
f 57 104 105
f 57 105 59
f 59 105 106
f 59 106 60
f 60 106 107
f 60 107 108
f 60 108 61
f 61 108 62
f 62 108 63
f 63 108 109
f 63 109 64
f 64 109 110
f 64 110 65
f 65 110 111
f 65 111 68
f 65 68 67
f 68 112 113
f 68 113 69
f 68 111 112
f 69 113 114
f 69 114 70
f 70 114 115
f 70 115 71
f 71 115 116
f 71 116 117
f 71 117 72
f 72 117 73
f 73 117 118
f 73 118 119
f 73 119 74
f 74 119 75
f 75 119 118
f 75 118 77
f 75 77 76
f 77 120 121
f 77 121 122
f 77 122 123
f 77 123 124
f 77 79 78
f 77 118 120
f 80 124 164
f 80 164 125
f 80 125 82
f 80 82 81
f 82 125 126
f 82 126 127
f 82 127 128
f 82 128 129
f 82 129 83
f 83 129 87
f 83 87 84
f 84 87 85
f 87 129 130
f 87 130 88
f 88 130 89
f 89 130 131
f 89 131 90
f 90 131 132
f 90 132 91
f 91 132 133
f 91 133 134
f 91 134 92
f 92 134 135
f 92 135 93
f 93 136 94
f 93 135 137
f 93 137 138
f 93 138 136
f 94 136 138
f 94 138 95
f 95 139 98
f 95 98 97
f 95 97 96
f 95 138 139
f 98 140 99
f 98 139 141
f 98 141 142
f 98 142 143
f 98 143 144
f 98 144 140
f 99 140 145
f 99 145 100
f 100 145 178
f 100 178 146
f 101 146 102
f 102 146 147
f 102 147 148
f 102 148 103
f 103 148 149
f 103 149 104
f 104 149 107
f 104 107 105
f 105 107 106
f 107 149 150
f 107 150 151
f 107 151 152
f 107 152 153
f 107 153 108
f 108 153 109
f 109 153 110
f 110 153 112
f 110 112 111
f 112 153 154
f 112 154 155
f 112 155 113
f 113 155 156
f 113 156 157
f 113 157 114
f 114 157 158
f 114 158 115
f 115 158 159
f 115 159 116
f 116 159 117
f 117 159 160
f 117 160 121
f 117 121 120
f 117 120 118
f 121 160 122
f 122 161 162
f 122 162 163
f 122 163 164
f 122 164 124
f 122 124 123
f 122 160 161
f 125 164 201
f 125 201 165
f 125 165 166
f 125 166 126
f 126 166 167
f 126 167 168
f 126 168 169
f 126 169 127
f 127 169 133
f 127 133 128
f 128 133 170
f 128 170 130
f 128 130 129
f 130 170 131
f 131 170 133
f 131 133 132
f 133 169 171
f 133 171 172
f 133 172 173
f 133 173 135
f 133 135 134
f 135 173 174
f 135 174 137
f 137 174 206
f 137 206 205
f 137 205 222
f 137 222 223
f 137 223 218
f 137 218 216
f 137 216 215
f 137 215 214
f 137 214 213
f 137 213 192
f 137 192 191
f 137 191 189
f 137 189 212
f 137 212 211
f 137 211 210
f 137 210 209
f 137 209 208
f 137 208 207
f 137 207 182
f 137 182 181
f 137 181 180
f 137 180 179
f 137 179 177
f 137 177 175
f 137 175 138
f 138 175 176
f 138 176 144
f 138 144 143
f 138 143 142
f 138 142 141
f 138 141 139
f 140 144 145
f 144 176 175
f 144 175 177
f 144 177 145
f 145 177 179
f 145 179 180
f 145 180 181
f 145 181 182
f 145 182 207
f 145 207 178
f 146 178 147
f 147 178 183
f 147 183 148
f 148 183 184
f 148 184 185
f 148 185 186
f 148 186 187
f 148 187 188
f 148 188 151
f 148 151 149
f 149 151 150
f 151 188 189
f 151 189 152
f 152 190 153
f 152 189 190
f 153 190 189
f 153 189 191
f 153 191 154
f 154 191 192
f 154 192 193
f 154 193 156
f 154 156 155
f 156 193 194
f 156 194 195
f 156 195 196
f 156 196 162
f 156 162 161
f 156 161 197
f 156 197 158
f 156 158 157
f 158 197 159
f 159 197 161
f 159 161 160
f 162 196 163
f 163 196 198
f 163 198 199
f 163 199 200
f 163 200 164
f 164 200 201
f 165 201 200
f 165 200 166
f 166 200 199
f 166 199 167
f 167 199 219
f 167 219 202
f 167 202 168
f 168 203 204
f 168 204 205
f 168 205 172
f 168 172 169
f 168 202 203
f 169 172 171
f 172 205 206
f 172 206 173
f 173 206 174
f 178 184 183
f 178 207 208
f 178 208 209
f 178 209 210
f 178 210 211
f 178 211 184
f 184 211 212
f 184 212 189
f 184 189 185
f 185 189 186
f 186 189 187
f 187 189 188
f 192 213 193
f 193 213 214
f 193 214 194
f 194 214 215
f 194 215 216
f 194 216 198
f 194 198 196
f 194 196 195
f 198 216 217
f 198 217 218
f 198 218 219
f 198 219 199
f 202 219 220
f 202 220 203
f 203 220 224
f 203 224 221
f 203 221 204
f 204 221 222
f 204 222 205
f 216 218 217
f 218 223 224
f 218 224 220
f 218 220 219
f 221 224 223
f 221 223 222

