# https://github.com/mikedh/trimesh
v 0.00499877 0.04961330 0.05350393
v 0.01113231 0.04961330 0.05127971
v -0.00499994 0.04961330 0.05349363
v 0.00499877 -0.37493497 0.05339066
v 0.01230877 0.04961330 0.04523517
v 0.01098978 -0.37493497 0.05120762
v -0.00523426 0.04961330 0.05341125
v -0.00499994 -0.36495256 0.05338036
v 0.00499877 -0.38497132 0.05338036
v 0.01235225 0.04961330 0.04499833
v 0.01098736 -0.38497132 0.05119732
v -0.01113106 0.04961330 0.05127971
v -0.01098853 -0.32496908 0.05120762
v -0.01097887 -0.35497022 0.05119732
v -0.01097404 -0.37493497 0.05118703
v -0.00499994 -0.38497132 0.05335976
v 0.00499877 -0.39495373 0.05334947
v 0.01241506 0.04961330 0.03538063
v 0.01206478 -0.37493497 0.04499833
v 0.01205753 -0.38497132 0.04499833
v 0.01095596 -0.39495373 0.05116643
v -0.01226162 0.04961330 0.04499833
v -0.01195241 -0.37493497 0.04499833
v -0.01194275 -0.38497132 0.04499833
v -0.01096437 -0.38497132 0.05117673
v -0.00499994 -0.39495373 0.05331858
v 0.00499877 -0.40499008 0.05329798
v 0.01241747 0.04961330 0.03498933
v 0.01205511 -0.38497132 0.03498933
v 0.01208410 -0.37493497 0.03498933
v 0.01215899 -0.30489638 0.03498933
v 0.01089798 -0.40499008 0.05110465
v 0.01196332 -0.39495373 0.04499833
v -0.01212393 0.04961330 0.03498933
v -0.01169876 -0.38497132 0.03498933
v -0.01165044 -0.39495373 0.03498933
v -0.01187994 -0.39495373 0.04499833
v -0.01092089 -0.39495373 0.05113554
v -0.00499994 -0.40499008 0.05324649
v -0.00499994 -0.41491848 0.05314352
v -0.00277264 -0.49493948 0.05217557
v 0.00260961 -0.49493948 0.05217557
v 0.00499877 -0.41491848 0.05314352
v 0.01228461 0.04961330 0.02499063
v 0.01206236 -0.29496795 0.02499063
v 0.01206961 -0.28493160 0.02499063
v 0.01163478 -0.38497132 0.02499063
v 0.01174590 -0.37493497 0.02499063
v 0.01184011 -0.36495256 0.02499063
v 0.01191259 -0.35497022 0.02499063
v 0.01195365 -0.34498781 0.02499063
v 0.01198747 -0.33495146 0.02499063
v 0.01201888 -0.32496908 0.02499063
v 0.01192708 -0.39495373 0.03498933
v 0.01204062 -0.31493273 0.02499063
v 0.01205511 -0.30489638 0.02499063
v 0.01075787 -0.41491848 0.05096048
v 0.01176523 -0.40499008 0.04499833
v -0.01131949 0.04961330 0.01453884
v -0.01102718 -0.38497132 0.02499063
v -0.01094263 0.04961330 0.00499322
v -0.01092572 0.04961330 0.00463281
v -0.01030730 0.04961330 -0.00480984
v -0.01093055 -0.39495373 0.02499063
v -0.01151275 -0.40499008 0.03498933
v -0.01175190 -0.40499008 0.04499833
v -0.01075904 -0.41491848 0.05096048
v -0.01085325 -0.40499008 0.05106346
v -0.00499994 -0.42495483 0.05298906
v -0.01021550 -0.44497359 0.05029116
v -0.01005848 -0.45112488 0.05007492
v -0.00606528 -0.48495707 0.04499833
v -0.00166140 -0.50163037 0.05145476
v -0.00499994 -0.43493724 0.05277282
v -0.01061893 -0.42495483 0.05080603
v -0.01044016 -0.43493724 0.05058978
v 0.00163849 -0.50163037 0.05145476
v 0.00557613 -0.48495707 0.04499833
v 0.01013219 -0.44189793 0.05017789
v 0.01031337 -0.43493724 0.05042503
v 0.01053804 -0.42495483 0.05070305
v 0.01207444 0.04961330 0.01538322
v 0.01190292 -0.24494809 0.01499192
v 0.01147775 -0.39495373 0.02499063
v 0.01127966 -0.35497022 0.01499192
v 0.01140528 -0.34498781 0.01499192
v 0.01150433 -0.33495146 0.01499192
v 0.01159613 -0.32496908 0.01499192
v 0.01166860 -0.31493273 0.01499192
v 0.01171450 -0.30489638 0.01499192
v 0.01175073 -0.29496795 0.01499192
v 0.01182320 -0.27494922 0.01499192
v 0.01188601 -0.25493050 0.01499192
v 0.01165169 -0.40499008 0.03498933
v 0.01145360 -0.41491848 0.04499833
v -0.00844235 -0.08501405 -0.02499260
v -0.00782876 -0.26491287 -0.02499260
v -0.00774904 -0.27494922 -0.02499260
v -0.00994494 0.04961330 -0.00898026
v -0.01023966 -0.39495373 0.01788547
v -0.01071314 -0.40499008 0.02499063
v -0.01129775 -0.41491848 0.03498933
v -0.01156106 -0.41491848 0.04499833
v -0.01129050 -0.42495483 0.04499833
v -0.01091606 -0.43493724 0.04499833
v -0.01043533 -0.44497359 0.04499833
v -0.01008505 -0.45155656 0.04499833
v -0.00972027 -0.45657474 0.04499833
v -0.00884095 -0.46493834 0.04499833
v -0.00760651 -0.47492075 0.04499833
v -0.00306011 -0.49520925 0.04461733
v -0.00166140 -0.50163037 0.04770653
v -0.00776836 -0.46493834 0.03498933
v -0.00525117 -0.47492075 0.03498933
v 0.00163849 -0.50163037 0.04770653
v 0.00291882 -0.49520925 0.04461733
v 0.00494562 -0.47492075 0.03498933
v 0.00719467 -0.46493834 0.03498933
v 0.00686613 -0.47492075 0.04499833
v 0.00790247 -0.46493834 0.04499833
v 0.00969736 -0.44686213 0.04499833
v 0.01013219 -0.44184396 0.04499833
v 0.01055495 -0.43493724 0.04499833
v 0.01105259 -0.42495483 0.04499833
v 0.01206478 0.04961330 0.01499192
v 0.01142702 -0.23496571 0.00499322
v 0.01145601 -0.21505488 0.00499322
v 0.01146809 -0.20501854 0.00499322
v 0.01147775 -0.19503616 0.00499322
v 0.01163478 0.04961330 0.00538452
v 0.01118304 -0.40499008 0.02499063
v 0.01046798 -0.39430618 0.01462122
v 0.01075304 -0.38497132 0.01499192
v 0.01093905 -0.37493497 0.01499192
v 0.01112023 -0.36495256 0.01499192
v 0.01062017 -0.33495146 0.00499322
v 0.01077236 -0.32496908 0.00499322
v 0.01091247 -0.31493273 0.00499322
v 0.01102601 -0.30489638 0.00499322
v 0.01111056 -0.29496795 0.00499322
v 0.01129657 -0.26491287 0.00499322
v 0.01135697 -0.25493050 0.00499322
v 0.01140287 -0.24494809 0.00499322
v 0.01127725 -0.41491848 0.03498933
v -0.00944730 0.04961330 -0.01444814
v -0.00750747 -0.11506913 -0.03499131
v -0.00717651 -0.21505488 -0.03499131
v -0.00677067 -0.25493050 -0.03499131
v -0.00660640 -0.26491287 -0.03499131
v -0.00741808 -0.29496795 -0.02499260
v -0.00868634 -0.34498781 -0.00499519
v -0.00850758 -0.35497022 -0.00499519
v -0.00964539 -0.39495373 0.01288097
v -0.01009954 -0.40499008 0.01923442
v -0.01040393 -0.41410911 0.02461992
v -0.01099095 -0.42495483 0.03498933
v -0.01005364 -0.45096302 0.03953045
v -0.00917673 -0.45457822 0.03571014
v -0.00140050 -0.49202567 0.03867577
v -0.00821527 -0.44497359 0.02499063
v -0.00638415 -0.45495594 0.02499063
v -0.00320747 -0.46472251 0.02474349
v 0.00138484 -0.49202567 0.03867577
v 0.00306377 -0.46472251 0.02474349
v 0.00609309 -0.45495594 0.02499063
v 0.00795562 -0.44497359 0.02499063
v 0.00927702 -0.43493724 0.02524806
v 0.01015152 -0.43159175 0.02875945
v 0.00833972 -0.45495594 0.03498933
v 0.00946062 -0.44427210 0.03556598
v 0.01004281 -0.44054896 0.03927302
v 0.01028438 -0.43493724 0.03556598
v 0.01086174 -0.42495483 0.03498933
v 0.01067815 -0.21505488 -0.00499519
v 0.01069989 -0.20501854 -0.00499519
v 0.01098253 0.04961330 -0.00593225
v 0.01161545 0.04961330 0.00499322
v 0.01034478 -0.42495483 0.02660731
v 0.01057910 -0.41588974 0.02402268
v 0.00999450 -0.41988271 0.02004791
v 0.01018775 -0.41319180 0.01898728
v 0.01039792 -0.40499008 0.01751477
v 0.01003556 -0.39058304 0.00980207
v 0.00987129 -0.35497022 0.00115231
v 0.00994618 -0.34730804 0.00048299
v 0.01001141 -0.34061715 -0.00008336
v 0.01039068 -0.34434029 0.00428270
v 0.01005972 -0.33495146 -0.00053645
v 0.01013944 -0.32496908 -0.00137053
v 0.01021674 -0.31493273 -0.00220461
v 0.01028922 -0.30489638 -0.00297691
v 0.01034236 -0.29496795 -0.00370802
v 0.01037135 -0.28493160 -0.00432586
v 0.00997275 -0.27494922 -0.00975255
v 0.00999450 -0.26933751 -0.00994820
v 0.01056944 -0.24494809 -0.00499519
v 0.01062017 -0.23496571 -0.00499519
v 0.01065399 -0.22503728 -0.00499519
v -0.00937724 0.04961330 -0.01514835
v -0.00736494 -0.07508563 -0.03499131
v -0.00546859 -0.12505153 -0.04499001
v -0.00548067 -0.13508786 -0.04499001
v -0.00546376 -0.14501628 -0.04499001
v -0.00541061 -0.15505263 -0.04499001
v -0.00532848 -0.16503502 -0.04499001
v -0.00522219 -0.17507137 -0.04499001
v -0.00499269 -0.19503616 -0.04499001
v -0.00627061 -0.27494922 -0.03499131
v -0.00692769 -0.31493273 -0.02499260
v -0.00723690 -0.30489638 -0.02499260
v -0.00473179 -0.20501854 -0.04499001
v -0.00776353 -0.33495146 -0.01499389
v -0.00745432 -0.34498781 -0.01499389
v -0.00817179 -0.36495256 -0.00499519
v -0.00840853 -0.39495373 0.00499322
v -0.00937966 -0.40499008 0.01424022
v -0.01001016 -0.41022408 0.01991404
v -0.01031938 -0.42495483 0.02762674
v -0.01013578 -0.43245512 0.02913015
v -0.01045949 -0.43547681 0.03429941
v -0.01022033 -0.44497359 0.03751218
v -0.00968404 -0.44497359 0.03252827
v -0.00995460 -0.43914601 0.03049970
v -0.00005736 -0.48004681 0.02995394
v -0.00094393 -0.46121520 0.01922412
v -0.00927820 -0.43547681 0.02547460
v -0.00809449 -0.42495483 0.01499192
v -0.00670544 -0.43493724 0.01499192
v -0.00359398 -0.44518942 0.01447706
v -0.00230640 -0.45495594 0.01751477
v 0.00006102 -0.48004681 0.02995394
v 0.00094276 -0.46121520 0.01922412
v 0.00225450 -0.45495594 0.01751477
v 0.00353967 -0.44518942 0.01447706
v 0.00678641 -0.43493724 0.01499192
v 0.00834697 -0.42495483 0.01499192
v 0.00978916 -0.42495483 0.02160281
v 0.00983747 -0.43822873 0.03260035
v 0.01013219 -0.21505488 -0.01161637
v 0.01014186 -0.20501854 -0.01170905
v 0.01090523 0.04961330 -0.00659128
v 0.01014910 -0.19503616 -0.01179143
v 0.01016118 -0.17507137 -0.01194589
v 0.01017326 -0.15505263 -0.01209005
v 0.00969978 -0.17507137 -0.01692979
v 0.00969736 -0.16503502 -0.01702247
v 0.00969495 -0.12505153 -0.01710485
v 0.00878180 -0.11506913 -0.02499260
v 0.00787107 -0.40499008 0.00499322
v 0.00983264 -0.39727396 0.01103775
v 0.00892191 -0.39430618 0.00587879
v 0.00701832 -0.35497022 -0.01499389
v 0.00753287 -0.34498781 -0.01499389
v 0.00795562 -0.33495146 -0.01499389
v 0.00888085 -0.35497022 -0.00499519
v 0.00830832 -0.32496908 -0.01499389
v 0.00859096 -0.31493273 -0.01499389
v 0.00957899 -0.32496908 -0.00637503
v 0.00968528 -0.31493273 -0.00719882
v 0.00976983 -0.30489638 -0.00798141
v 0.00985197 -0.29496795 -0.00871253
v 0.00992444 -0.28493160 -0.00932007
v 0.00953792 -0.26561433 -0.01408773
v 0.00953551 -0.24494809 -0.01575590
v 0.00958141 -0.23496571 -0.01614720
v 0.00962489 -0.22503728 -0.01645612
v 0.01010079 -0.23496571 -0.01115299
v 0.01012011 -0.22503728 -0.01145161
v -0.00813556 0.04961330 -0.02499260
v -0.00539129 -0.10503278 -0.04499001
v -0.00543235 -0.11506913 -0.04499001
v -0.00708954 -0.02506576 -0.03499131
v -0.00208657 -0.13508786 -0.05169357
v -0.00206724 -0.14501628 -0.05166268
v -0.00193438 -0.16503502 -0.05150822
v -0.00185949 -0.17507137 -0.05142584
v -0.00176769 -0.18505377 -0.05133316
v -0.00166382 -0.19503616 -0.05123019
v -0.00289342 -0.26491287 -0.04317768
v -0.00266634 -0.27494922 -0.04260103
v -0.00564977 -0.28493160 -0.03499131
v -0.00646629 -0.32496908 -0.02499260
v -0.00141741 -0.20501854 -0.05101395
v -0.00427039 -0.21505488 -0.04499001
v -0.00699050 -0.35497022 -0.01499389
v -0.00772730 -0.37493497 -0.00499519
v -0.00710404 -0.38497132 -0.00499519
v -0.00770072 -0.40499008 0.00499322
v -0.00912117 -0.41410911 0.01594957
v -0.00986522 -0.41686100 0.02103645
v -0.00959949 -0.42495483 0.02263254
v -0.00127971 -0.44195187 0.00886501
v -0.00645904 -0.41491848 0.00499322
v -0.00257455 -0.43493724 0.00709387
v 0.00127130 -0.44195187 0.00886501
v 0.00256854 -0.43493724 0.00709387
v 0.00358798 -0.42527860 0.00435478
v 0.00658107 -0.41491848 0.00499322
v 0.00965388 -0.21505488 -0.01661058
v 0.00963455 0.04961330 -0.01595155
v 0.00744590 -0.11506913 -0.03499131
v 0.00873590 -0.17507137 -0.02499260
v 0.00878180 -0.12505153 -0.02499260
v 0.00745073 -0.12505153 -0.03499131
v 0.00716085 -0.38497132 -0.00499519
v 0.00605203 -0.36495256 -0.01499389
v 0.00644821 -0.32496908 -0.02499260
v 0.00692169 -0.31493273 -0.02499260
v 0.00722365 -0.30489638 -0.02499260
v 0.00770680 -0.28493160 -0.02499260
v 0.00793871 -0.27494922 -0.02499260
v 0.00880837 -0.30489638 -0.01499389
v 0.00899680 -0.29496795 -0.01499389
v 0.00918040 -0.28493160 -0.01499389
v 0.00933259 -0.27494922 -0.01499389
v 0.00948236 -0.25493050 -0.01539549
v 0.00834697 -0.24494809 -0.02499260
v 0.00854264 -0.22503728 -0.02499260
v 0.00863686 -0.21505488 -0.02499260
v -0.00807758 0.04961330 -0.02538390
v -0.00529707 -0.09505039 -0.04499001
v -0.00199235 -0.10503278 -0.05158030
v -0.00206000 -0.12505153 -0.05165238
v -0.00702190 -0.01508337 -0.03499131
v -0.00653876 0.04961330 -0.03499131
v 0.00208781 -0.13508786 -0.05169357
v 0.00206366 -0.14501628 -0.05166268
v 0.00192837 -0.16503502 -0.05150822
v 0.00185349 -0.17507137 -0.05142584
v 0.00176169 -0.18505377 -0.05133316
v 0.00166023 -0.19503616 -0.05123019
v -0.00215904 -0.28493160 -0.04183903
v -0.00099224 -0.21505488 -0.05066384
v -0.00049702 -0.22503728 -0.05031373
v -0.00015640 -0.23140442 -0.05008719
v -0.00470280 -0.29496795 -0.03499131
v -0.00549033 -0.33495146 -0.02499260
v -0.00606769 -0.36495256 -0.01499389
v 0.00141624 -0.20501854 -0.05101395
v -0.00581404 -0.39495373 -0.00499519
v -0.00123382 -0.42220294 -0.00104102
v -0.00245617 -0.41491848 -0.00263710
v 0.00123506 -0.42220294 -0.00104102
v 0.00247675 -0.41491848 -0.00263710
v 0.00583461 -0.39495373 -0.00499519
v 0.00826242 0.04961330 -0.02499260
v 0.00732995 -0.08501405 -0.03499131
v 0.00545534 -0.13508786 -0.04499001
v 0.00542394 -0.12505153 -0.04499001
v 0.00737585 -0.16503502 -0.03499131
v 0.00735652 -0.17507137 -0.03499131
v 0.00233905 -0.36495256 -0.02225351
v 0.00547467 -0.33495146 -0.02499260
v 0.00465090 -0.29496795 -0.03499131
v 0.00560753 -0.28493160 -0.03499131
v 0.00623562 -0.27494922 -0.03499131
v 0.00655933 -0.26491287 -0.03499131
v 0.00674051 -0.25493050 -0.03499131
v 0.00811023 -0.26491287 -0.02499260
v 0.00824551 -0.25493050 -0.02499260
v 0.00721399 -0.21505488 -0.03499131
v 0.00725747 -0.20501854 -0.03499131
v -0.00511348 -0.08501405 -0.04499001
v -0.00191264 -0.09505039 -0.05148762
v 0.00199118 -0.10503278 -0.05158030
v -0.00639623 0.04961330 -0.03531052
v 0.00542877 -0.14501628 -0.04499001
v 0.00206124 -0.12505153 -0.05165238
v 0.00538528 -0.11506913 -0.04499001
v 0.00534663 -0.15505263 -0.04499001
v 0.00526208 -0.16503502 -0.04499001
v 0.00517270 -0.17507137 -0.04499001
v 0.00506641 -0.18505377 -0.04499001
v 0.00199843 -0.15505263 -0.05158030
v 0.00495287 -0.19503616 -0.04499001
v 0.00468714 -0.20501854 -0.04499001
v -0.00133528 -0.29496795 -0.04097405
v -0.00273157 -0.32496908 -0.03280827
v 0.00099107 -0.21505488 -0.05066384
v 0.00049826 -0.22503728 -0.05031373
v 0.00015523 -0.23140442 -0.05008719
v -0.00056224 -0.30187470 -0.04036651
v -0.00194887 -0.33495146 -0.03167557
v -0.00234747 -0.36495256 -0.02225351
v 0.00422090 -0.21505488 -0.04499001
v 0.00287534 -0.26491287 -0.04317768
v 0.00265551 -0.27494922 -0.04260103
v -0.00302629 -0.38497132 -0.01382000
v -0.00205033 -0.39495373 -0.01193559
v -0.00086421 -0.40148273 -0.01063813
v 0.00086545 -0.40148273 -0.01063813
v 0.00205641 -0.39495373 -0.01193559
v 0.00302270 -0.38497132 -0.01382000
v 0.00728646 -0.07508563 -0.03499131
v 0.00701832 -0.02506576 -0.03499131
v 0.00695551 -0.01508337 -0.03499131
v 0.00650618 0.04961330 -0.03499131
v 0.00121332 -0.37288454 -0.02097664
v 0.00091135 -0.34234381 -0.03066643
v 0.00194528 -0.33495146 -0.03167557
v 0.00272073 -0.32496908 -0.03280827
v 0.00215545 -0.28493160 -0.04183903
v 0.00687337 -0.24494809 -0.03499131
v -0.00487915 -0.07508563 -0.04499001
v -0.00284994 0.04961330 -0.04300262
v -0.00175078 -0.08501405 -0.05132287
v 0.00191146 -0.09505039 -0.05148762
v 0.00523792 -0.09505039 -0.04499001
v 0.00533697 -0.10503278 -0.04499001
v 0.00133411 -0.29496795 -0.04097405
v 0.00056349 -0.30187470 -0.04036651
v -0.00091011 -0.34234381 -0.03066643
v -0.00121449 -0.37288454 -0.02097664
v 0.00283427 0.04961330 -0.04300262
v 0.00505674 -0.08501405 -0.04499001
v -0.00017089 -0.02824934 -0.05009748
v -0.00045595 -0.03504814 -0.05028284
v -0.00079898 -0.04503053 -0.05051968
v -0.00106713 -0.05506688 -0.05071532
v -0.00131595 -0.06504928 -0.05092127
v -0.00154303 -0.07508563 -0.05111692
v 0.00175203 -0.08501405 -0.05132287
v 0.00482242 -0.07508563 -0.04499001
v 0.00106837 -0.05506688 -0.05071532
v 0.00079781 -0.04503053 -0.05051968
v 0.00045720 -0.03504814 -0.05028284
v 0.00016972 -0.02824934 -0.05009748
v 0.00154427 -0.07508563 -0.05111692
v 0.00131720 -0.06504928 -0.05092127
f 1 2 5
f 1 5 10
f 1 10 18
f 1 18 28
f 1 28 44
f 1 44 82
f 1 82 125
f 1 125 130
f 1 130 177
f 1 177 176
f 1 176 241
f 1 241 300
f 1 300 346
f 1 346 397
f 1 397 414
f 1 414 405
f 1 405 366
f 1 366 325
f 1 325 320
f 1 320 269
f 1 269 199
f 1 199 145
f 1 145 99
f 1 99 63
f 1 63 62
f 1 62 61
f 1 61 59
f 1 59 34
f 1 34 22
f 1 22 12
f 1 12 7
f 1 7 3
f 1 3 4
f 1 4 2
f 2 4 6
f 2 6 5
f 3 7 8
f 3 8 4
f 4 8 9
f 4 9 6
f 5 6 11
f 5 11 10
f 6 9 11
f 7 12 8
f 8 13 14
f 8 14 15
f 8 15 16
f 8 16 9
f 8 12 13
f 9 16 17
f 9 17 11
f 10 11 19
f 10 19 18
f 11 20 19
f 11 17 21
f 11 21 20
f 12 22 15
f 12 15 13
f 13 15 14
f 15 23 24
f 15 24 25
f 15 25 16
f 15 22 23
f 16 25 26
f 16 26 17
f 17 26 27
f 17 27 21
f 18 19 28
f 19 20 28
f 20 29 30
f 20 30 31
f 20 31 28
f 20 21 32
f 20 32 33
f 20 33 29
f 21 27 32
f 22 34 23
f 23 34 24
f 24 34 35
f 24 35 36
f 24 36 37
f 24 37 38
f 24 38 25
f 25 38 26
f 26 38 39
f 26 39 27
f 27 39 40
f 27 40 41
f 27 41 42
f 27 42 43
f 27 43 32
f 28 31 45
f 28 45 46
f 28 46 44
f 29 47 48
f 29 48 49
f 29 49 50
f 29 50 51
f 29 51 52
f 29 52 53
f 29 53 30
f 29 33 54
f 29 54 47
f 30 53 55
f 30 55 56
f 30 56 31
f 31 56 45
f 32 43 57
f 32 57 33
f 33 57 58
f 33 58 54
f 34 59 35
f 35 60 36
f 35 59 61
f 35 61 62
f 35 62 63
f 35 63 60
f 36 64 65
f 36 65 66
f 36 66 37
f 36 60 64
f 37 66 67
f 37 67 68
f 37 68 38
f 38 68 39
f 39 68 40
f 40 67 69
f 40 69 41
f 40 68 67
f 41 70 71
f 41 71 72
f 41 72 73
f 41 73 77
f 41 77 42
f 41 69 74
f 41 74 75
f 41 75 76
f 41 76 70
f 42 77 78
f 42 78 79
f 42 79 80
f 42 80 81
f 42 81 57
f 42 57 43
f 44 46 83
f 44 83 82
f 45 56 83
f 45 83 46
f 47 54 84
f 47 84 85
f 47 85 86
f 47 86 48
f 48 86 87
f 48 87 49
f 49 87 88
f 49 88 50
f 50 88 89
f 50 89 90
f 50 90 51
f 51 90 91
f 51 91 92
f 51 92 52
f 52 92 53
f 53 92 93
f 53 93 55
f 54 58 94
f 54 94 84
f 55 93 83
f 55 83 56
f 57 81 58
f 58 81 80
f 58 80 79
f 58 79 95
f 58 95 94
f 60 63 96
f 60 96 97
f 60 97 98
f 60 98 64
f 63 99 96
f 64 100 101
f 64 101 102
f 64 102 65
f 64 98 100
f 65 102 103
f 65 103 66
f 66 103 75
f 66 75 67
f 67 75 69
f 69 75 74
f 70 76 103
f 70 103 104
f 70 104 71
f 71 104 105
f 71 105 106
f 71 106 107
f 71 107 108
f 71 108 109
f 71 109 110
f 71 110 72
f 72 111 112
f 72 112 73
f 72 110 113
f 72 113 114
f 72 114 111
f 73 112 115
f 73 115 77
f 75 103 76
f 77 115 78
f 78 115 116
f 78 116 117
f 78 117 118
f 78 118 119
f 78 119 79
f 79 119 120
f 79 120 121
f 79 121 122
f 79 122 123
f 79 123 124
f 79 124 95
f 82 83 125
f 83 93 126
f 83 126 127
f 83 127 128
f 83 128 129
f 83 129 130
f 83 130 125
f 84 94 131
f 84 131 132
f 84 132 133
f 84 133 134
f 84 134 135
f 84 135 85
f 85 135 136
f 85 136 137
f 85 137 138
f 85 138 86
f 86 138 139
f 86 139 87
f 87 139 88
f 88 139 140
f 88 140 89
f 89 140 141
f 89 141 142
f 89 142 143
f 89 143 90
f 90 143 91
f 91 143 92
f 92 143 93
f 93 143 126
f 94 95 144
f 94 144 131
f 95 124 144
f 96 99 145
f 96 145 146
f 96 146 147
f 96 147 97
f 97 147 98
f 98 147 148
f 98 148 149
f 98 149 150
f 98 150 151
f 98 151 100
f 100 151 152
f 100 152 153
f 100 153 154
f 100 154 101
f 101 154 155
f 101 155 102
f 102 155 156
f 102 156 104
f 102 104 103
f 104 156 105
f 105 156 157
f 105 157 106
f 106 157 107
f 107 157 108
f 108 157 109
f 109 157 110
f 110 157 158
f 110 158 113
f 111 114 159
f 111 159 112
f 112 159 163
f 112 163 115
f 113 158 160
f 113 160 161
f 113 161 114
f 114 161 162
f 114 162 159
f 115 163 116
f 116 163 117
f 117 164 165
f 117 165 118
f 117 163 164
f 118 165 166
f 118 166 167
f 118 167 168
f 118 168 169
f 118 169 119
f 119 169 120
f 120 169 170
f 120 170 171
f 120 171 121
f 121 171 122
f 122 171 172
f 122 172 123
f 123 172 173
f 123 173 124
f 124 173 144
f 126 143 198
f 126 198 174
f 126 174 175
f 126 175 127
f 127 175 176
f 127 176 128
f 128 176 129
f 129 176 177
f 129 177 130
f 131 144 173
f 131 173 178
f 131 178 179
f 131 179 180
f 131 180 181
f 131 181 182
f 131 182 132
f 132 183 133
f 132 182 183
f 133 183 184
f 133 184 185
f 133 185 134
f 134 185 186
f 134 186 135
f 135 186 187
f 135 187 136
f 136 186 188
f 136 188 189
f 136 189 190
f 136 190 137
f 136 187 186
f 137 190 191
f 137 191 138
f 138 191 192
f 138 192 139
f 139 192 140
f 140 192 193
f 140 193 194
f 140 194 195
f 140 195 196
f 140 196 141
f 141 196 142
f 142 196 197
f 142 197 143
f 143 197 198
f 145 199 146
f 146 199 200
f 146 200 201
f 146 201 202
f 146 202 203
f 146 203 147
f 147 203 204
f 147 204 205
f 147 205 148
f 148 205 206
f 148 206 207
f 148 207 149
f 149 208 209
f 149 209 210
f 149 210 150
f 149 207 211
f 149 211 208
f 150 210 152
f 150 152 151
f 152 210 212
f 152 212 213
f 152 213 214
f 152 214 153
f 153 214 215
f 153 215 216
f 153 216 217
f 153 217 154
f 154 217 155
f 155 217 218
f 155 218 156
f 156 218 219
f 156 219 220
f 156 220 221
f 156 221 157
f 157 222 158
f 157 221 223
f 157 223 222
f 158 222 160
f 159 224 231
f 159 231 163
f 159 162 225
f 159 225 224
f 160 222 223
f 160 223 226
f 160 226 227
f 160 227 228
f 160 228 161
f 161 228 229
f 161 229 230
f 161 230 162
f 162 230 225
f 163 231 232
f 163 232 164
f 164 232 233
f 164 233 165
f 165 233 234
f 165 234 235
f 165 235 166
f 166 235 236
f 166 236 237
f 166 237 167
f 167 237 168
f 168 172 238
f 168 238 169
f 168 237 180
f 168 180 178
f 168 178 173
f 168 173 172
f 169 238 170
f 170 238 171
f 171 238 172
f 174 239 175
f 174 198 239
f 175 239 240
f 175 240 176
f 176 240 242
f 176 242 243
f 176 243 244
f 176 244 245
f 176 245 246
f 176 246 247
f 176 247 248
f 176 248 241
f 178 180 179
f 180 237 236
f 180 236 249
f 180 249 250
f 180 250 183
f 180 183 181
f 181 183 182
f 183 250 251
f 183 251 252
f 183 252 253
f 183 253 254
f 183 254 255
f 183 255 256
f 183 256 184
f 184 256 257
f 184 257 258
f 184 258 259
f 184 259 185
f 185 259 186
f 186 259 188
f 188 259 189
f 189 259 260
f 189 260 190
f 190 260 261
f 190 261 191
f 191 261 262
f 191 262 192
f 192 262 194
f 192 194 193
f 194 262 263
f 194 263 264
f 194 264 265
f 194 265 266
f 194 266 195
f 195 266 267
f 195 267 196
f 196 267 197
f 197 267 268
f 197 268 198
f 198 268 239
f 199 269 200
f 200 270 271
f 200 271 201
f 200 269 272
f 200 272 270
f 201 273 202
f 201 271 273
f 202 273 203
f 203 273 274
f 203 274 204
f 204 274 205
f 205 274 206
f 206 274 275
f 206 275 207
f 207 275 276
f 207 276 277
f 207 277 278
f 207 278 211
f 208 211 279
f 208 279 280
f 208 280 281
f 208 281 282
f 208 282 209
f 209 282 213
f 209 213 212
f 209 212 210
f 211 278 283
f 211 283 284
f 211 284 279
f 213 285 286
f 213 286 214
f 213 282 285
f 214 286 215
f 215 286 287
f 215 287 288
f 215 288 289
f 215 289 290
f 215 290 216
f 216 290 217
f 217 290 218
f 218 290 219
f 219 290 223
f 219 223 220
f 220 223 221
f 223 290 291
f 223 291 226
f 224 225 232
f 224 232 231
f 225 230 292
f 225 292 295
f 225 295 232
f 226 291 227
f 227 291 288
f 227 288 293
f 227 293 228
f 228 293 294
f 228 294 229
f 229 294 230
f 230 294 292
f 232 295 233
f 233 295 296
f 233 296 234
f 234 296 235
f 235 296 297
f 235 297 298
f 235 298 236
f 236 298 249
f 239 268 299
f 239 299 245
f 239 245 240
f 240 245 242
f 241 248 301
f 241 301 300
f 242 245 243
f 243 245 244
f 245 299 302
f 245 302 303
f 245 303 246
f 246 303 247
f 247 303 248
f 248 303 304
f 248 304 301
f 249 298 305
f 249 305 251
f 249 251 250
f 251 305 252
f 252 306 307
f 252 307 253
f 252 305 306
f 253 307 308
f 253 308 254
f 254 308 256
f 254 256 255
f 256 308 309
f 256 309 257
f 257 259 258
f 257 309 310
f 257 310 311
f 257 311 312
f 257 312 259
f 259 312 260
f 260 312 313
f 260 313 261
f 261 313 314
f 261 314 315
f 261 315 262
f 262 315 263
f 263 315 316
f 263 316 264
f 264 316 317
f 264 317 318
f 264 318 265
f 265 318 319
f 265 319 266
f 266 268 267
f 266 319 299
f 266 299 268
f 269 320 272
f 270 321 322
f 270 322 323
f 270 323 273
f 270 273 271
f 270 272 324
f 270 324 325
f 270 325 321
f 272 320 324
f 273 323 322
f 273 322 365
f 273 365 326
f 273 326 327
f 273 327 274
f 274 327 328
f 274 328 275
f 275 328 329
f 275 329 276
f 276 329 330
f 276 330 277
f 277 330 331
f 277 331 278
f 278 331 339
f 278 339 283
f 279 284 283
f 279 283 280
f 280 332 281
f 280 283 333
f 280 333 334
f 280 334 335
f 280 335 332
f 281 332 336
f 281 336 282
f 282 337 338
f 282 338 285
f 282 336 337
f 283 339 379
f 283 379 333
f 285 338 287
f 285 287 286
f 287 340 293
f 287 293 288
f 287 338 340
f 288 291 289
f 289 291 290
f 292 294 341
f 292 341 343
f 292 343 295
f 293 340 342
f 293 342 294
f 294 342 341
f 295 343 296
f 296 343 344
f 296 344 297
f 297 344 298
f 298 344 345
f 298 345 305
f 299 319 302
f 300 301 347
f 300 347 346
f 301 304 348
f 301 348 349
f 301 349 347
f 302 350 304
f 302 304 303
f 302 319 351
f 302 351 350
f 304 350 348
f 305 345 306
f 306 352 353
f 306 353 307
f 306 345 352
f 307 353 354
f 307 354 355
f 307 355 356
f 307 356 308
f 308 356 357
f 308 357 309
f 309 357 310
f 310 357 311
f 311 314 313
f 311 313 312
f 311 357 358
f 311 358 359
f 311 359 314
f 314 359 315
f 315 359 360
f 315 360 317
f 315 317 316
f 317 361 318
f 317 360 361
f 318 361 319
f 319 362 351
f 319 361 362
f 320 325 324
f 321 363 364
f 321 364 322
f 321 325 363
f 322 364 407
f 322 407 365
f 325 366 363
f 326 348 367
f 326 367 327
f 326 365 368
f 326 368 369
f 326 369 349
f 326 349 348
f 327 367 370
f 327 370 371
f 327 371 372
f 327 372 373
f 327 373 374
f 327 374 328
f 328 374 373
f 328 373 375
f 328 375 329
f 329 375 330
f 330 375 331
f 331 375 376
f 331 376 339
f 332 377 378
f 332 378 336
f 332 335 377
f 333 379 380
f 333 380 334
f 334 380 381
f 334 381 335
f 335 381 411
f 335 411 382
f 335 382 377
f 336 378 337
f 337 378 383
f 337 383 384
f 337 384 338
f 338 384 340
f 339 376 385
f 339 385 386
f 339 386 387
f 339 387 379
f 340 384 388
f 340 388 389
f 340 389 342
f 341 342 390
f 341 390 391
f 341 391 343
f 342 389 390
f 343 391 344
f 344 391 392
f 344 392 345
f 345 392 393
f 345 393 352
f 346 347 394
f 346 394 395
f 346 395 396
f 346 396 397
f 347 349 369
f 347 369 394
f 348 350 351
f 348 351 367
f 351 362 367
f 352 393 392
f 352 392 398
f 352 398 399
f 352 399 400
f 352 400 353
f 353 400 401
f 353 401 354
f 354 402 355
f 354 401 402
f 355 402 387
f 355 387 356
f 356 387 386
f 356 386 376
f 356 376 357
f 357 376 375
f 357 375 358
f 358 360 359
f 358 375 403
f 358 403 360
f 360 403 361
f 361 403 375
f 361 375 373
f 361 373 372
f 361 372 371
f 361 371 370
f 361 370 367
f 361 367 362
f 363 404 364
f 363 366 404
f 364 404 405
f 364 405 406
f 364 406 422
f 364 422 407
f 365 407 408
f 365 408 409
f 365 409 368
f 366 405 404
f 368 409 369
f 369 409 394
f 376 386 385
f 377 382 383
f 377 383 378
f 379 387 380
f 380 387 381
f 381 387 402
f 381 402 410
f 381 410 411
f 382 411 399
f 382 399 412
f 382 412 383
f 383 412 384
f 384 413 389
f 384 389 388
f 384 412 413
f 389 413 390
f 390 413 398
f 390 398 391
f 391 398 392
f 394 409 395
f 395 409 396
f 396 409 397
f 397 409 408
f 397 408 415
f 397 415 414
f 398 413 412
f 398 412 399
f 399 411 400
f 400 411 410
f 400 410 401
f 401 410 402
f 405 414 427
f 405 427 416
f 405 416 417
f 405 417 418
f 405 418 419
f 405 419 420
f 405 420 421
f 405 421 406
f 406 421 420
f 406 420 418
f 406 418 425
f 406 425 422
f 407 422 414
f 407 414 423
f 407 423 415
f 407 415 408
f 414 424 425
f 414 425 426
f 414 426 427
f 414 415 423
f 414 422 428
f 414 428 429
f 414 429 424
f 416 427 426
f 416 426 417
f 417 426 425
f 417 425 418
f 418 420 419
f 422 425 429
f 422 429 428
f 424 429 425

