# https://github.com/mikedh/trimesh
v 0.00499086 0.48495352 0.06621197
v -0.00499535 0.49498898 0.06425467
v -0.00499535 0.48495352 0.06619900
v 0.00499086 0.47496563 0.06618604
v 0.01498545 0.47496563 0.06271216
v 0.01498545 0.48495352 0.06271216
v 0.00499086 0.49498898 0.06425467
v -0.01499833 0.48495352 0.06271216
v -0.00499535 0.50093412 0.06116966
v -0.01119166 0.50036341 0.06045673
v -0.01627281 0.49560726 0.05992528
v -0.01499833 0.47496563 0.06269920
v -0.00499535 0.47496563 0.06617308
v 0.00499086 0.35492080 0.06468242
v 0.00987077 0.07216860 0.05996417
v 0.01015585 0.08505774 0.06005491
v 0.01054154 0.10508105 0.06018453
v 0.01072601 0.11506894 0.06024934
v 0.01108655 0.13504471 0.06037896
v 0.01143032 0.15502048 0.06050858
v 0.01207595 0.19501957 0.06076783
v 0.01237780 0.21504289 0.06089745
v 0.01293958 0.25508955 0.06114373
v 0.01346781 0.29494596 0.06139002
v 0.01466683 0.39496744 0.06199924
v 0.01498545 0.43496656 0.06229737
v 0.01996598 0.42131644 0.05997713
v 0.02001628 0.42792746 0.06001602
v 0.02004982 0.43496656 0.06005491
v 0.02020075 0.46497774 0.06018453
v 0.02025944 0.47496563 0.06022342
v 0.02018398 0.48761696 0.06015860
v 0.01627670 0.49560726 0.05992528
v 0.01117878 0.50036341 0.06045673
v 0.00499086 0.50093412 0.06116966
v -0.02018009 0.48761696 0.06015860
v -0.02023878 0.47496563 0.06021045
v -0.00499535 0.50369269 0.05499963
v -0.01471325 0.50183779 0.05511629
v -0.02186542 0.50093412 0.05184981
v -0.02433053 0.49375236 0.05433856
v -0.02012140 0.45494232 0.06010675
v -0.02001240 0.43834341 0.06001602
v -0.01996209 0.43173236 0.05997713
v -0.01978601 0.41494322 0.05987343
v -0.01945900 0.38493201 0.05969196
v -0.01911523 0.35492080 0.05951049
v -0.01875469 0.32495716 0.05932902
v -0.01838576 0.29494596 0.05914755
v -0.01812583 0.27492261 0.05903089
v -0.01435271 0.37494412 0.06183073
v -0.01351423 0.30498138 0.06139002
v -0.01285184 0.25508955 0.06107892
v -0.01135936 0.15502048 0.06046970
v -0.01084789 0.12500927 0.06028822
v -0.01013519 0.08505774 0.06004194
v -0.01002619 0.07925525 0.06000306
v -0.00985849 0.07259665 0.05996417
v -0.00715861 0.06508197 0.06046970
v 0.00499086 0.24510166 0.06329546
v 0.00499086 0.28495806 0.06380099
v 0.00499086 0.32495716 0.06430652
v 0.00717088 0.06508197 0.06048266
v 0.01498545 0.06508197 0.05770874
v 0.01003846 0.07882720 0.06000306
v 0.01590777 0.12500927 0.05816242
v 0.01723256 0.20505500 0.05865498
v 0.01766856 0.23511377 0.05883645
v 0.01780272 0.24510166 0.05890127
v 0.01820518 0.27492261 0.05908274
v 0.01859927 0.30498138 0.05926421
v 0.01646955 0.33494502 0.06053451
v 0.01683009 0.36495626 0.06071598
v 0.02308509 0.06508197 0.05278309
v 0.02328633 0.09504561 0.05297752
v 0.02356302 0.13504471 0.05322380
v 0.02420865 0.25508955 0.05396265
v 0.02999411 0.41023463 0.04998324
v 0.02525674 0.47496563 0.05531073
v 0.02523997 0.48495352 0.05529776
v 0.03018695 0.48766452 0.05022953
v 0.02432603 0.49375236 0.05433856
v 0.02186092 0.50093412 0.05184981
v 0.01470037 0.50183779 0.05511629
v 0.00499086 0.50369269 0.05499963
v -0.03019145 0.48766452 0.05021657
v -0.02523608 0.48495352 0.05528480
v -0.02524446 0.47496563 0.05529776
v -0.00499535 0.50550002 0.04499278
v -0.01499833 0.50478661 0.04499278
v -0.02511869 0.50193292 0.04475946
v -0.03052684 0.50045854 0.04125966
v -0.02996506 0.49570239 0.04634086
v -0.02997345 0.41242248 0.04995732
v -0.02402868 0.23511377 0.05379414
v -0.02353398 0.14503258 0.05326269
v -0.02319859 0.08505774 0.05289975
v -0.02308120 0.06508197 0.05278309
v -0.01771498 0.24510166 0.05884942
v -0.01713643 0.20505500 0.05861610
v -0.01433594 0.18503168 0.05957530
v -0.01651596 0.16505592 0.05838278
v -0.01618896 0.14503258 0.05826611
v -0.01567749 0.11506894 0.05808464
v -0.01499833 0.06508197 0.05769578
v -0.00440842 0.05595019 0.05996417
v 0.00591318 0.07535522 0.06089745
v 0.00441231 0.05595019 0.05996417
v 0.01498545 0.05504653 0.05598476
v 0.02193639 0.05504653 0.05173315
v 0.02808239 0.06508197 0.04784448
v 0.02815785 0.07506984 0.04790929
v 0.02842616 0.11506894 0.04815557
v 0.02856032 0.13504471 0.04827223
v 0.03022050 0.46497774 0.05025545
v 0.03183036 0.06508197 0.04284105
v 0.03025403 0.47496563 0.05030730
v 0.03280299 0.48495352 0.04499278
v 0.03706243 0.48495352 0.03499890
v 0.03517587 0.49498898 0.03499890
v 0.02996057 0.49570239 0.04634086
v 0.02510581 0.50193292 0.04475946
v 0.01498545 0.50478661 0.04499278
v 0.03051396 0.50045854 0.04125966
v 0.00499086 0.50550002 0.04499278
v -0.03279910 0.48495352 0.04499278
v -0.03024176 0.47496563 0.05029434
v -0.03518036 0.49498898 0.03499890
v -0.03707531 0.48495352 0.03499890
v -0.03003214 0.42493111 0.05003509
v -0.03000699 0.41903350 0.04999621
v -0.01499833 0.50550002 0.03499890
v -0.02499292 0.50492930 0.02499205
v -0.02499292 0.50397807 0.03499890
v -0.03935596 0.49308652 0.02334584
v -0.03168393 0.50126708 0.03499890
v -0.03182647 0.06508197 0.04284105
v -0.02807850 0.06508197 0.04784448
v -0.02193250 0.05504653 0.05173315
v -0.01499833 0.05504653 0.05598476
v -0.00499535 0.01961333 0.05349601
v 0.00499086 0.01961333 0.05349601
v 0.01112009 0.01961333 0.05127947
v 0.02693368 0.05504653 0.04663899
v 0.03062296 0.05247821 0.04097449
v 0.03582149 0.06508197 0.03499890
v 0.03185552 0.07506984 0.04290586
v 0.03285330 0.47496563 0.04499278
v 0.03712951 0.47496563 0.03499890
v 0.03953592 0.46497774 0.02785670
v 0.04002224 0.48495352 0.02519944
v 0.03935985 0.49308652 0.02334584
v 0.02499681 0.50397807 0.03499890
v 0.02499681 0.50492930 0.02499205
v 0.01498545 0.50550002 0.03499890
v 0.03167944 0.50126708 0.03499890
v -0.03713400 0.47496563 0.03499890
v -0.03283264 0.47496563 0.04499278
v -0.03582599 0.06508197 0.03499890
v -0.04001835 0.48495352 0.02519944
v -0.03952365 0.45494232 0.02780485
v -0.01499833 0.50550002 -0.03499720
v -0.02499292 0.50545245 0.00499131
v -0.02499292 0.50535733 0.01499816
v -0.03428320 0.50255120 0.01499816
v -0.03325188 0.50212318 0.02499205
v -0.04002674 0.49560726 0.01499816
v -0.04163660 0.48495352 0.01499816
v -0.03062746 0.05247821 0.04097449
v -0.02692979 0.05504653 0.04663899
v -0.01112459 0.01961333 0.05127947
v 0.01232749 0.01961333 0.04510944
v 0.03942692 0.05062331 0.00823187
v 0.03860522 0.05205016 0.01499816
v 0.03745651 0.05528434 0.02460318
v 0.03386785 0.05504653 0.03499890
v 0.04027378 0.05880387 0.02101264
v 0.03969523 0.06508197 0.02403284
v 0.03909153 0.11506894 0.02671603
v 0.03595565 0.09504561 0.03499890
v 0.03687797 0.36495626 0.03499890
v 0.03692827 0.38493201 0.03499890
v 0.03608142 0.12500927 0.03499890
v 0.03615688 0.14503258 0.03499890
v 0.03633296 0.19501957 0.03499890
v 0.03660966 0.27492261 0.03499890
v 0.03667673 0.29494596 0.03499890
v 0.03679412 0.33494502 0.03499890
v 0.04055886 0.38493201 0.02259403
v 0.04057563 0.43496656 0.02274958
v 0.04057563 0.44495443 0.02278847
v 0.04005578 0.47496563 0.02538092
v 0.03913346 0.13504471 0.02679380
v 0.04044986 0.13504471 0.02179037
v 0.04164049 0.48495352 0.01499816
v 0.04172434 0.47496563 0.01499816
v 0.04003062 0.49560726 0.01499816
v 0.03324738 0.50212318 0.02499205
v 0.03427032 0.50255120 0.01499816
v 0.02499681 0.50535733 0.01499816
v 0.02499681 0.50545245 0.00499131
v 0.01498545 0.50550002 -0.03499720
v -0.03711724 0.46497774 0.03499890
v -0.03699985 0.41494322 0.03499890
v -0.03682377 0.34493291 0.03499890
v -0.03670638 0.30498138 0.03499890
v -0.03660577 0.27492261 0.03499890
v -0.03627038 0.17504379 0.03499890
v -0.03612784 0.13504471 0.03499890
v -0.03608591 0.12500927 0.03499890
v -0.03900380 0.07506984 0.02654752
v -0.03969134 0.06508197 0.02401988
v -0.04026989 0.05880387 0.02099968
v -0.03388073 0.05504653 0.03499890
v -0.04005189 0.47496563 0.02538092
v -0.04057174 0.46497774 0.02284032
v -0.03916311 0.15502048 0.02679380
v -0.02499292 0.50545245 -0.00498961
v -0.00499535 0.50550002 -0.04499108
v -0.01499833 0.50478661 -0.04499108
v -0.02499292 0.50492930 -0.02499035
v -0.02499292 0.50535733 -0.01499646
v -0.03585114 0.50221831 0.00488761
v -0.04012735 0.50003046 0.00000085
v -0.04044597 0.49750972 0.00650789
v -0.04274338 0.48495352 0.00499131
v -0.04282723 0.47496563 0.00499131
v -0.04171206 0.47496563 0.01499816
v -0.01225652 0.01961333 0.04499278
v -0.03746939 0.05528434 0.02460318
v -0.03860133 0.05205016 0.01499816
v -0.03943980 0.05062331 0.00823187
v 0.01240295 0.01961333 0.03518037
v 0.04013962 0.04990990 0.00000085
v 0.04113741 0.05442822 0.00493946
v 0.04070979 0.05704410 0.01499816
v 0.04265504 0.06508197 0.00499131
v 0.04143926 0.06508197 0.01499816
v 0.04150634 0.12500927 0.01499816
v 0.04159018 0.21504289 0.01499816
v 0.04166564 0.33494502 0.01499816
v 0.04169080 0.37494412 0.01499816
v 0.04274727 0.48495352 0.00499131
v 0.04274727 0.21504289 0.00499131
v 0.04283112 0.47496563 0.00499131
v 0.04044148 0.49750972 0.00650789
v 0.04011447 0.50003046 0.00000085
v 0.03584665 0.50221831 0.00488761
v 0.02499681 0.50545245 -0.00498961
v 0.02499681 0.50535733 -0.01499646
v 0.02499681 0.50492930 -0.02499035
v 0.01498545 0.50478661 -0.04499108
v 0.00499086 0.50550002 -0.04499108
v -0.03914634 0.14503258 0.02676787
v -0.03911280 0.12500927 0.02670306
v -0.04071428 0.05704410 0.01499816
v -0.04144375 0.06508197 0.01499816
v -0.04265115 0.06508197 0.00499131
v -0.03585114 0.50221831 -0.00488591
v -0.00499535 0.50369269 -0.05499793
v -0.02499292 0.50397807 -0.03499720
v -0.01471325 0.50183779 -0.05511459
v -0.02186542 0.50093412 -0.05184811
v -0.02511869 0.50193292 -0.04474480
v -0.03324349 0.50212318 -0.02499035
v -0.03428320 0.50255120 -0.01499646
v -0.04002674 0.49560726 -0.01499646
v -0.04044597 0.49750972 -0.00650619
v -0.04274338 0.48495352 -0.00498961
v -0.04282723 0.47496563 -0.00498961
v -0.01212237 0.01961333 0.03499890
v -0.04014412 0.04990990 0.00000085
v -0.04115029 0.05442822 0.00493946
v 0.01227718 0.01961333 0.02538092
v 0.01206756 0.01961333 0.01537407
v 0.01160640 0.01961333 0.00499131
v 0.01093563 0.01961333 -0.00625991
v 0.00961922 0.01961333 -0.01595567
v 0.00825251 0.01961333 -0.02499035
v 0.03942692 0.05062331 -0.00823017
v 0.04113741 0.05442822 -0.00493776
v 0.04263827 0.06508197 -0.00498961
v 0.04265504 0.07506984 -0.00498961
v 0.04270535 0.14503258 0.00499131
v 0.04273051 0.18503168 0.00499131
v 0.04274727 0.48495352 -0.00498961
v 0.04281435 0.45494232 -0.00498961
v 0.04281435 0.47496563 -0.00498961
v 0.04044148 0.49750972 -0.00650619
v 0.04003062 0.49560726 -0.01499646
v 0.03323061 0.50212318 -0.02499035
v 0.03427032 0.50255120 -0.01499646
v 0.03584665 0.50221831 -0.00488591
v 0.02499681 0.50397807 -0.03499720
v 0.02510581 0.50193292 -0.04474480
v 0.02186092 0.50093412 -0.05184811
v 0.01470037 0.50183779 -0.05511459
v 0.00499086 0.50369269 -0.05499793
v -0.04265115 0.06508197 -0.00498961
v -0.00499535 0.50093412 -0.06116796
v -0.01119166 0.50036341 -0.06045504
v -0.03051846 0.50045854 -0.04124499
v -0.03166716 0.50121951 -0.03499720
v -0.01627281 0.49560726 -0.05992358
v -0.02433053 0.49375236 -0.05433686
v -0.02996506 0.49570239 -0.04632619
v -0.03935596 0.49308652 -0.02334414
v -0.04163660 0.48495352 -0.01499646
v -0.04171206 0.47496563 -0.01499646
v -0.01172829 0.01961333 0.02496612
v -0.00646268 0.01961333 -0.03515274
v -0.00809770 0.01961333 -0.02518478
v -0.00940572 0.01961333 -0.01478907
v -0.01011842 0.01961333 -0.00689506
v -0.01093174 0.01961333 0.00480984
v -0.01131743 0.01961333 0.01454448
v -0.04115029 0.05442822 -0.00493776
v -0.03943980 0.05062331 -0.00823017
v 0.00649172 0.01961333 -0.03499720
v 0.03860522 0.05205016 -0.01499646
v 0.04027378 0.05880387 -0.02099798
v 0.04070979 0.05704410 -0.01499646
v 0.03058104 0.04967210 -0.03765446
v 0.04143926 0.06508197 -0.01499646
v 0.04170757 0.47496563 -0.01499646
v 0.04164049 0.48495352 -0.01499646
v 0.03935146 0.49308652 -0.02334414
v 0.03051396 0.50045854 -0.04124499
v 0.03165428 0.50121951 -0.03499720
v 0.02996057 0.49570239 -0.04632619
v 0.02432603 0.49375236 -0.05434982
v 0.01627670 0.49560726 -0.05992358
v 0.01117878 0.50036341 -0.06045504
v 0.00499086 0.50093412 -0.06116796
v -0.04144375 0.06508197 -0.01499646
v -0.04026989 0.05880387 -0.02099798
v -0.04071428 0.05704410 -0.01499646
v -0.00499535 0.49498898 -0.06425297
v -0.03516359 0.49498898 -0.03499720
v -0.01499833 0.48495352 -0.06271046
v -0.02018009 0.48761696 -0.06015690
v -0.03019145 0.48766452 -0.05022783
v -0.03705854 0.48495352 -0.03499720
v -0.04001835 0.48495352 -0.02519774
v -0.04005189 0.47496563 -0.02535329
v -0.00284886 0.01961333 -0.04299490
v -0.03058553 0.04967210 -0.03765446
v -0.03860133 0.05205016 -0.01499646
v 0.00289467 0.01961333 -0.04283935
v 0.03745651 0.05528434 -0.02460148
v 0.03386785 0.05504653 -0.03499720
v 0.03579634 0.06508197 -0.03499720
v 0.03968685 0.06508197 -0.02401818
v 0.04040794 0.07506984 -0.02152943
v 0.02123207 0.05243064 -0.05109630
v 0.02693368 0.05504653 -0.04663729
v 0.03105058 0.05504653 -0.04164683
v 0.04005578 0.47496563 -0.02535329
v 0.04002224 0.48495352 -0.02519774
v 0.03515910 0.49498898 -0.03499720
v 0.03706243 0.48495352 -0.03499720
v 0.03018695 0.48766452 -0.05022783
v 0.02018398 0.48761696 -0.06015690
v 0.01498545 0.48495352 -0.06271046
v 0.00499086 0.49498898 -0.06425297
v -0.03746939 0.05528434 -0.02460148
v -0.03969134 0.06508197 -0.02401818
v -0.03580922 0.06508197 -0.03499720
v -0.03387235 0.05504653 -0.03499720
v 0.00499086 0.48495352 -0.06621027
v -0.00499535 0.48495352 -0.06619731
v -0.01499833 0.47496563 -0.06271046
v -0.02025555 0.47496563 -0.06022172
v -0.02524446 0.48495352 -0.05529606
v -0.03025853 0.47496563 -0.05030560
v -0.03279910 0.48495352 -0.04499108
v -0.03711724 0.47496563 -0.03499720
v 0.00441231 0.05595019 -0.05967730
v -0.02053225 0.04976721 -0.05047411
v -0.01499833 0.05504653 -0.05538680
v -0.00440842 0.05595019 -0.05967730
v -0.03105508 0.05504653 -0.04164683
v 0.01498545 0.05504653 -0.05538680
v 0.03183036 0.06508197 -0.04283935
v 0.03025403 0.47496563 -0.05030560
v 0.03282814 0.47496563 -0.04499108
v 0.03710435 0.47496563 -0.03499720
v 0.01498545 0.06508197 -0.05770704
v 0.02308509 0.06508197 -0.05278139
v 0.02808239 0.06508197 -0.04784278
v 0.03280299 0.48495352 -0.04499108
v 0.02523997 0.48495352 -0.05529606
v 0.02025944 0.47496563 -0.06022172
v 0.01498545 0.47496563 -0.06271046
v -0.03182647 0.06508197 -0.04283935
v -0.03283264 0.47496563 -0.04499108
v 0.00499086 0.47496563 -0.06617139
v -0.00499535 0.47496563 -0.06617139
v -0.01499833 0.46497774 -0.06260677
v -0.01978601 0.40495533 -0.05987173
v -0.02006270 0.43496656 -0.06005321
v -0.02020524 0.46497774 -0.06018283
v -0.02526123 0.47496563 -0.05530903
v -0.03017468 0.45494232 -0.05021487
v 0.00715412 0.06508197 -0.06046800
v -0.02692979 0.05504653 -0.04663729
v -0.02193250 0.05504653 -0.05173145
v -0.01499833 0.06508197 -0.05770704
v -0.00715861 0.06508197 -0.06046800
v -0.02809527 0.06508197 -0.04784278
v 0.02815785 0.07506984 -0.04789463
v 0.02849324 0.12500927 -0.04817979
v 0.02999411 0.41023463 -0.04999451
v 0.03017019 0.45494232 -0.05021487
v 0.02525674 0.47496563 -0.05530903
v 0.00985400 0.07259665 -0.05996247
v 0.01001331 0.07925525 -0.06000136
v 0.01012231 0.08505774 -0.06004024
v 0.01030677 0.09504561 -0.06010506
v 0.01601677 0.13504471 -0.05822553
v 0.01667078 0.17504379 -0.05847181
v 0.01714032 0.20505500 -0.05865328
v 0.01773564 0.24510166 -0.05889957
v 0.01815487 0.27492261 -0.05908104
v 0.01828903 0.28495806 -0.05914585
v 0.01893465 0.33494502 -0.05944398
v 0.01931197 0.36495626 -0.05962545
v 0.01942935 0.37494412 -0.05969026
v 0.01996598 0.42131644 -0.05997543
v 0.02001628 0.42792746 -0.06001432
v 0.02336179 0.10508105 -0.05304063
v 0.02356302 0.13504471 -0.05322210
v 0.02004982 0.43496656 -0.06005321
v 0.02020075 0.46497774 -0.06018283
v 0.01498545 0.46497774 -0.06260677
v -0.02849774 0.12500927 -0.04817979
v -0.03005730 0.42493111 -0.05005932
v -0.03002376 0.41698837 -0.05002043
v -0.02999022 0.41023463 -0.04999451
v 0.01355166 0.30498138 -0.06138832
v 0.01301504 0.26507741 -0.06114203
v 0.01243649 0.22503078 -0.06089575
v 0.01198372 0.19501957 -0.06071428
v 0.01134648 0.15502048 -0.06046800
v 0.01084339 0.12500927 -0.06028653
v 0.00499086 0.08505774 -0.06121981
v -0.00499535 0.08505774 -0.06121981
v -0.00985849 0.07259665 -0.05996247
v -0.01002619 0.07925525 -0.06000136
v -0.01013519 0.08505774 -0.06004024
v -0.01031965 0.09504561 -0.06010506
v -0.01084789 0.12500927 -0.06028653
v -0.01135936 0.15502048 -0.06046800
v -0.01199660 0.19501957 -0.06071428
v -0.01244937 0.22503078 -0.06089575
v -0.01301953 0.26507741 -0.06114203
v -0.01356454 0.30498138 -0.06138832
v -0.01431917 0.36495626 -0.06176422
v -0.01499833 0.44495443 -0.06238641
v -0.01943385 0.37494412 -0.05969026
v -0.02309797 0.06508197 -0.05278139
v -0.02511031 0.44495443 -0.05516644
v -0.02336629 0.10508105 -0.05304063
v -0.02350044 0.12500927 -0.05315730
v -0.02361783 0.14503258 -0.05328692
v -0.02378552 0.17504379 -0.05346839
v -0.02400352 0.21504289 -0.05371467
v -0.02437245 0.28495806 -0.05414242
v -0.01652435 0.16505592 -0.05840700
v -0.01601288 0.13504471 -0.05822553
v 0.02383972 0.18503168 -0.05353320
v 0.02420865 0.25508955 -0.05396095
v 0.01183279 0.18503168 -0.06064947
v 0.01418890 0.35492080 -0.06169941
v 0.01443206 0.37494412 -0.06182903
v 0.01466683 0.39496744 -0.06195866
v 0.01596646 0.42478842 -0.06173830
v 0.01498545 0.44495443 -0.06238641
v -0.01668366 0.17504379 -0.05847181
v -0.01774013 0.24510166 -0.05889957
v -0.01288538 0.25508955 -0.06107722
v -0.01829353 0.28495806 -0.05914585
v -0.01478871 0.40495533 -0.06202346
v -0.01894753 0.33494502 -0.05944398
v -0.01856184 0.30498138 -0.05926251
v -0.01759759 0.23511377 -0.05883475
f 1 2 3
f 1 3 13
f 1 13 4
f 1 4 5
f 1 5 6
f 1 6 7
f 1 7 2
f 2 8 3
f 2 7 35
f 2 35 9
f 2 9 10
f 2 10 11
f 2 11 8
f 3 8 12
f 3 12 13
f 4 13 14
f 4 14 15
f 4 15 16
f 4 16 17
f 4 17 18
f 4 18 19
f 4 19 20
f 4 20 21
f 4 21 22
f 4 22 23
f 4 23 24
f 4 24 5
f 5 24 25
f 5 25 26
f 5 26 27
f 5 27 28
f 5 28 29
f 5 29 30
f 5 30 31
f 5 31 6
f 6 32 33
f 6 33 7
f 6 31 32
f 7 33 34
f 7 34 35
f 8 11 36
f 8 36 37
f 8 37 12
f 9 35 85
f 9 85 38
f 9 38 10
f 10 38 39
f 10 39 40
f 10 40 11
f 11 40 41
f 11 41 36
f 12 37 42
f 12 42 43
f 12 43 44
f 12 44 45
f 12 45 46
f 12 46 47
f 12 47 48
f 12 48 49
f 12 49 50
f 12 50 51
f 12 51 52
f 12 52 13
f 13 52 53
f 13 53 54
f 13 54 55
f 13 55 56
f 13 56 57
f 13 57 58
f 13 58 59
f 13 59 60
f 13 60 61
f 13 61 62
f 13 62 14
f 14 62 15
f 15 63 64
f 15 64 65
f 15 65 16
f 15 62 61
f 15 61 60
f 15 60 63
f 16 65 64
f 16 64 17
f 17 64 18
f 18 64 19
f 19 64 66
f 19 66 20
f 20 66 21
f 21 66 67
f 21 67 22
f 22 67 68
f 22 68 69
f 22 69 23
f 23 69 70
f 23 70 24
f 24 70 71
f 24 71 72
f 24 72 25
f 25 73 27
f 25 27 26
f 25 72 73
f 27 73 71
f 27 71 74
f 27 74 28
f 28 74 75
f 28 75 76
f 28 76 77
f 28 77 78
f 28 78 29
f 29 78 79
f 29 79 31
f 29 31 30
f 31 79 80
f 31 80 32
f 32 80 81
f 32 81 82
f 32 82 33
f 33 82 83
f 33 83 34
f 34 83 84
f 34 84 85
f 34 85 35
f 36 41 86
f 36 86 87
f 36 87 37
f 37 88 42
f 37 87 88
f 38 85 125
f 38 125 89
f 38 89 90
f 38 90 39
f 39 90 40
f 40 90 91
f 40 91 92
f 40 92 93
f 40 93 41
f 41 93 86
f 42 94 95
f 42 95 96
f 42 96 97
f 42 97 98
f 42 98 43
f 42 88 94
f 43 98 44
f 44 98 45
f 45 98 46
f 46 98 47
f 47 98 48
f 48 98 49
f 49 98 50
f 50 99 53
f 50 53 52
f 50 52 51
f 50 98 99
f 53 99 100
f 53 100 101
f 53 101 54
f 54 101 102
f 54 102 103
f 54 103 55
f 55 103 104
f 55 104 105
f 55 105 56
f 56 105 57
f 57 105 58
f 58 105 59
f 59 105 106
f 59 106 63
f 59 63 107
f 59 107 60
f 60 107 63
f 63 106 108
f 63 108 64
f 64 108 109
f 64 109 74
f 64 74 66
f 66 74 67
f 67 74 68
f 68 74 69
f 69 74 70
f 70 74 71
f 71 73 72
f 74 109 110
f 74 110 111
f 74 111 112
f 74 112 75
f 75 112 76
f 76 112 113
f 76 113 114
f 76 114 77
f 77 114 78
f 78 115 79
f 78 114 116
f 78 116 115
f 79 115 117
f 79 117 80
f 80 117 81
f 81 117 118
f 81 118 119
f 81 119 120
f 81 120 121
f 81 121 82
f 82 121 83
f 83 122 123
f 83 123 84
f 83 121 124
f 83 124 122
f 84 123 85
f 85 123 125
f 86 126 127
f 86 127 87
f 86 93 128
f 86 128 129
f 86 129 126
f 87 127 88
f 88 127 130
f 88 130 131
f 88 131 94
f 89 125 155
f 89 155 202
f 89 202 253
f 89 253 219
f 89 219 162
f 89 162 132
f 89 132 90
f 90 133 134
f 90 134 91
f 90 132 133
f 91 134 92
f 92 135 128
f 92 128 93
f 92 134 136
f 92 136 135
f 94 131 137
f 94 137 138
f 94 138 96
f 94 96 95
f 96 138 97
f 97 138 98
f 98 138 139
f 98 139 140
f 98 140 105
f 98 105 103
f 98 103 102
f 98 102 100
f 98 100 99
f 100 102 101
f 103 105 104
f 105 140 106
f 106 140 141
f 106 141 142
f 106 142 108
f 108 142 143
f 108 143 109
f 109 143 110
f 110 143 144
f 110 144 111
f 111 144 116
f 111 116 112
f 112 116 113
f 113 116 114
f 115 116 117
f 116 144 145
f 116 145 146
f 116 146 147
f 116 147 117
f 117 147 146
f 117 146 148
f 117 148 118
f 118 148 149
f 118 149 119
f 119 149 150
f 119 150 151
f 119 151 152
f 119 152 120
f 120 152 124
f 120 124 121
f 122 153 123
f 122 124 153
f 123 153 154
f 123 154 155
f 123 155 125
f 124 152 156
f 124 156 153
f 126 129 157
f 126 157 158
f 126 158 127
f 127 158 159
f 127 159 137
f 127 137 130
f 128 135 129
f 129 160 161
f 129 161 157
f 129 135 160
f 130 137 131
f 132 162 218
f 132 218 163
f 132 163 164
f 132 164 133
f 133 164 165
f 133 165 166
f 133 166 134
f 134 166 136
f 135 136 167
f 135 167 168
f 135 168 160
f 136 166 167
f 137 159 169
f 137 169 170
f 137 170 138
f 138 170 139
f 139 170 171
f 139 171 140
f 140 171 141
f 141 171 229
f 141 229 271
f 141 271 310
f 141 310 316
f 141 316 315
f 141 315 314
f 141 314 313
f 141 313 312
f 141 312 311
f 141 311 346
f 141 346 349
f 141 349 319
f 141 319 279
f 141 279 278
f 141 278 277
f 141 277 276
f 141 276 275
f 141 275 274
f 141 274 233
f 141 233 172
f 141 172 143
f 141 143 142
f 143 145 144
f 143 172 173
f 143 173 174
f 143 174 175
f 143 175 145
f 145 176 146
f 145 175 176
f 146 176 177
f 146 177 178
f 146 178 179
f 146 179 180
f 146 180 148
f 148 181 182
f 148 182 149
f 148 180 183
f 148 183 184
f 148 184 185
f 148 185 186
f 148 186 187
f 148 187 188
f 148 188 181
f 149 182 150
f 150 189 190
f 150 190 191
f 150 191 192
f 150 192 151
f 150 182 193
f 150 193 194
f 150 194 189
f 151 195 152
f 151 192 196
f 151 196 195
f 152 197 156
f 152 195 197
f 153 156 198
f 153 198 154
f 154 198 199
f 154 199 200
f 154 200 155
f 155 200 201
f 155 201 249
f 155 249 202
f 156 197 198
f 157 161 203
f 157 203 158
f 158 203 204
f 158 204 205
f 158 205 206
f 158 206 207
f 158 207 208
f 158 208 209
f 158 209 210
f 158 210 159
f 159 210 211
f 159 211 212
f 159 212 213
f 159 213 214
f 159 214 169
f 160 215 161
f 160 168 216
f 160 216 215
f 161 215 216
f 161 216 212
f 161 212 217
f 161 217 203
f 162 219 220
f 162 220 221
f 162 221 222
f 162 222 218
f 163 218 259
f 163 259 223
f 163 223 164
f 164 223 165
f 165 223 224
f 165 224 166
f 166 224 167
f 167 224 225
f 167 225 226
f 167 226 168
f 168 226 227
f 168 227 228
f 168 228 216
f 169 214 171
f 169 171 170
f 171 214 230
f 171 230 231
f 171 231 232
f 171 232 229
f 172 233 234
f 172 234 173
f 173 235 236
f 173 236 177
f 173 177 174
f 173 234 235
f 174 177 175
f 175 177 176
f 177 236 237
f 177 237 238
f 177 238 194
f 177 194 178
f 178 194 193
f 178 193 179
f 179 193 184
f 179 184 183
f 179 183 180
f 181 188 193
f 181 193 182
f 184 193 185
f 185 193 186
f 186 193 187
f 187 193 188
f 189 194 239
f 189 239 240
f 189 240 190
f 190 240 241
f 190 241 242
f 190 242 191
f 191 242 196
f 191 196 192
f 194 238 239
f 195 243 197
f 195 196 245
f 195 245 243
f 196 242 244
f 196 244 245
f 197 246 247
f 197 247 198
f 197 243 246
f 198 247 199
f 199 247 248
f 199 248 200
f 200 248 201
f 201 248 293
f 201 293 249
f 202 249 250
f 202 250 251
f 202 251 252
f 202 252 253
f 203 217 204
f 204 217 205
f 205 217 254
f 205 254 255
f 205 255 206
f 206 255 211
f 206 211 207
f 207 211 208
f 208 211 209
f 209 211 210
f 211 255 212
f 212 255 254
f 212 254 217
f 212 216 213
f 213 256 232
f 213 232 231
f 213 231 230
f 213 230 214
f 213 216 257
f 213 257 258
f 213 258 256
f 216 228 257
f 218 222 259
f 219 253 298
f 219 298 260
f 219 260 220
f 220 261 221
f 220 260 262
f 220 262 263
f 220 263 264
f 220 264 261
f 221 261 265
f 221 265 266
f 221 266 222
f 222 266 259
f 223 259 224
f 224 267 268
f 224 268 269
f 224 269 226
f 224 226 225
f 224 259 266
f 224 266 265
f 224 265 267
f 226 269 270
f 226 270 227
f 227 270 299
f 227 299 258
f 227 258 228
f 228 258 257
f 229 232 272
f 229 272 271
f 232 256 273
f 232 273 272
f 233 274 234
f 234 274 275
f 234 275 276
f 234 276 277
f 234 277 278
f 234 278 279
f 234 279 280
f 234 280 281
f 234 281 235
f 235 281 237
f 235 237 236
f 237 282 283
f 237 283 284
f 237 284 241
f 237 241 240
f 237 240 239
f 237 239 238
f 237 281 282
f 241 284 285
f 241 285 242
f 242 285 244
f 243 286 247
f 243 247 246
f 243 245 286
f 244 285 283
f 244 283 287
f 244 287 245
f 245 287 288
f 245 288 286
f 247 286 289
f 247 289 290
f 247 290 291
f 247 291 292
f 247 292 293
f 247 293 248
f 249 293 250
f 250 293 292
f 250 292 251
f 251 294 252
f 251 292 291
f 251 291 294
f 252 294 295
f 252 295 296
f 252 296 297
f 252 297 298
f 252 298 253
f 256 258 273
f 258 299 317
f 258 317 273
f 260 298 334
f 260 334 300
f 260 300 301
f 260 301 262
f 261 264 302
f 261 302 303
f 261 303 265
f 262 301 263
f 263 301 304
f 263 304 305
f 263 305 306
f 263 306 302
f 263 302 264
f 265 303 267
f 267 303 302
f 267 302 307
f 267 307 308
f 267 308 269
f 267 269 268
f 269 308 270
f 270 308 309
f 270 309 299
f 271 272 310
f 272 311 312
f 272 312 313
f 272 313 314
f 272 314 315
f 272 315 316
f 272 316 310
f 272 273 317
f 272 317 318
f 272 318 311
f 279 319 280
f 280 320 321
f 280 321 322
f 280 322 281
f 280 319 323
f 280 323 320
f 281 322 282
f 282 322 321
f 282 321 324
f 282 324 283
f 283 324 325
f 283 325 287
f 283 285 284
f 286 326 290
f 286 290 289
f 286 288 325
f 286 325 326
f 287 325 288
f 290 327 328
f 290 328 329
f 290 329 291
f 290 326 327
f 291 329 294
f 294 329 328
f 294 328 295
f 295 328 296
f 296 328 330
f 296 330 331
f 296 331 332
f 296 332 333
f 296 333 297
f 297 333 298
f 298 333 334
f 299 335 336
f 299 336 337
f 299 337 317
f 299 309 335
f 300 334 365
f 300 365 338
f 300 338 301
f 301 338 304
f 302 306 339
f 302 339 307
f 304 338 340
f 304 340 341
f 304 341 305
f 305 341 342
f 305 342 306
f 306 342 339
f 307 339 343
f 307 343 344
f 307 344 308
f 308 344 309
f 309 344 345
f 309 345 335
f 311 318 347
f 311 347 346
f 317 337 318
f 318 337 336
f 318 336 348
f 318 348 347
f 319 349 323
f 320 323 350
f 320 350 321
f 321 350 323
f 321 323 351
f 321 351 352
f 321 352 353
f 321 353 354
f 321 354 324
f 323 349 355
f 323 355 356
f 323 356 357
f 323 357 351
f 324 354 325
f 325 354 358
f 325 358 359
f 325 359 326
f 326 359 327
f 327 360 328
f 327 359 361
f 327 361 360
f 328 360 330
f 330 360 362
f 330 362 331
f 331 362 363
f 331 363 332
f 332 363 364
f 332 364 365
f 332 365 333
f 333 365 334
f 335 345 336
f 336 366 348
f 336 345 367
f 336 367 368
f 336 368 369
f 336 369 347
f 336 347 366
f 338 365 370
f 338 370 371
f 338 371 340
f 339 342 343
f 340 371 372
f 340 372 373
f 340 373 341
f 341 373 374
f 341 374 342
f 342 374 375
f 342 375 376
f 342 376 343
f 343 376 377
f 343 377 345
f 343 345 344
f 345 377 367
f 346 378 349
f 346 347 379
f 346 379 380
f 346 380 381
f 346 381 378
f 347 348 366
f 347 369 382
f 347 382 379
f 349 378 383
f 349 383 355
f 351 357 352
f 352 357 384
f 352 384 385
f 352 385 386
f 352 386 387
f 352 387 353
f 353 387 358
f 353 358 354
f 355 383 388
f 355 388 389
f 355 389 356
f 356 389 390
f 356 390 357
f 357 390 384
f 358 387 361
f 358 361 359
f 360 361 362
f 361 391 362
f 361 387 391
f 362 391 385
f 362 385 392
f 362 392 363
f 363 392 393
f 363 393 364
f 364 393 394
f 364 394 370
f 364 370 365
f 367 377 368
f 368 395 382
f 368 382 369
f 368 377 396
f 368 396 375
f 368 375 395
f 370 394 397
f 370 397 398
f 370 398 371
f 371 398 372
f 372 398 399
f 372 399 400
f 372 400 401
f 372 401 402
f 372 402 373
f 373 403 374
f 373 402 403
f 374 403 375
f 375 396 376
f 375 403 404
f 375 404 395
f 376 396 377
f 378 381 409
f 378 409 405
f 378 405 388
f 378 388 383
f 379 382 406
f 379 406 407
f 379 407 380
f 380 407 408
f 380 408 381
f 381 408 409
f 382 395 410
f 382 410 406
f 384 390 411
f 384 411 412
f 384 412 413
f 384 413 385
f 385 413 414
f 385 414 415
f 385 415 392
f 385 391 386
f 386 391 387
f 388 405 416
f 388 416 417
f 388 417 418
f 388 418 419
f 388 419 420
f 388 420 389
f 389 420 421
f 389 421 422
f 389 422 423
f 389 423 424
f 389 424 425
f 389 425 426
f 389 426 427
f 389 427 428
f 389 428 429
f 389 429 430
f 389 430 431
f 389 431 390
f 390 431 432
f 390 432 411
f 392 415 393
f 393 415 433
f 393 433 434
f 393 434 394
f 394 434 433
f 394 433 430
f 394 430 429
f 394 429 435
f 394 435 397
f 395 436 410
f 395 404 437
f 395 437 438
f 395 438 439
f 395 439 436
f 397 435 440
f 397 440 441
f 397 441 442
f 397 442 443
f 397 443 444
f 397 444 445
f 397 445 419
f 397 419 418
f 397 418 417
f 397 417 416
f 397 416 446
f 397 446 447
f 397 447 398
f 398 447 448
f 398 448 449
f 398 449 450
f 398 450 451
f 398 451 452
f 398 452 453
f 398 453 454
f 398 454 455
f 398 455 456
f 398 456 457
f 398 457 399
f 399 457 458
f 399 458 459
f 399 459 400
f 400 459 460
f 400 460 461
f 400 461 401
f 401 462 403
f 401 403 402
f 401 461 463
f 401 463 464
f 401 464 465
f 401 465 466
f 401 466 467
f 401 467 468
f 401 468 439
f 401 439 462
f 403 462 439
f 403 439 404
f 404 439 437
f 405 409 447
f 405 447 446
f 405 446 416
f 406 410 407
f 407 410 461
f 407 461 408
f 408 461 469
f 408 469 470
f 408 470 451
f 408 451 450
f 408 450 449
f 408 449 448
f 408 448 409
f 409 448 447
f 410 436 464
f 410 464 463
f 410 463 461
f 411 432 412
f 412 432 471
f 412 471 413
f 413 430 433
f 413 433 415
f 413 415 414
f 413 471 472
f 413 472 430
f 419 445 420
f 420 445 444
f 420 444 421
f 421 444 473
f 421 473 443
f 421 443 422
f 422 443 423
f 423 443 442
f 423 442 441
f 423 441 425
f 423 425 424
f 425 441 440
f 425 440 474
f 425 474 475
f 425 475 476
f 425 476 426
f 426 476 428
f 426 428 427
f 428 476 477
f 428 477 478
f 428 478 429
f 429 478 435
f 430 472 471
f 430 471 432
f 430 432 431
f 435 478 475
f 435 475 440
f 436 467 466
f 436 466 465
f 436 465 464
f 436 439 467
f 437 439 438
f 439 468 467
f 440 475 474
f 443 473 444
f 451 470 452
f 452 470 469
f 452 469 453
f 453 469 479
f 453 479 454
f 454 479 480
f 454 480 455
f 455 480 481
f 455 481 456
f 456 481 480
f 456 480 482
f 456 482 457
f 457 482 458
f 458 483 459
f 458 482 484
f 458 484 483
f 459 483 460
f 460 483 484
f 460 484 461
f 461 484 485
f 461 485 482
f 461 482 480
f 461 480 486
f 461 486 479
f 461 479 469
f 475 478 476
f 476 478 477
f 479 486 480
f 482 485 484

