# https://github.com/mikedh/trimesh
v -0.01380580 -0.05923853 0.43402985
v -0.01380580 -0.05923853 0.43426687
v -0.01430636 -0.05910360 0.43472961
v -0.01430636 -0.05873849 0.42561018
v -0.01380580 -0.05891311 0.42610678
v -0.01380580 -0.05530167 0.48499936
v -0.01500437 -0.05507943 0.48499936
v -0.02500165 -0.05540485 0.43500048
v -0.02500165 -0.05488100 0.42500073
v -0.02289382 -0.05155529 0.38914376
v -0.01500437 -0.05420633 0.38914376
v -0.01380580 -0.05443651 0.38914376
v -0.01380580 -0.05497624 0.48618442
v -0.01380580 -0.05233314 0.49540544
v -0.01451760 -0.05217440 0.49543929
v -0.02254022 -0.05135686 0.49239197
v -0.02373879 -0.05200772 0.48499936
v -0.03242269 -0.05139655 0.43500048
v -0.03199561 -0.05113462 0.42500073
v -0.02789016 -0.04877726 0.38914376
v -0.01380580 -0.03391083 0.38914376
v -0.01380580 -0.05179341 0.49635351
v -0.01752551 -0.04916619 0.49906224
v -0.03456726 -0.04237192 0.49431065
v -0.04032132 -0.04035586 0.49051842
v -0.02873513 -0.04923762 0.48499936
v -0.02552516 -0.04765812 0.49543929
v -0.03741903 -0.04814228 0.43500048
v -0.03699195 -0.04773749 0.42500073
v -0.03532498 -0.04346725 0.38914376
v -0.01380580 -0.03309330 0.39329717
v -0.02966735 0.02184822 0.38914376
v -0.02676507 0.02184822 0.39959499
v -0.02483633 0.02184822 0.40758577
v -0.02322446 0.02184822 0.41600543
v -0.01561055 0.02184822 0.46765211
v -0.01458648 0.02184822 0.47499958
v -0.01443494 0.02184822 0.47657970
v -0.01382417 0.02184822 0.48499936
v -0.01380580 -0.04641197 0.50171453
v -0.03094399 -0.04072891 0.50059718
v -0.02500165 -0.04241954 0.50156784
v -0.03760731 -0.03750639 0.49717742
v -0.04249344 -0.03450612 0.49431065
v -0.05114979 -0.02290189 0.49209851
v -0.04964354 -0.02926755 0.48499936
v -0.04784798 -0.03743496 0.43500048
v -0.04285163 -0.04314183 0.43500048
v -0.04247048 -0.04273703 0.42500073
v -0.03987587 -0.03987169 0.38914376
v -0.01380580 -0.02878338 0.41789028
v -0.05173300 0.02184822 0.38914376
v -0.01397572 0.02184822 0.48595870
v -0.01380580 -0.02720387 0.50179356
v -0.01380580 -0.02310826 0.49560860
v -0.01380580 -0.02185418 0.48499936
v -0.01380580 -0.02243359 0.47499958
v -0.01380580 -0.02399723 0.45558694
v -0.01380580 -0.02415597 0.45378110
v -0.01380580 -0.02763248 0.42506844
v -0.01380580 -0.04545950 0.50217730
v -0.01451760 -0.04549919 0.50207573
v -0.04070706 -0.03083912 0.50051820
v -0.02500165 -0.03499823 0.50408471
v -0.03456726 -0.03450612 0.50170326
v -0.04770562 -0.02574342 0.49525872
v -0.04900981 -0.01780619 0.49875751
v -0.05232080 -0.01468686 0.49525872
v -0.05513125 -0.01500434 0.48499936
v -0.05170085 -0.02426709 0.48499936
v -0.05540219 -0.02499732 0.43500048
v -0.05172841 -0.03243450 0.43500048
v -0.05145288 -0.03206145 0.42500073
v -0.04747141 -0.03706191 0.42500073
v -0.04371956 -0.03530778 0.38914376
v -0.05316577 0.01797485 0.38914376
v -0.06035720 0.01111708 0.42749503
v -0.05601295 0.02184822 0.42485401
v -0.01592282 0.02184822 0.49571016
v -0.01380580 -0.03499823 0.50427657
v -0.01500437 -0.03499823 0.50436687
v -0.05040125 -0.01114685 0.50037146
v -0.04229138 -0.02499732 0.50153399
v -0.03500352 -0.01500434 0.50443459
v -0.03500352 -0.02499732 0.50403953
v -0.05420361 -0.00500343 0.49499911
v -0.05694059 -0.00500343 0.48499936
v -0.06011381 -0.01036900 0.44065499
v -0.06035720 -0.01111510 0.43500048
v -0.05866726 -0.01611556 0.43500048
v -0.06035720 -0.01112304 0.42749503
v -0.05485571 -0.02499732 0.42500073
v -0.04908329 -0.02814046 0.38914376
v -0.05425413 0.01499839 0.38914376
v -0.06054089 0.00499748 0.42623094
v -0.06071999 0.00499748 0.43500048
v -0.06035720 0.01110915 0.43500048
v -0.05866726 0.01610960 0.43500048
v -0.05655943 0.02184822 0.43500048
v -0.05638952 0.02184822 0.43179515
v -0.05609102 0.00499748 0.38914376
v -0.01898583 0.02184822 0.50010061
v -0.02687069 0.02184822 0.50335109
v -0.03500352 0.01499839 0.50443459
v -0.02484092 0.02184822 0.50273031
v -0.04540491 -0.01468686 0.50221115
v -0.04499620 -0.00500343 0.50336236
v -0.05069056 -0.00500343 0.50065362
v -0.05420361 0.00499748 0.49499911
v -0.05694059 0.00499748 0.48499936
v -0.06071999 -0.00500343 0.43500048
v -0.06054089 -0.00500343 0.42623094
v -0.05609102 -0.00500343 0.38914376
v -0.05502562 -0.01086111 0.38914376
v -0.05425413 -0.01500434 0.38914376
v -0.05125540 -0.02314001 0.38914376
v -0.06011381 0.01035511 0.44065499
v -0.05513125 0.01499839 0.48499936
v -0.05259634 0.02184822 0.48499936
v -0.03500352 0.02184822 0.50416368
v -0.04499620 0.00499748 0.50336236
v -0.05069056 0.00499748 0.50065362
v -0.05040125 0.01113296 0.50037146
v -0.05232080 0.01468090 0.49525872
v -0.05168708 0.02184822 0.49113917
v -0.03817675 0.02184822 0.50347525
v -0.04540491 0.01468090 0.50221115
v -0.04324197 0.02184822 0.50173712
v -0.04523500 0.02184822 0.50031501
v -0.04900981 0.01780023 0.49875751
v -0.05130133 0.02184822 0.49250484
v -0.04834853 0.02184822 0.49697426
f 1 2 3
f 1 3 4
f 1 4 5
f 1 5 12
f 1 12 21
f 1 21 31
f 1 31 51
f 1 51 60
f 1 60 59
f 1 59 58
f 1 58 57
f 1 57 56
f 1 56 55
f 1 55 54
f 1 54 80
f 1 80 61
f 1 61 40
f 1 40 22
f 1 22 14
f 1 14 13
f 1 13 6
f 1 6 2
f 2 6 7
f 2 7 3
f 3 8 4
f 3 7 8
f 4 8 9
f 4 9 10
f 4 10 11
f 4 11 5
f 5 11 12
f 6 13 7
f 7 13 14
f 7 14 15
f 7 15 16
f 7 16 17
f 7 17 8
f 8 18 19
f 8 19 9
f 8 17 18
f 9 19 10
f 10 20 30
f 10 30 50
f 10 50 75
f 10 75 93
f 10 93 116
f 10 116 115
f 10 115 114
f 10 114 113
f 10 113 101
f 10 101 94
f 10 94 76
f 10 76 52
f 10 52 32
f 10 32 21
f 10 21 12
f 10 12 11
f 10 19 20
f 14 22 15
f 15 22 23
f 15 23 16
f 16 24 25
f 16 25 26
f 16 26 17
f 16 23 27
f 16 27 24
f 17 26 18
f 18 28 19
f 18 26 28
f 19 28 29
f 19 29 20
f 20 29 30
f 21 32 33
f 21 33 34
f 21 34 35
f 21 35 36
f 21 36 37
f 21 37 38
f 21 38 39
f 21 39 31
f 22 40 23
f 23 41 27
f 23 40 42
f 23 42 41
f 24 27 41
f 24 41 25
f 25 41 43
f 25 43 44
f 25 44 45
f 25 45 46
f 25 46 47
f 25 47 48
f 25 48 28
f 25 28 26
f 28 48 49
f 28 49 29
f 29 49 50
f 29 50 30
f 31 39 51
f 32 52 78
f 32 78 100
f 32 100 99
f 32 99 119
f 32 119 125
f 32 125 131
f 32 131 132
f 32 132 129
f 32 129 128
f 32 128 126
f 32 126 120
f 32 120 103
f 32 103 105
f 32 105 102
f 32 102 79
f 32 79 53
f 32 53 39
f 32 39 38
f 32 38 37
f 32 37 36
f 32 36 35
f 32 35 34
f 32 34 33
f 39 53 54
f 39 54 55
f 39 55 56
f 39 56 57
f 39 57 58
f 39 58 59
f 39 59 60
f 39 60 51
f 40 61 62
f 40 62 42
f 41 63 43
f 41 42 64
f 41 64 65
f 41 65 63
f 42 62 64
f 43 63 44
f 44 66 45
f 44 63 66
f 45 66 67
f 45 67 68
f 45 68 69
f 45 69 70
f 45 70 46
f 46 70 71
f 46 71 72
f 46 72 47
f 47 72 73
f 47 73 74
f 47 74 48
f 48 74 49
f 49 74 50
f 50 74 75
f 52 76 77
f 52 77 78
f 53 79 54
f 54 79 80
f 61 80 81
f 61 81 64
f 61 64 62
f 63 82 67
f 63 67 66
f 63 65 83
f 63 83 82
f 64 81 84
f 64 84 85
f 64 85 65
f 65 85 83
f 67 82 68
f 68 86 69
f 68 82 86
f 69 86 87
f 69 87 88
f 69 88 89
f 69 89 90
f 69 90 71
f 69 71 70
f 71 90 91
f 71 91 92
f 71 92 73
f 71 73 72
f 73 92 93
f 73 93 75
f 73 75 74
f 76 94 77
f 77 95 96
f 77 96 97
f 77 97 98
f 77 98 99
f 77 99 100
f 77 100 78
f 77 94 101
f 77 101 95
f 79 102 80
f 80 103 104
f 80 104 81
f 80 102 105
f 80 105 103
f 81 104 84
f 82 83 106
f 82 106 107
f 82 107 108
f 82 108 86
f 83 85 106
f 84 104 121
f 84 121 107
f 84 107 85
f 85 107 106
f 86 108 122
f 86 122 109
f 86 109 110
f 86 110 87
f 87 110 96
f 87 96 111
f 87 111 88
f 88 111 89
f 89 111 91
f 89 91 90
f 91 111 112
f 91 112 113
f 91 113 114
f 91 114 115
f 91 115 116
f 91 116 92
f 92 116 93
f 95 112 111
f 95 111 96
f 95 101 113
f 95 113 112
f 96 110 117
f 96 117 97
f 97 117 118
f 97 118 98
f 98 118 99
f 99 118 119
f 103 120 104
f 104 120 121
f 107 121 122
f 107 122 108
f 109 122 123
f 109 123 124
f 109 124 118
f 109 118 110
f 110 118 117
f 118 124 125
f 118 125 119
f 120 126 121
f 121 126 127
f 121 127 123
f 121 123 122
f 123 127 128
f 123 128 129
f 123 129 130
f 123 130 124
f 124 131 125
f 124 130 131
f 126 128 127
f 129 132 130
f 130 132 131

