# https://github.com/mikedh/trimesh
v 0.01713349 0.05385454 0.26273054
v 0.01713349 0.07260274 0.26273054
v 0.01713349 0.05500239 0.25486785
v 0.04415140 -0.03503623 0.26273054
v 0.02352930 0.07111729 0.26273054
v 0.02507138 0.07821820 0.22773039
v 0.01932652 0.07948983 0.22773039
v 0.01833428 0.07970365 0.22773039
v 0.01713349 0.07992872 0.22773039
v 0.01713349 0.05912114 0.22791541
v 0.05090746 -0.03503623 0.22773039
v 0.06610701 -0.03503623 0.26273054
v 0.01713349 0.05915491 0.22773039
v 0.02843993 0.06941803 0.26273054
v 0.03226984 0.07525855 0.22773039
v 0.07417130 -0.03503623 0.22773039
v 0.06619549 -0.03487868 0.26273054
v 0.03488631 0.06604200 0.26273054
v 0.03510751 0.07405443 0.22773039
v 0.07788746 -0.02484063 0.22773039
v 0.07103027 -0.02306259 0.26273054
v 0.06924172 -0.02792407 0.26273054
v 0.03702878 0.06480412 0.26273054
v 0.04240077 0.06984565 0.22773039
v 0.07935369 -0.02041803 0.22773039
v 0.07970761 -0.01863999 0.22874106
v 0.07174443 -0.02071062 0.26273054
v 0.04264092 0.06154063 0.26273054
v 0.04596524 0.06771876 0.22773039
v 0.08013737 -0.01763844 0.22773039
v 0.07339395 -0.01499389 0.26273054
v 0.04764635 0.05817585 0.26273054
v 0.04989626 0.05992014 0.24976309
v 0.05090114 0.06078665 0.24309948
v 0.05207033 0.06181071 0.23500039
v 0.05307521 0.06266597 0.22773039
v 0.08089577 -0.01396982 0.22773039
v 0.08039649 -0.01196672 0.23183475
v 0.07463899 -0.00498959 0.26273054
v 0.05274025 0.05317934 0.26273054
v 0.05807432 0.05778199 0.22773039
v 0.08152777 -0.00778044 0.22773039
v 0.08169208 -0.00498959 0.22773039
v 0.07463899 0.00500344 0.26273054
v 0.05773936 0.04730505 0.26273054
v 0.06118375 0.05414713 0.22773039
v 0.08169208 0.00500344 0.22773039
v 0.08039649 0.01198056 0.23183475
v 0.07436723 0.00727663 0.26273054
v 0.06751637 0.04653982 0.22773039
v 0.06234030 0.05278547 0.22773039
v 0.06187895 0.04229728 0.26273054
v 0.08089577 0.01398367 0.22773039
v 0.07339395 0.01500773 0.26273054
v 0.07118195 0.04175711 0.22773039
v 0.07060684 0.04091311 0.23261589
v 0.06619549 0.03487002 0.26273054
v 0.06979788 0.03954019 0.23928291
v 0.08013737 0.01765229 0.22773039
v 0.07970761 0.01864259 0.22874106
v 0.07982137 0.01904771 0.22773039
v 0.07103027 0.02306518 0.26273054
v 0.07411443 0.03518512 0.22773039
v 0.06879932 0.02897323 0.26273054
v 0.06924172 0.02792666 0.26273054
v 0.07788746 0.02484322 0.22773039
v 0.06962092 0.02694761 0.26273054
v 0.07518250 0.03225923 0.22773039
f 1 2 9
f 1 9 13
f 1 13 10
f 1 10 3
f 1 3 4
f 1 4 12
f 1 12 17
f 1 17 22
f 1 22 21
f 1 21 27
f 1 27 31
f 1 31 39
f 1 39 44
f 1 44 49
f 1 49 54
f 1 54 62
f 1 62 67
f 1 67 65
f 1 65 64
f 1 64 57
f 1 57 52
f 1 52 45
f 1 45 40
f 1 40 32
f 1 32 28
f 1 28 23
f 1 23 18
f 1 18 14
f 1 14 5
f 1 5 2
f 2 5 6
f 2 6 7
f 2 7 8
f 2 8 9
f 3 10 4
f 4 11 16
f 4 16 12
f 4 10 13
f 4 13 11
f 5 14 6
f 6 15 19
f 6 19 24
f 6 24 29
f 6 29 36
f 6 36 41
f 6 41 46
f 6 46 51
f 6 51 50
f 6 50 55
f 6 55 63
f 6 63 68
f 6 68 66
f 6 66 61
f 6 61 59
f 6 59 53
f 6 53 47
f 6 47 43
f 6 43 42
f 6 42 37
f 6 37 30
f 6 30 25
f 6 25 20
f 6 20 16
f 6 16 11
f 6 11 13
f 6 13 9
f 6 9 8
f 6 8 7
f 6 14 15
f 12 16 17
f 14 18 19
f 14 19 15
f 16 20 21
f 16 21 22
f 16 22 17
f 18 23 24
f 18 24 19
f 20 25 21
f 21 25 26
f 21 26 27
f 23 28 24
f 24 28 29
f 25 30 26
f 26 30 31
f 26 31 27
f 28 32 33
f 28 33 29
f 29 33 34
f 29 34 35
f 29 35 36
f 30 37 31
f 31 37 38
f 31 38 39
f 32 40 33
f 33 41 34
f 33 40 41
f 34 41 35
f 35 41 36
f 37 42 38
f 38 42 39
f 39 42 43
f 39 43 47
f 39 47 44
f 40 45 46
f 40 46 41
f 44 47 48
f 44 48 49
f 45 50 51
f 45 51 46
f 45 52 50
f 47 53 48
f 48 53 54
f 48 54 49
f 50 52 56
f 50 56 55
f 52 57 58
f 52 58 56
f 53 59 54
f 54 59 60
f 54 60 61
f 54 61 62
f 55 56 63
f 56 58 63
f 57 64 58
f 58 64 65
f 58 65 63
f 59 61 60
f 61 66 62
f 62 66 67
f 63 65 67
f 63 67 68
f 66 68 67

