# https://github.com/mikedh/trimesh
v 0.07219525 0.01904022 0.26273054
v 0.05311723 0.01904022 0.26273054
v 0.07102825 0.02307326 0.26273054
v 0.07030775 0.02084907 0.27189973
v 0.06981050 0.01904022 0.27845797
v -0.03147551 0.04667035 0.26273054
v 0.04587165 0.01904022 0.30481467
v -0.03147551 0.01910580 0.38913137
v 0.06961769 0.02695328 0.26273054
v 0.05275191 0.01904022 0.38913137
v -0.03147551 0.06785199 0.26273054
v 0.03552081 0.01904022 0.36494014
v 0.03157328 0.01904022 0.38913137
v -0.03147551 0.04626595 0.38913137
v 0.06924222 0.02793694 0.26273054
v 0.05125003 0.02314430 0.38913137
v -0.03085649 0.04671407 0.38913137
v -0.02788316 0.04877977 0.38913137
v -0.02581299 0.04993831 0.38913137
v -0.02288025 0.05155590 0.38913137
v -0.02843114 0.06941493 0.26273054
v 0.06879571 0.02898619 0.26273054
v 0.04907838 0.02814461 0.38913137
v -0.01796868 0.05325546 0.38913137
v -0.02351957 0.07111996 0.26273054
v 0.06619786 0.03488273 0.26273054
v 0.04941326 0.02881678 0.38499844
v 0.04372030 0.03531445 0.38913137
v -0.01499535 0.05420634 0.38913137
v -0.02108407 0.07173748 0.26273054
v -0.02111452 0.07036035 0.27234519
v 0.06187486 0.04230942 0.26273054
v 0.04986991 0.02975673 0.37923214
v 0.03987425 0.03987758 0.38913137
v 0.05773452 0.04730427 0.26273054
v -0.00499968 0.05612995 0.38913137
v -0.01499535 0.07314740 0.26273054
v -0.01911538 0.06983025 0.27901480
v 0.03531785 0.04347343 0.38913137
v 0.05273162 0.05317895 0.26273054
v 0.04763738 0.05817926 0.26273054
v 0.00500613 0.05612995 0.38913137
v -0.00281789 0.07046964 0.29304695
v -0.00499968 0.07486336 0.26273054
v 0.02787945 0.04877977 0.38913137
v 0.04263447 0.06154559 0.26273054
v 0.01086146 0.05500966 0.38913137
v 0.01500179 0.07314740 0.26273054
v 0.00727925 0.07447536 0.26273054
v 0.00500613 0.07486336 0.26273054
v 0.00283448 0.07046964 0.29304695
v 0.02288670 0.05155590 0.38913137
v 0.03702269 0.06480262 0.26273054
v 0.03487134 0.06604314 0.26273054
v 0.01500179 0.05420634 0.38913137
v 0.01913198 0.06983025 0.27901480
v 0.02111082 0.07036035 0.27234519
v 0.02351587 0.07111996 0.26273054
v 0.02842744 0.06941493 0.26273054
v 0.02734162 0.06979747 0.26273054
f 1 2 6
f 1 6 11
f 1 11 21
f 1 21 25
f 1 25 30
f 1 30 37
f 1 37 44
f 1 44 50
f 1 50 49
f 1 49 48
f 1 48 58
f 1 58 60
f 1 60 59
f 1 59 54
f 1 54 53
f 1 53 46
f 1 46 41
f 1 41 40
f 1 40 35
f 1 35 32
f 1 32 26
f 1 26 22
f 1 22 15
f 1 15 9
f 1 9 3
f 1 3 4
f 1 4 5
f 1 5 10
f 1 10 13
f 1 13 12
f 1 12 7
f 1 7 2
f 2 7 8
f 2 8 6
f 3 9 10
f 3 10 4
f 4 10 5
f 6 8 14
f 6 14 11
f 7 12 8
f 8 12 13
f 8 13 10
f 8 10 16
f 8 16 23
f 8 23 28
f 8 28 34
f 8 34 39
f 8 39 45
f 8 45 52
f 8 52 55
f 8 55 47
f 8 47 42
f 8 42 36
f 8 36 29
f 8 29 24
f 8 24 20
f 8 20 19
f 8 19 18
f 8 18 17
f 8 17 14
f 9 15 16
f 9 16 10
f 11 14 17
f 11 17 18
f 11 18 19
f 11 19 20
f 11 20 21
f 15 22 16
f 16 22 23
f 20 24 25
f 20 25 21
f 22 26 23
f 23 27 28
f 23 26 27
f 24 29 25
f 25 29 31
f 25 31 30
f 26 32 33
f 26 33 27
f 27 33 28
f 28 33 32
f 28 32 35
f 28 35 34
f 29 36 37
f 29 37 38
f 29 38 31
f 30 31 37
f 31 38 37
f 34 35 40
f 34 40 41
f 34 41 39
f 36 42 51
f 36 51 43
f 36 43 44
f 36 44 37
f 39 41 45
f 41 46 45
f 42 47 48
f 42 48 49
f 42 49 50
f 42 50 51
f 43 51 50
f 43 50 44
f 45 46 53
f 45 53 54
f 45 54 52
f 47 55 48
f 48 56 57
f 48 57 58
f 48 55 56
f 52 54 59
f 52 59 60
f 52 60 58
f 52 58 55
f 55 58 57
f 55 57 56

