# https://github.com/mikedh/trimesh
v 0.05656172 0.02185202 0.43500412
v 0.05539903 0.02500339 0.43500412
v 0.05259752 0.02185202 0.48499265
v 0.05600806 0.02185202 0.42485303
v 0.05485645 0.02500339 0.42501092
v 0.05144592 0.03206642 0.42501092
v 0.05172274 0.03244276 0.43500412
v 0.04964099 0.02927238 0.48499265
v 0.05170060 0.02426972 0.48499265
v 0.05114694 0.02291262 0.49209842
v 0.05130196 0.02185202 0.49250445
v 0.05172274 0.02185202 0.38915500
v 0.05125767 0.02314450 0.38915500
v 0.04907626 0.02814336 0.38915500
v 0.04371684 0.03531283 0.38915500
v 0.04747065 0.03706908 0.42501092
v 0.04784714 0.03744162 0.43500412
v 0.04031738 0.04035731 0.49051934
v 0.04248773 0.03451073 0.49430910
v 0.04770318 0.02574847 0.49525654
v 0.05070401 0.02185202 0.49348572
v -0.05173384 0.02185202 0.38915500
v 0.03999626 0.03973007 0.38915500
v 0.04246558 0.04273699 0.42501092
v 0.04284206 0.04314375 0.43500412
v 0.03987446 0.03987453 0.38915500
v 0.02873485 0.04924121 0.48499265
v 0.02253388 0.05135860 0.49239168
v 0.03455934 0.04237586 0.49430910
v 0.03093841 0.04073365 0.50060278
v 0.03760446 0.03751385 0.49718523
v 0.03741622 0.04814260 0.43500412
v 0.04070494 0.03084997 0.50052381
v 0.04834543 0.02185202 0.49698222
v -0.05600808 0.02185202 0.42485303
v -0.05125769 0.02314450 0.38915500
v 0.03698436 0.04773585 0.42501092
v 0.03973050 0.03998857 0.38915500
v 0.02372978 0.05200864 0.48499265
v 0.03241114 0.05139662 0.43500412
v 0.01499305 0.05508019 0.48499265
v 0.01450584 0.05217971 0.49543700
v 0.01751774 0.04916899 0.49905756
v 0.02551256 0.04766363 0.49543700
v 0.02499212 0.04242527 0.50157279
v 0.02499212 0.03500111 0.50408798
v 0.03455934 0.03451073 0.50169683
v 0.03199036 0.05113812 0.42501092
v 0.04228841 0.02500339 0.50152767
v 0.04324070 0.02185202 0.50174195
v -0.05656174 0.02185202 0.43500412
v -0.05485647 0.02500339 0.42501092
v -0.05001750 0.02607159 0.38915500
v 0.03531231 0.04346687 0.38915500
v 0.02788222 0.04878124 0.38915500
v 0.02499212 0.05540331 0.43500412
v 0.00499399 0.05697329 0.48499265
v 0.00499399 0.05423627 0.49499711
v 0.01429544 0.05910969 0.43473342
v 0.01085169 0.05019917 0.50019675
v 0.01450584 0.04550062 0.50208032
v 0.00499399 0.04499884 0.50336611
v 0.01499305 0.03500111 0.50436997
v 0.03499119 0.02185202 0.50416696
v 0.03499119 0.02500339 0.50403160
v 0.02499212 0.05488251 0.42501092
v 0.02288822 0.05155627 0.38915500
v -0.05259755 0.02185202 0.48499265
v -0.05539906 0.02500339 0.43500412
v -0.05144594 0.03206642 0.42501092
v -0.04907628 0.02814336 0.38915500
v 0.01429544 0.05874095 0.42561999
v -0.00499401 0.05697329 0.48499265
v 0.00906891 0.05983955 0.43788028
v 0.00543691 0.06067967 0.43473342
v 0.00240287 0.06039836 0.44220012
v -0.00499401 0.05423627 0.49499711
v 0.00499399 0.05070856 0.50067043
v 0.01049735 0.06008665 0.42935336
v 0.01049735 0.06008665 0.43121439
v -0.00499401 0.04499884 0.50336611
v -0.01499308 0.03500111 0.50436997
v -0.03499121 0.02185202 0.50416696
v 0.01499305 0.05420586 0.38915500
v -0.05167847 0.02185202 0.49113971
v -0.05114696 0.02291262 0.49209842
v -0.05170062 0.02426972 0.48499265
v -0.04964101 0.02927238 0.48499265
v -0.05172276 0.03244276 0.43500412
v -0.04784716 0.03744162 0.43500412
v -0.04747067 0.03706908 0.42501092
v -0.04371687 0.03531283 0.38915500
v -0.04700560 0.03109706 0.38915500
v -0.01499308 0.05508019 0.48499265
v -0.00240289 0.06039836 0.44220012
v -0.00543694 0.06068347 0.43473342
v -0.00906893 0.05983955 0.43788028
v -0.01429547 0.05910969 0.43473342
v 0.00450677 0.06052001 0.42561999
v -0.01450586 0.05217971 0.49543700
v -0.01085171 0.05019917 0.50019675
v -0.00499401 0.05070856 0.50067043
v 0.01085169 0.05501176 0.38915500
v 0.00499399 0.05612938 0.38915500
v -0.02499215 0.03500111 0.50408798
v -0.01450586 0.04550062 0.50208032
v -0.03499121 0.02500339 0.50403160
v -0.03816921 0.02185202 0.50347894
v -0.05130199 0.02185202 0.49250445
v -0.04834545 0.02185202 0.49698222
v -0.04770321 0.02574847 0.49525654
v -0.04248775 0.03451073 0.49430910
v -0.04031741 0.04035731 0.49051934
v -0.04284209 0.04314375 0.43500412
v -0.04246560 0.04273699 0.42501092
v -0.03999628 0.03973007 0.38915500
v -0.02372980 0.05200864 0.48499265
v -0.02253390 0.05135860 0.49239168
v -0.02499215 0.05540331 0.43500412
v -0.00450679 0.06052001 0.42561999
v -0.01049737 0.06008665 0.42935336
v -0.01049737 0.06008665 0.43121439
v -0.01429547 0.05874095 0.42561999
v 0.00085262 0.06013227 0.41977748
v -0.01751776 0.04916899 0.49905756
v -0.02499215 0.04242527 0.50157279
v -0.00499401 0.05612938 0.38915500
v -0.03093844 0.04073365 0.50060278
v -0.03455936 0.03451073 0.50169683
v -0.04228843 0.02500339 0.50152767
v -0.04324072 0.02185202 0.50174195
v -0.04523389 0.02185202 0.50032079
v -0.04070497 0.03084997 0.50052381
v -0.03760448 0.03751385 0.49718523
v -0.03455936 0.04237586 0.49430910
v -0.02873488 0.04924121 0.48499265
v -0.03741624 0.04814260 0.43500412
v -0.03698438 0.04773585 0.42501092
v -0.03973053 0.03998857 0.38915500
v -0.03241117 0.05139662 0.43500412
v -0.02551258 0.04766363 0.49543700
v -0.02499215 0.05488251 0.42501092
v -0.03199039 0.05113812 0.42501092
v -0.00085264 0.06013227 0.41977748
v -0.01499308 0.05420586 0.38915500
v -0.01797176 0.05325931 0.38915500
v -0.02288824 0.05155627 0.38915500
v -0.02788224 0.04878124 0.38915500
v -0.03086092 0.04670947 0.38915500
v -0.03531234 0.04346687 0.38915500
v -0.02581156 0.04994068 0.38915500
f 1 2 3
f 1 3 11
f 1 11 21
f 1 21 34
f 1 34 50
f 1 50 64
f 1 64 83
f 1 83 108
f 1 108 131
f 1 131 132
f 1 132 110
f 1 110 109
f 1 109 85
f 1 85 68
f 1 68 51
f 1 51 35
f 1 35 22
f 1 22 12
f 1 12 4
f 1 4 5
f 1 5 2
f 2 5 6
f 2 6 7
f 2 7 8
f 2 8 9
f 2 9 3
f 3 9 10
f 3 10 11
f 4 12 13
f 4 13 5
f 5 13 14
f 5 14 6
f 6 14 15
f 6 15 16
f 6 16 17
f 6 17 7
f 7 17 8
f 8 18 10
f 8 10 9
f 8 17 18
f 10 19 20
f 10 20 21
f 10 21 11
f 10 18 19
f 12 22 36
f 12 36 53
f 12 53 71
f 12 71 93
f 12 93 92
f 12 92 116
f 12 116 139
f 12 139 150
f 12 150 149
f 12 149 148
f 12 148 151
f 12 151 147
f 12 147 146
f 12 146 145
f 12 145 127
f 12 127 104
f 12 104 103
f 12 103 84
f 12 84 67
f 12 67 55
f 12 55 54
f 12 54 38
f 12 38 26
f 12 26 23
f 12 23 15
f 12 15 14
f 12 14 13
f 15 23 16
f 16 24 25
f 16 25 17
f 16 23 26
f 16 26 24
f 17 25 18
f 18 27 28
f 18 28 29
f 18 29 30
f 18 30 31
f 18 31 19
f 18 25 32
f 18 32 27
f 19 31 33
f 19 33 20
f 20 33 34
f 20 34 21
f 22 35 36
f 24 37 32
f 24 32 25
f 24 26 37
f 26 38 37
f 27 39 28
f 27 32 40
f 27 40 39
f 28 39 41
f 28 41 42
f 28 42 43
f 28 43 44
f 28 44 29
f 29 44 30
f 30 33 31
f 30 44 43
f 30 43 45
f 30 45 46
f 30 46 47
f 30 47 33
f 32 37 48
f 32 48 40
f 33 47 49
f 33 49 34
f 34 49 50
f 35 51 52
f 35 52 36
f 36 52 53
f 37 38 54
f 37 54 55
f 37 55 48
f 39 40 56
f 39 56 41
f 40 48 56
f 41 57 58
f 41 58 42
f 41 56 59
f 41 59 57
f 42 60 43
f 42 58 60
f 43 60 45
f 45 61 46
f 45 60 61
f 46 62 63
f 46 63 64
f 46 64 65
f 46 65 47
f 46 61 62
f 47 65 49
f 48 66 56
f 48 55 67
f 48 67 66
f 49 65 50
f 50 65 64
f 51 68 69
f 51 69 52
f 52 69 70
f 52 70 71
f 52 71 53
f 56 66 72
f 56 72 59
f 57 73 77
f 57 77 58
f 57 59 74
f 57 74 75
f 57 75 76
f 57 76 95
f 57 95 73
f 58 77 102
f 58 102 78
f 58 78 60
f 59 72 79
f 59 79 80
f 59 80 74
f 60 78 61
f 61 78 62
f 62 81 82
f 62 82 63
f 62 78 102
f 62 102 81
f 63 82 83
f 63 83 64
f 66 67 72
f 67 84 72
f 68 85 86
f 68 86 87
f 68 87 69
f 69 87 88
f 69 88 89
f 69 89 70
f 70 89 90
f 70 90 91
f 70 91 92
f 70 92 93
f 70 93 71
f 72 84 79
f 73 94 77
f 73 95 96
f 73 96 97
f 73 97 98
f 73 98 94
f 74 80 75
f 75 80 79
f 75 79 99
f 75 99 96
f 75 96 76
f 76 96 95
f 77 94 100
f 77 100 101
f 77 101 102
f 79 84 103
f 79 103 104
f 79 104 99
f 81 105 82
f 81 102 106
f 81 106 105
f 82 105 83
f 83 105 107
f 83 107 108
f 85 109 86
f 86 109 110
f 86 110 111
f 86 111 112
f 86 112 113
f 86 113 88
f 86 88 87
f 88 113 90
f 88 90 89
f 90 113 114
f 90 114 91
f 91 114 115
f 91 115 116
f 91 116 92
f 94 117 118
f 94 118 100
f 94 98 119
f 94 119 117
f 96 99 120
f 96 120 121
f 96 121 122
f 96 122 97
f 97 122 98
f 98 122 121
f 98 121 123
f 98 123 119
f 99 124 144
f 99 144 120
f 99 104 124
f 100 125 101
f 100 118 125
f 101 125 126
f 101 126 106
f 101 106 102
f 104 127 144
f 104 144 124
f 105 106 126
f 105 126 128
f 105 128 129
f 105 129 107
f 107 129 130
f 107 130 131
f 107 131 108
f 110 132 133
f 110 133 111
f 111 133 112
f 112 133 134
f 112 134 113
f 113 134 128
f 113 128 135
f 113 135 118
f 113 118 136
f 113 136 137
f 113 137 114
f 114 137 115
f 115 137 138
f 115 138 139
f 115 139 116
f 117 136 118
f 117 119 140
f 117 140 136
f 118 135 141
f 118 141 125
f 119 123 142
f 119 142 143
f 119 143 140
f 120 144 127
f 120 127 121
f 121 127 145
f 121 145 123
f 123 145 146
f 123 146 147
f 123 147 142
f 125 128 126
f 125 141 128
f 128 141 135
f 128 134 133
f 128 133 129
f 129 133 130
f 130 133 132
f 130 132 131
f 136 140 137
f 137 140 143
f 137 143 138
f 138 143 148
f 138 148 149
f 138 149 150
f 138 150 139
f 142 147 143
f 143 147 151
f 143 151 148

