# https://github.com/mikedh/trimesh
v 0.01497452 -0.07315354 0.26273054
v 0.01497452 -0.07309037 0.26273054
v 0.02108973 -0.07173670 0.26273054
v 0.02112478 -0.07036499 0.27234519
v 0.01912726 -0.06982352 0.27901480
v 0.01497452 -0.05421123 0.38913137
v 0.01497452 -0.05458122 0.26274294
v 0.01500372 -0.05457220 0.26273054
v 0.02352531 -0.07111402 0.26273054
v 0.01500372 -0.05420220 0.38913137
v 0.01497452 -0.03353621 0.38913137
v 0.04587184 0.01904021 0.30481467
v 0.05312015 0.01904021 0.26273054
v 0.03157964 0.01904021 0.38913137
v 0.03553379 0.01904021 0.36494014
v 0.02843734 -0.06941742 0.26273054
v 0.02289451 -0.05155804 0.38913137
v 0.01797664 -0.05325463 0.38913137
v 0.07219004 0.01904021 0.26273054
v 0.05275802 0.01904021 0.38913137
v 0.03291132 -0.06710716 0.26273054
v 0.02582070 -0.04994266 0.38913137
v 0.03488547 -0.06604227 0.26273054
v 0.07339323 0.01499726 0.26273054
v 0.06980704 0.01904021 0.27845797
v 0.05425324 0.01499726 0.38913137
v 0.06973110 0.01904021 0.27895293
v 0.02789415 -0.04877851 0.38913137
v 0.04264193 -0.06154810 0.26273054
v 0.07013412 0.01053016 0.29091862
v 0.07436863 0.00726331 0.26273054
v 0.05502421 0.01085504 0.38913137
v 0.03086123 -0.04670288 0.38913137
v 0.04378086 -0.06083517 0.26273054
v 0.04763573 -0.05818198 0.26273054
v 0.07464314 0.00499818 0.26273054
v 0.05608723 0.00499818 0.38913137
v 0.03532353 -0.04346311 0.38913137
v 0.05168333 -0.05431049 0.26273054
v 0.04000193 -0.03972699 0.38913137
v 0.03973326 -0.03997967 0.38913137
v 0.07464314 -0.00500091 0.26273054
v 0.05608723 -0.00500091 0.38913137
v 0.05274050 -0.05318244 0.26273054
v 0.04372246 -0.03530501 0.38913137
v 0.05774014 -0.04729850 0.26273054
v 0.07013412 -0.01053290 0.29091862
v 0.07339323 -0.01500000 0.26273054
v 0.05425324 -0.01500000 0.38913137
v 0.04701077 -0.03109059 0.38913137
v 0.06094085 -0.04343604 0.26273054
v 0.06188120 -0.04229895 0.26273054
v 0.07174615 -0.02072150 0.26273054
v 0.05316687 -0.01798709 0.38913137
v 0.07103358 -0.02307688 0.26273054
v 0.04908422 -0.02813960 0.38913137
v 0.04987272 -0.02974595 0.37923214
v 0.04941714 -0.02880741 0.38499844
v 0.06305518 -0.04031358 0.26273054
v 0.05125696 -0.02314908 0.38913137
v 0.06924633 -0.02792301 0.26273054
v 0.05001874 -0.02607300 0.38913137
v 0.06619748 -0.03488086 0.26273054
f 1 2 8
f 1 8 13
f 1 13 19
f 1 19 24
f 1 24 31
f 1 31 36
f 1 36 42
f 1 42 48
f 1 48 53
f 1 53 55
f 1 55 61
f 1 61 63
f 1 63 59
f 1 59 52
f 1 52 51
f 1 51 46
f 1 46 44
f 1 44 39
f 1 39 35
f 1 35 34
f 1 34 29
f 1 29 23
f 1 23 21
f 1 21 16
f 1 16 9
f 1 9 3
f 1 3 4
f 1 4 5
f 1 5 6
f 1 6 11
f 1 11 7
f 1 7 2
f 2 7 8
f 3 9 4
f 4 9 6
f 4 6 5
f 6 10 18
f 6 18 17
f 6 17 22
f 6 22 28
f 6 28 33
f 6 33 38
f 6 38 41
f 6 41 40
f 6 40 45
f 6 45 50
f 6 50 56
f 6 56 62
f 6 62 60
f 6 60 54
f 6 54 49
f 6 49 43
f 6 43 37
f 6 37 32
f 6 32 26
f 6 26 20
f 6 20 14
f 6 14 11
f 6 9 10
f 7 12 13
f 7 13 8
f 7 11 14
f 7 14 15
f 7 15 12
f 9 16 17
f 9 17 18
f 9 18 10
f 12 15 14
f 12 14 20
f 12 20 27
f 12 27 25
f 12 25 19
f 12 19 13
f 16 21 17
f 17 21 23
f 17 23 22
f 19 25 26
f 19 26 24
f 20 26 27
f 22 23 28
f 23 29 28
f 24 30 31
f 24 26 30
f 25 27 26
f 26 32 30
f 28 29 34
f 28 34 35
f 28 35 33
f 30 36 31
f 30 32 37
f 30 37 36
f 33 35 38
f 35 39 40
f 35 40 41
f 35 41 38
f 36 37 43
f 36 43 42
f 39 44 40
f 40 44 46
f 40 46 45
f 42 47 48
f 42 43 47
f 43 49 47
f 45 46 51
f 45 51 52
f 45 52 50
f 47 49 48
f 48 49 53
f 49 54 55
f 49 55 53
f 50 52 57
f 50 57 58
f 50 58 56
f 52 59 57
f 54 60 61
f 54 61 55
f 56 58 63
f 56 63 62
f 57 59 63
f 57 63 58
f 60 62 61
f 61 62 63

