# https://github.com/mikedh/trimesh
v 0.00544572 -0.06068347 0.43472961
v -0.00543843 -0.06067539 0.43472961
v -0.00451196 -0.06052190 0.42561018
v 0.00451925 -0.06052190 0.42561018
v 0.01050845 -0.06008565 0.42935729
v 0.01050845 -0.06008565 0.43120825
v 0.00907134 -0.05983521 0.43787852
v 0.00500073 -0.05697536 0.48499936
v 0.00241100 -0.06040071 0.44220123
v -0.00240371 -0.06040071 0.44220123
v -0.00499343 -0.05697536 0.48499936
v -0.00906405 -0.05983521 0.43787852
v -0.01050116 -0.06008565 0.43120825
v -0.01050116 -0.06008565 0.42935729
v -0.00085717 -0.06013412 0.41977510
v -0.00499343 -0.05612710 0.38914376
v 0.00086446 -0.06013412 0.41977510
v 0.00500073 -0.05612710 0.38914376
v 0.01430915 -0.05873651 0.42561018
v 0.01430915 -0.05910813 0.43472961
v 0.01500218 -0.05420437 0.38914376
v 0.01500218 -0.05507687 0.48499936
v 0.00500073 -0.05423669 0.49499911
v -0.00499343 -0.05423669 0.49499911
v -0.01380580 -0.05497993 0.48618442
v -0.01380580 -0.05530307 0.48499936
v -0.01380580 -0.05923739 0.43426687
v -0.01380580 -0.05923739 0.43402985
v -0.01380580 -0.05891424 0.42610678
v -0.01380580 -0.05443866 0.38914376
v -0.01085132 -0.05501224 0.38914376
v 0.02499634 -0.05488298 0.42500073
v 0.02499634 -0.05540002 0.43500048
v 0.01797854 -0.05325917 0.38914376
v 0.02289538 -0.05155457 0.38914376
v 0.02373430 -0.05200698 0.48499936
v 0.02253792 -0.05135261 0.49239197
v 0.01452071 -0.05217663 0.49543929
v 0.01085861 -0.05019736 0.50019085
v 0.00500073 -0.05070631 0.50066489
v -0.00499343 -0.05070631 0.50066489
v -0.01085132 -0.05019736 0.50019085
v -0.01380580 -0.05179693 0.49635351
v -0.01380580 -0.05233013 0.49540544
v -0.01380580 -0.03391076 0.38914376
v 0.03198496 -0.05113448 0.42500073
v 0.03241536 -0.05139300 0.43500048
v 0.02581338 -0.04993884 0.38914376
v 0.02873138 -0.04923599 0.48499936
v 0.04032315 -0.04034946 0.49051842
v 0.03456009 -0.04236913 0.49431065
v 0.02552158 -0.04766065 0.49543929
v 0.01752625 -0.04916329 0.49906224
v 0.02499634 -0.04242568 0.50156784
v 0.01452071 -0.04549557 0.50207573
v 0.00500073 -0.04499469 0.50336236
v -0.00499343 -0.04499469 0.50336236
v -0.01380580 -0.04546326 0.50217730
v -0.01380580 -0.04640846 0.50171453
v 0.02742558 0.02184822 0.39505783
v 0.02971621 0.02184822 0.38914376
v -0.01380580 -0.03309481 0.39329717
v 0.01709585 0.02184822 0.45573366
v 0.02342062 0.02184822 0.41500095
v 0.03698933 -0.04773336 0.42500073
v 0.03741973 -0.04813729 0.43500048
v 0.02788516 -0.04877551 0.38914376
v 0.04963887 -0.02926552 0.48499936
v 0.05114894 -0.02290761 0.49209851
v 0.04248976 -0.03450050 0.49431065
v 0.03760941 -0.03750577 0.49717742
v 0.03094177 -0.04072916 0.50059718
v 0.04284722 -0.04314468 0.43500048
v 0.04785159 -0.03743306 0.43500048
v 0.02499634 -0.03499330 0.50408471
v 0.01500218 -0.03499330 0.50436687
v -0.01380580 -0.03499330 0.50427657
v 0.05172524 0.02184822 0.38914376
v -0.01380580 -0.02878080 0.41789028
v 0.01458636 0.02184822 0.47499958
v 0.04246788 -0.04273266 0.42500073
v 0.03085423 -0.04670737 0.38914376
v 0.03531877 -0.04346782 0.38914376
v 0.03973225 -0.03998592 0.38914376
v 0.05169606 -0.02426483 0.48499936
v 0.05172524 -0.03244044 0.43500048
v 0.05540192 -0.02499999 0.43500048
v 0.04770570 -0.02574322 0.49525872
v 0.05513201 -0.01500667 0.48499936
v 0.05232343 -0.01468352 0.49525872
v 0.04901150 -0.01780997 0.49875751
v 0.04070248 -0.03084086 0.50051820
v 0.03456009 -0.03450050 0.50170326
v 0.04746496 -0.03706144 0.42500073
v 0.05144803 -0.03206074 0.42500073
v 0.03499779 -0.02499999 0.50403953
v 0.03499779 -0.01500667 0.50443459
v 0.03499779 0.01499751 0.50443459
v 0.03499779 0.02184822 0.50416368
v 0.02483585 0.02184822 0.50273031
v -0.01380580 -0.02720546 0.50179356
v 0.05424932 0.01499751 0.38914376
v 0.05600741 0.02184822 0.42485401
v 0.06035523 0.01111975 0.42749503
v -0.01380580 -0.02763363 0.42506844
v -0.01380580 -0.02415173 0.45378110
v 0.01382768 0.02184822 0.48499936
v 0.03999487 -0.03971932 0.38914376
v 0.05485480 -0.02499999 0.42500073
v 0.06035523 -0.01112891 0.42749503
v 0.05867009 -0.01611345 0.43500048
v 0.05694117 -0.00500528 0.48499936
v 0.05419825 -0.00500528 0.49499911
v 0.06035523 -0.01112083 0.43500048
v 0.06011450 -0.01036952 0.44065499
v 0.05039755 -0.01114507 0.50037146
v 0.04228550 -0.02499999 0.50153399
v 0.04371532 -0.03530837 0.38914376
v 0.04701267 -0.03109130 0.38914376
v 0.04908445 -0.02813451 0.38914376
v 0.04499925 -0.00500528 0.50336236
v 0.04540776 -0.01468352 0.50221115
v 0.04499925 0.00499611 0.50336236
v 0.04540776 0.01468244 0.50221115
v 0.04324115 0.02184822 0.50173712
v 0.02185219 0.02184822 0.50095838
v 0.01668003 0.02184822 0.49677110
v 0.01591405 0.02184822 0.49522486
v -0.01380580 -0.02310958 0.49560860
v 0.05502259 0.01085315 0.38914376
v 0.05655454 0.02184822 0.43500048
v 0.05867009 0.01611236 0.43500048
v 0.06035523 0.01111167 0.43500048
v 0.06071999 0.00499611 0.43500048
v 0.06053761 0.00499611 0.42623094
v 0.05608765 0.00499611 0.38914376
v -0.01380580 -0.02399823 0.45558694
v -0.01380580 -0.02185738 0.48499936
v -0.01380580 -0.02243905 0.47499958
v 0.05001821 -0.02606637 0.38914376
v 0.05125836 -0.02314189 0.38914376
v 0.06053761 -0.00500528 0.42623094
v 0.06071999 -0.00500528 0.43500048
v 0.05316236 -0.01798770 0.38914376
v 0.05424932 -0.01500667 0.38914376
v 0.05608765 -0.00500528 0.38914376
v 0.05694117 0.00499611 0.48499936
v 0.05419825 0.00499611 0.49499911
v 0.05068935 -0.00500528 0.50065362
v 0.05068935 0.00499611 0.50065362
v 0.05039755 0.01113590 0.50037146
v 0.04901150 0.01780080 0.49875751
v 0.04834765 0.02184822 0.49697426
v 0.05259335 0.02184822 0.48499936
v 0.05513201 0.01499751 0.48499936
v 0.06011450 0.01036035 0.44065499
v 0.05232343 0.01468244 0.49525872
v 0.05070394 0.02184822 0.49348676
v 0.05130213 0.02184822 0.49250484
f 1 2 3
f 1 3 4
f 1 4 5
f 1 5 6
f 1 6 7
f 1 7 8
f 1 8 9
f 1 9 10
f 1 10 2
f 2 10 11
f 2 11 12
f 2 12 13
f 2 13 14
f 2 14 3
f 3 15 17
f 3 17 4
f 3 14 16
f 3 16 15
f 4 17 18
f 4 18 5
f 5 19 20
f 5 20 6
f 5 18 21
f 5 21 19
f 6 20 8
f 6 8 7
f 8 22 23
f 8 23 24
f 8 24 11
f 8 11 10
f 8 10 9
f 8 20 22
f 11 24 25
f 11 25 26
f 11 26 27
f 11 27 13
f 11 13 12
f 13 27 28
f 13 28 14
f 14 28 29
f 14 29 30
f 14 30 31
f 14 31 16
f 15 16 18
f 15 18 17
f 16 31 30
f 16 30 45
f 16 45 61
f 16 61 78
f 16 78 102
f 16 102 130
f 16 130 136
f 16 136 146
f 16 146 145
f 16 145 144
f 16 144 141
f 16 141 140
f 16 140 120
f 16 120 119
f 16 119 118
f 16 118 108
f 16 108 84
f 16 84 83
f 16 83 82
f 16 82 67
f 16 67 48
f 16 48 35
f 16 35 34
f 16 34 21
f 16 21 18
f 19 32 33
f 19 33 20
f 19 21 34
f 19 34 35
f 19 35 32
f 20 33 22
f 22 36 37
f 22 37 38
f 22 38 23
f 22 33 36
f 23 38 39
f 23 39 40
f 23 40 41
f 23 41 24
f 24 41 42
f 24 42 43
f 24 43 44
f 24 44 25
f 25 44 43
f 25 43 59
f 25 59 58
f 25 58 77
f 25 77 101
f 25 101 129
f 25 129 138
f 25 138 139
f 25 139 137
f 25 137 106
f 25 106 105
f 25 105 79
f 25 79 62
f 25 62 45
f 25 45 30
f 25 30 29
f 25 29 28
f 25 28 27
f 25 27 26
f 32 46 33
f 32 35 46
f 33 46 47
f 33 47 36
f 35 48 46
f 36 49 37
f 36 47 49
f 37 49 50
f 37 50 51
f 37 51 52
f 37 52 53
f 37 53 38
f 38 53 39
f 39 53 54
f 39 54 55
f 39 55 40
f 40 55 56
f 40 56 57
f 40 57 41
f 41 57 58
f 41 58 59
f 41 59 42
f 42 59 43
f 45 60 61
f 45 62 63
f 45 63 64
f 45 64 60
f 46 65 66
f 46 66 47
f 46 48 67
f 46 67 65
f 47 66 49
f 49 66 50
f 50 68 69
f 50 69 70
f 50 70 71
f 50 71 72
f 50 72 51
f 50 66 73
f 50 73 74
f 50 74 68
f 51 72 52
f 52 72 53
f 53 72 54
f 54 75 55
f 54 72 75
f 55 75 56
f 56 75 76
f 56 76 57
f 57 76 77
f 57 77 58
f 60 64 63
f 60 63 80
f 60 80 107
f 60 107 128
f 60 128 127
f 60 127 126
f 60 126 100
f 60 100 99
f 60 99 125
f 60 125 153
f 60 153 158
f 60 158 159
f 60 159 154
f 60 154 131
f 60 131 103
f 60 103 78
f 60 78 61
f 62 79 80
f 62 80 63
f 65 81 66
f 65 67 82
f 65 82 83
f 65 83 84
f 65 84 81
f 66 81 73
f 68 85 69
f 68 74 86
f 68 86 87
f 68 87 85
f 69 88 70
f 69 85 89
f 69 89 90
f 69 90 91
f 69 91 88
f 70 88 92
f 70 92 71
f 71 92 72
f 72 92 93
f 72 93 75
f 73 81 94
f 73 94 74
f 74 94 95
f 74 95 86
f 75 96 97
f 75 97 76
f 75 93 96
f 76 97 77
f 77 97 98
f 77 98 99
f 77 99 100
f 77 100 101
f 78 103 104
f 78 104 102
f 79 105 80
f 80 106 107
f 80 105 106
f 81 84 108
f 81 108 94
f 85 87 89
f 86 95 87
f 87 95 109
f 87 109 110
f 87 110 111
f 87 111 89
f 88 91 92
f 89 112 113
f 89 113 90
f 89 111 114
f 89 114 115
f 89 115 112
f 90 116 91
f 90 113 116
f 91 116 92
f 92 116 117
f 92 117 93
f 93 117 96
f 94 108 118
f 94 118 95
f 95 118 119
f 95 119 120
f 95 120 109
f 96 121 97
f 96 117 122
f 96 122 121
f 97 121 123
f 97 123 98
f 98 123 99
f 99 123 124
f 99 124 125
f 100 126 101
f 101 126 127
f 101 127 128
f 101 128 129
f 102 104 130
f 103 131 104
f 104 131 132
f 104 132 133
f 104 133 134
f 104 134 135
f 104 135 136
f 104 136 130
f 106 137 107
f 107 138 129
f 107 129 128
f 107 137 139
f 107 139 138
f 109 120 140
f 109 140 141
f 109 141 110
f 110 142 143
f 110 143 114
f 110 114 111
f 110 141 144
f 110 144 145
f 110 145 146
f 110 146 142
f 112 147 148
f 112 148 113
f 112 115 143
f 112 143 134
f 112 134 147
f 113 148 150
f 113 150 149
f 113 149 116
f 114 143 115
f 116 149 121
f 116 121 122
f 116 122 117
f 121 149 150
f 121 150 123
f 123 150 151
f 123 151 124
f 124 151 125
f 125 151 152
f 125 152 153
f 131 154 155
f 131 155 132
f 132 155 133
f 133 155 156
f 133 156 134
f 134 143 142
f 134 142 135
f 134 156 147
f 135 142 146
f 135 146 136
f 147 156 155
f 147 155 148
f 148 155 157
f 148 157 151
f 148 151 150
f 151 157 152
f 152 157 158
f 152 158 153
f 154 159 155
f 155 159 157
f 157 159 158

