# https://github.com/mikedh/trimesh
v -0.00477157 0.08206746 0.22773039
v -0.00785124 0.08154435 0.22773039
v -0.00500064 0.07486632 0.26273054
v -0.00032260 0.08004921 0.24024220
v 0.00031370 0.08004921 0.24024220
v 0.00476777 0.08206375 0.22773039
v -0.01320630 0.08062056 0.22773039
v -0.01499811 0.07314859 0.26273054
v 0.00499683 0.07486632 0.26273054
v 0.01320249 0.08062056 0.22773039
v -0.01734986 0.07988597 0.22773039
v -0.01795561 0.07963740 0.22837105
v -0.01931983 0.07948900 0.22773039
v -0.02506685 0.07821646 0.22773039
v -0.02108618 0.07173879 0.26273054
v 0.00726713 0.07447678 0.26273054
v 0.01499939 0.07314859 0.26273054
v 0.01712716 0.07992678 0.22773039
v -0.02843666 0.06942003 0.26273054
v -0.02351937 0.07111922 0.26273054
v -0.03487597 0.07415400 0.22773039
v 0.01712716 0.07260693 0.26273054
v 0.01712716 0.05915814 0.22773039
v -0.03290600 0.06711240 0.26273054
v -0.03487597 0.05082916 0.22773039
v -0.03487597 0.06604763 0.26272711
v 0.01712716 0.05386395 0.26273054
v 0.01712716 0.05500664 0.25486785
v -0.03487597 0.04416969 0.26273054
v -0.03487597 0.05648322 0.26273054
f 1 2 3
f 1 3 4
f 1 4 5
f 1 5 6
f 1 6 10
f 1 10 18
f 1 18 23
f 1 23 25
f 1 25 21
f 1 21 14
f 1 14 13
f 1 13 11
f 1 11 7
f 1 7 2
f 2 7 8
f 2 8 3
f 3 9 5
f 3 5 4
f 3 8 15
f 3 15 20
f 3 20 19
f 3 19 24
f 3 24 30
f 3 30 29
f 3 29 27
f 3 27 22
f 3 22 17
f 3 17 16
f 3 16 9
f 5 9 6
f 6 9 10
f 7 11 8
f 8 11 12
f 8 12 13
f 8 13 14
f 8 14 15
f 9 16 10
f 10 16 17
f 10 17 18
f 11 13 12
f 14 19 20
f 14 20 15
f 14 21 19
f 17 22 18
f 18 22 27
f 18 27 28
f 18 28 23
f 19 21 24
f 21 25 29
f 21 29 30
f 21 30 26
f 21 26 24
f 23 28 29
f 23 29 25
f 24 26 30
f 27 29 28

