# https://github.com/mikedh/trimesh
v -0.08169208 -0.00499167 0.22773039
v -0.08089471 -0.01396976 0.22773039
v -0.08039520 -0.01197107 0.23183475
v -0.07463942 -0.00499167 0.26273054
v -0.08169208 0.00500181 0.22773039
v -0.07339295 -0.01499583 0.26273054
v -0.08013858 -0.01763582 0.22773039
v -0.07436905 -0.00726826 0.26273054
v -0.07463942 0.00500181 0.26273054
v -0.08153169 0.00779143 0.22773039
v -0.07970781 -0.01864051 0.22874106
v -0.07982238 -0.01904666 0.22773039
v -0.07103290 -0.02306543 0.26273054
v -0.07339295 0.01500597 0.26273054
v -0.08039520 0.01198121 0.23183475
v -0.08089471 0.01397991 0.22773039
v -0.07788392 -0.02483967 0.22773039
v -0.07518476 -0.03226798 0.22773039
v -0.06962144 -0.02694525 0.26273054
v -0.07970781 0.01865065 0.22874106
v -0.08013858 0.01764596 0.22773039
v -0.07174779 0.02071348 0.26273054
v -0.07417200 -0.03503623 0.22773039
v -0.07414908 -0.03503623 0.22784002
v -0.06924567 -0.02792857 0.26273054
v -0.07103290 0.02306489 0.26273054
v -0.07935037 0.02041421 0.22773039
v -0.05094266 -0.03503623 0.22773039
v -0.06610657 -0.03503623 0.26273054
v -0.06619822 -0.03487590 0.26273054
v -0.06880116 -0.02897601 0.26273054
v -0.07788392 0.02483913 0.22773039
v -0.06924567 0.02792802 0.26273054
v -0.07411700 0.03518531 0.22773039
v -0.04416496 -0.03503623 0.26273054
v -0.03487597 0.05082217 0.22773039
v -0.06619822 0.03487536 0.26273054
v -0.06979559 0.03953542 0.23928291
v -0.07331046 0.03711988 0.22773039
v -0.03487597 0.04416341 0.26273054
v -0.03487597 0.07415453 0.22773039
v -0.06305455 0.04031566 0.26273054
v -0.06188139 0.04230367 0.26273054
v -0.07061130 0.04090351 0.23261589
v -0.07117954 0.04175857 0.22773039
v -0.03487597 0.05647623 0.26273054
v -0.03510511 0.07405834 0.22773039
v -0.03488056 0.06604218 0.26273054
v -0.03487597 0.06606355 0.26264146
v -0.06751803 0.04653620 0.22773039
v -0.06875991 0.04496503 0.22773039
v -0.05774328 0.04730575 0.26273054
v -0.06597368 0.04840663 0.22773039
v -0.03487597 0.06604218 0.26272711
v -0.04106710 0.07061674 0.22773039
v -0.04043928 0.06282502 0.26273054
v -0.05387554 0.05184824 0.26273054
v -0.06233965 0.05278880 0.22773039
v -0.04596593 0.06772023 0.22773039
v -0.04264352 0.06154244 0.26273054
v -0.05274364 0.05317358 0.26273054
v -0.05808239 0.05778020 0.22773039
v -0.04813809 0.06629869 0.22773039
v -0.04989782 0.05991784 0.24976309
v -0.04377544 0.06083702 0.26273054
v -0.05168505 0.05431721 0.26273054
v -0.05671677 0.05922310 0.22773039
v -0.05308275 0.06266470 0.22773039
v -0.05207915 0.06180965 0.23500039
v -0.05090600 0.06078358 0.24309948
v -0.04764317 0.05817566 0.26273054
f 1 2 3
f 1 3 4
f 1 4 9
f 1 9 5
f 1 5 10
f 1 10 16
f 1 16 21
f 1 21 27
f 1 27 32
f 1 32 34
f 1 34 39
f 1 39 45
f 1 45 51
f 1 51 50
f 1 50 53
f 1 53 58
f 1 58 62
f 1 62 67
f 1 67 68
f 1 68 63
f 1 63 59
f 1 59 55
f 1 55 47
f 1 47 41
f 1 41 36
f 1 36 28
f 1 28 23
f 1 23 18
f 1 18 17
f 1 17 12
f 1 12 7
f 1 7 2
f 2 6 3
f 2 7 6
f 3 6 8
f 3 8 4
f 4 8 6
f 4 6 13
f 4 13 19
f 4 19 25
f 4 25 31
f 4 31 30
f 4 30 29
f 4 29 35
f 4 35 40
f 4 40 46
f 4 46 48
f 4 48 56
f 4 56 60
f 4 60 65
f 4 65 71
f 4 71 66
f 4 66 61
f 4 61 57
f 4 57 52
f 4 52 43
f 4 43 42
f 4 42 37
f 4 37 33
f 4 33 26
f 4 26 22
f 4 22 14
f 4 14 9
f 5 9 10
f 6 7 11
f 6 11 12
f 6 12 13
f 7 12 11
f 9 14 15
f 9 15 10
f 10 15 16
f 12 17 13
f 13 17 18
f 13 18 19
f 14 20 21
f 14 21 16
f 14 16 15
f 14 22 20
f 18 23 24
f 18 24 19
f 19 24 25
f 20 22 26
f 20 26 27
f 20 27 21
f 23 28 35
f 23 35 29
f 23 29 24
f 24 29 30
f 24 30 31
f 24 31 25
f 26 32 27
f 26 33 34
f 26 34 32
f 28 36 35
f 33 37 38
f 33 38 34
f 34 38 39
f 35 36 40
f 36 41 49
f 36 49 54
f 36 54 46
f 36 46 40
f 37 42 38
f 38 42 43
f 38 43 44
f 38 44 39
f 39 44 45
f 41 47 48
f 41 48 49
f 43 50 51
f 43 51 44
f 43 52 53
f 43 53 50
f 44 51 45
f 46 54 48
f 47 55 48
f 48 54 49
f 48 55 56
f 52 57 58
f 52 58 53
f 55 59 60
f 55 60 56
f 57 61 62
f 57 62 58
f 59 63 64
f 59 64 65
f 59 65 60
f 61 66 62
f 62 66 67
f 63 68 69
f 63 69 70
f 63 70 64
f 64 70 67
f 64 67 66
f 64 66 71
f 64 71 65
f 67 70 69
f 67 69 68

