# https://github.com/mikedh/trimesh
v -0.00500409 -0.07486882 0.26273054
v -0.01499793 -0.07314815 0.26273054
v 0.00499885 -0.07486337 0.26273054
v 0.00282549 -0.07046913 0.29304695
v -0.00282617 -0.07046913 0.29304695
v -0.00500409 -0.05612657 0.38913137
v -0.01912187 -0.06982660 0.27901480
v -0.02111791 -0.07036023 0.27234519
v -0.02352317 -0.07111710 0.26273054
v -0.01085581 -0.05501032 0.38913137
v -0.01499793 -0.05420443 0.38913137
v 0.01272840 -0.07353476 0.26273054
v 0.00499885 -0.05612657 0.38913137
v -0.02734702 -0.06979938 0.26273054
v -0.02288662 -0.05155808 0.38913137
v 0.01497452 -0.07314815 0.26273054
v 0.01497452 -0.05420987 0.38913137
v -0.02843370 -0.06941821 0.26273054
v -0.02788809 -0.04878105 0.38913137
v -0.03147551 -0.06780100 0.26273054
v 0.01497452 -0.07308825 0.26273054
v 0.01497452 -0.03354004 0.38913137
v -0.03147551 -0.04618371 0.38913137
v -0.03147551 -0.04667921 0.26273054
v 0.00726770 -0.05613746 0.26273054
v 0.01497452 -0.05458014 0.26274294
v -0.03147551 -0.01924104 0.38913137
f 1 2 9
f 1 9 14
f 1 14 18
f 1 18 20
f 1 20 24
f 1 24 25
f 1 25 21
f 1 21 16
f 1 16 12
f 1 12 3
f 1 3 4
f 1 4 5
f 1 5 6
f 1 6 2
f 2 7 8
f 2 8 9
f 2 6 10
f 2 10 11
f 2 11 7
f 3 12 13
f 3 13 4
f 4 13 6
f 4 6 5
f 6 13 17
f 6 17 22
f 6 22 27
f 6 27 23
f 6 23 19
f 6 19 15
f 6 15 11
f 6 11 10
f 7 11 8
f 8 11 9
f 9 11 15
f 9 15 14
f 12 16 13
f 13 16 17
f 14 15 18
f 15 19 20
f 15 20 18
f 16 21 26
f 16 26 22
f 16 22 17
f 19 23 20
f 20 23 27
f 20 27 24
f 21 25 26
f 22 26 27
f 24 26 25
f 24 27 26

