# https://github.com/mikedh/trimesh
v 0.07417461 -0.03503623 0.22773039
v 0.06610078 -0.03503623 0.26273054
v 0.06978919 -0.03954323 0.23928291
v 0.07411653 -0.03518815 0.22773039
v -0.07417482 -0.03503623 0.22773039
v 0.06305130 -0.04032126 0.26273054
v -0.06610098 -0.03503623 0.26273054
v 0.07060237 -0.04091513 0.23261589
v 0.07330333 -0.03712170 0.22773039
v 0.06187508 -0.04231005 0.26273054
v -0.07411674 -0.03518815 0.22773039
v -0.06978939 -0.03954323 0.23928291
v -0.06187530 -0.04231005 0.26273054
v 0.06875817 -0.04497098 0.22773039
v 0.07116871 -0.04176221 0.22773039
v 0.06094572 -0.04344255 0.26273054
v 0.06750934 -0.04654544 0.22773039
v -0.07116891 -0.04176221 0.22773039
v -0.07060258 -0.04091513 0.23261589
v -0.06233998 -0.05279263 0.22773039
v -0.05773673 -0.04730965 0.26273054
v -0.06750956 -0.04654544 0.22773039
v 0.06597008 -0.04841914 0.22773039
v 0.05773652 -0.04730965 0.26273054
v -0.06117827 -0.05415533 0.22773039
v -0.05660407 -0.04864011 0.26273054
v 0.06233976 -0.05279263 0.22773039
v 0.05387385 -0.05185809 0.26273054
v -0.05807072 -0.05779224 0.22773039
v -0.05272689 -0.05318395 0.26273054
v 0.05807050 -0.05779224 0.22773039
v 0.05272667 -0.05318395 0.26273054
v -0.05307540 -0.06266294 0.22773039
v -0.05207343 -0.06181125 0.23500039
v -0.05089721 -0.06078463 0.24309948
v -0.04989524 -0.05991914 0.24976309
v -0.04762992 -0.05818355 0.26273054
v 0.05670550 -0.05921938 0.22773039
v 0.05168114 -0.05432106 0.26273054
v -0.04595997 -0.06772698 0.22773039
v -0.04263460 -0.06154424 0.26273054
v 0.04989502 -0.05991914 0.24976309
v 0.05089699 -0.06078463 0.24309948
v 0.05207321 -0.06181125 0.23500039
v 0.05307518 -0.06266294 0.22773039
v 0.04762970 -0.05818355 0.26273054
v -0.04238774 -0.06984468 0.22773039
v -0.03488023 -0.06604664 0.26273054
v 0.04376704 -0.06083988 0.26273054
v 0.04595976 -0.06772698 0.22773039
v 0.04813795 -0.06629984 0.22773039
v -0.03984651 -0.07131325 0.22773039
v -0.03509805 -0.07405705 0.22773039
v -0.02843278 -0.06941654 0.26273054
v 0.04263438 -0.06154424 0.26273054
v 0.04105156 -0.07061350 0.22773039
v -0.03226640 -0.07526782 0.22773039
v -0.02506384 -0.07821878 0.22773039
v -0.02734368 -0.06979864 0.26273054
v 0.03488002 -0.06604664 0.26273054
v 0.03749385 -0.07267594 0.22773039
v -0.01832597 -0.07971037 0.22773039
v -0.01498607 -0.07314552 0.26273054
v -0.02351007 -0.07111990 0.26273054
v 0.03509783 -0.07405705 0.22773039
v 0.03290512 -0.06711009 0.26273054
v -0.01476825 -0.08034108 0.22773039
v -0.01319995 -0.08061730 0.22773039
v -0.00499543 -0.07486730 0.26273054
v 0.02843256 -0.06941654 0.26273054
v 0.02506363 -0.07821878 0.22773039
v -0.00476309 -0.08206286 0.22773039
v -0.00030506 -0.08005105 0.24024220
v 0.00499521 -0.07486730 0.26273054
v 0.02529597 -0.07050300 0.26273054
v 0.02350985 -0.07111990 0.26273054
v 0.02108479 -0.07174139 0.26273054
v 0.01498586 -0.07314552 0.26273054
v 0.01931320 -0.07948940 0.22773039
v 0.00476287 -0.08206746 0.22773039
v 0.00030484 -0.08005105 0.24024220
v 0.00784138 -0.08154264 0.22773039
v 0.01272054 -0.07353684 0.26273054
v 0.01733830 -0.07988531 0.22773039
v 0.01794820 -0.07963672 0.22837105
v 0.01319974 -0.08061730 0.22773039
f 1 2 3
f 1 3 4
f 1 4 9
f 1 9 15
f 1 15 14
f 1 14 17
f 1 17 23
f 1 23 27
f 1 27 31
f 1 31 38
f 1 38 45
f 1 45 51
f 1 51 50
f 1 50 56
f 1 56 61
f 1 61 65
f 1 65 71
f 1 71 79
f 1 79 84
f 1 84 86
f 1 86 82
f 1 82 80
f 1 80 72
f 1 72 68
f 1 68 67
f 1 67 62
f 1 62 58
f 1 58 57
f 1 57 53
f 1 53 52
f 1 52 47
f 1 47 40
f 1 40 33
f 1 33 29
f 1 29 25
f 1 25 20
f 1 20 22
f 1 22 18
f 1 18 11
f 1 11 5
f 1 5 7
f 1 7 2
f 2 6 3
f 2 7 13
f 2 13 21
f 2 21 26
f 2 26 30
f 2 30 37
f 2 37 41
f 2 41 48
f 2 48 54
f 2 54 59
f 2 59 64
f 2 64 63
f 2 63 69
f 2 69 74
f 2 74 83
f 2 83 78
f 2 78 77
f 2 77 76
f 2 76 75
f 2 75 70
f 2 70 66
f 2 66 60
f 2 60 55
f 2 55 49
f 2 49 46
f 2 46 39
f 2 39 32
f 2 32 28
f 2 28 24
f 2 24 16
f 2 16 10
f 2 10 6
f 3 8 9
f 3 9 4
f 3 6 10
f 3 10 8
f 5 11 12
f 5 12 7
f 7 12 13
f 8 14 15
f 8 15 9
f 8 10 14
f 10 16 17
f 10 17 14
f 11 18 19
f 11 19 12
f 12 19 13
f 13 20 21
f 13 19 22
f 13 22 20
f 16 23 17
f 16 24 23
f 18 22 19
f 20 25 26
f 20 26 21
f 23 24 27
f 24 28 27
f 25 29 30
f 25 30 26
f 27 28 31
f 28 32 31
f 29 33 34
f 29 34 35
f 29 35 36
f 29 36 30
f 30 36 37
f 31 32 39
f 31 39 38
f 33 40 34
f 34 40 35
f 35 40 36
f 36 40 41
f 36 41 37
f 38 39 42
f 38 42 43
f 38 43 44
f 38 44 45
f 39 46 42
f 40 47 41
f 41 47 48
f 42 46 49
f 42 49 50
f 42 50 51
f 42 51 43
f 43 51 44
f 44 51 45
f 47 52 48
f 48 52 53
f 48 53 54
f 49 55 50
f 50 55 56
f 53 57 54
f 54 57 58
f 54 58 59
f 55 60 56
f 56 60 61
f 58 62 63
f 58 63 64
f 58 64 59
f 60 65 61
f 60 66 65
f 62 67 63
f 63 67 68
f 63 68 69
f 65 66 70
f 65 70 71
f 68 72 69
f 69 72 73
f 69 73 81
f 69 81 74
f 70 75 71
f 71 75 76
f 71 76 77
f 71 77 78
f 71 78 79
f 72 80 73
f 73 80 81
f 74 80 82
f 74 82 83
f 74 81 80
f 78 84 85
f 78 85 79
f 78 83 86
f 78 86 84
f 79 85 84
f 82 86 83

