# https://github.com/mikedh/trimesh
v -0.03147551 0.04626198 0.38913137
v -0.03147551 0.06785345 0.26273054
v -0.03291217 0.06710982 0.26273054
v -0.03488125 0.06604752 0.26273054
v -0.04264348 0.06154598 0.26273054
v -0.04377592 0.06082892 0.26273054
v -0.04764224 0.05817314 0.26273054
v -0.03532493 0.04346013 0.38913137
v -0.03147551 -0.04617235 0.38913137
v -0.03147551 -0.06780365 0.26273054
v -0.05168604 0.05430898 0.26273054
v -0.03973635 0.03998106 0.38913137
v -0.03532493 -0.04346346 0.38913137
v -0.04764224 -0.05817646 0.26273054
v -0.04264348 -0.06153602 0.26273054
v -0.03702780 -0.06480263 0.26273054
v -0.03488125 -0.06603757 0.26273054
v -0.05274241 0.05318028 0.26273054
v -0.04000255 0.03971549 0.38913137
v -0.03973635 -0.03998439 0.38913137
v -0.05274241 -0.05317032 0.26273054
v -0.03988001 -0.03986488 0.38913137
v -0.05387484 0.05185239 0.26273054
v -0.04372521 0.03530690 0.38913137
v -0.05773694 0.04729773 0.26273054
v -0.05773694 -0.04730105 0.26273054
v -0.04372521 -0.03529694 0.38913137
v -0.06094409 0.04343358 0.26273054
v -0.06187792 0.04230487 0.26273054
v -0.04701687 0.03108421 0.38913137
v -0.05867500 -0.04617235 0.26273054
v -0.06187792 -0.04229492 0.26273054
v -0.04908736 -0.02813962 0.38913137
v -0.04988175 -0.02974637 0.37923214
v -0.06305261 0.04031304 0.26273054
v -0.04988175 0.02974304 0.37923214
v -0.04942117 0.02881352 0.38499844
v -0.04908736 0.02813630 0.38913137
v -0.06619637 -0.03487202 0.26273054
v -0.05125926 -0.02313348 0.38913137
v -0.06880350 -0.02897619 0.26273054
v -0.06619637 0.03486869 0.26273054
v -0.05002542 0.02606479 0.38913137
v -0.06961903 -0.02694452 0.26273054
v -0.06924719 -0.02792716 0.26273054
v -0.05425514 -0.01499352 0.38913137
v -0.06924719 0.02792384 0.26273054
v -0.05125926 0.02313016 0.38913137
v -0.07103034 -0.02306709 0.26273054
v -0.05502417 -0.01085051 0.38913137
v -0.07013876 -0.01053182 0.29091862
v -0.07339662 -0.01499352 0.26273054
v -0.07030778 -0.02083623 0.27189973
v -0.07103034 0.02306376 0.26273054
v -0.05316496 0.01797795 0.38913137
v -0.05608900 -0.00499452 0.38913137
v -0.07464314 -0.00499452 0.26273054
v -0.07436848 -0.00726521 0.26273054
v -0.07174867 0.02071340 0.26273054
v -0.05425514 0.01499020 0.38913137
v -0.05608900 0.00499120 0.38913137
v -0.07464314 0.00499120 0.26273054
v -0.07339662 0.01499020 0.26273054
v -0.07013876 0.01052850 0.29091862
f 1 2 3
f 1 3 4
f 1 4 5
f 1 5 6
f 1 6 7
f 1 7 8
f 1 8 12
f 1 12 19
f 1 19 24
f 1 24 30
f 1 30 38
f 1 38 43
f 1 43 48
f 1 48 55
f 1 55 60
f 1 60 61
f 1 61 56
f 1 56 50
f 1 50 46
f 1 46 40
f 1 40 33
f 1 33 27
f 1 27 22
f 1 22 20
f 1 20 13
f 1 13 9
f 1 9 10
f 1 10 2
f 2 10 17
f 2 17 16
f 2 16 15
f 2 15 14
f 2 14 21
f 2 21 26
f 2 26 31
f 2 31 32
f 2 32 39
f 2 39 41
f 2 41 45
f 2 45 44
f 2 44 49
f 2 49 52
f 2 52 58
f 2 58 57
f 2 57 62
f 2 62 63
f 2 63 59
f 2 59 54
f 2 54 47
f 2 47 42
f 2 42 35
f 2 35 29
f 2 29 28
f 2 28 25
f 2 25 23
f 2 23 18
f 2 18 11
f 2 11 7
f 2 7 6
f 2 6 5
f 2 5 4
f 2 4 3
f 7 11 12
f 7 12 8
f 9 13 14
f 9 14 15
f 9 15 16
f 9 16 17
f 9 17 10
f 11 18 19
f 11 19 12
f 13 20 14
f 14 20 22
f 14 22 21
f 18 23 19
f 19 23 25
f 19 25 24
f 21 22 26
f 22 27 26
f 24 25 28
f 24 28 29
f 24 29 30
f 26 27 31
f 27 32 31
f 27 33 34
f 27 34 32
f 29 35 36
f 29 36 30
f 30 36 37
f 30 37 38
f 32 34 39
f 33 40 41
f 33 41 39
f 33 39 34
f 35 42 36
f 36 42 37
f 37 42 38
f 38 42 43
f 40 44 45
f 40 45 41
f 40 46 44
f 42 47 43
f 43 47 48
f 44 46 49
f 46 50 51
f 46 51 52
f 46 52 53
f 46 53 49
f 47 54 55
f 47 55 48
f 49 53 52
f 50 56 51
f 51 56 57
f 51 57 58
f 51 58 52
f 54 59 60
f 54 60 55
f 56 61 62
f 56 62 57
f 59 63 60
f 60 63 64
f 60 64 61
f 61 64 62
f 62 64 63

