# https://github.com/mikedh/trimesh
v -0.09924263 0.04422565 0.18787955
v -0.06015406 0.11864192 0.00743224
v -0.05553702 0.10873145 0.18582963
v -0.07623371 0.12130775 0.18939393
v -0.10653674 0.10615623 0.00757575
v -0.06697743 0.09951976 0.19231208
v -0.06108219 0.09100471 0.05303029
v -0.10653674 0.09100471 0.18939393
v -0.09138523 0.12130775 0.00757575
v -0.07623371 0.06070168 0.18939393
v -0.10462217 0.04541328 0.00739879
v -0.09138523 0.12130775 0.06818181
v -0.09780308 0.04721470 0.19138033
v -0.07623371 0.06070168 0.17424242
v -0.10653674 0.10615623 0.06818181
f 3 2 4
f 6 3 4
f 7 2 3
f 8 6 4
f 9 4 2
f 9 2 5
f 10 3 6
f 10 7 3
f 11 5 2
f 11 2 7
f 11 8 5
f 11 1 8
f 12 8 4
f 12 9 5
f 12 4 9
f 13 8 1
f 13 6 8
f 13 10 6
f 13 1 10
f 14 10 1
f 14 1 11
f 14 11 7
f 14 7 10
f 15 12 5
f 15 5 8
f 15 8 12