# https://github.com/mikedh/trimesh
v 0.01467538 -0.13626802 -0.34090911
v 0.01472253 -0.12191030 -0.46225448
v 0.01467538 -0.10596499 -0.37121214
v -0.04716707 -0.11750892 -0.31035973
v -0.06108219 -0.13626802 -0.44696972
v 0.01534276 -0.11863315 -0.31011164
v -0.04593068 -0.13626802 -0.46212124
v -0.04593068 -0.13626802 -0.35606063
v -0.06320758 -0.10977254 -0.46404233
v -0.01562765 -0.13626802 -0.34090911
v -0.06108219 -0.13626802 -0.38636366
v -0.01562765 -0.10596499 -0.46212124
v -0.06540595 -0.11465580 -0.37288730
v -0.00048614 -0.11891014 -0.31078290
f 6 3 4
f 6 1 2
f 6 2 3
f 7 2 1
f 7 1 5
f 8 5 1
f 9 7 5
f 9 2 7
f 10 1 6
f 10 8 1
f 10 4 8
f 11 8 4
f 11 5 8
f 12 9 3
f 12 3 2
f 12 2 9
f 13 4 3
f 13 3 9
f 13 11 4
f 13 9 5
f 13 5 11
f 14 10 6
f 14 6 4
f 14 4 10