# https://github.com/mikedh/trimesh
v 0.01467538 -0.13626802 -0.47727275
v 0.07528145 -0.09081347 -0.50757578
v 0.07759523 -0.09267425 -0.47935363
v -0.04369102 -0.05981869 -0.48178690
v -0.07623371 -0.10596499 -0.50757578
v 0.06917506 -0.05736036 -0.48778416
v -0.08395174 -0.09848286 -0.45843956
v -0.04593068 -0.12111650 -0.50757578
v 0.07528145 -0.06051044 -0.50757578
v 0.01431836 -0.12228187 -0.46005502
v -0.08151931 -0.08258857 -0.48452291
v -0.04593068 -0.09081347 -0.46212124
v -0.07623371 -0.12111650 -0.47727275
v -0.05115757 -0.06254954 -0.48707152
v 0.06012993 -0.06051044 -0.50757578
v 0.01467538 -0.10596499 -0.46212124
v -0.08969369 -0.08957105 -0.46145275
v -0.03077916 -0.13626802 -0.47727275
v -0.06989457 -0.08388481 -0.49722967
v -0.09138523 -0.10596499 -0.49242427
v -0.03077916 -0.13626802 -0.46212124
v -0.06862662 -0.10944059 -0.45777596
f 1 2 3
f 8 5 2
f 8 2 1
f 9 6 3
f 9 3 2
f 9 2 5
f 10 1 3
f 12 6 4
f 13 5 8
f 15 4 6
f 15 6 9
f 15 14 4
f 15 9 5
f 16 10 3
f 16 3 6
f 16 6 12
f 16 12 7
f 17 14 11
f 17 4 14
f 17 12 4
f 17 7 12
f 18 13 8
f 18 8 1
f 19 11 14
f 19 15 5
f 19 14 15
f 20 17 11
f 20 5 13
f 20 13 7
f 20 7 17
f 20 19 5
f 20 11 19
f 21 18 1
f 21 1 10
f 21 13 18
f 22 21 10
f 22 7 13
f 22 13 21
f 22 16 7
f 22 10 16