# https://github.com/mikedh/trimesh
v -0.09393261 -0.07686276 0.14400176
v -0.09644771 -0.07766649 0.08348287
v -0.09780308 0.04721470 0.19138033
v -0.10373605 0.04587522 0.05242882
v -0.10146817 -0.05996857 0.05324851
v -0.09642473 -0.07157987 0.14325787
v -0.10106133 -0.06237576 0.05267397
v -0.09924263 0.04422565 0.18787955
v -0.09337868 -0.06118256 0.19008919
v -0.09842112 -0.07256942 0.08309846
v -0.10378233 0.04547768 0.05316443
v -0.09595880 -0.05743306 0.18613291
f 1 2 3
f 3 2 4
f 6 2 1
f 7 5 4
f 7 4 2
f 8 3 4
f 9 1 3
f 10 6 5
f 10 5 7
f 10 7 2
f 10 2 6
f 11 8 4
f 11 4 5
f 11 5 8
f 12 8 5
f 12 5 6
f 12 6 1
f 12 1 9
f 12 9 3
f 12 3 8