# https://github.com/mikedh/trimesh
v -0.09154090 -0.09090788 0.00757708
v -0.10167248 -0.06400568 -0.46487534
v -0.09694339 0.07875919 -0.46493204
v -0.09309455 0.09200428 0.00751255
v -0.12168826 0.00009562 0.05303029
v -0.09190109 -0.09102509 -0.15909209
v -0.12168826 -0.06051044 -0.02272728
v -0.10106133 -0.06237576 0.05267397
v -0.12168826 0.07585320 -0.44696972
v -0.09713291 -0.07815347 -0.35564440
v -0.10378233 0.04547768 0.05316443
v -0.12168826 0.06070168 -0.02272728
v -0.09590952 0.09274971 -0.15905228
v -0.12168826 0.06070168 -0.46212124
v -0.12168826 -0.06051044 -0.46212124
v -0.10146817 -0.05996857 0.05324851
v -0.12168826 0.07585320 -0.37121214
v -0.12168826 0.01524714 0.05303029
f 6 3 4
f 6 4 1
f 7 6 1
f 8 1 4
f 8 7 1
f 8 5 7
f 9 7 5
f 10 2 3
f 10 3 6
f 11 8 4
f 12 9 5
f 13 4 3
f 13 3 9
f 14 9 3
f 14 3 2
f 14 7 9
f 15 2 10
f 15 14 2
f 15 7 14
f 15 10 6
f 15 6 7
f 16 5 8
f 16 8 11
f 17 12 4
f 17 9 12
f 17 13 9
f 17 4 13
f 18 11 4
f 18 4 12
f 18 12 5
f 18 16 11
f 18 5 16