# https://github.com/mikedh/trimesh
v 0.06258532 0.01564228 0.44278931
v 0.06027270 0.03045098 0.26518407
v 0.04497841 0.07585320 0.50757576
v -0.03077916 0.07585320 0.50757576
v -0.03077916 0.03039865 0.49981699
v 0.04497841 0.07585320 0.26515151
v 0.06012993 0.06070168 0.50757576
v 0.04497841 0.01524714 0.41666667
v -0.01494072 0.06647037 0.26026929
v 0.06955133 0.01744157 0.41564237
v 0.05695942 0.02925499 0.49854863
v 0.04497841 0.01524714 0.44696970
v -0.03100477 0.06128760 0.44563214
v 0.05261644 0.05207397 0.25723574
v -0.01601642 0.06381650 0.26637333
f 6 4 3
f 7 3 4
f 7 4 5
f 7 6 3
f 7 2 6
f 8 5 2
f 9 4 6
f 10 2 7
f 10 8 2
f 10 1 8
f 11 7 5
f 11 10 7
f 11 1 10
f 12 8 1
f 12 5 8
f 12 11 5
f 12 1 11
f 13 5 4
f 13 4 9
f 14 9 6
f 14 6 2
f 14 2 9
f 15 9 2
f 15 2 5
f 15 13 9
f 15 5 13