# https://github.com/mikedh/trimesh
v -0.01491216 -0.06919014 0.45001845
v -0.01473835 -0.06588731 0.25940401
v -0.04593068 -0.01505589 0.44696970
v -0.06766314 -0.01353172 0.46168357
v -0.06108219 -0.06051044 0.26515151
v -0.03852243 -0.05656934 0.46543735
v -0.01562765 -0.04535893 0.26515151
v -0.04593068 -0.07566196 0.38636364
v -0.03154990 -0.06180294 0.46262690
v -0.01908541 -0.05762820 0.44133341
v -0.06287271 -0.01312846 0.26279550
v -0.02756413 -0.06479028 0.25694739
v -0.07623371 -0.04535893 0.46212121
v -0.04593068 -0.07566196 0.44696970
v -0.04593068 -0.01505589 0.26515151
v -0.07623371 -0.03020741 0.26515151
v -0.06716375 -0.01613064 0.46242288
v -0.06108219 -0.06051044 0.46212121
v -0.07623371 -0.04535893 0.38636364
f 6 3 4
f 7 1 2
f 8 2 1
f 9 1 3
f 9 3 6
f 10 7 3
f 10 3 1
f 10 1 7
f 11 4 3
f 12 8 5
f 12 2 8
f 14 8 1
f 14 1 9
f 14 13 8
f 15 7 2
f 15 12 11
f 15 2 12
f 15 11 3
f 15 3 7
f 16 12 5
f 16 11 12
f 16 13 4
f 16 4 11
f 17 13 6
f 17 6 4
f 17 4 13
f 18 14 9
f 18 9 6
f 18 6 13
f 18 13 14
f 19 16 5
f 19 13 16
f 19 5 8
f 19 8 13