# https://github.com/mikedh/trimesh
v 0.06253451 0.11157153 0.14403578
v 0.06275473 0.11104369 -0.46439706
v 0.06012993 0.13645926 -0.44696972
v -0.04593068 0.13645926 0.14393939
v -0.08283775 0.11355689 -0.15909890
v 0.06012993 0.13645926 0.06818181
v -0.06339631 0.11098996 0.14389093
v -0.06108219 0.13645926 -0.44696972
v 0.04497841 0.13645926 0.14393939
v -0.06450575 0.11433923 -0.44820231
v -0.06108219 0.13645926 0.03787878
v 0.04497841 0.13645926 -0.46212124
v -0.08175401 0.11469849 -0.23486855
v -0.04882977 0.11615203 -0.46536986
v -0.04593068 0.13645926 -0.46212124
f 6 3 4
f 6 1 2
f 6 2 3
f 7 2 1
f 7 1 4
f 8 4 3
f 9 6 4
f 9 4 1
f 9 1 6
f 10 7 5
f 10 2 7
f 11 7 4
f 11 5 7
f 11 4 8
f 12 8 3
f 12 3 2
f 13 10 5
f 13 8 10
f 13 11 8
f 13 5 11
f 14 10 8
f 14 12 2
f 14 2 10
f 15 14 8
f 15 8 12
f 15 12 14