# https://github.com/mikedh/trimesh
v -0.04995122 -0.06552637 0.24048376
v -0.04120441 -0.05417830 0.26000071
v -0.10653674 -0.06051044 0.21969697
v -0.06108219 0.10615623 0.23484848
v -0.04404147 0.09894892 0.21394308
v -0.07623371 0.04555017 0.26515151
v -0.06108219 -0.06051044 0.26515151
v -0.04593068 0.07585320 0.26515151
v -0.07623371 -0.06051044 0.18939393
v -0.10653674 0.07585320 0.18939393
v -0.07623371 -0.04535893 0.26515151
v -0.04593068 0.10615623 0.23484848
v -0.06108219 0.07585320 0.26515151
v -0.09138523 0.10615623 0.18939393
v -0.10653674 0.06070168 0.21969697
v -0.09595880 -0.05743306 0.18613291
v -0.09138523 0.03039865 0.25000000
v -0.06038862 0.10507299 0.18899338
v -0.09138523 0.07585320 0.23484848
v -0.09138523 0.10615623 0.20454545
v -0.09138523 -0.03020741 0.25000000
v -0.06108219 0.07585320 0.18939393
v -0.10653674 0.07585320 0.20454545
f 5 2 1
f 7 1 2
f 7 3 1
f 8 2 5
f 8 7 2
f 8 6 7
f 9 5 1
f 9 1 3
f 11 7 6
f 11 3 7
f 12 8 5
f 12 4 8
f 13 8 4
f 13 6 8
f 14 4 12
f 15 10 3
f 16 9 3
f 16 3 10
f 16 10 14
f 17 11 6
f 17 15 3
f 17 6 15
f 18 16 14
f 18 14 12
f 18 12 5
f 19 15 6
f 19 6 13
f 19 13 4
f 20 14 10
f 20 15 19
f 20 19 4
f 20 4 14
f 21 17 3
f 21 3 11
f 21 11 17
f 22 18 5
f 22 5 9
f 22 9 16
f 22 16 18
f 23 20 10
f 23 10 15
f 23 15 20