# https://github.com/mikedh/trimesh
v 0.07767926 0.09300472 0.19024301
v 0.07649923 0.10791088 -0.44721396
v 0.08313221 0.09762135 0.08354882
v 0.07528145 0.12130775 0.18939393
v 0.05570007 0.10922011 0.18563897
v 0.07528145 0.13645926 -0.18939396
v 0.06012993 0.09100471 0.08333332
v 0.06678773 0.10055119 0.19310596
v 0.07528145 0.13645926 -0.00757577
v 0.05835362 0.11680402 -0.44656545
v 0.06012993 0.13645926 -0.00757577
v 0.07058768 0.11157378 -0.44543667
v 0.06012993 0.13645926 -0.18939396
v 0.06387741 0.11437186 -0.44783083
f 1 2 3
f 1 3 4
f 6 3 2
f 7 2 1
f 8 1 4
f 8 4 5
f 8 7 1
f 8 5 7
f 9 4 3
f 9 3 6
f 10 7 5
f 10 2 7
f 11 5 4
f 11 4 9
f 11 9 6
f 12 6 2
f 13 10 5
f 13 5 11
f 13 11 6
f 13 6 10
f 14 10 6
f 14 6 12
f 14 12 2
f 14 2 10