# https://github.com/mikedh/trimesh
v 0.07528145 -0.12111650 0.18939393
v 0.10558448 -0.09081347 0.14393939
v 0.10558448 -0.07566196 0.20454545
v 0.08429605 -0.05776745 0.21512695
v 0.01465024 -0.12080943 0.12878299
v 0.10018710 -0.05903581 0.14377499
v 0.07528145 -0.09081347 0.23484848
v 0.10558448 -0.09081347 0.18939393
v 0.07528145 -0.12111650 0.14393939
v 0.09336826 -0.05695520 0.20052040
v 0.06012993 -0.06051044 0.20454545
v 0.06208955 -0.10927459 0.12884652
v 0.01549144 -0.11448994 0.19212306
v 0.09043296 -0.10596499 0.20454545
v 0.05724874 -0.07243650 0.23099047
v 0.05583794 -0.11281335 0.12866029
v 0.01428641 -0.11588236 0.18792121
v 0.07528145 -0.10596499 0.21969697
v 0.09043296 -0.09081347 0.21969697
v 0.06708141 -0.06604453 0.22730431
f 6 3 2
f 7 3 4
f 8 1 2
f 8 2 3
f 9 2 1
f 9 1 5
f 10 4 3
f 10 3 6
f 11 6 5
f 11 10 6
f 11 4 10
f 12 6 2
f 12 5 6
f 12 2 9
f 14 1 8
f 15 13 7
f 15 11 13
f 16 12 9
f 16 9 5
f 16 5 12
f 17 5 1
f 17 1 13
f 17 13 11
f 17 11 5
f 18 13 1
f 18 7 13
f 18 14 7
f 18 1 14
f 19 3 7
f 19 7 14
f 19 14 8
f 19 8 3
f 20 15 7
f 20 7 4
f 20 4 11
f 20 11 15