# https://github.com/mikedh/trimesh
v 0.04497841 -0.07566196 0.50757576
v 0.06330697 -0.03142556 0.46255747
v 0.05695942 0.02925499 0.49854863
v -0.03077916 0.03039865 0.49981699
v -0.04593068 -0.07566196 0.44696970
v -0.06766314 -0.01353172 0.46168357
v -0.07623371 -0.01505589 0.50757576
v 0.06012993 -0.06051044 0.50757576
v 0.04497841 -0.07566196 0.46212121
v 0.06137421 0.03104211 0.49264278
v 0.01486909 -0.06235279 0.44408969
v -0.07623371 -0.04535893 0.46212121
v -0.06108219 -0.06051044 0.50757576
v -0.04395811 -0.05710782 0.44862107
v 0.01410026 -0.06951847 0.45054194
v 0.05090458 -0.05122565 0.45745863
v -0.03077916 -0.07566196 0.50757576
v -0.07623371 -0.04535893 0.49242425
v -0.04593068 -0.07566196 0.49242425
v -0.07623371 -0.03020741 0.50757576
f 7 3 4
f 7 4 6
f 8 7 1
f 8 3 7
f 9 1 5
f 9 8 1
f 9 2 8
f 10 2 6
f 10 8 2
f 10 3 8
f 10 6 4
f 10 4 3
f 11 6 2
f 12 7 6
f 12 6 5
f 13 1 7
f 14 11 5
f 14 5 6
f 14 6 11
f 15 11 9
f 15 9 5
f 15 5 11
f 16 11 2
f 16 2 9
f 16 9 11
f 17 5 1
f 17 1 13
f 18 7 12
f 18 12 5
f 19 17 13
f 19 5 17
f 19 18 5
f 19 13 18
f 20 18 13
f 20 13 7
f 20 7 18