# https://github.com/mikedh/trimesh
v 0.05261644 0.05207397 0.25723574
v 0.06253451 0.11157153 0.14403578
v 0.06012993 0.10615623 0.23484848
v -0.03077916 0.13645926 0.17424242
v -0.06339631 0.11098996 0.14389093
v 0.04497841 0.13645926 0.15909090
v -0.04593068 0.07585320 0.26515151
v 0.06768939 0.06629002 0.22793561
v 0.06012993 0.12130775 0.20454545
v -0.02876206 0.12193947 0.12823083
v 0.06012993 0.07585320 0.26515151
v -0.04593068 0.12130775 0.21969697
v -0.05281178 0.05097238 0.25542221
v -0.01562765 0.10615623 0.12878787
v 0.04497841 0.13645926 0.14393939
v 0.04497841 0.12130775 0.21969697
v -0.03429533 0.12078115 0.12970216
v -0.04781073 0.04729257 0.26630305
v -0.06108219 0.12130775 0.20454545
v 0.01431838 0.12335119 0.12862309
v -0.01562765 0.04555017 0.25000000
v 0.02982690 0.13645926 0.17424242
v -0.01562765 0.04555017 0.26515151
v -0.06976739 0.08427224 0.21309713
f 9 8 2
f 9 3 8
f 11 3 7
f 11 8 3
f 11 1 8
f 12 7 3
f 14 2 8
f 14 13 5
f 15 9 2
f 15 6 9
f 15 10 4
f 15 4 6
f 16 9 6
f 16 4 12
f 16 12 3
f 16 3 9
f 17 5 4
f 17 4 10
f 17 14 5
f 17 10 14
f 18 11 7
f 18 7 13
f 19 12 4
f 19 4 5
f 19 7 12
f 20 14 10
f 20 2 14
f 20 15 2
f 20 10 15
f 21 14 8
f 21 8 1
f 21 13 14
f 21 18 13
f 22 16 6
f 22 6 4
f 22 4 16
f 23 1 11
f 23 11 18
f 23 21 1
f 23 18 21
f 24 13 7
f 24 7 19
f 24 19 5
f 24 5 13