# https://github.com/mikedh/trimesh
v 0.04497841 -0.07566196 0.46212121
v 0.06012993 -0.06051044 0.26515151
v 0.06330697 -0.03142556 0.46255747
v 0.04497841 -0.01505589 0.44696970
v -0.01590516 -0.06231917 0.26583254
v 0.06339643 -0.01544037 0.26561516
v -0.01491216 -0.06919014 0.45001845
v 0.04497841 -0.07566196 0.38636364
v 0.06302165 -0.01598761 0.44245317
v 0.04497841 -0.01505589 0.26515151
v 0.01569263 -0.06667076 0.46285081
v -0.01887877 -0.05725816 0.43746741
v -0.01473835 -0.06588731 0.25940401
v 0.04497841 -0.03020741 0.46212121
v 0.02647580 -0.06469549 0.25745990
v -0.01908541 -0.05762820 0.44133341
f 1 2 3
f 6 3 2
f 8 2 1
f 8 1 7
f 9 6 4
f 9 4 3
f 9 3 6
f 10 4 6
f 11 7 1
f 11 1 3
f 12 10 5
f 12 4 10
f 13 5 10
f 13 8 7
f 14 11 3
f 14 3 4
f 14 7 11
f 15 2 8
f 15 8 13
f 15 6 2
f 15 13 10
f 15 10 6
f 16 12 5
f 16 5 13
f 16 13 7
f 16 7 14
f 16 14 4
f 16 4 12