# https://github.com/mikedh/trimesh
v 0.10558448 0.06070168 0.21969697
v 0.10028602 0.05924015 0.14375627
v 0.10558448 0.09100471 0.14393939
v 0.07528145 0.10615623 0.21969697
v 0.06012993 0.06070168 0.20454545
v 0.10558448 0.09100471 0.18939393
v 0.06768939 0.06629002 0.22793561
v 0.07403783 0.10453914 0.14382993
v 0.09043296 0.10615623 0.20454545
v 0.10558448 0.07585320 0.21969697
v 0.05526806 0.09617953 0.21205474
v 0.08044822 0.09802614 0.14333421
v 0.07528145 0.07585320 0.14393939
v 0.06008284 0.10605225 0.18936014
v 0.06012993 0.07585320 0.18939393
f 1 2 3
f 5 2 1
f 6 1 3
f 7 5 1
f 9 6 3
f 9 3 8
f 10 7 1
f 10 4 7
f 10 9 4
f 10 1 6
f 10 6 9
f 11 7 4
f 11 5 7
f 12 8 3
f 12 3 2
f 13 2 5
f 13 12 2
f 13 8 12
f 14 9 8
f 14 4 9
f 14 11 4
f 15 14 8
f 15 8 13
f 15 13 5
f 15 5 11
f 15 11 14