# https://github.com/mikedh/trimesh
v -0.03077916 -0.12111650 0.21969697
v -0.03047790 -0.11875113 0.14384069
v -0.04559246 -0.06009395 0.24959950
v -0.09138523 -0.06051044 0.23484848
v -0.10653674 -0.09081347 0.18939393
v -0.07623371 -0.07566196 0.08333332
v -0.07623371 -0.07566196 0.25000000
v -0.03077916 -0.07566196 0.20454545
v -0.07623371 -0.12111650 0.18939393
v -0.10028821 -0.05918466 0.14383985
v -0.07623371 -0.06051044 0.25000000
v -0.09138523 -0.07566196 0.23484848
v -0.03315438 -0.08573450 0.22851861
v -0.04593068 -0.06051044 0.21969697
v -0.06108219 -0.09081347 0.08333332
v -0.07623371 -0.10596499 0.21969697
v -0.09842112 -0.07256942 0.08309846
v -0.10653674 -0.06051044 0.20454545
v -0.05828165 -0.11449735 0.08275060
v -0.04593068 -0.12111650 0.21969697
v -0.09138523 -0.10596499 0.20454545
v -0.10653674 -0.07566196 0.20454545
v -0.06825291 -0.10886916 0.08240228
v -0.09380948 -0.08299792 0.08280512
f 7 1 3
f 8 1 2
f 9 2 1
f 11 7 3
f 11 4 7
f 11 10 4
f 11 3 10
f 12 7 4
f 13 8 3
f 13 3 1
f 13 1 8
f 14 8 6
f 14 3 8
f 14 10 3
f 14 6 10
f 15 8 2
f 15 6 8
f 16 7 12
f 17 10 6
f 18 4 10
f 18 12 4
f 18 17 5
f 18 10 17
f 19 15 2
f 19 2 9
f 20 16 9
f 20 9 1
f 20 1 7
f 20 7 16
f 21 16 12
f 21 12 5
f 21 5 9
f 21 9 16
f 22 18 5
f 22 5 12
f 22 12 18
f 23 19 9
f 23 9 5
f 23 6 15
f 23 15 19
f 24 23 5
f 24 5 17
f 24 17 6
f 24 6 23