# https://github.com/mikedh/trimesh
v 0.05830606 0.04381417 -0.48257713
v 0.08302667 0.08193829 -0.48431055
v 0.08449888 0.10062595 -0.44797379
v -0.09138523 0.12130775 -0.44696972
v -0.09138523 0.09100471 -0.50757578
v -0.10292645 0.07471419 -0.44687454
v 0.06253188 0.04841702 -0.48600858
v 0.06012993 0.12130775 -0.50757578
v -0.07623371 0.07585320 -0.44696972
v -0.07029008 0.04177347 -0.49696995
v -0.10653674 0.10615623 -0.46212124
v 0.07528145 0.12130775 -0.49242427
v 0.07282032 0.07318203 -0.49995268
v -0.06108219 0.12130775 -0.50757578
v 0.07058768 0.11157378 -0.44543667
v -0.10653674 0.07585320 -0.49242427
v -0.06620763 0.04066676 -0.48688697
v -0.03077916 0.04555017 -0.50757578
v -0.10653674 0.10615623 -0.44696972
v 0.04497841 0.13645926 -0.47727275
v 0.07528145 0.10615623 -0.50757578
v -0.09138523 0.12130775 -0.46212124
v -0.07623371 0.12130775 -0.49242427
v -0.10653674 0.09100471 -0.49242427
v 0.06446095 0.06382441 -0.49775928
v 0.04497841 0.13645926 -0.46212124
v -0.03077916 0.13645926 -0.47727275
f 7 2 3
f 7 3 1
f 9 6 1
f 9 1 3
f 12 3 2
f 13 2 7
f 14 8 5
f 15 9 3
f 15 6 9
f 15 3 12
f 16 10 6
f 16 5 10
f 17 10 1
f 17 1 6
f 17 6 10
f 18 7 1
f 18 1 10
f 18 10 5
f 18 5 8
f 19 4 11
f 19 15 4
f 19 6 15
f 19 16 6
f 19 11 16
f 20 12 8
f 20 8 14
f 21 12 2
f 21 2 13
f 21 8 12
f 21 18 8
f 21 13 18
f 22 11 4
f 23 14 5
f 23 11 22
f 24 16 11
f 24 5 16
f 24 23 5
f 24 11 23
f 25 18 13
f 25 13 7
f 25 7 18
f 26 15 12
f 26 12 20
f 26 4 15
f 27 22 4
f 27 23 22
f 27 20 14
f 27 14 23
f 27 26 20
f 27 4 26