# https://github.com/mikedh/trimesh
v 0.04497841 -0.13626802 -0.35606063
v 0.12073599 -0.07566196 -0.46212124
v 0.10558448 -0.10596499 -0.37121214
v 0.09916396 -0.06288609 -0.37024567
v 0.02982690 -0.09081347 -0.50757578
v 0.12073599 -0.06051044 -0.37121214
v 0.07528145 -0.12111650 -0.49242427
v 0.01543172 -0.12082947 -0.35516891
v 0.12073599 -0.07566196 -0.37121214
v 0.06917506 -0.05736036 -0.48778416
v 0.10558448 -0.10596499 -0.46212124
v 0.07627924 -0.10745574 -0.35590137
v 0.01467538 -0.13626802 -0.47727275
v 0.02982690 -0.09081347 -0.47727275
v 0.12073599 -0.06051044 -0.46212124
v 0.07528145 -0.09081347 -0.50757578
v 0.10558448 -0.09081347 -0.49242427
v 0.09043296 -0.12111650 -0.37121214
v 0.06012993 -0.13626802 -0.44696972
v 0.01467538 -0.13626802 -0.35606063
v 0.01349504 -0.11485696 -0.49580228
v 0.09538336 -0.05718990 -0.48262773
v 0.07568380 -0.06081132 -0.49070892
v 0.07528145 -0.10596499 -0.50757578
v 0.02982690 -0.13626802 -0.47727275
v 0.06012993 -0.13626802 -0.38636366
v 0.09043296 -0.12111650 -0.46212124
v 0.04497841 -0.12111650 -0.50757578
f 9 3 2
f 9 2 6
f 10 4 6
f 10 8 4
f 11 2 3
f 12 6 4
f 12 4 8
f 12 8 1
f 12 9 6
f 12 3 9
f 14 10 5
f 14 8 10
f 15 6 2
f 17 11 7
f 17 2 11
f 17 15 2
f 18 11 3
f 18 12 1
f 18 3 12
f 19 1 13
f 20 13 1
f 20 1 8
f 21 14 5
f 21 8 14
f 21 20 8
f 21 13 20
f 22 10 6
f 22 6 15
f 22 15 17
f 22 17 16
f 23 16 5
f 23 5 10
f 23 22 16
f 23 10 22
f 24 17 7
f 24 16 17
f 24 5 16
f 25 19 13
f 25 7 19
f 26 19 18
f 26 18 1
f 26 1 19
f 27 19 7
f 27 7 11
f 27 11 18
f 27 18 19
f 28 24 7
f 28 13 21
f 28 21 5
f 28 5 24
f 28 25 13
f 28 7 25