# https://github.com/mikedh/trimesh
v -0.09668601 0.08582359 0.00705034
v -0.05933990 0.11654108 -0.44642874
v -0.06015406 0.11864192 0.00743224
v -0.07623371 0.13645926 -0.00757577
v -0.10653674 0.10615623 -0.44696972
v -0.06108219 0.13645926 -0.14393941
v -0.09138523 0.12130775 0.00757575
v -0.10159384 0.07466996 -0.15938444
v -0.06108219 0.13645926 -0.00757577
v -0.09138523 0.12130775 -0.44696972
v -0.06512945 0.11669601 0.00811245
v -0.10653674 0.10615623 0.00757575
v -0.10292645 0.07471419 -0.44687454
v -0.07623371 0.13645926 -0.14393941
v -0.08780916 0.09938433 0.00772359
v -0.06450575 0.11433923 -0.44820231
v -0.10101582 0.07958662 -0.44780255
f 7 4 5
f 8 2 3
f 8 3 1
f 9 3 2
f 9 2 6
f 9 6 4
f 9 7 3
f 9 4 7
f 10 5 4
f 10 6 2
f 11 1 3
f 11 3 7
f 12 7 5
f 12 11 7
f 12 8 1
f 13 2 8
f 13 12 5
f 13 8 12
f 14 10 4
f 14 4 6
f 14 6 10
f 15 12 1
f 15 1 11
f 15 11 12
f 16 10 2
f 16 2 13
f 16 5 10
f 17 16 13
f 17 13 5
f 17 5 16