# https://github.com/mikedh/trimesh
v 0.07528145 -0.12111650 0.14393939
v 0.10558448 -0.10596499 -0.37121214
v 0.10558448 -0.10596499 0.03787878
v 0.10018710 -0.05903581 0.14377499
v 0.07528145 -0.07566196 -0.37121214
v 0.10558448 -0.09081347 0.14393939
v 0.09043296 -0.12111650 0.05303029
v 0.05874247 -0.11605012 -0.23480925
v 0.10039320 -0.05939074 -0.37213412
v 0.09912250 -0.06288454 0.14420406
v 0.06948229 -0.11143243 -0.36913387
v 0.06012993 -0.09081347 0.14393939
v 0.09043296 -0.12111650 -0.37121214
v 0.05534086 -0.11267442 0.14348287
v 0.06012993 -0.09081347 0.03787878
f 6 3 2
f 7 2 3
f 7 6 1
f 7 3 6
f 9 5 4
f 9 6 2
f 9 4 6
f 10 6 4
f 10 1 6
f 11 8 5
f 12 4 5
f 12 10 4
f 12 1 10
f 13 7 1
f 13 1 8
f 13 8 11
f 13 2 7
f 13 11 5
f 13 9 2
f 13 5 9
f 14 8 1
f 14 1 12
f 15 12 5
f 15 5 8
f 15 14 12
f 15 8 14