# https://github.com/mikedh/trimesh
v 0.09615424 0.07301699 0.14369027
v 0.10558448 0.07585320 -0.49242427
v 0.10558448 0.10615623 0.05303029
v 0.09043296 0.12130775 0.09848484
v 0.06751311 0.08398991 -0.49721520
v 0.09043296 0.12130775 -0.46212124
v 0.10558448 0.09100471 0.14393939
v 0.07282032 0.07318203 -0.49995268
v 0.06927706 0.10991126 0.09818441
v 0.10558448 0.10615623 -0.46212124
v 0.09043296 0.09100471 -0.50757578
v 0.06925015 0.11001302 -0.45825732
v 0.07403783 0.10453914 0.14382993
v 0.07528145 0.07585320 0.14393939
v 0.09043296 0.10615623 -0.49242427
v 0.09043296 0.07585320 -0.50757578
v 0.06810741 0.09702142 -0.48456244
v 0.10558448 0.09100471 -0.49242427
f 6 4 3
f 7 3 4
f 7 1 2
f 7 2 3
f 8 2 1
f 10 6 3
f 10 3 2
f 11 8 5
f 12 9 4
f 12 4 6
f 13 7 4
f 13 4 9
f 14 9 5
f 14 5 8
f 14 13 9
f 14 8 1
f 14 1 7
f 14 7 13
f 15 11 5
f 15 6 10
f 16 11 2
f 16 2 8
f 16 8 11
f 17 5 9
f 17 9 12
f 17 15 5
f 17 12 6
f 17 6 15
f 18 15 10
f 18 10 2
f 18 2 11
f 18 11 15