# https://github.com/mikedh/trimesh
v -0.04584563 -0.12059926 -0.11362714
v -0.05784786 -0.11459311 -0.45948959
v -0.07623371 -0.06051044 -0.46212124
v -0.09970416 -0.07263899 -0.15944262
v -0.09138523 -0.12111650 -0.15909092
v -0.07623371 -0.07566196 -0.18939396
v -0.04575470 -0.11987290 -0.37107601
v -0.06415603 -0.11646167 -0.11336256
v -0.12168826 -0.07566196 -0.44696972
v -0.10320070 -0.05985167 -0.35613672
v -0.06108219 -0.09081347 -0.46212124
v -0.09138523 -0.12111650 -0.46212124
v -0.06006728 -0.11767388 -0.11377778
v -0.10653674 -0.10596499 -0.15909092
v -0.12168826 -0.06051044 -0.38636366
v -0.09138523 -0.09081347 -0.50757578
v -0.04827071 -0.12019579 -0.11389042
v -0.10653674 -0.10596499 -0.46212124
v -0.12168826 -0.07566196 -0.38636366
v -0.09595147 -0.05640872 -0.48553342
v -0.06989457 -0.08388481 -0.49722967
v -0.10653674 -0.07566196 -0.49242427
v -0.12168826 -0.06051044 -0.44696972
v -0.08802321 -0.05784944 -0.49699399
f 6 1 3
f 6 4 1
f 7 3 1
f 8 1 4
f 10 6 3
f 10 4 6
f 11 7 2
f 11 3 7
f 12 2 7
f 12 7 1
f 12 1 5
f 13 8 5
f 13 1 8
f 14 8 4
f 14 5 8
f 14 12 5
f 15 4 10
f 15 14 4
f 16 2 12
f 17 13 5
f 17 5 1
f 17 1 13
f 18 14 9
f 18 12 14
f 18 16 12
f 19 15 9
f 19 9 14
f 19 14 15
f 20 15 10
f 20 10 3
f 21 11 2
f 21 2 16
f 21 3 11
f 22 18 9
f 22 16 18
f 23 9 15
f 23 15 20
f 23 22 9
f 23 20 22
f 24 20 3
f 24 3 21
f 24 21 16
f 24 22 20
f 24 16 22