# https://github.com/mikedh/trimesh
v 0.06012993 -0.12111650 0.20454545
v 0.06535963 -0.10022396 0.19269949
v 0.06024207 -0.03025217 0.26519433
v -0.04658943 -0.04599937 0.26536207
v -0.02985757 -0.11369730 0.18712711
v 0.06012993 -0.07566196 0.26515151
v 0.06012993 -0.12111650 0.18939393
v -0.04593068 -0.04535893 0.23484848
v 0.05453191 -0.03805415 0.26839827
v -0.03077916 -0.12111650 0.21969697
v 0.06012993 -0.10596499 0.23484848
v 0.06575737 -0.03222369 0.25294132
v 0.02982690 -0.09081347 0.18939393
v 0.04497841 -0.03020741 0.25000000
v -0.04593068 -0.07566196 0.26515151
v 0.04497841 -0.12111650 0.21969697
v -0.07320787 -0.07336371 0.21645373
v -0.04593068 -0.06051044 0.21969697
v -0.07623371 -0.09081347 0.23484848
v -0.07623371 -0.07566196 0.23484848
v -0.06858249 -0.08342368 0.21257303
v -0.04593068 -0.10596499 0.23484848
f 7 2 1
f 9 6 3
f 9 3 4
f 10 7 1
f 10 5 7
f 11 1 2
f 11 2 6
f 12 6 2
f 12 3 6
f 13 7 5
f 13 2 7
f 13 12 2
f 14 8 4
f 14 4 3
f 14 3 12
f 14 12 13
f 15 9 4
f 15 6 9
f 15 11 6
f 16 11 10
f 16 10 1
f 16 1 11
f 17 13 5
f 18 17 8
f 18 13 17
f 18 14 13
f 18 8 14
f 19 5 10
f 19 15 4
f 20 4 8
f 20 8 17
f 20 19 4
f 20 17 19
f 21 19 17
f 21 17 5
f 21 5 19
f 22 19 10
f 22 15 19
f 22 10 11
f 22 11 15