# https://github.com/mikedh/trimesh
v 0.09043296 -0.07566196 0.23484848
v 0.10558448 -0.06051044 0.21969697
v 0.06438475 0.01603533 0.27948778
v 0.07528145 0.09100471 0.23484848
v 0.07528145 -0.06051044 0.18939393
v 0.10558448 0.06070168 0.21969697
v 0.09043296 -0.04535893 0.25000000
v 0.09661365 -0.05830131 0.18735768
v 0.06012993 -0.07566196 0.25000000
v 0.07528145 0.06070168 0.26515151
v 0.09631589 0.05863912 0.18779550
v 0.06256417 -0.07786741 0.22266543
v 0.07528145 -0.06051044 0.26515151
v 0.09043296 0.07585320 0.23484848
v 0.03009501 0.06131577 0.26541416
v 0.09043296 0.04555017 0.25000000
v 0.09506269 0.06186223 0.19028091
v 0.07528145 -0.04535893 0.18939393
v 0.07528145 -0.07566196 0.25000000
v 0.04497841 0.01524714 0.28030303
v 0.02982690 0.04555017 0.25000000
v 0.06012993 -0.06051044 0.26515151
v 0.06046876 0.03054014 0.28025490
v 0.05876119 0.08908728 0.21762501
v 0.03605416 0.05752848 0.26896799
v 0.06953361 0.08484824 0.21309350
v 0.03226016 0.06679146 0.25464163
v 0.05691174 0.03726392 0.27776353
f 7 1 2
f 7 2 6
f 8 2 1
f 8 6 2
f 11 6 8
f 12 8 1
f 12 5 8
f 13 7 3
f 13 1 7
f 14 10 6
f 14 6 4
f 14 4 10
f 15 10 4
f 16 7 6
f 16 6 10
f 16 10 3
f 16 3 7
f 17 4 6
f 17 6 11
f 18 11 8
f 18 8 5
f 19 12 1
f 19 9 12
f 19 13 9
f 19 1 13
f 20 13 3
f 21 5 12
f 21 12 9
f 21 20 15
f 21 18 5
f 22 9 13
f 22 13 20
f 22 21 9
f 22 20 21
f 23 20 3
f 23 3 10
f 24 11 18
f 24 18 21
f 24 17 11
f 25 10 15
f 25 15 20
f 25 20 23
f 26 24 4
f 26 4 17
f 26 17 24
f 27 24 21
f 27 21 15
f 27 15 4
f 27 4 24
f 28 25 23
f 28 23 10
f 28 10 25