# https://github.com/mikedh/trimesh
v 0.01467538 -0.13626802 0.15909090
v 0.07627924 -0.10745574 -0.35590137
v 0.06208955 -0.10927459 0.12884652
v -0.03196020 -0.11195625 0.19132228
v -0.06108219 -0.13626802 -0.11363638
v -0.06270251 -0.10869395 0.14409385
v 0.01549144 -0.11448994 0.19212306
v 0.07528145 -0.13626802 -0.00757577
v 0.07661993 -0.10786319 0.00772274
v -0.04716707 -0.11750892 -0.31035973
v -0.04593068 -0.13626802 0.08333332
v -0.01562765 -0.13626802 0.15909090
v 0.04497841 -0.13626802 0.09848484
v 0.04497841 -0.13626802 -0.20454547
v 0.07528145 -0.13626802 -0.08333335
v -0.06415603 -0.11646167 -0.11336256
v -0.06108219 -0.13626802 0.02272726
v -0.03077916 -0.13626802 0.12878787
v 0.01466959 -0.12095308 -0.35607799
v 0.06979311 -0.11173150 -0.35669949
v -0.03077916 -0.13626802 -0.20454547
f 6 4 3
f 7 1 3
f 7 3 4
f 8 1 5
f 9 6 3
f 9 2 6
f 9 3 8
f 10 6 2
f 11 5 1
f 12 7 4
f 12 1 7
f 12 11 1
f 12 4 6
f 13 8 3
f 13 3 1
f 13 1 8
f 14 8 5
f 15 9 8
f 15 2 9
f 15 8 14
f 16 10 5
f 16 6 10
f 17 11 6
f 17 5 11
f 17 16 5
f 17 6 16
f 18 12 6
f 18 6 11
f 18 11 12
f 19 10 2
f 20 15 14
f 20 2 15
f 20 19 2
f 20 14 19
f 21 19 14
f 21 14 5
f 21 5 10
f 21 10 19