# https://github.com/mikedh/trimesh
v -0.06108219 -0.13626802 -0.00757577
v -0.06008729 -0.11633067 -0.15900943
v -0.06108219 -0.09081347 0.08333332
v -0.10147625 -0.05956667 0.08326983
v -0.10653674 -0.10596499 -0.15909092
v -0.10274203 -0.05992394 0.00744092
v -0.09138523 -0.12111650 0.05303029
v -0.05828165 -0.11449735 0.08275060
v -0.09138523 -0.12111650 -0.15909092
v -0.06108219 -0.09081347 0.03787878
v -0.10653674 -0.10596499 0.03787878
v -0.09389602 -0.08593281 -0.15931346
v -0.06108219 -0.13626802 -0.03787880
v -0.07623371 -0.13626802 -0.00757577
v -0.10094600 -0.06235552 0.08348866
v -0.06310574 -0.11569897 -0.15925668
v -0.07623371 -0.13626802 -0.03787880
v -0.09380948 -0.08299792 0.08280512
v -0.06825291 -0.10886916 0.08240228
f 9 7 5
f 10 8 2
f 10 3 8
f 10 6 4
f 10 4 3
f 11 6 5
f 11 4 6
f 11 5 7
f 12 5 6
f 12 9 5
f 12 10 2
f 12 6 10
f 13 8 1
f 13 2 8
f 13 9 2
f 14 8 7
f 14 1 8
f 14 7 9
f 14 13 1
f 15 8 3
f 15 3 4
f 15 4 11
f 16 12 2
f 16 2 9
f 16 9 12
f 17 14 9
f 17 9 13
f 17 13 14
f 18 8 15
f 18 15 11
f 18 11 7
f 19 18 7
f 19 7 8
f 19 8 18