# https://github.com/mikedh/trimesh
v 0.12073599 -0.06051044 -0.46212124
v 0.12073599 -0.06051044 -0.47727275
v 0.12073599 0.06070168 -0.47727275
v 0.06012993 0.07585320 -0.47727275
v 0.05799720 -0.05936161 -0.48199862
v 0.09940057 0.07334561 -0.46011873
v 0.10084143 -0.06459506 -0.46535206
v 0.10558448 -0.03020741 -0.50757578
v 0.12073599 0.06070168 -0.46212124
v 0.09043296 0.07585320 -0.50757578
v 0.06384732 -0.06298564 -0.48703315
v 0.12073599 -0.03020741 -0.49242427
v 0.10558448 0.07585320 -0.49242427
v 0.06012993 0.03039865 -0.50757578
v 0.09564068 0.07856535 -0.46419811
v 0.10558448 0.06070168 -0.50757578
v 0.05759050 0.07101850 -0.49713102
v 0.07528145 -0.03020741 -0.50757578
v 0.12073599 0.03039865 -0.49242427
f 1 2 3
f 6 4 5
f 7 2 1
f 7 6 5
f 7 1 6
f 9 6 1
f 9 1 3
f 11 7 5
f 11 2 7
f 11 8 2
f 12 3 2
f 12 2 8
f 13 9 3
f 14 10 8
f 15 6 9
f 15 9 13
f 15 4 6
f 15 13 10
f 15 10 4
f 16 13 3
f 16 12 8
f 16 8 10
f 16 10 13
f 17 14 5
f 17 5 4
f 17 4 10
f 17 10 14
f 18 11 5
f 18 5 14
f 18 14 8
f 18 8 11
f 19 16 3
f 19 3 12
f 19 12 16