# https://github.com/mikedh/trimesh
v 0.06384732 -0.06298564 -0.48703315
v 0.05799720 -0.05936161 -0.48199862
v -0.05115757 -0.06254954 -0.48707152
v -0.04821800 0.05338404 -0.48439851
v 0.06253188 0.04841702 -0.48600858
v -0.04593068 -0.04535893 -0.46212124
v 0.04497841 0.03039865 -0.46212124
v -0.04593068 0.03039865 -0.46212124
v 0.01467538 -0.06051044 -0.46212124
v 0.04497841 -0.01505589 -0.46212124
v 0.01467538 0.04555017 -0.46212124
v -0.01562765 -0.06051044 -0.46212124
v 0.02982690 -0.04535893 -0.46212124
v -0.01562765 0.04555017 -0.46212124
f 5 1 3
f 5 3 4
f 7 1 5
f 8 4 3
f 8 3 6
f 8 6 7
f 9 1 2
f 9 7 6
f 10 2 1
f 10 1 7
f 10 7 9
f 11 7 5
f 11 5 4
f 11 8 7
f 12 9 6
f 12 6 3
f 12 3 1
f 12 1 9
f 13 10 9
f 13 9 2
f 13 2 10
f 14 11 4
f 14 4 8
f 14 8 11