# https://github.com/mikedh/trimesh
v 0.09479429 -0.06187171 0.19044874
v 0.12073599 -0.06051044 -0.46212124
v 0.12073599 0.03039865 0.17424242
v 0.09437594 0.07762794 0.14401016
v 0.09564068 0.07856535 -0.46419811
v 0.09506269 0.06186223 0.19028091
v 0.12073599 -0.04535893 0.14393939
v 0.10084143 -0.06459506 -0.46535206
v 0.12073599 0.07585320 -0.46212124
v 0.12073599 0.04555017 0.12878787
v 0.12073599 -0.06051044 0.00757575
v 0.12073599 -0.03020741 0.17424242
v 0.12073599 0.07585320 -0.37121214
v 0.12073599 0.06070168 -0.02272728
f 5 1 4
f 6 1 3
f 6 4 1
f 7 2 3
f 8 1 5
f 9 3 2
f 9 8 5
f 9 2 8
f 10 6 3
f 10 4 6
f 10 3 9
f 11 7 1
f 11 2 7
f 11 8 2
f 11 1 8
f 12 7 3
f 12 3 1
f 12 1 7
f 13 9 5
f 13 5 4
f 13 10 9
f 14 13 4
f 14 4 10
f 14 10 13