# https://github.com/mikedh/trimesh
v -0.03090755 -0.01513807 0.49978306
v -0.01562765 0.04555017 0.26515151
v -0.01483478 0.06859362 0.44932365
v -0.04593068 0.07585320 0.49242425
v -0.07623371 0.03039865 0.26515151
v -0.01494072 0.06647037 0.26026929
v -0.02916810 0.05632493 0.49824558
v -0.03064332 -0.01496895 0.49978956
v -0.06220227 -0.01519605 0.26531474
v -0.07623371 -0.01505589 0.50757576
v -0.04593068 0.07585320 0.38636364
v -0.02642916 0.06271266 0.48896253
v -0.06287271 -0.01312846 0.26279550
v -0.07623371 0.04555017 0.50757576
v -0.06108219 0.06070168 0.26515151
v -0.02746212 0.06561617 0.25861648
v -0.06108219 0.06070168 0.50757576
v -0.07623371 0.04555017 0.38636364
f 6 3 2
f 8 2 3
f 8 3 7
f 9 8 1
f 9 2 8
f 10 1 8
f 10 9 1
f 11 4 3
f 11 3 6
f 12 7 3
f 12 3 4
f 12 4 7
f 13 6 2
f 13 2 9
f 13 10 5
f 13 9 10
f 14 5 10
f 14 4 11
f 15 14 11
f 16 13 5
f 16 6 13
f 16 5 15
f 16 15 11
f 16 11 6
f 17 7 4
f 17 4 14
f 17 8 7
f 17 14 10
f 17 10 8
f 18 15 5
f 18 5 14
f 18 14 15