# https://github.com/mikedh/trimesh
v -0.05063150 -0.09988950 -0.49658200
v -0.04593068 -0.09081347 -0.47727275
v -0.12168826 -0.06051044 -0.46212124
v -0.09694339 0.07875919 -0.46493204
v -0.04821800 0.05338404 -0.48439851
v -0.10090234 0.07397136 -0.46044285
v -0.10653674 0.07585320 -0.50757578
v -0.07784370 -0.09234969 -0.47829872
v -0.04593068 -0.04535893 -0.50757578
v -0.10167248 -0.06400568 -0.46487534
v -0.04581388 0.04485298 -0.47966973
v -0.10653674 -0.06051044 -0.50757578
v -0.08100605 0.08045927 -0.49728415
v -0.12168826 0.06070168 -0.46212124
v -0.12168826 -0.06051044 -0.47727275
v -0.08605622 0.08292771 -0.48195548
v -0.06480784 0.04875453 -0.49699534
v -0.12168826 0.06070168 -0.47727275
f 8 1 2
f 8 2 3
f 9 2 1
f 10 6 3
f 10 3 2
f 10 2 6
f 11 5 4
f 11 4 6
f 11 6 2
f 11 9 5
f 11 2 9
f 12 1 8
f 12 9 1
f 12 7 9
f 13 9 7
f 14 6 4
f 14 4 7
f 14 3 6
f 15 7 12
f 15 3 14
f 15 12 8
f 15 8 3
f 16 13 7
f 16 7 4
f 16 4 5
f 16 5 13
f 17 13 5
f 17 5 9
f 17 9 13
f 18 15 14
f 18 14 7
f 18 7 15