# https://github.com/mikedh/trimesh
v 0.08096536 -0.05532805 0.24598461
v 0.08096536 -0.03017820 0.24418712
v -0.05844708 -0.03017820 0.23814747
v -0.07858182 -0.05532805 0.19709238
v 0.08096536 -0.05532805 -0.46475029
v 0.08096536 -0.03017820 -0.46101147
v -0.07850373 -0.03017820 0.21492368
v -0.07858182 -0.03020775 0.21485177
v -0.07858182 -0.05532805 -0.48854929
v -0.05466693 -0.05532805 -0.48516998
v -0.07858182 -0.03501812 -0.48811790
v 0.08096536 -0.04855807 -0.46388748
v -0.07858182 -0.03017820 -0.48739889
v -0.07858182 -0.03017820 0.20672703
f 1 2 3
f 1 3 4
f 1 4 9
f 1 9 10
f 1 10 5
f 1 5 12
f 1 12 6
f 1 6 2
f 2 6 13
f 2 13 14
f 2 14 7
f 2 7 3
f 3 7 8
f 3 8 4
f 4 8 14
f 4 14 13
f 4 13 11
f 4 11 9
f 5 10 11
f 5 11 12
f 6 12 13
f 7 14 8
f 9 11 10
f 11 13 12

