# https://github.com/mikedh/trimesh
v 0.37376752 -0.03017820 0.05852674
v 0.37035704 -0.03017820 0.11207514
v 0.35966700 -0.05454222 0.15758039
v 0.35413569 -0.09343555 0.04801995
v 0.36345005 -0.05243479 -0.04393257
v 0.37190464 -0.03017820 0.00505081
v 0.35763216 -0.03017820 0.17801429
v 0.33802900 -0.03017820 0.22446154
v 0.32412907 -0.05815741 0.23938842
v 0.32983235 -0.11041497 0.17330436
v 0.30446860 -0.14793761 0.07577237
v 0.28873447 -0.15686423 -0.01031084
v 0.33381602 -0.10645711 -0.04183121
v 0.36663127 -0.03017820 -0.04255582
v 0.31802458 -0.09658813 -0.18008606
v 0.34857571 -0.03017820 -0.16573885
v 0.35416436 -0.03017820 -0.13747922
v 0.31713614 -0.03017820 0.25119954
v 0.31619036 -0.03017820 0.25235891
v 0.29569876 -0.03017820 0.26873499
v 0.29177240 -0.04325116 0.26873499
v 0.27360219 -0.07011668 0.26873499
v 0.28518069 -0.10037467 0.24656205
v 0.29440907 -0.14384267 0.17315944
v 0.26463175 -0.17305550 0.09381506
v 0.18272260 -0.20521532 -0.22950420
v 0.18137559 -0.20521532 -0.25037286
v 0.28523800 -0.14557317 -0.10566901
v 0.21095230 -0.17903514 -0.25870582
v 0.23519833 -0.14182091 -0.30095035
v 0.27844566 -0.09579999 -0.29247248
v 0.32553339 -0.03017820 -0.24595276
v 0.11548715 -0.03017820 0.26873499
v 0.25119039 -0.09336701 0.26873499
v 0.22115512 -0.10734805 0.26873499
v 0.21204136 -0.14194085 0.23924352
v 0.24434075 -0.15934861 0.19359334
v 0.14443335 -0.20521532 0.08026493
v 0.15455019 -0.20521532 0.01360116
v 0.17186061 -0.20521532 -0.11277015
v 0.11359562 -0.20521532 0.15895714
v 0.17337956 -0.20521532 -0.28334242
v 0.16306210 -0.20521532 -0.31073254
v 0.14257048 -0.20521532 -0.35413647
v 0.21548052 -0.11008944 -0.37225163
v 0.28681427 -0.03667185 -0.33565900
v 0.32189363 -0.03017820 -0.25616971
v 0.08098099 -0.03017820 0.24417083
v 0.08098099 -0.06557627 0.24670695
v 0.11448406 -0.04033844 0.26873499
v 0.19865733 -0.11336195 0.26873499
v 0.18553123 -0.12537262 0.26090926
v 0.08098099 -0.20521532 0.19083981
v 0.08118160 -0.20521532 0.19069491
v 0.12606254 -0.20521532 -0.37855566
v 0.10339280 -0.20521532 -0.40877175
v 0.11058636 -0.17272997 -0.43768352
v 0.22327593 -0.05952810 -0.40674287
v 0.28635573 -0.03017820 -0.33710819
v 0.30633146 -0.03017820 -0.29450136
v 0.28389099 -0.03017820 -0.34232539
v 0.08098099 -0.03017820 -0.46101588
v 0.08098099 -0.06890020 0.24692433
v 0.08098099 -0.08629083 0.24337377
v 0.13554887 -0.08927208 0.26873499
v 0.18710750 -0.10952403 0.26873499
v 0.14850302 -0.09645107 0.26873499
v 0.08098099 -0.20382750 0.19214411
v 0.08098099 -0.20413589 0.19192673
v 0.08098099 -0.20521532 -0.43239391
v 0.08952156 -0.20521532 -0.42695940
v 0.08098099 -0.18151951 -0.45000184
v 0.08098099 -0.15967414 -0.46130568
v 0.14775787 -0.11348189 -0.44029212
v 0.19685178 -0.03610644 -0.43471265
v 0.20011897 -0.03017820 -0.43398803
v 0.23494039 -0.03017820 -0.40485889
v 0.11514324 -0.03017820 -0.45992893
v 0.08098099 -0.04856259 -0.46384186
v 0.08098099 -0.12919343 0.23330174
v 0.13663794 -0.09148231 0.26873499
v 0.08098099 -0.15038772 0.22214280
v 0.08098099 -0.13961066 -0.46978360
v 0.19527550 -0.03017820 -0.43695891
v 0.08098099 -0.12019827 -0.47152263
v 0.08098099 -0.07666173 -0.46768224
v 0.15139765 -0.03017820 -0.45579869
v 0.08100964 -0.12922770 0.23330174
f 1 2 3
f 1 3 4
f 1 4 5
f 1 5 6
f 1 6 14
f 1 14 17
f 1 17 16
f 1 16 32
f 1 32 47
f 1 47 60
f 1 60 59
f 1 59 61
f 1 61 77
f 1 77 76
f 1 76 84
f 1 84 87
f 1 87 78
f 1 78 62
f 1 62 48
f 1 48 33
f 1 33 20
f 1 20 19
f 1 19 18
f 1 18 8
f 1 8 7
f 1 7 2
f 2 7 3
f 3 7 8
f 3 8 9
f 3 9 10
f 3 10 4
f 4 10 11
f 4 11 12
f 4 12 13
f 4 13 5
f 5 14 6
f 5 13 15
f 5 15 16
f 5 16 17
f 5 17 14
f 8 18 9
f 9 18 19
f 9 19 20
f 9 20 21
f 9 21 22
f 9 22 23
f 9 23 10
f 10 24 11
f 10 23 24
f 11 24 25
f 11 25 12
f 12 26 27
f 12 27 28
f 12 28 13
f 12 25 26
f 13 28 15
f 15 29 30
f 15 30 31
f 15 31 32
f 15 32 16
f 15 28 29
f 20 33 50
f 20 50 65
f 20 65 81
f 20 81 67
f 20 67 66
f 20 66 51
f 20 51 35
f 20 35 34
f 20 34 22
f 20 22 21
f 22 34 23
f 23 34 35
f 23 35 36
f 23 36 37
f 23 37 24
f 24 37 25
f 25 38 39
f 25 39 40
f 25 40 26
f 25 37 41
f 25 41 38
f 26 40 39
f 26 39 38
f 26 38 41
f 26 41 54
f 26 54 53
f 26 53 70
f 26 70 71
f 26 71 56
f 26 56 55
f 26 55 44
f 26 44 43
f 26 43 42
f 26 42 27
f 27 42 29
f 27 29 28
f 29 42 43
f 29 43 30
f 30 43 44
f 30 44 45
f 30 45 31
f 31 45 46
f 31 46 47
f 31 47 32
f 33 48 49
f 33 49 50
f 35 51 36
f 36 51 52
f 36 52 53
f 36 53 37
f 37 53 54
f 37 54 41
f 44 55 45
f 45 55 56
f 45 56 57
f 45 57 58
f 45 58 46
f 46 59 60
f 46 60 47
f 46 58 61
f 46 61 59
f 48 62 79
f 48 79 86
f 48 86 85
f 48 85 83
f 48 83 73
f 48 73 72
f 48 72 70
f 48 70 53
f 48 53 69
f 48 69 68
f 48 68 82
f 48 82 80
f 48 80 64
f 48 64 63
f 48 63 49
f 49 63 50
f 50 63 64
f 50 64 65
f 51 66 52
f 52 66 67
f 52 67 68
f 52 68 69
f 52 69 53
f 56 71 57
f 57 72 73
f 57 73 74
f 57 74 58
f 57 71 72
f 58 75 76
f 58 76 77
f 58 77 61
f 58 74 75
f 62 78 79
f 64 80 65
f 65 80 81
f 67 81 68
f 68 81 82
f 70 72 71
f 73 83 74
f 74 83 75
f 75 84 76
f 75 83 84
f 78 85 86
f 78 86 79
f 78 87 85
f 80 88 81
f 80 82 88
f 81 88 82
f 83 85 87
f 83 87 84

