# https://github.com/mikedh/trimesh
v 0.05018546 0.18288943 0.22677892
v -0.02581422 0.14256029 0.23307601
v 0.05018546 0.14256029 0.22302896
v 0.05018546 0.19677480 0.22444403
v 0.03389487 0.19677480 0.22479782
v -0.12667392 0.19677480 0.21255741
v -0.12667392 0.19375993 0.21262816
v -0.12667392 0.14256029 0.20286411
v 0.05018546 0.14256029 -0.46059459
v 0.05018546 0.19677480 -0.44828343
v -0.12667392 0.19677480 -0.44771740
v -0.12667392 0.14256029 -0.48974517
v 0.05018546 0.14543715 -0.46073610
v 0.05018546 0.17530449 -0.45507580
v 0.03640511 0.19677480 -0.45224562
v -0.07039262 0.19677480 -0.45458052
v -0.12667392 0.15736923 -0.48309430
v -0.12667392 0.15046370 -0.48705652
v 0.02643339 0.19677480 -0.45316544
v 0.00648997 0.19677480 -0.45450976
f 1 2 3
f 1 3 9
f 1 9 13
f 1 13 14
f 1 14 10
f 1 10 4
f 1 4 5
f 1 5 2
f 2 5 6
f 2 6 7
f 2 7 8
f 2 8 12
f 2 12 9
f 2 9 3
f 4 10 15
f 4 15 19
f 4 19 20
f 4 20 16
f 4 16 11
f 4 11 6
f 4 6 5
f 6 11 17
f 6 17 18
f 6 18 12
f 6 12 8
f 6 8 7
f 9 12 13
f 10 14 15
f 11 16 17
f 12 18 15
f 12 15 14
f 12 14 13
f 15 18 19
f 16 20 17
f 17 20 18
f 18 20 19

