# https://github.com/mikedh/trimesh
v -0.13454399 -0.03014372 -0.49581638
v -0.16962200 0.08509229 -0.49999997
v -0.12669890 0.08095208 -0.49886546
v -0.12669890 -0.03014372 -0.49475276
v -0.19185808 -0.03014372 -0.47823107
v -0.17262013 0.12663247 -0.49262550
v -0.14758581 0.14274481 -0.49361822
v -0.24205165 -0.03014372 -0.43107694
v -0.21384431 0.09185465 -0.45632035
v -0.12669890 0.09979007 -0.49702182
v -0.12669890 -0.03014372 0.19710132
v -0.23710474 0.18649310 -0.38945365
v -0.18188933 0.19325544 -0.43497691
v -0.13956583 0.23165596 -0.41490981
v -0.12669890 0.23093140 -0.41710797
v -0.12669890 0.15733907 -0.48305285
v -0.12669890 0.15043871 -0.48709464
v -0.12669890 0.13353282 -0.49269640
v -0.26064000 -0.03014372 -0.39704087
v -0.31308216 0.15306084 -0.28677815
v -0.12669890 0.02692226 0.21071577
v -0.22286366 -0.03014372 0.19121593
v -0.30193913 0.19649862 -0.27642554
v -0.24000293 0.24787179 -0.31975061
v -0.19248269 0.26350111 -0.34279588
v -0.12669890 0.23483011 -0.41228619
v -0.27548072 -0.03014372 -0.36392659
v -0.37281975 0.14636749 -0.14559938
v -0.35667986 0.19560157 -0.15765382
v -0.12669890 0.08930151 0.21440300
v -0.22606166 0.17179532 0.22440109
v -0.25027150 -0.03014372 0.17093611
v -0.28440014 0.11193470 0.20270312
v -0.29177052 0.24431811 -0.23614952
v -0.21944080 0.29734737 -0.22281872
v -0.16195181 0.29789943 -0.27210009
v -0.12669890 0.27716380 -0.32755053
v -0.29197037 -0.03014372 -0.31379431
v -0.30703595 -0.03014372 -0.24685669
v -0.37301964 0.07139508 -0.03753484
v -0.38066483 0.07960651 0.04025176
v -0.38191405 0.14674702 0.00706659
v -0.36629882 0.19115083 0.04833533
v -0.32552436 0.24269652 -0.10695425
v -0.30068994 0.25836033 -0.17013371
v -0.12669890 0.19373846 0.21263030
v -0.19690493 0.24576718 0.21929568
v -0.26059005 0.19529104 0.21723935
v -0.26408786 -0.03014372 0.16001621
v -0.31860369 0.15761508 0.18525961
v -0.33989036 0.08833547 0.14874175
v -0.15792933 0.31642687 -0.19842620
v -0.25734207 0.29507026 -0.06327462
v -0.20484994 0.31687540 -0.09312710
v -0.12669890 0.29293114 -0.29174176
v -0.12669890 0.30424774 -0.24685669
v -0.31458122 -0.03014372 -0.20026982
v -0.32285103 -0.03014372 -0.09390709
v -0.32405031 -0.03014372 -0.01682957
v -0.31575549 -0.03014372 0.05762434
v -0.30236387 -0.03014372 0.09350404
v -0.29626769 -0.03014372 0.10832392
v -0.36247623 0.13825957 0.13136917
v -0.34676108 0.18542354 0.13016373
v -0.31525579 0.23814228 0.10640939
v -0.28235140 0.28051049 0.00408843
v -0.12669890 0.21595763 0.21206301
v -0.18811043 0.29727837 0.17008519
v -0.23048389 0.28589278 0.17483607
v -0.23338208 0.25139099 0.20603579
v -0.12669890 0.25173599 0.20107222
v -0.28722334 0.22999987 0.17604151
v -0.16902238 0.32229218 -0.01307142
v -0.14084002 0.31797945 -0.13538855
v -0.12669890 0.31515032 -0.14198305
v -0.12669890 0.31211415 -0.18523721
v -0.22758570 0.31007856 0.02252464
v -0.25067124 0.29538077 0.09428403
v -0.19747956 0.31087208 0.12661830
v -0.12669890 0.26884890 0.17277971
v -0.12669890 0.29251713 0.10201305
v -0.12669890 0.31066507 -0.00945508
v -0.12669890 0.31401175 -0.04150572
v -0.12669890 0.31494331 -0.12163231
v -0.18051518 0.31552982 0.07506783
v -0.12669890 0.29403520 0.09442584
v -0.12669890 0.30652487 0.02763006
f 1 2 3
f 1 3 4
f 1 4 11
f 1 11 22
f 1 22 32
f 1 32 49
f 1 49 62
f 1 62 61
f 1 61 60
f 1 60 59
f 1 59 58
f 1 58 57
f 1 57 39
f 1 39 38
f 1 38 27
f 1 27 19
f 1 19 8
f 1 8 5
f 1 5 2
f 2 6 7
f 2 7 3
f 2 5 8
f 2 8 9
f 2 9 6
f 3 7 10
f 3 10 18
f 3 18 17
f 3 17 16
f 3 16 15
f 3 15 26
f 3 26 37
f 3 37 55
f 3 55 56
f 3 56 76
f 3 76 75
f 3 75 84
f 3 84 83
f 3 83 82
f 3 82 87
f 3 87 86
f 3 86 81
f 3 81 80
f 3 80 71
f 3 71 67
f 3 67 46
f 3 46 30
f 3 30 21
f 3 21 11
f 3 11 4
f 6 9 12
f 6 12 13
f 6 13 7
f 7 13 14
f 7 14 15
f 7 15 16
f 7 16 17
f 7 17 18
f 7 18 10
f 8 19 20
f 8 20 9
f 9 20 12
f 11 21 22
f 12 20 23
f 12 23 24
f 12 24 13
f 13 24 25
f 13 25 14
f 14 26 15
f 14 25 26
f 19 27 20
f 20 27 28
f 20 28 29
f 20 29 23
f 21 30 31
f 21 31 22
f 22 31 33
f 22 33 32
f 23 29 34
f 23 34 24
f 24 34 35
f 24 35 25
f 25 35 36
f 25 36 37
f 25 37 26
f 27 38 28
f 28 38 39
f 28 39 40
f 28 40 41
f 28 41 42
f 28 42 29
f 29 42 43
f 29 43 44
f 29 44 45
f 29 45 34
f 30 46 31
f 31 47 48
f 31 48 33
f 31 46 47
f 32 33 49
f 33 48 50
f 33 50 51
f 33 51 49
f 34 45 35
f 35 52 36
f 35 45 53
f 35 53 54
f 35 54 52
f 36 55 37
f 36 52 56
f 36 56 55
f 39 57 40
f 40 58 41
f 40 57 58
f 41 58 59
f 41 59 60
f 41 60 61
f 41 61 62
f 41 62 51
f 41 51 63
f 41 63 42
f 42 63 43
f 43 63 64
f 43 64 65
f 43 65 66
f 43 66 44
f 44 66 45
f 45 66 53
f 46 67 47
f 47 68 69
f 47 69 70
f 47 70 48
f 47 67 71
f 47 71 68
f 48 70 72
f 48 72 50
f 49 51 62
f 50 72 64
f 50 64 63
f 50 63 51
f 52 54 73
f 52 73 74
f 52 74 75
f 52 75 76
f 52 76 56
f 53 66 77
f 53 77 54
f 54 77 73
f 64 72 65
f 65 78 66
f 65 72 69
f 65 69 78
f 66 78 77
f 68 79 69
f 68 71 80
f 68 80 81
f 68 81 79
f 69 79 78
f 69 72 70
f 73 82 83
f 73 83 84
f 73 84 74
f 73 77 79
f 73 79 85
f 73 85 82
f 74 84 75
f 77 78 79
f 79 81 86
f 79 86 85
f 82 85 87
f 85 86 87

