# https://github.com/mikedh/trimesh
v 0.11447914 -0.04032828 0.26873878
v 0.12987518 -0.02720137 0.27875629
v 0.11594722 -0.02555471 0.26873878
v 0.13554049 -0.08924110 0.26873878
v 0.13956830 -0.08947302 0.27061325
v 0.19433908 -0.03671026 0.30446410
v 0.17382357 0.03377151 0.29979685
v 0.12326881 0.00647403 0.26873878
v 0.13663213 -0.09146757 0.26873878
v 0.14848973 -0.09643075 0.26873878
v 0.18709278 -0.10951129 0.26873878
v 0.22614755 -0.08817425 0.28503999
v 0.25722197 -0.02729414 0.30002072
v 0.21208782 0.03115077 0.30749971
v 0.20642254 0.11726424 0.27680591
v 0.16149543 0.09428056 0.26873878
v 0.14184570 0.07020681 0.26873878
v 0.19866805 -0.11333804 0.26873878
v 0.22112219 -0.10733120 0.26873878
v 0.25119907 -0.09334616 0.26873878
v 0.27359673 -0.07010736 0.26873878
v 0.29177839 -0.04322733 0.26873878
v 0.30623335 0.00505929 0.26873878
v 0.30429474 0.01183148 0.27188823
v 0.26207793 0.05042367 0.29187393
v 0.23841922 0.10550568 0.26873878
v 0.21216312 0.12071991 0.26873878
v 0.20049374 0.12354939 0.26873878
v 0.18899375 0.11976902 0.26873878
v 0.30672270 0.01143721 0.26873878
v 0.30606395 0.01489288 0.26873878
v 0.30156559 0.02634994 0.26873878
v 0.28007138 0.07345375 0.26873878
f 1 2 3
f 1 3 8
f 1 8 17
f 1 17 16
f 1 16 29
f 1 29 28
f 1 28 27
f 1 27 26
f 1 26 33
f 1 33 32
f 1 32 31
f 1 31 30
f 1 30 23
f 1 23 22
f 1 22 21
f 1 21 20
f 1 20 19
f 1 19 18
f 1 18 11
f 1 11 10
f 1 10 9
f 1 9 4
f 1 4 5
f 1 5 2
f 2 5 6
f 2 6 7
f 2 7 3
f 3 7 8
f 4 9 5
f 5 9 10
f 5 10 11
f 5 11 6
f 6 12 13
f 6 13 14
f 6 14 7
f 6 11 12
f 7 14 15
f 7 15 16
f 7 16 17
f 7 17 8
f 11 18 12
f 12 18 19
f 12 19 20
f 12 20 13
f 13 20 21
f 13 21 22
f 13 22 23
f 13 23 24
f 13 24 25
f 13 25 14
f 14 25 15
f 15 25 26
f 15 26 27
f 15 27 28
f 15 28 29
f 15 29 16
f 23 30 24
f 24 30 31
f 24 31 32
f 24 32 25
f 25 33 26
f 25 32 33

