# https://github.com/mikedh/trimesh
v 0.18271096 -0.20521533 -0.22952741
v 0.09474728 -0.28184208 -0.22596550
v 0.18135169 -0.20521533 -0.25036129
v 0.17179802 -0.20521533 -0.11285779
v 0.09498030 -0.28042376 -0.00573140
v 0.09765999 -0.28402108 -0.14162196
v 0.12352480 -0.23993783 -0.31608877
v 0.02224037 -0.33086360 -0.11897353
v 0.06138711 -0.28373742 -0.32065877
v 0.17335147 -0.20521533 -0.28335944
v 0.15451598 -0.20521533 0.01355673
v 0.14437976 -0.20521533 0.08022509
v 0.08103815 -0.28395662 0.06261712
v 0.04146422 -0.32155439 -0.02696850
v 0.16302107 -0.20521533 -0.31071228
v 0.09633956 -0.23681757 -0.38060653
v 0.14251563 -0.20521533 -0.35412738
v -0.04141193 -0.33078623 -0.14551991
v -0.00207100 -0.32552564 -0.18550748
v -0.01989675 -0.33692360 -0.05922739
v 0.00651176 -0.27985644 -0.37738064
v 0.06301823 -0.24603650 -0.41353747
v 0.02635699 -0.30186585 -0.27307692
v 0.11358277 -0.20521533 0.15899053
v 0.07633899 -0.25756341 0.14393640
v 0.02791043 -0.30898312 0.09232216
v -0.04211098 -0.33372599 0.03082866
v 0.10336889 -0.20521533 -0.40876585
v 0.12604915 -0.20521533 -0.37852314
v -0.07923825 -0.30783561 -0.18812852
v -0.02665423 -0.30760351 -0.25002524
v -0.08626758 -0.32226354 -0.05082664
v -0.10968572 -0.30654624 -0.11137925
v -0.01379949 -0.29068708 -0.32220450
v -0.04234400 -0.26742700 -0.37697741
v 0.01909465 -0.25397897 -0.41750264
v 0.02810461 -0.20521533 -0.46333712
v 0.03536696 -0.20521533 -0.46132094
v 0.08950442 -0.20521533 -0.42697868
v 0.08115467 -0.20521533 0.19064456
v 0.08014493 -0.20521533 0.19158545
v 0.02604630 -0.27678779 0.16987792
v -0.03873224 -0.31601015 0.11154310
v -0.09232600 -0.31049168 0.09595130
v -0.18355189 -0.20521533 -0.30930096
v -0.14273520 -0.23239507 -0.30782244
v -0.05931535 -0.27848974 -0.31857538
v -0.14479351 -0.28774735 0.01402717
v -0.13768652 -0.20521533 -0.38336197
v -0.04486834 -0.22688949 -0.43114546
v 0.00872542 -0.20521533 -0.45997682
v 0.07773709 -0.20521533 0.19360164
v 0.03412420 -0.22389817 0.21329299
v -0.00412931 -0.26078680 0.19340003
v -0.05741239 -0.25115526 0.19608825
v -0.12751147 -0.23060286 0.17814425
v -0.13857974 -0.27426064 0.10253749
v -0.20137765 -0.20521533 -0.13926975
v -0.15442486 -0.20521533 -0.35728607
v -0.21403821 -0.20521533 0.05925681
v -0.21085365 -0.20521533 -0.04067853
v -0.07908291 -0.20521533 -0.43154868
v -0.07873338 -0.20521533 -0.43181750
v -0.07857803 -0.20521533 -0.43188471
v 0.03583299 -0.20521533 0.21685493
v -0.03306217 -0.20521533 0.22323948
v -0.04141193 -0.20521533 0.22317228
v -0.04416929 -0.20521533 0.22303787
v -0.12067632 -0.20521533 0.19622266
v -0.09892813 -0.20521533 0.20556432
v -0.14580324 -0.20521533 0.18331912
v -0.16393968 -0.20521533 0.16833219
v -0.19058122 -0.20521533 0.13486359
v -0.21306729 -0.20521533 0.06362521
f 1 2 3
f 1 3 10
f 1 10 15
f 1 15 17
f 1 17 29
f 1 29 28
f 1 28 39
f 1 39 38
f 1 38 37
f 1 37 51
f 1 51 64
f 1 64 63
f 1 63 62
f 1 62 49
f 1 49 59
f 1 59 45
f 1 45 58
f 1 58 61
f 1 61 60
f 1 60 74
f 1 74 73
f 1 73 72
f 1 72 71
f 1 71 69
f 1 69 70
f 1 70 68
f 1 68 67
f 1 67 66
f 1 66 65
f 1 65 52
f 1 52 41
f 1 41 40
f 1 40 24
f 1 24 12
f 1 12 11
f 1 11 4
f 1 4 5
f 1 5 6
f 1 6 2
f 2 7 3
f 2 6 8
f 2 8 9
f 2 9 7
f 3 7 10
f 4 11 5
f 5 11 12
f 5 12 13
f 5 13 14
f 5 14 6
f 6 14 8
f 7 15 10
f 7 9 16
f 7 16 17
f 7 17 15
f 8 18 19
f 8 19 9
f 8 14 20
f 8 20 18
f 9 21 22
f 9 22 16
f 9 19 23
f 9 23 21
f 12 24 25
f 12 25 13
f 13 25 26
f 13 26 14
f 14 26 27
f 14 27 20
f 16 22 28
f 16 28 29
f 16 29 17
f 18 30 31
f 18 31 19
f 18 20 27
f 18 27 32
f 18 32 33
f 18 33 30
f 19 31 21
f 19 21 23
f 21 31 34
f 21 34 35
f 21 35 36
f 21 36 22
f 22 36 37
f 22 37 38
f 22 38 39
f 22 39 28
f 24 40 25
f 25 40 41
f 25 41 42
f 25 42 26
f 26 42 43
f 26 43 27
f 27 43 44
f 27 44 32
f 30 45 46
f 30 46 47
f 30 47 31
f 30 33 45
f 31 47 35
f 31 35 34
f 32 44 48
f 32 48 33
f 33 48 45
f 35 49 50
f 35 50 36
f 35 47 46
f 35 46 49
f 36 50 37
f 37 50 51
f 41 52 53
f 41 53 42
f 42 53 54
f 42 54 43
f 43 54 55
f 43 55 44
f 44 55 56
f 44 56 57
f 44 57 48
f 45 48 58
f 45 59 46
f 46 59 49
f 48 60 61
f 48 61 58
f 48 57 60
f 49 62 50
f 50 62 63
f 50 63 64
f 50 64 51
f 52 65 53
f 53 65 66
f 53 66 54
f 54 66 67
f 54 67 68
f 54 68 55
f 55 69 56
f 55 68 70
f 55 70 69
f 56 71 72
f 56 72 57
f 56 69 71
f 57 72 73
f 57 73 74
f 57 74 60

