# https://github.com/mikedh/trimesh
v 0.08096536 -0.06889948 0.24694675
v 0.08096536 -0.08628559 0.24334559
v 0.08096536 -0.05532806 0.24593842
v -0.07858182 -0.15819216 0.21828133
v -0.04334211 -0.20235431 0.22469145
v 0.08096536 -0.12920065 0.23333430
v -0.07858182 -0.05532806 0.19710636
v -0.07858182 -0.11758057 0.21424800
v -0.07858182 -0.13354351 0.21640873
v 0.08096536 -0.05532806 -0.46479130
v -0.07858182 -0.19471030 0.21727300
v -0.04417000 -0.20521532 0.22303489
v -0.04143642 -0.20521532 0.22317895
v -0.03307949 -0.20521532 0.22317895
v 0.03585352 -0.20521532 0.21684086
v 0.08096536 -0.15038675 0.22217062
v -0.07858182 -0.05532806 -0.48848709
v 0.08096536 -0.07666087 -0.46767226
v -0.05466693 -0.05532806 -0.48517400
v -0.07858182 -0.20521532 0.21208730
v 0.07776316 -0.20521532 0.19364923
v 0.08096536 -0.20383617 0.19220877
v 0.05689425 -0.14903694 -0.48049247
v -0.07858182 -0.05595895 -0.48855913
v 0.08096536 -0.12020683 -0.47148949
v -0.07858182 -0.20521532 -0.43187648
v 0.08015309 -0.20521532 0.19156054
v 0.08096536 -0.20412961 0.19192067
v -0.07858182 -0.13439447 -0.48200497
v -0.07858182 -0.11153578 -0.48632637
v -0.07858182 -0.07129099 -0.48884720
v 0.08096536 -0.13960296 -0.46983296
v 0.08096536 -0.15967400 -0.46126214
v 0.08096536 -0.18152034 -0.44995442
v 0.02966782 -0.19676435 -0.47120142
v 0.00875205 -0.20521532 -0.45996571
v 0.08096536 -0.20521532 0.19084030
v 0.08096536 -0.18552575 -0.44700146
v 0.03538490 -0.20521532 -0.46133417
v 0.02810578 -0.20521532 -0.46327880
v 0.08096536 -0.20521532 -0.43238065
f 1 2 6
f 1 6 16
f 1 16 22
f 1 22 28
f 1 28 37
f 1 37 41
f 1 41 38
f 1 38 34
f 1 34 33
f 1 33 32
f 1 32 25
f 1 25 18
f 1 18 10
f 1 10 3
f 1 3 4
f 1 4 5
f 1 5 2
f 2 5 6
f 3 7 8
f 3 8 9
f 3 9 4
f 3 10 19
f 3 19 17
f 3 17 7
f 4 9 8
f 4 8 7
f 4 7 17
f 4 17 24
f 4 24 31
f 4 31 30
f 4 30 29
f 4 29 26
f 4 26 20
f 4 20 11
f 4 11 5
f 5 12 13
f 5 13 14
f 5 14 6
f 5 11 12
f 6 14 15
f 6 15 16
f 10 18 19
f 11 20 12
f 12 20 26
f 12 26 36
f 12 36 40
f 12 40 39
f 12 39 41
f 12 41 37
f 12 37 27
f 12 27 21
f 12 21 15
f 12 15 14
f 12 14 13
f 15 21 16
f 16 21 22
f 17 19 23
f 17 23 24
f 18 25 23
f 18 23 19
f 21 27 28
f 21 28 22
f 23 29 30
f 23 30 31
f 23 31 24
f 23 25 32
f 23 32 33
f 23 33 34
f 23 34 35
f 23 35 29
f 26 29 36
f 27 37 28
f 29 35 36
f 34 38 35
f 35 39 40
f 35 40 36
f 35 38 39
f 38 41 39

