# https://github.com/mikedh/trimesh
v -0.14315711 -0.02902884 0.35377562
v -0.13925247 0.00342039 0.35377562
v -0.14282174 -0.02952112 0.35377562
v -0.23214941 -0.02803062 0.40838075
v -0.24975623 -0.00637045 0.41968822
v -0.13709652 0.00701674 0.35377562
v -0.22661585 -0.06337881 0.42020351
v -0.11261466 -0.06124561 0.35377562
v -0.26683605 -0.01746034 0.44490823
v -0.24000660 0.01937835 0.44728422
v -0.09287586 0.04937988 0.35377562
v -0.13527596 0.01001142 0.35377562
v -0.18275449 -0.08696706 0.41735518
v -0.24254581 -0.06641451 0.46653557
v -0.10360764 -0.06253099 0.35377562
v -0.25196007 -0.01344008 0.48666003
v -0.21147636 0.00017957 0.49955630
v -0.19930729 0.01839380 0.47888795
v -0.08525822 0.05121224 0.35377562
v -0.19063564 -0.08473814 0.46091047
v -0.13096409 -0.08740464 0.41419193
v -0.22445990 -0.03612583 0.49998569
v -0.06460913 -0.05559810 0.35377562
v -0.16011715 -0.04572522 0.49288630
v -0.06626201 -0.02597946 0.43974113
v -0.08192849 0.02078681 0.42514160
v -0.05584165 0.05229251 0.35377562
v -0.10787160 -0.06805544 0.44728422
v -0.05392526 -0.05697921 0.39977849
v -0.02309535 -0.01493059 0.35377562
v -0.02273604 -0.01419217 0.35532144
v -0.03962421 0.00601851 0.39305124
v -0.05215260 0.03552776 0.37441534
v -0.03962421 0.04002662 0.35377562
v -0.02211320 -0.01328967 0.35377562
v -0.02223298 -0.01256493 0.35377562
f 1 2 6
f 1 6 12
f 1 12 11
f 1 11 19
f 1 19 27
f 1 27 34
f 1 34 36
f 1 36 35
f 1 35 30
f 1 30 23
f 1 23 15
f 1 15 8
f 1 8 3
f 1 3 4
f 1 4 5
f 1 5 2
f 2 5 6
f 3 7 4
f 3 8 7
f 4 7 9
f 4 9 5
f 5 9 10
f 5 10 11
f 5 11 12
f 5 12 6
f 7 13 14
f 7 14 9
f 7 8 13
f 8 15 13
f 9 14 16
f 9 16 10
f 10 16 17
f 10 17 18
f 10 18 19
f 10 19 11
f 13 20 14
f 13 15 21
f 13 21 20
f 14 20 22
f 14 22 16
f 15 23 21
f 16 22 17
f 17 22 24
f 17 24 25
f 17 25 26
f 17 26 18
f 18 26 27
f 18 27 19
f 20 21 28
f 20 28 24
f 20 24 22
f 21 23 29
f 21 29 28
f 23 30 29
f 24 28 25
f 25 28 29
f 25 29 31
f 25 31 32
f 25 32 26
f 26 32 33
f 26 33 27
f 27 33 34
f 29 30 31
f 30 35 31
f 31 35 32
f 32 35 36
f 32 36 34
f 32 34 33

