# https://github.com/mikedh/trimesh
v -0.07859745 -0.15818352 0.21830121
v -0.07859745 -0.19469526 0.21725240
v -0.07859745 -0.03021247 0.21487510
v -0.21671167 -0.10688545 0.20354807
v -0.07859745 -0.20521532 0.21207830
v -0.11574508 -0.18664247 0.20942134
v -0.07859745 -0.03017820 0.20676440
v -0.10351472 -0.03017820 0.21074983
v -0.22283888 -0.03017820 0.19117221
v -0.12071893 -0.20521532 0.19620645
v -0.25025508 -0.03017820 0.17096531
v -0.26409534 -0.03017820 0.16005778
v -0.26623383 -0.10059740 0.15747073
v -0.22005160 -0.16611639 0.15320560
v -0.16396973 -0.20521532 0.16830835
v -0.14582843 -0.20521532 0.18334118
v -0.09894936 -0.20521532 0.20557573
v -0.07859745 -0.20521532 -0.43188551
v -0.07859745 -0.03017820 -0.48740205
v -0.29626912 -0.03017820 0.10831693
v -0.30237228 -0.03017820 0.09356380
v -0.29340976 -0.09963793 0.09195563
v -0.26733914 -0.15069613 0.09237516
v -0.19061702 -0.20521532 0.13488656
v -0.07862148 -0.20521532 -0.43188551
v -0.07859745 -0.13440205 -0.48201820
v -0.07859745 -0.03502702 -0.48810124
v -0.08431617 -0.03017820 -0.48887038
v -0.31575602 -0.03017820 0.05762488
v -0.32406977 -0.03017820 -0.01683999
v -0.30309314 -0.10083728 -0.00984798
v -0.30566415 -0.12302532 -0.13234794
v -0.21402052 -0.20521532 0.05923304
v -0.21308342 -0.20521532 0.06363800
v -0.28288540 -0.14877716 -0.18290016
v -0.07878968 -0.20521532 -0.43181559
v -0.16454640 -0.13743469 -0.46181130
v -0.13789910 -0.11562359 -0.48600364
v -0.13126731 -0.06197821 -0.49600223
v -0.07859745 -0.11154579 -0.48628333
v -0.07859745 -0.05596431 -0.48852077
v -0.13453516 -0.03017820 -0.49579245
v -0.07859745 -0.07129890 -0.48880047
v -0.32284433 -0.03017820 -0.09389190
v -0.31638074 -0.09196205 -0.12885194
v -0.31049383 -0.09026583 -0.21359506
v -0.28262109 -0.13608114 -0.23645893
v -0.21084879 -0.20521532 -0.04068273
v -0.24441621 -0.16472857 -0.31155306
v -0.18360078 -0.20521532 -0.30931562
v -0.20138167 -0.20521532 -0.13927004
v -0.22370389 -0.14562458 -0.40720373
v -0.13773090 -0.20521532 -0.38336098
v -0.20046860 -0.07899190 -0.47306845
v -0.19184247 -0.03017820 -0.47824252
v -0.31457862 -0.03017820 -0.20031025
v -0.30703378 -0.03017820 -0.24687701
v -0.29196808 -0.03017820 -0.31379050
v -0.27673417 -0.07935171 -0.36672002
v -0.29408255 -0.10405840 -0.27162874
v -0.26181266 -0.12722306 -0.36189553
v -0.15447858 -0.20521532 -0.35728079
v -0.24703529 -0.06902014 -0.43174568
v -0.24203742 -0.03017820 -0.43111640
v -0.27548471 -0.03017820 -0.36392319
v -0.26063526 -0.03017820 -0.39699540
f 1 2 5
f 1 5 18
f 1 18 26
f 1 26 40
f 1 40 43
f 1 43 41
f 1 41 27
f 1 27 19
f 1 19 7
f 1 7 3
f 1 3 4
f 1 4 2
f 2 4 6
f 2 6 5
f 3 7 8
f 3 8 9
f 3 9 4
f 4 10 6
f 4 9 11
f 4 11 12
f 4 12 13
f 4 13 14
f 4 14 15
f 4 15 16
f 4 16 10
f 5 6 17
f 5 17 10
f 5 10 16
f 5 16 15
f 5 15 24
f 5 24 34
f 5 34 33
f 5 33 48
f 5 48 51
f 5 51 50
f 5 50 62
f 5 62 53
f 5 53 36
f 5 36 25
f 5 25 18
f 6 10 17
f 7 19 28
f 7 28 42
f 7 42 55
f 7 55 64
f 7 64 66
f 7 66 65
f 7 65 58
f 7 58 57
f 7 57 56
f 7 56 44
f 7 44 30
f 7 30 29
f 7 29 21
f 7 21 20
f 7 20 12
f 7 12 11
f 7 11 9
f 7 9 8
f 12 20 13
f 13 20 21
f 13 21 22
f 13 22 23
f 13 23 14
f 14 23 24
f 14 24 15
f 18 25 26
f 19 27 28
f 21 29 22
f 22 29 30
f 22 30 31
f 22 31 32
f 22 32 23
f 23 33 34
f 23 34 24
f 23 32 35
f 23 35 33
f 25 36 37
f 25 37 38
f 25 38 26
f 26 38 39
f 26 39 40
f 27 41 28
f 28 39 42
f 28 41 43
f 28 43 39
f 30 44 45
f 30 45 31
f 31 45 32
f 32 45 46
f 32 46 47
f 32 47 35
f 33 35 48
f 35 47 49
f 35 49 50
f 35 50 51
f 35 51 48
f 36 52 37
f 36 53 52
f 37 54 38
f 37 52 54
f 38 54 39
f 39 43 40
f 39 54 55
f 39 55 42
f 44 56 46
f 44 46 45
f 46 56 57
f 46 57 58
f 46 58 59
f 46 59 60
f 46 60 47
f 47 60 61
f 47 61 49
f 49 61 52
f 49 52 50
f 50 52 62
f 52 63 54
f 52 53 62
f 52 61 63
f 54 63 55
f 55 63 64
f 58 65 59
f 59 61 60
f 59 65 63
f 59 63 61
f 63 65 66
f 63 66 64

