# https://github.com/mikedh/trimesh
v -0.14313829 -0.02901998 0.35377556
v -0.10263714 -0.00106277 0.26874331
v -0.14277864 -0.02951437 0.35377556
v -0.13924456 0.00343463 0.35377556
v -0.10757859 0.05025857 0.26874331
v -0.11025260 0.02391213 0.26874331
v -0.08332481 -0.01614977 0.26874331
v -0.10044789 -0.01315151 0.28125465
v -0.11258259 -0.06123536 0.35377556
v -0.13524134 0.01002124 0.35377556
v -0.10293426 0.06355938 0.26874331
v -0.07092427 -0.02536784 0.26874331
v -0.10357539 -0.06254312 0.35377556
v -0.09284806 0.04936547 0.35377556
v -0.08809426 0.06877445 0.30788395
v -0.08404414 0.08531274 0.26874331
v -0.08773459 0.08119810 0.26874331
v -0.06513839 -0.02618120 0.26874331
v -0.06842227 -0.04464922 0.30788395
v -0.07023622 -0.05484013 0.32954368
v -0.06460671 -0.05558970 0.35377556
v -0.08523259 0.05119951 0.35377556
v -0.03864845 0.10038380 0.26874331
v -0.02837460 -0.02214630 0.26874331
v -0.03298767 -0.03429884 0.30788395
v -0.03342552 -0.03546305 0.31167150
v -0.02310476 -0.01492176 0.35377556
v -0.05584971 0.05228399 0.35377556
v -0.05821097 0.06295335 0.34063989
v -0.02601334 0.09711441 0.26874331
v -0.00175956 0.00091481 0.26874331
v 0.01661451 0.03108882 0.26874331
v -0.02291711 -0.01460280 0.35377556
v -0.00024273 0.08229852 0.26874331
v -0.03961797 0.04001982 0.35377556
v 0.01444090 0.05899819 0.26874331
v -0.02213524 -0.01326315 0.35377556
v -0.02222906 -0.01252953 0.35377556
f 1 2 3
f 1 3 9
f 1 9 13
f 1 13 21
f 1 21 27
f 1 27 33
f 1 33 37
f 1 37 38
f 1 38 35
f 1 35 28
f 1 28 22
f 1 22 14
f 1 14 10
f 1 10 4
f 1 4 5
f 1 5 6
f 1 6 2
f 2 7 8
f 2 8 9
f 2 9 3
f 2 6 5
f 2 5 11
f 2 11 17
f 2 17 16
f 2 16 23
f 2 23 30
f 2 30 34
f 2 34 36
f 2 36 32
f 2 32 31
f 2 31 24
f 2 24 18
f 2 18 12
f 2 12 7
f 4 10 11
f 4 11 5
f 7 12 9
f 7 9 8
f 9 12 13
f 10 14 15
f 10 15 16
f 10 16 17
f 10 17 11
f 12 18 13
f 13 19 20
f 13 20 21
f 13 18 19
f 14 22 23
f 14 23 15
f 15 23 16
f 18 24 19
f 19 24 20
f 20 24 25
f 20 25 26
f 20 26 21
f 21 26 27
f 22 28 29
f 22 29 23
f 23 29 30
f 24 31 25
f 25 31 26
f 26 31 27
f 27 31 32
f 27 32 33
f 28 34 30
f 28 30 29
f 28 35 34
f 32 36 37
f 32 37 33
f 34 35 36
f 35 38 36
f 36 38 37

