# https://github.com/mikedh/trimesh
v 0.22529781 0.19679382 -0.00909992
v 0.21027631 0.19679382 0.08587597
v 0.22288612 0.19679382 -0.10334420
v 0.16283455 0.26772261 -0.13506934
v 0.12159432 0.30461380 -0.05678739
v 0.12087081 0.29588830 -0.00178385
v 0.08421282 0.28253943 0.14101252
v 0.17716700 0.19679382 0.15404844
v 0.20093957 0.19679382 -0.26010764
v 0.15932034 0.25766635 -0.24866794
v 0.11342896 0.30527231 -0.18960732
v 0.05878652 0.33105087 -0.15482272
v 0.03973401 0.33693647 -0.07773796
v 0.04410954 0.33133900 0.01344688
v 0.05193037 0.31314719 0.08893542
v 0.04111213 0.29994923 0.14952576
v 0.06636617 0.25709015 0.19814438
v 0.11422138 0.19679382 0.21729919
v 0.19460019 0.19679382 -0.29595637
v 0.14016448 0.25770751 -0.33120650
v 0.06757203 0.30542323 -0.30639839
v -0.00512378 0.33098230 -0.15801519
v 0.02254197 0.31759226 -0.26004112
v -0.12667394 0.31402522 -0.04149015
v -0.01087743 0.32918507 -0.04707697
v -0.12667394 0.31516394 -0.14198636
v -0.12667394 0.31497186 -0.12156786
v -0.12667394 0.31066400 -0.00949898
v -0.00446917 0.31893674 0.06632210
v -0.00839682 0.30505282 0.15065643
v 0.00483313 0.28134587 0.18909907
v 0.04221463 0.23939224 0.21756524
v 0.10298970 0.19679382 0.22135627
v 0.18622813 0.19679382 -0.33207113
v 0.16028503 0.19679382 -0.37410527
v 0.10416111 0.19679382 -0.43030602
v 0.10264517 0.19679382 -0.43170270
v 0.09534114 0.27628344 -0.35135895
v 0.03191318 0.27370420 -0.37995815
v 0.00190463 0.29547673 -0.33167207
v -0.12667394 0.30424339 -0.24687219
v -0.12667394 0.31211826 -0.18528418
v -0.12667394 0.29293868 -0.29176626
v -0.12667394 0.30654821 0.02767996
v -0.12667394 0.29403621 0.09445572
v -0.12667394 0.29254082 0.10197133
v -0.12667394 0.26886129 0.17273766
v -0.12667394 0.25175333 0.20107082
v -0.01587311 0.23928249 0.21869588
v 0.03391146 0.19679382 0.22481477
v 0.06395447 0.19679382 0.22421619
v 0.10085362 0.19679382 -0.43243432
v 0.03146529 0.20454521 -0.45125657
v -0.02934424 0.22553575 -0.43383104
v -0.12667394 0.23095487 -0.41713709
v -0.12667394 0.23483743 -0.41228187
v -0.12667394 0.27716148 -0.32754850
v -0.12667394 0.21597339 0.21204492
v -0.12667394 0.19679382 0.21251050
v 0.08696906 0.19679382 -0.43775511
v 0.03642653 0.19679382 -0.45225421
v 0.02646961 0.19679382 -0.45318535
v 0.00652133 0.19679382 -0.45451555
v -0.07037774 0.19679382 -0.45464855
v -0.12667394 0.19679382 -0.44773155
f 1 2 8
f 1 8 18
f 1 18 33
f 1 33 51
f 1 51 50
f 1 50 59
f 1 59 65
f 1 65 64
f 1 64 63
f 1 63 62
f 1 62 61
f 1 61 60
f 1 60 52
f 1 52 37
f 1 37 36
f 1 36 35
f 1 35 34
f 1 34 19
f 1 19 9
f 1 9 3
f 1 3 4
f 1 4 5
f 1 5 2
f 2 5 6
f 2 6 7
f 2 7 8
f 3 9 10
f 3 10 4
f 4 10 11
f 4 11 5
f 5 11 12
f 5 12 13
f 5 13 14
f 5 14 6
f 6 14 15
f 6 15 7
f 7 15 16
f 7 16 17
f 7 17 8
f 8 17 18
f 9 19 10
f 10 19 20
f 10 20 11
f 11 20 21
f 11 21 12
f 12 22 13
f 12 21 23
f 12 23 22
f 13 24 25
f 13 25 14
f 13 22 26
f 13 26 27
f 13 27 24
f 14 25 24
f 14 24 28
f 14 28 29
f 14 29 30
f 14 30 15
f 15 30 16
f 16 30 31
f 16 31 17
f 17 31 32
f 17 32 18
f 18 32 33
f 19 34 20
f 20 34 35
f 20 35 36
f 20 36 37
f 20 37 38
f 20 38 21
f 21 38 39
f 21 39 40
f 21 40 23
f 22 23 41
f 22 41 42
f 22 42 26
f 23 43 41
f 23 40 43
f 24 27 26
f 24 26 42
f 24 42 41
f 24 41 43
f 24 43 57
f 24 57 56
f 24 56 55
f 24 55 65
f 24 65 59
f 24 59 58
f 24 58 48
f 24 48 47
f 24 47 46
f 24 46 45
f 24 45 44
f 24 44 28
f 28 44 29
f 29 44 30
f 30 44 45
f 30 45 46
f 30 46 47
f 30 47 48
f 30 48 31
f 31 48 49
f 31 49 32
f 32 49 50
f 32 50 51
f 32 51 33
f 37 52 38
f 38 52 39
f 39 52 53
f 39 53 54
f 39 54 55
f 39 55 56
f 39 56 40
f 40 56 57
f 40 57 43
f 48 58 49
f 49 58 50
f 50 58 59
f 52 60 53
f 53 60 61
f 53 61 62
f 53 62 63
f 53 63 64
f 53 64 54
f 54 64 55
f 55 64 65

