# https://github.com/mikedh/trimesh
v 0.05018546 -0.02104782 0.23462246
v 0.05018546 -0.02407438 0.23387109
v 0.05018546 0.03275376 0.23251860
v 0.01660018 0.03111367 0.26873499
v 0.05018546 -0.03017820 0.23229320
v 0.01445349 0.05901204 0.26873499
v 0.05018546 0.14255498 0.22305124
v -0.00175054 0.00091580 0.26873499
v -0.02835908 -0.02214685 0.26873499
v -0.06514708 -0.02620479 0.26873499
v -0.05844733 -0.03017820 0.23815392
v 0.05018546 -0.03017820 -0.46430880
v -0.00024439 0.08231141 0.26873499
v -0.02581422 0.14255498 0.23304458
v -0.03862510 0.10038617 0.26873499
v -0.02602196 0.09710599 0.26873499
v 0.05018546 0.14255498 -0.46062702
v -0.07092929 -0.02537630 0.26873499
v -0.12667392 -0.03017820 0.19712873
v -0.08429415 -0.03017820 -0.48880368
v -0.11704845 0.08001190 -0.49857157
v -0.12667392 0.14255498 0.20283921
v -0.08405178 0.08532105 0.26873499
v -0.09636061 0.12018556 -0.49143350
v -0.12667392 0.13352606 -0.49271083
v -0.12667392 0.14255498 -0.48970532
v -0.08332468 -0.01614448 0.26873499
v -0.10264487 -0.00106245 0.26873499
v -0.11026215 0.02392773 0.26873499
v -0.12667392 0.02690355 0.21072866
v -0.12667392 -0.03017820 -0.49473953
v -0.12667392 0.08094186 -0.49887216
v -0.12667392 0.09976057 -0.49699366
v -0.12667392 0.08927755 0.21441041
v -0.10759610 0.05027055 0.26873499
v -0.10293917 0.06356032 0.26873499
v -0.08773924 0.08121239 0.26873499
f 1 2 5
f 1 5 12
f 1 12 17
f 1 17 7
f 1 7 3
f 1 3 4
f 1 4 2
f 2 4 5
f 3 6 4
f 3 7 6
f 4 6 13
f 4 13 16
f 4 16 15
f 4 15 23
f 4 23 37
f 4 37 36
f 4 36 35
f 4 35 29
f 4 29 28
f 4 28 27
f 4 27 18
f 4 18 10
f 4 10 9
f 4 9 8
f 4 8 5
f 5 8 9
f 5 9 10
f 5 10 11
f 5 11 19
f 5 19 31
f 5 31 20
f 5 20 12
f 6 7 13
f 7 14 15
f 7 15 16
f 7 16 13
f 7 17 26
f 7 26 22
f 7 22 14
f 10 18 19
f 10 19 11
f 12 20 21
f 12 21 17
f 14 22 15
f 15 22 23
f 17 21 24
f 17 24 25
f 17 25 26
f 18 27 19
f 19 27 28
f 19 28 29
f 19 29 30
f 19 30 34
f 19 34 22
f 19 22 26
f 19 26 25
f 19 25 33
f 19 33 32
f 19 32 31
f 20 31 21
f 21 31 32
f 21 32 33
f 21 33 25
f 21 25 24
f 22 34 29
f 22 29 35
f 22 35 36
f 22 36 37
f 22 37 23
f 29 34 30

