# https://github.com/mikedh/trimesh
v 0.38188159 -0.00389671 0.06294274
v 0.37441313 0.06437294 0.07614559
v 0.36915278 0.04893285 0.14912003
v 0.35480037 0.00359006 0.20638022
v 0.35762540 -0.03017820 0.17803714
v 0.37035421 -0.03017820 0.11202291
v 0.37376371 -0.03017820 0.05856572
v 0.37191284 -0.03017820 0.00503677
v 0.37597179 0.03504787 -0.03837477
v 0.34431207 0.11382569 0.14050949
v 0.37080881 0.07141541 -0.02029260
v 0.33882439 0.13279812 0.03947899
v 0.34009081 0.07408132 0.20760006
v 0.30606067 0.01492020 0.26873499
v 0.30671012 0.01145452 0.26873499
v 0.30622303 0.00505632 0.26873499
v 0.33801264 -0.03017820 0.22446239
v 0.36662000 -0.03017820 -0.04253654
v 0.35148829 -0.02378000 -0.16437587
v 0.35879436 0.06001861 -0.10166234
v 0.30947018 0.15541397 0.12149452
v 0.30550867 0.12571123 0.20401230
v 0.32664761 0.12653321 -0.08243210
v 0.30352792 0.15472528 -0.04562198
v 0.29024708 0.08645561 0.25560388
v 0.30154717 0.02638365 0.26873499
v 0.29566982 -0.03017820 0.26873499
v 0.31619179 -0.03017820 0.25237492
v 0.35415095 -0.03017820 -0.13746789
v 0.34856585 -0.03017820 -0.16573921
v 0.32554358 -0.03017820 -0.24596086
v 0.32629043 -0.02353563 -0.25249052
v 0.31976366 0.05017694 -0.26088583
v 0.21030231 0.19678010 0.08583246
v 0.17721388 0.19678010 0.15407109
v 0.26589346 0.15290356 0.19353613
v 0.22290124 0.19678010 -0.10331269
v 0.22527166 0.19678010 -0.00909889
v 0.21218565 0.12071264 0.26873499
v 0.23842260 0.10549469 0.26873499
v 0.27602458 0.12017945 -0.25923547
v 0.18627343 0.19678010 -0.33206642
v 0.19465105 0.19678010 -0.29597384
v 0.20095052 0.19678010 -0.26009652
v 0.28008351 0.07348149 0.26873499
v 0.11548560 -0.03017820 0.26873499
v 0.32190678 -0.03017820 -0.25615001
v 0.30635291 -0.03017820 -0.29453874
v 0.27998608 0.05981867 -0.35710877
v 0.11425169 0.19678010 0.21728691
v 0.20049593 0.12355628 0.26873499
v 0.10301656 0.19678010 0.22137693
v 0.24306603 0.09178745 -0.39549747
v 0.16029623 0.19678010 -0.37411460
v 0.05018547 -0.02104744 0.23465154
v 0.05018547 -0.03017820 0.23228362
v 0.11594021 -0.02555728 0.26873499
v 0.05018547 0.18287291 0.22675854
v 0.28635049 -0.03017820 -0.33708924
v 0.28388268 -0.03017820 -0.34232730
v 0.25787303 0.02736115 -0.40109435
v 0.24020854 0.04246800 -0.42563441
v 0.18900102 0.11977956 0.26873499
v 0.06398584 0.19678010 0.22417536
v 0.05018547 0.19678010 0.22446239
v 0.21757592 0.06903830 -0.43790445
v 0.18302627 0.12799947 -0.42254898
v 0.10418553 0.19678010 -0.43029848
v 0.05018547 -0.03017820 -0.46431017
v 0.12327876 0.00650036 0.26873499
v 0.14185244 0.07023796 0.26873499
v 0.23494816 -0.03017820 -0.40482557
v 0.20013873 -0.03017820 -0.43402970
v 0.18357828 0.01367611 -0.45354697
v 0.16149768 0.09427564 0.26873499
v 0.05018547 0.19678010 -0.44830889
v 0.15604247 0.08352311 -0.44988748
v 0.06687580 0.14932680 -0.45842627
v 0.10288667 0.19455850 -0.43388620
v 0.10269184 0.19678010 -0.43166181
v 0.05018547 0.14541678 -0.46072242
v 0.11512842 -0.03017820 -0.45993313
v 0.19526802 -0.03017820 -0.43689990
v 0.15139905 -0.03017820 -0.45577136
v 0.08700812 0.19678010 -0.43776095
v 0.05018547 0.17529726 -0.45505381
v 0.05018547 0.16887686 -0.45627365
v 0.10090591 0.19678010 -0.43237936
f 1 2 3
f 1 3 4
f 1 4 5
f 1 5 6
f 1 6 7
f 1 7 8
f 1 8 9
f 1 9 2
f 2 10 3
f 2 9 11
f 2 11 12
f 2 12 10
f 3 10 13
f 3 13 4
f 4 13 14
f 4 14 15
f 4 15 16
f 4 16 17
f 4 17 5
f 5 17 28
f 5 28 27
f 5 27 46
f 5 46 56
f 5 56 69
f 5 69 82
f 5 82 84
f 5 84 83
f 5 83 73
f 5 73 72
f 5 72 60
f 5 60 59
f 5 59 48
f 5 48 47
f 5 47 31
f 5 31 30
f 5 30 29
f 5 29 18
f 5 18 8
f 5 8 7
f 5 7 6
f 8 18 9
f 9 18 19
f 9 19 20
f 9 20 11
f 10 12 21
f 10 21 22
f 10 22 13
f 11 20 23
f 11 23 12
f 12 23 24
f 12 24 21
f 13 22 25
f 13 25 14
f 14 25 26
f 14 26 45
f 14 45 40
f 14 40 39
f 14 39 51
f 14 51 63
f 14 63 75
f 14 75 71
f 14 71 70
f 14 70 57
f 14 57 46
f 14 46 27
f 14 27 16
f 14 16 15
f 16 27 28
f 16 28 17
f 18 29 19
f 19 29 30
f 19 30 31
f 19 31 32
f 19 32 33
f 19 33 20
f 20 33 23
f 21 34 35
f 21 35 36
f 21 36 22
f 21 24 37
f 21 37 38
f 21 38 34
f 22 36 39
f 22 39 40
f 22 40 25
f 23 33 41
f 23 41 42
f 23 42 24
f 24 42 43
f 24 43 44
f 24 44 37
f 25 40 45
f 25 45 26
f 31 47 32
f 32 47 48
f 32 48 49
f 32 49 33
f 33 49 41
f 34 38 37
f 34 37 44
f 34 44 43
f 34 43 42
f 34 42 54
f 34 54 68
f 34 68 80
f 34 80 88
f 34 88 85
f 34 85 76
f 34 76 65
f 34 65 64
f 34 64 52
f 34 52 50
f 34 50 35
f 35 50 36
f 36 50 39
f 39 50 52
f 39 52 51
f 41 49 53
f 41 53 42
f 42 53 54
f 46 55 56
f 46 57 58
f 46 58 55
f 48 59 49
f 49 59 60
f 49 60 61
f 49 61 62
f 49 62 53
f 51 52 64
f 51 64 65
f 51 65 63
f 53 62 66
f 53 66 67
f 53 67 54
f 54 67 68
f 55 58 65
f 55 65 76
f 55 76 86
f 55 86 87
f 55 87 81
f 55 81 69
f 55 69 56
f 57 70 58
f 58 70 71
f 58 71 65
f 60 72 61
f 61 72 62
f 62 72 73
f 62 73 74
f 62 74 66
f 63 65 75
f 65 71 75
f 66 74 77
f 66 77 78
f 66 78 79
f 66 79 67
f 67 79 68
f 68 79 80
f 69 81 82
f 73 83 74
f 74 83 84
f 74 84 82
f 74 82 81
f 74 81 78
f 74 78 77
f 76 85 86
f 78 81 87
f 78 87 86
f 78 86 85
f 78 85 79
f 79 85 88
f 79 88 80

