# https://github.com/mikedh/trimesh
v -0.16092471 -0.30548137 0.21969698
v -0.13566223 -0.27761919 0.14320437
v -0.11547016 -0.19942076 0.40151517
v -0.12515769 0.03426728 0.31507104
v -0.20637925 -0.13881470 0.14393940
v -0.11547016 0.02785198 0.21969698
v -0.11547016 -0.26002682 0.28030304
v -0.18617782 -0.30077378 0.14238850
v -0.17607622 -0.26002682 0.29545456
v -0.11575549 -0.01753729 0.40166067
v -0.17607622 0.02785198 0.21969698
v -0.13062167 -0.01760257 0.14393940
v -0.13062167 -0.29032985 0.21969698
v -0.13062167 -0.26002682 0.29545456
v -0.11547016 -0.26002682 0.26515152
v -0.17086063 -0.29574645 0.14404232
v -0.17607622 -0.29032985 0.25000001
v -0.19122774 -0.30548137 0.21969698
v -0.14577319 -0.13881470 0.40151517
v -0.14577319 -0.01760257 0.38636365
v -0.11547016 -0.01760257 0.21969698
v -0.17671069 -0.01958824 0.14273175
v -0.16092471 -0.24487531 0.32575759
v -0.13062167 -0.24487531 0.32575759
v -0.19122774 -0.09336015 0.25000001
v -0.20637925 -0.21457227 0.14393940
v -0.16092471 0.02785198 0.29545456
v -0.14577319 -0.06305712 0.40151517
v -0.19122774 -0.01760257 0.17424243
v -0.14577319 -0.19942076 0.38636365
v -0.16092471 -0.29032985 0.25000001
v -0.19122774 -0.21457227 0.25000001
v -0.20637925 -0.13881470 0.15909092
v -0.17607622 0.02785198 0.23484849
v -0.17607622 -0.19942076 0.31060607
v -0.17607622 -0.06305712 0.31060607
v -0.16092471 -0.18426924 0.35606062
v -0.13062167 -0.19942076 0.40151517
v -0.20637925 -0.21457227 0.15909092
v -0.19122774 -0.04790560 0.21969698
v -0.16092471 -0.04790560 0.35606062
v -0.17607622 -0.01760257 0.28030304
v -0.19122774 -0.03275409 0.20454546
v -0.16092471 -0.01760257 0.34090910
f 7 6 3
f 10 6 4
f 10 3 6
f 11 4 6
f 12 11 6
f 13 7 1
f 14 7 3
f 14 1 7
f 15 6 7
f 15 13 2
f 15 7 13
f 16 8 2
f 16 1 8
f 16 13 1
f 16 2 13
f 18 17 9
f 18 8 1
f 18 1 17
f 20 10 4
f 21 12 6
f 21 2 12
f 21 15 2
f 21 6 15
f 22 11 12
f 22 8 5
f 22 12 2
f 22 2 8
f 23 9 17
f 24 14 3
f 24 23 17
f 24 3 23
f 24 1 14
f 26 5 8
f 26 8 18
f 27 20 4
f 28 19 10
f 28 10 20
f 29 22 5
f 29 11 22
f 31 24 17
f 31 17 1
f 31 1 24
f 32 18 9
f 33 5 26
f 33 29 5
f 33 32 25
f 34 27 4
f 34 4 11
f 34 11 29
f 35 19 28
f 35 25 32
f 35 32 9
f 36 35 28
f 36 25 35
f 37 30 19
f 37 9 30
f 37 35 9
f 37 19 35
f 38 23 3
f 38 19 30
f 38 3 10
f 38 10 19
f 38 30 9
f 38 9 23
f 39 26 18
f 39 18 32
f 39 33 26
f 39 32 33
f 40 33 25
f 40 25 36
f 41 36 28
f 41 28 20
f 42 27 34
f 42 40 36
f 42 34 40
f 43 29 33
f 43 33 40
f 43 40 34
f 43 34 29
f 44 42 36
f 44 36 41
f 44 41 20
f 44 20 27
f 44 27 42