# https://github.com/mikedh/trimesh
v 0.09756239 0.07348867 -0.28122819
v 0.09665106 0.07330652 -0.31060607
v 0.08149954 0.16421562 -0.29545455
v -0.08516713 0.17936713 -0.23484849
v -0.12952249 0.07309004 -0.23431289
v 0.02089348 0.16421562 -0.23484849
v 0.09665106 0.13391259 -0.29545455
v 0.01164416 0.06854636 -0.34532606
v 0.00574197 0.17936713 -0.23484849
v 0.02089348 0.07330652 -0.23484849
v 0.09665106 0.08845804 -0.31060607
v 0.08860045 0.13074805 -0.27118691
v -0.08516713 0.08845804 -0.34090910
v 0.07533418 0.15856612 -0.27181145
v -0.02456107 0.17936713 -0.26515152
v -0.11776733 0.07142330 -0.25887333
v 0.03604500 0.10360955 -0.35606061
v -0.13062167 0.13391259 -0.25000000
v 0.00574197 0.17936713 -0.25000000
v -0.08516713 0.14906410 -0.29545455
v -0.08516713 0.07330652 -0.34090910
v 0.05119651 0.11876107 -0.34090910
v 0.02725544 0.07004365 -0.34437651
v -0.13062167 0.13391259 -0.23484849
v -0.05486410 0.17936713 -0.26515152
v -0.10031864 0.16421562 -0.26515152
v 0.00574197 0.13391259 -0.34090910
v -0.10031864 0.07330652 -0.32575758
v 0.00574197 0.10360955 -0.35606061
v -0.13062167 0.10360955 -0.26515152
v 0.02089348 0.16421562 -0.31060607
v -0.08516713 0.17936713 -0.25000000
v -0.10031864 0.13391259 -0.29545455
v -0.07001561 0.11876107 -0.32575758
v 0.05119651 0.14906410 -0.32575758
v -0.11547016 0.07330652 -0.29545455
v -0.10031864 0.08845804 -0.32575758
v 0.05119651 0.16421562 -0.31060607
v 0.00574197 0.14906410 -0.32575758
v 0.03604500 0.13391259 -0.34090910
v -0.11547016 0.10360955 -0.29545455
f 8 2 1
f 9 4 5
f 9 5 6
f 10 6 5
f 10 8 1
f 11 7 1
f 11 1 2
f 12 1 7
f 12 10 1
f 12 6 10
f 14 9 6
f 14 3 9
f 14 6 12
f 14 12 7
f 14 7 3
f 15 4 9
f 16 10 5
f 16 8 10
f 17 11 2
f 19 15 9
f 19 9 3
f 22 3 7
f 22 7 11
f 22 11 17
f 23 17 2
f 23 2 8
f 23 8 17
f 24 5 4
f 24 4 18
f 25 4 15
f 26 25 20
f 28 21 8
f 28 8 16
f 28 13 21
f 29 17 8
f 29 8 21
f 29 21 13
f 29 27 17
f 29 13 27
f 30 24 18
f 30 5 24
f 31 25 15
f 32 4 25
f 32 25 26
f 32 26 18
f 32 18 4
f 33 26 20
f 33 20 13
f 33 18 26
f 34 27 13
f 34 13 20
f 34 20 27
f 35 22 17
f 35 3 22
f 36 28 16
f 36 16 5
f 36 30 28
f 36 5 30
f 37 13 28
f 37 33 13
f 37 28 30
f 38 31 15
f 38 3 35
f 38 27 31
f 38 19 3
f 38 15 19
f 39 31 27
f 39 27 20
f 39 20 25
f 39 25 31
f 40 35 17
f 40 17 27
f 40 38 35
f 40 27 38
f 41 18 33
f 41 33 37
f 41 37 30
f 41 30 18