# https://github.com/mikedh/trimesh
v 0.09665106 -0.12366318 0.18939395
v 0.11180258 -0.15396621 -0.09848485
v 0.11180258 -0.01760257 -0.09848485
v 0.00574197 -0.01760257 0.26515152
v 0.00574197 -0.12366318 0.14393940
v 0.09665106 -0.01760257 0.26515152
v 0.06634803 -0.15396621 0.02272728
v 0.00574197 -0.10851167 0.26515152
v 0.00574197 -0.01760257 -0.09848485
v 0.11180258 -0.12366318 0.14393940
v 0.11180258 -0.13881470 0.06818182
v 0.08149954 -0.10851167 0.26515152
v 0.05119651 -0.12366318 0.21969698
v 0.05119651 -0.13881470 0.12878789
v 0.00574197 -0.12366318 -0.09848485
v 0.11180258 -0.01760257 0.14393940
v 0.09665106 -0.15396621 -0.02272727
v 0.09665106 -0.13881470 0.09848485
v 0.09665106 -0.10851167 0.25000001
v 0.06634803 -0.12366318 0.21969698
v 0.05385227 -0.14126801 -0.09839134
v 0.11180258 -0.15396621 -0.06818182
v 0.09116303 -0.08151556 0.26127650
v 0.06634803 -0.13881470 0.12878789
f 6 3 4
f 8 4 5
f 8 6 4
f 9 3 2
f 9 5 4
f 9 4 3
f 10 2 3
f 11 10 1
f 11 2 10
f 12 6 8
f 13 12 8
f 14 8 5
f 14 5 7
f 14 13 8
f 15 7 5
f 15 5 9
f 15 9 2
f 16 10 3
f 16 3 6
f 16 6 10
f 17 7 2
f 18 11 1
f 18 17 11
f 18 7 17
f 19 10 6
f 19 12 1
f 19 1 10
f 20 1 12
f 20 12 13
f 20 13 14
f 20 18 1
f 21 15 2
f 21 2 7
f 21 7 15
f 22 17 2
f 22 2 11
f 22 11 17
f 23 19 6
f 23 6 12
f 23 12 19
f 24 20 14
f 24 14 7
f 24 7 18
f 24 18 20