# https://github.com/mikedh/trimesh
v -0.13062167 -0.10851167 0.14393940
v -0.13062167 -0.10851167 -0.09848485
v -0.13062167 -0.01760257 0.14393940
v -0.17671069 -0.01958824 0.14273175
v -0.20637925 -0.10851167 0.11363637
v -0.19122774 -0.01760257 -0.09848485
v -0.18780303 -0.10888930 0.14363761
v -0.13062167 -0.01760257 -0.09848485
v -0.20637925 -0.09336015 0.11363637
v -0.20637925 -0.10851167 -0.03787879
v -0.18124859 -0.10812080 -0.09538508
v -0.20637925 -0.09336015 -0.03787879
f 1 2 3
f 6 4 3
f 7 1 3
f 7 3 4
f 7 2 1
f 8 6 3
f 8 3 2
f 8 2 6
f 9 4 6
f 9 7 4
f 9 5 7
f 10 5 9
f 10 7 5
f 10 2 7
f 11 10 6
f 11 6 2
f 11 2 10
f 12 10 9
f 12 9 6
f 12 6 10