# https://github.com/mikedh/trimesh
v 0.08149954 0.17936713 0.31060607
v 0.12695409 0.19451865 0.08333334
v 0.12695409 0.22482168 0.26515152
v 0.06634803 0.25512471 0.25000001
v 0.02089348 0.19451865 0.08333334
v 0.12695409 0.22482168 0.08333334
v 0.08149954 0.23997319 0.29545456
v 0.12695409 0.19451865 0.26515152
v 0.08149954 0.17936713 0.26515152
v 0.01545584 0.18584800 0.31327387
v 0.08149954 0.25512471 0.25000001
v 0.03604500 0.25512471 0.12878789
v 0.08398040 0.21529847 0.30723649
v 0.03604500 0.22482168 0.31060607
v 0.02089348 0.17936713 0.26515152
v 0.02196536 0.22347645 0.08332506
v 0.08260161 0.25284583 0.12858692
v 0.06634803 0.23997319 0.29545456
v 0.02089348 0.23997319 0.21969698
v 0.02089348 0.22482168 0.28030304
v 0.03604500 0.23997319 0.26515152
v 0.05119651 0.25512471 0.21969698
v 0.02089348 0.20967016 0.31060607
v 0.03604500 0.25512471 0.14393940
f 6 3 2
f 8 1 2
f 8 2 3
f 8 3 1
f 9 5 2
f 9 2 1
f 11 3 6
f 11 7 3
f 11 4 7
f 12 4 11
f 13 1 3
f 13 3 7
f 14 13 7
f 14 10 1
f 14 1 13
f 15 9 1
f 15 1 10
f 15 10 5
f 15 5 9
f 16 12 6
f 16 5 10
f 16 6 2
f 16 2 5
f 17 12 11
f 17 11 6
f 17 6 12
f 18 14 7
f 18 7 4
f 19 16 10
f 19 12 16
f 20 19 10
f 21 18 4
f 21 14 18
f 21 20 14
f 21 19 20
f 22 4 12
f 22 21 4
f 22 19 21
f 23 20 10
f 23 10 14
f 23 14 20
f 24 22 12
f 24 12 19
f 24 19 22