# https://github.com/mikedh/trimesh
v 0.02089348 -0.13881470 0.43181820
v 0.12456781 -0.01574517 0.33997494
v 0.09665106 -0.03275409 0.46212123
v 0.00574197 -0.01760257 0.46212123
v 0.00574197 -0.01760257 0.26515152
v 0.08149954 -0.01760257 0.47727274
v 0.09665106 -0.09336015 0.29545456
v -0.00197946 -0.13155114 0.42723275
v 0.11613596 -0.01196413 0.36824210
v 0.02089348 -0.07820863 0.49242426
v 0.12695409 -0.03275409 0.37121213
v 0.09665106 -0.01760257 0.26515152
v 0.00574197 -0.10851167 0.26515152
v 0.05055960 -0.01724191 0.47641585
v 0.11180258 -0.01760257 0.43181820
v 0.08149954 -0.03275409 0.47727274
v 0.00574197 -0.07820863 0.49242426
v 0.09665106 -0.06305712 0.41666668
v 0.09116303 -0.08151556 0.26127650
v 0.00405248 -0.13720824 0.40105416
v 0.09665106 -0.01760257 0.46212123
v 0.11180258 -0.03275409 0.43181820
v 0.00307933 -0.05795899 0.48198002
v 0.02089348 -0.06305712 0.49242426
v 0.09665106 -0.04790560 0.44696971
v 0.03604500 -0.12366318 0.43181820
v 0.11180258 -0.04790560 0.40151517
v 0.04130256 -0.10058406 0.26525538
f 8 4 5
f 9 5 4
f 11 7 2
f 12 9 2
f 12 5 9
f 13 8 5
f 14 9 4
f 14 6 9
f 15 11 2
f 15 2 9
f 16 3 6
f 16 6 10
f 16 10 1
f 16 1 3
f 17 8 1
f 17 1 10
f 19 12 2
f 19 2 7
f 19 13 5
f 19 5 12
f 20 7 1
f 20 1 8
f 20 8 13
f 21 15 9
f 21 9 6
f 21 6 3
f 21 3 15
f 22 15 3
f 22 11 15
f 23 4 8
f 23 8 17
f 24 17 10
f 24 10 6
f 24 6 14
f 24 23 17
f 24 14 4
f 24 4 23
f 25 3 1
f 25 22 3
f 25 18 22
f 26 1 7
f 26 7 18
f 26 25 1
f 26 18 25
f 27 18 7
f 27 7 11
f 27 22 18
f 27 11 22
f 28 19 7
f 28 13 19
f 28 20 13
f 28 7 20