# https://github.com/mikedh/trimesh
v 0.17240864 -0.01760257 0.25000001
v 0.20271167 0.07330652 0.14393940
v 0.18756015 0.05815501 0.26515152
v 0.18756015 0.30057926 0.21969698
v 0.12695409 0.25512471 0.14393940
v 0.20271167 0.19451865 0.18939395
v 0.18756015 -0.00245106 0.17424243
v 0.12968581 0.24791019 0.26302698
v 0.20271167 0.10360955 0.18939395
v 0.18756015 0.16421562 0.26515152
v 0.20271167 0.25512471 0.14393940
v 0.18756015 0.02785198 0.23484849
v 0.12695409 0.04300349 0.14393940
v 0.12695409 -0.01760257 0.26515152
v 0.17224489 0.29907364 0.18920515
v 0.16161505 0.25503959 0.26239328
v 0.20271167 0.25512471 0.15909092
v 0.16923785 -0.00166636 0.14349189
v 0.20271167 0.07330652 0.15909092
v 0.17240864 -0.00245106 0.26515152
v 0.16950328 0.29187240 0.21354810
v 0.17850830 0.29671220 0.18714313
v 0.18756015 -0.00245106 0.14393940
v 0.12695409 -0.01760257 0.21969698
v 0.14893559 -0.01533210 0.26370289
v 0.15965640 -0.01518341 0.21950894
f 9 6 3
f 9 2 6
f 10 6 4
f 10 3 6
f 11 6 2
f 12 3 1
f 12 1 7
f 12 9 3
f 14 10 8
f 14 3 10
f 14 8 5
f 14 5 13
f 15 5 8
f 15 11 5
f 16 10 4
f 16 4 8
f 16 8 10
f 17 11 4
f 17 4 6
f 17 6 11
f 18 11 2
f 18 5 11
f 18 13 5
f 19 12 7
f 19 7 2
f 19 2 9
f 19 9 12
f 20 1 3
f 20 3 14
f 21 15 8
f 21 8 4
f 21 4 15
f 22 15 4
f 22 4 11
f 22 11 15
f 23 18 2
f 23 2 7
f 23 7 1
f 24 14 13
f 24 13 18
f 24 1 14
f 24 18 23
f 25 20 14
f 25 14 1
f 25 1 20
f 26 24 23
f 26 23 1
f 26 1 24