# https://github.com/mikedh/trimesh
v 0.02089348 0.08845804 -0.09848485
v 0.02089348 0.08845804 -0.23484849
v 0.02089348 0.20967016 -0.14393940
v -0.08516713 0.20967016 -0.09848485
v -0.16092471 0.08845804 -0.18939394
v 0.02346330 0.20507087 -0.09701275
v -0.15714387 0.08762200 -0.09828187
v -0.10031864 0.17936713 -0.23484849
v 0.02089348 0.16421562 -0.23484849
v -0.14577319 0.08845804 -0.23484849
v -0.13062167 0.19451865 -0.09848485
v -0.07001561 0.20967016 -0.17424243
v 0.02089348 0.17936713 -0.21969697
v -0.13062167 0.14906410 -0.23484849
v -0.16092471 0.13391259 -0.09848485
v -0.08516713 0.20967016 -0.15909091
v -0.00940955 0.19451865 -0.21969697
v -0.16092471 0.10360955 -0.18939394
v -0.13062167 0.17936713 -0.17424243
v -0.10031864 0.19451865 -0.20454546
v -0.02456107 0.20967016 -0.17424243
v 0.00574197 0.19451865 -0.20454546
v 0.00574197 0.17936713 -0.23484849
v -0.14577319 0.10360955 -0.23484849
v -0.14577319 0.14906410 -0.18939394
v -0.11547016 0.19451865 -0.17424243
v -0.08516713 0.19451865 -0.21969697
v -0.16092471 0.13391259 -0.14393940
v -0.13062167 0.19451865 -0.11363636
v -0.14577319 0.16421562 -0.15909091
f 6 3 4
f 6 1 2
f 7 2 1
f 7 1 6
f 9 6 2
f 9 2 8
f 10 7 5
f 10 2 7
f 10 8 2
f 11 6 4
f 12 4 3
f 13 3 6
f 13 6 9
f 14 8 10
f 15 5 7
f 15 7 6
f 15 6 11
f 16 11 4
f 16 4 12
f 18 10 5
f 18 5 15
f 19 8 14
f 20 16 12
f 20 8 19
f 21 17 12
f 21 12 3
f 21 3 17
f 22 17 3
f 22 3 13
f 23 13 9
f 23 9 8
f 23 8 17
f 23 22 13
f 23 17 22
f 24 18 14
f 24 14 10
f 24 10 18
f 25 19 14
f 25 14 18
f 26 20 19
f 26 16 20
f 27 17 8
f 27 8 20
f 27 20 12
f 27 12 17
f 28 25 18
f 28 18 15
f 28 15 11
f 29 26 19
f 29 11 16
f 29 16 26
f 29 28 11
f 30 19 25
f 30 25 28
f 30 29 19
f 30 28 29