# https://github.com/mikedh/trimesh
v 0.11180258 -0.15396621 -0.09848485
v 0.11180258 -0.15396621 -0.20454546
v 0.11180258 -0.01760257 -0.23484849
v -0.13062167 -0.01760257 -0.09848485
v -0.13062167 -0.16911773 -0.15909091
v 0.11180258 -0.01760257 -0.09848485
v 0.02089348 -0.16911773 -0.12878788
v -0.13062167 -0.16911773 -0.09848485
v -0.08942628 -0.16216598 -0.23403034
v 0.02089348 -0.16911773 -0.09848485
v 0.10941666 -0.12588761 -0.23041517
v -0.05486410 -0.16911773 -0.23484849
v -0.13062167 -0.01760257 -0.15909091
v -0.03971258 -0.16911773 -0.21969697
v -0.08516713 -0.01760257 -0.23484849
f 1 2 3
f 6 1 3
f 6 3 4
f 6 4 1
f 7 2 1
f 8 1 4
f 8 4 5
f 8 5 7
f 10 8 7
f 10 7 1
f 10 1 8
f 11 3 2
f 12 7 5
f 12 5 9
f 12 11 2
f 12 3 11
f 13 9 5
f 13 5 4
f 13 4 3
f 14 12 2
f 14 2 7
f 14 7 12
f 15 12 9
f 15 3 12
f 15 13 3
f 15 9 13