# https://github.com/mikedh/trimesh
v 0.12968581 0.24791019 0.26302698
v 0.19324029 0.25403666 0.00763598
v 0.20271167 0.25512471 0.14393940
v 0.15725712 0.31573077 0.17424243
v 0.12695409 0.25512471 0.00757576
v 0.20271167 0.31573077 0.00757576
v 0.17240864 0.27027623 0.26515152
v 0.12695409 0.28542774 0.23484849
v 0.14210561 0.30057926 0.00757576
v 0.16161505 0.25503959 0.26239328
v 0.18756015 0.31573077 0.18939395
v 0.12695409 0.27027623 0.26515152
v 0.15725712 0.31573077 0.03787879
v 0.13085350 0.27654634 0.00848346
v 0.14210561 0.30057926 0.23484849
v 0.20271167 0.27027623 0.14393940
v 0.17240864 0.31573077 0.00757576
v 0.17240864 0.31573077 0.18939395
v 0.17240864 0.30057926 0.23484849
v 0.20271167 0.31573077 0.12878789
f 1 2 3
f 5 2 1
f 6 3 2
f 6 2 5
f 9 6 5
f 10 7 1
f 10 1 3
f 10 3 7
f 11 6 4
f 12 8 5
f 12 5 1
f 12 1 7
f 13 9 4
f 13 4 6
f 14 9 5
f 14 5 8
f 14 8 9
f 15 8 12
f 15 12 7
f 15 9 8
f 15 4 9
f 16 7 3
f 16 3 6
f 17 13 6
f 17 6 9
f 17 9 13
f 18 15 11
f 18 11 4
f 18 4 15
f 19 15 7
f 19 7 11
f 19 11 15
f 20 16 6
f 20 6 11
f 20 11 7
f 20 7 16