# https://github.com/mikedh/trimesh
v -0.16092471 -0.30548137 0.00757576
v -0.08516713 -0.24487531 -0.09848485
v -0.08516713 -0.27517834 0.00757576
v -0.13062167 -0.01760257 0.00757576
v -0.18124859 -0.10812080 -0.09538508
v -0.08516713 -0.01760257 0.00757576
v -0.18750320 -0.29759231 0.00950667
v -0.13062167 -0.29032985 -0.03787879
v -0.08516713 -0.01760257 -0.09848485
v -0.19365886 -0.11072923 0.00771592
v -0.19122774 -0.26002682 -0.09848485
v -0.08516713 -0.27517834 -0.00757576
v -0.13062167 -0.01760257 -0.09848485
v -0.14577319 -0.27517834 -0.08333333
v -0.19122774 -0.30548137 -0.02272727
v -0.20637925 -0.10851167 -0.05303030
v -0.10031864 -0.27517834 -0.03787879
v -0.16092471 -0.30548137 -0.02272727
v -0.13062167 -0.26002682 -0.09848485
v -0.14577319 -0.29032985 -0.05303030
v -0.19122774 -0.27517834 -0.08333333
v -0.20637925 -0.27517834 0.00757576
v -0.20637925 -0.27517834 -0.02272727
v -0.20637925 -0.24487531 -0.05303030
f 6 3 2
f 7 1 3
f 7 6 4
f 7 3 6
f 9 4 6
f 9 6 2
f 10 7 4
f 11 9 2
f 12 2 3
f 12 3 1
f 13 4 9
f 13 11 5
f 13 9 11
f 15 1 7
f 16 5 11
f 16 13 5
f 16 10 4
f 16 4 13
f 17 12 8
f 17 8 2
f 17 2 12
f 18 12 1
f 18 8 12
f 18 1 15
f 18 15 14
f 19 14 11
f 19 11 2
f 19 2 14
f 20 14 2
f 20 2 8
f 20 18 14
f 20 8 18
f 21 11 14
f 21 14 15
f 22 15 7
f 22 7 10
f 22 10 16
f 23 21 15
f 23 15 22
f 23 11 21
f 23 22 16
f 24 23 16
f 24 16 11
f 24 11 23