# https://github.com/mikedh/trimesh
v -0.11547016 -0.01760257 0.21969698
v -0.11547016 -0.01760257 -0.09848485
v -0.10485017 0.08142481 0.30572750
v -0.13062167 0.08845804 0.31060607
v -0.19122774 -0.01760257 0.15909092
v -0.11547016 0.08845804 -0.09848485
v -0.13427269 0.02453368 0.30653688
v -0.17707013 -0.01965599 -0.08027449
v -0.17607622 0.08845804 -0.09848485
v -0.12515769 0.03426728 0.31507104
v -0.16814304 -0.01845172 0.21837440
v -0.16092471 0.04300349 0.28030304
v -0.19122774 -0.00245106 -0.08333333
v -0.14577319 0.04300349 0.31060607
v -0.16092471 0.02785198 0.28030304
v -0.17607622 0.08845804 0.09848485
v -0.17340603 -0.01795827 -0.09810802
v -0.14577319 0.07330652 0.29545456
v -0.17607622 0.07330652 0.15909092
v -0.19122774 0.02785198 0.05303031
v -0.17607622 0.04300349 0.20454546
v -0.16092471 0.08845804 0.21969698
v -0.19122774 -0.00245106 0.15909092
v -0.19122774 0.02785198 -0.05303030
v -0.16092471 0.05815501 0.26515152
v -0.14577319 0.08845804 0.28030304
v -0.19122774 0.01270046 0.11363637
v -0.17607622 0.02785198 0.21969698
f 1 2 3
f 6 3 2
f 6 4 3
f 8 2 1
f 9 4 6
f 9 6 2
f 10 7 1
f 10 1 3
f 10 3 4
f 11 1 7
f 11 8 1
f 11 5 8
f 13 8 5
f 14 10 4
f 14 7 10
f 15 12 5
f 15 5 11
f 15 14 12
f 15 11 7
f 15 7 14
f 16 4 9
f 17 13 9
f 17 9 2
f 17 2 8
f 17 8 13
f 18 14 4
f 18 12 14
f 20 13 5
f 20 19 16
f 20 16 9
f 22 4 16
f 22 16 19
f 22 19 21
f 23 20 5
f 23 21 19
f 23 5 12
f 24 20 9
f 24 9 13
f 24 13 20
f 25 12 18
f 25 22 21
f 25 21 12
f 26 18 4
f 26 4 22
f 26 25 18
f 26 22 25
f 27 23 19
f 27 19 20
f 27 20 23
f 28 23 12
f 28 12 21
f 28 21 23