# https://github.com/mikedh/trimesh
v 0.17240864 -0.13881470 -0.15909091
v 0.18756015 -0.12366318 -0.18939394
v 0.18756015 0.23997319 -0.11363636
v 0.14210561 0.27027623 -0.09848485
v 0.02089348 -0.01760257 -0.23484849
v 0.17899398 -0.01760045 -0.09861200
v 0.11180258 -0.09336015 -0.23484849
v 0.05119651 0.19451865 -0.23484849
v 0.17675942 0.23774685 -0.09224353
v 0.02089348 -0.01760257 -0.09848485
v 0.18756015 -0.12366318 -0.15909091
v 0.17240864 -0.12366318 -0.21969697
v 0.12695409 0.20967016 -0.21969697
v 0.15725712 -0.00245106 -0.25000000
v 0.17240864 0.27027623 -0.11363636
v 0.15331288 -0.12567202 -0.15914620
v 0.02089348 0.22482168 -0.11363636
v 0.02089348 0.22482168 -0.09848485
v 0.17240864 -0.13881470 -0.18939394
v 0.15725712 -0.06305712 -0.25000000
v 0.02089348 0.16421562 -0.23484849
v 0.12695409 0.19451865 -0.23484849
v 0.17240864 0.11876107 -0.20454546
v 0.16829608 0.25923838 -0.09215760
v 0.08149954 0.20967016 -0.21969697
v 0.14210561 0.27027623 -0.11363636
v 0.15280475 -0.12462052 -0.18766476
v 0.02089348 0.17936713 -0.21969697
v 0.15725712 0.20967016 -0.18939394
v 0.18756015 -0.01760257 -0.18939394
v 0.15725712 0.11876107 -0.23484849
v 0.02089348 0.20967016 -0.15909091
v 0.17240864 0.23997319 -0.14393940
v 0.18756015 0.11876107 -0.15909091
v 0.17240864 0.02785198 -0.21969697
v 0.14210561 0.16421562 -0.23484849
v 0.18756015 0.20967016 -0.12878788
v 0.14210561 0.19451865 -0.21969697
f 9 6 3
f 10 1 6
f 10 5 7
f 10 6 9
f 11 6 1
f 11 1 2
f 11 2 3
f 11 3 6
f 16 10 7
f 16 1 10
f 17 5 10
f 18 17 10
f 18 4 17
f 19 12 2
f 19 2 1
f 19 7 12
f 19 1 16
f 20 7 5
f 20 5 14
f 20 12 7
f 20 14 2
f 20 2 12
f 21 14 5
f 21 8 14
f 21 5 17
f 22 14 8
f 22 8 13
f 22 13 15
f 24 9 3
f 24 3 15
f 24 15 4
f 24 4 18
f 24 18 10
f 24 10 9
f 25 15 13
f 25 13 8
f 26 17 4
f 26 25 8
f 26 4 15
f 26 15 25
f 27 19 16
f 27 16 7
f 27 7 19
f 28 21 17
f 28 8 21
f 30 3 2
f 30 2 14
f 31 29 3
f 31 3 23
f 32 26 8
f 32 17 26
f 32 28 17
f 32 8 28
f 33 15 3
f 33 3 29
f 33 29 22
f 33 22 15
f 34 30 23
f 34 3 30
f 35 30 14
f 35 23 30
f 35 31 23
f 35 14 31
f 36 31 14
f 36 14 22
f 36 29 31
f 37 34 23
f 37 23 3
f 37 3 34
f 38 36 22
f 38 22 29
f 38 29 36