# https://github.com/mikedh/trimesh
v 0.02089348 -0.01760257 0.26515152
v 0.02089348 -0.01760257 -0.23484849
v 0.02089348 0.08845804 0.26515152
v -0.11985471 0.09103694 0.26636193
v -0.11547016 -0.01760257 0.26515152
v 0.02089348 0.08845804 -0.23484849
v -0.11547016 -0.01760257 -0.15909091
v -0.07001561 -0.01760257 -0.23484849
v -0.11547016 0.08845804 -0.15909091
v -0.07001561 0.08845804 -0.23484849
f 1 2 3
f 1 3 4
f 5 2 1
f 5 1 4
f 6 3 2
f 6 4 3
f 7 5 4
f 7 2 5
f 8 6 2
f 8 2 7
f 9 7 4
f 9 8 7
f 10 9 4
f 10 4 6
f 10 6 8
f 10 8 9