# https://github.com/mikedh/trimesh
v -0.11547016 -0.29032985 0.15909092
v -0.08921073 -0.25275149 0.14341667
v -0.09038396 -0.23142296 0.26197767
v -0.13062167 -0.10851167 0.26515152
v -0.13062167 -0.10851167 0.14393940
v -0.13618872 -0.24811052 0.26166324
v -0.08516713 -0.26002682 0.23484849
v -0.13566223 -0.27761919 0.14320437
v -0.08516713 -0.10851167 0.14393940
v -0.11547016 -0.26002682 0.26515152
v -0.11547016 -0.29032985 0.14393940
v -0.13656929 -0.27701212 0.15819837
v -0.08516713 -0.10851167 0.26515152
v -0.13062167 -0.27517834 0.23484849
v -0.11547016 -0.27517834 0.23484849
v -0.10031864 -0.27517834 0.20454546
f 6 4 5
f 9 8 5
f 9 2 8
f 9 7 2
f 9 5 4
f 10 4 6
f 10 7 3
f 11 7 1
f 11 2 7
f 11 8 2
f 11 1 8
f 12 6 5
f 12 5 8
f 12 8 1
f 13 3 7
f 13 7 9
f 13 9 4
f 13 10 3
f 13 4 10
f 14 10 6
f 14 12 1
f 14 6 12
f 15 14 1
f 15 7 10
f 15 10 14
f 16 15 1
f 16 1 7
f 16 7 15