# https://github.com/mikedh/trimesh
v 0.15965640 -0.01518341 0.21950894
v 0.17899398 -0.01760045 -0.09861200
v 0.17991509 0.04418306 0.14334410
v 0.12695409 0.04300349 0.21969698
v 0.12695409 -0.01760257 -0.09848485
v 0.17323316 0.04283008 0.21978623
v 0.18756015 -0.01760257 0.12878789
v 0.12695409 -0.01760257 0.21969698
v 0.18021958 0.04318999 -0.09817861
v 0.18756015 -0.00245106 0.14393940
v 0.12695409 0.04300349 -0.09848485
f 6 3 4
f 7 5 2
f 8 4 5
f 8 6 4
f 8 1 6
f 8 7 1
f 8 5 7
f 9 7 2
f 10 6 1
f 10 1 7
f 10 3 6
f 10 9 3
f 10 7 9
f 11 9 2
f 11 2 5
f 11 5 4
f 11 4 3
f 11 3 9