# https://github.com/mikedh/trimesh
v 0.09665106 -0.01760257 0.46212123
v 0.17240864 -0.00245106 0.26515152
v 0.15725712 0.14906410 0.35606062
v 0.14210561 0.27027623 0.28030304
v -0.16092471 -0.00245106 0.31060607
v 0.17240864 0.27027623 0.26515152
v 0.05119651 0.11876107 0.47727274
v 0.15725712 0.02785198 0.35606062
v -0.11547016 -0.01760257 0.26515152
v 0.17240864 0.02785198 0.31060607
v 0.11180258 0.16421562 0.43181820
v -0.05486410 -0.01760257 0.50757578
v -0.08516713 0.14906410 0.28030304
v 0.15725712 -0.00245106 0.34090910
v 0.11180258 -0.01760257 0.44696971
v 0.14891072 0.26016628 0.26087441
v 0.17240864 0.16421562 0.31060607
v 0.06634803 0.07330652 0.49242426
v 0.14210561 0.20967016 0.37121213
v 0.00574197 0.16421562 0.43181820
v -0.13206358 -0.02039932 0.36657903
v -0.13062167 0.10360955 0.26515152
v 0.17240864 -0.00245106 0.28030304
v 0.14893559 -0.01533210 0.26370289
v 0.11180258 0.08845804 0.44696971
v 0.00574197 0.20967016 0.26515152
v 0.09665106 0.25512471 0.26515152
v 0.08149954 0.10360955 0.47727274
v 0.03604500 -0.01760257 0.50757578
v -0.00940955 0.05815501 0.50757578
v 0.14210561 0.23997319 0.34090910
v 0.17240864 0.27027623 0.28030304
v -0.07465079 -0.01963137 0.46671638
v -0.13062167 0.01270046 0.40151517
v -0.16092471 -0.01760257 0.32575759
v -0.05486410 0.10360955 0.44696971
v -0.12419747 0.08416972 0.26360519
v 0.15725712 -0.01760257 0.31060607
v 0.12695409 0.13391259 0.41666668
v -0.00940955 0.19451865 0.32575759
v -0.08516713 0.14906410 0.26515152
v 0.08149954 0.13391259 0.46212123
v 0.03604500 0.05815501 0.50757578
v 0.09665106 0.10360955 0.46212123
v 0.06634803 -0.01760257 0.49242426
v -0.00940955 0.13391259 0.46212123
v 0.12695409 0.23997319 0.34090910
v 0.09665106 0.20967016 0.38636365
v 0.12695409 0.19451865 0.40151517
v 0.17240864 0.22482168 0.29545456
v -0.11909537 -0.01999279 0.39600409
v -0.14577319 0.04300349 0.32575759
v -0.14926422 -0.01927686 0.30743188
v -0.03971258 0.13391259 0.41666668
v -0.13062167 0.10360955 0.28030304
v -0.08516713 0.04300349 0.46212123
v 0.14210561 0.14906410 0.38636365
v 0.00574197 0.20967016 0.29545456
v 0.00574197 0.19451865 0.35606062
v 0.05119651 0.08845804 0.49242426
v 0.00574197 0.11876107 0.47727274
v -0.03971258 0.11876107 0.44696971
v 0.12695409 0.25512471 0.31060607
v 0.12695409 0.20967016 0.38636365
f 10 2 6
f 10 3 8
f 14 10 8
f 15 14 8
f 16 6 2
f 17 10 6
f 17 3 10
f 22 9 5
f 23 2 10
f 23 10 14
f 24 16 2
f 25 1 15
f 27 4 6
f 27 6 16
f 27 16 26
f 28 1 25
f 30 12 29
f 32 17 6
f 32 6 4
f 33 15 1
f 33 29 12
f 37 9 22
f 37 24 9
f 37 16 24
f 38 23 14
f 38 14 15
f 38 9 24
f 38 33 21
f 38 15 33
f 38 24 2
f 38 2 23
f 39 11 25
f 39 25 15
f 39 15 8
f 39 8 3
f 41 22 13
f 41 13 26
f 41 26 16
f 41 37 22
f 41 16 37
f 42 28 11
f 42 11 7
f 42 7 28
f 43 18 28
f 43 7 30
f 43 30 29
f 43 29 18
f 44 28 25
f 44 25 11
f 44 11 28
f 45 18 29
f 45 28 18
f 45 1 28
f 45 33 1
f 45 29 33
f 48 47 20
f 48 31 47
f 49 32 31
f 49 19 32
f 49 39 19
f 49 11 39
f 49 48 20
f 49 7 11
f 50 3 17
f 50 17 32
f 50 32 19
f 50 19 3
f 51 33 12
f 51 21 33
f 51 35 21
f 51 12 34
f 51 34 35
f 52 35 34
f 52 5 35
f 53 35 5
f 53 5 9
f 53 21 35
f 53 38 21
f 53 9 38
f 54 40 13
f 54 20 40
f 55 13 22
f 55 22 5
f 55 5 52
f 55 52 34
f 55 54 13
f 55 36 54
f 56 34 12
f 56 12 30
f 56 46 36
f 56 30 46
f 56 55 34
f 56 36 55
f 57 39 3
f 57 3 19
f 57 19 39
f 58 26 13
f 58 13 40
f 58 27 26
f 59 40 20
f 59 58 40
f 59 4 27
f 59 27 58
f 60 43 28
f 60 28 7
f 60 7 43
f 61 46 30
f 61 30 7
f 61 20 46
f 61 49 20
f 61 7 49
f 62 46 20
f 62 36 46
f 62 54 36
f 62 20 54
f 63 20 47
f 63 59 20
f 63 4 59
f 63 47 31
f 63 32 4
f 63 31 32
f 64 49 31
f 64 31 48
f 64 48 49