# https://github.com/mikedh/trimesh
v 0.12695409 -0.13881470 -0.23484849
v 0.14210561 -0.12366318 -0.25000000
v 0.12999162 0.13056042 -0.22674307
v 0.06634803 0.19451865 -0.23484849
v 0.02016556 -0.01593252 -0.38467007
v 0.03774925 -0.12609205 -0.22938335
v 0.13673190 -0.11712678 -0.22995362
v 0.08149954 -0.10851167 -0.31060607
v 0.14210561 0.08845804 -0.26515152
v 0.02089348 0.16421562 -0.23484849
v 0.06634803 -0.03275409 -0.37121213
v 0.12695409 -0.13881470 -0.25000000
v 0.02089348 -0.09336015 -0.32575758
v 0.14210561 0.13391259 -0.25000000
v 0.11568063 0.17462216 -0.22610338
v 0.03604500 0.17936713 -0.28030304
v 0.09665106 -0.07820863 -0.32575758
v 0.03604500 -0.13881470 -0.25000000
v 0.03604500 -0.03275409 -0.38636365
v 0.01817618 -0.02341406 -0.37748905
v 0.02232289 -0.11998720 -0.23366668
v 0.05119651 0.02785198 -0.37121213
v 0.10696069 0.18270499 -0.22685661
v 0.03604500 0.17936713 -0.23484849
v 0.02089348 0.05815501 -0.37121213
v 0.11180258 -0.12366318 -0.28030304
v 0.11180258 -0.06305712 -0.31060607
v 0.03604500 -0.10851167 -0.31060607
v 0.06634803 -0.06305712 -0.35606061
v 0.02089348 -0.12366318 -0.26515152
v 0.11180258 0.08845804 -0.29545455
v 0.06634803 -0.01760257 -0.37121213
v 0.11180258 0.19451865 -0.25000000
v 0.02089348 0.16421562 -0.28030304
v 0.03604500 0.05815501 -0.37121213
v 0.08149954 -0.09336015 -0.32575758
v 0.12695409 -0.10851167 -0.28030304
v 0.11180258 0.02785198 -0.31060607
v 0.06634803 0.19451865 -0.25000000
v 0.11180258 0.17936713 -0.26515152
v 0.12695409 0.17936713 -0.25000000
v 0.14210561 -0.10851167 -0.26515152
v 0.08149954 0.17936713 -0.28030304
f 7 1 2
f 7 6 1
f 7 3 6
f 12 2 1
f 14 7 2
f 14 2 9
f 14 3 7
f 15 6 3
f 15 3 14
f 18 12 1
f 18 1 6
f 18 8 12
f 19 8 13
f 20 19 13
f 20 5 19
f 21 6 10
f 21 18 6
f 23 10 6
f 23 6 15
f 24 16 10
f 24 4 16
f 24 23 4
f 24 10 23
f 25 5 20
f 26 12 8
f 28 18 13
f 28 13 8
f 28 8 18
f 29 8 19
f 29 19 11
f 29 11 17
f 30 20 13
f 30 13 18
f 30 18 21
f 30 21 10
f 30 10 20
f 32 11 19
f 32 19 22
f 32 27 11
f 32 31 9
f 32 22 31
f 33 4 23
f 33 23 15
f 34 10 16
f 34 16 25
f 34 25 20
f 34 20 10
f 35 22 19
f 35 19 5
f 35 5 25
f 35 25 16
f 36 26 8
f 36 29 17
f 36 8 29
f 37 12 26
f 37 36 17
f 37 26 36
f 38 32 9
f 38 9 27
f 38 27 32
f 39 33 16
f 39 16 4
f 39 4 33
f 40 31 22
f 40 22 35
f 41 33 15
f 41 15 14
f 41 40 33
f 41 31 40
f 41 14 9
f 41 9 31
f 42 37 17
f 42 27 9
f 42 9 2
f 42 2 12
f 42 12 37
f 42 17 11
f 42 11 27
f 43 40 35
f 43 35 16
f 43 16 33
f 43 33 40