# https://github.com/mikedh/trimesh
v -0.10031864 -0.24487531 0.29545456
v 0.00574197 -0.18426924 0.26515152
v -0.02456107 -0.16911773 0.43181820
v -0.11575549 -0.01753729 0.40166067
v -0.11547016 -0.01760257 0.26515152
v 0.00574197 -0.01760257 0.40151517
v -0.13062167 -0.16911773 0.41666668
v -0.03971258 -0.22972379 0.28030304
v 0.00574197 -0.16911773 0.38636365
v -0.11547016 -0.15396621 0.43181820
v 0.00574197 -0.01760257 0.26515152
v -0.14577319 -0.22972379 0.35606062
v -0.05486410 -0.21457227 0.34090910
v -0.11709351 -0.24015180 0.26412306
v -0.00940955 -0.16911773 0.41666668
v 0.00574197 -0.18426924 0.31060607
v -0.11547016 -0.16911773 0.43181820
v -0.13062167 -0.15396621 0.41666668
v -0.13062167 -0.22972379 0.35606062
v -0.14577319 -0.19942076 0.37121213
v -0.03971258 -0.22972379 0.26515152
v -0.09038396 -0.23142296 0.26197767
v -0.14250709 -0.19913760 0.33953025
v -0.00940955 -0.18426924 0.37121213
v -0.03971258 -0.21457227 0.32575759
v -0.00940955 -0.19942076 0.31060607
v -0.11547016 -0.19942076 0.40151517
v -0.14577319 -0.21457227 0.37121213
v -0.08516713 -0.22972379 0.32575759
v -0.08516713 -0.24487531 0.28030304
v -0.13993399 -0.21993748 0.33144178
v -0.10031864 -0.19942076 0.40151517
v -0.05486410 -0.18426924 0.41666668
f 9 2 6
f 10 6 4
f 10 3 6
f 11 5 4
f 11 4 6
f 11 6 2
f 14 1 12
f 15 9 6
f 15 6 3
f 16 8 2
f 16 2 9
f 17 10 7
f 17 3 10
f 18 10 4
f 18 7 10
f 19 12 1
f 20 4 5
f 20 18 4
f 20 7 18
f 21 2 8
f 22 11 2
f 22 21 14
f 22 2 21
f 22 14 5
f 22 5 11
f 23 20 5
f 23 12 20
f 24 15 8
f 24 8 9
f 24 9 15
f 25 8 15
f 25 13 1
f 25 15 3
f 25 3 13
f 26 16 9
f 26 9 8
f 26 8 16
f 27 17 12
f 27 3 17
f 27 12 19
f 28 17 7
f 28 12 17
f 28 20 12
f 28 7 20
f 29 13 3
f 29 19 1
f 29 1 13
f 30 21 8
f 30 1 14
f 30 14 21
f 30 25 1
f 30 8 25
f 31 14 12
f 31 12 23
f 31 23 5
f 31 5 14
f 32 27 19
f 32 3 27
f 33 29 3
f 33 19 29
f 33 32 19
f 33 3 32