# https://github.com/mikedh/trimesh
v -0.05486410 0.08845804 0.26515152
v -0.00940955 0.14906410 -0.09848485
v -0.00535711 0.20667910 0.00674236
v -0.07001561 0.19451865 0.11363637
v -0.15714387 0.08762200 -0.09828187
v -0.05312750 0.14535916 0.26427191
v -0.00940955 0.16421562 0.00757576
v -0.05486410 0.08845804 -0.09848485
v -0.13062167 0.19451865 -0.09848485
v -0.04880955 0.15206655 0.24638730
v -0.14577319 0.10360955 0.25000001
v -0.00940955 0.14906410 -0.03787879
v -0.12419747 0.08416972 0.26360519
v -0.00940955 0.20967016 -0.09848485
v -0.16092471 0.13391259 -0.09848485
v -0.08516713 0.20967016 -0.03787879
v -0.07001561 0.16421562 0.25000001
v -0.16092471 0.08845804 0.18939395
v -0.13062167 0.11876107 0.26515152
v -0.13062167 0.17936713 0.05303031
v -0.03971258 0.20967016 0.00757576
v -0.08516713 0.20967016 -0.09848485
v -0.05486410 0.19451865 0.11363637
v -0.14577319 0.08845804 0.25000001
v -0.08516713 0.14906410 0.26515152
v -0.13062167 0.19451865 -0.05303030
v -0.14577319 0.13391259 0.17424243
v -0.11547016 0.14906410 0.21969698
v -0.10031864 0.17936713 0.12878789
v -0.07001561 0.20967016 -0.00757576
v -0.07001561 0.17936713 0.18939395
v -0.16092471 0.14906410 -0.00757576
v -0.10031864 0.19451865 0.05303031
v -0.14577319 0.11876107 0.21969698
v -0.10031864 0.14906410 0.25000001
v -0.13062167 0.14906410 0.17424243
v -0.11547016 0.16421562 0.15909092
v -0.16092471 0.14906410 -0.05303030
v -0.16092471 0.10360955 0.18939395
v -0.14577319 0.16421562 0.05303031
v -0.11547016 0.19451865 0.00757576
v -0.16092471 0.13391259 0.06818182
f 7 3 1
f 8 2 1
f 9 2 8
f 10 6 1
f 10 1 3
f 12 7 1
f 12 1 2
f 12 2 3
f 12 3 7
f 13 8 1
f 13 5 8
f 14 3 2
f 14 2 9
f 15 9 8
f 15 8 5
f 17 10 3
f 17 6 10
f 18 5 13
f 18 15 5
f 19 13 1
f 21 3 14
f 21 14 16
f 22 16 14
f 22 14 9
f 22 9 16
f 23 17 3
f 23 21 4
f 23 3 21
f 24 18 13
f 24 11 18
f 24 19 11
f 24 13 19
f 25 19 1
f 25 1 6
f 25 6 17
f 26 16 9
f 30 21 16
f 30 4 21
f 31 23 4
f 31 17 23
f 31 28 17
f 32 26 9
f 32 15 18
f 33 30 16
f 33 4 30
f 33 20 29
f 33 31 4
f 33 29 31
f 34 11 19
f 34 19 27
f 35 25 17
f 35 17 28
f 35 28 19
f 35 19 25
f 36 20 27
f 36 27 19
f 36 19 28
f 37 29 20
f 37 31 29
f 37 28 31
f 37 36 28
f 37 20 36
f 38 32 9
f 38 9 15
f 38 15 32
f 39 32 18
f 39 34 27
f 39 18 11
f 39 11 34
f 40 27 20
f 40 20 26
f 40 26 32
f 40 39 27
f 41 26 20
f 41 20 33
f 41 33 16
f 41 16 26
f 42 40 32
f 42 32 39
f 42 39 40