# https://github.com/mikedh/trimesh
v -0.10031864 -0.18426924 -0.25000000
v 0.03483177 0.01203422 -0.37109847
v 0.02089348 0.07330652 -0.23484849
v -0.14577319 0.07330652 -0.25000000
v -0.07001561 0.01270046 -0.37121213
v -0.07001561 0.07330652 -0.35606061
v -0.12318855 -0.17635113 -0.22671009
v 0.02232289 -0.11998720 -0.23366668
v -0.05486410 -0.09336015 -0.35606061
v 0.02081782 0.07157069 -0.34661443
v -0.08516713 0.05815501 -0.35606061
v 0.02089348 0.05815501 -0.37121213
v -0.13215714 0.07079028 -0.22918244
v -0.13062167 -0.18426924 -0.25000000
v -0.03971258 -0.13881470 -0.32575758
v -0.07001561 0.05815501 -0.37121213
v -0.10031864 0.07330652 -0.32575758
v -0.13341817 -0.00177712 -0.22834561
v -0.07001561 -0.10851167 -0.34090910
v -0.11547016 -0.07820863 -0.29545455
v -0.14577319 -0.00245106 -0.25000000
v 0.02089348 -0.12366318 -0.26515152
v -0.07001561 -0.16911773 -0.28030304
v 0.02089348 -0.06305712 -0.35606061
v -0.13062167 0.07330652 -0.28030304
v -0.07001561 -0.13881470 -0.32575758
v -0.08516713 0.02785198 -0.35606061
v -0.10031864 -0.15396621 -0.29545455
v -0.13062167 -0.12366318 -0.26515152
v -0.02456107 -0.09336015 -0.35606061
v 0.02089348 -0.09336015 -0.32575758
v -0.10031864 -0.16911773 -0.28030304
v -0.13062167 -0.00245106 -0.28030304
v -0.10031864 -0.09336015 -0.31060607
f 6 4 3
f 8 2 3
f 8 7 1
f 8 3 7
f 10 6 3
f 10 3 2
f 12 2 5
f 12 10 2
f 12 6 10
f 13 7 3
f 13 3 4
f 14 1 7
f 16 11 6
f 16 5 11
f 16 12 5
f 16 6 12
f 17 4 6
f 17 6 11
f 18 13 4
f 18 7 13
f 19 5 9
f 21 14 7
f 21 18 4
f 21 7 18
f 22 8 1
f 22 2 8
f 23 1 14
f 23 22 1
f 23 15 22
f 25 17 11
f 25 4 17
f 25 21 4
f 26 15 23
f 26 19 9
f 26 9 15
f 27 11 5
f 27 25 11
f 28 26 14
f 28 19 26
f 29 14 21
f 30 24 15
f 30 15 9
f 30 2 24
f 30 9 5
f 30 5 2
f 31 22 15
f 31 15 24
f 31 24 2
f 31 2 22
f 32 26 23
f 32 23 14
f 32 14 26
f 33 27 20
f 33 21 25
f 33 25 27
f 33 29 21
f 33 20 29
f 34 5 19
f 34 19 28
f 34 27 5
f 34 20 27
f 34 29 20
f 34 28 14
f 34 14 29