# https://github.com/mikedh/trimesh
v 0.00574197 -0.15396621 0.43181820
v 0.05119651 -0.06305712 0.47727274
v -0.07001561 -0.07820863 0.49242426
v -0.10031864 0.01270046 0.46212123
v 0.00574197 -0.01760257 0.40151517
v 0.02089348 -0.01760257 0.50757578
v -0.12223384 -0.15272762 0.39635564
v 0.00574197 -0.10851167 0.47727274
v -0.00384810 -0.14631423 0.39914474
v -0.05486410 -0.01760257 0.50757578
v 0.04479840 -0.01445592 0.48145640
v -0.08516713 -0.15396621 0.44696971
v -0.13062167 -0.10851167 0.43181820
v -0.13062167 -0.00245106 0.40151517
v 0.00574197 -0.04790560 0.50757578
v 0.05702925 -0.02107653 0.47007018
v 0.04550670 -0.05767744 0.45674817
v -0.10741290 0.00922347 0.39726204
v -0.10031864 -0.06305712 0.47727274
v -0.06993239 0.01266719 0.46205464
v -0.13062167 -0.15396621 0.41666668
v -0.08516713 -0.10851167 0.47727274
v -0.00940955 -0.15396621 0.44696971
v -0.13062167 -0.00245106 0.41666668
v -0.03971258 -0.04790560 0.50757578
v 0.05119651 -0.04790560 0.49242426
v -0.07001561 0.01270046 0.40151517
v -0.05486410 -0.03275409 0.50757578
v -0.11547016 -0.13881470 0.44696971
v -0.10031864 -0.07820863 0.47727274
v -0.11547016 0.01270046 0.43181820
v -0.11547016 -0.00245106 0.44696971
v 0.03604500 -0.06305712 0.49242426
v 0.02089348 -0.03275409 0.50757578
v -0.11547016 -0.15396621 0.43181820
v -0.13062167 -0.06305712 0.43181820
f 9 1 7
f 10 6 4
f 15 6 10
f 17 2 1
f 17 1 9
f 17 16 2
f 17 9 5
f 17 5 16
f 18 9 7
f 18 5 9
f 18 7 14
f 19 10 4
f 20 4 6
f 20 6 11
f 21 7 1
f 21 1 12
f 21 14 7
f 21 13 14
f 22 12 8
f 22 8 15
f 23 12 1
f 23 1 8
f 23 8 12
f 24 14 13
f 25 15 10
f 25 22 15
f 25 3 22
f 26 2 16
f 26 16 11
f 26 11 6
f 26 8 1
f 26 1 2
f 27 16 5
f 27 11 16
f 27 20 11
f 27 5 18
f 27 4 20
f 28 10 19
f 28 25 10
f 28 3 25
f 29 12 22
f 29 13 21
f 30 22 3
f 30 29 22
f 30 19 13
f 30 13 29
f 30 28 19
f 30 3 28
f 31 18 14
f 31 14 24
f 31 24 4
f 31 27 18
f 31 4 27
f 32 19 4
f 32 4 24
f 33 15 8
f 33 8 26
f 34 26 6
f 34 6 15
f 34 33 26
f 34 15 33
f 35 29 21
f 35 21 12
f 35 12 29
f 36 32 24
f 36 24 13
f 36 13 19
f 36 19 32