# https://github.com/mikedh/trimesh
v 0.11180258 -0.12366318 0.15909092
v 0.18756015 -0.12366318 -0.15909091
v 0.17240864 -0.03275409 0.23484849
v 0.09665106 -0.01760257 0.34090910
v 0.11180258 -0.01760257 -0.15909091
v 0.11180258 -0.07820863 0.31060607
v 0.17240864 -0.12366318 0.00757576
v 0.10941666 -0.12588761 -0.23041517
v 0.17460225 -0.01863292 -0.15752812
v 0.14210561 -0.03275409 0.34090910
v 0.09095234 -0.09793653 0.21385438
v 0.18756015 -0.10851167 -0.05303030
v 0.14210561 -0.10851167 0.17424243
v 0.14210561 -0.13881470 0.02272728
v 0.11180258 -0.09336015 -0.23484849
v 0.15861408 -0.01268964 0.23153099
v 0.09264922 -0.04137465 0.33828221
v 0.09665106 -0.07820863 0.31060607
v 0.11180258 -0.13881470 0.05303031
v 0.09665106 -0.01760257 0.14393940
v 0.18756015 -0.12366318 -0.11363636
v 0.17240864 -0.04790560 0.20454546
v 0.18756015 -0.01760257 0.09848485
v 0.12695409 -0.10851167 0.20454546
v 0.14210561 -0.07820863 0.26515152
v 0.15725712 -0.13881470 -0.21969697
v 0.14210561 -0.01760257 0.34090910
v 0.12695409 -0.04790560 0.34090910
v 0.11180258 -0.10851167 0.21969698
v 0.09356370 -0.11267893 0.14198760
v 0.12695409 -0.13881470 0.05303031
v 0.14368346 -0.01342326 0.29263655
v 0.17240864 -0.13881470 -0.08333333
v 0.18756015 -0.04790560 0.08333334
v 0.12695409 -0.09336015 0.25000001
v 0.15725712 -0.09336015 0.17424243
v 0.15725712 -0.04790560 0.28030304
v 0.15725712 -0.12366318 -0.23484849
v 0.14210561 -0.13881470 -0.23484849
v 0.15725712 -0.03275409 0.29545456
v 0.14210561 -0.06305712 0.29545456
v 0.15725712 -0.13881470 -0.02272727
v 0.17240864 -0.13881470 -0.15909091
v 0.18756015 -0.03275409 0.09848485
v 0.15725712 -0.07820863 0.21969698
v 0.14728398 -0.09345892 -0.22668615
f 15 8 5
f 15 5 9
f 16 9 5
f 18 11 1
f 18 17 11
f 20 5 8
f 20 11 17
f 20 17 4
f 21 12 7
f 21 2 12
f 22 7 12
f 23 9 16
f 23 12 2
f 23 2 9
f 26 14 19
f 27 23 16
f 27 3 23
f 27 4 10
f 28 10 4
f 28 4 17
f 28 18 6
f 28 17 18
f 29 18 1
f 29 6 18
f 29 1 24
f 30 8 19
f 30 20 8
f 30 11 20
f 30 19 1
f 30 1 11
f 31 19 14
f 31 1 19
f 31 24 1
f 31 14 13
f 31 13 24
f 32 16 5
f 32 5 20
f 32 20 4
f 32 27 16
f 32 4 27
f 33 21 7
f 33 14 26
f 33 2 21
f 34 22 12
f 34 3 22
f 34 12 23
f 35 25 6
f 35 24 13
f 35 13 25
f 35 29 24
f 35 6 29
f 36 25 13
f 36 13 7
f 37 22 3
f 38 9 2
f 38 2 26
f 39 26 19
f 39 19 8
f 39 38 26
f 39 8 15
f 39 15 38
f 40 27 10
f 40 3 27
f 40 37 3
f 40 10 37
f 41 10 28
f 41 37 10
f 41 28 6
f 41 6 25
f 42 33 7
f 42 14 33
f 42 7 13
f 42 13 14
f 43 33 26
f 43 26 2
f 43 2 33
f 44 34 23
f 44 23 3
f 44 3 34
f 45 36 7
f 45 7 22
f 45 22 37
f 45 25 36
f 45 41 25
f 45 37 41
f 46 38 15
f 46 15 9
f 46 9 38