# https://github.com/mikedh/trimesh
v 0.02089348 -0.15396621 0.40151517
v 0.05385227 -0.14126801 -0.09839134
v 0.04497540 -0.10197798 0.35483126
v 0.00574197 -0.10851167 0.40151517
v -0.00206378 -0.19081368 -0.02191557
v 0.00574197 -0.12366318 -0.09848485
v 0.03280713 -0.10562000 0.40054512
v 0.05119651 -0.12366318 0.35606062
v 0.02089348 -0.19942076 0.05303031
v -0.00384810 -0.14631423 0.39914474
v 0.05119651 -0.12366318 -0.09848485
v 0.00574197 -0.10851167 0.14393940
v 0.02089348 -0.18426924 -0.08333333
v 0.02089348 -0.16911773 0.31060607
v 0.05119651 -0.15396621 0.08333334
v -0.00214614 -0.17360041 -0.07912785
v -0.00205759 -0.19125334 0.05159717
v 0.02089348 -0.16911773 -0.09848485
v 0.05354821 -0.11870896 0.14526612
v 0.02089348 -0.19942076 -0.02272727
v 0.03604500 -0.15396621 0.28030304
v -0.00312928 -0.16148003 0.30892006
v -0.00029260 -0.16391663 -0.09586811
f 7 3 4
f 7 4 1
f 8 7 1
f 8 3 7
f 10 1 4
f 12 4 3
f 12 11 6
f 12 3 11
f 12 10 4
f 12 6 10
f 14 8 1
f 14 1 10
f 16 10 6
f 16 5 10
f 16 13 5
f 17 10 5
f 18 11 2
f 18 6 11
f 18 2 13
f 19 2 11
f 19 15 2
f 19 8 15
f 19 11 3
f 19 3 8
f 20 5 13
f 20 17 5
f 20 9 17
f 20 13 2
f 20 15 9
f 20 2 15
f 21 14 9
f 21 8 14
f 21 15 8
f 21 9 15
f 22 14 10
f 22 10 17
f 22 17 9
f 22 9 14
f 23 16 6
f 23 6 18
f 23 18 13
f 23 13 16