# https://github.com/mikedh/trimesh
v 0.17991509 0.04418306 0.14334410
v 0.20271167 0.07330652 -0.03787879
v 0.20271167 0.25512471 0.14393940
v 0.14210561 0.30057926 0.00757576
v 0.12695409 0.04300349 -0.09848485
v 0.20271167 0.30057926 -0.03787879
v 0.12695409 0.25512471 0.14393940
v 0.20271167 0.05815501 0.12878789
v 0.18021958 0.04318999 -0.09817861
v 0.18959158 0.29658256 0.00860536
v 0.14210561 0.27027623 -0.09848485
v 0.12695409 0.04300349 0.14393940
v 0.20271167 0.07330652 0.14393940
v 0.20271167 0.04300349 0.08333334
v 0.20271167 0.11876107 -0.08333333
v 0.17240864 0.30057926 -0.05303030
v 0.12695409 0.28542774 -0.05303030
v 0.18756015 0.27027623 -0.09848485
v 0.20271167 0.04300349 0.02272728
v 0.15725712 0.28542774 -0.08333333
v 0.15725712 0.30057926 -0.03787879
v 0.12695409 0.27027623 -0.08333333
v 0.20271167 0.25512471 -0.08333333
v 0.18756015 0.28542774 -0.08333333
v 0.14210561 0.30057926 -0.00757576
v 0.13021458 0.24510250 -0.09372402
v 0.18756015 0.30057926 -0.05303030
f 6 3 2
f 7 3 4
f 8 2 3
f 10 6 4
f 10 4 3
f 10 3 6
f 12 3 7
f 12 7 5
f 13 8 3
f 13 1 8
f 13 12 1
f 13 3 12
f 14 8 1
f 14 1 12
f 14 12 5
f 14 2 8
f 15 6 2
f 15 2 9
f 16 4 6
f 17 7 4
f 17 5 7
f 18 9 5
f 18 5 11
f 18 15 9
f 19 14 5
f 19 5 9
f 19 9 2
f 19 2 14
f 20 18 11
f 21 4 16
f 21 20 17
f 21 16 20
f 22 5 17
f 22 20 11
f 22 17 20
f 23 18 6
f 23 6 15
f 23 15 18
f 24 6 18
f 24 20 16
f 24 18 20
f 25 21 17
f 25 17 4
f 25 4 21
f 26 22 11
f 26 11 5
f 26 5 22
f 27 24 16
f 27 16 6
f 27 6 24