# https://github.com/mikedh/trimesh
v -0.00940955 -0.06305712 -0.35606061
v 0.06634803 -0.00245106 -0.49242425
v 0.05119651 0.04300349 -0.37121213
v -0.05311178 0.04006508 -0.36785530
v -0.05486410 -0.01760257 -0.50757577
v -0.00940955 0.04300349 -0.49242425
v -0.04956355 0.01582430 -0.35182313
v 0.06634803 -0.00245106 -0.40151516
v -0.02456107 -0.03275409 -0.50757577
v 0.06634803 0.04300349 -0.49242425
v -0.05486410 0.04300349 -0.38636365
v 0.02079003 -0.04470314 -0.35341039
v -0.05486410 -0.06305712 -0.37121213
v 0.00574197 -0.03275409 -0.49242425
v 0.00574197 0.01270046 -0.50757577
v 0.06634803 0.04300349 -0.41666668
v -0.05486410 0.01270046 -0.50757577
v -0.04545764 -0.05919749 -0.34787732
v 0.02089348 0.01270046 -0.35606061
v 0.04152520 -0.01977865 -0.36397441
v 0.02089348 -0.04790560 -0.38636365
v -0.02456107 -0.06305712 -0.38636365
v -0.05486410 -0.03275409 -0.49242425
v 0.06634803 0.02785198 -0.40151516
v -0.02456107 0.04300349 -0.47727274
v -0.03971258 -0.06305712 -0.38636365
v -0.00940955 -0.06305712 -0.37121213
v -0.03971258 -0.03275409 -0.50757577
f 7 3 4
f 10 6 3
f 10 8 2
f 11 4 3
f 11 3 6
f 13 11 5
f 13 7 4
f 13 4 11
f 14 9 2
f 15 10 2
f 15 2 9
f 15 9 5
f 15 6 10
f 16 10 3
f 16 8 10
f 17 5 11
f 17 15 5
f 17 6 15
f 18 1 12
f 18 13 1
f 18 7 13
f 19 12 3
f 19 3 7
f 19 18 12
f 19 7 18
f 20 12 8
f 20 8 3
f 20 3 12
f 21 12 1
f 21 2 8
f 21 8 12
f 21 14 2
f 22 1 13
f 22 9 14
f 23 13 5
f 24 16 3
f 24 3 8
f 24 8 16
f 25 17 11
f 25 11 6
f 25 6 17
f 26 22 13
f 26 9 22
f 26 13 23
f 27 21 1
f 27 1 22
f 27 22 14
f 27 14 21
f 28 23 5
f 28 5 9
f 28 26 23
f 28 9 26