# https://github.com/mikedh/trimesh
v 0.12695409 -0.01760257 0.26515152
v 0.12695409 -0.01760257 -0.09848485
v 0.13350999 0.27278382 0.18735223
v 0.11180258 0.28542774 0.18939395
v 0.02089348 -0.01760257 0.26515152
v 0.12695409 0.27027623 -0.08333333
v 0.12968581 0.24791019 0.26302698
v 0.13021458 0.24510250 -0.09372402
v 0.12695409 0.28542774 -0.03787879
v 0.01795789 0.20130206 -0.10050008
v 0.12695409 0.27027623 0.25000001
v 0.01757689 0.19827531 0.26623541
v 0.02089348 -0.01760257 -0.09848485
v 0.03604500 0.23997319 -0.08333333
v 0.09665106 0.25512471 -0.09848485
v 0.08149954 0.25512471 0.26515152
v 0.11180258 0.28542774 -0.03787879
v 0.02089348 0.23997319 -0.05303030
v 0.02089348 0.22482168 -0.09848485
v 0.11180258 0.27027623 0.25000001
v 0.11180258 0.27027623 -0.08333333
v 0.03604500 0.25512471 0.12878789
v 0.08149954 0.27027623 -0.05303030
v 0.09665106 0.27027623 0.23484849
v 0.06634803 0.27027623 0.11363637
v 0.08149954 0.27027623 0.18939395
v 0.06634803 0.27027623 0.00757576
v 0.03604500 0.25512471 0.00757576
f 1 2 3
f 5 2 1
f 7 1 3
f 8 3 2
f 9 4 3
f 9 8 6
f 9 3 8
f 11 7 3
f 11 3 4
f 12 5 1
f 13 10 2
f 13 2 5
f 13 12 10
f 13 5 12
f 15 8 2
f 15 2 10
f 15 6 8
f 16 12 1
f 16 1 7
f 16 7 11
f 17 9 6
f 17 4 9
f 18 10 12
f 19 15 10
f 19 14 15
f 19 18 14
f 19 10 18
f 20 16 11
f 20 11 4
f 21 15 14
f 21 17 6
f 21 6 15
f 22 18 12
f 22 12 16
f 23 14 18
f 23 21 14
f 23 17 21
f 24 20 4
f 24 16 20
f 24 22 16
f 25 22 4
f 25 4 17
f 26 24 4
f 26 4 22
f 26 22 24
f 27 25 17
f 27 17 23
f 27 23 18
f 27 22 25
f 28 27 18
f 28 18 22
f 28 22 27