# https://github.com/mikedh/trimesh
v -0.07001561 -0.26002682 0.20454546
v 0.00574197 -0.18426924 -0.11363636
v 0.00574197 -0.01760257 0.26515152
v -0.08516713 -0.01760257 0.26515152
v -0.08932108 -0.17160619 -0.20106299
v -0.07001561 -0.24487531 0.26515152
v -0.07001561 -0.26002682 -0.03787879
v 0.00574197 -0.01760257 -0.09848485
v -0.09219585 -0.24887861 0.20088403
v 0.00574197 -0.18426924 0.26515152
v -0.07001561 -0.18426924 -0.20454546
v 0.00574197 -0.21457227 0.05303031
v -0.08516713 -0.01760257 -0.09848485
v -0.09148132 -0.24894413 -0.03415692
v -0.09038396 -0.23142296 0.26197767
v -0.03971258 -0.22972379 0.26515152
v -0.05486410 -0.24487531 -0.06818182
v -0.00940955 -0.18426924 -0.14393940
v -0.07301464 -0.16422068 -0.20236411
v -0.05486410 -0.26002682 0.09848485
v -0.08516713 -0.24487531 -0.08333333
v -0.00940955 -0.21457227 0.21969698
v -0.00940955 -0.22972379 0.00757576
v 0.00574197 -0.19942076 -0.08333333
v -0.08519752 -0.16903546 -0.20451972
v -0.07001561 -0.24487531 -0.08333333
v 0.00574197 -0.19942076 0.17424243
v -0.03971258 -0.24487531 0.17424243
v -0.05486410 -0.26002682 -0.00757576
v -0.03971258 -0.22972379 -0.08333333
v 0.00574197 -0.21457227 -0.00757576
v -0.02456107 -0.22972379 0.20454546
v -0.00940955 -0.22972379 0.03787879
v -0.03971258 -0.24487531 -0.03787879
f 6 3 4
f 8 3 2
f 8 4 3
f 9 1 6
f 9 7 1
f 10 2 3
f 10 3 6
f 12 2 10
f 13 4 8
f 13 9 4
f 13 5 9
f 14 9 5
f 14 7 9
f 15 9 6
f 15 6 4
f 15 4 9
f 16 10 6
f 16 6 1
f 18 11 8
f 18 8 2
f 18 17 11
f 19 8 11
f 19 13 8
f 20 1 7
f 21 7 14
f 21 14 5
f 21 5 11
f 22 10 16
f 24 18 2
f 24 2 12
f 25 19 11
f 25 11 5
f 25 5 13
f 25 13 19
f 26 17 7
f 26 7 21
f 26 21 11
f 26 11 17
f 27 22 12
f 27 12 10
f 27 10 22
f 28 1 20
f 28 16 1
f 29 7 17
f 29 23 20
f 29 20 7
f 30 24 17
f 30 17 18
f 30 18 24
f 31 24 12
f 31 12 23
f 32 12 22
f 32 22 16
f 32 16 28
f 33 23 12
f 33 32 28
f 33 12 32
f 33 28 20
f 33 20 23
f 34 23 29
f 34 31 23
f 34 24 31
f 34 29 17
f 34 17 24