# https://github.com/mikedh/trimesh
v -0.17607622 -0.32063288 0.12878789
v -0.08516713 -0.27517834 0.00757576
v -0.08516713 -0.10851167 0.14393940
v -0.20637925 -0.10851167 0.12878789
v -0.20637925 -0.30548137 0.00757576
v -0.08516713 -0.10851167 0.00757576
v -0.20637925 -0.24487531 0.14393940
v -0.08516713 -0.27517834 0.12878789
v -0.17607622 -0.32063288 0.03787879
v -0.19365886 -0.11072923 0.00771592
v -0.20637925 -0.12366318 0.14393940
v -0.19122774 -0.32063288 0.12878789
v -0.11547016 -0.29032985 0.14393940
v -0.16092471 -0.30548137 0.00757576
v -0.17086063 -0.29574645 0.14404232
v -0.18780303 -0.10888930 0.14363761
v -0.20637925 -0.30548137 0.08333334
v -0.19122774 -0.32063288 0.03787879
v -0.08921073 -0.25275149 0.14341667
v -0.11547016 -0.29032985 0.00757576
v -0.18617782 -0.30077378 0.14238850
f 6 3 2
f 6 4 3
f 6 2 5
f 7 4 5
f 8 1 2
f 8 2 3
f 9 2 1
f 10 6 5
f 10 5 4
f 10 4 6
f 11 4 7
f 12 9 1
f 13 1 8
f 14 9 5
f 14 5 2
f 15 11 7
f 15 3 11
f 15 13 3
f 16 11 3
f 16 3 4
f 16 4 11
f 17 12 7
f 17 7 5
f 17 5 12
f 18 12 5
f 18 5 9
f 18 9 12
f 19 13 8
f 19 8 3
f 19 3 13
f 20 14 2
f 20 2 9
f 20 9 14
f 21 15 7
f 21 7 12
f 21 12 1
f 21 1 13
f 21 13 15