# https://github.com/mikedh/trimesh
v -0.14577319 -0.26002682 -0.09848485
v -0.07001561 -0.22972379 -0.11363636
v -0.07227188 -0.21035806 -0.09633338
v -0.15714387 0.08762200 -0.09828187
v -0.14577319 -0.13881470 -0.23484849
v -0.07001561 0.08845804 -0.23484849
v -0.17839137 -0.19815500 -0.09228694
v -0.07001561 -0.22972379 -0.09848485
v -0.08516713 -0.18426924 -0.23484849
v -0.07001561 0.08845804 -0.15909091
v -0.14577319 0.08845804 -0.23484849
v -0.17037769 -0.25370686 -0.09295999
v -0.11547016 0.08845804 -0.09848485
v -0.13062167 -0.24487531 -0.14393940
v -0.07001561 -0.01760257 -0.23484849
v -0.19122774 -0.03275409 -0.11363636
v -0.19122774 -0.19942076 -0.11363636
v -0.16149838 0.06971500 -0.09741252
v -0.16092471 0.08845804 -0.18939394
v -0.14577319 -0.26002682 -0.11363636
v -0.14577319 -0.19942076 -0.21969697
v -0.17607622 -0.12366318 -0.17424243
v -0.19122774 -0.03275409 -0.09848485
v -0.17607622 -0.26002682 -0.11363636
v -0.13062167 -0.22972379 -0.17424243
v -0.16092471 -0.15396621 -0.20454546
v -0.16092471 0.07330652 -0.20454546
v -0.17607622 0.07330652 -0.12878788
v -0.16092471 -0.22972379 -0.17424243
v -0.11547016 -0.19942076 -0.21969697
v -0.17607622 -0.06305712 -0.17424243
v -0.17607622 0.04300349 -0.15909091
v -0.17607622 -0.24487531 -0.12878788
f 8 1 2
f 8 2 6
f 9 5 6
f 10 8 6
f 10 3 8
f 11 6 5
f 11 10 6
f 12 3 7
f 12 8 3
f 12 1 8
f 13 7 3
f 13 3 10
f 13 10 11
f 14 9 2
f 15 9 6
f 15 6 2
f 15 2 9
f 17 12 7
f 18 13 4
f 18 7 13
f 19 13 11
f 19 4 13
f 20 14 2
f 20 2 1
f 21 5 9
f 22 11 5
f 22 17 16
f 23 17 7
f 23 16 17
f 23 7 18
f 23 18 4
f 24 20 1
f 24 1 12
f 24 12 17
f 24 14 20
f 25 9 14
f 26 17 22
f 26 22 5
f 26 5 21
f 27 19 11
f 28 16 23
f 28 19 27
f 28 23 4
f 28 4 19
f 29 21 25
f 29 25 14
f 29 14 24
f 29 26 21
f 29 17 26
f 30 25 21
f 30 21 9
f 30 9 25
f 31 22 16
f 31 27 11
f 31 11 22
f 32 28 27
f 32 16 28
f 32 31 16
f 32 27 31
f 33 29 24
f 33 24 17
f 33 17 29