# https://github.com/mikedh/trimesh
v 0.02089348 0.08845804 0.26515152
v 0.02089348 0.08845804 -0.09848485
v 0.02875226 0.21327829 0.24794079
v 0.00574197 0.22482168 0.25000001
v -0.05486410 0.08845804 0.26515152
v 0.02089348 0.22482168 -0.08333333
v 0.02448990 0.20608099 0.26422258
v 0.02346330 0.20507087 -0.09701275
v -0.05433061 0.19090829 0.00704308
v 0.00574197 0.20967016 0.26515152
v -0.05486410 0.16421562 0.26515152
v -0.00940955 0.22482168 -0.06818182
v -0.05486410 0.08845804 -0.09848485
v -0.05486410 0.19451865 0.12878789
v -0.02456107 0.19451865 0.26515152
v -0.00940955 0.20967016 -0.09848485
v -0.05486410 0.14906410 -0.09848485
v -0.03971258 0.20967016 0.00757576
v -0.05486410 0.17936713 0.21969698
v 0.00574197 0.22482168 -0.08333333
v -0.00940955 0.22482168 0.11363637
v -0.03971258 0.20967016 0.02272728
f 1 2 3
f 5 2 1
f 6 4 3
f 7 1 3
f 7 3 4
f 8 6 3
f 8 3 2
f 10 5 1
f 10 1 7
f 10 7 4
f 11 5 10
f 12 4 6
f 13 2 5
f 13 5 11
f 14 13 11
f 15 11 10
f 15 10 4
f 16 6 8
f 16 8 2
f 16 2 13
f 17 14 9
f 17 13 14
f 17 16 13
f 17 9 12
f 17 12 16
f 18 12 9
f 18 9 14
f 19 14 11
f 19 11 15
f 19 15 4
f 19 4 14
f 20 16 12
f 20 12 6
f 20 6 16
f 21 14 4
f 21 4 12
f 21 12 18
f 22 21 18
f 22 18 14
f 22 14 21