# https://github.com/mikedh/trimesh
v 0.03272305 -0.18353876 0.39651948
v 0.03107817 -0.18353876 0.39719546
v 0.03272305 -0.20489207 0.38714015
v 0.03272305 -0.18353876 0.00715157
v 0.02444641 -0.18353876 0.39989942
v 0.03272305 -0.25980741 0.35655183
v 0.03272305 -0.33803904 0.05003443
v 0.03217477 -0.18353876 0.00630659
v 0.01217503 -0.18353876 0.40095562
v 0.03272305 -0.26820990 0.35118616
v -0.02892103 -0.18353876 0.40222311
v 0.03272305 -0.40954390 0.10939445
v -0.09314994 -0.40133294 0.04027489
v -0.07711881 -0.32738632 -0.00548092
v -0.00317725 -0.18775196 -0.02939391
v -0.00030522 -0.18353876 -0.02939391
v 0.02663960 -0.18353876 -0.00019976
v 0.03113039 -0.18353876 0.00474338
v 0.02308872 -0.25959197 0.35621381
v -0.16202630 -0.22325304 0.35756579
v 0.03272305 -0.31728420 0.30965528
v -0.03035704 -0.19548416 0.39377329
v -0.16528997 -0.18353876 0.36681837
v 0.00308899 -0.41725218 0.11104216
v 0.03272305 -0.39695215 0.18024623
v -0.09064344 -0.42807245 0.11480234
v -0.16902360 -0.37514400 0.04834448
v -0.13166118 -0.29595482 0.00960203
v -0.05550031 -0.18353876 -0.02939391
v -0.05469092 -0.18521446 -0.02939391
v -0.04192346 -0.20565811 -0.02939391
v -0.21004131 -0.18353876 0.35452384
v -0.21061572 -0.18679442 0.35342538
v -0.23400967 -0.20910528 0.32296377
v -0.23400967 -0.22928560 0.30766958
v -0.18844892 -0.26215342 0.30906379
v -0.12187018 -0.28436852 0.30374041
v 0.01959007 -0.31541699 0.30817658
v -0.07923367 -0.39814910 0.18633009
v 0.00789310 -0.40049508 0.18121795
v -0.17403659 -0.39376831 0.11860476
v -0.23400967 -0.30938444 0.12211144
v -0.23400967 -0.27713904 0.08611519
v -0.23400967 -0.25499573 0.06993377
v -0.23400967 -0.22868712 0.06549761
v -0.23400967 -0.18353876 0.06186419
v -0.21244338 -0.18353876 0.35279164
v -0.23400967 -0.18353876 0.33183607
v -0.23400967 -0.28573301 0.18151370
v -0.15604727 -0.36066112 0.18603435
v -0.23400967 -0.30677512 0.12980078
f 1 2 3
f 1 3 6
f 1 6 10
f 1 10 21
f 1 21 25
f 1 25 12
f 1 12 7
f 1 7 4
f 1 4 8
f 1 8 18
f 1 18 17
f 1 17 16
f 1 16 29
f 1 29 46
f 1 46 48
f 1 48 47
f 1 47 32
f 1 32 23
f 1 23 11
f 1 11 9
f 1 9 5
f 1 5 2
f 2 5 3
f 3 5 6
f 4 7 8
f 5 9 6
f 6 9 11
f 6 11 10
f 7 12 13
f 7 13 14
f 7 14 15
f 7 15 16
f 7 16 17
f 7 17 18
f 7 18 8
f 10 11 19
f 10 19 20
f 10 20 21
f 11 22 19
f 11 23 20
f 11 20 22
f 12 24 13
f 12 25 24
f 13 24 26
f 13 26 27
f 13 27 14
f 14 28 29
f 14 29 30
f 14 30 31
f 14 31 15
f 14 27 28
f 15 31 30
f 15 30 29
f 15 29 16
f 19 22 20
f 20 23 32
f 20 32 33
f 20 33 34
f 20 34 35
f 20 35 36
f 20 36 37
f 20 37 38
f 20 38 21
f 21 38 39
f 21 39 40
f 21 40 25
f 24 25 40
f 24 40 26
f 26 41 27
f 26 40 39
f 26 39 41
f 27 41 42
f 27 42 43
f 27 43 44
f 27 44 28
f 28 44 45
f 28 45 46
f 28 46 29
f 32 47 33
f 33 47 34
f 34 48 46
f 34 46 45
f 34 45 44
f 34 44 43
f 34 43 42
f 34 42 51
f 34 51 49
f 34 49 35
f 34 47 48
f 35 49 41
f 35 41 36
f 36 41 50
f 36 50 39
f 36 39 37
f 37 39 38
f 39 50 41
f 41 49 51
f 41 51 42

