# https://github.com/mikedh/trimesh
v 0.03272727 -0.30668992 0.04389574
v 0.03272727 -0.11991097 -0.02939391
v 0.13984837 -0.12249168 -0.02939391
v 0.05841704 -0.29029167 0.04389574
v 0.03272727 0.20079613 0.04389574
v 0.03272727 0.16783831 -0.02939391
v 0.13984837 -0.17007354 0.04389574
v 0.13984837 0.19740894 -0.02939391
v 0.13984837 0.24257140 0.04389574
v 0.07540374 0.18810764 -0.02939391
v 0.08443186 0.19041952 -0.02939391
v 0.07578123 0.18821517 -0.02939391
f 1 2 3
f 1 3 4
f 1 4 7
f 1 7 9
f 1 9 5
f 1 5 6
f 1 6 2
f 2 6 10
f 2 10 12
f 2 12 11
f 2 11 8
f 2 8 3
f 3 7 4
f 3 8 9
f 3 9 7
f 5 9 10
f 5 10 6
f 8 11 9
f 9 11 12
f 9 12 10

