# https://github.com/mikedh/trimesh
v 0.13987595 -0.35660338 0.17426515
v 0.13987595 -0.30466294 0.10648652
v 0.29182956 -0.22697526 0.05348253
v 0.30264202 -0.23476025 0.10764079
v 0.18047783 -0.33908719 0.24675319
v 0.13987595 -0.35044026 0.24813831
v 0.13987595 -0.12256727 -0.02934775
v 0.14823353 -0.12666249 -0.02939391
v 0.18660119 -0.14523293 -0.02939391
v 0.21181187 -0.07383002 -0.02934775
v 0.27243885 -0.00457609 0.00306410
v 0.31406128 -0.18379293 0.06276284
v 0.39854738 -0.10148293 0.12306181
v 0.35118774 -0.16866899 0.11461257
v 0.31406128 -0.21927139 0.10925677
v 0.40596718 -0.10245606 0.17925158
v 0.24427682 -0.28268659 0.23631860
v 0.23338161 -0.25904781 0.29823354
v 0.17300288 -0.30648756 0.31273115
v 0.13987595 -0.31536728 0.31453180
v 0.13987595 0.05523044 -0.02934775
v 0.18671153 -0.12666249 -0.02939391
v 0.22717549 0.00057335 -0.02934775
v 0.37435728 -0.01576701 0.08132347
v 0.27310085 -0.00469773 0.00357197
v 0.32597706 -0.16064072 0.06779546
v 0.36900622 0.05762270 0.08857229
v 0.41537291 -0.02306542 0.12597057
v 0.34556085 -0.15962704 0.23031640
v 0.42163420 -0.02391692 0.18165246
v 0.38798317 -0.09600912 0.23733436
v 0.20624015 -0.09008928 0.40992051
v 0.19931686 -0.12062103 0.39985532
v 0.15380526 -0.24676211 0.35483885
v 0.13987595 -0.24984366 0.35571611
v 0.31406128 0.05762270 0.08100028
v 0.15816334 0.05523044 -0.02934775
v 0.13987595 0.05523044 0.44205534
v 0.40960807 0.05762270 0.12652463
v 0.40737388 0.05762270 0.17491153
v 0.40701532 0.05762270 0.17588112
v 0.39962310 -0.02067317 0.23627242
v 0.20905359 -0.04710968 0.41462994
v 0.16268691 -0.08712937 0.42801946
v 0.16790006 -0.12666249 0.41121331
v 0.17049286 -0.12666249 0.41019756
v 0.17683689 -0.12666249 0.40733498
v 0.16823107 -0.12893312 0.41019756
v 0.13987595 -0.13043335 0.41102862
v 0.31406128 0.05762270 0.30848345
v 0.13987595 0.04582359 0.44228619
v 0.15361218 0.05523044 0.43439102
v 0.38177705 0.05762270 0.22112843
v 0.38059098 0.05762270 0.22297525
v 0.34658140 0.05762270 0.27311665
v 0.30294544 0.05555482 0.32247317
v 0.27243885 0.05555482 0.35543907
v 0.26250905 0.05523044 0.36596599
v 0.25737864 0.05523044 0.37099862
v 0.35314611 -0.01402348 0.28115037
v 0.15874258 -0.04232515 0.43476039
v 0.13987595 -0.04114930 0.43739212
v 0.13987595 -0.08583187 0.42968160
v 0.13987595 -0.12666249 0.41264459
f 1 2 3
f 1 3 4
f 1 4 5
f 1 5 6
f 1 6 20
f 1 20 35
f 1 35 49
f 1 49 64
f 1 64 63
f 1 63 62
f 1 62 51
f 1 51 38
f 1 38 21
f 1 21 7
f 1 7 2
f 2 7 8
f 2 8 9
f 2 9 3
f 3 9 10
f 3 10 11
f 3 11 12
f 3 12 13
f 3 13 14
f 3 14 15
f 3 15 4
f 4 15 16
f 4 16 17
f 4 17 5
f 5 17 18
f 5 18 19
f 5 19 6
f 6 19 20
f 7 21 8
f 8 21 37
f 8 37 22
f 8 22 9
f 9 22 23
f 9 23 10
f 10 23 11
f 11 24 25
f 11 25 26
f 11 26 12
f 11 23 27
f 11 27 24
f 12 26 13
f 13 28 16
f 13 16 14
f 13 26 24
f 13 24 28
f 14 16 15
f 16 29 17
f 16 28 30
f 16 30 31
f 16 31 29
f 17 29 18
f 18 29 31
f 18 31 32
f 18 32 33
f 18 33 19
f 19 33 34
f 19 34 20
f 20 34 35
f 21 36 37
f 21 38 50
f 21 50 36
f 22 37 23
f 23 37 27
f 24 26 25
f 24 27 39
f 24 39 28
f 27 37 36
f 27 36 50
f 27 50 55
f 27 55 54
f 27 54 53
f 27 53 41
f 27 41 40
f 27 40 39
f 28 39 30
f 30 39 40
f 30 40 41
f 30 41 42
f 30 42 31
f 31 43 32
f 31 42 43
f 32 43 44
f 32 44 45
f 32 45 46
f 32 46 33
f 33 46 47
f 33 47 34
f 34 47 48
f 34 48 35
f 35 48 49
f 38 51 43
f 38 43 52
f 38 52 50
f 41 53 42
f 42 53 54
f 42 54 55
f 42 55 56
f 42 56 57
f 42 57 58
f 42 58 59
f 42 59 60
f 42 60 43
f 43 59 52
f 43 51 61
f 43 61 44
f 43 60 59
f 44 61 62
f 44 62 63
f 44 63 64
f 44 64 45
f 45 64 49
f 45 49 48
f 45 48 46
f 46 48 47
f 50 52 59
f 50 59 57
f 50 57 56
f 50 56 55
f 51 62 61
f 57 59 58

