# https://github.com/mikedh/trimesh
v 0.06527322 0.05519681 -0.11822852
v 0.06527322 -0.07235026 -0.11822852
v 0.06527322 0.05519681 -0.18661934
v -0.09840725 0.05519681 -0.11822852
v 0.06527322 -0.07235026 -0.11827539
v 0.01950139 -0.10244232 -0.11822852
v 0.06527322 -0.07141603 -0.18661934
v -0.10650494 0.05519681 -0.18661934
v -0.09947772 0.05519681 -0.12720001
v -0.09996117 0.05293498 -0.11822852
v -0.00094140 -0.11224355 -0.11822852
v 0.01868989 -0.08323323 -0.18661934
v -0.10876676 0.05191880 -0.18661934
v -0.10895669 0.05023064 -0.18661934
v -0.10400139 0.01649999 -0.11822852
v -0.00044069 -0.08546226 -0.18661934
v -0.02077989 -0.11040787 -0.11822852
v -0.11111493 0.02790744 -0.18661934
v -0.09814826 -0.00631490 -0.11822852
v -0.00111406 -0.08534754 -0.18661934
v -0.02349063 -0.10871970 -0.11822852
v -0.03233076 -0.07371063 -0.18661934
v -0.01782742 -0.08156145 -0.18661934
v -0.01675694 -0.08192202 -0.18661934
v -0.09904608 0.01010789 -0.18661934
v -0.04206870 -0.09344421 -0.11822852
v -0.03871913 -0.09706639 -0.11822852
v -0.03379835 -0.07277640 -0.18661934
v -0.09773387 0.00820665 -0.18661934
v -0.04840528 -0.05897601 -0.18661934
v -0.07176600 -0.02775304 -0.18661934
f 1 2 5
f 1 5 7
f 1 7 3
f 1 3 8
f 1 8 9
f 1 9 4
f 1 4 10
f 1 10 15
f 1 15 19
f 1 19 26
f 1 26 27
f 1 27 21
f 1 21 17
f 1 17 11
f 1 11 6
f 1 6 2
f 2 6 5
f 3 7 12
f 3 12 16
f 3 16 20
f 3 20 24
f 3 24 23
f 3 23 22
f 3 22 28
f 3 28 30
f 3 30 31
f 3 31 29
f 3 29 25
f 3 25 18
f 3 18 14
f 3 14 13
f 3 13 8
f 4 9 10
f 5 6 7
f 6 11 7
f 7 11 12
f 8 13 9
f 9 13 10
f 10 13 14
f 10 14 15
f 11 16 12
f 11 17 16
f 14 18 15
f 15 18 19
f 16 17 20
f 17 21 22
f 17 22 23
f 17 23 24
f 17 24 20
f 18 25 26
f 18 26 19
f 21 27 28
f 21 28 22
f 25 29 26
f 26 30 27
f 26 29 31
f 26 31 30
f 27 30 28

