# https://github.com/mikedh/trimesh
v -0.17026095 -0.12990361 0.04068724
v -0.17026095 -0.03797963 -0.00360932
v -0.09812969 -0.00620620 -0.11820801
v -0.04208272 -0.09339321 -0.11820801
v -0.07418930 -0.18352965 -0.01522783
v -0.12539858 -0.18352965 0.04068724
v -0.17026095 0.25088596 0.04068724
v -0.17026095 0.18452376 -0.01504119
v -0.10398040 0.01645080 -0.11820801
v -0.03875422 -0.09701297 -0.11820801
v -0.04193800 -0.20565039 -0.02941269
v 0.03271548 -0.18352965 0.04068724
v -0.03621133 0.25088596 0.04068724
v -0.17026095 0.25088596 -0.00986185
v -0.17026095 0.22143635 -0.01449681
v -0.17026095 0.22183853 -0.01445016
v -0.09994899 0.05287182 -0.11820801
v -0.02351755 -0.10867663 -0.11820801
v -0.00317443 -0.18768567 -0.02941269
v 0.03112359 -0.18352965 0.00472740
v 0.03271548 -0.18352965 0.00710709
v -0.02078860 -0.11033010 -0.11820801
v -0.00094164 -0.11216233 -0.11820801
v 0.04090235 -0.10309058 -0.02941269
v 0.03271548 0.19886872 0.04068724
v 0.04090235 0.14854962 -0.11820801
v -0.10391838 0.25088596 -0.00990851
v -0.15456945 0.25088596 -0.01588108
v -0.08328582 0.14904118 -0.11820801
v -0.09149336 0.12316662 -0.11820801
v 0.01948418 -0.10242026 -0.11820801
v 0.04090235 -0.08146141 -0.11820801
v 0.04090235 0.17000002 -0.02941269
v -0.05920072 0.15851513 -0.11820801
v -0.06242584 0.15797886 -0.11820801
f 1 2 3
f 1 3 4
f 1 4 5
f 1 5 6
f 1 6 12
f 1 12 25
f 1 25 13
f 1 13 7
f 1 7 14
f 1 14 16
f 1 16 15
f 1 15 8
f 1 8 2
f 2 8 9
f 2 9 3
f 3 9 17
f 3 17 30
f 3 30 29
f 3 29 35
f 3 35 34
f 3 34 26
f 3 26 32
f 3 32 31
f 3 31 23
f 3 23 22
f 3 22 18
f 3 18 10
f 3 10 4
f 4 10 11
f 4 11 5
f 5 11 6
f 6 11 12
f 7 13 27
f 7 27 28
f 7 28 14
f 8 15 9
f 9 15 16
f 9 16 17
f 10 18 11
f 11 19 20
f 11 20 21
f 11 21 12
f 11 18 22
f 11 22 23
f 11 23 19
f 12 21 24
f 12 24 33
f 12 33 25
f 13 25 26
f 13 26 27
f 14 28 29
f 14 29 30
f 14 30 16
f 16 30 17
f 19 23 31
f 19 31 20
f 20 31 32
f 20 32 21
f 21 32 24
f 24 32 26
f 24 26 33
f 25 33 26
f 26 34 27
f 27 34 28
f 28 34 35
f 28 35 29

