# https://github.com/mikedh/trimesh
v -0.12543221 -0.18353873 0.04068723
v 0.03272305 -0.18353873 0.04068723
v -0.14309776 -0.18353873 0.04423909
v -0.17028162 -0.12995604 0.04068723
v 0.03272305 0.19885468 0.04068723
v 0.03272305 -0.18353873 0.39654672
v -0.17028162 -0.18353873 0.05332103
v -0.17028162 0.25090647 0.04068723
v -0.03621031 0.25090647 0.04068723
v 0.03272305 0.25090647 0.06060459
v 0.03272305 -0.14139551 0.42451197
v 0.02445661 -0.18353873 0.39991874
v -0.17028162 -0.18353873 0.36543432
v -0.17028162 0.25090647 0.36934584
v 0.03272305 0.25090647 0.41237271
v 0.02505275 -0.14288393 0.42658013
v 0.03272305 -0.13301790 0.42900795
v 0.01217618 -0.18353873 0.40095282
v -0.02422794 -0.14437234 0.42986220
v -0.16527405 -0.18353873 0.36682808
v -0.07513808 -0.04562706 0.47387818
v -0.12344509 -0.04520180 0.45472515
v -0.13530822 0.00076877 0.47225961
v -0.17028162 -0.00054954 0.44420451
v -0.17028162 0.19447452 0.40648293
v -0.16980471 0.19468716 0.40661782
v -0.12990324 0.25090647 0.39128640
v 0.01511712 0.25090647 0.41223782
v 0.03272305 0.24380463 0.41920665
v 0.02024391 -0.04320308 0.46893257
v -0.03062649 0.00132160 0.49622339
v 0.03272305 -0.08930122 0.44708192
v -0.02891756 -0.18353873 0.40221173
v -0.08288787 0.00110897 0.49379551
v -0.08636533 0.05133213 0.49779698
v -0.13900428 0.05094940 0.47266424
v -0.17028162 0.01492991 0.44523859
v -0.17028162 0.19324127 0.40720230
v -0.13091667 0.14863153 0.45234227
v -0.09332027 0.25090647 0.40351558
v -0.07903285 0.25090647 0.40657285
v -0.07519770 0.19260338 0.44357505
v -0.07919182 0.14786607 0.46974185
v -0.02861949 0.14510188 0.47293401
v 0.03272305 0.15492538 0.46101958
v 0.03272305 -0.04248013 0.46538073
v 0.01706451 0.00255486 0.48134157
v 0.03272305 0.01816188 0.47792459
v 0.03272305 0.04763237 0.48066717
v 0.01569339 0.04827026 0.48601741
v -0.03293155 0.05005635 0.49995506
v -0.03175915 0.09836584 0.49042350
v -0.08411989 0.10070477 0.48799568
v -0.13602358 0.10066225 0.46434665
v -0.17028162 0.15199108 0.42968237
v -0.17028162 0.10138519 0.43925887
v -0.17028162 0.05052414 0.44708192
v 0.01855485 0.14182737 0.46870777
v 0.03272305 0.13991371 0.46434665
v 0.03272305 0.00298011 0.47486728
v 0.01615043 0.09415577 0.47967803
v 0.03272305 0.09249726 0.47428283
v 0.03272305 0.10874218 0.47100073
f 1 2 6
f 1 6 12
f 1 12 18
f 1 18 33
f 1 33 20
f 1 20 13
f 1 13 7
f 1 7 3
f 1 3 4
f 1 4 8
f 1 8 9
f 1 9 5
f 1 5 2
f 2 5 10
f 2 10 15
f 2 15 29
f 2 29 45
f 2 45 59
f 2 59 63
f 2 63 62
f 2 62 49
f 2 49 48
f 2 48 60
f 2 60 46
f 2 46 32
f 2 32 17
f 2 17 11
f 2 11 6
f 3 7 4
f 4 7 13
f 4 13 24
f 4 24 37
f 4 37 57
f 4 57 56
f 4 56 55
f 4 55 38
f 4 38 25
f 4 25 14
f 4 14 8
f 5 9 10
f 6 11 12
f 8 14 27
f 8 27 40
f 8 40 41
f 8 41 28
f 8 28 15
f 8 15 10
f 8 10 9
f 11 16 12
f 11 17 16
f 12 16 19
f 12 19 18
f 13 20 19
f 13 19 21
f 13 21 22
f 13 22 23
f 13 23 24
f 14 25 26
f 14 26 27
f 15 28 29
f 16 17 30
f 16 30 31
f 16 31 19
f 17 32 30
f 18 19 33
f 19 31 21
f 19 20 33
f 21 31 34
f 21 34 22
f 22 34 23
f 23 34 35
f 23 35 36
f 23 36 24
f 24 36 37
f 25 38 26
f 26 38 39
f 26 39 27
f 27 39 40
f 28 41 29
f 29 41 42
f 29 42 43
f 29 43 44
f 29 44 45
f 30 32 46
f 30 46 31
f 31 46 47
f 31 47 48
f 31 48 49
f 31 49 50
f 31 50 51
f 31 51 35
f 31 35 34
f 35 51 52
f 35 52 53
f 35 53 54
f 35 54 36
f 36 54 55
f 36 55 56
f 36 56 57
f 36 57 37
f 38 55 39
f 39 55 54
f 39 54 53
f 39 53 43
f 39 43 40
f 40 43 42
f 40 42 41
f 43 53 44
f 44 53 52
f 44 52 58
f 44 58 45
f 45 58 59
f 46 60 47
f 47 60 48
f 49 61 50
f 49 62 61
f 50 61 51
f 51 61 52
f 52 61 58
f 58 61 63
f 58 63 59
f 61 62 63

