# https://github.com/mikedh/trimesh
v -0.05919336 0.15859833 -0.11822852
v -0.00061590 0.15262663 -0.18661934
v -0.02921779 0.15012661 -0.18661934
v -0.06240678 0.15804166 -0.11822852
v 0.09826423 0.15713072 -0.11822852
v 0.12801902 0.15618941 -0.11822852
v 0.03289197 0.15033916 -0.18661934
v -0.04822848 0.14168526 -0.18661934
v -0.08328176 0.14909422 -0.11822852
v 0.14406160 0.13742410 -0.11822852
v 0.10616286 0.13192810 -0.18661934
v 0.08658798 0.14167514 -0.18661934
v -0.05207969 0.13993424 -0.18661934
v -0.06667499 0.12873983 -0.18661934
v -0.07790969 0.11058181 -0.18661934
v -0.10651159 0.05519681 -0.18661934
v -0.09149927 0.12323371 -0.11822852
v 0.14408612 0.13719130 -0.11822852
v 0.11967885 0.09136102 -0.18661934
v 0.11653902 0.11432678 -0.18661934
v -0.09944697 0.05519681 -0.12697907
v 0.11877124 0.05519681 -0.18661934
v -0.09839219 0.05519681 -0.11822852
v 0.13859142 0.10610809 -0.11822852
v 0.13756117 0.10110806 -0.11822852
v 0.12134689 0.05519681 -0.11822852
f 1 2 3
f 1 3 4
f 1 4 9
f 1 9 17
f 1 17 23
f 1 23 26
f 1 26 25
f 1 25 24
f 1 24 18
f 1 18 10
f 1 10 6
f 1 6 5
f 1 5 2
f 2 5 6
f 2 6 7
f 2 7 12
f 2 12 11
f 2 11 20
f 2 20 19
f 2 19 22
f 2 22 16
f 2 16 15
f 2 15 14
f 2 14 13
f 2 13 8
f 2 8 3
f 3 8 9
f 3 9 4
f 6 10 11
f 6 11 12
f 6 12 7
f 8 13 9
f 9 13 14
f 9 14 15
f 9 15 16
f 9 16 17
f 10 18 19
f 10 19 20
f 10 20 11
f 16 21 17
f 16 22 26
f 16 26 23
f 16 23 21
f 17 21 23
f 18 24 22
f 18 22 19
f 22 24 25
f 22 25 26

