# https://github.com/mikedh/trimesh
v 0.03272305 0.04763838 0.48068509
v 0.03272305 0.01812009 0.47790599
v 0.10812812 0.04657244 0.45994872
v 0.10940741 0.08945596 0.45755440
v 0.03272305 0.09248979 0.47427177
v 0.03272305 0.00295097 0.47487032
v 0.13984837 -0.08576789 0.42967787
v 0.13984837 -0.04108048 0.43737385
v 0.13984837 0.04583449 0.44224796
v 0.13984837 0.07559876 0.44156387
v 0.13984837 0.08920997 0.44105083
v 0.03272305 0.10872485 0.47097960
v 0.12181239 0.23302965 0.40851393
v 0.11317190 0.18047069 0.42796767
v 0.06802952 0.18752229 0.44199145
v 0.03272305 0.15488818 0.46106035
v 0.03272305 0.13988304 0.46435249
v 0.03272305 -0.04247440 0.46537864
v 0.03272305 -0.08929370 0.44707930
v 0.03272305 -0.13299717 0.42899376
v 0.13984837 -0.11192438 0.41877523
v 0.13984837 0.22548608 0.39932153
v 0.13984837 0.38078511 0.27738309
v 0.09366788 0.40062797 0.28448048
v 0.07365004 0.24532895 0.42112678
v 0.03272305 0.24377103 0.41920280
v 0.03272305 -0.14136069 0.42450446
v 0.08948395 -0.26099175 0.35870388
v 0.13984837 -0.24984039 0.35575375
v 0.13984837 -0.13037331 0.41103649
v 0.13984837 0.41907686 0.22103144
v 0.09669834 0.42809635 0.22304094
v 0.03272305 0.42030680 0.23048039
v 0.03272305 0.39267439 0.27776787
v 0.03272305 -0.25976181 0.35656610
v 0.09799861 -0.32666993 0.31706011
v 0.13984837 -0.31543660 0.31462306
v 0.13984837 0.38291699 0.12192439
v 0.03272305 0.42530853 0.21902195
v 0.13984837 0.36848581 0.08827588
v 0.03272305 -0.26812536 0.35117894
v 0.03272305 -0.31724048 0.30966341
v 0.03272305 -0.39693987 0.18024278
v 0.09909964 -0.36184591 0.24967757
v 0.13984837 -0.35044861 0.24826664
v 0.03272305 0.34979087 0.08070818
v 0.13984837 0.24254110 0.04389575
v 0.03272305 -0.40956718 0.10939705
v 0.09645716 -0.38783842 0.17780572
v 0.13984837 -0.35659820 0.17421427
v 0.03272305 0.20080552 0.04389575
v 0.13984837 -0.17005903 0.04389575
v 0.03272305 -0.33798528 0.05005254
v 0.08928472 -0.39480799 0.10619040
v 0.13984837 -0.30469525 0.10648969
v 0.03272305 -0.30666310 0.04389575
v 0.13984837 -0.22335593 0.06749675
v 0.06749474 -0.32445610 0.05171999
v 0.05842432 -0.29034609 0.04389575
v 0.03650851 -0.30428523 0.04389575
f 1 2 3
f 1 3 4
f 1 4 5
f 1 5 12
f 1 12 17
f 1 17 16
f 1 16 26
f 1 26 34
f 1 34 33
f 1 33 39
f 1 39 46
f 1 46 51
f 1 51 56
f 1 56 53
f 1 53 48
f 1 48 43
f 1 43 42
f 1 42 41
f 1 41 35
f 1 35 27
f 1 27 20
f 1 20 19
f 1 19 18
f 1 18 6
f 1 6 2
f 2 6 7
f 2 7 8
f 2 8 3
f 3 9 10
f 3 10 11
f 3 11 4
f 3 8 9
f 4 12 5
f 4 11 13
f 4 13 14
f 4 14 15
f 4 15 16
f 4 16 17
f 4 17 12
f 6 18 7
f 7 18 19
f 7 19 20
f 7 20 21
f 7 21 30
f 7 30 29
f 7 29 37
f 7 37 45
f 7 45 50
f 7 50 55
f 7 55 57
f 7 57 52
f 7 52 47
f 7 47 40
f 7 40 38
f 7 38 31
f 7 31 23
f 7 23 22
f 7 22 11
f 7 11 10
f 7 10 9
f 7 9 8
f 11 22 13
f 13 22 23
f 13 23 24
f 13 24 25
f 13 25 15
f 13 15 14
f 15 25 16
f 16 25 26
f 20 27 28
f 20 28 29
f 20 29 30
f 20 30 21
f 23 31 24
f 24 31 32
f 24 32 33
f 24 33 34
f 24 34 26
f 24 26 25
f 27 35 28
f 28 35 36
f 28 36 29
f 29 36 37
f 31 38 32
f 32 39 33
f 32 38 40
f 32 40 39
f 35 41 36
f 36 41 42
f 36 42 43
f 36 43 44
f 36 44 45
f 36 45 37
f 39 40 46
f 40 47 46
f 43 48 49
f 43 49 44
f 44 49 45
f 45 49 50
f 46 47 51
f 47 52 59
f 47 59 60
f 47 60 56
f 47 56 51
f 48 53 54
f 48 54 49
f 49 54 50
f 50 54 55
f 52 57 58
f 52 58 59
f 53 56 60
f 53 60 58
f 53 58 54
f 54 58 55
f 55 58 57
f 58 60 59

