# https://github.com/mikedh/trimesh
v 0.03053211 -0.10129623 -0.39877093
v 0.00166736 -0.09473225 -0.39729851
v 0.00153508 -0.09155147 -0.46460050
v 0.03241057 -0.09392260 -0.46564347
v 0.06172509 -0.09956126 -0.39772797
v -0.00039629 -0.08545016 -0.18661933
v -0.00108418 -0.08530557 -0.18661933
v -0.01672035 -0.08189347 -0.18661933
v -0.02613910 -0.08513208 -0.46214646
v -0.01777864 -0.08154647 -0.18661933
v -0.02936687 -0.07402826 -0.48153338
v 0.00169382 -0.07764279 -0.48493835
v 0.06407978 -0.09016350 -0.46288270
v 0.03524148 -0.07778737 -0.48638010
v 0.07042949 -0.07463551 -0.48300579
v 0.09003423 -0.08964300 -0.39364812
v 0.11445418 -0.07489575 -0.18661933
v -0.04918327 -0.07475117 -0.45637947
v -0.05680293 -0.06564257 -0.47291356
v -0.03233007 -0.07368127 -0.18661933
v -0.05794059 -0.03652397 -0.48457026
v -0.02862607 -0.03964692 -0.48920226
v 0.00156154 -0.04115056 -0.49233115
v 0.03357469 -0.03982042 -0.49450910
v 0.08926698 -0.07790303 -0.45193154
v 0.07056177 -0.03825894 -0.49512261
v 0.09924132 -0.06237504 -0.46573550
v 0.11170264 -0.03591673 -0.48693228
v 0.12715361 -0.02579606 -0.46496862
v 0.14427137 -0.05633156 -0.18661933
v 0.12172990 -0.07102098 -0.18661933
v -0.06587773 -0.06269312 -0.44619521
v -0.07712202 -0.05436525 -0.45622611
v -0.03381167 -0.07275596 -0.18661933
v -0.08590579 -0.03267812 -0.47211599
v -0.08905419 -0.00439809 -0.47717744
v -0.05767602 -0.00619089 -0.48665619
v -0.02862607 -0.00795478 -0.49052128
v 0.00166736 -0.00835960 -0.49411032
v 0.03383926 -0.00636439 -0.49733126
v 0.06982097 -0.00321252 -0.49837422
v 0.11440127 -0.00144864 -0.49294466
v 0.13887411 0.00372736 -0.47199330
v 0.11651783 0.11430286 -0.18661933
v 0.14350411 0.03553517 -0.47450870
v 0.14331892 0.03764605 -0.40134767
v 0.14181086 0.06682248 -0.40101025
v 0.13961494 0.06667790 -0.33968997
v -0.07183059 -0.05106881 -0.33241987
v -0.08585288 -0.04375301 -0.44687009
v -0.09929311 -0.02594064 -0.45806664
v -0.04838956 -0.05893402 -0.18661933
v -0.11127819 -0.00121731 -0.46460050
v -0.12037946 0.02714947 -0.46822020
v -0.09077390 0.02521209 -0.47825110
v -0.05749081 0.02356387 -0.48653346
v -0.02862607 0.02284096 -0.49095076
v 0.03436840 0.02553017 -0.49858892
v 0.07058823 0.02876878 -0.50000000
v 0.11519498 0.03241222 -0.49460113
v 0.10614663 0.13188390 -0.18661933
v 0.13170424 0.09160365 -0.33889240
v 0.13395309 0.09403262 -0.39828011
v 0.12067161 0.12514643 -0.45674759
v 0.11548601 0.06630199 -0.49515328
v 0.14149338 0.06763214 -0.47377247
v 0.13342395 0.09897728 -0.46855766
v -0.08381567 -0.03461550 -0.33358553
v -0.08685825 -0.03808545 -0.38874006
v -0.07172476 -0.02773345 -0.18661933
v -0.09770568 0.00823829 -0.18661933
v -0.09900208 -0.02004174 -0.39392421
v -0.11109299 0.02793021 -0.18661933
v -0.11183380 0.02914469 -0.19392009
v -0.12601483 0.08475052 -0.34306428
v -0.11715169 0.05644157 -0.46696252
v -0.08897482 0.08671682 -0.47536761
v -0.08889545 0.05490901 -0.47745353
v -0.05648544 0.08454810 -0.48552120
v -0.05643253 0.05323188 -0.48616537
v -0.02725030 0.08541559 -0.48984641
v 0.03360114 0.09160365 -0.49730057
v 0.03407737 0.05739580 -0.49800611
v 0.07024428 0.09698206 -0.49874231
v 0.08656835 0.14165758 -0.18661933
v 0.09373824 0.15545060 -0.45831203
v 0.08857909 0.15811089 -0.39524326
v 0.06286274 0.17690641 -0.40239063
v 0.03225183 0.19411154 -0.40766683
v 0.10656995 0.13893946 -0.47558233
v 0.11397795 0.10357496 -0.49202439
v -0.09902854 0.01014676 -0.18661933
v -0.10900288 0.04947277 -0.18661933
v -0.11014053 0.10623525 -0.34088629
v -0.08339236 0.14151299 -0.45552057
v -0.10310294 0.11060159 -0.45331192
v -0.11109299 0.08501077 -0.46242255
v -0.10892351 0.05022459 -0.18661933
v -0.10873830 0.05190173 -0.18661933
v -0.07788927 0.11054376 -0.18661933
v -0.06664499 0.12873204 -0.18661933
v -0.09029768 0.12098250 -0.46601158
v -0.06013653 0.12396087 -0.47935539
v -0.02889064 0.12682357 -0.48509175
v 0.00140279 0.13139233 -0.48889548
v 0.03362760 0.13601892 -0.49128819
v 0.07037657 0.14096358 -0.49006116
v 0.03288680 0.15030351 -0.18661933
v 0.06648737 0.17213523 -0.47239208
v 0.03304554 0.18112817 -0.47871125
v -0.00023755 0.17861246 -0.47901797
v 0.00018576 0.19058377 -0.40763614
v -0.02920812 0.15010110 -0.18661933
v -0.00060795 0.15261681 -0.18661933
v -0.07611664 0.14258289 -0.39398557
v -0.05571818 0.16117600 -0.40055013
v -0.06103607 0.15883379 -0.46861899
v -0.05206710 0.13992260 -0.18661933
v -0.03177447 0.17097859 -0.47598112
v -0.02939333 0.17655942 -0.40493670
v -0.04820435 0.14165758 -0.18661933
f 1 2 3
f 1 3 4
f 1 4 5
f 1 5 6
f 1 6 7
f 1 7 8
f 1 8 2
f 2 9 3
f 2 8 10
f 2 10 9
f 3 9 11
f 3 11 12
f 3 12 4
f 4 13 5
f 4 12 14
f 4 14 15
f 4 15 13
f 5 13 16
f 5 16 17
f 5 17 6
f 6 17 31
f 6 31 30
f 6 30 44
f 6 44 61
f 6 61 85
f 6 85 108
f 6 108 114
f 6 114 113
f 6 113 121
f 6 121 118
f 6 118 101
f 6 101 100
f 6 100 99
f 6 99 98
f 6 98 93
f 6 93 73
f 6 73 92
f 6 92 71
f 6 71 70
f 6 70 52
f 6 52 34
f 6 34 20
f 6 20 10
f 6 10 8
f 6 8 7
f 9 18 19
f 9 19 11
f 9 10 18
f 10 20 18
f 11 19 21
f 11 21 22
f 11 22 12
f 12 22 23
f 12 23 24
f 12 24 14
f 13 25 16
f 13 15 25
f 14 24 26
f 14 26 15
f 15 27 25
f 15 26 28
f 15 28 27
f 16 25 27
f 16 27 29
f 16 29 30
f 16 30 31
f 16 31 17
f 18 32 33
f 18 33 19
f 18 20 34
f 18 34 32
f 19 35 21
f 19 33 35
f 21 35 36
f 21 36 37
f 21 37 22
f 22 37 38
f 22 38 39
f 22 39 23
f 23 39 40
f 23 40 24
f 24 40 41
f 24 41 26
f 26 42 28
f 26 41 42
f 27 28 29
f 28 42 43
f 28 43 29
f 29 43 30
f 30 43 45
f 30 45 46
f 30 46 47
f 30 47 48
f 30 48 44
f 32 34 33
f 33 34 49
f 33 49 50
f 33 50 51
f 33 51 35
f 34 52 49
f 35 51 53
f 35 53 54
f 35 54 36
f 36 55 37
f 36 54 55
f 37 56 57
f 37 57 38
f 37 55 56
f 38 57 58
f 38 58 39
f 39 58 40
f 40 58 59
f 40 59 41
f 41 59 42
f 42 59 60
f 42 60 45
f 42 45 43
f 44 48 62
f 44 62 63
f 44 63 64
f 44 64 61
f 45 60 65
f 45 65 66
f 45 66 47
f 45 47 46
f 47 63 48
f 47 66 67
f 47 67 63
f 48 63 62
f 49 68 69
f 49 69 50
f 49 52 70
f 49 70 71
f 49 71 68
f 50 69 51
f 51 69 72
f 51 72 53
f 53 72 73
f 53 73 74
f 53 74 54
f 54 75 76
f 54 76 77
f 54 77 78
f 54 78 55
f 54 74 75
f 55 78 79
f 55 79 56
f 56 79 80
f 56 80 57
f 57 80 79
f 57 79 81
f 57 81 82
f 57 82 83
f 57 83 58
f 58 83 59
f 59 83 84
f 59 84 65
f 59 65 60
f 61 64 86
f 61 86 87
f 61 87 88
f 61 88 89
f 61 89 85
f 63 67 64
f 64 67 90
f 64 90 86
f 65 84 91
f 65 91 66
f 66 91 67
f 67 91 90
f 68 71 92
f 68 92 73
f 68 73 69
f 69 73 72
f 73 93 75
f 73 75 74
f 75 94 95
f 75 95 96
f 75 96 97
f 75 97 76
f 75 93 98
f 75 98 99
f 75 99 100
f 75 100 101
f 75 101 94
f 76 102 77
f 76 97 102
f 77 102 103
f 77 103 79
f 77 79 78
f 79 103 104
f 79 104 81
f 81 105 82
f 81 104 105
f 82 84 83
f 82 105 106
f 82 106 84
f 84 106 107
f 84 107 91
f 85 89 108
f 86 88 87
f 86 90 109
f 86 109 88
f 88 109 89
f 89 109 110
f 89 110 111
f 89 111 112
f 89 112 113
f 89 113 114
f 89 114 108
f 90 91 107
f 90 107 109
f 94 115 95
f 94 101 115
f 95 115 116
f 95 116 117
f 95 117 102
f 95 102 96
f 96 102 97
f 101 118 116
f 101 116 115
f 102 117 103
f 103 119 104
f 103 117 119
f 104 119 105
f 105 119 111
f 105 111 106
f 106 111 110
f 106 110 107
f 107 110 109
f 111 119 112
f 112 119 117
f 112 117 120
f 112 120 118
f 112 118 121
f 112 121 113
f 116 120 117
f 116 118 120

