# https://github.com/mikedh/trimesh
v -0.23400968 -0.00047578 0.39722270
v -0.30293635 -0.01708668 0.34915954
v -0.23400968 -0.00685247 0.39692113
v -0.23400968 0.05022290 0.39646876
v -0.24341294 0.09273422 0.38557446
v -0.25771987 0.09273422 0.37249374
v -0.30128342 0.04825479 0.33668199
v -0.34894255 0.09273422 0.27263549
v -0.40561926 -0.13237894 0.17134479
v -0.27755487 -0.07849191 0.34712392
v -0.23400968 -0.06475446 0.37901527
v -0.23400968 0.09273422 0.39258602
v -0.23669109 0.09273422 0.39058810
v -0.38497615 0.09273422 0.20647800
v -0.41384712 -0.04601799 0.15600228
v -0.41535312 -0.14099929 0.10066370
v -0.34973228 -0.20094810 0.17828096
v -0.24605761 -0.22058991 0.30731636
v -0.23400968 -0.20909610 0.32299814
v -0.23400968 0.09273422 0.03639103
v -0.39138579 0.09273422 0.18054275
v -0.42161584 -0.05231596 0.08739451
v -0.39763016 -0.05188297 0.02421504
v -0.37302005 -0.12533307 0.04155546
v -0.35775810 -0.20854503 0.11513919
v -0.29751846 -0.26849386 0.12071829
v -0.28490117 -0.25577983 0.18231450
v -0.23400968 -0.22924963 0.30765563
v -0.30517697 0.09273422 0.03752193
v -0.23400968 -0.01240256 0.01528095
v -0.29193527 -0.02826558 0.01211444
v -0.39425087 0.09273422 0.13658854
v -0.39382845 0.09273422 0.11498840
v -0.36940199 0.09273422 0.07484154
v -0.35985181 0.09273422 0.06504044
v -0.35257897 0.03030556 0.03262137
v -0.23400968 -0.25495321 0.06990330
v -0.23400968 -0.27711421 0.08611282
v -0.23400968 -0.30939132 0.12211306
v -0.23400968 -0.30675405 0.12976547
v -0.23400968 -0.28569520 0.18152286
v -0.23400968 -0.06510872 0.01954067
f 1 2 3
f 1 3 11
f 1 11 19
f 1 19 28
f 1 28 41
f 1 41 40
f 1 40 39
f 1 39 38
f 1 38 37
f 1 37 42
f 1 42 30
f 1 30 20
f 1 20 12
f 1 12 4
f 1 4 2
f 2 4 5
f 2 5 6
f 2 6 7
f 2 7 8
f 2 8 9
f 2 9 10
f 2 10 3
f 3 10 11
f 4 12 13
f 4 13 5
f 5 13 12
f 5 12 20
f 5 20 29
f 5 29 35
f 5 35 34
f 5 34 33
f 5 33 32
f 5 32 21
f 5 21 14
f 5 14 8
f 5 8 6
f 6 8 7
f 8 14 15
f 8 15 9
f 9 15 16
f 9 16 17
f 9 17 18
f 9 18 10
f 10 18 19
f 10 19 11
f 14 21 15
f 15 22 16
f 15 21 22
f 16 22 23
f 16 23 24
f 16 24 25
f 16 25 17
f 17 25 26
f 17 26 27
f 17 27 18
f 18 28 19
f 18 27 28
f 20 30 31
f 20 31 29
f 21 32 22
f 22 32 33
f 22 33 23
f 23 33 34
f 23 34 35
f 23 35 36
f 23 36 31
f 23 31 24
f 24 37 38
f 24 38 26
f 24 26 25
f 24 31 37
f 26 38 39
f 26 39 27
f 27 39 40
f 27 40 41
f 27 41 28
f 29 31 36
f 29 36 35
f 30 42 31
f 31 42 37

