# https://github.com/mikedh/trimesh
v -0.23400967 0.09273422 0.03637107
v -0.30517617 0.09273422 0.03751737
v -0.23400967 0.13583341 0.01852682
v -0.23400967 0.09273422 0.39260620
v -0.31800717 0.25005364 0.00224923
v -0.31105837 0.16974995 0.02005525
v -0.23400967 0.19211413 0.00331911
v -0.35985690 0.09273422 0.06502883
v -0.23400967 0.10686363 0.39142168
v -0.24340546 0.09273422 0.38557547
v -0.23400967 0.33166072 0.00557353
v -0.23400967 0.26673052 0.00259311
v -0.36940956 0.09273422 0.07481068
v -0.39383239 0.09273422 0.11496976
v -0.34302604 0.27292141 0.05612582
v -0.29381967 0.33719993 0.05876233
v -0.23400967 0.39531717 0.06086390
v -0.23400967 0.16370717 0.38553727
v -0.23730367 0.16438846 0.38316822
v -0.24293488 0.10784115 0.38465846
v -0.25772661 0.09273422 0.37250754
v -0.39425588 0.09273422 0.13659683
v -0.39356571 0.12226678 0.13415137
v -0.36893898 0.19756447 0.12861085
v -0.36801353 0.20206693 0.20094305
v -0.33494785 0.26963341 0.12371993
v -0.28743553 0.33613354 0.12478983
v -0.23400967 0.38711202 0.13013926
v -0.23400967 0.16586953 0.38431454
v -0.23400967 0.16989806 0.38129592
v -0.23400967 0.26758954 0.29910547
v -0.33657917 0.19353595 0.26979810
v -0.35039836 0.12232603 0.27167043
v -0.34895527 0.09273422 0.27266389
v -0.39138538 0.09273422 0.18057694
v -0.38879722 0.12620643 0.20568115
v -0.38498557 0.09273422 0.20648356
f 1 2 3
f 1 3 7
f 1 7 12
f 1 12 11
f 1 11 17
f 1 17 28
f 1 28 31
f 1 31 30
f 1 30 29
f 1 29 18
f 1 18 9
f 1 9 4
f 1 4 10
f 1 10 21
f 1 21 34
f 1 34 37
f 1 37 35
f 1 35 22
f 1 22 14
f 1 14 13
f 1 13 8
f 1 8 2
f 2 5 6
f 2 6 7
f 2 7 3
f 2 8 5
f 4 9 10
f 5 11 12
f 5 12 7
f 5 7 6
f 5 8 13
f 5 13 14
f 5 14 15
f 5 15 16
f 5 16 17
f 5 17 11
f 9 18 19
f 9 19 20
f 9 20 10
f 10 20 21
f 14 22 23
f 14 23 15
f 15 23 24
f 15 24 25
f 15 25 26
f 15 26 27
f 15 27 16
f 16 27 17
f 17 27 28
f 18 29 19
f 19 21 20
f 19 29 30
f 19 30 31
f 19 31 32
f 19 32 33
f 19 33 21
f 21 33 34
f 22 35 36
f 22 36 23
f 23 36 25
f 23 25 24
f 25 36 32
f 25 32 27
f 25 27 26
f 27 32 28
f 28 32 31
f 32 36 33
f 33 36 34
f 34 36 37
f 35 37 36

