# https://github.com/mikedh/trimesh
v 0.18240316 0.21140496 -0.02939391
v 0.21850762 0.19139673 -0.02939391
v 0.12802917 0.15618603 -0.11822183
v 0.09826949 0.15713364 -0.11822183
v 0.06684105 0.15358685 -0.11822183
v 0.08185996 0.18695647 -0.04253203
v 0.08443264 0.19047619 -0.02939391
v 0.20879054 0.14118662 -0.02939391
v 0.13859802 0.10611129 -0.11822183
v 0.14407367 0.13720663 -0.11822183
v 0.14405629 0.13743678 -0.11822183
v 0.04092302 0.14859156 -0.11822183
v 0.07541087 0.18817484 -0.02939391
v 0.16135237 0.07312072 -0.02939391
v 0.11951151 0.07312072 -0.11819574
v 0.13755505 0.10110246 -0.11822183
v 0.04092302 0.07312072 -0.11822183
v 0.04092302 0.17006183 -0.02939391
v 0.04092302 0.07312072 -0.02939391
v 0.11940721 0.07312072 -0.11822183
f 1 2 3
f 1 3 4
f 1 4 5
f 1 5 6
f 1 6 7
f 1 7 13
f 1 13 18
f 1 18 19
f 1 19 14
f 1 14 8
f 1 8 2
f 2 8 9
f 2 9 10
f 2 10 11
f 2 11 3
f 3 11 10
f 3 10 9
f 3 9 16
f 3 16 20
f 3 20 17
f 3 17 12
f 3 12 5
f 3 5 4
f 5 12 6
f 6 12 13
f 6 13 7
f 8 14 15
f 8 15 16
f 8 16 9
f 12 17 19
f 12 19 18
f 12 18 13
f 14 19 17
f 14 17 20
f 14 20 15
f 15 20 16

