# https://github.com/mikedh/trimesh
v 0.04094125 -0.10309833 -0.02939391
v 0.04094125 -0.08147689 -0.11821027
v 0.18653084 -0.14516614 -0.02939391
v 0.04094125 0.07309934 -0.02939391
v 0.06530038 -0.07141395 -0.18661934
v 0.04094125 0.07309934 -0.11821027
v 0.19922093 -0.09247990 -0.07006999
v 0.21180162 -0.07380684 -0.02939391
v 0.11449271 -0.07491782 -0.18661934
v 0.12176763 -0.07100801 -0.18661934
v 0.14428525 -0.05635157 -0.18661934
v 0.16135123 0.07309934 -0.02939391
v 0.06530038 0.05519542 -0.18661934
v 0.11941559 0.07309934 -0.11821027
v 0.22719018 0.00069315 -0.02939391
v 0.11879567 0.05519542 -0.18661934
v 0.11950675 0.07309934 -0.11819489
f 1 2 3
f 1 3 8
f 1 8 15
f 1 15 12
f 1 12 4
f 1 4 6
f 1 6 2
f 2 5 3
f 2 6 13
f 2 13 5
f 3 7 8
f 3 5 9
f 3 9 10
f 3 10 11
f 3 11 7
f 4 12 17
f 4 17 14
f 4 14 6
f 5 13 16
f 5 16 11
f 5 11 10
f 5 10 9
f 6 14 16
f 6 16 13
f 7 11 15
f 7 15 8
f 11 16 15
f 12 15 16
f 12 16 17
f 14 17 16

