# https://github.com/mikedh/trimesh
v 0.03272305 0.25090647 0.41241243
v 0.03272305 0.39266464 0.27779874
v -0.08837193 0.29879683 0.38256350
v 0.01512538 0.25090647 0.41224474
v 0.03272305 0.25090647 0.06063934
v 0.03272305 0.42031601 0.23042613
v -0.10495134 0.34866837 0.33569396
v -0.16844919 0.33269924 0.33472973
v -0.14210489 0.28538957 0.37719738
v -0.09335881 0.25090647 0.40352482
v -0.07907701 0.25090647 0.40658519
v -0.10395919 0.25090647 -0.00987458
v 0.03272305 0.27310956 0.06466392
v 0.03272305 0.42537147 0.21898125
v 0.01883291 0.42479080 0.21814279
v -0.12051249 0.37708831 0.27184573
v -0.23400967 0.26762712 0.29913738
v -0.21246949 0.27724275 0.31703836
v -0.18481973 0.25090647 0.35933834
v -0.17933677 0.25090647 0.36441100
v -0.22672518 0.39403099 0.13085981
v -0.23400967 0.38711387 0.13014713
v -0.12991184 0.25090647 0.39128339
v -0.15458515 0.25090647 -0.01586953
v -0.21361831 0.35650778 0.00437912
v -0.14019892 0.35783994 0.01645285
v 0.03272305 0.34982976 0.08072030
v -0.06983432 0.40069190 0.07669572
v -0.15210477 0.41321102 0.06927541
v -0.05790236 0.41596079 0.21034518
v -0.14732675 0.41271573 0.13450707
v -0.23400967 0.25090647 0.30639002
v -0.23280865 0.39649040 0.06093280
v -0.23400967 0.39534608 0.06089087
v -0.23400967 0.25090647 0.00312144
v -0.23400967 0.26673898 0.00257644
v -0.23400967 0.33167446 0.00559488
f 1 2 3
f 1 3 4
f 1 4 11
f 1 11 10
f 1 10 23
f 1 23 20
f 1 20 19
f 1 19 32
f 1 32 35
f 1 35 24
f 1 24 12
f 1 12 5
f 1 5 13
f 1 13 27
f 1 27 14
f 1 14 6
f 1 6 2
f 2 6 7
f 2 7 3
f 3 7 8
f 3 8 9
f 3 9 10
f 3 10 11
f 3 11 4
f 5 12 13
f 6 14 15
f 6 15 7
f 7 15 16
f 7 16 8
f 8 17 18
f 8 18 19
f 8 19 20
f 8 20 9
f 8 16 21
f 8 21 22
f 8 22 17
f 9 20 23
f 9 23 10
f 12 24 25
f 12 25 26
f 12 26 27
f 12 27 13
f 14 27 28
f 14 28 29
f 14 29 15
f 15 30 16
f 15 29 31
f 15 31 30
f 16 30 21
f 17 32 19
f 17 19 18
f 17 22 34
f 17 34 37
f 17 37 36
f 17 36 35
f 17 35 32
f 21 31 33
f 21 33 34
f 21 34 22
f 21 30 31
f 24 35 36
f 24 36 37
f 24 37 25
f 25 37 34
f 25 34 33
f 25 33 29
f 25 29 26
f 26 29 28
f 26 28 27
f 29 33 31

