# https://github.com/mikedh/trimesh
v 0.13987495 0.05531242 -0.02939391
v 0.13987495 0.19743173 -0.02939391
v 0.15813437 0.05531242 -0.02939391
v 0.13987495 0.05531242 0.44207114
v 0.18242714 0.21142644 -0.02939391
v 0.13987495 0.36846632 0.08828776
v 0.20879301 0.14120361 -0.02939391
v 0.36898172 0.05769829 0.08861081
v 0.31404394 0.05556169 0.08108841
v 0.27242199 0.05531242 0.07056628
v 0.15361604 0.05531242 0.43436414
v 0.26750496 0.10302976 0.38023058
v 0.27130568 0.15861689 0.38655308
v 0.13987495 0.07571693 0.44156349
v 0.21849418 0.19141364 -0.02939391
v 0.16738370 0.37918490 0.09105673
v 0.22101913 0.32708755 0.04559931
v 0.29137245 0.31337771 0.04513781
v 0.35975897 0.27762532 0.04430711
v 0.13987495 0.38285273 0.12193087
v 0.40959367 0.05769829 0.12654583
v 0.31404394 0.05556169 0.30842167
v 0.27242199 0.05531242 0.35530975
v 0.25740513 0.05531242 0.37100065
v 0.27244857 0.10359952 0.37561560
v 0.31404394 0.11157614 0.33795747
v 0.27244857 0.15897298 0.38512242
v 0.25355124 0.20537275 0.37478492
v 0.13987495 0.22556359 0.39929038
v 0.13987495 0.08928432 0.44105583
v 0.31768519 0.11225273 0.33463472
v 0.25084022 0.38498932 0.08911845
v 0.17676592 0.40735239 0.14934377
v 0.27242199 0.37391463 0.09064139
v 0.32292116 0.34802619 0.09428721
v 0.38538066 0.29354298 0.09899448
v 0.40156698 0.21302888 0.11297783
v 0.41137445 0.13568407 0.12008488
v 0.13987495 0.41910365 0.22096807
v 0.40736109 0.05769829 0.17495684
v 0.40698898 0.05769829 0.17592598
v 0.38176596 0.05769829 0.22110651
v 0.38059652 0.05769829 0.22295250
v 0.34654945 0.05769829 0.27311718
v 0.30296069 0.05556169 0.32245117
v 0.31404394 0.10847807 0.33671144
v 0.27242199 0.06261246 0.35890943
v 0.26253477 0.05531242 0.36592418
v 0.31404394 0.15195782 0.33431166
v 0.31223658 0.17150769 0.33412707
v 0.22567038 0.24137440 0.36495504
v 0.37780577 0.28691953 0.16189648
v 0.13987495 0.38078734 0.27731681
v 0.31404394 0.09825802 0.33163497
v 0.17442700 0.41187483 0.21935283
v 0.25137180 0.38036004 0.14938992
v 0.27244857 0.37391463 0.09068754
v 0.27244857 0.36839509 0.15049751
v 0.32122013 0.34061933 0.15312804
v 0.39359340 0.20943227 0.16517311
v 0.16302483 0.37085217 0.27380943
f 1 2 5
f 1 5 15
f 1 15 7
f 1 7 3
f 1 3 10
f 1 10 23
f 1 23 48
f 1 48 24
f 1 24 11
f 1 11 4
f 1 4 14
f 1 14 30
f 1 30 29
f 1 29 53
f 1 53 39
f 1 39 20
f 1 20 6
f 1 6 2
f 2 6 5
f 3 7 8
f 3 8 9
f 3 9 10
f 4 11 12
f 4 12 13
f 4 13 14
f 5 6 16
f 5 16 17
f 5 17 18
f 5 18 19
f 5 19 15
f 6 20 16
f 7 15 19
f 7 19 8
f 8 21 9
f 8 19 21
f 9 21 22
f 9 22 23
f 9 23 10
f 11 24 12
f 12 24 25
f 12 25 26
f 12 26 13
f 13 27 28
f 13 28 29
f 13 29 30
f 13 30 14
f 13 26 31
f 13 31 27
f 16 32 17
f 16 20 33
f 16 33 32
f 17 32 18
f 18 32 19
f 19 32 34
f 19 34 35
f 19 35 36
f 19 36 37
f 19 37 38
f 19 38 21
f 20 39 33
f 21 40 22
f 21 38 40
f 22 41 42
f 22 42 43
f 22 43 44
f 22 44 45
f 22 45 23
f 22 40 41
f 23 45 46
f 23 46 47
f 23 47 48
f 24 48 46
f 24 46 26
f 24 26 25
f 26 46 31
f 27 31 49
f 27 49 50
f 27 50 28
f 28 51 29
f 28 50 52
f 28 52 51
f 29 51 53
f 31 46 54
f 31 54 44
f 31 44 43
f 31 43 42
f 31 42 41
f 31 41 49
f 32 33 55
f 32 55 56
f 32 56 57
f 32 57 34
f 33 39 55
f 34 57 35
f 35 57 56
f 35 56 58
f 35 58 59
f 35 59 36
f 36 59 52
f 36 52 37
f 37 52 60
f 37 60 38
f 38 60 40
f 39 53 55
f 40 60 41
f 41 50 49
f 41 60 50
f 44 54 45
f 45 54 46
f 46 48 47
f 50 60 52
f 51 55 61
f 51 61 53
f 51 52 55
f 52 59 55
f 53 61 55
f 55 59 58
f 55 58 56

