# https://github.com/mikedh/trimesh
v -0.17028785 -0.18353873 0.05331087
v -0.23400965 -0.18353873 0.06190483
v -0.17028785 -0.03801491 -0.00359012
v -0.17028785 -0.18353873 0.36540699
v -0.23400965 -0.18353873 0.33180010
v -0.23400965 -0.06506142 0.01956831
v -0.23400965 -0.01237176 0.01531658
v -0.23400965 0.19209307 0.00333028
v -0.17028785 0.18456596 -0.01498841
v -0.17028785 -0.00054954 0.44415468
v -0.21003912 -0.18353873 0.35446098
v -0.21245302 -0.18353873 0.35274220
v -0.23400965 -0.06467869 0.37897635
v -0.23400965 0.25090647 0.00314935
v -0.17028785 0.22147849 -0.01449087
v -0.17028785 0.01492991 0.44524026
v -0.23400965 -0.00680086 0.39693320
v -0.21191037 -0.18353873 0.35314929
v -0.17028785 0.25090647 -0.00983204
v -0.23400965 0.25090647 0.30633485
v -0.17028785 0.05052414 0.44709474
v -0.23400965 -0.00046449 0.39715934
v -0.17028785 0.25090647 0.36934209
v -0.18484606 0.25090647 0.35930073
v -0.23400965 0.16985199 0.38123792
v -0.17028785 0.10138519 0.43922448
v -0.23400965 0.16368571 0.38548967
v -0.23400965 0.10682851 0.39141500
v -0.23400965 0.05022646 0.39643565
v -0.17934462 0.25090647 0.36441189
v -0.17028785 0.19447452 0.40643179
v -0.23400965 0.16581202 0.38431364
v -0.17028785 0.15199108 0.42963544
v -0.18294364 0.15305424 0.42235321
v -0.17028785 0.19319874 0.40715545
f 1 2 3
f 1 3 9
f 1 9 15
f 1 15 19
f 1 19 23
f 1 23 31
f 1 31 35
f 1 35 33
f 1 33 26
f 1 26 21
f 1 21 16
f 1 16 10
f 1 10 4
f 1 4 11
f 1 11 18
f 1 18 12
f 1 12 5
f 1 5 2
f 2 5 13
f 2 13 17
f 2 17 22
f 2 22 29
f 2 29 28
f 2 28 27
f 2 27 32
f 2 32 25
f 2 25 20
f 2 20 14
f 2 14 8
f 2 8 7
f 2 7 6
f 2 6 3
f 3 6 7
f 3 7 8
f 3 8 9
f 4 10 11
f 5 12 13
f 8 14 9
f 9 14 15
f 10 16 17
f 10 17 13
f 10 13 11
f 11 13 18
f 12 18 13
f 14 19 15
f 14 20 24
f 14 24 30
f 14 30 23
f 14 23 19
f 16 21 17
f 17 21 22
f 20 25 24
f 21 26 27
f 21 27 28
f 21 28 29
f 21 29 22
f 23 30 31
f 24 25 30
f 25 32 30
f 26 33 34
f 26 34 27
f 27 34 32
f 30 32 31
f 31 32 34
f 31 34 35
f 33 35 34

