# https://github.com/mikedh/trimesh
v -0.01634883 0.08181679 0.08433901
v -0.01583258 0.08107726 0.10713835
v -0.00672794 0.08146878 0.10713835
v 0.04053174 0.08068575 0.10713835
v 0.00007708 0.08001147 0.04265055
v -0.02822241 0.07731437 -0.02036833
v -0.02080729 0.08136003 0.07627027
v -0.02873865 0.08035949 0.06987735
v -0.03662309 0.07772763 0.10713835
v 0.05768508 0.07942420 0.10713835
v 0.05763815 0.07877167 0.08678031
v -0.01193730 0.07679235 -0.02134071
v -0.01684161 0.07814090 -0.00085854
v 0.00627199 0.07794514 0.01138938
v -0.02972421 0.07070211 -0.10422109
v -0.03061590 0.07650959 -0.02715434
v -0.03270434 0.07646608 -0.01993386
v -0.05067897 0.07157215 -0.00280332
v -0.06224750 0.06944057 0.05229165
v -0.04183245 0.07611807 0.10713835
v 0.05862370 0.07914144 0.10713835
v 0.06068867 0.07805390 0.08849750
v 0.01312394 0.06593868 -0.10422109
v -0.00069729 0.06861404 -0.10422109
v 0.00289295 0.07222468 -0.06364984
v -0.02550040 0.07057161 -0.10422109
v -0.03807795 0.06944057 -0.10422109
v -0.03974401 0.06917956 -0.10422109
v -0.04720607 0.06702622 -0.10422109
v -0.05520783 0.06422037 -0.10422109
v -0.05591179 0.06395935 -0.10422109
v -0.06203631 0.06161027 -0.10422109
v -0.06130888 0.06902730 0.02777511
v -0.07196225 0.06556892 0.10713835
v -0.06637745 0.06765700 0.10713835
v 0.06216700 0.07794514 0.10713835
v 0.07889796 0.06987558 0.10713835
v 0.08950441 0.06058798 0.08289077
v 0.04585842 0.05143087 -0.10422109
v 0.04240898 0.05317094 -0.10422109
v 0.02309681 0.06217579 -0.10422109
v 0.01854449 0.06408986 -0.10422109
v -0.01484703 0.06978858 -0.10422109
v -0.07923658 0.05158313 -0.10422109
v -0.08116076 0.05351896 -0.03276107
v -0.08040986 0.05658583 0.02690617
v -0.07449654 0.06376360 0.10713835
v 0.08352068 0.06689572 0.10713835
v 0.08577338 0.01902213 -0.10422109
v 0.08483475 0.02026193 -0.10422109
v 0.07336009 0.03255115 -0.10422109
v 0.06632041 0.03881539 -0.10422109
v 0.08894123 0.06198003 0.10713835
v 0.09717765 0.05130037 0.09054572
v -0.09613180 0.03716233 -0.10422109
v -0.09397297 0.04136024 -0.06536704
v -0.09108670 0.04566690 -0.03158180
v -0.08376544 0.05528077 0.06381546
v -0.08200552 0.05708610 0.10713835
v 0.09260186 0.00892974 -0.10422109
v 0.09708378 0.05160488 0.10713835
v 0.09762350 0.05080010 0.10713835
v 0.10020471 0.04553640 0.10713835
v 0.10283285 0.04007694 0.10713835
v 0.10562526 0.03350819 0.10713835
v 0.10637616 0.02524287 0.07651854
v -0.10054333 0.03065883 -0.10422109
v -0.10861549 0.02419883 -0.03952640
v -0.09789172 0.03642280 -0.07755289
v -0.10399277 0.03242065 -0.00632046
v -0.09580328 0.04251304 0.09013194
v -0.09538090 0.04290455 0.10713835
v 0.10022818 -0.00196742 -0.07262889
v 0.09649715 -0.00155416 -0.10422109
v 0.10778409 0.02400307 0.10713835
v 0.11013065 0.01288839 0.10713835
v 0.10245740 -0.02204345 -0.10422109
v -0.10558843 0.02202374 -0.10422109
v -0.11525625 0.00497109 -0.10422109
v -0.11760280 0.01299715 0.00588609
v -0.09770399 0.03972892 0.10713835
v 0.09957114 -0.01169005 -0.10422109
v 0.11085808 0.00207823 0.10713835
v 0.10356028 -0.03111354 -0.10422109
v -0.12001976 -0.00997173 -0.10422109
v -0.12755221 -0.02099941 -0.05527077
v -0.12654319 -0.01421315 -0.03482998
v -0.11966778 0.00142571 0.06760155
v -0.10364079 0.02954954 0.10713835
v -0.10063719 0.03513950 0.10713835
v -0.12480674 -0.00979773 0.00545162
v -0.12238979 -0.00388150 0.04089198
v 0.10945015 -0.01640998 0.10713835
v 0.10245740 -0.04216297 -0.10422109
v -0.12450168 -0.02700264 -0.10422109
v -0.12461901 -0.02878620 -0.10422109
v -0.12849084 -0.03137456 -0.04676757
v -0.12886629 -0.02663287 -0.02171312
v -0.12696558 -0.01691025 0.00303100
v -0.11408297 0.00412281 0.10713835
v -0.11159562 0.01049580 0.10713835
v -0.12436089 -0.01273409 0.05042963
v -0.12375078 -0.01347362 0.06464302
v -0.12248365 -0.02039038 0.10713835
v -0.12067679 -0.01390863 0.10713835
v 0.10853499 -0.02356600 0.10713835
v 0.10069749 -0.05077630 -0.05820862
v 0.09931301 -0.05292963 -0.10422109
v 0.10611803 -0.03402816 0.10713835
v 0.10480396 -0.03885684 0.09031814
v -0.12773994 -0.05292963 -0.05692590
v -0.11398911 -0.08357656 -0.10422109
v -0.12849084 -0.03544196 -0.00878245
v -0.12839697 -0.03152681 0.03079572
v -0.12804499 -0.02674163 0.02616137
v -0.12260097 -0.02106466 0.10713835
v 0.09508921 -0.06650215 -0.10422109
v 0.10471010 -0.03837832 0.10713835
v 0.09354048 -0.07043906 -0.10422109
v -0.12013709 -0.05369091 0.10713835
v -0.12260097 -0.04464256 0.10713835
v -0.11734468 -0.08398983 -0.07273234
v -0.11347286 -0.08516437 -0.10422109
v -0.12311722 -0.04203247 0.10713835
v -0.12363346 -0.03713853 0.10713835
v -0.12316415 -0.02789442 0.10713835
v 0.09511267 -0.05190734 0.10713835
v 0.08380227 -0.08744821 -0.08187690
v 0.08525714 -0.08657818 -0.10422109
v 0.09002065 -0.07757333 -0.10422109
v -0.11117323 -0.07191812 0.10713835
v -0.11452881 -0.08723070 -0.07846321
v -0.10312454 -0.10123824 -0.08355272
v -0.09990976 -0.10506638 -0.08015971
v -0.10514258 -0.08329380 0.10713835
v -0.10591695 -0.08198875 0.10713835
v -0.10166968 -0.10160800 -0.10422109
v 0.08558565 -0.06069468 0.10713835
v 0.05313275 -0.11889991 -0.06555323
v 0.06244859 -0.11270092 -0.10422109
v 0.07838172 -0.09458248 -0.10422109
v -0.09552170 -0.10843776 -0.10422109
v -0.09491159 -0.10898153 -0.10422109
v -0.09538090 -0.10872053 -0.08826982
v -0.09218958 -0.10656719 -0.03590581
v -0.07475466 -0.10637143 0.10713835
v -0.08087917 -0.10217352 0.10713835
v -0.10394584 -0.08464235 0.10713835
v 0.05977351 -0.08353306 0.10713835
v 0.04782953 -0.12418537 -0.06828419
v 0.06057134 -0.11465850 -0.10422109
v -0.09160294 -0.11067810 -0.10422109
v -0.03742092 -0.13825816 -0.08837327
v -0.07116442 -0.12046597 -0.06532566
v -0.06539189 -0.11130887 0.10713835
v 0.03745775 -0.10030295 0.10713835
v 0.04611655 -0.12535992 -0.10422109
v 0.05064540 -0.12290207 -0.10422109
v 0.05470495 -0.12005271 -0.10422109
v 0.02297948 -0.10898153 0.10713835
v 0.01983510 -0.11017783 0.10713835
v 0.01610407 -0.13238543 -0.05895343
v 0.03372672 -0.13012335 -0.08539405
v 0.03823211 -0.12899230 -0.10422109
v -0.03777290 -0.13804065 -0.10422109
v -0.03709240 -0.13836691 -0.10422109
v -0.03533248 -0.13891068 -0.10422109
v -0.03232889 -0.13965021 -0.10422109
v -0.02585239 -0.13991122 -0.07018758
v -0.03340831 -0.13793190 -0.07204960
v -0.04410861 -0.12303257 0.05485709
v -0.04852014 -0.11585480 0.10713835
v 0.00577921 -0.11394072 0.10713835
v -0.00409980 -0.11650732 0.10713835
v -0.00808894 -0.11750786 0.10713835
v 0.00786765 -0.13538705 -0.06782904
v 0.03351553 -0.13051486 -0.10422109
v -0.00459257 -0.14038974 -0.10422109
v 0.00509871 -0.13804065 -0.10422109
v -0.02841014 -0.13993298 -0.10422109
v -0.01665388 -0.14012873 -0.07720117
v -0.01372068 -0.13978072 -0.06507739
v -0.03667002 -0.11770362 0.10713835
v -0.04251295 -0.12412012 0.04809177
v -0.04539922 -0.11657257 0.10713835
v -0.01930549 -0.11831264 0.10713835
f 1 2 3
f 1 3 4
f 1 4 5
f 1 5 6
f 1 6 7
f 1 7 8
f 1 8 2
f 2 8 9
f 2 9 20
f 2 20 35
f 2 35 34
f 2 34 47
f 2 47 59
f 2 59 72
f 2 72 81
f 2 81 90
f 2 90 89
f 2 89 101
f 2 101 100
f 2 100 105
f 2 105 104
f 2 104 116
f 2 116 126
f 2 126 125
f 2 125 124
f 2 124 121
f 2 121 120
f 2 120 131
f 2 131 136
f 2 136 135
f 2 135 148
f 2 148 147
f 2 147 146
f 2 146 155
f 2 155 172
f 2 172 185
f 2 185 183
f 2 183 186
f 2 186 175
f 2 175 174
f 2 174 173
f 2 173 161
f 2 161 160
f 2 160 156
f 2 156 149
f 2 149 138
f 2 138 127
f 2 127 118
f 2 118 109
f 2 109 106
f 2 106 93
f 2 93 83
f 2 83 76
f 2 76 75
f 2 75 65
f 2 65 64
f 2 64 63
f 2 63 62
f 2 62 61
f 2 61 53
f 2 53 48
f 2 48 37
f 2 37 36
f 2 36 21
f 2 21 10
f 2 10 4
f 2 4 3
f 4 10 11
f 4 11 5
f 5 12 13
f 5 13 6
f 5 11 14
f 5 14 12
f 6 15 16
f 6 16 17
f 6 17 8
f 6 8 7
f 6 13 12
f 6 12 15
f 8 17 18
f 8 18 19
f 8 19 20
f 8 20 9
f 10 21 22
f 10 22 11
f 11 22 23
f 11 23 24
f 11 24 25
f 11 25 14
f 12 26 15
f 12 14 25
f 12 25 26
f 15 26 43
f 15 43 24
f 15 24 23
f 15 23 42
f 15 42 41
f 15 41 40
f 15 40 39
f 15 39 52
f 15 52 51
f 15 51 50
f 15 50 49
f 15 49 60
f 15 60 74
f 15 74 82
f 15 82 77
f 15 77 84
f 15 84 94
f 15 94 108
f 15 108 117
f 15 117 119
f 15 119 130
f 15 130 129
f 15 129 141
f 15 141 140
f 15 140 151
f 15 151 159
f 15 159 158
f 15 158 157
f 15 157 164
f 15 164 177
f 15 177 179
f 15 179 178
f 15 178 180
f 15 180 168
f 15 168 167
f 15 167 166
f 15 166 165
f 15 165 152
f 15 152 143
f 15 143 142
f 15 142 137
f 15 137 123
f 15 123 112
f 15 112 96
f 15 96 95
f 15 95 85
f 15 85 79
f 15 79 78
f 15 78 67
f 15 67 55
f 15 55 44
f 15 44 32
f 15 32 31
f 15 31 30
f 15 30 29
f 15 29 28
f 15 28 27
f 15 27 16
f 16 27 28
f 16 28 17
f 17 28 29
f 17 29 18
f 18 29 30
f 18 30 31
f 18 31 32
f 18 32 33
f 18 33 19
f 19 33 34
f 19 34 35
f 19 35 20
f 21 36 22
f 22 36 37
f 22 37 38
f 22 38 39
f 22 39 40
f 22 40 41
f 22 41 42
f 22 42 23
f 24 43 25
f 25 43 26
f 32 44 33
f 33 44 45
f 33 45 34
f 34 45 46
f 34 46 47
f 37 48 38
f 38 49 50
f 38 50 51
f 38 51 52
f 38 52 39
f 38 48 53
f 38 53 54
f 38 54 49
f 44 55 56
f 44 56 57
f 44 57 45
f 45 57 46
f 46 57 58
f 46 58 47
f 47 58 59
f 49 54 60
f 53 61 54
f 54 61 62
f 54 62 63
f 54 63 64
f 54 64 65
f 54 65 66
f 54 66 60
f 55 67 68
f 55 68 69
f 55 69 56
f 56 69 70
f 56 70 57
f 57 70 58
f 58 70 71
f 58 71 59
f 59 71 72
f 60 66 73
f 60 73 74
f 65 75 66
f 66 75 76
f 66 76 77
f 66 77 73
f 67 78 68
f 68 78 79
f 68 79 80
f 68 80 70
f 68 70 69
f 70 80 81
f 70 81 72
f 70 72 71
f 73 77 82
f 73 82 74
f 76 83 84
f 76 84 77
f 79 85 86
f 79 86 87
f 79 87 80
f 80 88 89
f 80 89 90
f 80 90 81
f 80 87 91
f 80 91 92
f 80 92 88
f 83 93 84
f 84 93 94
f 85 95 86
f 86 95 96
f 86 96 97
f 86 97 98
f 86 98 87
f 87 98 99
f 87 99 91
f 88 100 101
f 88 101 89
f 88 92 102
f 88 102 103
f 88 103 104
f 88 104 105
f 88 105 100
f 91 99 92
f 92 99 102
f 93 106 94
f 94 107 108
f 94 106 109
f 94 109 110
f 94 110 107
f 96 111 97
f 96 112 111
f 97 111 98
f 98 113 114
f 98 114 115
f 98 115 99
f 98 111 113
f 99 115 102
f 102 115 103
f 103 115 116
f 103 116 104
f 107 110 117
f 107 117 108
f 109 118 110
f 110 118 119
f 110 119 117
f 111 120 121
f 111 121 114
f 111 114 113
f 111 112 122
f 111 122 120
f 112 123 122
f 114 121 124
f 114 124 125
f 114 125 126
f 114 126 116
f 114 116 115
f 118 127 128
f 118 128 129
f 118 129 130
f 118 130 119
f 120 122 131
f 122 123 132
f 122 132 133
f 122 133 134
f 122 134 135
f 122 135 136
f 122 136 131
f 123 137 132
f 127 138 139
f 127 139 128
f 128 139 140
f 128 140 141
f 128 141 129
f 132 137 133
f 133 137 134
f 134 142 143
f 134 143 144
f 134 144 145
f 134 145 146
f 134 146 147
f 134 147 148
f 134 148 135
f 134 137 142
f 138 149 150
f 138 150 139
f 139 150 151
f 139 151 140
f 143 152 144
f 144 152 153
f 144 153 154
f 144 154 146
f 144 146 145
f 146 154 155
f 149 156 150
f 150 157 158
f 150 158 159
f 150 159 151
f 150 156 160
f 150 160 161
f 150 161 162
f 150 162 163
f 150 163 164
f 150 164 157
f 152 165 153
f 153 166 167
f 153 167 168
f 153 168 169
f 153 169 170
f 153 170 171
f 153 171 155
f 153 155 154
f 153 165 166
f 155 171 172
f 161 173 162
f 162 173 174
f 162 174 175
f 162 175 176
f 162 176 163
f 163 177 164
f 163 176 178
f 163 178 179
f 163 179 177
f 168 180 169
f 169 180 181
f 169 181 182
f 169 182 183
f 169 183 184
f 169 184 170
f 170 184 171
f 171 184 185
f 171 185 172
f 175 182 176
f 175 186 182
f 176 182 178
f 178 182 181
f 178 181 180
f 182 186 183
f 183 185 184

