# https://github.com/mikedh/trimesh
v 0.14901906 -0.01811084 0.23742546
v 0.14901906 0.02518861 0.19984390
v 0.20339131 0.01920153 0.19984390
v 0.21063808 0.01912134 0.19984390
v 0.23315328 0.01898770 0.19984390
v 0.21554579 -0.01728226 0.23742546
v 0.14901906 0.25494298 0.23742546
v 0.14901906 0.24831443 0.19984390
v 0.22151540 -0.01519749 0.23742546
v 0.24151935 0.02297018 0.19984390
v 0.18089047 0.25261766 0.23742546
v 0.18645829 0.24537434 0.19984390
v 0.24688625 -0.00100488 0.23742546
v 0.25568283 0.03064114 0.19984390
v 0.18703228 0.25176233 0.23742546
v 0.19291580 0.24355683 0.19984390
v 0.26014569 0.01177113 0.23742546
v 0.25928468 0.03358122 0.19984390
v 0.18960094 0.25080013 0.23742546
v 0.22708322 0.23184994 0.23742546
v 0.22761416 0.22554213 0.19984390
v 0.26899964 0.04766691 0.19984390
v 0.27039161 0.02668539 0.23742546
v 0.23457393 0.22746654 0.23742546
v 0.23615244 0.22041033 0.19984390
v 0.27715045 0.05980144 0.19984390
v 0.27227145 0.02965220 0.23742546
v 0.23870674 0.22471355 0.23742546
v 0.25295633 0.21340758 0.23742546
v 0.24553736 0.21295321 0.19984390
v 0.28639188 0.08898848 0.19984390
v 0.28662148 0.05763647 0.23742546
v 0.28287613 0.04790746 0.23742546
v 0.25561106 0.21118915 0.23742546
v 0.25364512 0.20568317 0.19984390
v 0.28706634 0.09171474 0.19984390
v 0.28967804 0.06760603 0.23742546
v 0.26396281 0.20215507 0.23742546
v 0.25888288 0.20025738 0.19984390
v 0.28854439 0.09917187 0.19984390
v 0.29381084 0.08492582 0.23742546
v 0.26657450 0.19889425 0.23742546
v 0.26486683 0.19242606 0.19984390
v 0.28989330 0.10628153 0.19984390
v 0.29003680 0.10804559 0.19984390
v 0.29478663 0.09724745 0.23742546
v 0.27016199 0.19333482 0.23742546
v 0.26625881 0.19028781 0.19984390
v 0.28993633 0.11702621 0.19984390
v 0.29561895 0.11427322 0.23742546
v 0.29550415 0.10833959 0.23742546
v 0.27703565 0.18208230 0.23742546
v 0.26765075 0.18798921 0.19984390
v 0.28930494 0.12178381 0.19984390
v 0.29467183 0.12702250 0.23742546
v 0.27753791 0.18122700 0.23742546
v 0.27822673 0.16989431 0.19984390
v 0.28561699 0.14594597 0.19984390
v 0.29231846 0.14239115 0.23742546
v 0.27892986 0.17866111 0.23742546
v 0.28436852 0.16845100 0.23742546
v 0.27996308 0.16663349 0.19984390
v 0.28125459 0.16321230 0.19984390
v 0.29145744 0.14621325 0.23742546
v 0.28464118 0.16780952 0.23742546
v 0.28683674 0.16198280 0.23742546
v 0.28853005 0.15735886 0.23742546
f 1 2 3
f 1 3 4
f 1 4 5
f 1 5 6
f 1 6 9
f 1 9 13
f 1 13 17
f 1 17 23
f 1 23 27
f 1 27 33
f 1 33 32
f 1 32 37
f 1 37 41
f 1 41 46
f 1 46 51
f 1 51 50
f 1 50 55
f 1 55 59
f 1 59 64
f 1 64 67
f 1 67 66
f 1 66 65
f 1 65 61
f 1 61 60
f 1 60 56
f 1 56 52
f 1 52 47
f 1 47 42
f 1 42 38
f 1 38 34
f 1 34 29
f 1 29 28
f 1 28 24
f 1 24 20
f 1 20 19
f 1 19 15
f 1 15 11
f 1 11 7
f 1 7 8
f 1 8 2
f 2 8 12
f 2 12 16
f 2 16 21
f 2 21 25
f 2 25 30
f 2 30 35
f 2 35 39
f 2 39 43
f 2 43 48
f 2 48 53
f 2 53 57
f 2 57 62
f 2 62 63
f 2 63 58
f 2 58 54
f 2 54 49
f 2 49 45
f 2 45 44
f 2 44 40
f 2 40 36
f 2 36 31
f 2 31 26
f 2 26 22
f 2 22 18
f 2 18 14
f 2 14 10
f 2 10 5
f 2 5 4
f 2 4 3
f 5 9 6
f 5 10 9
f 7 11 8
f 8 11 12
f 9 10 14
f 9 14 13
f 11 15 12
f 12 15 16
f 13 14 18
f 13 18 17
f 15 19 16
f 16 19 20
f 16 20 21
f 17 18 22
f 17 22 23
f 20 24 21
f 21 24 25
f 22 26 23
f 23 26 27
f 24 28 25
f 25 29 30
f 25 28 29
f 26 31 32
f 26 32 33
f 26 33 27
f 29 34 30
f 30 34 35
f 31 36 37
f 31 37 32
f 34 38 39
f 34 39 35
f 36 40 41
f 36 41 37
f 38 42 39
f 39 42 43
f 40 44 41
f 41 44 45
f 41 45 46
f 42 47 48
f 42 48 43
f 45 49 50
f 45 50 51
f 45 51 46
f 47 52 48
f 48 52 53
f 49 54 55
f 49 55 50
f 52 56 53
f 53 56 57
f 54 58 55
f 55 58 59
f 56 60 57
f 57 61 62
f 57 60 61
f 58 63 64
f 58 64 59
f 61 65 62
f 62 65 63
f 63 65 66
f 63 66 67
f 63 67 64

