# https://github.com/mikedh/trimesh
v 0.09086701 0.28839999 0.29385996
v 0.06906660 0.28466797 0.28457880
v 0.03744065 0.28323931 0.29440090
v 0.04689773 0.28528026 0.30536178
v 0.08699821 0.28621328 0.31131199
v 0.12144900 0.28618410 0.29613757
v 0.13366951 0.28513446 0.28358236
v 0.10425431 0.28612578 0.28153253
v 0.07256695 0.28055692 0.26960364
v 0.04450275 0.27921569 0.27293462
v 0.02528154 0.27976966 0.28509125
v 0.01238553 0.27860343 0.29408774
v 0.03774770 0.27877834 0.32287076
v 0.05715314 0.28023618 0.32398108
v -0.02427601 0.27116850 0.30254328
v 0.00538483 0.27568775 0.31435826
v 0.08263812 0.27869087 0.32970351
v 0.10757042 0.28181064 0.31959671
v 0.12783560 0.28210220 0.31247926
v 0.13569602 0.28364748 0.29906994
v 0.15497865 0.28186893 0.28176028
v 0.11911543 0.28393906 0.27413034
v 0.14889909 0.27848679 0.26331180
v 0.08902472 0.27618343 0.25673527
v 0.05948670 0.27699980 0.26416591
v 0.04824874 0.27250969 0.25781712
v 0.02878189 0.27239308 0.26408049
v -0.00081754 0.26667839 0.26470685
v 0.00071770 0.27256802 0.27908412
v -0.03532974 0.26664925 0.28753966
v -0.01113436 0.26825285 0.32842237
v -0.01475752 0.25868952 0.34837973
v 0.00409523 0.25845626 0.35546875
v 0.02712383 0.26694083 0.34450784
v 0.04290611 0.26370445 0.35304880
v -0.06161306 0.26029313 0.30060732
v -0.08685241 0.25300401 0.31227997
v -0.05246302 0.26198420 0.31455755
v -0.02034580 0.26933163 0.31686360
v 0.08841063 0.26583287 0.35250789
v 0.10364021 0.27618343 0.33246508
v 0.12943225 0.27834100 0.32133338
v 0.14410914 0.27816606 0.31600952
v 0.15761927 0.27874920 0.30262870
v 0.17413844 0.27810776 0.28204498
v 0.19022776 0.26944828 0.25909826
v 0.12900238 0.27630004 0.25627977
v 0.13336246 0.25556979 0.20742548
v 0.17499818 0.27186826 0.25744700
v 0.16062833 0.26787382 0.24378148
v 0.07244413 0.27472562 0.25664985
v 0.11426408 0.25437436 0.20742548
v 0.09805194 0.25163364 0.20742548
v -0.01076590 0.25758159 0.25260714
v -0.04521669 0.25638616 0.26800933
v -0.08101849 0.25210017 0.28751120
v -0.11147767 0.24571487 0.30786714
v -0.08365911 0.25005919 0.33035833
v -0.09158095 0.24142888 0.34576052
v -0.03139953 0.24752258 0.36139047
v -0.08777355 0.20851117 0.40033725
v -0.00781824 0.24504428 0.37018767
v 0.03369466 0.25507411 0.36474991
v 0.02411476 0.26014733 0.35637978
v 0.04923129 0.25457847 0.36702749
v 0.06089912 0.25976831 0.36056486
v -0.09907293 0.24743511 0.32534763
v -0.13174284 0.23793009 0.31976753
v 0.07140017 0.25306231 0.37124103
v 0.11352716 0.25971001 0.35558262
v 0.14146854 0.26204252 0.34570357
v 0.12507217 0.27309284 0.33292061
v 0.14785513 0.26956490 0.33200958
v 0.16597097 0.26933163 0.32329780
v 0.17874417 0.27522126 0.29579592
v 0.20324661 0.26851526 0.28013748
v 0.18623614 0.27434656 0.27683499
v 0.19127174 0.25457847 0.23011595
v 0.17978813 0.26361698 0.24218717
v 0.21006307 0.26352951 0.26749688
v 0.20189559 0.26134276 0.25064272
v 0.22388023 0.23425637 0.22362483
v 0.27742943 0.18116239 0.20742548
v 0.06096053 0.24393633 0.20742548
v 0.01441204 0.22985375 0.20742548
v -0.06136742 0.23725949 0.24864984
v -0.09870446 0.23195301 0.25827265
v -0.09090544 0.24236187 0.27060008
v -0.11246022 0.23504360 0.27290615
v -0.13131297 0.22883326 0.27618018
v -0.14427041 0.23303181 0.30490628
v -0.11417969 0.24142888 0.33129784
v -0.13690124 0.22559689 0.35384595
v -0.12965491 0.21524633 0.37519836
v -0.09937997 0.21874511 0.38083538
v -0.13653278 0.20087218 0.39105606
v -0.12222435 0.18781006 0.40873584
v -0.11786427 0.17568097 0.42075014
v -0.10810014 0.16801280 0.43034446
v -0.10048534 0.16022801 0.43894237
v -0.08801919 0.13722353 0.45989618
v -0.04761166 0.16544703 0.44093525
v 0.03805475 0.21466321 0.40694225
v 0.04192355 0.22822097 0.39507031
v 0.02829062 0.23629732 0.38541904
v 0.03903730 0.24583150 0.37659338
v -0.15661374 0.22685063 0.33237970
v 0.08226967 0.22081523 0.40335503
v 0.10321034 0.24358645 0.37716278
v 0.15424173 0.25052571 0.35652211
v 0.17389281 0.25075895 0.34906301
v 0.17585792 0.26084709 0.33403093
v 0.19145596 0.26472491 0.31427285
v 0.21245804 0.26017651 0.30308419
v 0.19753551 0.26807791 0.29562509
v 0.21694095 0.26172179 0.28520513
v 0.21393187 0.24933028 0.24047899
v 0.23953968 0.24685198 0.28543288
v 0.22787187 0.25157535 0.26650044
v 0.24279439 0.24102068 0.26385275
v 0.23468833 0.24221610 0.25121212
v 0.21595840 0.25565726 0.25559649
v 0.24058364 0.23241952 0.23874232
v 0.24156620 0.22387666 0.22447893
v 0.27122703 0.02820736 0.20742548
v 0.26115587 0.21087286 0.22968891
v 0.27638546 0.20128037 0.24275658
v 0.28320193 0.19031753 0.23814446
v 0.29112375 0.19107559 0.26231536
v 0.30414259 0.16349354 0.26464990
v 0.29394859 0.16792533 0.23976724
v 0.30334428 0.15489237 0.25368899
v 0.30217749 0.14524157 0.24292740
v 0.30469528 0.13206282 0.24235800
v 0.29523820 0.12984693 0.22396646
v 0.29708049 0.11083689 0.22499138
v 0.29462412 0.09063144 0.22299848
v -0.03925996 0.20903599 0.20742548
v -0.10361724 0.21932824 0.24677083
v -0.13524318 0.22064029 0.26410896
v -0.16269328 0.21880344 0.28440797
v -0.17067653 0.22005716 0.30316961
v -0.18566048 0.21416754 0.32361096
v -0.14034018 0.23201132 0.33368930
v -0.15477145 0.22110680 0.35088509
v -0.16471981 0.21375935 0.35703459
v -0.16926411 0.20209675 0.37257913
v -0.16355301 0.19279583 0.38684252
v -0.17251882 0.17489374 0.40230167
v -0.13131297 0.16305619 0.42744052
v -0.11768004 0.14343387 0.44873601
v -0.08746651 0.11914650 0.46937665
v -0.07647418 0.11153665 0.47481439
v -0.06628019 0.13121729 0.46570402
v -0.13604151 0.12331588 0.45645133
v -0.11583775 0.11937975 0.46348339
v 0.06096053 0.20017242 0.41870028
v 0.00194589 0.18480694 0.42818075
v -0.17503661 0.21857017 0.33553985
v 0.07164580 0.18664381 0.42800993
v 0.10130665 0.20655769 0.41104192
v 0.10849157 0.22075692 0.39666462
v 0.12322988 0.23128241 0.38336921
v 0.15178534 0.23962116 0.36768231
v 0.18402539 0.24058333 0.35612354
v 0.19268414 0.24548163 0.34707013
v 0.20134291 0.25110883 0.33274978
v 0.20772950 0.25699845 0.31774616
v 0.22658226 0.24927197 0.31304866
v 0.22995979 0.25198352 0.29835820
v 0.26011190 0.22851254 0.30137601
v 0.25440082 0.23437300 0.28110546
v 0.24733871 0.23349831 0.25169611
v 0.25372532 0.23192385 0.26521930
v 0.25206724 0.22524701 0.24136156
v 0.30027381 0.06025036 0.23501277
v 0.29996675 0.02981097 0.24594519
v 0.28608817 -0.00946283 0.24315515
v -0.13542742 0.01555344 0.20742548
v 0.26698980 0.21961981 0.26297018
v 0.27724519 0.21183503 0.27222288
v 0.29321170 0.19203776 0.28973183
v 0.30696744 0.16623425 0.29010195
v 0.31224868 0.14780734 0.28847915
v 0.30880973 0.14051822 0.25847194
v 0.30923960 0.10999136 0.25536871
v 0.30549362 0.10859184 0.24210176
v -0.09428297 0.18259105 0.20742548
v -0.14476168 0.20533311 0.25212315
v -0.16742182 0.20900685 0.27088478
v -0.19339809 0.20329216 0.28961796
v -0.19530179 0.20751986 0.31008780
v -0.21483004 0.19501172 0.32469282
v -0.20316222 0.20107627 0.33679253
v -0.18836249 0.20795721 0.34576052
v -0.18191449 0.20247579 0.36124814
v -0.20365350 0.18267852 0.37112716
v -0.19259976 0.18291177 0.37907025
v -0.18983634 0.17375663 0.39236566
v -0.17780004 0.18550670 0.38664323
v -0.16164932 0.14215098 0.43321991
v -0.14347208 0.15031479 0.43356156
v -0.19388936 0.15946995 0.40238708
v -0.13217270 0.13856474 0.44725555
v -0.09268633 0.10159428 0.47609553
v -0.06978054 0.09932008 0.48036599
v -0.05092778 0.09824128 0.48298523
v -0.05854258 0.11410242 0.47558308
v -0.04595361 0.12643562 0.46860796
v -0.01813505 0.13401632 0.46399584
v 0.04118663 0.17684722 0.43475729
v -0.13714688 0.10605523 0.46479300
v -0.15280633 0.11413158 0.45525560
v -0.16883424 0.08946518 0.46356881
v 0.07668139 0.16690485 0.44022352
v 0.10456136 0.17092845 0.43481424
v 0.06022362 0.17471880 0.43595302
v 0.11684328 0.17436892 0.42997438
v 0.11242179 0.19921026 0.41343337
v 0.14889909 0.20504156 0.39632300
v 0.21466880 0.21475068 0.36332643
v 0.21509866 0.22679231 0.35256481
v 0.22037989 0.23793009 0.33724803
v 0.25286558 0.22822097 0.31939742
v 0.26588440 0.22017378 0.31356111
v 0.27491161 0.21364272 0.30254328
v 0.26938477 0.22043619 0.28671402
v 0.30647618 0.08345894 0.24605907
v 0.30709025 0.05535207 0.25024414
v 0.30727449 0.04080298 0.25627977
v 0.30887115 0.02916953 0.26487765
v 0.30813423 0.00963467 0.27498445
v 0.31120470 0.00741878 0.29417312
v 0.28553548 -0.00946283 0.37756136
v -0.14734088 -0.00946283 0.24227259
v -0.23429689 -0.00946283 0.24790961
v -0.25671139 0.00631084 0.25135446
v -0.26819500 0.02231775 0.25237939
v -0.24197309 0.04975402 0.23939714
v -0.16269328 0.11220725 0.20742548
v 0.27896467 0.21017310 0.29161084
v 0.28381601 0.20335048 0.30140448
v 0.29302746 0.18979271 0.30436534
v 0.30119494 0.17789686 0.29662153
v 0.30494094 0.16719642 0.30413759
v 0.31341544 0.12404479 0.30046499
v 0.31409097 0.13188788 0.28822294
v 0.30819562 0.14620373 0.31521237
v 0.31255573 0.12314094 0.27284920
v 0.31065202 0.08243846 0.25998083
v -0.11577634 0.16684654 0.20742548
v -0.16398288 0.18282430 0.24267116
v -0.16214059 0.19673195 0.25326195
v -0.18645880 0.19090065 0.26473531
v -0.19947764 0.19063824 0.27666417
v -0.21826898 0.18329081 0.28961796
v -0.23405126 0.17880070 0.31373194
v -0.24006939 0.17317350 0.32623020
v -0.22398007 0.18556501 0.33326226
v -0.24350834 0.16293956 0.35088509
v -0.22625223 0.17250291 0.36062178
v -0.20635551 0.17215303 0.38191724
v -0.22121665 0.16168584 0.38015211
v -0.19689843 0.13696112 0.41707751
v -0.18805546 0.10515138 0.44480717
v -0.17122921 0.12147902 0.44241568
v -0.22649787 0.14413363 0.39219487
v -0.21974282 0.12888476 0.40870738
v -0.08273797 0.08812398 0.48196033
v -0.13997172 0.08232184 0.47327700
v -0.06351676 0.08360472 0.48574680
v -0.04110225 0.07567415 0.48856533
v -0.02587266 0.09692924 0.48298523
v -0.03901432 0.11296532 0.47638023
v -0.02108271 0.11687229 0.47413111
v -0.00622159 0.12124576 0.47111329
v -0.15354325 0.07232115 0.47367561
v -0.19904777 0.07622813 0.45391750
v -0.19880213 0.04631355 0.46652967
v 0.10112242 0.15288058 0.44307050
v 0.12986211 0.12188721 0.44933385
v 0.07127734 0.14497916 0.45052961
v 0.15129407 0.12290768 0.44173241
v 0.18549922 0.14430857 0.41764691
v 0.15964578 0.17291109 0.41297784
v 0.22535406 0.17203639 0.38590303
v 0.23100375 0.20422518 0.36264315
v 0.22682789 0.21617934 0.35504168
v 0.24211890 0.22215642 0.33804518
v 0.26606864 0.21122274 0.32588854
v 0.28234220 0.19888954 0.31692055
v 0.31163457 0.06914309 0.26561788
v 0.31145033 0.04643018 0.26872107
v 0.31237149 0.03056904 0.28002363
v 0.31347686 0.02150137 0.29479948
v 0.31310841 0.02085993 0.30971768
v 0.31040639 0.00759372 0.32084939
v 0.28203514 0.02327991 0.38299909
v 0.27325356 -0.00946283 0.39219487
v 0.30377415 0.00814769 0.34342599
v 0.29554525 0.01106334 0.36213070
v 0.29044825 0.03707094 0.37109870
v -0.30933943 -0.00946283 0.32124797
v -0.28667930 0.00738962 0.26974601
v -0.27359906 0.00639831 0.25932604
v -0.27525711 0.04371862 0.25975308
v -0.25327247 0.07409970 0.24472100
v -0.25339529 0.05730555 0.24392384
v -0.26027316 0.03788733 0.24796656
v -0.14654255 0.14293821 0.20742548
v -0.23098077 0.09109794 0.23637933
v -0.22643647 0.11751373 0.24053591
v 0.29775599 0.17728457 0.31168211
v 0.31341544 0.05978386 0.31151128
v 0.31439799 0.11284869 0.28907704
v 0.30825704 0.11996288 0.32489210
v 0.30911678 0.06821009 0.33172488
v 0.31034496 0.04080298 0.33055761
v 0.30291441 0.14360881 0.32919106
v 0.31353828 0.06124169 0.27783144
v -0.22004986 0.14629120 0.25024414
v -0.19843368 0.16760461 0.25274950
v -0.19917059 0.17906311 0.26379579
v -0.22674350 0.16457233 0.27447200
v -0.24559626 0.15885766 0.29619449
v -0.25830805 0.14815722 0.30630130
v -0.25468490 0.15646683 0.32654336
v -0.23325293 0.15454249 0.37462896
v -0.26678258 0.13369559 0.34467867
v -0.25744832 0.13833147 0.35925522
v -0.23908684 0.13369559 0.38974646
v -0.21581259 0.11413158 0.42134798
v -0.21513709 0.09494660 0.43410248
v -0.20746090 0.08360472 0.44497797
v -0.25081608 0.10468487 0.40187460
v -0.23349857 0.10468487 0.41548321
v -0.14494590 0.06290361 0.47797453
v -0.16748323 0.02100571 0.48358309
v -0.16926411 0.00564024 0.48554754
v 0.01441204 0.01141322 0.49827355
v -0.00646723 0.09229336 0.48167562
v 0.09246366 0.13104235 0.45272177
v -0.22287470 0.07401223 0.44047973
v -0.21433876 0.06121252 0.45115593
v -0.22748043 0.05713062 0.44489256
v -0.22557673 0.04249405 0.45115593
v -0.23478816 0.02692448 0.44998866
v -0.21194379 0.03640034 0.46114886
v -0.21182097 0.00803107 0.46726987
v -0.19419642 0.00593179 0.47717738
v -0.18338832 0.02820736 0.47635177
v 0.12648459 0.08733675 0.46228766
v 0.13631013 0.09573382 0.45739084
v 0.17069951 0.09389697 0.44748333
v 0.21264228 0.10646342 0.42524835
v 0.23094234 0.15089794 0.39387459
v 0.24003096 0.15850778 0.38382471
v 0.25483069 0.16999544 0.36753997
v 0.25826961 0.18725610 0.35401678
v 0.25642732 0.20113459 0.34516266
v 0.27073577 0.18375731 0.34510571
v 0.27644685 0.19399124 0.32990280
v 0.29081672 0.17331928 0.32711276
v 0.31415236 0.06051277 0.29252189
v 0.31323123 0.03660444 0.31552553
v 0.30887115 0.02584569 0.33280674
v 0.27933311 0.03698348 0.38618773
v 0.29241335 0.05584773 0.36836559
v 0.25888371 0.02056836 0.40717000
v 0.26361224 0.00744793 0.40213084
v 0.24236453 -0.00946283 0.42083552
v 0.30580065 0.05392340 0.34257188
v 0.30033520 0.06404071 0.35472852
v -0.31296259 -0.00946283 0.36264315
v -0.31228709 0.01021780 0.34943312
v -0.30614614 0.01211298 0.29978171
v -0.29644343 0.00698143 0.28127629
v -0.29920685 0.02010186 0.28580299
v -0.26813358 0.08211774 0.26046482
v -0.28250343 0.06669395 0.27116948
v -0.25050902 0.09386781 0.24736869
v -0.20082866 0.13226692 0.23273519
v -0.22962976 0.13334571 0.25001639
v 0.30156338 0.09395528 0.34795269
v 0.30745873 0.08789073 0.33423021
v 0.29100093 0.15028565 0.34297046
v 0.29769459 0.13276258 0.34157544
v 0.29523820 0.11229472 0.35253635
v -0.23595496 0.14025581 0.26035094
v -0.22993681 0.15148106 0.26430824
v -0.25057045 0.14384206 0.28258592
v -0.27095842 0.11486049 0.28309837
v -0.27495006 0.11929228 0.30009487
v -0.27230945 0.13025513 0.32517681
v -0.29011822 0.09966996 0.32759675
v -0.28545108 0.09841622 0.35042956
v -0.29718032 0.06013373 0.37605244
v -0.26537016 0.10620101 0.38356850
v -0.25093889 0.11800940 0.39011657
v -0.24719290 0.08506255 0.41793162
v -0.25904498 0.08929024 0.40483546
v -0.14727947 -0.00946283 0.48773968
v 0.01840367 -0.00946283 0.48096389
v 0.07084748 -0.00946283 0.47766137
v 0.10806170 -0.00946283 0.47336242
v 0.13016917 -0.00946283 0.46968982
v 0.15884745 0.00753540 0.46308482
v 0.15725081 0.05048294 0.46131968
v 0.14238968 0.08133052 0.46029475
v -0.23939389 0.05937567 0.43598151
v -0.23847274 0.04424344 0.44230181
v -0.25143018 0.04491404 0.43287829
v -0.24995634 0.02176378 0.44010961
v -0.24307847 0.00736046 0.44856519
v 0.16799748 0.06313685 0.45670754
v 0.21258086 0.07235031 0.43589610
v 0.20269392 0.09687093 0.43310603
v 0.24058364 0.10751306 0.40637285
v 0.22762622 0.12596911 0.40719849
v 0.23972392 0.13908954 0.39327672
v 0.24924241 0.14404616 0.38430870
v 0.26318240 0.14043075 0.37494212
v 0.27841198 0.14850710 0.35694918
v 0.28209653 0.16521378 0.34473559
v 0.27558714 0.05981302 0.38900623
v 0.25839242 0.03438854 0.40725541
v 0.28805327 0.09197263 0.36782467
v 0.25194442 0.05036630 0.41266468
v 0.24230312 0.01940210 0.42143339
v 0.23020543 0.02228860 0.43079999
v 0.21952015 0.01065515 0.43675017
v 0.19569322 -0.00946283 0.44970396
v -0.30890957 -0.00946283 0.38186029
v -0.30590051 0.02943194 0.38331226
v -0.31026059 0.02406714 0.36341184
v -0.30626896 0.04132779 0.30923370
v -0.30012798 0.05890916 0.29781729
v -0.29859275 0.03902443 0.28790978
v -0.29036388 0.05240726 0.27916953
v -0.27660811 0.08733675 0.27045774
v -0.28655648 0.08284666 0.28326917
v -0.25849229 0.09943670 0.25744700
v -0.25007915 0.11824264 0.25835806
v 0.27521867 0.13215029 0.36779618
v 0.28700933 0.12007950 0.36002392
v -0.26236108 0.11127424 0.26681361
v -0.25511476 0.12952621 0.27367485
v -0.27986282 0.09952417 0.28423715
v -0.28766185 0.09130204 0.29514110
v -0.29073232 0.09281817 0.30900592
v -0.28360882 0.11002051 0.32073551
v -0.29632059 0.08176786 0.31774616
v -0.30049646 0.06208722 0.35569650
v -0.29656625 0.04777138 0.38593149
v -0.28336316 0.06371999 0.39307743
v -0.27550274 0.07488693 0.39606676
v -0.26346645 0.05179498 0.42006683
v -0.27685374 0.05608098 0.40500629
v 0.18064786 0.03400951 0.45482856
v -0.26487887 0.03019001 0.42630175
v -0.26242250 0.00884745 0.43347615
v -0.27673092 0.00633998 0.42203128
v 0.19243851 0.03989913 0.44910610
v 0.19299120 0.06086265 0.44623065
v 0.21350200 0.03016085 0.43996727
v 0.21939734 0.05905495 0.43381780
v 0.24033801 0.06316601 0.41881418
v 0.24230312 0.09071891 0.40993157
v 0.26606864 0.11002051 0.38595995
v 0.27650827 0.09727912 0.37887096
v 0.27036732 0.08296327 0.38892081
v 0.27970156 0.11194484 0.37078553
v -0.29601356 0.00878914 0.40113440
v -0.28594238 0.04313549 0.40144756
v -0.29662764 0.07587825 0.30510557
v -0.27685374 0.03849961 0.41266468
f 1 2 3
f 1 3 4
f 1 4 5
f 1 5 6
f 1 6 7
f 1 7 8
f 1 8 2
f 2 8 9
f 2 9 10
f 2 10 11
f 2 11 3
f 3 11 12
f 3 12 4
f 4 13 14
f 4 14 5
f 4 12 15
f 4 15 16
f 4 16 13
f 5 14 17
f 5 17 18
f 5 18 19
f 5 19 6
f 6 19 20
f 6 20 21
f 6 21 7
f 7 22 8
f 7 21 23
f 7 23 22
f 8 22 9
f 9 24 25
f 9 25 10
f 9 22 24
f 10 25 26
f 10 26 27
f 10 27 28
f 10 28 29
f 10 29 11
f 11 29 30
f 11 30 12
f 12 30 15
f 13 16 31
f 13 31 32
f 13 32 33
f 13 33 34
f 13 34 14
f 14 34 35
f 14 35 17
f 15 30 36
f 15 36 37
f 15 37 38
f 15 38 39
f 15 39 16
f 16 39 31
f 17 40 41
f 17 41 18
f 17 35 40
f 18 41 42
f 18 42 19
f 19 42 43
f 19 43 44
f 19 44 20
f 20 44 45
f 20 45 21
f 21 45 46
f 21 46 23
f 22 23 47
f 22 47 48
f 22 48 24
f 23 46 49
f 23 49 50
f 23 50 48
f 23 48 47
f 24 51 25
f 24 48 52
f 24 52 51
f 25 51 26
f 26 51 52
f 26 52 53
f 26 53 54
f 26 54 27
f 27 54 28
f 28 54 55
f 28 55 30
f 28 30 29
f 30 55 56
f 30 56 57
f 30 57 36
f 31 39 58
f 31 58 32
f 32 58 59
f 32 59 60
f 32 60 33
f 33 60 61
f 33 61 62
f 33 62 63
f 33 63 64
f 33 64 34
f 34 64 35
f 35 65 66
f 35 66 40
f 35 64 65
f 36 57 37
f 37 67 38
f 37 57 68
f 37 68 67
f 38 67 58
f 38 58 39
f 40 66 69
f 40 69 70
f 40 70 71
f 40 71 72
f 40 72 41
f 41 72 42
f 42 72 73
f 42 73 43
f 43 73 74
f 43 74 75
f 43 75 44
f 44 75 45
f 45 75 76
f 45 76 77
f 45 77 46
f 46 78 79
f 46 79 49
f 46 77 80
f 46 80 81
f 46 81 78
f 48 50 49
f 48 49 79
f 48 79 78
f 48 78 82
f 48 82 83
f 48 83 125
f 48 125 179
f 48 179 240
f 48 240 310
f 48 310 251
f 48 251 188
f 48 188 138
f 48 138 85
f 48 85 84
f 48 84 53
f 48 53 52
f 53 84 54
f 54 85 86
f 54 86 87
f 54 87 55
f 54 84 85
f 55 87 88
f 55 88 56
f 56 88 89
f 56 89 90
f 56 90 91
f 56 91 57
f 57 91 68
f 58 67 92
f 58 92 59
f 59 92 93
f 59 93 60
f 60 93 94
f 60 94 95
f 60 95 61
f 61 95 94
f 61 94 96
f 61 96 97
f 61 97 98
f 61 98 99
f 61 99 100
f 61 100 101
f 61 101 102
f 61 102 103
f 61 103 104
f 61 104 105
f 61 105 106
f 61 106 62
f 62 106 63
f 63 106 65
f 63 65 64
f 65 106 69
f 65 69 66
f 67 68 92
f 68 91 107
f 68 107 92
f 69 108 109
f 69 109 70
f 69 106 104
f 69 104 108
f 70 109 110
f 70 110 71
f 71 110 111
f 71 111 112
f 71 112 73
f 71 73 72
f 73 112 74
f 74 112 113
f 74 113 75
f 75 113 114
f 75 114 115
f 75 115 76
f 76 115 116
f 76 116 80
f 76 80 77
f 78 81 117
f 78 117 82
f 80 116 118
f 80 118 119
f 80 119 120
f 80 120 121
f 80 121 122
f 80 122 81
f 81 122 117
f 82 117 123
f 82 123 124
f 82 124 83
f 83 124 126
f 83 126 127
f 83 127 128
f 83 128 129
f 83 129 130
f 83 130 131
f 83 131 132
f 83 132 133
f 83 133 134
f 83 134 135
f 83 135 136
f 83 136 137
f 83 137 125
f 85 138 87
f 85 87 86
f 87 138 139
f 87 139 140
f 87 140 89
f 87 89 88
f 89 140 90
f 90 140 141
f 90 141 91
f 91 141 142
f 91 142 143
f 91 143 107
f 92 107 144
f 92 144 145
f 92 145 93
f 93 145 94
f 94 145 146
f 94 146 147
f 94 147 96
f 96 147 148
f 96 148 149
f 96 149 97
f 97 149 150
f 97 150 98
f 98 150 151
f 98 151 99
f 99 151 100
f 100 151 101
f 101 152 153
f 101 153 154
f 101 154 102
f 101 151 155
f 101 155 156
f 101 156 152
f 102 154 157
f 102 157 158
f 102 158 103
f 103 157 108
f 103 108 104
f 103 158 157
f 104 106 105
f 107 143 159
f 107 159 145
f 107 145 144
f 108 157 160
f 108 160 161
f 108 161 162
f 108 162 163
f 108 163 109
f 109 163 164
f 109 164 110
f 110 164 165
f 110 165 111
f 111 165 166
f 111 166 112
f 112 166 167
f 112 167 168
f 112 168 113
f 113 168 114
f 114 168 169
f 114 169 170
f 114 170 116
f 114 116 115
f 116 170 118
f 117 122 121
f 117 121 123
f 118 171 172
f 118 172 120
f 118 120 119
f 118 170 171
f 120 173 121
f 120 172 174
f 120 174 173
f 121 173 123
f 123 173 175
f 123 175 124
f 124 175 126
f 125 137 176
f 125 176 177
f 125 177 178
f 125 178 179
f 126 175 127
f 127 180 181
f 127 181 129
f 127 129 128
f 127 175 180
f 129 182 183
f 129 183 130
f 129 181 182
f 130 132 131
f 130 183 184
f 130 184 185
f 130 185 132
f 132 185 133
f 133 185 134
f 134 185 186
f 134 186 187
f 134 187 136
f 134 136 135
f 136 187 176
f 136 176 137
f 138 188 189
f 138 189 139
f 139 189 140
f 140 189 190
f 140 190 141
f 141 190 191
f 141 191 142
f 142 191 192
f 142 192 143
f 143 192 193
f 143 193 194
f 143 194 159
f 145 159 195
f 145 195 146
f 146 196 147
f 146 195 196
f 147 196 197
f 147 197 198
f 147 198 199
f 147 199 200
f 147 200 149
f 147 149 148
f 149 201 202
f 149 202 150
f 149 200 199
f 149 199 203
f 149 203 201
f 150 202 151
f 151 202 204
f 151 204 155
f 152 156 205
f 152 205 153
f 153 205 206
f 153 206 207
f 153 207 208
f 153 208 154
f 154 208 209
f 154 209 210
f 154 210 211
f 154 211 157
f 155 212 156
f 155 204 201
f 155 201 213
f 155 213 214
f 155 214 212
f 156 212 205
f 157 211 160
f 159 194 195
f 160 215 216
f 160 216 161
f 160 211 210
f 160 210 217
f 160 217 215
f 161 216 218
f 161 218 219
f 161 219 164
f 161 164 163
f 161 163 162
f 164 219 165
f 165 219 220
f 165 220 221
f 165 221 222
f 165 222 166
f 166 222 223
f 166 223 167
f 167 223 168
f 168 223 169
f 169 223 224
f 169 224 170
f 170 224 171
f 171 224 225
f 171 225 226
f 171 226 227
f 171 227 172
f 172 227 181
f 172 181 180
f 172 180 174
f 173 174 180
f 173 180 175
f 176 187 228
f 176 228 229
f 176 229 177
f 177 229 230
f 177 230 231
f 177 231 232
f 177 232 178
f 178 232 233
f 178 233 234
f 178 234 299
f 178 299 371
f 178 371 432
f 178 432 406
f 178 406 405
f 178 405 404
f 178 404 403
f 178 403 402
f 178 402 433
f 178 433 374
f 178 374 303
f 178 303 236
f 178 236 235
f 178 235 179
f 179 235 236
f 179 236 237
f 179 237 238
f 179 238 239
f 179 239 240
f 181 227 241
f 181 241 182
f 182 241 242
f 182 242 243
f 182 243 244
f 182 244 183
f 183 244 245
f 183 245 184
f 184 246 247
f 184 247 185
f 184 245 248
f 184 248 246
f 185 247 249
f 185 249 186
f 186 249 250
f 186 250 187
f 187 250 228
f 188 251 252
f 188 252 253
f 188 253 189
f 189 253 190
f 190 254 255
f 190 255 191
f 190 253 254
f 191 255 256
f 191 256 257
f 191 257 192
f 192 257 193
f 193 257 258
f 193 258 259
f 193 259 194
f 194 259 260
f 194 260 261
f 194 261 195
f 195 261 197
f 195 197 196
f 197 262 199
f 197 199 198
f 197 261 263
f 197 263 262
f 199 262 203
f 201 203 264
f 201 264 265
f 201 265 266
f 201 266 213
f 201 204 202
f 203 262 267
f 203 267 268
f 203 268 264
f 205 269 206
f 205 212 270
f 205 270 269
f 206 269 271
f 206 271 207
f 207 271 272
f 207 272 273
f 207 273 274
f 207 274 208
f 208 274 209
f 209 274 275
f 209 275 210
f 210 275 276
f 210 276 215
f 210 215 217
f 212 214 270
f 213 266 214
f 214 277 270
f 214 266 265
f 214 265 278
f 214 278 279
f 214 279 277
f 215 276 216
f 216 280 281
f 216 281 218
f 216 276 282
f 216 282 280
f 218 281 283
f 218 283 284
f 218 284 285
f 218 285 221
f 218 221 220
f 218 220 219
f 221 286 287
f 221 287 288
f 221 288 222
f 221 285 286
f 222 288 289
f 222 289 223
f 223 289 224
f 224 289 290
f 224 290 225
f 225 290 291
f 225 291 242
f 225 242 226
f 226 242 241
f 226 241 227
f 228 250 229
f 229 250 292
f 229 292 293
f 229 293 231
f 229 231 230
f 231 293 294
f 231 294 232
f 232 294 233
f 233 294 295
f 233 295 296
f 233 296 297
f 233 297 234
f 234 298 299
f 234 297 300
f 234 300 301
f 234 301 302
f 234 302 298
f 236 303 304
f 236 304 305
f 236 305 237
f 237 305 238
f 238 305 304
f 238 304 306
f 238 306 307
f 238 307 308
f 238 308 309
f 238 309 239
f 239 309 308
f 239 308 240
f 240 308 307
f 240 307 311
f 240 311 312
f 240 312 310
f 242 291 243
f 243 313 245
f 243 245 244
f 243 291 313
f 245 313 248
f 246 314 315
f 246 315 247
f 246 248 316
f 246 316 317
f 246 317 318
f 246 318 314
f 247 315 249
f 248 313 319
f 248 319 316
f 249 315 320
f 249 320 292
f 249 292 250
f 251 310 252
f 252 310 321
f 252 321 322
f 252 322 253
f 253 322 254
f 254 322 323
f 254 323 255
f 255 323 324
f 255 324 256
f 256 324 325
f 256 325 257
f 257 325 326
f 257 326 327
f 257 327 258
f 258 260 259
f 258 327 260
f 260 328 261
f 260 327 329
f 260 329 330
f 260 330 328
f 261 328 263
f 262 263 267
f 263 328 331
f 263 331 267
f 264 268 265
f 265 268 332
f 265 332 333
f 265 333 334
f 265 334 278
f 267 331 335
f 267 335 268
f 268 335 336
f 268 336 332
f 269 270 337
f 269 337 338
f 269 338 271
f 270 277 337
f 271 338 339
f 271 339 272
f 272 339 340
f 272 340 273
f 273 340 341
f 273 341 342
f 273 342 276
f 273 276 275
f 273 275 274
f 276 342 282
f 277 338 337
f 277 279 338
f 278 334 343
f 278 343 344
f 278 344 279
f 279 344 345
f 279 345 346
f 279 346 347
f 279 347 348
f 279 348 349
f 279 349 350
f 279 350 351
f 279 351 338
f 280 282 342
f 280 342 281
f 281 342 352
f 281 352 353
f 281 353 354
f 281 354 283
f 283 354 355
f 283 355 284
f 284 355 286
f 284 286 285
f 286 355 356
f 286 356 357
f 286 357 358
f 286 358 287
f 287 358 359
f 287 359 360
f 287 360 289
f 287 289 288
f 289 360 290
f 290 361 362
f 290 362 291
f 290 360 361
f 291 362 363
f 291 363 313
f 292 320 293
f 293 320 294
f 294 320 295
f 295 320 364
f 295 364 365
f 295 365 296
f 296 365 297
f 297 365 318
f 297 318 366
f 297 366 300
f 298 367 299
f 298 302 368
f 298 368 367
f 299 367 369
f 299 369 370
f 299 370 371
f 300 366 372
f 300 372 301
f 301 372 373
f 301 373 368
f 301 368 302
f 303 374 375
f 303 375 376
f 303 376 377
f 303 377 304
f 304 377 378
f 304 378 306
f 306 379 307
f 306 378 380
f 306 380 379
f 307 379 381
f 307 381 311
f 310 312 382
f 310 382 321
f 311 381 312
f 312 381 383
f 312 383 321
f 312 321 382
f 313 363 319
f 314 318 365
f 314 365 315
f 315 365 364
f 315 364 320
f 316 319 384
f 316 384 385
f 316 385 317
f 317 385 372
f 317 372 318
f 318 372 366
f 319 363 386
f 319 386 387
f 319 387 388
f 319 388 384
f 321 383 389
f 321 389 390
f 321 390 323
f 321 323 322
f 323 390 324
f 324 390 391
f 324 391 325
f 325 391 326
f 326 391 392
f 326 392 393
f 326 393 394
f 326 394 327
f 327 394 329
f 328 330 331
f 329 394 395
f 329 395 396
f 329 396 397
f 329 397 330
f 330 397 398
f 330 398 331
f 331 398 399
f 331 399 335
f 332 336 333
f 333 336 400
f 333 400 343
f 333 343 334
f 335 399 398
f 335 398 401
f 335 401 400
f 335 400 336
f 338 351 350
f 338 350 339
f 339 402 340
f 339 350 402
f 340 402 403
f 340 403 404
f 340 404 405
f 340 405 406
f 340 406 407
f 340 407 408
f 340 408 409
f 340 409 352
f 340 352 341
f 341 352 342
f 343 400 410
f 343 410 345
f 343 345 344
f 345 410 411
f 345 411 346
f 346 411 347
f 347 411 412
f 347 412 413
f 347 413 414
f 347 414 349
f 347 349 348
f 349 414 350
f 350 414 402
f 352 409 353
f 353 409 354
f 354 409 415
f 354 415 416
f 354 416 417
f 354 417 355
f 355 417 416
f 355 416 418
f 355 418 419
f 355 419 356
f 356 420 421
f 356 421 357
f 356 419 420
f 357 421 358
f 358 421 422
f 358 422 423
f 358 423 424
f 358 424 361
f 358 361 359
f 359 361 360
f 361 424 362
f 362 424 363
f 363 424 386
f 367 425 426
f 367 426 369
f 367 368 425
f 368 427 425
f 368 373 384
f 368 384 427
f 369 426 428
f 369 428 429
f 369 429 371
f 369 371 370
f 371 429 430
f 371 430 431
f 371 431 432
f 372 384 373
f 372 385 384
f 374 433 434
f 374 434 435
f 374 435 375
f 375 435 436
f 375 436 376
f 376 436 437
f 376 437 438
f 376 438 378
f 376 378 377
f 378 438 439
f 378 439 380
f 379 380 440
f 379 440 381
f 380 439 438
f 380 438 441
f 380 441 440
f 381 440 442
f 381 442 443
f 381 443 383
f 383 443 389
f 384 388 427
f 386 424 423
f 386 423 444
f 386 444 445
f 386 445 387
f 387 445 388
f 388 445 427
f 389 443 446
f 389 446 447
f 389 447 391
f 389 391 390
f 391 447 392
f 392 447 446
f 392 446 448
f 392 448 393
f 393 448 449
f 393 449 450
f 393 450 451
f 393 451 394
f 394 451 395
f 395 451 450
f 395 450 452
f 395 452 453
f 395 453 397
f 395 397 396
f 397 453 434
f 397 434 454
f 397 454 455
f 397 455 456
f 397 456 398
f 398 456 401
f 400 401 457
f 400 457 410
f 401 456 458
f 401 458 457
f 402 414 433
f 406 432 407
f 407 432 459
f 407 459 408
f 408 459 415
f 408 415 409
f 410 457 412
f 410 412 411
f 412 457 460
f 412 460 413
f 413 460 461
f 413 461 414
f 414 461 462
f 414 462 433
f 415 459 463
f 415 463 464
f 415 464 416
f 416 464 463
f 416 463 465
f 416 465 466
f 416 466 467
f 416 467 468
f 416 468 418
f 418 468 469
f 418 469 421
f 418 421 420
f 418 420 419
f 421 469 422
f 422 469 444
f 422 444 423
f 425 470 471
f 425 471 428
f 425 428 426
f 425 427 470
f 427 445 472
f 427 472 470
f 428 467 466
f 428 466 430
f 428 430 429
f 428 471 469
f 428 469 467
f 430 466 465
f 430 465 431
f 431 465 432
f 432 465 459
f 433 462 473
f 433 473 434
f 434 473 474
f 434 474 454
f 434 453 435
f 435 453 452
f 435 452 436
f 436 475 437
f 436 452 475
f 437 475 441
f 437 441 438
f 440 446 442
f 440 441 448
f 440 448 446
f 441 449 448
f 441 475 449
f 442 446 443
f 444 469 445
f 445 469 472
f 449 475 450
f 450 475 452
f 454 474 455
f 455 474 458
f 455 458 456
f 457 458 476
f 457 476 460
f 458 474 476
f 459 465 463
f 460 476 462
f 460 462 461
f 462 476 473
f 467 469 468
f 469 471 470
f 469 470 472
f 473 476 474

