# https://github.com/mikedh/trimesh
v 0.28935632 0.13653164 0.21483876
v 0.28994483 0.11700394 0.21483876
v 0.28629339 0.11525485 0.21076483
v 0.28562462 0.13653164 0.21090411
v 0.15343642 0.13653164 0.21483876
v 0.29006523 0.10798231 0.21483876
v 0.28316355 0.10839657 0.20836473
v 0.27987322 0.11890262 0.20488523
v 0.27895033 0.13653164 0.20431815
v 0.28150502 0.13653164 0.20683017
v 0.15343642 0.13653164 0.19583701
v 0.15343642 0.02638486 0.21483876
v 0.28990471 0.10625623 0.21483876
v 0.27493775 0.08148126 0.20854381
v 0.27021626 0.11023772 0.20017706
v 0.28855380 0.09913328 0.21483876
v 0.28606600 0.09268926 0.21369468
v 0.26850420 0.13653164 0.19828187
v 0.15343642 0.11958155 0.19620511
v 0.21745065 0.13653164 0.18946993
v 0.20337982 0.01919287 0.21483876
v 0.22238614 0.11783246 0.18983553
v 0.26405025 0.09102072 0.20160219
v 0.27715805 0.05981323 0.21483876
v 0.25038067 0.10117006 0.19565545
v 0.24791960 0.13653164 0.19166109
v 0.25938225 0.13653164 0.19511324
v 0.28708252 0.09168813 0.21483876
v 0.28638700 0.08894943 0.21483876
v 0.22170401 0.13653164 0.18943013
v 0.21062924 0.01913533 0.21483876
v 0.22745538 0.13653164 0.18965895
v 0.23609583 0.07716607 0.20014225
v 0.23316664 0.01897423 0.21483876
v 0.26899910 0.04767315 0.21483876
v 0.25864661 0.03851343 0.21326441
v 0.25567728 0.03064252 0.21483876
v 0.24153958 0.02297873 0.21483876
v 0.23735312 0.02838711 0.21290874
v 0.25930199 0.03358836 0.21483876
f 1 2 3
f 1 3 4
f 1 4 10
f 1 10 9
f 1 9 18
f 1 18 27
f 1 27 26
f 1 26 32
f 1 32 30
f 1 30 20
f 1 20 11
f 1 11 5
f 1 5 12
f 1 12 21
f 1 21 31
f 1 31 34
f 1 34 38
f 1 38 37
f 1 37 40
f 1 40 35
f 1 35 24
f 1 24 29
f 1 29 28
f 1 28 16
f 1 16 13
f 1 13 6
f 1 6 2
f 2 6 3
f 3 6 7
f 3 7 8
f 3 8 9
f 3 9 10
f 3 10 4
f 5 11 19
f 5 19 12
f 6 13 7
f 7 14 15
f 7 15 8
f 7 13 16
f 7 16 17
f 7 17 14
f 8 15 18
f 8 18 9
f 11 20 19
f 12 19 22
f 12 22 21
f 14 23 15
f 14 17 24
f 14 24 23
f 15 23 25
f 15 25 26
f 15 26 27
f 15 27 18
f 16 28 17
f 17 28 29
f 17 29 24
f 19 20 22
f 20 30 22
f 21 22 31
f 22 30 32
f 22 32 26
f 22 26 25
f 22 25 33
f 22 33 34
f 22 34 31
f 23 24 35
f 23 35 36
f 23 36 25
f 25 36 37
f 25 37 38
f 25 38 39
f 25 39 33
f 33 39 34
f 34 39 38
f 35 40 36
f 36 40 37

