# https://github.com/mikedh/trimesh
v 0.14960173 0.25617138 0.23742326
v 0.15733251 0.25591201 0.23742326
v 0.16400471 0.25452259 0.22186777
v 0.13340238 0.25557855 0.23742326
v 0.16400471 0.25489309 0.23742326
v 0.16400471 0.25011346 0.21651310
v 0.15604940 0.25324431 0.21821988
v 0.11383485 0.25231802 0.21998192
v 0.11643316 0.25470784 0.23742326
v 0.16400471 0.06693109 0.23742326
v 0.16400471 0.24827942 0.21483949
v 0.15614563 0.24953917 0.21483949
v 0.15236044 0.24992821 0.21483949
v 0.01442537 0.22986484 0.23742326
v 0.06029680 0.24379618 0.23742326
v 0.06174031 0.24416670 0.23742326
v 0.09522966 0.25113237 0.23742326
v 0.10106784 0.25216982 0.23742326
v 0.11213472 0.25411502 0.23742326
v 0.14331447 0.24927980 0.21483949
v 0.10822121 0.24676031 0.21483949
v 0.10517381 0.24620453 0.21483949
v -0.03635398 0.20570730 0.21929213
v 0.16400471 0.06693109 0.21483949
v -0.14041476 0.06693109 0.23742326
v -0.03574450 0.21046841 0.23742326
v 0.07290342 0.23603392 0.21483949
v 0.01124966 0.21615580 0.21483949
v -0.00161359 0.21198753 0.21483949
v -0.01091619 0.20856026 0.21483949
v -0.01762047 0.20607781 0.21483949
v -0.06005956 0.19298013 0.21818450
v -0.07119060 0.19590719 0.23742326
v -0.04296203 0.20765249 0.23742326
v -0.09951541 0.06693109 0.21483949
v -0.16370332 0.10815082 0.23742326
v -0.13130462 0.06693109 0.21977410
v -0.03006671 0.20042747 0.21483949
v -0.05040411 0.18966402 0.21483949
v -0.08135930 0.17971571 0.21831273
v -0.14336592 0.14372022 0.22192083
v -0.09441502 0.18260571 0.23742326
v -0.15488189 0.11217091 0.22143002
v -0.08244995 0.15270519 0.21483949
v -0.16193904 0.11620952 0.23742326
v -0.06865644 0.17532511 0.21483949
v -0.14974943 0.14025591 0.23742326
v -0.14359047 0.14570248 0.23742326
v -0.11584307 0.16684033 0.23742326
v -0.08052528 0.15939298 0.21483949
f 1 2 3
f 1 3 4
f 1 4 9
f 1 9 19
f 1 19 18
f 1 18 17
f 1 17 16
f 1 16 15
f 1 15 14
f 1 14 26
f 1 26 34
f 1 34 33
f 1 33 42
f 1 42 49
f 1 49 48
f 1 48 47
f 1 47 45
f 1 45 36
f 1 36 25
f 1 25 10
f 1 10 5
f 1 5 2
f 2 5 3
f 3 6 7
f 3 7 8
f 3 8 4
f 3 5 10
f 3 10 24
f 3 24 11
f 3 11 6
f 4 8 9
f 6 11 12
f 6 12 7
f 7 12 13
f 7 13 8
f 8 14 15
f 8 15 16
f 8 16 17
f 8 17 18
f 8 18 19
f 8 19 9
f 8 13 20
f 8 20 21
f 8 21 22
f 8 22 23
f 8 23 14
f 10 25 37
f 10 37 35
f 10 35 24
f 11 24 35
f 11 35 44
f 11 44 50
f 11 50 46
f 11 46 39
f 11 39 38
f 11 38 31
f 11 31 30
f 11 30 29
f 11 29 28
f 11 28 27
f 11 27 22
f 11 22 21
f 11 21 20
f 11 20 13
f 11 13 12
f 14 23 26
f 22 27 23
f 23 27 28
f 23 28 29
f 23 29 30
f 23 30 31
f 23 31 32
f 23 32 33
f 23 33 34
f 23 34 26
f 25 36 37
f 31 38 32
f 32 38 39
f 32 39 40
f 32 40 41
f 32 41 42
f 32 42 33
f 35 37 43
f 35 43 44
f 36 45 43
f 36 43 37
f 39 46 40
f 40 46 41
f 41 43 45
f 41 45 47
f 41 47 48
f 41 48 49
f 41 49 42
f 41 46 50
f 41 50 43
f 43 50 44

