# https://github.com/mikedh/trimesh
v -0.15478301 0.00550947 0.25471824
v -0.15478301 -0.00395623 0.25471824
v -0.15478301 0.00550947 0.25016832
v -0.26479682 0.00550947 0.25471824
v -0.21422170 -0.01779213 0.25471824
v -0.15478301 0.00234359 0.25158620
v -0.19779770 0.00550947 0.24594562
v -0.25823799 0.00550947 0.25195891
v -0.26195359 0.00072188 0.25471824
v -0.21906812 -0.01770545 0.25471824
v -0.21036610 0.00550947 0.24641366
v -0.25586864 0.00550947 0.25111559
v -0.25558862 -0.00687349 0.25471824
v -0.26117817 -0.00020644 0.25471824
v -0.24053240 -0.01509611 0.25471824
v -0.24080163 -0.01313226 0.25407499
v -0.23438282 0.00550947 0.24787362
v -0.25386545 0.00550947 0.25077808
v -0.24239558 -0.01440728 0.25471824
f 1 2 6
f 1 6 3
f 1 3 7
f 1 7 11
f 1 11 17
f 1 17 18
f 1 18 12
f 1 12 8
f 1 8 4
f 1 4 9
f 1 9 14
f 1 14 13
f 1 13 19
f 1 19 15
f 1 15 10
f 1 10 5
f 1 5 2
f 2 5 6
f 3 6 5
f 3 5 7
f 4 8 9
f 5 10 7
f 7 10 11
f 8 12 13
f 8 13 14
f 8 14 9
f 10 15 11
f 11 15 16
f 11 16 17
f 12 18 13
f 13 18 19
f 15 19 16
f 16 18 17
f 16 19 18

