# https://github.com/mikedh/trimesh
v 0.17894341 0.09691256 0.23742546
v 0.17894341 -0.01814409 0.23742546
v 0.17894341 0.09691256 0.19984610
v -0.14034562 0.09691256 0.23742546
v 0.10810184 -0.05377468 0.19984610
v 0.17894341 0.02510705 0.19984610
v 0.05517460 -0.10051857 0.23742546
v 0.06747305 -0.09010836 0.19984610
v 0.08827374 -0.07280336 0.19984610
v 0.10138790 -0.06071482 0.19984610
v -0.09940308 0.09691256 0.19984610
v -0.11998416 0.05892323 0.19984610
v -0.12045476 0.05783458 0.19984610
v -0.12469019 0.04288833 0.19984610
v -0.13221985 0.01546797 0.19984610
v -0.13403952 -0.00399164 0.19984610
v -0.13438463 -0.01172559 0.19984610
v -0.14156918 -0.00580606 0.23742546
v 0.05966102 -0.09475780 0.19984610
v 0.01034174 -0.12167919 0.23742546
v 0.01809102 -0.11612254 0.19984610
v -0.13200024 -0.03100376 0.19984610
v -0.13523172 -0.03665113 0.23742546
v -0.00048215 -0.12657812 0.23742546
v -0.02664772 -0.13354093 0.19984610
v -0.13030607 -0.03844287 0.19984610
v -0.13419640 -0.04000780 0.23742546
v -0.12258817 -0.06359521 0.19984610
v -0.03254596 -0.13345021 0.23742546
v -0.02809091 -0.13417599 0.21792215
v -0.02940860 -0.13410795 0.19984610
v -0.12415685 -0.06620343 0.23742546
v -0.11750564 -0.07427758 0.19984610
v -0.11967042 -0.07611467 0.23742546
v -0.04064035 -0.13177188 0.23742546
v -0.03508722 -0.13478835 0.21676712
v -0.03260871 -0.13440278 0.19984610
v -0.11010148 -0.08151256 0.19984610
v -0.08315156 -0.10949992 0.23742546
v -0.07022564 -0.11335556 0.19984610
v -0.03483623 -0.13331413 0.19984610
v -0.07769255 -0.10759479 0.19984610
f 1 2 6
f 1 6 3
f 1 3 11
f 1 11 4
f 1 4 18
f 1 18 23
f 1 23 27
f 1 27 32
f 1 32 34
f 1 34 39
f 1 39 35
f 1 35 29
f 1 29 24
f 1 24 20
f 1 20 7
f 1 7 2
f 2 5 6
f 2 7 8
f 2 8 9
f 2 9 10
f 2 10 5
f 3 6 5
f 3 5 10
f 3 10 9
f 3 9 8
f 3 8 19
f 3 19 21
f 3 21 25
f 3 25 31
f 3 31 37
f 3 37 41
f 3 41 40
f 3 40 42
f 3 42 38
f 3 38 33
f 3 33 28
f 3 28 26
f 3 26 22
f 3 22 17
f 3 17 16
f 3 16 15
f 3 15 14
f 3 14 13
f 3 13 12
f 3 12 11
f 4 11 12
f 4 12 13
f 4 13 14
f 4 14 15
f 4 15 16
f 4 16 17
f 4 17 18
f 7 19 8
f 7 20 21
f 7 21 19
f 17 22 18
f 18 22 23
f 20 24 21
f 21 24 25
f 22 26 23
f 23 26 28
f 23 28 27
f 24 29 30
f 24 30 25
f 25 30 31
f 27 28 32
f 28 33 34
f 28 34 32
f 29 35 36
f 29 36 30
f 30 36 37
f 30 37 31
f 33 38 34
f 34 38 39
f 35 39 36
f 36 39 40
f 36 40 41
f 36 41 37
f 38 42 39
f 39 42 40

