# https://github.com/mikedh/trimesh
v -0.11725576 0.04458958 -0.43523923
v -0.11659729 0.03554860 -0.42499223
v -0.11718521 0.05064382 -0.43205211
v -0.11596233 0.04749561 -0.43913737
v -0.10867207 -0.04321022 -0.41494843
v -0.10942461 -0.04307568 -0.41016144
v -0.11264644 0.00498146 -0.37026554
v -0.11346953 0.06172979 -0.39531791
v -0.11252885 0.06770329 -0.38847393
v -0.10349834 0.08887964 -0.43272507
v -0.11297567 0.05615989 -0.44064841
v -0.09910067 0.05363057 -0.46830380
v -0.11386932 0.03985383 -0.43975955
v -0.06739982 -0.00217599 -0.48329967
v -0.05883965 -0.01651779 -0.48442975
v -0.10342779 -0.04603553 -0.41818631
v -0.09910067 -0.05607210 -0.41419926
v -0.10594410 -0.04856485 -0.41187561
v -0.10789602 -0.04721947 -0.40600932
v -0.11020067 -0.00836476 -0.37026554
v -0.11262292 0.00473929 -0.37026554
v -0.11092970 0.06697679 -0.37026554
v -0.10996550 0.07246596 -0.37026554
v -0.10695533 0.07784750 -0.37026554
v -0.09903012 0.09568729 -0.43094742
v -0.09717228 0.09520295 -0.43809617
v -0.07991084 0.05287715 -0.48159820
v -0.08355597 0.04496629 -0.48039192
v -0.08167461 0.03484900 -0.47994751
v -0.06462482 0.12646970 -0.46495163
v -0.06133245 0.12614679 -0.47000527
v -0.09613754 0.05766672 -0.46951008
v -0.06669431 0.00428186 -0.48566142
v -0.05862800 -0.00712700 -0.48784542
v -0.05150236 -0.00718082 -0.49209911
v -0.05058520 -0.01420373 -0.49013099
v -0.05336020 -0.02181860 -0.48533130
v -0.03327673 -0.05023313 -0.48252511
v -0.05023245 -0.02916440 -0.48277906
v -0.08769495 -0.06392914 -0.41823712
v -0.06939876 -0.07778661 -0.42039570
v -0.09242186 -0.06212633 -0.41065663
v -0.10305152 -0.05319297 -0.40697435
v -0.10413330 -0.05058293 -0.40113342
v -0.09044643 -0.05305843 -0.37026554
v -0.10714347 -0.01891257 -0.37026554
v -0.10928351 -0.01202420 -0.37026554
v -0.10335724 0.08317522 -0.37026554
v -0.08092207 0.11148211 -0.37026554
v -0.07539558 0.12221828 -0.40960273
v -0.06511868 0.13478418 -0.41800857
v -0.06022715 0.13206650 -0.46676737
v -0.10281635 0.08387481 -0.37026554
v -0.06817588 0.05061691 -0.48627090
v -0.05263118 0.03872371 -0.49333078
v -0.06243774 0.04006909 -0.48947072
v -0.07339665 0.04049962 -0.48487416
v -0.07177398 0.06218722 -0.48277906
v -0.06269643 0.05769363 -0.48722324
v -0.06551846 0.03162008 -0.48841679
v -0.06316677 0.02013049 -0.48896280
v -0.06655321 0.01001320 -0.48641059
v -0.05667609 0.12918738 -0.47065285
v -0.04592884 0.07278885 -0.48996592
v -0.06034473 0.06727277 -0.48609313
v -0.05898075 0.00667664 -0.48997861
v -0.05027948 -0.00037317 -0.49347046
v -0.04456486 -0.00683102 -0.49472752
v -0.03943817 -0.01452662 -0.49395296
v -0.04404749 -0.02354070 -0.48893741
v -0.03459367 -0.00677720 -0.49832094
v -0.02878499 -0.05144398 -0.48319808
v -0.02671549 -0.05464599 -0.48225847
v -0.04348308 -0.08631635 -0.43050301
v -0.00736104 -0.12124254 -0.39522904
v -0.01175871 -0.12511724 -0.37026554
v -0.01690893 -0.12148470 -0.37026554
v -0.02045999 -0.11863248 -0.37026554
v -0.09982970 -0.05513033 -0.40240318
v -0.08228605 -0.06360625 -0.37026554
v -0.08277991 -0.06312191 -0.37026554
v -0.08322673 -0.06255685 -0.37026554
v -0.06608287 0.12275644 -0.37026554
v -0.05961571 0.14043479 -0.41671339
v -0.06648266 0.13292754 -0.41388184
v -0.05333668 0.14412114 -0.41717052
v -0.04992672 0.14393279 -0.42150038
v 0.02208218 0.13308899 -0.42144960
v 0.03301756 0.13055967 -0.42377326
v 0.00938303 0.12517813 -0.44703528
v -0.05813414 0.04886791 -0.49011829
v -0.04853923 0.04781851 -0.49350855
v -0.03478181 0.05602535 -0.49665755
v -0.04705766 0.02903694 -0.49571794
v -0.05698181 0.02992489 -0.49193403
v -0.05004431 0.06735349 -0.48975006
v -0.05418329 0.05788198 -0.49010557
v -0.05211380 0.01940398 -0.49373710
v 0.01730824 0.11928535 -0.45414597
v 0.01787265 0.11882791 -0.45467925
v 0.02878451 0.11005601 -0.46332633
v 0.00870104 0.09940056 -0.48255050
v 0.00733705 0.08904109 -0.48856917
v -0.00388053 0.09159733 -0.48783273
v -0.01432206 0.08637723 -0.49072778
v -0.01742630 0.07599086 -0.49489260
v -0.02107143 0.06474344 -0.49890503
v -0.03896783 0.07504909 -0.49118489
v -0.04089621 0.06587357 -0.49297523
v -0.04637567 0.00974412 -0.49560365
v -0.04033181 0.00151037 -0.49708927
v -0.03595766 0.01033609 -0.49910820
v -0.03047821 0.00188707 -0.49927327
v 0.02803197 -0.00954870 -0.49634010
v 0.01434510 -0.01883185 -0.49514654
v -0.02920829 -0.01406919 -0.49628931
v -0.02384643 -0.05561467 -0.48222038
v 0.00498536 -0.12040839 -0.40169212
v 0.00002328 -0.12996063 -0.37026554
v -0.00129367 -0.12969154 -0.37026554
v -0.05846338 0.12671188 -0.37026554
v 0.03327625 0.13163596 -0.40025729
v -0.05759325 0.12708858 -0.37026554
v -0.05176105 0.12913355 -0.37026554
v -0.04254240 0.13125926 -0.37026554
v -0.00124664 0.13123235 -0.37026554
v 0.00879510 0.13077493 -0.37026554
v 0.02177646 0.12953717 -0.37026554
v 0.02638578 0.13319662 -0.41409770
v 0.04421163 0.12924120 -0.41242161
v 0.05136079 0.12558174 -0.41425008
v 0.04900909 0.12181467 -0.42862377
v 0.03896735 0.10771503 -0.46093917
v -0.02513986 0.05556792 -0.49891773
v -0.04148414 0.01953852 -0.49771145
v 0.04496418 0.10370579 -0.46380883
v 0.04519935 0.08820695 -0.48251241
v 0.01846057 0.09138206 -0.48571220
v 0.02029489 0.08045754 -0.49039763
v 0.01204044 0.08005393 -0.49189594
v 0.00204574 0.07916597 -0.49326730
v -0.00790193 0.07779368 -0.49427041
v -0.00209325 0.06743422 -0.49725434
v -0.00599706 0.05650969 -0.49992085
v -0.01554494 0.05572937 -0.49998432
v 0.04444680 0.02564657 -0.49901932
v 0.03769744 -0.00771897 -0.49404186
v 0.03358197 -0.01654470 -0.49246734
v 0.02901968 -0.02537042 -0.49006748
v 0.01956587 -0.02604311 -0.49178168
v 0.04985570 0.01795097 -0.49771145
v 0.04160125 0.00081077 -0.49556556
v 0.00065824 -0.02730777 -0.49249274
v 0.00599659 -0.03438450 -0.48952150
v -0.02043647 -0.04888774 -0.48464561
v 0.01547392 -0.03392706 -0.48878503
v 0.01086459 -0.04041182 -0.48602965
v -0.01646210 -0.05381185 -0.48229656
v -0.02095384 -0.05650262 -0.48097602
v 0.02386947 -0.08946455 -0.44148645
v 0.01935421 -0.11639915 -0.40683466
v 0.02742053 -0.12449837 -0.39378151
v 0.01037074 -0.13076785 -0.37026554
v 0.04068409 0.12671188 -0.37026554
v 0.04331799 0.12620062 -0.37026554
v 0.04153070 0.13042513 -0.40504429
v 0.05030252 0.12663114 -0.40580615
v 0.06041481 0.11976968 -0.38929927
v 0.06841058 0.11097086 -0.39552110
v 0.05658155 0.11721345 -0.42136073
v 0.05439447 0.11629859 -0.43120137
v 0.06612943 0.08215272 -0.46482465
v 0.05119617 0.08460133 -0.48293144
v 0.04569320 0.07892380 -0.48583919
v 0.06067350 0.06581976 -0.48695657
v 0.01683790 0.07052860 -0.49410534
v 0.00750167 0.06880651 -0.49600998
v 0.00345676 0.05780126 -0.49900660
v 0.04849172 0.03506426 -0.49856219
v 0.04362371 -0.01439208 -0.49000400
v 0.03939066 -0.02362142 -0.48750257
v 0.02391650 -0.03263550 -0.48787081
v 0.05439447 0.02739557 -0.49645439
v 0.06544744 0.02895621 -0.49220070
v 0.06025019 0.02018431 -0.49345776
v 0.06598833 0.01348429 -0.48907709
v 0.05801608 -0.00481294 -0.48736289
v 0.05220740 -0.01172822 -0.48771843
v 0.04743345 -0.00588925 -0.49145153
v 0.02107095 -0.04143431 -0.48289335
v 0.00851290 -0.04802670 -0.48110297
v 0.03174765 -0.09280110 -0.43499795
v 0.03045422 -0.11763690 -0.40288571
v 0.03346439 -0.03408851 -0.48384565
v 0.03393473 -0.08147296 -0.44373390
v 0.04392943 -0.12552086 -0.37026554
v 0.03880273 -0.12735058 -0.37026554
v 0.02403409 -0.13017589 -0.37026554
v 0.05707540 -0.11023729 -0.39832726
v 0.06923367 -0.10932242 -0.39140707
v 0.04651630 0.12531266 -0.37026554
v 0.05343028 0.12329459 -0.37026554
v 0.05850994 0.12028093 -0.37026554
v 0.06413049 0.11659458 -0.37026554
v 0.06544744 0.11527610 -0.37026554
v 0.07057413 0.10930259 -0.37026554
v 0.09686609 0.06853743 -0.37026554
v 0.09926482 0.05543339 -0.44862249
v 0.08630697 0.07782058 -0.43126485
v 0.06819893 0.06708442 -0.48347744
v 0.06584723 0.07591014 -0.47439864
v 0.05768685 0.07593705 -0.48429009
v 0.06711715 0.05710166 -0.48723593
v 0.01293409 0.05936191 -0.49750829
v 0.06342498 0.04698437 -0.49094364
v 0.05895676 0.03697471 -0.49439737
v 0.05103155 -0.01971980 -0.48421389
v 0.04475252 -0.02962184 -0.48173785
v 0.07113855 0.02171804 -0.48860726
v 0.07029193 0.03786266 -0.48964846
v 0.07751164 0.03008634 -0.48571220
v 0.07087985 0.00694572 -0.48479798
v 0.06349553 -0.00798805 -0.48380756
v 0.05919193 -0.01248163 -0.48401073
v 0.03924955 -0.08521313 -0.43719465
v 0.07097393 -0.10133084 -0.40038428
v 0.06060295 -0.11825578 -0.37026554
v 0.07259659 -0.11099070 -0.37026554
v 0.06271947 -0.11720638 -0.37026554
v 0.07960465 -0.10143847 -0.39108962
v 0.10354490 0.05747837 -0.37026554
v 0.10893028 0.04779160 -0.37026554
v 0.11123495 0.03971929 -0.37026554
v 0.10109914 0.04902935 -0.44836855
v 0.09783028 0.04994421 -0.45401898
v 0.09042244 0.05112815 -0.46620870
v 0.08856460 0.05699403 -0.46394852
v 0.07664151 0.05667114 -0.48230925
v 0.07433685 0.04701128 -0.48619473
v 0.07927541 0.02271363 -0.48404881
v 0.07969871 0.03891206 -0.48415041
v 0.07398409 0.00360917 -0.48196641
v 0.07991037 -0.08889949 -0.40208575
v 0.07828770 -0.10655093 -0.37026554
v 0.08313219 -0.10192281 -0.37026554
v 0.09166884 -0.08857659 -0.38719144
v 0.11335147 0.02906385 -0.37026554
v 0.09775973 0.04983658 -0.45414597
v 0.12151185 -0.03069814 -0.39016271
v 0.08802371 0.02545821 -0.46886247
v 0.07650041 0.00874854 -0.48172516
v 0.09808897 -0.07418098 -0.38965479
v 0.08884681 -0.09417339 -0.37026554
v 0.09470253 -0.08558984 -0.37026554
v 0.09141015 -0.09059467 -0.37026554
v 0.12299342 -0.03325437 -0.37026554
v 0.09952350 -0.07708701 -0.37026554
v 0.12252308 -0.02865316 -0.37026554
f 1 2 3
f 1 3 4
f 1 4 5
f 1 5 6
f 1 6 2
f 2 6 7
f 2 7 3
f 3 7 8
f 3 8 9
f 3 9 10
f 3 10 11
f 3 11 4
f 4 11 12
f 4 12 13
f 4 13 5
f 5 14 15
f 5 15 16
f 5 16 17
f 5 17 18
f 5 18 19
f 5 19 6
f 5 13 12
f 5 12 14
f 6 19 20
f 6 20 21
f 6 21 7
f 7 21 20
f 7 20 47
f 7 47 46
f 7 46 45
f 7 45 82
f 7 82 81
f 7 81 80
f 7 80 78
f 7 78 77
f 7 77 76
f 7 76 120
f 7 120 119
f 7 119 163
f 7 163 198
f 7 198 197
f 7 197 196
f 7 196 227
f 7 227 229
f 7 229 228
f 7 228 244
f 7 244 245
f 7 245 253
f 7 253 255
f 7 255 254
f 7 254 257
f 7 257 256
f 7 256 258
f 7 258 247
f 7 247 233
f 7 233 232
f 7 232 231
f 7 231 207
f 7 207 206
f 7 206 205
f 7 205 204
f 7 204 203
f 7 203 202
f 7 202 201
f 7 201 165
f 7 165 164
f 7 164 128
f 7 128 127
f 7 127 126
f 7 126 125
f 7 125 124
f 7 124 123
f 7 123 121
f 7 121 83
f 7 83 49
f 7 49 53
f 7 53 48
f 7 48 24
f 7 24 23
f 7 23 22
f 7 22 8
f 8 22 9
f 9 22 23
f 9 23 10
f 10 24 25
f 10 25 26
f 10 26 12
f 10 12 11
f 10 23 24
f 12 27 28
f 12 28 29
f 12 29 14
f 12 26 30
f 12 30 31
f 12 31 32
f 12 32 27
f 14 33 34
f 14 34 15
f 14 29 33
f 15 34 35
f 15 35 36
f 15 36 37
f 15 37 38
f 15 38 39
f 15 39 16
f 16 39 38
f 16 38 17
f 17 40 41
f 17 41 42
f 17 42 43
f 17 43 18
f 17 38 40
f 18 43 19
f 19 43 44
f 19 44 45
f 19 45 46
f 19 46 47
f 19 47 20
f 24 48 25
f 25 49 50
f 25 50 51
f 25 51 52
f 25 52 26
f 25 48 53
f 25 53 49
f 26 52 30
f 27 54 55
f 27 55 56
f 27 56 57
f 27 57 28
f 27 32 31
f 27 31 58
f 27 58 59
f 27 59 54
f 28 57 60
f 28 60 61
f 28 61 62
f 28 62 33
f 28 33 29
f 30 52 31
f 31 52 63
f 31 63 64
f 31 64 65
f 31 65 58
f 33 62 66
f 33 66 35
f 33 35 34
f 35 66 67
f 35 67 68
f 35 68 36
f 36 69 70
f 36 70 38
f 36 38 37
f 36 68 71
f 36 71 69
f 38 72 73
f 38 73 74
f 38 74 41
f 38 41 40
f 38 70 69
f 38 69 71
f 38 71 72
f 41 74 75
f 41 75 76
f 41 76 77
f 41 77 42
f 42 77 78
f 42 78 43
f 43 78 79
f 43 79 44
f 44 79 80
f 44 80 81
f 44 81 82
f 44 82 45
f 49 83 84
f 49 84 85
f 49 85 50
f 50 85 51
f 51 85 84
f 51 84 52
f 52 84 86
f 52 86 87
f 52 87 88
f 52 88 89
f 52 89 90
f 52 90 63
f 54 91 55
f 54 59 91
f 55 91 92
f 55 92 93
f 55 93 94
f 55 94 95
f 55 95 56
f 56 95 60
f 56 60 57
f 58 65 59
f 59 65 96
f 59 96 97
f 59 97 91
f 60 95 98
f 60 98 61
f 61 98 67
f 61 67 66
f 61 66 62
f 63 90 99
f 63 99 100
f 63 100 101
f 63 101 102
f 63 102 103
f 63 103 104
f 63 104 105
f 63 105 106
f 63 106 107
f 63 107 108
f 63 108 64
f 64 108 107
f 64 107 109
f 64 109 96
f 64 96 65
f 67 98 110
f 67 110 111
f 67 111 71
f 67 71 68
f 71 111 112
f 71 112 113
f 71 113 114
f 71 114 115
f 71 115 116
f 71 116 117
f 71 117 72
f 72 117 73
f 73 117 74
f 74 118 75
f 74 117 118
f 75 118 119
f 75 119 120
f 75 120 76
f 78 80 79
f 83 121 86
f 83 86 84
f 86 122 87
f 86 121 123
f 86 123 124
f 86 124 125
f 86 125 126
f 86 126 127
f 86 127 128
f 86 128 122
f 87 122 129
f 87 129 88
f 88 129 89
f 89 129 130
f 89 130 131
f 89 131 132
f 89 132 133
f 89 133 100
f 89 100 99
f 89 99 90
f 91 97 92
f 92 97 93
f 93 134 135
f 93 135 94
f 93 97 109
f 93 109 107
f 93 107 134
f 94 135 98
f 94 98 95
f 96 109 97
f 98 135 110
f 100 133 101
f 101 133 136
f 101 136 137
f 101 137 102
f 102 137 138
f 102 138 103
f 103 105 104
f 103 138 139
f 103 139 140
f 103 140 141
f 103 141 105
f 105 141 142
f 105 142 106
f 106 142 107
f 107 142 143
f 107 143 144
f 107 144 145
f 107 145 134
f 110 135 112
f 110 112 111
f 112 135 134
f 112 134 145
f 112 145 113
f 113 145 144
f 113 144 146
f 113 146 114
f 114 147 148
f 114 148 149
f 114 149 150
f 114 150 115
f 114 146 151
f 114 151 152
f 114 152 147
f 115 153 116
f 115 150 154
f 115 154 153
f 116 153 155
f 116 155 117
f 117 155 153
f 117 153 154
f 117 154 156
f 117 156 157
f 117 157 158
f 117 158 159
f 117 159 160
f 117 160 118
f 118 160 161
f 118 161 162
f 118 162 163
f 118 163 119
f 122 128 164
f 122 164 165
f 122 165 166
f 122 166 129
f 129 166 130
f 130 166 167
f 130 167 131
f 131 167 168
f 131 168 169
f 131 169 170
f 131 170 171
f 131 171 132
f 132 171 136
f 132 136 133
f 136 171 172
f 136 172 173
f 136 173 137
f 137 173 139
f 137 139 138
f 139 174 175
f 139 175 176
f 139 176 140
f 139 173 174
f 140 176 177
f 140 177 141
f 141 177 143
f 141 143 142
f 143 177 178
f 143 178 144
f 144 178 179
f 144 179 146
f 146 179 151
f 147 180 148
f 147 152 180
f 148 180 181
f 148 181 149
f 149 181 182
f 149 182 150
f 150 182 156
f 150 156 154
f 151 179 183
f 151 183 184
f 151 184 185
f 151 185 186
f 151 186 187
f 151 187 188
f 151 188 189
f 151 189 152
f 152 189 180
f 156 182 157
f 157 190 191
f 157 191 158
f 157 182 190
f 158 191 160
f 158 160 159
f 160 192 193
f 160 193 161
f 160 191 190
f 160 190 194
f 160 194 195
f 160 195 192
f 161 193 162
f 162 196 197
f 162 197 198
f 162 198 163
f 162 193 199
f 162 199 200
f 162 200 196
f 165 201 166
f 166 201 202
f 166 202 167
f 167 202 203
f 167 203 168
f 168 203 204
f 168 204 205
f 168 205 169
f 169 205 206
f 169 206 207
f 169 207 208
f 169 208 209
f 169 209 170
f 170 209 171
f 171 209 208
f 171 208 172
f 172 208 210
f 172 210 211
f 172 211 173
f 173 211 210
f 173 210 212
f 173 212 175
f 173 175 174
f 175 212 210
f 175 210 213
f 175 213 179
f 175 179 176
f 176 179 177
f 177 179 214
f 177 214 178
f 178 214 179
f 179 213 215
f 179 215 216
f 179 216 184
f 179 184 183
f 180 189 188
f 180 188 181
f 181 188 217
f 181 217 218
f 181 218 194
f 181 194 182
f 182 194 190
f 184 219 185
f 184 216 220
f 184 220 221
f 184 221 219
f 185 219 186
f 186 219 222
f 186 222 187
f 187 222 223
f 187 223 188
f 188 223 224
f 188 224 217
f 192 195 225
f 192 225 226
f 192 226 199
f 192 199 193
f 194 218 195
f 195 218 225
f 196 200 227
f 199 226 200
f 200 228 229
f 200 229 227
f 200 226 230
f 200 230 228
f 207 231 208
f 208 231 232
f 208 232 233
f 208 233 234
f 208 234 235
f 208 235 236
f 208 236 237
f 208 237 210
f 210 237 238
f 210 238 213
f 213 238 239
f 213 239 215
f 215 239 220
f 215 220 216
f 217 224 218
f 218 224 226
f 218 226 225
f 219 221 240
f 219 240 222
f 220 239 241
f 220 241 221
f 221 241 240
f 222 242 223
f 222 240 242
f 223 242 243
f 223 243 226
f 223 226 224
f 226 243 230
f 228 230 244
f 230 245 244
f 230 243 246
f 230 246 245
f 233 247 234
f 234 248 235
f 234 247 249
f 234 249 250
f 234 250 240
f 234 240 248
f 235 248 236
f 236 248 241
f 236 241 238
f 236 238 237
f 238 241 239
f 240 250 249
f 240 249 251
f 240 251 242
f 240 241 248
f 242 251 249
f 242 249 252
f 242 252 246
f 242 246 243
f 245 246 253
f 246 254 255
f 246 255 253
f 246 252 249
f 246 249 256
f 246 256 257
f 246 257 254
f 247 258 249
f 249 258 256

