# https://github.com/mikedh/trimesh
v 0.18342450 0.12153164 0.22983409
v 0.18342450 0.02630618 0.22983409
v 0.18342450 0.12153164 0.19583507
v -0.08422699 0.12153164 0.22983409
v 0.13332349 0.00355829 0.16742007
v 0.13469270 0.00676504 0.16742007
v 0.13733779 0.01310339 0.16742007
v 0.18342450 0.11957753 0.19619553
v 0.10808626 -0.05376237 0.22983409
v 0.09862619 -0.06260598 0.19050764
v 0.09759928 -0.06147861 0.16742007
v 0.11726626 -0.03189133 0.16742007
v 0.13708884 0.01573392 0.16742007
v 0.13229656 0.04191403 0.16742007
v 0.12423684 0.07012342 0.16742007
v 0.12121832 0.07811524 0.16742007
v 0.11275405 0.09790690 0.16742007
v 0.10631249 0.10544778 0.16742007
v 0.09927968 0.11030801 0.16742007
v 0.12109385 0.12153164 0.18857706
v -0.07607391 0.07839082 0.16742007
v -0.07915465 0.07718829 0.16742007
v -0.08488049 0.07408175 0.16742007
v -0.08765005 0.07227796 0.16742007
v -0.11347853 0.04860311 0.16742007
v -0.11487886 0.04725027 0.16742007
v -0.12004456 0.05894990 0.22983409
v -0.02186522 0.12153164 0.20427221
v 0.10139575 -0.06075208 0.22983409
v 0.08826368 -0.07282750 0.22983409
v 0.09025528 -0.07017191 0.19576176
v 0.06427120 -0.09136653 0.20788288
v 0.07170856 -0.08119512 0.16742007
v 0.10687263 0.12153164 0.18707414
v 0.08969513 0.11020780 0.16742007
v -0.03589973 0.09026582 0.16742007
v -0.12312530 0.02510365 0.16742007
v -0.13059378 0.02059416 0.19811389
v -0.12054245 0.05789768 0.22983409
v 0.09626117 0.12153164 0.18773395
v -0.03375254 0.09089214 0.16742007
v 0.06747642 -0.09011389 0.22983409
v 0.05963452 -0.09472360 0.22983409
v 0.02534177 -0.11100788 0.16742007
v -0.12343650 0.01393013 0.16742007
v -0.13152733 0.00854379 0.19462541
v -0.13267873 0.01400528 0.20184676
v -0.12474348 0.04289109 0.22983409
v 0.01806001 -0.11614369 0.22983409
v 0.02512394 -0.11110809 0.16742007
v -0.12362321 -0.01991612 0.16742007
v -0.12362321 -0.02016665 0.16742007
v -0.13205636 -0.03093933 0.22983409
v -0.13448361 -0.01167377 0.22983409
v -0.13414130 -0.00398258 0.22983409
v -0.13230531 0.01543329 0.22983409
v -0.02668861 -0.13355534 0.22983409
v -0.02609736 -0.13327976 0.21353412
v 0.00548807 -0.11754664 0.16742007
v -0.11559460 -0.06323230 0.16742007
v -0.13040707 -0.03840504 0.22983409
v -0.02945817 -0.13410650 0.22983409
v -0.03023614 -0.13403134 0.21297204
v -0.01881559 -0.12193087 0.16742007
v -0.11522117 -0.06486073 0.16742007
v -0.12265852 -0.06360810 0.22983409
v -0.03263227 -0.13440713 0.22983409
v -0.06107472 -0.11904980 0.20519473
v -0.05061885 -0.11744643 0.16742007
v -0.04072312 -0.12075339 0.16742007
v -0.03683329 -0.12183066 0.16742007
v -0.03247668 -0.12213129 0.16742007
v -0.11198482 -0.07205087 0.16742007
v -0.11752394 -0.07425551 0.22983409
v -0.03487282 -0.13335492 0.22983409
v -0.07028583 -0.11336283 0.22983409
v -0.06941451 -0.11416452 0.21044885
v -0.08204868 -0.10098678 0.16742007
v -0.10986876 -0.07518246 0.16742007
v -0.11014883 -0.08147070 0.22983409
v -0.09222449 -0.09319538 0.16742007
v -0.08964164 -0.09577581 0.16742007
v -0.07778543 -0.10760070 0.22983409
f 1 2 8
f 1 8 3
f 1 3 20
f 1 20 34
f 1 34 40
f 1 40 28
f 1 28 4
f 1 4 27
f 1 27 39
f 1 39 48
f 1 48 56
f 1 56 55
f 1 55 54
f 1 54 53
f 1 53 61
f 1 61 66
f 1 66 74
f 1 74 80
f 1 80 83
f 1 83 76
f 1 76 75
f 1 75 67
f 1 67 62
f 1 62 57
f 1 57 49
f 1 49 43
f 1 43 42
f 1 42 30
f 1 30 29
f 1 29 9
f 1 9 2
f 2 5 6
f 2 6 7
f 2 7 8
f 2 9 10
f 2 10 11
f 2 11 12
f 2 12 5
f 3 8 7
f 3 7 13
f 3 13 14
f 3 14 15
f 3 15 16
f 3 16 17
f 3 17 18
f 3 18 19
f 3 19 20
f 4 21 22
f 4 22 23
f 4 23 24
f 4 24 25
f 4 25 26
f 4 26 27
f 4 28 21
f 5 12 11
f 5 11 33
f 5 33 44
f 5 44 50
f 5 50 59
f 5 59 64
f 5 64 72
f 5 72 71
f 5 71 70
f 5 70 69
f 5 69 78
f 5 78 82
f 5 82 81
f 5 81 79
f 5 79 73
f 5 73 65
f 5 65 60
f 5 60 52
f 5 52 51
f 5 51 45
f 5 45 37
f 5 37 26
f 5 26 25
f 5 25 24
f 5 24 23
f 5 23 22
f 5 22 21
f 5 21 36
f 5 36 41
f 5 41 35
f 5 35 19
f 5 19 18
f 5 18 17
f 5 17 16
f 5 16 15
f 5 15 14
f 5 14 13
f 5 13 7
f 5 7 6
f 9 29 10
f 10 29 30
f 10 30 31
f 10 31 11
f 11 31 32
f 11 32 33
f 19 34 20
f 19 35 34
f 21 28 36
f 26 37 38
f 26 38 39
f 26 39 27
f 28 40 35
f 28 35 41
f 28 41 36
f 30 42 31
f 31 42 32
f 32 42 43
f 32 43 44
f 32 44 33
f 34 35 40
f 37 45 46
f 37 46 47
f 37 47 38
f 38 47 39
f 39 47 48
f 43 49 44
f 44 49 50
f 45 51 46
f 46 51 52
f 46 52 53
f 46 53 54
f 46 54 47
f 47 55 56
f 47 56 48
f 47 54 55
f 49 57 58
f 49 58 50
f 50 58 59
f 52 60 53
f 53 60 61
f 57 62 58
f 58 62 63
f 58 63 59
f 59 63 64
f 60 65 61
f 61 65 66
f 62 67 63
f 63 67 68
f 63 68 69
f 63 69 70
f 63 70 71
f 63 71 72
f 63 72 64
f 65 73 66
f 66 73 74
f 67 75 68
f 68 75 76
f 68 76 77
f 68 77 78
f 68 78 69
f 73 79 74
f 74 79 81
f 74 81 82
f 74 82 80
f 76 83 77
f 77 83 80
f 77 80 82
f 77 82 78

