# https://github.com/mikedh/trimesh
v -0.12703243 -0.02898706 -0.17697880
v -0.12462302 -0.02879076 -0.07424322
v -0.12450491 -0.02699957 -0.07424322
v -0.12684345 -0.02589541 -0.18549514
v -0.12630016 -0.02650883 -0.20236480
v -0.11994593 -0.08949496 -0.12284538
v -0.11396965 -0.08360612 -0.07424322
v -0.12001679 -0.00999553 -0.07424322
v -0.12105615 -0.01033904 -0.10712964
v -0.12570962 -0.02317182 -0.20236480
v -0.12433956 -0.01863250 -0.17773134
v -0.12348918 -0.03845829 -0.20236480
v -0.11968609 -0.08927413 -0.12906647
v -0.11751290 -0.09337179 -0.12647016
v -0.10163914 -0.10161617 -0.07424322
v -0.11259959 -0.08640332 -0.07424322
v -0.11344997 -0.08517648 -0.07424322
v -0.11524522 0.00494742 -0.07424322
v -0.11536332 0.00507011 -0.09347086
v -0.10031632 0.04383835 -0.17647709
v -0.11233975 0.01098349 -0.20236480
v -0.11396965 -0.07015991 -0.20236480
v -0.09755259 -0.10671984 -0.20236480
v -0.09426918 -0.11292767 -0.20236480
v -0.11165472 -0.07634321 -0.20236480
v -0.09554475 -0.10846195 -0.07424322
v -0.08930863 -0.12004336 -0.20236480
v -0.08219851 -0.13454464 -0.15726198
v -0.10556033 0.02202508 -0.07424322
v -0.09601718 0.04889295 -0.18118052
v -0.09379674 0.04928553 -0.20236480
v -0.10069427 0.03939718 -0.20236480
v -0.10163914 0.03760599 -0.20236480
v -0.10050529 0.03063752 -0.07424322
v -0.09613529 0.03713979 -0.07424322
v -0.09490696 -0.10900177 -0.07424322
v -0.08914328 -0.12019058 -0.20236480
v -0.07971823 -0.13584509 -0.16468714
v -0.03547485 -0.15962131 -0.14352795
v -0.06807275 -0.14131682 -0.14026691
v -0.06275788 -0.14310801 -0.12683390
v -0.06960816 -0.13942748 -0.13239022
v -0.08756062 0.05701464 -0.18272325
v -0.08262370 0.06209378 -0.20236480
v -0.08760787 0.05667113 -0.20236480
v -0.07919855 0.05156747 -0.07424322
v -0.06998610 0.07171223 -0.17257637
v -0.09157631 -0.11069481 -0.07424322
v -0.08838739 -0.12055863 -0.20236480
v -0.08231661 -0.12311047 -0.20236480
v -0.04926990 -0.13611500 -0.20236480
v 0.00149306 -0.15378153 -0.16866311
v 0.01082361 -0.14963481 -0.09793599
v -0.03230955 -0.13964832 -0.07424322
v -0.03530950 -0.13891220 -0.07424322
v -0.03708112 -0.13834786 -0.07424322
v -0.03533312 -0.14151311 -0.20236480
v -0.02597894 -0.14472744 -0.20236480
v -0.00767215 -0.15078804 -0.20236480
v 0.00480009 -0.15122971 -0.20236480
v 0.01911482 -0.14985564 -0.20236480
v -0.03771891 -0.13802887 -0.07424322
v -0.07468682 0.06925854 -0.20236480
v -0.07775763 0.06655949 -0.20236480
v -0.06202560 0.06160304 -0.07424322
v -0.05354542 0.08496213 -0.18401513
v -0.06341928 0.07860708 -0.20236480
v -0.06549799 0.07693858 -0.20236480
v 0.05551581 -0.13967285 -0.20236480
v 0.05870473 -0.13721916 -0.18242224
v 0.01828806 -0.14617512 -0.09447426
v -0.00455409 -0.14038441 -0.07424322
v -0.02841197 -0.13991821 -0.07424322
v -0.05595484 0.06393404 -0.07424322
v -0.02819938 0.09104727 -0.20236480
v -0.04780536 0.08800470 -0.20236480
v -0.05236434 0.08594361 -0.20236480
v -0.05831700 0.08216493 -0.20236480
v -0.04716757 0.06700115 -0.07424322
v -0.03972675 0.06918493 -0.07424322
v -0.03807323 0.06945483 -0.07424322
v -0.02971116 0.07070622 -0.07424322
v 0.06194090 -0.13523167 -0.20236480
v 0.06394874 -0.13329327 -0.20236480
v 0.06616918 -0.12946552 -0.18010187
v 0.06057084 -0.11469432 -0.07424322
v 0.05473629 -0.12006789 -0.07424322
v 0.05067337 -0.12288963 -0.07424322
v 0.00513079 -0.13805342 -0.07424322
v 0.04613800 -0.12534332 -0.07424322
v 0.03820112 -0.12899931 -0.07424322
v 0.03352404 -0.13052060 -0.07424322
v -0.02160893 0.09102274 -0.20236480
v -0.02550651 0.07055900 -0.07424322
v 0.00343003 0.09031117 -0.20236480
v -0.00769577 0.09067922 -0.20236480
v 0.07507455 -0.12031326 -0.20236480
v 0.08374370 -0.10819205 -0.17574963
v 0.08527911 -0.08659961 -0.07424322
v 0.07835796 -0.09457409 -0.07424322
v 0.06241333 -0.11270683 -0.07424322
v -0.01480589 0.06979835 -0.07424322
v 0.00468198 0.09011488 -0.20236480
v -0.00068014 0.06862058 -0.07424322
v 0.08459408 -0.10875640 -0.20236480
v 0.09439707 -0.09555557 -0.20236480
v 0.10264103 -0.07963114 -0.17341672
v 0.08634208 -0.10105182 -0.15643418
v 0.11081412 -0.06358404 -0.16669394
v 0.09000344 -0.07757005 -0.07424322
v 0.01455584 0.08802924 -0.20236480
v 0.01313854 0.06592153 -0.07424322
v 0.09933399 -0.08657508 -0.20236480
v 0.10450714 -0.07707931 -0.20236480
v 0.10245205 -0.04221243 -0.07424322
v 0.09935762 -0.05295957 -0.07424322
v 0.09508210 -0.06650392 -0.07424322
v 0.09354669 -0.07042982 -0.07424322
v 0.10483784 -0.07641681 -0.20236480
v 0.10890077 -0.06726456 -0.20236480
v 0.11303456 -0.05457900 -0.20236480
v 0.11376683 -0.04898460 -0.20236480
v 0.11412116 -0.04498509 -0.20236480
v 0.10356227 -0.03121991 -0.07424322
v 0.02513834 0.08510935 -0.20236480
v 0.01857152 0.06405672 -0.07424322
v 0.03857907 0.08106077 -0.20236480
v 0.11428651 -0.03382082 -0.20236480
v 0.11364873 -0.02270562 -0.20236480
v 0.10245205 -0.02204313 -0.07424322
v 0.11419202 -0.03163704 -0.20236480
v 0.02313050 0.06214285 -0.07424322
v 0.04422465 0.07870524 -0.20236480
v 0.10963304 -0.00759091 -0.20236480
v 0.09957021 -0.01168857 -0.07424322
v 0.04242940 0.05313782 -0.07424322
v 0.04738995 0.07718395 -0.20236480
v 0.10445990 0.00956035 -0.20236480
v 0.09652302 -0.00157938 -0.07424322
v 0.04583092 0.05142024 -0.07424322
v 0.05877560 0.07024001 -0.20236480
v 0.09260182 0.00889786 -0.07424322
v 0.09349944 0.03179075 -0.20236480
v 0.06633453 0.03878376 -0.07424322
v 0.07174389 0.05895306 -0.20236480
v 0.08846803 0.04059949 -0.20236480
v 0.08575154 0.01900705 -0.07424322
v 0.07337379 0.03255139 -0.07424322
v 0.07273600 0.05792251 -0.20236480
v 0.08168861 0.04820591 -0.20236480
v 0.08485392 0.02025843 -0.07424322
f 1 2 3
f 1 3 4
f 1 4 5
f 1 5 6
f 1 6 2
f 2 6 7
f 2 7 17
f 2 17 16
f 2 16 15
f 2 15 26
f 2 26 36
f 2 36 48
f 2 48 62
f 2 62 56
f 2 56 55
f 2 55 54
f 2 54 73
f 2 73 72
f 2 72 89
f 2 89 92
f 2 92 91
f 2 91 90
f 2 90 88
f 2 88 87
f 2 87 86
f 2 86 101
f 2 101 100
f 2 100 99
f 2 99 110
f 2 110 118
f 2 118 117
f 2 117 116
f 2 116 115
f 2 115 124
f 2 124 130
f 2 130 135
f 2 135 139
f 2 139 142
f 2 142 147
f 2 147 151
f 2 151 148
f 2 148 144
f 2 144 140
f 2 140 136
f 2 136 132
f 2 132 126
f 2 126 112
f 2 112 104
f 2 104 102
f 2 102 94
f 2 94 82
f 2 82 81
f 2 81 80
f 2 80 79
f 2 79 74
f 2 74 65
f 2 65 46
f 2 46 35
f 2 35 34
f 2 34 29
f 2 29 18
f 2 18 8
f 2 8 3
f 3 8 9
f 3 9 4
f 4 10 5
f 4 9 11
f 4 11 10
f 5 10 21
f 5 21 33
f 5 33 32
f 5 32 31
f 5 31 45
f 5 45 44
f 5 44 64
f 5 64 63
f 5 63 68
f 5 68 67
f 5 67 78
f 5 78 77
f 5 77 76
f 5 76 75
f 5 75 93
f 5 93 96
f 5 96 95
f 5 95 103
f 5 103 111
f 5 111 125
f 5 125 127
f 5 127 133
f 5 133 137
f 5 137 141
f 5 141 145
f 5 145 149
f 5 149 150
f 5 150 146
f 5 146 143
f 5 143 138
f 5 138 134
f 5 134 129
f 5 129 131
f 5 131 128
f 5 128 123
f 5 123 122
f 5 122 121
f 5 121 120
f 5 120 119
f 5 119 114
f 5 114 113
f 5 113 106
f 5 106 105
f 5 105 97
f 5 97 84
f 5 84 83
f 5 83 69
f 5 69 61
f 5 61 60
f 5 60 59
f 5 59 58
f 5 58 57
f 5 57 51
f 5 51 50
f 5 50 49
f 5 49 37
f 5 37 27
f 5 27 24
f 5 24 23
f 5 23 25
f 5 25 22
f 5 22 12
f 5 12 13
f 5 13 6
f 6 13 14
f 6 14 15
f 6 15 16
f 6 16 17
f 6 17 7
f 8 18 9
f 9 18 19
f 9 19 11
f 10 11 20
f 10 20 21
f 11 19 20
f 12 22 13
f 13 23 24
f 13 24 14
f 13 22 25
f 13 25 23
f 14 26 15
f 14 24 27
f 14 27 28
f 14 28 26
f 18 29 20
f 18 20 19
f 20 30 31
f 20 31 32
f 20 32 33
f 20 33 21
f 20 29 34
f 20 34 35
f 20 35 30
f 26 28 36
f 27 37 38
f 27 38 28
f 28 38 39
f 28 39 40
f 28 40 41
f 28 41 42
f 28 42 36
f 30 35 43
f 30 43 44
f 30 44 45
f 30 45 31
f 35 46 47
f 35 47 43
f 36 42 41
f 36 41 48
f 37 49 38
f 38 49 50
f 38 50 51
f 38 51 39
f 39 52 53
f 39 53 54
f 39 54 55
f 39 55 56
f 39 56 41
f 39 41 40
f 39 51 57
f 39 57 58
f 39 58 59
f 39 59 60
f 39 60 61
f 39 61 52
f 41 56 62
f 41 62 48
f 43 47 63
f 43 63 64
f 43 64 44
f 46 65 66
f 46 66 47
f 47 66 67
f 47 67 68
f 47 68 63
f 52 61 53
f 53 61 69
f 53 69 70
f 53 70 71
f 53 71 72
f 53 72 73
f 53 73 54
f 65 74 66
f 66 75 76
f 66 76 77
f 66 77 78
f 66 78 67
f 66 74 79
f 66 79 80
f 66 80 81
f 66 81 82
f 66 82 75
f 69 83 70
f 70 83 84
f 70 84 85
f 70 85 86
f 70 86 87
f 70 87 88
f 70 88 71
f 71 89 72
f 71 88 90
f 71 90 91
f 71 91 92
f 71 92 89
f 75 82 93
f 82 94 95
f 82 95 96
f 82 96 93
f 84 97 85
f 85 97 98
f 85 98 99
f 85 99 100
f 85 100 101
f 85 101 86
f 94 102 95
f 95 102 104
f 95 104 103
f 97 105 98
f 98 105 106
f 98 106 107
f 98 107 108
f 98 108 99
f 99 108 107
f 99 107 109
f 99 109 110
f 103 104 112
f 103 112 111
f 106 113 107
f 107 114 109
f 107 113 114
f 109 115 116
f 109 116 117
f 109 117 118
f 109 118 110
f 109 114 119
f 109 119 120
f 109 120 121
f 109 121 122
f 109 122 123
f 109 123 124
f 109 124 115
f 111 112 125
f 112 126 127
f 112 127 125
f 123 128 124
f 124 129 130
f 124 128 131
f 124 131 129
f 126 132 133
f 126 133 127
f 129 134 130
f 130 134 135
f 132 136 133
f 133 136 137
f 134 138 139
f 134 139 135
f 136 140 137
f 137 140 141
f 138 142 139
f 138 143 142
f 140 144 141
f 141 144 145
f 142 143 146
f 142 146 147
f 144 148 145
f 145 148 149
f 146 150 151
f 146 151 147
f 148 151 149
f 149 151 150

