# https://github.com/mikedh/trimesh
v 0.06364931 0.01549910 0.24222967
v 0.06364931 -0.11134215 0.24222967
v 0.06364931 0.01549910 0.20743008
v -0.15165387 0.01549910 0.24222967
v 0.04295550 0.00548404 0.25471994
v 0.06364931 -0.09447212 0.20743008
v 0.04295550 -0.15005733 0.25471994
v -0.13541007 0.01549910 0.20743008
v -0.18477370 0.00548404 0.25015992
v -0.18477370 0.00548404 0.25471994
v 0.05518698 -0.10050060 0.20743008
v -0.03264622 -0.13344659 0.20743008
v -0.00057203 -0.12662403 0.20743008
v 0.01027338 -0.12169753 0.20743008
v -0.04935203 -0.13615292 0.25471994
v -0.13640708 0.01319791 0.20743008
v -0.13891174 0.00671566 0.20743008
v -0.14037076 0.00269668 0.20743008
v -0.14107595 0.00007137 0.20743008
v -0.14158660 -0.00576265 0.20743008
v -0.13536145 -0.03676397 0.20743008
v -0.13424286 -0.04006991 0.20743008
v -0.18477370 0.00234015 0.25157654
v -0.18477370 -0.00396383 0.25471994
v -0.04079243 -0.13176121 0.20743008
v -0.05586900 -0.13433790 0.25471994
v -0.12419992 -0.06625816 0.20743008
v -0.18477370 0.00084924 0.25231725
v -0.14102733 -0.06564235 0.25471994
v -0.11974990 -0.07612737 0.20743008
v -0.12704501 -0.08097285 0.23705858
v -0.12643710 -0.08457050 0.24343333
v -0.08320137 -0.10955954 0.20743008
v -0.05910317 -0.13229600 0.25471994
v -0.08966970 -0.11195796 0.23914182
v -0.12556168 -0.08674204 0.25471994
v -0.12186548 -0.08735786 0.23882702
v -0.12524556 -0.08531595 0.24222967
v -0.12152505 -0.08899462 0.24561380
v -0.10394381 -0.10288282 0.24371573
v -0.10503808 -0.10301247 0.25471994
f 1 2 6
f 1 6 3
f 1 3 8
f 1 8 4
f 1 4 10
f 1 10 5
f 1 5 7
f 1 7 2
f 2 7 6
f 3 6 11
f 3 11 14
f 3 14 13
f 3 13 12
f 3 12 25
f 3 25 33
f 3 33 30
f 3 30 27
f 3 27 22
f 3 22 21
f 3 21 20
f 3 20 19
f 3 19 18
f 3 18 17
f 3 17 16
f 3 16 8
f 4 8 9
f 4 9 10
f 5 10 24
f 5 24 29
f 5 29 36
f 5 36 41
f 5 41 34
f 5 34 26
f 5 26 15
f 5 15 7
f 6 7 11
f 7 12 13
f 7 13 14
f 7 14 11
f 7 15 12
f 8 16 9
f 9 17 18
f 9 18 19
f 9 19 20
f 9 20 21
f 9 21 22
f 9 22 23
f 9 23 28
f 9 28 24
f 9 24 10
f 9 16 17
f 12 15 25
f 15 26 25
f 22 27 23
f 23 27 28
f 24 28 27
f 24 27 30
f 24 30 31
f 24 31 32
f 24 32 29
f 25 26 33
f 26 34 35
f 26 35 33
f 29 32 36
f 30 33 37
f 30 37 38
f 30 38 32
f 30 32 31
f 32 38 39
f 32 39 36
f 33 35 40
f 33 40 37
f 34 41 35
f 35 41 40
f 36 39 40
f 36 40 41
f 37 40 38
f 38 40 39

