# https://github.com/mikedh/trimesh
v 0.15236165 0.24996310 0.22983126
v 0.15612905 0.24955595 0.22983126
v 0.15005732 0.24788520 0.21272160
v 0.10686021 0.24538609 0.21355982
v 0.10825013 0.24676201 0.22983126
v 0.18641457 0.24537206 0.22983126
v 0.19654632 0.23925067 0.21177579
v 0.18348843 0.23637250 0.20556755
v 0.15638509 0.23898391 0.20514619
v 0.12357578 0.23866099 0.20781776
v 0.11011554 0.22185525 0.19972686
v 0.06428491 0.22351196 0.20888907
v 0.01194362 0.20537242 0.20814049
v -0.00945376 0.20625694 0.21289642
v -0.00151661 0.21198522 0.22983126
v 0.01139498 0.21616910 0.22983126
v 0.07306332 0.23604958 0.22983126
v 0.10521426 0.24621445 0.22983126
v 0.19288865 0.24353284 0.22983126
v 0.22759996 0.22554775 0.22983126
v 0.22215003 0.22462112 0.21031450
v 0.19830200 0.23046170 0.20399868
v 0.19490036 0.22035299 0.19552678
v 0.17620967 0.22772393 0.19837764
v 0.13875511 0.22366640 0.19774561
v 0.16465142 0.21420352 0.19001332
v 0.12931831 0.21159211 0.19265351
v -0.00137030 0.19133255 0.20411971
v -0.02338949 0.19489868 0.21015313
v -0.05034652 0.18968987 0.22983126
v -0.03008303 0.20043039 0.22983126
v -0.01753721 0.20608847 0.22983126
v -0.01084367 0.20857352 0.22983126
v 0.23612234 0.22040915 0.22983126
v 0.23828037 0.21484935 0.21024726
v 0.21900442 0.21282761 0.19794284
v 0.20993340 0.20162378 0.18937232
v 0.19219369 0.20415096 0.18745829
v 0.18231797 0.19040592 0.18404263
v 0.13634105 0.19315773 0.18722072
v -0.00813700 0.17330533 0.20257324
v -0.02412102 0.18146251 0.20569307
v -0.08044916 0.15939181 0.22983126
v -0.06856173 0.17535515 0.22983126
v 0.24555913 0.21292588 0.22983126
v 0.25367916 0.20568131 0.22983126
v 0.26542029 0.18960564 0.21317433
v 0.25152114 0.19954588 0.20682713
v 0.23641495 0.20262061 0.19948032
v 0.22778285 0.19492675 0.19107567
v 0.21940678 0.18535155 0.18617183
v 0.20462978 0.19006896 0.18556221
v 0.16929668 0.17087643 0.18453571
v 0.10693336 0.10655972 0.18707280
v 0.09639927 0.10655972 0.18773173
v 0.21388370 0.16363186 0.18482707
v -0.02445021 0.17086239 0.20437521
v -0.08246088 0.15269479 0.22983126
v 0.25887305 0.20024787 0.22983126
v 0.26487166 0.19242766 0.22983126
v 0.26626155 0.19026552 0.22983126
v 0.26768804 0.18797702 0.22983126
v 0.27822214 0.16992173 0.22983126
v 0.27855134 0.16607480 0.21235852
v 0.26666391 0.17501821 0.20599787
v 0.25430095 0.18251550 0.19972686
v 0.24212092 0.19032167 0.19524886
v 0.23959713 0.17496204 0.18875374
v 0.23923136 0.15720159 0.18708177
v 0.22167453 0.10655972 0.18943955
v -0.02188984 0.10655972 0.20428108
v -0.02280426 0.15784742 0.20411971
v 0.24629067 0.13522917 0.18898682
v 0.22741708 0.10655972 0.18965919
v -0.08428973 0.10655972 0.22983126
v 0.27997783 0.16667850 0.22983126
v 0.28125799 0.16328086 0.22983126
v 0.28561062 0.14598373 0.22983126
v 0.28561062 0.10655972 0.21090171
v 0.27964863 0.14619432 0.20759363
v 0.26951689 0.16239634 0.20293632
v 0.25795865 0.16805442 0.19546850
v 0.25291103 0.15475865 0.19023743
v 0.26578605 0.13949730 0.19527127
v 0.25938511 0.10655972 0.19511887
v 0.24793662 0.10655972 0.19166735
v 0.28937805 0.10655972 0.22983126
v 0.28151405 0.10655972 0.20683609
v 0.27628356 0.12903759 0.20270324
v 0.26487166 0.15443572 0.19746321
v 0.26849273 0.10655972 0.19828351
v 0.27895367 0.10655972 0.20432141
f 1 2 3
f 1 3 4
f 1 4 5
f 1 5 18
f 1 18 17
f 1 17 16
f 1 16 15
f 1 15 33
f 1 33 32
f 1 32 31
f 1 31 30
f 1 30 44
f 1 44 43
f 1 43 58
f 1 58 75
f 1 75 87
f 1 87 78
f 1 78 77
f 1 77 76
f 1 76 63
f 1 63 62
f 1 62 61
f 1 61 60
f 1 60 59
f 1 59 46
f 1 46 45
f 1 45 34
f 1 34 20
f 1 20 19
f 1 19 6
f 1 6 2
f 2 6 3
f 3 6 7
f 3 7 8
f 3 8 9
f 3 9 4
f 4 9 10
f 4 10 11
f 4 11 12
f 4 12 13
f 4 13 14
f 4 14 15
f 4 15 16
f 4 16 17
f 4 17 18
f 4 18 5
f 6 19 7
f 7 19 20
f 7 20 21
f 7 21 22
f 7 22 8
f 8 22 23
f 8 23 24
f 8 24 9
f 9 25 10
f 9 24 26
f 9 26 25
f 10 25 11
f 11 25 26
f 11 26 27
f 11 27 28
f 11 28 13
f 11 13 12
f 13 28 29
f 13 29 14
f 14 29 30
f 14 30 31
f 14 31 32
f 14 32 33
f 14 33 15
f 20 34 21
f 21 34 35
f 21 35 36
f 21 36 22
f 22 36 23
f 23 36 37
f 23 37 38
f 23 38 26
f 23 26 24
f 26 38 39
f 26 39 40
f 26 40 27
f 27 40 28
f 28 41 42
f 28 42 29
f 28 40 41
f 29 42 43
f 29 43 44
f 29 44 30
f 34 45 35
f 35 45 46
f 35 46 47
f 35 47 48
f 35 48 49
f 35 49 36
f 36 49 50
f 36 50 37
f 37 50 51
f 37 51 38
f 38 51 52
f 38 52 39
f 39 53 54
f 39 54 55
f 39 55 40
f 39 52 51
f 39 51 56
f 39 56 53
f 40 55 41
f 41 55 57
f 41 57 42
f 42 57 58
f 42 58 43
f 46 59 47
f 47 59 60
f 47 60 61
f 47 61 62
f 47 62 63
f 47 63 64
f 47 64 65
f 47 65 48
f 48 66 67
f 48 67 49
f 48 65 66
f 49 67 50
f 50 67 68
f 50 68 51
f 51 68 69
f 51 69 56
f 53 56 54
f 54 56 70
f 54 70 74
f 54 74 86
f 54 86 85
f 54 85 91
f 54 91 92
f 54 92 88
f 54 88 79
f 54 79 87
f 54 87 75
f 54 75 71
f 54 71 55
f 55 71 72
f 55 72 57
f 56 69 73
f 56 73 74
f 56 74 70
f 57 72 71
f 57 71 75
f 57 75 58
f 63 76 64
f 64 76 77
f 64 77 78
f 64 78 79
f 64 79 80
f 64 80 81
f 64 81 65
f 65 81 82
f 65 82 66
f 66 82 67
f 67 82 68
f 68 83 69
f 68 82 83
f 69 83 73
f 73 83 84
f 73 84 85
f 73 85 86
f 73 86 74
f 78 87 79
f 79 88 89
f 79 89 80
f 80 89 84
f 80 84 90
f 80 90 81
f 81 90 82
f 82 90 84
f 82 84 83
f 84 91 85
f 84 89 92
f 84 92 91
f 88 92 89

