# https://github.com/mikedh/trimesh
v 0.28958562 0.01551390 0.24222967
v 0.29615265 0.00547185 0.25471994
v 0.29595441 0.00547185 0.25441903
v 0.29439318 0.00547185 0.25231725
v 0.26274750 0.01551390 0.20743008
v 0.06365473 0.01551390 0.24222967
v 0.29526052 0.00333307 0.25471994
v 0.29454187 0.00329234 0.25359035
v 0.04298714 0.00547185 0.25471994
v 0.27528682 -0.03718140 0.25437737
v 0.25300846 -0.06286704 0.24911830
v 0.26014546 0.01174558 0.20743008
v 0.06365473 0.01551390 0.20743008
v 0.29464099 0.00186648 0.25471994
v 0.27558419 -0.03709992 0.25471994
v 0.04298714 0.00547185 0.24222967
v 0.04298714 -0.15004750 0.25471994
v 0.27538595 -0.03748693 0.25471994
v 0.25580874 -0.06657425 0.25471994
v 0.23605806 -0.08625095 0.25015992
v 0.22379133 -0.09443940 0.24729893
v 0.18220834 -0.15010861 0.25471994
v 0.24688748 -0.00104632 0.20743008
v 0.06365473 -0.09448014 0.20743008
v 0.04298714 -0.11550122 0.24222967
v 0.04586177 -0.16567072 0.25471994
v 0.23511636 -0.09297282 0.25471994
v 0.22364263 -0.10543881 0.25471994
v 0.18158881 -0.15069932 0.25471994
v 0.16382064 -0.16059878 0.25190985
v 0.14530903 -0.15532313 0.24547955
v 0.22146189 -0.01522333 0.20743008
v 0.10360214 -0.19105083 0.25471994
v 0.09445785 -0.19178411 0.25471994
v 0.07656577 -0.19257852 0.25471994
v 0.07158473 -0.19168228 0.25471994
v 0.05465912 -0.18288276 0.25471994
v 0.05416350 -0.18249574 0.25471994
v 0.05366787 -0.18178281 0.25471994
v 0.16689351 -0.16188204 0.25471994
v 0.16203639 -0.16552813 0.25471994
v 0.12699567 -0.18186429 0.25471994
v 0.10930184 -0.18885094 0.25471994
f 1 2 3
f 1 3 4
f 1 4 5
f 1 5 13
f 1 13 6
f 1 6 9
f 1 9 2
f 2 7 8
f 2 8 3
f 2 9 17
f 2 17 26
f 2 26 39
f 2 39 38
f 2 38 37
f 2 37 36
f 2 36 35
f 2 35 34
f 2 34 33
f 2 33 43
f 2 43 42
f 2 42 41
f 2 41 40
f 2 40 29
f 2 29 22
f 2 22 28
f 2 28 27
f 2 27 19
f 2 19 18
f 2 18 15
f 2 15 14
f 2 14 7
f 3 8 4
f 4 8 5
f 5 8 10
f 5 10 11
f 5 11 12
f 5 12 23
f 5 23 32
f 5 32 24
f 5 24 13
f 6 13 16
f 6 16 9
f 7 14 8
f 8 14 15
f 8 15 10
f 9 16 25
f 9 25 17
f 10 15 18
f 10 18 19
f 10 19 11
f 11 20 12
f 11 19 20
f 12 20 21
f 12 21 22
f 12 22 23
f 13 24 25
f 13 25 16
f 17 25 26
f 19 27 20
f 20 27 28
f 20 28 22
f 20 22 21
f 22 29 23
f 23 29 30
f 23 30 31
f 23 31 32
f 24 33 34
f 24 34 35
f 24 35 36
f 24 36 37
f 24 37 38
f 24 38 39
f 24 39 26
f 24 26 25
f 24 32 31
f 24 31 33
f 29 40 30
f 30 40 41
f 30 41 42
f 30 42 31
f 31 42 43
f 31 43 33

