# https://github.com/mikedh/trimesh
v 0.30661541 0.02047926 0.33405551
v 0.26347840 0.02047926 0.40218085
v 0.28559837 0.00470173 0.37745601
v 0.29852721 0.00134675 0.35433948
v 0.30998549 0.00294869 0.32073289
v 0.31151736 0.00439949 0.30064097
v 0.29828212 0.00433904 0.25925687
v -0.30937362 0.02047926 0.32126102
v 0.24246138 0.02047926 0.42085654
v 0.24019423 -0.00989701 0.42376110
v 0.26255929 -0.01258704 0.40239692
v 0.27315971 0.00530624 0.39229092
v 0.27744892 -0.01418898 0.38441738
v 0.28976503 -0.01122691 0.36807019
v 0.29981399 -0.02924109 0.34005669
v 0.30710560 -0.01125713 0.32529381
v 0.30710560 -0.01642563 0.30719426
v 0.30318406 -0.02443530 0.29401568
v 0.30790216 0.00183035 0.28232539
v 0.30054927 -0.01657676 0.27889270
v 0.29227725 -0.03262631 0.27349165
v 0.27542686 -0.03731120 0.25471997
v -0.25998664 -0.00191757 0.25500804
v -0.28241298 0.00539692 0.26631424
v -0.30238837 0.00273710 0.29209530
v -0.30735156 0.00216283 0.30676216
v -0.31127313 -0.01606293 0.33254322
v -0.31445938 -0.01418898 0.35844430
v -0.31206968 0.02047926 0.34531373
v 0.21893211 0.02047926 0.43684366
v 0.24307412 -0.04565334 0.41442326
v 0.19748615 0.00237440 0.44932610
v 0.20306210 -0.04390029 0.44457316
v 0.20496160 -0.05979871 0.44042036
v 0.25771865 -0.05030802 0.39973238
v 0.28100282 -0.03199158 0.37435940
v 0.29190961 -0.02769961 0.35698000
v 0.30214241 -0.03035942 0.32368550
v 0.29301256 -0.03939674 0.34893844
v 0.28118664 -0.06904760 0.34759417
v 0.29050031 -0.05910353 0.32870248
v 0.29454440 -0.05330031 0.30995479
v 0.29705665 -0.04087777 0.29547995
v 0.27996117 -0.07043796 0.29113510
v 0.27806166 -0.06396978 0.27903673
v 0.27898076 -0.05106364 0.27003497
v 0.26789016 -0.06517878 0.26710641
v 0.25643188 -0.06747589 0.25606424
v 0.23504721 -0.09301613 0.25471997
v -0.10496305 -0.10305089 0.25471997
v -0.11047772 -0.20303565 0.27327561
v -0.25514600 -0.02470732 0.25995299
v -0.26789102 -0.03652535 0.26763451
v -0.27034199 -0.01016903 0.26103321
v -0.28406739 -0.02280314 0.27380371
v -0.29417762 0.00022842 0.27970886
v -0.29374871 -0.02594655 0.28688627
v -0.30379766 -0.01926680 0.30306545
v -0.30281729 -0.05907331 0.31972471
v -0.30771920 -0.05774340 0.34147298
v -0.31311134 0.00473197 0.36252511
v -0.31170204 -0.03833886 0.36002859
v -0.30778047 -0.03809706 0.37956843
v -0.31200841 -0.00753945 0.37296715
v -0.30876088 0.00358340 0.38312113
v -0.29338107 0.00355318 0.40530148
v -0.21066096 0.02047926 0.46828982
v 0.15980256 0.02047926 0.46286476
v 0.22113797 -0.08730359 0.41677573
v 0.17236374 -0.02878772 0.46048829
v 0.18100341 -0.04154272 0.45568734
v 0.15557463 -0.06578328 0.46466511
v 0.17205738 -0.06140064 0.45715162
v 0.15306239 -0.09195825 0.45741570
v 0.18694700 -0.08518782 0.44152457
v 0.20214298 -0.08545986 0.43254682
v 0.23333153 -0.08990295 0.40208486
v 0.24521871 -0.08412994 0.39195487
v 0.26488772 -0.07775244 0.36924642
v 0.27193424 -0.06415113 0.36881432
v 0.28333125 -0.04553244 0.36298117
v 0.28633368 -0.05432796 0.34975460
v 0.27744892 -0.08110744 0.34192905
v 0.27046368 -0.08485535 0.35383540
v 0.28247339 -0.07488105 0.32863045
v 0.26936072 -0.09733833 0.32058889
v 0.28228956 -0.07294665 0.30755433
v 0.27217934 -0.08470422 0.29593605
v 0.25980195 -0.09612933 0.28559002
v 0.26899308 -0.07787334 0.27980489
v 0.24638292 -0.09999815 0.27089915
v 0.22518207 -0.11946313 0.26516202
v 0.22358894 -0.10552935 0.25471997
v -0.05741431 -0.13336670 0.25471997
v -0.08590679 -0.20575590 0.27133122
v -0.10386012 -0.21712056 0.27673230
v -0.13026927 -0.21234499 0.28050101
v -0.16053870 -0.19454238 0.28299752
v -0.18437435 -0.18765105 0.28818253
v -0.24822201 -0.11477824 0.28731835
v -0.26881012 -0.08140969 0.28559002
v -0.27530518 -0.09440649 0.29567200
v -0.28455758 -0.08026113 0.29783243
v -0.29650605 -0.07705726 0.31405962
v -0.30067268 -0.08379747 0.33578384
v -0.30569717 -0.07358137 0.35035470
v -0.30673882 -0.06330483 0.36509359
v -0.30122414 -0.08530873 0.36761409
v -0.29901829 -0.07708749 0.38057664
v -0.30257219 -0.05236333 0.38592967
v -0.30220455 -0.03924561 0.39375520
v -0.30569717 -0.02558385 0.38912231
v -0.30716774 -0.01065263 0.38684186
v -0.29797661 -0.02177548 0.40230089
v -0.29209429 -0.01041083 0.40916622
v -0.27996203 0.00146765 0.41953626
v -0.25906754 0.00391589 0.43722773
v -0.24258479 0.00361364 0.44963816
v -0.21691093 -0.02621858 0.46819380
v -0.19448459 0.02047926 0.47712356
v 0.13020714 0.02047926 0.46970609
v 0.13461888 -0.00844620 0.47145844
v 0.19822145 -0.11251135 0.42323297
v 0.22867469 -0.10933772 0.39353916
v 0.15649374 -0.04426299 0.46488115
v 0.12836891 -0.04510929 0.47126639
v 0.14093012 -0.05692732 0.46809778
v 0.12242532 -0.06850355 0.47083431
v 0.01819799 -0.12605222 0.48641336
v -0.00612785 -0.15246898 0.48742157
v 0.01200930 -0.15388957 0.48262063
v 0.06930063 -0.14143682 0.46989813
v 0.13578308 -0.08896597 0.46423301
v 0.16219224 -0.10441101 0.44721368
v 0.03756062 -0.18075971 0.46752167
v 0.10398180 -0.13853520 0.45856792
v 0.09987643 -0.15627736 0.45242271
v 0.23510848 -0.11879818 0.37812814
v 0.25759611 -0.09649203 0.36480555
v 0.25937304 -0.10973064 0.34620190
v 0.26960582 -0.09492032 0.34056079
v 0.25557405 -0.11943291 0.33535177
v 0.24117462 -0.13829340 0.32183713
v 0.25520641 -0.11444576 0.30462575
v 0.24221627 -0.12913518 0.30049694
v 0.22744921 -0.14046961 0.28931075
v 0.24282902 -0.11275315 0.27865267
v 0.20833167 -0.15395002 0.27843660
v 0.18186124 -0.15041368 0.25479198
v 0.16433683 -0.16368252 0.25471997
v 0.07401874 -0.19209415 0.25471997
v 0.04528116 -0.20826459 0.26259351
v -0.11078410 -0.23180997 0.28676626
v -0.07236520 -0.22788072 0.27870068
v -0.05912999 -0.24096820 0.28333357
v -0.08829648 -0.24072640 0.28784645
v -0.13596778 -0.22452572 0.28907070
v -0.17352882 -0.20357969 0.29245538
v -0.19926398 -0.18861826 0.29706427
v -0.22867556 -0.14433843 0.29022294
v -0.24552596 -0.14246446 0.29987282
v -0.26347926 -0.10670812 0.29377562
v -0.27267039 -0.11311585 0.30544192
v -0.28376102 -0.10501552 0.31247529
v -0.26059940 -0.12828888 0.30412164
v -0.29295215 -0.09144443 0.31910059
v -0.29301342 -0.10096535 0.32973468
v -0.29068500 -0.11254158 0.33912051
v -0.29687369 -0.09930296 0.35078681
v -0.29154283 -0.10846119 0.37059069
v -0.29307470 -0.09688495 0.38120076
v -0.29209429 -0.08301161 0.39298707
v -0.29423890 -0.03906427 0.40597361
v -0.28455758 -0.05892218 0.41451928
v -0.28504777 -0.03640445 0.41739985
v -0.28284192 -0.01935747 0.41929621
v -0.27003562 -0.00896002 0.43012235
v -0.25416562 -0.01155939 0.44284484
v -0.22947213 -0.03174978 0.46029624
v -0.22187413 -0.04468614 0.46444905
v -0.20196003 -0.05345143 0.47503513
v -0.19528115 -0.03531635 0.47954804
v -0.19963162 -0.02165458 0.47712356
v -0.18412925 -0.02485845 0.48413292
v -0.16176419 0.02047926 0.48749357
v 0.10808717 0.02047926 0.47337881
v -0.03290465 -0.08047271 0.49443093
v -0.01776994 -0.11251135 0.49349475
v 0.11298910 -0.03776459 0.47438702
v 0.21439782 -0.13490818 0.38955438
v 0.21470419 -0.11937246 0.40086061
v 0.07034229 -0.20309609 0.44169259
v 0.13008459 -0.21258679 0.39766797
v 0.14301343 -0.21603245 0.38585767
v 0.10900628 -0.05399548 0.47429100
v -0.00079700 -0.12064192 0.49003807
v -0.02163021 -0.12771460 0.49306267
v 0.00073486 -0.16809538 0.48089230
v 0.01893328 -0.17689089 0.47419497
v -0.02610322 -0.14787477 0.49054217
v -0.03995118 -0.16434747 0.48679745
v -0.02898311 -0.17816035 0.48146838
v 0.04129834 -0.16156675 0.47263467
v 0.03578367 -0.22380032 0.44589344
v 0.05085711 -0.20243114 0.45184660
v 0.07138395 -0.16866966 0.45919204
v 0.00857795 -0.19807872 0.46675351
v 0.02457050 -0.20684400 0.45782375
v 0.06372468 -0.19009928 0.45215866
v 0.23094183 -0.13372940 0.36994255
v 0.24258393 -0.13487795 0.34636992
v 0.22983891 -0.15289214 0.34360939
v 0.21795171 -0.16513333 0.32726219
v 0.19809890 -0.18583754 0.31914860
v 0.22346640 -0.15657961 0.31501979
v 0.21078265 -0.16316868 0.29651216
v 0.19331951 -0.17813013 0.28895068
v 0.18229017 -0.17773721 0.27730840
v 0.17597893 -0.16567737 0.26319364
v 0.15091780 -0.19502598 0.27164328
v 0.12781744 -0.19541891 0.26050511
v 0.12689833 -0.18181759 0.25471997
v 0.10024408 -0.19118738 0.25488800
v 0.06936190 -0.21406782 0.26319364
v -0.08860286 -0.25354186 0.29915267
v -0.11605367 -0.24383959 0.29932070
v 0.03609004 -0.22884792 0.27219540
v 0.01170293 -0.24380936 0.28105313
v 0.00012212 -0.25982869 0.29214332
v -0.05300257 -0.25529492 0.29312751
v -0.07242648 -0.25054955 0.29178324
v -0.15220542 -0.22957331 0.30133712
v -0.17990133 -0.21509548 0.30700222
v -0.19693555 -0.20766009 0.31413162
v -0.21366340 -0.19723243 0.31886053
v -0.23964363 -0.16335003 0.31062692
v -0.23014614 -0.16102269 0.30004084
v -0.26188615 -0.14158794 0.31787634
v -0.28094241 -0.11674287 0.32147706
v -0.27205765 -0.13895835 0.33628795
v -0.26127341 -0.16014618 0.34807426
v -0.27714342 -0.13726574 0.35916445
v -0.28878549 -0.11692423 0.35666794
v -0.28094241 -0.12958856 0.37255907
v -0.28039095 -0.12448051 0.38684186
v -0.28713110 -0.09830554 0.39428332
v -0.27708215 -0.10166053 0.40952629
v -0.27751106 -0.08558075 0.41545546
v -0.27205765 -0.07049841 0.42570546
v -0.27585664 -0.05009644 0.42556143
v -0.27285421 -0.03156843 0.42868206
v -0.25961900 -0.02809254 0.43902808
v -0.25220484 -0.04414209 0.44469321
v -0.22340599 -0.06224695 0.46125644
v -0.24601614 -0.05916398 0.44697362
v -0.18676405 -0.06992413 0.48067623
v -0.18958265 -0.04961284 0.48144439
v -0.17561215 -0.05447908 0.48730153
v -0.17340627 -0.03567905 0.48799768
v -0.15453383 -0.05085207 0.49378282
v -0.14246283 -0.06324437 0.49644732
v -0.13223004 -0.04819226 0.49654335
v -0.11360271 -0.05762250 0.49839172
v -0.11446054 -0.03743210 0.49546313
v 0.01850436 0.02047926 0.48094028
v 0.07089376 0.02047926 0.47767565
v -0.04803937 -0.09981680 0.49654335
v -0.03933844 -0.11535251 0.49601525
v -0.10484050 -0.07152607 0.49995202
v -0.06311281 -0.10785668 0.49831969
v 0.21911593 -0.14639373 0.37284711
v 0.17089318 -0.20357969 0.36883834
v 0.06593055 -0.22123118 0.43204272
v 0.10128573 -0.22534180 0.40700582
v 0.08173928 -0.24063572 0.40796599
v 0.15349132 -0.21684852 0.37330320
v 0.12420227 -0.22945242 0.38724995
v -0.04227960 -0.13369918 0.49459898
v -0.00036808 -0.18432629 0.47491512
v -0.06115203 -0.13802136 0.49524710
v -0.06924022 -0.16335003 0.48886186
v -0.06611524 -0.18323818 0.48166043
v -0.04356635 -0.18335909 0.48010013
v -0.04865211 -0.19744399 0.47405094
v -0.03155662 -0.20460735 0.46922600
v -0.01047831 -0.19629544 0.47097835
v 0.03468074 -0.24417207 0.42937818
v 0.05104093 -0.24640872 0.42016038
v 0.06733986 -0.24459520 0.41341507
v 0.00863922 -0.21712056 0.45566332
v -0.00974302 -0.22549292 0.45417506
v -0.00490237 -0.25450906 0.43127456
v -0.00606657 -0.21319130 0.46111241
v 0.22248600 -0.15355709 0.36060470
v 0.21329488 -0.16700728 0.35450754
v 0.19282931 -0.19103627 0.34905845
v 0.21219195 -0.17253847 0.33976865
v 0.20655473 -0.17755586 0.32654205
v 0.20649345 -0.17317320 0.30945069
v 0.18253526 -0.20261249 0.32418957
v 0.18694700 -0.19242662 0.30731428
v 0.16035402 -0.21615335 0.30983478
v 0.16697162 -0.19523756 0.28438979
v 0.13578308 -0.22337717 0.29423171
v 0.13566053 -0.20844594 0.27663627
v 0.11041559 -0.21760416 0.27313158
v 0.09111423 -0.21721123 0.26629025
v 0.10722933 -0.20584658 0.26256952
v 0.05343062 -0.23770389 0.27685231
v -0.06807601 -0.26306278 0.30299342
v -0.08621316 -0.26451358 0.31185117
v -0.10496305 -0.25529492 0.30793840
v -0.12702174 -0.24937078 0.31158713
v 0.00330837 -0.27170718 0.30409765
v -0.03511052 -0.26457402 0.29960877
v 0.02689892 -0.26088655 0.29588804
v -0.15968087 -0.24223766 0.32421359
v -0.17046511 -0.23014760 0.31672412
v -0.19191107 -0.22035465 0.32642204
v -0.22224177 -0.19940862 0.33515972
v -0.23743777 -0.17816035 0.32541382
v -0.26372439 -0.15866514 0.37512755
v -0.26740083 -0.15262011 0.36216503
v -0.24062403 -0.18172692 0.33940858
v -0.23480298 -0.19263819 0.35037872
v -0.27181256 -0.13877700 0.38914630
v -0.26231506 -0.13554291 0.40974236
v -0.27193511 -0.12166957 0.40450931
v -0.27971694 -0.11208820 0.39769199
v -0.26102832 -0.11946313 0.41970429
v -0.26862630 -0.09939364 0.42078450
v -0.25802588 -0.08688043 0.43345898
v -0.26121214 -0.06155176 0.43674764
v -0.26452094 -0.04344691 0.43530735
v -0.20704578 -0.10066310 0.46272072
v -0.19080813 -0.08675954 0.47529918
v -0.24509703 -0.07654344 0.44474119
v -0.17708273 -0.08657818 0.48190048
v -0.16096762 -0.07146561 0.49116629
v -0.14908044 -0.08681998 0.49267858
v -0.12328402 -0.09059812 0.49822366
v -0.12757321 -0.07222124 0.49848774
v -0.05674030 -0.12357375 0.49690342
v -0.10765912 -0.08618526 0.49985600
v -0.09019598 -0.09655248 0.49980798
v -0.08039211 -0.11943291 0.49810365
v 0.14852810 -0.22691351 0.36096478
v 0.17861371 -0.20357969 0.35400343
v 0.09981516 -0.24402094 0.38953039
v 0.06133499 -0.25798494 0.40227687
v 0.10024408 -0.25529492 0.36696595
v -0.08039211 -0.14572878 0.49395084
v -0.09142146 -0.16452882 0.48780563
v -0.09191166 -0.19052243 0.47618735
v -0.06599269 -0.20787168 0.46944204
v -0.04191195 -0.21482345 0.46389696
v 0.03431309 -0.25849879 0.41387117
v 0.01556320 -0.25311869 0.42688170
v -0.04767172 -0.22836432 0.45590338
v -0.01905669 -0.23876175 0.44584543
v -0.03596836 -0.24761772 0.44102049
v -0.02310079 -0.25949621 0.42945021
v -0.00949793 -0.26841262 0.41497537
v 0.01060000 -0.27013546 0.40676576
v 0.18486367 -0.20113146 0.33952859
v 0.16010892 -0.22234951 0.33143902
v 0.14252324 -0.23389551 0.33035880
v 0.13394485 -0.23592059 0.31931663
v 0.12162875 -0.23573925 0.30066496
v 0.10195975 -0.23743185 0.28837457
v 0.09117550 -0.22948265 0.27697232
v 0.08137164 -0.24380936 0.28751040
v -0.06807601 -0.27200943 0.31758830
v -0.02806399 -0.27675474 0.31485176
v -0.09846799 -0.26783836 0.32392552
v -0.12751193 -0.25692707 0.32514977
v 0.07070994 -0.25399524 0.29651216
v 0.02089405 -0.27219075 0.30832249
v 0.00747501 -0.27835667 0.31571591
v -0.00814990 -0.27599913 0.31189919
v -0.14620055 -0.25707820 0.35035470
v -0.16133527 -0.24701321 0.34178501
v -0.17745037 -0.23610196 0.33583188
v -0.11801445 -0.26596439 0.33720013
v -0.12861487 -0.26596439 0.35189101
v -0.19454587 -0.22757846 0.34901044
v -0.22340599 -0.20457712 0.35724407
v -0.25171465 -0.17271984 0.38628975
v -0.23241328 -0.19493531 0.36883834
v -0.25459453 -0.14724004 0.41063052
v -0.25667784 -0.10852163 0.42791390
v -0.23811178 -0.13454548 0.43290687
v -0.24172695 -0.12076282 0.43525934
v -0.23008487 -0.11381103 0.44454917
v -0.20428845 -0.11604770 0.45991218
v -0.18149446 -0.10834029 0.47484308
v -0.16207056 -0.09504122 0.48610130
v -0.14871280 -0.11477824 0.48641336
v -0.13216877 -0.10501552 0.49459898
v -0.10912970 -0.10834029 0.49851173
v -0.09846799 -0.12967923 0.49618328
v 0.15667757 -0.22389099 0.34941852
v 0.07267071 -0.26581326 0.37515157
v 0.03161703 -0.26877534 0.39994842
v 0.04025668 -0.27454832 0.38477746
v 0.08523191 -0.26535988 0.35577977
v 0.12769489 -0.24320486 0.33825633
v -0.10128661 -0.14947669 0.49152637
v -0.11262232 -0.16353139 0.48370084
v -0.10361502 -0.17870441 0.47940400
v -0.08174015 -0.21751349 0.46104038
v -0.08186270 -0.20345879 0.46980211
v -0.11507329 -0.20013404 0.46497717
v -0.06893385 -0.22298424 0.45871192
v -0.05974273 -0.25030777 0.43739575
v -0.04840701 -0.26270008 0.42688170
v -0.03167917 -0.27037725 0.41691974
v -0.02114001 -0.27766150 0.40563753
v 0.01697251 -0.27557600 0.39478740
v 0.17248631 -0.21171026 0.34077683
v 0.10165338 -0.25553671 0.33280727
v 0.11825868 -0.24362800 0.31739625
v 0.08566083 -0.25511354 0.30551392
v -0.07935046 -0.27524352 0.33237520
v -0.02830909 -0.28482488 0.33664802
v -0.00729206 -0.28283000 0.32651803
v -0.09785525 -0.27530396 0.34305727
v 0.04252383 -0.26786858 0.30870655
v 0.02493815 -0.27877986 0.32106897
v 0.00778138 -0.28397858 0.33146301
v -0.13535503 -0.26551101 0.36768609
v -0.17389648 -0.24299328 0.35148293
v -0.11158066 -0.27228144 0.35592380
v -0.17561215 -0.24075662 0.36749408
v -0.19558752 -0.22519067 0.37589571
v -0.21979080 -0.20629996 0.37162289
v -0.23388386 -0.18807420 0.39356318
v -0.24332008 -0.17284073 0.40066856
v -0.24252352 -0.15848379 0.41473532
v -0.23474170 -0.15062526 0.42642561
v -0.22267069 -0.15092750 0.43504331
v -0.20508501 -0.15685163 0.44342095
v -0.19595516 -0.14600080 0.45405501
v -0.21249919 -0.13478728 0.44872600
v -0.17438667 -0.12345285 0.47354686
v -0.14154372 -0.13956285 0.48326874
v -0.16813670 -0.11112100 0.47964403
v -0.12199727 -0.12840977 0.49270260
v 0.04785468 -0.27784288 0.36948645
v 0.02530579 -0.28062356 0.37764806
v 0.06390850 -0.27430654 0.35172299
v 0.07665353 -0.26826149 0.34075284
v -0.12162962 -0.14844905 0.48756558
v -0.13173985 -0.16138540 0.47885188
v -0.12138452 -0.17861374 0.47424299
v -0.07377451 -0.23320034 0.44995022
v -0.09626212 -0.21648583 0.45837587
v -0.13229132 -0.18958546 0.46461710
v -0.12971781 -0.21361443 0.45035830
v -0.08676463 -0.25357208 0.42791390
v -0.07028189 -0.26327434 0.42253685
v -0.05134817 -0.27355090 0.41115862
v -0.02297824 -0.28790784 0.36972651
v -0.01121360 -0.28509688 0.38141680
v 0.00912942 -0.28180236 0.38278505
v 0.06213155 -0.27237213 0.33196712
v 0.10520728 -0.25048912 0.31881252
v 0.06660457 -0.26399976 0.31302738
v -0.01231654 -0.28827053 0.35318726
v -0.03363994 -0.28697085 0.35215506
v -0.08247544 -0.27941456 0.35037872
v -0.10251208 -0.27642226 0.37315917
v -0.09099255 -0.27844736 0.36245307
v 0.02996263 -0.28240687 0.33909652
v 0.00876177 -0.28636634 0.34973058
v -0.13713197 -0.25961709 0.39243495
v -0.16023234 -0.25000551 0.37428740
v -0.15851666 -0.25218171 0.35945249
v -0.17714401 -0.22869679 0.40522945
v -0.20882274 -0.20182663 0.40561354
v -0.21862660 -0.18867871 0.41106260
v -0.21059969 -0.18154557 0.42419317
v -0.21764621 -0.16676548 0.42933017
v -0.19711937 -0.18311727 0.43333897
v -0.17646998 -0.16912304 0.45439109
v -0.17071022 -0.14545676 0.46737763
v -0.15110248 -0.15443362 0.47294673
v 0.00906814 -0.28618500 0.36814219
v 0.02487687 -0.28494579 0.35736409
v 0.04374931 -0.28071427 0.35304323
v -0.14209519 -0.17483559 0.46872190
v -0.16102889 -0.19572116 0.44697362
v -0.14509761 -0.22401190 0.43329096
v -0.12242618 -0.22984535 0.43758780
v -0.10336992 -0.24625760 0.42901811
v -0.09381115 -0.26399976 0.41444728
v -0.08468131 -0.27421585 0.39706787
v -0.08645826 -0.27799398 0.38252100
v -0.10416649 -0.27164671 0.38811409
v -0.14810005 -0.24402094 0.40919024
v -0.18707041 -0.20744851 0.42181671
v -0.16035488 -0.23038939 0.41631964
v -0.18149446 -0.19472373 0.43487528
f 1 2 3
f 1 3 4
f 1 4 5
f 1 5 6
f 1 6 7
f 1 7 8
f 1 8 29
f 1 29 67
f 1 67 120
f 1 120 185
f 1 185 265
f 1 265 266
f 1 266 186
f 1 186 121
f 1 121 68
f 1 68 30
f 1 30 9
f 1 9 2
f 2 9 10
f 2 10 11
f 2 11 12
f 2 12 3
f 3 13 14
f 3 14 4
f 3 12 11
f 3 11 13
f 4 15 16
f 4 16 5
f 4 14 15
f 5 16 6
f 6 16 17
f 6 17 18
f 6 18 19
f 6 19 7
f 7 19 20
f 7 20 21
f 7 21 22
f 7 22 23
f 7 23 24
f 7 24 8
f 8 24 25
f 8 25 26
f 8 26 27
f 8 27 28
f 8 28 29
f 9 30 10
f 10 31 11
f 10 30 32
f 10 32 33
f 10 33 34
f 10 34 31
f 11 31 35
f 11 35 13
f 13 36 14
f 13 35 36
f 14 36 37
f 14 37 15
f 15 38 16
f 15 37 39
f 15 39 40
f 15 40 41
f 15 41 38
f 16 38 17
f 17 38 42
f 17 42 18
f 18 42 43
f 18 43 21
f 18 21 20
f 18 20 19
f 21 43 44
f 21 44 45
f 21 45 46
f 21 46 22
f 22 46 47
f 22 47 48
f 22 48 49
f 22 49 93
f 22 93 150
f 22 150 222
f 22 222 151
f 22 151 94
f 22 94 50
f 22 50 23
f 23 50 51
f 23 51 52
f 23 52 53
f 23 53 54
f 23 54 24
f 24 54 55
f 24 55 56
f 24 56 25
f 25 56 57
f 25 57 58
f 25 58 26
f 26 58 27
f 27 58 59
f 27 59 60
f 27 60 28
f 28 61 29
f 28 60 62
f 28 62 63
f 28 63 64
f 28 64 61
f 29 61 65
f 29 65 66
f 29 66 67
f 30 68 32
f 31 34 69
f 31 69 35
f 32 68 70
f 32 70 71
f 32 71 33
f 33 71 72
f 33 72 73
f 33 73 34
f 34 73 72
f 34 72 74
f 34 74 75
f 34 75 76
f 34 76 69
f 35 69 77
f 35 77 78
f 35 78 79
f 35 79 80
f 35 80 81
f 35 81 36
f 36 81 39
f 36 39 37
f 38 41 42
f 39 81 82
f 39 82 40
f 40 83 41
f 40 82 81
f 40 81 80
f 40 80 84
f 40 84 83
f 41 83 85
f 41 85 42
f 42 85 86
f 42 86 87
f 42 87 44
f 42 44 43
f 44 87 88
f 44 88 89
f 44 89 45
f 45 89 90
f 45 90 47
f 45 47 46
f 47 90 91
f 47 91 48
f 48 91 49
f 49 91 92
f 49 92 93
f 50 94 51
f 51 94 95
f 51 95 96
f 51 96 97
f 51 97 52
f 52 97 98
f 52 98 99
f 52 99 53
f 53 100 101
f 53 101 55
f 53 55 54
f 53 99 100
f 55 101 102
f 55 102 103
f 55 103 57
f 55 57 56
f 57 104 58
f 57 103 104
f 58 104 59
f 59 104 105
f 59 105 60
f 60 106 62
f 60 105 106
f 61 64 65
f 62 106 107
f 62 107 63
f 63 107 108
f 63 108 109
f 63 109 110
f 63 110 111
f 63 111 112
f 63 112 64
f 64 112 113
f 64 113 65
f 65 113 114
f 65 114 115
f 65 115 66
f 66 115 116
f 66 116 117
f 66 117 67
f 67 117 118
f 67 118 119
f 67 119 120
f 68 121 122
f 68 122 70
f 69 76 123
f 69 123 124
f 69 124 77
f 70 122 125
f 70 125 72
f 70 72 71
f 72 125 122
f 72 122 126
f 72 126 127
f 72 127 128
f 72 128 129
f 72 129 130
f 72 130 131
f 72 131 132
f 72 132 133
f 72 133 74
f 74 134 75
f 74 133 132
f 74 132 135
f 74 135 136
f 74 136 137
f 74 137 134
f 75 123 76
f 75 134 123
f 77 124 78
f 78 124 138
f 78 138 139
f 78 139 79
f 79 139 84
f 79 84 80
f 83 84 140
f 83 140 141
f 83 141 85
f 84 139 140
f 85 141 142
f 85 142 86
f 86 142 143
f 86 143 144
f 86 144 87
f 87 144 88
f 88 144 89
f 89 144 145
f 89 145 146
f 89 146 147
f 89 147 90
f 90 147 91
f 91 147 92
f 92 148 149
f 92 149 93
f 92 147 148
f 93 149 150
f 94 151 95
f 95 151 152
f 95 152 96
f 96 153 97
f 96 152 154
f 96 154 155
f 96 155 156
f 96 156 153
f 97 157 99
f 97 99 98
f 97 153 157
f 99 157 158
f 99 158 159
f 99 159 160
f 99 160 100
f 100 161 162
f 100 162 102
f 100 102 101
f 100 160 161
f 102 163 164
f 102 164 103
f 102 162 161
f 102 161 165
f 102 165 163
f 103 164 104
f 104 164 166
f 104 166 167
f 104 167 105
f 105 167 168
f 105 168 169
f 105 169 106
f 106 169 108
f 106 108 107
f 108 169 170
f 108 170 171
f 108 171 109
f 109 171 172
f 109 172 110
f 110 172 111
f 111 173 114
f 111 114 112
f 111 172 174
f 111 174 173
f 112 114 113
f 114 173 175
f 114 175 115
f 115 175 176
f 115 176 116
f 116 176 177
f 116 177 117
f 117 178 118
f 117 177 178
f 118 178 179
f 118 179 119
f 119 179 180
f 119 180 181
f 119 181 182
f 119 182 183
f 119 183 120
f 120 183 184
f 120 184 185
f 121 186 122
f 122 186 187
f 122 187 188
f 122 188 189
f 122 189 126
f 123 190 191
f 123 191 124
f 123 134 137
f 123 137 192
f 123 192 193
f 123 193 194
f 123 194 190
f 124 191 190
f 124 190 138
f 126 189 195
f 126 195 128
f 126 128 127
f 128 195 129
f 129 195 188
f 129 188 196
f 129 196 197
f 129 197 130
f 130 198 199
f 130 199 131
f 130 197 200
f 130 200 201
f 130 201 202
f 130 202 198
f 131 199 203
f 131 203 132
f 132 203 135
f 135 204 205
f 135 205 206
f 135 206 136
f 135 203 199
f 135 199 207
f 135 207 208
f 135 208 204
f 136 206 137
f 137 206 209
f 137 209 192
f 138 210 139
f 138 190 210
f 139 210 140
f 140 210 211
f 140 211 142
f 140 142 141
f 142 211 212
f 142 212 143
f 143 212 213
f 143 213 214
f 143 214 215
f 143 215 145
f 143 145 144
f 145 215 216
f 145 216 146
f 146 216 217
f 146 217 148
f 146 148 147
f 148 217 218
f 148 218 149
f 149 218 219
f 149 219 150
f 150 219 220
f 150 220 221
f 150 221 222
f 151 222 223
f 151 223 224
f 151 224 152
f 152 224 154
f 153 156 225
f 153 225 226
f 153 226 157
f 154 224 155
f 155 224 227
f 155 227 228
f 155 228 229
f 155 229 230
f 155 230 231
f 155 231 156
f 156 231 225
f 157 232 158
f 157 226 232
f 158 233 159
f 158 232 233
f 159 233 234
f 159 234 235
f 159 235 236
f 159 236 237
f 159 237 160
f 160 237 161
f 161 237 236
f 161 236 165
f 163 165 238
f 163 238 164
f 164 238 239
f 164 239 168
f 164 168 167
f 164 167 166
f 165 236 238
f 168 239 240
f 168 240 241
f 168 241 242
f 168 242 243
f 168 243 169
f 169 243 170
f 170 243 244
f 170 244 245
f 170 245 171
f 171 245 246
f 171 246 172
f 172 246 247
f 172 247 248
f 172 248 174
f 173 174 175
f 174 248 249
f 174 249 250
f 174 250 175
f 175 250 251
f 175 251 176
f 176 251 177
f 177 251 178
f 178 251 252
f 178 252 253
f 178 253 179
f 179 253 180
f 180 254 181
f 180 253 255
f 180 255 254
f 181 254 256
f 181 256 257
f 181 257 182
f 182 257 258
f 182 258 184
f 182 184 183
f 184 258 259
f 184 259 185
f 185 259 260
f 185 260 261
f 185 261 262
f 185 262 263
f 185 263 264
f 185 264 265
f 186 266 187
f 187 267 268
f 187 268 188
f 187 266 269
f 187 269 270
f 187 270 267
f 188 268 197
f 188 197 196
f 188 195 189
f 190 271 210
f 190 194 272
f 190 272 271
f 192 209 205
f 192 205 204
f 192 204 273
f 192 273 193
f 193 273 274
f 193 274 275
f 193 275 194
f 194 276 272
f 194 275 277
f 194 277 276
f 197 268 278
f 197 278 200
f 198 202 279
f 198 279 199
f 199 279 207
f 200 278 280
f 200 280 281
f 200 281 201
f 201 281 202
f 202 281 282
f 202 282 283
f 202 283 284
f 202 284 285
f 202 285 286
f 202 286 279
f 204 287 288
f 204 288 289
f 204 289 273
f 204 208 207
f 204 207 290
f 204 290 291
f 204 291 292
f 204 292 287
f 205 209 206
f 207 279 286
f 207 286 293
f 207 293 290
f 210 271 294
f 210 294 211
f 211 294 212
f 212 294 295
f 212 295 296
f 212 296 297
f 212 297 213
f 213 297 298
f 213 298 214
f 214 299 215
f 214 298 300
f 214 300 301
f 214 301 299
f 215 299 216
f 216 299 217
f 217 299 301
f 217 301 302
f 217 302 303
f 217 303 218
f 218 303 220
f 218 220 219
f 220 304 305
f 220 305 221
f 220 303 304
f 221 306 307
f 221 307 308
f 221 308 223
f 221 223 222
f 221 305 306
f 223 307 224
f 223 308 307
f 224 309 228
f 224 228 227
f 224 307 309
f 225 231 310
f 225 310 311
f 225 311 312
f 225 312 226
f 226 313 232
f 226 312 313
f 228 309 229
f 229 314 315
f 229 315 230
f 229 309 316
f 229 316 314
f 230 315 310
f 230 310 231
f 232 313 317
f 232 317 318
f 232 318 233
f 233 318 234
f 234 318 319
f 234 319 235
f 235 320 321
f 235 321 236
f 235 319 320
f 236 321 238
f 238 321 241
f 238 241 240
f 238 240 239
f 241 322 323
f 241 323 242
f 241 321 324
f 241 324 325
f 241 325 322
f 242 322 244
f 242 244 243
f 242 323 322
f 244 322 326
f 244 326 245
f 245 326 327
f 245 327 328
f 245 328 329
f 245 329 246
f 246 329 247
f 247 329 328
f 247 328 327
f 247 327 330
f 247 330 331
f 247 331 248
f 248 331 249
f 249 331 332
f 249 332 333
f 249 333 250
f 250 333 334
f 250 334 251
f 251 334 252
f 252 334 253
f 253 334 333
f 253 333 255
f 254 335 336
f 254 336 256
f 254 255 333
f 254 333 337
f 254 337 335
f 256 336 338
f 256 338 339
f 256 339 258
f 256 258 257
f 258 339 260
f 258 260 259
f 260 339 261
f 261 339 340
f 261 340 341
f 261 341 342
f 261 342 262
f 262 342 269
f 262 269 263
f 263 269 265
f 263 265 264
f 265 269 266
f 267 270 268
f 268 270 343
f 268 343 278
f 269 342 344
f 269 344 345
f 269 345 270
f 270 345 346
f 270 346 343
f 271 272 294
f 272 276 347
f 272 347 348
f 272 348 295
f 272 295 294
f 273 289 275
f 273 275 274
f 275 349 277
f 275 289 350
f 275 350 349
f 276 277 347
f 277 349 351
f 277 351 347
f 278 343 280
f 280 346 352
f 280 352 281
f 280 343 346
f 281 352 353
f 281 353 282
f 282 353 354
f 282 354 355
f 282 355 284
f 282 284 283
f 284 355 285
f 285 355 356
f 285 356 291
f 285 291 293
f 285 293 286
f 287 357 288
f 287 292 358
f 287 358 357
f 288 350 289
f 288 357 350
f 290 293 291
f 291 356 359
f 291 359 360
f 291 360 292
f 292 360 361
f 292 361 362
f 292 362 363
f 292 363 364
f 292 364 358
f 295 348 296
f 296 365 297
f 296 348 365
f 297 365 300
f 297 300 298
f 300 365 366
f 300 366 302
f 300 302 301
f 302 366 367
f 302 367 368
f 302 368 369
f 302 369 304
f 302 304 303
f 304 369 370
f 304 370 305
f 305 370 306
f 306 370 371
f 306 371 307
f 307 371 372
f 307 372 309
f 309 372 316
f 310 373 311
f 310 315 374
f 310 374 373
f 311 373 375
f 311 375 312
f 312 375 313
f 313 375 376
f 313 376 317
f 314 316 377
f 314 377 378
f 314 378 379
f 314 379 380
f 314 380 374
f 314 374 315
f 316 372 377
f 317 381 382
f 317 382 383
f 317 383 319
f 317 319 318
f 317 376 384
f 317 384 385
f 317 385 381
f 319 383 320
f 320 383 386
f 320 386 387
f 320 387 325
f 320 325 324
f 320 324 321
f 322 325 388
f 322 388 326
f 325 387 389
f 325 389 388
f 326 388 390
f 326 390 327
f 327 390 330
f 330 391 331
f 330 390 392
f 330 392 391
f 331 391 332
f 332 391 393
f 332 393 337
f 332 337 333
f 335 337 394
f 335 394 395
f 335 395 396
f 335 396 336
f 336 396 338
f 337 393 394
f 338 396 397
f 338 397 339
f 339 397 340
f 340 397 398
f 340 398 399
f 340 399 341
f 341 400 344
f 341 344 342
f 341 399 400
f 344 400 345
f 345 400 346
f 346 400 401
f 346 401 352
f 347 402 348
f 347 351 402
f 348 402 365
f 349 350 403
f 349 403 351
f 350 357 404
f 350 404 405
f 350 405 403
f 351 403 406
f 351 406 407
f 351 407 402
f 352 401 408
f 352 408 353
f 353 408 409
f 353 409 410
f 353 410 354
f 354 411 412
f 354 412 355
f 354 410 413
f 354 413 411
f 355 412 411
f 355 411 414
f 355 414 359
f 355 359 356
f 357 358 364
f 357 364 404
f 359 415 361
f 359 361 360
f 359 414 415
f 361 415 416
f 361 416 362
f 362 416 417
f 362 417 418
f 362 418 363
f 363 418 364
f 364 419 404
f 364 418 419
f 365 402 420
f 365 420 366
f 366 420 402
f 366 402 367
f 367 402 407
f 367 407 421
f 367 421 422
f 367 422 368
f 368 422 369
f 369 422 423
f 369 423 370
f 370 423 377
f 370 377 372
f 370 372 371
f 373 424 375
f 373 374 425
f 373 425 424
f 374 380 379
f 374 379 426
f 374 426 425
f 375 427 384
f 375 384 376
f 375 424 427
f 377 428 378
f 377 423 428
f 378 428 429
f 378 429 379
f 379 430 426
f 379 429 430
f 381 431 432
f 381 432 382
f 381 385 431
f 382 432 383
f 383 432 386
f 384 427 385
f 385 427 433
f 385 433 431
f 386 432 434
f 386 434 435
f 386 435 387
f 387 435 436
f 387 436 389
f 388 389 437
f 388 437 438
f 388 438 390
f 389 436 437
f 390 438 439
f 390 439 440
f 390 440 392
f 391 392 393
f 392 440 441
f 392 441 442
f 392 442 443
f 392 443 444
f 392 444 393
f 393 444 395
f 393 395 394
f 395 444 443
f 395 443 445
f 395 445 396
f 396 445 446
f 396 446 447
f 396 447 397
f 397 447 446
f 397 446 398
f 398 446 399
f 399 446 448
f 399 448 400
f 400 448 401
f 401 448 408
f 403 405 449
f 403 449 406
f 404 419 405
f 405 419 450
f 405 450 449
f 406 421 407
f 406 449 451
f 406 451 452
f 406 452 421
f 408 448 453
f 408 453 409
f 409 453 454
f 409 454 455
f 409 455 410
f 410 455 413
f 411 456 414
f 411 413 457
f 411 457 456
f 413 455 458
f 413 458 459
f 413 459 457
f 414 456 415
f 415 456 460
f 415 460 461
f 415 461 416
f 416 461 462
f 416 462 417
f 417 462 418
f 418 462 463
f 418 463 464
f 418 464 465
f 418 465 419
f 419 465 450
f 421 452 466
f 421 466 467
f 421 467 422
f 422 467 423
f 423 467 466
f 423 466 468
f 423 468 428
f 424 425 427
f 425 426 430
f 425 430 469
f 425 469 470
f 425 470 471
f 425 471 427
f 427 472 433
f 427 471 473
f 427 473 472
f 428 468 429
f 429 468 466
f 429 466 474
f 429 474 430
f 430 475 469
f 430 474 475
f 431 472 476
f 431 476 477
f 431 477 478
f 431 478 432
f 431 433 472
f 432 478 434
f 434 478 477
f 434 477 435
f 435 477 479
f 435 479 437
f 435 437 436
f 437 479 480
f 437 480 481
f 437 481 438
f 438 481 439
f 439 481 482
f 439 482 483
f 439 483 440
f 440 483 441
f 441 483 442
f 442 483 484
f 442 484 485
f 442 485 443
f 443 485 486
f 443 486 445
f 445 486 446
f 446 454 453
f 446 453 448
f 446 486 487
f 446 487 454
f 449 450 488
f 449 488 489
f 449 489 490
f 449 490 451
f 450 465 488
f 451 490 466
f 451 466 452
f 454 487 491
f 454 491 455
f 455 491 458
f 456 457 460
f 457 459 460
f 458 491 492
f 458 492 459
f 459 492 493
f 459 493 494
f 459 494 495
f 459 495 460
f 460 495 496
f 460 496 461
f 461 496 462
f 462 496 497
f 462 497 463
f 463 470 469
f 463 469 488
f 463 488 464
f 463 497 498
f 463 498 472
f 463 472 473
f 463 473 470
f 464 488 465
f 466 490 474
f 469 489 488
f 469 475 489
f 470 473 471
f 472 498 499
f 472 499 476
f 474 490 489
f 474 489 475
f 476 500 479
f 476 479 477
f 476 499 497
f 476 497 496
f 476 496 500
f 479 501 480
f 479 500 502
f 479 502 501
f 480 501 481
f 481 501 482
f 482 501 484
f 482 484 483
f 484 501 503
f 484 503 492
f 484 492 485
f 485 492 491
f 485 491 486
f 486 491 487
f 492 503 501
f 492 501 493
f 493 500 496
f 493 496 495
f 493 495 494
f 493 501 502
f 493 502 500
f 497 499 498

