# https://github.com/mikedh/trimesh
v -0.12632081 -0.02643698 -0.17238417
v -0.12338753 -0.02685933 -0.25603038
v -0.12197328 -0.03817220 -0.24949482
v -0.12346610 -0.03841354 -0.17238417
v -0.12569225 -0.02305820 -0.17238417
v -0.11319963 0.07562020 -0.32986212
v -0.12134472 0.02913184 -0.32138595
v -0.12233993 0.01748713 -0.32901448
v -0.12197328 0.01670277 -0.34268785
v -0.12220898 0.00659660 -0.32979518
v -0.11995664 -0.01047829 -0.35185549
v -0.11786145 -0.05084262 -0.24904871
v -0.11390676 -0.06375437 -0.24518983
v -0.11390676 -0.07011975 -0.17238417
v -0.11851619 -0.01684367 -0.35377377
v -0.12346610 -0.01738668 -0.17238417
v -0.11034492 0.08111072 -0.31989148
v -0.11340915 0.07094422 -0.31719249
v -0.10539501 0.08856213 -0.33470243
v -0.10691403 0.07785261 -0.40025875
v -0.10992588 0.07242243 -0.40025875
v -0.11490197 0.06400566 -0.33670995
v -0.11089491 0.06699225 -0.40025875
v -0.11914475 0.01281114 -0.36693409
v -0.11846381 0.01060890 -0.37326890
v -0.11972094 0.00376084 -0.36314213
v -0.11657813 -0.00420342 -0.37422806
v -0.10712355 -0.08767732 -0.21378347
v -0.11401152 -0.03799120 -0.32667241
v -0.10934970 -0.05479458 -0.30777949
v -0.11162823 -0.07627395 -0.17238417
v -0.10921875 -0.01210734 -0.40025875
v -0.10714974 -0.01889507 -0.40025875
v -0.11474483 -0.02818670 -0.34933496
v -0.11016159 -0.00845706 -0.40025875
v -0.11228298 0.01100108 -0.17238417
v -0.10162365 0.03760896 -0.17238417
v -0.10068081 0.03935868 -0.17238417
v -0.09374047 0.04928384 -0.17238417
v -0.09408094 0.09559119 -0.30111012
v -0.09664756 0.09513868 -0.31145993
v -0.08156213 0.12111303 -0.36577421
v -0.08575252 0.11610520 -0.36642107
v -0.10329981 0.08316212 -0.40025875
v -0.11259726 0.00493738 -0.40025875
v -0.11259726 0.00469604 -0.40025875
v -0.10096890 -0.10212763 -0.20740405
v -0.09999987 -0.10641144 -0.19096479
v -0.10568310 -0.05262251 -0.33461320
v -0.10083795 -0.07241249 -0.30523667
v -0.09751183 -0.10668295 -0.17238417
v -0.11068539 -0.03437107 -0.35502288
v -0.09041435 -0.05304486 -0.40025875
v -0.08755963 0.05664475 -0.17238417
v -0.08179784 0.10147388 -0.29000190
v -0.08656441 0.10418898 -0.31110305
v -0.07192422 0.12578902 -0.34842041
v -0.08067167 0.12087169 -0.36093387
v -0.08260973 0.06207493 -0.17238417
v -0.07771220 0.06656991 -0.17238417
v -0.07464798 0.06925483 -0.17238417
v -0.06545530 0.07688724 -0.17238417
v -0.06338628 0.07857663 -0.17238417
v -0.06569100 0.13155104 -0.35578126
v -0.06197202 0.13369295 -0.36673334
v -0.06605766 0.12274209 -0.40025875
v -0.08088119 0.11148955 -0.40025875
v -0.10277601 0.08382580 -0.40025875
v -0.09662137 -0.09356002 -0.26196370
v -0.08926199 -0.12001705 -0.18759662
v -0.09421189 -0.11289749 -0.17238417
v -0.08944532 -0.11977571 -0.17238417
v -0.09285001 -0.08067843 -0.31598797
v -0.08321210 -0.06254767 -0.40025875
v -0.07475273 0.11299793 -0.31141531
v -0.05233411 0.08593754 -0.17238417
v -0.06152680 0.12069069 -0.30958626
v -0.05827924 0.08213641 -0.17238417
v -0.03811295 0.12847394 -0.30405447
v -0.01700383 0.13686055 -0.31384665
v -0.04877228 0.12397896 -0.29966024
v -0.00943492 0.14036000 -0.33572850
v -0.04253906 0.13124937 -0.40025875
v -0.05173174 0.12913764 -0.40025875
v -0.05751973 0.12705606 -0.40025875
v -0.05843638 0.12669405 -0.40025875
v -0.08177165 -0.09950305 -0.30227000
v -0.05330314 -0.12786064 -0.30840406
v -0.02844885 -0.15410651 -0.28161496
v -0.08910485 -0.12010755 -0.17238417
v -0.08926199 -0.11995672 -0.17238417
v -0.08161451 -0.10366619 -0.28616533
v -0.08274068 -0.06312086 -0.40025875
v -0.04782943 0.08798894 -0.17238417
v -0.01441102 0.13336110 -0.29832190
v -0.00464216 0.13598569 -0.30914015
v -0.00157793 0.13930413 -0.32502177
v -0.00008510 0.13305943 -0.29515451
v 0.00444577 0.13948514 -0.34420463
v -0.00121127 0.13124937 -0.40025875
v -0.04138670 -0.13184278 -0.32780999
v -0.03476064 -0.13983721 -0.31953457
v -0.02609175 -0.14463386 -0.32439721
v -0.02177040 -0.15338248 -0.30184621
v 0.00643620 -0.16783279 -0.29740736
v -0.01888951 -0.15522271 -0.22625233
v -0.08831915 -0.12052990 -0.17238417
v -0.08224307 -0.06360354 -0.40025875
v -0.02821314 0.09103588 -0.17238417
v -0.00322790 0.11317894 -0.23470618
v 0.01772409 0.13749407 -0.33360946
v 0.02458586 0.12050968 -0.26220906
v 0.05425911 0.11731191 -0.27336186
v 0.04352122 0.12253091 -0.28725830
v 0.04328551 0.12618120 -0.40025875
v 0.04066651 0.12669405 -0.40025875
v 0.02178353 0.12952980 -0.40025875
v 0.00876711 0.13073651 -0.40025875
v 0.00510052 0.13094769 -0.40025875
v -0.03313686 -0.13365284 -0.34126028
v -0.03198450 -0.13857016 -0.32966134
v -0.02315847 -0.13763496 -0.35033870
v -0.01289200 -0.14273331 -0.35049483
v -0.01517053 -0.15184394 -0.31777245
v 0.00313627 -0.16584173 -0.29928106
v 0.01277418 -0.14906850 -0.35250235
v 0.02322398 -0.15102941 -0.34471768
v 0.02594774 -0.15639925 -0.32415184
v 0.03676420 -0.15477020 -0.31714788
v 0.03383093 -0.16116574 -0.28317636
v 0.03184049 -0.16152775 -0.27697539
v 0.02806913 -0.15968752 -0.20437048
v 0.02442872 -0.15956685 -0.20352286
v -0.00131603 -0.16038138 -0.21871302
v -0.00516596 -0.15914451 -0.21465339
v -0.01328485 -0.15667076 -0.21750851
v -0.00563738 -0.14409085 -0.35676271
v -0.00338504 -0.14300480 -0.36305290
v 0.00363388 -0.14578024 -0.35872561
v -0.08229545 -0.12306399 -0.17238417
v -0.02046091 -0.11862934 -0.40025875
v -0.02507034 0.09103588 -0.17238417
v -0.02156089 0.09100571 -0.17238417
v -0.00770639 0.09067386 -0.17238417
v 0.00350293 0.09031186 -0.17238417
v 0.05017347 0.12554768 -0.31317747
v 0.03283571 0.13287842 -0.33367637
v 0.05339484 0.12328510 -0.40025875
v 0.04648069 0.12530634 -0.40025875
v 0.00478624 0.09013085 -0.17238417
v 0.03812608 0.11317894 -0.24831262
v 0.06248276 0.11990632 -0.31007698
v 0.05017347 0.11266609 -0.25687799
v 0.06321608 0.10786943 -0.25756946
v 0.07426825 0.10862362 -0.27974129
v 0.06714458 0.11459681 -0.28957808
v -0.01692526 -0.12146510 -0.40025875
v -0.01176583 -0.12508522 -0.40025875
v 0.00004585 -0.12991205 -0.40025875
v 0.01036470 -0.13072658 -0.40025875
v 0.02400968 -0.13015339 -0.40025875
v 0.02966672 -0.14556906 -0.35651737
v 0.03804751 -0.14813331 -0.34438309
v 0.05195439 -0.14777130 -0.32178745
v 0.06321608 -0.14146626 -0.32899219
v 0.05294961 -0.15329199 -0.27182278
v 0.04818304 -0.15504171 -0.26740626
v 0.06093755 -0.14894783 -0.26350278
v 0.05556861 -0.13965620 -0.17238417
v 0.01908597 -0.14985287 -0.17238417
v 0.00491719 -0.15121041 -0.17238417
v -0.00765400 -0.15078807 -0.17238417
v -0.02598699 -0.14475453 -0.17238417
v -0.03533681 -0.14146626 -0.17238417
v -0.04921750 -0.13609642 -0.17238417
v -0.00128984 -0.12961036 -0.40025875
v 0.06355655 0.12011750 -0.32406265
v 0.04606165 0.12793092 -0.34966952
v 0.08076337 0.11173089 -0.32685083
v 0.05852808 0.12029850 -0.40025875
v 0.01452891 0.08804928 -0.17238417
v 0.02510966 0.08515318 -0.17238417
v 0.03862369 0.08105038 -0.17238417
v 0.05048775 0.10823144 -0.24619359
v 0.07458253 0.11435547 -0.31311056
v 0.07699201 0.09785376 -0.25426823
v 0.07484443 0.10403813 -0.26729473
v 0.04420216 0.07866713 -0.17238417
v 0.04744972 0.07718892 -0.17238417
v 0.05876379 0.07025036 -0.17238417
v 0.08927511 0.09749176 -0.27572629
v 0.08275381 0.10684373 -0.29671589
v 0.03878083 -0.12734780 -0.40025875
v 0.04904730 -0.14158693 -0.35243541
v 0.06738029 -0.14170760 -0.30657500
v 0.06106851 -0.14870650 -0.27458867
v 0.06195896 -0.13751429 -0.34605601
v 0.06567794 -0.13739362 -0.33804828
v 0.07489681 -0.13283831 -0.33028591
v 0.08487520 -0.12979138 -0.30563816
v 0.06724934 -0.14478470 -0.26974836
v 0.07306352 -0.13950536 -0.26515341
v 0.06195896 -0.13522156 -0.17238417
v 0.09590118 0.09625489 -0.29328084
v 0.09548214 0.09809511 -0.30822560
v 0.09490596 0.09987500 -0.32234511
v 0.09178935 0.10216774 -0.33626384
v 0.06408035 0.11655772 -0.40025875
v 0.09391074 0.08473083 -0.25692260
v 0.10263200 0.07993418 -0.26225367
v 0.07175402 0.05896766 -0.17238417
v 0.10493672 0.08527385 -0.28337711
v 0.04391407 -0.12547740 -0.40025875
v 0.06057090 -0.11817683 -0.40025875
v 0.06271847 -0.11718129 -0.40025875
v 0.07384922 -0.13003272 -0.34326780
v 0.07256591 -0.11096676 -0.40025875
v 0.09013938 -0.11820699 -0.33537161
v 0.09006082 -0.12571874 -0.30325145
v 0.08568709 -0.12312432 -0.24813418
v 0.06400178 -0.13323048 -0.17238417
v 0.10582718 0.08883364 -0.30088705
v 0.10247486 0.09236325 -0.34663597
v 0.06544223 0.11526051 -0.40025875
v 0.07272305 0.05794196 -0.17238417
v 0.08165383 0.04822797 -0.17238417
v 0.08843704 0.04065589 -0.17238417
v 0.11114375 0.07172858 -0.26856616
v 0.11318657 0.07966267 -0.29564524
v 0.07830151 -0.10650194 -0.40025875
v 0.08309428 -0.10191646 -0.40025875
v 0.10352246 -0.09808517 -0.34438309
v 0.10732001 -0.09896003 -0.32044911
v 0.10941521 -0.09555108 -0.28288639
v 0.10352246 -0.10426953 -0.27095285
v 0.09061080 -0.11787515 -0.25263992
v 0.08458710 -0.10867401 -0.17238417
v 0.07505395 -0.12028857 -0.17238417
v 0.11522938 0.07848613 -0.31094691
v 0.10965092 0.08406715 -0.34119338
v 0.11564843 0.07284478 -0.34900036
v 0.10370579 0.08663140 -0.35622740
v 0.07057547 0.10928731 -0.40025875
v 0.09349170 0.03178660 -0.17238417
v 0.11866027 0.05628274 -0.26316819
v 0.12402922 0.05561905 -0.27826911
v 0.12010072 0.06985818 -0.29923645
v 0.08880369 -0.09413321 -0.40025875
v 0.09139650 -0.09054326 -0.40025875
v 0.09467025 -0.08556559 -0.40025875
v 0.10925807 -0.08559576 -0.34917879
v 0.11866027 -0.07524825 -0.31732631
v 0.12442207 -0.06541359 -0.29178634
v 0.11881741 -0.07678680 -0.29388309
v 0.11433893 -0.08306167 -0.26727244
v 0.11025329 -0.09174996 -0.27128744
v 0.10451768 -0.07702814 -0.17238417
v 0.09967253 -0.08583710 -0.17238417
v 0.09435597 -0.09549075 -0.17238417
v 0.12468397 0.06424700 -0.31944537
v 0.11470558 0.07552970 -0.34355778
v 0.12154117 0.06448834 -0.34342393
v 0.11522938 0.06967717 -0.35763264
v 0.09684402 0.06856097 -0.40025875
v 0.10449149 0.00952287 -0.17238417
v 0.12683155 0.04068606 -0.26780778
v 0.13437426 0.03474303 -0.28652221
v 0.13157193 0.04819780 -0.29792041
v 0.12641251 0.05875649 -0.30342990
v 0.09948920 -0.07708848 -0.40025875
v 0.12295543 -0.03322470 -0.40025875
v 0.12664822 -0.03572862 -0.37509799
v 0.12620299 -0.03919790 -0.36867395
v 0.12869103 -0.04773535 -0.32580248
v 0.12845533 -0.05265268 -0.30606195
v 0.11884360 -0.06737449 -0.24244624
v 0.13495044 -0.03515543 -0.31007698
v 0.12945054 -0.05014876 -0.28948885
v 0.13251477 -0.03928840 -0.27826911
v 0.10886522 -0.06722365 -0.17238417
v 0.13437426 0.04240561 -0.30938551
v 0.13180764 0.04771512 -0.33340871
v 0.12279829 0.05275312 -0.36039853
v 0.10891760 0.04777545 -0.40025875
v 0.10352246 0.05745927 -0.40025875
v 0.10962473 -0.00755203 -0.17238417
v 0.12913626 0.01247930 -0.25065473
v 0.13301238 0.02355083 -0.27313882
v 0.13576233 0.01386701 -0.27641776
v 0.13743849 0.01745696 -0.28609839
v 0.14010987 0.01625025 -0.30189082
v 0.13717659 0.03320448 -0.30686498
v 0.12248401 -0.02863922 -0.40025875
v 0.13969083 0.01039773 -0.34005579
v 0.13866942 -0.01201684 -0.33193654
v 0.13825038 -0.01874423 -0.32433030
v 0.11302943 -0.05452307 -0.17238417
v 0.13811943 -0.02118781 -0.30044094
v 0.13581471 -0.03117330 -0.29700586
v 0.13717659 -0.01723585 -0.28391245
v 0.13450521 -0.02342021 -0.26916841
v 0.13557900 0.03715644 -0.32093984
v 0.13618137 0.03302347 -0.33309641
v 0.13243620 0.02831732 -0.35410833
v 0.11122232 0.03972069 -0.40025875
v 0.11360560 -0.02260569 -0.17238417
v 0.13819800 0.00644577 -0.28192726
v 0.14018844 -0.00245369 -0.29649284
v 0.14123604 0.00551057 -0.31703636
v 0.11334371 0.02907151 -0.40025875
v 0.13974321 -0.01056879 -0.31712556
v 0.11376274 -0.04891188 -0.17238417
v 0.13437426 -0.00957326 -0.26091531
v 0.11418179 -0.03153531 -0.17238417
v 0.11410321 -0.04495993 -0.17238417
v 0.11423416 -0.03370739 -0.17238417
f 1 2 3
f 1 3 4
f 1 4 14
f 1 14 31
f 1 31 51
f 1 51 71
f 1 71 72
f 1 72 91
f 1 91 90
f 1 90 107
f 1 107 140
f 1 140 175
f 1 175 174
f 1 174 173
f 1 173 172
f 1 172 171
f 1 171 170
f 1 170 169
f 1 169 203
f 1 203 221
f 1 221 238
f 1 238 237
f 1 237 259
f 1 259 258
f 1 258 257
f 1 257 280
f 1 280 297
f 1 297 312
f 1 312 315
f 1 315 316
f 1 316 314
f 1 314 306
f 1 306 286
f 1 286 265
f 1 265 244
f 1 244 227
f 1 227 226
f 1 226 225
f 1 225 211
f 1 211 190
f 1 190 189
f 1 189 188
f 1 188 183
f 1 183 182
f 1 182 181
f 1 181 150
f 1 150 145
f 1 145 144
f 1 144 143
f 1 143 142
f 1 142 109
f 1 109 94
f 1 94 76
f 1 76 78
f 1 78 63
f 1 63 62
f 1 62 61
f 1 61 60
f 1 60 59
f 1 59 54
f 1 54 39
f 1 39 38
f 1 38 37
f 1 37 36
f 1 36 16
f 1 16 5
f 1 5 6
f 1 6 7
f 1 7 8
f 1 8 9
f 1 9 10
f 1 10 2
f 2 10 11
f 2 11 3
f 3 12 13
f 3 13 14
f 3 14 4
f 3 11 15
f 3 15 12
f 5 16 17
f 5 17 18
f 5 18 6
f 6 17 19
f 6 19 20
f 6 20 21
f 6 21 22
f 6 22 7
f 6 18 17
f 7 22 23
f 7 23 9
f 7 9 8
f 9 23 24
f 9 24 25
f 9 25 26
f 9 26 11
f 9 11 10
f 11 26 27
f 11 27 15
f 12 15 13
f 13 28 14
f 13 15 29
f 13 29 30
f 13 30 28
f 14 28 31
f 15 32 33
f 15 33 34
f 15 34 29
f 15 27 35
f 15 35 32
f 16 36 17
f 17 36 37
f 17 37 38
f 17 38 39
f 17 39 40
f 17 40 41
f 17 41 42
f 17 42 43
f 17 43 19
f 19 43 20
f 20 43 44
f 20 44 68
f 20 68 67
f 20 67 66
f 20 66 86
f 20 86 85
f 20 85 84
f 20 84 83
f 20 83 100
f 20 100 119
f 20 119 118
f 20 118 117
f 20 117 116
f 20 116 115
f 20 115 149
f 20 149 148
f 20 148 180
f 20 180 208
f 20 208 224
f 20 224 243
f 20 243 264
f 20 264 285
f 20 285 284
f 20 284 305
f 20 305 310
f 20 310 293
f 20 293 271
f 20 271 270
f 20 270 250
f 20 250 249
f 20 249 248
f 20 248 231
f 20 231 230
f 20 230 217
f 20 217 215
f 20 215 214
f 20 214 213
f 20 213 193
f 20 193 161
f 20 161 160
f 20 160 159
f 20 159 176
f 20 176 158
f 20 158 157
f 20 157 141
f 20 141 108
f 20 108 93
f 20 93 74
f 20 74 53
f 20 53 33
f 20 33 32
f 20 32 35
f 20 35 46
f 20 46 45
f 20 45 23
f 20 23 21
f 21 23 22
f 23 45 25
f 23 25 24
f 25 45 46
f 25 46 26
f 26 46 27
f 27 46 35
f 28 47 48
f 28 48 31
f 28 30 47
f 29 34 30
f 30 34 49
f 30 49 50
f 30 50 47
f 31 48 51
f 33 52 34
f 33 53 52
f 34 52 49
f 39 54 40
f 40 55 56
f 40 56 57
f 40 57 58
f 40 58 42
f 40 42 41
f 40 54 59
f 40 59 60
f 40 60 61
f 40 61 62
f 40 62 63
f 40 63 55
f 42 58 57
f 42 57 64
f 42 64 65
f 42 65 66
f 42 66 67
f 42 67 43
f 43 67 68
f 43 68 44
f 47 50 69
f 47 69 70
f 47 70 48
f 48 71 51
f 48 70 72
f 48 72 71
f 49 52 53
f 49 53 50
f 50 73 69
f 50 53 73
f 53 74 73
f 55 75 56
f 55 63 75
f 56 75 57
f 57 75 76
f 57 76 77
f 57 77 64
f 63 78 75
f 64 79 80
f 64 80 65
f 64 77 81
f 64 81 79
f 65 80 82
f 65 82 83
f 65 83 84
f 65 84 85
f 65 85 86
f 65 86 66
f 69 73 87
f 69 87 70
f 70 88 89
f 70 89 90
f 70 90 91
f 70 91 72
f 70 87 92
f 70 92 88
f 73 74 87
f 74 93 87
f 75 78 76
f 76 94 81
f 76 81 77
f 79 95 80
f 79 81 94
f 79 94 95
f 80 96 97
f 80 97 82
f 80 95 98
f 80 98 96
f 82 99 83
f 82 97 99
f 83 99 100
f 87 93 88
f 87 88 92
f 88 101 102
f 88 102 89
f 88 93 101
f 89 102 103
f 89 103 104
f 89 104 105
f 89 105 106
f 89 106 107
f 89 107 90
f 93 108 101
f 94 109 95
f 95 109 110
f 95 110 98
f 96 98 97
f 97 98 111
f 97 111 99
f 98 110 112
f 98 112 113
f 98 113 114
f 98 114 111
f 99 111 115
f 99 115 116
f 99 116 117
f 99 117 118
f 99 118 119
f 99 119 100
f 101 120 121
f 101 121 102
f 101 108 120
f 102 121 103
f 103 121 122
f 103 122 123
f 103 123 124
f 103 124 104
f 104 124 125
f 104 125 105
f 105 126 127
f 105 127 128
f 105 128 129
f 105 129 130
f 105 130 131
f 105 131 132
f 105 132 133
f 105 133 134
f 105 134 135
f 105 135 136
f 105 136 106
f 105 125 137
f 105 137 138
f 105 138 139
f 105 139 126
f 106 136 140
f 106 140 107
f 108 141 120
f 109 142 110
f 110 142 143
f 110 143 144
f 110 144 145
f 110 145 112
f 111 114 113
f 111 113 146
f 111 146 147
f 111 147 148
f 111 148 149
f 111 149 115
f 112 145 150
f 112 150 151
f 112 151 113
f 113 152 146
f 113 151 153
f 113 153 154
f 113 154 155
f 113 155 156
f 113 156 152
f 120 122 121
f 120 141 157
f 120 157 122
f 122 157 158
f 122 158 138
f 122 138 123
f 123 138 137
f 123 137 124
f 124 137 125
f 126 139 159
f 126 159 160
f 126 160 161
f 126 161 127
f 127 161 162
f 127 162 163
f 127 163 128
f 128 163 129
f 129 163 164
f 129 164 130
f 130 132 131
f 130 164 165
f 130 165 166
f 130 166 167
f 130 167 132
f 132 167 166
f 132 166 168
f 132 168 169
f 132 169 170
f 132 170 171
f 132 171 133
f 133 171 172
f 133 172 134
f 134 172 135
f 135 172 173
f 135 173 174
f 135 174 136
f 136 174 175
f 136 175 140
f 138 158 176
f 138 176 159
f 138 159 139
f 146 152 177
f 146 177 178
f 146 178 147
f 147 178 148
f 148 177 179
f 148 179 180
f 148 178 177
f 150 181 151
f 151 181 182
f 151 182 183
f 151 183 184
f 151 184 153
f 152 156 185
f 152 185 177
f 153 184 154
f 154 186 187
f 154 187 155
f 154 184 183
f 154 183 188
f 154 188 189
f 154 189 190
f 154 190 186
f 155 187 191
f 155 191 192
f 155 192 156
f 156 192 185
f 161 193 162
f 162 193 163
f 163 193 194
f 163 194 165
f 163 165 164
f 165 195 196
f 165 196 166
f 165 194 197
f 165 197 198
f 165 198 199
f 165 199 200
f 165 200 195
f 166 196 168
f 168 196 201
f 168 201 202
f 168 202 203
f 168 203 169
f 177 185 179
f 179 185 192
f 179 192 204
f 179 204 205
f 179 205 206
f 179 206 207
f 179 207 208
f 179 208 180
f 186 209 210
f 186 210 191
f 186 191 187
f 186 190 209
f 190 211 209
f 191 212 204
f 191 204 192
f 191 210 212
f 193 213 194
f 194 213 214
f 194 214 215
f 194 215 197
f 195 200 196
f 196 200 201
f 197 216 198
f 197 215 217
f 197 217 216
f 198 216 199
f 199 216 218
f 199 218 200
f 200 218 219
f 200 219 201
f 201 219 202
f 202 219 220
f 202 220 221
f 202 221 203
f 204 212 222
f 204 222 205
f 205 222 206
f 206 223 207
f 206 222 223
f 207 223 208
f 208 223 224
f 209 211 210
f 210 211 225
f 210 225 226
f 210 226 227
f 210 227 228
f 210 228 212
f 212 228 229
f 212 229 222
f 216 217 230
f 216 230 218
f 218 230 231
f 218 231 232
f 218 232 233
f 218 233 219
f 219 233 234
f 219 234 235
f 219 235 236
f 219 236 220
f 220 236 237
f 220 237 238
f 220 238 221
f 222 239 223
f 222 229 239
f 223 239 240
f 223 240 241
f 223 241 242
f 223 242 243
f 223 243 224
f 227 244 245
f 227 245 228
f 228 245 246
f 228 246 229
f 229 246 247
f 229 247 239
f 231 248 232
f 232 248 249
f 232 249 250
f 232 250 251
f 232 251 233
f 233 251 252
f 233 252 253
f 233 253 254
f 233 254 234
f 234 254 253
f 234 253 255
f 234 255 256
f 234 256 235
f 235 256 257
f 235 257 258
f 235 258 259
f 235 259 236
f 236 259 237
f 239 247 260
f 239 260 240
f 240 260 261
f 240 261 241
f 241 261 262
f 241 262 263
f 241 263 242
f 242 263 243
f 243 263 264
f 244 265 245
f 245 265 266
f 245 266 246
f 246 266 267
f 246 267 268
f 246 268 247
f 247 268 269
f 247 269 260
f 250 270 251
f 251 270 271
f 251 271 272
f 251 272 273
f 251 273 252
f 252 273 274
f 252 274 275
f 252 275 253
f 253 276 255
f 253 275 277
f 253 277 278
f 253 278 279
f 253 279 276
f 255 276 257
f 255 257 256
f 257 276 280
f 260 269 268
f 260 268 281
f 260 281 282
f 260 282 262
f 260 262 261
f 262 282 283
f 262 283 263
f 263 283 284
f 263 284 285
f 263 285 264
f 265 286 266
f 266 286 287
f 266 287 267
f 267 287 288
f 267 288 289
f 267 289 290
f 267 290 291
f 267 291 292
f 267 292 268
f 268 292 281
f 271 293 294
f 271 294 295
f 271 295 272
f 272 277 274
f 272 274 273
f 272 295 296
f 272 296 277
f 274 277 275
f 276 279 297
f 276 297 280
f 277 296 298
f 277 298 299
f 277 299 278
f 278 299 279
f 279 299 298
f 279 298 300
f 279 300 301
f 279 301 297
f 281 292 302
f 281 302 282
f 282 302 303
f 282 303 304
f 282 304 283
f 283 304 284
f 284 304 305
f 286 306 287
f 287 289 288
f 287 306 289
f 289 306 307
f 289 307 290
f 290 307 291
f 291 307 308
f 291 308 309
f 291 309 294
f 291 294 292
f 292 294 303
f 292 303 302
f 293 310 304
f 293 304 294
f 294 304 303
f 294 309 295
f 295 309 311
f 295 311 296
f 296 311 298
f 297 301 312
f 298 311 308
f 298 308 300
f 300 308 313
f 300 313 301
f 301 313 312
f 304 310 305
f 306 314 313
f 306 313 307
f 307 313 308
f 308 311 309
f 312 313 315
f 313 314 316
f 313 316 315

