# https://github.com/mikedh/trimesh
v 0.09931167 0.11032356 0.19738138
v 0.08970346 0.11020979 0.19738138
v 0.10631340 0.10543080 0.19738138
v 0.08351944 0.06690316 0.07714719
v 0.07889421 0.06988433 0.07714719
v 0.06213094 0.07794032 0.07714719
v 0.05860452 0.07914644 0.07714719
v 0.05765903 0.07941952 0.07714719
v 0.04048690 0.08067116 0.07714719
v -0.00668536 0.08146765 0.07714719
v -0.01583361 0.08108079 0.07714719
v -0.02109768 0.09202692 0.16196437
v -0.02804831 0.09216346 0.17065090
v -0.03379790 0.09091182 0.19738138
v 0.08893684 0.06196488 0.07714719
v 0.11277851 0.09789823 0.19738138
v -0.03665993 0.07773550 0.07714719
v -0.03704323 0.08991051 0.16384763
v -0.07608939 0.07839546 0.19738138
v 0.09708849 0.05163319 0.07714719
v 0.12126236 0.07812237 0.19738138
v 0.10278698 0.04007262 0.07714719
v 0.10018050 0.04555706 0.07714719
v 0.09757401 0.05081394 0.07714719
v -0.04179623 0.07611975 0.07714719
v -0.06637896 0.06765414 0.07714719
v -0.07054422 0.07951055 0.17301673
v -0.07918140 0.07718933 0.19738138
v 0.12422659 0.07015741 0.19738138
v 0.10559790 0.03349584 0.07714719
v -0.07189857 0.06556049 0.07714719
v -0.09574024 0.06501433 0.16770831
v -0.08493099 0.07409438 0.19738138
v 0.13232714 0.04191594 0.19738138
v 0.13672239 0.01840793 0.18109119
v 0.10779552 0.02400616 0.07714719
v -0.07447950 0.06376269 0.07714719
v -0.08766524 0.07227381 0.19738138
v -0.08196675 0.05707212 0.07714719
v -0.11508444 0.04808309 0.18131483
v 0.13715680 0.01579087 0.19738138
v 0.13618575 0.01485783 0.17645368
v 0.11012091 0.01290073 0.07714719
v 0.13738678 0.01310554 0.19738138
v -0.11350010 0.04865202 0.19738138
v -0.09540804 0.04291725 0.07714719
v -0.11488000 0.04726384 0.19738138
v -0.09768232 0.03973126 0.07714719
v -0.10062101 0.03515710 0.07714719
v -0.10361079 0.02955887 0.07714719
v -0.11160912 0.01048848 0.07714719
v -0.11406229 0.00411651 0.07714719
v -0.12065516 -0.01388430 0.07714719
v -0.12310831 0.02509849 0.19738138
v 0.11078531 0.00209114 0.07714719
v 0.11078531 0.00222768 0.07714719
v 0.11896252 -0.02831225 0.16296485
v 0.10472907 -0.03839362 0.07714719
v 0.10608342 -0.03406978 0.07714719
v 0.10851102 -0.02355604 0.07714719
v 0.10940541 -0.01634206 0.07714719
v 0.13475475 0.00677908 0.19738138
v -0.12241837 -0.02034729 0.07714719
v -0.12259725 -0.02105276 0.07714719
v -0.12310831 -0.02785711 0.07714719
v -0.12356828 -0.03716474 0.07714719
v -0.12349163 0.01392479 0.19738138
v 0.13337484 0.00354759 0.19738138
v 0.11730152 -0.03195338 0.19738138
v 0.11262518 -0.03916736 0.14838138
v 0.09512085 -0.05193405 0.07714719
v -0.12367050 -0.02021075 0.19738138
v -0.12308277 -0.04205750 0.07714719
v 0.09765068 -0.06149200 0.19738138
v 0.04994179 -0.09767568 0.11535376
v 0.08558930 -0.06071826 0.07714719
v -0.12175398 -0.04767849 0.11756659
v -0.11817645 -0.04961283 0.19738138
v -0.12259725 -0.04467456 0.07714719
v 0.07271020 -0.08044861 0.19738138
v 0.07194359 -0.08106305 0.18177387
v 0.07171360 -0.08119959 0.19738138
v 0.02571682 -0.11080649 0.19738138
v 0.02535907 -0.11103405 0.19738138
v 0.04209679 -0.10199951 0.12067397
v 0.02298257 -0.10898592 0.07714719
v 0.03749711 -0.10031550 0.07714719
v 0.05975444 -0.08356632 0.07714719
v -0.12011853 -0.05373186 0.07714719
v -0.12045072 -0.05245746 0.10354810
v -0.11641324 -0.06501934 0.15002923
v -0.11769092 -0.05989901 0.16077557
v -0.11559551 -0.06322154 0.19738138
v 0.02510353 -0.11112508 0.19738138
v 0.01983945 -0.11021480 0.07714719
v -0.11618325 -0.06513312 0.13756442
v -0.11117471 -0.07193748 0.07714719
v -0.11342344 -0.07139131 0.14607440
v -0.11396007 -0.06925215 0.17532372
v -0.11518665 -0.06490555 0.19738138
v 0.00545268 -0.11756532 0.19738138
v 0.00412389 -0.11738326 0.16142294
v -0.00400221 -0.11656401 0.07714719
v -0.10591064 -0.08199608 0.07714719
v -0.10511847 -0.08329324 0.07714719
v -0.10989702 -0.07519174 0.19738138
v -0.11204354 -0.07211953 0.19738138
v -0.01887450 -0.12195743 0.19738138
v -0.00060356 -0.11845285 0.17100400
v -0.00803971 -0.11754256 0.07714719
v -0.10391744 -0.08463590 0.07714719
v -0.09893446 -0.09012035 0.11021012
v -0.10220534 -0.08636543 0.11924975
v -0.09221382 -0.09319254 0.19738138
v -0.03252022 -0.12216224 0.19738138
v -0.03798872 -0.12191191 0.17841932
v -0.01933447 -0.11836182 0.07714719
v -0.08084239 -0.10218157 0.07714719
v -0.08148123 -0.10309185 0.10177077
v -0.09024618 -0.09580960 0.17869005
v -0.08965844 -0.09578685 0.19738138
v -0.03688991 -0.12184364 0.19738138
v -0.04074853 -0.12077406 0.19738138
v -0.05061228 -0.11747430 0.19738138
v -0.06538236 -0.11135265 0.07714719
v -0.04851687 -0.11585855 0.07714719
v -0.04537376 -0.11660953 0.07714719
v -0.03665993 -0.11770187 0.07714719
v -0.07476059 -0.10636886 0.07714719
v -0.06543346 -0.11132990 0.09357861
v -0.08206897 -0.10099821 0.19738138
v -0.08306557 -0.10097545 0.16857931
f 1 2 14
f 1 14 19
f 1 19 28
f 1 28 33
f 1 33 38
f 1 38 45
f 1 45 47
f 1 47 54
f 1 54 67
f 1 67 72
f 1 72 78
f 1 78 93
f 1 93 100
f 1 100 107
f 1 107 106
f 1 106 114
f 1 114 121
f 1 121 131
f 1 131 124
f 1 124 123
f 1 123 122
f 1 122 115
f 1 115 108
f 1 108 101
f 1 101 94
f 1 94 84
f 1 84 83
f 1 83 82
f 1 82 80
f 1 80 74
f 1 74 69
f 1 69 68
f 1 68 62
f 1 62 44
f 1 44 41
f 1 41 34
f 1 34 29
f 1 29 21
f 1 21 16
f 1 16 3
f 1 3 4
f 1 4 5
f 1 5 6
f 1 6 7
f 1 7 8
f 1 8 9
f 1 9 10
f 1 10 2
f 2 10 11
f 2 11 12
f 2 12 13
f 2 13 14
f 3 15 4
f 3 16 15
f 4 15 20
f 4 20 24
f 4 24 23
f 4 23 22
f 4 22 30
f 4 30 36
f 4 36 43
f 4 43 56
f 4 56 55
f 4 55 61
f 4 61 60
f 4 60 59
f 4 59 58
f 4 58 71
f 4 71 76
f 4 76 88
f 4 88 87
f 4 87 86
f 4 86 95
f 4 95 103
f 4 103 110
f 4 110 117
f 4 117 128
f 4 128 127
f 4 127 126
f 4 126 125
f 4 125 129
f 4 129 118
f 4 118 111
f 4 111 105
f 4 105 104
f 4 104 97
f 4 97 89
f 4 89 79
f 4 79 73
f 4 73 66
f 4 66 65
f 4 65 64
f 4 64 63
f 4 63 53
f 4 53 52
f 4 52 51
f 4 51 50
f 4 50 49
f 4 49 48
f 4 48 46
f 4 46 39
f 4 39 37
f 4 37 31
f 4 31 26
f 4 26 25
f 4 25 17
f 4 17 11
f 4 11 10
f 4 10 9
f 4 9 8
f 4 8 7
f 4 7 6
f 4 6 5
f 11 17 18
f 11 18 12
f 12 18 13
f 13 18 14
f 14 18 19
f 15 16 20
f 16 21 22
f 16 22 23
f 16 23 24
f 16 24 20
f 17 25 18
f 18 25 26
f 18 26 27
f 18 27 19
f 19 27 28
f 21 29 30
f 21 30 22
f 26 31 27
f 27 31 32
f 27 32 33
f 27 33 28
f 29 34 35
f 29 35 30
f 30 35 36
f 31 37 32
f 32 38 33
f 32 37 39
f 32 39 40
f 32 40 38
f 34 41 35
f 35 42 43
f 35 43 36
f 35 41 44
f 35 44 42
f 38 40 45
f 39 46 40
f 40 47 45
f 40 46 48
f 40 48 49
f 40 49 50
f 40 50 51
f 40 51 52
f 40 52 53
f 40 53 54
f 40 54 47
f 42 55 56
f 42 56 43
f 42 44 57
f 42 57 58
f 42 58 59
f 42 59 60
f 42 60 61
f 42 61 55
f 44 62 57
f 53 63 54
f 54 63 64
f 54 64 65
f 54 65 66
f 54 66 67
f 57 68 69
f 57 69 70
f 57 70 58
f 57 62 68
f 58 70 71
f 66 72 67
f 66 73 72
f 69 74 70
f 70 74 71
f 71 74 75
f 71 75 76
f 72 73 77
f 72 77 78
f 73 79 77
f 74 80 81
f 74 81 75
f 75 81 82
f 75 82 83
f 75 83 84
f 75 84 85
f 75 85 86
f 75 86 87
f 75 87 88
f 75 88 76
f 77 89 90
f 77 90 91
f 77 91 92
f 77 92 93
f 77 93 78
f 77 79 89
f 80 82 81
f 84 94 95
f 84 95 86
f 84 86 85
f 89 96 91
f 89 91 90
f 89 97 98
f 89 98 96
f 91 98 99
f 91 99 100
f 91 100 92
f 91 96 98
f 92 100 93
f 94 101 102
f 94 102 95
f 95 102 103
f 97 104 98
f 98 104 105
f 98 105 106
f 98 106 107
f 98 107 99
f 99 107 100
f 101 108 109
f 101 109 102
f 102 109 110
f 102 110 103
f 105 111 112
f 105 112 113
f 105 113 106
f 106 113 112
f 106 112 114
f 108 115 116
f 108 116 117
f 108 117 110
f 108 110 109
f 111 118 119
f 111 119 112
f 112 119 120
f 112 120 121
f 112 121 114
f 115 122 116
f 116 122 123
f 116 123 124
f 116 124 125
f 116 125 126
f 116 126 127
f 116 127 128
f 116 128 117
f 118 129 119
f 119 130 124
f 119 124 131
f 119 131 132
f 119 132 120
f 119 129 125
f 119 125 130
f 120 132 121
f 121 132 131
f 124 130 125

