# Blender 4.0.1
# www.blender.org
mtllib Bullet.mtl
o Bullet
v 0.003752 0.003763 -0.010436
v 0.003569 0.004923 -0.010436
v 0.003036 0.005969 -0.010436
v 0.002205 0.006799 -0.010436
v 0.001159 0.007332 -0.010436
v -0.000000 0.007515 -0.010436
v -0.001159 0.007332 -0.010436
v -0.002205 0.006799 -0.010436
v -0.003036 0.005969 -0.010436
v -0.003569 0.004923 -0.010436
v -0.003752 0.003763 -0.010436
v -0.003569 0.002604 -0.010436
v -0.003036 0.001558 -0.010436
v -0.002205 0.000728 -0.010436
v -0.001159 0.000195 -0.010436
v -0.000000 0.000011 -0.010436
v 0.001159 0.000195 -0.010436
v 0.002205 0.000728 -0.010436
v 0.003036 0.001558 -0.010436
v 0.003569 0.002604 -0.010436
v 0.003752 0.003763 -0.009863
v 0.003569 0.004923 -0.009863
v 0.003036 0.005969 -0.009863
v 0.002205 0.006799 -0.009863
v 0.001159 0.007332 -0.009863
v -0.000000 0.007515 -0.009863
v -0.001159 0.007332 -0.009863
v -0.002205 0.006799 -0.009863
v -0.003036 0.005969 -0.009863
v -0.003569 0.004923 -0.009863
v -0.003752 0.003763 -0.009863
v -0.003569 0.002604 -0.009863
v -0.003036 0.001558 -0.009863
v -0.002205 0.000728 -0.009863
v -0.001159 0.000195 -0.009863
v -0.000000 0.000011 -0.009863
v 0.001159 0.000195 -0.009863
v 0.002205 0.000728 -0.009863
v 0.003036 0.001558 -0.009863
v 0.003569 0.002604 -0.009863
v 0.003380 0.003763 -0.009899
v 0.003215 0.004808 -0.009899
v 0.002734 0.005750 -0.009899
v 0.001987 0.006498 -0.009899
v 0.001044 0.006978 -0.009899
v -0.000000 0.007143 -0.009899
v -0.001044 0.006978 -0.009899
v -0.001987 0.006498 -0.009899
v -0.002734 0.005750 -0.009899
v -0.003215 0.004808 -0.009899
v -0.003380 0.003763 -0.009899
v -0.003215 0.002719 -0.009899
v -0.002734 0.001777 -0.009899
v -0.001987 0.001029 -0.009899
v -0.001044 0.000549 -0.009899
v -0.000000 0.000383 -0.009899
v 0.001044 0.000549 -0.009899
v 0.001987 0.001029 -0.009899
v 0.002734 0.001777 -0.009899
v 0.003215 0.002719 -0.009899
v 0.003419 0.003763 -0.009258
v 0.003252 0.004820 -0.009258
v 0.002766 0.005773 -0.009258
v 0.002010 0.006530 -0.009258
v 0.001057 0.007015 -0.009258
v -0.000000 0.007183 -0.009258
v -0.001057 0.007015 -0.009258
v -0.002010 0.006530 -0.009258
v -0.002766 0.005773 -0.009258
v -0.003252 0.004820 -0.009258
v -0.003419 0.003763 -0.009258
v -0.003252 0.002707 -0.009258
v -0.002766 0.001753 -0.009258
v -0.002010 0.000997 -0.009258
v -0.001057 0.000511 -0.009258
v -0.000000 0.000344 -0.009258
v 0.001057 0.000511 -0.009258
v 0.002010 0.000997 -0.009258
v 0.002766 0.001753 -0.009258
v 0.003252 0.002707 -0.009258
v 0.003725 0.003763 -0.008779
v 0.003543 0.004914 -0.008779
v 0.003013 0.005953 -0.008779
v 0.002189 0.006777 -0.008779
v 0.001151 0.007306 -0.008779
v -0.000000 0.007488 -0.008779
v -0.001151 0.007306 -0.008779
v -0.002189 0.006777 -0.008779
v -0.003014 0.005953 -0.008779
v -0.003543 0.004914 -0.008779
v -0.003725 0.003763 -0.008779
v -0.003543 0.002612 -0.008779
v -0.003014 0.001574 -0.008779
v -0.002189 0.000750 -0.008779
v -0.001151 0.000221 -0.008779
v -0.000000 0.000038 -0.008779
v 0.001151 0.000221 -0.008779
v 0.002189 0.000750 -0.008779
v 0.003013 0.001574 -0.008779
v 0.003543 0.002612 -0.008779
v 0.003725 0.003763 0.006254
v 0.003543 0.004914 0.006254
v 0.003013 0.005953 0.006254
v 0.002189 0.006777 0.006254
v 0.001151 0.007306 0.006254
v 0.000000 0.007488 0.006254
v -0.001151 0.007306 0.006254
v -0.002189 0.006777 0.006254
v -0.003013 0.005953 0.006254
v -0.003543 0.004914 0.006254
v -0.003725 0.003763 0.006254
v -0.003543 0.002612 0.006254
v -0.003013 0.001574 0.006254
v -0.002189 0.000750 0.006254
v -0.001151 0.000221 0.006254
v 0.000000 0.000038 0.006254
v 0.001151 0.000221 0.006254
v 0.002189 0.000750 0.006254
v 0.003013 0.001574 0.006254
v 0.003543 0.002612 0.006254
v 0.003405 0.003763 0.006254
v 0.003238 0.004815 0.006254
v 0.002755 0.005765 0.006254
v 0.002001 0.006518 0.006254
v 0.001052 0.007001 0.006254
v 0.000000 0.007168 0.006254
v -0.001052 0.007001 0.006254
v -0.002001 0.006518 0.006254
v -0.002755 0.005765 0.006254
v -0.003238 0.004815 0.006254
v -0.003405 0.003763 0.006254
v -0.003238 0.002711 0.006254
v -0.002755 0.001762 0.006254
v -0.002001 0.001009 0.006254
v -0.001052 0.000525 0.006254
v 0.000000 0.000358 0.006254
v 0.001052 0.000525 0.006254
v 0.002001 0.001009 0.006254
v 0.002755 0.001762 0.006254
v 0.003238 0.002711 0.006254
v 0.003405 0.003763 0.007668
v 0.003238 0.004815 0.007668
v 0.002755 0.005765 0.007668
v 0.002001 0.006518 0.007668
v 0.001052 0.007001 0.007668
v 0.000000 0.007168 0.007668
v -0.001052 0.007001 0.007668
v -0.002001 0.006518 0.007668
v -0.002755 0.005765 0.007668
v -0.003238 0.004815 0.007668
v -0.003405 0.003763 0.007668
v -0.003238 0.002711 0.007668
v -0.002755 0.001762 0.007668
v -0.002001 0.001009 0.007668
v -0.001052 0.000525 0.007668
v 0.000000 0.000358 0.007668
v 0.001052 0.000525 0.007668
v 0.002001 0.001009 0.007668
v 0.002755 0.001762 0.007668
v 0.003238 0.002711 0.007668
v 0.003191 0.003763 0.008944
v 0.003035 0.004749 0.008944
v 0.002582 0.005639 0.008944
v 0.001876 0.006345 0.008944
v 0.000986 0.006798 0.008944
v 0.000000 0.006954 0.008944
v -0.000986 0.006798 0.008944
v -0.001876 0.006345 0.008944
v -0.002582 0.005639 0.008944
v -0.003035 0.004749 0.008944
v -0.003191 0.003763 0.008944
v -0.003035 0.002777 0.008944
v -0.002582 0.001888 0.008944
v -0.001876 0.001182 0.008944
v -0.000986 0.000728 0.008944
v 0.000000 0.000572 0.008944
v 0.000986 0.000728 0.008944
v 0.001876 0.001182 0.008944
v 0.002582 0.001888 0.008944
v 0.003035 0.002777 0.008944
v 0.002715 0.003763 0.010126
v 0.002582 0.004602 0.010126
v 0.002196 0.005359 0.010126
v 0.001596 0.005959 0.010126
v 0.000839 0.006345 0.010126
v 0.000000 0.006478 0.010126
v -0.000839 0.006345 0.010126
v -0.001596 0.005959 0.010126
v -0.002196 0.005359 0.010126
v -0.002582 0.004602 0.010126
v -0.002715 0.003763 0.010126
v -0.002582 0.002924 0.010126
v -0.002196 0.002168 0.010126
v -0.001596 0.001567 0.010126
v -0.000839 0.001182 0.010126
v 0.000000 0.001049 0.010126
v 0.000839 0.001182 0.010126
v 0.001596 0.001567 0.010126
v 0.002196 0.002168 0.010126
v 0.002582 0.002924 0.010126
v 0.002055 0.003763 0.010940
v 0.001955 0.004398 0.010940
v 0.001663 0.004971 0.010940
v 0.001208 0.005426 0.010940
v 0.000635 0.005718 0.010940
v 0.000000 0.005819 0.010940
v -0.000635 0.005718 0.010940
v -0.001208 0.005426 0.010940
v -0.001663 0.004971 0.010940
v -0.001955 0.004398 0.010940
v -0.002055 0.003763 0.010940
v -0.001955 0.003128 0.010940
v -0.001663 0.002555 0.010940
v -0.001208 0.002100 0.010940
v -0.000635 0.001808 0.010940
v 0.000000 0.001708 0.010940
v 0.000635 0.001808 0.010940
v 0.001208 0.002100 0.010940
v 0.001663 0.002555 0.010940
v 0.001955 0.003128 0.010940
v 0.000963 0.003763 0.011553
v 0.000915 0.004061 0.011553
v 0.000779 0.004329 0.011553
v 0.000566 0.004542 0.011553
v 0.000297 0.004679 0.011553
v 0.000000 0.004726 0.011553
v -0.000297 0.004679 0.011553
v -0.000566 0.004542 0.011553
v -0.000779 0.004329 0.011553
v -0.000915 0.004061 0.011553
v -0.000963 0.003763 0.011553
v -0.000915 0.003466 0.011553
v -0.000779 0.003197 0.011553
v -0.000566 0.002985 0.011553
v -0.000297 0.002848 0.011553
v 0.000000 0.002801 0.011553
v 0.000297 0.002848 0.011553
v 0.000566 0.002985 0.011553
v 0.000779 0.003197 0.011553
v 0.000915 0.003466 0.011553
v 0.000000 0.003763 0.011794
vn -1.0000 -0.0000 -0.0000
vn -0.9511 -0.3090 -0.0000
vn 0.5878 0.8090 -0.0000
vn 0.3090 0.9511 -0.0000
vn 0.8090 -0.5878 -0.0000
vn 0.9511 -0.3090 -0.0000
vn -0.8090 -0.5878 -0.0000
vn -0.0000 1.0000 -0.0000
vn 1.0000 -0.0000 -0.0000
vn -0.5878 -0.8090 -0.0000
vn -0.3090 0.9511 -0.0000
vn -0.3090 -0.9511 -0.0000
vn -0.5878 0.8090 -0.0000
vn -0.0000 -1.0000 -0.0000
vn -0.8090 0.5878 -0.0000
vn 0.9511 0.3090 -0.0000
vn 0.3090 -0.9511 -0.0000
vn -0.9511 0.3090 -0.0000
vn 0.8090 0.5878 -0.0000
vn 0.5878 -0.8090 -0.0000
vn 0.0786 0.0571 0.9953
vn 0.0571 0.0786 0.9953
vn -0.0000 -0.0971 0.9953
vn 0.0300 -0.0924 0.9953
vn 0.0300 0.0924 0.9953
vn 0.0571 -0.0786 0.9953
vn -0.0000 0.0971 0.9953
vn 0.0786 -0.0571 0.9953
vn -0.0971 -0.0000 0.9953
vn -0.0923 -0.0300 0.9953
vn -0.0300 0.0924 0.9953
vn 0.0923 -0.0300 0.9953
vn -0.0786 -0.0571 0.9953
vn -0.0571 0.0786 0.9953
vn 0.0971 -0.0000 0.9953
vn -0.0571 -0.0786 0.9953
vn -0.0786 0.0571 0.9953
vn 0.0924 0.0300 0.9953
vn -0.0300 -0.0924 0.9953
vn -0.0924 0.0300 0.9953
vn -0.0000 -0.0000 -1.0000
vn -0.5867 -0.8075 -0.0612
vn -0.3084 -0.9493 -0.0612
vn -0.2931 -0.9020 -0.3169
vn -0.5575 -0.7673 -0.3169
vn -0.3084 0.9493 -0.0612
vn -0.5867 0.8075 -0.0612
vn -0.5575 0.7673 -0.3169
vn -0.2931 0.9020 -0.3169
vn -0.0000 -0.9981 -0.0612
vn -0.0000 -0.9485 -0.3169
vn -0.8075 0.5867 -0.0612
vn -0.7673 0.5575 -0.3169
vn 0.9981 -0.0000 -0.0612
vn 0.9493 0.3084 -0.0612
vn 0.9020 0.2931 -0.3169
vn 0.9485 -0.0000 -0.3169
vn 0.3084 -0.9493 -0.0612
vn 0.2931 -0.9020 -0.3169
vn -0.9493 0.3084 -0.0612
vn -0.9020 0.2931 -0.3169
vn 0.8075 0.5867 -0.0612
vn 0.7673 0.5575 -0.3169
vn 0.5867 -0.8075 -0.0612
vn 0.5575 -0.7673 -0.3169
vn -0.9981 -0.0000 -0.0612
vn -0.9485 -0.0000 -0.3169
vn 0.5867 0.8075 -0.0612
vn 0.5575 0.7673 -0.3169
vn 0.8075 -0.5867 -0.0612
vn 0.7673 -0.5575 -0.3169
vn -0.9493 -0.3084 -0.0612
vn -0.9020 -0.2931 -0.3169
vn 0.3084 0.9493 -0.0612
vn 0.2931 0.9020 -0.3169
vn 0.9493 -0.3084 -0.0612
vn 0.9020 -0.2931 -0.3169
vn -0.8075 -0.5867 -0.0612
vn -0.7673 -0.5575 -0.3169
vn -0.0000 0.9981 -0.0612
vn -0.0000 0.9485 -0.3169
vn 0.6821 0.4956 -0.5377
vn 0.8019 0.2606 -0.5377
vn 0.4956 -0.6821 -0.5377
vn 0.2606 -0.8019 -0.5377
vn -0.8432 -0.0000 -0.5377
vn -0.8019 0.2606 -0.5377
vn 0.4956 0.6821 -0.5377
vn 0.6821 -0.4956 -0.5377
vn -0.8019 -0.2606 -0.5377
vn 0.2606 0.8019 -0.5377
vn 0.8019 -0.2606 -0.5377
vn -0.6821 -0.4956 -0.5377
vn -0.0000 0.8432 -0.5377
vn 0.8432 -0.0000 -0.5377
vn -0.4956 -0.6821 -0.5377
vn -0.2606 0.8019 -0.5377
vn -0.2606 -0.8019 -0.5377
vn -0.4956 0.6821 -0.5377
vn -0.0000 -0.8432 -0.5377
vn -0.6821 0.4956 -0.5377
vn -0.0000 -0.0000 1.0000
vn -0.0000 -0.9966 0.0821
vn -0.3080 -0.9478 0.0821
vn -0.8063 0.5858 0.0821
vn -0.5858 0.8063 0.0821
vn 0.9478 0.3080 0.0821
vn 0.9966 -0.0000 0.0821
vn 0.3080 -0.9478 0.0821
vn -0.9478 0.3080 0.0821
vn 0.8063 0.5858 0.0821
vn 0.5858 -0.8063 0.0821
vn -0.9966 -0.0000 0.0821
vn 0.5858 0.8063 0.0821
vn 0.8063 -0.5858 0.0821
vn -0.9478 -0.3080 0.0821
vn 0.3080 0.9478 0.0821
vn 0.9478 -0.3080 0.0821
vn -0.8063 -0.5858 0.0821
vn -0.0000 0.9966 0.0821
vn -0.5858 -0.8063 0.0821
vn -0.3080 0.9478 0.0821
vn 0.9162 -0.2977 0.2684
vn 0.7793 -0.5662 0.2684
vn -0.7793 -0.5662 0.2684
vn -0.9162 -0.2977 0.2684
vn -0.0000 0.9633 0.2684
vn 0.2977 0.9162 0.2684
vn 0.9633 -0.0000 0.2684
vn -0.5662 -0.7793 0.2684
vn -0.2977 0.9162 0.2684
vn -0.2977 -0.9162 0.2684
vn -0.5662 0.7793 0.2684
vn -0.0000 -0.9633 0.2684
vn -0.7793 0.5662 0.2684
vn 0.9162 0.2977 0.2684
vn 0.2977 -0.9162 0.2684
vn -0.9162 0.2977 0.2684
vn 0.7793 0.5662 0.2684
vn 0.5662 -0.7793 0.2684
vn -0.9633 -0.0000 0.2684
vn 0.5662 0.7793 0.2684
vn 0.2675 -0.8232 0.5009
vn -0.0000 -0.8655 0.5009
vn -0.8232 0.2675 0.5009
vn -0.7002 0.5087 0.5009
vn 0.7002 0.5087 0.5009
vn 0.8232 0.2675 0.5009
vn 0.5087 -0.7002 0.5009
vn -0.8655 -0.0000 0.5009
vn 0.5087 0.7002 0.5009
vn 0.7002 -0.5087 0.5009
vn -0.8232 -0.2675 0.5009
vn 0.2675 0.8232 0.5009
vn 0.8232 -0.2675 0.5009
vn -0.7002 -0.5087 0.5009
vn -0.0000 0.8655 0.5009
vn 0.8655 -0.0000 0.5009
vn -0.5087 -0.7002 0.5009
vn -0.2675 0.8232 0.5009
vn -0.2675 -0.8232 0.5009
vn -0.5087 0.7002 0.5009
vn -0.3853 -0.5304 0.7551
vn -0.5304 -0.3853 0.7551
vn -0.2026 0.6235 0.7551
vn -0.0000 0.6556 0.7551
vn -0.2026 -0.6235 0.7551
vn -0.3853 0.5304 0.7551
vn -0.0000 -0.6556 0.7551
vn -0.5304 0.3853 0.7551
vn 0.6235 0.2026 0.7551
vn 0.6556 -0.0000 0.7551
vn 0.2026 -0.6235 0.7551
vn -0.6235 0.2026 0.7551
vn 0.5304 0.3853 0.7551
vn 0.3853 -0.5304 0.7551
vn -0.6556 -0.0000 0.7551
vn 0.3853 0.5304 0.7551
vn 0.5304 -0.3853 0.7551
vn -0.6235 -0.2026 0.7551
vn 0.2026 0.6235 0.7551
vn 0.6235 -0.2026 0.7551
vn 0.3805 -0.0000 0.9248
vn 0.3619 -0.1176 0.9248
vn -0.2237 -0.3079 0.9248
vn -0.3079 -0.2237 0.9248
vn -0.1176 0.3619 0.9248
vn -0.0000 0.3805 0.9248
vn -0.1176 -0.3619 0.9248
vn -0.2237 0.3079 0.9248
vn -0.0000 -0.3805 0.9248
vn -0.3079 0.2237 0.9248
vn 0.3619 0.1176 0.9248
vn 0.1176 -0.3619 0.9248
vn -0.3619 0.1176 0.9248
vn 0.3079 0.2237 0.9248
vn 0.2237 -0.3079 0.9248
vn -0.3805 -0.0000 0.9248
vn 0.2237 0.3079 0.9248
vn 0.3079 -0.2237 0.9248
vn -0.3619 -0.1176 0.9248
vn 0.1176 0.3619 0.9248
vt 0.293983 0.840470
vt 0.293983 0.835589
vt 0.296366 0.835589
vt 0.296366 0.840470
vt 0.293983 0.874635
vt 0.293983 0.869754
vt 0.296366 0.869754
vt 0.296366 0.874635
vt 0.293983 0.899038
vt 0.293983 0.894157
vt 0.296366 0.894157
vt 0.296366 0.899038
vt 0.293983 0.830709
vt 0.296366 0.830709
vt 0.293983 0.864873
vt 0.296366 0.864873
vt 0.293983 0.889276
vt 0.296366 0.889276
vt 0.293983 0.825828
vt 0.296366 0.825828
vt 0.293983 0.859993
vt 0.296366 0.859993
vt 0.293983 0.820947
vt 0.296366 0.820947
vt 0.293983 0.855112
vt 0.296366 0.855112
vt 0.293983 0.816067
vt 0.296366 0.816067
vt 0.293983 0.850231
vt 0.296366 0.850231
vt 0.293983 0.884396
vt 0.296366 0.884396
vt 0.293983 0.913680
vt 0.293983 0.908799
vt 0.296366 0.908799
vt 0.296366 0.913680
vt 0.293983 0.845351
vt 0.296366 0.845351
vt 0.293983 0.879515
vt 0.296366 0.879515
vt 0.293983 0.903918
vt 0.296366 0.903918
vt 0.890354 0.953759
vt 0.893270 0.957673
vt 0.891894 0.958396
vt 0.889267 0.954870
vt 0.863913 0.962525
vt 0.865415 0.957881
vt 0.866801 0.958584
vt 0.865449 0.962767
vt 0.894840 0.962294
vt 0.893308 0.962559
vt 0.868271 0.953924
vt 0.869375 0.955019
vt 0.894913 0.967174
vt 0.893374 0.966955
vt 0.872207 0.951038
vt 0.872920 0.952419
vt 0.876840 0.980429
vt 0.872207 0.978893
vt 0.872920 0.977512
vt 0.877093 0.978896
vt 0.894840 0.967637
vt 0.893270 0.972258
vt 0.891894 0.971535
vt 0.893308 0.967372
vt 0.876840 0.949502
vt 0.877093 0.951035
vt 0.868271 0.976007
vt 0.869375 0.974912
vt 0.890354 0.976172
vt 0.889267 0.975061
vt 0.881720 0.949465
vt 0.881490 0.951003
vt 0.865415 0.972050
vt 0.866801 0.971347
vt 0.886375 0.978999
vt 0.885683 0.977607
vt 0.886375 0.950931
vt 0.885683 0.952324
vt 0.863913 0.967406
vt 0.865449 0.967164
vt 0.881720 0.980466
vt 0.881490 0.978928
vt 0.369048 0.972224
vt 0.367540 0.967583
vt 0.371917 0.976173
vt 0.367540 0.962702
vt 0.375866 0.979042
vt 0.369048 0.958060
vt 0.380507 0.980550
vt 0.371917 0.954112
vt 0.385388 0.980550
vt 0.375866 0.951243
vt 0.390030 0.979042
vt 0.393978 0.976173
vt 0.380507 0.949735
vt 0.396847 0.972224
vt 0.385388 0.949735
vt 0.398355 0.967583
vt 0.390030 0.951243
vt 0.398355 0.962702
vt 0.393978 0.954112
vt 0.396847 0.958060
vt 0.043316 0.670783
vt 0.040342 0.667990
vt 0.042017 0.666074
vt 0.045112 0.669074
vt 0.055075 0.696743
vt 0.054441 0.692471
vt 0.057031 0.691962
vt 0.057740 0.696462
vt 0.037157 0.665410
vt 0.038676 0.663466
vt 0.053443 0.688373
vt 0.055937 0.687632
vt 0.050673 0.722855
vt 0.052405 0.718691
vt 0.055018 0.719651
vt 0.053228 0.724055
vt 0.037157 0.740198
vt 0.040384 0.737287
vt 0.042278 0.739242
vt 0.038876 0.742174
vt 0.052053 0.684456
vt 0.054435 0.683494
vt 0.053744 0.714412
vt 0.056393 0.715104
vt 0.043413 0.734109
vt 0.045455 0.735879
vt 0.050312 0.680696
vt 0.052573 0.679536
vt 0.054663 0.710017
vt 0.057443 0.710473
vt 0.046129 0.730597
vt 0.048398 0.732218
vt 0.048286 0.677131
vt 0.050421 0.675778
vt 0.055194 0.705549
vt 0.057945 0.705763
vt 0.048585 0.726835
vt 0.050949 0.728226
vt 0.045946 0.673835
vt 0.047919 0.672301
vt 0.055352 0.701108
vt 0.058088 0.701074
vt 0.058806 0.715733
vt 0.057327 0.720502
vt 0.047259 0.737491
vt 0.043890 0.740981
vt 0.054588 0.678474
vt 0.056541 0.682643
vt 0.059834 0.710865
vt 0.050366 0.733665
vt 0.052264 0.674584
vt 0.060403 0.705927
vt 0.053095 0.729491
vt 0.049667 0.670948
vt 0.060470 0.701016
vt 0.055419 0.725089
vt 0.046747 0.667555
vt 0.060127 0.696177
vt 0.043503 0.664382
vt 0.059308 0.691457
vt 0.039883 0.661592
vt 0.058092 0.686966
vt 0.040216 0.744053
vt 0.913435 0.944564
vt 0.913435 0.939719
vt 0.975932 0.939719
vt 0.975932 0.944564
vt 0.913435 0.905803
vt 0.913435 0.900958
vt 0.975932 0.900958
vt 0.975932 0.905803
vt 0.913435 0.934874
vt 0.975932 0.934874
vt 0.913435 0.896113
vt 0.975932 0.896113
vt 0.913435 0.930028
vt 0.975932 0.930028
vt 0.913435 0.968790
vt 0.913435 0.963944
vt 0.975932 0.963944
vt 0.975932 0.968790
vt 0.913435 0.993015
vt 0.913435 0.988170
vt 0.975932 0.988170
vt 0.975932 0.993015
vt 0.913435 0.925183
vt 0.975932 0.925183
vt 0.913435 0.959099
vt 0.975932 0.959099
vt 0.913435 0.983325
vt 0.975932 0.983325
vt 0.913435 0.920338
vt 0.975932 0.920338
vt 0.913435 0.954254
vt 0.975932 0.954254
vt 0.913435 0.978480
vt 0.975932 0.978480
vt 0.913435 0.915493
vt 0.975932 0.915493
vt 0.913435 0.949409
vt 0.975932 0.949409
vt 0.913435 0.973635
vt 0.975932 0.973635
vt 0.913435 0.910648
vt 0.975932 0.910648
vt 0.352073 0.958733
vt 0.353570 0.963341
vt 0.352256 0.963549
vt 0.350888 0.959337
vt 0.331244 0.951965
vt 0.335852 0.950468
vt 0.336061 0.951782
vt 0.331849 0.953150
vt 0.331244 0.979561
vt 0.327325 0.976713
vt 0.328195 0.975702
vt 0.331849 0.978376
vt 0.353570 0.968186
vt 0.352256 0.967978
vt 0.340698 0.950468
vt 0.340489 0.951782
vt 0.324477 0.972794
vt 0.325662 0.972190
vt 0.352073 0.972794
vt 0.350888 0.972190
vt 0.345306 0.951965
vt 0.344701 0.953150
vt 0.322980 0.968186
vt 0.324294 0.967978
vt 0.349225 0.976713
vt 0.348284 0.975773
vt 0.322980 0.963341
vt 0.324294 0.963549
vt 0.345306 0.979561
vt 0.344701 0.978376
vt 0.324477 0.958733
vt 0.325662 0.959337
vt 0.340698 0.981059
vt 0.340489 0.979744
vt 0.349225 0.954813
vt 0.348284 0.955754
vt 0.327325 0.954813
vt 0.328265 0.955754
vt 0.325662 0.959337
vt 0.335852 0.981059
vt 0.336061 0.979744
vt 0.521818 0.931538
vt 0.524056 0.924182
vt 0.531780 0.928018
vt 0.530205 0.932817
vt 0.557348 0.957774
vt 0.549898 0.960167
vt 0.548556 0.951555
vt 0.553409 0.949987
vt 0.557623 0.913434
vt 0.563920 0.918034
vt 0.557808 0.924069
vt 0.553692 0.921063
vt 0.528524 0.917740
vt 0.534786 0.923918
vt 0.542026 0.960152
vt 0.543438 0.951512
vt 0.568416 0.924406
vt 0.560711 0.928255
vt 0.534943 0.912889
vt 0.538950 0.920996
vt 0.534496 0.957668
vt 0.538585 0.949871
vt 0.570689 0.931777
vt 0.562167 0.933085
vt 0.542652 0.911059
vt 0.543769 0.919337
vt 0.528008 0.952808
vt 0.534544 0.946616
vt 0.570668 0.939465
vt 0.562176 0.938122
vt 0.550265 0.911059
vt 0.548871 0.919438
vt 0.524149 0.946171
vt 0.531610 0.942664
vt 0.568306 0.946851
vt 0.560610 0.942941
vt 0.521897 0.939095
vt 0.530160 0.937844
vt 0.563725 0.953198
vt 0.557617 0.947080
vt 0.548038 0.924708
vt 0.544612 0.924665
vt 0.536362 0.940290
vt 0.538311 0.943104
vt 0.555853 0.940522
vt 0.556969 0.937291
vt 0.551251 0.925852
vt 0.535372 0.937029
vt 0.553798 0.943226
vt 0.535423 0.933626
vt 0.551061 0.945302
vt 0.536515 0.930403
vt 0.547740 0.946312
vt 0.553928 0.927891
vt 0.538554 0.927665
vt 0.544297 0.946216
vt 0.555954 0.930604
vt 0.541350 0.925688
vt 0.541103 0.945056
vt 0.557051 0.933855
vt 0.541258 0.930361
vt 0.539916 0.932128
vt 0.544968 0.942461
vt 0.547167 0.942450
vt 0.552573 0.932363
vt 0.551293 0.930536
vt 0.543086 0.929090
vt 0.542828 0.941776
vt 0.553223 0.934481
vt 0.545209 0.928457
vt 0.541038 0.940399
vt 0.553181 0.936703
vt 0.547406 0.928516
vt 0.539777 0.938563
vt 0.552448 0.938798
vt 0.549518 0.929178
vt 0.539138 0.936433
vt 0.551112 0.940559
vt 0.539190 0.934215
vt 0.549289 0.941831
vt 0.541639 0.936090
vt 0.542032 0.937480
vt 0.549367 0.938764
vt 0.550251 0.937630
vt 0.541642 0.934649
vt 0.548184 0.939562
vt 0.542133 0.933292
vt 0.546829 0.940001
vt 0.549470 0.932290
vt 0.548341 0.931406
vt 0.543013 0.932157
vt 0.545392 0.940002
vt 0.550309 0.933449
vt 0.544194 0.931357
vt 0.544038 0.939511
vt 0.550748 0.934822
vt 0.545551 0.930916
vt 0.542876 0.938657
vt 0.550695 0.936262
vt 0.546977 0.930968
vt 0.547117 0.933733
vt 0.546537 0.933527
vt 0.544234 0.935729
vt 0.544408 0.936321
vt 0.547547 0.936886
vt 0.547923 0.936397
vt 0.544241 0.935111
vt 0.547040 0.937233
vt 0.544450 0.934529
vt 0.546453 0.937419
vt 0.547603 0.934106
vt 0.544827 0.934042
vt 0.545835 0.937403
vt 0.547961 0.934607
vt 0.545330 0.933685
vt 0.545254 0.937198
vt 0.548136 0.935199
vt 0.545922 0.933511
vt 0.544766 0.936823
vt 0.548119 0.935813
vt 0.546185 0.935464
s 1
f 11/1/1 12/2/2 32/3/2 31/4/1
f 4/5/3 5/6/4 25/7/4 24/8/3
f 19/9/5 20/10/6 40/11/6 39/12/5
f 12/2/2 13/13/7 33/14/7 32/3/2
f 5/6/4 6/15/8 26/16/8 25/7/4
f 20/10/6 1/17/9 21/18/9 40/11/6
f 13/13/7 14/19/10 34/20/10 33/14/7
f 6/15/8 7/21/11 27/22/11 26/16/8
f 14/19/10 15/23/12 35/24/12 34/20/10
f 7/21/11 8/25/13 28/26/13 27/22/11
f 15/23/12 16/27/14 36/28/14 35/24/12
f 8/25/13 9/29/15 29/30/15 28/26/13
f 1/17/9 2/31/16 22/32/16 21/18/9
f 16/33/14 17/34/17 37/35/17 36/36/14
f 9/29/15 10/37/18 30/38/18 29/30/15
f 2/31/16 3/39/19 23/40/19 22/32/16
f 17/34/17 18/41/20 38/42/20 37/35/17
f 10/37/18 11/1/1 31/4/1 30/38/18
f 3/39/19 4/5/3 24/8/3 23/40/19
f 18/41/20 19/9/5 39/12/5 38/42/20
f 33/43/21 34/44/22 54/45/22 53/46/21
f 26/47/23 27/48/24 47/49/24 46/50/23
f 34/44/22 35/51/25 55/52/25 54/45/22
f 27/48/24 28/53/26 48/54/26 47/49/24
f 35/51/25 36/55/27 56/56/27 55/52/25
f 28/53/26 29/57/28 49/58/28 48/54/26
f 21/59/29 22/60/30 42/61/30 41/62/29
f 36/63/27 37/64/31 57/65/31 56/66/27
f 29/57/28 30/67/32 50/68/32 49/58/28
f 22/60/30 23/69/33 43/70/33 42/61/30
f 37/64/31 38/71/34 58/72/34 57/65/31
f 30/67/32 31/73/35 51/74/35 50/68/32
f 23/69/33 24/75/36 44/76/36 43/70/33
f 38/71/34 39/77/37 59/78/37 58/72/34
f 31/73/35 32/79/38 52/80/38 51/74/35
f 24/75/36 25/81/39 45/82/39 44/76/36
f 39/77/37 40/83/40 60/84/40 59/78/37
f 32/79/38 33/43/21 53/46/21 52/80/38
f 25/81/39 26/47/23 46/50/23 45/82/39
f 40/83/40 21/59/29 41/62/29 60/84/40
f 6/85/41 5/86/41 7/87/41
f 5/86/41 4/88/41 8/89/41 7/87/41
f 4/88/41 3/90/41 9/91/41 8/89/41
f 3/90/41 2/92/41 10/93/41 9/91/41
f 2/92/41 1/94/41 11/95/41 10/93/41
f 12/96/41 11/95/41 1/94/41 20/97/41
f 13/98/41 12/96/41 20/97/41 19/99/41
f 14/100/41 13/98/41 19/99/41 18/101/41
f 15/102/41 14/100/41 18/101/41 17/103/41
f 16/104/41 15/102/41 17/103/41
f 54/105/42 55/106/43 75/107/44 74/108/45
f 47/109/46 48/110/47 68/111/48 67/112/49
f 55/106/43 56/113/50 76/114/51 75/107/44
f 48/110/47 49/115/52 69/116/53 68/111/48
f 41/117/54 42/118/55 62/119/56 61/120/57
f 56/121/50 57/122/58 77/123/59 76/124/51
f 49/115/52 50/125/60 70/126/61 69/116/53
f 42/118/55 43/127/62 63/128/63 62/119/56
f 57/122/58 58/129/64 78/130/65 77/123/59
f 50/125/60 51/131/66 71/132/67 70/126/61
f 43/127/62 44/133/68 64/134/69 63/128/63
f 58/129/64 59/135/70 79/136/71 78/130/65
f 51/131/66 52/137/72 72/138/73 71/132/67
f 44/133/68 45/139/74 65/140/75 64/134/69
f 59/135/70 60/141/76 80/142/77 79/136/71
f 52/137/72 53/143/78 73/144/79 72/138/73
f 45/139/74 46/145/80 66/146/81 65/140/75
f 60/141/76 41/117/54 61/120/57 80/142/77
f 53/143/78 54/105/42 74/108/45 73/144/79
f 46/145/80 47/109/46 67/112/49 66/146/81
f 62/119/56 63/128/63 83/147/82 82/148/83
f 77/123/59 78/130/65 98/149/84 97/150/85
f 70/126/61 71/132/67 91/151/86 90/152/87
f 63/128/63 64/134/69 84/153/88 83/147/82
f 78/130/65 79/136/71 99/154/89 98/149/84
f 71/132/67 72/138/73 92/155/90 91/151/86
f 64/134/69 65/140/75 85/156/91 84/153/88
f 79/136/71 80/142/77 100/157/92 99/154/89
f 72/138/73 73/144/79 93/158/93 92/155/90
f 65/140/75 66/146/81 86/159/94 85/156/91
f 80/142/77 61/120/57 81/160/95 100/157/92
f 73/144/79 74/108/45 94/161/96 93/158/93
f 66/146/81 67/112/49 87/162/97 86/159/94
f 74/108/45 75/107/44 95/163/98 94/161/96
f 67/112/49 68/111/48 88/164/99 87/162/97
f 75/107/44 76/114/51 96/165/100 95/163/98
f 68/111/48 69/116/53 89/166/101 88/164/99
f 61/120/57 62/119/56 82/148/83 81/160/95
f 76/124/51 77/123/59 97/150/85 96/167/100
f 69/116/53 70/126/61 90/152/87 89/166/101
f 86/168/8 87/169/11 107/170/11 106/171/8
f 94/172/10 95/173/12 115/174/12 114/175/10
f 87/169/11 88/176/13 108/177/13 107/170/11
f 95/173/12 96/178/14 116/179/14 115/174/12
f 88/176/13 89/180/15 109/181/15 108/177/13
f 81/182/9 82/183/16 102/184/16 101/185/9
f 96/186/14 97/187/17 117/188/17 116/189/14
f 89/180/15 90/190/18 110/191/18 109/181/15
f 82/183/16 83/192/19 103/193/19 102/184/16
f 97/187/17 98/194/20 118/195/20 117/188/17
f 90/190/18 91/196/1 111/197/1 110/191/18
f 83/192/19 84/198/3 104/199/3 103/193/19
f 98/194/20 99/200/5 119/201/5 118/195/20
f 91/196/1 92/202/2 112/203/2 111/197/1
f 84/198/3 85/204/4 105/205/4 104/199/3
f 99/200/5 100/206/6 120/207/6 119/201/5
f 92/202/2 93/208/7 113/209/7 112/203/2
f 85/204/4 86/168/8 106/171/8 105/205/4
f 100/206/6 81/182/9 101/185/9 120/207/6
f 93/208/7 94/172/10 114/175/10 113/209/7
f 103/210/102 104/211/102 124/212/102 123/213/102
f 118/214/102 119/215/102 139/216/102 138/217/102
f 111/218/102 112/219/102 132/220/102 131/221/102
f 104/211/102 105/222/102 125/223/102 124/212/102
f 119/215/102 120/224/102 140/225/102 139/216/102
f 112/219/102 113/226/102 133/227/102 132/220/102
f 105/222/102 106/228/102 126/229/102 125/223/102
f 120/224/102 101/230/102 121/231/102 140/225/102
f 113/226/102 114/232/102 134/233/102 133/227/102
f 106/228/102 107/234/102 127/235/102 126/229/102
f 114/232/102 115/236/102 135/237/102 134/233/102
f 107/234/102 108/238/102 128/239/102 127/235/102
f 115/236/102 116/240/102 136/241/102 135/237/102
f 108/238/102 109/242/102 129/243/102 128/239/102
f 101/230/102 102/244/102 122/245/102 121/231/102
f 116/240/102 117/246/102 137/247/102 136/248/102
f 109/242/102 110/249/102 130/250/102 129/243/102
f 102/244/102 103/210/102 123/213/102 122/245/102
f 117/246/102 118/214/102 138/217/102 137/247/102
f 110/249/102 111/218/102 131/221/102 130/250/102
f 135/251/12 136/252/14 156/253/103 155/254/104
f 128/255/13 129/256/15 149/257/105 148/258/106
f 121/259/9 122/260/16 142/261/107 141/262/108
f 136/252/14 137/263/17 157/264/109 156/253/103
f 129/256/15 130/265/18 150/266/110 149/257/105
f 122/260/16 123/267/19 143/268/111 142/261/107
f 137/263/17 138/269/20 158/270/112 157/264/109
f 130/265/18 131/271/1 151/272/113 150/266/110
f 123/267/19 124/273/3 144/274/114 143/268/111
f 138/269/20 139/275/5 159/276/115 158/270/112
f 131/271/1 132/277/2 152/278/116 151/272/113
f 124/273/3 125/279/4 145/280/117 144/274/114
f 139/275/5 140/281/6 160/282/118 159/276/115
f 132/277/2 133/283/7 153/284/119 152/278/116
f 125/279/4 126/285/8 146/286/120 145/280/117
f 140/281/6 121/259/9 141/262/108 160/282/118
f 133/283/7 134/287/10 154/288/121 153/284/119
f 126/285/8 127/289/11 147/290/122 146/286/120
f 134/287/10 135/251/12 155/254/104 154/288/121
f 127/289/11 128/255/13 148/258/106 147/290/122
f 159/276/115 160/282/118 180/291/123 179/292/124
f 152/278/116 153/284/119 173/293/125 172/294/126
f 145/280/117 146/286/120 166/295/127 165/296/128
f 160/282/118 141/262/108 161/297/129 180/291/123
f 153/284/119 154/288/121 174/298/130 173/293/125
f 146/286/120 147/290/122 167/299/131 166/295/127
f 154/288/121 155/254/104 175/300/132 174/298/130
f 147/290/122 148/258/106 168/301/133 167/299/131
f 155/254/104 156/253/103 176/302/134 175/300/132
f 148/258/106 149/257/105 169/303/135 168/301/133
f 141/262/108 142/261/107 162/304/136 161/297/129
f 156/253/103 157/264/109 177/305/137 176/302/134
f 149/257/105 150/266/110 170/306/138 169/303/135
f 142/261/107 143/268/111 163/307/139 162/304/136
f 157/264/109 158/270/112 178/308/140 177/305/137
f 150/266/110 151/272/113 171/309/141 170/306/138
f 143/268/111 144/274/114 164/310/142 163/307/139
f 158/270/112 159/276/115 179/292/124 178/308/140
f 151/272/113 152/278/116 172/294/126 171/309/141
f 144/274/114 145/280/117 165/296/128 164/310/142
f 176/302/134 177/305/137 197/311/143 196/312/144
f 169/303/135 170/306/138 190/313/145 189/314/146
f 162/304/136 163/307/139 183/315/147 182/316/148
f 177/305/137 178/308/140 198/317/149 197/311/143
f 170/306/138 171/309/141 191/318/150 190/313/145
f 163/307/139 164/310/142 184/319/151 183/315/147
f 178/308/140 179/292/124 199/320/152 198/317/149
f 171/309/141 172/294/126 192/321/153 191/318/150
f 164/310/142 165/296/128 185/322/154 184/319/151
f 179/292/124 180/291/123 200/323/155 199/320/152
f 172/294/126 173/293/125 193/324/156 192/321/153
f 165/296/128 166/295/127 186/325/157 185/322/154
f 180/291/123 161/297/129 181/326/158 200/323/155
f 173/293/125 174/298/130 194/327/159 193/324/156
f 166/295/127 167/299/131 187/328/160 186/325/157
f 174/298/130 175/300/132 195/329/161 194/327/159
f 167/299/131 168/301/133 188/330/162 187/328/160
f 175/300/132 176/302/134 196/312/144 195/329/161
f 168/301/133 169/303/135 189/314/146 188/330/162
f 161/297/129 162/304/136 182/316/148 181/326/158
f 193/324/156 194/327/159 214/331/163 213/332/164
f 186/325/157 187/328/160 207/333/165 206/334/166
f 194/327/159 195/329/161 215/335/167 214/331/163
f 187/328/160 188/330/162 208/336/168 207/333/165
f 195/329/161 196/312/144 216/337/169 215/335/167
f 188/330/162 189/314/146 209/338/170 208/336/168
f 181/326/158 182/316/148 202/339/171 201/340/172
f 196/312/144 197/311/143 217/341/173 216/337/169
f 189/314/146 190/313/145 210/342/174 209/338/170
f 182/316/148 183/315/147 203/343/175 202/339/171
f 197/311/143 198/317/149 218/344/176 217/341/173
f 190/313/145 191/318/150 211/345/177 210/342/174
f 183/315/147 184/319/151 204/346/178 203/343/175
f 198/317/149 199/320/152 219/347/179 218/344/176
f 191/318/150 192/321/153 212/348/180 211/345/177
f 184/319/151 185/322/154 205/349/181 204/346/178
f 199/320/152 200/323/155 220/350/182 219/347/179
f 192/321/153 193/324/156 213/332/164 212/348/180
f 185/322/154 186/325/157 206/334/166 205/349/181
f 200/323/155 181/326/158 201/340/172 220/350/182
f 220/350/182 201/340/172 221/351/183 240/352/184
f 213/332/164 214/331/163 234/353/185 233/354/186
f 206/334/166 207/333/165 227/355/187 226/356/188
f 214/331/163 215/335/167 235/357/189 234/353/185
f 207/333/165 208/336/168 228/358/190 227/355/187
f 215/335/167 216/337/169 236/359/191 235/357/189
f 208/336/168 209/338/170 229/360/192 228/358/190
f 201/340/172 202/339/171 222/361/193 221/351/183
f 216/337/169 217/341/173 237/362/194 236/359/191
f 209/338/170 210/342/174 230/363/195 229/360/192
f 202/339/171 203/343/175 223/364/196 222/361/193
f 217/341/173 218/344/176 238/365/197 237/362/194
f 210/342/174 211/345/177 231/366/198 230/363/195
f 203/343/175 204/346/178 224/367/199 223/364/196
f 218/344/176 219/347/179 239/368/200 238/365/197
f 211/345/177 212/348/180 232/369/201 231/366/198
f 204/346/178 205/349/181 225/370/202 224/367/199
f 219/347/179 220/350/182 240/352/184 239/368/200
f 212/348/180 213/332/164 233/354/186 232/369/201
f 205/349/181 206/334/166 226/356/188 225/370/202
f 237/362/194 238/365/197 241/371/102
f 230/363/195 231/366/198 241/371/102
f 223/364/196 224/367/199 241/371/102
f 238/365/197 239/368/200 241/371/102
f 231/366/198 232/369/201 241/371/102
f 224/367/199 225/370/202 241/371/102
f 239/368/200 240/352/184 241/371/102
f 232/369/201 233/354/186 241/371/102
f 225/370/202 226/356/188 241/371/102
f 240/352/184 221/351/183 241/371/102
f 233/354/186 234/353/185 241/371/102
f 226/356/188 227/355/187 241/371/102
f 234/353/185 235/357/189 241/371/102
f 227/355/187 228/358/190 241/371/102
f 235/357/189 236/359/191 241/371/102
f 228/358/190 229/360/192 241/371/102
f 221/351/183 222/361/193 241/371/102
f 236/359/191 237/362/194 241/371/102
f 229/360/192 230/363/195 241/371/102
f 222/361/193 223/364/196 241/371/102
