# Converted/generated visual mesh for LIBERO obvious hazard prop
v -0.0132932 0.0596518 0.0193007
v -0.0113216 0.0586936 0.0197683
v -0.0123932 0.0592385 0.0191363
v 0.0024898 0.0596518 0.0065257
v 0.0018522 0.0586936 0.0084491
v 0.0025752 0.0592385 0.0074366
v -0.0003674 0.0596518 0.0371223
v 0.0016452 0.0586936 0.0368873
v 0.0004220 0.0592385 0.0366600
v -0.0182427 0.0176014 0.0159625
v -0.0182427 0.0289355 0.0159625
v -0.0192544 0.0289355 0.0135982
v -0.0192544 0.0176014 0.0135982
v -0.0196552 0.0289355 0.0099011
v -0.0196423 0.0176005 0.0095730
v -0.0183675 0.0289355 0.0060264
v -0.0183675 0.0176014 0.0060264
v -0.0160416 0.0289363 0.0030783
v -0.0157691 0.0176013 0.0028957
v -0.0107557 0.0289331 0.0008520
v -0.0105136 0.0176019 0.0008948
v 0.0112981 0.0289354 0.0009377
v 0.0112981 0.0176013 0.0009377
v 0.0149834 0.0289355 0.0018617
v 0.0152761 0.0176005 0.0019825
v 0.0189115 0.0289354 0.0051322
v 0.0191377 0.0176014 0.0055267
v 0.0206110 0.0289363 0.0101263
v 0.0206038 0.0176013 0.0104515
v 0.0194829 0.0289333 0.0154832
v 0.0193097 0.0176018 0.0156957
v 0.0078877 0.0289354 0.0342882
v 0.0078877 0.0176013 0.0342882
v 0.0059872 0.0289354 0.0360687
v 0.0059872 0.0176013 0.0360687
v 0.0026395 0.0289355 0.0377068
v 0.0023267 0.0176005 0.0378065
v -0.0014348 0.0289355 0.0378093
v -0.0014348 0.0176014 0.0378093
v -0.0049775 0.0289364 0.0366365
v -0.0052347 0.0176014 0.0364494
v -0.0079157 0.0289355 0.0338077
v -0.0079157 0.0176014 0.0338077
v -0.0182427 0.0289355 0.0159625
v -0.0182427 0.0176014 0.0159625
v -0.0182427 -0.0578527 0.0159625
v -0.0182427 -0.0465186 0.0159625
v -0.0192544 -0.0465186 0.0135982
v -0.0192544 -0.0578527 0.0135982
v -0.0196552 -0.0465185 0.0099011
v -0.0196423 -0.0578535 0.0095730
v -0.0183675 -0.0465185 0.0060264
v -0.0183675 -0.0578526 0.0060264
v -0.0160416 -0.0465177 0.0030783
v -0.0157691 -0.0578527 0.0028957
v -0.0107557 -0.0465209 0.0008520
v -0.0105136 -0.0578521 0.0008948
v 0.0112980 -0.0465186 0.0009377
v 0.0112980 -0.0578527 0.0009377
v 0.0149833 -0.0465186 0.0018617
v 0.0152760 -0.0578536 0.0019825
v 0.0189115 -0.0465186 0.0051322
v 0.0191377 -0.0578526 0.0055267
v 0.0206110 -0.0465177 0.0101264
v 0.0206038 -0.0578527 0.0104515
v 0.0194829 -0.0465207 0.0154832
v 0.0193097 -0.0578522 0.0156957
v 0.0078877 -0.0465186 0.0342882
v 0.0078877 -0.0578527 0.0342882
v 0.0059872 -0.0465186 0.0360687
v 0.0059872 -0.0578527 0.0360687
v 0.0026395 -0.0465185 0.0377068
v 0.0023267 -0.0578535 0.0378065
v -0.0014348 -0.0465186 0.0378093
v -0.0014348 -0.0578527 0.0378093
v -0.0049775 -0.0465176 0.0366365
v -0.0052347 -0.0578526 0.0364494
v -0.0079157 -0.0465186 0.0338077
v -0.0079157 -0.0578527 0.0338077
v -0.0182427 -0.0465186 0.0159625
v -0.0182427 -0.0578527 0.0159625
v -0.0189277 0.0289355 0.0135062
v -0.0179393 0.0289355 0.0158104
v -0.0179393 0.0176014 0.0158104
v -0.0189277 0.0176014 0.0135062
v -0.0193158 0.0289354 0.0099480
v -0.0192992 0.0176020 0.0096020
v -0.0180707 0.0289355 0.0061909
v -0.0180707 0.0176014 0.0061909
v -0.0158365 0.0289348 0.0033549
v -0.0155509 0.0176014 0.0031599
v -0.0107549 0.0289318 0.0011995
v -0.0104401 0.0176010 0.0012329
v 0.0112627 0.0289354 0.0012752
v 0.0112627 0.0176013 0.0012752
v 0.0148234 0.0289355 0.0021643
v 0.0151313 0.0176018 0.0022945
v 0.0186157 0.0289348 0.0053141
v 0.0188523 0.0176010 0.0057211
v 0.0202669 0.0289348 0.0101350
v 0.0202622 0.0176014 0.0104779
v 0.0191946 0.0289319 0.0152898
v 0.0189894 0.0176010 0.0155696
v 0.0076247 0.0289354 0.0340737
v 0.0076247 0.0176013 0.0340737
v 0.0057895 0.0289354 0.0357929
v 0.0057895 0.0176013 0.0357929
v 0.0025673 0.0289354 0.0373719
v 0.0022368 0.0176020 0.0374742
v -0.0013808 0.0289355 0.0374743
v -0.0013808 0.0176014 0.0374743
v -0.0047869 0.0289350 0.0363500
v -0.0050599 0.0176014 0.0361549
v -0.0076434 0.0289355 0.0336052
v -0.0076434 0.0176014 0.0336052
v -0.0179393 0.0289355 0.0158104
v -0.0179393 0.0176014 0.0158104
v -0.0189277 -0.0465186 0.0135062
v -0.0179393 -0.0465186 0.0158104
v -0.0179393 -0.0578527 0.0158104
v -0.0189277 -0.0578527 0.0135062
v -0.0193158 -0.0465186 0.0099480
v -0.0192993 -0.0578520 0.0096020
v -0.0180707 -0.0465185 0.0061909
v -0.0180707 -0.0578526 0.0061909
v -0.0158365 -0.0465192 0.0033549
v -0.0155509 -0.0578526 0.0031599
v -0.0107549 -0.0465223 0.0011996
v -0.0104401 -0.0578531 0.0012329
v 0.0112627 -0.0465186 0.0012752
v 0.0112627 -0.0578527 0.0012752
v 0.0148234 -0.0465185 0.0021643
v 0.0151313 -0.0578523 0.0022945
v 0.0186157 -0.0465192 0.0053141
v 0.0188523 -0.0578530 0.0057211
v 0.0202669 -0.0465192 0.0101350
v 0.0202622 -0.0578526 0.0104779
v 0.0191946 -0.0465221 0.0152898
v 0.0189894 -0.0578530 0.0155696
v 0.0076247 -0.0465186 0.0340737
v 0.0076247 -0.0578527 0.0340737
v 0.0057895 -0.0465186 0.0357929
v 0.0057895 -0.0578527 0.0357929
v 0.0025673 -0.0465186 0.0373719
v 0.0022368 -0.0578520 0.0374742
v -0.0013808 -0.0465186 0.0374743
v -0.0013808 -0.0578527 0.0374743
v -0.0047869 -0.0465190 0.0363500
v -0.0050599 -0.0578526 0.0361550
v -0.0076434 -0.0465186 0.0336052
v -0.0076434 -0.0578527 0.0336052
v -0.0179393 -0.0465186 0.0158104
v -0.0179393 -0.0578527 0.0158104
v -0.0192544 0.0289355 0.0135982
v -0.0182427 0.0289355 0.0159625
v -0.0179393 0.0289355 0.0158104
v -0.0189277 0.0289355 0.0135062
v -0.0196552 0.0289355 0.0099011
v -0.0193158 0.0289354 0.0099480
v -0.0183675 0.0289355 0.0060264
v -0.0180707 0.0289355 0.0061909
v -0.0160416 0.0289363 0.0030783
v -0.0158365 0.0289348 0.0033549
v -0.0107557 0.0289331 0.0008520
v -0.0107549 0.0289318 0.0011995
v 0.0112981 0.0289354 0.0009377
v 0.0112627 0.0289354 0.0012752
v 0.0149834 0.0289355 0.0018617
v 0.0148234 0.0289355 0.0021643
v 0.0189115 0.0289354 0.0051322
v 0.0186157 0.0289348 0.0053141
v 0.0206110 0.0289363 0.0101263
v 0.0202669 0.0289348 0.0101350
v 0.0194829 0.0289333 0.0154832
v 0.0191946 0.0289319 0.0152898
v 0.0078877 0.0289354 0.0342882
v 0.0076247 0.0289354 0.0340737
v 0.0059872 0.0289354 0.0360687
v 0.0057895 0.0289354 0.0357929
v 0.0026395 0.0289355 0.0377068
v 0.0025673 0.0289354 0.0373719
v -0.0014348 0.0289355 0.0378093
v -0.0013808 0.0289355 0.0374743
v -0.0049775 0.0289364 0.0366365
v -0.0047869 0.0289350 0.0363500
v -0.0079157 0.0289355 0.0338077
v -0.0076434 0.0289355 0.0336052
v -0.0182427 0.0289355 0.0159625
v -0.0179393 0.0289355 0.0158104
v -0.0189277 0.0176014 0.0135062
v -0.0179393 0.0176014 0.0158104
v -0.0182427 0.0176014 0.0159625
v -0.0192544 0.0176014 0.0135982
v -0.0192992 0.0176020 0.0096020
v -0.0196423 0.0176005 0.0095730
v -0.0180707 0.0176014 0.0061909
v -0.0183675 0.0176014 0.0060264
v -0.0155509 0.0176014 0.0031599
v -0.0157691 0.0176013 0.0028957
v -0.0104401 0.0176010 0.0012329
v -0.0105136 0.0176019 0.0008948
v 0.0112627 0.0176013 0.0012752
v 0.0112981 0.0176013 0.0009377
v 0.0151313 0.0176018 0.0022945
v 0.0152761 0.0176005 0.0019825
v 0.0188523 0.0176010 0.0057211
v 0.0191377 0.0176014 0.0055267
v 0.0202622 0.0176014 0.0104779
v 0.0206038 0.0176013 0.0104515
v 0.0189894 0.0176010 0.0155696
v 0.0193097 0.0176018 0.0156957
v 0.0076247 0.0176013 0.0340737
v 0.0078877 0.0176013 0.0342882
v 0.0057895 0.0176013 0.0357929
v 0.0059872 0.0176013 0.0360687
v 0.0022368 0.0176020 0.0374742
v 0.0023267 0.0176005 0.0378065
v -0.0013808 0.0176014 0.0374743
v -0.0014348 0.0176014 0.0378093
v -0.0050599 0.0176014 0.0361549
v -0.0052347 0.0176014 0.0364494
v -0.0076434 0.0176014 0.0336052
v -0.0079157 0.0176014 0.0338077
v -0.0179393 0.0176014 0.0158104
v -0.0182427 0.0176014 0.0159625
v -0.0192544 -0.0465186 0.0135982
v -0.0182427 -0.0465186 0.0159625
v -0.0179393 -0.0465186 0.0158104
v -0.0189277 -0.0465186 0.0135062
v -0.0196552 -0.0465185 0.0099011
v -0.0193158 -0.0465186 0.0099480
v -0.0183675 -0.0465185 0.0060264
v -0.0180707 -0.0465185 0.0061909
v -0.0160416 -0.0465177 0.0030783
v -0.0158365 -0.0465192 0.0033549
v -0.0107557 -0.0465209 0.0008520
v -0.0107549 -0.0465223 0.0011996
v 0.0112980 -0.0465186 0.0009377
v 0.0112627 -0.0465186 0.0012752
v 0.0149833 -0.0465186 0.0018617
v 0.0148234 -0.0465185 0.0021643
v 0.0189115 -0.0465186 0.0051322
v 0.0186157 -0.0465192 0.0053141
v 0.0206110 -0.0465177 0.0101264
v 0.0202669 -0.0465192 0.0101350
v 0.0194829 -0.0465207 0.0154832
v 0.0191946 -0.0465221 0.0152898
v 0.0078877 -0.0465186 0.0342882
v 0.0076247 -0.0465186 0.0340737
v 0.0059872 -0.0465186 0.0360687
v 0.0057895 -0.0465186 0.0357929
v 0.0026395 -0.0465185 0.0377068
v 0.0025673 -0.0465186 0.0373719
v -0.0014348 -0.0465186 0.0378093
v -0.0013808 -0.0465186 0.0374743
v -0.0049775 -0.0465176 0.0366365
v -0.0047869 -0.0465190 0.0363500
v -0.0079157 -0.0465186 0.0338077
v -0.0076434 -0.0465186 0.0336052
v -0.0182427 -0.0465186 0.0159625
v -0.0179393 -0.0465186 0.0158104
v -0.0189277 -0.0578527 0.0135062
v -0.0179393 -0.0578527 0.0158104
v -0.0182427 -0.0578527 0.0159625
v -0.0192544 -0.0578527 0.0135982
v -0.0192993 -0.0578520 0.0096020
v -0.0196423 -0.0578535 0.0095730
v -0.0180707 -0.0578526 0.0061909
v -0.0183675 -0.0578526 0.0060264
v -0.0155509 -0.0578526 0.0031599
v -0.0157691 -0.0578527 0.0028957
v -0.0104401 -0.0578531 0.0012329
v -0.0105136 -0.0578521 0.0008948
v 0.0112627 -0.0578527 0.0012752
v 0.0112980 -0.0578527 0.0009377
v 0.0151313 -0.0578523 0.0022945
v 0.0152760 -0.0578536 0.0019825
v 0.0188523 -0.0578530 0.0057211
v 0.0191377 -0.0578526 0.0055267
v 0.0202622 -0.0578526 0.0104779
v 0.0206038 -0.0578527 0.0104515
v 0.0189894 -0.0578530 0.0155696
v 0.0193097 -0.0578522 0.0156957
v 0.0076247 -0.0578527 0.0340737
v 0.0078877 -0.0578527 0.0342882
v 0.0057895 -0.0578527 0.0357929
v 0.0059872 -0.0578527 0.0360687
v 0.0022368 -0.0578520 0.0374742
v 0.0023267 -0.0578535 0.0378065
v -0.0013808 -0.0578527 0.0374743
v -0.0014348 -0.0578527 0.0378093
v -0.0050599 -0.0578526 0.0361550
v -0.0052347 -0.0578526 0.0364494
v -0.0076434 -0.0578527 0.0336052
v -0.0079157 -0.0578527 0.0338077
v -0.0179393 -0.0578527 0.0158104
v -0.0182427 -0.0578527 0.0159625
v -0.0097450 0.0923242 0.0124450
v -0.0098500 0.0935629 0.0122686
v -0.0089683 0.0941822 0.0116240
v -0.0087582 0.0917049 0.0119769
v -0.0078764 0.0923242 0.0113324
v -0.0079815 0.0935629 0.0111560
v -0.0163228 -0.0905489 0.0184210
v -0.0162141 -0.0919965 0.0175717
v -0.0139616 -0.0925435 0.0198009
v -0.0120806 -0.0904795 0.0202649
v -0.0162172 -0.0855747 0.0180296
v -0.0115458 -0.0924631 0.0208324
v -0.0143813 -0.0792602 0.0192158
v -0.0163564 -0.0806999 0.0177592
v -0.0083914 -0.0914236 0.0208306
v -0.0080773 -0.0929465 0.0201834
v -0.0143727 0.0488993 0.0192080
v -0.0163277 0.0511421 0.0177326
v -0.0167038 0.0569640 0.0180331
v -0.0119166 0.0474072 0.0201723
v -0.0151236 0.0567453 0.0194060
v -0.0137616 0.0584137 0.0202006
v -0.0121502 0.0542762 0.0203985
v -0.0117240 0.0583147 0.0210963
v -0.0093467 0.0581889 0.0207274
v -0.0095288 0.0484260 0.0204589
v -0.0073588 0.0556331 0.0201868
v -0.0098679 -0.0835451 0.0204615
v -0.0070407 -0.0808331 0.0200710
v -0.0052852 0.0573011 0.0197242
v -0.0045649 0.0585665 0.0186482
v -0.0024761 0.0582684 0.0173778
v -0.0048000 0.0490865 0.0191273
v -0.0006275 0.0565032 0.0155032
v -0.0003984 0.0588810 0.0142858
v -0.0029240 0.0529136 0.0176822
v -0.0047577 -0.0805422 0.0190985
v 0.0005277 0.0570016 0.0114712
v -0.0000387 0.0589988 0.0115954
v -0.0054609 -0.0910215 0.0197526
v -0.0040889 -0.0916422 0.0186623
v -0.0028187 -0.0804727 0.0175677
v -0.0022614 -0.0907650 0.0171517
v -0.0008251 -0.0915630 0.0155988
v -0.0013321 0.0476859 0.0155837
v -0.0014365 -0.0881430 0.0157853
v -0.0004640 0.0525261 0.0142197
v -0.0004097 0.0477187 0.0132802
v -0.0000679 0.0526296 0.0103931
v -0.0004266 -0.0797491 0.0132484
v -0.0001611 -0.0884621 0.0131997
v 0.0002073 -0.0916532 0.0139627
v 0.0004826 -0.0918237 0.0116838
v -0.0001159 -0.0793545 0.0107764
v -0.0003557 -0.0853320 0.0086287
v -0.0000200 -0.0907785 0.0083243
v -0.0004324 0.0492132 0.0083367
v 0.0001875 0.0569045 0.0091287
v -0.0010070 0.0583984 0.0086852
v -0.0006347 0.0566487 0.0068740
v -0.0013738 0.0586444 0.0065722
v -0.0013144 0.0489850 0.0061934
v -0.0020420 0.0569825 0.0042465
v -0.0033535 0.0597140 0.0027795
v -0.0015593 -0.0890119 0.0057150
v -0.0016660 -0.0914610 0.0054338
v -0.0046991 -0.0912523 0.0019846
v -0.0038956 0.0585017 0.0017607
v -0.0055439 0.0601506 0.0008666
v -0.0039742 0.0527452 0.0027283
v -0.0052728 0.0585553 0.0007974
v -0.0035022 0.0491922 0.0035039
v -0.0073363 0.0488608 0.0016863
v -0.0078844 0.0579584 0.0005667
v -0.0074818 0.0596330 0.0006034
v -0.0146938 0.0578866 0.0024412
v -0.0029857 0.0257961 0.0040267
v -0.0049927 0.0260080 0.0025341
v -0.0033277 -0.0892876 0.0036852
v -0.0051630 -0.0855264 0.0024624
v -0.0073186 0.0259303 0.0016177
v -0.0072068 -0.0860723 0.0016308
v -0.0071304 -0.0913467 0.0010264
v -0.0099172 0.0483659 0.0013266
v -0.0111567 -0.0887402 0.0013658
v -0.0132199 -0.0917276 0.0017215
v -0.0124333 0.0547667 0.0017247
v -0.0147428 -0.0870527 0.0027512
v -0.0159513 -0.0917135 0.0033680
v -0.0146273 0.0533765 0.0026903
v -0.0161854 0.0573691 0.0034949
v -0.0177288 -0.0888442 0.0055035
v -0.0196086 -0.0928378 0.0073452
v -0.0165025 0.0490624 0.0041954
v -0.0165326 -0.0801168 0.0042075
v -0.0179785 0.0551391 0.0061111
v -0.0183151 0.0575160 0.0065197
v -0.0197946 0.0573891 0.0089493
v -0.0179605 -0.0830794 0.0061076
v -0.0189381 0.0531696 0.0085498
v -0.0199233 0.0575404 0.0109626
v -0.0194831 -0.0888310 0.0081472
v -0.0190952 -0.0842120 0.0087331
v -0.0206839 -0.0927505 0.0096991
v -0.0204562 -0.0940120 0.0095309
v -0.0200507 -0.0944755 0.0113409
v -0.0189219 -0.0800052 0.0085559
v -0.0192488 -0.0839253 0.0114688
v -0.0204147 -0.0926773 0.0119913
v -0.0188522 -0.0934241 0.0140334
v -0.0162141 -0.0919965 0.0175717
v -0.0163228 -0.0905489 0.0184210
v -0.0184095 -0.0905712 0.0157016
v -0.0178752 -0.0856362 0.0159392
v -0.0162172 -0.0855747 0.0180296
v -0.0163564 -0.0806999 0.0177592
v -0.0163277 0.0511421 0.0177326
v -0.0188840 -0.0793502 0.0134796
v -0.0178701 0.0489042 0.0157765
v -0.0167038 0.0569640 0.0180331
v -0.0192258 -0.0799592 0.0109525
v -0.0188820 0.0478337 0.0133978
v -0.0192197 0.0479280 0.0110286
v -0.0191775 0.0520074 0.0130464
v -0.0185931 0.0547915 0.0157893
v -0.0183969 0.0574153 0.0153722
v 0.0036303 -0.0905489 0.0035844
v 0.0044669 -0.0919965 0.0037667
v 0.0020498 -0.0925435 0.0058163
v 0.0010081 -0.0902925 0.0071486
v 0.0040109 -0.0855747 0.0037237
v 0.0008117 -0.0924631 0.0081331
v 0.0020499 -0.0789389 0.0064187
v 0.0042935 -0.0806137 0.0036109
v 0.0005388 -0.0914240 0.0112769
v 0.0011559 -0.0929465 0.0116449
v 0.0010443 -0.0835321 0.0098909
v 0.0026873 0.0489093 0.0054438
v 0.0043148 0.0511484 0.0036366
v 0.0040499 0.0569640 0.0032386
v 0.0011399 0.0471589 0.0089030
v 0.0025445 0.0567453 0.0046931
v 0.0016342 0.0584137 0.0059807
v 0.0012966 0.0542768 0.0075687
v 0.0005643 0.0583147 0.0079325
v 0.0007246 0.0581889 0.0103328
v 0.0010897 0.0556329 0.0123602
v 0.0013682 0.0573001 0.0144623
v 0.0023792 0.0585665 0.0152777
v 0.0034627 0.0582684 0.0174692
v 0.0011776 -0.0808330 0.0126876
v 0.0019224 0.0490864 0.0150017
v 0.0051691 0.0565032 0.0194743
v 0.0063618 0.0588810 0.0198086
v 0.0032089 0.0529341 0.0170148
v 0.0019471 -0.0805411 0.0150459
v 0.0013570 -0.0910215 0.0142889
v 0.0023236 -0.0916422 0.0157507
v 0.0033045 -0.0804475 0.0171119
v 0.0036692 -0.0907650 0.0177029
v 0.0050910 -0.0915630 0.0192690
v 0.0049945 -0.0881348 0.0186563
v 0.0074233 -0.0884620 0.0201396
v 0.0066309 -0.0916532 0.0204401
v 0.0088772 -0.0918237 0.0209130
v 0.0051731 0.0477438 0.0187816
v 0.0119934 -0.0853318 0.0203442
v 0.0122677 -0.0907785 0.0207051
v 0.0064345 0.0525267 0.0197495
v 0.0073648 0.0477214 0.0198852
v 0.0073966 -0.0797460 0.0198704
v 0.0102093 0.0526316 0.0204769
v 0.0090850 0.0570016 0.0209764
v 0.0090106 0.0589988 0.0204014
v 0.0098334 -0.0793508 0.0203959
v 0.0114483 0.0569045 0.0208417
v 0.0119942 0.0583984 0.0196904
v 0.0122911 0.0492132 0.0202932
v 0.0137660 0.0566487 0.0202191
v 0.0141310 0.0586444 0.0195091
v 0.0145034 0.0489851 0.0196012
v 0.0165061 0.0569825 0.0190462
v 0.0180819 0.0597140 0.0178676
v 0.0150011 -0.0890119 0.0193991
v 0.0152906 -0.0914610 0.0193173
v 0.0189911 -0.0912523 0.0165964
v 0.0191441 0.0585017 0.0174163
v 0.0201785 0.0601506 0.0158521
v 0.0181870 0.0527452 0.0172536
v 0.0202238 0.0585553 0.0161283
v 0.0173728 0.0491919 0.0176567
v 0.0195181 0.0488608 0.0139951
v 0.0206839 0.0579607 0.0135470
v 0.0206096 0.0596330 0.0139446
v 0.0194073 0.0578866 0.0065998
v 0.0168074 0.0257961 0.0181253
v 0.0184694 0.0260376 0.0162557
v 0.0171770 -0.0892878 0.0178147
v 0.0195848 0.0259777 0.0140189
v 0.0192689 -0.0855229 0.0149418
v 0.0201575 -0.0913467 0.0142578
v 0.0200953 0.0484466 0.0114406
v 0.0200935 -0.0794413 0.0115754
v 0.0200560 -0.0885847 0.0093822
v 0.0199961 -0.0917287 0.0081239
v 0.0199334 0.0547465 0.0089244
v 0.0191615 0.0534170 0.0066645
v 0.0184876 0.0573691 0.0050221
v 0.0190754 -0.0870621 0.0064795
v 0.0185936 -0.0917135 0.0052665
v 0.0178175 0.0490673 0.0046463
v 0.0160380 0.0551391 0.0030082
v 0.0156600 0.0575160 0.0026369
v 0.0133685 0.0573891 0.0009513
v 0.0178080 -0.0801170 0.0046142
v 0.0166212 -0.0888442 0.0033096
v 0.0149503 -0.0928378 0.0012763
v 0.0160395 -0.0830798 0.0030260
v 0.0136917 0.0531696 0.0018393
v 0.0113741 0.0575404 0.0006475
v 0.0141404 -0.0888310 0.0013315
v 0.0135229 -0.0842120 0.0016668
v 0.0126990 -0.0927505 0.0000000
v 0.0128468 -0.0940120 0.0002415
v 0.0110084 -0.0944755 0.0004877
v 0.0136853 -0.0800033 0.0018553
v 0.0108110 -0.0839253 0.0012754
v 0.0103922 -0.0926773 0.0000684
v 0.0082216 -0.0934241 0.0014470
v 0.0044669 -0.0919965 0.0037667
v 0.0036303 -0.0905489 0.0035844
v 0.0065212 -0.0905712 0.0017426
v 0.0062413 -0.0856378 0.0022541
v 0.0040109 -0.0855747 0.0037237
v 0.0042935 -0.0806137 0.0036109
v 0.0043148 0.0511484 0.0036366
v 0.0087761 -0.0793496 0.0014636
v 0.0063900 0.0488844 0.0022776
v 0.0040499 0.0569640 0.0032386
v 0.0113235 -0.0799572 0.0013434
v 0.0088574 0.0478337 0.0014727
v 0.0112470 0.0479276 0.0013427
v 0.0092333 0.0520074 0.0012089
v 0.0064486 0.0547923 0.0015528
v 0.0068483 0.0574153 0.0017838
v -0.0035152 -0.0905489 0.0373318
v -0.0037036 -0.0919965 0.0364966
v -0.0008245 -0.0925435 0.0378209
v 0.0009068 -0.0903127 0.0382440
v -0.0035498 -0.0855747 0.0369279
v 0.0017984 -0.0924631 0.0379639
v -0.0014188 -0.0792514 0.0374146
v -0.0037715 -0.0805268 0.0367169
v 0.0047568 -0.0914232 0.0368865
v 0.0048358 -0.0929465 0.0361679
v 0.0024185 -0.0840647 0.0373229
v -0.0014136 0.0488990 0.0374046
v -0.0037585 0.0510508 0.0366925
v -0.0040059 0.0569640 0.0370977
v 0.0012252 0.0474053 0.0374704
v -0.0020514 0.0567453 0.0378473
v -0.0004998 0.0584137 0.0381281
v 0.0010809 0.0542770 0.0377620
v 0.0017212 0.0583147 0.0382729
v 0.0038290 0.0581889 0.0371132
v 0.0035693 0.0483757 0.0369186
v 0.0054845 0.0556213 0.0359694
v 0.0057714 -0.0808641 0.0357102
v 0.0073032 0.0573003 0.0347780
v 0.0076113 0.0585665 0.0335239
v 0.0091396 0.0582684 0.0316157
v 0.0075537 0.0490876 0.0340555
v 0.0075839 -0.0805420 0.0340132
v 0.0102528 0.0561076 0.0288226
v 0.0100345 0.0588810 0.0279996
v 0.0088346 0.0529353 0.0320379
v 0.0099421 0.0570016 0.0250379
v 0.0094524 0.0589988 0.0253484
v 0.0096041 0.0478171 0.0295150
v 0.0088213 0.0569045 0.0229530
v 0.0075471 0.0583984 0.0229448
v 0.0090135 0.0526295 0.0242278
v 0.0096798 0.0477302 0.0270563
v 0.0072775 0.0566487 0.0211156
v 0.0064796 0.0586445 0.0210847
v 0.0079680 0.0492133 0.0224210
v 0.0050564 0.0569825 0.0191279
v 0.0033223 0.0597140 0.0181979
v 0.0064058 0.0489846 0.0207083
v 0.0024644 0.0585017 0.0174259
v 0.0006096 0.0601506 0.0171495
v 0.0027215 0.0527451 0.0183621
v 0.0008407 0.0585553 0.0169917
v 0.0034292 0.0491935 0.0189289
v -0.0007943 0.0488608 0.0185328
v -0.0016934 0.0579582 0.0176676
v -0.0013014 0.0596330 0.0175649
v -0.0074499 0.0578866 0.0217586
v 0.0003832 0.0234067 0.0183565
v -0.0033422 0.0483690 0.0190774
v -0.0055667 0.0547447 0.0203002
v 0.0040932 0.0257814 0.0192434
v -0.0006986 -0.0860762 0.0184365
v 0.0029131 -0.0885439 0.0187312
v 0.0060123 -0.0890118 0.0203434
v -0.0032297 -0.0795476 0.0190343
v 0.0017859 -0.0912523 0.0179111
v -0.0008265 -0.0913467 0.0178423
v 0.0058157 -0.0914610 0.0201149
v 0.0083511 -0.0907785 0.0222681
v -0.0052030 -0.0885857 0.0199953
v -0.0063177 -0.0917287 0.0205810
v 0.0081399 -0.0853318 0.0226692
v 0.0099724 -0.0918237 0.0252531
v 0.0098860 -0.0884622 0.0268979
v 0.0104931 -0.0916532 0.0274888
v 0.0090999 -0.0793489 0.0246055
v 0.0100826 -0.0915630 0.0293793
v 0.0096531 -0.0797494 0.0270338
v 0.0095703 -0.0881376 0.0297194
v 0.0092641 -0.0907650 0.0313298
v 0.0080634 -0.0916422 0.0333744
v 0.0088825 -0.0804469 0.0319102
v 0.0071471 -0.0910215 0.0348682
v -0.0072873 0.0534181 0.0219538
v -0.0084912 0.0573691 0.0232589
v -0.0074195 -0.0870614 0.0221108
v -0.0083145 -0.0917135 0.0230595
v -0.0085507 0.0490798 0.0240296
v -0.0092545 -0.0888442 0.0256742
v -0.0103911 -0.0928378 0.0280478
v -0.0085772 -0.0801739 0.0240468
v -0.0093015 0.0551335 0.0263464
v -0.0094579 0.0575160 0.0268297
v -0.0100171 0.0573891 0.0296188
v -0.0092642 -0.0830719 0.0263487
v -0.0093461 0.0531878 0.0289509
v -0.0094495 0.0575404 0.0315547
v -0.0099987 -0.0888310 0.0287585
v -0.0094339 -0.0842120 0.0291764
v -0.0105964 -0.0927505 0.0306275
v -0.0104399 -0.0940120 0.0303915
v -0.0094399 -0.0944755 0.0319537
v -0.0092059 -0.0797671 0.0301064
v -0.0086426 -0.0839253 0.0317997
v -0.0095594 -0.0926773 0.0326894
v -0.0073927 -0.0934241 0.0340739
v -0.0076143 -0.0793543 0.0335621
v -0.0064062 -0.0905712 0.0354901
v -0.0058449 -0.0856002 0.0355508
v -0.0035152 -0.0905489 0.0373318
v -0.0037036 -0.0919965 0.0364966
v -0.0035498 -0.0855747 0.0369279
v -0.0037715 -0.0805268 0.0367169
v -0.0058593 0.0489147 0.0353856
v -0.0037585 0.0510508 0.0366925
v -0.0040059 0.0569640 0.0370977
v -0.0082988 0.0476029 0.0325171
v -0.0065493 0.0547915 0.0356349
v -0.0065070 0.0574153 0.0351763
v -0.0080344 0.0520061 0.0332602
v 0.0027599 0.0662325 0.0312522
v 0.0017515 0.0554413 0.0296999
v 0.0023866 0.0555223 0.0285895
v 0.0033339 0.0663678 0.0301612
v 0.0017526 0.0556740 0.0275137
v 0.0038729 0.0712891 0.0332087
v 0.0027693 0.0669258 0.0291958
v 0.0004967 0.0557148 0.0275389
v 0.0045655 0.0716985 0.0322179
v 0.0043585 0.0751091 0.0340452
v 0.0013515 0.0657197 0.0289654
v -0.0001196 0.0556713 0.0286309
v 0.0049896 0.0750275 0.0328823
v 0.0035106 0.0834435 0.0325755
v 0.0040080 0.0723664 0.0312848
v 0.0026269 0.0719626 0.0310261
v 0.0008508 0.0665461 0.0302384
v 0.0005082 0.0555285 0.0296851
v 0.0043114 0.0753092 0.0318049
v 0.0014918 0.0665294 0.0313141
v 0.0017515 0.0554413 0.0296999
v 0.0027599 0.0662325 0.0312522
v 0.0038729 0.0712891 0.0332087
v 0.0022376 0.0728623 0.0325950
v 0.0029345 0.0730515 0.0337472
v 0.0043585 0.0751091 0.0340452
v 0.0030366 0.0755683 0.0318004
v 0.0023966 0.0760378 0.0328358
v 0.0030168 0.0764843 0.0338711
v 0.0025782 0.0809666 0.0331420
v 0.0035106 0.0834435 0.0325755
v 0.0019557 0.0806548 0.0320965
v 0.0025788 0.0804988 0.0310175
v 0.0014751 0.0870954 0.0312866
v 0.0024815 0.0880398 0.0308527
v 0.0010137 0.0861478 0.0305082
v 0.0000961 0.0906748 0.0289913
v 0.0012453 0.0911468 0.0287696
v -0.0002308 0.0895165 0.0284464
v 0.0016927 0.0856703 0.0295312
v 0.0000754 0.0899307 0.0268344
v -0.0019419 0.0917563 0.0255609
v -0.0019297 0.0931351 0.0256036
v -0.0007386 0.0936218 0.0254359
v -0.0044330 0.0942251 0.0213713
v -0.0039729 0.0950000 0.0200184
v -0.0044345 0.0929620 0.0213610
v -0.0028086 0.0921909 0.0219565
v -0.0066181 0.0930590 0.0176966
v -0.0066446 0.0943140 0.0176522
v -0.0087339 0.0939245 0.0141431
v -0.0078450 0.0945462 0.0135105
v -0.0089683 0.0941822 0.0116240
v -0.0098500 0.0935629 0.0122686
v -0.0097450 0.0923242 0.0124450
v -0.0086431 0.0926813 0.0142957
v -0.0087582 0.0917049 0.0119769
v -0.0076634 0.0920596 0.0138157
v -0.0078764 0.0923242 0.0113324
v -0.0056706 0.0924314 0.0171625
v -0.0067745 0.0926813 0.0131831
v -0.0079815 0.0935629 0.0111560
v -0.0047496 0.0930590 0.0165840
v -0.0068653 0.0939245 0.0130305
v -0.0089683 0.0941822 0.0116240
v -0.0078450 0.0945462 0.0135105
v -0.0047760 0.0943140 0.0165396
v -0.0039729 0.0950000 0.0200184
v -0.0023768 0.0929326 0.0205647
v -0.0020341 0.0941210 0.0211279
v -0.0007386 0.0936218 0.0254359
v -0.0004267 0.0919669 0.0238397
v 0.0000036 0.0929877 0.0245726
v 0.0010265 0.0905521 0.0262731
v 0.0016710 0.0911549 0.0273539
v 0.0012453 0.0911468 0.0287696
v 0.0021936 0.0882233 0.0282404
v 0.0028621 0.0885347 0.0293740
v 0.0024815 0.0880398 0.0308527
v 0.0030275 0.0854104 0.0296443
v 0.0036773 0.0855703 0.0307431
v 0.0038243 0.0806548 0.0309839
v 0.0044468 0.0809666 0.0320294
v -0.0106100 0.0595406 0.0121008
v -0.0102156 0.0532890 0.0118631
v -0.0096702 0.0535367 0.0107592
v -0.0101441 0.0604353 0.0110723
v -0.0103333 0.0534417 0.0096937
v -0.0108165 0.0621263 0.0128906
v -0.0108962 0.0610342 0.0101162
v -0.0115419 0.0530991 0.0097322
v -0.0101901 0.0634428 0.0123105
v -0.0101177 0.0650810 0.0149151
v -0.0120215 0.0597174 0.0100212
v -0.0120873 0.0528515 0.0108361
v -0.0093336 0.0659320 0.0142952
v -0.0080986 0.0668183 0.0178496
v -0.0108406 0.0644485 0.0117234
v -0.0123064 0.0626806 0.0108829
v -0.0126308 0.0601072 0.0111939
v -0.0114242 0.0529464 0.0119016
v -0.0112201 0.0672325 0.0139401
v -0.0119819 0.0603370 0.0122767
v -0.0102156 0.0532890 0.0118631
v -0.0106100 0.0595406 0.0121008
v -0.0108165 0.0621263 0.0128906
v -0.0126890 0.0635570 0.0126234
v -0.0119181 0.0633275 0.0136940
v -0.0101177 0.0650810 0.0149151
v -0.0116948 0.0665712 0.0149864
v -0.0109441 0.0657795 0.0157816
v -0.0089519 0.0673994 0.0187175
v -0.0080986 0.0668183 0.0178496
v -0.0031041 0.0680493 0.0240729
v -0.0093774 0.0685636 0.0184230
v -0.0084965 0.0693366 0.0178878
v -0.0003705 0.0693539 0.0292000
v 0.0014431 0.0691703 0.0296059
v -0.0008220 0.0705341 0.0289045
v -0.0005469 0.0711834 0.0276757
v 0.0014073 0.0702731 0.0315593
v 0.0038292 0.0712879 0.0325540
v 0.0032418 0.0719220 0.0329697
v 0.0028407 0.0725716 0.0326217
v 0.0008665 0.0713782 0.0311291
v 0.0031840 0.0729812 0.0319783
v 0.0015521 0.0721523 0.0303402
v 0.0039285 0.0727411 0.0316829
v 0.0019513 0.0711434 0.0288483
v 0.0043296 0.0720914 0.0320309
v -0.0075007 0.0689003 0.0173094
v 0.0030327 0.0704858 0.0300128
v 0.0038292 0.0712879 0.0325540
v 0.0014431 0.0691703 0.0296059
v 0.0010823 0.0695703 0.0275817
v -0.0031041 0.0680493 0.0240729
v -0.0097288 0.0671626 0.0140701
v -0.0073684 0.0676308 0.0172152
v 0.0099570 0.0599628 0.0131046
v 0.0104855 0.0553472 0.0124309
v 0.0110717 0.0557879 0.0114110
v 0.0106569 0.0599183 0.0120801
v 0.0104276 0.0559815 0.0103501
v 0.0100152 0.0626475 0.0133268
v 0.0085173 0.0654159 0.0168680
v 0.0099975 0.0601821 0.0110439
v 0.0091973 0.0557342 0.0103092
v 0.0088611 0.0666651 0.0164625
v 0.0079071 0.0669281 0.0190323
v 0.0092800 0.0632262 0.0124755
v 0.0087697 0.0599231 0.0109989
v 0.0086111 0.0552935 0.0113292
v 0.0080767 0.0684538 0.0194505
v 0.0075261 0.0674953 0.0206388
v 0.0061459 0.0690074 0.0277784
v 0.0082014 0.0594004 0.0119900
v 0.0092552 0.0551000 0.0123900
v 0.0081193 0.0626732 0.0122433
v 0.0079270 0.0679219 0.0162709
v 0.0088608 0.0591367 0.0130262
v 0.0104855 0.0553472 0.0124309
v 0.0099570 0.0599628 0.0131046
v 0.0075782 0.0620401 0.0131922
v 0.0082367 0.0617891 0.0142614
v 0.0069611 0.0667475 0.0153816
v 0.0064392 0.0660241 0.0162721
v 0.0070336 0.0659033 0.0175332
v 0.0085173 0.0654159 0.0168680
v 0.0079071 0.0669281 0.0190323
v 0.0060822 0.0688656 0.0186653
v 0.0056673 0.0677783 0.0192326
v 0.0062385 0.0673018 0.0211064
v 0.0075261 0.0674953 0.0206388
v 0.0068929 0.0697040 0.0207349
v 0.0042996 0.0707749 0.0276316
v 0.0038562 0.0698124 0.0283709
v 0.0047005 0.0689313 0.0287283
v 0.0061459 0.0690074 0.0277784
v 0.0052286 0.0710168 0.0314541
v 0.0036794 0.0718123 0.0323813
v 0.0044220 0.0736432 0.0332047
v 0.0032080 0.0736539 0.0329173
v 0.0029226 0.0723221 0.0314154
v 0.0035751 0.0742983 0.0318358
v 0.0034550 0.0731264 0.0305123
v 0.0046942 0.0734670 0.0306019
v 0.0046100 0.0741334 0.0325733
v 0.0055084 0.0712360 0.0280124
v 0.0054588 0.0729620 0.0315317
v 0.0044220 0.0736432 0.0332047
v 0.0052286 0.0710168 0.0314541
v 0.0062558 0.0704782 0.0286137
v -0.0199233 0.0575404 0.0109626
v -0.0194391 0.0586911 0.0108078
v -0.0197946 0.0573891 0.0089493
v -0.0183969 0.0574153 0.0153722
v -0.0183151 0.0575160 0.0065197
v -0.0172709 0.0583732 0.0156247
v -0.0180830 0.0586941 0.0081697
v -0.0136890 0.0591993 0.0199116
v -0.0167038 0.0569640 0.0180331
v -0.0137616 0.0584137 0.0202006
v -0.0117240 0.0583147 0.0210963
v -0.0181974 0.0586603 0.0113824
v -0.0114090 0.0589706 0.0208492
v -0.0093467 0.0581889 0.0207274
v -0.0132932 0.0596518 0.0193007
v -0.0165626 0.0585284 0.0145478
v -0.0113216 0.0586936 0.0197683
v -0.0135546 0.0591746 0.0162570
v -0.0123932 0.0592385 0.0191363
v -0.0093890 0.0586163 0.0199162
v -0.0113681 0.0562748 0.0178575
v -0.0062890 0.0589476 0.0188001
v -0.0045649 0.0585665 0.0186482
v -0.0099820 0.0578194 0.0185551
v -0.0067807 0.0590864 0.0183457
v -0.0034041 0.0594183 0.0172675
v -0.0024761 0.0582684 0.0173778
v -0.0003984 0.0588810 0.0142858
v -0.0089535 0.0576141 0.0170488
v -0.0021237 0.0600053 0.0144014
v -0.0000387 0.0589988 0.0115954
v -0.0049017 0.0601483 0.0162185
v -0.0010445 0.0591170 0.0118794
v -0.0099631 0.0559914 0.0173234
v -0.0011738 0.0587767 0.0103266
v -0.0010070 0.0583984 0.0086852
v -0.0106647 0.0549860 0.0159811
v -0.0019725 0.0585982 0.0091799
v -0.0124652 0.0570401 0.0174315
v -0.0038060 0.0570781 0.0108646
v -0.0126291 0.0589069 0.0164964
v -0.0118754 0.0559353 0.0151530
v -0.0091944 0.0547379 0.0131847
v -0.0105037 0.0549153 0.0121510
v -0.0112797 0.0564476 0.0129685
v -0.0118924 0.0566334 0.0118737
v -0.0149100 0.0581627 0.0138246
v -0.0114210 0.0542987 0.0112196
v -0.0165652 0.0578720 0.0125956
v -0.0141380 0.0553250 0.0111587
v -0.0156551 0.0555845 0.0106155
v -0.0174861 0.0584241 0.0099010
v -0.0117389 0.0545403 0.0106241
v -0.0160234 0.0578127 0.0096082
v -0.0165790 0.0586232 0.0086772
v -0.0092421 0.0536043 0.0113977
v -0.0127099 0.0574980 0.0097882
v -0.0139829 0.0588117 0.0086167
v -0.0154299 0.0594613 0.0068230
v -0.0116649 0.0580677 0.0089433
v -0.0100572 0.0555575 0.0103427
v -0.0160736 0.0587314 0.0047654
v -0.0161854 0.0573691 0.0034949
v -0.0146938 0.0578866 0.0024412
v -0.0131806 0.0587195 0.0030219
v -0.0074818 0.0596330 0.0006034
v -0.0122275 0.0583260 0.0052463
v -0.0075828 0.0602993 0.0015274
v -0.0110557 0.0584655 0.0043895
v -0.0099862 0.0567159 0.0069963
v -0.0058352 0.0607711 0.0011999
v -0.0055439 0.0601506 0.0008666
v -0.0033535 0.0597140 0.0027795
v -0.0060086 0.0600916 0.0016300
v -0.0041537 0.0609963 0.0036187
v -0.0013738 0.0586444 0.0065722
v -0.0053744 0.0610346 0.0025910
v -0.0027363 0.0601755 0.0064307
v -0.0051487 0.0599754 0.0078019
v -0.0080290 0.0595318 0.0072938
v -0.0089214 0.0581575 0.0095289
v -0.0094043 0.0585973 0.0076486
v -0.0100240 0.0566068 0.0089608
v -0.0091965 0.0550382 0.0111492
v -0.0034434 0.0570415 0.0116935
v -0.0097322 0.0560083 0.0128679
v -0.0019530 0.0593453 0.0128168
v -0.0094374 0.0567425 0.0139311
v -0.0050189 0.0600921 0.0139663
v -0.0051423 0.0591256 0.0123848
v -0.0073836 0.0591772 0.0136753
v -0.0079016 0.0577078 0.0120028
v -0.0092626 0.0571197 0.0126274
v -0.0084919 0.0578733 0.0160390
v 0.0113741 0.0575404 0.0006475
v 0.0114861 0.0586911 0.0011434
v 0.0133685 0.0573891 0.0009513
v 0.0068483 0.0574153 0.0017838
v 0.0156600 0.0575160 0.0026369
v 0.0064986 0.0583732 0.0028836
v 0.0139959 0.0586941 0.0027243
v 0.0019158 0.0591993 0.0060782
v 0.0040499 0.0569640 0.0032386
v 0.0016342 0.0584137 0.0059807
v 0.0005643 0.0583147 0.0079325
v 0.0108055 0.0586603 0.0023303
v 0.0007831 0.0589706 0.0082678
v 0.0007246 0.0581889 0.0103328
v 0.0024898 0.0596518 0.0065257
v 0.0075096 0.0585284 0.0036830
v 0.0018522 0.0586936 0.0084491
v 0.0055448 0.0591746 0.0065306
v 0.0025752 0.0592385 0.0074366
v 0.0015364 0.0586163 0.0103614
v 0.0037598 0.0562748 0.0085693
v 0.0023781 0.0589476 0.0135469
v 0.0023792 0.0585665 0.0152777
v 0.0029440 0.0578194 0.0098893
v 0.0028737 0.0590864 0.0130966
v 0.0036535 0.0594183 0.0165544
v 0.0034627 0.0582684 0.0174692
v 0.0063618 0.0588810 0.0198086
v 0.0043550 0.0576141 0.0110452
v 0.0063970 0.0600053 0.0180797
v 0.0090106 0.0589988 0.0204014
v 0.0048290 0.0601483 0.0151539
v 0.0088154 0.0591170 0.0193746
v 0.0041695 0.0559914 0.0100155
v 0.0103736 0.0587767 0.0193812
v 0.0119942 0.0583984 0.0196904
v 0.0055678 0.0549860 0.0094335
v 0.0115855 0.0585982 0.0186854
v 0.0042798 0.0570401 0.0075135
v 0.0100670 0.0570781 0.0167121
v 0.0052257 0.0589069 0.0074317
v 0.0064982 0.0559353 0.0082997
v 0.0082253 0.0547379 0.0111419
v 0.0093692 0.0549153 0.0099277
v 0.0086225 0.0564476 0.0090835
v 0.0097665 0.0566334 0.0085685
v 0.0080861 0.0581627 0.0053924
v 0.0103770 0.0542987 0.0090952
v 0.0094547 0.0578720 0.0038506
v 0.0106745 0.0553250 0.0063938
v 0.0113479 0.0555845 0.0049298
v 0.0122192 0.0584241 0.0031681
v 0.0109980 0.0545403 0.0088304
v 0.0123834 0.0578127 0.0046507
v 0.0133593 0.0586232 0.0041783
v 0.0100097 0.0536043 0.0112502
v 0.0119154 0.0574980 0.0079358
v 0.0131933 0.0588117 0.0067699
v 0.0151063 0.0594613 0.0054846
v 0.0126660 0.0580677 0.0090506
v 0.0111317 0.0555575 0.0105301
v 0.0172122 0.0587314 0.0050228
v 0.0184876 0.0573691 0.0050221
v 0.0194073 0.0578866 0.0065998
v 0.0186969 0.0587195 0.0080567
v 0.0206096 0.0596330 0.0139446
v 0.0163979 0.0583260 0.0088123
v 0.0196979 0.0602993 0.0137635
v 0.0171493 0.0584655 0.0100543
v 0.0144592 0.0567159 0.0108925
v 0.0198718 0.0607711 0.0155330
v 0.0201785 0.0601506 0.0158521
v 0.0180819 0.0597140 0.0178676
v 0.0194584 0.0600916 0.0153227
v 0.0173156 0.0609963 0.0169973
v 0.0141310 0.0586444 0.0195091
v 0.0184458 0.0610346 0.0158708
v 0.0143908 0.0601755 0.0181641
v 0.0132351 0.0599754 0.0156415
v 0.0139923 0.0595318 0.0128164
v 0.0118434 0.0581575 0.0117326
v 0.0137587 0.0585973 0.0114154
v 0.0125055 0.0566068 0.0106837
v 0.0102533 0.0550382 0.0113173
v 0.0092097 0.0570415 0.0170011
v 0.0085879 0.0560083 0.0106338
v 0.0079607 0.0593453 0.0183879
v 0.0075030 0.0567425 0.0108348
v 0.0070829 0.0600921 0.0152335
v 0.0086690 0.0591256 0.0152484
v 0.0075788 0.0591772 0.0129031
v 0.0092901 0.0577078 0.0125329
v 0.0087865 0.0571197 0.0111226
v 0.0053207 0.0578733 0.0115931
v -0.0094495 0.0575404 0.0315547
v -0.0090475 0.0586911 0.0312436
v -0.0100171 0.0573891 0.0296188
v -0.0065070 0.0574153 0.0351763
v -0.0094579 0.0575160 0.0268297
v -0.0053625 0.0583732 0.0350284
v -0.0086754 0.0586941 0.0283008
v -0.0005305 0.0591993 0.0378317
v -0.0040059 0.0569640 0.0370977
v -0.0004998 0.0584137 0.0381281
v 0.0017212 0.0583147 0.0382729
v -0.0076841 0.0586603 0.0313589
v 0.0019327 0.0589706 0.0379330
v 0.0038290 0.0581889 0.0371132
v -0.0003674 0.0596518 0.0371223
v -0.0050653 0.0585284 0.0337742
v 0.0016452 0.0586936 0.0368873
v -0.0016541 0.0591746 0.0343515
v 0.0004220 0.0592385 0.0366600
v 0.0035118 0.0586163 0.0363654
v 0.0009479 0.0562748 0.0351077
v 0.0060431 0.0589476 0.0342563
v 0.0076113 0.0585665 0.0335239
v 0.0024890 0.0578194 0.0352892
v 0.0054256 0.0590864 0.0339975
v 0.0082298 0.0594183 0.0318294
v 0.0091396 0.0582684 0.0316157
v 0.0100345 0.0588810 0.0279996
v 0.0029404 0.0576141 0.0335219
v 0.0084528 0.0600053 0.0286983
v 0.0094524 0.0589988 0.0253484
v 0.0064638 0.0601483 0.0313559
v 0.0086043 0.0591170 0.0259593
v 0.0020855 0.0559914 0.0341252
v 0.0079518 0.0587767 0.0245443
v 0.0075471 0.0583984 0.0229448
v 0.0009671 0.0549860 0.0331039
v 0.0068090 0.0585982 0.0237400
v -0.0002287 0.0570401 0.0350826
v 0.0056623 0.0570781 0.0259501
v -0.0007025 0.0589069 0.0342599
v -0.0004537 0.0559353 0.0327398
v 0.0013923 0.0547379 0.0299733
v -0.0001916 0.0549153 0.0294497
v -0.0006411 0.0564476 0.0304833
v -0.0015913 0.0566334 0.0296641
v -0.0037597 0.0581627 0.0325294
v -0.0013720 0.0542987 0.0288882
v -0.0057354 0.0578720 0.0319406
v -0.0039460 0.0553250 0.0297603
v -0.0055574 0.0555845 0.0297687
v -0.0075223 0.0584241 0.0297235
v -0.0018744 0.0545403 0.0284373
v -0.0062480 0.0578127 0.0289481
v -0.0070885 0.0586232 0.0282633
v 0.0007363 0.0536043 0.0283104
v -0.0030729 0.0574980 0.0279840
v -0.0046697 0.0588117 0.0273185
v -0.0066430 0.0594613 0.0261279
v -0.0023798 0.0580677 0.0268326
v -0.0003905 0.0555575 0.0275978
v -0.0079515 0.0587314 0.0244145
v -0.0084912 0.0573691 0.0232589
v -0.0074499 0.0578866 0.0217586
v -0.0058293 0.0587195 0.0217867
v -0.0013014 0.0596330 0.0175649
v -0.0041729 0.0583260 0.0235510
v -0.0010802 0.0602993 0.0184678
v -0.0033648 0.0584655 0.0223451
v -0.0014682 0.0567159 0.0244289
v 0.0004500 0.0607711 0.0175623
v 0.0006096 0.0601506 0.0171495
v 0.0033223 0.0597140 0.0181979
v 0.0004341 0.0600916 0.0180258
v 0.0028573 0.0609963 0.0192601
v 0.0064796 0.0586445 0.0210847
v 0.0013588 0.0610346 0.0187119
v 0.0051510 0.0601755 0.0214178
v 0.0033531 0.0599754 0.0235314
v 0.0004727 0.0595318 0.0240390
v 0.0003986 0.0581575 0.0264446
v -0.0006983 0.0585973 0.0248428
v -0.0008318 0.0566068 0.0262879
v 0.0006942 0.0550382 0.0280612
v 0.0062865 0.0570415 0.0266050
v 0.0007786 0.0560083 0.0298595
v 0.0080712 0.0593453 0.0271509
v 0.0014193 0.0567425 0.0307578
v 0.0055834 0.0600921 0.0292796
v 0.0049265 0.0591256 0.0278357
v 0.0032617 0.0591772 0.0298150
v 0.0022030 0.0577078 0.0284205
v 0.0011377 0.0571197 0.0294729
v 0.0030288 0.0578733 0.0324152
v 0.0004826 -0.0918237 0.0116838
v 0.0000672 -0.0933587 0.0119842
v -0.0000200 -0.0907785 0.0083243
v 0.0002073 -0.0916532 0.0139627
v -0.0016660 -0.0914610 0.0054338
v -0.0000149 -0.0928918 0.0140344
v -0.0008251 -0.0915630 0.0155988
v -0.0022436 -0.0923712 0.0064408
v -0.0017213 -0.0926196 0.0157520
v -0.0013896 -0.0924593 0.0141138
v -0.0032968 -0.0924970 0.0172622
v -0.0040889 -0.0916422 0.0186623
v -0.0070585 -0.0938432 0.0186222
v -0.0080773 -0.0929465 0.0201834
v -0.0050167 -0.0930822 0.0169807
v -0.0040315 -0.0916166 0.0145419
v -0.0109416 -0.0937180 0.0197968
v -0.0115458 -0.0924631 0.0208324
v -0.0139616 -0.0925435 0.0198009
v -0.0098931 -0.0939932 0.0181598
v -0.0134563 -0.0930308 0.0189779
v -0.0162141 -0.0919965 0.0175717
v -0.0081895 -0.0940461 0.0163733
v -0.0098695 -0.0936068 0.0153933
v -0.0075428 -0.0926081 0.0138077
v -0.0059316 -0.0915626 0.0141429
v -0.0118473 -0.0928922 0.0185872
v -0.0090415 -0.0904711 0.0117937
v -0.0102778 -0.0926147 0.0146466
v -0.0078753 -0.0903964 0.0119296
v -0.0100709 -0.0895820 0.0120460
v -0.0095009 -0.0884721 0.0110102
v -0.0084049 -0.0883991 0.0120657
v -0.0058221 -0.0893359 0.0134577
v -0.0030682 -0.0899759 0.0131673
v -0.0043380 -0.0891072 0.0122747
v -0.0019071 -0.0912977 0.0121385
v -0.0011507 -0.0932845 0.0123919
v -0.0040808 -0.0902598 0.0110681
v -0.0016329 -0.0934286 0.0108183
v -0.0025842 -0.0930444 0.0113599
v -0.0081612 -0.0889171 0.0107582
v -0.0053654 -0.0913630 0.0106037
v -0.0078026 -0.0904975 0.0095925
v -0.0050284 -0.0923184 0.0094191
v -0.0088821 -0.0879016 0.0115572
v -0.0085521 -0.0883614 0.0081048
v -0.0035278 -0.0923851 0.0066342
v -0.0051582 -0.0915768 0.0069765
v -0.0050604 -0.0917318 0.0054658
v -0.0052571 -0.0924095 0.0040479
v -0.0073533 -0.0891391 0.0059769
v -0.0051194 -0.0926303 0.0025838
v -0.0046991 -0.0912523 0.0019846
v -0.0067575 -0.0923169 0.0036081
v -0.0078218 -0.0913660 0.0049847
v -0.0065700 -0.0924377 0.0016104
v -0.0071304 -0.0913467 0.0010264
v -0.0082087 -0.0923559 0.0042505
v -0.0085761 -0.0926692 0.0025421
v -0.0120811 -0.0925297 0.0022109
v -0.0132199 -0.0917276 0.0017215
v -0.0100846 -0.0933167 0.0045832
v -0.0155672 -0.0926185 0.0040810
v -0.0159513 -0.0917135 0.0033680
v -0.0196086 -0.0928378 0.0073452
v -0.0127573 -0.0928157 0.0035223
v -0.0190010 -0.0936617 0.0071376
v -0.0204562 -0.0940120 0.0095309
v -0.0150566 -0.0927059 0.0050116
v -0.0195322 -0.0944525 0.0089288
v -0.0130733 -0.0923410 0.0057488
v -0.0145141 -0.0923353 0.0063266
v -0.0193189 -0.0950000 0.0105680
v -0.0200507 -0.0944755 0.0113409
v -0.0149272 -0.0912909 0.0091248
v -0.0134386 -0.0912355 0.0080330
v -0.0111047 -0.0918705 0.0082999
v -0.0126412 -0.0899434 0.0097065
v -0.0151145 -0.0920678 0.0098675
v -0.0138711 -0.0926415 0.0094989
v -0.0112849 -0.0905950 0.0096875
v -0.0133306 -0.0931739 0.0101150
v -0.0097946 -0.0920911 0.0076562
v -0.0102844 -0.0897753 0.0102843
v -0.0111286 -0.0919131 0.0110023
v -0.0156506 -0.0944781 0.0139740
v -0.0112822 -0.0903014 0.0140777
v -0.0176646 -0.0943206 0.0141161
v -0.0188522 -0.0934241 0.0140334
v -0.0152518 -0.0925432 0.0170462
v -0.0133064 -0.0921451 0.0151594
v -0.0138137 -0.0920599 0.0170852
v -0.0125734 -0.0911351 0.0170790
v -0.0116365 -0.0912174 0.0167140
v 0.0088772 -0.0918237 0.0209130
v 0.0086141 -0.0933587 0.0204730
v 0.0122677 -0.0907785 0.0207051
v 0.0066309 -0.0916532 0.0204401
v 0.0152906 -0.0914610 0.0193173
v 0.0065788 -0.0928918 0.0202126
v 0.0050910 -0.0915630 0.0192690
v 0.0143378 -0.0923712 0.0186541
v 0.0050165 -0.0926196 0.0183630
v 0.0066195 -0.0924593 0.0188361
v 0.0036494 -0.0924970 0.0166618
v 0.0023236 -0.0916422 0.0157507
v 0.0026224 -0.0938432 0.0127959
v 0.0011559 -0.0929465 0.0116449
v 0.0040797 -0.0930822 0.0149730
v 0.0064233 -0.0916166 0.0161670
v 0.0017907 -0.0937180 0.0088252
v 0.0008117 -0.0924631 0.0081331
v 0.0020498 -0.0925435 0.0058163
v 0.0033301 -0.0939932 0.0100124
v 0.0028256 -0.0930308 0.0063914
v 0.0044669 -0.0919965 0.0037667
v 0.0049613 -0.0940461 0.0118652
v 0.0060840 -0.0936068 0.0102770
v 0.0074608 -0.0926081 0.0127330
v 0.0069864 -0.0915626 0.0143089
v 0.0030746 -0.0928922 0.0080283
v 0.0095977 -0.0904711 0.0114156
v 0.0068635 -0.0926147 0.0099354
v 0.0093607 -0.0903964 0.0125655
v 0.0094362 -0.0895820 0.0103681
v 0.0104183 -0.0884721 0.0110262
v 0.0092712 -0.0883991 0.0120260
v 0.0076594 -0.0893359 0.0144777
v 0.0077088 -0.0899759 0.0172464
v 0.0087087 -0.0891072 0.0160593
v 0.0086324 -0.0912977 0.0184928
v 0.0083141 -0.0932845 0.0192242
v 0.0098882 -0.0902598 0.0164207
v 0.0099237 -0.0934286 0.0188810
v 0.0094671 -0.0930444 0.0178861
v 0.0105526 -0.0889171 0.0123828
v 0.0104628 -0.0913630 0.0151814
v 0.0116826 -0.0904975 0.0128416
v 0.0116135 -0.0923184 0.0156203
v 0.0098194 -0.0879016 0.0115950
v 0.0132300 -0.0883614 0.0122246
v 0.0142570 -0.0923851 0.0173579
v 0.0140582 -0.0915768 0.0157039
v 0.0155546 -0.0917318 0.0159330
v 0.0169842 -0.0924095 0.0158606
v 0.0152452 -0.0891391 0.0136043
v 0.0184308 -0.0926303 0.0161254
v 0.0189911 -0.0912523 0.0165964
v 0.0175531 -0.0923169 0.0144043
v 0.0162745 -0.0913660 0.0132241
v 0.0195269 -0.0924377 0.0147652
v 0.0201575 -0.0913467 0.0142578
v 0.0170396 -0.0923559 0.0129027
v 0.0187736 -0.0926692 0.0126855
v 0.0194090 -0.0925297 0.0092228
v 0.0199961 -0.0917287 0.0081239
v 0.0168717 -0.0933167 0.0110049
v 0.0178498 -0.0926185 0.0055869
v 0.0185936 -0.0917135 0.0052665
v 0.0149503 -0.0928378 0.0012763
v 0.0181615 -0.0928157 0.0084348
v 0.0151042 -0.0936617 0.0018998
v 0.0128468 -0.0940120 0.0002415
v 0.0168783 -0.0927059 0.0060145
v 0.0133660 -0.0944525 0.0012145
v 0.0159710 -0.0923410 0.0079259
v 0.0155210 -0.0923353 0.0064403
v 0.0117145 -0.0950000 0.0012841
v 0.0110084 -0.0944755 0.0004877
v 0.0127695 -0.0912909 0.0057849
v 0.0137274 -0.0912355 0.0073629
v 0.0132580 -0.0918705 0.0096647
v 0.0119907 -0.0899434 0.0080114
v 0.0120459 -0.0920678 0.0055336
v 0.0123047 -0.0926415 0.0068044
v 0.0118915 -0.0905950 0.0093643
v 0.0116439 -0.0931739 0.0072891
v 0.0137851 -0.0920911 0.0110260
v 0.0112097 -0.0897753 0.0103089
v 0.0105680 -0.0919131 0.0094054
v 0.0080018 -0.0944781 0.0046416
v 0.0075177 -0.0903014 0.0089843
v 0.0080358 -0.0943206 0.0026229
v 0.0082216 -0.0934241 0.0014470
v 0.0049065 -0.0925432 0.0047711
v 0.0066166 -0.0921451 0.0068735
v 0.0047423 -0.0920599 0.0062004
v 0.0046404 -0.0911351 0.0074364
v 0.0049223 -0.0912174 0.0084016
v 0.0099724 -0.0918237 0.0252531
v 0.0096848 -0.0933587 0.0256775
v 0.0083511 -0.0907785 0.0222681
v 0.0104931 -0.0916532 0.0274888
v 0.0058157 -0.0914610 0.0201149
v 0.0103089 -0.0928918 0.0276322
v 0.0100826 -0.0915630 0.0293793
v 0.0056174 -0.0923712 0.0212588
v 0.0092929 -0.0926196 0.0298298
v 0.0090442 -0.0924593 0.0281770
v 0.0083289 -0.0924970 0.0317878
v 0.0080634 -0.0916422 0.0333744
v 0.0052592 -0.0938432 0.0343523
v 0.0048358 -0.0929465 0.0361679
v 0.0066164 -0.0930822 0.0321115
v 0.0067081 -0.0916166 0.0294828
v 0.0020120 -0.0937180 0.0367842
v 0.0017984 -0.0924631 0.0379639
v -0.0008245 -0.0925435 0.0378209
v 0.0024374 -0.0939932 0.0348873
v -0.0006311 -0.0930308 0.0368747
v -0.0037036 -0.0919965 0.0364966
v 0.0034273 -0.0940461 0.0326259
v 0.0015133 -0.0936067 0.0322795
v 0.0031574 -0.0926081 0.0299938
v 0.0047861 -0.0915626 0.0297577
v 0.0007472 -0.0928922 0.0359573
v 0.0010603 -0.0904711 0.0286139
v 0.0008743 -0.0926147 0.0317175
v 0.0022027 -0.0903964 0.0283427
v 0.0001793 -0.0895820 0.0292029
v 0.0003606 -0.0884721 0.0280347
v 0.0017516 -0.0883991 0.0286517
v 0.0046547 -0.0893359 0.0290764
v 0.0071431 -0.0899759 0.0278616
v 0.0056447 -0.0891072 0.0274571
v 0.0078824 -0.0912977 0.0264977
v 0.0086798 -0.0932845 0.0264771
v 0.0054737 -0.0902598 0.0262354
v 0.0076885 -0.0934286 0.0251634
v 0.0069798 -0.0930444 0.0259977
v 0.0015334 -0.0889171 0.0273397
v 0.0041076 -0.0913630 0.0262383
v 0.0014716 -0.0904975 0.0261216
v 0.0040192 -0.0923184 0.0250099
v 0.0011292 -0.0879016 0.0283371
v 0.0002585 -0.0883614 0.0249800
v 0.0044768 -0.0923851 0.0218797
v 0.0030618 -0.0915768 0.0227590
v 0.0026370 -0.0917318 0.0213059
v 0.0019672 -0.0924095 0.0200408
v 0.0006572 -0.0891391 0.0225705
v 0.0015958 -0.0926303 0.0186180
v 0.0017859 -0.0912523 0.0179111
v 0.0004069 -0.0923169 0.0201407
v -0.0001224 -0.0913660 0.0217983
v -0.0001002 -0.0924377 0.0181994
v -0.0008265 -0.0913467 0.0178423
v -0.0007370 -0.0923559 0.0212407
v -0.0016666 -0.0926692 0.0197610
v -0.0050735 -0.0925297 0.0206485
v -0.0063177 -0.0917287 0.0205810
v -0.0023860 -0.0933167 0.0221950
v -0.0077097 -0.0926185 0.0235982
v -0.0083145 -0.0917135 0.0230595
v -0.0103911 -0.0928378 0.0280478
v -0.0052604 -0.0928157 0.0221121
v -0.0098910 -0.0936617 0.0276449
v -0.0104399 -0.0940120 0.0303915
v -0.0069117 -0.0927059 0.0242981
v -0.0097775 -0.0944525 0.0295098
v -0.0047959 -0.0923410 0.0243125
v -0.0059522 -0.0923353 0.0253482
v -0.0090165 -0.0950000 0.0309772
v -0.0094399 -0.0944755 0.0319537
v -0.0053833 -0.0912909 0.0281189
v -0.0043579 -0.0912355 0.0265838
v -0.0020735 -0.0918705 0.0260365
v -0.0030362 -0.0899434 0.0278837
v -0.0053053 -0.0920678 0.0288809
v -0.0042629 -0.0926415 0.0281093
v -0.0017682 -0.0905950 0.0274019
v -0.0035443 -0.0931739 0.0285033
v -0.0010624 -0.0920911 0.0249835
v -0.0006239 -0.0897753 0.0276206
v -0.0011716 -0.0919131 0.0285840
v -0.0044045 -0.0944781 0.0329231
v -0.0002641 -0.0903014 0.0315265
v -0.0062485 -0.0943206 0.0337454
v -0.0073927 -0.0934241 0.0340739
v -0.0029790 -0.0925432 0.0356737
v -0.0017963 -0.0921451 0.0332353
v -0.0016143 -0.0920599 0.0352184
v -0.0004510 -0.0911351 0.0347884
v 0.0003047 -0.0912174 0.0341250
f 1 2 3
f 4 5 6
f 7 8 9
f 10 11 12
f 12 13 10
f 13 12 14
f 14 15 13
f 15 14 16
f 16 17 15
f 17 16 18
f 18 19 17
f 19 18 20
f 20 21 19
f 21 20 22
f 22 23 21
f 23 22 24
f 24 25 23
f 25 24 26
f 26 27 25
f 27 26 28
f 28 29 27
f 29 28 30
f 30 31 29
f 31 30 32
f 32 33 31
f 33 32 34
f 34 35 33
f 35 34 36
f 36 37 35
f 37 36 38
f 38 39 37
f 39 38 40
f 40 41 39
f 41 40 42
f 42 43 41
f 43 42 44
f 44 45 43
f 46 47 48
f 48 49 46
f 49 48 50
f 50 51 49
f 51 50 52
f 52 53 51
f 53 52 54
f 54 55 53
f 55 54 56
f 56 57 55
f 57 56 58
f 58 59 57
f 59 58 60
f 60 61 59
f 61 60 62
f 62 63 61
f 63 62 64
f 64 65 63
f 65 64 66
f 66 67 65
f 67 66 68
f 68 69 67
f 69 68 70
f 70 71 69
f 71 70 72
f 72 73 71
f 73 72 74
f 74 75 73
f 75 74 76
f 76 77 75
f 77 76 78
f 78 79 77
f 79 78 80
f 80 81 79
f 82 83 84
f 84 85 82
f 86 82 85
f 85 87 86
f 88 86 87
f 87 89 88
f 90 88 89
f 89 91 90
f 92 90 91
f 91 93 92
f 94 92 93
f 93 95 94
f 96 94 95
f 95 97 96
f 98 96 97
f 97 99 98
f 100 98 99
f 99 101 100
f 102 100 101
f 101 103 102
f 104 102 103
f 103 105 104
f 106 104 105
f 105 107 106
f 108 106 107
f 107 109 108
f 110 108 109
f 109 111 110
f 112 110 111
f 111 113 112
f 114 112 113
f 113 115 114
f 116 114 115
f 115 117 116
f 118 119 120
f 120 121 118
f 122 118 121
f 121 123 122
f 124 122 123
f 123 125 124
f 126 124 125
f 125 127 126
f 128 126 127
f 127 129 128
f 130 128 129
f 129 131 130
f 132 130 131
f 131 133 132
f 134 132 133
f 133 135 134
f 136 134 135
f 135 137 136
f 138 136 137
f 137 139 138
f 140 138 139
f 139 141 140
f 142 140 141
f 141 143 142
f 144 142 143
f 143 145 144
f 146 144 145
f 145 147 146
f 148 146 147
f 147 149 148
f 150 148 149
f 149 151 150
f 152 150 151
f 151 153 152
f 154 155 156
f 156 157 154
f 158 154 157
f 157 159 158
f 160 158 159
f 159 161 160
f 162 160 161
f 161 163 162
f 164 162 163
f 163 165 164
f 166 164 165
f 165 167 166
f 168 166 167
f 167 169 168
f 170 168 169
f 169 171 170
f 172 170 171
f 171 173 172
f 174 172 173
f 173 175 174
f 176 174 175
f 175 177 176
f 178 176 177
f 177 179 178
f 180 178 179
f 179 181 180
f 182 180 181
f 181 183 182
f 184 182 183
f 183 185 184
f 186 184 185
f 185 187 186
f 188 186 187
f 187 189 188
f 190 191 192
f 192 193 190
f 194 190 193
f 193 195 194
f 196 194 195
f 195 197 196
f 198 196 197
f 197 199 198
f 200 198 199
f 199 201 200
f 202 200 201
f 201 203 202
f 204 202 203
f 203 205 204
f 206 204 205
f 205 207 206
f 208 206 207
f 207 209 208
f 210 208 209
f 209 211 210
f 212 210 211
f 211 213 212
f 214 212 213
f 213 215 214
f 216 214 215
f 215 217 216
f 218 216 217
f 217 219 218
f 220 218 219
f 219 221 220
f 222 220 221
f 221 223 222
f 224 222 223
f 223 225 224
f 226 227 228
f 228 229 226
f 230 226 229
f 229 231 230
f 232 230 231
f 231 233 232
f 234 232 233
f 233 235 234
f 236 234 235
f 235 237 236
f 238 236 237
f 237 239 238
f 240 238 239
f 239 241 240
f 242 240 241
f 241 243 242
f 244 242 243
f 243 245 244
f 246 244 245
f 245 247 246
f 248 246 247
f 247 249 248
f 250 248 249
f 249 251 250
f 252 250 251
f 251 253 252
f 254 252 253
f 253 255 254
f 256 254 255
f 255 257 256
f 258 256 257
f 257 259 258
f 260 258 259
f 259 261 260
f 262 263 264
f 264 265 262
f 266 262 265
f 265 267 266
f 268 266 267
f 267 269 268
f 270 268 269
f 269 271 270
f 272 270 271
f 271 273 272
f 274 272 273
f 273 275 274
f 276 274 275
f 275 277 276
f 278 276 277
f 277 279 278
f 280 278 279
f 279 281 280
f 282 280 281
f 281 283 282
f 284 282 283
f 283 285 284
f 286 284 285
f 285 287 286
f 288 286 287
f 287 289 288
f 290 288 289
f 289 291 290
f 292 290 291
f 291 293 292
f 294 292 293
f 293 295 294
f 296 294 295
f 295 297 296
f 298 299 300
f 301 298 300
f 300 302 301
f 303 302 300
f 304 305 306
f 304 306 307
f 308 304 307
f 306 309 307
f 310 308 307
f 310 311 308
f 307 309 312
f 309 313 312
f 311 310 314
f 314 315 311
f 315 314 316
f 317 314 310
f 310 307 317
f 316 314 318
f 319 316 318
f 320 319 318
f 314 317 320
f 320 318 314
f 320 321 319
f 322 321 320
f 323 317 307
f 323 320 317
f 322 320 324
f 323 324 320
f 324 323 325
f 325 307 312
f 307 325 323
f 326 325 312
f 325 326 324
f 324 327 322
f 322 327 328
f 327 329 328
f 327 324 330
f 330 324 326
f 327 331 329
f 329 331 332
f 331 327 333
f 333 327 330
f 326 334 330
f 333 330 334
f 334 326 312
f 332 331 335
f 332 335 336
f 313 337 312
f 334 312 337
f 334 337 338
f 313 338 337
f 339 334 338
f 334 339 333
f 340 339 338
f 340 338 341
f 342 333 339
f 340 341 343
f 339 343 342
f 343 339 340
f 342 344 333
f 344 331 333
f 344 335 331
f 345 342 343
f 345 344 342
f 346 344 345
f 346 335 344
f 346 345 347
f 343 347 345
f 341 348 343
f 347 343 348
f 341 349 348
f 349 350 348
f 347 351 346
f 351 347 348
f 351 348 352
f 348 350 352
f 352 350 353
f 354 346 351
f 351 352 354
f 355 346 354
f 336 335 355
f 355 335 346
f 336 355 356
f 355 354 357
f 356 355 357
f 357 358 356
f 359 357 354
f 359 354 352
f 359 360 357
f 360 358 357
f 360 361 358
f 352 353 362
f 352 362 359
f 362 353 363
f 363 364 362
f 361 360 365
f 366 361 365
f 367 365 360
f 368 365 367
f 366 365 368
f 369 367 360
f 369 360 359
f 369 370 367
f 370 368 367
f 371 368 370
f 371 366 368
f 371 372 366
f 373 372 371
f 359 374 369
f 374 359 362
f 370 369 375
f 374 375 369
f 375 374 376
f 376 362 364
f 362 376 374
f 376 364 377
f 376 377 375
f 375 378 370
f 378 375 377
f 377 379 378
f 364 379 377
f 364 380 379
f 381 378 379
f 381 371 370
f 381 370 378
f 379 380 382
f 379 382 381
f 380 383 382
f 384 381 382
f 384 373 371
f 381 384 371
f 385 384 382
f 382 383 385
f 383 386 385
f 387 373 384
f 384 385 387
f 388 373 387
f 386 389 385
f 386 390 389
f 391 388 387
f 391 387 385
f 392 385 389
f 385 392 391
f 391 393 388
f 393 391 392
f 388 393 394
f 394 393 395
f 392 396 393
f 392 389 396
f 397 393 396
f 395 393 397
f 395 397 398
f 396 389 399
f 390 399 389
f 400 396 399
f 399 401 400
f 390 401 399
f 390 402 401
f 401 402 403
f 404 396 400
f 396 404 397
f 404 400 405
f 401 405 400
f 401 406 405
f 401 403 406
f 406 403 407
f 407 408 409
f 407 410 406
f 407 409 410
f 411 410 409
f 405 406 411
f 406 410 411
f 411 409 412
f 412 413 411
f 411 413 414
f 415 405 411
f 414 416 411
f 415 411 416
f 414 417 416
f 405 418 404
f 418 405 415
f 416 419 415
f 418 415 419
f 404 418 420
f 419 420 418
f 420 397 404
f 420 421 397
f 421 419 416
f 398 397 421
f 421 420 419
f 398 421 422
f 417 422 416
f 422 421 416
f 422 423 398
f 417 423 422
f 424 425 426
f 424 426 427
f 428 424 427
f 426 429 427
f 430 428 427
f 430 431 428
f 427 429 432
f 429 433 432
f 430 427 434
f 434 427 432
f 431 430 435
f 435 436 431
f 436 435 437
f 438 435 430
f 434 438 430
f 437 435 439
f 440 437 439
f 441 440 439
f 435 438 441
f 441 439 435
f 441 442 440
f 443 442 441
f 438 444 441
f 443 441 444
f 444 438 434
f 444 445 443
f 443 445 446
f 445 447 446
f 448 434 432
f 434 448 444
f 449 444 448
f 445 444 449
f 445 450 447
f 447 450 451
f 450 445 452
f 452 445 449
f 453 448 432
f 452 449 453
f 448 453 449
f 453 432 454
f 433 454 432
f 453 454 455
f 433 455 454
f 453 456 452
f 456 453 455
f 457 456 455
f 457 455 458
f 459 456 457
f 457 458 459
f 459 452 456
f 458 460 459
f 458 461 460
f 461 462 460
f 452 459 463
f 460 462 464
f 464 462 465
f 463 466 452
f 466 450 452
f 467 466 463
f 467 463 459
f 468 459 460
f 459 468 467
f 469 467 468
f 469 466 467
f 466 470 450
f 469 470 466
f 451 450 470
f 451 470 471
f 468 472 469
f 472 460 464
f 472 468 460
f 473 470 469
f 471 470 473
f 471 473 474
f 475 469 472
f 473 469 475
f 472 464 475
f 473 475 476
f 474 473 476
f 476 477 474
f 478 476 475
f 478 475 464
f 479 477 476
f 478 479 476
f 479 480 477
f 464 465 481
f 464 481 478
f 481 465 482
f 482 483 481
f 480 479 484
f 485 480 484
f 486 484 479
f 485 484 487
f 487 484 486
f 488 479 478
f 488 486 479
f 488 489 486
f 489 487 486
f 490 487 489
f 490 485 487
f 490 491 485
f 492 491 490
f 493 478 481
f 478 493 488
f 489 488 494
f 493 494 488
f 481 495 493
f 494 493 495
f 495 481 483
f 494 496 489
f 495 497 494
f 496 494 497
f 495 483 497
f 483 498 497
f 499 490 489
f 499 489 496
f 500 496 497
f 496 500 499
f 501 500 497
f 497 498 501
f 498 502 501
f 499 503 490
f 500 501 503
f 503 492 490
f 503 499 500
f 504 492 503
f 504 503 501
f 505 492 504
f 501 506 504
f 501 502 506
f 502 507 506
f 508 504 506
f 508 505 504
f 508 509 505
f 505 509 510
f 510 509 511
f 509 508 512
f 506 512 508
f 512 506 513
f 507 513 506
f 507 514 513
f 512 513 515
f 512 515 509
f 511 509 516
f 516 509 515
f 511 516 517
f 514 518 513
f 515 513 518
f 519 515 518
f 518 520 519
f 514 520 518
f 514 521 520
f 520 521 522
f 515 523 516
f 523 515 519
f 523 519 524
f 520 524 519
f 520 525 524
f 520 522 525
f 525 522 526
f 526 527 528
f 526 528 529
f 526 529 525
f 530 529 528
f 524 525 530
f 525 529 530
f 530 528 531
f 531 532 530
f 530 532 533
f 534 524 530
f 534 530 535
f 533 535 530
f 533 536 535
f 524 537 523
f 537 524 534
f 537 534 538
f 535 538 534
f 538 539 537
f 539 516 523
f 523 537 539
f 539 540 516
f 540 538 535
f 517 516 540
f 540 539 538
f 541 540 535
f 517 540 541
f 536 541 535
f 536 542 541
f 541 542 517
f 543 544 545
f 543 545 546
f 547 543 546
f 545 548 546
f 549 547 546
f 549 550 547
f 546 548 551
f 548 552 551
f 553 546 551
f 546 553 549
f 550 549 554
f 554 555 550
f 555 554 556
f 557 554 549
f 549 553 557
f 556 554 558
f 559 556 558
f 560 559 558
f 554 557 560
f 560 558 554
f 560 561 559
f 562 561 560
f 563 557 553
f 563 560 557
f 563 564 560
f 562 560 564
f 563 565 564
f 565 553 551
f 565 563 553
f 564 566 562
f 562 566 567
f 566 568 567
f 566 564 569
f 569 564 565
f 565 570 569
f 570 565 551
f 566 571 568
f 568 571 572
f 573 566 569
f 571 566 573
f 573 569 570
f 572 571 574
f 572 574 575
f 576 571 573
f 575 574 577
f 575 577 578
f 579 574 571
f 577 574 579
f 579 571 580
f 580 571 576
f 578 577 581
f 581 582 578
f 577 583 581
f 577 579 583
f 584 582 581
f 584 585 582
f 586 584 581
f 586 581 583
f 585 584 587
f 588 585 587
f 589 587 584
f 590 587 589
f 588 587 590
f 591 589 584
f 591 584 586
f 591 592 589
f 592 590 589
f 593 590 592
f 593 588 590
f 593 594 588
f 595 594 593
f 592 591 596
f 597 593 592
f 597 592 596
f 597 598 593
f 598 595 593
f 586 599 591
f 599 596 591
f 597 596 600
f 599 601 596
f 601 600 596
f 602 601 599
f 599 586 602
f 598 597 603
f 600 603 597
f 601 602 604
f 604 600 601
f 604 605 600
f 606 604 602
f 602 607 606
f 608 603 600
f 603 608 598
f 600 605 608
f 605 609 608
f 610 607 602
f 610 602 586
f 586 583 610
f 610 611 607
f 612 611 610
f 613 611 612
f 614 612 610
f 583 579 614
f 614 610 583
f 615 613 612
f 616 614 579
f 614 616 612
f 579 580 616
f 617 616 580
f 615 612 617
f 580 576 617
f 573 617 576
f 616 617 612
f 618 615 617
f 618 619 615
f 617 620 618
f 618 620 619
f 570 620 573
f 620 570 619
f 617 573 620
f 570 621 619
f 570 551 621
f 552 619 621
f 552 621 551
f 622 598 608
f 622 595 598
f 623 595 622
f 608 609 624
f 608 624 622
f 609 625 624
f 626 623 622
f 626 622 624
f 625 627 624
f 625 628 627
f 629 624 627
f 624 629 626
f 626 630 623
f 623 630 631
f 631 630 632
f 633 626 629
f 626 633 630
f 629 627 633
f 634 630 633
f 632 630 634
f 632 634 635
f 628 636 627
f 633 627 636
f 637 633 636
f 636 638 637
f 628 638 636
f 628 639 638
f 638 639 640
f 633 641 634
f 641 633 637
f 638 642 637
f 641 637 642
f 638 643 642
f 638 640 643
f 643 640 644
f 641 642 645
f 644 646 643
f 642 643 647
f 643 646 647
f 645 642 647
f 647 646 648
f 644 648 646
f 644 649 648
f 647 648 650
f 650 651 647
f 645 647 652
f 651 652 647
f 652 651 653
f 653 654 652
f 652 655 645
f 634 641 655
f 641 645 655
f 654 656 652
f 656 657 635
f 654 657 656
f 658 655 652
f 656 658 652
f 655 658 634
f 635 658 656
f 635 634 658
f 659 660 661
f 661 662 659
f 662 661 663
f 664 659 662
f 663 665 662
f 665 663 666
f 662 667 664
f 667 662 665
f 668 664 667
f 666 669 665
f 669 666 670
f 667 671 668
f 672 668 671
f 671 667 673
f 665 673 667
f 669 674 665
f 673 665 674
f 674 669 675
f 670 675 669
f 675 670 676
f 673 677 671
f 677 673 674
f 676 678 675
f 678 676 679
f 679 680 678
f 680 681 678
f 675 682 674
f 682 675 678
f 678 683 682
f 683 678 681
f 681 684 683
f 674 685 677
f 685 674 682
f 682 686 685
f 686 682 683
f 683 687 686
f 687 683 684
f 688 687 684
f 684 689 688
f 687 688 690
f 690 686 687
f 686 690 691
f 691 685 686
f 692 688 689
f 689 693 692
f 694 690 688
f 688 692 694
f 695 692 693
f 693 696 695
f 692 695 697
f 697 694 692
f 698 691 690
f 690 694 698
f 694 697 699
f 699 698 694
f 697 700 699
f 700 697 695
f 695 701 700
f 701 695 696
f 696 702 701
f 703 701 702
f 702 704 703
f 705 700 701
f 701 703 705
f 706 699 700
f 700 705 706
f 707 705 703
f 703 708 707
f 708 703 704
f 709 708 704
f 704 710 709
f 710 711 712
f 712 709 710
f 709 712 713
f 713 714 709
f 714 707 708
f 708 709 714
f 714 713 715
f 707 714 716
f 715 716 714
f 716 715 717
f 716 718 707
f 718 706 705
f 705 707 718
f 718 716 719
f 717 719 716
f 719 717 720
f 719 721 718
f 706 718 721
f 721 719 722
f 720 722 719
f 722 720 723
f 723 724 722
f 722 725 721
f 725 722 724
f 724 726 725
f 721 727 706
f 727 721 725
f 725 728 727
f 728 725 726
f 726 729 728
f 730 727 728
f 699 706 730
f 727 730 706
f 731 728 729
f 728 731 730
f 732 730 731
f 730 732 699
f 731 733 732
f 733 731 729
f 729 734 733
f 732 735 699
f 735 732 733
f 698 699 735
f 733 736 735
f 736 733 734
f 734 737 736
f 738 735 736
f 691 698 738
f 735 738 698
f 739 736 737
f 736 739 738
f 737 672 739
f 740 738 739
f 685 691 740
f 740 677 685
f 738 740 691
f 741 739 672
f 739 741 740
f 677 740 741
f 671 741 672
f 741 671 677
f 742 743 744
f 744 745 742
f 745 744 746
f 747 742 745
f 746 748 745
f 748 746 749
f 745 750 747
f 750 745 748
f 751 747 750
f 749 752 748
f 752 749 753
f 750 754 751
f 755 751 754
f 754 750 756
f 748 756 750
f 752 757 748
f 756 748 757
f 757 752 758
f 753 758 752
f 758 753 759
f 757 760 756
f 759 761 758
f 761 759 762
f 762 763 761
f 763 764 761
f 765 758 761
f 760 757 765
f 758 765 757
f 761 766 765
f 766 761 764
f 764 767 766
f 768 765 766
f 765 768 760
f 766 769 768
f 769 766 767
f 770 769 767
f 767 771 770
f 771 772 770
f 769 770 773
f 773 768 769
f 768 773 774
f 774 760 768
f 775 770 772
f 772 776 775
f 770 775 777
f 777 773 770
f 773 777 778
f 778 774 773
f 779 775 776
f 776 780 779
f 781 779 780
f 779 781 782
f 782 783 779
f 783 777 775
f 775 779 783
f 783 782 784
f 777 783 785
f 784 785 783
f 785 778 777
f 785 784 786
f 778 785 787
f 786 787 785
f 787 786 788
f 787 789 778
f 760 774 789
f 774 778 789
f 788 790 787
f 790 788 791
f 791 792 790
f 793 790 792
f 789 787 793
f 790 793 787
f 792 794 793
f 789 795 760
f 795 756 760
f 756 795 754
f 795 789 796
f 796 793 794
f 796 754 795
f 794 755 796
f 754 796 755
f 793 796 789
f 797 798 799
f 799 800 797
f 800 799 801
f 800 802 797
f 803 797 802
f 802 800 804
f 801 804 800
f 804 801 805
f 802 806 803
f 807 803 806
f 806 802 808
f 804 808 802
f 808 804 809
f 805 809 804
f 809 805 810
f 806 811 807
f 812 807 811
f 813 812 811
f 810 814 809
f 814 810 815
f 816 809 814
f 809 816 808
f 817 808 816
f 811 806 817
f 808 817 806
f 815 818 814
f 818 815 819
f 819 820 818
f 814 821 816
f 821 814 818
f 818 822 821
f 822 818 820
f 823 816 821
f 816 823 817
f 821 824 823
f 824 821 822
f 822 825 824
f 825 822 820
f 820 826 825
f 826 827 825
f 828 823 824
f 823 828 817
f 824 829 828
f 829 824 825
f 825 830 829
f 830 825 827
f 827 831 830
f 817 832 811
f 832 817 828
f 833 828 829
f 828 833 832
f 829 834 833
f 834 829 830
f 830 835 834
f 835 830 831
f 831 836 835
f 836 837 835
f 838 835 837
f 837 839 838
f 840 838 839
f 840 841 838
f 841 834 835
f 835 838 841
f 841 840 842
f 842 843 841
f 843 833 834
f 834 841 843
f 842 844 843
f 833 843 844
f 844 842 845
f 846 832 833
f 844 846 833
f 846 844 847
f 845 847 844
f 847 845 848
f 848 849 847
f 832 846 850
f 847 850 846
f 850 847 849
f 850 811 832
f 849 813 850
f 811 850 813
f 851 852 853
f 851 854 852
f 852 855 853
f 856 852 854
f 852 857 855
f 856 854 858
f 858 854 859
f 860 858 859
f 861 858 860
f 856 862 852
f 857 852 862
f 861 863 858
f 861 864 863
f 865 858 863
f 856 858 865
f 856 866 862
f 856 865 866
f 865 863 867
f 868 866 865
f 865 869 868
f 863 864 870
f 863 870 867
f 869 867 871
f 872 870 864
f 864 873 872
f 870 874 867
f 874 871 867
f 870 875 874
f 870 872 875
f 876 875 872
f 872 873 876
f 876 873 877
f 876 877 878
f 874 875 879
f 880 876 878
f 881 880 878
f 880 882 876
f 882 879 875
f 876 882 875
f 881 883 880
f 884 871 874
f 879 884 874
f 885 883 881
f 885 881 886
f 887 871 884
f 885 886 888
f 869 871 889
f 889 871 887
f 888 890 885
f 891 868 869
f 869 889 891
f 889 887 892
f 891 889 892
f 893 884 879
f 887 884 893
f 894 887 893
f 892 887 894
f 894 895 892
f 892 895 891
f 891 895 896
f 896 895 894
f 891 896 868
f 868 897 866
f 868 896 897
f 894 898 896
f 862 866 899
f 866 897 899
f 900 897 896
f 900 899 897
f 898 900 896
f 901 899 900
f 862 899 901
f 857 862 902
f 862 901 902
f 903 900 898
f 901 900 903
f 904 901 903
f 904 902 901
f 857 902 905
f 902 904 905
f 906 903 898
f 893 906 894
f 894 906 898
f 904 903 907
f 908 904 907
f 904 908 905
f 909 905 908
f 909 857 905
f 910 909 908
f 910 908 907
f 910 907 911
f 911 903 906
f 903 911 907
f 855 857 912
f 857 909 912
f 912 913 855
f 912 914 913
f 912 909 915
f 912 915 914
f 916 914 915
f 917 909 910
f 909 917 915
f 918 916 915
f 917 919 915
f 915 919 918
f 917 910 920
f 920 918 919
f 920 919 917
f 921 916 918
f 921 922 916
f 923 922 921
f 924 918 920
f 918 924 921
f 921 925 923
f 923 925 926
f 927 925 921
f 924 920 927
f 921 924 927
f 928 886 926
f 925 928 926
f 929 886 928
f 929 928 925
f 888 886 929
f 890 888 929
f 925 927 930
f 929 925 930
f 929 930 931
f 931 890 929
f 930 927 932
f 930 932 931
f 932 927 920
f 931 932 933
f 920 910 933
f 933 910 911
f 911 931 933
f 932 920 933
f 934 931 911
f 934 890 931
f 906 934 911
f 890 935 885
f 935 883 885
f 890 934 935
f 893 936 906
f 906 936 934
f 937 880 883
f 935 937 883
f 938 936 893
f 880 939 882
f 880 937 939
f 940 939 937
f 934 940 935
f 940 937 935
f 939 940 941
f 882 939 941
f 942 940 934
f 942 941 940
f 943 941 942
f 934 936 943
f 936 938 943
f 943 942 934
f 882 941 944
f 941 943 944
f 938 944 943
f 938 893 944
f 879 882 944
f 893 879 944
f 945 946 947
f 945 948 946
f 946 949 947
f 950 946 948
f 946 951 949
f 950 948 952
f 952 948 953
f 954 952 953
f 955 952 954
f 951 946 956
f 950 956 946
f 955 957 952
f 955 958 957
f 959 952 957
f 950 952 959
f 950 960 956
f 950 959 960
f 959 957 961
f 962 960 959
f 959 963 962
f 957 964 961
f 957 958 964
f 963 961 965
f 966 964 958
f 958 967 966
f 968 965 961
f 964 968 961
f 964 969 968
f 964 966 969
f 966 967 970
f 970 969 966
f 970 967 971
f 970 971 972
f 968 969 973
f 974 970 972
f 975 974 972
f 970 976 969
f 974 976 970
f 976 973 969
f 975 977 974
f 978 965 968
f 973 978 968
f 979 977 975
f 979 975 980
f 981 965 978
f 979 980 982
f 983 965 981
f 963 965 983
f 982 984 979
f 985 962 963
f 963 983 985
f 985 983 986
f 983 981 986
f 987 978 973
f 981 978 987
f 986 981 988
f 988 981 987
f 988 989 986
f 986 989 985
f 990 989 988
f 985 990 962
f 985 989 990
f 962 991 960
f 962 990 991
f 988 992 990
f 956 960 993
f 960 991 993
f 994 993 991
f 992 994 990
f 994 991 990
f 995 993 994
f 956 993 995
f 956 995 996
f 951 956 996
f 997 994 992
f 995 994 997
f 998 995 997
f 998 996 995
f 996 998 999
f 951 996 999
f 988 1000 992
f 1000 997 992
f 987 1000 988
f 998 997 1001
f 1002 998 1001
f 998 1002 999
f 1003 951 999
f 1003 999 1002
f 1004 1002 1001
f 1004 1003 1002
f 1004 1001 1005
f 1005 997 1000
f 997 1005 1001
f 949 951 1006
f 951 1003 1006
f 1006 1007 949
f 1006 1008 1007
f 1006 1009 1008
f 1006 1003 1009
f 1010 1008 1009
f 1011 1003 1004
f 1003 1011 1009
f 1012 1010 1009
f 1009 1013 1012
f 1011 1013 1009
f 1014 1013 1011
f 1011 1004 1014
f 1014 1012 1013
f 1015 1010 1012
f 1015 1016 1010
f 1017 1016 1015
f 1012 1018 1015
f 1018 1012 1014
f 1015 1019 1017
f 1017 1019 1020
f 1021 1019 1015
f 1018 1014 1021
f 1015 1018 1021
f 1022 980 1020
f 1019 1022 1020
f 1023 980 1022
f 1023 1022 1019
f 982 980 1023
f 984 982 1023
f 1019 1021 1024
f 1023 1019 1024
f 1023 1024 1025
f 1025 984 1023
f 1024 1026 1025
f 1026 1021 1014
f 1024 1021 1026
f 1026 1014 1027
f 1025 1026 1027
f 1014 1004 1027
f 1027 1004 1005
f 1005 1025 1027
f 1028 984 1025
f 1000 1028 1005
f 1028 1025 1005
f 984 1028 1029
f 984 1029 979
f 1029 977 979
f 987 1030 1000
f 1000 1030 1028
f 1031 974 977
f 1029 1031 977
f 1032 1030 987
f 974 1033 976
f 974 1031 1033
f 1034 1031 1029
f 1034 1033 1031
f 1028 1034 1029
f 1033 1034 1035
f 976 1033 1035
f 1036 1035 1034
f 1036 1034 1028
f 1037 1036 1028
f 1037 1035 1036
f 1028 1030 1037
f 1030 1032 1037
f 1035 1037 1038
f 1032 1038 1037
f 1032 987 1038
f 973 976 1038
f 987 973 1038
f 976 1035 1038
f 1039 1040 1041
f 1039 1042 1040
f 1040 1043 1041
f 1044 1040 1042
f 1040 1045 1043
f 1044 1042 1046
f 1046 1042 1047
f 1048 1046 1047
f 1049 1046 1048
f 1045 1040 1050
f 1044 1050 1040
f 1049 1051 1046
f 1049 1052 1051
f 1053 1046 1051
f 1044 1046 1053
f 1044 1053 1054
f 1044 1054 1050
f 1053 1051 1055
f 1056 1054 1053
f 1053 1057 1056
f 1051 1052 1058
f 1051 1058 1055
f 1057 1055 1059
f 1060 1058 1052
f 1052 1061 1060
f 1062 1059 1055
f 1058 1062 1055
f 1058 1063 1062
f 1058 1060 1063
f 1064 1063 1060
f 1060 1061 1064
f 1064 1061 1065
f 1064 1065 1066
f 1062 1063 1067
f 1068 1064 1066
f 1069 1068 1066
f 1068 1070 1064
f 1070 1067 1063
f 1064 1070 1063
f 1069 1071 1068
f 1072 1059 1062
f 1067 1072 1062
f 1073 1071 1069
f 1073 1069 1074
f 1075 1059 1072
f 1073 1074 1076
f 1077 1059 1075
f 1057 1059 1077
f 1076 1078 1073
f 1079 1056 1057
f 1057 1077 1079
f 1079 1077 1080
f 1077 1075 1080
f 1081 1072 1067
f 1075 1072 1081
f 1080 1075 1082
f 1082 1075 1081
f 1082 1083 1080
f 1080 1083 1079
f 1084 1083 1082
f 1079 1084 1056
f 1079 1083 1084
f 1056 1085 1054
f 1056 1084 1085
f 1082 1086 1084
f 1050 1054 1087
f 1054 1085 1087
f 1088 1087 1085
f 1086 1088 1084
f 1088 1085 1084
f 1089 1087 1088
f 1050 1087 1089
f 1050 1089 1090
f 1045 1050 1090
f 1091 1088 1086
f 1089 1088 1091
f 1092 1089 1091
f 1092 1090 1089
f 1090 1092 1093
f 1045 1090 1093
f 1082 1094 1086
f 1094 1091 1086
f 1081 1094 1082
f 1092 1091 1095
f 1096 1092 1095
f 1092 1096 1093
f 1097 1045 1093
f 1097 1093 1096
f 1098 1096 1095
f 1098 1097 1096
f 1098 1095 1099
f 1099 1091 1094
f 1091 1099 1095
f 1043 1045 1100
f 1045 1097 1100
f 1100 1101 1043
f 1100 1102 1101
f 1100 1103 1102
f 1100 1097 1103
f 1104 1102 1103
f 1105 1097 1098
f 1097 1105 1103
f 1106 1104 1103
f 1103 1107 1106
f 1105 1107 1103
f 1108 1107 1105
f 1105 1098 1108
f 1108 1106 1107
f 1109 1104 1106
f 1109 1110 1104
f 1111 1110 1109
f 1106 1112 1109
f 1112 1106 1108
f 1109 1113 1111
f 1111 1113 1114
f 1115 1113 1109
f 1112 1108 1115
f 1109 1112 1115
f 1116 1074 1114
f 1113 1116 1114
f 1117 1074 1116
f 1117 1116 1113
f 1076 1074 1117
f 1078 1076 1117
f 1113 1115 1118
f 1117 1113 1118
f 1117 1118 1119
f 1119 1078 1117
f 1118 1120 1119
f 1120 1115 1108
f 1118 1115 1120
f 1120 1108 1121
f 1119 1120 1121
f 1108 1098 1121
f 1121 1098 1099
f 1099 1119 1121
f 1122 1078 1119
f 1094 1122 1099
f 1122 1119 1099
f 1078 1122 1123
f 1078 1123 1073
f 1123 1071 1073
f 1081 1124 1094
f 1094 1124 1122
f 1125 1068 1071
f 1123 1125 1071
f 1126 1124 1081
f 1068 1127 1070
f 1068 1125 1127
f 1128 1125 1123
f 1128 1127 1125
f 1122 1128 1123
f 1127 1128 1129
f 1070 1127 1129
f 1130 1129 1128
f 1130 1128 1122
f 1131 1130 1122
f 1131 1129 1130
f 1122 1124 1131
f 1124 1126 1131
f 1129 1131 1132
f 1126 1132 1131
f 1126 1081 1132
f 1067 1070 1132
f 1081 1067 1132
f 1070 1129 1132
f 1133 1134 1135
f 1136 1134 1133
f 1134 1137 1135
f 1136 1138 1134
f 1139 1138 1136
f 1134 1140 1137
f 1141 1138 1139
f 1141 1142 1138
f 1134 1138 1142
f 1143 1141 1139
f 1143 1139 1144
f 1145 1143 1144
f 1145 1144 1146
f 1145 1147 1143
f 1147 1141 1143
f 1148 1141 1147
f 1142 1141 1148
f 1149 1145 1146
f 1149 1146 1150
f 1151 1149 1150
f 1152 1145 1149
f 1152 1149 1153
f 1151 1153 1149
f 1154 1153 1151
f 1147 1145 1155
f 1152 1155 1145
f 1152 1156 1155
f 1155 1156 1157
f 1155 1157 1147
f 1158 1148 1147
f 1158 1147 1157
f 1152 1153 1159
f 1152 1159 1156
f 1157 1156 1160
f 1159 1161 1156
f 1161 1160 1156
f 1157 1160 1162
f 1157 1162 1158
f 1163 1161 1159
f 1161 1163 1160
f 1163 1164 1160
f 1160 1164 1162
f 1162 1165 1158
f 1162 1164 1165
f 1165 1166 1158
f 1166 1148 1158
f 1148 1167 1142
f 1167 1148 1166
f 1168 1166 1165
f 1167 1166 1168
f 1169 1167 1168
f 1169 1142 1167
f 1134 1142 1170
f 1142 1169 1170
f 1169 1168 1171
f 1134 1170 1172
f 1134 1172 1140
f 1170 1173 1172
f 1169 1173 1170
f 1169 1171 1173
f 1168 1174 1171
f 1168 1165 1174
f 1175 1171 1174
f 1171 1175 1173
f 1176 1175 1174
f 1175 1176 1173
f 1173 1177 1172
f 1177 1173 1176
f 1178 1165 1164
f 1174 1165 1178
f 1164 1179 1178
f 1174 1179 1176
f 1174 1178 1179
f 1172 1180 1140
f 1172 1177 1180
f 1176 1181 1177
f 1181 1180 1177
f 1176 1179 1181
f 1181 1182 1180
f 1180 1182 1183
f 1180 1183 1140
f 1182 1184 1183
f 1179 1184 1181
f 1181 1184 1182
f 1183 1185 1140
f 1140 1185 1137
f 1137 1185 1186
f 1183 1187 1185
f 1184 1187 1183
f 1188 1187 1184
f 1184 1179 1188
f 1186 1185 1189
f 1186 1189 1190
f 1185 1187 1191
f 1187 1188 1191
f 1185 1191 1192
f 1189 1185 1192
f 1192 1193 1189
f 1190 1189 1193
f 1190 1193 1194
f 1195 1192 1191
f 1193 1196 1194
f 1196 1197 1194
f 1196 1198 1197
f 1193 1199 1196
f 1199 1192 1195
f 1192 1199 1193
f 1196 1200 1198
f 1200 1201 1198
f 1196 1199 1202
f 1202 1200 1196
f 1202 1203 1200
f 1200 1203 1201
f 1204 1199 1195
f 1204 1202 1199
f 1204 1205 1202
f 1202 1205 1203
f 1201 1203 1206
f 1201 1206 1207
f 1205 1208 1203
f 1206 1203 1208
f 1208 1205 1209
f 1204 1209 1205
f 1210 1204 1195
f 1210 1209 1204
f 1211 1209 1210
f 1211 1208 1209
f 1211 1212 1208
f 1208 1212 1206
f 1212 1213 1206
f 1213 1212 1211
f 1211 1210 1214
f 1213 1211 1214
f 1215 1213 1214
f 1213 1215 1206
f 1216 1210 1195
f 1195 1191 1216
f 1188 1216 1191
f 1216 1188 1217
f 1210 1217 1214
f 1188 1179 1217
f 1179 1164 1217
f 1217 1164 1163
f 1210 1216 1217
f 1217 1218 1214
f 1163 1218 1217
f 1218 1215 1214
f 1206 1215 1219
f 1215 1218 1219
f 1163 1220 1218
f 1207 1206 1221
f 1206 1219 1221
f 1207 1221 1222
f 1222 1221 1154
f 1223 1221 1219
f 1154 1223 1153
f 1221 1223 1154
f 1219 1224 1223
f 1224 1218 1220
f 1219 1218 1224
f 1224 1225 1223
f 1223 1225 1153
f 1224 1220 1225
f 1225 1220 1226
f 1153 1226 1159
f 1153 1225 1226
f 1159 1226 1227
f 1227 1220 1163
f 1227 1163 1159
f 1227 1226 1220
f 1228 1229 1230
f 1231 1229 1228
f 1229 1232 1230
f 1231 1233 1229
f 1234 1233 1231
f 1229 1235 1232
f 1236 1233 1234
f 1229 1233 1237
f 1236 1237 1233
f 1238 1236 1234
f 1238 1234 1239
f 1240 1238 1239
f 1240 1239 1241
f 1240 1242 1238
f 1242 1236 1238
f 1237 1236 1243
f 1243 1236 1242
f 1244 1240 1241
f 1244 1241 1245
f 1246 1244 1245
f 1247 1240 1244
f 1247 1244 1248
f 1246 1248 1244
f 1249 1248 1246
f 1247 1250 1240
f 1242 1240 1250
f 1247 1251 1250
f 1250 1251 1252
f 1250 1252 1242
f 1253 1243 1242
f 1253 1242 1252
f 1247 1248 1254
f 1247 1254 1251
f 1252 1251 1255
f 1256 1255 1251
f 1254 1256 1251
f 1252 1255 1257
f 1252 1257 1253
f 1258 1256 1254
f 1256 1258 1255
f 1255 1259 1257
f 1258 1259 1255
f 1257 1259 1260
f 1257 1260 1253
f 1260 1261 1253
f 1261 1243 1253
f 1243 1262 1237
f 1262 1243 1261
f 1262 1261 1263
f 1263 1261 1260
f 1264 1237 1262
f 1264 1262 1263
f 1229 1237 1265
f 1237 1264 1265
f 1264 1263 1266
f 1229 1267 1235
f 1229 1265 1267
f 1265 1268 1267
f 1264 1266 1268
f 1264 1268 1265
f 1263 1260 1269
f 1263 1269 1266
f 1270 1266 1269
f 1266 1270 1268
f 1271 1270 1269
f 1270 1271 1268
f 1268 1272 1267
f 1272 1268 1271
f 1273 1260 1259
f 1269 1260 1273
f 1259 1274 1273
f 1269 1274 1271
f 1269 1273 1274
f 1267 1272 1275
f 1267 1275 1235
f 1276 1275 1272
f 1271 1274 1276
f 1271 1276 1272
f 1276 1277 1275
f 1275 1277 1278
f 1275 1278 1235
f 1276 1279 1277
f 1277 1279 1278
f 1274 1279 1276
f 1235 1280 1232
f 1278 1280 1235
f 1232 1280 1281
f 1278 1282 1280
f 1279 1282 1278
f 1279 1274 1283
f 1283 1282 1279
f 1281 1280 1284
f 1281 1284 1285
f 1282 1283 1286
f 1280 1282 1286
f 1280 1286 1287
f 1284 1280 1287
f 1285 1284 1288
f 1287 1288 1284
f 1285 1288 1289
f 1290 1287 1286
f 1288 1291 1289
f 1291 1292 1289
f 1291 1293 1292
f 1287 1294 1288
f 1288 1294 1291
f 1294 1287 1290
f 1291 1295 1293
f 1295 1296 1293
f 1297 1295 1291
f 1291 1294 1297
f 1297 1298 1295
f 1295 1298 1296
f 1299 1297 1294
f 1299 1294 1290
f 1299 1300 1297
f 1297 1300 1298
f 1296 1298 1301
f 1296 1301 1302
f 1301 1298 1303
f 1300 1303 1298
f 1299 1304 1300
f 1303 1300 1304
f 1305 1299 1290
f 1305 1304 1299
f 1306 1304 1305
f 1306 1303 1304
f 1303 1307 1301
f 1306 1307 1303
f 1308 1307 1306
f 1307 1308 1301
f 1306 1305 1309
f 1308 1306 1309
f 1310 1308 1309
f 1308 1310 1301
f 1290 1286 1311
f 1283 1311 1286
f 1311 1305 1290
f 1305 1311 1312
f 1311 1283 1312
f 1305 1312 1309
f 1283 1274 1312
f 1274 1259 1312
f 1312 1259 1258
f 1258 1313 1312
f 1313 1310 1309
f 1312 1313 1309
f 1301 1310 1314
f 1310 1313 1314
f 1258 1315 1313
f 1301 1314 1316
f 1302 1301 1316
f 1317 1316 1249
f 1302 1316 1317
f 1318 1316 1314
f 1249 1318 1248
f 1316 1318 1249
f 1314 1313 1319
f 1314 1319 1318
f 1319 1313 1315
f 1318 1320 1248
f 1319 1315 1320
f 1319 1320 1318
f 1320 1315 1321
f 1248 1321 1254
f 1248 1320 1321
f 1322 1321 1315
f 1254 1321 1322
f 1322 1315 1258
f 1322 1258 1254
f 1323 1324 1325
f 1326 1324 1323
f 1324 1327 1325
f 1326 1328 1324
f 1329 1328 1326
f 1324 1330 1327
f 1331 1328 1329
f 1331 1332 1328
f 1324 1328 1332
f 1333 1331 1329
f 1333 1329 1334
f 1335 1333 1334
f 1335 1334 1336
f 1337 1331 1333
f 1335 1337 1333
f 1338 1331 1337
f 1332 1331 1338
f 1339 1335 1336
f 1339 1336 1340
f 1341 1339 1340
f 1342 1335 1339
f 1341 1343 1339
f 1342 1339 1343
f 1344 1343 1341
f 1337 1335 1345
f 1342 1345 1335
f 1342 1346 1345
f 1345 1346 1347
f 1345 1347 1337
f 1348 1337 1347
f 1348 1338 1337
f 1342 1343 1349
f 1342 1349 1346
f 1347 1346 1350
f 1351 1350 1346
f 1349 1351 1346
f 1347 1352 1348
f 1347 1350 1352
f 1353 1351 1349
f 1351 1353 1350
f 1353 1354 1350
f 1350 1354 1352
f 1352 1354 1355
f 1352 1355 1348
f 1355 1356 1348
f 1356 1338 1348
f 1357 1338 1356
f 1338 1357 1332
f 1357 1356 1358
f 1358 1356 1355
f 1359 1357 1358
f 1359 1332 1357
f 1324 1332 1360
f 1332 1359 1360
f 1359 1358 1361
f 1324 1362 1330
f 1324 1360 1362
f 1360 1363 1362
f 1359 1361 1363
f 1359 1363 1360
f 1358 1355 1364
f 1358 1364 1361
f 1361 1365 1363
f 1365 1361 1364
f 1366 1365 1364
f 1365 1366 1363
f 1367 1363 1366
f 1363 1367 1362
f 1368 1355 1354
f 1364 1355 1368
f 1364 1368 1369
f 1354 1369 1368
f 1364 1369 1366
f 1362 1370 1330
f 1362 1367 1370
f 1371 1370 1367
f 1366 1369 1371
f 1366 1371 1367
f 1371 1372 1370
f 1370 1373 1330
f 1370 1372 1373
f 1372 1374 1373
f 1369 1374 1371
f 1371 1374 1372
f 1330 1375 1327
f 1373 1375 1330
f 1327 1375 1376
f 1374 1377 1373
f 1373 1377 1375
f 1378 1377 1374
f 1374 1369 1378
f 1376 1375 1379
f 1376 1379 1380
f 1377 1378 1381
f 1375 1377 1381
f 1379 1375 1382
f 1375 1381 1382
f 1382 1383 1379
f 1380 1379 1383
f 1380 1383 1384
f 1385 1382 1381
f 1383 1386 1384
f 1386 1387 1384
f 1386 1388 1387
f 1382 1389 1383
f 1383 1389 1386
f 1389 1382 1385
f 1386 1390 1388
f 1390 1391 1388
f 1392 1390 1386
f 1386 1389 1392
f 1392 1393 1390
f 1390 1393 1391
f 1394 1392 1389
f 1394 1389 1385
f 1394 1395 1392
f 1392 1395 1393
f 1391 1393 1396
f 1391 1396 1397
f 1396 1393 1398
f 1395 1398 1393
f 1394 1399 1395
f 1398 1395 1399
f 1400 1394 1385
f 1400 1399 1394
f 1401 1399 1400
f 1401 1398 1399
f 1398 1402 1396
f 1401 1402 1398
f 1403 1402 1401
f 1402 1403 1396
f 1401 1400 1404
f 1403 1401 1404
f 1405 1403 1404
f 1403 1405 1396
f 1385 1381 1406
f 1378 1406 1381
f 1406 1400 1385
f 1400 1406 1407
f 1406 1378 1407
f 1400 1407 1404
f 1378 1369 1407
f 1369 1354 1407
f 1407 1354 1353
f 1353 1408 1407
f 1408 1405 1404
f 1407 1408 1404
f 1396 1405 1409
f 1405 1408 1409
f 1353 1410 1408
f 1396 1409 1411
f 1397 1396 1411
f 1412 1411 1344
f 1397 1411 1412
f 1413 1411 1409
f 1344 1413 1343
f 1411 1413 1344
f 1409 1408 1414
f 1409 1414 1413
f 1414 1408 1410
f 1413 1415 1343
f 1414 1410 1415
f 1414 1415 1413
f 1343 1415 1416
f 1415 1410 1416
f 1343 1416 1349
f 1349 1416 1417
f 1417 1410 1353
f 1417 1353 1349
f 1417 1416 1410
