# https://github.com/mikedh/trimesh
v 0.00000000 -0.07130966 -0.12488136
v -0.00575301 -0.06499904 -0.12488136
v 0.00000000 -0.07094505 -0.13114622
v 0.00575301 -0.06499904 -0.12488136
v 0.00227826 -0.06189982 0.36488789
v 0.00000000 -0.06181568 0.37493780
v -0.00227826 -0.06189982 0.36488789
v -0.00982875 -0.05448133 -0.12488136
v -0.01276809 -0.04498735 -0.13493124
v -0.01031500 -0.05080714 -0.13754162
v -0.00637585 -0.05498618 0.37493780
v -0.00647965 -0.05498618 0.36488789
v -0.01151695 -0.01141484 -0.16468936
v -0.00499906 -0.01442991 -0.16468936
v 0.00508101 -0.01440186 -0.16468936
v 0.01151695 -0.01141484 -0.16468936
v 0.01031500 -0.05080714 -0.13754162
v 0.01276809 -0.04498735 -0.13493124
v 0.00982875 -0.05448133 -0.12488136
v 0.00647965 -0.05498618 0.36488789
v 0.00637585 -0.05498618 0.37493780
v 0.00610267 -0.05498618 0.38492244
v 0.00558911 -0.05498618 0.39490706
v 0.00000000 -0.06035722 0.40763259
v 0.00000000 -0.06121266 0.39490706
v 0.00000000 -0.06159130 0.38492244
v -0.00558911 -0.05498618 0.39490706
v -0.00610267 -0.05498618 0.38492244
v -0.01292653 -0.04498735 -0.12488136
v -0.01001451 -0.04504344 0.36488789
v -0.01587679 -0.03498852 -0.13493124
v -0.02549246 0.01511783 -0.16468936
v -0.02193029 0.00387090 -0.16468936
v -0.01886530 -0.00222937 -0.16468936
v -0.00909118 -0.04717503 0.38492244
v -0.00998173 -0.04493126 0.37493780
v 0.01751036 -0.00406647 -0.16468936
v 0.02193029 0.00387090 -0.16468936
v 0.02542690 0.01485138 -0.16468936
v 0.01587679 -0.03498852 -0.13493124
v 0.01292653 -0.04498735 -0.12488136
v 0.01001451 -0.04504344 0.36488789
v 0.00998173 -0.04493126 0.37493780
v 0.00909118 -0.04717503 0.38492244
v 0.00896552 -0.04674030 0.39490706
v 0.00875791 -0.04605314 0.40489170
v 0.00460569 -0.05498618 0.40489170
v 0.00281914 -0.05540689 0.41422373
v 0.00000000 -0.05234974 0.42309898
v -0.00281914 -0.05540689 0.41422373
v -0.00460569 -0.05498618 0.40489170
v -0.00875791 -0.04605314 0.40489170
v -0.00896552 -0.04674030 0.39490706
v -0.01325433 -0.03498852 0.36488789
v -0.01819329 -0.02498969 -0.13493124
v -0.01595874 -0.02498969 0.36488789
v -0.02726808 0.02511666 -0.16468936
v -0.01961379 -0.01748706 -0.13493124
v -0.01281179 -0.03498852 0.39490706
v -0.01304126 -0.03498852 0.38492244
v -0.01318331 -0.03498852 0.37493780
v 0.02726262 0.02499045 -0.16468936
v 0.01961379 -0.01748706 -0.13493124
v 0.01819329 -0.02498969 -0.13493124
v 0.01595874 -0.02498969 0.36488789
v 0.01325433 -0.03498852 0.36488789
v 0.01318331 -0.03498852 0.37493780
v 0.01304126 -0.03498852 0.38492244
v 0.01281179 -0.03498852 0.39490706
v 0.01240203 -0.03498852 0.40489170
v 0.00934250 -0.04232286 0.41298383
v 0.00443632 -0.04591291 0.42583987
v 0.00000000 -0.04319233 0.43275732
v -0.00443632 -0.04591291 0.42583987
v -0.00934250 -0.04232286 0.41298383
v -0.01240203 -0.03498852 0.40489170
v -0.01589864 -0.02498969 0.37493780
v -0.01804578 -0.01499086 0.36488789
v -0.01808949 -0.01499086 0.35490328
v -0.02790731 0.03498928 -0.16468936
v -0.01952091 -0.00659071 0.35490328
v -0.02022023 -0.00158429 0.35490328
v -0.02083760 0.00499278 0.36488789
v -0.02158610 0.01499161 0.36488789
v -0.01528674 -0.02498969 0.40489170
v -0.01561454 -0.02498969 0.39490706
v -0.01578937 -0.02498969 0.38492244
v 0.02790731 0.03498928 -0.16468936
v 0.02158610 0.01499161 0.36488789
v 0.02083760 0.00499278 0.36488789
v 0.02022023 -0.00158429 0.35490328
v 0.01952091 -0.00659071 0.35490328
v 0.01804578 -0.01499086 0.36488789
v 0.01808949 -0.01499086 0.35490328
v 0.01589864 -0.02498969 0.37493780
v 0.01578937 -0.02498969 0.38492244
v 0.01561454 -0.02498969 0.39490706
v 0.01528674 -0.02498969 0.40489170
v 0.01458741 -0.02498969 0.41494161
v 0.01057724 -0.03744265 0.41631204
v 0.00983968 -0.03455378 0.42492625
v 0.01002543 -0.03008026 0.43001646
v 0.00875791 -0.02681275 0.43667287
v 0.00938075 -0.01248063 0.44874579
v 0.00980143 0.00037902 0.45951355
v 0.00000000 -0.02204473 0.45155194
v 0.00000000 -0.03278681 0.44221988
v -0.00980143 0.00037902 0.45951355
v -0.00938075 -0.01248063 0.44874579
v -0.00875791 -0.02681275 0.43667287
v -0.01002543 -0.03008026 0.43001646
v -0.00983968 -0.03455378 0.42492625
v -0.01057724 -0.03744265 0.41631204
v -0.01458741 -0.02498969 0.41494161
v -0.01796383 -0.01499086 0.37493780
v -0.02701130 0.04511432 -0.16468936
v -0.02202863 0.02499045 0.36488789
v -0.02192483 0.02499045 0.37493780
v -0.02225264 0.03498928 0.36488789
v -0.02226903 0.04498811 0.36488789
v -0.02236190 0.04498811 0.35490328
v -0.02146590 0.05498694 0.36488789
v -0.01979408 -0.00350552 0.37493780
v -0.01983233 -0.00385611 0.36488789
v -0.02073926 0.00499278 0.37493780
v -0.02148229 0.01499161 0.37493780
v -0.01688753 -0.01499086 0.41494161
v -0.01738470 -0.01499086 0.40489170
v -0.01765241 -0.01499086 0.39490706
v -0.01783817 -0.01499086 0.38492244
v 0.02706594 0.04486190 -0.16468936
v 0.02146590 0.05498694 0.36488789
v 0.02236190 0.04498811 0.35490328
v 0.02226903 0.04498811 0.36488789
v 0.02225264 0.03498928 0.36488789
v 0.02192483 0.02499045 0.37493780
v 0.02202863 0.02499045 0.36488789
v 0.02148229 0.01499161 0.37493780
v 0.02073926 0.00499278 0.37493780
v 0.01979408 -0.00350552 0.37493780
v 0.01983233 -0.00385611 0.36488789
v 0.01796383 -0.01499086 0.37493780
v 0.01783817 -0.01499086 0.38492244
v 0.01765241 -0.01499086 0.39490706
v 0.01738470 -0.01499086 0.40489170
v 0.01688753 -0.01499086 0.41494161
v 0.01566918 -0.01499086 0.42492625
v 0.01296477 -0.02498969 0.42492625
v 0.01339092 -0.01499086 0.43491086
v 0.01076300 -0.02409218 0.43393198
v 0.01005821 -0.02015154 0.44006634
v 0.01126017 -0.00330919 0.45285711
v 0.01115090 0.00706828 0.46231967
v 0.01094876 0.01771219 0.47171697
v 0.00941899 0.01103696 0.46897611
v 0.00000000 -0.01110632 0.46075347
v -0.00941899 0.01103696 0.46897611
v -0.01094876 0.01771219 0.47171697
v -0.01115090 0.00706828 0.46231967
v -0.01126017 -0.00330919 0.45285711
v -0.01005821 -0.02015154 0.44006634
v -0.01076300 -0.02409218 0.43393198
v -0.01339092 -0.01499086 0.43491086
v -0.01296477 -0.02498969 0.42492625
v -0.01566918 -0.01499086 0.42492625
v -0.02356933 0.05505706 -0.16468936
v -0.02154785 0.05498694 0.35490328
v -0.02162434 0.05498694 0.34491861
v -0.02030765 0.06054029 0.37493780
v -0.02035136 0.06062443 0.36488789
v -0.02038960 0.06069455 0.35490328
v -0.02042784 0.06075064 0.34491861
v -0.02048248 0.06083478 0.32494935
v -0.02050433 0.06087685 0.31489944
v -0.02055350 0.06096100 0.28494555
v -0.02135117 0.01499161 0.38492244
v -0.02178278 0.02499045 0.38492244
v -0.02214337 0.03498928 0.37493780
v -0.02215976 0.04498811 0.37493780
v -0.02136209 0.05498694 0.37493780
v -0.02018199 0.06032993 0.39490706
v -0.02024755 0.06044212 0.38492244
v -0.01972852 -0.00304274 0.38492244
v -0.02060814 0.00499278 0.38492244
v -0.01759778 -0.00499202 0.42492625
v -0.01858120 -0.00499202 0.41494161
v -0.01902920 -0.00499202 0.40489170
v 0.02360757 0.05498694 -0.16468936
v 0.02055350 0.06096100 0.28494555
v 0.02050433 0.06087685 0.31489944
v 0.02048248 0.06083478 0.32494935
v 0.02042784 0.06075064 0.34491861
v 0.02038960 0.06069455 0.35490328
v 0.02035136 0.06062443 0.36488789
v 0.02030765 0.06054029 0.37493780
v 0.02162434 0.05498694 0.34491861
v 0.02154785 0.05498694 0.35490328
v 0.02024755 0.06044212 0.38492244
v 0.02018199 0.06032993 0.39490706
v 0.02136209 0.05498694 0.37493780
v 0.02215976 0.04498811 0.37493780
v 0.02214337 0.03498928 0.37493780
v 0.02178278 0.02499045 0.38492244
v 0.02135117 0.01499161 0.38492244
v 0.02060814 0.00499278 0.38492244
v 0.01972852 -0.00304274 0.38492244
v 0.01902920 -0.00499202 0.40489170
v 0.01858120 -0.00499202 0.41494161
v 0.01759778 -0.00499202 0.42492625
v 0.01591503 -0.00499202 0.43491086
v 0.01583308 0.00499278 0.44489551
v 0.01272438 -0.00598770 0.44587439
v 0.01099246 -0.01499086 0.44248092
v 0.01261511 0.00423551 0.45566326
v 0.01235286 0.01462700 0.46538687
v 0.01188847 0.02515873 0.47497994
v 0.01059363 0.02860854 0.48091850
v 0.00869781 0.02193330 0.47837341
v 0.00000000 0.00000038 0.46988973
v -0.00869781 0.02193330 0.47837341
v -0.01059363 0.02860854 0.48091850
v -0.01235286 0.01462700 0.46538687
v -0.01188847 0.02515873 0.47497994
v -0.01261511 0.00423551 0.45566326
v -0.01272438 -0.00598770 0.44587439
v -0.01099246 -0.01499086 0.44248092
v -0.01591503 -0.00499202 0.43491086
v -0.01583308 0.00499278 0.44489551
v -0.02051526 0.06056834 -0.16468936
v -0.02056989 0.06097502 0.27489567
v -0.02059175 0.06101709 0.25492638
v -0.02060814 0.06104514 0.22490722
v -0.02061906 0.06105916 0.20493793
v -0.02061906 0.06105916 0.16506466
v -0.02061360 0.06104514 0.14509538
v -0.02060267 0.06103111 0.12506086
v -0.01571289 0.06532234 0.39490706
v -0.01574567 0.06544855 0.38492244
v -0.01577298 0.06554671 0.37493780
v -0.01579484 0.06563085 0.36488789
v -0.01584401 0.06579914 0.33493400
v -0.01585493 0.06584121 0.32494935
v -0.01588771 0.06592535 0.29493019
v -0.01589318 0.06595340 0.28494555
v -0.01589864 0.06598145 0.27489567
v -0.02117634 0.01499161 0.39490706
v -0.02160795 0.02499045 0.39490706
v -0.02183195 0.03498928 0.39490706
v -0.02200132 0.03498928 0.38492244
v -0.02202317 0.04498811 0.38492244
v -0.02123643 0.05498694 0.38492244
v -0.02009457 0.06017567 0.40489170
v -0.01567464 0.06518210 0.40489170
v -0.01994160 0.00011257 0.39458078
v -0.02009457 0.00392699 0.40489170
v -0.01763056 0.00499278 0.43491086
v -0.01959193 0.00785360 0.42205483
v -0.01989789 0.00596041 0.41494161
v 0.02044423 0.06062443 -0.16468936
v 0.02056989 0.06097502 0.07507242
v 0.02060267 0.06103111 0.12506086
v 0.02061360 0.06104514 0.14509538
v 0.02061906 0.06105916 0.16506466
v 0.02061906 0.06105916 0.20493793
v 0.02060814 0.06104514 0.22490722
v 0.02059175 0.06101709 0.25492638
v 0.02056989 0.06097502 0.27489567
v 0.01589864 0.06598145 0.27489567
v 0.01589318 0.06595340 0.28494555
v 0.01588771 0.06592535 0.29493019
v 0.01585493 0.06584121 0.32494935
v 0.01584401 0.06579914 0.33493400
v 0.01579484 0.06563085 0.36488789
v 0.01577298 0.06554671 0.37493780
v 0.01574567 0.06544855 0.38492244
v 0.01571289 0.06532234 0.39490706
v 0.01567464 0.06518210 0.40489170
v 0.02009457 0.06017567 0.40489170
v 0.02123643 0.05498694 0.38492244
v 0.02202317 0.04498811 0.38492244
v 0.02200132 0.03498928 0.38492244
v 0.02183195 0.03498928 0.39490706
v 0.02160795 0.02499045 0.39490706
v 0.02117634 0.01499161 0.39490706
v 0.02009457 0.00392699 0.40489170
v 0.01994160 0.00011257 0.39458078
v 0.01989789 0.00596041 0.41494161
v 0.01959193 0.00785360 0.42205483
v 0.01763056 0.00499278 0.43491086
v 0.01735192 0.01499161 0.44489551
v 0.01551620 0.01499161 0.45488015
v 0.01494800 0.02499045 0.46493003
v 0.01136398 0.03498928 0.48307207
v 0.01399736 0.03498928 0.47491467
v 0.00993255 0.04026215 0.48979375
v 0.00800942 0.03498928 0.48809701
v 0.00472042 0.02563553 0.48450777
v 0.00203240 0.01792255 0.48137534
v 0.00000000 0.02933776 0.49031582
v -0.00203240 0.01792255 0.48137534
v -0.00472042 0.02563553 0.48450777
v -0.00800942 0.03498928 0.48809701
v -0.00993255 0.04026215 0.48979375
v -0.01136398 0.03498928 0.48307207
v -0.01494800 0.02499045 0.46493003
v -0.01551620 0.01499161 0.45488015
v -0.01399736 0.03498928 0.47491467
v -0.01735192 0.01499161 0.44489551
v -0.02056989 0.06097502 0.07507242
v -0.01590411 0.06602352 0.11507621
v -0.01589318 0.06599547 0.09504168
v -0.01576206 0.06565890 -0.14491588
v -0.01076300 0.07045498 -0.14491588
v -0.01050622 0.07030072 -0.15072393
v -0.01498078 0.06421448 -0.16468936
v -0.01591503 0.06602352 0.24494174
v -0.01591503 0.06603754 0.23495711
v -0.01592050 0.06605157 0.21492258
v -0.01592050 0.06605157 0.15508002
v -0.01052261 0.07032876 0.42492625
v -0.01062095 0.07038486 0.41494161
v -0.01067558 0.07041290 0.40489170
v -0.01071383 0.07042693 0.39490706
v -0.01074661 0.07044096 0.38492244
v -0.01077393 0.07045498 0.37493780
v -0.01079578 0.07046900 0.36488789
v -0.01081217 0.07048302 0.35490328
v -0.02094141 0.01499161 0.40489170
v -0.02138395 0.02499045 0.40489170
v -0.02160249 0.03498928 0.40489170
v -0.02162980 0.04498811 0.40489170
v -0.02184834 0.04498811 0.39490706
v -0.02108346 0.05498694 0.39490706
v -0.02089224 0.05498694 0.40489170
v -0.02012735 0.05881538 0.41363642
v -0.01309043 0.06456506 0.46493003
v -0.01419951 0.06499980 0.44489551
v -0.01004729 0.07003427 0.45070356
v -0.01645045 0.06403217 0.41461530
v -0.01877242 0.01499161 0.43491086
v -0.01993613 0.01499161 0.42440417
v -0.02058082 0.01499161 0.41494161
v 0.01498078 0.06421448 -0.16468936
v 0.01050622 0.07030072 -0.15072393
v 0.01076300 0.07045498 -0.14491588
v 0.01576206 0.06565890 -0.14491588
v 0.01589318 0.06599547 0.09504168
v 0.01590411 0.06602352 0.11507621
v 0.01592050 0.06605157 0.15508002
v 0.01592050 0.06605157 0.21492258
v 0.01591503 0.06603754 0.23495711
v 0.01591503 0.06602352 0.24494174
v 0.01081217 0.07048302 0.35490328
v 0.01079578 0.07046900 0.36488789
v 0.01077393 0.07045498 0.37493780
v 0.01074661 0.07044096 0.38492244
v 0.01071383 0.07042693 0.39490706
v 0.01067558 0.07041290 0.40489170
v 0.01062095 0.07038486 0.41494161
v 0.01052261 0.07032876 0.42492625
v 0.01645045 0.06403217 0.41461530
v 0.02089224 0.05498694 0.40489170
v 0.02108346 0.05498694 0.39490706
v 0.01004729 0.07003427 0.45070356
v 0.01419951 0.06499980 0.44489551
v 0.01309043 0.06456506 0.46493003
v 0.02012735 0.05881538 0.41363642
v 0.02184834 0.04498811 0.39490706
v 0.02162980 0.04498811 0.40489170
v 0.02160249 0.03498928 0.40489170
v 0.02138395 0.02499045 0.40489170
v 0.02094141 0.01499161 0.40489170
v 0.02058082 0.01499161 0.41494161
v 0.01993613 0.01499161 0.42440417
v 0.01877242 0.01499161 0.43491086
v 0.01686021 0.02499045 0.45488015
v 0.01609533 0.03498928 0.46493003
v 0.01189393 0.04416072 0.48581293
v 0.01492615 0.04498811 0.47491467
v 0.01050622 0.04693739 0.49090314
v 0.00770347 0.05498694 0.49658069
v 0.00000000 0.04805928 0.50075728
v 0.00301036 0.03498928 0.49220833
v -0.00301036 0.03498928 0.49220833
v -0.00770347 0.05498694 0.49658069
v -0.01050622 0.04693739 0.49090314
v -0.01189393 0.04416072 0.48581293
v -0.01609533 0.03498928 0.46493003
v -0.01686021 0.02499045 0.45488015
v -0.01492615 0.04498811 0.47491467
v -0.01088866 0.07051107 0.08505705
v -0.00499906 0.07187136 -0.13493124
v -0.00499906 0.07185734 -0.14491588
v -0.00499906 0.07093178 -0.15229017
v -0.00510286 0.06795877 -0.16468936
v -0.01085588 0.07049705 0.32494935
v -0.01088319 0.07051107 0.29493019
v -0.01089412 0.07051107 0.28494555
v -0.01091598 0.07052509 0.23495711
v -0.01092144 0.07052509 0.22490722
v -0.01092144 0.07052509 0.16506466
v -0.01091598 0.07052509 0.14509538
v -0.00768708 0.07094581 0.43491086
v -0.00499906 0.07175917 0.42492625
v -0.00499906 0.07181527 0.41494161
v -0.00499906 0.07184331 0.40489170
v -0.00499906 0.07188538 0.37493780
v -0.00499906 0.07191344 0.35490328
v -0.02103975 0.02499045 0.41494161
v -0.02126922 0.03498928 0.41494161
v -0.02130746 0.04498811 0.41494161
v -0.02004540 0.05536558 0.42492625
v -0.01848285 0.05498694 0.44489551
v -0.01753221 0.05498694 0.45488015
v -0.01245121 0.06401815 0.47491467
v -0.00963206 0.06985196 0.45742524
v -0.01289921 0.06591133 0.45442334
v -0.00758873 0.07080556 0.44489551
v -0.00402110 0.07110006 0.46493003
v -0.00578033 0.07102995 0.45442334
v -0.01978316 0.02678547 0.43236578
v -0.02014374 0.02346187 0.42727557
v -0.01827524 0.02499045 0.44489551
v 0.00499906 0.06800085 -0.16468936
v 0.00499906 0.07093178 -0.15229017
v 0.00499906 0.07185734 -0.14491588
v 0.00499906 0.07187136 -0.13493124
v 0.01088319 0.07051107 0.07507242
v 0.01092144 0.07052509 0.16506466
v 0.01091598 0.07052509 0.14509538
v 0.01092144 0.07052509 0.22490722
v 0.01091598 0.07052509 0.23495711
v 0.01089412 0.07051107 0.28494555
v 0.01088319 0.07051107 0.29493019
v 0.01085588 0.07049705 0.32494935
v 0.00499906 0.07191344 0.35490328
v 0.00499906 0.07188538 0.37493780
v 0.00499906 0.07184331 0.40489170
v 0.00499906 0.07181527 0.41494161
v 0.00499906 0.07175917 0.42492625
v 0.00768708 0.07094581 0.43491086
v 0.02004540 0.05537960 0.42492625
v 0.02130746 0.04498811 0.41494161
v 0.01289921 0.06591133 0.45442334
v 0.00758873 0.07080556 0.44489551
v 0.00578033 0.07102995 0.45442334
v 0.00402110 0.07110006 0.46493003
v 0.00963206 0.06985196 0.45742524
v 0.01245121 0.06401815 0.47491467
v 0.01753221 0.05498694 0.45488015
v 0.01848285 0.05498694 0.44489551
v 0.02126922 0.03498928 0.41494161
v 0.02103975 0.02499045 0.41494161
v 0.02014374 0.02346187 0.42727557
v 0.01978316 0.02678547 0.43236578
v 0.01827524 0.02499045 0.44489551
v 0.01755953 0.03498928 0.45488015
v 0.01657065 0.04498811 0.46493003
v 0.01293199 0.05498694 0.48489931
v 0.01502995 0.05498694 0.47491467
v 0.01081217 0.05498694 0.49162099
v 0.00000000 0.06305052 0.50173616
v 0.00000000 0.05498694 0.50199717
v 0.01057724 0.06132561 0.49116418
v -0.01057724 0.06132561 0.49116418
v -0.01081217 0.05498694 0.49162099
v -0.01293199 0.05498694 0.48489931
v -0.01657065 0.04498811 0.46493003
v -0.01755953 0.03498928 0.45488015
v -0.01502995 0.05498694 0.47491467
v -0.00499906 0.07192746 0.05510314
v -0.00499906 0.07192746 0.32494935
v -0.00499906 0.07195550 0.18490341
v -0.00499906 0.07194148 0.28494555
v -0.00499906 0.07194148 0.10509158
v -0.02066277 0.03498928 0.42492625
v -0.02072287 0.04498811 0.42492625
v -0.01975584 0.05279926 0.43288785
v -0.01993613 0.04498811 0.43432355
v -0.01890900 0.04498811 0.44489551
v -0.01783270 0.04498811 0.45488015
v -0.01643406 0.05498694 0.46493003
v -0.01147325 0.06284016 0.48489931
v -0.00807498 0.06902457 0.47491467
v -0.00902016 0.06957149 0.46493003
v -0.00307592 0.07087568 0.47491467
v -0.01988696 0.03498928 0.43380147
v -0.01873964 0.03498928 0.44489551
v 0.00499906 0.07192746 0.05510314
v 0.00499906 0.07195550 0.18490341
v 0.00499906 0.07194148 0.10509158
v 0.00499906 0.07194148 0.28494555
v 0.00499906 0.07192746 0.32494935
v 0.01975584 0.05279926 0.43288785
v 0.02072287 0.04498811 0.42492625
v 0.00307592 0.07087568 0.47491467
v 0.00902016 0.06957149 0.46493003
v 0.00807498 0.06902457 0.47491467
v 0.01147325 0.06284016 0.48489931
v 0.01643406 0.05498694 0.46493003
v 0.01783270 0.04498811 0.45488015
v 0.01890900 0.04498811 0.44489551
v 0.01993613 0.04498811 0.43432355
v 0.02066277 0.03498928 0.42492625
v 0.01988696 0.03498928 0.43380147
v 0.01873964 0.03498928 0.44489551
v -0.00489525 0.06551867 0.49494922
v 0.00489525 0.06551867 0.49494922
v 0.00000000 0.07030072 0.49207780
v 0.00695497 0.06783256 0.48489931
v -0.00695497 0.06783256 0.48489931
v 0.00000000 0.07060923 0.48489931
f 1 2 3
f 1 3 4
f 1 4 5
f 1 5 6
f 1 6 7
f 1 7 2
f 2 8 9
f 2 9 10
f 2 10 3
f 2 7 11
f 2 11 12
f 2 12 8
f 3 10 13
f 3 13 14
f 3 14 15
f 3 15 16
f 3 16 17
f 3 17 4
f 4 17 18
f 4 18 19
f 4 19 20
f 4 20 21
f 4 21 5
f 5 21 22
f 5 22 23
f 5 23 24
f 5 24 25
f 5 25 26
f 5 26 6
f 6 26 7
f 7 26 25
f 7 25 24
f 7 24 27
f 7 27 28
f 7 28 11
f 8 29 9
f 8 12 30
f 8 30 29
f 9 31 32
f 9 32 33
f 9 33 10
f 9 29 31
f 10 33 34
f 10 34 13
f 11 28 35
f 11 35 12
f 12 35 36
f 12 36 30
f 13 34 33
f 13 33 32
f 13 32 57
f 13 57 80
f 13 80 116
f 13 116 166
f 13 166 229
f 13 229 315
f 13 315 395
f 13 395 424
f 13 424 343
f 13 343 259
f 13 259 188
f 13 188 131
f 13 131 88
f 13 88 62
f 13 62 39
f 13 39 38
f 13 38 37
f 13 37 16
f 13 16 15
f 13 15 14
f 16 37 17
f 17 37 38
f 17 38 18
f 18 38 39
f 18 39 40
f 18 40 41
f 18 41 19
f 19 41 42
f 19 42 20
f 20 42 43
f 20 43 44
f 20 44 21
f 21 44 22
f 22 44 45
f 22 45 46
f 22 46 23
f 23 46 47
f 23 47 24
f 24 48 49
f 24 49 50
f 24 50 51
f 24 51 27
f 24 47 48
f 27 51 52
f 27 52 28
f 28 52 53
f 28 53 35
f 29 30 54
f 29 54 31
f 30 36 54
f 31 55 32
f 31 54 56
f 31 56 55
f 32 55 58
f 32 58 57
f 35 53 59
f 35 59 60
f 35 60 36
f 36 61 54
f 36 60 61
f 39 62 63
f 39 63 64
f 39 64 40
f 40 64 65
f 40 65 66
f 40 66 41
f 41 66 42
f 42 66 43
f 43 66 67
f 43 67 68
f 43 68 44
f 44 68 69
f 44 69 45
f 45 69 70
f 45 70 46
f 46 70 71
f 46 71 47
f 47 71 48
f 48 71 72
f 48 72 49
f 49 72 73
f 49 73 74
f 49 74 50
f 50 75 51
f 50 74 75
f 51 75 52
f 52 75 76
f 52 76 53
f 53 76 59
f 54 61 77
f 54 77 56
f 55 56 78
f 55 78 79
f 55 79 58
f 56 77 78
f 57 58 79
f 57 79 78
f 57 78 81
f 57 81 82
f 57 82 83
f 57 83 84
f 57 84 80
f 59 76 85
f 59 85 86
f 59 86 60
f 60 86 87
f 60 87 61
f 61 87 77
f 62 88 89
f 62 89 90
f 62 90 91
f 62 91 92
f 62 92 93
f 62 93 94
f 62 94 63
f 63 94 64
f 64 94 93
f 64 93 65
f 65 93 95
f 65 95 66
f 66 95 67
f 67 95 96
f 67 96 68
f 68 96 97
f 68 97 69
f 69 97 98
f 69 98 70
f 70 98 99
f 70 99 100
f 70 100 71
f 71 100 101
f 71 101 72
f 72 101 102
f 72 102 103
f 72 103 104
f 72 104 105
f 72 105 106
f 72 106 107
f 72 107 73
f 73 107 74
f 74 107 106
f 74 106 108
f 74 108 109
f 74 109 110
f 74 110 111
f 74 111 112
f 74 112 75
f 75 112 113
f 75 113 76
f 76 113 114
f 76 114 85
f 77 87 115
f 77 115 78
f 78 115 81
f 80 84 117
f 80 117 118
f 80 118 119
f 80 119 120
f 80 120 121
f 80 121 122
f 80 122 116
f 81 115 123
f 81 123 124
f 81 124 82
f 82 124 123
f 82 123 125
f 82 125 83
f 83 125 84
f 84 125 126
f 84 126 118
f 84 118 117
f 85 114 127
f 85 127 128
f 85 128 86
f 86 128 129
f 86 129 130
f 86 130 87
f 87 130 115
f 88 131 132
f 88 132 133
f 88 133 134
f 88 134 135
f 88 135 136
f 88 136 137
f 88 137 89
f 89 137 136
f 89 136 138
f 89 138 139
f 89 139 90
f 90 139 91
f 91 139 140
f 91 140 141
f 91 141 92
f 92 141 140
f 92 140 142
f 92 142 93
f 93 142 95
f 95 142 96
f 96 143 97
f 96 142 143
f 97 144 145
f 97 145 98
f 97 143 144
f 98 145 146
f 98 146 99
f 99 146 147
f 99 147 148
f 99 148 100
f 100 148 101
f 101 148 102
f 102 149 150
f 102 150 151
f 102 151 103
f 102 148 149
f 103 151 104
f 104 151 152
f 104 152 105
f 105 152 153
f 105 153 154
f 105 154 155
f 105 155 106
f 106 155 156
f 106 156 157
f 106 157 108
f 108 157 158
f 108 158 159
f 108 159 160
f 108 160 109
f 109 160 161
f 109 161 110
f 110 161 111
f 111 161 162
f 111 162 163
f 111 163 164
f 111 164 112
f 112 164 113
f 113 164 114
f 114 164 165
f 114 165 127
f 115 130 123
f 116 122 167
f 116 167 168
f 116 168 169
f 116 169 170
f 116 170 171
f 116 171 172
f 116 172 173
f 116 173 174
f 116 174 175
f 116 175 166
f 118 176 177
f 118 177 249
f 118 249 178
f 118 178 119
f 118 126 176
f 119 178 179
f 119 179 120
f 120 122 121
f 120 179 180
f 120 180 122
f 122 180 181
f 122 181 182
f 122 182 167
f 123 130 183
f 123 183 125
f 125 183 184
f 125 184 176
f 125 176 126
f 127 165 185
f 127 185 186
f 127 186 128
f 128 186 187
f 128 187 129
f 129 183 130
f 129 187 183
f 131 188 189
f 131 189 190
f 131 190 191
f 131 191 192
f 131 192 193
f 131 193 194
f 131 194 195
f 131 195 196
f 131 196 197
f 131 197 132
f 132 134 133
f 132 197 198
f 132 198 199
f 132 199 200
f 132 200 134
f 134 200 201
f 134 201 202
f 134 202 135
f 135 202 136
f 136 202 281
f 136 281 203
f 136 203 204
f 136 204 138
f 138 204 205
f 138 205 139
f 139 205 206
f 139 206 140
f 140 206 143
f 140 143 142
f 143 206 144
f 144 206 207
f 144 207 145
f 145 207 208
f 145 208 146
f 146 208 209
f 146 209 147
f 147 209 210
f 147 210 149
f 147 149 148
f 149 210 211
f 149 211 212
f 149 212 213
f 149 213 150
f 150 213 151
f 151 213 152
f 152 213 212
f 152 212 214
f 152 214 153
f 153 214 215
f 153 215 154
f 154 215 216
f 154 216 217
f 154 217 155
f 155 217 218
f 155 218 219
f 155 219 156
f 156 219 157
f 157 219 220
f 157 220 221
f 157 221 158
f 158 222 159
f 158 221 223
f 158 223 222
f 159 224 160
f 159 222 224
f 160 225 226
f 160 226 161
f 160 224 225
f 161 226 162
f 162 226 163
f 163 227 165
f 163 165 164
f 163 226 225
f 163 225 228
f 163 228 227
f 165 227 185
f 166 175 230
f 166 230 231
f 166 231 232
f 166 232 233
f 166 233 234
f 166 234 235
f 166 235 236
f 166 236 229
f 167 182 169
f 167 169 168
f 169 182 237
f 169 237 238
f 169 238 170
f 170 238 239
f 170 239 171
f 171 239 240
f 171 240 172
f 172 241 173
f 172 240 241
f 173 241 174
f 174 241 242
f 174 242 175
f 175 242 243
f 175 243 244
f 175 244 245
f 175 245 231
f 175 231 230
f 176 246 247
f 176 247 177
f 176 184 246
f 177 247 248
f 177 248 249
f 178 249 250
f 178 250 179
f 179 250 251
f 179 251 180
f 180 251 252
f 180 252 181
f 181 252 253
f 181 253 182
f 182 253 237
f 183 187 254
f 183 254 184
f 184 254 255
f 184 255 246
f 185 227 256
f 185 256 257
f 185 257 186
f 186 257 258
f 186 258 187
f 187 258 255
f 187 255 254
f 188 259 260
f 188 260 261
f 188 261 262
f 188 262 263
f 188 263 264
f 188 264 265
f 188 265 266
f 188 266 267
f 188 267 189
f 189 267 266
f 189 266 268
f 189 268 269
f 189 269 270
f 189 270 271
f 189 271 190
f 190 271 272
f 190 272 191
f 191 272 192
f 192 272 273
f 192 273 193
f 193 273 274
f 193 274 194
f 194 274 275
f 194 275 195
f 195 275 276
f 195 276 198
f 195 198 197
f 195 197 196
f 198 276 277
f 198 277 199
f 199 277 278
f 199 278 200
f 200 279 201
f 200 278 279
f 201 279 280
f 201 280 202
f 202 280 281
f 203 281 282
f 203 282 283
f 203 283 284
f 203 284 204
f 204 284 205
f 205 284 285
f 205 285 286
f 205 286 206
f 206 286 207
f 207 285 287
f 207 287 208
f 207 286 285
f 208 287 288
f 208 288 209
f 209 288 289
f 209 289 210
f 210 289 211
f 211 290 291
f 211 291 214
f 211 214 212
f 211 289 290
f 214 291 215
f 215 291 292
f 215 292 216
f 216 293 217
f 216 292 294
f 216 294 293
f 217 293 295
f 217 295 218
f 218 295 296
f 218 296 297
f 218 297 298
f 218 298 219
f 219 298 299
f 219 299 300
f 219 300 220
f 220 300 301
f 220 301 302
f 220 302 303
f 220 303 221
f 221 304 223
f 221 303 304
f 222 223 305
f 222 305 306
f 222 306 224
f 223 304 307
f 223 307 305
f 224 306 228
f 224 228 225
f 227 228 256
f 228 306 308
f 228 308 256
f 229 236 309
f 229 309 310
f 229 310 311
f 229 311 312
f 229 312 313
f 229 313 314
f 229 314 315
f 231 245 316
f 231 316 232
f 232 316 317
f 232 317 233
f 233 317 318
f 233 318 319
f 233 319 234
f 234 319 235
f 235 319 310
f 235 310 236
f 236 310 309
f 237 253 320
f 237 320 238
f 238 320 321
f 238 321 239
f 239 321 240
f 240 321 322
f 240 322 241
f 241 322 242
f 242 322 323
f 242 323 324
f 242 324 325
f 242 325 243
f 243 325 326
f 243 326 244
f 244 326 245
f 245 326 327
f 245 327 316
f 246 255 328
f 246 328 329
f 246 329 247
f 247 329 248
f 248 329 330
f 248 330 331
f 248 331 332
f 248 332 250
f 248 250 249
f 250 332 333
f 250 333 251
f 251 333 252
f 252 333 334
f 252 334 335
f 252 335 336
f 252 336 337
f 252 337 338
f 252 338 339
f 252 339 253
f 253 339 320
f 255 258 328
f 256 340 257
f 256 308 340
f 257 340 341
f 257 341 342
f 257 342 258
f 258 342 328
f 259 343 344
f 259 344 345
f 259 345 346
f 259 346 260
f 260 346 347
f 260 347 348
f 260 348 261
f 261 348 262
f 262 348 349
f 262 349 263
f 263 349 350
f 263 350 264
f 264 350 351
f 264 351 265
f 265 351 352
f 265 352 266
f 266 352 268
f 268 352 353
f 268 353 354
f 268 354 269
f 269 354 270
f 270 354 355
f 270 355 271
f 271 355 356
f 271 356 357
f 271 357 358
f 271 358 272
f 272 358 273
f 273 358 359
f 273 359 274
f 274 359 275
f 275 359 360
f 275 360 276
f 276 360 277
f 277 361 278
f 277 360 361
f 278 362 363
f 278 363 279
f 278 361 364
f 278 364 365
f 278 365 366
f 278 366 367
f 278 367 362
f 279 363 280
f 280 363 368
f 280 368 282
f 280 282 281
f 282 368 369
f 282 369 370
f 282 370 371
f 282 371 283
f 283 371 284
f 284 371 372
f 284 372 285
f 285 372 287
f 287 373 288
f 287 372 373
f 288 374 375
f 288 375 289
f 288 373 374
f 289 375 290
f 290 376 291
f 290 375 376
f 291 376 292
f 292 376 377
f 292 377 294
f 293 294 378
f 293 378 295
f 294 379 378
f 294 377 379
f 295 378 380
f 295 380 381
f 295 381 382
f 295 382 383
f 295 383 296
f 296 383 297
f 297 383 298
f 298 383 299
f 299 383 382
f 299 382 384
f 299 384 300
f 300 384 301
f 301 384 302
f 302 384 303
f 303 384 382
f 303 382 385
f 303 385 386
f 303 386 387
f 303 387 304
f 304 387 307
f 305 388 389
f 305 389 306
f 305 307 388
f 306 389 308
f 307 387 390
f 307 390 388
f 308 389 340
f 310 319 313
f 310 313 311
f 311 313 312
f 313 319 391
f 313 391 392
f 313 392 393
f 313 393 314
f 314 393 394
f 314 394 395
f 314 395 315
f 316 327 396
f 316 396 317
f 317 396 397
f 317 397 398
f 317 398 318
f 318 398 399
f 318 399 400
f 318 400 401
f 318 401 319
f 319 401 402
f 319 402 391
f 320 403 404
f 320 404 321
f 320 339 338
f 320 338 403
f 321 404 405
f 321 405 322
f 322 405 406
f 322 406 323
f 323 406 324
f 324 406 325
f 325 406 326
f 326 406 327
f 327 406 407
f 327 407 408
f 327 408 396
f 328 342 409
f 328 409 329
f 329 409 410
f 329 410 330
f 330 410 411
f 330 411 331
f 331 334 332
f 331 411 334
f 332 334 333
f 334 411 412
f 334 412 335
f 335 412 413
f 335 413 414
f 335 414 415
f 335 415 336
f 336 415 416
f 336 416 338
f 336 338 417
f 336 417 337
f 337 417 338
f 338 418 403
f 338 416 419
f 338 419 420
f 338 420 418
f 340 421 422
f 340 422 341
f 340 389 423
f 340 423 421
f 341 422 342
f 342 422 409
f 343 424 344
f 344 425 426
f 344 426 345
f 344 424 425
f 345 426 427
f 345 427 428
f 345 428 349
f 345 349 348
f 345 348 347
f 345 347 346
f 349 429 431
f 349 431 350
f 349 428 430
f 349 430 429
f 350 431 432
f 350 432 433
f 350 433 351
f 351 433 434
f 351 434 435
f 351 435 352
f 352 435 353
f 353 436 437
f 353 437 438
f 353 438 354
f 353 435 436
f 354 438 355
f 355 438 356
f 356 438 357
f 357 438 358
f 358 438 439
f 358 439 359
f 359 439 440
f 359 440 360
f 360 440 441
f 360 441 364
f 360 364 361
f 362 369 368
f 362 368 363
f 362 367 442
f 362 442 443
f 362 443 369
f 364 444 365
f 364 441 445
f 364 445 446
f 364 446 447
f 364 447 448
f 364 448 366
f 364 366 444
f 365 444 366
f 366 448 449
f 366 449 367
f 367 449 450
f 367 450 451
f 367 451 442
f 369 443 370
f 370 443 452
f 370 452 371
f 371 452 453
f 371 453 372
f 372 453 373
f 373 453 454
f 373 454 374
f 374 454 375
f 375 454 455
f 375 455 456
f 375 456 376
f 376 457 377
f 376 456 457
f 377 458 379
f 377 457 458
f 378 459 380
f 378 379 459
f 379 460 459
f 379 458 460
f 380 461 381
f 380 459 461
f 381 462 463
f 381 463 382
f 381 461 464
f 381 464 462
f 382 463 385
f 385 463 462
f 385 462 465
f 385 465 466
f 385 466 386
f 386 466 467
f 386 467 387
f 387 467 390
f 388 390 468
f 388 468 469
f 388 469 389
f 389 469 423
f 390 467 470
f 390 470 468
f 391 402 392
f 392 427 426
f 392 426 393
f 392 402 471
f 392 471 489
f 392 489 427
f 393 426 425
f 393 425 394
f 394 425 424
f 394 424 395
f 396 408 397
f 397 408 472
f 397 472 399
f 397 399 398
f 399 473 400
f 399 472 474
f 399 474 473
f 400 473 401
f 401 473 402
f 402 473 475
f 402 475 471
f 403 418 404
f 404 418 420
f 404 420 419
f 404 419 447
f 404 447 440
f 404 440 439
f 404 439 405
f 405 439 438
f 405 438 406
f 406 438 437
f 406 437 407
f 407 437 436
f 407 436 408
f 408 436 493
f 408 493 472
f 409 422 476
f 409 476 410
f 410 476 477
f 410 477 411
f 411 477 478
f 411 478 412
f 412 478 413
f 413 478 414
f 414 478 479
f 414 479 480
f 414 480 481
f 414 481 482
f 414 482 415
f 415 482 483
f 415 483 484
f 415 484 485
f 415 485 416
f 416 485 486
f 416 486 419
f 419 486 496
f 419 496 447
f 421 487 422
f 421 423 488
f 421 488 487
f 422 487 476
f 423 469 488
f 427 489 430
f 427 430 428
f 429 430 490
f 429 490 431
f 430 489 491
f 430 491 490
f 431 490 432
f 432 490 492
f 432 492 493
f 432 493 434
f 432 434 433
f 434 493 436
f 434 436 435
f 440 447 446
f 440 446 445
f 440 445 441
f 442 494 443
f 442 451 494
f 443 494 495
f 443 495 452
f 447 496 448
f 448 496 497
f 448 497 449
f 449 497 498
f 449 498 499
f 449 499 500
f 449 500 450
f 450 500 501
f 450 501 502
f 450 502 503
f 450 503 494
f 450 494 451
f 452 495 504
f 452 504 453
f 453 504 454
f 454 505 455
f 454 504 505
f 455 505 506
f 455 506 456
f 456 506 457
f 457 501 458
f 457 506 501
f 458 500 460
f 458 501 500
f 459 464 461
f 459 460 464
f 460 499 464
f 460 500 499
f 462 507 465
f 462 464 508
f 462 508 509
f 462 509 507
f 464 499 510
f 464 510 508
f 465 507 511
f 465 511 483
f 465 483 470
f 465 470 467
f 465 467 466
f 468 470 482
f 468 482 481
f 468 481 469
f 469 481 488
f 470 483 482
f 471 475 491
f 471 491 489
f 472 493 492
f 472 492 474
f 473 490 491
f 473 491 475
f 473 474 492
f 473 492 490
f 476 487 479
f 476 479 477
f 477 479 478
f 479 487 480
f 480 488 481
f 480 487 488
f 483 511 484
f 484 511 509
f 484 509 486
f 484 486 485
f 486 509 512
f 486 512 496
f 494 503 495
f 495 503 504
f 496 498 497
f 496 512 509
f 496 509 498
f 498 509 510
f 498 510 499
f 501 506 502
f 502 506 505
f 502 505 503
f 503 505 504
f 507 509 511
f 508 510 509

