# https://github.com/mikedh/trimesh
v 0.00499514 0.06804647 -0.39170671
v 0.00499514 0.06803535 -0.41500652
v -0.00499514 0.06804647 -0.39170671
v 0.01499824 0.06496485 -0.39170671
v 0.01499824 0.06496485 -0.41500652
v -0.00499514 0.06803535 -0.41500652
v 0.00499514 0.06800197 -0.42500940
v -0.01499824 0.06496485 -0.41500652
v -0.01329259 0.06549884 -0.39170671
v 0.02132072 0.06123796 -0.39170671
v 0.02130789 0.06123796 -0.41500652
v 0.01499824 0.06482022 -0.42500940
v 0.00499514 0.06792410 -0.43501231
v -0.00499514 0.06800197 -0.42500940
v -0.01499824 0.06482022 -0.42500940
v -0.02130789 0.06123796 -0.41500652
v -0.02132072 0.06123796 -0.39170671
v -0.01499824 0.06496485 -0.39170671
v -0.00499514 0.06792410 -0.43501231
v 0.02520013 0.05605369 -0.39170671
v 0.02597601 0.05498569 -0.41500652
v 0.02117324 0.06111558 -0.42500940
v 0.01499824 0.06457546 -0.43501231
v 0.00499514 0.06775722 -0.44500419
v -0.00499514 0.06775722 -0.44500419
v -0.01499824 0.06457546 -0.43501231
v -0.02117324 0.06111558 -0.42500940
v -0.02597601 0.05498569 -0.41500652
v -0.02599525 0.05498569 -0.39170671
v 0.02599525 0.05498569 -0.39170671
v 0.02904748 0.04992380 -0.39170671
v 0.02967588 0.04887805 -0.39170671
v 0.02966305 0.04882243 -0.41500652
v 0.02571311 0.05498569 -0.42500940
v 0.02096163 0.06092646 -0.43501231
v 0.01499824 0.06417497 -0.44500419
v 0.00499514 0.06733447 -0.45500711
v -0.00499514 0.06733447 -0.45500711
v -0.01499824 0.06417497 -0.44500419
v -0.02096163 0.06092646 -0.43501231
v -0.02571311 0.05498569 -0.42500940
v -0.02966305 0.04882243 -0.41500652
v -0.02967588 0.04887805 -0.39170671
v 0.03099680 0.04388291 -0.39170671
v 0.03097756 0.04382729 -0.41500652
v 0.02953481 0.04833292 -0.42500940
v 0.02522578 0.05498569 -0.43501231
v 0.02065385 0.06063721 -0.44500419
v 0.01596008 0.06281771 -0.45573178
v 0.01434419 0.06278434 -0.46498802
v 0.00499514 0.06638885 -0.46498802
v -0.00499514 0.06638885 -0.46498802
v -0.01434419 0.06278434 -0.46498802
v -0.01596008 0.06281771 -0.45573178
v -0.02065385 0.06063721 -0.44500419
v -0.02522578 0.05498569 -0.43501231
v -0.02953481 0.04833292 -0.42500940
v -0.03097756 0.04382729 -0.41500652
v -0.03099680 0.04388291 -0.39170671
v 0.03213818 0.03650702 -0.39170671
v 0.03231772 0.03499401 -0.41500652
v 0.03084291 0.04333778 -0.42500940
v 0.02452684 0.05498569 -0.44500419
v 0.03061206 0.04239216 -0.43501231
v 0.02925908 0.04738730 -0.43501231
v 0.02031400 0.06029233 -0.45289892
v 0.01993567 0.05993633 -0.45956385
v 0.01252312 0.06160508 -0.47499090
v 0.01934575 0.05933558 -0.46498802
v 0.00499514 0.06415272 -0.47499090
v -0.00499514 0.06415272 -0.47499090
v -0.01252312 0.06160508 -0.47499090
v -0.01934575 0.05933558 -0.46498802
v -0.01993567 0.05993633 -0.45956385
v -0.02031400 0.06029233 -0.45289892
v -0.02452684 0.05498569 -0.44500419
v -0.02925908 0.04738730 -0.43501231
v -0.03061206 0.04239216 -0.43501231
v -0.03084291 0.04333778 -0.42500940
v -0.03231772 0.03499401 -0.41500652
v -0.03236261 0.03499401 -0.39170671
v 0.03236261 0.03499401 -0.39170671
v 0.03275375 0.02498149 -0.39170671
v 0.03269605 0.02498149 -0.41500652
v 0.03259345 0.02498149 -0.42500940
v 0.03245879 0.02498149 -0.43501231
v 0.03210612 0.03499401 -0.42500940
v 0.03177268 0.03499401 -0.43501231
v 0.02887435 0.04619692 -0.44500419
v 0.02277630 0.05434044 -0.46498802
v 0.02291737 0.05595357 -0.45573178
v 0.03032351 0.04119065 -0.44500419
v 0.03131741 0.03499401 -0.44500419
v 0.03010550 0.04037853 -0.45125189
v 0.01752467 0.05763345 -0.47499090
v 0.01083670 0.06052595 -0.48093116
v 0.02167981 0.05263831 -0.47499090
v 0.00499514 0.06128246 -0.48229268
v -0.00499514 0.06128246 -0.48229268
v -0.01083670 0.06052595 -0.48093116
v -0.01752467 0.05763345 -0.47499090
v -0.02167981 0.05263831 -0.47499090
v -0.02277630 0.05434044 -0.46498802
v -0.02291737 0.05595357 -0.45573178
v -0.02887435 0.04619692 -0.44500419
v -0.03010550 0.04037853 -0.45125189
v -0.03032351 0.04119065 -0.44500419
v -0.03131741 0.03499401 -0.44500419
v -0.03177268 0.03499401 -0.43501231
v -0.03210612 0.03499401 -0.42500940
v -0.03245879 0.02498149 -0.43501231
v -0.03259345 0.02498149 -0.42500940
v -0.03269605 0.02498149 -0.41500652
v -0.03275375 0.02498149 -0.39170671
v 0.03263192 0.01669334 -0.39170671
v 0.03259986 0.01498009 -0.39170671
v 0.03245879 0.01498009 -0.42500940
v 0.03237543 0.01498009 -0.43501231
v 0.03213818 0.01498009 -0.44500419
v 0.03217024 0.02498149 -0.44500419
v 0.02861786 0.04422779 -0.45475456
v 0.02712380 0.04498429 -0.46498802
v 0.03152902 0.02498149 -0.45500711
v 0.03061848 0.03528327 -0.45475456
v 0.02981695 0.03879877 -0.45791683
v 0.02064743 0.05100293 -0.48144722
v 0.01483153 0.05475207 -0.48452166
v 0.01215762 0.05181506 -0.49211991
v 0.00499514 0.05830095 -0.48729962
v 0.02495646 0.04498429 -0.47499090
v -0.00499514 0.05830095 -0.48729962
v -0.01215762 0.05181506 -0.49211991
v -0.01483153 0.05475207 -0.48452166
v -0.02064743 0.05100293 -0.48144722
v -0.02495646 0.04498429 -0.47499090
v -0.02712380 0.04498429 -0.46498802
v -0.02861786 0.04422779 -0.45475456
v -0.02981695 0.03879877 -0.45791683
v -0.03061848 0.03528327 -0.45475456
v -0.03152902 0.02498149 -0.45500711
v -0.03217024 0.02498149 -0.44500419
v -0.03213818 0.01498009 -0.44500419
v -0.03237543 0.01498009 -0.43501231
v -0.03245879 0.01498009 -0.42500940
v -0.03259986 0.01498009 -0.39170671
v 0.03218307 0.00671419 -0.39170671
v 0.03208688 0.00500094 -0.39170671
v 0.03177268 0.00500094 -0.43501231
v 0.03159955 0.00500094 -0.44500419
v 0.03149695 0.01498009 -0.45500711
v 0.02932320 0.03528327 -0.46513078
v 0.03054794 0.02498149 -0.46298963
v 0.03032351 0.03213488 -0.46190262
v 0.02169904 0.04471729 -0.48486203
v 0.02046148 0.04119065 -0.49083522
v 0.01881994 0.04787680 -0.48811215
v 0.01508802 0.04480629 -0.49481001
v 0.01135609 0.04175803 -0.50099182
v 0.00499514 0.04852205 -0.49886170
v 0.00499514 0.05330581 -0.49385476
v 0.02711739 0.03499401 -0.47499090
v -0.00499514 0.05330581 -0.49385476
v -0.00499514 0.04852205 -0.49886170
v -0.01135609 0.04175803 -0.50099182
v -0.01508802 0.04480629 -0.49481001
v -0.01881994 0.04787680 -0.48811215
v -0.02046148 0.04119065 -0.49083522
v -0.02169904 0.04471729 -0.48486203
v -0.02711739 0.03499401 -0.47499090
v -0.02932320 0.03528327 -0.46513078
v -0.03032351 0.03213488 -0.46190262
v -0.03054794 0.02498149 -0.46298963
v -0.03149695 0.01498009 -0.45500711
v -0.03159955 0.00500094 -0.44500419
v -0.03177268 0.00500094 -0.43501231
v -0.03208688 0.00500094 -0.39170671
v 0.03084932 -0.00495596 -0.39170671
v 0.03088779 -0.00498934 -0.42500940
v 0.03061848 -0.00582371 -0.43539661
v 0.03063130 -0.00393246 -0.44500419
v 0.03038122 -0.00219695 -0.45275617
v 0.03075955 0.00445581 -0.45564395
v 0.03027863 0.00741507 -0.46111205
v 0.03052229 0.01498009 -0.46239671
v 0.02961817 0.02498149 -0.46798560
v 0.02362913 0.03499401 -0.48499382
v 0.02080774 0.03499401 -0.49141717
v 0.01711429 0.03499401 -0.49640214
v 0.00499514 0.04351579 -0.50199103
v 0.01211273 0.03499401 -0.50149691
v 0.00499514 0.03499401 -0.50387961
v 0.02754701 0.02498149 -0.47499090
v -0.00499514 0.04351579 -0.50199103
v -0.00499514 0.03499401 -0.50387961
v -0.01211273 0.03499401 -0.50149691
v -0.01711429 0.03499401 -0.49640214
v -0.02080774 0.03499401 -0.49141717
v -0.02362913 0.03499401 -0.48499382
v -0.02754701 0.02498149 -0.47499090
v -0.02961817 0.02498149 -0.46798560
v -0.03052229 0.01498009 -0.46239671
v -0.03027863 0.00741507 -0.46111205
v -0.03075955 0.00445581 -0.45564395
v -0.03038122 -0.00219695 -0.45275617
v -0.03063130 -0.00393246 -0.44500419
v -0.03061848 -0.00582371 -0.43539661
v -0.03088779 -0.00498934 -0.42500940
v -0.03185604 0.00303181 -0.39170671
v 0.03060565 -0.00626872 -0.39170671
v 0.03014397 -0.01044060 -0.42500940
v 0.03009267 -0.01040723 -0.43232217
v 0.02995160 -0.00971747 -0.43898711
v 0.02981053 -0.00893872 -0.44500419
v 0.02991313 0.00075118 -0.45942110
v 0.02848961 -0.01499074 -0.44500419
v 0.02931679 -0.00531196 -0.45564395
v 0.02936168 0.01498009 -0.46739268
v 0.02882946 0.00445581 -0.46465862
v 0.02355218 0.02498149 -0.48499382
v 0.02062178 0.02498149 -0.49102187
v 0.01145868 0.02678374 -0.50099182
v 0.00579667 0.02405811 -0.50172752
v 0.02673907 0.01498009 -0.47499090
v -0.00579667 0.02405811 -0.50172752
v -0.01145868 0.02678374 -0.50099182
v -0.02062178 0.02498149 -0.49102187
v -0.02355218 0.02498149 -0.48499382
v -0.02673907 0.01498009 -0.47499090
v -0.02936168 0.01498009 -0.46739268
v -0.02882946 0.00445581 -0.46465862
v -0.02991313 0.00075118 -0.45942110
v -0.02931679 -0.00531196 -0.45564395
v -0.02848961 -0.01499074 -0.44500419
v -0.02981053 -0.00893872 -0.44500419
v -0.02995160 -0.00971747 -0.43898711
v -0.03009267 -0.01040723 -0.43232217
v -0.03084932 -0.00495596 -0.39170671
v -0.03014397 -0.01044060 -0.42500940
v 0.02995160 -0.00977310 -0.39170671
v 0.02569387 -0.02499214 -0.43501231
v 0.02907312 -0.01423424 -0.43539661
v 0.02680319 -0.01499074 -0.45500711
v 0.02647617 -0.00498934 -0.46498802
v 0.02543097 -0.02499214 -0.44500419
v 0.02469356 0.00500094 -0.47499090
v 0.02203248 0.01546959 -0.48533419
v 0.02021781 0.01914085 -0.49030817
v 0.01899949 0.01246583 -0.48889175
v 0.00966325 0.02011985 -0.49994874
v 0.00300093 0.01921872 -0.50036597
v -0.00300093 0.01921872 -0.50036597
v -0.00966325 0.02011985 -0.49994874
v -0.01899949 0.01246583 -0.48889175
v -0.02021781 0.01914085 -0.49030817
v -0.02203248 0.01546959 -0.48533419
v -0.02469356 0.00500094 -0.47499090
v -0.02647617 -0.00498934 -0.46498802
v -0.02680319 -0.01499074 -0.45500711
v -0.02907312 -0.01423424 -0.43539661
v -0.02543097 -0.02499214 -0.44500419
v -0.02995160 -0.00977310 -0.39170671
v -0.02569387 -0.02499214 -0.43501231
v 0.02654670 -0.01483499 -0.39170671
v 0.01853139 -0.03825317 -0.43501231
v 0.02182087 -0.03325803 -0.43501231
v 0.02175675 -0.03286866 -0.44500419
v 0.02257752 -0.02519239 -0.45502904
v 0.02117324 -0.02198838 -0.46183673
v 0.02269935 -0.01489061 -0.46509781
v 0.02182729 -0.00416609 -0.47468346
v 0.02083980 -0.03128890 -0.45172405
v 0.02108988 0.00500094 -0.48182055
v 0.01233075 0.00748182 -0.49153796
v 0.02014728 -0.00028345 -0.48018450
v 0.01539580 0.00448919 -0.48712394
v 0.00499514 0.00566844 -0.49263597
v 0.00579667 0.01552522 -0.49808210
v -0.00499514 0.00566844 -0.49263597
v -0.00579667 0.01552522 -0.49808210
v -0.01233075 0.00748182 -0.49153796
v -0.01539580 0.00448919 -0.48712394
v -0.02014728 -0.00028345 -0.48018450
v -0.02108988 0.00500094 -0.48182055
v -0.02182729 -0.00416609 -0.47468346
v -0.02269935 -0.01489061 -0.46509781
v -0.02117324 -0.02198838 -0.46183673
v -0.02257752 -0.02519239 -0.45502904
v -0.02083980 -0.03128890 -0.45172405
v -0.02175675 -0.03286866 -0.44500419
v -0.02182087 -0.03325803 -0.43501231
v -0.02947068 -0.01054073 -0.39170671
v 0.02147461 -0.02164350 -0.39170671
v 0.01352984 -0.04243618 -0.43501231
v 0.01774910 -0.03786379 -0.44500419
v 0.02052560 -0.02250013 -0.39170671
v 0.01833902 -0.01816137 -0.46850166
v 0.02083339 -0.01149748 -0.47113690
v 0.01867887 -0.02865227 -0.45837799
v 0.01104189 -0.04063393 -0.45099935
v 0.01485717 -0.03473766 -0.45468867
v 0.00499514 0.00067330 -0.48953956
v 0.01444679 -0.00416609 -0.48205113
v 0.01074693 -0.01058523 -0.48044804
v 0.01741566 -0.00695847 -0.47780183
v -0.00499514 0.00067330 -0.48953956
v -0.01444679 -0.00416609 -0.48205113
v -0.01074693 -0.01058523 -0.48044804
v -0.01741566 -0.00695847 -0.47780183
v -0.02083339 -0.01149748 -0.47113690
v -0.01833902 -0.01816137 -0.46850166
v -0.01867887 -0.02865227 -0.45837799
v -0.01485717 -0.03473766 -0.45468867
v -0.01104189 -0.04063393 -0.45099935
v -0.01774910 -0.03786379 -0.44500419
v -0.01853139 -0.03825317 -0.43501231
v -0.02654670 -0.01483499 -0.39170671
v 0.00499514 -0.04560681 -0.43501231
v 0.01274755 -0.04185768 -0.44500419
v 0.01554329 -0.02664977 -0.39170671
v 0.01054173 -0.03034328 -0.39170671
v 0.01208067 -0.04141268 -0.42875361
v 0.01517779 -0.02500326 -0.46502095
v 0.01167670 -0.02134313 -0.47108200
v 0.01201014 -0.03153365 -0.46152928
v 0.00499514 -0.03779704 -0.45718116
v 0.00499514 -0.04458331 -0.44500419
v 0.00499514 -0.04141268 -0.45218521
v 0.00499514 -0.00498934 -0.48559770
v 0.00499514 -0.02255576 -0.47208118
v 0.00499514 -0.01638137 -0.47706616
v 0.00499514 -0.01138623 -0.48104095
v -0.00499514 -0.00498934 -0.48559770
v -0.00499514 -0.01138623 -0.48104095
v -0.00499514 -0.01638137 -0.47706616
v -0.00499514 -0.02255576 -0.47208118
v -0.01167670 -0.02134313 -0.47108200
v -0.01517779 -0.02500326 -0.46502095
v -0.01201014 -0.03153365 -0.46152928
v -0.00499514 -0.03779704 -0.45718116
v -0.00499514 -0.04141268 -0.45218521
v -0.00499514 -0.04458331 -0.44500419
v -0.01274755 -0.04185768 -0.44500419
v -0.01352984 -0.04243618 -0.43501231
v -0.01554329 -0.02664977 -0.39170671
v -0.02147461 -0.02164350 -0.39170671
v -0.02557204 -0.01619224 -0.39170671
v -0.00499514 -0.04560681 -0.43501231
v 0.00949012 -0.03069928 -0.39170671
v 0.00499514 -0.03192303 -0.39170671
v 0.00499514 -0.02755089 -0.46779895
v 0.00499514 -0.03280191 -0.46280298
v -0.00499514 -0.02755089 -0.46779895
v -0.00499514 -0.03280191 -0.46280298
v -0.01208067 -0.04141268 -0.42875361
v -0.01054173 -0.03034328 -0.39170671
v -0.01469046 -0.02730614 -0.39170671
v -0.00499514 -0.03192303 -0.39170671
f 1 2 6
f 1 6 3
f 1 3 9
f 1 9 18
f 1 18 17
f 1 17 29
f 1 29 43
f 1 43 59
f 1 59 81
f 1 81 114
f 1 114 145
f 1 145 176
f 1 176 208
f 1 208 237
f 1 237 261
f 1 261 291
f 1 291 316
f 1 316 346
f 1 346 345
f 1 345 344
f 1 344 356
f 1 356 355
f 1 355 357
f 1 357 349
f 1 349 348
f 1 348 320
f 1 320 319
f 1 319 295
f 1 295 292
f 1 292 263
f 1 263 239
f 1 239 209
f 1 209 177
f 1 177 147
f 1 147 146
f 1 146 116
f 1 116 115
f 1 115 83
f 1 83 82
f 1 82 60
f 1 60 44
f 1 44 32
f 1 32 31
f 1 31 30
f 1 30 20
f 1 20 10
f 1 10 4
f 1 4 5
f 1 5 2
f 2 5 7
f 2 7 14
f 2 14 6
f 3 6 8
f 3 8 9
f 4 10 5
f 5 10 11
f 5 11 12
f 5 12 13
f 5 13 7
f 6 14 8
f 7 13 19
f 7 19 14
f 8 15 16
f 8 16 17
f 8 17 18
f 8 18 9
f 8 14 19
f 8 19 15
f 10 20 11
f 11 20 21
f 11 21 22
f 11 22 12
f 12 22 23
f 12 23 24
f 12 24 13
f 13 24 25
f 13 25 19
f 15 19 25
f 15 25 26
f 15 26 27
f 15 27 16
f 16 27 28
f 16 28 29
f 16 29 17
f 20 30 21
f 21 30 31
f 21 31 32
f 21 32 33
f 21 33 34
f 21 34 22
f 22 35 23
f 22 34 35
f 23 35 36
f 23 36 24
f 24 36 37
f 24 37 38
f 24 38 25
f 25 38 39
f 25 39 26
f 26 39 40
f 26 40 27
f 27 40 41
f 27 41 28
f 28 41 42
f 28 42 43
f 28 43 29
f 32 44 33
f 33 44 45
f 33 45 46
f 33 46 34
f 34 46 47
f 34 47 35
f 35 47 48
f 35 48 36
f 36 48 49
f 36 49 50
f 36 50 37
f 37 51 52
f 37 52 38
f 37 50 51
f 38 52 53
f 38 53 39
f 39 53 54
f 39 54 55
f 39 55 40
f 40 55 56
f 40 56 41
f 41 56 57
f 41 57 42
f 42 57 58
f 42 58 59
f 42 59 43
f 44 60 45
f 45 60 61
f 45 61 62
f 45 62 46
f 46 63 47
f 46 62 64
f 46 64 65
f 46 65 63
f 47 63 48
f 48 63 66
f 48 66 49
f 49 66 67
f 49 67 50
f 50 68 51
f 50 67 69
f 50 69 68
f 51 68 70
f 51 70 71
f 51 71 52
f 52 71 72
f 52 72 53
f 53 72 73
f 53 73 74
f 53 74 54
f 54 74 75
f 54 75 55
f 55 75 76
f 55 76 56
f 56 76 57
f 57 77 78
f 57 78 79
f 57 79 58
f 57 76 77
f 58 79 80
f 58 80 81
f 58 81 59
f 60 82 61
f 61 83 84
f 61 84 85
f 61 85 86
f 61 86 87
f 61 87 62
f 61 82 83
f 62 87 88
f 62 88 64
f 63 65 89
f 63 89 90
f 63 90 91
f 63 91 66
f 64 92 65
f 64 88 93
f 64 93 92
f 65 92 94
f 65 94 89
f 66 91 67
f 67 91 90
f 67 90 69
f 68 69 95
f 68 95 96
f 68 96 70
f 69 90 97
f 69 97 95
f 70 96 98
f 70 98 99
f 70 99 71
f 71 99 100
f 71 100 72
f 72 100 101
f 72 101 73
f 73 101 102
f 73 102 103
f 73 103 74
f 74 103 104
f 74 104 75
f 75 104 76
f 76 104 103
f 76 103 105
f 76 105 77
f 77 105 106
f 77 106 107
f 77 107 78
f 78 107 108
f 78 108 109
f 78 109 79
f 79 109 110
f 79 110 80
f 80 110 111
f 80 111 112
f 80 112 113
f 80 113 114
f 80 114 81
f 83 115 84
f 84 115 116
f 84 116 117
f 84 117 118
f 84 118 85
f 85 118 86
f 86 118 119
f 86 119 120
f 86 120 87
f 87 120 88
f 88 120 93
f 89 121 122
f 89 122 90
f 89 94 121
f 90 122 97
f 92 93 94
f 93 120 123
f 93 123 124
f 93 124 94
f 94 124 125
f 94 125 121
f 95 97 126
f 95 126 127
f 95 127 96
f 96 127 128
f 96 128 129
f 96 129 98
f 97 122 130
f 97 130 126
f 98 129 131
f 98 131 99
f 99 131 100
f 100 131 132
f 100 132 133
f 100 133 101
f 101 133 134
f 101 134 102
f 102 134 135
f 102 135 136
f 102 136 103
f 103 136 105
f 105 136 137
f 105 137 106
f 106 138 139
f 106 139 108
f 106 108 107
f 106 137 138
f 108 140 141
f 108 141 109
f 108 139 140
f 109 141 110
f 110 141 111
f 111 141 142
f 111 142 143
f 111 143 112
f 112 143 113
f 113 143 144
f 113 144 145
f 113 145 114
f 116 146 117
f 117 146 147
f 117 147 148
f 117 148 118
f 118 148 149
f 118 149 119
f 119 149 150
f 119 150 123
f 119 123 120
f 121 125 122
f 122 125 151
f 122 151 130
f 123 150 152
f 123 152 153
f 123 153 124
f 124 153 125
f 125 153 151
f 126 128 127
f 126 130 154
f 126 154 155
f 126 155 156
f 126 156 128
f 128 156 157
f 128 157 158
f 128 158 159
f 128 159 160
f 128 160 129
f 129 160 162
f 129 162 131
f 130 151 161
f 130 161 155
f 130 155 154
f 131 162 132
f 132 163 164
f 132 164 165
f 132 165 166
f 132 166 134
f 132 134 133
f 132 162 163
f 134 166 167
f 134 167 168
f 134 168 135
f 135 168 167
f 135 167 169
f 135 169 170
f 135 170 136
f 136 170 138
f 136 138 137
f 138 170 171
f 138 171 139
f 139 171 140
f 140 172 173
f 140 173 142
f 140 142 141
f 140 171 172
f 142 173 174
f 142 174 143
f 143 174 175
f 143 175 144
f 144 175 176
f 144 176 145
f 147 177 178
f 147 178 148
f 148 178 149
f 149 178 179
f 149 179 180
f 149 180 181
f 149 181 182
f 149 182 150
f 150 182 183
f 150 183 184
f 150 184 152
f 151 153 185
f 151 185 161
f 152 184 185
f 152 185 153
f 155 158 157
f 155 157 156
f 155 161 186
f 155 186 187
f 155 187 188
f 155 188 158
f 158 189 159
f 158 188 190
f 158 190 191
f 158 191 189
f 159 163 162
f 159 162 160
f 159 189 193
f 159 193 163
f 161 185 192
f 161 192 186
f 163 193 164
f 164 167 165
f 164 193 194
f 164 194 195
f 164 195 196
f 164 196 167
f 165 167 166
f 167 196 197
f 167 197 198
f 167 198 169
f 169 198 199
f 169 199 200
f 169 200 170
f 170 200 171
f 171 200 172
f 172 200 201
f 172 201 173
f 173 201 202
f 173 202 203
f 173 203 174
f 174 203 204
f 174 204 205
f 174 205 206
f 174 206 207
f 174 207 175
f 175 207 176
f 176 207 208
f 177 209 210
f 177 210 178
f 178 210 211
f 178 211 179
f 179 211 180
f 180 211 212
f 180 212 213
f 180 213 181
f 181 214 182
f 181 213 215
f 181 215 216
f 181 216 214
f 182 214 183
f 183 217 184
f 183 214 218
f 183 218 217
f 184 217 185
f 185 217 192
f 186 192 219
f 186 219 187
f 187 219 220
f 187 220 188
f 188 220 221
f 188 221 190
f 189 191 194
f 189 194 193
f 190 221 191
f 191 221 222
f 191 222 224
f 191 224 194
f 192 217 223
f 192 223 219
f 194 224 225
f 194 225 195
f 195 225 196
f 196 225 226
f 196 226 197
f 197 226 227
f 197 227 198
f 198 227 199
f 199 227 228
f 199 228 229
f 199 229 200
f 200 229 201
f 201 229 202
f 202 229 230
f 202 230 231
f 202 231 203
f 203 231 204
f 204 231 232
f 204 232 233
f 204 233 234
f 204 234 205
f 205 234 235
f 205 235 236
f 205 236 206
f 206 236 207
f 207 237 208
f 207 236 238
f 207 238 237
f 209 239 210
f 210 240 241
f 210 241 211
f 210 239 240
f 211 241 215
f 211 215 212
f 212 215 213
f 214 216 242
f 214 242 243
f 214 243 218
f 215 242 216
f 215 241 244
f 215 244 242
f 217 218 223
f 218 243 245
f 218 245 223
f 219 223 246
f 219 246 247
f 219 247 220
f 220 247 221
f 221 247 248
f 221 248 249
f 221 249 222
f 222 249 250
f 222 250 251
f 222 251 224
f 223 245 246
f 224 251 252
f 224 252 225
f 225 252 253
f 225 253 254
f 225 254 226
f 226 254 227
f 227 254 255
f 227 255 228
f 228 255 256
f 228 256 230
f 228 230 229
f 230 256 257
f 230 257 231
f 231 257 258
f 231 258 232
f 232 258 233
f 233 259 236
f 233 236 235
f 233 235 234
f 233 258 260
f 233 260 259
f 236 259 238
f 237 238 261
f 238 259 262
f 238 262 261
f 239 263 264
f 239 264 265
f 239 265 240
f 240 265 266
f 240 266 244
f 240 244 241
f 242 244 267
f 242 267 268
f 242 268 269
f 242 269 243
f 243 270 245
f 243 269 270
f 244 266 271
f 244 271 267
f 245 270 272
f 245 272 246
f 246 272 247
f 247 272 248
f 248 273 249
f 248 272 274
f 248 274 275
f 248 275 273
f 249 273 276
f 249 276 277
f 249 277 250
f 250 277 276
f 250 276 278
f 250 278 251
f 251 278 279
f 251 279 252
f 252 279 278
f 252 278 280
f 252 280 253
f 253 280 281
f 253 281 282
f 253 282 283
f 253 283 254
f 254 283 255
f 255 283 256
f 256 283 284
f 256 284 257
f 257 284 285
f 257 285 258
f 258 285 286
f 258 286 287
f 258 287 260
f 259 260 262
f 260 287 288
f 260 288 289
f 260 289 262
f 261 262 290
f 261 290 291
f 262 289 290
f 263 292 264
f 264 293 294
f 264 294 266
f 264 266 265
f 264 292 295
f 264 295 293
f 266 294 271
f 267 271 268
f 268 296 297
f 268 297 269
f 268 271 298
f 268 298 296
f 269 297 270
f 270 274 272
f 270 297 274
f 271 294 299
f 271 299 300
f 271 300 298
f 273 301 276
f 273 275 302
f 273 302 303
f 273 303 301
f 274 297 304
f 274 304 302
f 274 302 275
f 276 301 305
f 276 305 278
f 278 305 280
f 280 306 281
f 280 305 307
f 280 307 306
f 281 306 282
f 282 284 283
f 282 306 308
f 282 308 309
f 282 309 284
f 284 309 285
f 285 309 286
f 286 309 310
f 286 310 311
f 286 311 288
f 286 288 287
f 288 311 312
f 288 312 313
f 288 313 314
f 288 314 289
f 289 314 315
f 289 315 290
f 290 315 291
f 291 315 316
f 293 317 318
f 293 318 294
f 293 295 319
f 293 319 320
f 293 320 321
f 293 321 317
f 294 318 299
f 296 298 322
f 296 322 323
f 296 323 303
f 296 303 304
f 296 304 297
f 298 300 324
f 298 324 322
f 299 325 324
f 299 324 300
f 299 318 326
f 299 326 327
f 299 327 325
f 301 303 328
f 301 328 332
f 301 332 305
f 302 304 303
f 303 323 329
f 303 329 330
f 303 330 331
f 303 331 328
f 305 332 307
f 306 307 308
f 307 333 334
f 307 334 335
f 307 335 336
f 307 336 310
f 307 310 308
f 307 332 333
f 308 310 309
f 310 336 337
f 310 337 311
f 311 338 312
f 311 337 338
f 312 338 313
f 313 338 339
f 313 339 340
f 313 340 341
f 313 341 342
f 313 342 314
f 314 342 343
f 314 343 315
f 315 343 344
f 315 344 345
f 315 345 346
f 315 346 316
f 317 347 341
f 317 341 326
f 317 326 318
f 317 321 348
f 317 348 349
f 317 349 357
f 317 357 347
f 320 348 321
f 322 324 323
f 323 324 350
f 323 350 329
f 324 325 351
f 324 351 350
f 325 327 340
f 325 340 339
f 325 339 353
f 325 353 351
f 326 341 340
f 326 340 327
f 328 331 333
f 328 333 332
f 329 335 334
f 329 334 330
f 329 350 352
f 329 352 335
f 330 334 333
f 330 333 331
f 335 352 336
f 336 352 338
f 336 338 337
f 338 352 353
f 338 353 339
f 341 347 342
f 342 347 343
f 343 347 354
f 343 354 355
f 343 355 356
f 343 356 344
f 347 357 355
f 347 355 354
f 350 351 353
f 350 353 352

