# https://github.com/mikedh/trimesh
v -0.00499016 -0.05657081 -0.29496613
v 0.00499016 -0.05657081 -0.29496613
v -0.00499016 -0.05646101 -0.28503114
v -0.01354930 -0.05267955 -0.28503114
v -0.01360718 -0.05272834 -0.29496613
v -0.01351072 -0.05263075 -0.30497661
v -0.00499016 -0.05636343 -0.30497661
v 0.01360718 -0.05272834 -0.29496613
v 0.01354930 -0.05267955 -0.28503114
v 0.00499016 -0.05646101 -0.28503114
v 0.00499016 -0.05636343 -0.30497661
v 0.01351072 -0.05263075 -0.30497661
v -0.00499016 -0.05591209 -0.27502066
v -0.01325350 -0.05239898 -0.27502066
v -0.01855232 -0.04803199 -0.28503114
v -0.01860377 -0.04809298 -0.29496613
v -0.01852017 -0.04800759 -0.30497661
v -0.01318276 -0.05230140 -0.31496191
v -0.00499016 -0.05572912 -0.31496191
v 0.01860377 -0.04809298 -0.29496613
v 0.01852017 -0.04800759 -0.30497661
v 0.01855232 -0.04803199 -0.28503114
v 0.01325350 -0.05239898 -0.27502066
v 0.00499016 -0.05591209 -0.27502066
v 0.00499016 -0.05572912 -0.31496191
v 0.01318276 -0.05230140 -0.31496191
v -0.00499016 -0.05457028 -0.26501021
v -0.01243681 -0.05171588 -0.26501021
v -0.01825652 -0.04771484 -0.27502066
v -0.02148468 -0.04272573 -0.27502066
v -0.02162616 -0.04304288 -0.28503114
v -0.02165831 -0.04310387 -0.29496613
v -0.02161330 -0.04300629 -0.30497661
v -0.02145896 -0.04264034 -0.31496191
v -0.01817935 -0.04765384 -0.31496191
v -0.01244967 -0.05171588 -0.32499754
v -0.00499016 -0.05449709 -0.32499754
v 0.02165831 -0.04310387 -0.29496613
v 0.02162616 -0.04304288 -0.28503114
v 0.02161330 -0.04300629 -0.30497661
v 0.01817935 -0.04765384 -0.31496191
v 0.02145896 -0.04264034 -0.31496191
v 0.02148468 -0.04272573 -0.27502066
v 0.01825652 -0.04771484 -0.27502066
v 0.01243681 -0.05171588 -0.26501021
v 0.00499016 -0.05457028 -0.26501021
v 0.00499016 -0.05449709 -0.32499754
v 0.01244967 -0.05171588 -0.32499754
v -0.00326675 -0.05065463 -0.24815841
v -0.00595475 -0.05186225 -0.25404397
v -0.00993530 -0.04998372 -0.25006995
v -0.01123428 -0.05084980 -0.25673521
v -0.01743983 -0.04694634 -0.26501021
v -0.02111171 -0.04194504 -0.26501021
v -0.02433988 -0.03499200 -0.26501021
v -0.02493792 -0.03499200 -0.27502066
v -0.02516299 -0.03499200 -0.28503114
v -0.02520158 -0.03499200 -0.29496613
v -0.02514370 -0.03499200 -0.30497661
v -0.02490577 -0.03499200 -0.31496191
v -0.02443634 -0.03499200 -0.32499754
v -0.02114386 -0.04199383 -0.32499754
v -0.02068729 -0.04109116 -0.33498284
v -0.01745912 -0.04699513 -0.32499754
v -0.01122142 -0.05081321 -0.33498284
v -0.01030184 -0.05017889 -0.34066719
v -0.00499016 -0.05263075 -0.33498284
v 0.02520158 -0.03499200 -0.29496613
v 0.02516299 -0.03499200 -0.28503114
v 0.02514370 -0.03499200 -0.30497661
v 0.02493792 -0.03499200 -0.27502066
v 0.02490577 -0.03499200 -0.31496191
v 0.01745912 -0.04699513 -0.32499754
v 0.02068729 -0.04109116 -0.33498284
v 0.02114386 -0.04199383 -0.32499754
v 0.02443634 -0.03499200 -0.32499754
v 0.02433988 -0.03499200 -0.26501021
v 0.02111171 -0.04194504 -0.26501021
v 0.01743983 -0.04694634 -0.26501021
v 0.01123428 -0.05084980 -0.25673521
v 0.00993530 -0.04998372 -0.25006995
v 0.00595475 -0.05186225 -0.25404397
v 0.00326675 -0.05065463 -0.24815841
v 0.00499016 -0.05263075 -0.33498284
v 0.01030184 -0.05017889 -0.34066719
v 0.01122142 -0.05081321 -0.33498284
v -0.00499016 -0.04494582 -0.23500395
v -0.00595475 -0.04883708 -0.24491382
v -0.01999921 -0.04000551 -0.24999450
v -0.01474540 -0.04654380 -0.25404397
v -0.00499016 -0.01441347 -0.16475463
v -0.01064910 -0.04045685 -0.22906810
v -0.01221817 -0.04183525 -0.23500395
v -0.01538846 -0.04316486 -0.24599534
v -0.02042363 -0.04071300 -0.25502488
v -0.02322738 -0.03499200 -0.25502488
v -0.02794102 -0.02498940 -0.26501021
v -0.02711790 -0.02498940 -0.25502488
v -0.02836544 -0.02498940 -0.27502066
v -0.02881558 -0.02398914 -0.28598690
v -0.02854550 -0.02498940 -0.29496613
v -0.02834615 -0.02498940 -0.31496191
v -0.02880272 -0.02398914 -0.30399567
v -0.02805034 -0.02498940 -0.32499754
v -0.02994737 -0.00976591 -0.42170668
v -0.02947151 -0.01052221 -0.42170668
v -0.02026930 -0.04039585 -0.34182417
v -0.01969697 -0.03959076 -0.34848943
v -0.01621801 -0.04609246 -0.33498284
v -0.02147182 -0.02163486 -0.42170668
v -0.01554280 -0.02663617 -0.42170668
v -0.01468752 -0.02730707 -0.42170668
v -0.01054621 -0.03032005 -0.42170668
v -0.00499016 -0.03191803 -0.42170668
v 0.02854550 -0.02498940 -0.29496613
v 0.02881558 -0.02398914 -0.28598690
v 0.02836544 -0.02498940 -0.27502066
v 0.02880272 -0.02398914 -0.30399567
v 0.02834615 -0.02498940 -0.31496191
v 0.02794102 -0.02498940 -0.26501021
v 0.02994737 -0.00976591 -0.42170668
v 0.02805034 -0.02498940 -0.32499754
v 0.01621801 -0.04609246 -0.33498284
v 0.01969697 -0.03959076 -0.34848943
v 0.02026930 -0.04039585 -0.34182417
v 0.02711790 -0.02498940 -0.25502488
v 0.02322738 -0.03499200 -0.25502488
v 0.02042363 -0.04071300 -0.25502488
v 0.01999921 -0.04000551 -0.24999450
v 0.01474540 -0.04654380 -0.25404397
v 0.01538846 -0.04316486 -0.24599534
v 0.01221817 -0.04183525 -0.23500395
v 0.01064910 -0.04045685 -0.22906810
v 0.00516378 -0.01436467 -0.16475463
v 0.00499016 -0.04494582 -0.23500395
v 0.00595475 -0.04883708 -0.24491382
v 0.00499016 -0.03191803 -0.42170668
v 0.00948516 -0.03068600 -0.42170668
v 0.01054621 -0.03032005 -0.42170668
v 0.01554280 -0.02663617 -0.42170668
v 0.02052009 -0.02248874 -0.42170668
v 0.02147182 -0.02163486 -0.42170668
v -0.01897674 -0.03856611 -0.24332924
v -0.02021785 -0.00038542 -0.16475463
v -0.02084162 -0.03153989 -0.23500395
v -0.02161330 -0.03513838 -0.24599534
v 0.00499016 -0.01441347 -0.16475463
v -0.01151080 -0.01140049 -0.16475463
v -0.02572246 -0.02498940 -0.24503957
v -0.02970944 -0.01831692 -0.26501021
v -0.02990879 -0.01945137 -0.27502066
v -0.02931717 -0.01659696 -0.25502488
v -0.02718221 -0.01498679 -0.23500395
v -0.02881558 -0.01423049 -0.24549231
v -0.02997953 -0.01987831 -0.28332078
v -0.02999239 -0.02000029 -0.28998604
v -0.02999239 -0.02000029 -0.29999653
v -0.02997310 -0.01982951 -0.30668694
v -0.02990236 -0.01942697 -0.31496191
v -0.03008242 -0.00904621 -0.42170668
v -0.02654558 -0.01481601 -0.42170668
v -0.02556812 -0.01617002 -0.42170668
v 0.02999239 -0.02000029 -0.29999653
v 0.02999239 -0.02000029 -0.28998604
v 0.02997953 -0.01987831 -0.28332078
v 0.02990879 -0.01945137 -0.27502066
v 0.02997310 -0.01982951 -0.30668694
v 0.02990236 -0.01942697 -0.31496191
v 0.02970944 -0.01831692 -0.26501021
v 0.02654558 -0.01481601 -0.42170668
v 0.03060330 -0.00626500 -0.42170668
v 0.02931717 -0.01659696 -0.25502488
v 0.02881558 -0.01423049 -0.24549231
v 0.02718221 -0.01498679 -0.23500395
v 0.02572246 -0.02498940 -0.24503957
v 0.02161330 -0.03513838 -0.24599534
v 0.02084162 -0.03153989 -0.23500395
v 0.02044936 -0.00081236 -0.16737042
v 0.01897674 -0.03856611 -0.24332924
v 0.01151080 -0.01140049 -0.16475463
v -0.01711187 -0.00453284 -0.16475463
v -0.01750413 -0.00404491 -0.16475463
v -0.02181908 0.00359123 -0.16475463
v -0.02203772 0.00421334 -0.16475463
v -0.02404407 0.01051986 -0.16475463
v -0.02545880 0.01499664 -0.16475463
v -0.03053899 -0.01332782 -0.26501021
v -0.03028820 -0.01159566 -0.25502488
v -0.03065474 -0.01443786 -0.27502066
v -0.03008242 -0.01040022 -0.24916449
v -0.02551668 0.01524061 -0.16475463
v -0.02975445 -0.00857048 -0.24249923
v -0.03055828 -0.01591386 -0.28598690
v -0.03071262 -0.01498679 -0.29496613
v -0.03055828 -0.01587726 -0.30399567
v -0.03147143 -0.00498418 -0.37497440
v -0.03133639 -0.00498418 -0.38498485
v -0.03084123 -0.00494758 -0.42170668
v 0.03055828 -0.01587726 -0.30399567
v 0.03071262 -0.01498679 -0.29496613
v 0.03055828 -0.01591386 -0.28598690
v 0.03065474 -0.01443786 -0.27502066
v 0.03053899 -0.01332782 -0.26501021
v 0.03084123 -0.00494758 -0.42170668
v 0.03133639 -0.00498418 -0.38498485
v 0.03147143 -0.00498418 -0.37497440
v 0.03028820 -0.01159566 -0.25502488
v 0.03008242 -0.01040022 -0.24916449
v 0.02975445 -0.00857048 -0.24249923
v 0.02545880 0.01499664 -0.16475463
v 0.02538164 0.01471608 -0.16475463
v 0.02203772 0.00421334 -0.16475463
v 0.02181908 0.00359123 -0.16475463
v 0.01750413 -0.00404491 -0.16475463
v 0.01711187 -0.00453284 -0.16475463
v -0.03171579 -0.00498418 -0.26501021
v -0.03131066 -0.00498418 -0.25502488
v -0.03190871 -0.00498418 -0.27502066
v -0.03061616 -0.00513056 -0.24549231
v -0.02725938 0.02499925 -0.16475463
v -0.03032035 -0.00189801 -0.23719217
v -0.03196659 -0.00498418 -0.28503114
v -0.03196659 -0.00498418 -0.30497661
v -0.03194086 -0.00498418 -0.31496191
v -0.03197945 -0.00498418 -0.29496613
v -0.03187013 -0.00498418 -0.32499754
v -0.03208877 0.00501843 -0.42170668
v -0.03185083 0.00304230 -0.42170668
v 0.03187013 -0.00498418 -0.32499754
v 0.03194086 -0.00498418 -0.31496191
v 0.03196659 -0.00498418 -0.30497661
v 0.03197945 -0.00498418 -0.29496613
v 0.03196659 -0.00498418 -0.28503114
v 0.03190871 -0.00498418 -0.27502066
v 0.03171579 -0.00498418 -0.26501021
v 0.03131066 -0.00498418 -0.25502488
v 0.03208877 0.00501843 -0.42170668
v 0.03061616 -0.00513056 -0.24549231
v 0.03032035 -0.00189801 -0.23719217
v 0.02725938 0.02499925 -0.16475463
v 0.02721436 0.02474309 -0.16475463
v -0.03253248 0.00501843 -0.26501021
v -0.03226239 0.00501843 -0.25502488
v -0.03172222 0.00501843 -0.24503957
v -0.03264823 0.00501843 -0.27502066
v -0.02727867 0.02524322 -0.16475463
v -0.03268681 0.00501843 -0.28503114
v -0.03269324 0.00501843 -0.30497661
v -0.03268038 0.00501843 -0.31496191
v -0.03266109 0.00501843 -0.32499754
v -0.03237171 0.00501843 -0.38498485
v -0.03269324 0.00501843 -0.29496613
v -0.03259679 0.01499664 -0.42170668
v 0.03237171 0.00501843 -0.38498485
v 0.03266109 0.00501843 -0.32499754
v 0.03269324 0.00501843 -0.30497661
v 0.03268038 0.00501843 -0.31496191
v 0.03269324 0.00501843 -0.29496613
v 0.03268681 0.00501843 -0.28503114
v 0.03264823 0.00501843 -0.27502066
v 0.03253248 0.00501843 -0.26501021
v 0.03226239 0.00501843 -0.25502488
v 0.03172222 0.00501843 -0.24503957
v 0.03218523 0.00670180 -0.42170668
v 0.02788958 0.03474569 -0.16475463
v 0.03169007 0.01499664 -0.23500395
v -0.03264823 0.01499664 -0.26501021
v -0.03250033 0.01499664 -0.25502488
v -0.03169007 0.01499664 -0.23500395
v -0.03219166 0.01499664 -0.24503957
v -0.03269967 0.01499664 -0.27502066
v -0.02790244 0.03498966 -0.16475463
v -0.03271897 0.01499664 -0.28503114
v -0.03284758 0.01499664 -0.36498910
v -0.03282186 0.01499664 -0.37497440
v -0.03278327 0.01499664 -0.38498485
v -0.03275112 0.02499925 -0.42170668
v 0.03259679 0.01499664 -0.42170668
v 0.03278327 0.01499664 -0.38498485
v 0.03282186 0.01499664 -0.37497440
v 0.03284758 0.01499664 -0.36498910
v 0.03271897 0.01499664 -0.28503114
v 0.03269967 0.01499664 -0.27502066
v 0.03264823 0.01499664 -0.26501021
v 0.03250033 0.01499664 -0.25502488
v 0.03219166 0.01499664 -0.24503957
v 0.02792173 0.03498966 -0.16503130
v 0.02790244 0.03498966 -0.16475463
v 0.03181225 0.02499925 -0.23500395
v 0.03128494 0.02499925 -0.22501864
v -0.03224953 0.02499925 -0.25502488
v -0.03181225 0.02499925 -0.23500395
v -0.03210163 0.02499925 -0.24503957
v -0.02792173 0.03498966 -0.16503130
v -0.03128494 0.02499925 -0.22501864
v -0.03229455 0.02499925 -0.26501021
v -0.03275112 0.02499925 -0.38498485
v -0.03277684 0.02499925 -0.39497018
v -0.02705360 0.04499227 -0.16475463
v -0.03236528 0.03498966 -0.42170668
v 0.03262894 0.01670440 -0.42170668
v 0.03275112 0.02499925 -0.42170668
v 0.03277684 0.02499925 -0.39497018
v 0.03229455 0.02499925 -0.26501021
v 0.03224953 0.02499925 -0.25502488
v 0.03275112 0.02499925 -0.38498485
v 0.03210163 0.02499925 -0.24503957
v 0.02705360 0.04499227 -0.16475463
v 0.02991522 0.03851497 -0.21271935
v 0.03068046 0.03498966 -0.22501864
v -0.03093769 0.03498966 -0.23500395
v -0.03105987 0.03498966 -0.24503957
v -0.03237171 0.03498966 -0.40495551
v -0.02991522 0.03851497 -0.21271935
v -0.03068046 0.03498966 -0.22501864
v -0.02697643 0.04523624 -0.16475463
v -0.02749731 0.04499227 -0.17501661
v -0.03099556 0.04388222 -0.42170668
v 0.03268681 0.02669481 -0.42170668
v 0.03237171 0.03498966 -0.40495551
v 0.03236528 0.03498966 -0.42170668
v 0.03105987 0.03498966 -0.24503957
v 0.03093769 0.03498966 -0.23500395
v 0.02360679 0.05499487 -0.16475463
v 0.02749731 0.04499227 -0.17501661
v 0.03001168 0.04007635 -0.21940976
v -0.03001168 0.04007635 -0.21940976
v -0.03006955 0.04027153 -0.22501864
v -0.03099556 0.04389443 -0.40495551
v -0.02360679 0.05499487 -0.16475463
v -0.02787671 0.04499227 -0.18502708
v -0.02967729 0.04888353 -0.42170668
v 0.03099556 0.04388222 -0.42170668
v 0.03099556 0.04389443 -0.40495551
v 0.03006955 0.04027153 -0.22501864
v 0.02787671 0.04499227 -0.18502708
v 0.02821754 0.04499227 -0.19503754
v 0.02850048 0.04499227 -0.20502286
v 0.02388973 0.05499487 -0.17501661
v 0.02051366 0.06056950 -0.16475463
v 0.02894420 0.04404080 -0.21566212
v -0.02821754 0.04499227 -0.19503754
v -0.02850048 0.04499227 -0.20502286
v -0.02894420 0.04404080 -0.21566212
v -0.02967729 0.04889572 -0.40495551
v -0.02051366 0.06056950 -0.16475463
v -0.02388973 0.05499487 -0.17501661
v -0.02598611 0.05499487 -0.42170668
v 0.02967729 0.04888353 -0.42170668
v 0.02967729 0.04889572 -0.40495551
v 0.02870626 0.04527283 -0.22501864
v 0.02429486 0.05499487 -0.19503754
v 0.02410837 0.05499487 -0.18502708
v 0.02037219 0.06069148 -0.16475463
v 0.02059083 0.06064269 -0.17501661
v -0.02870626 0.04527283 -0.22501864
v -0.02410837 0.05499487 -0.18502708
v -0.02429486 0.05499487 -0.19503754
v -0.02599254 0.05499487 -0.40495551
v -0.02439132 0.05499487 -0.20502286
v -0.01497690 0.06420460 -0.16475463
v -0.02059083 0.06064269 -0.17501661
v -0.02211488 0.06017916 -0.42170668
v 0.02904709 0.04993258 -0.42170668
v 0.02599254 0.05499487 -0.40495551
v 0.02439132 0.05499487 -0.20502286
v 0.01497690 0.06420460 -0.16475463
v 0.02064227 0.06067929 -0.18502708
v -0.02131749 0.06124040 -0.40495551
v -0.02064227 0.06067929 -0.18502708
v -0.00499016 0.06799827 -0.16475463
v -0.01499619 0.06430218 -0.18502708
v -0.02131749 0.06124040 -0.42170668
v 0.02598611 0.05499487 -0.42170668
v 0.02519515 0.05605613 -0.42170668
v 0.02131749 0.06124040 -0.42170668
v 0.02131749 0.06124040 -0.40495551
v 0.00499016 0.06799827 -0.16475463
v 0.01499619 0.06430218 -0.18502708
v -0.01499619 0.06496089 -0.40495551
v -0.00499016 0.06804706 -0.40495551
v -0.01329208 0.06549761 -0.42170668
v -0.01499619 0.06496089 -0.42170668
v 0.01607654 0.06433878 -0.42170668
v 0.01499619 0.06496089 -0.40495551
v 0.00499016 0.06804706 -0.40495551
v -0.00499016 0.06803486 -0.42170668
v 0.01499619 0.06496089 -0.42170668
v 0.00499016 0.06803486 -0.42170668
f 1 2 10
f 1 10 3
f 1 3 4
f 1 4 5
f 1 5 6
f 1 6 7
f 1 7 11
f 1 11 2
f 2 8 9
f 2 9 10
f 2 11 12
f 2 12 8
f 3 10 24
f 3 24 13
f 3 13 14
f 3 14 4
f 4 14 15
f 4 15 16
f 4 16 5
f 5 16 17
f 5 17 6
f 6 17 18
f 6 18 7
f 7 18 19
f 7 19 25
f 7 25 11
f 8 20 9
f 8 12 21
f 8 21 20
f 9 22 23
f 9 23 10
f 9 20 22
f 10 23 24
f 11 25 26
f 11 26 12
f 12 26 21
f 13 24 46
f 13 46 27
f 13 27 28
f 13 28 14
f 14 28 29
f 14 29 15
f 15 29 30
f 15 30 31
f 15 31 16
f 16 31 32
f 16 32 33
f 16 33 17
f 17 33 34
f 17 34 35
f 17 35 18
f 18 36 19
f 18 35 36
f 19 36 37
f 19 37 47
f 19 47 25
f 20 38 39
f 20 39 22
f 20 21 40
f 20 40 38
f 21 26 41
f 21 41 42
f 21 42 40
f 22 39 43
f 22 43 44
f 22 44 23
f 23 44 45
f 23 45 24
f 24 45 46
f 25 47 48
f 25 48 26
f 26 48 41
f 27 46 83
f 27 83 49
f 27 49 50
f 27 50 51
f 27 51 52
f 27 52 28
f 28 52 53
f 28 53 29
f 29 53 54
f 29 54 30
f 30 54 55
f 30 55 56
f 30 56 31
f 31 56 57
f 31 57 32
f 32 57 58
f 32 58 59
f 32 59 33
f 33 59 60
f 33 60 34
f 34 60 61
f 34 61 62
f 34 62 35
f 35 62 63
f 35 63 64
f 35 64 36
f 36 64 65
f 36 65 37
f 37 65 66
f 37 66 67
f 37 67 84
f 37 84 47
f 38 68 69
f 38 69 39
f 38 40 70
f 38 70 68
f 39 69 71
f 39 71 43
f 40 42 72
f 40 72 70
f 41 48 73
f 41 73 74
f 41 74 75
f 41 75 42
f 42 75 76
f 42 76 72
f 43 71 77
f 43 77 78
f 43 78 44
f 44 78 79
f 44 79 45
f 45 79 80
f 45 80 46
f 46 80 81
f 46 81 82
f 46 82 83
f 47 84 85
f 47 85 86
f 47 86 48
f 48 86 73
f 49 83 135
f 49 135 87
f 49 87 88
f 49 88 51
f 49 51 50
f 51 89 90
f 51 90 52
f 51 88 87
f 51 87 91
f 51 91 92
f 51 92 93
f 51 93 94
f 51 94 89
f 52 90 53
f 53 90 89
f 53 89 95
f 53 95 54
f 54 95 96
f 54 96 55
f 55 97 56
f 55 96 98
f 55 98 97
f 56 97 99
f 56 99 57
f 57 100 101
f 57 101 58
f 57 99 100
f 58 101 59
f 59 102 60
f 59 101 103
f 59 103 102
f 60 102 104
f 60 104 105
f 60 105 61
f 61 105 62
f 62 105 63
f 63 105 106
f 63 106 107
f 63 107 64
f 64 107 108
f 64 108 109
f 64 109 65
f 65 110 111
f 65 111 66
f 65 109 110
f 66 111 112
f 66 112 113
f 66 113 114
f 66 114 67
f 67 114 137
f 67 137 84
f 68 70 115
f 68 115 69
f 69 115 116
f 69 116 117
f 69 117 71
f 70 118 115
f 70 72 119
f 70 119 118
f 71 117 120
f 71 120 77
f 72 76 121
f 72 121 122
f 72 122 119
f 73 86 123
f 73 123 124
f 73 124 125
f 73 125 74
f 74 125 121
f 74 121 75
f 75 121 76
f 77 120 126
f 77 126 127
f 77 127 78
f 78 127 128
f 78 128 79
f 79 128 129
f 79 129 130
f 79 130 80
f 80 130 81
f 81 130 129
f 81 129 131
f 81 131 132
f 81 132 133
f 81 133 134
f 81 134 135
f 81 135 136
f 81 136 83
f 81 83 82
f 83 136 135
f 84 137 85
f 85 137 138
f 85 138 139
f 85 139 140
f 85 140 86
f 86 140 141
f 86 141 142
f 86 142 123
f 87 135 147
f 87 147 91
f 89 96 95
f 89 94 143
f 89 143 144
f 89 144 145
f 89 145 146
f 89 146 96
f 91 147 134
f 91 134 180
f 91 180 215
f 91 215 214
f 91 214 213
f 91 213 212
f 91 212 211
f 91 211 210
f 91 210 241
f 91 241 240
f 91 240 265
f 91 265 288
f 91 288 308
f 91 308 324
f 91 324 340
f 91 340 354
f 91 354 367
f 91 367 378
f 91 378 371
f 91 371 361
f 91 361 346
f 91 346 330
f 91 330 316
f 91 316 299
f 91 299 272
f 91 272 246
f 91 246 220
f 91 220 191
f 91 191 186
f 91 186 185
f 91 185 184
f 91 184 183
f 91 183 144
f 91 144 182
f 91 182 181
f 91 181 148
f 91 148 92
f 92 148 93
f 93 148 143
f 93 143 94
f 96 146 149
f 96 149 98
f 97 150 151
f 97 151 99
f 97 98 150
f 98 152 150
f 98 149 153
f 98 153 154
f 98 154 152
f 99 151 155
f 99 155 100
f 100 156 101
f 100 155 156
f 101 157 103
f 101 156 157
f 102 103 158
f 102 158 159
f 102 159 105
f 102 105 104
f 103 157 158
f 105 160 198
f 105 198 228
f 105 228 227
f 105 227 253
f 105 253 277
f 105 277 300
f 105 300 318
f 105 318 332
f 105 332 348
f 105 348 363
f 105 363 373
f 105 373 383
f 105 383 382
f 105 382 387
f 105 387 389
f 105 389 388
f 105 388 384
f 105 384 376
f 105 376 375
f 105 375 374
f 105 374 364
f 105 364 349
f 105 349 333
f 105 333 321
f 105 321 319
f 105 319 302
f 105 302 301
f 105 301 278
f 105 278 264
f 105 264 237
f 105 237 204
f 105 204 171
f 105 171 121
f 105 121 170
f 105 170 142
f 105 142 141
f 105 141 140
f 105 140 139
f 105 139 138
f 105 138 137
f 105 137 114
f 105 114 113
f 105 113 112
f 105 112 111
f 105 111 110
f 105 110 162
f 105 162 161
f 105 161 106
f 105 159 158
f 105 158 160
f 106 161 107
f 107 161 162
f 107 162 110
f 107 110 108
f 108 110 109
f 115 118 163
f 115 163 164
f 115 164 116
f 116 164 165
f 116 165 117
f 117 165 166
f 117 166 120
f 118 119 167
f 118 167 163
f 119 122 121
f 119 121 168
f 119 168 167
f 120 166 169
f 120 169 126
f 121 125 170
f 121 171 167
f 121 167 168
f 123 142 124
f 124 142 125
f 125 142 170
f 126 169 172
f 126 172 173
f 126 173 174
f 126 174 175
f 126 175 127
f 127 175 176
f 127 176 129
f 127 129 128
f 129 176 177
f 129 177 178
f 129 178 179
f 129 179 131
f 131 179 132
f 132 180 133
f 132 179 180
f 133 180 134
f 134 147 135
f 143 148 181
f 143 181 182
f 143 182 144
f 144 183 149
f 144 149 146
f 144 146 145
f 149 183 184
f 149 184 185
f 149 185 186
f 149 186 153
f 150 187 151
f 150 152 188
f 150 188 187
f 151 189 155
f 151 187 189
f 152 154 190
f 152 190 188
f 153 186 154
f 154 186 191
f 154 191 192
f 154 192 190
f 155 189 193
f 155 193 156
f 156 193 194
f 156 194 157
f 157 195 158
f 157 194 195
f 158 195 196
f 158 196 197
f 158 197 198
f 158 198 160
f 163 167 199
f 163 199 200
f 163 200 164
f 164 201 165
f 164 200 201
f 165 202 166
f 165 201 202
f 166 202 203
f 166 203 169
f 167 171 204
f 167 204 205
f 167 205 206
f 167 206 199
f 169 203 207
f 169 207 172
f 172 207 208
f 172 208 173
f 173 208 209
f 173 209 210
f 173 210 174
f 174 210 211
f 174 211 175
f 175 211 212
f 175 212 213
f 175 213 176
f 176 213 178
f 176 178 177
f 178 213 214
f 178 214 179
f 179 214 215
f 179 215 180
f 187 216 189
f 187 188 217
f 187 217 216
f 188 190 217
f 189 218 193
f 189 216 218
f 190 192 219
f 190 219 217
f 191 220 192
f 192 220 221
f 192 221 219
f 193 222 194
f 193 218 222
f 194 223 224
f 194 224 195
f 194 222 225
f 194 225 223
f 195 224 226
f 195 226 196
f 196 227 228
f 196 228 197
f 196 226 227
f 197 228 198
f 199 206 229
f 199 229 230
f 199 230 200
f 200 230 231
f 200 231 232
f 200 232 233
f 200 233 201
f 201 233 234
f 201 234 202
f 202 234 235
f 202 235 203
f 203 235 236
f 203 236 207
f 204 237 205
f 205 237 206
f 206 237 229
f 207 236 208
f 208 238 209
f 208 236 238
f 209 239 240
f 209 240 241
f 209 241 210
f 209 238 239
f 216 242 218
f 216 217 243
f 216 243 242
f 217 219 244
f 217 244 243
f 218 242 245
f 218 245 222
f 219 221 244
f 220 246 244
f 220 244 221
f 222 247 225
f 222 245 247
f 223 225 248
f 223 248 249
f 223 249 250
f 223 250 224
f 224 250 251
f 224 251 226
f 225 247 252
f 225 252 248
f 226 251 227
f 227 251 253
f 229 237 254
f 229 254 230
f 230 254 255
f 230 255 231
f 231 256 232
f 231 255 257
f 231 257 256
f 232 258 259
f 232 259 233
f 232 256 258
f 233 259 260
f 233 260 234
f 234 260 261
f 234 261 235
f 235 261 262
f 235 262 236
f 236 262 263
f 236 263 238
f 237 264 254
f 238 263 239
f 239 263 240
f 240 263 266
f 240 266 265
f 242 267 245
f 242 243 268
f 242 268 267
f 243 244 269
f 243 269 270
f 243 270 268
f 244 246 269
f 245 267 271
f 245 271 247
f 246 272 269
f 247 271 273
f 247 273 274
f 247 274 252
f 248 252 274
f 248 274 249
f 249 274 250
f 250 274 275
f 250 275 276
f 250 276 251
f 251 276 253
f 253 276 277
f 254 264 278
f 254 278 279
f 254 279 255
f 255 279 280
f 255 280 281
f 255 281 257
f 256 257 281
f 256 281 258
f 258 281 259
f 259 282 283
f 259 283 260
f 259 281 282
f 260 283 284
f 260 284 261
f 261 284 285
f 261 285 262
f 262 285 286
f 262 286 266
f 262 266 263
f 265 287 288
f 265 266 287
f 266 289 290
f 266 290 287
f 266 286 289
f 267 268 293
f 267 293 291
f 267 291 271
f 268 270 292
f 268 292 293
f 269 272 294
f 269 294 295
f 269 295 292
f 269 292 270
f 271 291 296
f 271 296 297
f 271 297 298
f 271 298 273
f 272 299 294
f 273 298 274
f 274 298 277
f 274 277 275
f 275 277 276
f 277 298 300
f 278 301 279
f 279 301 302
f 279 302 280
f 280 302 281
f 281 302 303
f 281 303 282
f 282 303 283
f 283 304 305
f 283 305 284
f 283 303 306
f 283 306 304
f 284 305 307
f 284 307 285
f 285 307 289
f 285 289 286
f 287 308 288
f 287 290 289
f 287 289 309
f 287 309 308
f 289 310 309
f 289 307 310
f 291 293 311
f 291 311 312
f 291 312 313
f 291 313 296
f 292 295 294
f 292 294 314
f 292 314 315
f 292 315 293
f 293 315 311
f 294 299 314
f 296 313 297
f 297 313 298
f 298 313 300
f 299 316 317
f 299 317 314
f 300 313 318
f 302 319 303
f 303 320 306
f 303 319 321
f 303 321 320
f 304 306 320
f 304 320 305
f 305 322 323
f 305 323 307
f 305 320 322
f 307 323 310
f 308 309 325
f 308 325 324
f 309 310 326
f 309 326 325
f 310 323 326
f 311 315 327
f 311 327 328
f 311 328 312
f 312 328 329
f 312 329 313
f 313 329 318
f 314 317 327
f 314 327 315
f 316 330 317
f 317 331 327
f 317 330 331
f 318 329 345
f 318 345 332
f 320 321 333
f 320 333 334
f 320 334 322
f 322 335 323
f 322 334 335
f 323 335 326
f 324 325 336
f 324 336 337
f 324 337 338
f 324 338 339
f 324 339 340
f 325 326 336
f 326 335 341
f 326 341 338
f 326 338 337
f 326 337 336
f 327 331 342
f 327 342 343
f 327 343 344
f 327 344 328
f 328 344 345
f 328 345 329
f 330 346 347
f 330 347 343
f 330 343 342
f 330 342 331
f 332 345 348
f 333 349 350
f 333 350 334
f 334 350 335
f 335 350 341
f 338 341 351
f 338 351 352
f 338 352 353
f 338 353 339
f 339 353 340
f 340 353 352
f 340 352 355
f 340 355 354
f 341 350 351
f 343 356 344
f 343 347 357
f 343 357 358
f 343 358 356
f 344 356 345
f 345 359 348
f 345 356 358
f 345 358 360
f 345 360 359
f 346 361 362
f 346 362 358
f 346 358 357
f 346 357 347
f 348 359 363
f 349 364 350
f 350 364 365
f 350 365 366
f 350 366 352
f 350 352 351
f 352 366 355
f 354 355 367
f 355 366 365
f 355 365 368
f 355 368 367
f 358 362 360
f 359 369 363
f 359 360 362
f 359 362 370
f 359 370 369
f 361 371 372
f 361 372 370
f 361 370 362
f 363 369 373
f 364 374 365
f 365 374 375
f 365 375 376
f 365 376 377
f 365 377 368
f 367 368 379
f 367 379 378
f 368 377 379
f 369 380 383
f 369 383 373
f 369 370 372
f 369 372 380
f 371 378 386
f 371 386 381
f 371 381 382
f 371 382 380
f 371 380 372
f 376 384 377
f 377 384 385
f 377 385 379
f 378 379 385
f 378 385 386
f 380 382 383
f 381 386 389
f 381 389 387
f 381 387 382
f 384 388 385
f 385 388 386
f 386 388 389

