# https://github.com/mikedh/trimesh
v -0.09848487 -0.03184981 0.00536985
v -0.09848487 -0.03184981 -0.02493318
v -0.09848487 0.02875626 -0.02493318
v -0.11245689 0.01622941 0.06492454
v -0.11363638 -0.03184981 0.00536985
v -0.10139089 0.01435125 0.06763434
v -0.11515352 -0.01742356 -0.02540876
v -0.09881868 -0.01502565 0.06640268
v -0.11369430 -0.01598853 0.06586059
v -0.11537366 0.01842844 -0.02486201
f 1 2 3
f 5 2 1
f 6 3 4
f 7 3 2
f 7 2 5
f 8 1 3
f 8 3 6
f 9 7 5
f 9 5 1
f 9 1 8
f 9 8 6
f 9 6 4
f 10 4 3
f 10 3 7
f 10 9 4
f 10 7 9