# https://github.com/mikedh/trimesh
v 0.24999999 -0.03184981 0.05082440
v 0.26514081 -0.01640752 0.00537294
v 0.26517825 0.00856312 0.07792914
v 0.18942161 0.01086292 0.08028734
v 0.18984859 -0.01718060 0.00573782
v 0.26518317 0.01086188 0.00564208
v 0.18941483 -0.01402466 0.08038289
v 0.26476167 -0.01213061 0.07747765
v 0.24999999 -0.03184981 0.00536985
v 0.18936131 0.01185365 0.00560111
v 0.18939393 -0.03184981 0.05082440
f 6 3 2
f 6 4 3
f 7 3 4
f 8 1 2
f 8 2 3
f 8 7 1
f 8 3 7
f 9 2 1
f 10 4 6
f 10 7 4
f 10 6 2
f 10 9 5
f 10 2 9
f 11 1 7
f 11 9 1
f 11 5 9
f 11 10 5
f 11 7 10