# https://github.com/mikedh/trimesh
v 0.34087785 -0.01016257 0.07347794
v 0.34090909 -0.01669829 -0.04008470
v 0.34090909 0.01360474 -0.04008470
v 0.26517825 0.00856312 0.07792914
v 0.26515656 -0.01657665 0.03567369
v 0.34042843 0.00708145 0.07408166
v 0.34094321 0.01205323 0.03574376
v 0.26476167 -0.01213061 0.07747765
v 0.26486110 -0.00905579 -0.03297835
v 0.26498359 0.00213102 -0.03164338
f 5 2 1
f 7 1 2
f 7 2 3
f 7 6 1
f 7 3 4
f 7 4 6
f 8 5 1
f 8 6 4
f 8 1 6
f 9 3 2
f 9 2 5
f 9 5 8
f 10 4 3
f 10 3 9
f 10 9 8
f 10 8 4