# https://github.com/mikedh/trimesh
v -0.31060608 -0.03184981 -0.07038773
v -0.31060608 -0.01669829 -0.08553924
v -0.31031944 0.01693675 -0.02466976
v -0.35606063 0.02875626 -0.08553924
v -0.35606063 -0.03184981 -0.07038773
v -0.31060608 0.02875626 -0.07038773
v -0.35906420 -0.01082695 -0.07902173
v -0.31057848 -0.01730621 -0.02471214
v -0.31060608 0.01360474 -0.08553924
v -0.35622723 0.01662285 -0.02484102
v -0.34090912 0.02875626 -0.08553924
v -0.35647321 -0.01706408 -0.02463664
f 1 2 3
f 5 2 1
f 7 4 2
f 7 2 5
f 8 5 1
f 8 1 3
f 9 6 3
f 9 3 2
f 9 2 4
f 10 6 4
f 10 3 6
f 10 4 7
f 11 9 4
f 11 4 6
f 11 6 9
f 12 10 7
f 12 7 5
f 12 5 8
f 12 8 3
f 12 3 10