# https://github.com/mikedh/trimesh
v -0.11138499 -0.01199625 0.07412162
v -0.11413380 -0.01468660 0.02046538
v -0.11363638 0.02875626 0.08112743
v -0.23484851 0.02875626 0.06597591
v -0.23484183 -0.01696776 0.02053020
v -0.11587947 0.01689940 0.01951559
v -0.21969699 -0.01669829 0.08112743
v -0.23499417 0.01732304 0.02024619
v -0.11245689 0.01622941 0.06492454
v -0.23484851 0.01360474 0.08112743
v -0.12878790 0.02875626 0.08112743
v -0.23484851 -0.00154677 0.08112743
v -0.23519143 -0.01148783 0.05969420
f 6 4 3
f 6 2 5
f 7 1 3
f 7 5 2
f 7 2 1
f 8 6 5
f 8 4 6
f 9 1 2
f 9 2 6
f 9 6 3
f 9 3 1
f 10 7 3
f 11 10 3
f 11 3 4
f 11 4 10
f 12 7 10
f 13 10 4
f 13 4 8
f 13 12 10
f 13 8 5
f 13 5 7
f 13 7 12