# https://github.com/mikedh/trimesh
v -0.03846402 -0.01162568 0.06356870
v -0.03787880 -0.01669829 -0.05523621
v -0.03787880 0.01360474 -0.05523621
v -0.09854662 0.01329889 0.06606837
v -0.09881868 -0.01502565 0.06640268
v -0.03829636 0.00758723 0.06420462
v -0.10376333 -0.01310882 -0.06882042
v -0.08333335 0.01360474 -0.07038773
v -0.08333335 -0.01669829 -0.07038773
v -0.10372501 0.01085344 -0.06843589
f 5 2 1
f 6 3 4
f 6 5 1
f 6 4 5
f 6 1 2
f 6 2 3
f 8 3 2
f 8 4 3
f 9 2 5
f 9 5 7
f 9 8 2
f 9 7 8
f 10 7 5
f 10 5 4
f 10 8 7
f 10 4 8