# https://github.com/mikedh/trimesh
v 0.18939393 -0.03184981 0.03567288
v 0.18984859 -0.01718060 0.00573782
v 0.18941417 0.01268466 0.03564838
v 0.14386227 0.01204912 0.03555996
v 0.14393938 -0.03184981 0.02052136
v 0.14393554 0.01207332 0.00548755
v 0.14389638 -0.01600887 0.03563997
v 0.18936131 0.01185365 0.00560111
v 0.14356610 -0.01696850 0.00480993
v 0.15909090 -0.03184981 0.03567288
v 0.18943788 0.01212309 0.02063955
f 1 2 3
f 5 2 1
f 6 4 3
f 7 3 4
f 8 6 3
f 9 4 6
f 9 7 4
f 9 5 7
f 9 2 5
f 9 8 2
f 9 6 8
f 10 1 3
f 10 3 7
f 10 7 5
f 10 5 1
f 11 8 3
f 11 3 2
f 11 2 8