# https://github.com/mikedh/trimesh
v -0.23484957 -0.01660376 0.05081083
v -0.23519143 -0.01148783 0.05969420
v -0.35606063 -0.01669829 0.06597591
v -0.31060608 0.02875626 0.06597591
v -0.23484851 0.02875626 0.06597591
v -0.35519957 0.01036755 0.04648514
v -0.35514771 -0.01239366 0.04507477
v -0.35606063 0.01360474 0.06597591
v -0.23489792 0.01624459 0.04884914
v -0.31008949 0.01631688 0.04576577
f 1 2 3
f 5 2 1
f 5 3 2
f 5 4 3
f 7 1 3
f 8 3 4
f 8 4 6
f 8 7 3
f 8 6 7
f 9 5 1
f 9 1 7
f 10 9 7
f 10 7 6
f 10 6 4
f 10 4 5
f 10 5 9