# https://github.com/mikedh/trimesh
v -0.41666669 -0.03184981 0.03567288
v -0.41666669 -0.01669829 -0.08553924
v -0.41666669 0.02875626 0.03567288
v -0.43181821 0.02875626 0.03567288
v -0.44696972 -0.03184981 -0.05523621
v -0.43181821 0.02875626 -0.07038773
v -0.41158262 0.00618240 -0.07503720
v -0.41666669 -0.03184981 -0.05523621
v -0.44696972 -0.01669829 0.03567288
v -0.43181821 -0.01669829 -0.08553924
v -0.41666669 0.02875626 -0.07038773
v -0.44696972 -0.03184981 0.02052136
v -0.44696972 0.02875626 -0.05523621
v -0.43181821 0.01360474 -0.08553924
v -0.43181821 -0.03184981 0.03567288
v -0.44696972 0.01360474 0.03567288
f 1 3 4
f 6 4 3
f 7 3 1
f 8 5 2
f 8 1 5
f 8 7 1
f 8 2 7
f 9 1 4
f 10 2 5
f 11 6 3
f 11 3 7
f 12 9 5
f 12 5 1
f 13 5 9
f 13 10 5
f 13 4 6
f 14 2 10
f 14 6 11
f 14 11 7
f 14 7 2
f 14 13 6
f 14 10 13
f 15 12 1
f 15 1 9
f 15 9 12
f 16 13 9
f 16 9 4
f 16 4 13