# https://github.com/mikedh/trimesh
v 0.14393938 -0.03184981 0.02052136
v 0.14379160 -0.00977055 -0.03519749
v 0.14386227 0.01204912 0.03555996
v 0.08321750 0.01195839 0.03554962
v 0.08333332 -0.01669829 -0.05523621
v 0.08333332 0.01360474 -0.05523621
v 0.14389638 -0.01600887 0.03563997
v 0.14393938 -0.03184981 -0.00978167
v 0.08323549 -0.01579549 0.03570329
v 0.14354473 0.00367209 -0.03485317
v 0.09848484 0.01360474 -0.05523621
v 0.09848484 -0.01669829 -0.05523621
v 0.11363635 -0.03184981 0.02052136
v 0.11363635 -0.03184981 -0.00978167
f 6 4 3
f 6 5 4
f 7 1 3
f 8 2 3
f 8 3 1
f 9 4 5
f 9 7 3
f 9 3 4
f 10 3 2
f 11 5 6
f 11 10 2
f 11 6 3
f 11 3 10
f 12 8 5
f 12 2 8
f 12 11 2
f 12 5 11
f 13 8 1
f 13 9 5
f 13 1 7
f 13 7 9
f 14 13 5
f 14 5 8
f 14 8 13