# https://github.com/mikedh/trimesh
v -0.35606063 -0.03184981 0.05082440
v -0.35606063 -0.03184981 -0.05523621
v -0.35606063 0.02875626 0.05082440
v -0.40151518 0.02875626 0.05082440
v -0.41666669 -0.03184981 0.03567288
v -0.35600113 0.01682710 -0.05571703
v -0.37121215 -0.01669829 0.06597591
v -0.41666669 0.02875626 0.03567288
v -0.41666669 -0.03184981 -0.05523621
v -0.35606063 0.01360474 0.06597591
v -0.38636366 -0.03184981 0.05082440
v -0.41666669 -0.01669829 0.05082440
v -0.41528301 0.01560369 -0.05413148
v -0.35606063 -0.01669829 0.06597591
v -0.37121215 0.01360474 0.06597591
v -0.41666669 0.01360474 0.05082440
f 5 2 1
f 6 1 2
f 8 4 3
f 8 3 6
f 9 6 2
f 9 2 5
f 9 5 8
f 10 3 4
f 10 6 3
f 11 5 1
f 11 1 7
f 12 11 7
f 12 5 11
f 12 8 5
f 13 9 8
f 13 8 6
f 13 6 9
f 14 10 7
f 14 7 1
f 14 1 6
f 14 6 10
f 15 10 4
f 15 7 10
f 15 12 7
f 16 4 8
f 16 8 12
f 16 15 4
f 16 12 15