# https://github.com/mikedh/trimesh
v -0.15909093 -0.03184981 0.03567288
v -0.15909093 -0.03184981 0.02052136
v -0.15910839 -0.01541982 0.03561670
v -0.23484957 -0.01660376 0.05081083
v -0.20454548 -0.03184981 0.05082440
v -0.23521652 -0.01699331 0.02003410
v -0.15909731 -0.01650267 0.02050529
v -0.20455280 -0.01582862 0.05069631
v -0.23523314 -0.01683207 0.04925000
v -0.23484183 -0.01696776 0.02053020
f 5 2 1
f 5 1 3
f 6 2 5
f 7 1 2
f 7 3 1
f 7 6 3
f 7 2 6
f 8 5 3
f 8 4 5
f 9 6 5
f 9 5 4
f 9 4 6
f 10 6 4
f 10 4 8
f 10 8 3
f 10 3 6