# https://github.com/mikedh/trimesh
v -0.18939396 -0.03184981 -0.04008470
v -0.18939396 -0.01669829 -0.05523621
v -0.18978942 0.01691934 0.02009260
v -0.23499417 0.01732304 0.02024619
v -0.23484851 -0.03184981 -0.04008470
v -0.18939396 0.02875626 -0.04008470
v -0.23521652 -0.01699331 0.02003410
v -0.23721033 0.00663389 -0.04601342
v -0.18982627 -0.01677937 0.01974511
v -0.23602722 0.01607451 -0.03634172
v -0.23738104 -0.00981428 -0.04429041
v -0.18939396 0.01360474 -0.05523621
f 5 2 1
f 6 4 3
f 6 1 2
f 6 3 1
f 7 5 1
f 7 3 4
f 9 7 1
f 9 1 3
f 9 3 7
f 10 8 4
f 10 4 6
f 10 6 8
f 11 7 4
f 11 4 8
f 11 5 7
f 11 8 2
f 11 2 5
f 12 8 6
f 12 6 2
f 12 2 8