# https://github.com/mikedh/trimesh
v -0.44702926 -0.02074640 -0.00983421
v -0.44356093 -0.01282405 0.01482011
v -0.49242427 -0.01669829 0.00536985
v -0.47727276 0.02875626 0.00536985
v -0.44759250 0.02021382 -0.00844481
v -0.47727276 0.01360474 0.02052136
v -0.47727276 -0.01669829 0.02052136
v -0.44124945 0.01823626 0.01135830
v -0.48755674 0.00681565 -0.01913472
v -0.49242427 0.01360474 0.00536985
v -0.46212124 0.02875626 0.02052136
v -0.48767200 -0.00661508 -0.01886891
v -0.47727276 0.02875626 -0.00978167
f 7 1 2
f 7 3 1
f 7 6 3
f 8 2 1
f 8 1 5
f 9 5 1
f 10 6 4
f 10 3 6
f 11 7 2
f 11 6 7
f 11 2 8
f 11 4 6
f 11 8 5
f 12 9 1
f 12 1 3
f 12 10 9
f 12 3 10
f 13 5 9
f 13 11 5
f 13 4 11
f 13 10 4
f 13 9 10