# https://github.com/mikedh/trimesh
v -0.44696972 -0.03184981 0.02052136
v -0.44646536 -0.02077719 -0.00933660
v -0.44356093 -0.01282405 0.01482011
v -0.46728170 -0.00947635 -0.00284371
v -0.47727276 -0.03184981 -0.04008470
v -0.46163965 -0.01437242 -0.03889900
v -0.46212124 -0.01669829 0.02052136
v -0.46212124 -0.03184981 -0.04008470
v -0.47677803 -0.01226804 -0.03783142
v -0.47727276 -0.03184981 0.00536985
v -0.46212124 -0.03184981 0.02052136
f 1 2 3
f 6 3 2
f 6 4 3
f 7 1 3
f 7 3 4
f 8 2 1
f 8 1 5
f 8 6 2
f 8 5 6
f 9 6 5
f 9 4 6
f 10 5 1
f 10 9 5
f 10 7 4
f 10 4 9
f 11 10 1
f 11 1 7
f 11 7 10