# https://github.com/mikedh/trimesh
v -0.35605679 -0.01642068 -0.05524746
v -0.35606063 -0.01669829 -0.10069076
v -0.35606063 0.02875626 -0.08553924
v -0.41666669 0.02875626 -0.08553924
v -0.41666669 -0.01669829 -0.08553924
v -0.35606063 0.01360474 -0.10069076
v -0.41528301 0.01560369 -0.05413148
v -0.40151518 -0.01669829 -0.10069076
v -0.35600113 0.01682710 -0.05571703
v -0.41650690 -0.01512208 -0.05499042
v -0.40151518 0.01360474 -0.10069076
f 5 2 1
f 6 4 3
f 8 5 4
f 8 2 5
f 8 6 2
f 9 1 2
f 9 2 6
f 9 6 3
f 9 7 1
f 9 3 4
f 9 4 7
f 10 5 1
f 10 1 7
f 10 7 4
f 10 4 5
f 11 8 4
f 11 4 6
f 11 6 8