# https://github.com/mikedh/trimesh
v -0.23484851 -0.03184981 -0.05523621
v -0.23481778 -0.01777909 -0.02542499
v -0.31060608 -0.03184981 -0.05523621
v -0.31060608 0.02875626 -0.07038773
v -0.23484851 0.02875626 -0.05523621
v -0.31031944 0.01693675 -0.02466976
v -0.25000002 -0.01669829 -0.07038773
v -0.31057848 -0.01730621 -0.02471214
v -0.23511623 0.01706929 -0.02504474
v -0.31230932 -0.01058447 -0.06318796
v -0.25000002 0.01360474 -0.07038773
v -0.29545457 0.02875626 -0.07038773
f 1 2 3
f 5 2 1
f 6 5 4
f 7 1 3
f 7 5 1
f 8 3 2
f 9 2 5
f 9 5 6
f 9 8 2
f 9 6 8
f 10 7 3
f 10 4 7
f 10 3 8
f 10 8 6
f 10 6 4
f 11 7 4
f 11 5 7
f 12 11 4
f 12 4 5
f 12 5 11