# https://github.com/mikedh/trimesh
v -0.03846402 -0.01162568 0.06356870
v -0.03829636 0.00758723 0.06420462
v -0.03982700 0.00402850 0.08695000
v -0.11363638 0.02875626 0.08112743
v -0.11245689 0.01622941 0.06492454
v -0.08333335 0.02875626 0.08112743
v -0.03929663 -0.00552833 0.08618963
v -0.11363638 0.01360474 0.09627894
v -0.08333335 0.02875626 0.06597591
v -0.11363638 -0.01669829 0.09627894
v -0.11369430 -0.01598853 0.06586059
f 5 2 1
f 6 3 2
f 7 1 2
f 7 2 3
f 8 6 4
f 8 3 6
f 9 5 4
f 9 4 6
f 9 6 2
f 9 2 5
f 10 7 3
f 10 3 8
f 10 1 7
f 11 5 1
f 11 1 10
f 11 4 5
f 11 10 8
f 11 8 4