# https://github.com/mikedh/trimesh
v -0.09848487 -0.03184981 -0.02493318
v -0.09848487 -0.03184981 -0.08553924
v -0.09848487 0.02875626 -0.02493318
v -0.12878790 0.02875626 -0.04008470
v -0.12878790 -0.03184981 -0.07038773
v -0.09848487 0.02875626 -0.08553924
v -0.12722200 -0.01697176 -0.02283413
v -0.12878790 0.02875626 -0.08553924
v -0.11537366 0.01842844 -0.02486201
v -0.12872338 -0.01627178 -0.02483224
v -0.12878790 -0.01669829 -0.08553924
v -0.11363638 -0.03184981 -0.08553924
f 1 2 3
f 5 2 1
f 6 3 2
f 6 4 3
f 7 1 3
f 7 5 1
f 8 5 4
f 8 4 6
f 8 6 2
f 9 7 3
f 9 3 4
f 9 4 7
f 10 7 4
f 10 4 5
f 10 5 7
f 11 8 2
f 11 5 8
f 12 11 2
f 12 2 5
f 12 5 11