# https://github.com/mikedh/trimesh
v -0.46239601 -0.01726107 -0.00968836
v -0.45687162 0.00018028 -0.05717066
v -0.45844465 0.01821914 -0.00979003
v -0.49242427 0.02875626 -0.00978167
v -0.50757579 -0.01669829 -0.05523621
v -0.46212124 0.02875626 -0.05523621
v -0.45963439 -0.00849409 -0.04975504
v -0.50757579 -0.01669829 -0.00978167
v -0.50757579 0.01360474 -0.05523621
v -0.47727276 -0.00154677 -0.07038773
v -0.50757579 0.01360474 -0.00978167
v -0.49242427 0.02875626 -0.04008470
v -0.47727276 0.01360474 -0.07038773
v -0.46212124 0.01360474 -0.07038773
v -0.47727276 0.02875626 -0.05523621
f 1 2 3
f 1 3 4
f 6 3 2
f 6 4 3
f 7 2 1
f 7 1 5
f 8 5 1
f 9 5 8
f 10 7 5
f 10 2 7
f 10 5 9
f 11 8 1
f 11 1 4
f 11 9 8
f 11 4 9
f 12 9 4
f 12 4 6
f 13 10 9
f 14 13 6
f 14 6 2
f 14 2 10
f 14 10 13
f 15 12 6
f 15 6 13
f 15 13 9
f 15 9 12