# https://github.com/mikedh/trimesh
v -0.11363638 -0.03184981 0.06597591
v -0.11363638 -0.03184981 0.02052136
v -0.11413380 -0.01468660 0.02046538
v -0.12778099 -0.01430768 0.06481114
v -0.14393941 -0.03184981 0.02052136
v -0.11369430 -0.01598853 0.06586059
v -0.12878790 -0.03184981 0.06597591
v -0.14392591 -0.01652533 0.02050252
v -0.14388254 -0.01521342 0.03552885
v -0.14393941 -0.03184981 0.03567288
f 5 2 1
f 5 3 2
f 6 3 4
f 6 1 2
f 6 2 3
f 7 5 1
f 7 6 4
f 7 1 6
f 8 3 5
f 9 4 3
f 9 3 8
f 9 7 4
f 10 9 8
f 10 8 5
f 10 5 7
f 10 7 9