# https://github.com/mikedh/trimesh
v -0.44696972 -0.03184981 -0.05523621
v -0.44281832 -0.00666814 -0.05991845
v -0.44759250 0.02021382 -0.00844481
v -0.46212124 0.02875626 -0.05523621
v -0.46212124 -0.01669829 -0.07038773
v -0.44696972 0.02875626 -0.05523621
v -0.44646536 -0.02077719 -0.00933660
v -0.44358834 0.00659005 -0.06027021
v -0.46212124 0.01360474 -0.07038773
v -0.46212124 -0.03184981 -0.05523621
v -0.45848741 -0.01862431 -0.01044402
v -0.45844465 0.01821914 -0.00979003
f 5 2 1
f 6 4 3
f 7 1 2
f 7 2 3
f 8 6 3
f 8 3 2
f 9 5 4
f 9 4 6
f 9 6 8
f 9 8 2
f 9 2 5
f 10 5 1
f 10 1 7
f 10 4 5
f 11 10 7
f 11 7 3
f 12 11 3
f 12 3 4
f 12 4 10
f 12 10 11