# https://github.com/mikedh/trimesh
v 0.40128992 -0.00832070 0.07400421
v 0.40085328 -0.01230976 0.03579252
v 0.40113421 0.00978337 0.03600911
v 0.34042843 0.00708145 0.07408166
v 0.34084147 -0.01371089 0.06564630
v 0.40134035 0.00710643 0.07335364
v 0.34087785 -0.01016257 0.07347794
v 0.34094321 0.01205323 0.03574376
v 0.38620242 0.01100369 0.03579000
v 0.34085449 -0.01533046 0.03567215
f 1 2 3
f 5 2 1
f 6 1 3
f 6 4 1
f 7 5 1
f 7 1 4
f 7 4 5
f 8 4 6
f 9 3 2
f 9 8 6
f 9 6 3
f 10 2 5
f 10 5 4
f 10 4 8
f 10 9 2
f 10 8 9