# https://github.com/mikedh/trimesh
v 0.26515151 -0.03184981 0.00536985
v 0.26515151 -0.03184981 -0.00978167
v 0.26518317 0.01086188 0.00564208
v 0.14393554 0.01207332 0.00548755
v 0.14393938 -0.03184981 -0.00978167
v 0.14354473 0.00367209 -0.03485317
v 0.14356610 -0.01696850 0.00480993
v 0.26498359 0.00213102 -0.03164338
v 0.14379160 -0.00977055 -0.03519749
v 0.24922264 0.00240020 -0.03200467
v 0.26486110 -0.00905579 -0.03297835
f 1 2 3
f 1 3 4
f 5 2 1
f 6 4 3
f 7 5 1
f 7 1 4
f 7 6 5
f 7 4 6
f 8 3 2
f 9 2 5
f 9 5 6
f 10 8 6
f 10 6 3
f 10 3 8
f 11 8 2
f 11 2 9
f 11 9 6
f 11 6 8