# https://github.com/mikedh/trimesh
v 0.50757576 -0.01669829 0.08112743
v 0.50757576 -0.01669829 0.05082440
v 0.50757576 0.01360474 0.05082440
v 0.40134035 0.00710643 0.07335364
v 0.38623025 -0.01389098 0.03568500
v 0.50757576 0.01360474 0.08112743
v 0.43181818 -0.01669829 -0.00978167
v 0.40128992 -0.00832070 0.07400421
v 0.38620242 0.01100369 0.03579000
v 0.46212121 0.01360474 0.00536985
v 0.38418084 0.00383945 -0.00443354
v 0.46212121 -0.01669829 0.00536985
v 0.43181818 0.01360474 -0.00978167
v 0.38429243 -0.00718772 -0.00395314
f 1 2 3
f 6 1 3
f 7 2 1
f 7 1 5
f 8 5 1
f 8 6 4
f 8 1 6
f 9 4 6
f 9 8 4
f 9 5 8
f 10 3 2
f 10 6 3
f 11 5 9
f 12 10 2
f 12 2 7
f 12 7 10
f 13 9 6
f 13 6 10
f 13 11 9
f 13 10 7
f 13 7 11
f 14 11 7
f 14 7 5
f 14 5 11