# https://github.com/mikedh/trimesh
v -0.09848485 -0.00982635 -0.10705771
v -0.09847083 -0.01071755 -0.14011450
v -0.09848485 0.03562820 -0.10705771
v -0.23484849 0.03562820 -0.10705771
v -0.23484849 -0.00982635 -0.10705771
v -0.11363637 0.02047668 -0.15251225
v -0.09834105 0.03337557 -0.13063645
v -0.23484849 0.00532516 -0.15251225
v -0.09848485 0.02047668 -0.15251225
v -0.23501833 0.03400345 -0.13177006
v -0.23486926 -0.01008604 -0.13801262
v -0.20454546 0.02047668 -0.15251225
f 1 3 4
f 5 2 1
f 5 1 4
f 7 1 2
f 7 3 1
f 9 7 2
f 9 8 6
f 9 2 8
f 10 4 3
f 10 3 7
f 10 5 4
f 10 9 6
f 10 7 9
f 11 8 2
f 11 2 5
f 11 10 8
f 11 5 10
f 12 10 6
f 12 6 8
f 12 8 10