# https://github.com/mikedh/trimesh
v -0.15960574 -0.06876514 -0.09612109
v -0.09848485 -0.00982635 -0.10705771
v -0.09848485 0.03562820 -0.09190619
v -0.23484849 0.03562820 -0.09190619
v -0.28018391 -0.06114940 -0.11492420
v -0.23484849 0.03562820 -0.10705771
v -0.27963596 -0.01404799 -0.07849027
v -0.09848485 -0.00982635 -0.09190619
v -0.15890591 -0.05948961 -0.11134222
v -0.09848485 0.03562820 -0.10705771
v -0.28030304 -0.05528090 -0.09190619
v -0.28030304 -0.00982635 -0.10705771
f 6 4 3
f 7 3 4
f 8 1 2
f 8 2 3
f 8 7 1
f 8 3 7
f 9 2 1
f 9 1 5
f 10 6 3
f 10 3 2
f 10 5 6
f 10 9 5
f 10 2 9
f 11 5 1
f 11 1 7
f 12 6 5
f 12 11 7
f 12 5 11
f 12 7 4
f 12 4 6