# https://github.com/mikedh/trimesh
v 0.12980061 -0.01783094 -0.00302116
v 0.12878788 -0.00982635 -0.04645164
v 0.12878788 0.06593123 -0.01614861
v 0.00763222 0.06399062 -0.04587735
v 0.00911539 -0.01956289 -0.01691000
v 0.12989475 0.06291774 -0.04690223
v 0.00728610 -0.01130039 -0.04562261
v 0.03787879 0.05077971 -0.00099710
v 0.00554837 0.04621719 -0.01418125
v 0.00757576 0.00532516 -0.00099710
v 0.12878788 0.03562820 -0.00099710
v 0.00732286 0.05781111 -0.02345217
v 0.06831272 -0.01915109 -0.00415244
f 5 2 1
f 6 4 3
f 6 1 2
f 6 3 1
f 7 2 5
f 7 6 2
f 7 4 6
f 9 4 7
f 10 8 9
f 10 9 7
f 10 7 5
f 11 1 3
f 11 3 8
f 11 10 1
f 11 8 10
f 12 8 3
f 12 3 4
f 12 9 8
f 12 4 9
f 13 10 5
f 13 5 1
f 13 1 10