# https://github.com/mikedh/trimesh
v 0.00757576 -0.07043241 -0.00099710
v 0.00668024 -0.06312972 -0.08818113
v 0.00757576 0.06593123 -0.00099710
v -0.05303031 0.06593123 -0.00099710
v -0.03840038 -0.06564073 -0.08951979
v -0.05306382 0.05725383 -0.06878936
v 0.00797498 0.05755144 -0.05529059
v -0.03787879 -0.07043241 -0.01614861
v 0.00757576 0.02047668 -0.09190619
v -0.02272728 -0.05528090 -0.00099710
v -0.05303031 0.02047668 -0.06160316
v -0.03787879 0.02047668 -0.09190619
v -0.00757576 -0.07043241 -0.00099710
v -0.05322372 0.02495892 -0.01106410
f 1 3 4
f 5 2 1
f 6 4 3
f 7 3 1
f 7 6 3
f 8 5 1
f 9 2 5
f 9 6 7
f 9 7 1
f 9 1 2
f 10 1 4
f 10 4 8
f 11 6 5
f 11 5 8
f 12 9 5
f 12 5 6
f 12 6 9
f 13 10 8
f 13 8 1
f 13 1 10
f 14 11 8
f 14 8 4
f 14 4 6
f 14 6 11