# https://github.com/mikedh/trimesh
v 0.00757576 0.00532516 -0.00099710
v 0.00727822 0.00744231 -0.01770149
v -0.05303031 0.06593123 -0.00099710
v -0.31061235 0.06575058 -0.01630424
v -0.31060607 0.00532516 -0.00099710
v -0.05308930 0.06049408 -0.01999867
v 0.00338150 0.02520767 -0.01469742
v -0.31023579 0.01531576 -0.02008724
v -0.31122723 0.05933850 -0.01061066
v 0.00709183 0.02076373 -0.01750921
f 5 2 1
f 5 1 3
f 6 4 3
f 7 3 1
f 7 6 3
f 8 2 5
f 8 6 2
f 8 4 6
f 9 5 3
f 9 3 4
f 9 8 5
f 9 4 8
f 10 7 1
f 10 1 2
f 10 2 6
f 10 6 7