# https://github.com/mikedh/trimesh
v 0.26403245 0.00330519 -0.02546784
v 0.26510772 0.00514544 -0.13636350
v 0.26515152 0.09623426 -0.10705771
v 0.14393939 0.08108274 -0.03130013
v 0.14391172 0.00492445 -0.13618126
v 0.26515152 0.08108274 -0.01614861
v 0.14442727 0.01215223 -0.00654721
v 0.14393939 0.05077971 -0.13736074
v 0.21969697 0.09623426 -0.06160316
v 0.26842498 0.03002074 -0.12538994
v 0.14393939 0.00532516 -0.03130013
v 0.15909091 0.05077971 -0.00099710
v 0.26515152 0.08108274 -0.12220922
v 0.17424243 0.08108274 -0.01614861
v 0.14393939 0.08108274 -0.12220922
v 0.26460330 0.00896870 -0.01458748
v 0.14393939 0.03562820 -0.00099710
v 0.18939394 0.05077971 -0.13736074
v 0.20454546 0.06593123 -0.00099710
v 0.20454546 0.09623426 -0.07675468
v 0.24829566 0.01080053 -0.00377737
v 0.20454546 0.09623426 -0.09190619
v 0.25000000 0.06593123 -0.00099710
v 0.23484849 0.09623426 -0.10705771
f 5 2 1
f 8 2 5
f 9 6 3
f 10 1 2
f 10 3 6
f 11 5 1
f 11 1 7
f 13 10 2
f 13 3 10
f 14 9 4
f 14 6 9
f 14 4 12
f 15 8 5
f 15 5 4
f 15 13 8
f 15 3 13
f 16 10 6
f 16 1 10
f 17 11 7
f 17 4 5
f 17 5 11
f 17 12 4
f 18 13 2
f 18 2 8
f 18 8 13
f 19 14 12
f 19 6 14
f 19 12 17
f 20 15 4
f 20 4 9
f 20 9 3
f 21 7 1
f 21 1 16
f 21 17 7
f 22 20 3
f 22 15 20
f 23 19 17
f 23 17 21
f 23 6 19
f 23 21 16
f 23 16 6
f 24 22 3
f 24 3 15
f 24 15 22