# https://github.com/mikedh/trimesh
v -0.28030304 -0.08558393 -0.06160316
v -0.28030304 -0.05528090 -0.13736074
v -0.28049242 -0.00742055 -0.06240797
v -0.35591813 -0.00840806 -0.06218724
v -0.35689385 -0.07365744 -0.10193600
v -0.35606190 -0.00488558 -0.12899439
v -0.32575759 -0.02497787 -0.03130013
v -0.27973966 -0.06228634 -0.05864320
v -0.28069727 -0.07114149 -0.10267069
v -0.28021935 -0.00979685 -0.13634378
v -0.32575759 -0.05528090 -0.13736074
v -0.35606062 -0.02497787 -0.03130013
v -0.28030304 -0.02497787 -0.04645164
v -0.35606062 -0.02497787 -0.13736074
v -0.35606062 -0.07043241 -0.03130013
v -0.35600883 -0.06494419 -0.10990818
v -0.35606062 -0.08558393 -0.06160316
v -0.32575759 -0.07043241 -0.03130013
f 6 4 3
f 8 1 2
f 9 5 2
f 9 2 1
f 9 1 5
f 10 6 3
f 10 8 2
f 10 3 8
f 11 2 5
f 12 7 3
f 12 3 4
f 12 6 5
f 12 4 6
f 13 1 8
f 13 8 3
f 13 3 7
f 14 5 6
f 14 6 10
f 14 10 2
f 14 2 11
f 15 12 5
f 15 7 12
f 16 14 11
f 16 11 5
f 16 5 14
f 17 15 5
f 17 5 1
f 17 1 15
f 18 13 7
f 18 7 15
f 18 15 1
f 18 1 13