# https://github.com/mikedh/trimesh
v -0.09847321 -0.01035080 -0.06142283
v -0.05303031 0.02047668 -0.06160316
v -0.05308171 0.01926560 -0.01498470
v -0.41666668 0.08108274 -0.01614861
v -0.41666668 0.08108274 -0.06160316
v -0.08333334 0.08108274 -0.01614861
v -0.34090910 -0.00982635 -0.01614861
v -0.05306382 0.05725383 -0.06878936
v -0.40846782 0.02391509 -0.01126230
v -0.09883385 -0.00582523 -0.05024281
v -0.35591813 -0.00840806 -0.06218724
v -0.08333334 0.08108274 -0.04645164
v -0.05308930 0.06049408 -0.01999867
v -0.41782010 0.02065901 -0.05708927
v -0.21969698 0.08108274 -0.06160316
f 1 2 3
f 6 5 4
f 8 2 1
f 9 6 4
f 9 3 6
f 9 7 3
f 10 7 1
f 10 1 3
f 10 3 7
f 11 1 7
f 11 8 1
f 11 5 8
f 12 5 6
f 13 6 3
f 13 3 2
f 13 2 8
f 13 12 6
f 13 8 12
f 14 9 4
f 14 4 5
f 14 5 11
f 14 11 7
f 14 7 9
f 15 12 8
f 15 8 5
f 15 5 12