# https://github.com/mikedh/trimesh
v 0.06818182 -0.05528090 -0.12220922
v 0.08333333 -0.04012938 -0.13736074
v 0.08333333 -0.00982635 -0.10705771
v -0.28030304 -0.00982635 -0.10705771
v -0.28030304 -0.05528090 -0.13736074
v -0.26515153 -0.00982635 -0.15251225
v 0.06781493 -0.04519113 -0.09900809
v -0.00757576 -0.04012938 -0.15251225
v -0.28021935 -0.00979685 -0.13634378
v -0.28018391 -0.06114940 -0.11492420
v 0.08279839 -0.03774570 -0.10544190
v -0.03787879 -0.05528090 -0.13736074
v -0.26515153 -0.02497787 -0.15251225
v 0.08319494 -0.01007024 -0.14039096
v -0.06818182 -0.04012938 -0.15251225
v 0.05272494 -0.00992023 -0.14018140
v 0.08341664 -0.01786210 -0.13914184
f 7 3 4
f 8 2 1
f 9 6 5
f 9 5 4
f 9 4 3
f 9 3 6
f 10 1 7
f 10 7 4
f 10 4 5
f 11 7 1
f 11 1 2
f 11 2 3
f 11 3 7
f 12 8 1
f 12 5 8
f 12 10 5
f 12 1 10
f 13 5 6
f 13 6 8
f 14 8 6
f 14 2 8
f 15 13 8
f 15 8 5
f 15 5 13
f 16 14 6
f 16 6 3
f 16 3 14
f 17 14 3
f 17 3 2
f 17 2 14