# https://github.com/mikedh/trimesh
v 0.47727274 0.00532516 -0.04645164
v 0.50757577 0.02047668 -0.07675468
v 0.50757577 0.05077971 -0.04645164
v 0.32575758 0.08108274 -0.04645164
v 0.31060607 -0.00982635 -0.15251225
v 0.50757577 0.02047668 -0.04645164
v 0.46212122 0.00532516 -0.10705771
v 0.31329564 0.00111943 -0.06853968
v 0.47727274 0.00532516 -0.09190619
v 0.44696971 0.06593123 -0.12220922
v 0.37121213 -0.00982635 -0.06160316
v 0.30652794 0.07350878 -0.05643105
v 0.35606061 -0.00982635 -0.13736074
v 0.50757577 0.05077971 -0.07675468
v 0.46212122 0.02047668 -0.12220922
v 0.44696971 0.06593123 -0.07675468
v 0.34153306 0.01196637 -0.05729952
v 0.38636364 -0.00982635 -0.07675468
v 0.31525056 0.02112590 -0.05981380
v 0.31060607 0.06593123 -0.13736074
v 0.40151516 0.03562820 -0.15251225
v 0.38636364 0.00532516 -0.15251225
v 0.46212122 0.05077971 -0.12220922
v 0.34090910 0.08108274 -0.07675468
v 0.38636364 -0.00982635 -0.09190619
v 0.30665941 0.06770305 -0.10357058
v 0.34090910 0.08108274 -0.10705771
v 0.35606061 0.06593123 -0.13736074
v 0.32575758 -0.00982635 -0.15251225
v 0.40151516 0.02047668 -0.15251225
v 0.41666668 0.00532516 -0.13736074
v 0.43181819 0.05077971 -0.13736074
f 1 3 4
f 6 1 2
f 6 2 3
f 6 3 1
f 9 7 2
f 9 2 1
f 11 8 5
f 12 5 8
f 13 7 9
f 13 11 5
f 14 10 3
f 14 3 2
f 15 2 7
f 15 14 2
f 16 4 3
f 16 3 10
f 17 11 1
f 17 1 4
f 17 8 11
f 18 9 1
f 18 1 11
f 18 11 13
f 19 12 8
f 19 4 12
f 19 17 4
f 19 8 17
f 21 5 20
f 22 5 21
f 23 10 14
f 23 14 15
f 23 15 21
f 24 16 10
f 24 4 16
f 25 18 13
f 25 13 9
f 25 9 18
f 26 20 5
f 26 5 12
f 26 12 20
f 27 20 12
f 27 12 4
f 27 4 24
f 27 24 10
f 28 21 20
f 28 27 10
f 28 20 27
f 29 13 5
f 29 5 22
f 30 22 21
f 30 21 15
f 31 15 7
f 31 7 13
f 31 29 22
f 31 13 29
f 31 30 15
f 31 22 30
f 32 23 21
f 32 10 23
f 32 28 10
f 32 21 28