# https://github.com/mikedh/trimesh
v -0.34090910 -0.00982635 -0.00099710
v -0.31023579 0.01531576 -0.02008724
v -0.32575759 0.03562820 0.01415442
v -0.37121213 0.08108274 -0.00099710
v -0.40313100 0.00828441 -0.01897140
v -0.31060607 0.08108274 -0.00099710
v -0.31060607 0.00532516 -0.00099710
v -0.34090910 -0.00982635 -0.01614861
v -0.37052701 0.07194934 -0.02354632
v -0.41666668 0.00532516 0.01415442
v -0.34090910 0.05077971 0.01415442
v -0.34090910 0.00532516 0.01415442
v -0.31093340 0.07045556 -0.02279868
v -0.41666668 0.06593123 -0.00099710
v -0.35606062 -0.00982635 -0.00099710
v -0.32575759 0.02047668 0.01415442
v -0.40687577 0.06099937 -0.02015823
v -0.40151517 0.05077971 0.01415442
v -0.41666668 0.03562820 0.01415442
f 7 6 3
f 7 2 6
f 8 5 2
f 8 7 1
f 8 2 7
f 9 2 5
f 9 4 6
f 11 6 4
f 11 3 6
f 11 10 3
f 12 1 7
f 12 10 1
f 12 3 10
f 13 9 6
f 13 6 2
f 13 2 9
f 14 5 10
f 14 4 9
f 15 8 1
f 15 1 10
f 15 10 5
f 15 5 8
f 16 12 7
f 16 7 3
f 16 3 12
f 17 14 9
f 17 9 5
f 17 5 14
f 18 11 4
f 18 4 14
f 18 10 11
f 19 18 14
f 19 14 10
f 19 10 18