# https://github.com/mikedh/trimesh
v -0.35606062 -0.08558393 -0.06160316
v -0.35606062 -0.08558393 -0.12220922
v -0.35606062 0.03562820 -0.06160316
v -0.47727274 0.03562820 -0.06160316
v -0.49242426 -0.07043241 -0.04645164
v -0.47727274 0.03562820 -0.15251225
v -0.47727274 -0.08558393 -0.06160316
v -0.35606062 0.00532516 0.01415442
v -0.35607077 0.03556286 -0.13596360
v -0.48371274 0.03933798 -0.12841291
v -0.35606062 -0.07043241 -0.03130013
v -0.46212123 -0.07043241 -0.13736074
v -0.35833817 0.02235214 0.00289031
v -0.40151517 -0.00982635 0.01415442
v -0.38636365 0.02047668 -0.15251225
v -0.48763182 0.03865000 -0.09836696
v -0.38636365 0.03562820 -0.15251225
v -0.49242426 0.02047668 -0.13736074
v -0.44109701 -0.06729550 -0.03409050
v -0.46212123 -0.08558393 -0.12220922
v -0.46212123 0.03562820 -0.04645164
v -0.37121213 -0.00982635 0.01415442
v -0.39913188 0.02076101 0.00599902
v -0.35606062 -0.02497787 -0.13736074
v -0.46212123 0.00532516 -0.15251225
v -0.38636365 -0.07043241 -0.13736074
v -0.49242426 -0.04012938 -0.04645164
v -0.49242426 -0.07043241 -0.09190619
v -0.47727274 0.02047668 -0.15251225
v -0.40151517 0.00532516 -0.15251225
v -0.37121213 -0.05528090 -0.13736074
v -0.47727274 -0.08558393 -0.09190619
f 1 2 3
f 7 2 1
f 8 1 3
f 10 3 9
f 11 7 1
f 11 1 8
f 13 8 3
f 16 3 10
f 17 10 9
f 17 6 10
f 17 15 6
f 18 10 6
f 18 16 10
f 19 5 7
f 19 7 11
f 19 14 5
f 19 11 14
f 20 12 2
f 20 2 7
f 21 13 3
f 21 16 4
f 21 3 16
f 22 14 11
f 22 11 8
f 22 8 14
f 23 14 8
f 23 8 13
f 23 21 14
f 23 13 21
f 24 9 3
f 24 3 2
f 24 17 9
f 24 15 17
f 25 6 15
f 26 2 12
f 26 12 25
f 27 4 16
f 27 21 4
f 27 5 14
f 27 14 21
f 27 18 5
f 27 16 18
f 28 18 12
f 28 5 18
f 28 12 20
f 28 7 5
f 29 18 6
f 29 12 18
f 29 25 12
f 29 6 25
f 30 26 25
f 30 25 15
f 30 15 26
f 31 24 2
f 31 2 26
f 31 26 15
f 31 15 24
f 32 28 20
f 32 20 7
f 32 7 28