# https://github.com/mikedh/trimesh
v 0.47727274 -0.10073545 0.12021503
v 0.49242425 -0.08558393 0.10506351
v 0.49242425 -0.05528090 0.15051806
v 0.26515152 0.02047668 0.02930593
v 0.28030303 -0.04012938 -0.04645164
v 0.26515152 -0.07043241 0.07476048
v 0.49242425 -0.08558393 0.15051806
v 0.43181819 -0.10073545 0.04445745
v 0.40151516 0.00532516 -0.01614861
v 0.37121213 -0.02497787 0.12021503
v 0.25695223 0.01478387 -0.05889058
v 0.37121213 -0.10073545 0.10506351
v 0.46212122 -0.10073545 0.05960896
v 0.26515152 -0.08558393 0.02930593
v 0.49242425 -0.05528090 0.12021503
v 0.37121213 -0.04012938 -0.03130013
v 0.43181819 -0.00982635 0.10506351
v 0.26515152 0.00532516 0.05960896
v 0.43181819 -0.05528090 0.15051806
v 0.34190706 0.02143063 -0.05335841
v 0.41666668 -0.10073545 0.12021503
v 0.47727274 -0.10073545 0.08991200
v 0.46212122 -0.07043241 0.05960896
v 0.26515152 -0.07043241 -0.01614861
v 0.25794787 -0.03716869 -0.03925467
v 0.26515152 -0.08558393 0.05960896
v 0.37121213 -0.10073545 0.05960896
v 0.49242425 -0.07043241 0.10506351
v 0.38636364 -0.05528090 -0.01614861
v 0.43181819 -0.00982635 0.07476048
v 0.26515152 -0.04012938 0.07476048
v 0.29545455 0.00532516 0.07476048
v 0.38636364 -0.08558393 0.13536654
v 0.26449822 0.02170609 -0.06094932
v 0.34088689 0.00578284 -0.06200378
v 0.40151516 0.00532516 0.04445745
v 0.38636364 -0.10073545 0.04445745
v 0.38636364 -0.08558393 0.01415442
v 0.40151516 -0.04012938 -0.01614861
v 0.37121213 0.00532516 0.07476048
v 0.35606061 -0.00982635 0.10506351
v 0.31060607 -0.00982635 0.08991200
v 0.43181819 -0.08558393 0.15051806
v 0.32575758 -0.08558393 0.10506351
v 0.38636364 -0.05528090 0.13536654
v 0.32575758 0.02047668 0.02930593
v 0.29545455 -0.07043241 -0.01614861
v 0.38636364 -0.02497787 -0.03130013
v 0.28030303 -0.00982635 0.07476048
v 0.28030303 -0.08558393 0.07476048
v 0.29545455 -0.04012938 0.08991200
v 0.38636364 -0.00982635 -0.03130013
f 7 1 2
f 7 2 3
f 12 8 1
f 13 1 8
f 15 3 2
f 17 3 15
f 18 4 11
f 19 7 3
f 19 3 17
f 21 12 1
f 21 1 7
f 22 13 2
f 22 2 1
f 22 1 13
f 23 13 9
f 23 2 13
f 25 24 14
f 25 11 5
f 25 5 24
f 26 14 12
f 26 25 14
f 26 6 25
f 27 8 12
f 27 12 14
f 28 15 2
f 28 9 15
f 28 23 9
f 28 2 23
f 29 13 8
f 29 5 16
f 30 17 15
f 30 15 9
f 30 9 17
f 31 18 11
f 31 25 6
f 31 11 25
f 32 4 18
f 33 12 21
f 33 31 6
f 34 11 4
f 35 20 9
f 35 16 5
f 35 34 20
f 35 5 11
f 35 11 34
f 36 17 9
f 36 9 20
f 37 24 8
f 37 14 24
f 37 27 14
f 37 8 27
f 38 29 8
f 39 29 16
f 39 9 13
f 39 13 29
f 40 32 17
f 40 4 32
f 41 32 10
f 41 17 32
f 41 19 17
f 41 10 19
f 42 10 32
f 43 33 21
f 43 21 7
f 43 7 19
f 43 19 33
f 44 12 33
f 44 33 6
f 45 33 19
f 45 19 10
f 45 31 33
f 45 10 42
f 46 34 4
f 46 20 34
f 46 4 40
f 46 36 20
f 46 40 17
f 46 17 36
f 47 24 5
f 47 5 29
f 47 29 38
f 47 38 8
f 47 8 24
f 48 9 39
f 48 39 16
f 48 16 35
f 49 18 31
f 49 31 42
f 49 42 32
f 49 32 18
f 50 26 12
f 50 12 44
f 50 44 6
f 50 6 26
f 51 45 42
f 51 42 31
f 51 31 45
f 52 48 35
f 52 35 9
f 52 9 48