# https://github.com/mikedh/trimesh
v 0.11944303 0.03624116 -0.03859749
v 0.12882551 0.03550523 -0.12186401
v 0.12878788 0.08108274 -0.06160316
v 0.00680282 0.07188596 -0.08490378
v 0.00759403 0.03258348 -0.12793311
v 0.12878788 0.08108274 -0.12220922
v 0.00763222 0.06399062 -0.04587735
v 0.12989475 0.06291774 -0.04690223
v 0.11195949 0.03050443 -0.12384565
v 0.08333333 0.08108274 -0.06160316
v 0.02272727 0.06593123 -0.13736074
v 0.00757576 0.03562820 -0.04645164
v 0.00848948 0.07422915 -0.11022762
v 0.11363636 0.05077971 -0.13736074
v 0.00757576 0.05077971 -0.13736074
v 0.08333333 0.06593123 -0.13736074
f 8 1 2
f 8 7 1
f 8 3 7
f 8 6 3
f 8 2 6
f 9 2 1
f 10 3 6
f 10 7 3
f 10 4 7
f 12 1 7
f 12 9 1
f 12 5 9
f 12 7 4
f 12 4 5
f 13 10 6
f 13 4 10
f 13 6 11
f 14 9 5
f 14 2 9
f 14 6 2
f 15 13 11
f 15 5 4
f 15 4 13
f 15 14 5
f 15 11 14
f 16 14 11
f 16 11 6
f 16 6 14