# https://github.com/mikedh/trimesh
v -0.14393940 -0.08558393 -0.06160316
v -0.03787879 -0.07043241 -0.12220922
v -0.03787879 -0.02497787 -0.01614861
v -0.14154911 -0.00497108 -0.05641519
v -0.15909092 -0.07043241 -0.12220922
v -0.03787879 -0.00982635 -0.10705771
v -0.12878789 -0.05528090 -0.03130013
v -0.03689932 -0.05948689 -0.03792318
v -0.12878789 -0.08558393 -0.09190619
v -0.15875660 -0.06176679 -0.05816241
v -0.03750529 -0.00727902 -0.04746428
v -0.15909092 -0.00982635 -0.10705771
v -0.15923505 -0.05186127 -0.11843402
v -0.11363637 -0.02497787 -0.03130013
v -0.12878789 -0.08558393 -0.07675468
v -0.06818182 -0.05528090 -0.01614861
v -0.03522501 -0.05010038 -0.02866564
v -0.15909092 -0.08558393 -0.09190619
v -0.15897034 -0.00874408 -0.06233617
v -0.15909092 -0.08558393 -0.06160316
v -0.05303031 -0.02497787 -0.01614861
v -0.11363637 -0.07043241 -0.03130013
v -0.12878789 -0.04012938 -0.03130013
v -0.15811837 -0.03304792 -0.05836222
v -0.06818182 -0.04012938 -0.01614861
f 9 5 2
f 11 6 4
f 12 4 6
f 13 6 2
f 13 2 5
f 13 12 6
f 15 8 1
f 15 2 8
f 15 9 2
f 15 1 9
f 17 8 2
f 17 2 6
f 17 6 11
f 17 11 3
f 17 16 8
f 17 3 16
f 18 9 1
f 18 5 9
f 18 13 5
f 19 4 12
f 19 12 13
f 19 14 4
f 20 7 10
f 20 18 1
f 20 10 19
f 20 19 13
f 20 13 18
f 21 11 4
f 21 3 11
f 21 4 14
f 21 16 3
f 22 1 8
f 22 8 16
f 22 20 1
f 22 16 7
f 22 7 20
f 23 7 16
f 23 14 19
f 23 10 7
f 24 23 19
f 24 19 10
f 24 10 23
f 25 23 16
f 25 16 21
f 25 21 14
f 25 14 23