# https://github.com/mikedh/trimesh
v -0.09847321 -0.01035080 -0.06142283
v 0.00757576 0.02047668 -0.09190619
v 0.00797498 0.05755144 -0.05529059
v -0.18939395 0.08108274 -0.06160316
v -0.23484849 0.03562820 -0.09190619
v 0.00745055 0.07850500 -0.09337004
v -0.23484849 0.03562820 -0.06160316
v 0.00757576 0.02047668 -0.06160316
v -0.09848485 -0.00982635 -0.09190619
v -0.06818182 0.08108274 -0.06160316
v -0.18939451 0.08106094 -0.09191573
v -0.23484599 -0.00706396 -0.06307127
v -0.23444986 -0.01542734 -0.07884670
f 6 3 2
f 7 3 4
f 7 4 5
f 8 1 2
f 8 2 3
f 8 3 1
f 9 2 1
f 9 6 2
f 9 5 6
f 10 4 3
f 10 3 6
f 11 6 5
f 11 5 4
f 11 10 6
f 11 4 10
f 12 1 3
f 12 3 7
f 12 7 5
f 13 9 1
f 13 1 12
f 13 12 5
f 13 5 9