# https://github.com/mikedh/trimesh
v 0.50757577 0.02047668 0.07476048
v 0.50757577 0.02047668 0.04445745
v 0.50757577 0.05077971 0.07476048
v 0.44696971 0.05077971 0.07476048
v 0.44696971 0.02047668 0.07476048
v 0.44696971 0.05077971 -0.00099710
v 0.49242425 0.05077971 0.01415442
v 0.44212698 0.02606385 0.00645318
v 0.50757577 0.05077971 0.04445745
v 0.47727274 0.02047668 -0.00099710
v 0.49242425 0.02047668 0.01415442
v 0.47727274 0.05077971 -0.00099710
f 1 2 3
f 1 3 4
f 5 2 1
f 5 1 4
f 6 4 3
f 7 6 3
f 8 5 4
f 8 4 6
f 9 7 3
f 9 3 2
f 9 2 7
f 10 2 5
f 10 5 8
f 10 8 6
f 11 10 7
f 11 7 2
f 11 2 10
f 12 10 6
f 12 6 7
f 12 7 10