# https://github.com/mikedh/trimesh
v 0.14393939 -0.07043241 -0.07675468
v 0.14095729 -0.04754928 -0.08418959
v 0.11944303 0.03624116 -0.03859749
v 0.00757576 0.03562820 -0.04645164
v 0.00668024 -0.06312972 -0.08818113
v 0.12878788 0.03562820 -0.09190619
v 0.00725762 -0.06162667 -0.04767988
v 0.12878788 -0.07043241 -0.09190619
v 0.00757576 0.03562820 -0.09190619
v 0.14393939 0.02047668 -0.04645164
v 0.14393939 0.02047668 -0.09190619
v 0.14135737 -0.05703900 -0.04084712
f 7 3 4
f 7 4 5
f 8 2 1
f 8 7 5
f 8 1 7
f 9 4 3
f 9 3 6
f 9 5 4
f 9 8 5
f 9 6 8
f 10 6 3
f 11 8 6
f 11 2 8
f 11 6 10
f 11 10 1
f 11 1 2
f 12 7 1
f 12 1 10
f 12 10 3
f 12 3 7