# https://github.com/mikedh/trimesh
v 0.14393939 -0.05528090 -0.10705771
v 0.14095729 -0.04754928 -0.08418959
v -0.03840038 -0.06564073 -0.08951979
v 0.08333333 0.02047668 -0.09190619
v 0.14393939 0.02047668 -0.10705771
v -0.03787879 -0.00982635 -0.09190619
v 0.05303030 -0.07043241 -0.10705771
v 0.14393939 0.02047668 -0.09190619
v 0.05206868 -0.06031903 -0.08492646
v -0.03787879 -0.00982635 -0.10705771
v 0.08333333 0.02047668 -0.10705771
v -0.03968718 -0.05866435 -0.09972555
f 7 1 2
f 7 5 1
f 8 2 1
f 8 1 5
f 8 5 4
f 8 4 2
f 9 6 3
f 9 2 4
f 9 4 6
f 9 7 2
f 9 3 7
f 10 6 4
f 10 5 7
f 11 10 4
f 11 4 5
f 11 5 10
f 12 10 7
f 12 7 3
f 12 3 6
f 12 6 10