# https://github.com/mikedh/trimesh
v -0.18939395 0.03562820 -0.06160316
v -0.18939395 0.03562820 -0.09190619
v -0.18939395 0.09623426 -0.07675468
v -0.43181820 0.09623426 -0.07675468
v -0.44505293 0.02915344 -0.06462346
v -0.43999900 0.07834350 -0.09915750
v -0.18939395 0.08108274 -0.06160316
v -0.18961157 0.08240137 -0.09562423
v -0.44696971 0.08108274 -0.07675468
v -0.44763510 0.04128427 -0.08731136
v -0.44696971 0.05077971 -0.06160316
v -0.42722967 0.08642547 -0.09659609
v -0.41666668 0.08108274 -0.06160316
f 1 2 3
f 5 2 1
f 7 1 3
f 7 3 4
f 8 3 2
f 8 2 6
f 9 4 6
f 10 6 2
f 10 2 5
f 10 9 6
f 11 5 1
f 11 1 7
f 11 4 9
f 11 10 5
f 11 9 10
f 12 8 6
f 12 6 4
f 12 4 3
f 12 3 8
f 13 11 7
f 13 7 4
f 13 4 11