# https://github.com/mikedh/trimesh
v 0.18939394 -0.07043241 -0.04645164
v 0.26515152 -0.00982635 -0.15251225
v 0.26403245 0.00330519 -0.02546784
v 0.14393939 0.00532516 -0.03130013
v 0.14393939 -0.02497787 -0.15251225
v 0.26515152 0.00532516 -0.15251225
v 0.18829649 -0.05830737 -0.02451576
v 0.26515152 -0.05528090 -0.04645164
v 0.23484849 -0.02497787 -0.15251225
v 0.14273697 -0.05961880 -0.02977183
v 0.14393939 0.00532516 -0.15251225
v 0.26032071 -0.04500014 -0.02664204
v 0.18939394 -0.05528090 -0.09190619
v 0.26515152 -0.02497787 -0.13736074
v 0.14095729 -0.04754928 -0.08418959
v 0.25000000 -0.05528090 -0.06160316
v 0.14135737 -0.05703900 -0.04084712
f 6 4 3
f 6 2 5
f 7 3 4
f 8 7 1
f 8 6 3
f 8 2 6
f 9 5 2
f 10 7 4
f 10 1 7
f 11 6 5
f 11 4 6
f 12 8 3
f 12 3 7
f 12 7 8
f 13 5 9
f 14 9 2
f 14 2 8
f 15 13 1
f 15 5 13
f 15 11 5
f 15 4 11
f 16 14 8
f 16 8 1
f 16 1 13
f 16 13 9
f 16 9 14
f 17 15 1
f 17 1 10
f 17 10 4
f 17 4 15