# https://github.com/mikedh/trimesh
v -0.37121213 0.03562820 -0.09190619
v -0.37125074 0.03563132 -0.13661646
v -0.37121213 0.09623426 -0.12220922
v -0.44696971 0.09623426 -0.09190619
v -0.50757578 0.03562820 -0.09190619
v -0.37119421 0.08631470 -0.09318444
v -0.37121213 0.08108274 -0.13736074
v -0.47037767 0.03271512 -0.08951149
v -0.47727274 0.03562820 -0.15251225
v -0.47727274 0.05077971 -0.07675468
v -0.38636365 0.03562820 -0.15251225
v -0.50757578 0.08108274 -0.13736074
v -0.50757578 0.03562820 -0.13736074
v -0.44667712 0.03431207 -0.07765857
v -0.40151517 0.06593123 -0.15251225
v -0.44696971 0.09623426 -0.12220922
v -0.50757578 0.08108274 -0.09190619
v -0.38636365 0.05077971 -0.15251225
v -0.47727274 0.06593123 -0.15251225
f 6 3 4
f 7 1 2
f 7 6 1
f 7 3 6
f 8 2 1
f 10 6 4
f 11 7 2
f 11 2 8
f 11 8 9
f 13 9 8
f 13 8 5
f 13 12 9
f 13 5 12
f 14 10 5
f 14 5 8
f 14 8 1
f 14 1 6
f 14 6 10
f 15 11 9
f 15 3 7
f 16 12 4
f 16 4 3
f 16 3 15
f 17 10 4
f 17 4 12
f 17 12 5
f 17 5 10
f 18 15 7
f 18 7 11
f 18 11 15
f 19 15 9
f 19 9 12
f 19 16 15
f 19 12 16