# https://github.com/mikedh/trimesh
v 0.14476954 -0.02050910 0.01010695
v 0.14395112 0.01667905 -0.13026238
v 0.14393939 0.08108274 -0.06160316
v 0.12878788 0.08108274 -0.06160316
v 0.12878788 -0.00982635 -0.04645164
v 0.12878788 0.08108274 -0.12220922
v 0.12878788 0.06593123 -0.01614861
v 0.14727703 0.00175236 0.00055260
v 0.14393939 -0.00982635 -0.04645164
v 0.14393939 0.08108274 -0.12220922
v 0.12865535 -0.02131139 0.01035342
v 0.12933528 0.01612416 -0.13027387
v 0.12878788 0.00532516 0.01415442
v 0.14590562 0.05693001 -0.02683641
v 0.14393939 0.05077971 -0.13736074
v 0.12878788 0.05077971 -0.13736074
f 6 4 3
f 7 3 4
f 9 8 1
f 9 2 8
f 10 6 3
f 11 4 6
f 11 7 4
f 11 9 1
f 11 5 9
f 12 9 5
f 12 2 9
f 13 8 7
f 13 1 8
f 13 11 1
f 13 7 11
f 14 3 7
f 14 7 8
f 14 10 3
f 14 8 10
f 15 6 10
f 15 2 12
f 15 10 8
f 15 8 2
f 16 11 6
f 16 5 11
f 16 12 5
f 16 15 12
f 16 6 15