# https://github.com/mikedh/trimesh
v 0.00757576 0.03562820 -0.09190619
v 0.00759403 0.03258348 -0.12793311
v 0.00745055 0.07850500 -0.09337004
v -0.37121213 0.09623426 -0.12220922
v -0.37121213 0.03562820 -0.09190619
v 0.00757576 0.05077971 -0.13736074
v -0.12878789 0.09623426 -0.09190619
v -0.37125074 0.03563132 -0.13661646
v 0.00848948 0.07422915 -0.11022762
v -0.37119421 0.08631470 -0.09318444
v -0.37121213 0.08108274 -0.13736074
v -0.12878789 0.09623426 -0.10705771
v -0.21969698 0.09623426 -0.12220922
v -0.31060607 0.08108274 -0.13736074
f 5 2 1
f 7 5 1
f 7 1 3
f 8 6 2
f 8 2 5
f 9 1 2
f 9 2 6
f 9 3 1
f 10 7 4
f 10 5 7
f 10 8 5
f 10 4 8
f 11 8 4
f 11 6 8
f 12 7 3
f 12 3 9
f 12 4 7
f 13 12 9
f 13 9 6
f 13 11 4
f 13 4 12
f 14 13 6
f 14 6 11
f 14 11 13