# https://github.com/mikedh/trimesh
v 0.28030303 -0.02497787 -0.07675468
v 0.31060607 -0.00982635 -0.15251225
v 0.31060607 0.05077971 -0.03130013
v 0.26515152 0.08108274 -0.01614861
v 0.26515152 0.05077971 -0.13736074
v 0.28030303 0.03562820 -0.01614861
v 0.31329564 0.00111943 -0.06853968
v 0.26515152 -0.02497787 -0.13736074
v 0.31060607 0.09623426 -0.09190619
v 0.29545455 0.08108274 -0.01614861
v 0.25693621 0.04248510 -0.02211438
v 0.29545455 0.05077971 -0.01614861
v 0.28030303 0.03562820 -0.15251225
v 0.28030303 -0.02497787 -0.13736074
v 0.31334300 0.02908550 -0.14096950
v 0.31060607 0.08108274 -0.03130013
v 0.26515152 0.09623426 -0.10705771
v 0.31060607 0.09623426 -0.06160316
v 0.26515152 -0.02497787 -0.07675468
v 0.28030303 -0.00982635 -0.15251225
v 0.31060607 0.06593123 -0.13736074
v 0.26515152 0.08108274 -0.12220922
v 0.31060607 0.08108274 -0.12220922
v 0.28030303 0.06593123 -0.13736074
v 0.29545455 0.09623426 -0.10705771
f 7 1 2
f 7 6 1
f 10 4 6
f 11 6 4
f 11 5 8
f 12 7 3
f 12 6 7
f 12 10 6
f 12 3 10
f 13 8 5
f 14 8 2
f 14 2 1
f 14 1 8
f 15 7 2
f 16 3 7
f 16 10 3
f 17 11 4
f 18 4 10
f 18 17 4
f 18 9 17
f 18 10 16
f 18 15 9
f 18 16 7
f 18 7 15
f 19 1 6
f 19 6 11
f 19 11 8
f 19 8 1
f 20 13 2
f 20 2 8
f 20 8 13
f 21 15 2
f 21 2 13
f 22 5 11
f 22 11 17
f 22 13 5
f 23 9 15
f 23 15 21
f 23 22 17
f 23 21 22
f 24 22 21
f 24 21 13
f 24 13 22
f 25 23 17
f 25 17 9
f 25 9 23