# https://github.com/mikedh/trimesh
v 0.14398907 -0.05761097 0.00843670
v 0.14135737 -0.05703900 -0.04084712
v 0.14393939 -0.00982635 -0.04645164
v 0.00757576 -0.00982635 0.01415442
v 0.00757576 -0.07043241 -0.00099710
v 0.14393939 -0.00982635 0.02930593
v 0.14574260 -0.04955187 0.01580045
v 0.03787879 -0.07043241 0.01415442
v 0.00725762 -0.06162667 -0.04767988
v 0.09848485 -0.05528090 0.02930593
v 0.00757576 -0.05528090 0.01415442
v 0.00728610 -0.01130039 -0.04562261
v 0.09848485 -0.00982635 0.02930593
f 6 3 4
f 7 1 2
f 7 2 3
f 7 3 6
f 8 5 2
f 8 2 1
f 9 3 2
f 9 2 5
f 10 8 1
f 10 1 7
f 10 7 6
f 11 5 8
f 11 9 5
f 11 4 9
f 11 10 4
f 11 8 10
f 12 9 4
f 12 4 3
f 12 3 9
f 13 10 6
f 13 6 4
f 13 4 10