# https://github.com/mikedh/trimesh
v -0.03655906 -0.00297647 -0.04035201
v -0.03788026 -0.01072342 -0.14063818
v -0.03787879 0.02047668 -0.15251225
v -0.09853773 0.01834315 -0.01499887
v -0.09848485 -0.00982635 -0.03130013
v -0.03788012 0.01927338 -0.01504796
v -0.09848485 0.02047668 -0.15251225
v -0.03732105 0.01516985 -0.02063032
v -0.09847083 -0.01071755 -0.14011450
v -0.03787879 0.02047668 -0.06160316
f 1 2 3
f 5 2 1
f 6 5 1
f 6 4 5
f 7 3 2
f 8 6 1
f 8 1 3
f 9 7 2
f 9 2 5
f 9 5 4
f 9 4 7
f 10 3 7
f 10 8 3
f 10 6 8
f 10 7 4
f 10 4 6