# https://github.com/mikedh/trimesh
v 0.41666668 -0.04012938 0.04445745
v 0.44696971 0.00532516 -0.00099710
v 0.44696971 0.05077971 0.05960896
v 0.40151516 0.05077971 0.04445745
v 0.40151516 0.00532516 -0.01614861
v 0.44696971 0.05077971 -0.00099710
v 0.39806501 -0.04257450 0.04507750
v 0.45080815 0.02337569 0.05450999
v 0.41666668 -0.04012938 -0.00099710
v 0.40151516 0.03562820 -0.01614861
v 0.43181819 0.03562820 -0.01614861
v 0.43181819 0.05077971 0.05960896
v 0.44696971 0.00532516 0.02930593
v 0.43181819 0.02047668 0.05960896
v 0.43181819 -0.02497787 0.01415442
v 0.39398349 -0.03385822 0.00691249
v 0.40151516 0.05077971 0.01415442
v 0.43181819 0.00532516 -0.01614861
v 0.43181819 0.05077971 -0.00099710
f 6 4 3
f 8 6 3
f 8 2 6
f 9 1 7
f 11 6 2
f 11 10 6
f 11 5 10
f 12 3 4
f 12 4 7
f 13 8 1
f 13 2 8
f 14 7 1
f 14 1 8
f 14 8 3
f 14 12 7
f 14 3 12
f 15 9 2
f 15 1 9
f 15 13 1
f 15 2 13
f 16 9 7
f 16 5 9
f 16 10 5
f 16 7 4
f 17 4 6
f 17 16 4
f 17 10 16
f 18 9 5
f 18 5 11
f 18 11 2
f 18 2 9
f 19 17 6
f 19 6 10
f 19 10 17