# https://github.com/mikedh/trimesh
v -0.23484599 -0.00706396 -0.06307127
v -0.23486926 -0.01008604 -0.13801262
v -0.23501833 0.03400345 -0.13177006
v -0.35606062 0.03562820 -0.06160316
v -0.35591813 -0.00840806 -0.06218724
v -0.35607077 0.03556286 -0.13596360
v -0.23484849 0.03562820 -0.06160316
v -0.23484849 0.00532516 -0.15251225
v -0.35606190 -0.00488558 -0.12899439
v -0.28040790 0.03494557 -0.13278145
v -0.26515153 -0.00982635 -0.15251225
v -0.26515153 0.00532516 -0.15251225
f 5 2 1
f 7 5 1
f 7 4 5
f 7 6 4
f 8 6 3
f 8 3 7
f 8 7 1
f 8 1 2
f 9 5 4
f 9 4 6
f 10 7 3
f 10 3 6
f 10 6 7
f 11 2 5
f 11 5 9
f 11 8 2
f 11 9 6
f 12 11 6
f 12 6 8
f 12 8 11