# https://github.com/mikedh/trimesh
v -0.15909092 -0.08558393 -0.06160316
v -0.15909092 -0.07043241 -0.12220922
v -0.15897034 -0.00874408 -0.06233617
v -0.28049242 -0.00742055 -0.06240797
v -0.28030304 -0.08558393 -0.06160316
v -0.15909092 -0.00982635 -0.09190619
v -0.15811837 -0.03304792 -0.05836222
v -0.15909092 -0.08558393 -0.10705771
v -0.28024318 -0.05380599 -0.12019436
v -0.18939395 -0.07043241 -0.04645164
v -0.28069727 -0.07114149 -0.10267069
v -0.28044127 -0.06362362 -0.11308230
v -0.15923505 -0.05186127 -0.11843402
v -0.27963596 -0.01404799 -0.07849027
v -0.15875660 -0.06176679 -0.05816241
v -0.28030304 -0.02497787 -0.04645164
f 6 4 3
f 7 6 3
f 7 2 6
f 8 1 5
f 8 7 1
f 8 2 7
f 10 5 1
f 10 7 3
f 11 5 4
f 11 4 9
f 11 8 5
f 12 9 2
f 12 2 8
f 12 11 9
f 12 8 11
f 13 9 6
f 13 6 2
f 13 2 9
f 14 9 4
f 14 4 6
f 14 6 9
f 15 10 1
f 15 1 7
f 15 7 10
f 16 4 5
f 16 5 10
f 16 10 3
f 16 3 4