# https://github.com/mikedh/trimesh
v 0.14393939 -0.04012938 -0.12220922
v 0.14393939 -0.02497787 -0.15251225
v 0.12878788 0.03562820 -0.09190619
v -0.09848485 0.03562820 -0.09190619
v -0.03788026 -0.01072342 -0.14063818
v 0.13705155 -0.03409466 -0.09690920
v 0.14393939 0.02047668 -0.10705771
v 0.08333333 -0.04012938 -0.13736074
v 0.11363636 0.02047668 -0.15251225
v 0.08333333 -0.00982635 -0.09190619
v -0.03787879 -0.00982635 -0.09190619
v 0.11363636 -0.04012938 -0.13736074
v 0.08279839 -0.03774570 -0.10544190
v -0.09834105 0.03337557 -0.13063645
v 0.13017667 0.03021770 -0.12400862
v -0.03787879 0.02047668 -0.15251225
v 0.12878788 0.02047668 -0.09190619
v -0.09848485 0.02047668 -0.09190619
v 0.14393939 0.00532516 -0.15251225
v -0.09841959 0.01975648 -0.13504183
v 0.14395112 0.01667905 -0.13026238
f 7 6 1
f 7 3 6
f 8 5 2
f 10 3 4
f 11 5 8
f 11 10 4
f 11 6 10
f 12 8 2
f 12 2 1
f 12 1 8
f 13 8 1
f 13 1 6
f 13 11 8
f 13 6 11
f 14 4 3
f 15 3 7
f 15 14 3
f 15 9 14
f 16 9 2
f 16 2 5
f 16 14 9
f 17 10 6
f 17 6 3
f 17 3 10
f 18 11 4
f 18 5 11
f 19 2 9
f 19 9 15
f 20 16 5
f 20 14 16
f 20 5 18
f 20 18 4
f 20 4 14
f 21 19 15
f 21 15 7
f 21 2 19
f 21 7 1
f 21 1 2