# https://github.com/mikedh/trimesh
v 0.26630670 -0.06670814 0.05522302
v 0.26515152 -0.07043241 -0.01614861
v 0.25896855 0.02482582 -0.04026596
v 0.14393939 0.02047668 0.01415442
v 0.14393939 -0.07043241 0.02930593
v 0.26515152 0.02047668 0.02930593
v 0.21969697 -0.07043241 0.05960896
v 0.14273697 -0.05961880 -0.02977183
v 0.25000000 0.02047668 0.02930593
v 0.17424243 -0.02497787 0.04445745
v 0.26515152 -0.00982635 0.05960896
v 0.25000000 -0.07043241 -0.03130013
v 0.14393939 -0.00982635 0.02930593
v 0.14479882 0.02224831 -0.01762418
v 0.17424243 -0.05528090 0.04445745
v 0.21969697 -0.02497787 0.05960896
v 0.25000000 -0.00982635 0.05960896
v 0.26032071 -0.04500014 -0.02664204
f 6 1 2
f 6 2 3
f 7 5 2
f 7 2 1
f 9 6 3
f 9 3 4
f 11 7 1
f 11 1 6
f 11 6 9
f 12 8 3
f 12 2 5
f 12 5 8
f 13 8 5
f 13 4 8
f 13 5 10
f 14 8 4
f 14 4 3
f 14 3 8
f 15 10 5
f 15 5 7
f 15 7 10
f 16 10 7
f 16 7 11
f 16 13 10
f 16 4 13
f 17 11 9
f 17 9 4
f 17 16 11
f 17 4 16
f 18 12 3
f 18 3 2
f 18 2 12