# https://github.com/mikedh/trimesh
v 0.18499826 -0.00501562 -0.07829988
v 0.18499826 0.01014142 -0.07829988
v 0.20489424 -0.01501700 -0.07828455
v 0.18499826 -0.05502255 -0.07828455
v 0.17488611 -0.06499577 -0.07828455
v 0.17488611 -0.04502117 -0.07828455
v -0.16584086 0.01014142 -0.07043616
v 0.20489424 0.01014142 -0.07828455
v 0.18499826 -0.06499577 -0.07822324
v 0.21487507 0.01014142 -0.07814659
v 0.48494831 -0.05502255 -0.07337931
v 0.47496748 -0.08497037 -0.07348661
v 0.46498665 -0.13376588 -0.07348661
v -0.16584086 -0.13376588 -0.07043616
v 0.17488611 -0.07498308 -0.07813126
v -0.16584086 0.01014142 0.07081942
v 0.47496748 0.01014142 -0.07348661
v 0.48494831 -0.04502117 -0.07337931
v 0.48494831 -0.06499577 -0.07291944
v 0.49236825 -0.05502255 -0.07164714
v 0.41495121 -0.13376588 -0.07348661
v 0.47457349 -0.13376588 -0.07164714
v -0.16584086 -0.13376588 0.07081942
v 0.17488611 -0.04502117 0.07828458
v 0.18499826 0.01014142 0.07829991
v 0.48481697 0.01014142 -0.07261287
v 0.48494831 0.01014142 -0.07258221
v 0.49230260 -0.04502117 -0.07163182
v 0.49735868 -0.05502255 -0.06746236
v 0.49158031 -0.06499577 -0.07115662
v 0.47910428 -0.13376588 -0.06943979
v 0.41495121 -0.13376588 0.07385454
v 0.17488611 -0.07498308 0.07814662
v 0.17488611 -0.06499577 0.07828458
v 0.18499826 -0.00501562 0.07829991
v 0.20509124 0.01014142 0.07828458
v 0.49092367 0.01014142 -0.07088070
v 0.49098933 0.01014142 -0.07085004
v 0.49722734 -0.04502117 -0.06737039
v 0.49657071 -0.06499577 -0.06671125
v 0.50188947 -0.04502117 -0.06237318
v 0.50188947 -0.05502255 -0.06244982
v 0.50123280 -0.06499577 -0.06171403
v 0.48422602 -0.13376588 -0.06442725
v 0.46498665 -0.13376588 0.07385454
v 0.18499826 -0.06499577 0.07820793
v 0.18499826 -0.05502255 0.07828458
v 0.20489424 -0.01501700 0.07828458
v 0.21513772 0.01014142 0.07814662
v 0.49591407 0.01014142 -0.06606743
v 0.50070751 0.01014142 -0.06099358
v 0.50425333 -0.04502117 -0.05499999
v 0.50445032 -0.05502255 -0.05499999
v 0.50313705 -0.06499577 -0.05499999
v 0.50051051 -0.07209535 -0.06068700
v 0.48875678 -0.13376588 -0.05499999
v 0.47168431 -0.13376588 0.07255158
v 0.48494831 -0.06499577 0.07328737
v 0.48494831 -0.05502255 0.07374723
v 0.47496748 -0.08497037 0.07385454
v 0.48494831 -0.04502117 0.07374723
v 0.47496748 0.01014142 0.07385454
v 0.50162679 0.01014142 -0.05507663
v 0.50458163 -0.04502117 -0.04499023
v 0.50497562 -0.05502255 -0.04499023
v 0.50202078 0.01014142 -0.04512819
v 0.50346535 -0.06499577 -0.04499023
v 0.48915076 -0.13376588 -0.04499023
v 0.47490183 -0.13376588 0.07183112
v 0.49256524 -0.05502255 0.07183112
v 0.48494831 0.01014142 0.07296546
v 0.49249959 -0.04502117 0.07180046
v 0.50458163 -0.04502117 0.04497493
v 0.50497562 -0.05502255 0.04497493
v 0.50202078 0.01014142 0.04497493
v 0.50346535 -0.06499577 0.04497493
v 0.48915076 -0.13376588 0.04497493
v 0.47943258 -0.13376588 0.06960844
v 0.49177730 -0.06499577 0.07134060
v 0.49755567 -0.05502255 0.06764634
v 0.49118632 0.01014142 0.07100336
v 0.49742433 -0.04502117 0.06753904
v 0.50425333 -0.04502117 0.05496936
v 0.50182378 0.01014142 0.05496936
v 0.50458163 -0.05502255 0.05496936
v 0.50313705 -0.06499577 0.05496936
v 0.48888811 -0.13376588 0.05496936
v 0.48258442 -0.13376588 0.06646602
v 0.49676770 -0.06499577 0.06687990
v 0.50142980 -0.06499577 0.06185202
v 0.50202078 -0.05502255 0.06263380
v 0.49624240 0.01014142 0.06606746
v 0.50188947 -0.04502117 0.06252649
v 0.50077319 0.01014142 0.06113157
v 0.50051051 -0.07230665 0.06076368
v 0.48823148 -0.13376588 0.05648692
v 0.48435733 -0.13376588 0.06459589
f 1 2 8
f 1 8 3
f 1 3 4
f 1 4 5
f 1 5 6
f 1 6 2
f 2 6 7
f 2 7 16
f 2 16 25
f 2 25 36
f 2 36 49
f 2 49 62
f 2 62 71
f 2 71 81
f 2 81 92
f 2 92 94
f 2 94 84
f 2 84 75
f 2 75 66
f 2 66 63
f 2 63 51
f 2 51 50
f 2 50 38
f 2 38 37
f 2 37 27
f 2 27 26
f 2 26 17
f 2 17 10
f 2 10 8
f 3 9 4
f 3 8 10
f 3 10 11
f 3 11 12
f 3 12 13
f 3 13 9
f 4 9 5
f 5 14 7
f 5 7 6
f 5 9 15
f 5 15 14
f 7 14 23
f 7 23 16
f 9 13 15
f 10 17 18
f 10 18 11
f 11 19 13
f 11 13 12
f 11 18 20
f 11 20 19
f 13 21 15
f 13 19 22
f 13 22 31
f 13 31 44
f 13 44 56
f 13 56 68
f 13 68 77
f 13 77 87
f 13 87 96
f 13 96 97
f 13 97 88
f 13 88 78
f 13 78 69
f 13 69 57
f 13 57 45
f 13 45 32
f 13 32 23
f 13 23 14
f 13 14 21
f 14 15 21
f 16 23 34
f 16 34 24
f 16 24 25
f 17 26 18
f 18 26 27
f 18 27 28
f 18 28 20
f 19 20 22
f 20 28 29
f 20 29 30
f 20 30 22
f 22 30 31
f 23 32 33
f 23 33 34
f 24 34 35
f 24 35 25
f 25 35 36
f 27 37 28
f 28 37 38
f 28 38 39
f 28 39 29
f 29 40 30
f 29 39 41
f 29 41 42
f 29 42 43
f 29 43 40
f 30 40 31
f 31 40 44
f 32 45 33
f 33 45 46
f 33 46 34
f 34 46 47
f 34 47 35
f 35 47 48
f 35 48 36
f 36 48 49
f 38 50 39
f 39 50 51
f 39 51 41
f 40 43 44
f 41 51 52
f 41 52 53
f 41 53 42
f 42 53 43
f 43 53 54
f 43 54 55
f 43 55 44
f 44 55 56
f 45 57 58
f 45 58 59
f 45 59 60
f 45 60 48
f 45 48 47
f 45 47 46
f 48 60 59
f 48 59 49
f 49 59 61
f 49 61 62
f 51 63 52
f 52 64 65
f 52 65 53
f 52 63 66
f 52 66 64
f 53 65 54
f 54 65 67
f 54 67 68
f 54 68 56
f 54 56 55
f 57 69 58
f 58 69 70
f 58 70 59
f 59 70 61
f 61 71 62
f 61 70 72
f 61 72 71
f 64 73 74
f 64 74 65
f 64 66 75
f 64 75 73
f 65 74 76
f 65 76 67
f 67 76 77
f 67 77 68
f 69 78 79
f 69 79 70
f 70 79 80
f 70 80 72
f 71 72 81
f 72 80 82
f 72 82 81
f 73 83 74
f 73 75 84
f 73 84 83
f 74 83 85
f 74 85 86
f 74 86 76
f 76 86 87
f 76 87 77
f 78 88 89
f 78 89 79
f 79 89 80
f 80 89 90
f 80 90 91
f 80 91 93
f 80 93 82
f 81 82 92
f 82 93 94
f 82 94 92
f 83 84 94
f 83 94 85
f 85 91 90
f 85 90 86
f 85 94 93
f 85 93 91
f 86 90 95
f 86 95 87
f 87 95 96
f 88 97 89
f 89 97 90
f 90 97 95
f 95 97 96

