# https://github.com/mikedh/trimesh
v 0.11506975 0.35795805 0.04497262
v 0.11506975 0.35795805 -0.04499944
v 0.10503308 0.35788870 0.04497262
v 0.11506975 0.35761124 0.05498394
v 0.12504840 0.35691765 0.04497262
v 0.12504840 0.35691765 -0.04499944
v 0.11506975 0.35752454 -0.05499634
v 0.10503308 0.35788870 -0.04499944
v 0.10503308 0.35752454 0.05498394
v -0.01494278 0.34809166 0.04497262
v 0.00948171 0.35003373 0.05156508
v 0.01447102 0.35032851 0.05492624
v 0.12504840 0.35308555 0.06363926
v 0.15492634 0.35103944 0.06141772
v 0.16496301 0.35036319 0.06052334
v 0.17012638 0.35001639 0.06003287
v 0.12504840 0.35653618 0.05498394
v 0.10503308 0.35357106 0.06414415
v 0.11506975 0.35362309 0.06417301
v 0.13496904 0.35547844 0.04497262
v 0.16496301 0.35091805 0.05498394
v 0.17076455 0.35008574 0.05498394
v 0.12504840 0.35644948 -0.05499634
v 0.13496904 0.35547844 -0.04499944
v 0.17082256 0.35010308 -0.05277481
v 0.16583323 0.35067528 -0.05565991
v 0.11506975 0.35351902 -0.06398345
v 0.10503308 0.35346702 -0.06395460
v 0.10503308 0.35742050 -0.05499634
v 0.16304851 0.35041520 -0.06056460
v 0.15492634 0.35093540 -0.06125702
v 0.12504840 0.35296416 -0.06344970
v 0.02508785 0.35109144 -0.05499634
v 0.00948171 0.35003373 -0.05108702
v -0.01494278 0.34809166 -0.04499944
v 0.01075804 0.34991235 0.05824411
v 0.01742981 0.35018978 0.06029253
v 0.02508785 0.35048455 0.06071087
v 0.03506650 0.35086602 0.06121577
v -0.02492143 0.34656575 0.04497262
v -0.01494278 0.34774485 0.05498394
v 0.12504840 0.34836909 0.06863049
v 0.13496904 0.34779689 0.06790922
v 0.14494769 0.34715530 0.06720237
v 0.14494769 0.35169834 0.06219671
v 0.15492634 0.34644437 0.06642339
v 0.21491428 0.33708084 0.06710139
v 0.21491428 0.34160656 0.06211015
v 0.22495094 0.34070486 0.06097053
v 0.23011431 0.34008065 0.06011943
v 0.21491428 0.34353128 0.05498394
v 0.04504515 0.35123017 0.06167739
v 0.06506047 0.34748477 0.06751972
v 0.10503308 0.34881994 0.06914981
v 0.11506975 0.34885460 0.06916424
v 0.19495697 0.34673914 0.04497262
v 0.21491428 0.34382606 0.04497262
v 0.16972026 0.34994704 -0.05943940
v 0.19495697 0.34673914 -0.04499944
v 0.21491428 0.34382606 -0.04499944
v 0.21491428 0.34342724 -0.05499634
v 0.12504840 0.34807432 -0.06845536
v 0.11506975 0.34854251 -0.06898911
v 0.10503308 0.34850782 -0.06894583
v 0.06506047 0.34727669 -0.06733017
v 0.03506650 0.35077935 -0.06105506
v 0.01806799 0.35013777 -0.06020396
v 0.01145422 0.34986031 -0.05775161
v 0.22495094 0.34061816 -0.06080983
v 0.21491428 0.34148517 -0.06192059
v 0.21491428 0.33687276 -0.06691183
v 0.15492634 0.34623629 -0.06624825
v 0.14494769 0.34694722 -0.06701281
v 0.13496904 0.34755412 -0.06773409
v 0.01487713 0.35029382 -0.05465012
v -0.01494278 0.34764081 -0.05499634
v -0.02492143 0.34656575 -0.04499944
v -0.02492143 0.34290704 0.06340845
v -0.01494278 0.34368733 0.06423070
v 0.03506650 0.34628832 0.06622143
v 0.04504515 0.34668714 0.06666862
v 0.05508181 0.34708595 0.06711581
v -0.03490008 0.34351394 0.04497262
v -0.03490008 0.34321916 0.05498394
v -0.02492143 0.34620160 0.05498394
v 0.14494769 0.34216142 0.07161658
v 0.15492634 0.34145048 0.07115496
v 0.16496301 0.34070486 0.07059237
v 0.17157677 0.34021935 0.07020287
v 0.21491428 0.33206964 0.07155888
v 0.22321048 0.33113328 0.07089530
v 0.22587919 0.33468795 0.06675518
v 0.22495094 0.34164122 0.05498394
v 0.22988226 0.32993680 0.06997207
v 0.23492959 0.32865366 0.06880360
v 0.34243214 0.28119445 0.06140330
v 0.24995559 0.33000618 0.06001845
v 0.23040439 0.34021935 0.05498394
v 0.00785727 0.34016734 0.07015960
v 0.02508785 0.34087828 0.07075105
v 0.03506650 0.34127709 0.07106841
v 0.05508181 0.34209207 0.07160215
v 0.06506047 0.34249088 0.07178968
v 0.07503912 0.34280300 0.07190509
v 0.08507578 0.34311512 0.07193394
v 0.10503308 0.34382606 0.07193394
v 0.11506975 0.34386075 0.07193394
v 0.12504840 0.34335786 0.07193394
v 0.13496904 0.34278566 0.07186181
v 0.22495094 0.34186664 0.04497262
v 0.22999829 0.34002861 -0.06004528
v 0.22495094 0.34186664 -0.04499944
v 0.22495094 0.34155452 -0.05499634
v 0.15492634 0.34124240 -0.07099426
v 0.14494769 0.34195334 -0.07144145
v 0.13496904 0.34256023 -0.07168669
v 0.12504840 0.34308043 -0.07174438
v 0.11506975 0.34353128 -0.07174438
v 0.10503308 0.34351394 -0.07174438
v 0.07503912 0.34257758 -0.07171553
v 0.06506047 0.34226546 -0.07161456
v 0.05508181 0.34188399 -0.07142702
v 0.04504515 0.34148517 -0.07118179
v 0.02508785 0.34068754 -0.07057592
v 0.01505118 0.34027138 -0.07024413
v 0.00942369 0.34002861 -0.07004217
v 0.04504515 0.34649640 -0.06650791
v 0.03506650 0.34608024 -0.06606072
v 0.02508785 0.35039786 -0.06056460
v 0.02508785 0.34568143 -0.06557026
v -0.01494278 0.34358329 -0.06405558
v -0.02492143 0.34278566 -0.06320447
v 0.22564712 0.33460122 -0.06655119
v 0.22280437 0.33099455 -0.07079230
v 0.21491428 0.33187887 -0.07138374
v 0.17070654 0.34009796 -0.07008545
v 0.16496301 0.34051412 -0.07043166
v -0.02492143 0.34609759 -0.05499634
v -0.03490008 0.34311512 -0.05499634
v -0.03490008 0.34351394 -0.04499944
v -0.03490008 0.34145048 0.06176394
v -0.02492143 0.33813858 0.06839968
v -0.01494278 0.33893621 0.06925079
v 0.00118549 0.33982053 0.06988551
v -0.06466199 0.33184421 0.04497262
v -0.12000869 0.31003064 0.05142083
v -0.04168789 0.34067020 0.05498394
v -0.04093368 0.34035808 0.06050892
v 0.20493563 0.33271119 0.07183296
v 0.21491428 0.32497761 0.07350633
v 0.22587919 0.32594866 0.07209262
v 0.23492959 0.32364243 0.07177526
v 0.24305175 0.32157901 0.07106841
v 0.30257556 0.29133826 0.07093858
v 0.34220010 0.27117202 0.07083760
v 0.34887186 0.26933399 0.06951045
v 0.33494818 0.27791721 0.06825543
v 0.32583976 0.28542536 0.06554343
v 0.35490549 0.27299270 0.06311994
v 0.36146122 0.27113733 0.06133117
v 0.35490549 0.27628726 0.05498394
v 0.34887186 0.27940845 0.05498394
v 0.32914662 0.28955227 0.05498394
v 0.26979685 0.31989703 0.05821526
v 0.25018764 0.33011022 0.05498394
v 0.27002892 0.32005310 0.05155066
v 0.23057844 0.34032339 0.04497262
v -0.02492143 0.33314469 0.07183296
v -0.01494278 0.33394232 0.07193394
v 0.04504515 0.33498272 0.07327551
v 0.05508181 0.33498272 0.07353517
v 0.06506047 0.33498272 0.07373713
v 0.07503912 0.33498272 0.07385254
v 0.08507578 0.33498272 0.07386696
v 0.12504840 0.33498272 0.07386696
v 0.13496904 0.33498272 0.07379483
v 0.14494769 0.33498272 0.07354960
v 0.22947615 0.32969406 -0.06984022
v 0.23034638 0.34016734 -0.05499634
v 0.24983954 0.32993680 -0.05930957
v 0.34225810 0.28110775 -0.06127145
v 0.35490549 0.27287132 -0.06294481
v 0.33494818 0.28299779 -0.06306021
v 0.34544897 0.27522954 -0.06532502
v 0.24630061 0.32568854 -0.06570008
v 0.23492959 0.32835889 -0.06861404
v 0.23057844 0.34032339 -0.04499944
v 0.20493563 0.33248580 -0.07167225
v 0.14494769 0.33498272 -0.07318694
v 0.13496904 0.33498272 -0.07343217
v 0.08507578 0.33498272 -0.07347545
v 0.12504840 0.33498272 -0.07347545
v 0.07503912 0.33498272 -0.07346103
v 0.08507578 0.34283769 -0.07174438
v 0.06506047 0.33498272 -0.07336004
v 0.05508181 0.33498272 -0.07317251
v 0.04504515 0.33498272 -0.07292728
v -0.01494278 0.33361286 -0.07174438
v -0.02492143 0.33286726 -0.07167225
v 0.03506650 0.34106901 -0.07089328
v -0.01494278 0.33862409 -0.06904681
v -0.02492143 0.33787847 -0.06821012
v -0.03490008 0.34134644 -0.06158881
v 0.24276167 0.32142293 -0.07096540
v 0.23492959 0.32336500 -0.07160013
v 0.21491428 0.32497761 -0.07312924
v -0.04075964 0.34032339 -0.06042034
v -0.04157186 0.34061816 -0.05499634
v -0.12000869 0.31003064 -0.05097162
v -0.06466199 0.33184421 -0.04499944
v -0.03490008 0.33659533 0.06676960
v -0.03490008 0.33160144 0.07112611
v -0.16584088 0.29211855 0.04497262
v -0.16584088 0.29210123 0.04653057
v -0.16584088 0.29189315 0.05498394
v -0.11971863 0.30990928 0.05807100
v -0.09123306 0.32048658 0.06065317
v 0.20493563 0.32497761 0.07378041
v 0.23492959 0.31498986 0.07370828
v 0.25494492 0.30498475 0.07367943
v 0.31493285 0.27500412 0.07357845
v 0.33494818 0.26501635 0.07353517
v 0.25494492 0.31349862 0.07174641
v 0.33494818 0.27294067 0.07160215
v 0.35490549 0.26246738 0.07127037
v 0.36053294 0.26064670 0.07040484
v 0.35490549 0.26747862 0.06812560
v 0.36430395 0.26440945 0.06459134
v 0.37109178 0.26149637 0.06121577
v 0.36743680 0.26740927 0.05498394
v 0.36244747 0.27184826 0.05498394
v 0.35490549 0.27658203 0.04497262
v 0.34411460 0.28213081 0.04497262
v 0.25036168 0.33019692 0.04497262
v -0.02492143 0.32497761 0.07378041
v -0.05491540 0.32256737 0.07160215
v -0.03490008 0.32497761 0.07307356
v -0.01494278 0.32497761 0.07386696
v 0.36494213 0.23501837 0.07388139
v 0.19495697 0.32497761 0.07386696
v 0.24943344 0.31956756 -0.06976809
v 0.34191000 0.27103329 -0.07072017
v 0.28244421 0.30127400 -0.07087886
v 0.25018764 0.33012757 -0.05264498
v 0.27002892 0.32005310 -0.05107259
v 0.26968083 0.31984502 -0.05773719
v 0.34875584 0.27935642 -0.05499634
v 0.35490549 0.27616587 -0.05499634
v 0.36134517 0.27105063 -0.06119932
v 0.35490549 0.26718384 -0.06795047
v 0.34858179 0.26912591 -0.06939302
v 0.33494818 0.27765712 -0.06805145
v 0.25036168 0.33019692 -0.04499944
v 0.20493563 0.32497761 -0.07341775
v 0.19495697 0.32497761 -0.07347545
v 0.39406586 0.18083130 -0.07348987
v -0.01494278 0.32497761 -0.07347545
v -0.02492143 0.32497761 -0.07340332
v -0.03490008 0.32497761 -0.07271089
v -0.05491540 0.32230729 -0.07142702
v -0.03490008 0.33137602 -0.07096540
v -0.03490008 0.33638725 -0.06659447
v 0.33494818 0.27266324 -0.07141260
v 0.33494818 0.26501635 -0.07315809
v 0.31493285 0.27500412 -0.07320137
v 0.23492959 0.31498986 -0.07334562
v -0.11954458 0.30983990 -0.05763621
v -0.14135836 0.30054575 -0.06068000
v -0.16584088 0.29173708 -0.05596285
v -0.16584088 0.29211855 -0.04499944
v -0.04099171 0.33040500 0.07034713
v -0.14153241 0.30059776 0.06079743
v -0.13491865 0.29695639 0.06714466
v -0.06280550 0.32112816 0.07085203
v -0.08490938 0.31178197 0.07125594
v -0.16584088 0.29184112 0.05580619
v -0.16584088 0.29080075 0.06099939
v 0.22495094 0.31498986 0.07386696
v 0.34492683 0.25501126 0.07386696
v 0.35490549 0.25501126 0.07321781
v 0.34527493 0.26560590 0.07203492
v 0.36430395 0.25402287 0.07102513
v 0.38205665 0.23262548 0.07119824
v 0.39145517 0.22192678 0.07093858
v 0.40085369 0.21119340 0.07060679
v 0.41031021 0.20046002 0.07023173
v 0.36993146 0.25003472 0.07000092
v 0.36720473 0.25669321 0.06788036
v 0.37387651 0.25376278 0.06428841
v 0.38054830 0.25081500 0.06068202
v 0.37184596 0.26241538 0.05498394
v 0.36761084 0.26758265 0.04497262
v 0.36262152 0.27202165 0.04497262
v 0.35490549 0.27658203 -0.04499944
v 0.34411460 0.28213081 -0.04499944
v -0.05491540 0.31498986 0.07354960
v -0.15493397 0.27500412 0.07363615
v -0.12493999 0.28497455 0.07385254
v -0.04493676 0.31498986 0.07386696
v -0.13491865 0.29194516 0.07132807
v -0.15493397 0.28291109 0.07171756
v -0.07493073 0.31367201 0.07189067
v -0.13491865 0.28497455 0.07327551
v 0.38489944 0.20502041 0.07388139
v 0.37492079 0.22501329 0.07379483
v -0.14489730 0.27500412 0.07386696
v -0.16584088 0.26501635 0.07386696
v -0.16584088 0.21500817 0.07386696
v 0.36035889 0.26047331 -0.07028741
v 0.35490549 0.26218995 -0.07109524
v 0.34510088 0.26546720 -0.07183094
v 0.36233145 0.27179623 -0.05499634
v 0.36732078 0.26732254 -0.05499634
v 0.37103373 0.26137498 -0.06109834
v 0.36418793 0.26427072 -0.06447391
v 0.22495094 0.31498986 -0.07347545
v 0.36494213 0.23501837 -0.07347545
v 0.37492079 0.22501329 -0.07343217
v 0.38489944 0.21500817 -0.07324464
v 0.39493608 0.20502041 -0.07299940
v 0.39493608 0.18083130 -0.07344659
v 0.33407792 0.18083130 -0.07347545
v -0.16584088 0.21500817 -0.07347545
v -0.16584088 0.26501635 -0.07347545
v -0.14489730 0.27500412 -0.07347545
v -0.04493676 0.31498986 -0.07347545
v 0.34492683 0.25501126 -0.07347545
v -0.07493073 0.30498475 -0.07344659
v -0.15493397 0.27500412 -0.07327349
v -0.10492469 0.29497963 -0.07323021
v -0.05491540 0.31498986 -0.07317251
v -0.07493073 0.31337723 -0.07170111
v -0.13491865 0.28497455 -0.07291285
v -0.10492469 0.30247048 -0.07148472
v -0.13491865 0.29171973 -0.07116736
v -0.08490938 0.31155655 -0.07106639
v -0.04064362 0.33026627 -0.07022970
v -0.06245741 0.32098943 -0.07073460
v -0.13491865 0.29671362 -0.06696953
v 0.35490549 0.25501126 -0.07284073
v -0.16584088 0.28573748 -0.06580106
v -0.16584088 0.28686458 -0.06467588
v -0.16323017 0.29116488 -0.06138685
v -0.16584088 0.29165038 -0.05629464
v -0.11977662 0.29990417 0.06994322
v -0.14164846 0.29064468 0.07053466
v -0.16584088 0.28591090 0.06600504
v -0.12493999 0.29888111 0.06900556
v -0.16584088 0.28511325 0.06681287
v -0.11316288 0.30125669 0.07092416
v 0.38489944 0.21500817 0.07360730
v 0.39493608 0.20502041 0.07337649
v 0.36494213 0.24502349 0.07290045
v 0.37550092 0.23559059 0.07226573
v 0.38518953 0.22515200 0.07204934
v 0.39487809 0.21471339 0.07171756
v 0.40450865 0.20429213 0.07128479
v 0.40485674 0.18083130 0.07291488
v 0.41210866 0.18083130 0.07101071
v 0.41715598 0.18083130 0.06780824
v 0.42371172 0.18083130 0.06238424
v 0.42086899 0.20120564 0.06101381
v 0.40752542 0.20711854 0.06814002
v 0.38431931 0.24406978 0.06219671
v 0.39000481 0.24011630 0.06007615
v 0.37689331 0.25634640 0.05498394
v 0.37202001 0.26258877 0.04497262
v 0.36761084 0.26758265 -0.04499944
v 0.36262152 0.27202165 -0.04499944
v -0.16491263 0.27500412 0.07272734
v -0.16584088 0.27415445 0.07282832
v -0.16584088 0.28091702 0.07067892
v -0.16584088 0.28053552 0.07086645
v -0.16584088 0.27502146 0.07262637
v 0.33494818 0.18083130 0.07386696
v 0.38489944 0.18083130 0.07386696
v 0.39493608 0.18083130 0.07382368
v -0.16584088 0.21417587 0.07385254
v 0.36256349 0.25501126 -0.07109524
v 0.36761084 0.25501126 -0.06822456
v 0.41013616 0.20025194 -0.07012872
v 0.40073764 0.21098533 -0.07050379
v 0.39128113 0.22171870 -0.07083558
v 0.38188261 0.23243475 -0.07108081
v 0.37178797 0.26231134 -0.05499634
v 0.38049024 0.25071096 -0.06059344
v 0.37457269 0.25442168 -0.06294481
v 0.38507348 0.22503062 -0.07184536
v 0.39476204 0.21460935 -0.07149915
v 0.40410256 0.18083130 -0.07273974
v 0.24409603 0.18083130 -0.07324464
v -0.16584088 0.18083130 -0.07136932
v -0.16584088 0.27592313 -0.07193191
v -0.12493999 0.28497455 -0.07346103
v -0.15493397 0.28265101 -0.07152800
v -0.16305612 0.28122914 -0.07087886
v -0.14124234 0.29050595 -0.07041723
v -0.09094298 0.31039479 -0.07031626
v 0.37538493 0.23545188 -0.07204732
v -0.16584088 0.28464508 -0.06679643
v 0.42655450 0.18083130 0.05498394
v 0.42667055 0.19603837 0.04497262
v 0.39012080 0.24028970 0.05498394
v 0.38101238 0.25135255 0.05498394
v 0.37202001 0.26258877 -0.04499944
v 0.40346438 0.22431968 0.04497262
v 0.24490824 0.18083130 0.07350633
v -0.16584088 0.18083130 0.07178968
v 0.40735137 0.20692779 -0.06803703
v 0.42081100 0.20110160 -0.06089638
v 0.42278349 0.18083130 -0.06287268
v 0.41605371 0.18083130 -0.06828225
v 0.41181856 0.18083130 -0.07083558
v 0.41147047 0.18083130 -0.07097983
v 0.40485674 0.18083130 -0.07256664
v 0.38095438 0.25126582 -0.05499634
v 0.38994676 0.24002960 -0.06000200
v -0.16584088 0.27604452 -0.07190306
v 0.42684460 0.18083130 0.04497262
v 0.42667055 0.19603837 -0.04499944
v 0.42168123 0.20214200 0.04497262
v 0.40346438 0.22431968 -0.04499944
v 0.39006281 0.24022034 -0.05499634
v 0.42643845 0.18083130 -0.05499634
v 0.42359573 0.18083130 -0.06218025
v 0.42684460 0.18083130 -0.04537451
v 0.42168123 0.20214200 -0.04499944
f 1 2 8
f 1 8 3
f 1 3 4
f 1 4 5
f 1 5 6
f 1 6 2
f 2 6 7
f 2 7 8
f 3 9 4
f 3 8 35
f 3 35 10
f 3 10 11
f 3 11 12
f 3 12 9
f 4 13 14
f 4 14 15
f 4 15 16
f 4 16 17
f 4 17 5
f 4 9 18
f 4 18 19
f 4 19 13
f 5 20 24
f 5 24 6
f 5 17 16
f 5 16 21
f 5 21 22
f 5 22 20
f 6 23 7
f 6 24 25
f 6 25 26
f 6 26 23
f 7 27 28
f 7 28 29
f 7 29 8
f 7 23 30
f 7 30 31
f 7 31 32
f 7 32 27
f 8 29 33
f 8 33 34
f 8 34 35
f 9 12 36
f 9 36 37
f 9 37 38
f 9 38 39
f 9 39 18
f 10 35 77
f 10 77 40
f 10 40 41
f 10 41 11
f 11 41 36
f 11 36 12
f 13 19 42
f 13 42 43
f 13 43 44
f 13 44 45
f 13 45 14
f 14 45 44
f 14 44 46
f 14 46 47
f 14 47 48
f 14 48 15
f 15 48 16
f 16 22 21
f 16 48 49
f 16 49 50
f 16 50 51
f 16 51 22
f 18 39 52
f 18 52 53
f 18 53 54
f 18 54 19
f 19 54 55
f 19 55 42
f 20 22 56
f 20 56 59
f 20 59 24
f 22 51 57
f 22 57 56
f 23 26 58
f 23 58 30
f 24 59 25
f 25 59 60
f 25 60 61
f 25 61 58
f 25 58 26
f 27 32 62
f 27 62 63
f 27 63 64
f 27 64 28
f 28 64 65
f 28 65 66
f 28 66 29
f 29 66 67
f 29 67 68
f 29 68 33
f 30 58 69
f 30 69 70
f 30 70 71
f 30 71 72
f 30 72 31
f 31 72 73
f 31 73 32
f 32 73 74
f 32 74 62
f 33 68 75
f 33 75 34
f 34 75 68
f 34 68 76
f 34 76 35
f 35 76 77
f 36 41 37
f 37 41 78
f 37 78 79
f 37 79 38
f 38 79 80
f 38 80 39
f 39 80 81
f 39 81 82
f 39 82 52
f 40 77 140
f 40 140 83
f 40 83 84
f 40 84 85
f 40 85 41
f 41 85 78
f 42 86 87
f 42 87 88
f 42 88 43
f 42 55 86
f 43 88 89
f 43 89 44
f 44 89 47
f 44 47 46
f 47 89 90
f 47 90 91
f 47 91 92
f 47 92 49
f 47 49 48
f 49 92 50
f 50 93 51
f 50 92 94
f 50 94 95
f 50 95 96
f 50 96 97
f 50 97 98
f 50 98 93
f 51 93 57
f 52 82 53
f 53 82 99
f 53 99 100
f 53 100 54
f 54 100 101
f 54 101 102
f 54 102 103
f 54 103 104
f 54 104 105
f 54 105 106
f 54 106 55
f 55 106 107
f 55 107 108
f 55 108 109
f 55 109 86
f 56 57 60
f 56 60 59
f 57 93 110
f 57 110 112
f 57 112 60
f 58 61 111
f 58 111 69
f 60 112 113
f 60 113 61
f 61 113 111
f 62 74 114
f 62 114 115
f 62 115 63
f 63 115 116
f 63 116 117
f 63 117 118
f 63 118 119
f 63 119 64
f 64 119 120
f 64 120 121
f 64 121 122
f 64 122 123
f 64 123 124
f 64 124 65
f 65 124 125
f 65 125 126
f 65 126 127
f 65 127 66
f 66 127 128
f 66 128 129
f 66 129 67
f 67 129 128
f 67 128 130
f 67 130 131
f 67 131 132
f 67 132 76
f 67 76 68
f 69 111 133
f 69 133 134
f 69 134 71
f 69 71 70
f 71 135 136
f 71 136 73
f 71 73 72
f 71 134 135
f 73 136 74
f 74 136 137
f 74 137 114
f 76 132 138
f 76 138 77
f 77 138 139
f 77 139 140
f 78 141 142
f 78 142 143
f 78 143 79
f 78 85 141
f 79 143 144
f 79 144 99
f 79 99 80
f 80 99 81
f 81 99 82
f 83 140 210
f 83 210 145
f 83 145 146
f 83 146 147
f 83 147 84
f 84 147 148
f 84 148 85
f 85 148 141
f 86 109 149
f 86 149 90
f 86 90 87
f 87 90 88
f 88 90 89
f 90 149 150
f 90 150 151
f 90 151 152
f 90 152 91
f 91 94 92
f 91 152 153
f 91 153 94
f 93 98 110
f 94 153 154
f 94 154 155
f 94 155 156
f 94 156 157
f 94 157 95
f 95 157 158
f 95 158 96
f 96 158 159
f 96 159 160
f 96 160 161
f 96 161 97
f 97 161 162
f 97 162 163
f 97 163 164
f 97 164 165
f 97 165 98
f 98 165 166
f 98 166 167
f 98 167 110
f 99 144 143
f 99 143 168
f 99 168 100
f 100 168 101
f 101 168 102
f 102 168 169
f 102 169 103
f 103 169 170
f 103 170 171
f 103 171 172
f 103 172 104
f 104 173 105
f 104 172 173
f 105 173 106
f 106 173 174
f 106 174 107
f 107 174 175
f 107 175 176
f 107 176 108
f 108 176 109
f 109 176 177
f 109 177 150
f 109 150 149
f 110 167 187
f 110 187 112
f 111 178 133
f 111 113 179
f 111 179 180
f 111 180 181
f 111 181 182
f 111 182 183
f 111 183 184
f 111 184 185
f 111 185 186
f 111 186 178
f 112 187 179
f 112 179 113
f 114 137 135
f 114 135 115
f 115 135 188
f 115 188 116
f 116 188 189
f 116 189 190
f 116 190 117
f 117 190 118
f 118 191 119
f 118 190 192
f 118 192 191
f 119 191 193
f 119 193 194
f 119 194 120
f 120 194 193
f 120 193 195
f 120 195 121
f 121 195 196
f 121 196 197
f 121 197 198
f 121 198 199
f 121 199 122
f 122 199 123
f 123 200 124
f 123 199 200
f 124 200 199
f 124 199 125
f 125 199 126
f 126 201 131
f 126 131 130
f 126 130 128
f 126 128 127
f 126 199 201
f 131 201 202
f 131 202 132
f 132 202 203
f 132 203 138
f 133 178 134
f 134 178 204
f 134 204 205
f 134 205 135
f 135 205 206
f 135 206 188
f 135 137 136
f 138 203 207
f 138 207 139
f 139 207 208
f 139 208 140
f 140 208 209
f 140 209 210
f 141 148 211
f 141 211 142
f 142 211 212
f 142 212 168
f 142 168 143
f 145 210 270
f 145 270 213
f 145 213 214
f 145 214 146
f 146 214 215
f 146 215 216
f 146 216 147
f 147 216 148
f 148 216 217
f 148 217 211
f 150 218 219
f 150 219 152
f 150 152 151
f 150 177 218
f 152 219 220
f 152 220 221
f 152 221 222
f 152 222 223
f 152 223 153
f 153 223 224
f 153 224 154
f 154 224 155
f 155 224 225
f 155 225 226
f 155 226 156
f 156 226 227
f 156 227 159
f 156 159 157
f 157 159 158
f 159 227 160
f 160 227 226
f 160 226 228
f 160 228 229
f 160 229 230
f 160 230 231
f 160 231 161
f 161 231 232
f 161 232 162
f 162 232 166
f 162 166 163
f 163 166 165
f 163 165 164
f 166 232 233
f 166 233 234
f 166 234 167
f 167 234 253
f 167 253 187
f 168 235 169
f 168 212 236
f 168 236 237
f 168 237 235
f 169 235 170
f 170 235 171
f 171 235 172
f 172 235 173
f 173 235 238
f 173 238 174
f 174 238 239
f 174 239 175
f 175 239 240
f 175 240 176
f 176 240 218
f 176 218 177
f 178 186 241
f 178 241 242
f 178 242 243
f 178 243 204
f 179 187 244
f 179 244 245
f 179 245 180
f 180 245 246
f 180 246 247
f 180 247 248
f 180 248 181
f 181 248 249
f 181 249 182
f 182 249 250
f 182 250 251
f 182 251 184
f 182 184 183
f 184 251 252
f 184 252 185
f 185 252 186
f 186 252 251
f 186 251 242
f 186 242 241
f 187 253 245
f 187 245 244
f 188 206 189
f 189 206 254
f 189 254 190
f 190 254 255
f 190 255 192
f 191 192 256
f 191 256 257
f 191 257 193
f 192 255 256
f 193 257 258
f 193 258 195
f 195 258 196
f 196 258 197
f 197 258 199
f 197 199 198
f 199 202 201
f 199 258 259
f 199 259 260
f 199 260 261
f 199 261 202
f 202 261 262
f 202 262 203
f 203 262 207
f 204 243 263
f 204 263 205
f 205 263 264
f 205 264 265
f 205 265 266
f 205 266 206
f 206 266 254
f 207 267 208
f 207 262 268
f 207 268 267
f 208 267 209
f 209 269 270
f 209 270 210
f 209 267 269
f 211 271 212
f 211 217 272
f 211 272 273
f 211 273 271
f 212 271 274
f 212 274 275
f 212 275 236
f 213 270 269
f 213 269 344
f 213 344 342
f 213 342 341
f 213 341 400
f 213 400 418
f 213 418 393
f 213 393 324
f 213 324 323
f 213 323 392
f 213 392 408
f 213 408 378
f 213 378 308
f 213 308 307
f 213 307 371
f 213 371 374
f 213 374 373
f 213 373 372
f 213 372 349
f 213 349 347
f 213 347 277
f 213 277 276
f 213 276 215
f 213 215 214
f 215 276 216
f 216 276 277
f 216 277 272
f 216 272 217
f 218 240 278
f 218 278 219
f 219 278 279
f 219 279 220
f 220 279 221
f 221 279 222
f 222 224 223
f 222 279 280
f 222 280 281
f 222 281 224
f 224 281 225
f 225 281 280
f 225 280 226
f 226 280 282
f 226 282 283
f 226 283 284
f 226 284 285
f 226 285 286
f 226 286 287
f 226 287 288
f 226 288 229
f 226 229 228
f 229 289 290
f 229 290 291
f 229 291 230
f 229 288 289
f 230 291 367
f 230 367 292
f 230 292 293
f 230 293 231
f 231 293 232
f 232 294 295
f 232 295 233
f 232 293 369
f 232 369 294
f 233 295 253
f 233 253 234
f 235 237 296
f 235 296 297
f 235 297 298
f 235 298 299
f 235 299 238
f 236 275 300
f 236 300 301
f 236 301 302
f 236 302 237
f 237 302 303
f 237 303 296
f 238 299 239
f 239 304 305
f 239 305 280
f 239 280 279
f 239 279 278
f 239 278 240
f 239 299 306
f 239 306 307
f 239 307 308
f 239 308 304
f 242 263 243
f 242 251 309
f 242 309 310
f 242 310 311
f 242 311 263
f 245 295 294
f 245 294 247
f 245 247 246
f 245 253 295
f 247 294 248
f 248 294 312
f 248 312 249
f 249 312 313
f 249 313 314
f 249 314 315
f 249 315 309
f 249 309 250
f 250 309 251
f 254 266 316
f 254 316 255
f 255 316 256
f 256 317 318
f 256 318 319
f 256 319 320
f 256 320 321
f 256 321 390
f 256 390 415
f 256 415 414
f 256 414 413
f 256 413 412
f 256 412 411
f 256 411 425
f 256 425 424
f 256 424 426
f 256 426 419
f 256 419 401
f 256 401 361
f 256 361 360
f 256 360 359
f 256 359 358
f 256 358 377
f 256 377 376
f 256 376 375
f 256 375 407
f 256 407 408
f 256 408 392
f 256 392 391
f 256 391 322
f 256 322 323
f 256 323 324
f 256 324 325
f 256 325 326
f 256 326 257
f 256 316 327
f 256 327 317
f 257 326 258
f 258 326 328
f 258 328 329
f 258 329 330
f 258 330 331
f 258 331 259
f 259 332 260
f 259 331 333
f 259 333 332
f 260 332 334
f 260 334 335
f 260 335 336
f 260 336 261
f 261 337 262
f 261 336 338
f 261 338 337
f 262 337 339
f 262 339 268
f 263 311 264
f 264 327 265
f 264 311 340
f 264 340 327
f 265 327 266
f 266 327 316
f 267 268 269
f 268 339 341
f 268 341 342
f 268 342 343
f 268 343 344
f 268 344 269
f 271 273 345
f 271 345 346
f 271 346 274
f 272 277 347
f 272 347 273
f 273 346 348
f 273 348 345
f 273 347 349
f 273 349 346
f 274 350 275
f 274 346 350
f 275 350 300
f 280 305 351
f 280 351 352
f 280 352 353
f 280 353 282
f 282 353 354
f 282 354 283
f 283 355 356
f 283 356 284
f 283 354 355
f 284 356 357
f 284 357 285
f 285 357 286
f 286 357 358
f 286 358 359
f 286 359 360
f 286 360 361
f 286 361 362
f 286 362 363
f 286 363 288
f 286 288 287
f 288 363 362
f 288 362 364
f 288 364 289
f 289 364 290
f 290 364 362
f 290 362 365
f 290 365 291
f 291 365 366
f 291 366 367
f 292 367 405
f 292 405 368
f 292 368 369
f 292 369 293
f 294 369 312
f 296 303 297
f 297 303 370
f 297 370 371
f 297 371 307
f 297 307 298
f 298 307 306
f 298 306 299
f 300 372 373
f 300 373 301
f 300 350 372
f 301 303 302
f 301 373 374
f 301 374 303
f 303 374 370
f 304 375 376
f 304 376 377
f 304 377 352
f 304 352 351
f 304 351 305
f 304 308 375
f 308 378 375
f 309 379 340
f 309 340 310
f 309 315 314
f 309 314 380
f 309 380 381
f 309 381 382
f 309 382 383
f 309 383 384
f 309 384 379
f 310 340 311
f 312 369 368
f 312 368 313
f 313 368 385
f 313 385 314
f 314 385 386
f 314 386 387
f 314 387 380
f 317 340 318
f 317 327 340
f 318 340 319
f 319 340 320
f 320 340 388
f 320 388 389
f 320 389 381
f 320 381 390
f 320 390 321
f 322 391 323
f 323 391 392
f 324 393 329
f 324 329 394
f 324 394 325
f 325 394 326
f 326 394 328
f 328 394 329
f 329 395 333
f 329 333 330
f 329 393 395
f 330 333 331
f 332 333 334
f 333 395 334
f 334 395 335
f 335 395 396
f 335 396 336
f 336 396 338
f 337 338 397
f 337 397 398
f 337 398 339
f 338 396 397
f 339 397 341
f 339 398 397
f 340 379 399
f 340 399 388
f 341 397 400
f 342 344 343
f 345 348 346
f 346 349 372
f 346 372 350
f 352 356 355
f 352 355 353
f 352 377 358
f 352 358 357
f 352 357 356
f 353 355 354
f 361 401 362
f 362 401 402
f 362 402 365
f 365 402 403
f 365 403 404
f 365 404 366
f 366 404 367
f 367 404 403
f 367 403 406
f 367 406 422
f 367 422 405
f 368 405 385
f 370 374 371
f 375 378 407
f 378 408 407
f 379 384 399
f 380 387 409
f 380 409 381
f 381 409 410
f 381 410 411
f 381 411 412
f 381 412 413
f 381 413 414
f 381 414 415
f 381 415 390
f 381 389 382
f 382 389 383
f 383 389 384
f 384 389 388
f 384 388 399
f 385 405 416
f 385 416 417
f 385 417 386
f 386 417 410
f 386 410 409
f 386 409 387
f 393 418 395
f 395 418 396
f 396 418 400
f 396 400 397
f 401 419 402
f 402 419 426
f 402 426 420
f 402 420 427
f 402 427 421
f 402 421 403
f 403 421 406
f 405 422 423
f 405 423 416
f 406 421 427
f 406 427 422
f 410 420 424
f 410 424 425
f 410 425 411
f 410 417 420
f 416 423 417
f 417 423 420
f 420 426 424
f 420 423 427
f 422 427 423

