# https://github.com/mikedh/trimesh
v 0.42682636 0.21083127 0.04498145
v 0.42682636 0.21083127 -0.04536461
v 0.42656487 0.21083127 0.05497392
v 0.49749404 0.02501032 0.04498145
v 0.42643413 0.21083127 -0.05498926
v 0.49749404 0.02501032 -0.04498146
v 0.49069530 0.04203657 -0.05497393
v 0.42368847 0.21083127 0.06236099
v 0.44022772 0.17088507 0.06044526
v 0.46003559 0.12037086 0.06018472
v 0.47984347 0.06987923 0.05860615
v 0.49723256 0.02501032 0.05497392
v 0.49971670 0.01873274 0.04498145
v 0.42355773 0.21083127 -0.06216177
v 0.49030307 0.04113332 -0.06050658
v 0.45990485 0.12021279 -0.06010810
v 0.44022772 0.17072701 -0.06035332
v 0.49971670 0.01873274 -0.04498146
v 0.49710181 0.02501032 -0.05497393
v 0.41787031 0.21083127 0.06715799
v 0.43022573 0.17097539 0.07029980
v 0.45009896 0.12043861 0.07013121
v 0.48043182 0.04138171 0.07040708
v 0.48664221 0.03503639 0.06688213
v 0.49030307 0.04129139 0.06059852
v 0.49958596 0.01816821 0.05497392
v 0.50037044 0.01315518 0.05497392
v 0.50043583 0.01369713 0.04498145
v 0.43009499 0.17061409 -0.07017720
v 0.42270789 0.21083127 -0.06286676
v 0.48644608 0.03503639 -0.06671356
v 0.48030108 0.04102041 -0.07028449
v 0.44996822 0.12007730 -0.07000862
v 0.49952060 0.01789723 -0.05497393
v 0.50010896 0.01139384 -0.06024604
v 0.49141440 0.03503639 -0.06171732
v 0.50030506 0.01288420 -0.05497393
v 0.50043583 0.01369713 -0.04498146
v 0.41708583 0.21083127 0.06778636
v 0.41211754 0.21083127 0.07100479
v 0.43146780 0.16496879 0.07109675
v 0.46062395 0.09187335 0.07056034
v 0.48167390 0.03503639 0.07121935
v 0.48958397 0.01902629 0.06976339
v 0.48847264 0.02501032 0.06875189
v 0.49337557 0.02501032 0.06375565
v 0.49141440 0.03503639 0.06188589
v 0.50010896 0.01173256 0.06033798
v 0.50115490 0.00502593 0.05497392
v 0.50128567 0.00502593 0.04498145
v 0.43120632 0.16496879 -0.07091285
v 0.41185606 0.21083127 -0.07082089
v 0.41597450 0.21083127 -0.06827680
v 0.41682434 0.21083127 -0.06760246
v 0.44068533 0.14202626 -0.07059100
v 0.49331021 0.02501032 -0.06355643
v 0.48821115 0.02501032 -0.06856799
v 0.48141241 0.03503639 -0.07103546
v 0.47101817 0.06294679 -0.07080556
v 0.48932248 0.01843918 -0.06964080
v 0.50095880 0.00502593 -0.05497393
v 0.50037044 0.00502593 -0.06058321
v 0.49553287 0.00502593 -0.06559477
v 0.49030307 0.01175514 -0.07029981
v 0.49481377 0.01489393 -0.06495108
v 0.50128567 0.00502593 -0.04498146
v 0.40479583 0.21083127 0.07292052
v 0.42486519 0.16496879 0.07302780
v 0.42525741 0.17458840 0.07172511
v 0.43323284 0.15496531 0.07181706
v 0.44218889 0.13498092 0.07149522
v 0.46193141 0.08503123 0.07137261
v 0.47265249 0.05504336 0.07164848
v 0.48350433 0.02501032 0.07186304
v 0.49043381 0.01236483 0.07042240
v 0.49500990 0.01539072 0.06505835
v 0.50043583 0.00502593 0.06072113
v 0.49579436 0.00502593 0.06573269
v 0.50180864 -0.01983600 0.05497392
v 0.50200474 -0.01983600 0.04498145
v 0.43303674 0.15496531 -0.07163317
v 0.41139844 0.21083127 -0.07095882
v 0.46173528 0.08503123 -0.07118872
v 0.44199279 0.13498092 -0.07131132
v 0.48324284 0.02501032 -0.07167915
v 0.47239101 0.05504336 -0.07146458
v 0.50174326 -0.01983600 -0.05506589
v 0.49585974 -0.01983600 -0.06605455
v 0.50063193 -0.01983600 -0.06098168
v 0.50056654 -0.01983600 -0.06105831
v 0.49062994 0.00502593 -0.07059100
v 0.48553088 0.01507458 -0.07157186
v 0.50200474 -0.01983600 -0.04511939
v 0.39492458 0.21083127 0.07382475
v 0.41492856 0.17494971 0.07385540
v 0.42486519 0.15496531 0.07376345
v 0.43486717 0.13498092 0.07342628
v 0.45493653 0.08503123 0.07330367
v 0.45297536 0.10497046 0.07174043
v 0.47487515 0.03503639 0.07315041
v 0.47487515 0.02501032 0.07380942
v 0.48487714 0.00502593 0.07270596
v 0.48572698 0.01543588 0.07178641
v 0.49082604 0.00502593 0.07075957
v 0.50076270 -0.01983600 0.06113492
v 0.49618658 -0.01983600 0.06606986
v 0.42486519 0.16496879 -0.07266000
v 0.45271388 0.10497046 -0.07155654
v 0.45493653 0.08503123 -0.07293586
v 0.40479583 0.21083127 -0.07255272
v 0.47487515 0.02501032 -0.07341097
v 0.47487515 0.03503639 -0.07278261
v 0.48487714 0.00502593 -0.07233816
v 0.49095678 -0.01983600 -0.07083622
v 0.49089143 -0.01983600 -0.07086687
v 0.38485718 0.21083127 0.07385540
v 0.24489465 0.18497576 0.07715046
v 0.24489465 0.17494971 0.07803937
v 0.43486717 0.12495485 0.07385540
v 0.45493653 0.07502775 0.07384007
v 0.44493455 0.10497046 0.07368682
v 0.46487316 0.05504336 0.07359486
v 0.24489465 0.15496531 0.07819263
v 0.24489465 0.14496182 0.07826926
v 0.47487515 0.01502942 0.07385540
v 0.48487714 -0.01983600 0.07295118
v 0.49115291 -0.01983600 0.07102011
v 0.43486717 0.13498092 -0.07305847
v 0.42486519 0.15496531 -0.07338031
v 0.40401134 0.21083127 -0.07272130
v 0.46487316 0.05504336 -0.07321173
v 0.48487714 -0.01983600 -0.07258337
v 0.48474640 -0.01983600 -0.07259870
v 0.47487515 0.01502942 -0.07347227
v 0.24489465 0.14496182 -0.07826927
v 0.24489465 0.15496531 -0.07819264
v 0.24489465 0.17494971 -0.07803939
v 0.45493653 0.07502775 -0.07345694
v 0.44493455 0.10497046 -0.07330368
v 0.33491260 0.21083127 0.07385540
v 0.24489465 0.21083127 0.07348758
v -0.16584086 0.21083127 0.07177109
v -0.04490171 0.08503123 0.07817730
v -0.03483434 0.08503123 0.07828458
v 0.23495802 0.16496879 0.07816198
v 0.23495802 0.15496531 0.07828458
v 0.24489465 0.13498092 0.07828458
v 0.47487515 -0.01983600 0.07385540
v 0.47507128 -0.01983600 0.07384007
v 0.43486717 0.12495485 -0.07347227
v 0.41492856 0.17494971 -0.07345694
v 0.39492458 0.21083127 -0.07342629
v 0.47487515 -0.01983600 -0.07347227
v 0.24489465 0.13498092 -0.07828460
v 0.23495802 0.15496531 -0.07828460
v 0.23495802 0.16496879 -0.07816199
v -0.03483434 0.08503123 -0.07828460
v -0.04490171 0.08503123 -0.07817732
v -0.16584086 0.21083127 -0.07135730
v 0.24489465 0.18497576 -0.07708918
v 0.39407474 0.21083127 -0.07347227
v -0.16584086 -0.01983600 0.07082088
v -0.08490971 0.07502775 0.07744166
v -0.07490771 0.07502775 0.07794742
v -0.06490570 0.07502775 0.07808535
v 0.18488267 -0.01983600 0.07828458
v 0.24489465 0.11497395 0.07828458
v 0.23495802 0.06504685 0.07828458
v 0.22495604 0.02501032 0.07828458
v 0.21501940 -0.01983600 0.07813133
v 0.21495403 -0.01983600 -0.07813134
v 0.22495604 0.02501032 -0.07828460
v 0.23495802 0.06504685 -0.07828460
v 0.24489465 0.11497395 -0.07828460
v 0.18475193 -0.01983600 -0.07828460
v -0.06490570 0.07502775 -0.07807004
v -0.07490771 0.07502775 -0.07790145
v -0.08490971 0.07502775 -0.07738037
v -0.16584086 -0.01983600 -0.07042242
v 0.24404481 0.21083127 -0.07322706
v 0.33406276 0.21083127 -0.07347227
v 0.20501742 -0.01983600 0.07828458
v 0.20488666 -0.01983600 -0.07828460
f 1 2 5
f 1 5 14
f 1 14 30
f 1 30 54
f 1 54 53
f 1 53 52
f 1 52 82
f 1 82 110
f 1 110 130
f 1 130 152
f 1 152 161
f 1 161 181
f 1 181 180
f 1 180 159
f 1 159 142
f 1 142 141
f 1 141 140
f 1 140 116
f 1 116 94
f 1 94 67
f 1 67 40
f 1 40 39
f 1 39 20
f 1 20 8
f 1 8 3
f 1 3 12
f 1 12 4
f 1 4 6
f 1 6 2
f 2 6 7
f 2 7 5
f 3 8 9
f 3 9 10
f 3 10 11
f 3 11 12
f 4 12 13
f 4 13 18
f 4 18 6
f 5 7 15
f 5 15 16
f 5 16 17
f 5 17 14
f 6 18 19
f 6 19 7
f 7 19 15
f 8 20 21
f 8 21 22
f 8 22 23
f 8 23 24
f 8 24 25
f 8 25 10
f 8 10 9
f 10 25 11
f 11 25 12
f 12 25 26
f 12 26 13
f 13 27 28
f 13 28 38
f 13 38 18
f 13 26 27
f 14 29 30
f 14 17 15
f 14 15 31
f 14 31 32
f 14 32 33
f 14 33 29
f 15 19 34
f 15 34 35
f 15 35 36
f 15 36 31
f 15 17 16
f 18 37 34
f 18 34 19
f 18 38 37
f 20 39 21
f 21 39 40
f 21 40 41
f 21 41 42
f 21 42 22
f 22 42 23
f 23 42 43
f 23 43 44
f 23 44 45
f 23 45 24
f 24 45 46
f 24 46 47
f 24 47 25
f 25 47 46
f 25 46 48
f 25 48 26
f 26 48 27
f 27 48 49
f 27 49 50
f 27 50 28
f 28 50 66
f 28 66 38
f 29 51 52
f 29 52 53
f 29 53 54
f 29 54 30
f 29 33 55
f 29 55 51
f 31 36 56
f 31 56 57
f 31 57 32
f 32 58 59
f 32 59 55
f 32 55 33
f 32 57 60
f 32 60 58
f 34 37 35
f 35 37 61
f 35 61 62
f 35 62 63
f 35 63 64
f 35 64 65
f 35 65 56
f 35 56 36
f 37 38 66
f 37 66 61
f 40 67 68
f 40 68 69
f 40 69 41
f 41 69 70
f 41 70 71
f 41 71 72
f 41 72 43
f 41 43 42
f 43 72 73
f 43 73 74
f 43 74 75
f 43 75 44
f 44 75 76
f 44 76 46
f 44 46 45
f 46 76 48
f 48 77 49
f 48 76 75
f 48 75 78
f 48 78 77
f 49 77 79
f 49 79 80
f 49 80 50
f 50 80 93
f 50 93 66
f 51 81 82
f 51 82 52
f 51 55 59
f 51 59 83
f 51 83 84
f 51 84 81
f 56 65 60
f 56 60 57
f 58 85 86
f 58 86 83
f 58 83 59
f 58 60 64
f 58 64 85
f 60 65 64
f 61 66 87
f 61 87 62
f 62 88 63
f 62 87 89
f 62 89 90
f 62 90 88
f 63 91 64
f 63 88 91
f 64 92 85
f 64 91 92
f 66 93 87
f 67 94 95
f 67 95 96
f 67 96 68
f 68 96 97
f 68 97 98
f 68 98 99
f 68 99 70
f 68 70 69
f 70 99 71
f 71 99 73
f 71 73 72
f 73 99 74
f 74 99 100
f 74 100 101
f 74 101 102
f 74 102 103
f 74 103 75
f 75 103 104
f 75 104 78
f 77 105 79
f 77 78 105
f 78 104 106
f 78 106 105
f 79 105 106
f 79 106 127
f 79 127 126
f 79 126 149
f 79 149 148
f 79 148 170
f 79 170 182
f 79 182 166
f 79 166 162
f 79 162 179
f 79 179 175
f 79 175 183
f 79 183 171
f 79 171 153
f 79 153 133
f 79 133 132
f 79 132 115
f 79 115 114
f 79 114 88
f 79 88 90
f 79 90 89
f 79 89 87
f 79 87 93
f 79 93 80
f 81 107 82
f 81 84 108
f 81 108 85
f 81 85 109
f 81 109 107
f 82 107 110
f 83 86 84
f 84 86 85
f 84 85 108
f 85 111 112
f 85 112 109
f 85 92 113
f 85 113 111
f 88 114 91
f 91 114 115
f 91 115 113
f 91 113 92
f 94 116 117
f 94 117 118
f 94 118 95
f 95 119 96
f 95 118 119
f 96 119 120
f 96 120 101
f 96 101 121
f 96 121 97
f 97 121 122
f 97 122 98
f 98 122 100
f 98 100 99
f 100 122 101
f 101 122 121
f 101 120 118
f 101 118 123
f 101 123 124
f 101 124 125
f 101 125 126
f 101 126 102
f 102 127 104
f 102 104 103
f 102 126 127
f 104 127 106
f 107 109 128
f 107 128 129
f 107 129 130
f 107 130 110
f 109 112 131
f 109 131 128
f 111 113 132
f 111 132 133
f 111 133 134
f 111 134 135
f 111 135 136
f 111 136 137
f 111 137 138
f 111 138 129
f 111 129 139
f 111 139 131
f 111 131 112
f 113 115 132
f 116 140 117
f 117 141 142
f 117 142 118
f 117 140 141
f 118 142 143
f 118 143 144
f 118 144 145
f 118 145 146
f 118 146 123
f 118 120 119
f 123 146 124
f 124 146 147
f 124 147 125
f 125 148 149
f 125 149 126
f 125 147 167
f 125 167 148
f 128 131 139
f 128 139 129
f 129 138 150
f 129 150 151
f 129 151 130
f 130 151 152
f 133 153 134
f 134 153 174
f 134 174 154
f 134 154 135
f 135 154 155
f 135 155 136
f 136 155 137
f 137 155 156
f 137 156 157
f 137 157 158
f 137 158 159
f 137 159 160
f 137 160 161
f 137 161 151
f 137 151 150
f 137 150 138
f 142 159 179
f 142 179 162
f 142 162 163
f 142 163 164
f 142 164 143
f 143 164 165
f 143 165 144
f 144 165 166
f 144 166 182
f 144 182 169
f 144 169 168
f 144 168 167
f 144 167 147
f 144 147 146
f 144 146 145
f 148 167 168
f 148 168 169
f 148 169 170
f 151 161 152
f 153 171 172
f 153 172 173
f 153 173 174
f 154 174 173
f 154 173 172
f 154 172 183
f 154 183 175
f 154 175 157
f 154 157 155
f 155 157 156
f 157 175 176
f 157 176 158
f 158 176 177
f 158 177 159
f 159 177 178
f 159 178 179
f 159 180 160
f 160 181 161
f 160 180 181
f 162 166 164
f 162 164 163
f 164 166 165
f 169 182 170
f 171 183 172
f 175 179 177
f 175 177 176
f 177 179 178

