# https://github.com/mikedh/trimesh
v -0.50417119 -0.08496732 -0.04499957
v -0.50417119 -0.08496732 0.04498729
v -0.50413656 -0.07494784 -0.04499957
v -0.50264955 -0.08496732 -0.05851635
v -0.50078207 -0.09270164 -0.06105526
v -0.50057459 -0.09692037 -0.05499651
v -0.50157750 -0.09486960 -0.04499957
v -0.50382531 -0.08496732 0.05499865
v -0.50413656 -0.07494784 0.04498729
v -0.50157750 -0.09486960 0.04498729
v -0.50185412 -0.06498696 -0.05499651
v -0.50261497 -0.07494784 -0.05851635
v -0.49262053 -0.01494819 -0.04499957
v -0.49528342 -0.09604147 -0.06542622
v -0.48701814 -0.11496714 -0.06731597
v -0.45686197 -0.20496660 -0.06711401
v -0.46063149 -0.21211500 -0.06086773
v -0.47066051 -0.18229096 -0.06091100
v -0.49441886 -0.07494784 -0.06923457
v -0.49434966 -0.08496732 -0.06920572
v -0.49085683 -0.09270164 -0.07070598
v -0.48968101 -0.12926394 -0.05499651
v -0.48981935 -0.12967408 -0.04499957
v -0.50171578 -0.08496732 0.06224030
v -0.50171578 -0.07494784 0.06224030
v -0.50375617 -0.07494784 0.05499865
v -0.50064373 -0.09709615 0.05499865
v -0.50088584 -0.09287743 0.06117281
v -0.50192332 -0.06498696 0.05499865
v -0.49262053 -0.01494819 0.04498729
v -0.48981935 -0.12967408 0.04498729
v -0.49023432 -0.00574903 -0.05775180
v -0.50029790 -0.05789716 -0.05766524
v -0.49836129 -0.06498696 -0.06353646
v -0.48923144 0.00221968 -0.04499957
v -0.47076425 -0.15246692 -0.07064828
v -0.45067167 -0.21217360 -0.07057615
v -0.44679841 -0.23496644 -0.06704188
v -0.44482720 -0.24475153 -0.06467608
v -0.45029128 -0.24369685 -0.05791048
v -0.46032026 -0.21609935 -0.05499651
v -0.49064934 -0.06147136 -0.07056172
v -0.48494315 -0.07494784 -0.07317276
v -0.48494315 -0.08496732 -0.07311506
v -0.47847620 -0.11496714 -0.07223509
v -0.47197464 -0.14496696 -0.07135513
v -0.45184749 -0.20496660 -0.07129743
v -0.45423371 -0.23496644 -0.04499957
v -0.49459177 -0.08496732 0.06939539
v -0.49466091 -0.07494784 0.06942424
v -0.49044183 -0.05725263 0.07043403
v -0.48732936 -0.02496766 0.06746236
v -0.50085121 -0.06498696 0.06120165
v -0.50036705 -0.05766279 0.05771066
v -0.47128299 -0.18399017 0.05499865
v -0.46097735 -0.21299390 0.05798475
v -0.47072965 -0.18246675 0.06102855
v -0.44704050 -0.23496644 0.06721713
v -0.48726022 -0.11496714 0.06750564
v -0.49293178 -0.09639303 0.06796726
v -0.49030352 -0.00551465 0.05779722
v -0.48923144 0.00221968 0.04498729
v -0.45423371 -0.23496644 0.04498729
v -0.48819393 0.00497357 -0.05499651
v -0.48383653 0.00497357 -0.06408463
v -0.48508149 -0.00422560 -0.06520983
v -0.48618814 -0.01494819 -0.06629175
v -0.48829770 0.00497357 0.05499865
v -0.48480484 0.01499304 -0.04499957
v -0.43808356 -0.23643127 -0.07196101
v -0.43528238 -0.24768120 -0.06973947
v -0.43476361 -0.25482959 -0.06500787
v -0.44316724 -0.25272024 -0.05842980
v -0.45022210 -0.24598199 -0.04499957
v -0.48048198 -0.00715527 -0.07043190
v -0.48120824 -0.01494819 -0.07099450
v -0.47851080 -0.02496766 -0.07237935
v -0.47494876 -0.01494819 -0.07273999
v -0.47494876 -0.03498714 -0.07347570
v -0.47494876 -0.10494766 -0.07347570
v -0.44493094 -0.19494714 -0.07347570
v -0.46495435 -0.14496696 -0.07310063
v -0.48096615 -0.12299444 0.07079468
v -0.48228031 -0.11496714 0.07155924
v -0.48494315 -0.08496732 0.07347783
v -0.49116808 -0.06498696 0.07099663
v -0.48141575 -0.01494819 0.07115532
v -0.48020536 -0.00252639 0.07021765
v -0.48871267 -0.01494819 0.06395695
v -0.45036045 -0.24381404 0.05795590
v -0.44140351 -0.23807189 0.07105434
v -0.45022210 -0.21592358 0.07023208
v -0.46972677 -0.15955672 0.06985702
v -0.44496554 -0.24492732 0.06479363
v -0.48096615 0.00538372 0.06721713
v -0.47951370 0.01499304 0.06482248
v -0.45022210 -0.24598199 0.04498729
v -0.48442441 0.01499304 -0.05499651
v -0.48068950 0.02143831 -0.05782393
v -0.47653955 0.00356732 -0.07060500
v -0.47934079 0.01499304 -0.06464723
v -0.48075867 0.02155550 0.05786934
v -0.48452818 0.01499304 0.05499865
v -0.48480484 0.01499304 0.04498729
v -0.47847620 0.02718047 -0.04499957
v -0.47069508 0.04147726 -0.05499651
v -0.43493652 -0.22494696 -0.07346127
v -0.42494214 -0.24498591 -0.07304293
v -0.42425048 -0.25453663 -0.07121088
v -0.42048097 -0.26039597 -0.07027321
v -0.42712083 -0.25758350 -0.06816708
v -0.41079780 -0.28066930 -0.06072347
v -0.43808356 -0.25840381 -0.05499651
v -0.44413555 -0.25365773 -0.04499957
v -0.46799764 0.01639928 -0.07173020
v -0.46495435 0.00497357 -0.07347570
v -0.46495435 -0.11496714 -0.07349012
v -0.46495435 -0.12498661 -0.07349012
v -0.43493652 -0.21498609 -0.07347570
v -0.45208958 -0.20496660 0.07147268
v -0.43493652 -0.23496644 0.07339128
v -0.47494876 -0.11496714 0.07350669
v -0.48494315 -0.07494784 0.07353554
v -0.47494876 -0.10494766 0.07386733
v -0.48231488 -0.02496766 0.07170349
v -0.47522542 0.00403607 0.07155924
v -0.46865469 0.02759062 0.06889050
v -0.44320181 -0.25277883 0.05848964
v -0.43542069 -0.24785699 0.06990029
v -0.42438883 -0.25465381 0.07142940
v -0.43493652 -0.25494677 0.06513985
v -0.46675265 0.03497339 0.06711615
v -0.47041842 0.04089132 0.06059578
v -0.44413555 -0.25365773 0.04498729
v -0.44005477 0.10012926 -0.05749214
v -0.45008379 0.08026610 -0.06017530
v -0.45928279 0.04370381 -0.06939325
v -0.46505809 0.02436798 -0.07154267
v -0.45634323 0.05495374 -0.06673894
v -0.45015293 0.08038328 0.06026399
v -0.44005477 0.10024644 0.05753756
v -0.42992204 0.11993383 0.05468129
v -0.47847620 0.02718047 0.04498729
v -0.44022769 0.10053941 -0.04499957
v -0.45029128 0.08067625 -0.05499651
v -0.42494214 -0.23496644 -0.07347570
v -0.41494772 -0.24498591 -0.07347570
v -0.38492990 -0.27498573 -0.07347570
v -0.37497008 -0.28494662 -0.07337472
v -0.41494772 -0.25494677 -0.07282654
v -0.39257270 -0.28219271 -0.07113875
v -0.40986407 -0.26988810 -0.06994142
v -0.38586363 -0.29572779 -0.06565702
v -0.40412334 -0.28441927 -0.06233913
v -0.38299328 -0.30188009 -0.06210833
v -0.39769095 -0.29139188 -0.05985793
v -0.38721237 -0.30141136 -0.05499651
v -0.41142029 -0.28125522 -0.05499651
v -0.43590486 -0.26074752 -0.04499957
v -0.44493094 0.05495374 -0.07261016
v -0.44493094 0.04499286 -0.07344685
v -0.41494772 0.09497304 -0.07347570
v -0.37497008 0.13499233 -0.07347570
v -0.35494667 0.15497269 -0.07347570
v -0.28505498 0.20495287 -0.07347570
v -0.25503716 0.22499181 -0.07347570
v -0.22508852 0.24497217 -0.07347570
v -0.17508189 0.26495251 -0.07347570
v -0.15087397 0.26495251 -0.07347570
v -0.15087397 -0.24498591 -0.07347570
v -0.28505498 -0.27498573 -0.07347570
v -0.36497569 -0.28494662 -0.07347570
v -0.42494214 -0.24498591 0.07343456
v -0.43493652 -0.22494696 0.07385290
v -0.44493094 -0.19494714 0.07386733
v -0.47494876 -0.03498714 0.07386733
v -0.47494876 -0.02496766 0.07363652
v -0.46495435 -0.12498661 0.07388175
v -0.47494876 -0.01494819 0.07310277
v -0.47494876 -0.00504591 0.07236706
v -0.46495435 0.00497357 0.07386733
v -0.46810138 0.01645787 0.07199200
v -0.46516186 0.02454376 0.07176119
v -0.46177274 0.03497339 0.07115532
v -0.45945570 0.04399677 0.06951080
v -0.43818730 -0.25846240 0.05499865
v -0.41086698 -0.28078648 0.06082659
v -0.42141470 -0.27123576 0.06124493
v -0.42732835 -0.25775927 0.06828462
v -0.42065388 -0.26057175 0.07039076
v -0.39281476 -0.28242710 0.07127072
v -0.40491873 -0.26496625 0.07295851
v -0.41494772 -0.25494677 0.07320375
v -0.43829107 0.08676996 0.06851543
v -0.43590486 -0.26074752 0.04498729
v -0.43268865 0.11495339 -0.04499957
v -0.42743209 0.12239476 -0.05450604
v -0.43140912 0.11301981 -0.06158901
v -0.43483281 0.09573475 -0.06691205
v -0.44915003 0.06344979 -0.06927785
v -0.43981272 0.07979735 -0.06992700
v -0.44161099 0.07317629 -0.07105219
v -0.43348408 0.08495357 -0.07161479
v -0.43144369 0.11313699 0.06172098
v -0.42317840 0.12327366 0.06275962
v -0.41999680 0.13001190 0.05612385
v -0.42514962 0.12509005 0.04498729
v -0.42514962 0.12509005 -0.04499957
v -0.43268865 0.11495339 0.04498729
v -0.44022769 0.10053941 0.04498729
v -0.35494667 -0.29232937 -0.07165807
v -0.37497008 -0.29514188 -0.06986929
v -0.38614032 -0.28869659 -0.07034534
v -0.37497008 -0.30270040 -0.06311812
v -0.37497008 -0.30592304 -0.05499651
v -0.37497008 -0.30645040 -0.04499957
v -0.38745445 -0.30164573 -0.04499957
v -0.42321301 0.10499251 -0.07155709
v -0.41494772 0.10499251 -0.07330259
v -0.42494214 0.08495357 -0.07336029
v -0.40491873 0.11495339 -0.07340357
v -0.39492431 0.12497286 -0.07324488
v -0.34495229 0.16499215 -0.07330259
v -0.31503820 0.18497251 -0.07344685
v -0.24507734 0.23495269 -0.07344685
v -0.23508292 0.24497217 -0.07305735
v -0.20506513 0.25499162 -0.07333144
v -0.18507630 0.26495251 -0.07298522
v -0.17508189 0.27380010 -0.07173020
v -0.16792327 0.27790165 -0.07092237
v -0.16598663 0.28598756 -0.06546949
v -0.15087397 0.29213986 -0.04499957
v -0.15087397 -0.25453663 -0.07344685
v -0.32506719 -0.28494662 -0.07271114
v -0.33502704 -0.28494662 -0.07298522
v -0.34495229 -0.28494662 -0.07323046
v -0.35494667 -0.28494662 -0.07340357
v -0.41494772 -0.24498591 0.07386733
v -0.42494214 -0.23496644 0.07386733
v -0.37497008 -0.28494662 0.07375193
v -0.38492990 -0.27498573 0.07385290
v -0.39492431 -0.26496625 0.07386733
v -0.43493652 -0.21498609 0.07386733
v -0.46495435 -0.11496714 0.07388175
v -0.45492536 -0.14496696 0.07388175
v -0.41494772 0.09497304 0.07386733
v -0.45492536 0.02495392 0.07385290
v -0.45492536 0.03497339 0.07310277
v -0.42352423 0.10499251 0.07174677
v -0.43158203 0.09315664 0.07111204
v -0.44002020 0.08009031 0.07004455
v -0.41148946 -0.28131381 0.05499865
v -0.40049213 -0.29039580 0.05766739
v -0.41674602 -0.26725140 0.06790955
v -0.38306245 -0.30193871 0.06224030
v -0.39492431 -0.29256377 0.06226915
v -0.41007155 -0.27006388 0.07007340
v -0.38600197 -0.29584497 0.06578899
v -0.38634780 -0.28881377 0.07049174
v -0.42916122 0.10241440 0.06933769
v -0.38745445 -0.30164573 0.04498729
v -0.41889015 0.13077360 -0.05606400
v -0.42307466 0.12321506 -0.06262765
v -0.42891914 0.10223862 -0.06916244
v -0.42553005 0.11589088 -0.06544064
v -0.43144369 0.09286368 -0.07099450
v -0.42566836 0.11606666 0.06557261
v -0.41878641 0.11641823 0.07049174
v -0.41615811 0.12602754 0.06590440
v -0.41325316 0.13270719 0.06238455
v -0.38140246 0.16118358 0.06124493
v -0.38230163 0.16200389 0.05499865
v -0.38503367 0.16001172 0.04498729
v -0.40426165 0.14366417 0.04498729
v -0.41754144 0.13235563 0.04498729
v -0.41754144 0.13235563 -0.04499957
v -0.34495229 -0.29197782 -0.07148496
v -0.36497569 -0.29514188 -0.06979717
v -0.36497569 -0.30234885 -0.06285845
v -0.35494667 -0.29736841 -0.06744580
v -0.36497569 -0.30521992 -0.05499651
v -0.31503820 -0.30047387 -0.06068019
v -0.30739543 -0.30018088 -0.06027628
v -0.37497008 -0.30645040 0.04498729
v -0.36497569 -0.30568868 -0.04499957
v -0.41861349 0.11618385 -0.07034534
v -0.41218111 0.12186742 -0.07105219
v -0.40491873 0.12514864 -0.07183117
v -0.38492990 0.13499233 -0.07304293
v -0.33502704 0.17495304 -0.07288425
v -0.30504379 0.19499199 -0.07310063
v -0.27506056 0.21497233 -0.07330259
v -0.37497008 0.14495322 -0.07282654
v -0.24483526 0.24514794 -0.07171577
v -0.23822996 0.25135884 -0.07095122
v -0.20506513 0.26284316 -0.07158595
v -0.26503158 0.22499181 -0.07288425
v -0.18836166 0.27122200 -0.07086466
v -0.19181994 0.28065553 -0.06081002
v -0.16913366 0.29044065 -0.05733345
v -0.18507630 0.27684698 -0.06715728
v -0.16809618 0.29067501 0.05797032
v -0.15087397 0.29213986 0.04498729
v -0.15087397 -0.26490766 -0.06979717
v -0.28505498 -0.28348178 -0.07174462
v -0.31503820 -0.28494662 -0.07239377
v -0.36497569 -0.28494662 0.07386733
v -0.37497008 -0.29543483 0.07005897
v -0.35494667 -0.29256377 0.07183332
v -0.44493094 -0.14496696 0.07388175
v -0.15087397 0.26495251 0.07386733
v -0.17508189 0.26495251 0.07386733
v -0.22508852 0.24497217 0.07386733
v -0.25503716 0.22499181 0.07386733
v -0.28505498 0.20495287 0.07386733
v -0.35494667 0.15497269 0.07386733
v -0.37497008 0.13499233 0.07386733
v -0.41494772 0.10499251 0.07367980
v -0.43493652 0.06497321 0.07379520
v -0.44493094 0.04499286 0.07382405
v -0.40491873 0.11495339 0.07378078
v -0.44493094 0.05495374 0.07298737
v -0.43493652 0.07499269 0.07285754
v -0.41242319 0.12204319 0.07116974
v -0.38728154 -0.30146995 0.05499865
v -0.37497008 -0.30604023 0.05499865
v -0.37497008 -0.30281761 0.06330779
v -0.40426165 0.14366417 -0.04499957
v -0.38503367 0.16001172 -0.04499957
v -0.38223246 0.16188671 -0.05499651
v -0.38133329 0.16112499 -0.06111296
v -0.41314942 0.13259001 -0.06225258
v -0.41598520 0.12585177 -0.06577243
v -0.40848076 0.12872285 0.06904918
v -0.37673381 0.15725783 0.06790955
v -0.37372512 0.16399607 0.06430316
v -0.36497569 0.17266789 0.06257209
v -0.30092844 0.22059730 0.06072561
v -0.33042753 0.20020680 0.05759526
v -0.37369052 0.16885932 0.05642678
v -0.37400177 0.16915229 0.04498729
v -0.33502704 -0.29156765 -0.07123972
v -0.30504379 -0.28494662 -0.07204756
v -0.34495229 -0.29701686 -0.06702746
v -0.32506719 -0.29115751 -0.07096564
v -0.31503820 -0.29074734 -0.07064828
v -0.30213886 -0.29022002 -0.07020108
v -0.32506719 -0.30205590 -0.05499651
v -0.32506719 -0.29619655 -0.06617635
v -0.29892266 -0.29982933 -0.05630924
v -0.29404649 -0.29156765 -0.06773431
v -0.28505498 -0.29350126 -0.06379612
v -0.15087397 -0.27199748 -0.06291616
v -0.15087397 -0.27480996 -0.05529945
v -0.36497569 -0.30568868 0.04498729
v -0.35494667 -0.30451682 0.05499865
v -0.34495229 -0.30404806 -0.04499957
v -0.40827325 0.12854706 -0.06891721
v -0.40163338 0.13141814 -0.07083581
v -0.39461309 0.13481656 -0.07154267
v -0.36452609 0.15907423 -0.07161479
v -0.35359797 0.16839057 -0.07141284
v -0.31489989 0.19510917 -0.07175905
v -0.29504940 0.20495287 -0.07263901
v -0.28529707 0.21538249 -0.07194658
v -0.25278929 0.24192530 -0.07109547
v -0.24801686 0.24854636 -0.06887393
v -0.24490443 0.25487444 -0.06490690
v -0.23508292 0.25704241 -0.06733039
v -0.21633908 0.26325330 -0.06831133
v -0.22059277 0.27016732 -0.05756427
v -0.24362487 0.26038224 -0.05796818
v -0.22616059 0.26846811 -0.04499957
v -0.22616059 0.26846811 0.04498729
v -0.22069651 0.27022591 0.05760968
v -0.19199285 0.28071412 0.06092757
v -0.16698954 0.28270632 0.06860199
v -0.15087397 0.27456182 0.07272770
v -0.35494667 -0.28494662 0.07378078
v -0.28505498 -0.27498573 0.07386733
v -0.36497569 -0.29537624 0.06998684
v -0.34495229 -0.29221219 0.07166021
v -0.33502704 -0.28494662 0.07334801
v -0.34495229 -0.28494662 0.07359324
v -0.15087397 -0.24498591 0.07386733
v -0.18507630 0.26495251 0.07336243
v -0.20506513 0.25499162 0.07370865
v -0.23508292 0.24497217 0.07343456
v -0.24507734 0.23495269 0.07382405
v -0.31503820 0.18497251 0.07382405
v -0.39492431 0.12497286 0.07362209
v -0.34495229 0.16499215 0.07367980
v -0.40505707 0.12520723 0.07204970
v -0.39471683 0.13493374 0.07176119
v -0.40180629 0.13159391 0.07095335
v -0.36497569 -0.30246603 0.06306256
v -0.35494667 -0.29760277 0.06763547
v -0.37400177 0.16915229 -0.04499957
v -0.37358677 0.16880073 -0.05639579
v -0.37241095 0.15878126 -0.06911916
v -0.38710862 0.14758992 -0.06815265
v -0.33032379 0.20020680 -0.05756427
v -0.36497569 0.17255071 -0.06239684
v -0.37438217 0.16464061 -0.06300271
v -0.39122397 0.14108606 0.07069369
v -0.38064164 0.15057819 0.07039076
v -0.36193240 0.16803902 0.06847215
v -0.27768886 0.22827303 0.06861641
v -0.33416247 0.19464043 0.06267306
v -0.26420158 0.24462059 0.06271634
v -0.25638589 0.25264791 0.05737887
v -0.36497569 0.17565615 0.05499865
v -0.25790754 0.25247210 0.04498729
v -0.36497569 0.17589054 0.04498729
v -0.29577562 -0.29988793 -0.04499957
v -0.30504379 -0.30070823 -0.04499957
v -0.15087397 -0.27539590 -0.04499957
v -0.34495229 -0.30404806 0.04498729
v -0.31503820 -0.30135277 0.05499865
v -0.30424839 -0.29830590 0.06166327
v -0.38046873 0.15040240 -0.07027321
v -0.39101648 0.14091027 -0.07057615
v -0.35868162 0.16891792 -0.06924900
v -0.32278475 0.19188653 -0.07109547
v -0.28215003 0.22147620 -0.07090794
v -0.27412683 0.22926913 -0.06942210
v -0.25569424 0.24514794 -0.06721499
v -0.25638589 0.25258932 -0.05733345
v -0.33412787 0.19458184 -0.06249782
v -0.23508292 0.26454237 -0.05499651
v -0.23508292 0.26495251 -0.04499957
v -0.24580358 0.26026505 -0.04499957
v -0.23508292 0.26495251 0.04498729
v -0.23508292 0.26465955 0.05499865
v -0.24376321 0.26044083 0.05802802
v -0.18507630 0.27708134 0.06733254
v -0.23508292 0.25967911 0.06501001
v -0.21505953 0.26624158 0.06639487
v -0.19209659 0.27075326 0.07062157
v -0.18507630 0.27210090 0.07142940
v -0.32506719 -0.28494662 0.07307392
v -0.31503820 -0.28494662 0.07277098
v -0.15087397 -0.25494677 0.07382405
v -0.33502704 -0.29180205 0.07141498
v -0.30504379 -0.28494662 0.07242477
v -0.20506513 0.26307753 0.07176119
v -0.23508292 0.25223774 0.07150153
v -0.25303137 0.24210109 0.07122745
v -0.26503158 0.22499181 0.07327588
v -0.27506056 0.21497233 0.07367980
v -0.38492990 0.13499233 0.07343456
v -0.30504379 0.19499199 0.07349226
v -0.33502704 0.17495304 0.07326145
v -0.37497008 0.14495322 0.07320375
v -0.36625522 0.15796095 0.07174677
v -0.38437659 0.14460166 0.07142940
v -0.37400177 0.15432815 0.07105434
v -0.32506719 -0.29865748 0.06382711
v -0.33502704 -0.29678249 0.06679878
v -0.30504379 -0.29051298 0.07049174
v -0.32506719 -0.29139188 0.07114089
v -0.36497569 0.17589054 -0.04499957
v -0.36497569 0.17553897 -0.05499651
v -0.36587483 0.16534372 -0.06787857
v -0.25790754 0.25247210 -0.04499957
v -0.34401855 0.17928895 -0.06942210
v -0.35380545 0.16850777 0.07158808
v -0.34426063 0.17946473 0.06953965
v -0.30366048 0.20899580 0.06917901
v -0.27104896 0.23067537 0.07047731
v -0.26503158 0.23776518 0.06822692
v -0.25583258 0.24526513 0.06741909
v -0.24511193 0.25499162 0.06503887
v -0.24580358 0.26026505 0.04498729
v -0.30421382 0.21936683 0.04498729
v -0.29577562 -0.29988793 0.04498729
v -0.30504379 -0.30070823 0.04498729
v -0.15087397 -0.27539590 0.04498729
v -0.29708979 -0.29982933 0.05455146
v -0.29401192 -0.29086456 0.06891935
v -0.31503820 -0.29596218 0.06581785
v -0.15087397 -0.27240762 0.06258652
v -0.31144160 0.20096850 -0.07066271
v -0.30345300 0.20882003 -0.06904704
v -0.21782616 0.26067519 0.07053502
v -0.28505498 -0.28377473 0.07193430
v -0.15087397 -0.26525924 0.06990029
v -0.24576899 0.24842918 0.07015995
v -0.28235751 0.22159339 0.07102548
v -0.32299224 0.19206232 0.07122745
v -0.31500363 0.19522636 0.07197758
v -0.28543538 0.21549967 0.07216511
v -0.29504940 0.20495287 0.07301622
v -0.34453729 0.17495304 0.07167464
v -0.30421382 0.21936683 -0.04499957
v -0.31168368 0.20114429 0.07076582
v -0.15087397 -0.27504432 0.05499865
f 1 2 9
f 1 9 3
f 1 3 12
f 1 12 4
f 1 4 5
f 1 5 6
f 1 6 7
f 1 7 10
f 1 10 2
f 2 8 9
f 2 10 8
f 3 11 12
f 3 9 30
f 3 30 13
f 3 13 11
f 4 12 5
f 5 14 15
f 5 15 16
f 5 16 17
f 5 17 18
f 5 18 6
f 5 12 19
f 5 19 20
f 5 20 21
f 5 21 14
f 6 18 17
f 6 17 22
f 6 22 7
f 7 22 23
f 7 23 31
f 7 31 10
f 8 24 25
f 8 25 26
f 8 26 9
f 8 10 27
f 8 27 28
f 8 28 24
f 9 26 29
f 9 29 30
f 10 31 27
f 11 13 32
f 11 32 33
f 11 33 12
f 12 33 34
f 12 34 19
f 13 30 62
f 13 62 35
f 13 35 32
f 14 21 15
f 15 36 16
f 15 21 36
f 16 36 37
f 16 37 38
f 16 38 17
f 17 38 39
f 17 39 40
f 17 40 41
f 17 41 22
f 19 34 42
f 19 42 43
f 19 43 21
f 19 21 20
f 21 43 44
f 21 44 45
f 21 45 46
f 21 46 47
f 21 47 36
f 22 41 48
f 22 48 23
f 23 48 63
f 23 63 31
f 24 49 50
f 24 50 25
f 24 28 49
f 25 50 51
f 25 51 52
f 25 52 53
f 25 53 26
f 26 53 54
f 26 54 29
f 27 31 55
f 27 55 56
f 27 56 57
f 27 57 28
f 28 57 58
f 28 58 59
f 28 59 60
f 28 60 49
f 29 54 61
f 29 61 30
f 30 61 62
f 31 63 55
f 32 35 64
f 32 64 65
f 32 65 66
f 32 66 34
f 32 34 33
f 34 66 67
f 34 67 42
f 35 62 68
f 35 68 69
f 35 69 64
f 36 47 37
f 37 47 70
f 37 70 38
f 38 70 71
f 38 71 39
f 39 71 72
f 39 72 73
f 39 73 40
f 40 73 74
f 40 74 48
f 40 48 41
f 42 67 75
f 42 75 76
f 42 76 43
f 43 76 77
f 43 77 78
f 43 78 79
f 43 79 80
f 43 80 44
f 44 80 81
f 44 81 82
f 44 82 45
f 45 82 46
f 46 82 47
f 47 82 70
f 48 74 97
f 48 97 63
f 49 60 83
f 49 83 84
f 49 84 85
f 49 85 86
f 49 86 50
f 50 86 51
f 51 87 88
f 51 88 52
f 51 86 87
f 52 89 53
f 52 88 89
f 53 89 61
f 53 61 54
f 55 63 90
f 55 90 56
f 56 90 57
f 57 90 58
f 58 91 92
f 58 92 93
f 58 93 59
f 58 90 94
f 58 94 91
f 59 93 83
f 59 83 60
f 61 68 62
f 61 89 95
f 61 95 96
f 61 96 68
f 63 97 90
f 64 69 98
f 64 98 99
f 64 99 65
f 65 100 75
f 65 75 66
f 65 99 101
f 65 101 100
f 66 75 67
f 68 96 102
f 68 102 103
f 68 103 104
f 68 104 69
f 69 104 143
f 69 143 105
f 69 105 106
f 69 106 98
f 70 107 108
f 70 108 109
f 70 109 71
f 70 82 107
f 71 109 110
f 71 110 111
f 71 111 72
f 72 111 112
f 72 112 73
f 73 112 113
f 73 113 114
f 73 114 74
f 74 114 134
f 74 134 97
f 75 100 76
f 76 100 78
f 76 78 77
f 78 100 115
f 78 115 116
f 78 116 79
f 79 116 117
f 79 117 118
f 79 118 80
f 80 118 81
f 81 118 119
f 81 119 107
f 81 107 82
f 83 93 92
f 83 92 120
f 83 120 84
f 84 120 121
f 84 121 122
f 84 122 85
f 85 123 86
f 85 122 124
f 85 124 123
f 86 123 125
f 86 125 87
f 87 125 126
f 87 126 88
f 88 126 127
f 88 127 95
f 88 95 89
f 90 97 128
f 90 128 94
f 91 121 120
f 91 120 92
f 91 94 129
f 91 129 130
f 91 130 121
f 94 128 131
f 94 131 129
f 95 127 96
f 96 127 132
f 96 132 133
f 96 133 102
f 97 134 128
f 98 106 135
f 98 135 136
f 98 136 99
f 99 136 101
f 100 101 137
f 100 137 138
f 100 138 115
f 101 136 139
f 101 139 137
f 102 133 140
f 102 140 103
f 103 140 141
f 103 141 142
f 103 142 143
f 103 143 104
f 105 143 210
f 105 210 144
f 105 144 145
f 105 145 106
f 106 145 135
f 107 119 146
f 107 146 108
f 108 146 147
f 108 147 148
f 108 148 149
f 108 149 150
f 108 150 109
f 109 150 151
f 109 151 110
f 110 151 152
f 110 152 111
f 111 152 153
f 111 153 154
f 111 154 112
f 112 154 155
f 112 155 156
f 112 156 157
f 112 157 158
f 112 158 113
f 113 158 159
f 113 159 114
f 114 159 195
f 114 195 134
f 115 138 116
f 116 138 160
f 116 160 161
f 116 161 162
f 116 162 117
f 117 162 163
f 117 163 164
f 117 164 165
f 117 165 166
f 117 166 167
f 117 167 168
f 117 168 169
f 117 169 170
f 117 170 118
f 118 170 171
f 118 171 172
f 118 172 148
f 118 148 147
f 118 147 146
f 118 146 119
f 121 130 173
f 121 173 174
f 121 174 122
f 122 175 124
f 122 174 175
f 123 124 176
f 123 176 177
f 123 177 125
f 124 175 178
f 124 178 244
f 124 244 176
f 125 177 179
f 125 179 180
f 125 180 126
f 126 180 181
f 126 181 182
f 126 182 183
f 126 183 184
f 126 184 127
f 127 184 185
f 127 185 132
f 128 134 186
f 128 186 187
f 128 187 188
f 128 188 131
f 129 131 189
f 129 189 190
f 129 190 130
f 130 190 191
f 130 191 192
f 130 192 193
f 130 193 173
f 131 188 189
f 132 185 194
f 132 194 133
f 133 194 140
f 134 195 186
f 135 144 196
f 135 196 197
f 135 197 198
f 135 198 136
f 135 145 144
f 136 198 199
f 136 199 139
f 137 139 200
f 137 200 201
f 137 201 202
f 137 202 138
f 138 202 203
f 138 203 160
f 139 199 200
f 140 194 204
f 140 204 141
f 141 204 142
f 142 205 206
f 142 206 207
f 142 207 208
f 142 208 197
f 142 197 196
f 142 196 209
f 142 209 210
f 142 210 143
f 142 204 205
f 144 210 209
f 144 209 196
f 148 172 149
f 149 151 150
f 149 172 211
f 149 211 212
f 149 212 213
f 149 213 151
f 151 213 152
f 152 213 153
f 153 213 212
f 153 212 155
f 153 155 154
f 155 214 215
f 155 215 157
f 155 157 156
f 155 212 214
f 157 215 216
f 157 216 217
f 157 217 158
f 158 217 159
f 159 217 261
f 159 261 195
f 160 203 218
f 160 218 219
f 160 219 220
f 160 220 161
f 161 220 162
f 162 220 219
f 162 219 221
f 162 221 163
f 163 221 164
f 164 221 222
f 164 222 223
f 164 223 224
f 164 224 165
f 165 224 225
f 165 225 166
f 166 225 167
f 167 226 227
f 167 227 168
f 167 225 226
f 168 228 229
f 168 229 230
f 168 230 169
f 168 227 228
f 169 230 231
f 169 231 232
f 169 232 303
f 169 303 378
f 169 378 311
f 169 311 385
f 169 385 443
f 169 443 487
f 169 487 482
f 169 482 497
f 169 497 478
f 169 478 417
f 169 417 354
f 169 354 353
f 169 353 304
f 169 304 233
f 169 233 170
f 170 233 171
f 171 233 234
f 171 234 235
f 171 235 236
f 171 236 237
f 171 237 172
f 172 237 211
f 173 238 239
f 173 239 174
f 173 193 240
f 173 240 241
f 173 241 242
f 173 242 238
f 174 239 243
f 174 243 175
f 175 243 178
f 176 244 181
f 176 181 177
f 177 181 179
f 178 243 239
f 178 239 245
f 178 245 310
f 178 310 244
f 179 181 180
f 181 246 247
f 181 247 248
f 181 248 182
f 181 244 246
f 182 248 183
f 183 248 249
f 183 249 184
f 184 249 250
f 184 250 251
f 184 251 185
f 185 251 194
f 186 195 252
f 186 252 253
f 186 253 187
f 187 254 189
f 187 189 188
f 187 253 255
f 187 255 256
f 187 256 254
f 189 254 257
f 189 257 190
f 190 257 191
f 191 240 192
f 191 257 258
f 191 258 259
f 191 259 240
f 192 240 193
f 194 251 260
f 194 260 204
f 195 261 252
f 197 208 262
f 197 262 263
f 197 263 198
f 198 264 199
f 198 263 265
f 198 265 264
f 199 264 200
f 200 264 201
f 201 266 202
f 201 264 266
f 202 266 218
f 202 218 203
f 204 260 267
f 204 267 205
f 205 267 268
f 205 268 269
f 205 269 270
f 205 270 206
f 206 270 271
f 206 271 272
f 206 272 273
f 206 273 274
f 206 274 275
f 206 275 276
f 206 276 208
f 206 208 207
f 208 276 262
f 211 277 278
f 211 278 212
f 211 237 236
f 211 236 235
f 211 235 277
f 212 278 214
f 214 279 215
f 214 278 280
f 214 280 279
f 215 281 216
f 215 279 282
f 215 282 283
f 215 283 281
f 216 284 261
f 216 261 217
f 216 281 285
f 216 285 355
f 216 355 284
f 218 266 286
f 218 286 287
f 218 287 219
f 219 287 288
f 219 288 221
f 221 288 222
f 222 288 289
f 222 289 223
f 223 290 291
f 223 291 292
f 223 292 224
f 223 289 293
f 223 293 290
f 224 292 225
f 225 292 226
f 226 294 295
f 226 295 296
f 226 296 228
f 226 228 227
f 226 292 297
f 226 297 294
f 228 296 229
f 229 298 230
f 229 296 298
f 230 298 231
f 231 299 300
f 231 300 232
f 231 298 301
f 231 301 299
f 232 300 302
f 232 302 303
f 233 304 305
f 233 305 306
f 233 306 234
f 234 306 277
f 234 277 235
f 238 245 239
f 238 242 245
f 240 307 241
f 240 259 308
f 240 308 309
f 240 309 307
f 241 307 242
f 242 307 245
f 244 310 311
f 244 311 312
f 244 312 313
f 244 313 314
f 244 314 315
f 244 315 316
f 244 316 317
f 244 317 246
f 245 307 310
f 246 318 319
f 246 319 320
f 246 320 247
f 246 317 321
f 246 321 318
f 247 320 248
f 248 320 319
f 248 319 318
f 248 318 322
f 248 322 249
f 249 260 250
f 249 322 323
f 249 323 318
f 249 318 324
f 249 324 268
f 249 268 260
f 250 260 251
f 252 261 253
f 253 261 325
f 253 325 255
f 254 256 258
f 254 258 257
f 255 325 326
f 255 326 327
f 255 327 308
f 255 308 258
f 255 258 256
f 258 308 259
f 260 268 267
f 261 284 325
f 262 276 328
f 262 328 329
f 262 329 330
f 262 330 331
f 262 331 332
f 262 332 263
f 263 287 286
f 263 286 265
f 263 332 333
f 263 333 287
f 264 265 286
f 264 286 266
f 268 324 269
f 269 334 335
f 269 335 270
f 269 324 334
f 270 335 271
f 271 335 336
f 271 336 337
f 271 337 338
f 271 338 339
f 271 339 340
f 271 340 272
f 272 340 341
f 272 341 273
f 273 341 398
f 273 398 329
f 273 329 328
f 273 328 274
f 274 328 276
f 274 276 275
f 277 342 280
f 277 280 278
f 277 306 343
f 277 343 305
f 277 305 342
f 279 280 344
f 279 344 282
f 280 342 345
f 280 345 346
f 280 346 347
f 280 347 344
f 281 348 285
f 281 283 348
f 282 344 349
f 282 349 283
f 283 350 348
f 283 349 347
f 283 347 351
f 283 351 352
f 283 352 353
f 283 353 354
f 283 354 350
f 284 326 325
f 284 355 356
f 284 356 326
f 285 348 357
f 285 357 418
f 285 418 355
f 287 333 358
f 287 358 359
f 287 359 360
f 287 360 288
f 288 360 361
f 288 361 293
f 288 293 289
f 290 293 361
f 290 361 362
f 290 362 363
f 290 363 364
f 290 364 297
f 290 297 291
f 291 297 292
f 294 297 365
f 294 365 363
f 294 363 366
f 294 366 295
f 295 366 367
f 295 367 368
f 295 368 369
f 295 369 298
f 295 298 296
f 297 364 365
f 298 370 301
f 298 369 370
f 299 371 300
f 299 301 369
f 299 369 368
f 299 368 372
f 299 372 371
f 300 371 373
f 300 373 374
f 300 374 302
f 301 370 369
f 302 374 375
f 302 375 376
f 302 376 377
f 302 377 378
f 302 378 303
f 304 353 351
f 304 351 347
f 304 347 305
f 305 343 306
f 305 347 346
f 305 346 345
f 305 345 342
f 307 309 379
f 307 379 380
f 307 380 310
f 308 381 309
f 308 327 381
f 309 381 382
f 309 382 383
f 309 383 384
f 309 384 379
f 310 380 385
f 310 385 311
f 311 378 312
f 312 378 386
f 312 386 387
f 312 387 313
f 313 387 388
f 313 388 389
f 313 389 314
f 314 389 315
f 315 389 390
f 315 390 316
f 316 391 321
f 316 321 317
f 316 390 392
f 316 392 451
f 316 451 391
f 318 323 322
f 318 321 393
f 318 393 324
f 321 391 393
f 324 393 394
f 324 394 395
f 324 395 334
f 326 356 396
f 326 396 327
f 327 396 397
f 327 397 381
f 329 398 330
f 330 398 399
f 330 399 331
f 331 400 401
f 331 401 332
f 331 399 402
f 331 402 403
f 331 403 404
f 331 404 400
f 332 401 333
f 333 401 358
f 334 395 405
f 334 405 406
f 334 406 335
f 335 406 407
f 335 407 336
f 336 407 337
f 337 407 408
f 337 408 409
f 337 409 338
f 338 409 410
f 338 410 411
f 338 411 339
f 339 412 340
f 339 411 413
f 339 413 412
f 340 412 341
f 341 412 414
f 341 414 462
f 341 462 398
f 344 347 349
f 348 350 357
f 350 415 416
f 350 416 357
f 350 354 417
f 350 417 415
f 351 353 352
f 355 418 419
f 355 419 356
f 356 419 420
f 356 420 396
f 357 416 477
f 357 477 418
f 358 401 421
f 358 421 422
f 358 422 359
f 359 422 361
f 359 361 360
f 361 422 421
f 361 421 362
f 362 423 424
f 362 424 363
f 362 421 423
f 363 365 364
f 363 424 366
f 366 424 425
f 366 425 367
f 367 425 426
f 367 426 427
f 367 427 368
f 368 428 372
f 368 427 429
f 368 429 428
f 371 430 431
f 371 431 373
f 371 372 430
f 372 428 432
f 372 432 430
f 373 431 433
f 373 433 374
f 374 433 434
f 374 434 375
f 375 434 435
f 375 435 376
f 376 436 377
f 376 435 437
f 376 437 438
f 376 438 436
f 377 436 439
f 377 439 440
f 377 440 378
f 378 440 386
f 379 384 380
f 380 384 383
f 380 383 441
f 380 441 442
f 380 442 443
f 380 443 385
f 381 397 382
f 382 397 444
f 382 444 445
f 382 445 442
f 382 442 441
f 382 441 383
f 386 440 446
f 386 446 447
f 386 447 388
f 386 388 387
f 388 447 448
f 388 448 449
f 388 449 450
f 388 450 389
f 389 450 390
f 390 450 392
f 391 451 393
f 392 450 452
f 392 452 453
f 392 453 454
f 392 454 451
f 393 451 454
f 393 454 394
f 394 454 455
f 394 455 456
f 394 456 395
f 395 456 457
f 395 457 405
f 396 458 397
f 396 420 458
f 397 459 460
f 397 460 461
f 397 461 444
f 397 458 459
f 398 462 463
f 398 463 399
f 399 463 402
f 400 421 401
f 400 404 464
f 400 464 423
f 400 423 421
f 402 429 403
f 402 463 465
f 402 465 428
f 402 428 429
f 403 429 466
f 403 466 423
f 403 423 464
f 403 464 404
f 405 457 406
f 406 457 467
f 406 467 468
f 406 468 407
f 407 468 469
f 407 469 408
f 408 469 470
f 408 470 471
f 408 471 472
f 408 472 409
f 409 472 410
f 410 472 473
f 410 473 435
f 410 435 411
f 411 435 474
f 411 474 413
f 412 413 475
f 412 475 414
f 413 474 432
f 413 432 465
f 413 465 495
f 413 495 475
f 414 475 495
f 414 495 462
f 415 476 477
f 415 477 416
f 415 417 478
f 415 478 476
f 418 477 419
f 419 477 479
f 419 479 420
f 420 480 481
f 420 481 458
f 420 479 482
f 420 482 480
f 423 466 483
f 423 483 424
f 424 483 425
f 425 483 426
f 426 483 484
f 426 484 427
f 427 484 429
f 428 465 432
f 429 484 466
f 430 432 431
f 431 432 474
f 431 474 433
f 433 474 434
f 434 474 435
f 435 473 437
f 436 438 439
f 437 473 447
f 437 447 485
f 437 485 438
f 438 485 439
f 439 485 447
f 439 447 440
f 440 447 446
f 442 445 443
f 443 445 486
f 443 486 487
f 444 461 445
f 445 461 486
f 447 488 448
f 447 473 488
f 448 488 472
f 448 472 470
f 448 470 489
f 448 489 490
f 448 490 491
f 448 491 492
f 448 492 449
f 449 492 493
f 449 493 453
f 449 453 452
f 449 452 450
f 453 494 467
f 453 467 454
f 453 493 491
f 453 491 494
f 454 467 455
f 455 457 456
f 455 467 457
f 458 481 459
f 459 481 460
f 460 481 480
f 460 480 487
f 460 487 486
f 460 486 461
f 462 495 463
f 463 495 465
f 466 484 483
f 467 494 490
f 467 490 468
f 468 490 496
f 468 496 470
f 468 470 469
f 470 496 489
f 470 472 471
f 472 488 473
f 476 479 477
f 476 478 479
f 478 497 479
f 479 497 482
f 480 482 487
f 489 496 490
f 490 494 491
f 491 493 492

