# https://github.com/mikedh/trimesh
v 0.48915085 -0.10383756 0.04495845
v 0.48915085 -0.10383756 -0.04498513
v 0.48882297 -0.10383756 0.05496982
v 0.48023164 -0.15118816 0.05496982
v 0.48023164 -0.15101397 -0.05499650
v 0.48875737 -0.10383756 -0.05499650
v 0.48816714 -0.10383756 0.05648451
v 0.48075628 -0.14504229 0.06107184
v 0.48010048 -0.15059099 0.06019188
v 0.47629669 -0.16504747 0.05496982
v 0.47669017 -0.16504747 0.04495845
v 0.47669017 -0.16504747 -0.04498513
v 0.47623110 -0.16504747 -0.05499650
v 0.48003489 -0.15039194 -0.06011758
v 0.48416659 -0.10383756 -0.06443084
v 0.48429775 -0.10383756 0.06460612
v 0.47734600 -0.13506457 0.06749123
v 0.47603434 -0.14504229 0.06609195
v 0.46816444 -0.16504747 0.06847218
v 0.47295198 -0.16504747 0.06343764
v 0.47111565 -0.17505006 0.06141806
v 0.46993518 -0.18007624 0.06001877
v 0.47255847 -0.17505006 0.05496982
v 0.47288638 -0.17505006 0.04495845
v 0.47288638 -0.17505006 -0.04498513
v 0.47196823 -0.17602047 -0.05567450
v 0.46986958 -0.17997672 -0.05948286
v 0.47144356 -0.17330831 -0.06174768
v 0.47282079 -0.16504747 -0.06327679
v 0.47583759 -0.14504229 -0.06591667
v 0.47714925 -0.13506457 -0.06733038
v 0.47911674 -0.10383756 -0.06943652
v 0.48252702 -0.10383756 0.06648144
v 0.47931346 -0.10383756 0.06968392
v 0.47354221 -0.12506199 0.07190546
v 0.47229615 -0.13506457 0.07163138
v 0.47105008 -0.14504229 0.07086682
v 0.47019750 -0.15111351 0.07023210
v 0.46167177 -0.17266138 0.07118419
v 0.46501648 -0.17562234 0.06687094
v 0.47006634 -0.18022554 0.05496982
v 0.45931080 -0.17930490 0.06952524
v 0.46436065 -0.18405737 0.06219704
v 0.46062243 -0.19092482 0.06074005
v 0.43012655 -0.23026338 0.06019188
v 0.39051467 -0.28072423 0.05496982
v 0.43032327 -0.23051220 0.05496982
v 0.47019750 -0.18037483 0.04495845
v 0.47019750 -0.18037483 -0.04498513
v 0.47006634 -0.18025042 -0.05280381
v 0.43025771 -0.23046243 -0.05499650
v 0.39051467 -0.28067446 -0.05499650
v 0.43006095 -0.23018874 -0.06011758
v 0.46055686 -0.19082530 -0.06065133
v 0.46291783 -0.18505266 -0.06254108
v 0.46573788 -0.17619464 -0.06558488
v 0.46154061 -0.17243744 -0.07106661
v 0.46790209 -0.16504747 -0.06828247
v 0.47006634 -0.15061587 -0.07012895
v 0.47085333 -0.14504229 -0.07069155
v 0.47209939 -0.13506457 -0.07147053
v 0.47321430 -0.12506199 -0.07173019
v 0.47465712 -0.10383756 -0.07164364
v 0.47485387 -0.10383756 0.07186219
v 0.47177148 -0.10383756 0.07256904
v 0.46495089 -0.12506199 0.07386735
v 0.46495089 -0.13506457 0.07357883
v 0.46318015 -0.16504747 0.07186219
v 0.45550701 -0.17562234 0.07223725
v 0.42527342 -0.21518485 0.07206415
v 0.42212546 -0.22284852 0.07121304
v 0.43150377 -0.21195018 0.07092453
v 0.44075093 -0.20110160 0.07053503
v 0.45006365 -0.19020325 0.07007342
v 0.45708099 -0.18505266 0.06772204
v 0.44744033 -0.19687164 0.06799613
v 0.42442086 -0.23416987 0.06245670
v 0.39025232 -0.28037587 0.06035056
v 0.38566154 -0.28572553 0.05496982
v 0.38585830 -0.28587481 0.04495845
v 0.39058024 -0.28084862 0.04495845
v 0.39963064 -0.26955217 0.04495845
v 0.39963064 -0.26955217 -0.04498513
v 0.39058024 -0.28084862 -0.04498513
v 0.38585830 -0.28587481 -0.04498513
v 0.38566154 -0.28565088 -0.05499650
v 0.39012116 -0.28030121 -0.06027627
v 0.40743497 -0.24678507 -0.06802281
v 0.44789943 -0.19503036 -0.06838345
v 0.44986689 -0.19000418 -0.06997027
v 0.45904845 -0.17910585 -0.06942210
v 0.46291783 -0.16504747 -0.07167248
v 0.44055417 -0.20087765 -0.07043189
v 0.43130702 -0.21175112 -0.07082137
v 0.42199430 -0.22262459 -0.07110989
v 0.42514226 -0.21508531 -0.07183117
v 0.45537582 -0.17547306 -0.07200427
v 0.45491675 -0.16504747 -0.07341798
v 0.46495089 -0.13506457 -0.07318717
v 0.46495089 -0.12506199 -0.07347569
v 0.46495089 -0.10383756 -0.07347569
v 0.46495089 -0.10383756 0.07386735
v 0.44494820 -0.17505006 0.07388178
v 0.45491675 -0.15504488 0.07386735
v 0.45491675 -0.16504747 0.07378080
v 0.44494820 -0.18505266 0.07295854
v 0.38533363 -0.26524758 0.07213628
v 0.38231683 -0.27296102 0.07125632
v 0.39162958 -0.26208755 0.07101108
v 0.40087670 -0.25121409 0.07062159
v 0.41012385 -0.24031574 0.07020324
v 0.38894069 -0.26875594 0.06923673
v 0.40756613 -0.24698414 0.06815481
v 0.38533363 -0.27574781 0.06764992
v 0.37956238 -0.27960452 0.06977048
v 0.38421872 -0.28420770 0.06231245
v 0.38028377 -0.29027894 0.06036499
v 0.38067728 -0.29050288 0.05496982
v 0.38087404 -0.29062730 0.04495845
v 0.38087404 -0.29062730 -0.04498513
v 0.38061169 -0.29045311 -0.05499650
v 0.38028377 -0.29020429 -0.06029069
v 0.38408756 -0.28415796 -0.06215159
v 0.37936562 -0.27938059 -0.06963848
v 0.38520247 -0.27559853 -0.06743136
v 0.38880950 -0.26853201 -0.06911916
v 0.39812225 -0.25768343 -0.06857099
v 0.41005826 -0.24011669 -0.07005682
v 0.40074554 -0.25099015 -0.07053287
v 0.39149839 -0.26188850 -0.07090793
v 0.38205451 -0.27273709 -0.07113874
v 0.38520247 -0.26512316 -0.07191772
v 0.43491405 -0.19503036 -0.07294194
v 0.45491675 -0.15504488 -0.07349011
v 0.42494550 -0.20503296 -0.07323045
v 0.38494015 -0.25494641 -0.07327373
v 0.37490600 -0.26494899 -0.07347569
v 0.44494820 -0.17505006 -0.07349011
v 0.41491139 -0.10383756 -0.07347569
v 0.41491139 -0.10383756 0.07386735
v -0.18084082 -0.20503296 0.07386735
v -0.18084082 -0.24494380 0.07386735
v -0.15493572 -0.25494641 0.07386735
v 0.10516483 -0.33494225 0.07386735
v 0.15494201 -0.33494225 0.07386735
v 0.25488988 -0.32496455 0.07386735
v 0.35490331 -0.27495158 0.07386735
v 0.39490870 -0.23499097 0.07386735
v 0.37490600 -0.26494899 0.07383849
v 0.41491139 -0.21503556 0.07382407
v 0.38494015 -0.25494641 0.07365096
v 0.42494550 -0.20503296 0.07359326
v 0.43491405 -0.19503036 0.07330475
v 0.40487725 -0.23499097 0.07305951
v 0.39490870 -0.24494380 0.07339130
v 0.37569299 -0.27574781 0.07223725
v 0.37287295 -0.28181905 0.07119861
v 0.37569299 -0.28507859 0.06731813
v 0.36703610 -0.28848743 0.06867413
v 0.36054343 -0.30028152 0.06037942
v 0.36106807 -0.30053034 0.05496982
v 0.37490600 -0.29348874 0.05496982
v 0.37490600 -0.29376245 0.04495845
v 0.37490600 -0.29376245 -0.04498513
v 0.36093691 -0.30048060 -0.05499650
v 0.36664259 -0.28833812 -0.06854213
v 0.37556183 -0.28497905 -0.06709957
v 0.36041224 -0.30020690 -0.06030511
v 0.35490331 -0.29630041 -0.06665238
v 0.37267619 -0.28166974 -0.07108103
v 0.37556183 -0.27559853 -0.07200427
v 0.39490870 -0.24494380 -0.07301407
v 0.40487725 -0.23499097 -0.07266785
v -0.18084082 -0.20503296 -0.07347569
v 0.36493745 -0.27495158 -0.07343241
v 0.25488988 -0.32496455 -0.07347569
v 0.15494201 -0.33494225 -0.07347569
v 0.10516483 -0.33494225 -0.07347569
v -0.15493572 -0.25494641 -0.07347569
v -0.18084082 -0.24494380 -0.07347569
v -0.18084082 -0.10383756 -0.07044631
v -0.18084082 -0.10383756 0.07083797
v -0.18084082 -0.25494641 0.07380965
v 0.10516483 -0.34375051 0.07190546
v 0.11506779 -0.34380028 0.07190546
v 0.09506510 -0.33494225 0.07365096
v 0.16497615 -0.33494225 0.07382407
v 0.26485842 -0.32496455 0.07380965
v 0.28492671 -0.31496197 0.07380965
v 0.36493745 -0.27495158 0.07379522
v 0.35490331 -0.28495419 0.07295854
v 0.36415046 -0.28507859 0.07158811
v 0.35490331 -0.29152304 0.07102551
v 0.36034667 -0.29017940 0.07015997
v 0.28040150 -0.33018979 0.07017440
v 0.28702533 -0.32852268 0.06867413
v 0.35490331 -0.29652435 0.06681323
v 0.30060095 -0.33028930 0.06039384
v 0.36126482 -0.30062988 0.04495845
v 0.30112559 -0.33053812 0.05496982
v 0.36126482 -0.30062988 -0.04498513
v 0.30132234 -0.33063766 -0.04498513
v 0.28099173 -0.34049097 -0.05499650
v 0.28046709 -0.34021726 -0.06033397
v 0.36008435 -0.29000524 -0.07004239
v 0.32014453 -0.31003529 -0.07005682
v 0.27489257 -0.33631077 -0.06668123
v 0.28676301 -0.32834852 -0.06857099
v 0.35490331 -0.29127422 -0.07082137
v 0.31489795 -0.31130430 -0.07086466
v 0.27489257 -0.33133435 -0.07086466
v 0.30401123 -0.31501171 -0.07138398
v 0.34401661 -0.29498166 -0.07138398
v 0.35490331 -0.28495419 -0.07259572
v 0.27489257 -0.32496455 -0.07259572
v 0.26485842 -0.32496455 -0.07343241
v 0.16497615 -0.33494225 -0.07344683
v 0.11506779 -0.34350169 -0.07174461
v 0.10516483 -0.34345192 -0.07174461
v 0.09506510 -0.33494225 -0.07327373
v -0.18084082 -0.25494641 -0.07344683
v -0.18084082 -0.26278424 0.07189104
v 0.09506510 -0.34278011 0.07171793
v 0.10516483 -0.34875181 0.06909247
v 0.11506779 -0.34882647 0.06917903
v 0.16497615 -0.34273034 0.07189104
v 0.15494201 -0.34290451 0.07190546
v 0.17494470 -0.33494225 0.07375194
v 0.26420259 -0.33509156 0.07158811
v 0.27489257 -0.32496455 0.07297296
v 0.18491325 -0.33494225 0.07363654
v 0.19494739 -0.33494225 0.07349228
v 0.20498152 -0.33494225 0.07333360
v 0.22491863 -0.33494225 0.07295854
v 0.24492131 -0.33494225 0.07255462
v 0.25488988 -0.33494225 0.07230938
v 0.34421337 -0.29508120 0.07158811
v 0.28420529 -0.32508898 0.07160253
v 0.33490062 -0.30152565 0.07103993
v 0.27489257 -0.33155829 0.07103993
v 0.26033324 -0.34014261 0.07015997
v 0.26695707 -0.33850038 0.06868856
v 0.27489257 -0.33653471 0.06682765
v 0.28053266 -0.34029192 0.06040827
v 0.28112292 -0.34054074 0.05496982
v 0.30132234 -0.33063766 0.04495845
v 0.27489257 -0.34385005 -0.04498513
v 0.27489257 -0.34345192 -0.05499650
v 0.26407143 -0.34825417 -0.05490994
v 0.25823459 -0.34984663 -0.05821341
v 0.27489257 -0.34151113 -0.06168997
v 0.26662916 -0.33835110 -0.06858541
v 0.28007358 -0.33004048 -0.07005682
v 0.26394027 -0.33499202 -0.07138398
v 0.25993973 -0.34001821 -0.07004239
v 0.25488988 -0.33494225 -0.07193214
v 0.24492131 -0.33494225 -0.07217738
v 0.23488718 -0.33494225 -0.07240819
v 0.21488449 -0.33494225 -0.07279769
v 0.19494739 -0.33494225 -0.07314390
v 0.18491325 -0.33494225 -0.07327373
v 0.17494470 -0.33494225 -0.07338914
v 0.16497615 -0.34248152 -0.07171576
v 0.14510462 -0.34285477 -0.07174461
v 0.11506779 -0.34850299 -0.06896047
v 0.10516483 -0.34845322 -0.06891720
v 0.09506510 -0.34253129 -0.07154266
v -0.18084082 -0.26253542 -0.07170134
v -0.18084082 -0.26776066 0.06789515
v 0.09506510 -0.34778142 0.06805383
v 0.08509655 -0.34113789 0.07086682
v 0.10516483 -0.35362870 0.06410122
v 0.19494739 -0.34200877 0.07155925
v 0.18491325 -0.34225759 0.07170351
v 0.17494470 -0.34250641 0.07180449
v 0.11506779 -0.35357893 0.06415892
v 0.16497615 -0.34773165 0.06783745
v 0.23488718 -0.34093884 0.07083797
v 0.22491863 -0.34121254 0.07103993
v 0.24492131 -0.34066513 0.07060716
v 0.25488988 -0.34039143 0.07037635
v 0.26420259 -0.34317821 0.06521199
v 0.27489257 -0.34161067 0.06183640
v 0.25548011 -0.34626359 0.06411564
v 0.25928390 -0.34992129 0.05889358
v 0.26407143 -0.34832883 0.05531603
v 0.27489257 -0.34355146 0.05496982
v 0.27489257 -0.34385005 0.04495845
v 0.26525193 -0.34815463 -0.04498513
v 0.26013649 -0.35004568 -0.05153435
v 0.25488988 -0.35019496 -0.05490994
v 0.24492131 -0.35071748 -0.05499650
v 0.11506779 -0.35743564 -0.05499650
v 0.25154516 -0.35004568 -0.06011758
v 0.26394027 -0.34300405 -0.06515212
v 0.25488988 -0.34606454 -0.06405577
v 0.25488988 -0.34019238 -0.07020108
v 0.24492131 -0.34049097 -0.07044631
v 0.22491863 -0.34101349 -0.07086466
v 0.21488449 -0.34128720 -0.07105219
v 0.19494739 -0.34180972 -0.07139840
v 0.18491325 -0.34208342 -0.07154266
v 0.17494470 -0.34228247 -0.07164364
v 0.16497615 -0.34750772 -0.06764775
v 0.11506779 -0.35347942 -0.06398364
v 0.10516483 -0.35352916 -0.06389709
v 0.09506510 -0.34753260 -0.06786413
v 0.08509655 -0.34091395 -0.07069155
v -0.18084082 -0.26711375 -0.06808051
v -0.18084082 -0.27231407 0.06290390
v 0.09506510 -0.35263342 0.06307700
v 0.10516483 -0.35760981 0.05496982
v 0.19494739 -0.34701008 0.06702962
v 0.18491325 -0.34725890 0.06730370
v 0.11506779 -0.35753518 0.05496982
v 0.21488449 -0.35104096 0.06146134
v 0.20498152 -0.34673637 0.06676996
v 0.21488449 -0.34646267 0.06646702
v 0.24492131 -0.34566644 0.06547165
v 0.25252891 -0.35007057 0.06019188
v 0.11506779 -0.35788351 0.04495845
v 0.12510192 -0.35736102 0.04495845
v 0.25548011 -0.35021985 0.05531603
v 0.26013649 -0.35004568 0.05222895
v 0.26525193 -0.34815463 0.04495845
v 0.25488988 -0.35044378 -0.04498513
v 0.12510192 -0.35736102 -0.04498513
v 0.11506779 -0.35788351 -0.04498513
v 0.10516483 -0.35800794 -0.04498513
v 0.10516483 -0.35753518 -0.05499650
v 0.22491863 -0.35069263 -0.06099755
v 0.23488718 -0.35044378 -0.06068018
v 0.22491863 -0.34601480 -0.06600323
v 0.23488718 -0.34574109 -0.06567144
v 0.20498152 -0.34653729 -0.06658025
v 0.19494739 -0.34681100 -0.06685434
v 0.09506510 -0.35253388 -0.06287287
v -0.18084082 -0.26753673 -0.06770544
v -0.18084082 -0.27500135 0.05496982
v 0.07965320 -0.35007057 0.06014860
v 0.09506510 -0.35566902 0.05496982
v 0.10516483 -0.35800794 0.04495845
v 0.24492131 -0.35029450 0.06045154
v 0.22491863 -0.35079214 0.06114397
v 0.25488988 -0.35044378 0.04495845
v 0.09506510 -0.35601738 -0.04498513
v 0.09506510 -0.35556948 -0.05499650
v 0.07984994 -0.35004568 -0.06008873
v -0.18084082 -0.27218968 -0.06271419
v -0.18084082 -0.27181643 -0.06313253
v -0.18084082 -0.27505112 0.05411871
v -0.18084082 -0.27539945 0.04495845
v 0.09506510 -0.35601738 0.04495845
v -0.18084082 -0.27539945 -0.04498513
v -0.18084082 -0.27490181 -0.05499650
v -0.18084082 -0.27472764 -0.05558795
f 1 2 6
f 1 6 15
f 1 15 32
f 1 32 63
f 1 63 101
f 1 101 139
f 1 139 181
f 1 181 182
f 1 182 140
f 1 140 102
f 1 102 65
f 1 65 64
f 1 64 34
f 1 34 33
f 1 33 16
f 1 16 7
f 1 7 3
f 1 3 4
f 1 4 2
f 2 4 5
f 2 5 6
f 3 7 8
f 3 8 9
f 3 9 4
f 4 9 10
f 4 10 11
f 4 11 12
f 4 12 5
f 5 12 13
f 5 13 14
f 5 14 6
f 6 14 15
f 7 16 8
f 8 16 17
f 8 17 18
f 8 18 9
f 9 18 19
f 9 19 20
f 9 20 21
f 9 21 22
f 9 22 10
f 10 22 23
f 10 23 11
f 11 23 24
f 11 24 25
f 11 25 12
f 12 25 13
f 13 25 26
f 13 26 27
f 13 27 14
f 14 27 28
f 14 28 29
f 14 29 30
f 14 30 31
f 14 31 15
f 15 31 32
f 16 33 17
f 17 34 35
f 17 35 36
f 17 36 37
f 17 37 38
f 17 38 18
f 17 33 34
f 18 38 19
f 19 39 40
f 19 40 21
f 19 21 20
f 19 38 39
f 21 40 22
f 22 41 23
f 22 40 42
f 22 42 43
f 22 43 44
f 22 44 45
f 22 45 46
f 22 46 47
f 22 47 41
f 23 41 24
f 24 41 48
f 24 48 49
f 24 49 25
f 25 49 50
f 25 50 26
f 26 50 27
f 27 51 52
f 27 52 53
f 27 53 54
f 27 54 55
f 27 55 56
f 27 56 28
f 27 50 51
f 28 56 57
f 28 57 58
f 28 58 29
f 29 58 30
f 30 58 59
f 30 59 31
f 31 59 60
f 31 60 61
f 31 61 32
f 32 61 62
f 32 62 63
f 34 64 35
f 35 64 65
f 35 65 66
f 35 66 67
f 35 67 36
f 36 67 68
f 36 68 37
f 37 68 38
f 38 68 39
f 39 68 69
f 39 69 70
f 39 70 71
f 39 71 72
f 39 72 73
f 39 73 74
f 39 74 42
f 39 42 40
f 41 47 48
f 42 75 43
f 42 74 75
f 43 75 76
f 43 76 77
f 43 77 44
f 44 77 45
f 45 77 78
f 45 78 46
f 46 78 79
f 46 79 80
f 46 80 81
f 46 81 82
f 46 82 47
f 47 82 48
f 48 82 83
f 48 83 49
f 49 83 50
f 50 83 51
f 51 83 52
f 52 84 85
f 52 85 86
f 52 86 87
f 52 87 53
f 52 83 84
f 53 55 54
f 53 87 88
f 53 88 55
f 55 88 89
f 55 89 90
f 55 90 91
f 55 91 56
f 56 91 57
f 57 92 59
f 57 59 58
f 57 91 90
f 57 90 93
f 57 93 94
f 57 94 95
f 57 95 96
f 57 96 97
f 57 97 98
f 57 98 92
f 59 92 60
f 60 92 61
f 61 92 99
f 61 99 62
f 62 99 100
f 62 100 63
f 63 100 101
f 65 102 66
f 66 102 103
f 66 103 104
f 66 104 105
f 66 105 67
f 67 105 68
f 68 105 69
f 69 105 106
f 69 106 70
f 70 106 107
f 70 107 108
f 70 108 71
f 71 108 109
f 71 109 72
f 72 109 73
f 73 109 110
f 73 110 74
f 74 110 111
f 74 111 112
f 74 112 113
f 74 113 76
f 74 76 75
f 76 113 77
f 77 113 78
f 78 114 115
f 78 115 116
f 78 116 117
f 78 117 79
f 78 113 114
f 79 117 118
f 79 118 80
f 80 85 84
f 80 84 81
f 80 118 119
f 80 119 120
f 80 120 85
f 81 84 83
f 81 83 82
f 85 120 86
f 86 120 121
f 86 121 122
f 86 122 87
f 87 122 123
f 87 123 124
f 87 124 125
f 87 125 126
f 87 126 127
f 87 127 88
f 88 127 90
f 88 90 89
f 90 127 126
f 90 126 128
f 90 128 129
f 90 129 93
f 92 98 99
f 93 129 94
f 94 129 130
f 94 130 95
f 95 130 131
f 95 131 132
f 95 132 96
f 96 133 97
f 96 132 133
f 97 133 98
f 98 134 100
f 98 100 99
f 98 133 135
f 98 135 136
f 98 136 137
f 98 137 138
f 98 138 134
f 100 134 101
f 101 134 139
f 102 140 103
f 103 105 104
f 103 140 141
f 103 141 142
f 103 142 143
f 103 143 144
f 103 144 145
f 103 145 146
f 103 146 147
f 103 147 148
f 103 148 149
f 103 149 150
f 103 150 105
f 105 150 151
f 105 151 152
f 105 152 153
f 105 153 106
f 106 153 154
f 106 154 107
f 107 154 155
f 107 155 151
f 107 151 156
f 107 156 108
f 108 156 157
f 108 157 115
f 108 115 109
f 109 115 110
f 110 115 112
f 110 112 111
f 112 114 113
f 112 115 114
f 115 157 158
f 115 158 117
f 115 117 116
f 117 158 159
f 117 159 160
f 117 160 161
f 117 161 162
f 117 162 118
f 118 162 163
f 118 163 119
f 119 163 164
f 119 164 120
f 120 164 121
f 121 164 165
f 121 165 122
f 122 166 167
f 122 167 124
f 122 124 123
f 122 165 168
f 122 168 169
f 122 169 166
f 124 167 170
f 124 170 131
f 124 131 130
f 124 130 126
f 124 126 125
f 126 130 129
f 126 129 128
f 131 170 171
f 131 171 132
f 132 171 136
f 132 136 172
f 132 172 173
f 132 173 133
f 133 173 172
f 133 172 135
f 134 138 174
f 134 174 139
f 135 172 136
f 136 171 137
f 137 171 175
f 137 175 176
f 137 176 138
f 138 176 177
f 138 177 178
f 138 178 179
f 138 179 180
f 138 180 174
f 139 174 181
f 140 182 141
f 141 182 181
f 141 181 174
f 141 174 180
f 141 180 221
f 141 221 268
f 141 268 309
f 141 309 338
f 141 338 350
f 141 350 349
f 141 349 356
f 141 356 355
f 141 355 354
f 141 354 352
f 141 352 351
f 141 351 339
f 141 339 310
f 141 310 269
f 141 269 222
f 141 222 183
f 141 183 142
f 142 183 143
f 143 183 144
f 144 184 185
f 144 185 145
f 144 183 186
f 144 186 184
f 145 185 187
f 145 187 146
f 146 187 188
f 146 188 189
f 146 189 147
f 147 190 149
f 147 149 148
f 147 189 190
f 149 190 156
f 149 156 151
f 149 151 150
f 151 155 152
f 152 155 153
f 153 155 154
f 156 190 191
f 156 191 157
f 157 159 158
f 157 191 192
f 157 192 193
f 157 193 194
f 157 194 159
f 159 194 195
f 159 195 196
f 159 196 197
f 159 197 160
f 160 197 198
f 160 198 161
f 161 199 163
f 161 163 162
f 161 198 200
f 161 200 246
f 161 246 199
f 163 199 201
f 163 201 164
f 164 201 165
f 165 201 202
f 165 202 203
f 165 203 204
f 165 204 168
f 166 170 167
f 166 169 205
f 166 205 170
f 168 204 169
f 169 206 205
f 169 204 207
f 169 207 208
f 169 208 206
f 170 205 209
f 170 209 210
f 170 210 211
f 170 211 212
f 170 212 213
f 170 213 214
f 170 214 171
f 171 214 175
f 175 214 215
f 175 215 216
f 175 216 176
f 176 216 217
f 176 217 177
f 177 217 218
f 177 218 178
f 178 218 219
f 178 219 220
f 178 220 221
f 178 221 179
f 179 221 180
f 183 222 186
f 184 186 223
f 184 223 224
f 184 224 225
f 184 225 185
f 185 225 226
f 185 226 227
f 185 227 187
f 186 222 223
f 187 227 226
f 187 226 228
f 187 228 188
f 188 229 230
f 188 230 189
f 188 228 231
f 188 231 232
f 188 232 233
f 188 233 234
f 188 234 235
f 188 235 236
f 188 236 229
f 189 230 191
f 189 191 190
f 191 237 192
f 191 230 238
f 191 238 237
f 192 237 239
f 192 239 193
f 193 239 194
f 194 239 195
f 195 240 241
f 195 241 242
f 195 242 196
f 195 239 240
f 196 242 243
f 196 243 197
f 197 243 198
f 198 243 244
f 198 244 245
f 198 245 200
f 199 246 202
f 199 202 201
f 200 245 246
f 202 246 288
f 202 288 247
f 202 247 203
f 203 247 248
f 203 248 204
f 204 248 249
f 204 249 250
f 204 250 251
f 204 251 252
f 204 252 207
f 205 206 210
f 205 210 209
f 206 208 253
f 206 253 211
f 206 211 210
f 207 252 208
f 208 252 253
f 211 254 212
f 211 253 255
f 211 255 254
f 212 254 215
f 212 215 214
f 212 214 213
f 215 254 216
f 216 254 256
f 216 256 257
f 216 257 258
f 216 258 259
f 216 259 260
f 216 260 261
f 216 261 262
f 216 262 217
f 217 262 263
f 217 263 264
f 217 264 218
f 218 264 263
f 218 263 265
f 218 265 219
f 219 266 267
f 219 267 220
f 219 265 266
f 220 267 221
f 221 267 268
f 222 269 270
f 222 270 271
f 222 271 223
f 223 271 270
f 223 270 224
f 224 270 272
f 224 272 225
f 225 273 274
f 225 274 275
f 225 275 226
f 225 272 276
f 225 276 277
f 225 277 278
f 225 278 279
f 225 279 273
f 226 275 232
f 226 232 231
f 226 231 228
f 229 236 241
f 229 241 240
f 229 240 238
f 229 238 230
f 232 275 233
f 233 275 274
f 233 274 234
f 234 274 235
f 235 274 273
f 235 273 236
f 236 273 279
f 236 279 278
f 236 278 280
f 236 280 281
f 236 281 241
f 237 238 239
f 238 240 239
f 241 282 283
f 241 283 242
f 241 281 284
f 241 284 285
f 241 285 282
f 242 283 243
f 243 283 244
f 244 283 285
f 244 285 286
f 244 286 287
f 244 287 245
f 245 287 288
f 245 288 246
f 247 288 325
f 247 325 289
f 247 289 248
f 248 289 249
f 249 289 290
f 249 290 250
f 250 290 291
f 250 291 292
f 250 292 293
f 250 293 294
f 250 294 295
f 250 295 251
f 251 295 255
f 251 255 252
f 252 255 253
f 254 255 256
f 255 296 294
f 255 294 297
f 255 297 256
f 255 295 296
f 256 297 298
f 256 298 299
f 256 299 300
f 256 300 301
f 256 301 257
f 257 301 258
f 258 301 302
f 258 302 259
f 259 302 260
f 260 302 303
f 260 303 261
f 261 303 263
f 261 263 262
f 263 303 265
f 265 304 305
f 265 305 306
f 265 306 266
f 265 303 302
f 265 302 301
f 265 301 300
f 265 300 299
f 265 299 304
f 266 306 307
f 266 307 267
f 267 307 308
f 267 308 268
f 268 308 307
f 268 307 309
f 269 310 311
f 269 311 270
f 270 311 272
f 272 311 312
f 272 312 276
f 276 313 314
f 276 314 277
f 276 312 315
f 276 315 316
f 276 316 313
f 277 314 281
f 277 281 280
f 277 280 278
f 281 314 313
f 281 313 317
f 281 317 318
f 281 318 319
f 281 319 284
f 282 285 283
f 284 319 320
f 284 320 285
f 285 320 315
f 285 315 321
f 285 321 322
f 285 322 323
f 285 323 324
f 285 324 286
f 286 324 325
f 286 325 287
f 287 325 288
f 289 325 324
f 289 324 290
f 290 292 291
f 290 324 345
f 290 345 326
f 290 326 327
f 290 327 292
f 292 327 328
f 292 328 293
f 293 328 329
f 293 329 330
f 293 330 305
f 293 305 331
f 293 331 294
f 294 331 332
f 294 332 333
f 294 333 334
f 294 334 297
f 294 296 295
f 297 334 333
f 297 333 335
f 297 335 336
f 297 336 298
f 298 336 304
f 298 304 299
f 304 336 305
f 305 330 306
f 305 336 331
f 306 330 337
f 306 337 307
f 307 337 338
f 307 338 309
f 310 339 340
f 310 340 311
f 311 340 341
f 311 341 312
f 312 342 315
f 312 341 342
f 313 316 317
f 315 342 321
f 315 320 343
f 315 343 344
f 315 344 316
f 316 344 317
f 317 344 318
f 318 344 343
f 318 343 319
f 319 343 320
f 321 328 327
f 321 327 322
f 321 342 329
f 321 329 328
f 322 345 324
f 322 324 323
f 322 327 326
f 322 326 345
f 329 342 353
f 329 353 346
f 329 346 347
f 329 347 330
f 330 347 337
f 331 333 332
f 331 336 335
f 331 335 333
f 337 347 348
f 337 348 349
f 337 349 350
f 337 350 338
f 339 351 341
f 339 341 340
f 341 351 352
f 341 352 353
f 341 353 342
f 346 353 352
f 346 352 354
f 346 354 347
f 347 354 355
f 347 355 348
f 348 355 356
f 348 356 349

