# https://github.com/mikedh/trimesh
v 0.02324891 -0.08406847 0.50757575
v 0.05355194 -0.06891695 0.50757575
v -0.03735715 0.08259820 0.50757575
v 0.03840043 -0.08406847 0.46212121
v 0.03840043 -0.08406847 0.49242424
v 0.03840043 0.08259820 0.46212121
v -0.08281169 -0.03861392 0.46212121
v 0.05355194 0.06744668 0.50757575
v 0.04691274 0.05900381 0.46327670
v -0.08281169 -0.03861392 0.50757575
v 0.00809740 -0.08406847 0.50757575
v -0.06766018 0.06744668 0.46212121
v 0.03840043 0.08259820 0.50757575
v 0.04568321 -0.05841316 0.46384360
v -0.06766018 -0.05376544 0.50757575
v -0.03735715 0.08259820 0.46212121
v -0.08281169 0.03714365 0.50757575
v -0.06766018 0.06744668 0.49242424
v -0.08281169 0.03714365 0.46212121
f 1 2 3
f 5 2 1
f 5 1 4
f 5 4 2
f 7 6 4
f 8 3 2
f 9 4 6
f 9 8 2
f 9 6 8
f 10 1 3
f 11 7 4
f 11 4 1
f 11 1 10
f 12 6 7
f 13 8 6
f 13 6 3
f 13 3 8
f 14 9 2
f 14 2 4
f 14 4 9
f 15 11 10
f 15 10 7
f 15 7 11
f 16 12 3
f 16 3 6
f 16 6 12
f 17 10 3
f 17 7 10
f 18 17 3
f 18 3 12
f 18 12 17
f 19 17 12
f 19 12 7
f 19 7 17