# https://github.com/mikedh/trimesh
v -0.08377647 0.05268500 0.26635690
v -0.05210494 0.12659792 0.18930672
v -0.05250866 0.11290123 0.26515152
v -0.09796321 0.12805274 0.21969697
v -0.12409051 0.05155141 0.18920513
v -0.05250866 0.12805274 0.25000000
v -0.09796321 0.09774971 0.26515152
v -0.05300139 0.08379106 0.26677226
v -0.12826624 0.09774971 0.18939394
v -0.09796321 0.12805274 0.18939394
v -0.12826624 0.05229517 0.25000000
v -0.08281169 0.11290123 0.26515152
v -0.08281169 0.05229517 0.23484849
v -0.12826624 0.08259820 0.23484849
v -0.11311472 0.05229517 0.26515152
v -0.06766018 0.12805274 0.25000000
v -0.09796321 0.11290123 0.25000000
v -0.11311472 0.11290123 0.21969697
v -0.12826624 0.06744668 0.25000000
v -0.11311472 0.06744668 0.26515152
v -0.11311472 0.09774971 0.25000000
v -0.12826624 0.09774971 0.20454546
f 6 3 2
f 8 2 3
f 8 7 1
f 10 6 2
f 10 4 6
f 10 9 4
f 10 2 5
f 10 5 9
f 11 9 5
f 12 3 6
f 12 8 3
f 12 7 8
f 13 5 2
f 13 2 8
f 13 8 1
f 14 9 11
f 15 11 5
f 15 13 1
f 15 5 13
f 16 12 6
f 16 6 4
f 16 4 12
f 17 12 4
f 17 7 12
f 19 14 11
f 19 11 15
f 20 15 1
f 20 1 7
f 20 19 15
f 20 7 19
f 21 7 17
f 21 19 7
f 21 14 19
f 21 18 14
f 21 17 4
f 21 4 18
f 22 9 14
f 22 14 18
f 22 18 4
f 22 4 9