# https://github.com/mikedh/trimesh
v 0.05355194 -0.12952301 0.25000000
v 0.05590426 -0.12376314 0.19001425
v 0.04717939 -0.06034971 0.28707914
v -0.04062751 -0.05835516 0.31065974
v -0.08281169 -0.12952301 0.21969697
v -0.10803770 -0.08115369 0.21833328
v 0.05355194 -0.08406847 0.29545454
v 0.05254217 -0.12463830 0.18913486
v -0.02220563 -0.08406847 0.31060606
v -0.00705412 -0.05376544 0.28030303
v -0.11311472 -0.09921998 0.25000000
v 0.02308481 -0.06840114 0.31063970
v 0.05614327 -0.07372301 0.27274699
v -0.05123801 -0.12265620 0.18873232
v -0.05250866 -0.12952301 0.25000000
v -0.08079491 -0.06731049 0.26174406
v -0.00705412 -0.05376544 0.31060606
v -0.10260330 -0.09040541 0.21665176
v -0.09796321 -0.09921998 0.26515152
v 0.02034321 -0.06920418 0.31075320
v -0.09796321 -0.11437150 0.25000000
v -0.08281169 -0.06891695 0.28030303
v -0.05394100 -0.12193765 0.19037643
v -0.08281169 -0.08406847 0.28030303
v -0.08281169 -0.12952301 0.23484849
v -0.06766018 -0.11437150 0.26515152
v -0.11311472 -0.08406847 0.25000000
v -0.06766018 -0.09921998 0.28030303
f 8 2 1
f 8 1 5
f 8 6 2
f 9 1 7
f 10 3 2
f 10 2 6
f 12 7 3
f 13 7 1
f 13 1 2
f 13 2 3
f 13 3 7
f 14 8 5
f 14 6 8
f 15 5 1
f 15 1 9
f 16 10 6
f 16 4 10
f 17 10 4
f 17 3 10
f 17 12 3
f 18 11 6
f 18 5 11
f 20 9 7
f 20 7 12
f 20 4 9
f 20 17 4
f 20 12 17
f 21 11 5
f 21 19 11
f 22 4 16
f 22 11 19
f 23 14 5
f 23 5 18
f 23 18 6
f 23 6 14
f 24 19 9
f 24 9 4
f 24 22 19
f 24 4 22
f 25 21 5
f 25 5 15
f 25 15 21
f 26 21 15
f 26 15 9
f 26 19 21
f 27 22 16
f 27 16 6
f 27 6 11
f 27 11 22
f 28 26 9
f 28 9 19
f 28 19 26