# https://github.com/mikedh/trimesh
v 0.10675813 -0.09077680 -0.35394939
v 0.14446103 -0.08406847 -0.49242422
v 0.14446103 -0.06891695 -0.35606059
v 0.11650783 0.08370252 -0.35559344
v 0.11415800 -0.06891695 -0.46212119
v 0.14446103 0.06744668 -0.37121210
v 0.14446103 0.06744668 -0.35606059
v 0.14446103 -0.08406847 -0.40151513
v 0.12319352 -0.08927857 -0.46225164
v 0.09900648 -0.06891695 -0.37121210
v 0.14446103 0.05229517 -0.50757573
v 0.11982481 0.08531164 -0.36948001
v 0.12252835 -0.08015614 -0.48974726
v 0.09900648 -0.06891695 -0.35606059
v 0.13013719 0.05229936 -0.49631422
v 0.14446103 -0.06891695 -0.50757573
v 0.09900648 -0.08406847 -0.37121210
v 0.12618147 -0.06772105 -0.49682247
f 6 3 2
f 7 1 3
f 7 4 1
f 7 3 6
f 8 2 3
f 8 3 1
f 9 8 1
f 9 2 8
f 11 6 2
f 12 7 6
f 12 4 7
f 12 6 11
f 13 2 9
f 14 1 4
f 14 4 10
f 15 10 4
f 15 5 10
f 15 12 11
f 15 4 12
f 15 13 5
f 16 11 2
f 16 2 13
f 17 10 5
f 17 5 13
f 17 14 10
f 17 1 14
f 17 13 9
f 17 9 1
f 18 15 11
f 18 11 16
f 18 16 13
f 18 13 15