# https://github.com/mikedh/trimesh
v -0.05250866 -0.14467452 -0.38636362
v -0.05119666 -0.13148937 -0.46205670
v -0.05044349 -0.10879660 -0.27833587
v -0.12283046 -0.05227538 -0.28076639
v -0.12826624 -0.11437150 -0.46212119
v -0.05250866 -0.09921998 -0.35606059
v -0.05044307 -0.11127195 -0.30934110
v -0.11311472 -0.12952301 -0.46212119
v -0.12577604 -0.08325252 -0.46212943
v -0.05250866 -0.11437150 -0.46212119
v -0.06766018 -0.14467452 -0.38636362
v -0.12826624 -0.08406847 -0.28030301
v -0.06536980 -0.12972859 -0.46222192
v -0.12819595 -0.05375489 -0.37122606
v -0.05362566 -0.11021482 -0.28131097
v -0.11311472 -0.12952301 -0.38636362
v -0.12172675 -0.05608608 -0.27974667
v -0.09018500 -0.10486450 -0.28111500
v -0.12826624 -0.11437150 -0.38636362
v -0.11311472 -0.11437150 -0.32575756
v -0.09796321 -0.12952301 -0.35606059
f 6 4 3
f 7 1 2
f 7 3 1
f 7 6 3
f 10 7 2
f 10 6 7
f 11 8 2
f 11 2 1
f 13 8 5
f 13 5 9
f 13 9 10
f 13 10 2
f 13 2 8
f 14 10 9
f 14 4 6
f 14 6 10
f 14 12 4
f 14 9 5
f 14 5 12
f 15 11 1
f 15 1 3
f 16 5 8
f 16 8 11
f 17 12 3
f 17 3 4
f 17 4 12
f 18 15 3
f 18 3 12
f 18 11 15
f 19 12 5
f 19 5 16
f 20 18 12
f 20 19 16
f 20 12 19
f 21 20 16
f 21 16 11
f 21 11 18
f 21 18 20