# https://github.com/mikedh/trimesh
v 0.05961661 0.04541297 0.28973347
v 0.07295043 0.05559697 0.27295510
v 0.03840043 0.08259820 0.31060606
v -0.02220563 0.14320426 0.23484849
v -0.09483497 0.03672522 0.26130009
v 0.05355194 0.12805274 0.25000000
v 0.06870346 0.06744668 0.29545454
v -0.05250866 0.03714365 0.26515152
v -0.06273487 0.03457639 0.31068720
v 0.05145007 0.12164111 0.21808902
v 0.02324891 0.12805274 0.26515152
v 0.05233050 0.05096360 0.31067689
v 0.06870346 0.09774971 0.28030303
v -0.03735715 0.08259820 0.31060606
v -0.03735715 0.03714365 0.28030303
v 0.02324891 0.14320426 0.21969697
v -0.06766018 0.05229517 0.25000000
v -0.03735715 0.03714365 0.31060606
v 0.05550207 0.11955604 0.22149233
v -0.09796321 0.06744668 0.28030303
v -0.00705412 0.12805274 0.26515152
v -0.05678670 0.04424638 0.31139435
v 0.02324891 0.14320426 0.23484849
v -0.05117515 0.12357222 0.21829238
v -0.05250866 0.12805274 0.25000000
v -0.09796321 0.03714365 0.28030303
v 0.04512468 0.05782868 0.31113156
v -0.02220563 0.14320426 0.21969697
v -0.09167460 0.06418342 0.25651883
v -0.06766018 0.09774971 0.28030303
v -0.05469712 0.12087869 0.22283976
f 7 1 2
f 8 2 1
f 9 5 8
f 12 7 3
f 12 1 7
f 13 3 7
f 13 11 3
f 13 6 11
f 13 7 2
f 14 3 11
f 15 9 8
f 15 8 1
f 15 1 9
f 17 10 2
f 17 2 8
f 17 8 5
f 18 9 1
f 18 1 12
f 19 6 13
f 19 16 6
f 19 10 16
f 19 13 2
f 19 2 10
f 21 14 11
f 21 11 4
f 22 18 12
f 22 9 18
f 22 20 9
f 22 14 20
f 23 11 6
f 23 6 16
f 23 16 4
f 23 4 11
f 24 10 17
f 24 17 5
f 25 21 4
f 25 14 21
f 26 20 5
f 26 5 9
f 26 9 20
f 27 22 12
f 27 12 3
f 27 3 14
f 27 14 22
f 28 16 10
f 28 10 24
f 28 4 16
f 28 25 4
f 28 24 25
f 29 24 5
f 29 5 20
f 30 25 20
f 30 20 14
f 30 14 25
f 31 25 24
f 31 20 25
f 31 29 20
f 31 24 29