# https://github.com/mikedh/trimesh
v 0.05355194 -0.14467452 -0.35606059
v 0.05402790 -0.13263607 -0.46224046
v 0.05355194 -0.11437150 -0.38636362
v -0.05249885 -0.11554532 -0.35578482
v -0.06766018 -0.14467452 -0.49242422
v 0.05569628 -0.12452582 -0.35449838
v -0.05250866 -0.14467452 -0.37121210
v -0.06614257 -0.12289709 -0.48903385
v -0.03735715 -0.14467452 -0.35606059
v -0.06761352 -0.12928982 -0.46212118
v -0.00701494 -0.12884672 -0.49216735
v -0.05250866 -0.11437150 -0.40151513
v -0.03735715 -0.11437150 -0.40151513
f 5 2 1
f 6 3 4
f 6 1 2
f 6 2 3
f 7 5 1
f 9 6 4
f 9 1 6
f 9 7 1
f 9 4 7
f 10 7 4
f 10 5 7
f 10 8 5
f 10 4 8
f 11 8 3
f 11 3 2
f 11 2 5
f 11 5 8
f 12 8 4
f 12 4 3
f 13 12 3
f 13 3 8
f 13 8 12