# https://github.com/mikedh/trimesh
v 0.11415800 0.05229517 0.26515152
v 0.12705814 0.05170782 0.18922330
v 0.12930951 0.09774971 0.20454546
v 0.05355194 0.12805274 0.25000000
v 0.05355194 0.06744668 0.25000000
v 0.05268896 0.12507947 0.18917366
v 0.09900648 0.11290123 0.25000000
v 0.12930951 0.05229517 0.25000000
v 0.06870346 0.05229517 0.25000000
v 0.05684971 0.07158141 0.27359171
v 0.09900648 0.12805274 0.18939394
v 0.05355194 0.11290123 0.26515152
v 0.12930951 0.09774971 0.18939394
v 0.11415800 0.09774971 0.25000000
v 0.07295043 0.05559697 0.27295510
v 0.11415800 0.11290123 0.21969697
v 0.08385497 0.12805274 0.23484849
v 0.06870346 0.12805274 0.25000000
v 0.09900648 0.09774971 0.26515152
v 0.12930951 0.06744668 0.25000000
v 0.09900648 0.12805274 0.20454546
v 0.06870346 0.11290123 0.26515152
v 0.11415800 0.06744668 0.26515152
v 0.12930951 0.08259820 0.23484849
f 8 1 2
f 9 2 1
f 9 6 2
f 9 5 6
f 10 5 9
f 11 6 4
f 12 6 5
f 12 4 6
f 12 5 10
f 13 8 2
f 13 3 8
f 13 11 3
f 13 2 6
f 13 6 11
f 15 10 9
f 15 9 1
f 16 14 3
f 16 7 14
f 17 11 4
f 17 7 16
f 18 4 12
f 18 17 4
f 18 7 17
f 19 7 18
f 19 14 7
f 19 10 15
f 20 1 8
f 20 8 3
f 20 14 19
f 21 17 16
f 21 11 17
f 21 16 3
f 21 3 11
f 22 12 10
f 22 10 19
f 22 19 18
f 22 18 12
f 23 19 15
f 23 15 1
f 23 20 19
f 23 1 20
f 24 20 3
f 24 3 14
f 24 14 20