# https://github.com/mikedh/trimesh
v -0.07088534 -0.00847326 0.46101983
v 0.00882549 0.07211162 0.30998549
v 0.00837805 0.07188269 0.46080074
v -0.03735715 0.08259820 0.46212121
v -0.08281169 0.03714365 0.31060606
v 0.00744165 0.07288283 0.46438209
v -0.07038852 -0.00866205 0.31049660
v -0.08281169 0.03714365 0.46212121
v -0.03735715 0.08259820 0.31060606
v -0.07178938 -0.00754578 0.46461221
v -0.06766018 0.06744668 0.46212121
v -0.06766018 0.06744668 0.35606060
f 6 3 2
f 7 2 3
f 7 3 1
f 7 5 2
f 9 2 5
f 9 6 2
f 9 4 6
f 10 1 3
f 10 3 6
f 10 8 5
f 10 7 1
f 10 5 7
f 11 5 8
f 11 4 9
f 11 8 10
f 11 10 6
f 11 6 4
f 12 11 9
f 12 9 5
f 12 5 11