# https://github.com/mikedh/trimesh
v 0.06870346 -0.14467452 -0.37121210
v 0.12930951 -0.11437150 -0.46212119
v 0.12930951 -0.11437150 -0.37121210
v 0.11721156 -0.07898714 -0.36200160
v 0.05355194 -0.11437150 -0.43181816
v 0.12632531 -0.08299702 -0.46199289
v 0.09900648 -0.12952301 -0.35606059
v 0.08385497 -0.14467452 -0.41666665
v 0.05607119 -0.12737028 -0.36889706
v 0.12930951 -0.09921998 -0.35606059
v 0.09900648 -0.08406847 -0.38636362
v 0.05200031 -0.13292517 -0.46180855
v 0.11415800 -0.12952301 -0.38636362
v 0.09023922 -0.10830622 -0.35437129
v 0.05355194 -0.14467452 -0.37121210
v 0.10675813 -0.09077680 -0.35394939
v 0.05402790 -0.13263607 -0.46224046
v 0.11415800 -0.12952301 -0.46212119
v 0.08385497 -0.14467452 -0.46212119
v 0.12319352 -0.08927857 -0.46225164
v 0.07225602 -0.12904727 -0.46229225
f 10 3 2
f 10 2 6
f 10 6 4
f 10 7 3
f 11 6 5
f 11 4 6
f 11 5 9
f 12 5 6
f 13 2 3
f 13 3 7
f 13 7 1
f 13 1 8
f 15 1 7
f 15 14 9
f 15 7 14
f 15 9 5
f 15 5 12
f 15 8 1
f 16 11 9
f 16 4 11
f 16 9 14
f 16 10 4
f 16 14 7
f 16 7 10
f 17 12 6
f 18 13 8
f 18 2 13
f 19 15 12
f 19 8 15
f 19 18 8
f 19 12 17
f 20 17 6
f 20 6 2
f 20 2 18
f 21 19 17
f 21 18 19
f 21 20 18
f 21 17 20