# https://github.com/mikedh/trimesh
v -0.04082306 -0.05917074 0.45978994
v -0.03735715 -0.05376544 0.26515152
v -0.05250866 -0.00831089 0.46212121
v -0.07178938 -0.00754578 0.46461221
v -0.08281169 -0.03861392 0.31060606
v -0.03735715 -0.03861392 0.46212121
v -0.05554600 -0.07338706 0.27176555
v -0.08281169 -0.03861392 0.46212121
v -0.05250866 -0.00831089 0.31060606
v -0.03373040 -0.06308323 0.34120852
v -0.05250866 -0.05376544 0.26515152
v -0.05723826 -0.04596842 0.46395095
v -0.05250866 -0.06891695 0.34090909
v -0.03735715 -0.03861392 0.28030303
v -0.07061742 -0.00723116 0.31161152
v -0.04021319 -0.07638182 0.27462407
f 6 3 4
f 8 4 5
f 8 5 7
f 9 3 6
f 10 6 1
f 11 7 5
f 11 2 7
f 12 6 4
f 12 4 8
f 12 8 1
f 12 1 6
f 13 8 7
f 13 1 8
f 14 9 6
f 14 10 2
f 14 6 10
f 15 5 4
f 15 4 3
f 15 3 9
f 15 11 5
f 15 9 14
f 15 14 2
f 15 2 11
f 16 7 2
f 16 2 10
f 16 13 7
f 16 10 1
f 16 1 13