# https://github.com/mikedh/trimesh
v -0.05524459 -0.09092800 0.25889879
v -0.05250866 -0.06891695 0.25000000
v -0.05867455 0.04137045 0.31018098
v -0.12826624 0.05229517 0.25000000
v -0.12826624 -0.08406847 0.21969697
v -0.12150618 0.05116119 0.21838928
v -0.04986606 -0.05134658 0.31070581
v -0.10325575 -0.08752092 0.22139919
v -0.06112381 0.04221194 0.28799990
v -0.04600870 -0.05986172 0.28616037
v -0.09796321 -0.08406847 0.26515152
v -0.08281169 0.03714365 0.31060606
v -0.12826624 -0.08406847 0.23484849
v -0.09796321 -0.05376544 0.21969697
v -0.09040842 0.05489048 0.26039672
v -0.05252638 -0.08410981 0.26520322
v -0.06766018 -0.06891695 0.29545454
v -0.06852123 -0.01998572 0.31181880
v -0.12826624 -0.06891695 0.25000000
v -0.08377647 0.05268500 0.26635690
v -0.12029712 0.05370602 0.22166586
v -0.11311472 0.05229517 0.26515152
v -0.06766018 -0.05376544 0.31060606
v -0.09796321 -0.06891695 0.28030303
f 6 5 4
f 8 2 1
f 9 2 6
f 10 3 7
f 10 9 3
f 10 2 9
f 13 8 1
f 13 5 8
f 13 1 11
f 13 4 5
f 14 6 2
f 14 2 8
f 14 8 5
f 14 5 6
f 16 10 7
f 16 7 1
f 16 1 2
f 16 2 10
f 17 11 1
f 17 1 7
f 18 7 3
f 18 3 12
f 19 12 4
f 19 4 13
f 19 13 11
f 20 9 6
f 20 15 3
f 20 3 9
f 21 6 4
f 21 4 15
f 21 20 6
f 21 15 20
f 22 12 3
f 22 3 15
f 22 15 4
f 22 4 12
f 23 17 7
f 23 7 18
f 23 18 12
f 23 11 17
f 24 23 12
f 24 12 19
f 24 19 11
f 24 11 23