# https://github.com/mikedh/trimesh
v -0.11341480 -0.06908063 -0.23489571
v -0.11311472 -0.06891695 -0.46212119
v -0.11423204 0.08321055 -0.23476234
v -0.11715374 0.07739853 -0.23577376
v -0.14341775 -0.08406847 -0.46212119
v -0.11671064 -0.06315396 -0.23478288
v -0.11684651 -0.08660542 -0.36849006
v -0.13353912 0.05298370 -0.46264784
v -0.14341775 -0.08406847 -0.38636362
v -0.12389145 -0.08832056 -0.46183004
v -0.12124502 0.08572571 -0.36925424
v -0.14341775 -0.02346241 -0.28030301
v -0.14341775 0.06744668 -0.35606059
v -0.14341775 0.03714365 -0.28030301
v -0.14341775 0.06744668 -0.37121210
v -0.13383755 0.05110677 -0.46179202
f 1 2 3
f 6 1 3
f 6 3 4
f 7 2 1
f 8 2 5
f 9 1 6
f 9 7 1
f 10 5 2
f 10 2 7
f 10 9 5
f 10 7 9
f 11 3 2
f 11 2 8
f 12 9 6
f 12 5 9
f 13 4 3
f 13 3 11
f 13 5 12
f 14 12 6
f 14 6 4
f 14 13 12
f 14 4 13
f 15 13 11
f 15 11 8
f 15 5 13
f 16 15 8
f 16 8 5
f 16 5 15