# https://github.com/mikedh/trimesh
v -0.03735715 0.11290123 -0.28030301
v 0.05355194 0.11290123 -0.50757573
v 0.05381263 0.12984962 -0.37115329
v -0.06766018 0.14320426 -0.28030301
v -0.09049253 0.12476697 -0.44688006
v -0.00711729 0.13106886 -0.28015647
v -0.05250866 0.11290123 -0.50757573
v -0.08562742 0.11861699 -0.27936605
v 0.05355194 0.14320426 -0.50757573
v -0.08281169 0.14320426 -0.35606059
v 0.05581130 0.12665752 -0.49649051
v -0.05250866 0.14320426 -0.50757573
v -0.08285800 0.12819287 -0.46213386
f 1 2 3
f 6 1 3
f 6 3 4
f 7 2 1
f 8 6 4
f 8 1 6
f 8 7 1
f 8 5 7
f 9 2 7
f 9 4 3
f 10 8 4
f 10 5 8
f 10 4 9
f 11 9 3
f 11 3 2
f 11 2 9
f 12 9 7
f 12 10 9
f 13 12 7
f 13 7 5
f 13 5 10
f 13 10 12