# https://github.com/mikedh/trimesh
v 0.02324891 -0.14467452 0.18939394
v 0.05569628 -0.12452582 -0.35449838
v 0.05590426 -0.12376314 0.19001425
v -0.05394100 -0.12193765 0.19037643
v -0.02220563 -0.14467452 -0.15909090
v -0.03735715 -0.09921998 -0.35606059
v 0.05355194 -0.14467452 0.11363637
v -0.03735715 -0.14467452 0.15909091
v -0.03735715 -0.09921998 -0.05303029
v -0.05175666 -0.12111111 -0.36378994
v 0.03840043 -0.14467452 0.17424243
v 0.03840043 -0.14467452 -0.17424241
v -0.02220563 -0.14467452 0.18939394
v -0.05250866 -0.09921998 -0.35606059
v -0.03735715 -0.14467452 0.05303031
v 0.05288374 -0.12542327 -0.35679670
v 0.05355194 -0.14467452 -0.00757575
v -0.05760293 -0.10910208 -0.05604967
v 0.00809740 -0.14467452 -0.17424241
f 1 3 4
f 6 3 2
f 7 1 5
f 8 5 1
f 9 4 3
f 9 3 6
f 11 7 3
f 11 3 1
f 11 1 7
f 12 7 5
f 13 8 1
f 13 1 4
f 13 4 8
f 14 9 6
f 14 6 10
f 15 8 4
f 15 4 10
f 15 10 5
f 15 5 8
f 16 10 6
f 16 6 2
f 16 2 12
f 17 12 2
f 17 7 12
f 17 2 3
f 17 3 7
f 18 4 9
f 18 9 14
f 18 14 10
f 18 10 4
f 19 16 12
f 19 12 5
f 19 5 10
f 19 10 16