# https://github.com/mikedh/trimesh
v 0.00810432 0.12815433 0.21972696
v 0.00815018 0.13086564 -0.35590619
v 0.00760485 0.12885502 0.21663877
v -0.05250866 0.14320426 0.21969697
v -0.06766018 0.09774971 -0.02272726
v -0.00705412 0.11290123 -0.12878787
v -0.08342909 0.11415005 0.18951827
v -0.02220563 0.11290123 -0.28030301
v -0.06766018 0.09774971 0.00757577
v -0.05469712 0.12087869 0.22283976
v -0.08562742 0.11861699 -0.27936605
v -0.09052792 0.10600084 -0.02209009
v -0.00788003 0.12672302 0.22390469
v -0.06766018 0.14320426 0.15909091
v -0.00692391 0.13087685 -0.35706917
v -0.05250866 0.14320426 -0.28030301
v -0.09221311 0.10817972 0.00659806
v 0.00786682 0.13091646 -0.35673507
v -0.06766018 0.14320426 0.08333334
f 1 2 3
f 1 3 4
f 3 2 4
f 6 2 1
f 8 6 5
f 8 2 6
f 9 6 1
f 9 5 6
f 10 4 7
f 10 9 1
f 10 7 9
f 11 8 5
f 12 5 9
f 12 11 5
f 13 10 1
f 13 1 4
f 13 4 10
f 14 7 4
f 15 8 11
f 16 14 4
f 16 4 2
f 16 15 11
f 17 7 14
f 17 12 9
f 17 9 7
f 17 14 11
f 17 11 12
f 18 2 8
f 18 8 15
f 18 16 2
f 18 15 16
f 19 16 11
f 19 11 14
f 19 14 16