# https://github.com/mikedh/trimesh
v -0.11311472 0.05229517 -0.37121210
v -0.07950186 0.12908821 -0.46126462
v -0.07980876 0.12113412 -0.35654152
v -0.11311472 0.12805274 -0.35606059
v -0.14341775 0.08259820 -0.46212119
v -0.09796321 0.14320426 -0.43181816
v -0.09796321 0.08259820 -0.35606059
v -0.13383755 0.05110677 -0.46179202
v -0.14341775 0.08259820 -0.37121210
v -0.07882781 0.12926194 -0.43246563
v -0.12826624 0.11290123 -0.35606059
v -0.09796321 0.14320426 -0.46212119
v -0.08281169 0.09774971 -0.35606059
v -0.11311472 0.06744668 -0.46212119
v -0.12963111 0.05045596 -0.37308305
v -0.08281169 0.09774971 -0.37121210
v -0.11311472 0.05229517 -0.38636362
v -0.09023199 0.12470945 -0.46315600
v -0.12014221 0.07966609 -0.35792055
v -0.13353912 0.05298370 -0.46264784
f 6 4 3
f 9 5 8
f 10 6 3
f 11 5 9
f 11 7 4
f 12 5 11
f 12 11 4
f 12 4 6
f 12 10 2
f 12 6 10
f 13 3 4
f 13 4 7
f 13 7 1
f 15 9 8
f 16 2 10
f 16 10 3
f 16 3 13
f 16 14 2
f 16 13 1
f 17 8 14
f 17 15 8
f 17 1 15
f 17 16 1
f 17 14 16
f 18 12 2
f 18 2 14
f 18 5 12
f 19 11 9
f 19 9 15
f 19 7 11
f 19 15 1
f 19 1 7
f 20 18 14
f 20 14 8
f 20 8 5
f 20 5 18