# https://github.com/mikedh/trimesh
v 0.12081034 -0.05588741 0.22167289
v 0.14446103 -0.02346241 -0.35606059
v 0.14446103 -0.00831089 0.23484849
v 0.12170629 0.05456684 0.22220246
v 0.09900648 -0.03861392 -0.20454544
v 0.14446103 0.05229517 -0.34090907
v 0.12445004 0.02134870 0.23280686
v 0.14446103 -0.05376544 0.18939394
v 0.09900648 -0.03861392 -0.15909090
v 0.14446103 0.05229517 0.20454546
v 0.12577067 0.05513418 -0.35494512
v 0.12533707 -0.00826483 0.23283204
v 0.14446103 0.02199214 0.23484849
v 0.14446103 -0.03861392 0.21969697
v 0.12219936 -0.05633712 -0.35406043
v 0.10258632 -0.06205345 -0.20981245
v 0.14446103 0.03714365 -0.35606059
v 0.14446103 -0.05376544 -0.05303029
v 0.12439562 -0.05232739 -0.35743213
v 0.11092385 -0.06132991 -0.15959026
v 0.14446103 -0.03861392 -0.29545453
v 0.12655793 0.05182757 -0.35634377
f 6 3 2
f 7 4 1
f 8 2 3
f 9 1 4
f 9 4 5
f 10 3 6
f 11 5 4
f 11 10 6
f 11 4 10
f 12 7 1
f 12 1 3
f 12 3 7
f 13 7 3
f 13 4 7
f 13 10 4
f 13 3 10
f 14 8 3
f 14 3 1
f 14 1 8
f 15 5 11
f 16 9 5
f 16 1 9
f 16 5 15
f 17 11 6
f 17 6 2
f 18 2 8
f 19 15 11
f 19 17 2
f 20 8 1
f 20 1 16
f 20 18 8
f 20 16 15
f 20 15 18
f 21 18 15
f 21 2 18
f 21 19 2
f 21 15 19
f 22 19 11
f 22 11 17
f 22 17 19