# https://github.com/mikedh/trimesh
v 0.08406937 0.11331840 0.18943452
v 0.08630385 0.11767915 -0.49694068
v 0.08385497 0.14320426 -0.37121210
v 0.03840043 0.14320426 0.21969697
v 0.00809740 0.11290123 0.20454546
v 0.06870346 0.14320426 0.09848485
v 0.09170329 0.10853468 -0.09687805
v 0.05550207 0.11955604 0.22149233
v 0.00793533 0.13307388 -0.37116416
v 0.05355194 0.14320426 0.20454546
v 0.08385497 0.14320426 -0.49242422
v 0.06870346 0.09774971 -0.09848484
v 0.00891043 0.12671403 0.22416080
v 0.05355194 0.14320426 -0.50757573
v 0.08385497 0.09774971 -0.05303029
v 0.05355194 0.11290123 -0.50757573
v 0.00760485 0.12885502 0.21663877
v 0.06870346 0.14320426 -0.50757573
v 0.06870346 0.09774971 -0.05303029
v 0.02324891 0.11290123 -0.26515150
f 6 1 3
f 6 3 4
f 7 3 1
f 8 5 1
f 10 6 4
f 10 1 6
f 10 8 1
f 10 4 8
f 11 7 2
f 11 3 7
f 11 4 3
f 13 8 4
f 13 5 8
f 14 9 4
f 14 4 11
f 15 2 7
f 15 7 1
f 15 1 5
f 16 15 12
f 16 2 15
f 16 9 14
f 17 9 5
f 17 5 13
f 17 13 4
f 17 4 9
f 18 14 11
f 18 11 2
f 18 16 14
f 18 2 16
f 19 15 5
f 19 5 12
f 19 12 15
f 20 16 12
f 20 12 5
f 20 5 9
f 20 9 16