# https://github.com/mikedh/trimesh
v -0.00721140 -0.13364573 -0.47786106
v -0.00705412 -0.11437150 -0.50757573
v -0.05199406 0.13348165 -0.46203455
v -0.09796321 0.14320426 -0.46212119
v -0.14341775 -0.08406847 -0.49242422
v -0.09796321 0.12805274 -0.50757573
v -0.11311472 -0.12952301 -0.46212119
v -0.02220563 -0.00831089 -0.49242422
v -0.08281169 0.14320426 -0.49242422
v -0.14341775 0.08259820 -0.49242422
v -0.12826624 -0.09921998 -0.50757573
v -0.05272013 -0.13130918 -0.46211564
v -0.11647678 0.10394371 -0.46007096
v -0.00705412 -0.11437150 -0.47727271
v -0.03735715 0.08259820 -0.50757573
v -0.09796321 0.14320426 -0.47727271
v -0.14341775 0.05229517 -0.50757573
v -0.12826624 -0.11437150 -0.49242422
v -0.14341775 0.08259820 -0.46212119
v -0.03735715 0.08259820 -0.49242422
v -0.02220563 -0.00831089 -0.50757573
v -0.05170897 0.12438667 -0.49678089
v -0.12826624 0.11290123 -0.49242422
v -0.14341775 -0.03861392 -0.50757573
v -0.12826624 -0.11437150 -0.46212119
v -0.09796321 -0.12952301 -0.50757573
v -0.05063928 0.12933803 -0.48695609
v -0.11311472 0.12805274 -0.49242422
v -0.12826624 0.08259820 -0.50757573
v -0.14341775 -0.08406847 -0.46212119
v -0.11311472 -0.12952301 -0.49242422
v -0.00780577 -0.12703475 -0.49693510
f 9 4 3
f 11 6 2
f 12 7 1
f 13 3 4
f 13 12 3
f 13 7 12
f 14 1 2
f 14 2 8
f 14 12 1
f 14 3 12
f 15 2 6
f 16 9 6
f 16 4 9
f 17 6 11
f 17 5 10
f 18 5 11
f 19 13 4
f 19 10 5
f 20 14 8
f 20 3 14
f 20 8 15
f 21 15 8
f 21 8 2
f 21 2 15
f 22 15 6
f 22 6 9
f 23 19 4
f 23 10 19
f 23 17 10
f 24 17 11
f 24 11 5
f 24 5 17
f 25 18 7
f 25 5 18
f 25 7 13
f 26 18 11
f 26 11 2
f 27 20 15
f 27 3 20
f 27 15 22
f 27 22 9
f 27 9 3
f 28 16 6
f 28 6 23
f 28 23 4
f 28 4 16
f 29 23 6
f 29 6 17
f 29 17 23
f 30 19 5
f 30 5 25
f 30 25 13
f 30 13 19
f 31 26 1
f 31 1 7
f 31 7 18
f 31 18 26
f 32 26 2
f 32 2 1
f 32 1 26