# https://github.com/mikedh/trimesh
v 0.09900648 -0.12952301 0.15909091
v 0.11415800 -0.11437150 -0.35606059
v 0.12930951 -0.09921998 0.18939394
v 0.12676830 -0.05308013 0.18915917
v 0.08385497 -0.05376544 -0.23484847
v 0.12439562 -0.05232739 -0.35743213
v 0.08294177 -0.11295350 0.18924562
v 0.12930951 -0.09921998 -0.06818181
v 0.08345098 -0.11368609 -0.35625767
v 0.11415800 -0.11437150 0.18939394
v 0.12528015 -0.05750392 0.19077526
v 0.08385497 -0.05376544 -0.20454544
v 0.11721156 -0.07898714 -0.36200160
v 0.08385497 -0.08406847 -0.34090907
v 0.07788424 -0.11839291 -0.02093584
v 0.09900648 -0.12952301 -0.02272726
v 0.08981090 -0.10812096 0.19023805
v 0.09900648 -0.06891695 -0.35606059
v 0.07834213 -0.11792958 0.15867851
f 1 2 3
f 8 3 2
f 8 2 6
f 8 6 4
f 8 4 3
f 10 7 1
f 10 1 3
f 11 3 4
f 11 4 7
f 11 10 3
f 12 7 4
f 12 6 5
f 12 4 6
f 13 6 2
f 13 2 9
f 15 14 9
f 15 5 14
f 15 12 5
f 16 9 2
f 16 2 1
f 16 15 9
f 16 1 15
f 17 11 7
f 17 7 10
f 17 10 11
f 18 13 9
f 18 6 13
f 18 9 14
f 18 14 5
f 18 5 6
f 19 7 12
f 19 12 15
f 19 15 1
f 19 1 7