# https://github.com/mikedh/trimesh
v 0.03840043 0.03714365 0.46212121
v 0.07666015 0.04001948 0.27622969
v 0.06172354 0.04174065 0.45936998
v 0.03840043 0.08259820 0.46212121
v 0.00667734 0.07254460 0.31124293
v 0.07295043 0.05559697 0.27295510
v 0.04691274 0.05900381 0.46327670
v 0.06353581 0.03479460 0.34089911
v 0.00744165 0.07288283 0.46438209
v 0.03840043 0.08259820 0.31060606
v 0.05355194 0.03714365 0.26515152
v 0.00809740 0.05229517 0.46212121
v 0.05355194 0.05229517 0.26515152
v 0.03840043 0.03714365 0.28030303
v 0.00809740 0.05229517 0.40151515
f 6 3 2
f 6 4 3
f 7 1 3
f 7 3 4
f 8 2 3
f 8 3 1
f 9 7 4
f 9 1 7
f 10 4 6
f 10 9 4
f 10 5 9
f 11 6 2
f 11 2 8
f 12 9 5
f 12 1 9
f 13 10 6
f 13 5 10
f 13 11 5
f 13 6 11
f 14 11 8
f 14 8 1
f 14 1 12
f 14 5 11
f 15 14 12
f 15 12 5
f 15 5 14