# https://github.com/mikedh/trimesh
v 0.08385497 -0.14467452 -0.46212119
v 0.12930951 -0.09921998 -0.50757573
v 0.13020927 -0.06910071 -0.46210186
v 0.05355194 -0.03861392 -0.47727271
v -0.00705412 -0.11437150 -0.50757573
v 0.13083700 -0.05438550 -0.49670402
v -0.00679954 -0.13452394 -0.46164075
v 0.12930951 -0.11437150 -0.46212119
v 0.06870346 -0.14467452 -0.49242422
v 0.13329143 -0.05419881 -0.47726230
v 0.05355194 -0.03861392 -0.50757573
v 0.11415800 -0.06891695 -0.46212119
v -0.00705412 -0.11437150 -0.47727271
v 0.11415800 -0.12952301 -0.49242422
v 0.11415800 -0.12952301 -0.46212119
v 0.08385497 -0.12952301 -0.50757573
v -0.00780577 -0.12703475 -0.49693510
v 0.06870346 -0.03861392 -0.47727271
v 0.12930951 -0.11437150 -0.49242422
v 0.03840043 -0.05376544 -0.47727271
v 0.08385497 -0.03861392 -0.50757573
v 0.08385497 -0.14467452 -0.47727271
v 0.11415800 -0.11437150 -0.50757573
v -0.00633900 -0.13067574 -0.48731664
v -0.00717846 -0.13448059 -0.46235584
v 0.03840043 -0.05376544 -0.50757573
v 0.08385497 -0.03861392 -0.49242422
f 8 3 7
f 9 1 7
f 10 3 8
f 10 2 6
f 11 2 5
f 12 7 3
f 12 4 7
f 15 8 7
f 15 7 1
f 15 14 8
f 15 1 14
f 16 5 2
f 16 14 9
f 17 16 9
f 17 5 16
f 17 13 5
f 18 3 10
f 18 12 3
f 18 4 12
f 18 11 4
f 19 10 8
f 19 2 10
f 19 14 2
f 19 8 14
f 20 4 11
f 20 5 13
f 20 13 7
f 20 7 4
f 21 6 2
f 21 2 11
f 21 11 18
f 21 10 6
f 22 14 1
f 22 1 9
f 22 9 14
f 23 16 2
f 23 2 14
f 23 14 16
f 24 17 9
f 25 7 13
f 25 13 17
f 25 17 24
f 25 24 9
f 25 9 7
f 26 20 11
f 26 11 5
f 26 5 20
f 27 21 18
f 27 18 10
f 27 10 21