# https://github.com/mikedh/trimesh
v 0.00809740 -0.08406847 0.50757575
v 0.05614327 -0.07372301 0.27274699
v 0.06028574 -0.04323853 0.45984507
v -0.04719129 -0.04860012 0.49697440
v -0.03735715 -0.08406847 0.35606060
v 0.03840043 -0.03861392 0.28030303
v 0.00808919 -0.05349309 0.49884459
v 0.03840043 -0.08406847 0.44696969
v -0.03735715 -0.08406847 0.49242424
v 0.06262415 -0.04321995 0.28715953
v 0.03840043 -0.03861392 0.46212121
v -0.05006607 -0.05117287 0.34120084
v -0.05250866 -0.06891695 0.50757575
v 0.03840043 -0.08406847 0.35606060
v 0.05355194 -0.05376544 0.26515152
v -0.05808083 -0.04724170 0.38900096
v -0.02220563 -0.08406847 0.31060606
v -0.02220563 -0.08406847 0.50757575
v -0.06766018 -0.06891695 0.38636363
v -0.05867382 -0.04732553 0.44135287
v 0.04103661 -0.07693713 0.27555702
v -0.04062751 -0.05835516 0.31065974
v -0.06766018 -0.06891695 0.44696969
v 0.03840043 -0.05376544 0.26515152
v -0.05250866 -0.06891695 0.34090909
v 0.00876700 -0.07393606 0.28460566
v 0.00809740 -0.05376544 0.28030303
f 7 1 3
f 8 2 3
f 8 3 1
f 8 1 5
f 9 5 1
f 10 3 2
f 11 10 6
f 11 3 10
f 11 7 3
f 11 4 7
f 13 7 4
f 13 1 7
f 14 8 5
f 14 2 8
f 15 10 2
f 15 6 10
f 16 11 6
f 16 6 12
f 17 14 5
f 18 13 9
f 18 9 1
f 18 1 13
f 19 5 9
f 19 16 12
f 19 17 5
f 20 4 11
f 20 11 16
f 20 16 19
f 21 2 14
f 21 14 17
f 22 12 6
f 23 19 9
f 23 9 13
f 23 20 19
f 23 13 4
f 23 4 20
f 24 15 2
f 24 2 21
f 24 6 15
f 25 19 12
f 25 12 22
f 25 22 17
f 25 17 19
f 26 24 21
f 26 21 17
f 26 17 22
f 27 22 6
f 27 6 24
f 27 26 22
f 27 24 26