# https://github.com/mikedh/trimesh
v 0.13068083 0.05063034 -0.37255558
v 0.14446103 0.05229517 -0.50757573
v 0.12930951 0.11290123 -0.37121210
v 0.08137885 0.12259790 -0.37230983
v 0.11415800 0.05229517 -0.50757573
v 0.09900648 0.12805274 -0.50757573
v 0.11415800 0.05229517 -0.37121210
v 0.14446103 0.08259820 -0.37121210
v 0.12930951 0.11290123 -0.49242422
v 0.11415800 0.12805274 -0.37121210
v 0.08385497 0.09774971 -0.50757573
v 0.12930951 0.09774971 -0.50757573
v 0.14446103 0.08259820 -0.49242422
v 0.11415800 0.12805274 -0.49242422
v 0.08385497 0.09774971 -0.37121210
v 0.08025875 0.12033783 -0.49709254
v 0.14446103 0.06744668 -0.50757573
f 5 2 1
f 6 2 5
f 7 5 1
f 8 1 2
f 8 7 1
f 8 3 7
f 9 3 8
f 10 6 4
f 10 3 9
f 10 7 3
f 11 6 5
f 11 5 7
f 12 2 6
f 13 9 8
f 13 8 2
f 13 12 9
f 14 10 9
f 14 6 10
f 14 12 6
f 14 9 12
f 15 10 4
f 15 7 10
f 15 11 7
f 16 4 6
f 16 6 11
f 16 15 4
f 16 11 15
f 17 13 2
f 17 2 12
f 17 12 13