# https://github.com/mikedh/trimesh
v 0.09900648 -0.11437150 0.25000000
v 0.12930951 -0.09921998 0.18939394
v 0.12930951 -0.06891695 0.25000000
v 0.08385497 0.08259820 0.28030303
v 0.05355194 -0.08406847 0.23484849
v 0.12930951 0.05229517 0.25000000
v 0.05767789 -0.04434666 0.34134053
v 0.11415800 -0.09921998 0.25000000
v 0.08294177 -0.11295350 0.18924562
v 0.05355194 -0.09921998 0.28030303
v 0.06322730 0.07619692 0.26841793
v 0.07171739 -0.00855126 0.34086050
v 0.11415800 -0.11437150 0.21969697
v 0.12930951 -0.09921998 0.20454546
v 0.05117071 -0.05128872 0.34108651
v 0.12393962 0.05067715 0.21849085
v 0.05675982 -0.10960093 0.24294845
v 0.06766995 0.08133996 0.26307574
v 0.09900648 0.06744668 0.28030303
v 0.06081535 0.04120430 0.31011836
v 0.11415800 -0.11437150 0.18939394
v 0.12930951 -0.08406847 0.23484849
v 0.06870346 -0.09921998 0.28030303
v 0.05355194 -0.00831089 0.34090909
v 0.12676830 -0.05308013 0.18915917
v 0.12170629 0.05456684 0.22220246
v 0.08385497 -0.11437150 0.25000000
v 0.09900648 -0.06891695 0.18939394
v 0.08385497 0.03714365 0.31060606
v 0.07973026 0.07884525 0.25833131
f 6 3 2
f 8 3 7
f 12 7 3
f 12 3 6
f 13 8 1
f 14 2 3
f 14 13 2
f 14 8 13
f 15 8 7
f 15 1 8
f 15 5 10
f 17 10 5
f 17 5 9
f 18 9 5
f 18 5 11
f 18 11 4
f 19 6 4
f 20 4 11
f 21 2 13
f 21 13 1
f 22 14 3
f 22 3 8
f 22 8 14
f 23 15 10
f 23 10 1
f 23 1 15
f 24 11 5
f 24 5 15
f 24 20 11
f 24 12 20
f 24 15 7
f 24 7 12
f 25 16 6
f 25 6 2
f 25 21 9
f 25 2 21
f 26 4 6
f 26 6 16
f 26 16 18
f 27 17 9
f 27 1 10
f 27 10 17
f 27 21 1
f 27 9 21
f 28 18 16
f 28 9 18
f 28 25 9
f 28 16 25
f 29 12 6
f 29 6 19
f 29 19 4
f 29 20 12
f 29 4 20
f 30 26 18
f 30 18 4
f 30 4 26