# https://github.com/mikedh/trimesh
v 0.12705814 0.05170782 0.18922330
v 0.12655793 0.05182757 -0.35634377
v 0.12930951 0.09774971 0.18939394
v 0.09900648 0.12805274 0.18939394
v 0.08385497 0.09774971 -0.37121210
v 0.12564181 0.05597521 0.19059982
v 0.07881609 0.11593770 0.18865286
v 0.11853299 0.09113356 -0.37530229
v 0.09151726 0.10850014 0.19046951
v 0.08137885 0.12259790 -0.37230983
v 0.12335390 0.08025121 -0.37296430
v 0.09267200 0.11733799 -0.37417086
v 0.09900648 0.08259820 -0.37121210
f 1 2 3
f 5 2 1
f 6 1 3
f 7 5 1
f 7 1 6
f 9 6 3
f 9 3 4
f 9 7 6
f 9 4 7
f 10 7 4
f 10 5 7
f 11 8 3
f 11 3 2
f 12 4 3
f 12 3 8
f 12 10 4
f 12 8 5
f 12 5 10
f 13 11 2
f 13 2 5
f 13 5 8
f 13 8 11