# https://github.com/mikedh/trimesh
v -0.11942625 -0.05512836 0.22140728
v -0.11967759 -0.05685732 -0.23475350
v -0.12029712 0.05370602 0.22166586
v -0.14341775 -0.05376544 0.09848485
v -0.12332262 0.05429826 -0.23494209
v -0.14341775 -0.02346241 0.20454546
v -0.14341775 0.05229517 0.15909091
v -0.14341775 -0.02346241 -0.00757575
v -0.14341775 -0.03861392 0.18939394
v -0.14341775 0.03714365 0.20454546
v -0.12156778 -0.05145583 -0.23479859
v -0.14341775 0.03714365 -0.00757575
v -0.12388560 0.05143556 -0.23480829
v -0.14341775 -0.05376544 0.08333334
v -0.14341775 0.05229517 0.08333334
f 1 2 3
f 4 2 1
f 5 3 2
f 6 1 3
f 7 3 5
f 7 4 6
f 8 4 7
f 9 6 4
f 9 4 1
f 9 1 6
f 10 7 6
f 10 6 3
f 10 3 7
f 11 5 2
f 12 8 7
f 13 11 8
f 13 5 11
f 13 12 5
f 13 8 12
f 14 11 2
f 14 2 4
f 14 4 8
f 14 8 11
f 15 12 7
f 15 7 5
f 15 5 12