# https://github.com/mikedh/trimesh
v -0.08281169 -0.12952301 0.21969697
v -0.05044349 -0.10879660 -0.27833587
v -0.05059538 -0.11972927 0.21764259
v -0.12078505 -0.05230695 0.21823050
v -0.12826624 -0.08406847 -0.28030301
v -0.09796321 -0.05376544 -0.03787878
v -0.10915594 -0.07599026 0.22402496
v -0.06766018 -0.12952301 -0.06818181
v -0.05250866 -0.09921998 -0.02272726
v -0.12156778 -0.05145583 -0.23479859
v -0.05348095 -0.11840086 0.22067110
v -0.12826624 -0.09921998 0.17424243
v -0.04550085 -0.12094201 -0.06729720
v -0.09018500 -0.10486450 -0.28111500
v -0.09796321 -0.05376544 -0.21969696
v -0.12826624 -0.08406847 0.21969697
v -0.09796321 -0.06891695 -0.28030301
v -0.11942625 -0.05512836 0.22140728
v -0.09796321 -0.12952301 0.03787879
v -0.05362566 -0.11021482 -0.28131097
v -0.11311472 -0.11437150 0.20454546
v -0.11895931 -0.06499700 -0.28171173
v -0.12826624 -0.09921998 0.08333334
v -0.08281169 -0.12952301 -0.03787878
v -0.09796321 -0.12952301 0.11363637
v -0.11311472 -0.11437150 0.02272728
f 6 4 3
f 8 3 1
f 9 6 3
f 10 4 6
f 11 7 1
f 11 1 3
f 13 3 8
f 13 9 3
f 13 2 9
f 15 9 2
f 15 6 9
f 15 10 6
f 16 10 5
f 16 4 10
f 16 5 12
f 16 1 7
f 17 15 2
f 17 10 15
f 18 7 11
f 18 16 7
f 18 4 16
f 18 11 3
f 18 3 4
f 19 8 1
f 19 5 14
f 20 13 8
f 20 2 13
f 20 8 14
f 20 17 2
f 21 16 12
f 21 1 16
f 22 5 10
f 22 10 17
f 22 14 5
f 22 20 14
f 22 17 20
f 23 19 12
f 23 12 5
f 24 19 14
f 24 14 8
f 24 8 19
f 25 19 1
f 25 1 21
f 25 21 12
f 25 12 19
f 26 23 5
f 26 5 19
f 26 19 23