# https://github.com/mikedh/trimesh
v 0.06870346 -0.06891695 0.44696969
v 0.08385497 -0.03861392 0.31060606
v 0.08385497 -0.02346241 0.50757575
v 0.06870346 0.06744668 0.49242424
v 0.04588593 0.05827892 0.35679898
v 0.08385497 0.03714365 0.31060606
v 0.04865454 -0.04934152 0.49690297
v 0.08385497 -0.03861392 0.49242424
v 0.08385497 0.03714365 0.50757575
v 0.06870346 0.06744668 0.35606060
v 0.06081535 0.04120430 0.31011836
v 0.04581076 0.05867994 0.49019215
v 0.05117071 -0.05128872 0.34108651
v 0.06870346 -0.05376544 0.50757575
v 0.06687914 0.02730932 0.30969030
v 0.04625217 -0.05948597 0.44097016
v 0.06870346 0.05229517 0.50757575
v 0.06870346 -0.06891695 0.38636363
v 0.06347496 -0.03589633 0.31109779
v 0.04629385 -0.05978675 0.38854378
v 0.05016491 0.04878185 0.49677548
f 6 3 2
f 8 1 2
f 8 2 3
f 9 6 4
f 9 3 6
f 10 4 6
f 11 10 6
f 11 5 10
f 12 10 5
f 12 4 10
f 13 5 11
f 14 7 1
f 14 1 8
f 14 8 3
f 14 3 9
f 15 11 6
f 15 6 2
f 16 12 5
f 16 7 12
f 16 1 7
f 17 9 4
f 17 4 12
f 17 14 9
f 17 7 14
f 18 13 2
f 18 2 1
f 19 13 11
f 19 2 13
f 19 15 2
f 19 11 15
f 20 16 5
f 20 5 13
f 20 13 18
f 20 18 1
f 20 1 16
f 21 17 12
f 21 12 7
f 21 7 17