# https://github.com/mikedh/trimesh
v 0.08385497 -0.12952301 0.23484849
v 0.08067984 -0.12139694 -0.37344584
v 0.08916259 -0.08784202 -0.21891116
v 0.05177529 -0.09472098 0.25815176
v 0.05336124 -0.12820796 -0.37139430
v 0.08019199 -0.09494421 0.24569714
v 0.09076723 -0.09124523 -0.15835744
v 0.05355194 -0.12952301 0.25000000
v 0.06870346 -0.09921998 -0.37121210
v 0.06870346 -0.08406847 -0.15909090
v 0.08385497 -0.09921998 -0.37121210
v 0.08385497 -0.11437150 0.25000000
v 0.06581446 -0.09216090 0.25592492
v 0.06870346 -0.08406847 -0.21969696
v 0.06870346 -0.11437150 0.26515152
v 0.05355194 -0.09921998 -0.29545453
v 0.06870346 -0.12952301 0.25000000
v 0.05355194 -0.11437150 0.26515152
f 5 2 1
f 7 1 2
f 7 3 6
f 8 5 1
f 8 4 5
f 9 2 5
f 10 6 3
f 11 7 2
f 11 3 7
f 11 2 9
f 12 7 6
f 12 1 7
f 13 10 4
f 13 6 10
f 14 10 3
f 14 4 10
f 14 11 9
f 14 3 11
f 15 1 12
f 15 13 4
f 15 12 6
f 15 6 13
f 16 14 9
f 16 9 5
f 16 5 4
f 16 4 14
f 17 15 8
f 17 8 1
f 17 1 15
f 18 15 4
f 18 4 8
f 18 8 15