# https://github.com/mikedh/trimesh
v -0.12409051 0.05155141 0.18920513
v -0.08281169 0.09774971 -0.35606059
v -0.07796222 0.11672902 0.18847171
v -0.09796321 0.12805274 0.18939394
v -0.12826624 0.09774971 -0.35606059
v -0.07980876 0.12113412 -0.35654152
v -0.09210955 0.10826459 0.19041206
v -0.09796321 0.06744668 0.06818182
v -0.12388560 0.05143556 -0.23480829
v -0.12826624 0.09774971 0.18939394
v -0.12014221 0.07966609 -0.35792055
v -0.12351784 0.05427518 0.19006533
v -0.09796321 0.06744668 -0.12878787
v -0.09796321 0.08259820 -0.35606059
f 6 3 2
f 6 4 3
f 6 5 4
f 7 3 4
f 8 2 3
f 8 3 1
f 9 1 5
f 9 8 1
f 10 5 1
f 10 4 5
f 10 7 4
f 11 6 2
f 11 5 6
f 11 9 5
f 12 1 3
f 12 3 7
f 12 10 1
f 12 7 10
f 13 2 8
f 13 8 9
f 14 11 2
f 14 9 11
f 14 13 9
f 14 2 13