# Blender 4.0.0
# www.blender.org
o AluminumFoil001
v -0.170151 -0.026969 0.027969
v -0.171151 -0.026969 0.026969
v -0.170151 -0.027969 0.026969
v -0.170858 -0.026969 0.027676
v -0.170728 -0.027546 0.027546
v -0.170858 -0.027676 0.026969
v -0.170151 -0.027676 0.027676
v -0.170151 0.026969 0.027969
v -0.170151 0.027969 0.026969
v -0.171151 0.026969 0.026969
v -0.170151 0.027676 0.027676
v -0.170728 0.027546 0.027546
v -0.170858 0.027676 0.026969
v -0.170858 0.026969 0.027676
v 0.170151 0.026969 0.027969
v 0.171151 0.026969 0.026969
v 0.170151 0.027969 0.026969
v 0.170858 0.026969 0.027676
v 0.170728 0.027546 0.027546
v 0.170858 0.027676 0.026969
v 0.170151 0.027676 0.027676
v 0.170151 -0.026969 0.027969
v 0.170151 -0.027969 0.026969
v 0.171151 -0.026969 0.026969
v 0.170151 -0.027676 0.027676
v 0.170728 -0.027546 0.027546
v 0.170858 -0.027676 0.026969
v 0.170858 -0.026969 0.027676
v -0.170151 -0.026969 -0.027969
v -0.170151 -0.027969 -0.026969
v -0.171151 -0.026969 -0.026969
v -0.170151 -0.027676 -0.027676
v -0.170728 -0.027546 -0.027546
v -0.170858 -0.027676 -0.026969
v -0.170858 -0.026969 -0.027676
v -0.170151 0.027969 -0.026969
v -0.170151 0.026969 -0.027969
v -0.171151 0.026969 -0.026969
v -0.170151 0.027676 -0.027676
v -0.170728 0.027546 -0.027546
v -0.170858 0.026969 -0.027676
v -0.170858 0.027676 -0.026969
v 0.171151 0.026969 -0.026969
v 0.170151 0.026969 -0.027969
v 0.170151 0.027969 -0.026969
v 0.170858 0.026969 -0.027676
v 0.170728 0.027546 -0.027546
v 0.170151 0.027676 -0.027676
v 0.170858 0.027676 -0.026969
v 0.170151 -0.027969 -0.026969
v 0.170151 -0.026969 -0.027969
v 0.171151 -0.026969 -0.026969
v 0.170151 -0.027676 -0.027676
v 0.170728 -0.027546 -0.027546
v 0.170858 -0.026969 -0.027676
v 0.170858 -0.027676 -0.026969
vn -0.0009 -1.0000 0.0053
vn 0.0009 -1.0000 -0.0054
vn 0.0009 -1.0000 0.0054
vn 1.0000 -0.0053 0.0053
vn 1.0000 0.0053 -0.0053
vn 1.0000 0.0054 0.0053
vn 0.0008 -0.0054 -1.0000
vn -0.0009 0.0054 -1.0000
vn 0.0009 0.0054 -1.0000
vn -0.0009 1.0000 0.0054
vn 0.0009 1.0000 -0.0054
vn -0.0009 1.0000 -0.0054
vn -1.0000 0.0053 0.0053
vn -1.0000 -0.0053 -0.0054
vn -1.0000 -0.0054 0.0053
vn -0.0008 -0.0054 1.0000
vn -0.5773 -0.5774 0.5774
vn -0.0006 -0.7071 0.7071
vn -0.7071 -0.0039 0.7071
vn -0.7071 -0.7071 0.0039
vn -0.0009 0.0054 1.0000
vn -0.5773 0.5773 0.5774
vn -0.7071 0.0039 0.7071
vn -0.0006 0.7071 0.7071
vn -0.7071 0.7071 0.0039
vn 0.0008 0.0054 1.0000
vn 0.5773 0.5774 0.5774
vn 0.0006 0.7071 0.7071
vn 0.7071 0.0039 0.7071
vn 0.0009 1.0000 0.0054
vn 0.7071 0.7071 0.0039
vn 0.0009 -0.0054 1.0000
vn 0.5773 -0.5774 0.5774
vn 0.7071 -0.0039 0.7071
vn 0.0006 -0.7071 0.7071
vn 0.7071 -0.7071 0.0039
vn -0.0009 -0.0054 -1.0000
vn -0.5773 -0.5774 -0.5774
vn -0.7071 -0.0039 -0.7071
vn -0.0009 -1.0000 -0.0054
vn -0.0006 -0.7071 -0.7071
vn -0.7071 -0.7071 -0.0039
vn -0.5773 0.5774 -0.5774
vn -0.7071 0.7071 -0.0039
vn -0.0006 0.7071 -0.7071
vn -1.0000 0.0054 -0.0053
vn -0.7070 0.0039 -0.7072
vn 0.5773 0.5773 -0.5774
vn 0.7071 0.7071 -0.0039
vn 0.7071 0.0039 -0.7071
vn 0.0006 0.7071 -0.7071
vn 0.5773 -0.5774 -0.5774
vn 0.7071 -0.7071 -0.0039
vn 0.0006 -0.7071 -0.7071
vn 1.0000 -0.0054 -0.0053
vn 0.7071 -0.0039 -0.7071
vt 0.000227 0.990055
vt 0.999907 0.732019
vt 0.999907 0.990055
vt 0.933767 0.666405
vt 0.907443 0.640227
vt 0.933776 0.640103
vt 0.999788 0.701717
vt 0.000071 0.443682
vt 0.999788 0.443682
vt 0.000228 0.732619
vt 0.999907 0.990654
vt 0.000228 0.990654
vt 0.375592 0.669513
vt 0.416974 0.628412
vt 0.416964 0.669784
vt 0.417177 0.670987
vt 0.417449 0.670272
vt 0.417801 0.670628
vt 0.417001 0.670370
vt 0.418176 0.670004
vt 0.417547 0.669822
vt 0.375371 0.670723
vt 0.375104 0.669997
vt 0.375553 0.670096
vt 0.374390 0.669727
vt 0.374749 0.670349
vt 0.375005 0.669550
vt 0.934540 0.639963
vt 0.934085 0.639793
vt 0.934309 0.639568
vt 0.934149 0.640078
vt 0.933911 0.639332
vt 0.933798 0.639732
vt 0.934535 0.666539
vt 0.934076 0.666711
vt 0.934137 0.666426
vt 0.933907 0.667165
vt 0.934300 0.666935
vt 0.933793 0.666775
vt 0.417195 0.627202
vt 0.417462 0.627927
vt 0.417013 0.627828
vt 0.418176 0.628197
vt 0.417816 0.627576
vt 0.417560 0.628374
vt 0.374390 0.627921
vt 0.375117 0.627652
vt 0.375018 0.628102
vt 0.375388 0.626937
vt 0.374764 0.627297
vt 0.375601 0.628140
vt 0.375564 0.627554
vt 0.907133 0.639918
vt 0.907417 0.639854
vt 0.906671 0.640091
vt 0.907071 0.640204
vt 0.907302 0.639463
vt 0.906908 0.639693
vt 0.907303 0.667363
vt 0.907129 0.666900
vt 0.907417 0.666962
vt 0.906671 0.666729
vt 0.906904 0.667126
vt 0.907439 0.666588
vt 0.907065 0.666614
vt 0.999761 0.990349
vt 0.000227 0.992598
vt 0.000227 0.990349
vt 0.999907 0.730370
vt 0.000228 0.730370
vt 0.999788 0.441433
vt 0.000228 0.992903
vt 0.999907 0.992903
vt 0.000227 0.732314
vt 0.999761 0.730065
vt 0.999761 0.732313
vt 0.000227 0.992304
vt 0.999907 0.992304
vt 0.000071 0.703967
vt 0.000071 0.701718
vt 0.999907 0.729771
vt 0.000227 0.732019
vt 0.000227 0.729771
vt 0.999907 0.732619
vt 0.999761 0.992598
vt 0.000071 0.441434
vt 0.000227 0.730065
vt 0.999788 0.703966
s 1
f 3/1/1 50/2/2 23/3/3
f 24/4/4 43/5/5 16/6/6
f 51/7/7 37/8/8 44/9/9
f 9/10/10 45/11/11 36/12/12
f 10/13/13 31/14/14 2/15/15
f 1/16/16 5/17/17 7/18/18
f 2/15/15 5/17/17 4/19/19
f 3/20/1 5/17/17 6/21/20
f 8/22/21 12/23/22 14/24/23
f 9/25/10 12/23/22 11/26/24
f 10/13/13 12/23/22 13/27/25
f 15/28/26 19/29/27 21/30/28
f 16/6/6 19/29/27 18/31/29
f 17/32/30 19/29/27 20/33/31
f 22/34/32 26/35/33 28/36/34
f 23/37/3 26/35/33 25/38/35
f 24/4/4 26/35/33 27/39/36
f 29/40/37 33/41/38 35/42/39
f 30/43/40 33/41/38 32/44/41
f 31/14/14 33/41/38 34/45/42
f 36/46/12 40/47/43 42/48/44
f 37/49/8 40/47/43 39/50/45
f 38/51/46 40/47/43 41/52/47
f 43/5/5 47/53/48 49/54/49
f 44/55/9 47/53/48 46/56/50
f 45/57/11 47/53/48 48/58/51
f 50/59/2 54/60/52 56/61/53
f 51/62/7 54/60/52 53/63/54
f 52/64/55 54/60/52 55/65/56
f 8/22/21 4/19/19 1/16/16
f 14/24/23 2/15/15 4/19/19
f 36/46/12 13/27/25 9/25/10
f 42/48/44 10/13/13 13/27/25
f 29/40/37 41/52/47 37/49/8
f 35/42/39 38/51/46 41/52/47
f 3/20/1 34/45/42 30/43/40
f 6/21/20 31/14/14 34/45/42
f 15/66/26 11/67/24 8/68/21
f 21/69/28 9/10/10 11/70/24
f 43/5/5 20/33/31 16/6/6
f 49/54/49 17/32/30 20/33/31
f 37/8/8 48/71/51 44/9/9
f 39/72/45 45/11/11 48/73/51
f 22/34/32 18/31/29 15/28/26
f 28/36/34 16/6/6 18/31/29
f 50/59/2 27/39/36 23/37/3
f 27/39/36 52/64/55 24/4/4
f 44/55/9 55/65/56 51/62/7
f 46/56/50 52/64/55 55/65/56
f 1/74/16 25/75/35 22/76/32
f 7/77/18 23/3/3 25/78/35
f 51/7/7 32/79/41 29/80/37
f 53/81/54 30/82/40 32/83/41
f 8/68/21 22/76/32 15/66/26
f 3/1/1 30/82/40 50/2/2
f 24/4/4 52/64/55 43/5/5
f 51/7/7 29/80/37 37/8/8
f 9/10/10 17/84/30 45/11/11
f 10/13/13 38/51/46 31/14/14
f 1/16/16 4/19/19 5/17/17
f 2/15/15 6/21/20 5/17/17
f 3/20/1 7/18/18 5/17/17
f 8/22/21 11/26/24 12/23/22
f 9/25/10 13/27/25 12/23/22
f 10/13/13 14/24/23 12/23/22
f 15/28/26 18/31/29 19/29/27
f 16/6/6 20/33/31 19/29/27
f 17/32/30 21/30/28 19/29/27
f 22/34/32 25/38/35 26/35/33
f 23/37/3 27/39/36 26/35/33
f 24/4/4 28/36/34 26/35/33
f 29/40/37 32/44/41 33/41/38
f 30/43/40 34/45/42 33/41/38
f 31/14/14 35/42/39 33/41/38
f 36/46/12 39/50/45 40/47/43
f 37/49/8 41/52/47 40/47/43
f 38/51/46 42/48/44 40/47/43
f 43/5/5 46/56/50 47/53/48
f 44/55/9 48/58/51 47/53/48
f 45/57/11 49/54/49 47/53/48
f 50/59/2 53/63/54 54/60/52
f 51/62/7 55/65/56 54/60/52
f 52/64/55 56/61/53 54/60/52
f 8/22/21 14/24/23 4/19/19
f 14/24/23 10/13/13 2/15/15
f 36/46/12 42/48/44 13/27/25
f 42/48/44 38/51/46 10/13/13
f 29/40/37 35/42/39 41/52/47
f 35/42/39 31/14/14 38/51/46
f 3/20/1 6/21/20 34/45/42
f 6/21/20 2/15/15 31/14/14
f 15/66/26 21/85/28 11/67/24
f 21/69/28 17/84/30 9/10/10
f 43/5/5 49/54/49 20/33/31
f 49/54/49 45/57/11 17/32/30
f 37/8/8 39/86/45 48/71/51
f 39/72/45 36/12/12 45/11/11
f 22/34/32 28/36/34 18/31/29
f 28/36/34 24/4/4 16/6/6
f 50/59/2 56/61/53 27/39/36
f 27/39/36 56/61/53 52/64/55
f 44/55/9 46/56/50 55/65/56
f 46/56/50 43/5/5 52/64/55
f 1/74/16 7/87/18 25/75/35
f 7/77/18 3/1/1 23/3/3
f 51/7/7 53/88/54 32/79/41
f 53/81/54 50/2/2 30/82/40
f 8/68/21 1/74/16 22/76/32
