# https://github.com/mikedh/trimesh
v 0.49035320 0.13522293 0.00499936
v 0.49123713 0.13209291 0.01499739
v 0.49175709 0.13294844 0.00499936
v 0.49176452 0.13294844 -0.00499867
v 0.49035320 0.13522293 -0.00499867
v 0.48918700 0.13522293 0.01499739
v 0.49048689 0.13085482 0.02043995
v 0.49457973 0.12499820 0.01499739
v 0.49585736 0.12499820 0.00499936
v 0.49125940 0.13212769 -0.01499670
v 0.48987779 0.13522293 -0.00968814
v 0.49585736 0.12499820 -0.00499867
v 0.48458904 0.13522293 0.02147948
v 0.49167538 0.12499820 0.02113297
v 0.49989074 0.10977937 0.01976078
v 0.48490846 0.13451345 0.02153030
v 0.49860570 0.11492651 0.01585674
v 0.50050730 0.11154609 0.01309389
v 0.49908853 0.11738878 0.00499936
v 0.49909595 0.11738878 -0.00499867
v 0.49463174 0.12499820 -0.01499670
v 0.49051660 0.13090351 -0.02046698
v 0.48923898 0.13522293 -0.01499670
v 0.47499949 0.13522293 0.02332293
v 0.48499760 0.12499820 0.02289325
v 0.49372551 0.11499606 0.02166891
v 0.50061870 0.10311591 0.02060165
v 0.50330019 0.09500569 0.01499739
v 0.50143576 0.10587033 0.01585674
v 0.50270599 0.10499392 0.00499936
v 0.50078952 0.11238772 0.00499936
v 0.50051469 0.11154609 -0.01322256
v 0.50078952 0.11238772 -0.00499867
v 0.49866512 0.11492651 -0.01592998
v 0.49995017 0.10989761 -0.01988946
v 0.48876360 0.13522293 -0.01667382
v 0.49172738 0.12499820 -0.02118310
v 0.48493075 0.13454127 -0.02159430
v 0.48462620 0.13522293 -0.02153886
v 0.47499949 0.13499339 0.02335527
v 0.46500140 0.13522293 0.02352622
v 0.48499760 0.11499606 0.02344767
v 0.49499571 0.09500569 0.02281933
v 0.49593163 0.10587033 0.02175669
v 0.50113869 0.09500569 0.02105905
v 0.50370878 0.08500355 0.01499739
v 0.50481552 0.08500355 0.00499936
v 0.50436240 0.09500569 0.00499936
v 0.50270599 0.10499392 -0.00499867
v 0.50145066 0.10593988 -0.01592998
v 0.50334477 0.09500569 -0.01499670
v 0.50064099 0.10323416 -0.02063330
v 0.49379978 0.11499606 -0.02172366
v 0.48499760 0.12499820 -0.02299883
v 0.48431420 0.13522293 -0.02161740
v 0.47499949 0.12499820 0.02353545
v 0.45500329 0.13522293 0.02305958
v 0.46500140 0.13499339 0.02352622
v 0.48499760 0.10499392 0.02352622
v 0.49499571 0.08500355 0.02295331
v 0.50131691 0.08500355 0.02118841
v 0.50096041 0.07500140 0.02090196
v 0.50291395 0.07500140 0.01499739
v 0.50482297 0.08500355 -0.00499867
v 0.50395387 0.07500140 0.00499936
v 0.50436240 0.09500569 -0.00499867
v 0.50375330 0.08500355 -0.01499670
v 0.50118321 0.09500569 -0.02110918
v 0.49596876 0.10593988 -0.02181607
v 0.49499571 0.09500569 -0.02292490
v 0.48499760 0.11499606 -0.02355787
v 0.47499949 0.13499339 -0.02346546
v 0.47499949 0.13522293 -0.02343312
v 0.48499760 0.08500355 0.02354470
v 0.48499760 0.09500569 0.02354008
v 0.46416944 0.06416459 0.02279161
v 0.47416013 0.06416459 0.02351235
v 0.44528002 0.13522293 0.02144714
v 0.47499949 0.06416459 0.02351698
v 0.48499760 0.07500140 0.02353084
v 0.48499760 0.06500622 0.02348925
v 0.49499571 0.07500140 0.02265300
v 0.49541166 0.06510360 0.02162271
v 0.50041813 0.06850488 0.02042609
v 0.50087869 0.06510360 0.01402716
v 0.50395387 0.07500140 -0.00499867
v 0.50295109 0.07500140 -0.01499670
v 0.50161403 0.06500622 0.00499936
v 0.50072271 0.06416459 0.01330179
v 0.50099754 0.07500140 -0.02094747
v 0.50136149 0.08500355 -0.02123854
v 0.49499571 0.08500355 -0.02305889
v 0.48499760 0.10499392 -0.02363641
v 0.47499949 0.12499820 -0.02364565
v 0.47477666 0.13522293 -0.02346546
v 0.45542669 0.06416459 0.02104057
v 0.44521317 0.13522293 0.02143328
v 0.48415822 0.06416459 0.02349387
v 0.48499760 0.06416459 0.02346153
v 0.49514425 0.06416459 0.02160423
v 0.49445346 0.06416459 0.02176593
v 0.49951193 0.06416459 0.01801436
v 0.50035131 0.06416459 0.01479411
v 0.50161403 0.06500622 -0.00499867
v 0.50089353 0.06505491 -0.01403109
v 0.50044787 0.06842142 -0.02045774
v 0.50134665 0.06416459 0.00584023
v 0.50135410 0.06416459 0.00499936
v 0.49544138 0.06505491 -0.02168670
v 0.49499571 0.07500140 -0.02275396
v 0.48499760 0.06416459 -0.02357173
v 0.48499760 0.06500622 -0.02359483
v 0.48499760 0.07500140 -0.02364103
v 0.48499760 0.08500355 -0.02365489
v 0.48499760 0.09500569 -0.02365027
v 0.46477854 0.13522293 -0.02363641
v 0.45531526 0.06416459 0.02099899
v 0.43524480 0.13522293 0.01513600
v 0.50135410 0.06416459 -0.00499867
v 0.50073755 0.06416459 -0.01333807
v 0.50040329 0.06416459 -0.01475184
v 0.49641445 0.06416459 -0.02035147
v 0.49518883 0.06416459 -0.02166360
v 0.47499949 0.06416459 -0.02362717
v 0.45478046 0.13522293 -0.02314667
v 0.45057619 0.06416459 0.01769095
v 0.42894584 0.13522293 0.00495316
v 0.44204885 0.06416459 0.00830278
v 0.44638681 0.06416459 0.01378691
v 0.44730788 0.06416459 0.01492347
v 0.46500140 0.06416459 -0.02293876
v 0.44520575 0.13522293 -0.02149265
v 0.44072667 0.06416459 0.00529505
v 0.42894584 0.13522293 -0.00495247
v 0.45559010 0.06416459 -0.02110456
v 0.44515374 0.13522293 -0.02147879
v 0.45527071 0.06416459 -0.02103064
v 0.44072667 0.06416459 -0.00529436
v 0.43062457 0.13522293 -0.00844531
v 0.43997642 0.13522293 -0.01915947
v 0.44727072 0.06416459 -0.01492278
v 0.43520764 0.13522293 -0.01514455
f 1 2 3
f 1 3 4
f 1 4 5
f 1 5 11
f 1 11 23
f 1 23 36
f 1 36 39
f 1 39 55
f 1 55 73
f 1 73 95
f 1 95 116
f 1 116 125
f 1 125 132
f 1 132 136
f 1 136 140
f 1 140 142
f 1 142 139
f 1 139 134
f 1 134 127
f 1 127 118
f 1 118 97
f 1 97 78
f 1 78 57
f 1 57 41
f 1 41 24
f 1 24 13
f 1 13 6
f 1 6 2
f 2 6 7
f 2 7 8
f 2 8 9
f 2 9 3
f 3 9 4
f 4 10 11
f 4 11 5
f 4 9 12
f 4 12 10
f 6 13 7
f 7 14 15
f 7 15 8
f 7 13 16
f 7 16 14
f 8 15 17
f 8 17 18
f 8 18 19
f 8 19 9
f 9 19 20
f 9 20 12
f 10 12 21
f 10 21 22
f 10 22 23
f 10 23 11
f 12 20 21
f 13 24 16
f 14 16 25
f 14 25 26
f 14 26 27
f 14 27 15
f 15 27 28
f 15 28 29
f 15 29 18
f 15 18 17
f 16 24 25
f 18 29 30
f 18 30 31
f 18 31 19
f 19 31 20
f 20 32 21
f 20 31 33
f 20 33 32
f 21 32 34
f 21 34 35
f 21 35 22
f 22 36 23
f 22 35 37
f 22 37 38
f 22 38 39
f 22 39 36
f 24 40 25
f 24 41 40
f 25 42 43
f 25 43 26
f 25 40 42
f 26 43 44
f 26 44 27
f 27 44 45
f 27 45 28
f 28 46 47
f 28 47 48
f 28 48 29
f 28 45 46
f 29 48 30
f 30 48 66
f 30 66 49
f 30 49 33
f 30 33 31
f 32 33 49
f 32 49 50
f 32 50 35
f 32 35 34
f 35 50 51
f 35 51 52
f 35 52 37
f 37 53 54
f 37 54 38
f 37 52 53
f 38 55 39
f 38 54 55
f 40 41 56
f 40 56 42
f 41 57 58
f 41 58 74
f 41 74 56
f 42 56 59
f 42 59 60
f 42 60 43
f 43 60 61
f 43 61 45
f 43 45 44
f 45 61 46
f 46 61 62
f 46 62 63
f 46 63 47
f 47 64 48
f 47 63 65
f 47 65 64
f 48 64 66
f 49 66 50
f 50 66 51
f 51 66 64
f 51 64 67
f 51 67 68
f 51 68 52
f 52 69 53
f 52 68 69
f 53 69 70
f 53 70 54
f 54 70 71
f 54 71 72
f 54 72 73
f 54 73 55
f 56 74 75
f 56 75 59
f 57 76 77
f 57 77 58
f 57 78 76
f 58 77 79
f 58 79 74
f 59 75 60
f 60 75 74
f 60 74 80
f 60 80 81
f 60 81 82
f 60 82 61
f 61 82 62
f 62 82 83
f 62 83 84
f 62 84 63
f 63 84 85
f 63 85 65
f 64 65 86
f 64 86 87
f 64 87 67
f 65 88 104
f 65 104 86
f 65 85 89
f 65 89 88
f 67 87 90
f 67 90 91
f 67 91 68
f 68 91 70
f 68 70 69
f 70 91 92
f 70 92 71
f 71 93 94
f 71 94 72
f 71 92 93
f 72 94 95
f 72 95 73
f 74 79 80
f 76 78 96
f 76 96 117
f 76 117 126
f 76 126 130
f 76 130 129
f 76 129 128
f 76 128 133
f 76 133 138
f 76 138 141
f 76 141 137
f 76 137 135
f 76 135 131
f 76 131 124
f 76 124 111
f 76 111 123
f 76 123 122
f 76 122 121
f 76 121 120
f 76 120 119
f 76 119 108
f 76 108 107
f 76 107 89
f 76 89 103
f 76 103 102
f 76 102 100
f 76 100 101
f 76 101 99
f 76 99 98
f 76 98 79
f 76 79 77
f 78 97 96
f 79 98 80
f 80 98 81
f 81 98 99
f 81 99 82
f 82 100 83
f 82 99 101
f 82 101 100
f 83 100 84
f 84 100 102
f 84 102 103
f 84 103 85
f 85 103 89
f 86 104 105
f 86 105 87
f 87 105 106
f 87 106 90
f 88 89 107
f 88 107 108
f 88 108 119
f 88 119 104
f 90 106 109
f 90 109 110
f 90 110 91
f 91 110 92
f 92 110 111
f 92 111 112
f 92 112 113
f 92 113 114
f 92 114 115
f 92 115 93
f 93 115 94
f 94 115 114
f 94 114 116
f 94 116 95
f 96 97 117
f 97 118 117
f 104 119 120
f 104 120 105
f 105 120 121
f 105 121 106
f 106 121 122
f 106 122 123
f 106 123 109
f 109 123 110
f 110 123 111
f 111 124 112
f 112 124 113
f 113 124 114
f 114 124 116
f 116 124 125
f 117 118 126
f 118 127 128
f 118 128 129
f 118 129 130
f 118 130 126
f 124 131 125
f 125 131 132
f 127 133 128
f 127 134 138
f 127 138 133
f 131 135 132
f 132 135 137
f 132 137 136
f 134 139 138
f 136 137 140
f 137 141 140
f 138 139 141
f 139 142 141
f 140 141 142

