# https://github.com/mikedh/trimesh
v 0.25799814 0.17188495 0.00499902
v 0.25799814 0.17188495 -0.00499713
v 0.25683737 0.17140102 0.00499902
v 0.25799814 0.17099628 0.01482409
v 0.25799814 0.17101388 -0.01499790
v 0.25782046 0.17094348 -0.01499790
v 0.25683737 0.17140102 -0.00499713
v 0.25786784 0.17092589 0.01499979
v 0.25183892 0.16914853 0.00499902
v 0.25799814 0.17097868 0.01499979
v 0.25799814 0.17087309 -0.01565907
v 0.23916516 0.16044652 -0.02042134
v 0.23795700 0.16112404 -0.01499790
v 0.25183892 0.16914853 -0.00499713
v 0.25799814 0.16994922 0.01927659
v 0.25799814 0.17087309 0.01547601
v 0.23799254 0.16110644 0.01499979
v 0.23921254 0.16042013 0.02039086
v 0.24499272 0.16576099 0.00499902
v 0.25799814 0.16864701 -0.02074961
v 0.24499272 0.16172236 -0.02115649
v 0.22684674 0.15163894 -0.02107326
v 0.20836911 0.14100121 -0.02077736
v 0.22017820 0.14982639 -0.01957523
v 0.24499272 0.16576099 -0.00499713
v 0.21918325 0.15050390 -0.01290805
v 0.23211759 0.15877476 -0.00499713
v 0.23711604 0.16159917 -0.00499713
v 0.25799814 0.16855901 0.02072838
v 0.23711604 0.16159917 0.00499902
v 0.23211759 0.15877476 0.00499902
v 0.21918325 0.15050390 0.01279435
v 0.22023743 0.14977360 0.01946153
v 0.24499272 0.16166957 0.02110752
v 0.20841648 0.14096601 0.02074688
v 0.22690596 0.15159495 0.02103354
v 0.25799814 0.16507469 -0.02194249
v 0.25549892 0.16510110 -0.02160497
v 0.24499272 0.15499128 -0.02298742
v 0.23549332 0.15498248 -0.02162347
v 0.21499026 0.14312172 -0.02147551
v 0.20501707 0.13517642 -0.02185927
v 0.18598275 0.12453868 -0.02113337
v 0.17875752 0.12089598 -0.02068951
v 0.18997438 0.13002032 -0.02001909
v 0.20677008 0.14205706 -0.01499790
v 0.21873316 0.15077667 -0.00499713
v 0.22499898 0.15456015 -0.00499713
v 0.20095436 0.13936463 -0.00499713
v 0.20595279 0.14263779 -0.00499713
v 0.21373473 0.14763549 -0.00499713
v 0.25799814 0.16669367 0.02140805
v 0.22499898 0.15456015 0.00499902
v 0.21873316 0.15077667 0.00499902
v 0.21373473 0.14763549 0.00499902
v 0.20595279 0.14262898 0.00499902
v 0.20095436 0.13936463 0.00499902
v 0.18909788 0.13063625 0.01331681
v 0.20681746 0.14203067 0.01499979
v 0.19000992 0.12999393 0.01998399
v 0.23551701 0.15495609 0.02156062
v 0.24499272 0.15499128 0.02288296
v 0.25553444 0.16508350 0.02154675
v 0.17880489 0.12086079 0.02065441
v 0.18501148 0.12313967 0.02134794
v 0.20505260 0.13515002 0.02179180
v 0.21499026 0.14306013 0.02142192
v 0.25799814 0.15499128 -0.02351451
v 0.25498959 0.15499128 -0.02356074
v 0.23499584 0.14499587 -0.02353762
v 0.21499026 0.13499165 -0.02330644
v 0.19500835 0.12500502 -0.02264065
v 0.17526335 0.11496560 -0.02172519
v 0.16791967 0.11160447 -0.02099004
v 0.16113269 0.10896483 -0.01499790
v 0.16613114 0.11305626 -0.01499790
v 0.17242064 0.11806277 -0.01499790
v 0.17741907 0.12189025 -0.01499790
v 0.18430081 0.12688796 -0.01499790
v 0.18929924 0.13048667 -0.01499790
v 0.19500835 0.13534360 -0.00499713
v 0.25799814 0.16505709 0.02186578
v 0.19500835 0.13534360 0.00499902
v 0.18860041 0.13097060 0.00499902
v 0.18360198 0.12745108 0.00499902
v 0.17667286 0.12246217 0.00499902
v 0.17745461 0.12186385 0.01499979
v 0.18546158 0.12747748 0.01598923
v 0.17245618 0.11802758 0.01499979
v 0.23499584 0.14499587 0.02342854
v 0.25498959 0.15499128 0.02345166
v 0.25799814 0.15799168 0.02325285
v 0.21499026 0.13499165 0.02319737
v 0.16616666 0.11302987 0.01499979
v 0.16116823 0.10892963 0.01499979
v 0.16796705 0.11156047 0.02095494
v 0.17528704 0.11493921 0.02166234
v 0.18501148 0.11500080 0.02310027
v 0.25799814 0.14496946 -0.02228464
v 0.20799008 0.08200534 -0.02297817
v 0.20499338 0.08200534 -0.02328333
v 0.19799320 0.08200534 -0.02354687
v 0.19500835 0.08200534 -0.02361160
v 0.18799633 0.08200534 -0.02365784
v 0.18501148 0.08500573 -0.02367171
v 0.20499338 0.11500080 -0.02364859
v 0.22499898 0.13499165 -0.02359773
v 0.20499338 0.12500502 -0.02356999
v 0.18501148 0.11500080 -0.02320935
v 0.16475716 0.10529573 -0.02195637
v 0.15757930 0.10216337 -0.02106864
v 0.15091078 0.09909259 -0.01706463
v 0.16033910 0.10972153 -0.00499713
v 0.15454708 0.10321922 -0.01423964
v 0.14992768 0.10007805 -0.01039745
v 0.16534939 0.11374257 -0.00499713
v 0.17167443 0.11874908 -0.00499713
v 0.17667286 0.12246217 -0.00499713
v 0.18360198 0.12745108 -0.00499713
v 0.18860041 0.13097939 -0.00499713
v 0.17167443 0.11874908 0.00499902
v 0.16534939 0.11374257 0.00499902
v 0.22499898 0.13499165 0.02348865
v 0.20499338 0.12500502 0.02346091
v 0.25799814 0.15499128 0.02341005
v 0.20499338 0.11500080 0.02353489
v 0.19500835 0.10500537 0.02355338
v 0.18501148 0.08200534 0.02355801
v 0.19500835 0.08200534 0.02349790
v 0.16033910 0.10971272 0.00499902
v 0.14992768 0.10007805 0.01038085
v 0.15458262 0.10319282 0.01422765
v 0.15097000 0.09903979 0.01704803
v 0.15763852 0.10211057 0.02103354
v 0.16478084 0.10526934 0.02188890
v 0.17500277 0.10500537 0.02334070
v 0.25799814 0.13893349 -0.02054618
v 0.21694462 0.08200534 -0.02110101
v 0.21515608 0.08200534 -0.02148939
v 0.18501148 0.08200534 -0.02366708
v 0.18501148 0.09500115 -0.02366708
v 0.19500835 0.10500537 -0.02366246
v 0.17500277 0.08200534 -0.02366708
v 0.17500277 0.08500573 -0.02366708
v 0.19500835 0.11500080 -0.02363009
v 0.16500589 0.09500115 -0.02350988
v 0.17500277 0.10500537 -0.02344977
v 0.15454708 0.09545869 -0.02199798
v 0.14791408 0.09242311 -0.02106402
v 0.14684807 0.09545869 -0.01423964
v 0.15500902 0.10486459 -0.00499713
v 0.14032167 0.08889479 -0.00499713
v 0.14517798 0.09500115 -0.00499713
v 0.14985660 0.10014844 -0.00499713
v 0.19500835 0.11500080 0.02351639
v 0.16500589 0.09500115 0.02340080
v 0.25799814 0.14799625 0.02281823
v 0.20499338 0.08200534 0.02315576
v 0.18501148 0.10500537 0.02353026
v 0.17500277 0.09500115 0.02353489
v 0.18501148 0.09500115 0.02355801
v 0.18201479 0.08200534 0.02356263
v 0.15500902 0.10485579 0.00499902
v 0.14985660 0.10014844 0.00499902
v 0.14518982 0.09500115 0.00499902
v 0.14033352 0.08921155 0.00499902
v 0.14687175 0.09542349 0.01422765
v 0.14794962 0.09237032 0.02102891
v 0.15458262 0.09542349 0.02193051
v 0.25799814 0.13444611 -0.01521983
v 0.22322229 0.08200534 -0.01537703
v 0.21973996 0.08200534 -0.01970469
v 0.17500277 0.09500115 -0.02364397
v 0.18501148 0.10500537 -0.02363934
v 0.16500589 0.08200534 -0.02363934
v 0.16500589 0.08500573 -0.02363472
v 0.15500902 0.08500573 -0.02346827
v 0.14617293 0.08500573 -0.02166508
v 0.14090206 0.08200534 -0.01668550
v 0.14107972 0.08538408 -0.01552961
v 0.13788168 0.08200534 -0.00493240
v 0.13700518 0.08200534 0.00499902
v 0.15500902 0.08500573 0.02335919
v 0.16500589 0.08500573 0.02352564
v 0.25799814 0.14496946 0.02221255
v 0.21450463 0.08200534 0.02150514
v 0.17500277 0.08500573 0.02355801
v 0.17500277 0.08200534 0.02355801
v 0.14113896 0.08563924 0.01569794
v 0.13839099 0.08200534 0.01196211
v 0.13929118 0.08200534 0.01511075
v 0.14096129 0.08200534 0.01698330
v 0.14456205 0.08200534 0.02096419
v 0.14624399 0.08500573 0.02161149
v 0.25799814 0.13075063 -0.00499713
v 0.22659799 0.08200534 -0.00499713
v 0.15500902 0.08200534 -0.02349139
v 0.14598340 0.08200534 -0.02168357
v 0.13953993 0.08200534 -0.01261676
v 0.13957545 0.08230450 -0.01255203
v 0.15220185 0.08200534 0.02285522
v 0.15500902 0.08200534 0.02338231
v 0.16200919 0.08200534 0.02349790
v 0.16500589 0.08200534 0.02353026
v 0.17200607 0.08200534 0.02355338
v 0.25799814 0.14034130 0.02101504
v 0.21939646 0.08200534 0.01946153
v 0.14606632 0.08200534 0.02162998
v 0.25799814 0.13075063 0.00499902
v 0.22655062 0.08200534 0.00499902
v 0.25799814 0.13897750 0.02052032
v 0.22341180 0.08200534 0.01471313
v 0.25799814 0.13084741 0.00540127
v 0.25799814 0.13447252 0.01521247
v 0.25799814 0.13641705 0.01781091
f 1 2 7
f 1 7 3
f 1 3 4
f 1 4 10
f 1 10 16
f 1 16 15
f 1 15 29
f 1 29 52
f 1 52 82
f 1 82 92
f 1 92 125
f 1 125 157
f 1 157 185
f 1 185 206
f 1 206 211
f 1 211 215
f 1 215 214
f 1 214 213
f 1 213 209
f 1 209 195
f 1 195 170
f 1 170 137
f 1 137 99
f 1 99 68
f 1 68 37
f 1 37 20
f 1 20 11
f 1 11 5
f 1 5 2
f 2 5 6
f 2 6 7
f 3 8 4
f 3 7 14
f 3 14 9
f 3 9 8
f 4 8 10
f 5 11 6
f 6 11 12
f 6 12 13
f 6 13 14
f 6 14 7
f 8 15 16
f 8 16 10
f 8 9 17
f 8 17 18
f 8 18 15
f 9 14 25
f 9 25 19
f 9 19 17
f 11 20 12
f 12 20 21
f 12 21 22
f 12 22 23
f 12 23 24
f 12 24 13
f 13 25 14
f 13 24 26
f 13 26 27
f 13 27 28
f 13 28 25
f 15 18 29
f 17 19 30
f 17 30 31
f 17 31 32
f 17 32 33
f 17 33 18
f 18 34 29
f 18 33 35
f 18 35 36
f 18 36 34
f 19 25 28
f 19 28 30
f 20 37 38
f 20 38 21
f 21 39 40
f 21 40 22
f 21 38 37
f 21 37 39
f 22 40 41
f 22 41 23
f 23 42 43
f 23 43 44
f 23 44 45
f 23 45 24
f 23 41 42
f 24 45 46
f 24 46 26
f 26 47 48
f 26 48 27
f 26 46 49
f 26 49 50
f 26 50 51
f 26 51 47
f 27 48 53
f 27 53 31
f 27 31 30
f 27 30 28
f 29 34 52
f 31 53 32
f 32 53 54
f 32 54 55
f 32 55 56
f 32 56 57
f 32 57 58
f 32 58 59
f 32 59 33
f 33 59 60
f 33 60 35
f 34 36 61
f 34 61 62
f 34 62 63
f 34 63 52
f 35 60 64
f 35 64 65
f 35 65 66
f 35 66 67
f 35 67 36
f 36 67 61
f 37 68 69
f 37 69 39
f 39 41 40
f 39 69 70
f 39 70 71
f 39 71 41
f 41 71 42
f 42 71 72
f 42 72 73
f 42 73 43
f 43 73 44
f 44 73 74
f 44 74 75
f 44 75 76
f 44 76 77
f 44 77 45
f 45 77 78
f 45 78 79
f 45 79 80
f 45 80 46
f 46 80 49
f 47 54 53
f 47 53 48
f 47 51 55
f 47 55 54
f 49 81 83
f 49 83 57
f 49 57 50
f 49 80 81
f 50 57 56
f 50 56 55
f 50 55 51
f 52 63 82
f 57 83 58
f 58 84 85
f 58 85 86
f 58 86 87
f 58 87 88
f 58 88 60
f 58 60 59
f 58 83 84
f 60 88 87
f 60 87 89
f 60 89 64
f 61 67 62
f 62 90 91
f 62 91 92
f 62 92 82
f 62 82 63
f 62 67 93
f 62 93 90
f 64 89 94
f 64 94 95
f 64 95 96
f 64 96 97
f 64 97 65
f 65 97 66
f 66 93 67
f 66 97 98
f 66 98 93
f 68 99 100
f 68 100 101
f 68 101 102
f 68 102 103
f 68 103 69
f 69 103 104
f 69 104 105
f 69 105 106
f 69 106 107
f 69 107 70
f 70 107 108
f 70 108 71
f 71 108 109
f 71 109 72
f 72 109 73
f 73 110 74
f 73 109 110
f 74 110 111
f 74 111 112
f 74 112 75
f 75 113 76
f 75 112 114
f 75 114 115
f 75 115 113
f 76 113 116
f 76 116 77
f 77 116 117
f 77 117 78
f 78 117 118
f 78 118 79
f 79 118 119
f 79 119 80
f 80 119 120
f 80 120 81
f 81 120 83
f 83 120 84
f 84 120 85
f 85 120 119
f 85 119 118
f 85 118 86
f 86 118 117
f 86 117 121
f 86 121 87
f 87 121 89
f 89 121 122
f 89 122 94
f 90 123 91
f 90 93 124
f 90 124 123
f 91 125 92
f 91 123 126
f 91 126 127
f 91 127 128
f 91 128 129
f 91 129 125
f 93 98 124
f 94 122 130
f 94 130 95
f 95 130 131
f 95 131 132
f 95 132 133
f 95 133 96
f 96 133 134
f 96 134 135
f 96 135 97
f 97 135 98
f 98 135 136
f 98 136 124
f 99 137 138
f 99 138 139
f 99 139 100
f 100 139 138
f 100 138 172
f 100 172 171
f 100 171 196
f 100 196 210
f 100 210 212
f 100 212 207
f 100 207 186
f 100 186 158
f 100 158 129
f 100 129 128
f 100 128 162
f 100 162 188
f 100 188 205
f 100 205 204
f 100 204 203
f 100 203 202
f 100 202 201
f 100 201 208
f 100 208 193
f 100 193 192
f 100 192 191
f 100 191 190
f 100 190 182
f 100 182 181
f 100 181 199
f 100 199 179
f 100 179 198
f 100 198 197
f 100 197 175
f 100 175 143
f 100 143 140
f 100 140 104
f 100 104 103
f 100 103 102
f 100 102 101
f 104 140 105
f 105 141 142
f 105 142 106
f 105 140 143
f 105 143 144
f 105 144 141
f 106 142 145
f 106 145 107
f 107 145 108
f 108 145 146
f 108 146 147
f 108 147 109
f 109 147 110
f 110 147 148
f 110 148 111
f 111 148 149
f 111 149 112
f 112 149 150
f 112 150 115
f 112 115 114
f 113 115 151
f 113 151 163
f 113 163 130
f 113 130 122
f 113 122 116
f 115 150 152
f 115 152 153
f 115 153 154
f 115 154 151
f 116 122 121
f 116 121 117
f 123 124 155
f 123 155 126
f 124 136 156
f 124 156 155
f 125 129 158
f 125 158 157
f 126 155 127
f 127 155 159
f 127 159 160
f 127 160 161
f 127 161 162
f 127 162 128
f 130 163 131
f 131 133 132
f 131 163 164
f 131 164 165
f 131 165 166
f 131 166 167
f 131 167 133
f 133 167 168
f 133 168 134
f 134 168 169
f 134 169 135
f 135 169 136
f 136 169 156
f 137 170 171
f 137 171 172
f 137 172 138
f 141 144 173
f 141 173 142
f 142 173 174
f 142 174 145
f 143 175 144
f 144 175 176
f 144 176 173
f 145 174 146
f 146 174 173
f 146 173 176
f 146 176 177
f 146 177 148
f 146 148 147
f 148 177 149
f 149 178 179
f 149 179 180
f 149 180 150
f 149 177 178
f 150 180 152
f 151 154 164
f 151 164 163
f 152 166 153
f 152 180 181
f 152 181 182
f 152 182 166
f 153 166 165
f 153 165 164
f 153 164 154
f 155 156 159
f 156 183 184
f 156 184 160
f 156 160 159
f 156 169 183
f 157 158 186
f 157 186 185
f 160 184 187
f 160 187 161
f 161 187 162
f 162 187 188
f 166 189 167
f 166 182 190
f 166 190 189
f 167 189 168
f 168 189 191
f 168 191 192
f 168 192 193
f 168 193 194
f 168 194 183
f 168 183 169
f 170 195 196
f 170 196 171
f 175 197 176
f 176 197 177
f 177 197 198
f 177 198 178
f 178 198 179
f 179 199 180
f 180 199 200
f 180 200 181
f 181 200 199
f 183 194 201
f 183 201 202
f 183 202 184
f 184 202 203
f 184 203 204
f 184 204 205
f 184 205 187
f 185 186 206
f 186 207 206
f 187 205 188
f 189 190 191
f 193 208 194
f 194 208 201
f 195 209 196
f 196 209 210
f 206 207 211
f 207 212 211
f 209 213 210
f 210 213 214
f 210 214 212
f 211 212 215
f 212 214 215

