# https://github.com/mikedh/trimesh
v 0.35502076 0.19090566 -0.00499481
v 0.35502076 0.19042291 -0.01309112
v 0.34501374 0.19038759 -0.01285571
v 0.34501374 0.19082324 -0.00499481
v 0.34501374 0.19082324 0.00499403
v 0.35502076 0.19089389 0.00499403
v 0.36502776 0.19051123 0.00499865
v 0.36400431 0.19055243 -0.00499481
v 0.36502776 0.19023453 -0.01173404
v 0.36400431 0.19025807 -0.01187252
v 0.35502076 0.18934557 -0.01809015
v 0.34501374 0.18928669 -0.01785013
v 0.33500671 0.19017565 -0.01136477
v 0.32975304 0.19002259 -0.01021540
v 0.33500671 0.19040525 -0.00499481
v 0.33500671 0.19040525 0.00499403
v 0.32977578 0.19001670 0.01020540
v 0.33500671 0.19017565 0.01130860
v 0.34501374 0.19038759 0.01273492
v 0.35502076 0.19042291 0.01296571
v 0.36502776 0.19023453 0.01165941
v 0.37055436 0.19004613 0.01036695
v 0.37103197 0.19008735 0.00499865
v 0.36502776 0.19051123 -0.00499481
v 0.37055436 0.19004613 -0.01038619
v 0.36502776 0.18903354 -0.01673307
v 0.36400431 0.18457109 -0.02141361
v 0.36398157 0.18406479 -0.02179212
v 0.35502076 0.18434738 -0.02179673
v 0.34501374 0.18428850 -0.02179673
v 0.33500671 0.18395293 -0.02178750
v 0.40498760 0.18156864 -0.02132591
v 0.39500332 0.18228097 -0.02162594
v 0.38499632 0.18289325 -0.02173211
v 0.37498930 0.18348196 -0.02176904
v 0.32499969 0.18338776 -0.02176904
v 0.31501544 0.18271662 -0.02171364
v 0.30500841 0.18204549 -0.02155209
v 0.29502413 0.18118596 -0.02106280
v 0.33500671 0.18895112 -0.01636842
v 0.32948011 0.19005202 -0.00499481
v 0.32586393 0.18849193 -0.01412970
v 0.31501544 0.18679054 -0.01499749
v 0.30500841 0.18527754 -0.01499749
v 0.31501544 0.18818580 -0.00499481
v 0.32447660 0.18946919 -0.00499481
v 0.32948011 0.19005202 0.00499403
v 0.32447660 0.18946919 0.00499403
v 0.31501544 0.18818580 0.00499403
v 0.30500841 0.18649618 0.00499403
v 0.30500841 0.18522456 0.01499671
v 0.31501544 0.18673167 0.01499671
v 0.32586393 0.18843894 0.01411969
v 0.33500671 0.18887459 0.01630764
v 0.34501374 0.18921016 0.01773857
v 0.35502076 0.18926904 0.01796936
v 0.36502776 0.18896291 0.01665844
v 0.37430701 0.18856846 0.01421663
v 0.38499632 0.18712021 0.01499671
v 0.39500332 0.18578972 0.01499671
v 0.39500332 0.18714377 0.00499865
v 0.38499632 0.18860967 0.00499865
v 0.37599000 0.18961637 0.00499865
v 0.37103197 0.19008735 -0.00499481
v 0.37599000 0.18961637 -0.00499481
v 0.38499632 0.18860967 -0.00499481
v 0.39500332 0.18714377 -0.00499481
v 0.39500332 0.18584271 -0.01499288
v 0.38499632 0.18718497 -0.01499288
v 0.37430701 0.18862733 -0.01422663
v 0.41499463 0.18064435 -0.02061044
v 0.36502776 0.18402946 -0.02178750
v 0.39500332 0.17499268 -0.02346308
v 0.38499632 0.17499268 -0.02356924
v 0.36398157 0.17499268 -0.02362002
v 0.33500671 0.17499268 -0.02361540
v 0.37498930 0.17499268 -0.02360617
v 0.32499969 0.17499268 -0.02360155
v 0.31501544 0.17499268 -0.02355078
v 0.43498591 0.17232580 -0.02152439
v 0.41499463 0.17499268 -0.02242449
v 0.40498760 0.17499268 -0.02315381
v 0.30500841 0.17499268 -0.02338922
v 0.29502413 0.17499268 -0.02289532
v 0.27501011 0.17299694 -0.02169056
v 0.26500309 0.17134853 -0.02105819
v 0.28829214 0.18044418 -0.02045812
v 0.29502413 0.18332890 -0.01499749
v 0.30500841 0.18649618 -0.00499481
v 0.29502413 0.18431793 0.00499403
v 0.29502413 0.18328768 0.01499671
v 0.28838313 0.18042064 0.02042964
v 0.29502413 0.18114476 0.02101587
v 0.30500841 0.18199250 0.02150054
v 0.31501544 0.18265775 0.02165748
v 0.32499969 0.18332301 0.02171287
v 0.33500671 0.18387640 0.02173133
v 0.34501374 0.18421197 0.02174057
v 0.35502076 0.18427083 0.02174057
v 0.36400431 0.18398826 0.02173595
v 0.36502776 0.18395881 0.02173133
v 0.37498930 0.18341720 0.02171287
v 0.38499632 0.18283437 0.02167594
v 0.39500332 0.18222800 0.02157439
v 0.40498760 0.18152153 0.02127436
v 0.41499463 0.18060315 0.02056812
v 0.42020282 0.18004975 0.02005576
v 0.40498760 0.18415309 0.01499671
v 0.40498760 0.18528931 0.00499865
v 0.40498760 0.18528931 -0.00499481
v 0.40498760 0.18419430 -0.01499288
v 0.42029381 0.18007329 -0.02007961
v 0.43498591 0.16499630 -0.02335691
v 0.42500165 0.16499630 -0.02359694
v 0.41499463 0.16499630 -0.02361540
v 0.44499293 0.15500580 -0.02362925
v 0.46475679 0.13522495 -0.02363386
v 0.28501713 0.16499630 -0.02356924
v 0.27501011 0.16499630 -0.02352770
v 0.44262764 0.17106006 -0.02088278
v 0.44558424 0.16567920 -0.02196290
v 0.26500309 0.16499630 -0.02288609
v 0.25799817 0.16507283 -0.02193983
v 0.25799817 0.16864634 -0.02074892
v 0.25920355 0.17033595 -0.02033810
v 0.28162837 0.17920199 -0.01716235
v 0.28499436 0.18091516 -0.01430049
v 0.29502413 0.18431793 -0.00499481
v 0.27980891 0.18006152 -0.01049697
v 0.28501713 0.18165694 0.00499403
v 0.27980891 0.18006152 0.01047774
v 0.28503984 0.18089750 0.01428125
v 0.28171936 0.17915490 0.01714312
v 0.25924903 0.17031239 0.02031425
v 0.26500309 0.17130733 0.02101125
v 0.27501011 0.17293806 0.02163440
v 0.29502413 0.17499268 0.02278838
v 0.30500841 0.17499268 0.02328228
v 0.31501544 0.17499268 0.02343922
v 0.32499969 0.17499268 0.02348999
v 0.33500671 0.17499268 0.02350384
v 0.36398157 0.17499268 0.02350846
v 0.37498930 0.17499268 0.02349461
v 0.38499632 0.17499268 0.02345768
v 0.39500332 0.17499268 0.02335613
v 0.40498760 0.17499268 0.02304687
v 0.41499463 0.17499268 0.02232679
v 0.43498591 0.17227282 0.02147284
v 0.42174935 0.18049128 0.01499671
v 0.41499463 0.18212202 0.01499671
v 0.44258216 0.17102474 0.02084969
v 0.44924593 0.16942343 0.01835248
v 0.44553876 0.17183717 0.01501056
v 0.43498591 0.17583454 0.01499671
v 0.41499463 0.18306397 0.00499865
v 0.41499463 0.18306397 -0.00499481
v 0.41499463 0.18215735 -0.01499288
v 0.42181760 0.18050894 -0.01499288
v 0.42682111 0.17876045 -0.01499288
v 0.43498591 0.17588753 -0.01499288
v 0.44558424 0.17185482 -0.01505288
v 0.44929141 0.16947642 -0.01842711
v 0.45497721 0.15500580 -0.02330614
v 0.46498424 0.14500940 -0.02351385
v 0.46498424 0.13522495 -0.02363386
v 0.25799817 0.13076249 -0.00499481
v 0.25799817 0.13445373 -0.01521905
v 0.25799817 0.13895153 -0.02054120
v 0.25799817 0.14497997 -0.02228140
v 0.25799817 0.15500580 -0.02351385
v 0.46152726 0.16102247 -0.02079969
v 0.45497721 0.16288280 -0.02148285
v 0.25799817 0.17087168 -0.01565757
v 0.26500309 0.17375049 -0.01499749
v 0.28501713 0.18165694 -0.00499481
v 0.27964970 0.18011451 -0.00499481
v 0.25799817 0.17100708 -0.01499749
v 0.26500309 0.17483962 -0.00499481
v 0.27464622 0.17843078 -0.00499481
v 0.27964970 0.18011451 0.00499403
v 0.27464622 0.17843078 0.00499403
v 0.26500309 0.17483373 0.00499403
v 0.25799817 0.17099530 0.01482131
v 0.26500309 0.17370929 0.01499671
v 0.25799817 0.17087168 0.01547215
v 0.25799817 0.16994150 0.01927567
v 0.25799817 0.16855213 0.02072968
v 0.25799817 0.16669179 0.02140360
v 0.25799817 0.16505517 0.02186519
v 0.26500309 0.16499630 0.02277914
v 0.27501011 0.16499630 0.02341614
v 0.28501713 0.16499630 0.02345768
v 0.46498424 0.13522495 0.02352231
v 0.45497721 0.14500940 0.02352231
v 0.44499293 0.15500580 0.02351307
v 0.41499463 0.16499630 0.02350384
v 0.42500165 0.16499630 0.02348538
v 0.43498591 0.16499630 0.02324997
v 0.44553876 0.16565566 0.02190212
v 0.43498591 0.17715916 0.00499865
v 0.42825392 0.17949046 0.00499865
v 0.42325041 0.18092105 0.00499865
v 0.45497721 0.16281804 0.02143130
v 0.46150452 0.16099302 0.02076661
v 0.45049679 0.17026530 0.01168710
v 0.46302831 0.16205861 0.01499671
v 0.45429492 0.16729817 0.01501056
v 0.42325041 0.18092105 -0.00499481
v 0.42825392 0.17949046 -0.00499481
v 0.43498591 0.17715916 -0.00499481
v 0.45049679 0.17026530 -0.01176174
v 0.45429492 0.16735116 -0.01505288
v 0.46305105 0.16208215 -0.01499288
v 0.46491599 0.15509999 -0.02182904
v 0.47521868 0.14520368 -0.02194444
v 0.47476381 0.13522495 -0.02346308
v 0.25799817 0.13076249 0.00499403
v 0.47499123 0.13522495 -0.02342615
v 0.48429322 0.13522495 -0.02161209
v 0.48461163 0.13522495 -0.02153362
v 0.48875087 0.13522495 -0.01667307
v 0.48922849 0.13522495 -0.01499288
v 0.48986530 0.13522495 -0.00968457
v 0.49034292 0.13522495 -0.00499481
v 0.46805456 0.15842034 -0.01499288
v 0.47203463 0.15182672 -0.02104434
v 0.25799817 0.17188427 -0.00499481
v 0.25799817 0.17188427 0.00499403
v 0.25799817 0.17097175 0.01499671
v 0.25799817 0.15800235 0.02324997
v 0.25799817 0.15500580 0.02340691
v 0.47499123 0.13522495 0.02331921
v 0.46498424 0.14500940 0.02340229
v 0.25799817 0.14800596 0.02281146
v 0.25799817 0.14498585 0.02220677
v 0.25799817 0.14035267 0.02101125
v 0.25799817 0.13898684 0.02051735
v 0.25799817 0.13643181 0.01781242
v 0.25799817 0.13448906 0.01521366
v 0.25799817 0.13086256 0.00540023
v 0.45497721 0.15500580 0.02319919
v 0.44499293 0.17309113 0.00499865
v 0.46489325 0.15507054 0.02176826
v 0.47198913 0.15178552 0.02100663
v 0.46800905 0.15839091 0.01499671
v 0.46382433 0.16264732 0.00499865
v 0.45577323 0.16763963 0.00499865
v 0.45079246 0.17041837 0.00499865
v 0.46882784 0.15912680 0.00499865
v 0.44499293 0.17309113 -0.00499481
v 0.45079246 0.17041837 -0.00499481
v 0.45577323 0.16763963 -0.00499481
v 0.46382433 0.16264732 -0.00499481
v 0.46882784 0.15912680 -0.00499481
v 0.48154128 0.14200106 -0.02098895
v 0.49034292 0.13522495 0.00499865
v 0.48916027 0.13522495 0.01499671
v 0.48456615 0.13522495 0.02147284
v 0.48797762 0.13713828 -0.01499288
v 0.48297411 0.14373189 -0.01499288
v 0.48865992 0.13795659 -0.00499481
v 0.47376311 0.15342215 -0.01499288
v 0.47876662 0.14873008 -0.01499288
v 0.47519594 0.14517424 0.02187904
v 0.48149580 0.14195397 0.02095124
v 0.47872114 0.14868887 0.01499671
v 0.47374037 0.15338682 0.01499671
v 0.47451365 0.15412861 0.00499865
v 0.47451365 0.15412861 -0.00499481
v 0.48865992 0.13795659 0.00499865
v 0.48795488 0.13710296 0.01499671
v 0.47951713 0.14948952 -0.00499481
v 0.48365641 0.14448544 -0.00499481
v 0.48295137 0.14369068 0.01499671
v 0.47951713 0.14948952 0.00499865
v 0.48365641 0.14448544 0.00499865
f 1 2 3
f 1 3 4
f 1 4 5
f 1 5 6
f 1 6 7
f 1 7 8
f 1 8 9
f 1 9 10
f 1 10 2
f 2 11 3
f 2 10 11
f 3 12 13
f 3 13 4
f 3 11 12
f 4 13 14
f 4 14 15
f 4 15 16
f 4 16 5
f 5 16 17
f 5 17 18
f 5 18 19
f 5 19 6
f 6 19 20
f 6 20 21
f 6 21 7
f 7 21 22
f 7 22 23
f 7 23 64
f 7 64 24
f 7 24 8
f 8 24 9
f 9 24 25
f 9 25 26
f 9 26 11
f 9 11 10
f 11 27 28
f 11 28 29
f 11 29 30
f 11 30 31
f 11 31 12
f 11 26 32
f 11 32 33
f 11 33 34
f 11 34 35
f 11 35 27
f 12 31 36
f 12 36 37
f 12 37 38
f 12 38 39
f 12 39 40
f 12 40 13
f 13 40 14
f 14 41 15
f 14 40 42
f 14 42 43
f 14 43 44
f 14 44 45
f 14 45 46
f 14 46 41
f 15 41 47
f 15 47 16
f 16 47 17
f 17 47 48
f 17 48 49
f 17 49 50
f 17 50 51
f 17 51 52
f 17 52 53
f 17 53 54
f 17 54 18
f 18 54 55
f 18 55 19
f 19 55 56
f 19 56 20
f 20 56 21
f 21 57 22
f 21 56 57
f 22 57 58
f 22 58 59
f 22 59 60
f 22 60 61
f 22 61 62
f 22 62 63
f 22 63 23
f 23 63 65
f 23 65 64
f 24 64 25
f 25 64 65
f 25 65 66
f 25 66 67
f 25 67 68
f 25 68 69
f 25 69 70
f 25 70 26
f 26 70 69
f 26 69 71
f 26 71 32
f 27 35 72
f 27 72 28
f 28 72 73
f 28 73 74
f 28 74 29
f 29 75 76
f 29 76 30
f 29 74 77
f 29 77 75
f 30 76 78
f 30 78 79
f 30 79 31
f 31 79 36
f 32 71 80
f 32 80 81
f 32 81 82
f 32 82 33
f 33 82 73
f 33 73 34
f 34 73 35
f 35 73 72
f 36 79 83
f 36 83 37
f 37 83 38
f 38 83 84
f 38 84 39
f 39 84 85
f 39 85 86
f 39 86 87
f 39 87 43
f 39 43 40
f 40 43 42
f 41 46 48
f 41 48 47
f 43 87 44
f 44 88 89
f 44 89 45
f 44 87 88
f 45 89 50
f 45 50 49
f 45 49 48
f 45 48 46
f 50 89 128
f 50 128 90
f 50 90 91
f 50 91 51
f 51 91 92
f 51 92 52
f 52 92 93
f 52 93 54
f 52 54 53
f 54 93 55
f 55 93 94
f 55 94 95
f 55 95 96
f 55 96 97
f 55 97 56
f 56 97 98
f 56 98 99
f 56 99 100
f 56 100 101
f 56 101 102
f 56 102 103
f 56 103 104
f 56 104 105
f 56 105 57
f 57 105 106
f 57 106 59
f 57 59 58
f 59 106 60
f 60 106 107
f 60 107 108
f 60 108 61
f 61 67 66
f 61 66 62
f 61 108 109
f 61 109 110
f 61 110 67
f 62 66 65
f 62 65 63
f 67 110 111
f 67 111 68
f 68 111 112
f 68 112 71
f 68 71 69
f 71 112 80
f 73 82 113
f 73 113 114
f 73 114 74
f 74 114 77
f 75 77 115
f 75 115 116
f 75 116 117
f 75 117 76
f 76 117 118
f 76 118 78
f 77 114 115
f 78 118 119
f 78 119 79
f 79 119 83
f 80 113 81
f 80 112 120
f 80 120 121
f 80 121 113
f 81 113 82
f 83 119 84
f 84 119 122
f 84 122 85
f 85 122 86
f 86 122 123
f 86 123 124
f 86 124 125
f 86 125 87
f 87 126 127
f 87 127 88
f 87 125 126
f 88 128 89
f 88 127 129
f 88 129 128
f 90 128 175
f 90 175 130
f 90 130 131
f 90 131 91
f 91 131 132
f 91 132 92
f 92 132 133
f 92 133 134
f 92 134 135
f 92 135 93
f 93 135 136
f 93 136 137
f 93 137 94
f 94 137 138
f 94 138 95
f 95 138 96
f 96 138 139
f 96 139 97
f 97 139 98
f 98 139 140
f 98 140 141
f 98 141 99
f 99 141 142
f 99 142 143
f 99 143 144
f 99 144 100
f 100 144 145
f 100 145 101
f 101 145 102
f 102 145 103
f 103 145 104
f 104 145 146
f 104 146 105
f 105 146 147
f 105 147 148
f 105 148 106
f 106 148 107
f 107 149 150
f 107 150 108
f 107 148 151
f 107 151 152
f 107 152 153
f 107 153 154
f 107 154 149
f 108 150 109
f 109 150 155
f 109 155 156
f 109 156 110
f 110 156 157
f 110 157 111
f 111 157 112
f 112 157 158
f 112 158 159
f 112 159 160
f 112 160 161
f 112 161 162
f 112 162 120
f 113 121 163
f 113 163 116
f 113 116 114
f 114 116 115
f 116 163 164
f 116 164 165
f 116 165 117
f 117 165 166
f 117 166 167
f 117 167 168
f 117 168 169
f 117 169 170
f 117 170 118
f 118 170 119
f 119 170 122
f 120 162 171
f 120 171 172
f 120 172 121
f 121 172 163
f 122 170 123
f 123 170 169
f 123 169 168
f 123 168 167
f 123 167 166
f 123 166 217
f 123 217 240
f 123 240 239
f 123 239 238
f 123 238 237
f 123 237 236
f 123 236 235
f 123 235 234
f 123 234 231
f 123 231 230
f 123 230 189
f 123 189 188
f 123 188 187
f 123 187 186
f 123 186 185
f 123 185 229
f 123 229 183
f 123 183 228
f 123 228 227
f 123 227 177
f 123 177 173
f 123 173 124
f 124 173 125
f 125 174 126
f 125 173 174
f 126 129 127
f 126 174 129
f 128 129 175
f 129 176 175
f 129 174 177
f 129 177 178
f 129 178 179
f 129 179 176
f 130 175 176
f 130 176 180
f 130 180 131
f 131 133 132
f 131 180 181
f 131 181 182
f 131 182 183
f 131 183 184
f 131 184 133
f 133 184 134
f 134 184 185
f 134 185 186
f 134 186 187
f 134 187 135
f 135 187 188
f 135 188 189
f 135 189 190
f 135 190 136
f 136 190 137
f 137 190 191
f 137 191 138
f 138 191 139
f 139 191 140
f 140 191 192
f 140 192 141
f 141 192 193
f 141 193 194
f 141 194 142
f 142 194 195
f 142 195 196
f 142 196 143
f 143 196 197
f 143 197 144
f 144 197 145
f 145 197 198
f 145 198 146
f 146 198 147
f 147 198 148
f 148 198 199
f 148 199 151
f 149 155 150
f 149 154 200
f 149 200 201
f 149 201 202
f 149 202 155
f 151 199 203
f 151 203 204
f 151 204 152
f 152 205 153
f 152 204 206
f 152 206 207
f 152 207 205
f 153 205 200
f 153 200 154
f 155 202 208
f 155 208 156
f 156 208 158
f 156 158 157
f 158 208 209
f 158 209 210
f 158 210 159
f 159 210 160
f 160 210 161
f 161 211 162
f 161 210 211
f 162 211 212
f 162 212 213
f 162 213 171
f 163 172 214
f 163 214 164
f 164 215 216
f 164 216 165
f 164 214 215
f 165 216 166
f 166 216 218
f 166 218 219
f 166 219 220
f 166 220 221
f 166 221 222
f 166 222 223
f 166 223 224
f 166 224 256
f 166 256 217
f 171 213 225
f 171 225 226
f 171 226 214
f 171 214 172
f 173 177 174
f 176 179 181
f 176 181 180
f 177 227 178
f 178 227 228
f 178 228 182
f 178 182 181
f 178 181 179
f 182 228 183
f 183 229 184
f 184 229 185
f 189 230 190
f 190 230 191
f 191 230 231
f 191 231 192
f 192 231 193
f 193 232 233
f 193 233 194
f 193 231 234
f 193 234 235
f 193 235 236
f 193 236 237
f 193 237 238
f 193 238 239
f 193 239 240
f 193 240 217
f 193 217 232
f 194 233 195
f 195 233 241
f 195 241 198
f 195 198 197
f 195 197 196
f 198 241 199
f 199 241 203
f 200 210 209
f 200 209 201
f 200 205 242
f 200 242 250
f 200 250 210
f 201 209 208
f 201 208 202
f 203 241 243
f 203 243 204
f 204 243 244
f 204 244 245
f 204 245 206
f 205 207 206
f 205 206 246
f 205 246 247
f 205 247 248
f 205 248 242
f 206 245 249
f 206 249 246
f 210 250 211
f 211 250 251
f 211 251 252
f 211 252 253
f 211 253 213
f 211 213 212
f 213 253 254
f 213 254 225
f 214 226 215
f 215 218 216
f 215 226 255
f 215 255 220
f 215 220 219
f 215 219 218
f 217 256 257
f 217 257 258
f 217 258 232
f 220 255 221
f 221 259 222
f 221 255 260
f 221 260 259
f 222 259 261
f 222 261 223
f 223 261 224
f 224 261 270
f 224 270 256
f 225 254 262
f 225 262 226
f 226 262 263
f 226 263 255
f 232 258 264
f 232 264 233
f 233 264 243
f 233 243 241
f 242 248 251
f 242 251 250
f 243 264 244
f 244 264 265
f 244 265 266
f 244 266 267
f 244 267 245
f 245 267 249
f 246 253 252
f 246 252 247
f 246 249 254
f 246 254 253
f 247 252 251
f 247 251 248
f 249 267 268
f 249 268 269
f 249 269 254
f 254 269 262
f 255 263 260
f 256 270 257
f 257 270 271
f 257 271 265
f 257 265 258
f 258 265 264
f 259 260 261
f 260 263 272
f 260 272 273
f 260 273 261
f 261 273 276
f 261 276 270
f 262 269 272
f 262 272 263
f 265 271 274
f 265 274 266
f 266 274 275
f 266 275 267
f 267 275 268
f 268 275 272
f 268 272 269
f 270 276 274
f 270 274 271
f 272 275 276
f 272 276 273
f 274 276 275

