# https://github.com/mikedh/trimesh
v 0.50201702 -0.06421756 0.00499861
v 0.50201702 -0.06421756 -0.00499580
v 0.50118643 -0.06421756 0.01464647
v 0.50227147 -0.06500279 0.00499861
v 0.50197959 -0.06421756 -0.00592454
v 0.50227147 -0.06500279 -0.00499580
v 0.50126874 -0.06462755 0.01492370
v 0.50105172 -0.06421756 0.01530259
v 0.50458372 -0.07500234 0.00499861
v 0.50116396 -0.06421756 -0.01457897
v 0.50458372 -0.07500234 -0.00499580
v 0.50125372 -0.06468314 -0.01488393
v 0.50353611 -0.07500234 0.01499763
v 0.50063264 -0.06771289 0.02062093
v 0.49607548 -0.06421756 0.02137871
v 0.50540686 -0.08500189 0.00499861
v 0.50100684 -0.06421756 -0.01531365
v 0.50539935 -0.08500189 -0.00499580
v 0.50349116 -0.07500234 -0.01499945
v 0.50061023 -0.06780322 -0.02059040
v 0.50427687 -0.08500189 0.01499763
v 0.50126123 -0.07500234 0.02115230
v 0.49552175 -0.06421756 0.02178533
v 0.49563399 -0.06462755 0.02179457
v 0.50380546 -0.09500143 0.01499763
v 0.50487554 -0.09500143 0.00499861
v 0.50487554 -0.09500143 -0.00499580
v 0.49992925 -0.06421756 -0.01927352
v 0.50376058 -0.09500143 -0.01499945
v 0.50423199 -0.08500189 -0.01499945
v 0.50122380 -0.07500234 -0.02110329
v 0.49560407 -0.06468314 -0.02173631
v 0.49547684 -0.06421756 -0.02172245
v 0.50159800 -0.08500189 0.02138333
v 0.50138843 -0.09500143 0.02124934
v 0.49499792 -0.07500234 0.02296359
v 0.48499310 -0.06421756 0.02359661
v 0.50065511 -0.10499403 0.02063479
v 0.50010139 -0.11032388 0.02011266
v 0.50221157 -0.10499403 0.01499763
v 0.50314695 -0.10499403 0.00499861
v 0.50314695 -0.10499403 -0.00499580
v 0.50217414 -0.10499403 -0.01499945
v 0.50007892 -0.11025439 -0.02008675
v 0.50061768 -0.10499403 -0.02059040
v 0.50134355 -0.09500143 -0.02119570
v 0.50155306 -0.08500189 -0.02132970
v 0.49499792 -0.07500234 -0.02285913
v 0.49509522 -0.06421756 -0.02181024
v 0.49499792 -0.08500189 0.02320386
v 0.49499792 -0.09500143 0.02306524
v 0.49499792 -0.10499403 0.02243683
v 0.47499576 -0.06421756 0.02361047
v 0.48499310 -0.06500279 0.02361047
v 0.49513263 -0.11419445 0.02145726
v 0.49187002 -0.12499312 0.02124472
v 0.49853742 -0.11668912 0.01499763
v 0.50056529 -0.11168587 0.01499763
v 0.49060538 -0.13103871 0.02053776
v 0.49493808 -0.12499312 0.01499763
v 0.50099933 -0.11294363 0.00499861
v 0.50099933 -0.11294363 -0.00499580
v 0.50055033 -0.11163723 -0.01499945
v 0.49850747 -0.11663353 -0.01499945
v 0.49488568 -0.12499312 -0.01499945
v 0.49057546 -0.13099007 -0.02050723
v 0.49181765 -0.12499312 -0.02119570
v 0.49510270 -0.11415275 -0.02139901
v 0.49499792 -0.10499403 -0.02234162
v 0.49499792 -0.09500143 -0.02296078
v 0.49499792 -0.08500189 -0.02309478
v 0.48499310 -0.06421756 -0.02348753
v 0.48499310 -0.07500234 0.02364744
v 0.48499310 -0.08500189 0.02365668
v 0.48499310 -0.09500143 0.02365206
v 0.48499310 -0.10499403 0.02363820
v 0.48499310 -0.11499357 0.02357351
v 0.48499310 -0.12499312 0.02306062
v 0.46500590 -0.06421756 0.02279262
v 0.45479903 -0.13520114 0.02311607
v 0.46480387 -0.13520114 0.02363358
v 0.48497066 -0.13462438 0.02164671
v 0.49927074 -0.11794688 0.00499861
v 0.48894414 -0.13520114 0.01687823
v 0.49139860 -0.13233122 0.01499763
v 0.48470876 -0.13520114 0.02160050
v 0.49618027 -0.12499312 0.00499861
v 0.49927074 -0.11794688 -0.00499580
v 0.49137613 -0.13229647 -0.01499945
v 0.49618027 -0.12499312 -0.00499580
v 0.48944551 -0.13520114 -0.01499945
v 0.48467132 -0.13520114 -0.02153763
v 0.48494074 -0.13459659 -0.02158846
v 0.48499310 -0.12499312 -0.02295616
v 0.48499310 -0.11499357 -0.02346443
v 0.48499310 -0.10499403 -0.02352912
v 0.48499310 -0.09500143 -0.02354298
v 0.48499310 -0.08500189 -0.02354760
v 0.48499310 -0.07500234 -0.02353836
v 0.48499310 -0.06500279 -0.02350139
v 0.48420739 -0.06421756 -0.02350601
v 0.47499576 -0.12499312 0.02364744
v 0.47499576 -0.13499962 0.02348110
v 0.47500324 -0.13520114 0.02345337
v 0.48443937 -0.13520114 0.02166519
v 0.45575687 -0.06421756 0.02088431
v 0.44529557 -0.13520114 0.02146189
v 0.47479373 -0.13520114 0.02348110
v 0.48949790 -0.13520114 0.01499763
v 0.49062034 -0.13520114 0.00499861
v 0.49190745 -0.13314424 0.00499861
v 0.49010402 -0.13520114 0.01006743
v 0.49190745 -0.13314424 -0.00499580
v 0.49062034 -0.13520114 -0.00499580
v 0.47500324 -0.13520114 -0.02334429
v 0.47499576 -0.13499962 -0.02337201
v 0.47499576 -0.12499312 -0.02353836
v 0.46500590 -0.13499962 -0.02352449
v 0.47499576 -0.06421756 -0.02350601
v 0.44829628 -0.06421756 0.01474812
v 0.44005746 -0.13520114 0.01908226
v 0.46500590 -0.13520114 -0.02352449
v 0.47421005 -0.06421756 -0.02349215
v 0.45500109 -0.13520114 -0.02303009
v 0.44251937 -0.06421756 0.00499861
v 0.43065128 -0.13520114 0.00843635
v 0.43526083 -0.13520114 0.01509005
v 0.43532068 -0.13520114 0.01515011
v 0.46421272 -0.06421756 -0.02264658
v 0.44589421 -0.13520114 -0.02150990
v 0.44251189 -0.06421756 -0.00499580
v 0.42896760 -0.13520114 0.00504943
v 0.45601878 -0.06421756 -0.02090460
v 0.44531801 -0.13520114 -0.02140363
v 0.44317040 -0.06421756 -0.00666846
v 0.42896760 -0.13520114 -0.00505125
v 0.45573443 -0.06421756 -0.02081219
v 0.43538055 -0.13520114 -0.01515193
v 0.43529075 -0.13520114 -0.01501793
v 0.44832620 -0.06421756 -0.01474993
v 0.45115480 -0.06421756 -0.01733286
f 1 2 5
f 1 5 10
f 1 10 17
f 1 17 28
f 1 28 33
f 1 33 49
f 1 49 72
f 1 72 101
f 1 101 119
f 1 119 123
f 1 123 129
f 1 129 133
f 1 133 137
f 1 137 141
f 1 141 140
f 1 140 135
f 1 135 131
f 1 131 125
f 1 125 120
f 1 120 106
f 1 106 79
f 1 79 53
f 1 53 37
f 1 37 23
f 1 23 15
f 1 15 8
f 1 8 3
f 1 3 4
f 1 4 6
f 1 6 2
f 2 6 5
f 3 7 4
f 3 8 7
f 4 9 11
f 4 11 6
f 4 7 9
f 5 6 10
f 6 11 12
f 6 12 10
f 7 13 9
f 7 8 14
f 7 14 13
f 8 15 14
f 9 16 11
f 9 13 16
f 10 12 17
f 11 16 18
f 11 18 19
f 11 19 12
f 12 19 20
f 12 20 17
f 13 21 16
f 13 14 22
f 13 22 21
f 14 15 23
f 14 23 24
f 14 24 22
f 16 21 25
f 16 25 26
f 16 26 27
f 16 27 18
f 17 20 28
f 18 27 29
f 18 29 30
f 18 30 19
f 19 30 31
f 19 31 20
f 20 32 33
f 20 33 28
f 20 31 32
f 21 22 34
f 21 34 35
f 21 35 25
f 22 24 36
f 22 36 34
f 23 36 24
f 23 37 36
f 25 35 38
f 25 38 39
f 25 39 40
f 25 40 26
f 26 40 41
f 26 41 42
f 26 42 27
f 27 42 43
f 27 43 29
f 29 43 44
f 29 44 45
f 29 45 46
f 29 46 30
f 30 46 47
f 30 47 31
f 31 47 48
f 31 48 32
f 32 48 33
f 33 48 49
f 34 36 50
f 34 50 51
f 34 51 35
f 35 51 52
f 35 52 38
f 36 37 50
f 37 53 54
f 37 54 50
f 38 55 56
f 38 56 39
f 38 52 55
f 39 57 58
f 39 58 40
f 39 56 59
f 39 59 60
f 39 60 57
f 40 58 41
f 41 58 61
f 41 61 62
f 41 62 42
f 42 62 63
f 42 63 43
f 43 63 44
f 44 63 64
f 44 64 65
f 44 65 66
f 44 66 67
f 44 67 45
f 45 67 68
f 45 68 69
f 45 69 46
f 46 69 70
f 46 70 47
f 47 70 71
f 47 71 48
f 48 71 72
f 48 72 49
f 50 54 73
f 50 73 74
f 50 74 75
f 50 75 76
f 50 76 77
f 50 77 51
f 51 77 78
f 51 78 52
f 52 78 56
f 52 56 55
f 53 74 73
f 53 73 54
f 53 79 80
f 53 80 81
f 53 81 74
f 56 78 82
f 56 82 59
f 57 83 58
f 57 60 83
f 58 83 61
f 59 84 85
f 59 85 60
f 59 82 86
f 59 86 84
f 60 85 87
f 60 87 83
f 61 83 88
f 61 88 62
f 62 88 63
f 63 88 64
f 64 88 65
f 65 89 66
f 65 88 90
f 65 90 89
f 66 89 91
f 66 91 92
f 66 92 93
f 66 93 67
f 67 93 94
f 67 94 69
f 67 69 68
f 69 94 70
f 70 94 95
f 70 95 71
f 71 95 96
f 71 96 97
f 71 97 98
f 71 98 99
f 71 99 100
f 71 100 72
f 72 100 101
f 74 81 102
f 74 102 75
f 75 102 76
f 76 102 77
f 77 102 103
f 77 103 78
f 78 103 104
f 78 104 105
f 78 105 82
f 79 106 107
f 79 107 80
f 80 107 121
f 80 121 128
f 80 128 127
f 80 127 126
f 80 126 132
f 80 132 136
f 80 136 139
f 80 139 138
f 80 138 134
f 80 134 130
f 80 130 124
f 80 124 122
f 80 122 115
f 80 115 92
f 80 92 91
f 80 91 114
f 80 114 110
f 80 110 112
f 80 112 109
f 80 109 84
f 80 84 86
f 80 86 105
f 80 105 104
f 80 104 108
f 80 108 81
f 81 108 102
f 82 105 86
f 83 87 90
f 83 90 88
f 84 109 85
f 85 110 111
f 85 111 87
f 85 109 112
f 85 112 110
f 87 111 113
f 87 113 90
f 89 90 113
f 89 113 114
f 89 114 91
f 92 115 93
f 93 115 94
f 94 115 116
f 94 116 95
f 95 116 117
f 95 117 96
f 96 117 97
f 97 117 98
f 98 117 118
f 98 118 119
f 98 119 99
f 99 119 101
f 99 101 100
f 102 108 103
f 103 108 104
f 106 120 121
f 106 121 107
f 110 114 113
f 110 113 111
f 115 122 116
f 116 122 117
f 117 122 118
f 118 123 119
f 118 122 124
f 118 124 123
f 120 125 126
f 120 126 127
f 120 127 128
f 120 128 121
f 123 124 129
f 124 130 129
f 125 131 132
f 125 132 126
f 129 130 134
f 129 134 133
f 131 135 136
f 131 136 132
f 133 134 137
f 134 138 137
f 135 139 136
f 135 140 139
f 137 138 141
f 138 139 140
f 138 140 141

