# https://github.com/mikedh/trimesh
v 0.22659843 0.08200534 -0.00499821
v 0.22658023 0.08200534 -0.00055451
v 0.25799814 0.06353316 0.00499896
v 0.25799814 0.06355707 -0.00499821
v 0.22321664 0.08200534 -0.01537455
v 0.22654387 0.08200534 0.00499896
v 0.25799814 0.06158787 0.01329448
v 0.22341663 0.08200534 0.01471406
v 0.25799814 0.06311061 -0.00730560
v 0.21974394 0.08200534 -0.01970727
v 0.25799814 0.06161179 -0.01346482
v 0.25799814 0.05936356 0.01679487
v 0.21939848 0.08200534 0.01946294
v 0.21694396 0.08200534 -0.02109910
v 0.25799814 0.05861415 -0.01846340
v 0.25799814 0.05711532 -0.01962404
v 0.25799814 0.05839092 0.01829306
v 0.21450762 0.08200534 0.02150676
v 0.25799814 0.05339219 0.02156688
v 0.21516216 0.08200534 -0.02148752
v 0.25799814 0.05361542 -0.02164936
v 0.20499861 0.08200534 0.02315755
v 0.25799814 0.04499719 0.02334713
v 0.20798041 0.08200534 -0.02297646
v 0.25799814 0.05119976 -0.02219962
v 0.19499871 0.08200534 0.02349972
v 0.24499825 0.04499719 0.02348585
v 0.25799814 0.03500770 0.02318529
v 0.20499861 0.08200534 -0.02328165
v 0.25799814 0.04499719 -0.02348511
v 0.18499880 0.08200534 0.02355984
v 0.23499835 0.04499719 0.02354134
v 0.25799814 0.02823908 0.02140966
v 0.18499880 0.03500770 0.02334713
v 0.17499888 0.02748170 0.02160387
v 0.19798049 0.08200534 -0.02354984
v 0.25799814 0.04199954 -0.02345274
v 0.24499825 0.04499719 -0.02361458
v 0.19499871 0.08200534 -0.02360995
v 0.17499888 0.08200534 0.02355984
v 0.17499888 0.06499211 0.02356446
v 0.19499871 0.05499465 0.02355984
v 0.20499861 0.05499465 0.02355522
v 0.22499844 0.04499719 0.02354597
v 0.17499888 0.03500770 0.02336563
v 0.25799814 0.00769406 0.01141249
v 0.10056320 0.00055871 0.01280895
v 0.11056311 0.00055871 0.01256388
v 0.16501716 0.02742589 0.02159462
v 0.09056328 0.00055871 0.01283670
v 0.25799814 0.03500770 -0.02329552
v 0.23499835 0.04499719 -0.02365157
v 0.18499880 0.08200534 -0.02367007
v 0.18798059 0.08200534 -0.02365620
v 0.16501716 0.08200534 0.02353209
v 0.16501716 0.07499754 0.02354134
v 0.16501716 0.05499465 0.02355059
v 0.17499888 0.05499465 0.02355984
v 0.17499888 0.04499719 0.02354134
v 0.16501716 0.04499719 0.02352747
v 0.16501716 0.03500770 0.02334713
v 0.21499853 0.00055871 0.00765778
v 0.22499844 0.00055871 0.00690406
v 0.23576197 0.00055871 0.00434234
v 0.25799814 0.00538205 0.00692256
v 0.13501742 0.00055871 0.01168531
v 0.13841739 0.00055871 0.01152810
v 0.07225436 0.00055871 0.01284595
v 0.07501797 0.00055871 0.01284595
v 0.08501788 0.00055871 0.01284132
v 0.25799814 0.03298270 -0.02274526
v 0.17499888 0.02742589 -0.02165861
v 0.18499880 0.03500770 -0.02345736
v 0.22499844 0.04499719 -0.02365620
v 0.20499861 0.05499465 -0.02367007
v 0.17499888 0.03500770 -0.02347586
v 0.17499888 0.06499211 -0.02367469
v 0.17499888 0.08200534 -0.02367007
v 0.16201718 0.08200534 0.02349972
v 0.15501726 0.07499754 0.02343961
v 0.15501726 0.06499211 0.02344886
v 0.15501726 0.05499465 0.02344886
v 0.15501726 0.04499719 0.02330089
v 0.23576197 0.00055871 -0.00399942
v 0.25799814 0.00442535 0.00499896
v 0.07225436 0.01226228 0.01285057
v 0.07225436 0.00055871 -0.01361279
v 0.25799814 0.02827097 -0.02145978
v 0.08945420 0.00055871 -0.01360354
v 0.16501716 0.02736211 -0.02164936
v 0.17499888 0.04499719 -0.02365157
v 0.17499888 0.05499465 -0.02367007
v 0.16501716 0.03500770 -0.02345736
v 0.16501716 0.04499719 -0.02363770
v 0.16501716 0.05499465 -0.02366082
v 0.16501716 0.07499754 -0.02365157
v 0.16501716 0.08200534 -0.02363770
v 0.15501726 0.08200534 0.02338412
v 0.07225436 0.02500227 0.01284132
v 0.25799814 0.00673737 -0.00276480
v 0.22499844 0.00055871 -0.00639929
v 0.07225436 0.00500734 -0.01360817
v 0.15501726 0.07499754 -0.02354984
v 0.15501726 0.06499211 -0.02355909
v 0.15501726 0.05499465 -0.02355909
v 0.15501726 0.04499719 -0.02341112
v 0.07945430 0.00055871 -0.01361279
v 0.21499853 0.00055871 -0.00704666
v 0.12756296 0.00055871 -0.01203137
v 0.09945411 0.00055871 -0.01347407
v 0.15501726 0.08200534 -0.02349436
v 0.15219909 0.08200534 0.02285698
v 0.07225436 0.03500770 0.01249452
v 0.07225436 0.03225720 0.01268410
v 0.07225436 0.00774987 -0.01353418
v 0.14598097 0.08200534 -0.02168636
v 0.14607188 0.08200534 0.02163161
v 0.07225436 0.03974334 0.01146798
v 0.07225436 0.01500480 -0.01271110
v 0.14090829 0.08200534 -0.01668777
v 0.07225436 0.01697400 -0.01221633
v 0.07225436 0.02131102 -0.01091235
v 0.07225436 0.04207927 -0.00229777
v 0.14456280 0.08200534 0.02096575
v 0.07225436 0.04132188 0.01107494
v 0.13954467 0.08200534 -0.01261862
v 0.07225436 0.04340270 0.00499896
v 0.14096284 0.08200534 0.01697984
v 0.07225436 0.04303597 0.00657113
v 0.13930830 0.08200534 0.01511172
v 0.13787195 0.08200534 -0.00493347
v 0.13839921 0.08200534 0.01195813
v 0.13699923 0.08200534 0.00499896
f 1 2 3
f 1 3 4
f 1 4 5
f 1 5 10
f 1 10 14
f 1 14 20
f 1 20 24
f 1 24 29
f 1 29 36
f 1 36 39
f 1 39 54
f 1 54 53
f 1 53 78
f 1 78 97
f 1 97 111
f 1 111 116
f 1 116 120
f 1 120 126
f 1 126 131
f 1 131 133
f 1 133 132
f 1 132 130
f 1 130 128
f 1 128 124
f 1 124 117
f 1 117 112
f 1 112 98
f 1 98 79
f 1 79 55
f 1 55 40
f 1 40 31
f 1 31 26
f 1 26 22
f 1 22 18
f 1 18 13
f 1 13 8
f 1 8 6
f 1 6 2
f 2 6 3
f 3 7 12
f 3 12 17
f 3 17 19
f 3 19 23
f 3 23 28
f 3 28 33
f 3 33 46
f 3 46 65
f 3 65 85
f 3 85 100
f 3 100 88
f 3 88 71
f 3 71 51
f 3 51 37
f 3 37 30
f 3 30 25
f 3 25 21
f 3 21 16
f 3 16 15
f 3 15 11
f 3 11 9
f 3 9 4
f 3 6 8
f 3 8 7
f 4 9 5
f 5 9 11
f 5 11 10
f 7 8 13
f 7 13 12
f 10 11 15
f 10 15 16
f 10 16 14
f 12 13 17
f 13 18 19
f 13 19 17
f 14 16 21
f 14 21 20
f 18 22 19
f 19 22 23
f 20 21 24
f 21 25 24
f 22 26 23
f 23 27 28
f 23 26 27
f 24 25 30
f 24 30 29
f 26 31 27
f 27 32 28
f 27 31 32
f 28 32 34
f 28 34 35
f 28 35 33
f 29 30 36
f 30 37 38
f 30 38 39
f 30 39 36
f 31 40 41
f 31 41 42
f 31 42 43
f 31 43 32
f 32 44 45
f 32 45 34
f 32 43 42
f 32 42 44
f 33 35 47
f 33 47 48
f 33 48 46
f 34 45 35
f 35 45 49
f 35 49 50
f 35 50 47
f 37 51 38
f 38 51 52
f 38 52 53
f 38 53 54
f 38 54 39
f 40 55 56
f 40 56 57
f 40 57 41
f 41 57 58
f 41 58 42
f 42 58 44
f 44 58 59
f 44 59 45
f 45 59 60
f 45 60 61
f 45 61 49
f 46 62 63
f 46 63 64
f 46 64 65
f 46 48 66
f 46 66 67
f 46 67 62
f 47 50 70
f 47 70 69
f 47 69 68
f 47 68 87
f 47 87 107
f 47 107 89
f 47 89 110
f 47 110 109
f 47 109 108
f 47 108 101
f 47 101 84
f 47 84 64
f 47 64 63
f 47 63 62
f 47 62 67
f 47 67 66
f 47 66 48
f 49 61 68
f 49 68 69
f 49 69 70
f 49 70 50
f 51 71 72
f 51 72 73
f 51 73 52
f 52 74 75
f 52 75 53
f 52 73 76
f 52 76 74
f 53 75 77
f 53 77 78
f 55 79 80
f 55 80 56
f 56 80 81
f 56 81 57
f 57 81 82
f 57 82 60
f 57 60 59
f 57 59 58
f 60 82 83
f 60 83 61
f 61 83 68
f 64 84 85
f 64 85 65
f 68 86 99
f 68 99 114
f 68 114 113
f 68 113 118
f 68 118 125
f 68 125 129
f 68 129 127
f 68 127 123
f 68 123 122
f 68 122 121
f 68 121 119
f 68 119 115
f 68 115 102
f 68 102 87
f 68 83 82
f 68 82 86
f 71 88 72
f 72 76 73
f 72 88 89
f 72 89 90
f 72 90 76
f 74 76 91
f 74 91 92
f 74 92 75
f 75 92 77
f 76 90 93
f 76 93 94
f 76 94 91
f 77 92 95
f 77 95 78
f 78 95 96
f 78 96 97
f 79 98 80
f 80 98 99
f 80 99 81
f 81 99 86
f 81 86 82
f 84 88 100
f 84 100 85
f 84 101 88
f 87 102 103
f 87 103 104
f 87 104 105
f 87 105 106
f 87 106 93
f 87 93 90
f 87 90 107
f 88 101 108
f 88 108 109
f 88 109 110
f 88 110 89
f 89 107 90
f 91 94 95
f 91 95 92
f 93 106 94
f 94 106 105
f 94 105 95
f 95 105 104
f 95 104 96
f 96 104 103
f 96 103 97
f 97 103 111
f 98 112 113
f 98 113 114
f 98 114 99
f 102 115 111
f 102 111 103
f 111 115 116
f 112 117 113
f 113 117 118
f 115 119 116
f 116 119 121
f 116 121 122
f 116 122 123
f 116 123 120
f 117 124 125
f 117 125 118
f 120 123 126
f 123 127 126
f 124 128 125
f 125 128 130
f 125 130 129
f 126 127 131
f 127 129 130
f 127 130 132
f 127 132 133
f 127 133 131

