# https://github.com/mikedh/trimesh
v 0.07225436 0.04339956 0.00499857
v 0.07225436 0.04303550 0.00657172
v 0.07225436 0.04208199 -0.00229956
v -0.15500879 0.04282746 -0.00499738
v -0.16502932 0.04285346 -0.00499738
v -0.17504983 0.04284479 -0.00499738
v -0.18501405 0.04280145 -0.00499738
v -0.20505510 0.04142321 0.00172264
v 0.07225436 0.04131918 0.01107743
v 0.07225436 0.02130421 -0.01091157
v 0.06499231 0.02217970 -0.01154223
v 0.03498703 0.03107332 -0.01096062
v 0.02496651 0.03180145 -0.01156325
v -0.02986488 0.04000161 -0.01001113
v -0.03504401 0.04012297 -0.01015478
v -0.04500824 0.04033101 -0.01040354
v -0.05502877 0.04050437 -0.01059624
v -0.06504929 0.04065173 -0.01074690
v -0.07501352 0.04076442 -0.01086252
v -0.08503403 0.04085977 -0.01095712
v -0.09505455 0.04094645 -0.01103420
v -0.10501878 0.04101580 -0.01109726
v -0.11503930 0.04108514 -0.01115332
v -0.12500352 0.04114582 -0.01120588
v -0.14504457 0.04276678 -0.00499738
v -0.13502404 0.04119783 -0.01124442
v -0.14504457 0.04123250 -0.01127945
v -0.15500879 0.04125851 -0.01130048
v -0.16502932 0.04127584 -0.01131099
v -0.17504983 0.04127584 -0.01130748
v -0.18501405 0.04124984 -0.01128997
v -0.19503458 0.04120650 -0.01125493
v -0.20505510 0.04113715 -0.01119887
v -0.19503458 0.04270610 -0.00499738
v -0.21501933 0.04131918 0.00163505
v -0.01500298 0.00605677 0.01933907
v 0.07225436 0.03974156 0.01146633
v -0.22498354 0.04119783 0.00151943
v -0.23494777 0.04105914 0.00137578
v -0.24496830 0.04089444 0.00120060
v -0.25498882 0.04072108 0.00099038
v -0.35496885 0.03245157 0.00241287
v -0.44498464 0.00129790 0.01086721
v 0.07225436 0.01697009 -0.01221844
v 0.06499231 0.01499373 -0.01334662
v 0.03498703 0.02499688 -0.01276150
v 0.02496651 0.02499688 -0.01336413
v 0.01494600 0.03233021 -0.01175946
v -0.04500824 0.03499136 -0.01220092
v -0.05502877 0.03499136 -0.01239712
v -0.06504929 0.03499136 -0.01254778
v -0.07501352 0.03499136 -0.01266340
v -0.08503403 0.03499136 -0.01275800
v -0.09505455 0.03499136 -0.01283508
v -0.10501878 0.03499136 -0.01290165
v -0.11503930 0.03499136 -0.01295771
v -0.12500352 0.03499136 -0.01300676
v -0.13502404 0.03499136 -0.01304881
v -0.14504457 0.03499136 -0.01308034
v -0.15500879 0.03499136 -0.01310136
v -0.16502932 0.03499136 -0.01311537
v -0.17504983 0.03499136 -0.01311187
v -0.18501405 0.03499136 -0.01309435
v -0.19503458 0.03499136 -0.01305932
v -0.20505510 0.03499136 -0.01300326
v -0.21501933 0.03499136 -0.01292968
v -0.22498354 0.03499136 -0.01283158
v -0.21501933 0.04105047 -0.01112529
v -0.22498354 0.04093778 -0.01102719
v -0.20505510 0.04255874 -0.00499738
v -0.02080137 0.00108120 0.02016243
v -0.01500298 0.00105519 0.02015542
v 0.07225436 0.03499136 0.01249641
v -0.47498989 -0.00499524 0.01166955
v -0.46496940 -0.00499524 0.01188677
v -0.45494884 -0.00499524 0.01210050
v -0.21501933 0.04237671 -0.00499738
v -0.26495305 0.04052171 0.00074512
v -0.27497357 0.04030500 0.00045432
v -0.28262970 0.04012297 0.00019855
v -0.36498934 0.03197482 0.00214308
v -0.48866960 -0.00018437 0.00993173
v -0.48197049 0.00014503 0.01009290
v -0.47498989 0.00039640 0.01024706
v -0.46496940 0.00073447 0.01046429
v -0.45494884 0.00103786 0.01067801
v -0.49497464 -0.00568003 0.01135422
v 0.07225436 0.01499373 -0.01271245
v 0.07225436 0.00773841 -0.01353581
v 0.05497178 0.01499373 -0.01358837
v 0.01494600 0.02499688 -0.01356384
v 0.00498177 0.02499688 -0.01358837
v -0.01500298 0.00499924 -0.01525261
v -0.33498409 0.02499688 -0.01359538
v -0.34494832 0.02499688 -0.01358136
v -0.35496885 0.02499688 -0.01352180
v -0.23494777 0.03499136 -0.01270895
v -0.24496830 0.03499136 -0.01256180
v -0.35496885 0.03200082 -0.01171391
v -0.23494777 0.04080776 -0.01090456
v -0.24496830 0.04066040 -0.01075741
v -0.02080137 -0.00169264 0.02016243
v -0.44498464 -0.00499524 0.01229320
v -0.45494884 -0.01499840 0.01264707
v -0.44498464 -0.01499840 0.01282225
v -0.01500298 -0.00165797 0.02015542
v -0.00982383 0.00032706 0.02004681
v 0.07225436 0.03225220 0.01268561
v -0.25498882 0.04049570 -0.01058223
v -0.26495305 0.04030500 -0.01037201
v -0.22498354 0.04214267 -0.00499738
v -0.23494777 0.04187395 -0.00499738
v -0.24496830 0.04156189 -0.00499738
v -0.25498882 0.04121517 -0.00499738
v -0.26495305 0.04083376 -0.00499738
v -0.28262970 0.04012297 -0.00329110
v -0.35496885 0.03446260 -0.00499738
v -0.36498934 0.03359578 -0.00499738
v -0.39217988 0.03030185 0.00044030
v -0.38497412 0.03078727 0.00104644
v -0.37495357 0.03141138 0.00169812
v -0.49497464 -0.00068713 0.00962691
v -0.42499989 0.02256977 0.00241287
v -0.43496412 0.02177230 0.00195739
v -0.50111079 -0.00739635 0.01086721
v -0.49497464 -0.01197318 0.01135422
v 0.07225436 0.00499924 -0.01360939
v -0.01500298 -0.00499524 -0.01563101
v -0.41497937 0.01499373 -0.01360238
v -0.42499989 0.01499373 -0.01352530
v -0.36498934 0.02499688 -0.01333611
v -0.36498934 0.03161942 -0.01152821
v -0.27328470 0.04014030 -0.01017230
v -0.01500298 -0.00665088 0.01963338
v -0.39499462 -0.02499288 0.01271364
v -0.45494884 -0.02149091 0.01122458
v -0.40495884 -0.02499288 0.01241232
v -0.00982383 -0.00052243 0.02004681
v 0.07225436 0.01499373 0.01285028
v 0.07225436 0.02224905 0.01284328
v 0.07225436 0.02499688 0.01283977
v -0.27992752 0.03999294 -0.00995507
v -0.27593058 0.04033101 -0.00597491
v -0.39122286 0.03016315 -0.01020033
v -0.37495357 0.03254692 -0.00499738
v -0.38497412 0.03135071 -0.00499738
v -0.39257395 0.03035386 -0.00499738
v -0.43496412 0.02321122 -0.00499738
v -0.45106453 0.02021201 0.00031767
v -0.44498464 0.02081879 0.00104644
v -0.48495412 0.01156110 0.00177870
v -0.49576280 0.00590941 0.00422426
v -0.50167376 0.00318758 0.00290338
v -0.50268710 -0.00443181 0.00574135
v -0.50111079 -0.01108902 0.01086721
v -0.47093666 -0.02019067 0.01020852
v -0.46496940 -0.02071944 0.01069203
v 0.07225436 -0.00499524 -0.01361990
v 0.07225436 -0.01499840 -0.01361990
v 0.07225436 -0.02225372 -0.01361640
v 0.07225436 -0.02499288 -0.01361289
v 0.07225436 -0.03224820 -0.01357435
v 0.07225436 -0.03499604 -0.01350078
v -0.46496940 0.00499924 -0.01359538
v -0.47498989 0.00499924 -0.01348676
v -0.43496412 0.01499373 -0.01318895
v -0.37495357 0.02499688 -0.01298224
v -0.42499989 0.02211902 -0.01171391
v -0.37495357 0.03113400 -0.01117434
v -0.17504983 -0.04203465 0.01139276
v -0.15500879 -0.04199131 0.01138925
v -0.14504457 -0.04195663 0.01138575
v -0.12500352 -0.04186995 0.01138225
v -0.10501878 -0.04176593 0.01136823
v -0.09505455 -0.04169659 0.01135071
v -0.08503403 -0.04162724 0.01132969
v -0.07501352 -0.04154056 0.01129816
v -0.06504929 -0.04144521 0.01125261
v -0.05502877 -0.04131518 0.01117903
v -0.01500298 -0.01499840 0.01747162
v 0.03498703 -0.03152874 0.01118254
v 0.06499231 -0.02228839 0.01136473
v 0.07225436 -0.01700076 0.01205145
v 0.07225436 -0.01499840 0.01244035
v -0.29495829 -0.03499604 0.01250342
v -0.28499407 -0.03499604 0.01261203
v -0.27497357 -0.03499604 0.01268561
v -0.26495305 -0.03499604 0.01273817
v -0.24496830 -0.04178327 0.01137174
v -0.23494777 -0.04185262 0.01137874
v -0.22498354 -0.04190462 0.01138575
v -0.21501933 -0.04195663 0.01138925
v -0.20505510 -0.04199998 0.01138925
v -0.19503458 -0.04202598 0.01139276
v -0.18501405 -0.04203465 0.01139276
v -0.39499462 -0.03157208 0.01128765
v -0.31499934 -0.03499604 0.01215305
v -0.30497882 -0.03499604 0.01235276
v -0.41497937 -0.03042787 0.01043626
v -0.40495884 -0.03106932 0.01098984
v 0.07225436 -0.00774308 0.01282576
v 0.07225436 -0.00499524 0.01283977
v 0.07225436 0.00225141 0.01284678
v 0.07225436 0.01224589 0.01285028
v -0.38497412 0.03055323 -0.01062777
v -0.43496412 0.02143423 -0.01137756
v -0.44498464 0.02058475 -0.01062777
v -0.45038897 0.02007332 -0.01009872
v -0.44498464 0.02140823 -0.00499738
v -0.45112079 0.02022068 -0.00499738
v -0.49401763 0.01088498 -0.00499738
v -0.49294803 0.01067694 0.00087125
v -0.50223672 0.00451382 -0.00499738
v -0.49897161 0.00951540 -0.00499738
v -0.50285596 -0.00490856 -0.00509198
v -0.50206780 -0.01205986 0.00499857
v -0.49497464 -0.01485970 0.00499857
v -0.47251293 -0.02052007 0.00499857
v -0.46496940 -0.02201101 0.00499857
v -0.42032743 -0.03005514 0.01006487
v 0.07225436 -0.04038768 -0.01219041
v -0.49497464 -0.00233409 -0.01173843
v -0.48495412 0.00499924 -0.01300326
v -0.47498989 0.01209853 -0.01169289
v -0.17504983 -0.04513788 0.00499857
v -0.16502932 -0.04201731 0.01138925
v -0.11503930 -0.04464379 0.00499857
v -0.10501878 -0.04448776 0.00499857
v 0.07225436 -0.04269344 0.00239885
v -0.04500824 -0.04115049 0.01107743
v -0.03504401 -0.04095979 0.01093027
v -0.02502351 -0.04069974 0.01071305
v 0.02496651 -0.03209217 0.01138225
v -0.01500298 -0.04037901 0.01040823
v -0.00864163 -0.04013630 0.01015246
v 0.04326242 -0.03083528 0.01066750
v 0.07225436 -0.02156893 0.01102137
v -0.29495829 -0.04115916 0.01108093
v -0.28499407 -0.04133252 0.01118955
v -0.27497357 -0.04147121 0.01126663
v -0.26495305 -0.04159257 0.01131568
v -0.25498882 -0.04169659 0.01135071
v -0.21501933 -0.04497318 0.00499857
v -0.20505510 -0.04505987 0.00499857
v -0.19503458 -0.04512054 0.00499857
v -0.18501405 -0.04513788 0.00499857
v -0.33284488 -0.04018831 0.01021202
v -0.32496357 -0.04043969 0.01047129
v -0.31499934 -0.04071708 0.01073407
v -0.30497882 -0.04095979 0.01093378
v -0.33948770 -0.03989359 0.00963742
v -0.48495412 0.01124905 -0.01121639
v -0.49232879 0.01050358 -0.01056120
v -0.50127971 0.00283218 -0.01113230
v -0.50127971 -0.00151928 -0.01113230
v -0.50167376 -0.01166112 -0.00181956
v -0.47234404 -0.02050273 -0.00075445
v -0.42201626 -0.03034986 -0.00055474
v -0.42179108 -0.03030651 0.00499857
v -0.41497937 -0.03135537 0.00499857
v -0.40495884 -0.03275963 0.00499857
v -0.39499462 -0.03398185 0.00499857
v 0.07225436 -0.04222535 -0.01169289
v -0.30497882 -0.03499604 -0.00485023
v -0.31499934 -0.03499604 -0.00454541
v -0.32496357 -0.03499604 -0.00422307
v -0.38497412 -0.03297633 -0.00286365
v -0.39499462 -0.03240423 -0.00261840
v -0.40495884 -0.03169344 -0.00210336
v -0.45494884 -0.02229706 -0.00252029
v -0.49497464 -0.00733567 -0.00779331
v -0.49536872 0.00570137 -0.01172792
v 0.07225436 -0.04492984 -0.00499738
v -0.25498882 -0.04429706 0.00499857
v -0.24496830 -0.04453110 0.00499857
v -0.23494777 -0.04472180 0.00499857
v -0.22498354 -0.04486917 0.00499857
v -0.23494777 -0.04287547 -0.00287767
v -0.31499934 -0.04197397 0.00499857
v -0.30497882 -0.04250273 0.00499857
v -0.29495829 -0.04297082 0.00499857
v -0.28499407 -0.04336956 0.00499857
v -0.27497357 -0.04371629 0.00499857
v -0.26495305 -0.04402835 0.00499857
v -0.34292170 -0.04024899 0.00296995
v -0.33565962 -0.04056972 0.00578339
v -0.32496357 -0.04137586 0.00499857
v -0.49497464 -0.01288334 -0.00279358
v -0.46496940 -0.02128287 -0.00167241
v -0.41497937 -0.03092196 -0.00130803
v -0.34292170 -0.04024899 -0.00040758
v 0.07225436 -0.04434907 -0.00679476
v -0.24496830 -0.04274544 -0.00282511
v -0.25498882 -0.04259808 -0.00275154
v -0.26495305 -0.04242472 -0.00266044
v -0.27497357 -0.04224269 -0.00254832
v -0.28499407 -0.04203465 -0.00240818
v -0.29495829 -0.04180061 -0.00222949
v -0.30497882 -0.04154056 -0.00200525
v -0.31499934 -0.04125451 -0.00172146
v -0.32496357 -0.04092512 -0.00135357
v -0.33498409 -0.04056972 -0.00087707
f 1 2 9
f 1 9 37
f 1 37 73
f 1 73 108
f 1 108 141
f 1 141 140
f 1 140 139
f 1 139 204
f 1 204 203
f 1 203 202
f 1 202 201
f 1 201 184
f 1 184 183
f 1 183 237
f 1 237 229
f 1 229 273
f 1 273 292
f 1 292 263
f 1 263 221
f 1 221 163
f 1 163 162
f 1 162 161
f 1 161 160
f 1 160 159
f 1 159 158
f 1 158 127
f 1 127 89
f 1 89 88
f 1 88 44
f 1 44 10
f 1 10 3
f 1 3 4
f 1 4 5
f 1 5 6
f 1 6 7
f 1 7 8
f 1 8 2
f 2 8 9
f 3 10 11
f 3 11 12
f 3 12 13
f 3 13 14
f 3 14 15
f 3 15 16
f 3 16 17
f 3 17 18
f 3 18 19
f 3 19 20
f 3 20 21
f 3 21 22
f 3 22 23
f 3 23 24
f 3 24 25
f 3 25 4
f 4 25 26
f 4 26 27
f 4 27 28
f 4 28 5
f 5 28 29
f 5 29 30
f 5 30 6
f 6 30 31
f 6 31 7
f 7 31 32
f 7 32 33
f 7 33 34
f 7 34 8
f 8 34 35
f 8 35 9
f 9 36 37
f 9 35 38
f 9 38 39
f 9 39 40
f 9 40 41
f 9 41 42
f 9 42 43
f 9 43 36
f 10 44 11
f 11 44 45
f 11 45 46
f 11 46 13
f 11 13 12
f 13 46 47
f 13 47 48
f 13 48 14
f 14 48 15
f 15 48 16
f 16 48 17
f 17 48 49
f 17 49 18
f 18 49 50
f 18 50 19
f 19 50 51
f 19 51 20
f 20 51 52
f 20 52 21
f 21 52 53
f 21 53 22
f 22 53 54
f 22 54 23
f 23 54 24
f 24 26 25
f 24 54 55
f 24 55 56
f 24 56 26
f 26 56 57
f 26 57 27
f 27 57 58
f 27 58 59
f 27 59 28
f 28 60 29
f 28 59 60
f 29 61 62
f 29 62 30
f 29 60 61
f 30 62 63
f 30 63 31
f 31 63 64
f 31 64 32
f 32 64 65
f 32 65 66
f 32 66 33
f 33 66 67
f 33 67 68
f 33 68 34
f 34 68 69
f 34 69 70
f 34 70 38
f 34 38 35
f 36 71 72
f 36 72 73
f 36 73 37
f 36 43 74
f 36 74 75
f 36 75 76
f 36 76 71
f 38 70 39
f 39 70 77
f 39 77 40
f 40 77 41
f 41 77 78
f 41 78 42
f 42 78 79
f 42 79 80
f 42 80 81
f 42 81 82
f 42 82 83
f 42 83 84
f 42 84 85
f 42 85 86
f 42 86 43
f 43 86 87
f 43 87 74
f 44 88 45
f 45 88 89
f 45 89 90
f 45 90 47
f 45 47 46
f 47 90 91
f 47 91 48
f 48 91 50
f 48 50 49
f 50 91 51
f 51 91 52
f 52 91 53
f 53 91 54
f 54 91 55
f 55 91 56
f 56 91 57
f 57 91 58
f 58 91 59
f 59 91 92
f 59 92 60
f 60 92 93
f 60 93 61
f 61 93 62
f 62 93 94
f 62 94 95
f 62 95 63
f 63 95 64
f 64 95 65
f 65 95 96
f 65 96 66
f 66 96 67
f 67 97 68
f 67 96 97
f 68 97 69
f 69 97 98
f 69 98 99
f 69 99 100
f 69 100 70
f 70 100 101
f 70 101 77
f 71 102 106
f 71 106 72
f 71 76 103
f 71 103 104
f 71 104 105
f 71 105 102
f 72 106 138
f 72 138 107
f 72 107 73
f 73 107 108
f 74 87 75
f 75 87 76
f 76 87 104
f 76 104 103
f 77 101 109
f 77 109 110
f 77 110 111
f 77 111 78
f 78 111 79
f 79 111 80
f 80 111 112
f 80 112 113
f 80 113 114
f 80 114 115
f 80 115 116
f 80 116 117
f 80 117 118
f 80 118 119
f 80 119 120
f 80 120 121
f 80 121 81
f 81 121 82
f 82 122 87
f 82 87 83
f 82 121 123
f 82 123 124
f 82 124 122
f 83 87 84
f 84 87 85
f 85 87 86
f 87 122 125
f 87 125 155
f 87 155 126
f 87 126 104
f 89 127 128
f 89 128 90
f 90 128 93
f 90 93 91
f 91 93 92
f 93 128 95
f 93 95 94
f 95 128 129
f 95 129 96
f 96 129 130
f 96 130 131
f 96 131 99
f 96 99 98
f 96 98 97
f 99 131 132
f 99 132 133
f 99 133 110
f 99 110 109
f 99 109 101
f 99 101 100
f 102 134 106
f 102 105 135
f 102 135 134
f 104 126 136
f 104 136 137
f 104 137 135
f 104 135 105
f 106 134 138
f 107 138 204
f 107 204 139
f 107 139 140
f 107 140 141
f 107 141 108
f 110 133 111
f 111 133 142
f 111 142 112
f 112 142 113
f 113 142 114
f 114 142 115
f 115 142 143
f 115 143 116
f 116 143 142
f 116 142 117
f 117 142 118
f 118 142 144
f 118 144 145
f 118 145 119
f 119 145 146
f 119 146 147
f 119 147 148
f 119 148 149
f 119 149 150
f 119 150 124
f 119 124 120
f 120 124 121
f 121 124 123
f 122 151 152
f 122 152 153
f 122 153 125
f 122 124 151
f 124 150 151
f 125 153 154
f 125 154 155
f 126 155 156
f 126 156 157
f 126 157 136
f 127 158 128
f 128 158 159
f 128 159 160
f 128 160 161
f 128 161 162
f 128 162 163
f 128 163 164
f 128 164 129
f 129 164 130
f 130 164 165
f 130 165 166
f 130 166 131
f 131 167 132
f 131 166 167
f 132 167 168
f 132 168 169
f 132 169 142
f 132 142 133
f 134 170 171
f 134 171 172
f 134 172 173
f 134 173 174
f 134 174 175
f 134 175 176
f 134 176 177
f 134 177 178
f 134 178 179
f 134 179 180
f 134 180 181
f 134 181 182
f 134 182 183
f 134 183 184
f 134 184 138
f 134 135 185
f 134 185 186
f 134 186 187
f 134 187 188
f 134 188 189
f 134 189 190
f 134 190 191
f 134 191 192
f 134 192 193
f 134 193 194
f 134 194 195
f 134 195 170
f 135 137 196
f 135 196 197
f 135 197 198
f 135 198 185
f 136 157 199
f 136 199 200
f 136 200 196
f 136 196 137
f 138 184 201
f 138 201 202
f 138 202 203
f 138 203 204
f 142 169 205
f 142 205 144
f 144 205 206
f 144 206 207
f 144 207 208
f 144 208 148
f 144 148 147
f 144 147 146
f 144 146 145
f 148 208 209
f 148 209 149
f 149 209 210
f 149 210 211
f 149 211 212
f 149 212 151
f 149 151 150
f 151 212 152
f 152 212 153
f 153 213 154
f 153 212 214
f 153 214 213
f 154 215 216
f 154 216 155
f 154 213 215
f 155 216 217
f 155 217 156
f 156 217 218
f 156 218 219
f 156 219 220
f 156 220 157
f 157 220 199
f 163 221 222
f 163 222 165
f 163 165 164
f 165 222 223
f 165 223 166
f 166 206 168
f 166 168 167
f 166 223 224
f 166 224 206
f 168 206 169
f 169 206 205
f 170 225 226
f 170 226 171
f 170 195 246
f 170 246 225
f 171 226 225
f 171 225 172
f 172 225 173
f 173 225 174
f 174 225 175
f 175 225 176
f 176 225 227
f 176 227 177
f 177 227 178
f 178 227 228
f 178 228 229
f 178 229 179
f 179 229 230
f 179 230 180
f 180 230 231
f 180 231 232
f 180 232 233
f 180 233 181
f 181 233 232
f 181 232 234
f 181 234 235
f 181 235 229
f 181 229 236
f 181 236 237
f 181 237 182
f 182 237 183
f 185 198 238
f 185 238 239
f 185 239 186
f 186 239 240
f 186 240 241
f 186 241 187
f 187 241 242
f 187 242 188
f 188 242 189
f 189 242 243
f 189 243 244
f 189 244 190
f 190 244 245
f 190 245 191
f 191 245 192
f 192 245 193
f 193 245 194
f 194 245 246
f 194 246 195
f 196 200 247
f 196 247 248
f 196 248 249
f 196 249 250
f 196 250 197
f 197 250 198
f 198 250 238
f 199 220 251
f 199 251 247
f 199 247 200
f 206 224 252
f 206 252 207
f 207 252 253
f 207 253 208
f 208 253 211
f 208 211 210
f 208 210 209
f 211 253 214
f 211 214 212
f 213 214 254
f 213 254 215
f 214 253 254
f 215 254 255
f 215 255 256
f 215 256 216
f 216 256 217
f 217 256 257
f 217 257 218
f 218 257 219
f 219 258 259
f 219 259 220
f 219 257 258
f 220 259 260
f 220 260 261
f 220 261 262
f 220 262 251
f 221 263 222
f 222 264 265
f 222 265 266
f 222 266 267
f 222 267 268
f 222 268 269
f 222 269 270
f 222 270 271
f 222 271 255
f 222 255 223
f 222 263 264
f 223 255 254
f 223 254 272
f 223 272 252
f 223 252 224
f 225 273 227
f 225 246 273
f 227 273 229
f 227 229 228
f 229 237 236
f 229 235 234
f 229 234 232
f 229 232 231
f 229 231 230
f 238 250 274
f 238 274 275
f 238 275 239
f 239 275 276
f 239 276 240
f 240 276 277
f 240 277 241
f 241 277 242
f 242 277 243
f 243 277 278
f 243 278 244
f 244 278 273
f 244 273 245
f 245 273 246
f 247 251 279
f 247 279 280
f 247 280 281
f 247 281 282
f 247 282 248
f 248 282 249
f 249 282 283
f 249 283 284
f 249 284 250
f 250 284 274
f 251 262 285
f 251 285 286
f 251 286 287
f 251 287 279
f 252 272 253
f 253 272 254
f 255 271 288
f 255 288 256
f 256 288 257
f 257 288 289
f 257 289 258
f 258 290 291
f 258 291 261
f 258 261 260
f 258 260 259
f 258 289 290
f 261 291 262
f 262 291 285
f 263 292 278
f 263 278 293
f 263 293 294
f 263 294 295
f 263 295 296
f 263 296 297
f 263 297 264
f 264 297 298
f 264 298 265
f 265 298 266
f 266 298 299
f 266 299 267
f 267 299 300
f 267 300 301
f 267 301 268
f 268 301 302
f 268 302 291
f 268 291 269
f 269 290 270
f 269 291 290
f 270 289 271
f 270 290 289
f 271 289 288
f 273 278 292
f 274 284 297
f 274 297 296
f 274 296 275
f 275 296 295
f 275 295 294
f 275 294 276
f 276 294 293
f 276 293 277
f 277 293 278
f 279 287 291
f 279 291 280
f 280 291 281
f 281 291 302
f 281 302 301
f 281 301 282
f 282 301 300
f 282 300 283
f 283 300 299
f 283 299 284
f 284 299 298
f 284 298 297
f 285 291 287
f 285 287 286

