# https://github.com/mikedh/trimesh
v 0.37863028 0.00055871 0.00499745
v 0.37863028 0.00055871 -0.00499930
v 0.37786672 0.00055871 0.01546121
v 0.44498920 -0.01427052 0.00499745
v 0.37843940 0.00055871 -0.00891108
v 0.44498920 -0.01427052 -0.00499930
v 0.37676910 0.00055871 0.01801358
v 0.45498720 -0.01770046 0.01499883
v 0.45498720 -0.01676214 0.00499745
v 0.37786672 0.00055871 -0.01548156
v 0.45498720 -0.01676214 -0.00499930
v 0.45596552 -0.01818864 -0.01598094
v 0.44498920 -0.01544342 -0.01499606
v 0.37388185 0.00055871 0.02132425
v 0.46002197 -0.01998285 0.02001570
v 0.46097645 -0.01957075 0.01499883
v 0.46197861 -0.01913963 0.00499745
v 0.37390572 0.00055871 -0.02130761
v 0.46197861 -0.01913963 -0.00499930
v 0.46128666 -0.01944396 -0.01330373
v 0.45997426 -0.02001455 -0.01996670
v 0.36963451 0.00055871 0.02217042
v 0.45498720 -0.01929813 0.02063068
v 0.46400687 -0.02510556 0.02131500
v 0.47223908 -0.02851014 0.02099133
v 0.47412413 -0.02712168 0.01499883
v 0.46598738 -0.02211943 0.01499883
v 0.46696568 -0.02146007 0.00499745
v 0.45329303 -0.01910793 -0.02079436
v 0.36894250 0.00055871 -0.02229711
v 0.46696568 -0.02146007 -0.00499930
v 0.46477044 -0.02173269 -0.01598094
v 0.47410029 -0.02715338 -0.01499606
v 0.47219136 -0.02854818 -0.02095157
v 0.46498519 -0.02641794 -0.02157579
v 0.36500534 0.00055871 0.02308594
v 0.44498920 -0.01824570 0.02142598
v 0.45498720 -0.02500412 0.02242935
v 0.46498519 -0.03499595 0.02345584
v 0.47534108 -0.03460287 0.02197159
v 0.48211777 -0.03767142 0.02108381
v 0.47913507 -0.03079253 0.01499883
v 0.47493544 -0.02646232 0.00499745
v 0.47994637 -0.03003808 0.00499745
v 0.45596552 -0.02400875 -0.02187172
v 0.44498920 -0.01829642 -0.02137234
v 0.36500534 0.00055871 -0.02306467
v 0.47493544 -0.02646232 -0.00499930
v 0.47994637 -0.03003808 -0.00499930
v 0.47908735 -0.03083057 -0.01499606
v 0.48207003 -0.03772214 -0.02104867
v 0.47529337 -0.03463457 -0.02190408
v 0.46498519 -0.03499595 -0.02334673
v 0.44498920 -0.02500412 -0.02314328
v 0.35500738 0.00055871 0.02330788
v 0.43499124 -0.02500412 0.02348821
v 0.44498920 -0.02500412 0.02324777
v 0.45498720 -0.03499595 0.02363155
v 0.47498316 -0.04499411 0.02353907
v 0.48526749 -0.04481659 0.02192535
v 0.49118516 -0.04803097 0.02091735
v 0.48889443 -0.04127254 0.01499883
v 0.48388350 -0.03578845 0.01499883
v 0.48464710 -0.03503399 0.00499745
v 0.35944563 0.00055871 -0.02319876
v 0.48464710 -0.03503399 -0.00499930
v 0.48385966 -0.03582649 -0.01499606
v 0.48884672 -0.04131057 -0.01499606
v 0.49116129 -0.04808168 -0.02088222
v 0.48524362 -0.04484829 -0.02186247
v 0.47498316 -0.04499411 -0.02342996
v 0.45498720 -0.03499595 -0.02352243
v 0.43499124 -0.02500412 -0.02337909
v 0.35500738 0.00055871 -0.02330511
v 0.35500738 -0.01500596 0.02366854
v 0.36500534 -0.01500596 0.02362693
v 0.34500939 0.00055871 0.02304894
v 0.25824887 -0.03499595 0.02318304
v 0.25824887 -0.04174804 0.02343735
v 0.25824887 -0.04499411 0.02352058
v 0.44498920 -0.03499595 0.02365929
v 0.46498519 -0.04499411 0.02365467
v 0.47498316 -0.05499861 0.02365467
v 0.48498115 -0.06421062 0.02359456
v 0.48498115 -0.05499861 0.02338186
v 0.49295092 -0.05499861 0.02156469
v 0.49939352 -0.06104062 0.01820315
v 0.49237823 -0.04626845 0.01499883
v 0.48963416 -0.04044834 0.00499745
v 0.48963416 -0.04044834 -0.00499930
v 0.49235436 -0.04630649 -0.01499606
v 0.49934578 -0.06112938 -0.01814490
v 0.49991846 -0.06421062 -0.01927312
v 0.49287933 -0.05499861 -0.02151106
v 0.48498115 -0.05499861 -0.02327737
v 0.48498115 -0.06421062 -0.02348544
v 0.48419371 -0.06421062 -0.02350856
v 0.47498316 -0.05499861 -0.02354555
v 0.46498519 -0.04499411 -0.02354555
v 0.44498920 -0.03499595 -0.02355018
v 0.35500738 -0.01500596 -0.02355942
v 0.25824887 -0.04499411 -0.02339296
v 0.25824887 -0.03499595 -0.02307854
v 0.34944764 0.00055871 -0.02316640
v 0.34500939 -0.03499595 0.02366854
v 0.35500738 -0.02500412 0.02367317
v 0.33787480 0.00055871 0.02139361
v 0.25824887 -0.02847844 0.02135199
v 0.25824887 -0.03286571 0.02258656
v 0.25824887 -0.05142286 0.02217966
v 0.47498316 -0.06421062 0.02360843
v 0.36500534 -0.03499595 0.02366854
v 0.49550408 -0.06421062 0.02178664
v 0.50103998 -0.06421062 0.01529938
v 0.50118315 -0.06421062 0.01464742
v 0.50022864 -0.05948098 0.01153557
v 0.49755618 -0.05568967 0.01492022
v 0.49605289 -0.06421062 0.02137974
v 0.49299863 -0.04545059 0.00499745
v 0.49798569 -0.05416808 0.00499745
v 0.49299863 -0.04545059 -0.00499930
v 0.49798569 -0.05417442 -0.00499930
v 0.50022864 -0.05948098 -0.01147731
v 0.49748459 -0.05568967 -0.01488509
v 0.50115925 -0.06421062 -0.01457991
v 0.50099224 -0.06421062 -0.01531510
v 0.49545637 -0.06421062 -0.02172375
v 0.49507457 -0.06421062 -0.02180699
v 0.47498316 -0.06421062 -0.02350394
v 0.34500939 -0.03499595 -0.02355942
v 0.36500534 -0.03499595 -0.02355942
v 0.35500738 -0.02500412 -0.02356404
v 0.25824887 -0.05374330 -0.02161741
v 0.47419572 -0.06421062 -0.02349469
v 0.25824887 -0.02838968 -0.02130299
v 0.34500939 0.00055871 -0.02305542
v 0.33310249 0.00055871 0.01498033
v 0.25824887 -0.00425968 -0.00499930
v 0.25824887 -0.00675764 0.00253757
v 0.25824887 -0.05463089 0.02147222
v 0.46498519 -0.06421062 0.02279463
v 0.25824887 -0.05800377 0.01949783
v 0.25824887 -0.05891673 0.01887361
v 0.25824887 -0.06041930 0.01647846
v 0.25824887 -0.06159854 0.01455957
v 0.50199443 -0.06421062 0.00499745
v 0.50034797 -0.05917032 0.00499745
v 0.50034797 -0.05917032 -0.00499930
v 0.50197053 -0.06421062 -0.00592407
v 0.25824887 -0.05874554 -0.01874137
v 0.46419775 -0.06421062 -0.02264390
v 0.25824887 -0.06187116 -0.01374300
v 0.25824887 -0.05978530 -0.01711841
v 0.25824887 -0.00750575 -0.01178711
v 0.33785093 0.00055871 -0.02140009
v 0.33179009 0.00055871 0.01055069
v 0.25824887 -0.00529310 -0.00720488
v 0.33035842 0.00055871 0.00499745
v 0.33047771 0.00055871 -0.00507791
v 0.33155149 0.00055871 -0.00931798
v 0.33324566 0.00055871 -0.01500068
v 0.45587009 -0.06421062 0.02091273
v 0.25824887 -0.06354491 0.00766079
v 0.25824887 -0.06411552 0.00499745
v 0.50199443 -0.06421062 -0.00499930
v 0.45601326 -0.06421062 -0.02090071
v 0.25824887 -0.06409016 -0.00499930
v 0.45572692 -0.06421062 0.02088036
v 0.44250762 -0.06421062 0.00499745
v 0.44828212 -0.06421062 0.01474914
v 0.45572692 -0.06421062 -0.02080823
v 0.45114550 -0.06421062 -0.01733110
v 0.44830596 -0.06421062 -0.01475100
v 0.44315189 -0.06421062 -0.00666851
v 0.44250762 -0.06421062 -0.00499930
f 1 2 5
f 1 5 10
f 1 10 18
f 1 18 30
f 1 30 47
f 1 47 65
f 1 65 74
f 1 74 104
f 1 104 136
f 1 136 155
f 1 155 161
f 1 161 160
f 1 160 159
f 1 159 158
f 1 158 156
f 1 156 137
f 1 137 107
f 1 107 77
f 1 77 55
f 1 55 36
f 1 36 22
f 1 22 14
f 1 14 7
f 1 7 3
f 1 3 4
f 1 4 6
f 1 6 2
f 2 6 5
f 3 7 4
f 4 8 9
f 4 9 11
f 4 11 6
f 4 7 8
f 5 6 10
f 6 11 12
f 6 12 13
f 6 13 10
f 7 14 8
f 8 15 16
f 8 16 9
f 8 14 15
f 9 16 17
f 9 17 19
f 9 19 11
f 10 13 12
f 10 12 18
f 11 19 20
f 11 20 12
f 12 20 21
f 12 21 18
f 14 22 23
f 14 23 15
f 15 23 24
f 15 24 25
f 15 25 26
f 15 26 27
f 15 27 16
f 16 27 28
f 16 28 17
f 17 28 31
f 17 31 19
f 18 21 29
f 18 29 30
f 19 31 20
f 20 31 32
f 20 32 21
f 21 32 33
f 21 33 34
f 21 34 35
f 21 35 29
f 22 36 23
f 23 37 38
f 23 38 24
f 23 36 37
f 24 38 39
f 24 39 25
f 25 40 41
f 25 41 42
f 25 42 26
f 25 39 40
f 26 43 28
f 26 28 27
f 26 42 44
f 26 44 43
f 28 43 48
f 28 48 31
f 29 35 45
f 29 45 46
f 29 46 47
f 29 47 30
f 31 48 33
f 31 33 32
f 33 48 49
f 33 49 50
f 33 50 34
f 34 50 51
f 34 51 52
f 34 52 35
f 35 53 54
f 35 54 45
f 35 52 53
f 36 55 56
f 36 56 57
f 36 57 38
f 36 38 37
f 38 57 39
f 39 57 56
f 39 56 58
f 39 58 59
f 39 59 40
f 40 59 60
f 40 60 41
f 41 60 61
f 41 61 62
f 41 62 63
f 41 63 42
f 42 63 44
f 43 44 49
f 43 49 48
f 44 63 64
f 44 64 66
f 44 66 49
f 45 54 46
f 46 54 47
f 47 54 65
f 49 66 67
f 49 67 50
f 50 67 51
f 51 67 68
f 51 68 69
f 51 69 70
f 51 70 52
f 52 71 53
f 52 70 71
f 53 72 73
f 53 73 54
f 53 71 72
f 54 73 74
f 54 74 65
f 55 75 76
f 55 76 58
f 55 58 56
f 55 77 78
f 55 78 79
f 55 79 80
f 55 80 75
f 58 81 82
f 58 82 59
f 58 76 75
f 58 75 81
f 59 83 84
f 59 84 85
f 59 85 60
f 59 82 83
f 60 85 86
f 60 86 61
f 61 86 87
f 61 87 88
f 61 88 62
f 62 88 89
f 62 89 63
f 63 89 64
f 64 89 90
f 64 90 66
f 66 90 67
f 67 90 68
f 68 90 91
f 68 91 69
f 69 91 92
f 69 92 93
f 69 93 94
f 69 94 70
f 70 95 71
f 70 94 95
f 71 95 96
f 71 96 97
f 71 97 98
f 71 98 99
f 71 99 72
f 72 99 100
f 72 100 101
f 72 101 74
f 72 74 73
f 74 101 102
f 74 102 103
f 74 103 104
f 75 80 105
f 75 105 106
f 75 106 81
f 77 107 108
f 77 108 109
f 77 109 78
f 78 109 108
f 78 108 139
f 78 139 138
f 78 138 157
f 78 157 154
f 78 154 135
f 78 135 103
f 78 103 102
f 78 102 133
f 78 133 150
f 78 150 153
f 78 153 152
f 78 152 167
f 78 167 164
f 78 164 163
f 78 163 145
f 78 145 144
f 78 144 143
f 78 143 142
f 78 142 140
f 78 140 110
f 78 110 80
f 78 80 79
f 80 110 111
f 80 111 105
f 81 83 82
f 81 106 83
f 83 111 84
f 83 106 112
f 83 112 105
f 83 105 111
f 84 113 85
f 84 111 141
f 84 141 162
f 84 162 168
f 84 168 170
f 84 170 169
f 84 169 175
f 84 175 174
f 84 174 173
f 84 173 172
f 84 172 171
f 84 171 166
f 84 166 151
f 84 151 134
f 84 134 129
f 84 129 97
f 84 97 96
f 84 96 128
f 84 128 127
f 84 127 93
f 84 93 126
f 84 126 125
f 84 125 149
f 84 149 165
f 84 165 146
f 84 146 115
f 84 115 114
f 84 114 118
f 84 118 113
f 85 113 86
f 86 113 87
f 87 114 115
f 87 115 116
f 87 116 117
f 87 117 88
f 87 113 118
f 87 118 114
f 88 119 89
f 88 117 116
f 88 116 120
f 88 120 119
f 89 119 121
f 89 121 90
f 90 121 91
f 91 121 122
f 91 122 123
f 91 123 124
f 91 124 92
f 92 123 125
f 92 125 126
f 92 126 93
f 92 124 123
f 93 127 94
f 94 127 95
f 95 127 128
f 95 128 96
f 97 129 98
f 98 100 99
f 98 129 130
f 98 130 131
f 98 131 132
f 98 132 100
f 100 132 101
f 101 132 130
f 101 130 102
f 102 130 129
f 102 129 134
f 102 134 133
f 103 135 136
f 103 136 104
f 105 112 106
f 107 137 138
f 107 138 139
f 107 139 108
f 110 140 111
f 111 140 142
f 111 142 143
f 111 143 144
f 111 144 145
f 111 145 141
f 115 146 116
f 116 147 120
f 116 146 147
f 119 120 121
f 120 147 148
f 120 148 122
f 120 122 121
f 122 148 123
f 123 148 149
f 123 149 125
f 130 132 131
f 133 134 150
f 134 151 152
f 134 152 153
f 134 153 150
f 135 154 136
f 136 154 155
f 137 156 138
f 138 156 158
f 138 158 159
f 138 159 160
f 138 160 161
f 138 161 155
f 138 155 157
f 141 145 163
f 141 163 164
f 141 164 162
f 146 165 148
f 146 148 147
f 148 165 149
f 151 166 167
f 151 167 152
f 154 157 155
f 162 164 168
f 164 169 170
f 164 170 168
f 164 167 166
f 164 166 171
f 164 171 172
f 164 172 173
f 164 173 174
f 164 174 175
f 164 175 169

