# https://github.com/mikedh/trimesh
v 0.23576419 0.00055870 0.00434093
v 0.25824884 -0.02848991 0.02135231
v 0.25824884 -0.00675838 0.00253760
v 0.25824884 -0.00427429 -0.00499938
v 0.23576419 0.00055870 -0.00400062
v 0.22498612 0.00055870 0.00690720
v 0.25824884 -0.03288354 0.02258690
v 0.21499091 0.00055870 0.00765627
v 0.13841566 0.00055870 0.01152649
v 0.13501111 0.00055870 0.01168370
v 0.11056019 0.00055870 0.01256687
v 0.10056499 0.00055870 0.01281194
v 0.17499191 -0.02783087 0.02159738
v 0.25824884 -0.00530510 -0.00720499
v 0.25824884 -0.00751881 -0.01178729
v 0.22498612 0.00055870 -0.00640043
v 0.25824884 -0.03501276 0.02318338
v 0.09056979 0.00055870 0.01283968
v 0.08057459 0.00055870 0.01284431
v 0.07225436 0.00055870 0.01284431
v 0.16501492 -0.02781397 0.02157426
v 0.17499191 -0.03501276 0.02340533
v 0.21499091 0.00055870 -0.00704778
v 0.25824884 -0.02838852 -0.02129869
v 0.09945441 0.00055870 -0.01347040
v 0.12756477 0.00055870 -0.01203236
v 0.23499954 -0.04501670 0.02365502
v 0.24499473 -0.04501670 0.02362728
v 0.25824884 -0.04175528 0.02343770
v 0.07225436 0.00055870 -0.01361374
v 0.07225436 -0.00500093 0.01283968
v 0.15500151 -0.06500769 0.02354867
v 0.15500151 -0.05500374 0.02354405
v 0.15500151 -0.04501670 0.02332210
v 0.16501492 -0.03501276 0.02337759
v 0.16501492 -0.04501670 0.02363190
v 0.17499191 -0.04501670 0.02364577
v 0.25824884 -0.03055154 -0.02188130
v 0.17499191 -0.02784777 -0.02154375
v 0.08945921 0.00055870 -0.01360449
v 0.20499572 -0.05500374 0.02366889
v 0.19498232 -0.10498966 0.02366427
v 0.25498992 -0.15499249 0.02356254
v 0.17499191 -0.05500374 0.02366889
v 0.25498992 -0.04501670 0.02354867
v 0.25824884 -0.04501670 0.02352093
v 0.07225436 -0.00226336 -0.01361836
v 0.07944581 0.00055870 -0.01361374
v 0.16501492 -0.02784777 -0.02152063
v 0.16501492 -0.03501276 -0.02326847
v 0.15500151 -0.04501670 -0.02321299
v 0.15500151 -0.05500374 -0.02343956
v 0.07225436 -0.00775539 0.01282581
v 0.15500151 -0.07501163 0.02353942
v 0.16501492 -0.07501163 0.02365040
v 0.16501492 -0.05500374 0.02365965
v 0.25824884 -0.03501276 -0.02307889
v 0.17499191 -0.03501276 -0.02330084
v 0.17499191 -0.06500769 0.02367352
v 0.18498711 -0.09498572 0.02366889
v 0.18498711 -0.10498966 0.02364115
v 0.19498232 -0.11499361 0.02363190
v 0.20499572 -0.11499361 0.02364577
v 0.24499473 -0.15499249 0.02300767
v 0.25824884 -0.16508092 0.02199966
v 0.25824884 -0.15499249 0.02351168
v 0.22498612 -0.13498460 0.02359954
v 0.20499572 -0.12499756 0.02358104
v 0.23499954 -0.14498854 0.02354405
v 0.07225436 -0.01500487 -0.01361836
v 0.16501492 -0.04501670 -0.02352279
v 0.16501492 -0.05500374 -0.02355053
v 0.15500151 -0.06500769 -0.02343956
v 0.07225436 -0.01500487 0.01244203
v 0.15500151 -0.08501557 0.02347931
v 0.16501492 -0.08501557 0.02363653
v 0.17499191 -0.08501557 0.02366889
v 0.25824884 -0.04501670 -0.02339332
v 0.25498992 -0.04501670 -0.02342106
v 0.24499473 -0.04501670 -0.02350429
v 0.23499954 -0.04501670 -0.02354128
v 0.17499191 -0.04501670 -0.02353666
v 0.22498612 -0.04501670 -0.02354128
v 0.17499191 -0.09498572 0.02364577
v 0.16501492 -0.09498572 0.02352555
v 0.17499191 -0.10498966 0.02347931
v 0.23545468 -0.15500939 0.02164362
v 0.24499473 -0.16175190 0.02118123
v 0.21499091 -0.13498460 0.02334060
v 0.21499091 -0.14328179 0.02150953
v 0.25546330 -0.16511472 0.02162512
v 0.25824884 -0.16910277 0.02066797
v 0.18498711 -0.11499361 0.02327124
v 0.07225436 -0.02500881 -0.01361374
v 0.16501492 -0.07501163 -0.02354128
v 0.17499191 -0.05500374 -0.02355978
v 0.17499191 -0.06500769 -0.02356440
v 0.17499191 -0.08501557 -0.02355978
v 0.15500151 -0.07501163 -0.02343494
v 0.07225436 -0.01701579 0.01204899
v 0.14784648 -0.09265372 0.02108413
v 0.14635357 -0.08501557 0.02167599
v 0.15441892 -0.09557717 0.02202278
v 0.25824884 -0.15499249 -0.02340719
v 0.25498992 -0.15499249 -0.02345805
v 0.20499572 -0.05500374 -0.02355978
v 0.19498232 -0.10498966 -0.02355516
v 0.16461438 -0.10541213 0.02199041
v 0.22669750 -0.15168037 0.02108413
v 0.23909593 -0.16046762 0.02044140
v 0.19498232 -0.12499756 0.02274411
v 0.20492290 -0.13523808 0.02189331
v 0.20821822 -0.14106807 0.02082519
v 0.25824884 -0.17075884 0.01695959
v 0.17511936 -0.11502741 0.02179158
v 0.07225436 -0.03225829 -0.01357212
v 0.16501492 -0.08501557 -0.02352741
v 0.18498711 -0.09498572 -0.02355978
v 0.17499191 -0.09498572 -0.02353666
v 0.15500151 -0.08501557 -0.02337020
v 0.07225436 -0.02157840 0.01102248
v 0.15735011 -0.10235349 0.02108875
v 0.07225436 -0.04270160 0.00239888
v 0.25824884 -0.15823701 -0.02324535
v 0.24499473 -0.15499249 -0.02290318
v 0.23499954 -0.14498854 -0.02343494
v 0.20499572 -0.12499756 -0.02347193
v 0.22498612 -0.13498460 -0.02349504
v 0.20499572 -0.11499361 -0.02353666
v 0.19498232 -0.11499361 -0.02352279
v 0.18498711 -0.10498966 -0.02353204
v 0.16767302 -0.11173218 0.02102401
v 0.23783970 -0.16117735 0.01499905
v 0.22003403 -0.14995672 0.01990965
v 0.18586101 -0.12460889 0.02125521
v 0.17854212 -0.12100949 0.02076970
v 0.18977535 -0.13013472 0.02014085
v 0.25773907 -0.17097852 0.01499905
v 0.25824884 -0.17118129 0.01499905
v 0.07225436 -0.03501276 -0.01349814
v 0.16501492 -0.09498572 -0.02341644
v 0.15445532 -0.09556027 -0.02195528
v 0.15068664 -0.09931175 0.01805084
v 0.07225436 -0.04493221 -0.00499938
v 0.16576137 -0.11328685 0.01499905
v 0.16079108 -0.10926500 0.01499905
v 0.25824884 -0.16506402 -0.02192291
v 0.25549969 -0.16509782 -0.02156687
v 0.24499473 -0.16170120 -0.02113223
v 0.23549110 -0.15497559 -0.02158074
v 0.21499091 -0.14321420 -0.02146052
v 0.21499091 -0.13498460 -0.02323611
v 0.18498711 -0.11499361 -0.02316675
v 0.17499191 -0.10498966 -0.02337020
v 0.23700221 -0.16165051 0.00499752
v 0.24499473 -0.16584136 0.00499752
v 0.25174922 -0.16918728 0.00499752
v 0.21905090 -0.15056506 0.01324196
v 0.23199551 -0.15884537 0.00499752
v 0.20652504 -0.14218338 0.01499905
v 0.17207892 -0.11828883 0.01499905
v 0.17708562 -0.12209100 0.01499905
v 0.18398577 -0.12709297 0.01499905
v 0.18897426 -0.13069236 0.01499905
v 0.25675592 -0.17143477 0.00499752
v 0.25824884 -0.17207691 0.00499752
v 0.07225436 -0.04040339 -0.01218957
v 0.14790109 -0.09258613 -0.02104899
v 0.16465080 -0.10537833 -0.02192291
v 0.15740472 -0.10230280 -0.02105362
v 0.17131425 -0.11899856 0.00499752
v 0.16002642 -0.10997474 0.00916829
v 0.07225436 -0.04435765 -0.00679346
v 0.17211533 -0.11825503 -0.01499629
v 0.17712204 -0.12207410 -0.01499629
v 0.17131425 -0.11899856 -0.00499938
v 0.25824884 -0.16688907 -0.02140966
v 0.23915054 -0.16045073 -0.02041552
v 0.22675212 -0.15162967 -0.02104437
v 0.25824884 -0.16900139 -0.02065134
v 0.20825464 -0.14103428 -0.02079006
v 0.20495930 -0.13520429 -0.02183044
v 0.19498232 -0.12499756 -0.02264424
v 0.17515577 -0.11501051 -0.02172871
v 0.23700221 -0.16165051 -0.00499938
v 0.24499473 -0.16584136 -0.00499938
v 0.25174922 -0.16918728 -0.00499938
v 0.20069906 -0.13953030 0.00499752
v 0.20568755 -0.14275792 0.00499752
v 0.21355262 -0.14775990 0.00499752
v 0.21855932 -0.15088613 0.00499752
v 0.22498612 -0.15473901 0.00499752
v 0.23199551 -0.15884537 -0.00499938
v 0.17632097 -0.12268245 0.00499752
v 0.18327573 -0.12768441 0.00499752
v 0.18828243 -0.13118242 0.00499752
v 0.19498232 -0.13571124 0.00499752
v 0.25675592 -0.17143477 -0.00499938
v 0.25824884 -0.17206001 -0.00499938
v 0.07225436 -0.04224534 -0.01169481
v 0.16772763 -0.11168149 -0.02098888
v 0.18981175 -0.13011782 -0.02011496
v 0.18400398 -0.12705918 -0.01499629
v 0.17632097 -0.12268245 -0.00499938
v 0.25824884 -0.17006600 -0.01956009
v 0.25824884 -0.17075884 -0.01676262
v 0.25777549 -0.17096162 -0.01499629
v 0.23787610 -0.16114356 -0.01499629
v 0.22008866 -0.14990601 -0.01979129
v 0.17859674 -0.12097570 -0.02073457
v 0.18587922 -0.12459199 -0.02119696
v 0.20069906 -0.13953030 -0.00499938
v 0.20568755 -0.14275792 -0.00499938
v 0.21355262 -0.14775990 -0.00499938
v 0.21855932 -0.15086924 -0.00499938
v 0.22498612 -0.15473901 -0.00499938
v 0.21905090 -0.15056506 -0.01312360
v 0.18327573 -0.12768441 -0.00499938
v 0.18828243 -0.13118242 -0.00499938
v 0.19498232 -0.13571124 -0.00499938
v 0.25824884 -0.17121509 -0.01435819
v 0.18901068 -0.13065857 -0.01499629
v 0.20656145 -0.14214958 -0.01499629
v 0.25824884 -0.17114750 -0.01499629
f 1 2 3
f 1 3 4
f 1 4 5
f 1 5 16
f 1 16 23
f 1 23 26
f 1 26 25
f 1 25 40
f 1 40 48
f 1 48 30
f 1 30 20
f 1 20 19
f 1 19 18
f 1 18 12
f 1 12 11
f 1 11 10
f 1 10 9
f 1 9 8
f 1 8 6
f 1 6 2
f 2 7 17
f 2 17 29
f 2 29 46
f 2 46 66
f 2 66 65
f 2 65 92
f 2 92 114
f 2 114 139
f 2 139 166
f 2 166 199
f 2 199 221
f 2 221 224
f 2 224 206
f 2 206 205
f 2 205 180
f 2 180 177
f 2 177 147
f 2 147 124
f 2 124 104
f 2 104 78
f 2 78 57
f 2 57 38
f 2 38 24
f 2 24 15
f 2 15 14
f 2 14 4
f 2 4 3
f 2 6 8
f 2 8 9
f 2 9 10
f 2 10 11
f 2 11 12
f 2 12 13
f 2 13 7
f 4 14 5
f 5 14 15
f 5 15 16
f 7 13 17
f 12 18 13
f 13 18 19
f 13 19 20
f 13 20 21
f 13 21 22
f 13 22 17
f 15 23 16
f 15 24 25
f 15 25 26
f 15 26 23
f 17 27 28
f 17 28 29
f 17 22 27
f 20 30 47
f 20 47 70
f 20 70 94
f 20 94 116
f 20 116 140
f 20 140 167
f 20 167 200
f 20 200 173
f 20 173 144
f 20 144 123
f 20 123 121
f 20 121 100
f 20 100 74
f 20 74 53
f 20 53 31
f 20 31 32
f 20 32 33
f 20 33 34
f 20 34 35
f 20 35 21
f 21 35 22
f 22 35 36
f 22 36 37
f 22 37 27
f 24 38 39
f 24 39 40
f 24 40 25
f 27 41 42
f 27 42 43
f 27 43 28
f 27 37 44
f 27 44 41
f 28 43 45
f 28 45 29
f 29 45 46
f 30 48 39
f 30 39 49
f 30 49 50
f 30 50 51
f 30 51 52
f 30 52 47
f 31 53 54
f 31 54 32
f 32 54 55
f 32 55 56
f 32 56 33
f 33 56 36
f 33 36 34
f 34 36 35
f 36 56 37
f 37 56 44
f 38 57 39
f 39 58 49
f 39 48 40
f 39 57 58
f 41 44 59
f 41 59 60
f 41 60 42
f 42 60 84
f 42 84 61
f 42 61 62
f 42 62 63
f 42 63 43
f 43 64 65
f 43 65 66
f 43 66 46
f 43 46 45
f 43 63 67
f 43 67 68
f 43 68 69
f 43 69 64
f 44 56 59
f 47 52 73
f 47 73 70
f 49 58 50
f 50 58 71
f 50 71 51
f 51 71 52
f 52 71 72
f 52 72 73
f 53 74 75
f 53 75 54
f 54 75 76
f 54 76 55
f 55 76 77
f 55 77 56
f 56 77 59
f 57 78 79
f 57 79 80
f 57 80 81
f 57 81 58
f 58 82 71
f 58 81 83
f 58 83 82
f 59 77 60
f 60 77 84
f 61 84 85
f 61 85 62
f 62 85 86
f 62 86 68
f 62 68 67
f 62 67 63
f 64 87 88
f 64 88 65
f 64 69 89
f 64 89 90
f 64 90 87
f 65 88 91
f 65 91 92
f 68 89 69
f 68 86 93
f 68 93 89
f 70 73 99
f 70 99 94
f 71 82 72
f 72 95 99
f 72 99 73
f 72 82 96
f 72 96 97
f 72 97 98
f 72 98 95
f 74 100 101
f 74 101 102
f 74 102 75
f 75 101 103
f 75 103 85
f 75 85 76
f 75 102 101
f 76 85 84
f 76 84 77
f 78 104 105
f 78 105 79
f 79 105 80
f 80 105 81
f 81 106 96
f 81 96 83
f 81 105 107
f 81 107 106
f 82 83 96
f 85 103 86
f 86 103 108
f 86 108 93
f 87 90 109
f 87 109 88
f 88 109 110
f 88 110 92
f 88 92 91
f 89 93 111
f 89 111 112
f 89 112 90
f 90 112 113
f 90 113 109
f 92 110 114
f 93 108 115
f 93 115 111
f 94 99 116
f 95 117 99
f 95 98 117
f 96 106 97
f 97 118 98
f 97 106 118
f 98 118 119
f 98 119 117
f 99 117 120
f 99 120 116
f 100 121 101
f 101 122 103
f 101 121 123
f 101 123 122
f 103 122 108
f 104 124 105
f 105 124 125
f 105 125 126
f 105 126 127
f 105 127 128
f 105 128 129
f 105 129 107
f 106 107 118
f 107 130 131
f 107 131 119
f 107 119 118
f 107 129 130
f 108 122 132
f 108 132 115
f 109 113 110
f 110 133 114
f 110 113 134
f 110 134 133
f 111 115 135
f 111 135 112
f 112 135 113
f 113 135 136
f 113 136 137
f 113 137 134
f 114 138 139
f 114 133 138
f 115 136 135
f 115 132 136
f 116 120 140
f 117 141 120
f 117 119 141
f 119 131 141
f 120 141 142
f 120 142 140
f 122 123 143
f 122 143 132
f 123 144 145
f 123 145 146
f 123 146 136
f 123 136 143
f 124 147 125
f 125 147 148
f 125 148 149
f 125 149 150
f 125 150 151
f 125 151 152
f 125 152 126
f 126 152 127
f 127 152 153
f 127 153 154
f 127 154 130
f 127 130 128
f 128 130 129
f 130 154 141
f 130 141 131
f 132 143 136
f 133 155 156
f 133 156 157
f 133 157 138
f 133 134 158
f 133 158 159
f 133 159 155
f 134 160 158
f 134 137 160
f 136 146 145
f 136 145 161
f 136 161 137
f 137 161 162
f 137 162 163
f 137 163 164
f 137 164 160
f 138 165 166
f 138 166 139
f 138 157 165
f 140 142 168
f 140 168 167
f 141 154 142
f 142 154 169
f 142 169 170
f 142 170 168
f 144 171 172
f 144 172 161
f 144 161 145
f 144 173 174
f 144 174 175
f 144 175 176
f 144 176 171
f 147 177 148
f 148 177 149
f 149 178 179
f 149 179 150
f 149 177 180
f 149 180 178
f 150 179 151
f 151 179 181
f 151 181 182
f 151 182 152
f 152 182 183
f 152 183 153
f 153 183 184
f 153 184 169
f 153 169 154
f 155 185 186
f 155 186 156
f 155 159 193
f 155 193 185
f 156 186 187
f 156 187 157
f 157 187 198
f 157 198 165
f 158 160 188
f 158 188 189
f 158 189 190
f 158 190 191
f 158 191 192
f 158 192 159
f 159 192 216
f 159 216 193
f 160 164 188
f 161 172 162
f 162 172 171
f 162 171 194
f 162 194 163
f 163 194 164
f 164 194 195
f 164 195 196
f 164 196 197
f 164 197 188
f 165 198 166
f 166 198 199
f 167 168 200
f 168 170 200
f 169 201 170
f 169 184 201
f 170 201 200
f 171 176 204
f 171 204 194
f 173 200 202
f 173 202 174
f 174 202 175
f 175 202 203
f 175 203 204
f 175 204 176
f 178 180 205
f 178 205 206
f 178 206 207
f 178 207 208
f 178 208 209
f 178 209 181
f 178 181 179
f 181 209 202
f 181 202 210
f 181 210 211
f 181 211 182
f 182 211 183
f 183 211 184
f 184 211 210
f 184 210 201
f 185 208 186
f 185 193 208
f 186 208 187
f 187 208 207
f 187 207 198
f 188 212 213
f 188 213 189
f 188 197 220
f 188 220 212
f 189 213 214
f 189 214 190
f 190 214 191
f 191 215 216
f 191 216 192
f 191 214 215
f 193 216 217
f 193 217 208
f 194 204 218
f 194 218 195
f 195 218 219
f 195 219 196
f 196 219 220
f 196 220 197
f 198 207 199
f 199 207 221
f 200 201 210
f 200 210 202
f 202 222 203
f 202 209 223
f 202 223 222
f 203 218 204
f 203 222 218
f 206 224 207
f 207 224 221
f 208 217 209
f 209 217 223
f 212 217 213
f 212 220 222
f 212 222 217
f 213 217 214
f 214 217 215
f 215 217 216
f 217 222 223
f 218 222 219
f 219 222 220

