# https://github.com/mikedh/trimesh
v 0.25824887 -0.13097154 0.00499916
v 0.25824887 -0.13097154 0.00488375
v 0.25824887 -0.13463628 0.01518296
v 0.46479523 -0.13521093 0.02363561
v 0.47478023 -0.13521093 0.02348327
v 0.47498494 -0.13521093 0.02345095
v 0.48442405 -0.13521093 0.02166440
v 0.48469698 -0.13521093 0.02159977
v 0.48892754 -0.13521093 0.01687718
v 0.48949617 -0.13521093 0.01499831
v 0.49008754 -0.13521093 0.01006798
v 0.49058792 -0.13521093 0.00499916
v 0.25824887 -0.13097739 -0.00499536
v 0.49058792 -0.13521093 -0.00499998
v 0.25824887 -0.13905746 0.02049645
v 0.36501339 -0.17499550 0.02361714
v 0.41500664 -0.16499218 0.02362176
v 0.44498444 -0.15500647 0.02362637
v 0.46497717 -0.14500314 0.02352020
v 0.25824887 -0.14497969 0.02222760
v 0.25824887 -0.15500647 0.02350635
v 0.28501958 -0.16499805 0.02356174
v 0.33501285 -0.17499550 0.02361252
v 0.36439925 -0.17499550 0.02361714
v 0.47523513 -0.14523768 0.02196447
v 0.48160368 -0.14205375 0.02100887
v 0.48808599 -0.13733941 0.01499831
v 0.48308212 -0.14380696 0.01499831
v 0.48876834 -0.13815445 0.00499916
v 0.25824887 -0.13099499 -0.00505999
v 0.48942792 -0.13521093 -0.01499912
v 0.48465151 -0.13521093 -0.02153595
v 0.47498494 -0.13521093 -0.02334558
v 0.46497717 -0.13521093 -0.02352563
v 0.48876834 -0.13815445 -0.00499998
v 0.37499839 -0.17499550 0.02360791
v 0.36439925 -0.17557013 0.02350635
v 0.42499167 -0.16499218 0.02359406
v 0.45499218 -0.15500647 0.02329861
v 0.43497667 -0.16499218 0.02333554
v 0.46490896 -0.15510029 0.02183059
v 0.25824887 -0.16508013 0.02199217
v 0.26500410 -0.16499805 0.02290621
v 0.27501184 -0.16499805 0.02352481
v 0.32500511 -0.17499550 0.02359867
v 0.34499788 -0.18428345 0.02179366
v 0.35500562 -0.18432450 0.02179366
v 0.47207358 -0.15184012 0.02105503
v 0.47882882 -0.14880276 0.01499831
v 0.47955665 -0.14956504 0.00499916
v 0.48376447 -0.14456338 0.00499916
v 0.25824887 -0.13466561 -0.01517916
v 0.48804051 -0.13730423 -0.01499912
v 0.48155820 -0.14200684 -0.02097275
v 0.47521240 -0.14520252 -0.02190065
v 0.46497717 -0.14500314 -0.02341483
v 0.44498444 -0.15500647 -0.02351639
v 0.36501339 -0.17499550 -0.02351177
v 0.36439925 -0.17499550 -0.02351177
v 0.33501285 -0.17499550 -0.02350716
v 0.28501958 -0.16499805 -0.02346100
v 0.25824887 -0.15500647 -0.02340560
v 0.25824887 -0.14825745 -0.02281931
v 0.25824887 -0.14498556 -0.02215917
v 0.25824887 -0.14057025 -0.02100968
v 0.25824887 -0.13909262 -0.02046956
v 0.25824887 -0.13681169 -0.01804595
v 0.48376447 -0.14455751 -0.00499998
v 0.48303664 -0.14377180 -0.01499912
v 0.38498339 -0.17499550 0.02357098
v 0.39499116 -0.17499550 0.02345557
v 0.44550756 -0.16564304 0.02195062
v 0.45499218 -0.16280505 0.02147513
v 0.40499890 -0.17499550 0.02312780
v 0.41500664 -0.17499550 0.02237533
v 0.43497667 -0.17224547 0.02150744
v 0.46151996 -0.16099906 0.02078728
v 0.25824887 -0.16910844 0.02066725
v 0.26500410 -0.17138352 0.02107812
v 0.27501184 -0.17302532 0.02169210
v 0.29500461 -0.17499550 0.02290621
v 0.30501235 -0.17499550 0.02339094
v 0.31499735 -0.17499550 0.02355251
v 0.33501285 -0.18393163 0.02178904
v 0.34499788 -0.18927924 0.01782816
v 0.35500562 -0.18932615 0.01798512
v 0.36439925 -0.18400785 0.02179366
v 0.46802500 -0.15843667 0.01499831
v 0.47382495 -0.15343502 0.01499831
v 0.47955665 -0.14955917 -0.00499998
v 0.47457552 -0.15413865 0.00499916
v 0.47878334 -0.14876759 -0.01499912
v 0.47202811 -0.15179321 -0.02101891
v 0.46488619 -0.15508269 -0.02176677
v 0.45499218 -0.15500647 -0.02319324
v 0.43497667 -0.16499218 -0.02323017
v 0.42499167 -0.16499218 -0.02348869
v 0.41500664 -0.16499218 -0.02351177
v 0.37499839 -0.17499550 -0.02349793
v 0.35500562 -0.18424240 -0.02174369
v 0.34499788 -0.18420723 -0.02174369
v 0.32500511 -0.17499550 -0.02349331
v 0.27501184 -0.16499805 -0.02341945
v 0.25824887 -0.15825489 -0.02324402
v 0.36501339 -0.18399027 0.02178904
v 0.37499839 -0.18344495 0.02177058
v 0.38498339 -0.18286446 0.02173365
v 0.39499116 -0.18223706 0.02161824
v 0.44252798 -0.17100824 0.02086115
v 0.40499890 -0.18151583 0.02129509
v 0.41500664 -0.18058351 0.02056108
v 0.42014700 -0.18003234 0.02003942
v 0.44919223 -0.16940162 0.01814670
v 0.46302113 -0.16204280 0.01499831
v 0.25824887 -0.17075610 0.01695566
v 0.25913590 -0.17036912 0.02036719
v 0.28822660 -0.18046623 0.02047798
v 0.29500461 -0.18121092 0.02107812
v 0.30501235 -0.18205528 0.02155361
v 0.31499735 -0.18272960 0.02171518
v 0.32500511 -0.18338633 0.02177058
v 0.34499788 -0.19039333 0.01283321
v 0.33501285 -0.18893915 0.01628628
v 0.33501285 -0.19017051 0.01129133
v 0.35500562 -0.19041678 0.01299017
v 0.36501339 -0.19020569 0.01152677
v 0.36439925 -0.18900952 0.01661867
v 0.46882105 -0.15914030 0.00499916
v 0.47455278 -0.15413865 -0.00499998
v 0.47380221 -0.15339983 -0.01499912
v 0.46882105 -0.15914030 -0.00499998
v 0.46800226 -0.15840149 -0.01499912
v 0.46147448 -0.16096975 -0.02075578
v 0.45499218 -0.16274643 -0.02142054
v 0.44546205 -0.16560787 -0.02188680
v 0.43497667 -0.17219269 -0.02145286
v 0.41500664 -0.17499550 -0.02227919
v 0.40499890 -0.17499550 -0.02302244
v 0.39499116 -0.17499550 -0.02334558
v 0.38498339 -0.17499550 -0.02346100
v 0.35500562 -0.18924993 -0.01786591
v 0.36439925 -0.18393163 -0.02173907
v 0.34499788 -0.18920888 -0.01771357
v 0.33501285 -0.18386127 -0.02173446
v 0.31499735 -0.17499550 -0.02344714
v 0.30501235 -0.17499550 -0.02328557
v 0.29500461 -0.17499550 -0.02280547
v 0.26500410 -0.16499805 -0.02280547
v 0.25824887 -0.16506842 -0.02192373
v 0.36501339 -0.18898606 0.01652634
v 0.38498339 -0.18710971 0.01499831
v 0.39499116 -0.18574348 0.01499831
v 0.42155719 -0.18044865 0.01499831
v 0.43497667 -0.17571673 0.01499831
v 0.44550756 -0.17176464 0.01488751
v 0.40499890 -0.18407822 0.01499831
v 0.41500664 -0.18203183 0.01499831
v 0.45042044 -0.17022252 0.01148060
v 0.45424157 -0.16727899 0.01488751
v 0.46381718 -0.16261156 0.00499916
v 0.25824887 -0.17117828 0.01499369
v 0.26500410 -0.17383450 0.01499369
v 0.28156236 -0.17921729 0.01726496
v 0.28492862 -0.18094707 0.01435663
v 0.29500461 -0.18338633 0.01499369
v 0.30501235 -0.18530959 0.01499369
v 0.31499735 -0.18681653 0.01499369
v 0.34499788 -0.19082138 0.00499916
v 0.35500562 -0.19087414 0.00499916
v 0.32589215 -0.18850525 0.01407964
v 0.32982704 -0.19001806 0.01014184
v 0.37035844 -0.19002393 0.01024340
v 0.36439925 -0.19048128 0.00499916
v 0.46381718 -0.16261156 -0.00499998
v 0.46299839 -0.16202520 -0.01499912
v 0.44912398 -0.16935471 -0.01808750
v 0.44245973 -0.17098479 -0.02082502
v 0.42005602 -0.18000889 -0.02001715
v 0.41500664 -0.18054834 -0.02052034
v 0.40499890 -0.18146892 -0.02124512
v 0.39499116 -0.18218428 -0.02156365
v 0.38498339 -0.18279997 -0.02167906
v 0.37499839 -0.18337458 -0.02171599
v 0.36501339 -0.18391404 -0.02173446
v 0.35500562 -0.19041678 -0.01286634
v 0.34499788 -0.19039333 -0.01271400
v 0.36439925 -0.18893915 -0.01654561
v 0.36439925 -0.19014706 -0.01185996
v 0.33501285 -0.19017051 -0.01123213
v 0.33501285 -0.18886879 -0.01623170
v 0.29500461 -0.18116401 -0.02102815
v 0.30501235 -0.18200251 -0.02150364
v 0.31499735 -0.18267095 -0.02166521
v 0.32500511 -0.18331596 -0.02171599
v 0.27501184 -0.17297256 -0.02164213
v 0.26500410 -0.17133661 -0.02102815
v 0.25824887 -0.16689786 -0.02141131
v 0.37422505 -0.18858147 0.01414427
v 0.38498339 -0.18853456 0.00499916
v 0.39499116 -0.18703347 0.00499916
v 0.42296737 -0.18085910 0.00499916
v 0.42794850 -0.17939907 0.00499916
v 0.43497667 -0.17697740 0.00499916
v 0.41500664 -0.18293482 0.00499916
v 0.40499890 -0.18515712 0.00499916
v 0.45067066 -0.17035152 0.00499916
v 0.45567453 -0.16760735 0.00499916
v 0.44498444 -0.17293151 0.00499916
v 0.25824887 -0.17206955 0.00499916
v 0.26500410 -0.17492513 0.00499916
v 0.27976552 -0.18007925 0.01059887
v 0.29500461 -0.18437727 0.00499916
v 0.30501235 -0.18653508 0.00499916
v 0.31499735 -0.18821794 0.00499916
v 0.34499788 -0.19082138 -0.00499536
v 0.33501285 -0.19038160 0.00499916
v 0.35500562 -0.19086829 -0.00499536
v 0.36501339 -0.19045196 -0.00499998
v 0.32457295 -0.18949033 0.00499916
v 0.32957685 -0.19004738 0.00499916
v 0.36501339 -0.19045196 0.00499916
v 0.37072235 -0.19006497 0.00499916
v 0.37570348 -0.18958415 0.00499916
v 0.45567453 -0.16760735 -0.00499998
v 0.45042044 -0.17022252 -0.01142140
v 0.45424157 -0.16722623 -0.01485139
v 0.44546205 -0.17174706 -0.01485139
v 0.41500664 -0.18199664 -0.01499912
v 0.40499890 -0.18403131 -0.01499912
v 0.39499116 -0.18568486 -0.01499912
v 0.43497667 -0.17566395 -0.01499912
v 0.42148894 -0.18043107 -0.01499912
v 0.38498339 -0.18705107 -0.01499912
v 0.36501339 -0.18890983 -0.01646252
v 0.36501339 -0.19020569 -0.01146295
v 0.32982704 -0.19001806 -0.01012881
v 0.32591492 -0.18844661 -0.01408045
v 0.31499735 -0.18676376 -0.01499912
v 0.28831759 -0.18043692 -0.02044648
v 0.25920415 -0.17034566 -0.02033569
v 0.25824887 -0.16901462 -0.02064960
v 0.38498339 -0.18853456 -0.00499998
v 0.39499116 -0.18703347 -0.00499998
v 0.42296737 -0.18085910 -0.00499998
v 0.42794850 -0.17939907 -0.00499998
v 0.43497667 -0.17697740 -0.00499998
v 0.41500664 -0.18293482 -0.00499998
v 0.40499890 -0.18515712 -0.00499998
v 0.45067066 -0.17035152 -0.00499998
v 0.44498444 -0.17293151 -0.00499998
v 0.25824887 -0.17206955 -0.00499536
v 0.26500410 -0.17492513 -0.00499536
v 0.27457967 -0.17847261 0.00499916
v 0.27958357 -0.18013787 0.00499916
v 0.28501958 -0.18170932 0.00499916
v 0.29500461 -0.18437727 -0.00499536
v 0.30501235 -0.18653508 -0.00499536
v 0.31499735 -0.18821794 -0.00499536
v 0.33501285 -0.19038160 -0.00499536
v 0.37033567 -0.19002393 -0.01023037
v 0.37072235 -0.19005910 -0.00499998
v 0.32457295 -0.18949033 -0.00499536
v 0.32957685 -0.19004151 -0.00499536
v 0.37570348 -0.18958415 -0.00499998
v 0.37420231 -0.18852870 -0.01414047
v 0.30501235 -0.18525681 -0.01499912
v 0.29500461 -0.18333942 -0.01499912
v 0.28499684 -0.18092947 -0.01434359
v 0.28165334 -0.17917039 -0.01723808
v 0.26500410 -0.17378759 -0.01499912
v 0.25824887 -0.17114311 -0.01499912
v 0.25824887 -0.17075610 -0.01675797
v 0.25824887 -0.17006421 -0.01955551
v 0.25824887 -0.17121933 -0.01435744
v 0.27457967 -0.17847261 -0.00499536
v 0.27976552 -0.18007925 -0.01057198
v 0.27958357 -0.18013787 -0.00499536
v 0.28501958 -0.18170932 -0.00499536
f 1 2 13
f 1 13 30
f 1 30 52
f 1 52 67
f 1 67 66
f 1 66 65
f 1 65 64
f 1 64 63
f 1 63 62
f 1 62 104
f 1 104 149
f 1 149 197
f 1 197 241
f 1 241 273
f 1 273 272
f 1 272 271
f 1 271 274
f 1 274 251
f 1 251 209
f 1 209 161
f 1 161 115
f 1 115 78
f 1 78 42
f 1 42 21
f 1 21 20
f 1 20 15
f 1 15 3
f 1 3 4
f 1 4 5
f 1 5 6
f 1 6 7
f 1 7 8
f 1 8 9
f 1 9 10
f 1 10 11
f 1 11 12
f 1 12 14
f 1 14 2
f 2 14 13
f 3 15 4
f 4 16 17
f 4 17 18
f 4 18 19
f 4 19 5
f 4 15 20
f 4 20 21
f 4 21 22
f 4 22 23
f 4 23 24
f 4 24 16
f 5 19 25
f 5 25 6
f 6 25 7
f 7 25 8
f 8 25 26
f 8 26 9
f 9 27 10
f 9 26 28
f 9 28 27
f 10 27 29
f 10 29 11
f 11 29 12
f 12 29 35
f 12 35 14
f 13 14 31
f 13 31 32
f 13 32 33
f 13 33 34
f 13 34 30
f 14 35 31
f 16 36 17
f 16 24 37
f 16 37 36
f 17 36 38
f 17 38 18
f 18 39 19
f 18 38 40
f 18 40 39
f 19 41 25
f 19 39 41
f 21 42 43
f 21 43 44
f 21 44 22
f 22 44 45
f 22 45 23
f 23 45 46
f 23 46 47
f 23 47 37
f 23 37 24
f 25 41 48
f 25 48 26
f 26 48 49
f 26 49 28
f 27 28 29
f 28 49 50
f 28 50 51
f 28 51 29
f 29 51 35
f 30 34 52
f 31 35 53
f 31 53 54
f 31 54 32
f 32 54 55
f 32 55 33
f 33 55 56
f 33 56 34
f 34 56 57
f 34 57 58
f 34 58 59
f 34 59 60
f 34 60 61
f 34 61 62
f 34 62 63
f 34 63 64
f 34 64 65
f 34 65 66
f 34 66 67
f 34 67 52
f 35 51 68
f 35 68 69
f 35 69 53
f 36 70 38
f 36 37 47
f 36 47 70
f 38 70 71
f 38 71 40
f 39 40 72
f 39 72 73
f 39 73 41
f 40 71 74
f 40 74 75
f 40 75 76
f 40 76 72
f 41 73 77
f 41 77 48
f 42 78 79
f 42 79 43
f 43 79 80
f 43 80 81
f 43 81 44
f 44 81 82
f 44 82 83
f 44 83 45
f 45 83 46
f 46 83 84
f 46 84 85
f 46 85 86
f 46 86 47
f 47 86 87
f 47 87 70
f 48 77 88
f 48 88 89
f 48 89 49
f 49 89 50
f 50 90 68
f 50 68 51
f 50 89 91
f 50 91 90
f 53 69 54
f 54 69 92
f 54 92 93
f 54 93 55
f 55 93 94
f 55 94 56
f 56 94 95
f 56 95 57
f 57 95 96
f 57 96 97
f 57 97 98
f 57 98 58
f 58 98 99
f 58 99 100
f 58 100 59
f 59 100 60
f 60 100 101
f 60 101 102
f 60 102 61
f 61 102 103
f 61 103 62
f 62 103 104
f 68 90 69
f 69 90 92
f 70 87 71
f 71 87 105
f 71 105 106
f 71 106 107
f 71 107 108
f 71 108 74
f 72 109 73
f 72 76 109
f 73 109 77
f 74 108 110
f 74 110 75
f 75 110 76
f 76 110 111
f 76 111 112
f 76 112 109
f 77 109 113
f 77 113 114
f 77 114 88
f 78 115 116
f 78 116 79
f 79 116 117
f 79 117 118
f 79 118 80
f 80 118 81
f 81 118 119
f 81 119 82
f 82 120 121
f 82 121 83
f 82 119 120
f 83 121 84
f 84 121 85
f 85 122 86
f 85 121 120
f 85 120 119
f 85 119 118
f 85 118 123
f 85 123 124
f 85 124 122
f 86 122 125
f 86 125 126
f 86 126 127
f 86 127 110
f 86 110 108
f 86 108 107
f 86 107 106
f 86 106 105
f 86 105 87
f 88 128 89
f 88 114 128
f 89 128 91
f 90 91 129
f 90 129 130
f 90 130 92
f 91 128 131
f 91 131 129
f 92 130 93
f 93 130 132
f 93 132 133
f 93 133 94
f 94 133 134
f 94 134 95
f 95 134 135
f 95 135 96
f 96 136 137
f 96 137 138
f 96 138 139
f 96 139 97
f 96 135 136
f 97 139 140
f 97 140 99
f 97 99 98
f 99 140 100
f 100 141 101
f 100 140 142
f 100 142 141
f 101 141 143
f 101 143 144
f 101 144 145
f 101 145 102
f 102 145 103
f 103 145 146
f 103 146 147
f 103 147 148
f 103 148 104
f 104 148 149
f 109 112 113
f 110 127 150
f 110 150 111
f 111 150 151
f 111 151 152
f 111 152 112
f 112 153 154
f 112 154 155
f 112 155 113
f 112 152 156
f 112 156 157
f 112 157 153
f 113 155 158
f 113 158 159
f 113 159 114
f 114 159 158
f 114 158 160
f 114 160 128
f 115 161 162
f 115 162 116
f 116 162 163
f 116 163 117
f 117 163 164
f 117 164 165
f 117 165 166
f 117 166 167
f 117 167 118
f 118 167 123
f 122 168 169
f 122 169 125
f 122 124 168
f 123 170 171
f 123 171 124
f 123 167 170
f 124 171 168
f 125 169 126
f 126 172 150
f 126 150 127
f 126 169 173
f 126 173 172
f 128 160 174
f 128 174 131
f 129 131 130
f 130 131 132
f 131 174 175
f 131 175 132
f 132 175 133
f 133 175 176
f 133 176 177
f 133 177 134
f 134 177 135
f 135 177 136
f 136 178 179
f 136 179 180
f 136 180 137
f 136 177 178
f 137 180 138
f 138 180 181
f 138 181 139
f 139 181 182
f 139 182 183
f 139 183 184
f 139 184 142
f 139 142 140
f 141 185 186
f 141 186 143
f 141 142 184
f 141 184 183
f 141 183 182
f 141 182 181
f 141 181 180
f 141 180 187
f 141 187 188
f 141 188 185
f 143 186 189
f 143 189 190
f 143 190 191
f 143 191 192
f 143 192 193
f 143 193 194
f 143 194 144
f 144 194 145
f 145 194 146
f 146 194 193
f 146 193 192
f 146 192 147
f 147 192 191
f 147 191 195
f 147 195 148
f 148 196 197
f 148 197 149
f 148 195 196
f 150 172 198
f 150 198 151
f 151 198 172
f 151 172 152
f 152 172 199
f 152 199 200
f 152 200 156
f 153 201 202
f 153 202 203
f 153 203 154
f 153 157 204
f 153 204 201
f 154 203 155
f 155 203 158
f 156 205 157
f 156 200 205
f 157 205 204
f 158 206 207
f 158 207 160
f 158 203 208
f 158 208 206
f 160 207 224
f 160 224 174
f 161 209 210
f 161 210 162
f 162 210 211
f 162 211 163
f 163 211 164
f 164 211 165
f 165 211 212
f 165 212 213
f 165 213 166
f 166 213 214
f 166 214 171
f 166 171 167
f 167 171 170
f 168 215 169
f 168 171 216
f 168 216 259
f 168 259 215
f 169 215 217
f 169 217 218
f 169 218 173
f 171 214 219
f 171 219 220
f 171 220 216
f 172 173 221
f 172 221 222
f 172 222 223
f 172 223 199
f 173 218 221
f 174 224 225
f 174 225 175
f 175 225 226
f 175 226 176
f 176 225 227
f 176 227 178
f 176 178 177
f 176 226 225
f 178 228 229
f 178 229 230
f 178 230 179
f 178 227 231
f 178 231 232
f 178 232 228
f 179 230 233
f 179 233 234
f 179 234 180
f 180 234 187
f 185 217 186
f 185 188 235
f 185 235 217
f 186 217 215
f 186 215 189
f 187 234 235
f 187 235 188
f 189 236 190
f 189 215 236
f 190 236 237
f 190 237 238
f 190 238 191
f 191 238 239
f 191 239 196
f 191 196 195
f 196 240 241
f 196 241 197
f 196 239 240
f 199 223 264
f 199 264 242
f 199 242 243
f 199 243 200
f 200 243 248
f 200 248 205
f 201 244 245
f 201 245 202
f 201 204 247
f 201 247 244
f 202 245 246
f 202 246 203
f 203 246 250
f 203 250 208
f 204 205 248
f 204 248 247
f 206 208 250
f 206 250 249
f 206 249 224
f 206 224 207
f 209 251 252
f 209 252 210
f 210 252 275
f 210 275 253
f 210 253 211
f 211 254 255
f 211 255 212
f 211 253 254
f 212 256 257
f 212 257 213
f 212 255 278
f 212 278 256
f 213 257 258
f 213 258 214
f 214 258 262
f 214 262 219
f 215 259 236
f 216 220 259
f 217 235 218
f 218 235 260
f 218 260 261
f 218 261 222
f 218 222 221
f 219 262 220
f 220 262 263
f 220 263 259
f 222 261 264
f 222 264 223
f 224 249 225
f 225 250 246
f 225 246 227
f 225 249 250
f 227 246 231
f 228 232 247
f 228 247 248
f 228 248 229
f 229 248 243
f 229 243 230
f 230 243 242
f 230 242 260
f 230 260 233
f 231 246 232
f 232 246 245
f 232 245 244
f 232 244 247
f 233 260 265
f 233 265 234
f 234 265 260
f 234 260 235
f 236 263 262
f 236 262 258
f 236 258 266
f 236 266 238
f 236 238 237
f 236 259 263
f 238 266 239
f 239 266 267
f 239 267 268
f 239 268 269
f 239 269 240
f 240 269 270
f 240 270 271
f 240 271 272
f 240 272 273
f 240 273 241
f 242 264 260
f 251 274 252
f 252 274 276
f 252 276 275
f 253 275 277
f 253 277 254
f 254 277 278
f 254 278 255
f 256 278 276
f 256 276 267
f 256 267 257
f 257 267 266
f 257 266 258
f 260 264 261
f 267 276 268
f 268 276 269
f 269 276 270
f 270 274 271
f 270 276 274
f 275 276 277
f 276 278 277

