# https://github.com/mikedh/trimesh
v 0.50135708 0.06416459 -0.00499802
v 0.50133324 0.06416459 0.00584040
v 0.50002307 0.05992459 0.00499885
v 0.50002307 0.05991836 -0.00499802
v 0.49999925 0.05998062 -0.01005194
v 0.50073773 0.06416459 -0.01333491
v 0.50071388 0.06416459 0.01329875
v 0.49999925 0.05998062 0.01004815
v 0.49759328 0.05491877 0.00499885
v 0.49759328 0.05491877 -0.00499802
v 0.49259081 0.04606519 -0.00499802
v 0.49201909 0.04687458 -0.01499951
v 0.49704540 0.05598966 -0.01402849
v 0.49907023 0.06174885 -0.01671960
v 0.50040424 0.06416459 -0.01474982
v 0.50033271 0.06416459 0.01479689
v 0.49902257 0.06182979 0.01671581
v 0.49699774 0.05598966 0.01402932
v 0.49199528 0.04691194 0.01499572
v 0.49259081 0.04606519 0.00499885
v 0.48916054 0.04106559 -0.00499802
v 0.48844588 0.04186876 -0.01499951
v 0.49097097 0.04842489 -0.02079326
v 0.49254316 0.05499971 -0.02145910
v 0.49518734 0.06416459 -0.02166717
v 0.49640220 0.06416459 -0.02035398
v 0.49949899 0.06416459 0.01801050
v 0.49094713 0.04847470 0.02075710
v 0.48839825 0.04190612 0.01499572
v 0.48916054 0.04106559 0.00499885
v 0.48415804 0.03553054 -0.00499802
v 0.48344341 0.03628391 -0.01499951
v 0.48182356 0.03800855 -0.02102445
v 0.48508710 0.04505655 -0.02181051
v 0.48499179 0.05499971 -0.02327629
v 0.48499179 0.06416459 -0.02357222
v 0.49513969 0.06416459 0.02160327
v 0.49247169 0.05499971 0.02140906
v 0.48506325 0.04508146 0.02174661
v 0.48177591 0.03805213 0.02098829
v 0.48339576 0.03632127 0.01499572
v 0.48415804 0.03553677 0.00499885
v 0.47934613 0.03053718 0.00499885
v 0.47934613 0.03053718 -0.00499802
v 0.47853619 0.03129054 -0.01499951
v 0.47184241 0.02873782 -0.02089961
v 0.47510594 0.03480209 -0.02187987
v 0.47498682 0.04499429 -0.02348899
v 0.47498682 0.05499971 -0.02364620
v 0.47498682 0.06416459 -0.02362770
v 0.49444887 0.06416459 0.02176511
v 0.48499179 0.05499971 0.02316615
v 0.47498682 0.04499429 0.02337885
v 0.47508210 0.03483322 0.02181597
v 0.47851238 0.03132790 0.01499572
v 0.47179475 0.02876895 0.02086807
v 0.47350991 0.02752995 0.01499572
v 0.47434366 0.02688243 0.00499885
v 0.47434366 0.02688243 -0.00499802
v 0.47355753 0.02750504 -0.01499951
v 0.45926473 0.02044459 -0.01872175
v 0.45259476 0.01926162 -0.02070078
v 0.46498185 0.02688243 -0.02156082
v 0.46498185 0.03499510 -0.02337801
v 0.45497689 0.03499510 -0.02362308
v 0.46498185 0.04499429 -0.02365083
v 0.35502249 0.03499510 -0.02367394
v 0.46498185 0.06416459 -0.02293874
v 0.34501752 0.03499510 -0.02366932
v 0.25802195 0.04499429 -0.02348436
v 0.25802195 0.05120175 -0.02219892
v 0.25802195 0.05361750 -0.02164868
v 0.25802195 0.05711660 -0.01962341
v 0.25802195 0.05861710 -0.01846281
v 0.25802195 0.06161810 -0.01346438
v 0.48499179 0.06416459 0.02346208
v 0.48415804 0.06416459 0.02348982
v 0.47498682 0.05499971 0.02353606
v 0.46498185 0.04499429 0.02354068
v 0.45497689 0.03499510 0.02351294
v 0.46498185 0.03499510 0.02327250
v 0.46498185 0.02695091 0.02150617
v 0.45249948 0.01928653 0.02066462
v 0.45916945 0.02049440 0.01863935
v 0.46441013 0.02232489 0.01518068
v 0.46069402 0.01969123 0.01197169
v 0.46612528 0.02188283 0.00499885
v 0.46612528 0.02188283 -0.00499802
v 0.46071783 0.01969123 -0.01205871
v 0.46441013 0.02226885 -0.01523533
v 0.45554858 0.01855807 -0.01523533
v 0.44499573 0.01594931 -0.01499951
v 0.37388900 0.00056451 -0.02130651
v 0.36893415 0.00056451 -0.02230065
v 0.36500365 0.00056451 -0.02306821
v 0.44499573 0.01848958 -0.02129263
v 0.45554858 0.02426745 -0.02185213
v 0.44499573 0.02500213 -0.02311445
v 0.43499076 0.02500213 -0.02342888
v 0.44499573 0.03499510 -0.02365545
v 0.35502249 0.00056451 -0.02330403
v 0.36500365 0.01500294 -0.02362308
v 0.35502249 0.01500294 -0.02366932
v 0.45557243 0.06416459 -0.02110768
v 0.25802195 0.06310615 -0.00730534
v 0.25802195 0.06356066 -0.00499802
v 0.25802195 0.04199951 -0.02345200
v 0.47498682 0.06416459 0.02351756
v 0.43499076 0.03499510 0.02354993
v 0.35502249 0.03499510 0.02356380
v 0.44499573 0.03499510 0.02354531
v 0.43499076 0.02500213 0.02332336
v 0.35502249 0.01500294 0.02355918
v 0.35502249 0.00056451 0.02330949
v 0.44499573 0.02500213 0.02300894
v 0.45550096 0.02429858 0.02178822
v 0.44499573 0.01853317 0.02123798
v 0.36500365 0.00056451 0.02308292
v 0.36962497 0.00056451 0.02217201
v 0.37388900 0.00056451 0.02132583
v 0.44499573 0.01599912 0.01499572
v 0.45550096 0.01857675 0.01518068
v 0.46112281 0.01951067 0.00499885
v 0.45497689 0.01746227 0.00499885
v 0.46112281 0.01951067 -0.00499802
v 0.45497689 0.01746227 -0.00499802
v 0.44499573 0.01488464 -0.00499802
v 0.37786716 0.00056451 -0.01548039
v 0.34944829 0.00056451 -0.02316532
v 0.25802195 0.03499510 -0.02329478
v 0.45526275 0.06416459 -0.02103370
v 0.25802195 0.06352953 0.00499885
v 0.44728258 0.06416459 0.01492174
v 0.44637740 0.06416459 0.01378888
v 0.44204190 0.06416459 0.00830494
v 0.44070789 0.06416459 0.00529478
v 0.44070789 0.06416459 -0.00529395
v 0.44725877 0.06416459 -0.01492090
v 0.47415307 0.06416459 0.02350832
v 0.25802195 0.04499429 0.02334648
v 0.34501752 0.03499510 0.02355918
v 0.36057287 0.00056451 0.02318464
v 0.33501256 0.03499510 0.02353606
v 0.25802195 0.03499510 0.02318927
v 0.34501752 0.00056451 0.02304593
v 0.37677139 0.00056451 0.01801512
v 0.44499573 0.01488464 0.00499885
v 0.37862945 0.00056451 -0.00499802
v 0.37843889 0.00056451 -0.00890984
v 0.34501752 0.00056451 -0.02305434
v 0.25802195 0.03297783 -0.02274454
v 0.25802195 0.06158697 0.01329412
v 0.46414810 0.06416459 0.02279161
v 0.45540568 0.06416459 0.02103915
v 0.45528656 0.06416459 0.02100216
v 0.45054612 0.06416459 0.01769145
v 0.25802195 0.05936424 0.01679442
v 0.25802195 0.05839296 0.01829256
v 0.25802195 0.05339336 0.02157090
v 0.25802195 0.02823973 0.02140906
v 0.33787113 0.00056451 0.02139520
v 0.25802195 0.00769344 0.01141220
v 0.37786716 0.00056451 0.01546273
v 0.37862945 0.00056451 0.00499885
v 0.33784729 0.00056451 -0.02140361
v 0.25802195 0.02827086 -0.02145910
v 0.33310685 0.00056451 0.01498185
v 0.25802195 0.00538354 0.00692239
v 0.25802195 0.00442472 0.00499885
v 0.33324978 0.00056451 -0.01499951
v 0.25802195 0.00673462 -0.00276467
v 0.33179668 0.00056451 0.01055215
v 0.33034357 0.00056451 0.00499885
v 0.33155847 0.00056451 -0.00932136
v 0.33046269 0.00056451 -0.00507662
v 0.33034357 0.00056451 0.00499423
f 1 2 3
f 1 3 4
f 1 4 5
f 1 5 6
f 1 6 15
f 1 15 26
f 1 26 25
f 1 25 36
f 1 36 50
f 1 50 68
f 1 68 104
f 1 104 131
f 1 131 138
f 1 138 137
f 1 137 136
f 1 136 135
f 1 135 134
f 1 134 133
f 1 133 156
f 1 156 155
f 1 155 154
f 1 154 153
f 1 153 139
f 1 139 108
f 1 108 77
f 1 77 76
f 1 76 51
f 1 51 37
f 1 37 27
f 1 27 16
f 1 16 7
f 1 7 2
f 2 7 8
f 2 8 3
f 3 8 9
f 3 9 4
f 4 9 10
f 4 10 5
f 5 10 11
f 5 11 12
f 5 12 13
f 5 13 14
f 5 14 6
f 6 14 15
f 7 16 17
f 7 17 8
f 8 17 18
f 8 18 19
f 8 19 20
f 8 20 9
f 9 20 11
f 9 11 10
f 11 20 30
f 11 30 21
f 11 21 12
f 12 21 22
f 12 22 23
f 12 23 13
f 13 23 14
f 14 23 24
f 14 24 25
f 14 25 26
f 14 26 15
f 16 27 17
f 17 27 28
f 17 28 18
f 18 28 19
f 19 28 29
f 19 29 30
f 19 30 20
f 21 30 31
f 21 31 32
f 21 32 22
f 22 32 33
f 22 33 23
f 23 33 34
f 23 34 24
f 24 34 35
f 24 35 25
f 25 35 36
f 27 37 38
f 27 38 28
f 28 38 39
f 28 39 40
f 28 40 29
f 29 40 41
f 29 41 30
f 30 41 42
f 30 42 31
f 31 42 43
f 31 43 44
f 31 44 32
f 32 44 45
f 32 45 33
f 33 45 46
f 33 46 47
f 33 47 34
f 34 47 48
f 34 48 35
f 35 48 36
f 36 48 49
f 36 49 50
f 37 51 52
f 37 52 38
f 38 52 39
f 39 52 53
f 39 53 54
f 39 54 40
f 40 55 41
f 40 54 56
f 40 56 55
f 41 55 43
f 41 43 42
f 43 55 57
f 43 57 58
f 43 58 59
f 43 59 44
f 44 59 60
f 44 60 45
f 45 60 46
f 46 60 61
f 46 61 62
f 46 62 63
f 46 63 47
f 47 63 64
f 47 64 48
f 48 64 65
f 48 65 66
f 48 66 49
f 49 66 67
f 49 67 50
f 50 67 69
f 50 69 70
f 50 70 71
f 50 71 72
f 50 72 73
f 50 73 74
f 50 74 75
f 50 75 68
f 51 76 52
f 52 76 53
f 53 76 77
f 53 77 78
f 53 78 79
f 53 79 80
f 53 80 81
f 53 81 54
f 54 81 82
f 54 82 56
f 55 56 57
f 56 82 83
f 56 83 84
f 56 84 57
f 57 84 85
f 57 85 86
f 57 86 87
f 57 87 58
f 58 87 88
f 58 88 59
f 59 88 60
f 60 88 89
f 60 89 90
f 60 90 61
f 61 90 89
f 61 89 91
f 61 91 62
f 62 92 93
f 62 93 94
f 62 94 95
f 62 95 96
f 62 96 97
f 62 97 63
f 62 91 92
f 63 97 98
f 63 98 64
f 64 98 99
f 64 99 65
f 65 100 66
f 65 99 101
f 65 101 102
f 65 102 103
f 65 103 100
f 66 100 67
f 67 103 69
f 67 100 103
f 68 75 105
f 68 105 106
f 68 106 104
f 69 103 70
f 70 103 107
f 70 107 130
f 70 130 151
f 70 151 166
f 70 166 171
f 70 171 169
f 70 169 168
f 70 168 162
f 70 162 160
f 70 160 144
f 70 144 140
f 70 140 159
f 70 159 158
f 70 158 157
f 70 157 152
f 70 152 132
f 70 132 106
f 70 106 105
f 70 105 75
f 70 75 74
f 70 74 73
f 70 73 72
f 70 72 71
f 77 108 78
f 78 109 79
f 78 108 110
f 78 110 109
f 79 111 80
f 79 109 111
f 80 112 81
f 80 111 113
f 80 113 114
f 80 114 112
f 81 112 115
f 81 115 82
f 82 115 116
f 82 116 83
f 83 117 118
f 83 118 119
f 83 119 120
f 83 120 121
f 83 121 122
f 83 122 84
f 83 116 117
f 84 122 86
f 84 86 85
f 86 123 87
f 86 122 124
f 86 124 123
f 87 123 125
f 87 125 88
f 88 125 89
f 89 125 126
f 89 126 91
f 91 126 127
f 91 127 92
f 92 127 128
f 92 128 93
f 93 128 149
f 93 149 148
f 93 148 164
f 93 164 163
f 93 163 146
f 93 146 120
f 93 120 119
f 93 119 118
f 93 118 142
f 93 142 114
f 93 114 145
f 93 145 161
f 93 161 167
f 93 167 172
f 93 172 173
f 93 173 176
f 93 176 175
f 93 175 174
f 93 174 170
f 93 170 165
f 93 165 150
f 93 150 129
f 93 129 101
f 93 101 95
f 93 95 94
f 95 101 99
f 95 99 98
f 95 98 96
f 96 98 97
f 101 103 102
f 101 129 130
f 101 130 103
f 103 130 107
f 104 106 131
f 106 132 133
f 106 133 134
f 106 134 135
f 106 135 136
f 106 136 137
f 106 137 138
f 106 138 131
f 108 139 140
f 108 140 141
f 108 141 110
f 109 110 113
f 109 113 111
f 110 141 113
f 112 114 142
f 112 142 118
f 112 118 115
f 113 141 143
f 113 143 140
f 113 140 144
f 113 144 114
f 114 144 145
f 115 117 116
f 115 118 117
f 120 146 121
f 121 147 122
f 121 146 147
f 122 147 124
f 123 124 126
f 123 126 125
f 124 147 127
f 124 127 126
f 127 147 164
f 127 164 148
f 127 148 149
f 127 149 128
f 129 150 130
f 130 150 151
f 132 152 153
f 132 153 154
f 132 154 155
f 132 155 156
f 132 156 133
f 139 153 152
f 139 152 157
f 139 157 158
f 139 158 159
f 139 159 140
f 140 143 141
f 144 160 145
f 145 160 162
f 145 162 161
f 146 163 147
f 147 163 164
f 150 165 166
f 150 166 151
f 161 162 168
f 161 168 169
f 161 169 167
f 165 170 169
f 165 169 171
f 165 171 166
f 167 169 172
f 169 173 172
f 169 170 174
f 169 174 175
f 169 175 176
f 169 176 173

