# https://github.com/mikedh/trimesh
v 0.08519796 -0.11100905 -0.41666664
v 0.08519796 -0.11100905 -0.49242421
v 0.05489493 0.19202125 -0.46212119
v -0.08146870 0.19202125 -0.44696967
v -0.14207476 -0.09585753 -0.43181816
v -0.06631719 0.11626367 -0.50757573
v 0.05443615 0.18689374 -0.41589640
v 0.08519796 0.13141519 -0.41666664
v -0.12692325 -0.11100905 -0.47727270
v 0.08519796 0.10111216 -0.50757573
v -0.08146870 0.17686973 -0.47727270
v -0.14207476 -0.09585753 -0.41666664
v -0.06631719 -0.11100905 -0.50757573
v 0.08514405 0.13093829 -0.47317261
v -0.06631719 0.19202125 -0.46212119
v 0.05489493 0.13141519 -0.50757573
v -0.12692325 0.10111216 -0.47727270
v -0.07853911 0.18389873 -0.41495835
v -0.12559076 -0.11089022 -0.41650941
v -0.08146870 -0.03525148 -0.50757573
v 0.07004644 -0.11100905 -0.50757573
v -0.05116567 0.13141519 -0.50757573
v -0.09662022 0.11626367 -0.49242421
v -0.12692325 0.13141519 -0.46212119
v -0.12100823 0.13039271 -0.41547738
v -0.11177173 -0.11100905 -0.49242421
v 0.08519796 0.07080913 -0.50757573
v -0.08146870 0.08596064 -0.50757573
v -0.14207476 -0.06555450 -0.43181816
v -0.11177173 0.02535458 -0.49242421
v -0.14207476 -0.06555450 -0.41666664
f 7 3 4
f 8 1 2
f 8 7 1
f 8 3 7
f 9 2 1
f 10 8 2
f 12 5 9
f 13 2 9
f 13 6 10
f 14 10 3
f 14 3 8
f 14 8 10
f 15 11 4
f 15 4 3
f 15 3 11
f 16 10 6
f 16 11 3
f 16 3 10
f 17 9 5
f 18 1 7
f 18 7 4
f 19 12 9
f 19 9 1
f 19 1 18
f 20 6 13
f 21 13 10
f 21 2 13
f 22 16 6
f 22 6 11
f 22 11 16
f 23 17 11
f 23 11 6
f 24 4 11
f 24 11 17
f 25 19 18
f 25 12 19
f 25 18 4
f 25 4 24
f 26 20 13
f 26 13 9
f 26 9 17
f 27 21 10
f 27 10 2
f 27 2 21
f 28 17 23
f 28 20 26
f 28 23 6
f 28 6 20
f 29 24 17
f 29 17 5
f 29 5 12
f 30 28 26
f 30 26 17
f 30 17 28
f 31 25 24
f 31 24 29
f 31 29 12
f 31 12 25