# https://github.com/mikedh/trimesh
v 0.12506318 -0.11085190 0.08216986
v 0.14580402 -0.11100905 -0.11363635
v 0.14580402 0.08596064 0.02272728
v 0.08519796 0.08596064 0.08333334
v 0.08519796 -0.11100905 -0.09848483
v 0.12596132 0.08593860 0.08225944
v 0.14580402 -0.06555450 0.02272728
v 0.08519796 -0.11100905 0.08333334
v 0.12833866 0.07061699 -0.14388483
v 0.14580402 0.10111216 -0.03787877
v 0.14580402 -0.11100905 -0.06818180
v 0.12897823 0.02538016 -0.15902546
v 0.08519796 -0.00494845 -0.09848483
v 0.12901608 0.10095461 -0.11366886
v 0.12909465 -0.08064332 -0.12888204
v 0.14580402 0.04050610 -0.15909089
v 0.12915855 0.04049832 -0.15898432
v 0.12935435 0.10096611 -0.03794218
v 0.08519796 0.08596064 0.00757577
v 0.12804094 -0.11057166 -0.11290730
v 0.14580402 0.02535458 -0.15909089
v 0.14580402 0.10111216 -0.11363635
v 0.14580402 -0.08070602 -0.12878786
v 0.14580402 0.07080913 -0.14393938
f 7 2 3
f 7 6 1
f 7 3 6
f 8 5 2
f 8 4 5
f 8 6 4
f 8 1 6
f 10 6 3
f 10 4 6
f 10 3 2
f 11 7 1
f 11 2 7
f 11 8 2
f 11 1 8
f 13 5 4
f 13 12 5
f 14 9 13
f 15 5 12
f 16 10 2
f 17 13 9
f 17 12 13
f 17 16 12
f 18 14 4
f 18 4 10
f 19 14 13
f 19 13 4
f 19 4 14
f 20 15 2
f 20 2 5
f 20 5 15
f 21 15 12
f 21 12 16
f 21 16 2
f 22 10 16
f 22 18 10
f 22 14 18
f 23 21 2
f 23 2 15
f 23 15 21
f 24 22 16
f 24 9 14
f 24 14 22
f 24 17 9
f 24 16 17