# https://github.com/mikedh/trimesh
v 0.05489493 0.13141519 0.00757577
v 0.08519796 0.16171821 -0.18939392
v 0.07004644 0.20717276 -0.02272726
v -0.05046913 0.19208150 0.00815182
v -0.08146870 0.13141519 -0.23484847
v 0.08220773 0.18359110 0.00745577
v 0.05489493 0.13141519 -0.18939392
v -0.05116567 0.13141519 0.00757577
v -0.05022165 0.19268079 -0.23382954
v 0.03974342 0.20717276 0.00757577
v 0.08519796 0.16171821 0.00757577
v 0.08240195 0.18568271 -0.18960107
v 0.00944039 0.13141519 -0.23484847
v -0.08146870 0.16171821 -0.18939392
v 0.07004644 0.20717276 -0.18939392
v 0.00960030 0.19345374 -0.23512159
v -0.08146870 0.13141519 -0.18939392
v -0.08146870 0.16171821 -0.23484847
f 7 2 1
f 7 1 5
f 8 5 1
f 8 1 4
f 10 6 3
f 10 9 4
f 11 4 1
f 11 1 2
f 11 10 4
f 11 6 10
f 12 3 6
f 12 11 2
f 12 6 11
f 13 7 5
f 13 2 7
f 14 8 4
f 14 4 9
f 15 10 3
f 15 9 10
f 15 3 12
f 16 13 5
f 16 9 15
f 16 15 12
f 16 12 2
f 16 2 13
f 17 14 5
f 17 5 8
f 17 8 14
f 18 14 9
f 18 5 14
f 18 16 5
f 18 9 16