# https://github.com/mikedh/trimesh
v 0.11550099 -0.18676662 -0.41666664
v 0.13065250 -0.15646359 -0.43181816
v 0.13065250 0.16171821 -0.41666664
v 0.10034947 0.19202125 -0.41666664
v 0.08519796 -0.11100905 -0.49242421
v 0.08112650 0.18231296 -0.41466376
v 0.13065250 -0.15646359 -0.41666664
v 0.10034947 -0.15646359 -0.47727270
v 0.10034947 0.11626367 -0.49242421
v 0.08399881 -0.18386960 -0.41601971
v 0.11550099 -0.18676662 -0.43181816
v 0.11550099 0.14656670 -0.47727270
v 0.10034947 -0.11100905 -0.49242421
v 0.07958587 0.15455427 -0.46838106
v 0.08110284 -0.15206306 -0.46883689
v 0.11550099 -0.14131208 -0.47727270
v 0.10034947 -0.18676662 -0.44696967
v 0.11550099 0.17686973 -0.44696967
v 0.13065250 0.11626367 -0.46212119
v 0.08519796 0.11626367 -0.49242421
v 0.10034947 0.17686973 -0.46212119
v 0.08059277 -0.17606364 -0.44155141
v 0.13065250 0.14656670 -0.44696967
v 0.13065250 -0.11100905 -0.46212119
v 0.10034947 0.16171821 -0.47727270
v 0.07923722 0.16528696 -0.45578135
v 0.10034947 0.19202125 -0.43181816
v 0.13065250 0.16171821 -0.43181816
v 0.13065250 -0.14131208 -0.44696967
v 0.07962019 0.17947992 -0.42719105
f 6 3 4
f 7 1 2
f 7 2 3
f 7 3 6
f 10 7 6
f 10 1 7
f 11 2 1
f 13 8 5
f 13 5 9
f 13 9 12
f 15 5 8
f 15 14 5
f 16 11 8
f 16 2 11
f 16 8 13
f 16 13 12
f 17 8 11
f 17 15 8
f 17 11 1
f 17 1 10
f 18 4 3
f 19 3 2
f 19 16 12
f 20 9 5
f 20 5 14
f 22 10 6
f 22 17 10
f 22 15 17
f 23 19 12
f 23 3 19
f 24 19 2
f 24 16 19
f 25 12 9
f 25 9 20
f 25 20 14
f 25 14 21
f 25 21 18
f 25 18 12
f 26 21 14
f 26 14 15
f 26 15 22
f 27 6 4
f 27 4 18
f 27 18 21
f 27 21 26
f 28 18 3
f 28 3 23
f 28 23 12
f 28 12 18
f 29 24 2
f 29 2 16
f 29 16 24
f 30 26 22
f 30 22 6
f 30 27 26
f 30 6 27