# https://github.com/mikedh/trimesh
v 0.11550099 -0.18676662 0.26515152
v 0.13065250 -0.15646359 0.21969698
v 0.14580402 0.11626367 0.32575758
v 0.08519796 0.19202125 0.31060606
v 0.07887787 -0.17372707 0.19295582
v 0.13065250 0.11626367 0.20454546
v 0.07745003 -0.06385980 0.37769644
v 0.14580402 -0.09585753 0.32575758
v 0.10034947 -0.18676662 0.18939395
v 0.13065250 0.16171821 0.23484849
v 0.08519796 0.11626367 0.18939395
v 0.10034947 0.11626367 0.37121212
v 0.08389867 -0.16535889 0.31790685
v 0.13065250 -0.17161511 0.31060606
v 0.14580402 -0.11100905 0.26515152
v 0.13065250 -0.17161511 0.25000000
v 0.11550099 -0.15646359 0.18939395
v 0.13065250 0.16171821 0.32575758
v 0.14580402 0.11626367 0.26515152
v 0.10034947 0.19202125 0.21969698
v 0.07808614 0.05408047 0.37863439
v 0.10034947 -0.06555450 0.38636364
v 0.07819598 -0.10579100 0.36035526
v 0.08506563 -0.18638443 0.26519227
v 0.13065250 -0.12616056 0.20454546
v 0.14580402 -0.11100905 0.31060606
v 0.11550099 -0.18676662 0.23484849
v 0.10734218 0.11492514 0.19193996
v 0.14580402 0.13141519 0.31060606
v 0.13065250 0.13141519 0.34090909
v 0.11550099 0.17686973 0.32575758
v 0.13065250 0.14656670 0.21969698
v 0.08519796 0.19202125 0.21969698
v 0.08519796 0.11626367 0.37121212
v 0.13065250 -0.12616056 0.34090909
v 0.10034947 0.05565761 0.38636364
v 0.08519796 -0.14131208 0.35606061
v 0.11550099 -0.17161511 0.32575758
v 0.11550099 0.17686973 0.21969698
v 0.14580402 0.13141519 0.28030303
v 0.10034947 0.19202125 0.31060606
v 0.08519796 0.16171821 0.34090909
v 0.13065250 -0.15646359 0.32575758
v 0.11550099 -0.12616056 0.35606061
v 0.10034947 0.16171821 0.34090909
v 0.10034947 -0.11100905 0.37121212
v 0.10034947 -0.14131208 0.35606061
v 0.11550099 -0.15646359 0.34090909
f 11 9 5
f 15 3 8
f 16 9 2
f 16 14 1
f 16 15 14
f 16 2 15
f 17 2 9
f 17 9 11
f 19 15 6
f 19 3 15
f 20 18 10
f 21 5 7
f 22 8 3
f 22 21 7
f 23 7 5
f 23 5 13
f 24 9 1
f 24 13 5
f 24 5 9
f 25 15 2
f 25 6 15
f 25 17 6
f 25 2 17
f 26 15 8
f 26 8 14
f 26 14 15
f 27 16 1
f 27 1 9
f 27 9 16
f 28 17 11
f 28 6 17
f 28 11 20
f 29 18 3
f 29 10 18
f 29 3 19
f 30 18 12
f 30 3 18
f 31 12 18
f 31 18 20
f 32 19 6
f 33 20 11
f 33 4 20
f 33 21 4
f 33 11 5
f 33 5 21
f 35 8 22
f 36 21 22
f 36 34 21
f 36 12 34
f 36 30 12
f 36 22 3
f 36 3 30
f 37 22 7
f 37 7 23
f 37 23 13
f 38 13 24
f 38 37 13
f 38 24 1
f 38 1 14
f 39 28 20
f 39 6 28
f 39 32 6
f 39 20 10
f 39 10 32
f 40 29 19
f 40 10 29
f 40 32 10
f 40 19 32
f 41 31 20
f 41 20 4
f 41 4 31
f 42 4 21
f 42 21 34
f 42 31 4
f 42 34 12
f 43 14 8
f 43 8 35
f 43 38 14
f 44 35 22
f 44 43 35
f 45 42 12
f 45 12 31
f 45 31 42
f 46 44 22
f 46 22 37
f 47 37 38
f 47 46 37
f 47 44 46
f 48 38 43
f 48 43 44
f 48 47 38
f 48 44 47