# https://github.com/mikedh/trimesh
v -0.07951081 -0.18025895 0.22100234
v -0.05074323 -0.19470132 -0.35602367
v -0.05116567 -0.11100905 0.00757577
v -0.10698074 -0.11196972 0.14668216
v -0.12692325 -0.17161511 -0.43181816
v -0.08146870 -0.11100905 0.14393940
v -0.05053421 -0.19337861 0.00785333
v -0.12692325 -0.17161511 0.11363637
v -0.08154124 -0.11067280 -0.47559666
v -0.08146870 -0.15646359 0.21969698
v -0.05116567 -0.11100905 -0.35606058
v -0.14207476 -0.11100905 -0.41666664
v -0.09662022 -0.20191814 0.11363637
v -0.08146870 -0.17161511 -0.47727270
v -0.10516195 -0.10919657 -0.47086197
v -0.10755622 -0.15421558 0.22091723
v -0.14207476 -0.11100905 -0.08333332
v -0.14207476 -0.14131208 -0.34090907
v -0.08146870 -0.20191814 0.11363637
v -0.09662022 -0.20191814 -0.38636361
v -0.11177173 -0.15646359 -0.47727270
v -0.10228336 -0.16414203 0.22302620
v -0.12479901 -0.11077739 0.00764395
v -0.14207476 -0.12616056 -0.41666664
v -0.14207476 -0.12616056 -0.08333332
v -0.11177173 -0.17161511 -0.46212119
v -0.12692325 -0.11100905 -0.46212119
v -0.09001359 -0.17631912 0.22189173
v -0.11177173 -0.18676662 0.12878789
v -0.14207476 -0.14131208 -0.32575755
v -0.11177173 -0.18676662 -0.41666664
v -0.09662022 -0.17161511 -0.47727270
v -0.12692325 -0.14131208 -0.46212119
f 7 3 1
f 10 1 3
f 10 3 6
f 11 7 2
f 11 3 7
f 13 8 5
f 14 11 2
f 14 9 11
f 15 6 3
f 15 11 9
f 15 3 11
f 16 10 6
f 16 6 4
f 17 15 12
f 17 16 4
f 17 8 16
f 18 5 8
f 18 17 12
f 19 7 1
f 19 1 13
f 19 2 7
f 20 13 5
f 20 19 13
f 20 2 19
f 20 14 2
f 21 15 9
f 21 9 14
f 22 1 10
f 22 10 16
f 22 16 8
f 23 17 4
f 23 4 6
f 23 6 15
f 23 15 17
f 24 18 12
f 24 5 18
f 25 8 17
f 25 17 18
f 26 5 21
f 27 12 15
f 27 15 21
f 27 24 12
f 28 13 1
f 28 1 22
f 29 22 8
f 29 8 13
f 29 28 22
f 29 13 28
f 30 25 18
f 30 18 8
f 30 8 25
f 31 26 20
f 31 20 5
f 31 5 26
f 32 14 20
f 32 20 26
f 32 26 21
f 32 21 14
f 33 27 21
f 33 21 5
f 33 5 24
f 33 24 27