# https://github.com/mikedh/trimesh
v 0.08519796 -0.20191814 0.29545455
v 0.11550099 -0.18676662 0.26515152
v 0.08147982 -0.12180746 0.34938249
v -0.14207476 -0.12616056 0.32575758
v -0.08146870 -0.20191814 0.23484849
v 0.08519796 -0.12616056 0.26515152
v -0.05116567 -0.15646359 0.35606061
v 0.11550099 -0.18676662 0.31060606
v 0.10034947 -0.20191814 0.26515152
v -0.08993112 -0.11989176 0.34612694
v -0.08146870 -0.12616056 0.26515152
v -0.05165118 -0.18363070 0.21762815
v -0.08146870 -0.20191814 0.29545455
v 0.10034947 -0.18676662 0.32575758
v 0.10701983 -0.16200964 0.30580790
v 0.10034947 -0.20191814 0.28030303
v -0.09662022 -0.14131208 0.35606061
v -0.08354217 -0.17850694 0.21831455
v -0.12896055 -0.12252474 0.30814581
v 0.11071798 -0.16838189 0.26559182
v -0.14207476 -0.14131208 0.31060606
v -0.08146870 -0.18676662 0.32575758
v 0.08519796 -0.14131208 0.35606061
v -0.12692325 -0.12616056 0.34090909
v -0.08146870 -0.17161511 0.34090909
v -0.11177173 -0.17161511 0.32575758
v 0.05489493 -0.15646359 0.35606061
v -0.11177173 -0.15646359 0.34090909
v -0.14207476 -0.14131208 0.32575758
v 0.08519796 -0.17161511 0.34090909
v -0.12692325 -0.14131208 0.34090909
f 9 1 5
f 9 2 8
f 10 3 6
f 12 9 5
f 12 2 9
f 13 5 1
f 14 1 8
f 14 13 1
f 15 6 3
f 15 3 8
f 16 9 8
f 16 8 1
f 16 1 9
f 17 3 10
f 18 12 5
f 18 11 6
f 18 6 12
f 19 10 6
f 19 6 11
f 19 4 10
f 19 11 18
f 20 12 6
f 20 2 12
f 20 6 15
f 20 15 8
f 20 8 2
f 21 5 13
f 21 18 5
f 21 19 18
f 21 4 19
f 22 14 7
f 22 13 14
f 23 14 8
f 23 8 3
f 23 17 7
f 23 3 17
f 24 17 10
f 24 10 4
f 25 22 7
f 25 7 17
f 26 13 22
f 26 22 25
f 27 23 7
f 27 7 14
f 28 26 25
f 28 25 17
f 29 4 21
f 29 21 13
f 29 13 26
f 29 24 4
f 30 27 14
f 30 14 23
f 30 23 27
f 31 28 17
f 31 17 24
f 31 24 29
f 31 29 26
f 31 26 28