# https://github.com/mikedh/trimesh
v 0.00944039 0.08596064 0.14393940
v 0.13065250 0.16171821 0.05303031
v 0.08519796 0.19202125 0.14393940
v -0.08146870 0.20717276 0.09848486
v -0.05116567 0.08596064 0.00757577
v 0.05489493 0.20717276 0.00757577
v -0.11177173 0.17686973 0.14393940
v 0.09908158 0.13542001 0.14748667
v 0.00944039 0.08596064 0.00757577
v 0.11550099 0.19202125 0.05303031
v 0.07004644 0.20717276 0.09848486
v -0.05046913 0.19208150 0.00815182
v -0.09662022 0.19202125 0.14393940
v -0.10523072 0.08610516 0.14467766
v 0.13065250 0.17686973 0.08333334
v 0.12329626 0.13026349 0.08204439
v 0.08519796 0.16171821 0.00757577
v 0.08220773 0.18359110 0.00745577
v 0.02459190 0.20717276 0.11363637
v 0.08519796 0.20717276 0.05303031
v -0.09662022 0.20717276 0.05303031
v -0.09662022 0.08596064 0.08333334
v 0.11550099 0.19202125 0.08333334
v 0.13065250 0.17686973 0.06818183
v 0.12249324 0.13000255 0.05322507
v -0.05116567 0.20717276 0.11363637
v -0.09662022 0.20717276 0.08333334
v -0.12692325 0.17686973 0.05303031
v 0.08519796 0.20717276 0.08333334
v -0.12692325 0.17686973 0.11363637
v -0.12516596 0.13111293 0.05311363
v -0.11177173 0.19202125 0.11363637
v -0.12692325 0.13141519 0.12878789
v -0.12692325 0.16171821 0.12878789
f 9 1 5
f 11 6 4
f 12 6 5
f 13 8 3
f 13 7 8
f 14 8 7
f 14 1 8
f 15 3 8
f 16 8 1
f 16 1 9
f 16 15 8
f 16 2 15
f 18 9 5
f 18 5 6
f 18 17 9
f 18 6 10
f 18 10 2
f 18 2 17
f 19 11 4
f 19 3 11
f 19 13 3
f 20 10 6
f 20 6 11
f 21 4 6
f 21 6 12
f 22 5 1
f 22 1 14
f 23 15 10
f 23 3 15
f 23 10 20
f 24 15 2
f 24 2 10
f 24 10 15
f 25 16 9
f 25 2 16
f 25 17 2
f 25 9 17
f 26 19 4
f 26 4 13
f 26 13 19
f 27 13 4
f 27 4 21
f 28 21 12
f 28 12 5
f 29 23 20
f 29 20 11
f 29 11 3
f 29 3 23
f 30 7 13
f 31 28 5
f 31 5 22
f 31 22 14
f 32 30 13
f 32 13 27
f 32 28 30
f 32 27 21
f 32 21 28
f 33 14 7
f 33 31 14
f 33 30 28
f 33 28 31
f 34 33 7
f 34 7 30
f 34 30 33