# https://github.com/mikedh/trimesh
v 0.14580402 -0.12616056 -0.28030301
v 0.14580402 -0.12616056 -0.34090907
v 0.14580402 0.08596064 -0.24999998
v 0.00944039 0.08596064 -0.23484847
v 0.00944039 -0.11100905 -0.23484847
v 0.00944039 0.08596064 -0.41666664
v 0.12824268 -0.12570162 -0.33998678
v 0.12753163 -0.11084452 -0.23493307
v 0.12453228 0.08588581 -0.41575418
v 0.12769979 -0.12548327 -0.28031273
v 0.00944039 -0.11100905 -0.41666664
v 0.14580402 -0.05040299 -0.23484847
v 0.14580402 0.08596064 -0.35606058
v 0.12285591 -0.11042097 -0.41539219
v 0.14580402 -0.09585753 -0.24999998
v 0.12760014 0.08573470 -0.23512316
v 0.14580402 -0.09585753 -0.35606058
v 0.14580402 0.05565761 -0.23484847
f 1 2 3
f 6 4 3
f 6 5 4
f 7 2 1
f 8 5 1
f 10 7 1
f 10 1 5
f 10 5 7
f 11 2 7
f 11 6 9
f 11 7 5
f 11 5 6
f 12 1 3
f 12 4 5
f 12 5 8
f 13 9 6
f 13 6 3
f 13 3 2
f 14 11 9
f 14 2 11
f 15 12 8
f 15 8 1
f 15 1 12
f 16 3 4
f 17 13 2
f 17 2 14
f 17 14 9
f 17 9 13
f 18 12 3
f 18 3 16
f 18 16 4
f 18 4 12