# https://github.com/mikedh/trimesh
v 0.12596132 0.08593860 0.08225944
v 0.14580402 0.08596064 -0.35606058
v 0.13065250 0.16171821 0.05303031
v 0.08338537 0.18747125 0.05401646
v 0.08519796 0.08596064 -0.41666664
v 0.11550099 0.19202125 -0.40151513
v 0.12329626 0.13026349 0.08204439
v 0.14580402 0.08596064 -0.24999998
v 0.12453228 0.08588581 -0.41575418
v 0.08519796 0.08596064 0.08333334
v 0.14580402 0.13141519 -0.34090907
v 0.11550099 0.19202125 -0.08333332
v 0.08112650 0.18231296 -0.41466376
v 0.09379904 0.18232984 0.05568108
v 0.08519796 0.13141519 0.08333334
v 0.13065250 0.16171821 -0.41666664
v 0.14580402 0.13141519 -0.31060604
v 0.10034947 0.19202125 -0.41666664
v 0.13065250 0.17686973 -0.32575755
v 0.14580402 0.11626367 -0.35606058
v 0.14580402 0.10111216 -0.24999998
v 0.13065250 0.17686973 -0.35606058
f 7 1 3
f 8 3 1
f 9 8 1
f 9 2 8
f 10 9 1
f 10 5 9
f 11 8 2
f 13 10 4
f 13 5 10
f 14 7 3
f 14 4 7
f 14 12 4
f 14 3 12
f 15 7 4
f 15 4 10
f 15 10 1
f 15 1 7
f 16 9 5
f 16 2 9
f 17 8 11
f 18 12 6
f 18 4 12
f 18 13 4
f 18 6 16
f 18 16 5
f 18 5 13
f 19 6 12
f 19 17 11
f 19 12 3
f 19 3 17
f 20 16 11
f 20 11 2
f 20 2 16
f 21 17 3
f 21 3 8
f 21 8 17
f 22 16 6
f 22 6 19
f 22 19 11
f 22 11 16