# https://github.com/mikedh/trimesh
v 0.10034947 -0.20191814 0.11363637
v 0.13065250 -0.17161511 -0.41666664
v 0.12506318 -0.11085190 0.08216986
v 0.08519796 -0.11100905 0.08333334
v 0.08017656 -0.18893351 -0.39868334
v 0.12285591 -0.11042097 -0.41539219
v 0.08821751 -0.17527463 0.13127697
v 0.13065250 -0.17161511 0.08333334
v 0.10034947 -0.20191814 -0.40151513
v 0.08519796 -0.11100905 -0.41666664
v 0.11550099 -0.17161511 0.12878789
v 0.08519796 -0.20191814 0.11363637
v 0.08399881 -0.18386960 -0.41601971
v 0.11550099 -0.18676662 0.12878789
v 0.08268324 -0.18082232 0.12618984
v 0.11550099 -0.18676662 -0.41666664
f 6 3 2
f 6 4 3
f 8 1 2
f 8 2 3
f 9 2 1
f 10 5 4
f 10 4 6
f 10 6 2
f 11 3 4
f 11 4 7
f 11 8 3
f 12 9 1
f 12 5 9
f 13 9 5
f 13 5 10
f 14 11 7
f 14 1 8
f 14 8 11
f 14 12 1
f 14 7 12
f 15 12 7
f 15 7 4
f 15 4 5
f 15 5 12
f 16 2 9
f 16 9 13
f 16 13 10
f 16 10 2