# https://github.com/mikedh/trimesh
v 0.00944039 -0.11100905 -0.09848483
v 0.00944039 -0.11100905 -0.41666664
v 0.00944039 0.08596064 -0.09848483
v -0.12707156 0.08511000 -0.09875498
v -0.14207476 -0.11100905 -0.41666664
v -0.12727677 -0.10992800 -0.09902440
v -0.14207476 0.08596064 -0.41666664
v 0.00944039 0.08596064 -0.35606058
v -0.05116567 0.08596064 -0.41666664
v 0.00944039 -0.00494845 -0.41666664
f 1 2 3
f 1 3 4
f 5 2 1
f 6 5 1
f 6 1 4
f 7 2 5
f 7 4 3
f 7 6 4
f 7 5 6
f 8 7 3
f 8 3 2
f 9 2 7
f 9 7 8
f 10 9 8
f 10 8 2
f 10 2 9