# https://github.com/mikedh/trimesh
v -0.05116567 0.13141519 0.05303031
v -0.05116567 0.13141519 -0.35606058
v -0.05032765 0.19796758 0.05422776
v -0.11177173 0.19202125 0.05303031
v -0.12692325 0.13141519 -0.44696967
v -0.12516596 0.13111293 0.05311363
v -0.05024957 0.19302461 -0.35707319
v -0.07702427 0.19287580 0.05435518
v -0.12692325 0.17686973 0.05303031
v -0.10030526 0.12688223 -0.46864186
v -0.11177173 0.19202125 -0.40151513
v -0.07654276 0.15545277 -0.46875954
v -0.08146870 0.20717276 -0.35606058
v -0.12692325 0.17686973 -0.35606058
v -0.08119624 0.13104793 -0.47374885
v -0.11177173 0.14656670 -0.47727270
v -0.08146870 0.19202125 -0.44696967
v -0.12692325 0.16171821 -0.43181816
v -0.09662022 0.16171821 -0.47727270
v -0.09662022 0.19202125 -0.44696967
v -0.12692325 0.14656670 -0.44696967
v -0.11177173 0.17686973 -0.44696967
f 7 1 2
f 7 3 1
f 8 6 1
f 8 1 3
f 8 3 4
f 9 5 6
f 9 8 4
f 9 6 8
f 10 6 5
f 10 2 1
f 10 1 6
f 11 9 4
f 12 7 2
f 13 11 4
f 13 4 3
f 13 3 7
f 14 5 9
f 14 9 11
f 15 12 2
f 15 2 10
f 16 10 5
f 16 15 10
f 17 13 7
f 17 7 12
f 18 14 11
f 18 5 14
f 19 12 15
f 19 15 16
f 19 17 12
f 20 11 13
f 20 13 17
f 20 17 19
f 20 19 16
f 21 18 16
f 21 16 5
f 21 5 18
f 22 18 11
f 22 11 20
f 22 20 16
f 22 16 18