# https://github.com/mikedh/trimesh
v -0.05116567 0.08596064 0.00757577
v 0.00944039 0.08596064 -0.23484847
v 0.00944039 0.13141519 -0.09848483
v -0.12164464 0.13051930 0.00753842
v -0.12538470 0.08592114 -0.41644913
v -0.05116567 0.13141519 0.00757577
v 0.00944039 0.08596064 -0.09848483
v -0.14207476 0.08596064 -0.08333332
v -0.08146870 0.13141519 -0.41666664
v -0.12698635 0.08534028 -0.40063899
v -0.12481391 0.08588920 0.00756805
v 0.00944039 0.13141519 -0.23484847
v -0.08146870 0.08596064 -0.41666664
v -0.14207476 0.13141519 -0.35606058
v -0.14207476 0.10111216 -0.08333332
v -0.12100823 0.13039271 -0.41547738
v -0.14207476 0.13141519 -0.31060604
v -0.14207476 0.10111216 -0.40151513
v -0.14207476 0.11626367 -0.11363635
f 6 1 3
f 7 2 3
f 7 3 1
f 9 6 3
f 10 2 7
f 10 7 1
f 11 6 4
f 11 1 6
f 11 10 1
f 11 8 10
f 12 9 3
f 12 3 2
f 12 2 9
f 13 9 2
f 13 5 9
f 13 10 5
f 13 2 10
f 14 6 9
f 15 11 4
f 15 8 11
f 15 14 8
f 16 14 9
f 16 9 5
f 17 4 6
f 17 6 14
f 17 14 15
f 18 5 10
f 18 10 8
f 18 8 14
f 18 16 5
f 18 14 16
f 19 17 15
f 19 15 4
f 19 4 17