# https://github.com/mikedh/trimesh
v 0.00944039 -0.00494845 0.26515152
v 0.11550099 0.14656670 0.14393940
v 0.08290696 0.18445152 0.26550680
v -0.05115333 0.18810242 0.26540096
v -0.05116567 -0.00494845 0.14393940
v 0.07004644 0.19202125 0.14393940
v -0.05116567 -0.00494845 0.26515152
v 0.11543227 0.11625373 0.21971119
v 0.00944039 -0.00494845 0.14393940
v 0.10034947 0.17686973 0.14393940
v 0.08519796 0.19202125 0.20454546
v -0.05027075 0.18220164 0.13964537
v 0.11550099 0.16171821 0.18939395
v 0.08519796 0.08596064 0.26515152
v 0.10569436 0.11500202 0.13978624
v 0.10501992 0.15574218 0.22384443
f 7 1 3
f 7 3 4
f 7 5 1
f 7 4 5
f 9 1 5
f 9 8 1
f 11 6 4
f 11 4 3
f 11 10 6
f 12 5 4
f 12 4 6
f 13 8 2
f 13 2 10
f 13 11 3
f 13 10 11
f 14 8 3
f 14 3 1
f 14 1 8
f 15 2 8
f 15 8 9
f 15 9 5
f 15 5 12
f 15 10 2
f 15 12 6
f 15 6 10
f 16 13 3
f 16 3 8
f 16 8 13