# https://github.com/mikedh/trimesh
v 0.00944039 -0.20191814 0.14393940
v 0.00944120 -0.19515052 0.00807543
v 0.00944039 0.08596064 0.14393940
v -0.12692325 0.13141519 0.12878789
v -0.14207476 -0.14131208 0.05303031
v -0.05116567 0.13141519 0.00757577
v -0.12692325 -0.00494845 0.14393940
v -0.08146870 -0.20191814 0.12878789
v 0.00944039 0.08596064 0.00757577
v -0.05116567 0.13141519 0.08333334
v -0.14207476 0.11626367 0.02272728
v -0.10061203 0.13246717 0.14545721
v -0.14207476 0.11626367 0.09848486
v -0.07708153 -0.18847849 0.00848537
v -0.12692325 -0.14131208 0.14393940
v -0.11558369 -0.15125433 0.00756239
v -0.14207476 0.13141519 0.03787880
v -0.12692325 -0.15646359 0.12878789
v -0.14207476 -0.12616056 0.09848486
v -0.06631719 -0.20191814 0.14393940
v -0.14207476 0.07080913 0.00757577
v -0.12164464 0.13051930 0.00753842
v -0.14207476 0.13141519 0.08333334
v -0.14207476 -0.14131208 0.08333334
v -0.14207476 -0.08070602 0.00757577
v -0.14207476 -0.12616056 0.02272728
f 1 2 3
f 8 2 1
f 9 6 3
f 9 3 2
f 10 3 6
f 12 1 3
f 12 4 7
f 12 3 10
f 12 10 6
f 13 7 4
f 13 11 5
f 14 8 5
f 14 2 8
f 15 7 13
f 15 12 7
f 16 9 2
f 16 2 14
f 16 14 5
f 17 12 6
f 17 11 13
f 18 5 8
f 18 8 15
f 19 15 13
f 19 13 5
f 19 18 15
f 20 15 8
f 20 8 1
f 20 1 12
f 20 12 15
f 21 5 11
f 22 17 6
f 22 11 17
f 22 21 11
f 22 6 9
f 22 9 16
f 23 4 12
f 23 12 17
f 23 17 13
f 23 13 4
f 24 19 5
f 24 5 18
f 24 18 19
f 25 5 21
f 25 22 16
f 25 21 22
f 26 25 16
f 26 16 5
f 26 5 25