# https://github.com/mikedh/trimesh
v 0.08519796 -0.20191814 0.23484849
v 0.07976456 -0.17602735 0.13835968
v 0.08519796 -0.00494845 0.26515152
v -0.05116567 -0.00494845 0.26515152
v -0.07853648 -0.17756280 0.13968064
v -0.05116567 -0.00494845 0.14393940
v 0.08108821 -0.18779924 0.26610597
v 0.08519796 -0.00494845 0.14393940
v 0.07004644 -0.20191814 0.21969698
v -0.08146870 -0.11100905 0.14393940
v -0.05064476 -0.18924126 0.26541686
v -0.05116567 -0.20191814 0.21969698
v -0.07951081 -0.18025895 0.22100234
v -0.08146870 -0.11100905 0.21969698
f 6 4 3
f 6 2 5
f 7 1 3
f 7 3 4
f 8 1 2
f 8 3 1
f 8 6 3
f 8 2 6
f 9 5 2
f 9 2 1
f 10 6 5
f 10 4 6
f 11 1 7
f 11 7 4
f 12 9 1
f 12 1 11
f 12 5 9
f 13 10 5
f 13 12 11
f 13 5 12
f 14 13 11
f 14 11 4
f 14 4 10
f 14 10 13