# https://github.com/mikedh/trimesh
v 0.08132902 -0.18979107 -0.09870776
v 0.12753163 -0.11084452 -0.23493307
v 0.13114957 0.08602643 -0.09849639
v 0.00944039 0.08596064 -0.09848483
v 0.00958538 -0.19803493 -0.23519400
v 0.12760014 0.08573470 -0.23512316
v 0.12979219 -0.11089044 -0.09850175
v 0.08051932 -0.19227479 -0.23451746
v 0.00951758 -0.19511707 -0.09858613
v 0.00944039 0.08596064 -0.23484847
f 6 3 2
f 6 2 5
f 7 3 4
f 7 2 3
f 8 5 2
f 8 1 5
f 8 7 1
f 8 2 7
f 9 5 1
f 9 7 4
f 9 1 7
f 10 4 3
f 10 3 6
f 10 6 5
f 10 9 4
f 10 5 9