# https://github.com/mikedh/trimesh
v 0.10034947 -0.18676662 0.14393940
v 0.13065250 -0.17161511 0.08333334
v 0.11550099 -0.15646359 0.18939395
v 0.10034947 0.19202125 0.12878789
v 0.08519796 -0.17161511 0.08333334
v 0.13065250 0.14656670 0.12878789
v 0.08519796 0.11626367 0.18939395
v 0.13065250 -0.17161511 0.09848486
v 0.08384652 0.18737880 0.08205840
v 0.08398109 -0.16980612 0.18993693
v 0.10734218 0.11492514 0.19193996
v 0.13065250 -0.14131208 0.12878789
v 0.11738856 0.15658702 0.08069259
v 0.08108418 0.17066882 0.14026068
v 0.08268324 -0.18082232 0.12618984
v 0.11550099 0.17686973 0.12878789
v 0.10034947 0.17686973 0.14393940
v 0.09232601 -0.16393846 0.19225860
v 0.13065250 0.16171821 0.11363637
v 0.08033093 0.17983237 0.12329669
v 0.11550099 0.19202125 0.08333334
v 0.07976456 -0.17602735 0.13835968
v 0.11550099 0.19202125 0.09848486
f 5 2 1
f 8 1 2
f 8 3 1
f 8 2 6
f 10 1 3
f 11 3 6
f 12 8 6
f 12 6 3
f 12 3 8
f 13 2 5
f 13 5 9
f 14 10 7
f 15 5 1
f 15 1 10
f 16 11 6
f 17 7 11
f 17 14 7
f 17 4 14
f 17 16 4
f 17 11 16
f 18 10 3
f 18 3 11
f 18 11 7
f 18 7 10
f 19 6 2
f 19 2 13
f 19 16 6
f 20 14 4
f 20 4 9
f 21 9 4
f 21 19 13
f 21 13 9
f 22 20 9
f 22 9 5
f 22 5 15
f 22 15 10
f 22 10 14
f 22 14 20
f 23 21 4
f 23 4 16
f 23 16 19
f 23 19 21