# https://github.com/mikedh/trimesh
v -0.08114275 -0.18557801 0.26524320
v -0.05116567 -0.11100905 0.14393940
v -0.05115333 0.18810242 0.26540096
v -0.11177173 0.19202125 0.26515152
v -0.12692325 -0.14131208 0.18939395
v -0.06369571 0.18050739 0.13827292
v -0.10340906 -0.17582071 0.26641525
v -0.05116567 -0.17161511 0.26515152
v -0.09174253 -0.16301528 0.14873975
v -0.05027075 0.18220164 0.13964537
v -0.11177173 0.16171821 0.14393940
v -0.14207476 -0.14131208 0.26515152
v -0.11177173 -0.18676662 0.21969698
v -0.05165118 -0.18363070 0.21762815
v -0.10145259 -0.15298478 0.13859405
v -0.11177173 0.19202125 0.25000000
v -0.14207476 0.13141519 0.26515152
v -0.12692325 -0.17161511 0.23484849
v -0.12692325 -0.17161511 0.26515152
v -0.08913586 0.16933518 0.13806439
v -0.12692325 0.17686973 0.26515152
v -0.14207476 -0.05040299 0.23484849
v -0.14207476 -0.14131208 0.25000000
v -0.12692325 -0.15646359 0.20454546
v -0.12692325 0.17686973 0.25000000
v -0.14207476 0.13141519 0.25000000
v -0.14207476 -0.11100905 0.23484849
v -0.12692325 0.11626367 0.18939395
v -0.12692325 0.16171821 0.21969698
f 8 7 1
f 8 3 7
f 10 8 2
f 10 3 8
f 14 8 1
f 14 13 9
f 14 1 13
f 14 9 2
f 14 2 8
f 15 2 9
f 15 10 2
f 15 6 10
f 15 5 11
f 15 9 13
f 16 10 6
f 16 4 3
f 16 3 10
f 16 6 11
f 17 12 7
f 19 13 1
f 19 1 7
f 19 18 13
f 19 7 12
f 19 12 18
f 20 15 11
f 20 11 6
f 20 6 15
f 21 17 7
f 21 4 16
f 21 7 3
f 21 3 4
f 22 12 17
f 23 18 12
f 23 12 22
f 24 15 13
f 24 13 18
f 24 5 15
f 24 23 5
f 24 18 23
f 25 21 16
f 25 16 11
f 25 17 21
f 26 22 17
f 26 17 25
f 27 23 22
f 27 5 23
f 27 22 11
f 27 11 5
f 28 26 11
f 28 11 22
f 28 22 26
f 29 26 25
f 29 25 11
f 29 11 26