# https://github.com/mikedh/trimesh
v 0.03974342 -0.06555450 0.50757575
v 0.07004644 -0.05040299 0.41666667
v 0.07004644 0.04050610 0.49242424
v -0.02086264 0.07080913 0.50757575
v -0.06007337 -0.06173658 0.39297338
v 0.05089195 0.06670236 0.39444560
v 0.07004644 0.02535458 0.50757575
v 0.05223651 -0.06303913 0.39697084
v -0.06631719 -0.03525148 0.50757575
v 0.07004644 0.05565761 0.41666667
v -0.04862525 0.06698603 0.39502662
v 0.05489493 0.05565761 0.50757575
v 0.07004644 -0.03525148 0.50757575
v 0.05489493 -0.06555450 0.47727273
v 0.06264412 0.05303454 0.39297147
v -0.05116567 -0.06555450 0.49242424
v 0.05489493 0.07080913 0.41666667
v -0.06631719 0.04050610 0.50757575
v 0.06337736 -0.04804008 0.39463093
v -0.05997845 0.05263266 0.39459369
v -0.06631719 -0.06555450 0.41666667
v -0.03601416 -0.06555450 0.50757575
v -0.05116567 0.07080913 0.41666667
v 0.02459190 0.07080913 0.50757575
v -0.06631719 -0.05040299 0.49242424
v -0.06631719 0.05565761 0.41666667
v -0.03601416 0.07080913 0.49242424
v 0.03974342 0.07080913 0.47727273
v -0.05116567 0.05565761 0.50757575
f 7 4 1
f 7 2 3
f 9 1 4
f 10 3 2
f 12 7 3
f 12 4 7
f 12 3 10
f 13 7 1
f 13 2 7
f 14 8 2
f 14 13 1
f 14 2 13
f 15 6 10
f 15 11 6
f 16 14 1
f 17 6 11
f 17 12 10
f 17 10 6
f 18 9 4
f 19 2 8
f 19 8 5
f 19 5 15
f 19 15 10
f 19 10 2
f 20 15 5
f 20 11 15
f 21 5 8
f 21 8 14
f 21 14 16
f 21 9 18
f 22 16 1
f 22 1 9
f 22 9 16
f 23 17 11
f 23 4 17
f 24 17 4
f 24 4 12
f 25 21 16
f 25 16 9
f 25 9 21
f 26 20 5
f 26 5 21
f 26 21 18
f 26 18 23
f 26 23 11
f 26 11 20
f 27 4 23
f 28 24 12
f 28 12 17
f 28 17 24
f 29 27 23
f 29 23 18
f 29 18 4
f 29 4 27