# https://github.com/mikedh/trimesh
v 0.00944039 -0.11100905 0.00757577
v 0.00944039 -0.11100905 -0.09848483
v 0.00944039 0.13141519 -0.09848483
v -0.05116567 0.13141519 0.00757577
v -0.14207476 -0.11100905 -0.03787877
v 0.00944039 0.13141519 0.00757577
v -0.12479901 -0.11077739 0.00764395
v -0.12727677 -0.10992800 -0.09902440
v -0.14207476 0.05565761 0.00757577
v -0.14207476 0.02535458 0.00757577
v -0.14207476 0.08596064 -0.03787877
v -0.14207476 -0.08070602 -0.02272726
v -0.12707156 0.08511000 -0.09875498
v -0.12481391 0.08588920 0.00756805
v -0.05116567 0.13141519 -0.09848483
f 1 2 3
f 5 2 1
f 6 1 3
f 6 3 4
f 7 5 1
f 7 6 4
f 7 1 6
f 8 3 2
f 8 2 5
f 9 7 4
f 10 9 5
f 10 7 9
f 11 8 5
f 11 5 9
f 12 10 5
f 12 5 7
f 12 7 10
f 13 3 8
f 13 8 11
f 14 11 9
f 14 9 4
f 14 4 11
f 15 13 11
f 15 11 4
f 15 4 3
f 15 3 13