# https://github.com/mikedh/trimesh
v 0.07004644 -0.20191814 0.14393940
v 0.08132902 -0.18979107 -0.09870776
v 0.08519796 -0.00494845 0.14393940
v 0.00944039 -0.00494845 0.14393940
v 0.00951758 -0.19511707 -0.09858613
v 0.00944039 -0.00494845 -0.09848483
v 0.08519796 -0.20191814 0.12878789
v 0.00944039 -0.20191814 0.14393940
v 0.08519796 -0.00494845 -0.09848483
v 0.07976456 -0.17602735 0.13835968
f 1 3 4
f 6 4 3
f 6 2 5
f 7 5 2
f 8 1 4
f 8 6 5
f 8 4 6
f 8 7 1
f 8 5 7
f 9 6 3
f 9 2 6
f 9 7 2
f 9 3 7
f 10 7 3
f 10 3 1
f 10 1 7