# https://github.com/mikedh/trimesh
v 0.08519796 0.13141519 0.05303031
v 0.08514405 0.13093829 -0.47317261
v 0.08519796 0.19202125 -0.44696967
v 0.05489493 0.16171821 0.05303031
v 0.05465866 0.13101314 -0.47643361
v 0.07004644 0.20717276 -0.18939392
v 0.05489493 0.13141519 0.05303031
v 0.08519796 0.17686973 -0.47727270
v 0.08519796 0.16171821 0.05303031
v 0.05489493 0.20717276 -0.34090907
v 0.05228443 0.16774653 -0.46861707
v 0.08240195 0.18568271 -0.18960107
v 0.05313233 0.19278320 -0.18927747
v 0.07004644 0.20717276 -0.34090907
v 0.05489493 0.19202125 -0.46212119
v 0.07004644 0.19202125 -0.46212119
f 7 5 2
f 7 2 1
f 7 1 4
f 8 2 5
f 8 1 2
f 8 3 1
f 9 1 3
f 9 6 4
f 9 4 1
f 11 5 7
f 11 8 5
f 12 9 3
f 12 3 6
f 12 6 9
f 13 4 6
f 13 6 10
f 13 10 11
f 13 11 7
f 13 7 4
f 14 10 6
f 14 6 3
f 15 11 10
f 15 8 11
f 15 10 14
f 16 3 8
f 16 8 15
f 16 15 14
f 16 14 3