# https://github.com/mikedh/trimesh
v 0.00944039 0.08596064 -0.23484847
v 0.05489493 0.13141519 -0.41666664
v 0.05489493 0.13141519 -0.18939392
v 0.00944039 0.20717276 -0.18939392
v -0.07853911 0.18389873 -0.41495835
v 0.05489493 0.20717276 -0.38636361
v -0.05116567 0.08596064 -0.23484847
v 0.05313233 0.19278320 -0.18927747
v -0.06631719 0.20717276 -0.40151513
v 0.02459190 0.20717276 -0.41666664
v 0.00944039 0.13141519 -0.18939392
v -0.08146870 0.08596064 -0.41666664
v -0.05022165 0.19268079 -0.23382954
v 0.05443615 0.18689374 -0.41589640
v -0.05116567 0.20717276 -0.41666664
v 0.00944039 0.08596064 -0.41666664
v -0.06631719 0.20717276 -0.35606058
v -0.08146870 0.08596064 -0.35606058
v -0.08016668 0.18829731 -0.35605931
f 1 2 3
f 6 3 2
f 7 1 3
f 8 6 4
f 8 3 6
f 9 4 6
f 10 9 6
f 11 7 3
f 11 8 4
f 11 3 8
f 12 1 7
f 12 10 2
f 13 11 4
f 13 7 11
f 14 10 6
f 14 6 2
f 14 2 10
f 15 5 9
f 15 9 10
f 15 12 5
f 15 10 12
f 16 12 2
f 16 2 1
f 16 1 12
f 17 13 4
f 17 4 9
f 18 12 7
f 18 7 13
f 19 17 9
f 19 9 5
f 19 13 17
f 19 18 13
f 19 5 12
f 19 12 18