# https://github.com/mikedh/trimesh
v -0.11177173 -0.18676662 0.31060606
v 0.08519796 -0.12616056 0.26515152
v 0.03974342 -0.08070602 0.41666667
v -0.09662022 0.19202125 0.31060606
v -0.14207476 0.14656670 0.26515152
v 0.08519796 0.19202125 0.31060606
v -0.08146870 0.07080913 0.40151515
v 0.08519796 -0.12616056 0.37121212
v -0.12692325 -0.17161511 0.26515152
v -0.11177173 0.19202125 0.26515152
v -0.05116567 -0.08070602 0.41666667
v -0.14207476 -0.12616056 0.32575758
v -0.14207476 0.13141519 0.32575758
v -0.03601416 0.10111216 0.40151515
v -0.08114275 -0.18557801 0.26524320
v 0.08519796 0.05565761 0.40151515
v 0.08290696 0.18445152 0.26550680
v -0.08146870 -0.08070602 0.40151515
v -0.12692325 -0.17161511 0.31060606
v -0.14207476 -0.14131208 0.26515152
v -0.09662022 0.14656670 0.35606061
v -0.12692325 -0.09585753 0.35606061
v -0.12692325 0.17686973 0.29545455
v -0.05116567 -0.06555450 0.41666667
v 0.08519796 -0.06555450 0.40151515
v 0.03974342 0.10111216 0.40151515
v -0.08146870 -0.11100905 0.38636364
v -0.14207476 -0.14131208 0.31060606
v -0.11177173 0.13141519 0.35606061
v -0.06631719 0.11626367 0.38636364
v -0.11177173 0.07080913 0.37121212
v -0.12692325 0.17686973 0.26515152
v -0.14207476 0.14656670 0.29545455
v -0.11177173 0.17686973 0.32575758
v -0.11177173 0.19202125 0.29545455
v -0.06631719 0.08596064 0.40151515
v 0.07004644 0.08596064 0.40151515
v -0.11177173 -0.12616056 0.35606061
v -0.12692325 -0.03525148 0.35606061
v -0.12692325 0.16171821 0.32575758
v 0.08519796 0.13141519 0.37121212
v -0.11177173 -0.09585753 0.37121212
v 0.08519796 0.10111216 0.38636364
f 8 3 1
f 8 2 6
f 9 5 2
f 10 4 6
f 10 2 5
f 11 1 3
f 13 5 12
f 14 6 4
f 15 8 1
f 15 2 8
f 15 9 2
f 15 1 9
f 16 8 6
f 17 10 6
f 17 6 2
f 17 2 10
f 18 11 7
f 19 9 1
f 20 12 5
f 20 5 9
f 20 9 19
f 22 13 12
f 22 18 7
f 24 11 3
f 24 7 11
f 25 16 3
f 25 3 8
f 25 8 16
f 26 24 3
f 26 14 24
f 26 6 14
f 27 1 11
f 27 11 18
f 28 20 19
f 28 19 12
f 28 12 20
f 29 13 7
f 29 7 21
f 30 14 21
f 31 7 13
f 32 23 10
f 32 10 5
f 32 5 23
f 33 23 5
f 33 5 13
f 33 13 23
f 34 29 21
f 34 21 14
f 34 14 4
f 35 4 10
f 35 10 23
f 35 34 4
f 35 23 34
f 36 24 14
f 36 7 24
f 36 14 30
f 36 30 21
f 36 21 7
f 37 26 3
f 37 3 16
f 38 19 1
f 38 1 27
f 38 12 19
f 38 22 12
f 38 27 18
f 39 31 13
f 39 13 22
f 39 22 7
f 39 7 31
f 40 34 23
f 40 23 13
f 40 13 29
f 40 29 34
f 41 16 6
f 41 6 26
f 41 26 37
f 42 38 18
f 42 18 22
f 42 22 38
f 43 41 37
f 43 37 16
f 43 16 41