# https://github.com/mikedh/trimesh
v 0.08051932 -0.19227479 -0.23451746
v 0.08519796 -0.17161511 -0.47727270
v 0.08519796 -0.11100905 -0.23484847
v -0.05116567 -0.11100905 -0.23484847
v -0.11177173 -0.18676662 -0.43181816
v 0.04988749 -0.10740102 -0.49499488
v 0.08519796 -0.20191814 -0.43181816
v -0.05070305 -0.19530254 -0.23549872
v 0.08541869 -0.11078171 -0.47495910
v -0.07523000 -0.10608500 -0.48553402
v -0.06631719 -0.18676662 -0.47727270
v -0.11177173 -0.18676662 -0.41666664
v -0.08146870 -0.20191814 -0.41666664
v 0.05489493 -0.12616056 -0.50757573
v 0.07004644 -0.18676662 -0.47727270
v -0.08146870 -0.12616056 -0.49242421
v -0.08146870 -0.11100905 -0.35606058
v -0.05116567 -0.20191814 -0.44696967
v 0.02459190 -0.11100905 -0.50757573
v 0.08519796 -0.18676662 -0.46212119
v -0.09662022 -0.18676662 -0.46212119
v -0.05116567 -0.15646359 -0.49242421
v -0.10651473 -0.16793239 -0.41531646
v 0.05489493 -0.20191814 -0.44696967
v -0.08146870 -0.17161511 -0.47727270
v 0.02459190 -0.12616056 -0.50757573
f 1 3 4
f 7 3 1
f 8 1 4
f 8 7 1
f 9 6 3
f 9 3 7
f 10 4 3
f 10 3 6
f 12 8 4
f 13 7 8
f 13 12 5
f 13 8 12
f 14 9 2
f 14 6 9
f 15 14 2
f 15 11 14
f 16 5 10
f 17 12 4
f 17 4 10
f 18 7 13
f 18 11 15
f 19 10 6
f 19 6 14
f 19 16 10
f 20 15 2
f 20 7 15
f 20 9 7
f 20 2 9
f 21 5 16
f 21 11 18
f 21 18 13
f 21 13 5
f 22 14 11
f 22 11 16
f 23 17 10
f 23 10 5
f 23 5 12
f 23 12 17
f 24 18 15
f 24 15 7
f 24 7 18
f 25 21 16
f 25 16 11
f 25 11 21
f 26 19 14
f 26 14 22
f 26 22 16
f 26 16 19