# https://github.com/mikedh/trimesh
v -0.21881221 0.03596919 0.01799584
v -0.21881221 0.03666072 0.01499711
v -0.21940450 0.06153170 -0.05499926
v -0.21983814 0.06042826 -0.04930279
v -0.22451301 0.06305908 -0.04557946
v -0.22790810 0.06188949 -0.03500029
v -0.22969556 0.06036211 -0.02971629
v -0.23500502 0.06128515 -0.02825594
v -0.24501051 0.06146254 -0.02721921
v -0.22501011 0.03596919 0.01761682
v -0.21881221 0.03596919 -0.07360476
v -0.21881221 0.03771605 0.00879899
v -0.21937278 0.06160987 -0.06311478
v -0.22501011 0.06530504 -0.05499926
v -0.21881221 0.03833843 0.00499763
v -0.21881221 0.03902996 -0.00057622
v -0.21881221 0.03987182 -0.00775533
v -0.23500502 0.06422866 -0.03500029
v -0.24501051 0.06349504 -0.03500029
v -0.25212857 0.06059964 -0.02832283
v -0.27499524 0.03596919 0.00672552
v -0.26500031 0.03596919 0.00996950
v -0.25500542 0.03596919 0.01284561
v -0.24664989 0.03596919 0.01499711
v -0.24501051 0.03596919 0.01528695
v -0.23645402 0.03596919 0.01644631
v -0.23500502 0.03596919 0.01663582
v -0.22740042 0.03596919 0.01739386
v -0.26530704 0.03596919 -0.09262273
v -0.24824695 0.04914431 -0.09134074
v -0.23969047 0.05945110 -0.09014794
v -0.22861674 0.05847394 -0.08149733
v -0.22861674 0.06146555 -0.08149733
v -0.21881221 0.03669981 -0.07102965
v -0.21881221 0.04034386 -0.05465368
v -0.22650142 0.06290273 -0.07499822
v -0.22403707 0.06392198 -0.06586826
v -0.21881221 0.04006424 -0.00949437
v -0.21881221 0.04022059 -0.01165703
v -0.21881221 0.04044909 -0.01484527
v -0.21881221 0.04116768 -0.02500081
v -0.21881221 0.04172391 -0.03500029
v -0.21881221 0.04166678 -0.04536765
v -0.23500502 0.06549145 -0.07499822
v -0.23500502 0.06655280 -0.06499874
v -0.23500502 0.06668209 -0.05499926
v -0.23500502 0.06627619 -0.04499978
v -0.24501051 0.06429781 -0.04499978
v -0.32685244 0.04525371 -0.05499926
v -0.32685244 0.04507632 -0.05313759
v -0.32685244 0.04424649 -0.04499978
v -0.32685244 0.04159162 -0.03687311
v -0.27488947 0.05199161 -0.02473327
v -0.27149439 0.05051535 -0.01958304
v -0.27917302 0.03596919 0.00499763
v -0.27622214 0.03596919 0.00622388
v -0.26637530 0.03596919 -0.09280109
v -0.25500542 0.04777328 -0.09319126
v -0.24495763 0.05567174 -0.09120697
v -0.23969047 0.06017570 -0.09014794
v -0.23581943 0.06193759 -0.08489737
v -0.24501051 0.06400917 -0.07499822
v -0.24501051 0.06035610 -0.09049352
v -0.24501051 0.06216610 -0.08499770
v -0.25129303 0.06029897 -0.09050466
v -0.24501051 0.06451730 -0.06499874
v -0.24501051 0.06458344 -0.05499926
v -0.32685244 0.04391576 -0.06499874
v -0.25973317 0.05989308 -0.07887762
v -0.25326028 0.06084318 -0.08499770
v -0.32685244 0.03596919 -0.02571427
v -0.28275847 0.03596919 0.00275694
v -0.27499524 0.03596919 -0.09414996
v -0.27499524 0.04500116 -0.09588900
v -0.25477272 0.05562364 -0.09285682
v -0.26500031 0.05344983 -0.09445095
v -0.27499524 0.05462543 -0.08499770
v -0.26500031 0.05757796 -0.08499770
v -0.27499524 0.05202167 -0.09350339
v -0.28226137 0.05080098 -0.09163058
v -0.32685244 0.04188326 -0.07165392
v -0.32685244 0.03596919 -0.08135241
v -0.29211879 0.03596919 -0.09262273
v -0.29499564 0.03659457 -0.09252240
v -0.30317137 0.04138416 -0.09125156
v -0.29499564 0.04307991 -0.09252240
v -0.30317137 0.03810691 -0.09125156
v -0.32685244 0.03911113 -0.07826450
v -0.32685244 0.03958619 -0.07733924
v -0.32685244 0.04131801 -0.07325918
v -0.30496940 0.03596919 -0.08995843
v -0.29499564 0.03596919 -0.09210993
f 1 2 3
f 1 3 4
f 1 4 5
f 1 5 6
f 1 6 7
f 1 7 8
f 1 8 9
f 1 9 10
f 1 10 28
f 1 28 27
f 1 27 26
f 1 26 25
f 1 25 24
f 1 24 23
f 1 23 22
f 1 22 21
f 1 21 56
f 1 56 55
f 1 55 72
f 1 72 71
f 1 71 82
f 1 82 91
f 1 91 92
f 1 92 83
f 1 83 73
f 1 73 57
f 1 57 29
f 1 29 11
f 1 11 34
f 1 34 35
f 1 35 43
f 1 43 42
f 1 42 41
f 1 41 40
f 1 40 39
f 1 39 38
f 1 38 17
f 1 17 16
f 1 16 15
f 1 15 12
f 1 12 2
f 2 12 3
f 3 13 14
f 3 14 5
f 3 5 4
f 3 12 15
f 3 15 16
f 3 16 17
f 3 17 13
f 5 14 6
f 6 14 18
f 6 18 7
f 7 18 8
f 8 18 9
f 9 18 19
f 9 19 20
f 9 20 21
f 9 21 22
f 9 22 23
f 9 23 24
f 9 24 25
f 9 25 26
f 9 26 27
f 9 27 28
f 9 28 10
f 11 29 30
f 11 30 31
f 11 31 32
f 11 32 33
f 11 33 13
f 11 13 34
f 13 35 34
f 13 33 36
f 13 36 37
f 13 37 14
f 13 17 38
f 13 38 39
f 13 39 40
f 13 40 41
f 13 41 42
f 13 42 43
f 13 43 35
f 14 37 44
f 14 44 45
f 14 45 46
f 14 46 47
f 14 47 18
f 18 47 19
f 19 47 48
f 19 48 49
f 19 49 50
f 19 50 51
f 19 51 20
f 20 51 52
f 20 52 53
f 20 53 54
f 20 54 55
f 20 55 56
f 20 56 21
f 29 57 58
f 29 58 30
f 30 58 31
f 31 58 59
f 31 59 60
f 31 60 33
f 31 33 32
f 33 44 36
f 33 60 61
f 33 61 44
f 36 44 37
f 44 62 45
f 44 61 63
f 44 63 64
f 44 64 65
f 44 65 62
f 45 66 46
f 45 62 66
f 46 66 67
f 46 67 48
f 46 48 47
f 48 67 49
f 49 68 81
f 49 81 90
f 49 90 89
f 49 89 88
f 49 88 82
f 49 82 71
f 49 71 52
f 49 52 51
f 49 51 50
f 49 67 66
f 49 66 62
f 49 62 69
f 49 69 70
f 49 70 68
f 52 71 72
f 52 72 53
f 53 72 54
f 54 72 55
f 57 73 74
f 57 74 58
f 58 75 59
f 58 74 76
f 58 76 75
f 59 75 60
f 60 75 76
f 60 76 63
f 60 63 61
f 62 65 70
f 62 70 69
f 63 65 64
f 63 76 65
f 65 77 78
f 65 78 70
f 65 76 79
f 65 79 80
f 65 80 77
f 68 70 78
f 68 78 77
f 68 77 80
f 68 80 81
f 73 83 84
f 73 84 74
f 74 85 86
f 74 86 79
f 74 79 76
f 74 84 87
f 74 87 85
f 79 86 85
f 79 85 80
f 80 85 88
f 80 88 89
f 80 89 90
f 80 90 81
f 82 88 85
f 82 85 87
f 82 87 91
f 83 92 84
f 84 92 91
f 84 91 87

