# https://github.com/mikedh/trimesh
v -0.09296624 0.02021850 -0.12248620
v -0.08501121 0.01744139 -0.12645970
v -0.09500442 0.01742158 -0.12647255
v -0.09500442 0.02021454 -0.12248620
v -0.06341249 0.02016304 -0.12248620
v -0.06341249 0.01967972 -0.12319125
v -0.06341249 0.01749685 -0.12637495
v -0.06341249 0.01670452 -0.12738436
v -0.09500442 0.01242198 -0.13203982
v -0.10501285 0.01735423 -0.12642887
v -0.10501285 0.02015512 -0.12248620
v -0.10291383 0.02017492 -0.12248620
v -0.06341249 0.01249725 -0.13227868
v -0.06341249 -0.02006354 -0.12248620
v -0.09500442 0.00499785 -0.13550732
v -0.10501285 0.01235463 -0.13196790
v -0.08501121 0.00499785 -0.13560492
v -0.11500607 0.01222786 -0.13184075
v -0.11500607 0.01722746 -0.12630045
v -0.12239831 0.01982234 -0.12248620
v -0.11269409 0.02002834 -0.12248620
v -0.06341249 0.00499785 -0.13559850
v -0.06341249 -0.01750828 -0.12641861
v -0.07500279 -0.02017051 -0.12248620
v -0.09500442 -0.00499739 -0.13553685
v -0.10501285 -0.00499739 -0.13538146
v -0.10501285 0.00499785 -0.13532495
v -0.06341249 0.00340923 -0.13559850
v -0.08501121 -0.00499739 -0.13559079
v -0.12501450 0.01206147 -0.13169307
v -0.12501450 0.01706107 -0.12613606
v -0.13202648 0.01956483 -0.12248620
v -0.06341249 -0.01250868 -0.13225685
v -0.08501121 -0.02024578 -0.12248620
v -0.09500442 -0.02025370 -0.12248620
v -0.08501121 -0.01744886 -0.12649566
v -0.09500442 -0.01242945 -0.13207063
v -0.10501285 -0.01236210 -0.13202441
v -0.11500607 -0.01223532 -0.13189983
v -0.12501450 -0.01206101 -0.13175213
v -0.11500607 -0.00499739 -0.13511305
v -0.11500607 0.00499785 -0.13505398
v -0.06341249 -0.00499739 -0.13557667
v -0.06341249 -0.00630870 -0.13505782
v -0.12501450 0.00499785 -0.13474832
v -0.13500771 0.01181585 -0.13148886
v -0.13500771 0.01681545 -0.12593700
v -0.15131323 0.01898247 -0.12248620
v -0.14163943 0.01927959 -0.12248620
v -0.09500442 -0.01742905 -0.12649952
v -0.10501285 -0.02016655 -0.12248620
v -0.10501285 -0.01736170 -0.12643787
v -0.11500607 -0.01723493 -0.12630816
v -0.12501450 -0.01706061 -0.12613863
v -0.13500771 -0.01681499 -0.12593700
v -0.13500771 -0.01181539 -0.13154152
v -0.12501450 -0.00499739 -0.13480739
v -0.13500771 0.00499785 -0.13432965
v -0.14498571 0.01150684 -0.13122046
v -0.15499413 0.01613404 -0.12558769
v -0.14498571 0.01650644 -0.12574822
v -0.16091096 0.01857442 -0.12248620
v -0.11500607 -0.01998827 -0.12248620
v -0.12501450 -0.01975057 -0.12248620
v -0.13500771 -0.01944553 -0.12248620
v -0.15499413 -0.01877601 -0.12248620
v -0.16498736 -0.01830457 -0.12248620
v -0.14498571 -0.01650598 -0.12573409
v -0.15499413 -0.01614151 -0.12557356
v -0.14498571 -0.01150638 -0.13126798
v -0.13500771 -0.00499739 -0.13438359
v -0.14498571 0.00499785 -0.13380568
v -0.15499413 0.01113444 -0.13090453
v -0.16498736 0.01568638 -0.12534368
v -0.16862263 0.01809110 -0.12248620
v -0.17685144 -0.01744489 -0.12248620
v -0.16498736 -0.01570177 -0.12534624
v -0.15499413 -0.01114191 -0.13095076
v -0.14498571 -0.00499739 -0.13385320
v -0.21109000 0.00028349 -0.13009031
v -0.15499413 0.00499785 -0.13320978
v -0.16498736 0.01068677 -0.13053595
v -0.17978704 0.01719973 -0.12248620
v -0.18205339 -0.01697742 -0.12248620
v -0.16498736 -0.01070217 -0.13057704
v -0.15499413 -0.00499739 -0.13325600
v -0.21109000 -0.00029888 -0.13009031
v -0.18498899 0.00378162 -0.13124613
v -0.16498736 0.00499785 -0.13251370
v -0.21880165 -0.00050092 -0.12777607
v -0.21880165 0.00450264 -0.12775552
v -0.17907216 0.00974390 -0.12989381
v -0.17543688 0.00584564 -0.13143750
v -0.17241001 0.01029457 -0.13022771
v -0.21880165 0.01330542 -0.12284065
v -0.21880165 0.01365801 -0.12248620
v -0.18498899 -0.01671199 -0.12248620
v -0.21880165 -0.01363775 -0.12248620
v -0.21880165 -0.01326932 -0.12286505
v -0.17237960 -0.01030996 -0.13025212
v -0.16498736 -0.00499739 -0.13255608
v -0.21464922 -0.00417733 -0.12833601
v -0.21880165 -0.00450615 -0.12777479
v -0.18498899 -0.00399113 -0.13124613
v -0.18498899 -0.00899073 -0.12959073
v -0.21880165 0.00773931 -0.12599608
v -0.17905694 -0.00972364 -0.12988482
v -0.17542167 -0.00583330 -0.13145290
f 1 2 3
f 1 3 4
f 1 4 12
f 1 12 11
f 1 11 21
f 1 21 20
f 1 20 32
f 1 32 49
f 1 49 48
f 1 48 62
f 1 62 75
f 1 75 83
f 1 83 96
f 1 96 98
f 1 98 97
f 1 97 84
f 1 84 76
f 1 76 67
f 1 67 66
f 1 66 65
f 1 65 64
f 1 64 63
f 1 63 51
f 1 51 35
f 1 35 34
f 1 34 24
f 1 24 14
f 1 14 5
f 1 5 6
f 1 6 7
f 1 7 2
f 2 7 8
f 2 8 3
f 3 9 10
f 3 10 11
f 3 11 12
f 3 12 4
f 3 8 13
f 3 13 9
f 5 14 23
f 5 23 33
f 5 33 44
f 5 44 43
f 5 43 28
f 5 28 22
f 5 22 13
f 5 13 8
f 5 8 7
f 5 7 6
f 9 15 16
f 9 16 10
f 9 13 17
f 9 17 15
f 10 16 18
f 10 18 19
f 10 19 20
f 10 20 21
f 10 21 11
f 13 22 17
f 14 24 23
f 15 17 25
f 15 25 26
f 15 26 27
f 15 27 16
f 16 27 18
f 17 22 28
f 17 28 29
f 17 29 25
f 18 27 30
f 18 30 19
f 19 30 31
f 19 31 32
f 19 32 20
f 23 24 34
f 23 34 35
f 23 35 36
f 23 36 33
f 25 29 33
f 25 33 37
f 25 37 38
f 25 38 26
f 26 38 39
f 26 39 40
f 26 40 41
f 26 41 27
f 27 41 42
f 27 42 30
f 28 43 29
f 29 43 44
f 29 44 33
f 30 45 46
f 30 46 47
f 30 47 31
f 30 42 45
f 31 47 48
f 31 48 49
f 31 49 32
f 33 36 50
f 33 50 37
f 35 51 50
f 35 50 36
f 37 50 38
f 38 50 52
f 38 52 39
f 39 53 40
f 39 52 53
f 40 54 55
f 40 55 56
f 40 56 57
f 40 57 41
f 40 53 54
f 41 57 45
f 41 45 42
f 45 57 58
f 45 58 59
f 45 59 46
f 46 59 60
f 46 60 61
f 46 61 47
f 47 61 62
f 47 62 48
f 50 51 52
f 51 63 52
f 52 63 53
f 53 63 64
f 53 64 54
f 54 64 65
f 54 65 66
f 54 66 55
f 55 66 67
f 55 67 68
f 55 68 56
f 56 68 69
f 56 69 70
f 56 70 57
f 57 70 71
f 57 71 58
f 58 71 72
f 58 72 73
f 58 73 59
f 59 73 60
f 60 73 74
f 60 74 75
f 60 75 62
f 60 62 61
f 67 76 77
f 67 77 69
f 67 69 68
f 69 77 70
f 70 77 78
f 70 78 71
f 71 78 79
f 71 79 72
f 72 79 80
f 72 80 81
f 72 81 82
f 72 82 73
f 73 82 74
f 74 82 83
f 74 83 75
f 76 84 85
f 76 85 77
f 77 85 78
f 78 85 79
f 79 85 86
f 79 86 87
f 79 87 80
f 80 88 89
f 80 89 81
f 80 87 90
f 80 90 91
f 80 91 92
f 80 92 93
f 80 93 88
f 81 89 94
f 81 94 82
f 82 94 95
f 82 95 96
f 82 96 83
f 84 97 85
f 85 97 98
f 85 98 99
f 85 99 100
f 85 100 86
f 86 100 101
f 86 101 87
f 87 102 103
f 87 103 90
f 87 101 104
f 87 104 105
f 87 105 102
f 88 93 89
f 89 93 94
f 90 103 99
f 90 99 98
f 90 98 96
f 90 96 95
f 90 95 106
f 90 106 91
f 91 106 92
f 92 94 93
f 92 106 95
f 92 95 94
f 99 103 105
f 99 105 107
f 99 107 100
f 100 107 108
f 100 108 101
f 101 108 104
f 102 105 103
f 104 108 107
f 104 107 105

