# https://github.com/mikedh/trimesh
v -0.21876998 0.01365739 -0.12248619
v -0.18495260 -0.01817401 -0.12097599
v -0.21876998 -0.01680082 -0.11885779
v -0.21876998 0.02068875 -0.11409184
v -0.16549733 0.01882751 -0.12187818
v -0.00577425 0.02709970 -0.12248619
v -0.00504665 -0.02713279 -0.12248619
v -0.16979964 -0.01883578 -0.12154476
v -0.18495260 -0.02251691 -0.11448409
v -0.21876998 -0.02559416 -0.10499141
v -0.21876998 0.02804273 -0.09897023
v -0.18495260 0.02835708 -0.10187295
v -0.18264328 0.02083765 -0.11746527
v 0.00488661 0.02720724 -0.12248619
v -0.16233388 0.02994534 -0.09985282
v -0.16495955 0.03147569 -0.09473383
v -0.14499812 0.03184794 -0.09498880
v -0.16495955 0.03425515 -0.08498618
v -0.15499465 0.03443714 -0.08498618
v -0.13496995 0.03474321 -0.08498618
v 0.00494988 -0.02724033 -0.12248619
v -0.13496995 -0.03473494 -0.08498618
v -0.14499812 -0.03458604 -0.08498618
v -0.15499465 -0.03442059 -0.08498618
v -0.16495955 -0.03425515 -0.08498618
v -0.17495607 -0.03403180 -0.08498618
v -0.16495955 -0.03145915 -0.09473383
v -0.16233388 -0.02994534 -0.09985282
v -0.18495260 -0.02833226 -0.10185334
v -0.21876998 -0.02981298 -0.09451809
v -0.21876998 0.03287369 -0.08498618
v -0.18495260 0.03121098 -0.09377279
v -0.17495607 0.03055748 -0.09677358
v -0.07499075 0.03863941 -0.06498095
v -0.06499422 0.03839952 -0.06498095
v -0.04503278 0.03791146 -0.06498095
v -0.03503625 0.03758057 -0.06498095
v -0.02503972 0.03714215 -0.06498095
v 0.01497805 0.03629011 -0.05499795
v 0.03497111 0.03356029 -0.06498095
v 0.06499235 0.03293160 -0.05499795
v 0.07498889 0.03219537 -0.05499795
v 0.08732638 0.03073947 -0.05790067
v 0.10434578 0.02804273 -0.06468675
v 0.10434578 0.02566861 -0.07498357
v 0.10434578 0.02197922 -0.08565302
v 0.10434578 0.00871062 -0.12248619
v -0.12497342 0.03484248 -0.08498618
v -0.12497342 0.03708424 -0.07498357
v -0.11497688 0.03711733 -0.07498357
v -0.10498035 0.03711733 -0.07498357
v -0.09498382 0.03705942 -0.07498357
v -0.17495607 0.03403180 -0.08498618
v -0.21876998 0.03669545 -0.07102174
v -0.16495955 0.03663754 -0.07498357
v -0.15499465 0.03679471 -0.07498357
v -0.14499812 0.03691052 -0.07498357
v 0.10434578 -0.00960402 -0.12138786
v 0.10434578 -0.02556935 -0.07529737
v 0.10434578 -0.02791865 -0.06527515
v 0.08732638 -0.03073947 -0.05790067
v 0.07498889 -0.03219537 -0.05499795
v 0.06499235 -0.03293160 -0.05499795
v 0.03497111 -0.03356029 -0.06498095
v 0.01497805 -0.03629011 -0.05499795
v 0.00494988 -0.03686089 -0.05499795
v -0.02503972 -0.03714215 -0.06498095
v -0.03503625 -0.03758057 -0.06498095
v -0.04503278 -0.03791146 -0.06498095
v -0.06499422 -0.03839952 -0.06498095
v -0.07499075 -0.03863941 -0.06498095
v -0.09498382 -0.03705942 -0.07498357
v -0.10498035 -0.03711733 -0.07498357
v -0.11497688 -0.03711733 -0.07498357
v -0.12497342 -0.03708424 -0.07498357
v -0.12497342 -0.03483420 -0.08498618
v -0.14499812 -0.03691052 -0.07498357
v -0.15499465 -0.03679471 -0.07498357
v -0.16495955 -0.03663754 -0.07498357
v -0.21876998 -0.03803554 -0.06472598
v -0.21687192 -0.03561179 -0.07498357
v -0.20497730 -0.03326249 -0.08498618
v -0.21876998 -0.03288196 -0.08498618
v -0.17495607 -0.03054921 -0.09675396
v -0.08498728 0.03948317 -0.06062687
v -0.07499075 0.03976443 -0.05772415
v -0.10498035 0.03947490 -0.06227436
v -0.09498382 0.03957417 -0.06088184
v -0.06499422 0.03965689 -0.05623356
v -0.03503625 0.03877177 -0.05499795
v -0.02503972 0.03836643 -0.05499795
v -0.01504318 0.03789492 -0.05499795
v 0.00494988 0.03686089 -0.05499795
v 0.01497805 0.03715869 -0.04499533
v 0.05499582 0.03455295 -0.04499533
v 0.06499235 0.03386636 -0.04499533
v 0.07498889 0.03313841 -0.04499533
v 0.08498542 0.03236082 -0.04499533
v 0.09498195 0.03151705 -0.04499533
v 0.10406108 0.03020178 -0.04952592
v 0.10383964 0.03018523 -0.01037843
v 0.10434578 0.01962164 0.03020081
v -0.13496995 0.03700979 -0.07498357
v -0.14499812 0.03890412 -0.06498095
v -0.13496995 0.03945009 -0.06227436
v -0.21876998 0.04099699 -0.04999664
v 0.10434578 -0.01922457 0.03120107
v 0.10409272 -0.03022659 -0.01098643
v 0.10377637 -0.03021832 -0.04964361
v 0.09498195 -0.03151705 -0.04499533
v 0.08498542 -0.03236082 -0.04499533
v 0.07498889 -0.03313841 -0.04499533
v 0.06499235 -0.03386636 -0.04499533
v 0.05499582 -0.03455295 -0.04499533
v 0.01497805 -0.03715869 -0.04499533
v 0.00494988 -0.03772947 -0.04499533
v -0.01504318 -0.03789492 -0.05499795
v -0.02503972 -0.03836643 -0.05499795
v -0.03503625 -0.03877177 -0.05499795
v -0.06499422 -0.03965689 -0.05623356
v -0.07499075 -0.03976443 -0.05772415
v -0.08498728 -0.03948317 -0.06062687
v -0.09498382 -0.03957417 -0.06090145
v -0.10498035 -0.03963207 -0.06103874
v -0.11497688 -0.03966516 -0.06113680
v -0.13496995 -0.03945009 -0.06229397
v -0.15499465 -0.03879659 -0.06498095
v -0.13496995 -0.03700979 -0.07498357
v -0.21876998 -0.04160913 -0.04303403
v -0.14499812 -0.03940045 -0.06217629
v -0.08498728 0.04123688 -0.04499533
v -0.07499075 0.04062474 -0.04885908
v -0.10498035 0.04055856 -0.05456646
v -0.12497342 0.03965689 -0.06109758
v -0.11497688 0.03965689 -0.06111719
v -0.04952490 0.03944181 -0.05331123
v -0.04063557 0.03995469 -0.04413236
v -0.02503972 0.03925155 -0.04499533
v 0.00494988 0.03772947 -0.04499533
v 0.01497805 0.03758057 -0.03499271
v 0.05499582 0.03502446 -0.03499271
v 0.07498889 0.03357683 -0.03499271
v 0.08498542 0.03284061 -0.03499271
v 0.09966387 0.03169077 -0.03499271
v 0.09966387 0.03160805 -0.02483319
v 0.09498195 0.03139297 -0.01502671
v 0.08498542 0.03219537 -0.01502671
v 0.09498195 0.03014387 -0.00406305
v 0.09966387 0.02811718 0.00513543
v 0.09966387 0.02558589 0.01511844
v 0.06878850 0.00854518 0.07787995
v 0.10434578 0.01179615 0.04212550
v -0.21876998 0.04171667 -0.03499271
v -0.14499812 0.04218818 -0.03499271
v -0.13496995 0.04224609 -0.03499271
v -0.12497342 0.04170839 -0.04499533
v 0.10434578 -0.01203604 0.04200782
v 0.07498889 -0.00763523 0.07787995
v 0.09966387 -0.02562725 0.01496153
v 0.09966387 -0.02817509 0.00488046
v 0.09498195 -0.03014387 -0.00406305
v 0.08498542 -0.03219537 -0.01502671
v 0.09498195 -0.03139297 -0.01502671
v 0.09966387 -0.03161632 -0.02514700
v 0.09966387 -0.03168250 -0.03514962
v 0.08498542 -0.03284061 -0.03499271
v 0.07498889 -0.03357683 -0.03499271
v 0.05499582 -0.03502446 -0.03499271
v 0.01497805 -0.03758057 -0.03499271
v -0.02503972 -0.03925155 -0.04499533
v -0.04063557 -0.03995469 -0.04413236
v -0.04952490 -0.03944181 -0.05331123
v -0.07499075 -0.04062474 -0.04885908
v -0.08498728 -0.04123688 -0.04499533
v -0.09498382 -0.04138578 -0.04499533
v -0.11497688 -0.04161740 -0.04499533
v -0.12497342 -0.04170839 -0.04499533
v -0.12497342 -0.03965689 -0.06111719
v -0.21876998 -0.04167531 -0.02879501
v -0.13496995 -0.04224609 -0.03499271
v -0.09498382 0.04138578 -0.04499533
v -0.08498728 0.04170839 -0.03499271
v -0.07499075 0.04150986 -0.03499271
v -0.06499422 0.04122034 -0.03499271
v -0.11497688 0.04161740 -0.04499533
v -0.04503278 0.04055029 -0.03499271
v -0.02757048 0.03975616 -0.02965798
v 0.00494988 0.03801900 -0.02499010
v 0.01497805 0.03743167 -0.02499010
v 0.05499582 0.03489211 -0.02499010
v 0.06499235 0.03424688 -0.02499010
v 0.07498889 0.03351893 -0.02499010
v 0.08498542 0.03276616 -0.02499010
v 0.07498889 0.03291506 -0.01502671
v 0.07498889 0.03172386 -0.00502409
v 0.08552320 0.02980471 0.00207581
v 0.07084475 0.02966408 0.00823428
v 0.08498542 0.02695080 0.01496153
v 0.04974447 0.01026579 0.07787995
v 0.08283426 0.00030607 0.07787995
v 0.10434578 0.00000827 0.04712681
v -0.21876998 0.04116243 -0.02499010
v -0.19498077 0.04111280 -0.01502671
v -0.18495260 0.04131133 -0.01502671
v -0.17495607 0.04167531 -0.02000840
v -0.16495955 0.04179112 -0.02000840
v -0.14499812 0.04217164 -0.02499010
v -0.13496995 0.04222127 -0.02499010
v -0.12497342 0.04224609 -0.03499271
v 0.06499235 -0.00905805 0.07787995
v 0.07498889 -0.02475040 0.02496415
v 0.08498542 -0.02696735 0.01496153
v 0.07498889 -0.02776975 0.01496153
v 0.06499235 -0.02984607 0.00919532
v 0.07498889 -0.03001151 0.00509620
v 0.08527012 -0.03030104 -0.00051311
v 0.07498889 -0.03172386 -0.00502409
v 0.07498889 -0.03291506 -0.01502671
v 0.06499235 -0.03424688 -0.02499010
v 0.07498889 -0.03351893 -0.02499010
v 0.08498542 -0.03276616 -0.02499010
v 0.05499582 -0.03489211 -0.02499010
v 0.01497805 -0.03743167 -0.02499010
v 0.00494988 -0.03801900 -0.02499010
v -0.02757048 -0.03975616 -0.02965798
v -0.04503278 -0.04055029 -0.03499271
v -0.06499422 -0.04122034 -0.03499271
v -0.08498728 -0.04170839 -0.03499271
v -0.07499075 -0.04150986 -0.03499271
v -0.11497688 -0.04213855 -0.03499271
v -0.12497342 -0.04224609 -0.03499271
v -0.21876998 -0.04090599 -0.01883162
v -0.14499812 -0.04217164 -0.02499010
v -0.15499465 -0.04187384 -0.02000840
v -0.16495955 -0.04156777 -0.01502671
v -0.17495607 -0.04146023 -0.01502671
v -0.18495260 -0.04131133 -0.01502671
v -0.19498077 -0.04111280 -0.01502671
v -0.13496995 -0.04222127 -0.02499010
v -0.11497688 0.04213855 -0.03499271
v -0.08498728 0.04162567 -0.02499010
v -0.11497688 0.04209719 -0.02499010
v -0.07499075 0.04141887 -0.02499010
v -0.06499422 0.04104662 -0.02499010
v -0.02503972 0.03873868 -0.01502671
v -0.00504665 0.03785355 -0.01502671
v 0.00494988 0.03735722 -0.01502671
v 0.01497805 0.03678644 -0.01502671
v 0.06499235 0.03357683 -0.01502671
v 0.05499582 0.03303914 -0.00502409
v 0.04499928 0.03201339 0.00497853
v 0.07498889 0.02766221 0.01496153
v 0.05499582 0.03078910 0.00786163
v 0.01497805 0.03181485 0.01496153
v 0.02323468 0.02940764 0.02229678
v 0.05499582 0.02622285 0.02496415
v 0.06499235 0.02544526 0.02496415
v -0.02345799 0.03010251 0.03027926
v -0.05999595 0.02940764 0.03816368
v 0.03351593 0.01093584 0.07787995
v -0.21876998 0.03852360 0.00313491
v -0.21687192 0.04010359 -0.00957430
v -0.20497730 0.04084809 -0.01502671
v -0.19498077 0.04007877 -0.00431802
v -0.16495955 0.04028558 -0.00270976
v -0.14499812 0.04165876 -0.01502671
v -0.15499465 0.04187384 -0.02000840
v -0.13496995 0.04165876 -0.01502671
v -0.12497342 0.04220473 -0.02499010
v 0.04958630 -0.01027406 0.07787995
v -0.02345799 -0.03010251 0.03027926
v 0.01703430 -0.03084701 0.01833496
v 0.05316101 -0.03024314 0.01090164
v 0.04499928 -0.03201339 0.00497853
v 0.05499582 -0.03303914 -0.00502409
v 0.06499235 -0.03357683 -0.01502671
v 0.01497805 -0.03678644 -0.01502671
v 0.00494988 -0.03735722 -0.01502671
v -0.00504665 -0.03785355 -0.01502671
v -0.02503972 -0.03873868 -0.01502671
v -0.06499422 -0.04104662 -0.02499010
v -0.07499075 -0.04141887 -0.02499010
v -0.08498728 -0.04161740 -0.02499010
v -0.09498382 -0.04178284 -0.02499010
v -0.11497688 -0.04209719 -0.02499010
v -0.12497342 -0.04220473 -0.02499010
v -0.20497730 -0.03995469 -0.00533790
v -0.21687192 -0.03977270 -0.00659313
v -0.21876998 -0.03833334 0.00497853
v -0.14499812 -0.04165876 -0.01502671
v -0.16495955 -0.04028558 -0.00270976
v -0.19498077 -0.04007877 -0.00431802
v -0.13496995 -0.04165876 -0.01502671
v -0.09498382 0.04121206 -0.01502671
v -0.11497688 0.04150986 -0.01502671
v -0.07499075 0.04079018 -0.01502671
v -0.02503972 0.03774602 -0.00502409
v -0.06426662 0.03994642 -0.01000579
v 0.01497805 0.03557043 -0.00502409
v -0.01504318 0.03724968 -0.00502409
v -0.00504665 0.03669545 -0.00502409
v 0.02497458 0.03495001 -0.00502409
v 0.01497805 0.03389117 0.00497853
v -0.01504318 0.03568624 0.00497853
v -0.02503972 0.03407316 0.01496153
v -0.03503625 0.03133507 0.02816106
v -0.04503278 0.03169077 0.02853371
v -0.07499075 0.03050785 0.03671232
v -0.09093459 0.03056575 0.03824213
v 0.01924872 0.01119228 0.07787995
v -0.10498035 0.02823299 0.04555777
v -0.11497688 0.02449396 0.05497199
v -0.12497342 0.02469249 0.05497199
v -0.21876998 0.03665408 0.01496153
v -0.19498077 0.03880486 0.00497853
v -0.20497730 0.03995469 -0.00533790
v -0.18495260 0.03958244 0.00078135
v -0.17495607 0.03967344 0.00105593
v -0.16495955 0.03914402 0.00497853
v -0.14718090 0.03992987 -0.00008162
v -0.12497342 0.04161740 -0.01502671
v 0.03639467 -0.01085312 0.07787995
v -0.05999595 -0.02940764 0.03814406
v -0.03503625 -0.03134334 0.02816106
v 0.00494988 -0.03241872 0.01496153
v 0.01497805 -0.03389117 0.00497853
v 0.02497458 -0.03495001 -0.00502409
v 0.01497805 -0.03557043 -0.00502409
v -0.00504665 -0.03669545 -0.00502409
v -0.01504318 -0.03724968 -0.00502409
v -0.02503972 -0.03774602 -0.00502409
v -0.06334922 -0.03985542 -0.00906436
v -0.09498382 -0.04122034 -0.01502671
v -0.12497342 -0.04161740 -0.01502671
v -0.10498035 -0.04136924 -0.01502671
v -0.18495260 -0.03958244 0.00078135
v -0.19498077 -0.03880486 0.00497853
v -0.19498077 -0.03702633 0.01496153
v -0.21876998 -0.03572760 0.01902141
v -0.16495955 -0.03914402 0.00497853
v -0.17495607 -0.03967344 0.00105593
v -0.14718090 -0.03992987 -0.00008162
v -0.08498728 0.04048411 -0.01020192
v -0.10498035 0.04048411 -0.00663235
v -0.07499075 0.03980579 -0.00625971
v -0.03503625 0.03660445 0.00497853
v -0.02503972 0.03622393 0.00497853
v -0.03503625 0.03456949 0.01496153
v -0.05506095 0.03311359 0.02496415
v -0.06499422 0.03229464 0.02923977
v -0.07499075 0.03386636 0.02496415
v -0.08498728 0.03415588 0.02496415
v -0.10498035 0.03105381 0.03775181
v 0.00494988 0.01116746 0.07787995
v -0.13496995 0.02306287 0.05842388
v -0.14499812 0.02313732 0.05846310
v -0.15499465 0.02317041 0.05848271
v -0.16495955 0.02317041 0.05848271
v -0.11497688 0.03073120 0.03916394
v -0.12497342 0.03087182 0.03928162
v -0.13496995 0.03097936 0.03937968
v -0.14499812 0.03103727 0.03943852
v -0.17495607 0.02492412 0.05497199
v -0.21876998 0.03436269 0.02496415
v -0.19498077 0.03484248 0.02496415
v -0.18495260 0.03500792 0.02496415
v -0.19498077 0.03702633 0.01496153
v -0.18495260 0.03717523 0.01496153
v -0.17495607 0.03726623 0.01496153
v -0.16495955 0.03731586 0.01496153
v -0.15499465 0.03731586 0.01496153
v -0.14499812 0.03726623 0.01496153
v -0.13496995 0.03968171 0.00109516
v -0.11497688 0.04019459 -0.00357273
v 0.02497458 -0.01112610 0.07787995
v -0.11497688 -0.02451051 0.05497199
v -0.10498035 -0.02824127 0.04555777
v -0.09093459 -0.03056575 0.03824213
v -0.07499075 -0.03050785 0.03671232
v -0.04503278 -0.03169904 0.02853371
v -0.06499422 -0.03350238 0.02496415
v -0.03503625 -0.03458604 0.01496153
v -0.02503972 -0.03408143 0.01496153
v -0.01504318 -0.03568624 0.00497853
v -0.02503972 -0.03622393 0.00497853
v -0.03503625 -0.03660445 0.00497853
v -0.07499075 -0.03809345 0.00497853
v -0.08498728 -0.03836643 0.00497853
v -0.09498382 -0.03930946 0.00015374
v -0.08498728 -0.04048411 -0.01020192
v -0.07499075 -0.04030212 -0.01061379
v -0.11497688 -0.04103008 -0.01055495
v -0.18495260 -0.03717523 0.01496153
v -0.19498077 -0.03484248 0.02496415
v -0.18495260 -0.03500792 0.02496415
v -0.21782096 -0.03211265 0.03316237
v -0.21876998 -0.02893613 0.04267466
v -0.13496995 -0.03968171 0.00109516
v -0.14499812 -0.03726623 0.01496153
v -0.15996128 -0.03731586 0.01496153
v -0.17495607 -0.03726623 0.01496153
v -0.11497688 -0.03983888 -0.00108188
v -0.10498035 0.03976443 -0.00163105
v -0.09498382 0.03930119 0.00015374
v -0.08498728 0.03836643 0.00497853
v -0.07499075 0.03809345 0.00497853
v -0.07499075 0.03625702 0.01496153
v -0.06499422 0.03587650 0.01496153
v -0.08498728 0.03653000 0.01496153
v -0.10498035 0.03457776 0.02496415
v -0.11497688 0.03476803 0.02496415
v -0.12497342 0.03491693 0.02496415
v -0.00504665 0.01099374 0.07787995
v -0.17495607 0.01934039 0.06446467
v -0.18495260 0.02479176 0.05497199
v -0.18495260 0.01925766 0.06434700
v -0.13496995 0.03504101 0.02496415
v -0.14499812 0.03511546 0.02496415
v -0.15499465 0.03516509 0.02496415
v -0.15499465 0.03107036 0.03945813
v -0.16495955 0.03106208 0.03945813
v -0.17495607 0.03102072 0.03941891
v -0.18495260 0.03092973 0.03932084
v -0.21876998 0.02196267 0.05783549
v -0.21829547 0.02950691 0.04096833
v -0.19498077 0.03075601 0.03916394
v -0.17495607 0.03511546 0.02496415
v -0.16495955 0.03517336 0.02496415
v -0.13496995 0.03720832 0.01496153
v -0.11497688 0.03887103 0.00497853
v -0.12497342 0.03962380 0.00093825
v 0.01067575 -0.01121709 0.07787995
v -0.14499812 -0.02313732 0.05846310
v -0.13496995 -0.02306287 0.05842388
v -0.12497342 -0.02471731 0.05497199
v -0.13496995 -0.03097936 0.03937968
v -0.12497342 -0.03088010 0.03930123
v -0.10498035 -0.03105381 0.03775181
v -0.08498728 -0.03415588 0.02496415
v -0.07499075 -0.03386636 0.02496415
v -0.07499075 -0.03625702 0.01496153
v -0.06499422 -0.03587650 0.01496153
v -0.08498728 -0.03651346 0.01496153
v -0.09498382 -0.03669545 0.01496153
v -0.11497688 -0.03887103 0.00497853
v -0.10498035 -0.03943354 0.00044793
v -0.17495607 -0.03511546 0.02496415
v -0.18495260 -0.03092146 0.03932084
v -0.17495607 -0.03102072 0.03941891
v -0.19498077 -0.03075601 0.03914433
v -0.18495260 -0.02477522 0.05497199
v -0.19498077 -0.02451878 0.05497199
v -0.21876998 -0.02442778 0.05267727
v -0.13496995 -0.03720832 0.01496153
v -0.12497342 -0.03962380 0.00093825
v -0.14499812 -0.03511546 0.02496415
v -0.15499465 -0.03516509 0.02496415
v -0.16495955 -0.03517336 0.02496415
v -0.10498035 0.03873041 0.00497853
v -0.09498382 0.03669545 0.01496153
v -0.11497688 0.03699325 0.01496153
v -0.01504318 0.01077867 0.07787995
v -0.19498077 0.02454360 0.05497199
v -0.19498077 0.01908395 0.06411164
v -0.18495260 0.01225112 0.07185876
v -0.21687192 0.01350022 0.06864224
v -0.20497730 0.01880269 0.06375860
v -0.20497730 0.02410517 0.05497199
v -0.21876998 -0.01894332 0.06203266
v -0.21687192 0.00499640 0.07405542
v -0.00216790 -0.01105165 0.07787995
v -0.17495607 -0.01937347 0.06446467
v -0.16495955 -0.02317041 0.05848271
v -0.15499465 -0.02317868 0.05848271
v -0.14499812 -0.03103727 0.03943852
v -0.17495607 -0.02492412 0.05497199
v -0.13496995 -0.03504101 0.02496415
v -0.12497342 -0.03491693 0.02496415
v -0.11497688 -0.03476803 0.02496415
v -0.09498382 -0.03436269 0.02496415
v -0.11497688 -0.03699325 0.01496153
v -0.16495955 -0.03106208 0.03943852
v -0.18495260 -0.01928248 0.06434700
v -0.20497730 -0.02245900 0.05809046
v -0.15499465 -0.03107036 0.03945813
v -0.07499075 0.00880989 0.07787995
v -0.20497730 0.00834664 0.07317284
v -0.19498077 0.00851209 0.07352587
v -0.09501545 0.00774277 0.07787995
v -0.08498728 0.00842936 0.07787995
v -0.19498077 -0.01910049 0.06413125
v -0.20497730 -0.01668501 0.06619062
v -0.21687192 -0.00862790 0.07215296
v -0.18495260 -0.00499640 0.07587942
v -0.10498035 0.00585671 0.07787995
v -0.01358799 -0.01080348 0.07787995
v -0.18495260 -0.01231730 0.07207451
v -0.20497730 -0.00833837 0.07321206
v -0.10371496 -0.00639440 0.07787995
v -0.11307880 -0.00018199 0.07787995
v -0.19498077 -0.00852863 0.07368277
v -0.08897324 -0.00828874 0.07787995
v -0.07388353 -0.00889261 0.07787995
f 1 2 3
f 1 3 10
f 1 10 30
f 1 30 83
f 1 83 80
f 1 80 129
f 1 129 179
f 1 179 232
f 1 232 289
f 1 289 339
f 1 339 397
f 1 397 453
f 1 453 469
f 1 469 424
f 1 424 364
f 1 364 314
f 1 314 261
f 1 261 202
f 1 202 153
f 1 153 106
f 1 106 54
f 1 54 31
f 1 31 11
f 1 11 4
f 1 4 5
f 1 5 6
f 1 6 14
f 1 14 47
f 1 47 21
f 1 21 7
f 1 7 8
f 1 8 2
f 2 9 3
f 2 8 9
f 3 9 10
f 4 11 12
f 4 12 13
f 4 13 5
f 5 13 6
f 6 13 12
f 6 12 15
f 6 15 16
f 6 16 17
f 6 17 18
f 6 18 19
f 6 19 20
f 6 20 14
f 7 21 22
f 7 22 23
f 7 23 24
f 7 24 25
f 7 25 26
f 7 26 27
f 7 27 28
f 7 28 29
f 7 29 10
f 7 10 9
f 7 9 8
f 10 29 30
f 11 31 32
f 11 32 33
f 11 33 12
f 12 33 15
f 14 34 35
f 14 35 36
f 14 36 37
f 14 37 38
f 14 38 39
f 14 39 40
f 14 40 41
f 14 41 42
f 14 42 43
f 14 43 44
f 14 44 45
f 14 45 46
f 14 46 47
f 14 20 48
f 14 48 49
f 14 49 50
f 14 50 51
f 14 51 52
f 14 52 34
f 15 33 16
f 16 33 32
f 16 32 31
f 16 31 53
f 16 53 18
f 16 18 17
f 18 53 54
f 18 54 19
f 19 54 55
f 19 55 56
f 19 56 20
f 20 56 57
f 20 57 48
f 21 47 58
f 21 58 59
f 21 59 60
f 21 60 61
f 21 61 62
f 21 62 63
f 21 63 64
f 21 64 65
f 21 65 66
f 21 66 67
f 21 67 68
f 21 68 69
f 21 69 70
f 21 70 71
f 21 71 72
f 21 72 73
f 21 73 74
f 21 74 75
f 21 75 76
f 21 76 22
f 22 76 77
f 22 77 78
f 22 78 23
f 23 78 79
f 23 79 24
f 24 79 25
f 25 79 80
f 25 80 81
f 25 81 26
f 26 81 82
f 26 82 27
f 27 82 83
f 27 83 84
f 27 84 28
f 28 84 30
f 28 30 29
f 30 84 83
f 31 54 53
f 34 85 86
f 34 86 35
f 34 52 87
f 34 87 88
f 34 88 85
f 35 86 36
f 36 86 89
f 36 89 37
f 37 90 91
f 37 91 38
f 37 89 90
f 38 91 92
f 38 92 93
f 38 93 39
f 39 93 139
f 39 139 94
f 39 94 95
f 39 95 41
f 39 41 40
f 41 95 96
f 41 96 97
f 41 97 42
f 42 97 98
f 42 98 99
f 42 99 100
f 42 100 43
f 43 100 44
f 44 100 101
f 44 101 102
f 44 102 152
f 44 152 201
f 44 201 157
f 44 157 107
f 44 107 60
f 44 60 59
f 44 59 58
f 44 58 47
f 44 47 46
f 44 46 45
f 48 57 103
f 48 103 49
f 49 103 104
f 49 104 105
f 49 105 50
f 50 105 87
f 50 87 51
f 51 87 52
f 54 106 56
f 54 56 55
f 56 104 57
f 56 106 104
f 57 104 103
f 60 107 108
f 60 108 109
f 60 109 61
f 61 109 62
f 62 109 110
f 62 110 111
f 62 111 112
f 62 112 63
f 63 112 113
f 63 113 114
f 63 114 65
f 63 65 64
f 65 115 116
f 65 116 66
f 65 114 115
f 66 116 117
f 66 117 67
f 67 118 68
f 67 117 118
f 68 118 119
f 68 119 120
f 68 120 69
f 69 120 121
f 69 121 70
f 70 121 71
f 71 121 122
f 71 122 123
f 71 123 72
f 72 123 124
f 72 124 73
f 73 124 125
f 73 125 74
f 74 125 126
f 74 126 75
f 75 126 127
f 75 127 128
f 75 128 76
f 76 128 77
f 77 127 78
f 77 128 127
f 78 127 80
f 78 80 79
f 80 83 81
f 80 127 130
f 80 130 129
f 81 83 82
f 85 88 86
f 86 131 132
f 86 132 89
f 86 88 133
f 86 133 131
f 87 133 88
f 87 105 134
f 87 134 135
f 87 135 133
f 89 132 136
f 89 136 90
f 90 136 137
f 90 137 138
f 90 138 91
f 91 138 92
f 92 138 139
f 92 139 93
f 94 139 140
f 94 140 141
f 94 141 95
f 95 141 96
f 96 141 142
f 96 142 97
f 97 142 143
f 97 143 98
f 98 143 144
f 98 144 99
f 99 144 100
f 100 144 101
f 101 144 145
f 101 145 146
f 101 146 147
f 101 147 148
f 101 148 149
f 101 149 150
f 101 150 102
f 102 150 151
f 102 151 152
f 104 106 105
f 105 106 134
f 106 153 154
f 106 154 155
f 106 155 156
f 106 156 133
f 106 133 134
f 107 157 158
f 107 158 159
f 107 159 108
f 108 159 160
f 108 160 161
f 108 161 162
f 108 162 163
f 108 163 164
f 108 164 165
f 108 165 109
f 109 165 110
f 110 165 111
f 111 166 112
f 111 165 166
f 112 166 167
f 112 167 113
f 113 168 114
f 113 167 168
f 114 168 115
f 115 169 116
f 115 168 169
f 116 169 170
f 116 170 117
f 117 170 118
f 118 170 119
f 119 170 171
f 119 171 172
f 119 172 120
f 120 173 121
f 120 172 173
f 121 173 174
f 121 174 175
f 121 175 176
f 121 176 177
f 121 177 123
f 121 123 122
f 123 177 124
f 124 177 125
f 125 177 178
f 125 178 126
f 126 130 127
f 126 178 129
f 126 129 130
f 129 178 177
f 129 177 180
f 129 180 179
f 131 181 182
f 131 182 183
f 131 183 184
f 131 184 137
f 131 137 132
f 131 133 181
f 132 137 136
f 133 135 134
f 133 156 185
f 133 185 181
f 137 184 186
f 137 186 138
f 138 186 140
f 138 140 139
f 140 186 187
f 140 187 188
f 140 188 189
f 140 189 190
f 140 190 141
f 141 190 191
f 141 191 142
f 142 192 143
f 142 191 192
f 143 192 193
f 143 193 144
f 144 193 145
f 145 193 147
f 145 147 146
f 147 193 192
f 147 192 191
f 147 191 194
f 147 194 195
f 147 195 148
f 148 195 196
f 148 196 149
f 149 196 197
f 149 197 198
f 149 198 150
f 150 198 199
f 150 199 151
f 151 200 152
f 151 199 260
f 151 260 310
f 151 310 354
f 151 354 413
f 151 413 462
f 151 462 486
f 151 486 490
f 151 490 489
f 151 489 495
f 151 495 500
f 151 500 499
f 151 499 502
f 151 502 503
f 151 503 496
f 151 496 471
f 151 471 432
f 151 432 375
f 151 375 322
f 151 322 270
f 151 270 210
f 151 210 158
f 151 158 200
f 152 200 201
f 153 202 203
f 153 203 204
f 153 204 205
f 153 205 206
f 153 206 207
f 153 207 154
f 154 207 155
f 155 208 209
f 155 209 156
f 155 207 208
f 156 209 185
f 157 201 200
f 157 200 158
f 158 210 159
f 159 210 211
f 159 211 212
f 159 212 160
f 160 212 213
f 160 213 214
f 160 214 215
f 160 215 216
f 160 216 161
f 161 216 217
f 161 217 162
f 162 217 218
f 162 218 219
f 162 219 220
f 162 220 221
f 162 221 164
f 162 164 163
f 164 221 166
f 164 166 165
f 166 221 220
f 166 220 167
f 167 220 219
f 167 219 168
f 168 219 222
f 168 222 169
f 169 223 224
f 169 224 225
f 169 225 226
f 169 226 170
f 169 222 223
f 170 226 171
f 171 226 227
f 171 227 174
f 171 174 173
f 171 173 172
f 174 228 175
f 174 227 229
f 174 229 228
f 175 228 230
f 175 230 176
f 176 230 231
f 176 231 177
f 177 231 180
f 179 180 233
f 179 233 234
f 179 234 235
f 179 235 236
f 179 236 237
f 179 237 238
f 179 238 232
f 180 231 239
f 180 239 233
f 181 185 240
f 181 240 182
f 182 241 183
f 182 240 242
f 182 242 241
f 183 243 184
f 183 241 243
f 184 243 186
f 185 209 240
f 186 243 244
f 186 244 187
f 187 244 245
f 187 245 246
f 187 246 188
f 188 247 248
f 188 248 189
f 188 246 247
f 189 248 190
f 190 249 191
f 190 248 249
f 191 249 194
f 194 249 195
f 195 249 250
f 195 250 251
f 195 251 196
f 196 251 197
f 197 252 198
f 197 251 253
f 197 253 254
f 197 254 255
f 197 255 252
f 198 252 255
f 198 255 256
f 198 256 257
f 198 257 199
f 199 257 256
f 199 256 255
f 199 255 258
f 199 258 259
f 199 259 260
f 202 261 262
f 202 262 263
f 202 263 203
f 203 263 262
f 203 262 264
f 203 264 204
f 204 265 266
f 204 266 206
f 204 206 205
f 204 264 265
f 206 266 267
f 206 267 207
f 207 267 208
f 208 267 266
f 208 266 268
f 208 268 269
f 208 269 209
f 209 269 242
f 209 242 240
f 210 270 211
f 211 213 212
f 211 270 271
f 211 271 272
f 211 272 213
f 213 272 273
f 213 273 214
f 214 273 274
f 214 274 215
f 215 274 216
f 216 274 275
f 216 275 217
f 217 275 276
f 217 276 218
f 218 276 219
f 219 276 222
f 222 276 277
f 222 277 223
f 223 277 224
f 224 277 278
f 224 278 279
f 224 279 225
f 225 279 280
f 225 280 281
f 225 281 226
f 226 281 282
f 226 282 227
f 227 282 229
f 228 283 284
f 228 284 285
f 228 285 230
f 228 229 282
f 228 282 283
f 230 285 286
f 230 286 231
f 231 286 239
f 232 238 287
f 232 287 288
f 232 288 289
f 233 239 234
f 234 239 290
f 234 290 235
f 235 291 236
f 235 290 291
f 236 291 292
f 236 292 237
f 237 292 238
f 238 292 287
f 239 293 290
f 239 286 293
f 241 242 294
f 241 294 243
f 242 269 321
f 242 321 295
f 242 295 294
f 243 296 244
f 243 294 296
f 244 296 245
f 245 297 246
f 245 296 298
f 245 298 297
f 246 297 300
f 246 300 247
f 247 299 248
f 247 300 301
f 247 301 299
f 248 299 302
f 248 302 250
f 248 250 249
f 250 302 251
f 251 302 303
f 251 303 253
f 253 303 254
f 254 303 304
f 254 304 305
f 254 305 306
f 254 306 258
f 254 258 255
f 258 306 259
f 259 306 307
f 259 307 308
f 259 308 309
f 259 309 260
f 260 309 311
f 260 311 312
f 260 312 313
f 260 313 310
f 261 314 315
f 261 315 264
f 261 264 316
f 261 316 262
f 262 316 264
f 264 315 317
f 264 317 265
f 265 317 318
f 265 318 319
f 265 319 320
f 265 320 268
f 265 268 266
f 268 320 321
f 268 321 269
f 270 322 323
f 270 323 271
f 271 323 324
f 271 324 272
f 272 325 273
f 272 324 325
f 273 325 274
f 274 325 326
f 274 326 327
f 274 327 275
f 275 327 277
f 275 277 276
f 277 327 328
f 277 328 278
f 278 328 329
f 278 329 330
f 278 330 331
f 278 331 279
f 279 331 332
f 279 332 280
f 280 332 281
f 281 332 282
f 282 333 283
f 282 332 333
f 283 333 284
f 284 333 285
f 285 334 286
f 285 333 335
f 285 335 334
f 286 334 293
f 287 292 289
f 287 289 288
f 289 292 336
f 289 336 337
f 289 337 338
f 289 338 339
f 290 293 291
f 291 340 341
f 291 341 336
f 291 336 292
f 291 293 342
f 291 342 340
f 293 334 342
f 294 343 296
f 294 295 344
f 294 344 343
f 295 321 344
f 296 343 345
f 296 345 298
f 297 298 345
f 297 345 346
f 297 346 347
f 297 347 300
f 299 301 304
f 299 304 303
f 299 303 302
f 300 347 304
f 300 304 301
f 304 347 305
f 305 347 348
f 305 348 349
f 305 349 306
f 306 349 307
f 307 349 350
f 307 350 308
f 308 351 309
f 308 350 351
f 309 351 352
f 309 352 353
f 309 353 311
f 310 313 355
f 310 355 356
f 310 356 357
f 310 357 358
f 310 358 354
f 311 353 359
f 311 359 360
f 311 360 361
f 311 361 313
f 311 313 312
f 313 356 355
f 313 361 362
f 313 362 363
f 313 363 356
f 314 364 365
f 314 365 366
f 314 366 367
f 314 367 315
f 315 367 368
f 315 368 319
f 315 319 318
f 315 318 317
f 319 368 369
f 319 369 370
f 319 370 371
f 319 371 372
f 319 372 373
f 319 373 320
f 320 373 374
f 320 374 321
f 321 374 344
f 322 375 376
f 322 376 377
f 322 377 378
f 322 378 323
f 323 378 379
f 323 379 380
f 323 380 324
f 324 380 381
f 324 381 382
f 324 382 383
f 324 383 325
f 325 383 384
f 325 384 326
f 326 384 328
f 326 328 327
f 328 384 329
f 329 384 330
f 330 384 385
f 330 385 331
f 331 385 332
f 332 385 386
f 332 386 387
f 332 387 388
f 332 388 389
f 332 389 390
f 332 390 391
f 332 391 333
f 333 391 390
f 333 390 392
f 333 392 335
f 334 335 392
f 334 392 342
f 336 341 337
f 337 341 340
f 337 340 393
f 337 393 338
f 338 394 339
f 338 393 395
f 338 395 394
f 339 396 397
f 339 394 396
f 340 342 398
f 340 398 399
f 340 399 400
f 340 400 401
f 340 401 393
f 342 392 402
f 342 402 398
f 343 344 345
f 344 374 403
f 344 403 404
f 344 404 345
f 345 404 405
f 345 405 406
f 345 406 346
f 346 406 407
f 346 407 408
f 346 408 347
f 347 408 348
f 348 408 349
f 349 408 407
f 349 407 351
f 349 351 350
f 351 407 352
f 352 407 409
f 352 409 410
f 352 410 353
f 353 410 411
f 353 411 412
f 353 412 361
f 353 361 360
f 353 360 359
f 354 358 414
f 354 414 413
f 356 363 357
f 357 363 358
f 358 363 415
f 358 415 416
f 358 416 414
f 361 417 362
f 361 412 417
f 362 417 418
f 362 418 419
f 362 419 420
f 362 420 363
f 363 420 421
f 363 421 422
f 363 422 423
f 363 423 415
f 364 424 425
f 364 425 426
f 364 426 423
f 364 423 365
f 365 423 366
f 366 423 422
f 366 422 427
f 366 427 368
f 366 368 367
f 368 427 369
f 369 427 428
f 369 428 370
f 370 428 371
f 371 419 418
f 371 418 372
f 371 428 419
f 372 418 429
f 372 429 373
f 373 429 430
f 373 430 431
f 373 431 374
f 374 431 430
f 374 430 403
f 375 432 433
f 375 433 434
f 375 434 435
f 375 435 376
f 376 435 377
f 377 435 436
f 377 436 437
f 377 437 438
f 377 438 378
f 378 439 440
f 378 440 379
f 378 438 439
f 379 440 381
f 379 381 380
f 381 440 441
f 381 441 442
f 381 442 382
f 382 385 383
f 382 442 385
f 383 385 384
f 385 442 441
f 385 441 386
f 386 441 387
f 387 441 388
f 388 441 443
f 388 443 444
f 388 444 445
f 388 445 446
f 388 446 389
f 389 446 402
f 389 402 390
f 390 402 392
f 393 401 447
f 393 447 395
f 394 395 448
f 394 448 396
f 395 447 449
f 395 449 448
f 396 448 450
f 396 450 397
f 397 450 448
f 397 448 451
f 397 451 452
f 397 452 453
f 398 454 399
f 398 402 455
f 398 455 445
f 398 445 454
f 399 454 456
f 399 456 457
f 399 457 400
f 400 458 401
f 400 457 458
f 401 458 447
f 402 446 445
f 402 445 455
f 403 430 459
f 403 459 405
f 403 405 404
f 405 409 407
f 405 407 406
f 405 459 409
f 409 459 460
f 409 460 411
f 409 411 410
f 411 460 461
f 411 461 412
f 412 461 417
f 413 414 416
f 413 416 462
f 415 423 425
f 415 425 463
f 415 463 416
f 416 463 464
f 416 464 465
f 416 465 462
f 417 429 418
f 417 461 429
f 419 428 420
f 420 428 421
f 421 428 422
f 422 428 427
f 423 426 425
f 424 466 467
f 424 467 464
f 424 464 463
f 424 463 468
f 424 468 425
f 424 469 470
f 424 470 466
f 425 468 463
f 429 461 430
f 430 461 459
f 432 471 472
f 432 472 473
f 432 473 474
f 432 474 433
f 433 474 435
f 433 435 434
f 435 475 436
f 435 474 476
f 435 476 475
f 436 475 477
f 436 477 437
f 437 478 438
f 437 477 478
f 438 478 479
f 438 479 480
f 438 480 439
f 439 480 443
f 439 443 441
f 439 441 440
f 443 480 479
f 443 479 444
f 444 479 478
f 444 478 481
f 444 481 445
f 445 481 454
f 447 458 449
f 448 449 476
f 448 476 451
f 449 458 482
f 449 482 476
f 451 483 484
f 451 484 452
f 451 476 473
f 451 473 483
f 452 484 453
f 453 484 469
f 454 477 456
f 454 481 477
f 456 477 475
f 456 475 457
f 457 475 485
f 457 485 458
f 458 485 482
f 459 461 460
f 462 465 486
f 464 467 466
f 464 466 465
f 465 466 487
f 465 487 488
f 465 488 489
f 465 489 490
f 465 490 486
f 466 470 487
f 469 484 491
f 469 491 492
f 469 492 493
f 469 493 470
f 470 488 487
f 470 493 494
f 470 494 495
f 470 495 489
f 470 489 488
f 471 496 497
f 471 497 483
f 471 483 472
f 472 483 473
f 473 476 474
f 475 476 485
f 476 482 485
f 477 481 478
f 483 497 491
f 483 491 484
f 491 497 492
f 492 497 493
f 493 497 498
f 493 498 494
f 494 499 500
f 494 500 495
f 494 498 501
f 494 501 502
f 494 502 499
f 496 503 497
f 497 501 498
f 497 503 502
f 497 502 501

