# https://github.com/mikedh/trimesh
v 0.48498148 -0.00165539 -0.16123948
v 0.48498148 0.00165417 -0.16123948
v 0.49119967 -0.00096662 -0.16069138
v 0.48498148 -0.00518881 -0.15499729
v 0.47748473 -0.00123869 -0.16095021
v 0.48498148 0.00518414 -0.15499729
v 0.49119967 0.00096539 -0.16069138
v 0.47748473 0.00123746 -0.16095021
v 0.50140840 -0.00144532 -0.15163261
v 0.49470592 -0.00284009 -0.15498206
v 0.47448218 -0.00335667 -0.15568241
v 0.49499649 -0.00609455 -0.14499456
v 0.48498148 -0.00742733 -0.14499456
v 0.47498584 -0.00740667 -0.14499456
v 0.44499892 -0.00767529 -0.13499184
v 0.43498391 -0.00594991 -0.13499184
v 0.44590938 -0.00276432 -0.14517726
v 0.43498391 -0.00191713 -0.14179735
v 0.44984177 -0.00009188 -0.15004921
v 0.48498148 0.00742610 -0.14499456
v 0.49499649 0.00609677 -0.14499456
v 0.49470592 0.00283886 -0.15498206
v 0.47448218 0.00339333 -0.15568241
v 0.44499892 0.00767406 -0.13499184
v 0.47498584 0.00742266 -0.14499456
v 0.50140840 0.00144754 -0.15163261
v 0.44984177 0.00009409 -0.15004921
v 0.43498391 0.00191590 -0.14179735
v 0.44590938 0.00276310 -0.14517726
v 0.43498391 0.00594868 -0.13499184
v 0.50241572 -0.00247504 -0.14499456
v 0.49499649 -0.00590514 -0.13499184
v 0.48498148 -0.00772695 -0.13499184
v 0.47498584 -0.00853626 -0.13499184
v 0.46499020 -0.00876700 -0.13499184
v 0.45499456 -0.00848460 -0.13499184
v 0.30451757 -0.01579250 -0.04501300
v 0.30451757 -0.01275156 -0.05500050
v 0.30451757 -0.01034774 -0.06049667
v 0.42928872 -0.00059124 -0.14042711
v 0.48498148 0.00772572 -0.13499184
v 0.46499020 0.00869001 -0.13499184
v 0.47498584 0.00850404 -0.13499184
v 0.49499649 0.00590736 -0.13499184
v 0.50241572 0.00247726 -0.14499456
v 0.45499456 0.00843516 -0.13499184
v 0.30451757 0.01275378 -0.05500050
v 0.30451757 0.01291909 -0.05452853
v 0.30451757 0.01579128 -0.04501300
v 0.42928872 0.00059346 -0.14042711
v 0.30451757 0.01034651 -0.06049667
v 0.30451757 0.01050149 -0.06020740
v 0.50216389 -0.00227185 -0.13499184
v 0.50109845 -0.00117670 -0.12867352
v 0.49489963 -0.00294685 -0.12520227
v 0.39765522 -0.00923537 -0.00570245
v 0.39300609 -0.01057503 -0.00570245
v 0.48498148 -0.00682465 -0.12498912
v 0.47498584 -0.00857414 -0.12498912
v 0.46499020 -0.00926636 -0.12498912
v 0.30451757 -0.01719761 -0.03502550
v 0.30451757 -0.00494430 -0.06603852
v 0.30767509 -0.00157619 -0.07115407
v 0.48498148 0.00682343 -0.12498912
v 0.47498584 0.00857636 -0.12498912
v 0.46499020 0.00926514 -0.12498912
v 0.30451757 0.01715161 -0.03502550
v 0.30451757 0.01719638 -0.03438606
v 0.49489963 0.00294562 -0.12520227
v 0.50109845 0.00117891 -0.12867352
v 0.50216389 0.00227407 -0.13499184
v 0.39252180 0.01059791 -0.00570245
v 0.39751962 0.00923414 -0.00570245
v 0.30451757 0.01587049 -0.04454103
v 0.30767509 0.00157496 -0.07115407
v 0.30451757 0.00499817 -0.06600806
v 0.40449333 -0.00422797 -0.00570245
v 0.39265740 -0.01065769 -0.00570245
v 0.38500571 -0.01213855 -0.00570245
v 0.37501007 -0.01358154 -0.00570245
v 0.36501443 -0.01449072 -0.00570245
v 0.36501443 -0.01457337 -0.02500755
v 0.30451757 -0.01760743 -0.02500755
v 0.30451757 0.00494651 -0.06603852
v 0.38500571 0.01206501 -0.00570245
v 0.38560623 0.01195825 -0.00570245
v 0.36501443 0.01448949 -0.00570245
v 0.36571181 0.01442750 -0.00570245
v 0.37501007 0.01356998 -0.00570245
v 0.37570745 0.01347699 -0.00570245
v 0.30451757 0.01757521 -0.02500755
v 0.36501443 0.01457215 -0.02500755
v 0.39808139 0.00885187 -0.00570245
v 0.40449333 0.00422674 -0.00570245
v 0.36429769 -0.01452516 -0.00570245
v 0.35501879 -0.01494875 -0.00570245
v 0.30451757 -0.01720449 -0.01500483
v 0.35501879 0.01502674 -0.01500483
v 0.35501879 0.01494753 -0.00570245
v 0.30451757 0.01722049 -0.01500483
v 0.35430205 -0.01496597 -0.00570245
v 0.30451757 -0.01612656 -0.00570245
v 0.30451757 0.01615977 -0.00570245
f 1 2 7
f 1 7 3
f 1 3 4
f 1 4 5
f 1 5 8
f 1 8 2
f 2 6 7
f 2 8 6
f 3 7 26
f 3 26 9
f 3 9 10
f 3 10 4
f 4 11 5
f 4 10 12
f 4 12 13
f 4 13 14
f 4 14 15
f 4 15 11
f 5 11 16
f 5 16 17
f 5 17 18
f 5 18 19
f 5 19 27
f 5 27 8
f 6 20 21
f 6 21 22
f 6 22 7
f 6 8 23
f 6 23 24
f 6 24 25
f 6 25 20
f 7 22 26
f 8 27 28
f 8 28 29
f 8 29 30
f 8 30 23
f 9 26 45
f 9 45 31
f 9 31 12
f 9 12 10
f 11 15 16
f 12 31 32
f 12 32 33
f 12 33 13
f 13 33 34
f 13 34 35
f 13 35 14
f 14 35 36
f 14 36 15
f 15 36 37
f 15 37 38
f 15 38 16
f 16 18 17
f 16 38 39
f 16 39 18
f 18 40 19
f 18 39 40
f 19 40 50
f 19 50 27
f 20 41 21
f 20 25 42
f 20 42 43
f 20 43 41
f 21 44 45
f 21 45 26
f 21 26 22
f 21 41 44
f 23 30 24
f 24 46 25
f 24 30 47
f 24 47 48
f 24 48 49
f 24 49 46
f 25 46 42
f 27 50 28
f 28 30 29
f 28 50 51
f 28 51 30
f 30 51 52
f 30 52 47
f 31 45 71
f 31 71 53
f 31 53 32
f 32 53 54
f 32 54 55
f 32 55 56
f 32 56 57
f 32 57 58
f 32 58 33
f 33 58 59
f 33 59 34
f 34 59 60
f 34 60 35
f 35 60 61
f 35 61 36
f 36 61 37
f 37 61 83
f 37 83 97
f 37 97 102
f 37 102 103
f 37 103 100
f 37 100 91
f 37 91 68
f 37 68 67
f 37 67 74
f 37 74 49
f 37 49 48
f 37 48 47
f 37 47 52
f 37 52 51
f 37 51 76
f 37 76 84
f 37 84 62
f 37 62 39
f 37 39 38
f 39 62 40
f 40 62 63
f 40 63 75
f 40 75 50
f 41 64 44
f 41 43 65
f 41 65 64
f 42 66 43
f 42 46 67
f 42 67 68
f 42 68 66
f 43 66 65
f 44 69 70
f 44 70 71
f 44 71 45
f 44 64 72
f 44 72 73
f 44 73 69
f 46 49 74
f 46 74 67
f 50 75 76
f 50 76 51
f 53 71 70
f 53 70 54
f 54 77 56
f 54 56 55
f 54 70 94
f 54 94 77
f 56 77 94
f 56 94 93
f 56 93 73
f 56 73 72
f 56 72 86
f 56 86 85
f 56 85 90
f 56 90 89
f 56 89 88
f 56 88 87
f 56 87 99
f 56 99 103
f 56 103 102
f 56 102 101
f 56 101 96
f 56 96 95
f 56 95 81
f 56 81 80
f 56 80 79
f 56 79 78
f 56 78 57
f 57 78 58
f 58 78 79
f 58 79 59
f 59 79 80
f 59 80 81
f 59 81 60
f 60 81 82
f 60 82 83
f 60 83 61
f 62 84 75
f 62 75 63
f 64 65 85
f 64 85 86
f 64 86 72
f 65 66 87
f 65 87 88
f 65 88 89
f 65 89 90
f 65 90 85
f 66 68 91
f 66 91 92
f 66 92 87
f 69 73 70
f 70 73 93
f 70 93 94
f 75 84 76
f 81 95 83
f 81 83 82
f 83 95 96
f 83 96 97
f 87 92 98
f 87 98 91
f 87 91 99
f 91 100 99
f 91 98 92
f 96 101 97
f 97 101 102
f 99 100 103

