# https://github.com/mikedh/trimesh
v 0.30451757 -0.01612928 -0.00570245
v 0.30451757 -0.01604394 -0.00502371
v 0.30451757 0.01615987 -0.00570245
v 0.35500628 -0.01495036 -0.00570245
v 0.35500628 -0.01494404 -0.00499286
v 0.35500628 -0.01467854 0.00500314
v 0.43498933 -0.00939395 0.11498999
v 0.43498933 -0.00897990 0.12498599
v 0.30451757 -0.01458689 0.00452494
v 0.43498933 -0.00768404 0.13499741
v 0.35500628 0.01467752 0.00500314
v 0.35500628 0.01494302 -0.00499286
v 0.35500628 0.01494934 -0.00570245
v 0.30451757 0.01608085 -0.00502371
v 0.43498933 0.00897888 0.12498599
v 0.43498933 0.00939293 0.11498999
v 0.36431131 -0.01452683 -0.00570245
v 0.36500803 -0.01448891 -0.00499286
v 0.36500803 -0.01434668 0.00500314
v 0.44499108 -0.00866384 0.11498999
v 0.44499108 -0.00860695 0.12498599
v 0.36500803 -0.01449207 -0.00570245
v 0.44499108 -0.00800642 0.13499741
v 0.30451757 -0.01247874 0.01452094
v 0.44499108 -0.00589511 0.14499341
v 0.43502030 -0.00330022 0.14534821
v 0.42452309 -0.00402085 0.13544476
v 0.30451757 -0.00919166 0.02700051
v 0.30451757 -0.01057603 0.02197166
v 0.36500803 0.01434882 0.00500314
v 0.36500803 0.01448789 -0.00499286
v 0.36500803 0.01449105 -0.00570245
v 0.30451757 0.01451633 0.00500314
v 0.43498933 0.00753447 0.13499741
v 0.44499108 0.00791690 0.13499741
v 0.44499108 0.00860593 0.12498599
v 0.44499108 0.00866282 0.11498999
v 0.44499108 -0.00820238 0.10499398
v 0.45499283 -0.00689072 0.12498599
v 0.37500978 -0.01358180 -0.00570245
v 0.38499606 -0.01213739 -0.00570245
v 0.45499283 -0.00616061 0.13499741
v 0.45564309 -0.00324017 0.14537907
v 0.45273238 -0.00182420 0.15173453
v 0.44499108 -0.00212762 0.15188880
v 0.43836454 -0.00101192 0.15077814
v 0.42754221 -0.00191902 0.14224759
v 0.30451757 -0.00404614 0.03474433
v 0.36570475 0.01442783 -0.00570245
v 0.30451757 0.01231652 0.01501457
v 0.42452309 0.00397558 0.13544476
v 0.43502030 0.00319490 0.14534821
v 0.44499108 0.00582456 0.14499341
v 0.30451757 0.01046122 0.02223390
v 0.30501300 0.00913375 0.02732446
v 0.30451757 0.00902313 0.02723190
v 0.45499283 0.00614062 0.13499741
v 0.45499283 0.00688970 0.12498599
v 0.44499108 0.00820136 0.10499398
v 0.37570649 0.01347648 -0.00570245
v 0.37500978 0.01357130 -0.00570245
v 0.39262897 -0.01065820 -0.00570245
v 0.39298508 -0.01057603 -0.00570245
v 0.39762986 -0.00923275 -0.00570245
v 0.45499283 -0.00603418 0.11498999
v 0.46268767 -0.00281664 0.12498599
v 0.46203738 -0.00227617 0.13499741
v 0.46086073 -0.00112254 0.14230931
v 0.45273238 0.00182318 0.15173453
v 0.44499108 0.00214557 0.15188880
v 0.43836454 0.00103618 0.15077814
v 0.30868238 -0.00089181 0.04059075
v 0.30451757 -0.00371111 0.03514540
v 0.42754221 0.00181370 0.14224759
v 0.45564309 0.00322651 0.14537907
v 0.30451757 0.00370693 0.03514540
v 0.46086073 0.00112152 0.14230931
v 0.46203738 0.00227515 0.13499741
v 0.46268767 0.00281562 0.12498599
v 0.45499283 0.00603316 0.11498999
v 0.39750597 0.00923489 -0.00570245
v 0.39250511 0.01059713 -0.00570245
v 0.38558438 0.01195621 -0.00570245
v 0.38499606 0.01206367 -0.00570245
v 0.40448862 -0.00422629 -0.00570245
v 0.45267045 -0.00243421 0.09499799
v 0.45562762 -0.00343613 0.10487058
v 0.46175873 -0.00201700 0.11498999
v 0.30868238 0.00088447 0.04059075
v 0.46175873 0.00201914 0.11498999
v 0.45562762 0.00343827 0.10487058
v 0.39806336 0.00885246 -0.00570245
v 0.40448862 0.00422527 -0.00570245
v 0.46061301 -0.00084756 0.10812545
v 0.46061301 0.00084654 0.10812545
v 0.45267045 0.00238894 0.09499799
f 1 2 9
f 1 9 24
f 1 24 29
f 1 29 28
f 1 28 48
f 1 48 73
f 1 73 76
f 1 76 56
f 1 56 54
f 1 54 50
f 1 50 33
f 1 33 14
f 1 14 3
f 1 3 13
f 1 13 32
f 1 32 49
f 1 49 61
f 1 61 60
f 1 60 84
f 1 84 83
f 1 83 82
f 1 82 81
f 1 81 92
f 1 92 93
f 1 93 85
f 1 85 64
f 1 64 63
f 1 63 62
f 1 62 41
f 1 41 40
f 1 40 22
f 1 22 17
f 1 17 4
f 1 4 5
f 1 5 6
f 1 6 7
f 1 7 8
f 1 8 2
f 2 8 10
f 2 10 9
f 3 11 12
f 3 12 13
f 3 14 15
f 3 15 16
f 3 16 11
f 4 17 18
f 4 18 5
f 5 18 19
f 5 19 7
f 5 7 6
f 7 20 21
f 7 21 8
f 7 19 18
f 7 18 22
f 7 22 20
f 8 21 23
f 8 23 10
f 9 10 24
f 10 23 25
f 10 25 26
f 10 26 27
f 10 27 28
f 10 28 29
f 10 29 24
f 11 16 12
f 12 16 30
f 12 30 31
f 12 31 13
f 13 31 32
f 14 33 34
f 14 34 15
f 15 34 35
f 15 35 36
f 15 36 16
f 16 36 37
f 16 37 32
f 16 32 31
f 16 31 30
f 17 22 18
f 20 38 39
f 20 39 21
f 20 22 40
f 20 40 41
f 20 41 38
f 21 39 23
f 23 39 42
f 23 42 25
f 25 42 43
f 25 43 44
f 25 44 45
f 25 45 26
f 26 45 46
f 26 46 47
f 26 47 27
f 27 47 28
f 28 47 48
f 32 37 49
f 33 50 34
f 34 51 52
f 34 52 53
f 34 53 35
f 34 50 54
f 34 54 55
f 34 55 56
f 34 56 51
f 35 53 57
f 35 57 58
f 35 58 36
f 36 58 37
f 37 58 59
f 37 59 60
f 37 60 61
f 37 61 49
f 38 62 63
f 38 63 64
f 38 64 65
f 38 65 39
f 38 41 62
f 39 65 66
f 39 66 42
f 42 66 67
f 42 67 68
f 42 68 43
f 43 68 44
f 44 68 77
f 44 77 69
f 44 69 70
f 44 70 45
f 45 70 71
f 45 71 46
f 46 71 74
f 46 74 47
f 47 72 73
f 47 73 48
f 47 74 89
f 47 89 72
f 51 74 52
f 51 56 74
f 52 71 70
f 52 70 53
f 52 74 71
f 53 70 69
f 53 69 75
f 53 75 57
f 54 56 55
f 56 76 74
f 57 75 77
f 57 77 78
f 57 78 79
f 57 79 58
f 58 79 80
f 58 80 59
f 59 80 81
f 59 81 82
f 59 82 83
f 59 83 84
f 59 84 60
f 64 85 86
f 64 86 87
f 64 87 65
f 65 87 88
f 65 88 66
f 66 88 90
f 66 90 79
f 66 79 78
f 66 78 67
f 67 78 77
f 67 77 68
f 69 77 75
f 72 89 76
f 72 76 73
f 74 76 89
f 79 90 80
f 80 90 91
f 80 91 81
f 81 91 92
f 85 93 95
f 85 95 94
f 85 94 86
f 86 94 87
f 87 94 88
f 88 94 95
f 88 95 90
f 90 95 91
f 91 95 96
f 91 96 92
f 92 96 93
f 93 96 95

