# https://github.com/mikedh/trimesh
v -0.32685244 0.00283165 -0.11064359
v -0.32685244 0.00436883 -0.11012360
v -0.32685244 -0.00282009 -0.11062734
v -0.36500353 -0.00499295 -0.10844991
v -0.36500353 0.00499295 -0.10838491
v -0.32685244 0.00711958 -0.10906739
v -0.32685244 -0.00733918 -0.10896989
v -0.36500353 -0.01499041 -0.10443627
v -0.37500697 -0.00499295 -0.10669496
v -0.37500697 0.00499295 -0.10671121
v -0.36500353 0.01499041 -0.10435502
v -0.32685244 0.00761656 -0.10874239
v -0.35500008 0.01499041 -0.10424128
v -0.32685244 -0.01329142 -0.10476127
v -0.35500008 -0.01499041 -0.10463127
v -0.36500353 -0.02064216 -0.10065013
v -0.37071240 -0.02020296 -0.10019515
v -0.37443781 -0.01538338 -0.10237259
v -0.38501042 -0.01266730 -0.10164136
v -0.39259923 -0.01124570 -0.10071513
v -0.38501042 -0.00499295 -0.10445252
v -0.38501042 0.00499295 -0.10445252
v -0.39259923 0.01124570 -0.10071513
v -0.38501042 0.01266730 -0.10164136
v -0.37443781 0.01538338 -0.10238884
v -0.37071240 0.02020296 -0.10019515
v -0.36500353 0.02061904 -0.10061763
v -0.35500008 0.02056125 -0.10058514
v -0.32685244 0.01329142 -0.10476127
v -0.32685244 -0.03817528 -0.07924952
v -0.35500008 -0.02059593 -0.10060139
v -0.33501041 -0.03919236 -0.07864829
v -0.36500353 -0.02497632 -0.09499530
v -0.37500697 -0.02898686 -0.08843050
v -0.38501042 -0.02833963 -0.08763427
v -0.39501387 -0.02746124 -0.08664306
v -0.39501387 -0.02245673 -0.09231413
v -0.40332708 -0.02128939 -0.09120917
v -0.39556578 -0.01473614 -0.09772522
v -0.40600041 -0.01598438 -0.09372784
v -0.39925671 -0.00903817 -0.09978891
v -0.39556578 -0.00542059 -0.10160886
v -0.40122291 -0.00236934 -0.10045514
v -0.40122291 0.00236934 -0.10045514
v -0.39556578 0.00542059 -0.10160886
v -0.39925671 0.00903817 -0.09978891
v -0.39556578 0.01473614 -0.09772522
v -0.40600041 0.01598438 -0.09372784
v -0.40332708 0.02128939 -0.09120917
v -0.39501387 0.02246828 -0.09233038
v -0.39501387 0.02747279 -0.08674055
v -0.38501042 0.02835118 -0.08769927
v -0.36500353 0.02490697 -0.09499530
v -0.33501041 0.03919236 -0.07864829
v -0.37500697 0.02898686 -0.08843050
v -0.32685244 0.03909990 -0.07825830
v -0.32685244 0.01451655 -0.10362380
v -0.32685244 -0.03909990 -0.07825830
v -0.38501042 -0.03149489 -0.08262942
v -0.33501041 -0.04175818 -0.07364344
v -0.42498970 -0.05153605 -0.04226562
v -0.39501387 -0.03099791 -0.08165445
v -0.40187830 -0.03048937 -0.08076072
v -0.40594867 -0.02542707 -0.08537559
v -0.41000178 -0.01998337 -0.08999045
v -0.41498625 -0.01306027 -0.09172915
v -0.42091936 -0.01074872 -0.09042919
v -0.40474135 -0.00542059 -0.09848895
v -0.41498625 -0.00499295 -0.09437782
v -0.42238536 -0.00499295 -0.09111167
v -0.42238536 0.00499295 -0.09111167
v -0.41498625 0.00499295 -0.09437782
v -0.40474135 0.00542059 -0.09848895
v -0.42091936 0.01074872 -0.09042919
v -0.41498625 0.01306027 -0.09172915
v -0.41000178 0.01998337 -0.08999045
v -0.40596592 0.02542707 -0.08539184
v -0.40193003 0.03051249 -0.08077697
v -0.39501387 0.03106726 -0.08173570
v -0.33501041 0.04175818 -0.07364344
v -0.38501042 0.03154112 -0.08269442
v -0.42498970 0.05153605 -0.04226562
v -0.32685244 0.03957377 -0.07733208
v -0.32685244 -0.04130743 -0.07325345
v -0.33501041 -0.04480943 -0.06499869
v -0.41498625 -0.05589332 -0.03498583
v -0.42498970 -0.05523453 -0.03498583
v -0.43178517 -0.05073857 -0.04107940
v -0.40855300 -0.02956475 -0.07941201
v -0.42978448 -0.02993460 -0.06990605
v -0.43499315 -0.02898686 -0.06876858
v -0.43043986 -0.02024920 -0.08022449
v -0.43425152 -0.01453966 -0.08168695
v -0.44089174 -0.01089897 -0.08046824
v -0.43499315 -0.00499295 -0.08511560
v -0.43499315 0.00499295 -0.08519685
v -0.44099522 0.01097987 -0.08051699
v -0.43425152 0.01458589 -0.08175195
v -0.43043986 0.02024920 -0.08022449
v -0.43499315 0.02898686 -0.06876858
v -0.42978448 0.02993460 -0.06990605
v -0.40858752 0.02956475 -0.07941201
v -0.43178517 0.05073857 -0.04107940
v -0.33501041 0.04480943 -0.06499869
v -0.32685244 0.04187376 -0.07166100
v -0.32685244 0.04130743 -0.07325345
v -0.42498970 0.05523453 -0.03498583
v -0.41498625 0.05589332 -0.03498583
v -0.32685244 -0.04390793 -0.06499869
v -0.32685244 -0.04500591 -0.05684144
v -0.41498625 -0.05870186 -0.02500863
v -0.42498970 -0.05812397 -0.02500863
v -0.43499315 -0.05521142 -0.02500863
v -0.43506214 -0.05221796 -0.03508333
v -0.43845987 -0.04913203 -0.03847948
v -0.46074343 -0.03033912 -0.05055287
v -0.44929120 -0.02963410 -0.05949011
v -0.44263372 -0.03119439 -0.06178129
v -0.43425152 -0.02333512 -0.07510590
v -0.44558302 -0.02704516 -0.06506369
v -0.44499660 -0.02156678 -0.07141726
v -0.45005009 -0.02004115 -0.07003605
v -0.43709734 -0.01755624 -0.07851829
v -0.44232327 -0.00499295 -0.08141071
v -0.44453093 -0.01453966 -0.07634085
v -0.45236123 -0.01499041 -0.07153100
v -0.47195417 -0.01208942 -0.06137505
v -0.45976031 -0.00943113 -0.06984105
v -0.44239226 0.00499295 -0.08144321
v -0.43709734 0.01764870 -0.07851829
v -0.45981207 0.00956982 -0.06987355
v -0.47214389 0.01208942 -0.06137505
v -0.45241296 0.01499041 -0.07153100
v -0.45005009 0.02004115 -0.07003605
v -0.44499660 0.02156678 -0.07141726
v -0.43425152 0.02333512 -0.07510590
v -0.44558302 0.02704516 -0.06506369
v -0.44263372 0.03119439 -0.06178129
v -0.44929120 0.02963410 -0.05949011
v -0.46074343 0.03033912 -0.05055287
v -0.43845987 0.04913203 -0.03847948
v -0.43506214 0.05221796 -0.03508333
v -0.32685244 0.04524863 -0.05498899
v -0.32685244 0.04390793 -0.06499869
v -0.41498625 0.05870186 -0.02500863
v -0.43499315 0.05521142 -0.02500863
v -0.42498970 0.05812397 -0.02500863
v -0.32685244 -0.04524863 -0.05498899
v -0.40500006 -0.05773101 -0.01501518
v -0.41498625 -0.05903704 -0.01501518
v -0.42498970 -0.05855161 -0.01501518
v -0.43499315 -0.05571996 -0.01501518
v -0.44230604 -0.05153605 -0.02500863
v -0.44111598 -0.05075012 -0.03181718
v -0.47031569 -0.03017731 -0.04044567
v -0.46740088 -0.02866324 -0.04712422
v -0.47307527 -0.02200597 -0.05227532
v -0.46453783 -0.02489541 -0.05474525
v -0.45498282 -0.02806224 -0.05754016
v -0.45403421 -0.02247984 -0.06459246
v -0.46167478 -0.02111603 -0.06098507
v -0.46834949 -0.01874669 -0.05893762
v -0.46472755 -0.00566330 -0.06793986
v -0.46120909 -0.00277386 -0.07068603
v -0.47352368 -0.00499295 -0.06254502
v -0.47973272 -0.01972910 -0.04972415
v -0.48230258 -0.01307183 -0.05212907
v -0.47852540 -0.00499295 -0.05875888
v -0.46120909 0.00290100 -0.07068603
v -0.46472755 0.00574421 -0.06795610
v -0.47366166 0.00499295 -0.06254502
v -0.47866338 0.00499295 -0.05898637
v -0.48256129 0.01310650 -0.05242157
v -0.47593832 0.01592659 -0.05568772
v -0.46834949 0.01874669 -0.05893762
v -0.46167478 0.02111603 -0.06098507
v -0.45403421 0.02247984 -0.06459246
v -0.46453783 0.02489541 -0.05474525
v -0.45498282 0.02806224 -0.05754016
v -0.47307527 0.02200597 -0.05227532
v -0.47973272 0.01976377 -0.04972415
v -0.46740088 0.02866324 -0.04712422
v -0.44111598 0.05075012 -0.03181718
v -0.47031569 0.03017731 -0.04044567
v -0.32685244 0.04506370 -0.05313655
v -0.40500006 0.05773101 -0.01501518
v -0.42498970 0.05855161 -0.01501518
v -0.41498625 0.05903704 -0.01501518
v -0.44230604 0.05153605 -0.02500863
v -0.43499315 0.05571996 -0.01501518
v -0.32685244 -0.04424310 -0.04499554
v -0.40500006 -0.05591644 -0.00500547
v -0.41498625 -0.05736116 -0.00500547
v -0.42498970 -0.05670237 -0.00500547
v -0.43499315 -0.05382448 -0.00500547
v -0.44125393 -0.05087726 -0.00500547
v -0.44263372 -0.05177876 -0.01501518
v -0.47804248 -0.02884817 -0.02500863
v -0.47664544 -0.02805068 -0.03498583
v -0.48223358 -0.02158990 -0.04304560
v -0.47502419 -0.02512657 -0.04507679
v -0.50082618 -0.01094520 -0.03160594
v -0.49208182 -0.01223967 -0.04226562
v -0.48921874 -0.00499295 -0.04918791
v -0.48421702 -0.00499295 -0.05375403
v -0.48440674 0.00499295 -0.05398152
v -0.48940846 0.00499295 -0.04928541
v -0.49201283 0.01220499 -0.04239561
v -0.48223358 0.02158990 -0.04304560
v -0.47502419 0.02512657 -0.04507679
v -0.50082618 0.01094520 -0.03157344
v -0.47664544 0.02805068 -0.03498583
v -0.32685244 0.04424310 -0.04499554
v -0.41498625 0.05736116 -0.00500547
v -0.40500006 0.05591644 -0.00500547
v -0.42498970 0.05670237 -0.00500547
v -0.44263372 0.05177876 -0.01501518
v -0.47804248 0.02884817 -0.02500863
v -0.44125393 0.05087726 -0.00500547
v -0.43499315 0.05382448 -0.00500547
v -0.32685244 -0.02773862 0.02310619
v -0.40587968 -0.05181343 0.00500423
v -0.41498625 -0.05324660 0.00498798
v -0.32685244 -0.02725320 0.02499114
v -0.32685244 -0.02447934 0.03313214
v -0.42476550 -0.05221796 0.00554046
v -0.43499315 -0.05109686 0.00203057
v -0.44009838 -0.05007977 0.00012937
v -0.48963270 -0.01962508 -0.01161903
v -0.48576927 -0.02305773 -0.01496643
v -0.47759405 -0.02860546 -0.01501518
v -0.49035707 -0.02029543 -0.01828133
v -0.48499316 -0.02417883 -0.02500863
v -0.49018461 -0.02014517 -0.03048472
v -0.48533809 -0.02252607 -0.03428711
v -0.48890829 -0.01889694 -0.03716327
v -0.49541053 -0.01636579 -0.02500863
v -0.50118840 -0.01137284 -0.02500863
v -0.50305110 -0.00499295 -0.02500863
v -0.50153333 -0.00499295 -0.03303589
v -0.49868754 -0.00499295 -0.03802449
v -0.49370307 -0.00499295 -0.04419931
v -0.49365133 0.00499295 -0.04429681
v -0.49865305 0.00499295 -0.03800824
v -0.48889107 0.01887382 -0.03716327
v -0.48533809 0.02252607 -0.03428711
v -0.50153333 0.00499295 -0.03300339
v -0.50305110 0.00499295 -0.02500863
v -0.50118840 0.01137284 -0.02500863
v -0.49541053 0.01636579 -0.02500863
v -0.49018461 0.02014517 -0.03048472
v -0.32685244 0.02725320 0.02499114
v -0.41498625 0.05324660 0.00498798
v -0.40587968 0.05181343 0.00500423
v -0.32685244 0.02361250 0.03511459
v -0.42476550 0.05221796 0.00554046
v -0.43499315 0.05109686 0.00203057
v -0.47759405 0.02860546 -0.01501518
v -0.48499316 0.02417883 -0.02500863
v -0.49035707 0.02029543 -0.01828133
v -0.44009838 0.05007977 0.00012937
v -0.48576927 0.02305773 -0.01496643
v -0.48963270 0.01960196 -0.01161903
v -0.40977758 -0.05006821 0.01007408
v -0.32685244 -0.02361250 0.03511459
v -0.32685244 -0.02116226 0.04052567
v -0.41498625 -0.05024158 0.01028532
v -0.42129880 -0.05025314 0.01030157
v -0.42795625 -0.04944409 0.00924535
v -0.44065028 -0.04061397 0.01051282
v -0.46985000 -0.01990246 0.00991158
v -0.48012942 -0.02009894 0.00012937
v -0.48231983 -0.02168236 -0.00500547
v -0.43499315 -0.04754862 0.00703542
v -0.48770100 -0.01577634 -0.00419300
v -0.49237502 -0.01295625 -0.00698791
v -0.50075722 -0.01087585 -0.01836258
v -0.49040881 -0.02033010 -0.02500863
v -0.50149882 -0.00499295 -0.01675387
v -0.50149882 0.00499295 -0.01686762
v -0.50075722 0.01087585 -0.01850882
v -0.49040881 0.02033010 -0.02500863
v -0.41498625 0.05024158 0.01028532
v -0.40977758 0.05006821 0.01007408
v -0.42129880 0.05025314 0.01030157
v -0.32685244 0.02073462 0.04133815
v -0.42795625 0.04944409 0.00924535
v -0.48231983 0.02168236 -0.00500547
v -0.48012942 0.02009894 0.00012937
v -0.46985000 0.01990246 0.00991158
v -0.44065028 0.04061397 0.01051282
v -0.43499315 0.04754862 0.00703542
v -0.49218529 0.01293313 -0.00705291
v -0.48768374 0.01575323 -0.00424175
v -0.32685244 -0.02073462 0.04133815
v -0.32685244 -0.01835372 0.04494555
v -0.32685244 -0.01745222 0.04621301
v -0.32685244 -0.01235524 0.05188409
v -0.42476550 -0.04566471 0.01342148
v -0.36500353 -0.02139341 0.04150065
v -0.37500697 -0.02109291 0.04111066
v -0.38202661 -0.02049191 0.04049318
v -0.43499315 -0.04254411 0.01212152
v -0.45029154 -0.02015673 0.02013253
v -0.45696625 -0.01756779 0.01829634
v -0.46098489 -0.01091052 0.02045752
v -0.47257507 -0.01323363 0.01202402
v -0.47554162 -0.01593815 0.00766915
v -0.48238879 -0.01499041 0.00216056
v -0.48971891 -0.00922309 -0.00032561
v -0.49903250 -0.00499295 -0.01174902
v -0.49889451 0.00499295 -0.01186277
v -0.48970169 0.00915375 -0.00039061
v -0.32685244 0.01648137 0.04746422
v -0.32685244 0.01751001 0.04621301
v -0.42476550 0.04566471 0.01342148
v -0.38202661 0.02050347 0.04049318
v -0.37500697 0.02109291 0.04112691
v -0.36500353 0.02139341 0.04150065
v -0.32685244 0.01241303 0.05198159
v -0.43499315 0.04254411 0.01212152
v -0.48237157 0.01499041 0.00222556
v -0.47561061 0.01593815 0.00773415
v -0.47269583 0.01323363 0.01202402
v -0.46098489 0.01091052 0.02045752
v -0.45696625 0.01756779 0.01829634
v -0.45029154 0.02015673 0.02013253
v -0.32685244 -0.00614873 0.05480900
v -0.36183000 -0.01054068 0.05032413
v -0.42498970 -0.03737779 0.01906006
v -0.37500697 -0.01499041 0.04517304
v -0.38521737 -0.01569544 0.04270311
v -0.38868409 -0.01949794 0.03964821
v -0.44499660 -0.01499041 0.02461740
v -0.45417219 -0.01453966 0.02143249
v -0.43250954 -0.01165022 0.03087346
v -0.45498282 -0.00499295 0.02460115
v -0.46257162 -0.00499295 0.02138374
v -0.46757334 -0.00499295 0.01857258
v -0.43918425 -0.00843716 0.02970350
v -0.47554162 -0.00506230 0.01322648
v -0.47924981 -0.00843716 0.00942410
v -0.48528636 -0.00548994 0.00519922
v -0.49075377 -0.00255426 0.00099060
v -0.49368581 -0.00553617 -0.00419300
v -0.49075377 0.00248492 0.00099060
v -0.49358231 0.00548994 -0.00424175
v -0.48528636 0.00553617 0.00524797
v -0.47935328 0.00859897 0.00950534
v -0.42498970 0.03737779 0.01906006
v -0.38868409 0.01949794 0.03964821
v -0.38521737 0.01569544 0.04276811
v -0.37500697 0.01499041 0.04523804
v -0.36174378 0.01050600 0.05030788
v -0.32685244 0.00499295 0.05536149
v -0.46757334 0.00499295 0.01857258
v -0.45417219 0.01453966 0.02143249
v -0.46257162 0.00499295 0.02138374
v -0.45498282 0.00499295 0.02460115
v -0.43918425 0.00843716 0.02970350
v -0.43250954 0.01165022 0.03087346
v -0.44499660 0.01499041 0.02461740
v -0.32685244 -0.00499295 0.05526399
v -0.36510700 -0.00535124 0.05147785
v -0.36848748 -0.00891103 0.04970665
v -0.35500008 -0.00499295 0.05276156
v -0.42681792 -0.01831905 0.02900477
v -0.39501387 -0.01306027 0.04177689
v -0.40167132 -0.01123414 0.04068817
v -0.44451368 -0.00506230 0.02838728
v -0.44087449 -0.00176834 0.03028848
v -0.48085380 -0.00176834 0.01059406
v -0.43551058 -0.00506230 0.03160469
v -0.39501387 -0.00499295 0.04453931
v -0.48085380 0.00193015 0.01059406
v -0.47561061 0.00515476 0.01322648
v -0.42681792 0.01831905 0.02900477
v -0.39501387 0.01304871 0.04177689
v -0.36841848 0.00889947 0.04970665
v -0.36505526 0.00533968 0.05146160
v -0.35500008 0.00499295 0.05271281
v -0.32685244 0.00314371 0.05534524
v -0.44087449 0.00176834 0.03028848
v -0.44451368 0.00506230 0.02838728
v -0.43551058 0.00506230 0.03160469
v -0.42498970 0.00499295 0.03500084
v -0.39501387 0.00499295 0.04452306
v -0.40170583 0.01123414 0.04068817
v -0.37198868 0.00223065 0.05058413
v -0.37198868 -0.00224221 0.05058413
v -0.38501042 -0.00499295 0.04697674
v -0.41043296 -0.00056633 0.04013569
v -0.41043296 0.00057789 0.04013569
v -0.38501042 0.00499295 0.04704174
f 1 2 6
f 1 6 12
f 1 12 29
f 1 29 57
f 1 57 56
f 1 56 83
f 1 83 106
f 1 106 105
f 1 105 144
f 1 144 143
f 1 143 185
f 1 185 213
f 1 213 252
f 1 252 255
f 1 255 286
f 1 286 315
f 1 315 314
f 1 314 320
f 1 320 355
f 1 355 382
f 1 382 363
f 1 363 328
f 1 328 298
f 1 298 297
f 1 297 296
f 1 296 295
f 1 295 266
f 1 266 265
f 1 265 225
f 1 225 224
f 1 224 221
f 1 221 191
f 1 191 148
f 1 148 110
f 1 110 109
f 1 109 84
f 1 84 58
f 1 58 30
f 1 30 14
f 1 14 7
f 1 7 3
f 1 3 4
f 1 4 5
f 1 5 2
f 2 5 6
f 3 7 4
f 4 8 9
f 4 9 10
f 4 10 5
f 4 7 8
f 5 10 11
f 5 11 6
f 6 11 13
f 6 13 12
f 7 14 15
f 7 15 8
f 8 15 16
f 8 16 17
f 8 17 18
f 8 18 19
f 8 19 9
f 9 19 20
f 9 20 21
f 9 21 10
f 10 21 22
f 10 22 23
f 10 23 24
f 10 24 11
f 11 24 25
f 11 25 26
f 11 26 27
f 11 27 28
f 11 28 13
f 12 13 28
f 12 28 29
f 14 30 31
f 14 31 15
f 15 31 16
f 16 31 32
f 16 32 33
f 16 33 34
f 16 34 35
f 16 35 17
f 17 35 36
f 17 36 37
f 17 37 38
f 17 38 39
f 17 39 19
f 17 19 18
f 19 39 20
f 20 39 40
f 20 40 41
f 20 41 21
f 21 41 42
f 21 42 43
f 21 43 44
f 21 44 22
f 22 44 45
f 22 45 46
f 22 46 23
f 23 47 24
f 23 46 48
f 23 48 47
f 24 47 26
f 24 26 25
f 26 47 49
f 26 49 50
f 26 50 51
f 26 51 52
f 26 52 27
f 27 53 54
f 27 54 28
f 27 52 55
f 27 55 53
f 28 54 56
f 28 56 57
f 28 57 29
f 30 58 31
f 31 58 32
f 32 59 34
f 32 34 33
f 32 58 60
f 32 60 61
f 32 61 59
f 34 59 62
f 34 62 35
f 35 62 36
f 36 62 63
f 36 63 38
f 36 38 37
f 38 63 64
f 38 64 65
f 38 65 39
f 39 65 40
f 40 65 66
f 40 66 41
f 41 66 67
f 41 67 68
f 41 68 43
f 41 43 42
f 43 68 69
f 43 69 70
f 43 70 71
f 43 71 44
f 44 46 45
f 44 71 72
f 44 72 73
f 44 73 46
f 46 73 74
f 46 74 75
f 46 75 48
f 47 48 76
f 47 76 49
f 48 75 76
f 49 76 77
f 49 77 78
f 49 78 51
f 49 51 50
f 51 79 52
f 51 78 79
f 52 79 55
f 53 55 54
f 54 80 56
f 54 55 81
f 54 81 82
f 54 82 80
f 55 79 81
f 56 80 83
f 58 84 60
f 59 61 62
f 60 84 85
f 60 85 86
f 60 86 87
f 60 87 61
f 61 87 88
f 61 88 63
f 61 63 62
f 63 88 89
f 63 89 64
f 64 89 90
f 64 90 65
f 65 67 66
f 65 90 91
f 65 91 92
f 65 92 67
f 67 69 68
f 67 92 93
f 67 93 94
f 67 94 95
f 67 95 70
f 67 70 69
f 70 95 96
f 70 96 71
f 71 96 74
f 71 74 72
f 72 74 73
f 74 76 75
f 74 96 97
f 74 97 98
f 74 98 99
f 74 99 76
f 76 99 100
f 76 100 101
f 76 101 77
f 77 102 78
f 77 101 102
f 78 102 103
f 78 103 82
f 78 82 79
f 79 82 81
f 80 104 105
f 80 105 106
f 80 106 83
f 80 82 107
f 80 107 108
f 80 108 104
f 82 103 107
f 84 109 85
f 85 109 110
f 85 110 111
f 85 111 86
f 86 111 112
f 86 112 87
f 87 112 113
f 87 113 114
f 87 114 88
f 88 114 115
f 88 115 116
f 88 116 117
f 88 117 118
f 88 118 91
f 88 91 90
f 88 90 89
f 91 119 92
f 91 118 120
f 91 120 121
f 91 121 119
f 92 119 121
f 92 121 122
f 92 122 123
f 92 123 93
f 93 123 94
f 94 124 95
f 94 123 125
f 94 125 126
f 94 126 127
f 94 127 128
f 94 128 124
f 95 124 96
f 96 124 129
f 96 129 97
f 97 130 98
f 97 129 131
f 97 131 132
f 97 132 133
f 97 133 134
f 97 134 130
f 98 130 99
f 99 130 134
f 99 134 135
f 99 135 136
f 99 136 100
f 100 136 135
f 100 135 137
f 100 137 138
f 100 138 103
f 100 103 101
f 101 103 102
f 103 138 139
f 103 139 140
f 103 140 141
f 103 141 142
f 103 142 107
f 104 143 144
f 104 144 105
f 104 108 145
f 104 145 143
f 107 142 146
f 107 146 147
f 107 147 108
f 108 147 145
f 110 148 111
f 111 149 150
f 111 150 151
f 111 151 112
f 111 148 149
f 112 151 152
f 112 152 113
f 113 152 153
f 113 153 154
f 113 154 114
f 114 154 115
f 115 154 155
f 115 155 156
f 115 156 116
f 116 156 157
f 116 157 158
f 116 158 159
f 116 159 117
f 117 120 118
f 117 159 120
f 120 159 158
f 120 158 160
f 120 160 122
f 120 122 121
f 122 126 125
f 122 125 123
f 122 160 161
f 122 161 162
f 122 162 127
f 122 127 126
f 124 128 163
f 124 163 164
f 124 164 129
f 127 165 163
f 127 163 128
f 127 162 166
f 127 166 167
f 127 167 168
f 127 168 165
f 129 164 169
f 129 169 170
f 129 170 131
f 131 170 132
f 132 170 171
f 132 171 172
f 132 172 173
f 132 173 174
f 132 174 175
f 132 175 134
f 132 134 133
f 134 175 176
f 134 176 177
f 134 177 137
f 134 137 135
f 137 177 178
f 137 178 179
f 137 179 139
f 137 139 138
f 139 179 140
f 140 179 178
f 140 178 180
f 140 180 181
f 140 181 182
f 140 182 141
f 141 183 142
f 141 182 184
f 141 184 183
f 142 183 146
f 143 145 186
f 143 186 185
f 145 147 187
f 145 187 188
f 145 188 186
f 146 183 189
f 146 189 190
f 146 190 147
f 147 190 187
f 148 191 149
f 149 192 193
f 149 193 150
f 149 191 192
f 150 193 151
f 151 194 152
f 151 193 194
f 152 195 196
f 152 196 197
f 152 197 153
f 152 194 195
f 153 197 198
f 153 198 199
f 153 199 154
f 154 199 155
f 155 199 200
f 155 200 201
f 155 201 156
f 156 201 166
f 156 166 157
f 157 162 161
f 157 161 160
f 157 160 158
f 157 166 162
f 163 165 164
f 164 165 171
f 164 171 169
f 165 168 172
f 165 172 171
f 166 201 200
f 166 200 202
f 166 202 203
f 166 203 167
f 167 203 204
f 167 204 205
f 167 205 168
f 168 205 206
f 168 206 172
f 169 171 170
f 172 206 173
f 173 206 207
f 173 207 208
f 173 208 181
f 173 181 174
f 174 181 175
f 175 181 180
f 175 180 176
f 176 180 177
f 177 180 178
f 181 209 210
f 181 210 182
f 181 208 211
f 181 211 209
f 182 210 184
f 183 184 212
f 183 212 189
f 184 210 209
f 184 209 212
f 185 186 213
f 186 188 214
f 186 214 215
f 186 215 213
f 187 190 216
f 187 216 214
f 187 214 188
f 189 217 190
f 189 212 218
f 189 218 217
f 190 217 219
f 190 219 220
f 190 220 216
f 191 221 192
f 192 222 223
f 192 223 193
f 192 221 224
f 192 224 225
f 192 225 222
f 193 223 194
f 194 226 227
f 194 227 195
f 194 223 226
f 195 227 228
f 195 228 196
f 196 228 229
f 196 229 230
f 196 230 231
f 196 231 197
f 197 231 198
f 198 231 232
f 198 232 233
f 198 233 234
f 198 234 199
f 199 234 235
f 199 235 200
f 200 235 236
f 200 236 202
f 202 237 238
f 202 238 239
f 202 239 240
f 202 240 241
f 202 241 203
f 202 236 234
f 202 234 237
f 203 241 242
f 203 242 204
f 204 242 207
f 204 207 206
f 204 206 205
f 207 242 243
f 207 243 208
f 208 243 244
f 208 244 211
f 209 211 245
f 209 245 246
f 209 246 212
f 211 244 247
f 211 247 248
f 211 248 249
f 211 249 250
f 211 250 251
f 211 251 245
f 212 246 251
f 212 251 218
f 213 215 252
f 214 253 215
f 214 216 253
f 215 253 254
f 215 254 255
f 215 255 252
f 216 256 253
f 216 220 257
f 216 257 256
f 217 218 258
f 217 258 219
f 218 251 259
f 218 259 260
f 218 260 258
f 219 261 220
f 219 258 262
f 219 262 263
f 219 263 261
f 220 261 257
f 222 264 223
f 222 225 265
f 222 265 266
f 222 266 264
f 223 264 267
f 223 267 268
f 223 268 226
f 226 268 269
f 226 269 227
f 227 269 228
f 228 270 271
f 228 271 272
f 228 272 273
f 228 273 229
f 228 269 274
f 228 274 270
f 229 273 272
f 229 272 275
f 229 275 276
f 229 276 277
f 229 277 232
f 229 232 230
f 230 232 231
f 232 278 233
f 232 277 238
f 232 238 237
f 232 237 278
f 233 278 234
f 234 236 235
f 234 278 237
f 238 277 239
f 239 248 240
f 239 277 279
f 239 279 248
f 240 248 247
f 240 247 241
f 241 247 244
f 241 244 243
f 241 243 242
f 245 251 246
f 248 279 280
f 248 280 281
f 248 281 249
f 249 281 260
f 249 260 250
f 250 260 282
f 250 282 251
f 251 282 259
f 253 283 284
f 253 284 254
f 253 256 285
f 253 285 283
f 254 284 286
f 254 286 255
f 256 257 287
f 256 287 285
f 257 261 287
f 258 260 262
f 259 282 260
f 260 263 262
f 260 281 263
f 261 263 288
f 261 288 289
f 261 289 290
f 261 290 291
f 261 291 292
f 261 292 287
f 263 281 293
f 263 293 294
f 263 294 289
f 263 289 288
f 264 266 295
f 264 295 296
f 264 296 297
f 264 297 267
f 267 297 298
f 267 298 268
f 268 299 269
f 268 298 300
f 268 300 301
f 268 301 302
f 268 302 299
f 269 299 303
f 269 303 274
f 270 274 303
f 270 303 304
f 270 304 271
f 271 304 305
f 271 305 306
f 271 306 307
f 271 307 308
f 271 308 309
f 271 309 272
f 272 309 310
f 272 310 275
f 275 310 276
f 276 310 277
f 277 310 311
f 277 311 279
f 279 311 280
f 280 311 312
f 280 312 281
f 281 312 313
f 281 313 293
f 283 285 314
f 283 314 315
f 283 315 284
f 284 315 286
f 285 287 316
f 285 316 317
f 285 317 318
f 285 318 319
f 285 319 320
f 285 320 314
f 287 292 321
f 287 321 316
f 289 294 313
f 289 313 322
f 289 322 290
f 290 322 323
f 290 323 324
f 290 324 325
f 290 325 326
f 290 326 327
f 290 327 291
f 291 321 292
f 291 327 321
f 293 313 294
f 298 328 329
f 298 329 301
f 298 301 300
f 299 330 303
f 299 302 330
f 301 329 302
f 302 329 331
f 302 331 332
f 302 332 333
f 302 333 330
f 303 330 304
f 304 334 335
f 304 335 306
f 304 306 305
f 304 330 336
f 304 336 334
f 306 337 338
f 306 338 339
f 306 339 307
f 306 335 336
f 306 336 340
f 306 340 337
f 307 339 341
f 307 341 342
f 307 342 308
f 308 342 310
f 308 310 309
f 310 342 343
f 310 343 344
f 310 344 345
f 310 345 311
f 311 345 344
f 311 344 346
f 311 346 312
f 312 347 313
f 312 346 347
f 313 346 348
f 313 348 349
f 313 349 322
f 313 347 346
f 316 321 350
f 316 350 317
f 317 351 352
f 317 352 353
f 317 353 354
f 317 354 318
f 317 350 351
f 318 354 320
f 318 320 319
f 320 354 355
f 321 327 350
f 322 349 323
f 323 349 324
f 324 356 325
f 324 349 356
f 325 357 327
f 325 327 326
f 325 356 358
f 325 358 359
f 325 359 360
f 325 360 361
f 325 361 357
f 327 357 362
f 327 362 361
f 327 361 350
f 328 363 329
f 329 364 365
f 329 365 332
f 329 332 331
f 329 363 366
f 329 366 364
f 330 367 336
f 330 333 368
f 330 368 367
f 332 368 333
f 332 365 368
f 334 336 335
f 336 367 368
f 336 368 369
f 336 369 340
f 337 359 358
f 337 358 338
f 337 340 370
f 337 370 371
f 337 371 383
f 337 383 359
f 338 358 356
f 338 356 339
f 339 356 375
f 339 375 372
f 339 372 341
f 340 373 371
f 340 371 370
f 340 369 374
f 340 374 373
f 341 372 342
f 342 372 343
f 343 372 344
f 344 372 375
f 344 375 346
f 346 375 348
f 348 375 349
f 349 375 376
f 349 376 356
f 350 361 377
f 350 377 378
f 350 378 351
f 351 378 352
f 352 378 379
f 352 379 354
f 352 354 353
f 354 379 380
f 354 380 381
f 354 381 355
f 355 381 366
f 355 366 382
f 356 376 375
f 357 361 362
f 359 383 384
f 359 384 360
f 360 383 385
f 360 385 386
f 360 386 387
f 360 387 388
f 360 388 361
f 360 384 383
f 361 388 377
f 363 382 366
f 364 380 389
f 364 389 390
f 364 390 391
f 364 391 365
f 364 366 380
f 365 391 374
f 365 374 368
f 366 381 380
f 368 374 369
f 371 392 393
f 371 393 383
f 371 373 374
f 371 374 392
f 374 391 390
f 374 390 389
f 374 389 387
f 374 387 393
f 374 393 392
f 377 388 378
f 378 387 394
f 378 394 379
f 378 388 387
f 379 394 380
f 380 394 389
f 383 393 386
f 383 386 385
f 386 393 387
f 387 389 394

