# https://github.com/mikedh/trimesh
v 0.25476342 0.00499487 0.02321008
v 0.25476342 -0.00499487 0.02321008
v 0.25476342 0.01035747 0.02056981
v 0.10437744 0.00430233 0.04710533
v 0.10437744 0.00421040 0.04712193
v 0.15038392 0.00022676 0.04006462
v 0.25476342 -0.01048004 0.02050339
v 0.15038392 -0.00022676 0.04006462
v 0.10437744 -0.00423492 0.04715515
v 0.25476342 0.01048004 0.02050339
v 0.12974358 0.00989782 0.03993177
v 0.12307447 0.01054746 0.04049636
v 0.10437744 0.01162611 0.04228975
v 0.25476342 -0.01054746 0.02038715
v 0.12989080 -0.00995298 0.03996498
v 0.12323642 -0.01057197 0.04051296
v 0.10437744 -0.01203673 0.04202406
v 0.10437744 -0.01754641 0.03445197
v 0.10437744 -0.02012659 0.03023419
v 0.25476342 0.01364244 0.01499038
v 0.10898545 0.01988757 0.02968621
v 0.10437744 0.01837379 0.03302390
v 0.10437744 0.01749125 0.03445197
v 0.10437744 0.01700096 0.03513280
v 0.10437744 0.01196318 0.04199085
v 0.25476342 -0.01364857 0.01499038
v 0.10437744 -0.02170779 0.02573410
v 0.25476342 -0.01811638 0.00484444
v 0.25476342 -0.01807348 0.00496068
v 0.25476342 0.01796929 0.00520976
v 0.10437744 0.02115008 0.02734484
v 0.25476342 0.01806735 0.00496068
v 0.10437744 -0.02517662 0.01499038
v 0.25476342 -0.01992434 -0.00046930
v 0.10437744 0.02172617 0.02573410
v 0.25476342 0.01989983 -0.00038628
v 0.10437744 -0.02778131 0.00499389
v 0.25476342 -0.02113169 -0.00538452
v 0.10437744 0.02500502 0.01562139
v 0.10437744 0.02762809 0.00560829
v 0.10437744 0.02520114 0.01499038
v 0.25476342 0.02115008 -0.00536791
v 0.10437744 -0.02786098 0.00457876
v 0.25476342 -0.02118072 -0.00561699
v 0.10437744 0.02778131 0.00499389
v 0.25476342 0.02286611 -0.01501568
v 0.10437744 -0.02950960 -0.00480333
v 0.25476342 -0.02284772 -0.01501568
v 0.10437744 0.02950960 -0.00480333
v 0.10437744 0.03120111 -0.02438116
v 0.10437744 0.03057599 -0.01466697
v 0.10437744 0.03039213 -0.01269092
v 0.10437744 0.02970572 -0.00623139
v 0.25476342 0.02298255 -0.02502877
v 0.10437744 0.03123789 -0.02501217
v 0.10437744 -0.02957701 -0.00526828
v 0.10437744 -0.03057599 -0.01466697
v 0.10437744 -0.03063728 -0.01561348
v 0.10437744 -0.03123789 -0.02501217
v 0.25476342 -0.02285385 -0.01523155
v 0.10437744 -0.02970572 -0.00623139
v 0.10437744 -0.03009182 -0.00933661
v 0.25476342 0.02160973 -0.03502526
v 0.10437744 0.02963830 -0.05405511
v 0.10437744 0.03009795 -0.05065099
v 0.10437744 0.03047180 -0.04703100
v 0.10437744 0.03064953 -0.04520440
v 0.10437744 0.03130530 -0.03500865
v 0.10437744 -0.03124402 -0.02562657
v 0.25476342 -0.02298255 -0.02502877
v 0.25476342 0.02036561 -0.04101983
v 0.17438090 0.01111130 -0.12248620
v 0.16500294 0.01196318 -0.12248620
v 0.10437744 0.02800194 -0.06494829
v 0.10437744 0.02808774 -0.06441692
v 0.10437744 0.02945444 -0.05538354
v 0.10437744 -0.03130530 -0.03500865
v 0.10437744 -0.03126853 -0.03562305
v 0.10437744 -0.03064953 -0.04520440
v 0.10437744 -0.03047180 -0.04703100
v 0.10437744 -0.02963830 -0.05405511
v 0.25476342 -0.02160973 -0.03502526
v 0.25476342 0.02033496 -0.04115267
v 0.18010779 0.01043714 -0.12248620
v 0.16248547 0.01202447 -0.12248620
v 0.10437744 0.02567304 -0.07499459
v 0.10437744 -0.02945444 -0.05538354
v 0.25476342 -0.02033496 -0.04115267
v 0.10437744 -0.02800194 -0.06494829
v 0.16500294 -0.01196318 -0.12248620
v 0.16750570 -0.01174255 -0.12248620
v 0.17438090 -0.01111130 -0.12248620
v 0.25476342 0.01884569 -0.04615091
v 0.18269888 0.01003265 -0.12248620
v 0.15502137 0.01217156 -0.12248620
v 0.10437744 0.02198358 -0.08567190
v 0.15250391 0.01212253 -0.12248620
v 0.13501409 0.01141160 -0.12248620
v 0.13364492 0.01135032 -0.12248620
v 0.12501779 0.01095808 -0.12248620
v 0.12225004 0.01080486 -0.12248620
v 0.11500678 0.01055972 -0.12173895
v 0.10735130 0.01024715 -0.12074262
v 0.25476342 -0.01884569 -0.04615091
v 0.18010779 -0.01043714 -0.12248620
v 0.18135917 -0.01027167 -0.12248620
v 0.18269888 -0.01003265 -0.12248620
v 0.10437744 -0.02785485 -0.06561251
v 0.15502137 -0.01217156 -0.12248620
v 0.10437744 -0.02567304 -0.07499459
v 0.25476342 0.01510720 -0.05498502
v 0.22983897 0.00995298 -0.08974023
v 0.21887101 0.00969557 -0.09917213
v 0.18657078 0.00927882 -0.12248620
v 0.10598215 0.00924818 -0.12248620
v 0.10437744 0.00870886 -0.12248620
v 0.11624344 0.01036973 -0.12248620
v 0.10957433 0.00972622 -0.12248620
v 0.22983897 -0.00995298 -0.08974023
v 0.25476342 -0.01877215 -0.04633357
v 0.18657078 -0.00927882 -0.12248620
v 0.21887101 -0.00969557 -0.09917213
v 0.13501409 -0.01141160 -0.12248620
v 0.10437744 -0.02547080 -0.07560899
v 0.25476342 0.01125226 -0.06147775
v 0.23107561 0.00132380 -0.10084929
v 0.22589344 0.00859241 -0.09550233
v 0.19508015 0.00575483 -0.12248620
v 0.19238600 0.00688864 -0.12248620
v 0.10437744 -0.00908270 -0.12248620
v 0.25476342 -0.01124000 -0.06146114
v 0.25476342 -0.01508881 -0.05498502
v 0.22589344 -0.00859241 -0.09550233
v 0.23107561 -0.00132380 -0.10084929
v 0.19508015 -0.00574257 -0.12248620
v 0.12537113 -0.01097647 -0.12248620
v 0.10437744 -0.01012458 -0.12029427
v 0.10718936 -0.01025941 -0.12079243
v 0.11500678 -0.01057197 -0.12177216
v 0.12216171 -0.01080486 -0.12248620
v 0.12501779 -0.01095808 -0.12248620
v 0.25476342 0.00429008 -0.06692433
v 0.24037996 0.00061287 -0.09058711
v 0.20161675 0.00156894 -0.12248620
v 0.10587909 -0.00927269 -0.12248620
v 0.10437744 -0.00946268 -0.12168913
v 0.25476342 -0.01113581 -0.06157738
v 0.24037996 -0.00061287 -0.09058711
v 0.19730318 -0.00457200 -0.12248620
v 0.20161675 -0.00155668 -0.12248620
v 0.11500678 -0.01027167 -0.12248620
v 0.25476342 -0.00429621 -0.06689113
f 1 2 7
f 1 7 14
f 1 14 26
f 1 26 29
f 1 29 28
f 1 28 34
f 1 34 38
f 1 38 44
f 1 44 48
f 1 48 60
f 1 60 70
f 1 70 82
f 1 82 88
f 1 88 104
f 1 104 120
f 1 120 132
f 1 132 131
f 1 131 147
f 1 147 152
f 1 152 142
f 1 142 125
f 1 125 111
f 1 111 93
f 1 93 83
f 1 83 71
f 1 71 63
f 1 63 54
f 1 54 46
f 1 46 42
f 1 42 36
f 1 36 32
f 1 32 30
f 1 30 20
f 1 20 10
f 1 10 3
f 1 3 4
f 1 4 5
f 1 5 6
f 1 6 8
f 1 8 2
f 2 8 9
f 2 9 7
f 3 10 4
f 4 11 12
f 4 12 13
f 4 13 25
f 4 25 24
f 4 24 23
f 4 23 22
f 4 22 31
f 4 31 35
f 4 35 39
f 4 39 41
f 4 41 40
f 4 40 45
f 4 45 49
f 4 49 53
f 4 53 52
f 4 52 51
f 4 51 50
f 4 50 55
f 4 55 68
f 4 68 67
f 4 67 66
f 4 66 65
f 4 65 64
f 4 64 76
f 4 76 75
f 4 75 74
f 4 74 86
f 4 86 96
f 4 96 116
f 4 116 130
f 4 130 146
f 4 146 137
f 4 137 124
f 4 124 110
f 4 110 108
f 4 108 89
f 4 89 87
f 4 87 81
f 4 81 80
f 4 80 79
f 4 79 78
f 4 78 77
f 4 77 69
f 4 69 59
f 4 59 58
f 4 58 57
f 4 57 62
f 4 62 61
f 4 61 56
f 4 56 47
f 4 47 43
f 4 43 37
f 4 37 33
f 4 33 27
f 4 27 19
f 4 19 18
f 4 18 17
f 4 17 9
f 4 9 5
f 4 10 11
f 5 9 6
f 6 9 8
f 7 9 15
f 7 15 16
f 7 16 17
f 7 17 18
f 7 18 19
f 7 19 14
f 9 17 16
f 9 16 15
f 10 20 21
f 10 21 22
f 10 22 23
f 10 23 24
f 10 24 25
f 10 25 12
f 10 12 11
f 12 25 13
f 14 19 26
f 19 27 28
f 19 28 29
f 19 29 26
f 20 30 21
f 21 31 22
f 21 30 32
f 21 32 31
f 27 33 34
f 27 34 28
f 31 32 35
f 32 36 35
f 33 37 34
f 34 37 38
f 35 36 39
f 36 40 41
f 36 41 39
f 36 42 40
f 37 43 44
f 37 44 38
f 40 42 45
f 42 46 45
f 43 47 48
f 43 48 44
f 45 46 49
f 46 50 51
f 46 51 52
f 46 52 53
f 46 53 49
f 46 54 55
f 46 55 50
f 47 56 48
f 48 57 58
f 48 58 59
f 48 59 60
f 48 56 61
f 48 61 62
f 48 62 57
f 54 63 64
f 54 64 65
f 54 65 66
f 54 66 67
f 54 67 68
f 54 68 55
f 59 69 70
f 59 70 60
f 63 71 72
f 63 72 73
f 63 73 74
f 63 74 75
f 63 75 76
f 63 76 64
f 69 77 70
f 70 77 78
f 70 78 79
f 70 79 80
f 70 80 81
f 70 81 82
f 71 83 84
f 71 84 72
f 72 84 94
f 72 94 114
f 72 114 129
f 72 129 128
f 72 128 144
f 72 144 150
f 72 150 149
f 72 149 135
f 72 135 121
f 72 121 107
f 72 107 106
f 72 106 105
f 72 105 92
f 72 92 91
f 72 91 90
f 72 90 109
f 72 109 123
f 72 123 136
f 72 136 141
f 72 141 140
f 72 140 151
f 72 151 145
f 72 145 130
f 72 130 116
f 72 116 115
f 72 115 118
f 72 118 117
f 72 117 101
f 72 101 100
f 72 100 99
f 72 99 98
f 72 98 97
f 72 97 95
f 72 95 85
f 72 85 73
f 73 85 86
f 73 86 74
f 81 87 82
f 82 87 89
f 82 89 90
f 82 90 91
f 82 91 92
f 82 92 88
f 83 93 94
f 83 94 84
f 85 95 86
f 86 95 97
f 86 97 98
f 86 98 99
f 86 99 100
f 86 100 101
f 86 101 102
f 86 102 103
f 86 103 96
f 88 92 105
f 88 105 106
f 88 106 107
f 88 107 104
f 89 108 90
f 90 108 110
f 90 110 109
f 93 111 112
f 93 112 113
f 93 113 114
f 93 114 94
f 96 103 115
f 96 115 116
f 101 117 102
f 102 117 103
f 103 117 118
f 103 118 115
f 104 119 120
f 104 107 121
f 104 121 122
f 104 122 119
f 109 110 123
f 110 124 123
f 111 125 112
f 112 125 126
f 112 126 127
f 112 127 113
f 113 127 128
f 113 128 129
f 113 129 114
f 119 131 132
f 119 132 120
f 119 122 133
f 119 133 134
f 119 134 131
f 121 135 122
f 122 135 133
f 123 124 136
f 124 137 138
f 124 138 139
f 124 139 140
f 124 140 141
f 124 141 136
f 125 142 143
f 125 143 126
f 126 143 148
f 126 148 134
f 126 134 150
f 126 150 144
f 126 144 128
f 126 128 127
f 130 145 138
f 130 138 146
f 131 134 148
f 131 148 147
f 133 135 149
f 133 149 134
f 134 149 150
f 137 146 138
f 138 145 151
f 138 151 139
f 139 151 140
f 142 152 148
f 142 148 143
f 147 148 152

