# https://github.com/mikedh/trimesh
v 0.30451757 0.00370371 0.03514524
v 0.30451757 -0.00370821 0.03514524
v 0.30451757 0.00902301 0.02722223
v 0.25478703 0.01048109 0.02051814
v 0.25478703 0.00499978 0.02322575
v 0.30451757 -0.00404573 0.03472561
v 0.25478703 -0.00499978 0.02322575
v 0.25478703 -0.00512129 0.02316580
v 0.25478703 -0.01048109 0.02051814
v 0.30451757 0.01045859 0.02222663
v 0.28499535 0.01737548 0.00499183
v 0.27500054 0.01778951 0.00499183
v 0.26500088 0.01795152 0.00499183
v 0.25500125 0.01806402 0.00499183
v 0.25478703 0.01807302 0.00497185
v 0.25478703 0.01796952 0.00521164
v 0.25478703 0.01364477 0.01499301
v 0.30451757 -0.00918952 0.02698244
v 0.25478703 -0.01364927 0.01499301
v 0.30451757 0.01231720 0.01499301
v 0.29499987 0.01620542 0.00499183
v 0.28499535 0.01949510 -0.00293118
v 0.27500054 0.01975612 -0.00119271
v 0.26500088 0.01984612 -0.00064320
v 0.25478703 0.01990463 -0.00038343
v 0.30451757 -0.01057560 0.02195687
v 0.25478703 -0.01807752 0.00497185
v 0.26500088 -0.01797852 0.00499183
v 0.27500054 -0.01778501 0.00499183
v 0.28499535 -0.01732598 0.00499183
v 0.30451757 0.01451332 0.00499183
v 0.29423553 0.01865356 -0.00571872
v 0.29039437 0.02007564 -0.00952536
v 0.28499535 0.02036815 -0.00793676
v 0.27500054 0.02079118 -0.00618831
v 0.26500088 0.02103869 -0.00563879
v 0.25500125 0.02115570 -0.00538901
v 0.25478703 0.02112420 -0.00524913
v 0.30451757 -0.01247921 0.01451343
v 0.28499535 -0.01949060 -0.00293118
v 0.29499987 -0.01618742 0.00499183
v 0.25478703 -0.01811803 0.00486195
v 0.25478703 -0.01990463 -0.00038343
v 0.26500088 -0.01984612 -0.00064320
v 0.27500054 -0.01975612 -0.00119271
v 0.30451757 0.01607941 -0.00503932
v 0.29645550 0.01928809 -0.01500053
v 0.29145569 0.02027365 -0.01500053
v 0.28499535 0.02108369 -0.01500053
v 0.27500054 0.02197924 -0.01500053
v 0.26500088 0.02255978 -0.01500053
v 0.25500125 0.02286579 -0.01500053
v 0.25478703 0.02115120 -0.00535904
v 0.29423553 -0.01865356 -0.00571872
v 0.30451757 -0.01458533 0.00451226
v 0.27500054 -0.02079118 -0.00618831
v 0.28499535 -0.02036815 -0.00793676
v 0.29039437 -0.02007564 -0.00952536
v 0.25478703 -0.02113770 -0.00536903
v 0.25500125 -0.02114220 -0.00538901
v 0.26500088 -0.02102519 -0.00564878
v 0.30451757 0.01722248 -0.01500053
v 0.30451757 0.01755549 -0.02443221
v 0.29720524 0.01944110 -0.02499172
v 0.29220542 0.02041766 -0.02499172
v 0.28499535 0.02127720 -0.02499172
v 0.27500054 0.02206025 -0.02499172
v 0.26500088 0.02262728 -0.02499172
v 0.25478703 0.02298730 -0.02499172
v 0.25478703 0.02286579 -0.01500053
v 0.29645550 -0.01928809 -0.01500053
v 0.30451757 -0.01611091 -0.00556885
v 0.30451757 -0.01604341 -0.00503932
v 0.26500088 -0.02254178 -0.01500053
v 0.27500054 -0.02197924 -0.01500053
v 0.28499535 -0.02108369 -0.01500053
v 0.29145569 -0.02027365 -0.01500053
v 0.25478703 -0.02118270 -0.00559883
v 0.25478703 -0.02285229 -0.01500053
v 0.25500125 -0.02284779 -0.01500053
v 0.30451757 0.01757349 -0.02499172
v 0.30451757 0.01719547 -0.03437345
v 0.29139239 0.02026915 -0.03203551
v 0.28480548 0.02052116 -0.03522269
v 0.27500054 0.02110619 -0.03499290
v 0.26500088 0.02141671 -0.03499290
v 0.25500125 0.02161022 -0.03499290
v 0.25478703 0.02164173 -0.03477309
v 0.29720524 -0.01944110 -0.02499172
v 0.30451757 -0.01760500 -0.02499172
v 0.30451757 -0.01720447 -0.01500053
v 0.25478703 -0.02298730 -0.02499172
v 0.26500088 -0.02262728 -0.02499172
v 0.27500054 -0.02206025 -0.02499172
v 0.28499535 -0.02127720 -0.02499172
v 0.29220542 -0.02041766 -0.02499172
v 0.25478703 -0.02285679 -0.01522034
v 0.30451757 0.01715047 -0.03500289
v 0.29483435 0.01923409 -0.03522269
v 0.28800887 0.01982362 -0.03869963
v 0.28133917 0.02011614 -0.04041811
v 0.27500054 0.02023765 -0.04083774
v 0.26500088 0.02030515 -0.04105755
v 0.25478703 0.02033665 -0.04115746
v 0.25478703 0.02161022 -0.03499290
v 0.29139239 -0.02026915 -0.03203551
v 0.30451757 -0.01719547 -0.03500289
v 0.26500088 -0.02141671 -0.03499290
v 0.27500054 -0.02110619 -0.03499290
v 0.25478703 -0.02161022 -0.03499290
v 0.25500125 -0.02161022 -0.03499290
v 0.28480548 -0.02052116 -0.03522269
v 0.30451757 0.01586790 -0.04453448
v 0.30451757 0.01579139 -0.04499408
v 0.29499987 0.01755999 -0.04499408
v 0.28480548 0.01877056 -0.04425473
v 0.27500054 0.01875256 -0.04583334
v 0.26500088 0.01879306 -0.04605315
v 0.25478703 0.01884707 -0.04615305
v 0.28800887 -0.01982362 -0.03869963
v 0.29483435 -0.01923409 -0.03522269
v 0.30451757 -0.01579139 -0.04499408
v 0.27500054 -0.02023765 -0.04083774
v 0.28133917 -0.02011614 -0.04042811
v 0.25478703 -0.02158322 -0.03513278
v 0.26500088 -0.02030515 -0.04105755
v 0.30451757 0.01292023 -0.05451568
v 0.29499987 0.01411730 -0.05499526
v 0.28499535 0.01474733 -0.05499526
v 0.27500054 0.01488684 -0.05499526
v 0.25478703 0.01518836 -0.05480542
v 0.29499987 -0.01755999 -0.04499408
v 0.30451757 -0.01275372 -0.05499526
v 0.27500054 -0.01876156 -0.04583334
v 0.28480548 -0.01877506 -0.04425473
v 0.25478703 -0.02033665 -0.04115746
v 0.25478703 -0.02030515 -0.04126737
v 0.25500125 -0.01884707 -0.04615305
v 0.26500088 -0.01879757 -0.04605315
v 0.30451757 0.01275372 -0.05499526
v 0.30451757 0.01049909 -0.06019067
v 0.30451757 0.01034609 -0.06049041
v 0.29499987 0.01089512 -0.06118979
v 0.28499535 0.01114713 -0.06143957
v 0.25478703 0.01510736 -0.05499526
v 0.29499987 -0.01411730 -0.05499526
v 0.30451757 -0.01034609 -0.06049041
v 0.27500054 -0.01489584 -0.05499526
v 0.28499535 -0.01475184 -0.05499526
v 0.25478703 -0.01884707 -0.04615305
v 0.25478703 -0.01877056 -0.04634289
v 0.25478703 -0.01509385 -0.05499526
v 0.30451757 0.00499978 -0.06599556
v 0.25478703 0.00476577 -0.06655506
v 0.25478703 0.01125964 -0.06148953
v 0.29499987 -0.01089512 -0.06118979
v 0.30451757 -0.00494578 -0.06602553
v 0.28499535 -0.01114713 -0.06143957
v 0.25478703 -0.01500835 -0.05514513
v 0.30451757 0.00494578 -0.06602553
v 0.25478703 0.00427974 -0.06692474
v 0.25478703 -0.00430224 -0.06689476
v 0.25478703 -0.01124164 -0.06146955
v 0.25478703 -0.01114263 -0.06157945
v 0.25478703 -0.00476577 -0.06653508
f 1 2 6
f 1 6 18
f 1 18 26
f 1 26 39
f 1 39 55
f 1 55 73
f 1 73 72
f 1 72 91
f 1 91 90
f 1 90 107
f 1 107 122
f 1 122 133
f 1 133 147
f 1 147 157
f 1 157 160
f 1 160 153
f 1 153 142
f 1 142 141
f 1 141 140
f 1 140 127
f 1 127 114
f 1 114 113
f 1 113 98
f 1 98 82
f 1 82 81
f 1 81 63
f 1 63 62
f 1 62 46
f 1 46 31
f 1 31 20
f 1 20 10
f 1 10 3
f 1 3 4
f 1 4 5
f 1 5 7
f 1 7 2
f 2 7 8
f 2 8 9
f 2 9 6
f 3 10 11
f 3 11 12
f 3 12 13
f 3 13 14
f 3 14 15
f 3 15 16
f 3 16 17
f 3 17 4
f 4 17 16
f 4 16 15
f 4 15 25
f 4 25 38
f 4 38 53
f 4 53 70
f 4 70 69
f 4 69 88
f 4 88 105
f 4 105 104
f 4 104 119
f 4 119 131
f 4 131 145
f 4 145 155
f 4 155 154
f 4 154 161
f 4 161 162
f 4 162 165
f 4 165 164
f 4 164 163
f 4 163 159
f 4 159 152
f 4 152 151
f 4 151 150
f 4 150 137
f 4 137 136
f 4 136 125
f 4 125 110
f 4 110 92
f 4 92 97
f 4 97 79
f 4 79 78
f 4 78 59
f 4 59 43
f 4 43 42
f 4 42 27
f 4 27 19
f 4 19 9
f 4 9 8
f 4 8 7
f 4 7 5
f 6 9 18
f 9 19 18
f 10 20 21
f 10 21 11
f 11 21 22
f 11 22 23
f 11 23 12
f 12 23 24
f 12 24 13
f 13 24 25
f 13 25 14
f 14 25 15
f 18 19 27
f 18 27 28
f 18 28 29
f 18 29 30
f 18 30 26
f 20 31 21
f 21 31 32
f 21 32 22
f 22 32 33
f 22 33 34
f 22 34 35
f 22 35 23
f 23 35 36
f 23 36 24
f 24 36 37
f 24 37 38
f 24 38 25
f 26 30 40
f 26 40 41
f 26 41 39
f 27 42 28
f 28 42 43
f 28 43 44
f 28 44 29
f 29 44 45
f 29 45 30
f 30 45 40
f 31 46 32
f 32 46 33
f 33 46 47
f 33 47 48
f 33 48 49
f 33 49 50
f 33 50 34
f 34 50 35
f 35 50 51
f 35 51 36
f 36 51 52
f 36 52 37
f 37 53 38
f 37 52 53
f 39 41 54
f 39 54 55
f 40 45 56
f 40 56 57
f 40 57 58
f 40 58 54
f 40 54 41
f 43 59 60
f 43 60 44
f 44 60 61
f 44 61 45
f 45 61 56
f 46 62 47
f 47 62 63
f 47 63 64
f 47 64 48
f 48 64 65
f 48 65 49
f 49 65 66
f 49 66 50
f 50 66 67
f 50 67 51
f 51 67 68
f 51 68 69
f 51 69 52
f 52 69 70
f 52 70 53
f 54 58 71
f 54 71 72
f 54 72 73
f 54 73 55
f 56 61 74
f 56 74 75
f 56 75 57
f 57 75 58
f 58 75 76
f 58 76 77
f 58 77 71
f 59 78 60
f 60 78 79
f 60 79 61
f 61 79 80
f 61 80 74
f 63 81 64
f 64 81 82
f 64 82 83
f 64 83 65
f 65 83 66
f 66 83 67
f 67 83 84
f 67 84 85
f 67 85 68
f 68 85 69
f 69 85 86
f 69 86 87
f 69 87 88
f 71 77 89
f 71 89 90
f 71 90 91
f 71 91 72
f 74 80 92
f 74 92 93
f 74 93 75
f 75 93 94
f 75 94 95
f 75 95 76
f 76 95 96
f 76 96 77
f 77 96 89
f 79 97 80
f 80 97 92
f 82 98 83
f 83 98 99
f 83 99 100
f 83 100 84
f 84 100 101
f 84 101 85
f 85 101 86
f 86 101 102
f 86 102 87
f 87 102 103
f 87 103 104
f 87 104 105
f 87 105 88
f 89 96 106
f 89 106 107
f 89 107 90
f 92 108 109
f 92 109 93
f 92 110 111
f 92 111 108
f 93 109 94
f 94 109 112
f 94 112 106
f 94 106 95
f 95 106 96
f 98 113 99
f 99 113 114
f 99 114 115
f 99 115 100
f 100 115 101
f 101 115 116
f 101 116 117
f 101 117 102
f 102 117 103
f 103 117 118
f 103 118 119
f 103 119 104
f 106 112 120
f 106 120 121
f 106 121 107
f 107 121 122
f 108 111 123
f 108 123 124
f 108 124 109
f 109 124 112
f 110 125 111
f 111 125 126
f 111 126 123
f 112 124 120
f 114 127 115
f 115 127 128
f 115 128 116
f 116 128 129
f 116 129 117
f 117 129 130
f 117 130 118
f 118 130 131
f 118 131 119
f 120 124 132
f 120 132 121
f 121 132 122
f 122 132 133
f 123 126 134
f 123 134 124
f 124 134 135
f 124 135 132
f 125 136 126
f 126 136 137
f 126 137 138
f 126 138 139
f 126 139 134
f 127 140 128
f 128 140 141
f 128 141 142
f 128 142 143
f 128 143 129
f 129 143 144
f 129 144 130
f 130 145 131
f 130 144 145
f 132 146 133
f 132 135 146
f 133 146 147
f 134 139 148
f 134 148 149
f 134 149 135
f 135 149 146
f 137 150 138
f 138 150 151
f 138 151 139
f 139 151 152
f 139 152 148
f 142 153 143
f 143 153 144
f 144 153 154
f 144 154 155
f 144 155 145
f 146 149 156
f 146 156 147
f 147 156 157
f 148 152 158
f 148 158 149
f 149 158 156
f 152 159 158
f 153 160 161
f 153 161 154
f 156 158 157
f 157 162 161
f 157 161 160
f 157 158 162
f 158 163 164
f 158 164 165
f 158 165 162
f 158 159 163

