# https://github.com/mikedh/trimesh
v -0.27499455 -0.04500043 -0.09588903
v -0.26501012 -0.05345276 -0.09444530
v -0.27499455 -0.05202230 -0.09350409
v -0.29114422 -0.04409838 -0.09292181
v -0.27583623 -0.04409838 -0.09563379
v -0.27499455 -0.04409838 -0.09571355
v -0.25500467 -0.04777292 -0.09318502
v -0.25477323 -0.05562388 -0.09285001
v -0.23968615 -0.06017615 -0.09015399
v -0.24500975 -0.06035745 -0.09049697
v -0.25129077 -0.06029996 -0.09050495
v -0.28225401 -0.05080187 -0.09163760
v -0.29401645 -0.04409838 -0.09166951
v -0.26530471 -0.04409838 -0.09407838
v -0.24825022 -0.04914369 -0.09134248
v -0.23968615 -0.05945318 -0.09015399
v -0.24495715 -0.05567031 -0.09120688
v -0.22861809 -0.06146512 -0.08149958
v -0.23581442 -0.06193604 -0.08489753
v -0.23500431 -0.06549119 -0.07499881
v -0.24500975 -0.06216598 -0.08499325
v -0.24500975 -0.06400988 -0.07499881
v -0.25325820 -0.06084164 -0.08499325
v -0.25826618 -0.05945097 -0.08499325
v -0.26501012 -0.05757612 -0.08499325
v -0.27499455 -0.05462897 -0.08499325
v -0.32685244 -0.04409838 -0.06361647
v -0.30284357 -0.04409838 -0.08548779
v -0.29935059 -0.04409838 -0.08833537
v -0.25930777 -0.04409838 -0.08837526
v -0.23935999 -0.04954828 -0.08102100
v -0.22861809 -0.05847596 -0.08149958
v -0.23405743 -0.04409838 -0.06288264
v -0.21938066 -0.06161104 -0.06311395
v -0.22650336 -0.06290221 -0.07499881
v -0.23500431 -0.06655464 -0.06499638
v -0.22404146 -0.06392144 -0.06586581
v -0.22500938 -0.06530327 -0.05500194
v -0.25972861 -0.05989316 -0.07887535
v -0.24500975 -0.06451839 -0.06499638
v -0.32685244 -0.04525248 -0.05500194
v -0.32685244 -0.04500706 -0.05684449
v -0.32685244 -0.04409838 -0.04454486
v -0.23351033 -0.04409838 -0.06217274
v -0.22829193 -0.04409838 -0.05481848
v -0.22650336 -0.05714941 -0.07499881
v -0.21938066 -0.05935369 -0.06311395
v -0.21940170 -0.06153144 -0.05500194
v -0.23500431 -0.06668509 -0.05500194
v -0.22451490 -0.06305919 -0.04558977
v -0.22791317 -0.06189182 -0.03500508
v -0.23500431 -0.06423097 -0.03500508
v -0.23500431 -0.06627607 -0.04500750
v -0.24500975 -0.06458250 -0.05500194
v -0.32685244 -0.04424651 -0.04500750
v -0.24500975 -0.06429730 -0.04500750
v -0.24500975 -0.06349473 -0.03500508
v -0.27488932 -0.05199356 -0.02473146
v -0.27815083 -0.04912379 -0.02122184
v -0.29191226 -0.04409838 -0.02467562
v -0.25213245 -0.06059844 -0.02832084
v -0.22650336 -0.04409838 -0.04716910
v -0.22622982 -0.04409838 -0.04500750
v -0.21940170 -0.05935590 -0.05500194
v -0.21983306 -0.06043041 -0.04931476
v -0.22970174 -0.06036408 -0.02970874
v -0.23500431 -0.06128603 -0.02825703
v -0.24500975 -0.06146070 -0.02721212
v -0.27149105 -0.05051666 -0.01957870
v -0.27491036 -0.04409838 -0.01588562
v -0.27881366 -0.04409838 -0.01755268
v -0.28519988 -0.04409838 -0.02095064
v -0.22677691 -0.04409838 -0.03751764
v -0.21983306 -0.05978924 -0.04931476
v -0.22867069 -0.04409838 -0.02947742
v -0.23252136 -0.04409838 -0.02251402
v -0.23918113 -0.04409838 -0.01873320
v -0.24566206 -0.04409838 -0.01626848
v -0.25166953 -0.04409838 -0.01456951
v -0.26501012 -0.05114899 -0.01925964
v -0.26501012 -0.04409838 -0.01448974
v -0.22730295 -0.04409838 -0.03500508
v -0.26336887 -0.04409838 -0.01440200
f 1 2 3
f 1 3 4
f 1 4 5
f 1 5 6
f 1 6 7
f 1 7 2
f 2 7 8
f 2 8 9
f 2 9 10
f 2 10 11
f 2 11 3
f 3 12 4
f 3 11 12
f 4 13 29
f 4 29 28
f 4 28 27
f 4 27 43
f 4 43 60
f 4 60 72
f 4 72 71
f 4 71 70
f 4 70 81
f 4 81 83
f 4 83 79
f 4 79 78
f 4 78 77
f 4 77 76
f 4 76 75
f 4 75 82
f 4 82 73
f 4 73 63
f 4 63 62
f 4 62 45
f 4 45 44
f 4 44 33
f 4 33 30
f 4 30 14
f 4 14 6
f 4 6 5
f 4 12 13
f 6 14 7
f 7 15 16
f 7 16 17
f 7 17 8
f 7 14 15
f 8 17 9
f 9 17 16
f 9 16 32
f 9 32 18
f 9 18 19
f 9 19 10
f 10 19 20
f 10 20 21
f 10 21 11
f 11 21 20
f 11 20 22
f 11 22 23
f 11 23 24
f 11 24 25
f 11 25 26
f 11 26 12
f 12 26 27
f 12 27 28
f 12 28 29
f 12 29 13
f 14 30 15
f 15 31 32
f 15 32 16
f 15 30 33
f 15 33 31
f 18 32 47
f 18 47 34
f 18 34 35
f 18 35 20
f 18 20 19
f 20 36 22
f 20 35 37
f 20 37 38
f 20 38 36
f 22 39 23
f 22 36 40
f 22 40 41
f 22 41 39
f 23 39 41
f 23 41 42
f 23 42 27
f 23 27 24
f 24 27 25
f 25 27 26
f 27 42 41
f 27 41 55
f 27 55 43
f 31 33 44
f 31 44 45
f 31 45 32
f 32 45 46
f 32 46 47
f 34 47 64
f 34 64 48
f 34 48 38
f 34 38 37
f 34 37 35
f 36 38 49
f 36 49 40
f 38 48 50
f 38 50 51
f 38 51 52
f 38 52 53
f 38 53 49
f 40 49 54
f 40 54 41
f 41 54 56
f 41 56 57
f 41 57 55
f 43 58 59
f 43 59 60
f 43 55 61
f 43 61 58
f 45 62 47
f 45 47 46
f 47 62 63
f 47 63 64
f 48 64 74
f 48 74 65
f 48 65 50
f 49 53 56
f 49 56 54
f 50 65 51
f 51 66 52
f 51 65 66
f 52 66 67
f 52 67 68
f 52 68 57
f 52 57 53
f 53 57 56
f 55 57 61
f 57 68 61
f 58 69 59
f 58 61 69
f 59 69 70
f 59 70 71
f 59 71 72
f 59 72 60
f 61 68 69
f 63 73 64
f 64 73 74
f 65 74 75
f 65 75 66
f 66 75 76
f 66 76 77
f 66 77 78
f 66 78 67
f 67 78 79
f 67 79 68
f 68 79 80
f 68 80 69
f 69 80 81
f 69 81 70
f 73 82 74
f 74 82 75
f 79 83 80
f 80 83 81

