# https://github.com/mikedh/trimesh
v 0.15499473 0.01217703 -0.12248825
v 0.16247918 0.01202684 -0.12248825
v 0.16499272 0.01154768 -0.12500043
v 0.15499473 0.01174792 -0.12500043
v 0.15248118 0.01212458 -0.12248825
v 0.16499272 0.01196724 -0.12248825
v 0.17438689 0.01111380 -0.12248825
v 0.17417626 0.01069900 -0.12502113
v 0.17030063 0.01003389 -0.13007653
v 0.16499272 0.01016262 -0.13035588
v 0.15499473 0.01020076 -0.13042210
v 0.14891449 0.01008634 -0.13016136
v 0.14534779 0.01115910 -0.12567297
v 0.13499874 0.01116863 -0.12367605
v 0.13499874 0.01141418 -0.12248825
v 0.18010204 0.01043916 -0.12248825
v 0.17697065 0.00966200 -0.12836725
v 0.18498869 0.00695626 -0.13499948
v 0.18498869 0.00297036 -0.14362657
v 0.08500879 0.00134453 -0.13093737
v 0.12500076 0.00902073 -0.12776920
v 0.11623847 0.01037479 -0.12248825
v 0.12224850 0.01080866 -0.12248825
v 0.12500076 0.01090163 -0.12276968
v 0.13362262 0.01135219 -0.12248825
v 0.18271387 0.01003627 -0.12248825
v 0.18658949 0.00927819 -0.12248825
v 0.19498669 0.00451275 -0.13499948
v 0.19498669 0.00226233 -0.14264776
v 0.18498869 -0.00292745 -0.14362657
v 0.14883024 0.00029084 -0.14015007
v 0.07859154 0.00066034 -0.13044073
v 0.08500879 0.00571662 -0.12500043
v 0.11500277 0.00844859 -0.12674902
v 0.10956846 0.00972875 -0.12248825
v 0.12500076 0.01095885 -0.12248825
v 0.19238889 0.00689189 -0.12248825
v 0.19509903 0.00575477 -0.12248825
v 0.20074396 0.00101555 -0.14105645
v 0.19498669 -0.00221704 -0.14264776
v 0.14883024 -0.00028130 -0.14015007
v 0.18498869 -0.00691096 -0.13499948
v 0.17030063 -0.01003389 -0.13007653
v 0.16499272 -0.01016262 -0.13035588
v 0.15499473 -0.01020076 -0.13041796
v 0.14891449 -0.01008634 -0.13015723
v 0.08500879 -0.00134214 -0.13093737
v 0.07859154 -0.00066034 -0.13044073
v 0.05818834 0.00295367 -0.12248825
v 0.08169485 0.00666780 -0.12248825
v 0.20162861 0.00156861 -0.12248825
v 0.20074396 -0.00101316 -0.14105645
v 0.19498669 -0.00445553 -0.13499948
v 0.18658949 -0.00927819 -0.12248825
v 0.18271387 -0.01003627 -0.12248825
v 0.18136583 -0.01027705 -0.12248825
v 0.17697065 -0.00966200 -0.12836725
v 0.17417626 -0.01069900 -0.12502113
v 0.16499272 -0.01154768 -0.12500043
v 0.15499473 -0.01174792 -0.12500043
v 0.14534779 -0.01115910 -0.12567297
v 0.12500076 -0.01090163 -0.12276968
v 0.12215021 -0.01080866 -0.12248825
v 0.11500277 -0.01027467 -0.12248825
v 0.12500076 -0.00902073 -0.12776920
v 0.11500277 -0.00846289 -0.12678006
v 0.08500879 -0.00570947 -0.12500043
v 0.05818834 -0.00305618 -0.12248825
v 0.20162861 -0.00156146 -0.12248825
v 0.19730364 -0.00457235 -0.12248825
v 0.19509903 -0.00574523 -0.12248825
v 0.18010204 -0.01043916 -0.12248825
v 0.17438689 -0.01111380 -0.12248825
v 0.16750625 -0.01174792 -0.12248825
v 0.16499272 -0.01196724 -0.12248825
v 0.15499473 -0.01217703 -0.12248825
v 0.13499874 -0.01141418 -0.12248825
v 0.13499874 -0.01116863 -0.12367605
v 0.12536585 -0.01097554 -0.12248825
v 0.12500076 -0.01095885 -0.12248825
v 0.10587539 -0.00927581 -0.12248825
v 0.08500879 -0.00696818 -0.12248825
f 1 2 3
f 1 3 4
f 1 4 5
f 1 5 15
f 1 15 25
f 1 25 36
f 1 36 23
f 1 23 22
f 1 22 35
f 1 35 50
f 1 50 49
f 1 49 68
f 1 68 82
f 1 82 81
f 1 81 64
f 1 64 63
f 1 63 80
f 1 80 79
f 1 79 77
f 1 77 76
f 1 76 75
f 1 75 74
f 1 74 73
f 1 73 72
f 1 72 56
f 1 56 55
f 1 55 54
f 1 54 71
f 1 71 70
f 1 70 69
f 1 69 51
f 1 51 38
f 1 38 37
f 1 37 27
f 1 27 26
f 1 26 16
f 1 16 7
f 1 7 6
f 1 6 2
f 2 6 3
f 3 6 7
f 3 7 8
f 3 8 9
f 3 9 10
f 3 10 4
f 4 11 12
f 4 12 13
f 4 13 14
f 4 14 15
f 4 15 5
f 4 10 11
f 7 16 8
f 8 16 17
f 8 17 9
f 9 17 18
f 9 18 19
f 9 19 10
f 10 19 11
f 11 19 12
f 12 19 20
f 12 20 21
f 12 21 22
f 12 22 23
f 12 23 24
f 12 24 13
f 13 24 14
f 14 24 25
f 14 25 15
f 16 26 17
f 17 26 18
f 18 27 28
f 18 28 29
f 18 29 19
f 18 26 27
f 19 29 40
f 19 40 30
f 19 30 41
f 19 41 31
f 19 31 32
f 19 32 20
f 20 32 33
f 20 33 34
f 20 34 21
f 21 34 35
f 21 35 22
f 23 36 24
f 24 36 25
f 27 37 28
f 28 37 38
f 28 38 39
f 28 39 29
f 29 39 52
f 29 52 40
f 30 40 42
f 30 42 43
f 30 43 44
f 30 44 45
f 30 45 46
f 30 46 47
f 30 47 48
f 30 48 41
f 31 41 48
f 31 48 32
f 32 48 68
f 32 68 49
f 32 49 33
f 33 49 50
f 33 50 34
f 34 50 35
f 38 51 39
f 39 51 69
f 39 69 52
f 40 52 53
f 40 53 42
f 42 54 55
f 42 55 56
f 42 56 57
f 42 57 43
f 42 53 54
f 43 58 59
f 43 59 44
f 43 57 58
f 44 59 60
f 44 60 45
f 45 60 46
f 46 60 61
f 46 61 62
f 46 62 63
f 46 63 64
f 46 64 65
f 46 65 47
f 47 65 66
f 47 66 67
f 47 67 48
f 48 67 68
f 52 69 70
f 52 70 71
f 52 71 53
f 53 71 54
f 56 72 58
f 56 58 57
f 58 73 74
f 58 74 59
f 58 72 73
f 59 75 76
f 59 76 60
f 59 74 75
f 60 76 77
f 60 77 78
f 60 78 61
f 61 78 62
f 62 78 77
f 62 77 79
f 62 79 80
f 62 80 63
f 64 81 66
f 64 66 65
f 66 81 82
f 66 82 67
f 67 82 68

