# https://github.com/mikedh/trimesh
v -0.21881221 0.00119434 0.07391600
v -0.21881221 -0.00499725 0.07391600
v -0.21881221 0.00499552 0.07389626
v -0.22501011 0.00499552 0.07338296
v -0.22501011 -0.00499725 0.07338296
v -0.23987027 -0.00996621 0.06996746
v -0.23320699 -0.01042078 0.07030308
v -0.21881221 -0.00723093 0.07288939
v -0.21881221 0.01115577 0.07095459
v -0.22501011 0.01087362 0.07067820
v -0.23299547 0.01041904 0.07030308
v -0.23579827 0.00594385 0.07188250
v -0.24501051 0.00402367 0.07129022
v -0.26120332 0.00054384 0.07010566
v -0.23965874 0.00991745 0.06994772
v -0.26120332 -0.00052990 0.07010566
v -0.24501051 -0.00405676 0.07129022
v -0.23592520 -0.00597694 0.07190225
v -0.24501051 -0.00904922 0.06971081
v -0.28499013 -0.01238799 0.06218883
v -0.27499524 -0.01321876 0.06295879
v -0.26500031 -0.01382224 0.06357083
v -0.25500542 -0.01427681 0.06414336
v -0.22501011 -0.01088319 0.07067820
v -0.21881221 -0.01114967 0.07095459
v -0.21881221 0.01615607 0.06568329
v -0.22501011 0.01587392 0.06544638
v -0.25500542 0.01431426 0.06420259
v -0.26500031 0.01385185 0.06363004
v -0.27499524 0.01325621 0.06301802
v -0.24501051 0.00902397 0.06969106
v -0.25500542 0.00699407 0.06919749
v -0.27499524 0.00499552 0.06744039
v -0.28499013 0.00499552 0.06582148
v -0.28499013 -0.00499725 0.06584123
v -0.28499013 0.01240976 0.06216909
v -0.27499524 -0.00499725 0.06740090
v -0.28499013 -0.01738829 0.05634498
v -0.27499524 -0.01821906 0.05731238
v -0.29499564 -0.01118885 0.06104375
v -0.30041087 -0.02006870 0.05008655
v -0.26500031 -0.01882255 0.05822055
v -0.25500542 -0.01927712 0.05891154
v -0.24501051 -0.01966899 0.05948408
v -0.23834723 -0.01989628 0.05983945
v -0.21881221 -0.01304633 0.06892110
v -0.21881221 0.02048235 0.06068838
v -0.22501011 0.02030209 0.06043173
v -0.23837897 0.01990238 0.05983945
v -0.24501051 0.01968293 0.05950382
v -0.25500542 0.01931457 0.05893128
v -0.26500031 0.01885216 0.05818106
v -0.27499524 0.01825651 0.05723340
v -0.29499564 0.00499552 0.06359056
v -0.31184420 0.00190755 0.06070812
v -0.29499564 0.01118712 0.06100427
v -0.30099258 0.01031716 0.06023430
v -0.31184420 -0.00198767 0.06070812
v -0.29499564 -0.00499725 0.06363004
v -0.30107719 -0.01032673 0.06025404
v -0.28499013 0.01741006 0.05630550
v -0.30042145 0.02006697 0.05008655
v -0.31499603 0.01869541 0.04811227
v -0.32499093 0.01266840 0.05219902
v -0.32685244 -0.01235664 0.05188313
v -0.32499093 -0.01261527 0.05210030
v -0.31499603 -0.01863445 0.04807279
v -0.32499093 -0.02089947 0.04163666
v -0.31499603 -0.02169890 0.04307787
v -0.30425018 -0.02191835 0.04546675
v -0.29499564 -0.02329774 0.04499292
v -0.28499013 -0.02430877 0.04499292
v -0.26500031 -0.02186348 0.05322563
v -0.25500542 -0.02228671 0.05391663
v -0.24501051 -0.02253751 0.05446943
v -0.23168397 -0.02009222 0.06013558
v -0.21881221 -0.01614997 0.06552535
v -0.21881221 0.02346059 0.05498274
v -0.22501011 0.02319411 0.05498274
v -0.24501051 0.02252793 0.05448917
v -0.25500542 0.02227713 0.05393637
v -0.26500031 0.02183039 0.05318615
v -0.30458862 0.00514443 0.06137938
v -0.30765584 0.00857724 0.05934588
v -0.32685244 0.00499552 0.05535785
v -0.32685244 0.01240976 0.05198185
v -0.30775103 -0.00864951 0.05938536
v -0.30464152 -0.00518535 0.06137938
v -0.32685244 -0.00499725 0.05525913
v -0.28499013 0.02426001 0.04499292
v -0.29499564 0.02329600 0.04499292
v -0.30425018 0.02192445 0.04548649
v -0.31499603 0.02169716 0.04309762
v -0.32499093 0.02089774 0.04165640
v -0.32499093 0.01766870 0.04665131
v -0.32685244 0.01648524 0.04746076
v -0.32685244 -0.01745883 0.04619722
v -0.32499093 -0.01761558 0.04663156
v -0.32685244 -0.00615720 0.05480505
v -0.32685244 -0.01836013 0.04493370
v -0.32685244 -0.02073489 0.04132077
v -0.32685244 -0.02115811 0.04053107
v -0.32685244 -0.02361907 0.03512156
v -0.31499603 -0.02535116 0.03498336
v -0.30499053 -0.02658164 0.03498336
v -0.28499013 -0.02846263 0.03599024
v -0.27499524 -0.02523359 0.04499292
v -0.26500031 -0.02608004 0.04499292
v -0.25500542 -0.02674622 0.04499292
v -0.22501011 -0.02311748 0.05498274
v -0.23500502 -0.02223968 0.05589090
v -0.24501051 -0.02719296 0.04499292
v -0.21881221 -0.02336044 0.05498274
v -0.21881221 -0.02147161 0.05849694
v -0.21881221 -0.02036653 0.06053044
v -0.21881221 -0.01779584 0.06363004
v -0.21881221 0.02813172 0.04467704
v -0.23500502 0.02753607 0.04499292
v -0.24501051 0.02717555 0.04499292
v -0.25500542 0.02673665 0.04499292
v -0.26500031 0.02603911 0.04499292
v -0.28499013 0.02846089 0.03599024
v -0.30499053 0.02657990 0.03498336
v -0.31499603 0.02534942 0.03498336
v -0.32685244 0.02361734 0.03512156
v -0.32685244 0.02073315 0.04134052
v -0.32685244 0.01751195 0.04621697
v -0.32685244 -0.02448120 0.03314729
v -0.29071209 -0.03007715 0.03022537
v -0.29442450 -0.02815697 0.03413443
v -0.28499013 -0.03036713 0.03099533
v -0.27499524 -0.02888585 0.03687866
v -0.25500542 -0.02945799 0.03818168
v -0.24501051 -0.02964609 0.03889242
v -0.23500502 -0.02980284 0.03938599
v -0.23500502 -0.02753781 0.04499292
v -0.21881221 -0.02550007 0.05038268
v -0.21881221 0.03001271 0.04003750
v -0.22015545 0.02999704 0.03999801
v -0.22681871 0.02991866 0.03974136
v -0.22408995 0.02826496 0.04398604
v -0.23500502 0.02980110 0.03938599
v -0.24501051 0.02963651 0.03887268
v -0.25500542 0.02944841 0.03826066
v -0.26500031 0.02920545 0.03751043
v -0.27499524 0.02888411 0.03687866
v -0.28499013 0.03036540 0.03099533
v -0.29071209 0.03008325 0.03022537
v -0.29442450 0.02816307 0.03413443
v -0.32685244 0.02726176 0.02499355
v -0.32685244 -0.02725566 0.02499355
v -0.29737538 -0.02967744 0.02884338
v -0.30499053 -0.03058658 0.02222957
v -0.27881339 -0.04409838 -0.01755201
v -0.27491063 -0.04409838 -0.01589363
v -0.27499524 -0.03063361 0.03188375
v -0.26500031 -0.02920719 0.03743146
v -0.24501051 -0.03119791 0.03389751
v -0.23500502 -0.03136249 0.03439108
v -0.22681871 -0.02992040 0.03974136
v -0.22408995 -0.02827453 0.04398604
v -0.21881221 -0.02814129 0.04467704
v -0.21881221 0.03043593 0.03869500
v -0.22408995 0.03119617 0.03585204
v -0.23500502 0.03136075 0.03439108
v -0.24501051 0.03119617 0.03387777
v -0.25500542 0.03099239 0.03326575
v -0.27499524 0.03063187 0.03188375
v -0.27499524 0.03250503 0.02499355
v -0.28499013 0.03187802 0.02499355
v -0.29442450 0.03091402 0.02530943
v -0.30499053 0.03058485 0.02222957
v -0.31161150 0.03020865 0.02076861
v -0.30499053 0.02922896 0.02722447
v -0.31827480 0.02976975 0.01887330
v -0.32685244 0.02937788 0.01533936
v -0.32685244 -0.02773375 0.02309825
v -0.31161150 -0.03021039 0.02076861
v -0.30499053 -0.02923070 0.02722447
v -0.28519109 -0.04409838 -0.02094776
v -0.26500031 -0.04409838 -0.01449189
v -0.24501051 -0.03375292 0.02499355
v -0.23500502 -0.03405858 0.02499355
v -0.21881221 -0.03266351 0.03119276
v -0.21881221 -0.03147222 0.03533873
v -0.22408995 -0.03119007 0.03585204
v -0.22015545 -0.02999877 0.03999801
v -0.21881221 -0.02948934 0.04134052
v -0.21881221 0.03147048 0.03533873
v -0.23500502 0.03404900 0.02499355
v -0.24501051 0.03375118 0.02499355
v -0.25500542 0.03336715 0.02499355
v -0.25500542 0.03562434 0.01498399
v -0.26500031 0.03514625 0.01498399
v -0.27499524 0.03459763 0.01498399
v -0.28499013 0.03392360 0.01498399
v -0.29499564 0.03311635 0.01498399
v -0.30499053 0.03216802 0.01498399
v -0.31496429 0.03092969 0.01531961
v -0.32685244 0.03100807 0.00536928
v -0.29191783 -0.04409838 -0.02467914
v -0.32685244 -0.04409838 -0.04454031
v -0.26337153 -0.04409838 -0.01441292
v -0.21881221 -0.03437208 0.02499355
v -0.22501011 -0.03427019 0.02499355
v -0.21881221 -0.03001445 0.04003750
v -0.21881221 0.03437034 0.02499355
v -0.22501011 0.03426845 0.02499355
v -0.22740042 0.03596918 0.01739260
v -0.23500502 0.03596918 0.01664238
v -0.24501051 0.03596918 0.01528013
v -0.24525377 0.03596918 0.01524064
v -0.24664989 0.03596918 0.01498399
v -0.25500542 0.03596918 0.01283203
v -0.26500031 0.03596918 0.00996934
v -0.27499524 0.03596918 0.00671179
v -0.27622214 0.03596918 0.00621822
v -0.27917302 0.03596918 0.00499417
v -0.28499013 0.03556947 0.00499417
v -0.29499564 0.03468384 0.00499417
v -0.30499053 0.03370415 0.00499417
v -0.31499603 0.03259908 0.00499417
v -0.32685244 0.03596918 -0.02572550
v -0.32685244 -0.04409838 -0.06361178
v -0.25166321 -0.04409838 -0.01457086
v -0.21881221 -0.03524987 0.02118320
v -0.21881221 0.03596918 0.01798488
v -0.22059965 0.03596918 0.01788617
v -0.22501011 0.03596918 0.01760977
v -0.28275847 0.03596918 0.00274350
v -0.32685244 0.03596918 -0.08134075
v -0.32685244 -0.04391028 -0.06499377
v -0.30284348 -0.04409838 -0.08548671
v -0.24566627 -0.04409838 -0.01626874
v -0.21881221 -0.03666062 0.01498399
v -0.21881221 0.03596918 -0.07360160
v -0.30496940 0.03596918 -0.08994856
v -0.32685244 0.01452588 -0.10363027
v -0.32685244 -0.04131608 -0.07326597
v -0.29935321 -0.04409838 -0.08832967
v -0.23917222 -0.04409838 -0.01873658
v -0.21881221 -0.03833784 0.00499417
v -0.21881221 0.03288122 -0.08499315
v -0.26530704 0.03596918 -0.09261383
v -0.29499564 0.03596918 -0.09210053
v -0.28099218 0.01028581 -0.12021416
v -0.30499053 0.01245678 -0.11221835
v -0.31499603 0.01109307 -0.11093508
v -0.32033724 0.01015257 -0.11010589
v -0.32685244 0.01329539 -0.10475561
v -0.32685244 -0.03910591 -0.07826088
v -0.30317137 -0.04137877 -0.09125158
v -0.29401201 -0.04409838 -0.09166619
v -0.23251951 -0.04409838 -0.02252718
v -0.21881221 -0.03951346 -0.00473899
v -0.21881221 0.03070241 -0.09202155
v -0.21881221 0.02892330 -0.09701647
v -0.21881221 0.02693259 -0.10187317
v -0.21881221 0.02561589 -0.10499252
v -0.21881221 0.02315493 -0.10992821
v -0.26637530 0.03596918 -0.09279153
v -0.29211879 0.03596918 -0.09261383
v -0.27499524 0.01074038 -0.12058927
v -0.21881221 0.00450176 -0.12773614
v -0.27499524 0.00499552 -0.12244509
v -0.28458825 0.00492498 -0.12104335
v -0.29199186 0.00153919 -0.12041159
v -0.28765544 0.00820888 -0.11934547
v -0.30499053 0.00499552 -0.11634459
v -0.31499603 0.00499552 -0.11371881
v -0.32685244 0.00436852 -0.11012563
v -0.32685244 0.00711947 -0.10905953
v -0.32685244 0.00762107 -0.10874364
v -0.32685244 -0.03818109 -0.07924801
v -0.32685244 -0.01329713 -0.10475561
v -0.32031608 -0.01014647 -0.11010589
v -0.29499564 -0.04307166 -0.09251513
v -0.29114574 -0.04409838 -0.09290998
v -0.21881221 -0.04005425 -0.00949699
v -0.22866963 -0.04409838 -0.02945687
v -0.21881221 0.02168932 -0.11279090
v -0.27499524 0.03596918 -0.09413402
v -0.24501051 0.01736304 -0.11660124
v -0.25500542 0.01190032 -0.12141846
v -0.26500031 0.01134386 -0.12104335
v -0.21881221 0.00773863 -0.12597904
v -0.21881221 -0.00050639 -0.12777562
v -0.27499524 -0.00499725 -0.12244509
v -0.32685244 0.00283238 -0.11063895
v -0.29199186 -0.00156444 -0.12041159
v -0.32685244 -0.00733282 -0.10896081
v -0.32685244 -0.00712905 -0.10903978
v -0.32685244 -0.00283411 -0.11063895
v -0.31499603 -0.00499725 -0.11371881
v -0.30499053 -0.00499725 -0.11636433
v -0.28100276 -0.01028754 -0.12021416
v -0.31499603 -0.01109480 -0.11091533
v -0.27584136 -0.04409838 -0.09563448
v -0.21881221 -0.04090853 -0.01881555
v -0.22730523 -0.04409838 -0.03498483
v -0.21881221 -0.04167660 -0.02878562
v -0.21881221 0.01961239 -0.11589050
v -0.21881221 0.01830354 -0.11780554
v -0.23500502 0.01773140 -0.11707507
v -0.24501051 0.01236274 -0.12177384
v -0.21881221 0.01330323 -0.12282020
v -0.21881221 -0.00450349 -0.12775588
v -0.28459880 -0.00492672 -0.12104335
v -0.28766602 -0.00821845 -0.11934547
v -0.27499524 -0.01074212 -0.12056953
v -0.27499524 -0.04409838 -0.09571344
v -0.22677641 -0.04409838 -0.03751190
v -0.21881221 -0.04189605 -0.03879518
v -0.21881221 0.01519990 -0.12092489
v -0.21881221 -0.01326578 -0.12285969
v -0.25500542 -0.01189423 -0.12137897
v -0.26500031 -0.01133776 -0.12100387
v -0.26530704 -0.04409838 -0.09407480
v -0.24501051 -0.01234880 -0.12173435
v -0.21881221 -0.01826609 -0.11774632
v -0.22622642 -0.04409838 -0.04499440
v -0.21881221 -0.04166093 -0.04534976
v -0.21881221 -0.02169106 -0.11275141
v -0.21881221 -0.02560196 -0.10499252
v -0.21881221 -0.02890936 -0.09701647
v -0.21881221 -0.03071198 -0.09202155
v -0.25929952 -0.04409838 -0.08836915
v -0.22650142 -0.04409838 -0.04714635
v -0.22828886 -0.04409838 -0.05480653
v -0.21881221 -0.04100258 -0.04919960
v -0.21881221 -0.03209138 -0.08755970
v -0.21881221 -0.03288296 -0.08499315
v -0.23405313 -0.04409838 -0.06288130
v -0.23350313 -0.04409838 -0.06217056
v -0.21881221 -0.03557121 -0.07498358
v -0.21881221 -0.03804001 -0.06473711
f 1 2 8
f 1 8 25
f 1 25 46
f 1 46 77
f 1 77 116
f 1 116 115
f 1 115 114
f 1 114 113
f 1 113 137
f 1 137 162
f 1 162 188
f 1 188 206
f 1 206 185
f 1 185 184
f 1 184 204
f 1 204 226
f 1 226 235
f 1 235 242
f 1 242 255
f 1 255 279
f 1 279 299
f 1 299 301
f 1 301 313
f 1 313 322
f 1 322 330
f 1 330 336
f 1 336 335
f 1 335 332
f 1 332 331
f 1 331 326
f 1 326 325
f 1 325 324
f 1 324 323
f 1 323 320
f 1 320 315
f 1 315 307
f 1 307 287
f 1 287 264
f 1 264 286
f 1 286 306
f 1 306 314
f 1 314 303
f 1 303 302
f 1 302 281
f 1 281 260
f 1 260 259
f 1 259 258
f 1 258 257
f 1 257 256
f 1 256 243
f 1 243 236
f 1 236 227
f 1 227 207
f 1 207 189
f 1 189 163
f 1 163 138
f 1 138 117
f 1 117 78
f 1 78 47
f 1 47 26
f 1 26 9
f 1 9 3
f 1 3 4
f 1 4 5
f 1 5 2
f 2 5 6
f 2 6 7
f 2 7 8
f 3 9 10
f 3 10 11
f 3 11 4
f 4 12 13
f 4 13 14
f 4 14 16
f 4 16 5
f 4 11 15
f 4 15 12
f 5 16 17
f 5 17 18
f 5 18 6
f 6 18 19
f 6 19 20
f 6 20 21
f 6 21 22
f 6 22 7
f 7 22 23
f 7 23 24
f 7 24 8
f 8 24 25
f 9 26 27
f 9 27 10
f 10 27 28
f 10 28 29
f 10 29 11
f 11 29 30
f 11 30 15
f 12 15 31
f 12 31 32
f 12 32 33
f 12 33 13
f 13 33 14
f 14 33 34
f 14 34 35
f 14 35 16
f 15 30 36
f 15 36 31
f 16 35 37
f 16 37 17
f 17 37 18
f 18 37 19
f 19 37 20
f 20 38 39
f 20 39 21
f 20 37 35
f 20 35 40
f 20 40 41
f 20 41 38
f 21 39 42
f 21 42 22
f 22 42 43
f 22 43 23
f 23 43 24
f 24 43 44
f 24 44 25
f 25 44 45
f 25 45 46
f 26 47 48
f 26 48 49
f 26 49 50
f 26 50 27
f 27 50 51
f 27 51 28
f 28 51 29
f 29 51 52
f 29 52 30
f 30 52 53
f 30 53 36
f 31 33 32
f 31 36 33
f 33 36 34
f 34 54 55
f 34 55 35
f 34 36 56
f 34 56 57
f 34 57 54
f 35 55 58
f 35 58 59
f 35 59 60
f 35 60 40
f 36 53 61
f 36 61 62
f 36 62 63
f 36 63 64
f 36 64 56
f 38 41 39
f 39 41 42
f 40 60 65
f 40 65 66
f 40 66 67
f 40 67 41
f 41 67 68
f 41 68 69
f 41 69 70
f 41 70 71
f 41 71 72
f 41 72 73
f 41 73 42
f 42 73 43
f 43 73 74
f 43 74 44
f 44 74 45
f 45 74 75
f 45 75 76
f 45 76 77
f 45 77 46
f 47 78 79
f 47 79 80
f 47 80 48
f 48 80 49
f 49 80 81
f 49 81 50
f 50 81 51
f 51 81 82
f 51 82 52
f 52 82 62
f 52 62 53
f 53 62 61
f 54 57 83
f 54 83 55
f 55 83 84
f 55 84 85
f 55 85 58
f 56 64 86
f 56 86 57
f 57 84 83
f 57 86 84
f 58 87 88
f 58 88 59
f 58 85 89
f 58 89 87
f 59 88 87
f 59 87 60
f 60 87 65
f 62 82 90
f 62 90 91
f 62 91 92
f 62 92 93
f 62 93 94
f 62 94 63
f 63 95 64
f 63 94 95
f 64 95 96
f 64 96 86
f 65 97 98
f 65 98 66
f 65 87 99
f 65 99 89
f 65 89 85
f 65 85 86
f 65 86 96
f 65 96 127
f 65 127 126
f 65 126 125
f 65 125 150
f 65 150 176
f 65 176 200
f 65 200 223
f 65 223 231
f 65 231 238
f 65 238 250
f 65 250 273
f 65 273 272
f 65 272 271
f 65 271 289
f 65 289 293
f 65 293 292
f 65 292 291
f 65 291 275
f 65 275 274
f 65 274 251
f 65 251 239
f 65 239 232
f 65 232 224
f 65 224 202
f 65 202 177
f 65 177 151
f 65 151 128
f 65 128 103
f 65 103 102
f 65 102 101
f 65 101 100
f 65 100 97
f 66 98 67
f 67 98 68
f 68 98 100
f 68 100 101
f 68 101 102
f 68 102 69
f 69 71 70
f 69 102 103
f 69 103 104
f 69 104 71
f 71 104 105
f 71 105 106
f 71 106 72
f 72 107 73
f 72 106 107
f 73 107 108
f 73 108 74
f 74 108 109
f 74 109 75
f 75 110 111
f 75 111 76
f 75 109 112
f 75 112 110
f 76 111 113
f 76 113 114
f 76 114 115
f 76 115 116
f 76 116 77
f 78 117 118
f 78 118 119
f 78 119 79
f 79 119 120
f 79 120 80
f 80 120 81
f 81 120 121
f 81 121 82
f 82 121 90
f 84 86 85
f 87 89 99
f 90 121 122
f 90 122 91
f 91 93 92
f 91 122 123
f 91 123 93
f 93 123 124
f 93 124 125
f 93 125 94
f 94 125 126
f 94 126 95
f 95 127 96
f 95 126 127
f 97 100 98
f 103 128 104
f 104 128 129
f 104 129 105
f 105 129 130
f 105 130 106
f 106 130 129
f 106 129 131
f 106 131 132
f 106 132 108
f 106 108 107
f 108 132 109
f 109 132 133
f 109 133 134
f 109 134 112
f 110 112 113
f 110 113 111
f 112 134 135
f 112 135 136
f 112 136 113
f 113 136 137
f 117 138 139
f 117 139 140
f 117 140 141
f 117 141 118
f 118 141 140
f 118 140 142
f 118 142 119
f 119 142 143
f 119 143 144
f 119 144 120
f 120 144 145
f 120 145 146
f 120 146 121
f 121 146 122
f 122 146 147
f 122 147 148
f 122 148 149
f 122 149 123
f 123 149 148
f 123 148 124
f 124 148 150
f 124 150 125
f 128 151 129
f 129 151 152
f 129 152 153
f 129 153 154
f 129 154 155
f 129 155 131
f 131 156 132
f 131 155 156
f 132 156 157
f 132 157 133
f 133 157 156
f 133 156 134
f 134 156 158
f 134 158 159
f 134 159 135
f 135 159 160
f 135 160 136
f 136 160 161
f 136 161 162
f 136 162 137
f 138 163 139
f 139 163 140
f 140 163 164
f 140 164 165
f 140 165 142
f 142 165 166
f 142 166 143
f 143 166 144
f 144 166 167
f 144 167 168
f 144 168 145
f 145 168 146
f 146 168 147
f 147 168 169
f 147 169 170
f 147 170 148
f 148 170 171
f 148 171 172
f 148 172 173
f 148 173 174
f 148 174 150
f 150 174 173
f 150 173 175
f 150 175 176
f 151 177 154
f 151 154 178
f 151 178 179
f 151 179 152
f 152 179 153
f 153 179 178
f 153 178 154
f 154 180 201
f 154 201 202
f 154 202 224
f 154 224 233
f 154 233 240
f 154 240 253
f 154 253 278
f 154 278 298
f 154 298 311
f 154 311 318
f 154 318 327
f 154 327 333
f 154 333 334
f 154 334 329
f 154 329 328
f 154 328 321
f 154 321 312
f 154 312 300
f 154 300 280
f 154 280 254
f 154 254 241
f 154 241 234
f 154 234 225
f 154 225 203
f 154 203 181
f 154 181 155
f 154 177 180
f 155 181 156
f 156 181 182
f 156 182 158
f 158 182 159
f 159 182 183
f 159 183 184
f 159 184 185
f 159 185 186
f 159 186 160
f 160 186 187
f 160 187 162
f 160 162 161
f 162 187 188
f 163 189 164
f 164 189 165
f 165 189 190
f 165 190 191
f 165 191 166
f 166 191 168
f 166 168 167
f 168 191 192
f 168 192 169
f 169 192 193
f 169 193 194
f 169 194 195
f 169 195 170
f 170 195 196
f 170 196 197
f 170 197 172
f 170 172 171
f 172 197 198
f 172 198 173
f 173 198 199
f 173 199 175
f 175 199 176
f 176 199 200
f 177 201 180
f 177 202 201
f 181 203 204
f 181 204 205
f 181 205 183
f 181 183 182
f 183 205 184
f 184 205 204
f 185 206 187
f 185 187 186
f 187 206 188
f 189 207 208
f 189 208 190
f 190 208 209
f 190 209 210
f 190 210 191
f 191 210 211
f 191 211 212
f 191 212 192
f 192 212 193
f 193 212 213
f 193 213 214
f 193 214 215
f 193 215 194
f 194 215 216
f 194 216 195
f 195 216 217
f 195 217 196
f 196 217 218
f 196 218 219
f 196 219 197
f 197 219 220
f 197 220 198
f 198 220 221
f 198 221 222
f 198 222 199
f 199 222 200
f 200 222 223
f 203 225 204
f 204 225 226
f 207 227 228
f 207 228 229
f 207 229 208
f 208 229 209
f 209 229 228
f 209 228 227
f 209 227 236
f 209 236 244
f 209 244 261
f 209 261 282
f 209 282 262
f 209 262 245
f 209 245 237
f 209 237 231
f 209 231 223
f 209 223 230
f 209 230 218
f 209 218 217
f 209 217 216
f 209 216 215
f 209 215 214
f 209 214 213
f 209 213 212
f 209 212 211
f 209 211 210
f 218 230 219
f 219 230 223
f 219 223 220
f 220 223 221
f 221 223 222
f 224 232 233
f 225 234 235
f 225 235 226
f 231 237 238
f 232 239 233
f 233 239 240
f 234 241 235
f 235 241 242
f 236 243 244
f 237 245 246
f 237 246 247
f 237 247 248
f 237 248 249
f 237 249 238
f 238 249 250
f 239 251 240
f 240 251 252
f 240 252 253
f 241 254 242
f 242 254 255
f 243 256 244
f 244 256 257
f 244 257 258
f 244 258 259
f 244 259 260
f 244 260 261
f 245 262 246
f 246 263 264
f 246 264 265
f 246 265 266
f 246 266 267
f 246 267 268
f 246 268 269
f 246 269 249
f 246 249 248
f 246 248 247
f 246 262 263
f 249 269 270
f 249 270 271
f 249 271 272
f 249 272 273
f 249 273 250
f 251 274 252
f 252 275 276
f 252 276 277
f 252 277 278
f 252 278 253
f 252 274 275
f 254 279 255
f 254 280 279
f 260 281 261
f 261 281 282
f 262 282 283
f 262 283 284
f 262 284 285
f 262 285 263
f 263 285 264
f 264 287 265
f 264 285 284
f 264 284 286
f 265 267 266
f 265 287 288
f 265 288 290
f 265 290 267
f 267 289 270
f 267 270 269
f 267 269 268
f 267 290 293
f 267 293 289
f 270 289 271
f 275 291 276
f 276 291 292
f 276 292 293
f 276 293 294
f 276 294 295
f 276 295 296
f 276 296 297
f 276 297 278
f 276 278 277
f 278 297 296
f 278 296 298
f 279 280 299
f 280 300 301
f 280 301 299
f 281 302 282
f 282 302 303
f 282 303 304
f 282 304 283
f 283 304 284
f 284 305 286
f 284 304 305
f 286 305 306
f 287 307 288
f 288 308 290
f 288 307 296
f 288 296 308
f 290 296 309
f 290 309 295
f 290 295 294
f 290 294 293
f 290 308 296
f 295 309 296
f 296 307 310
f 296 310 298
f 298 310 311
f 300 312 301
f 301 312 313
f 303 314 305
f 303 305 304
f 305 314 306
f 307 315 316
f 307 316 317
f 307 317 310
f 310 317 311
f 311 317 316
f 311 316 319
f 311 319 315
f 311 315 320
f 311 320 318
f 312 321 313
f 313 321 322
f 315 319 316
f 318 320 323
f 318 323 324
f 318 324 325
f 318 325 326
f 318 326 327
f 321 328 322
f 322 328 329
f 322 329 330
f 326 331 327
f 327 331 332
f 327 332 333
f 329 334 335
f 329 335 336
f 329 336 330
f 332 335 333
f 333 335 334

