# https://github.com/mikedh/trimesh
v 0.02499354 0.04246351 -0.14499654
v 0.02499354 0.04047919 -0.13922228
v 0.03060869 0.04041685 -0.13939939
v 0.03163471 0.04131032 -0.14499654
v 0.03156009 0.04133109 -0.15213594
v 0.02438725 0.04172588 -0.15527949
v 0.01547016 0.04131551 -0.15512453
v 0.00768170 0.04065061 -0.15187398
v 0.00768170 0.04065061 -0.14768258
v 0.01514370 0.04131032 -0.14460912
v 0.01857622 0.04022465 -0.13956542
v 0.01514370 0.03760660 -0.13573930
v 0.00499538 0.03174714 -0.12758155
v 0.01499446 0.03223023 -0.12754466
v 0.03090717 0.00537957 -0.12248620
v 0.03116834 0.03499893 -0.13827036
v 0.02208336 0.03153936 -0.12857775
v 0.03187723 0.03442233 -0.14535074
v 0.03156009 0.03736765 -0.15213594
v 0.02064692 0.04024024 -0.16017561
v 0.01911721 0.04024024 -0.16017561
v -0.02111228 0.03060434 -0.15069330
v -0.06341248 0.02016328 -0.12248620
v 0.01190706 0.03970000 -0.14101914
v -0.06284350 0.02023600 -0.12248620
v -0.00647744 0.02707723 -0.12248620
v -0.01762380 0.02585132 -0.12248620
v -0.00500369 0.02713957 -0.12248620
v 0.00487413 0.02721229 -0.12248620
v 0.00499538 0.02720190 -0.12248620
v 0.03104708 -0.00116037 -0.12248620
v 0.01489186 0.02347221 -0.12248620
v 0.03109372 -0.00543549 -0.12248620
v 0.02481631 0.03511321 -0.15512083
v 0.02064692 0.03951819 -0.16017561
v 0.01911721 0.03951819 -0.16017561
v -0.02248342 0.02499941 -0.15071912
v -0.06341248 0.00500037 -0.13559909
v -0.04227637 0.02137361 -0.14175336
v -0.06341248 0.01670370 -0.12738600
v -0.06341248 0.01749847 -0.12637505
v -0.06341248 0.01968019 -0.12319461
v -0.06341248 -0.01060408 -0.12248620
v 0.02158900 -0.01060408 -0.12248620
v -0.00561931 -0.01060408 -0.13332628
v -0.01500277 -0.01060408 -0.13628167
v -0.01686827 -0.01060408 -0.13680190
v -0.02499252 -0.01060408 -0.13893081
v -0.03047709 -0.01060408 -0.14035499
v -0.03684777 -0.01060408 -0.14099330
v -0.04001912 -0.01060408 -0.14099330
v -0.02219427 0.01973213 -0.15026531
v -0.06341248 -0.00499915 -0.13558064
v -0.06341248 0.00341603 -0.13559909
v -0.06341248 0.01250131 -0.13228212
v -0.06341248 -0.01060408 -0.13311966
v -0.04198722 -0.01060408 -0.14056161
v -0.04396465 -0.01060408 -0.13999711
v -0.06341248 -0.00630818 -0.13506040
f 1 2 3
f 1 3 4
f 1 4 5
f 1 5 6
f 1 6 7
f 1 7 8
f 1 8 9
f 1 9 10
f 1 10 11
f 1 11 2
f 2 11 12
f 2 12 13
f 2 13 14
f 2 14 3
f 3 15 16
f 3 16 4
f 3 14 17
f 3 17 15
f 4 18 5
f 4 16 15
f 4 15 18
f 5 18 19
f 5 19 35
f 5 35 20
f 5 20 6
f 6 20 21
f 6 21 7
f 7 21 8
f 8 21 22
f 8 22 23
f 8 23 9
f 9 23 10
f 10 23 24
f 10 24 11
f 11 13 12
f 11 24 23
f 11 23 25
f 11 25 13
f 13 26 14
f 13 25 27
f 13 27 26
f 14 26 28
f 14 28 29
f 14 29 30
f 14 30 17
f 15 31 18
f 15 17 32
f 15 32 30
f 15 30 29
f 15 29 28
f 15 28 26
f 15 26 27
f 15 27 25
f 15 25 23
f 15 23 43
f 15 43 44
f 15 44 33
f 15 33 31
f 17 30 32
f 18 31 33
f 18 33 19
f 19 33 34
f 19 34 35
f 20 35 36
f 20 36 21
f 21 36 37
f 21 37 22
f 22 37 38
f 22 38 39
f 22 39 40
f 22 40 41
f 22 41 42
f 22 42 23
f 23 42 41
f 23 41 40
f 23 40 55
f 23 55 38
f 23 38 54
f 23 54 53
f 23 53 59
f 23 59 56
f 23 56 43
f 33 44 35
f 33 35 34
f 35 44 45
f 35 45 46
f 35 46 47
f 35 47 48
f 35 48 49
f 35 49 50
f 35 50 51
f 35 51 36
f 36 51 52
f 36 52 37
f 37 52 53
f 37 53 54
f 37 54 38
f 38 55 39
f 39 55 40
f 43 56 58
f 43 58 57
f 43 57 51
f 43 51 50
f 43 50 49
f 43 49 48
f 43 48 47
f 43 47 46
f 43 46 45
f 43 45 44
f 51 57 52
f 52 57 53
f 53 57 58
f 53 58 59
f 56 59 58

