# https://github.com/mikedh/trimesh
v -0.11333141 -0.00307437 0.07788805
v -0.11086594 -0.00051390 0.08042699
v -0.11333141 -0.00273931 0.07788805
v -0.11252242 -0.00380334 0.07788805
v -0.09239425 -0.00096895 0.09078553
v -0.11086594 0.00051390 0.08042699
v -0.11331214 0.00306531 0.07788805
v -0.07282465 -0.00122477 0.10091695
v -0.10373922 -0.00640003 0.07788805
v -0.01498263 -0.00369694 0.12540595
v -0.02499856 -0.00251066 0.12233164
v -0.01166966 -0.00115006 0.13079207
v -0.09239425 0.00096895 0.09078553
v -0.07282465 0.00115911 0.10091695
v -0.10499121 0.00586349 0.07788805
v -0.09391589 -0.00801871 0.07788805
v -0.00500521 -0.00685733 0.12499226
v -0.00500521 -0.00247444 0.13203314
v -0.01166966 0.00115006 0.13079207
v 0.06878527 -0.00096215 0.16074830
v 0.03954644 -0.00034638 0.15022752
v -0.02499856 0.00246312 0.12233164
v -0.01498263 0.00367883 0.12540595
v -0.09503306 0.00775384 0.07788805
v -0.00500521 0.00686186 0.12499226
v -0.08409257 -0.00856658 0.07788805
v -0.01498263 -0.01029166 0.10299353
v -0.00951238 -0.00997245 0.10973429
v -0.00569862 -0.00949024 0.11469049
v -0.01498263 -0.00853714 0.11500685
v 0.00499146 -0.00824057 0.12499226
v 0.05499409 -0.00681206 0.14499553
v 0.04499742 -0.00541523 0.14499553
v 0.04499742 -0.00161642 0.15128204
v -0.00500521 0.00247444 0.13203314
v 0.03954644 0.00034864 0.15022752
v 0.06878527 0.00097347 0.16074830
v 0.06526043 -0.00310833 0.15515938
v 0.07519931 -0.00300419 0.15559742
v 0.07200192 -0.00096215 0.16074830
v -0.08499786 0.00843300 0.07788805
v -0.01498263 0.00851450 0.11500685
v -0.00573715 0.00949251 0.11477161
v -0.00957017 0.00997245 0.10973429
v 0.00499146 0.00824737 0.12499226
v 0.04499742 0.00161868 0.15128204
v 0.04499742 0.00541750 0.14499553
v -0.07388403 -0.00889937 0.07788805
v -0.01498263 -0.01099347 0.08500195
v -0.02499856 -0.01062219 0.08500195
v -0.01498263 -0.01079198 0.09500358
v -0.00569862 -0.01048183 0.10584071
v -0.00282867 -0.01014225 0.11114571
v 0.00499146 -0.00968720 0.11735922
v 0.01498813 -0.00886541 0.12499226
v 0.06499076 -0.00692525 0.14499553
v 0.04499742 -0.00831755 0.13499390
v 0.07200192 0.00097347 0.16074830
v 0.07519931 0.00297476 0.15559742
v 0.06499076 0.00684828 0.14499553
v 0.05499409 0.00672829 0.14499553
v 0.07498744 -0.00629815 0.14499553
v 0.08188303 -0.00186771 0.15266912
v -0.07498193 0.00881560 0.07788805
v -0.01498263 0.01029166 0.10299353
v -0.01498263 0.01079198 0.09500358
v -0.02499856 0.01062219 0.08500195
v 0.00499146 0.00969173 0.11748900
v -0.00290572 0.01016488 0.11128361
v 0.01498813 0.00886767 0.12499226
v -0.01498263 -0.01078066 0.07788805
v -0.01213194 -0.01084632 0.07788805
v 0.00499146 -0.01144851 0.08500195
v 0.00499146 -0.01136475 0.09500358
v -0.00500521 -0.01110666 0.09500358
v 0.00499146 -0.01087348 0.10500521
v 0.00499146 -0.01026223 0.11236246
v 0.01498813 -0.00985699 0.11859219
v 0.05499409 -0.00840131 0.13499390
v 0.06499076 -0.00793948 0.13499390
v 0.02498481 -0.00995887 0.11952502
v 0.08188303 0.00187677 0.15266912
v 0.07498744 0.00629363 0.14499553
v 0.06499076 0.00797796 0.13499390
v 0.05499409 0.00838999 0.13499390
v 0.04499742 0.00829944 0.13499390
v 0.07498744 -0.00683243 0.13499390
v 0.08315428 -0.00284119 0.14499553
v 0.06499076 -0.00855978 0.12499226
v -0.01498263 0.01099347 0.08500195
v -0.01498263 0.01078066 0.07788805
v -0.00573715 0.01049541 0.10584071
v 0.00499146 0.01089386 0.10500521
v -0.00500521 0.01110666 0.09500358
v 0.00499146 0.01028487 0.11248413
v 0.01498813 0.00985926 0.11861652
v -0.00213526 -0.01106365 0.07788805
v 0.00499146 -0.01117005 0.07788805
v 0.00786141 -0.01120401 0.07788805
v 0.01498813 -0.01156397 0.08500195
v 0.01498813 -0.01152096 0.09500358
v 0.01498813 -0.01102516 0.10500521
v 0.01498813 -0.01033468 0.11358731
v 0.05499409 -0.00922537 0.12499226
v 0.04499742 -0.00938837 0.12499226
v 0.02498481 -0.01037316 0.11452826
v 0.03498148 -0.00994981 0.11938713
v 0.08315428 0.00283213 0.14499553
v 0.07498744 0.00685281 0.13499390
v 0.06499076 0.00855073 0.12499226
v 0.05499409 0.00922537 0.12499226
v 0.03498148 0.01039580 0.11443092
v 0.04499742 0.00936799 0.12499226
v 0.03498148 0.00994755 0.11941957
v 0.02498481 0.00995887 0.11954124
v 0.07498744 -0.00724220 0.12499226
v 0.08340468 -0.00301777 0.13499390
v 0.05466664 -0.00971663 0.11476350
v 0.05763290 -0.00984115 0.10500521
v 0.06499076 -0.00889937 0.11500685
v 0.00499146 0.01136475 0.09500358
v 0.00499146 0.01144851 0.08500195
v -0.00500521 0.01099573 0.07788805
v 0.01498813 0.01033920 0.11361976
v 0.01498813 0.01102743 0.10500521
v 0.01498813 0.01152096 0.09500358
v 0.01498813 -0.01125382 0.07788805
v 0.02498481 -0.01112930 0.07788805
v 0.02498481 -0.01143040 0.08500195
v 0.02498481 -0.01143946 0.09500358
v 0.02498481 -0.01105007 0.10500521
v 0.03498148 -0.01035279 0.11439847
v 0.04499742 -0.01021016 0.11290593
v 0.05112254 -0.01006754 0.11126739
v 0.08340468 0.00298834 0.13499390
v 0.07498744 0.00722182 0.12499226
v 0.06499076 0.00889031 0.11500685
v 0.05769068 0.00983662 0.10500521
v 0.05474369 0.00971437 0.11485273
v 0.05125738 0.01008338 0.11141340
v 0.04499742 0.01023959 0.11302761
v 0.03498148 0.01096857 0.10500521
v 0.02498481 0.01107271 0.10500521
v 0.02498481 0.01039580 0.11454448
v 0.07498744 -0.00735086 0.11500685
v 0.06499076 -0.00910085 0.10500521
v 0.08319280 -0.00320341 0.12499226
v 0.08344319 -0.00338905 0.07788805
v 0.05262494 -0.01018979 0.10500521
v 0.05393471 -0.01032336 0.09500358
v 0.05894268 -0.00991359 0.09500358
v 0.00499146 0.01117005 0.07788805
v 0.01498813 0.01156397 0.08500195
v 0.02498481 0.01143946 0.09500358
v 0.03498148 -0.01090291 0.07788805
v 0.03498148 -0.01116779 0.08500195
v 0.03498148 -0.01118590 0.09500358
v 0.03498148 -0.01092555 0.10500521
v 0.04499742 -0.01060182 0.10500521
v 0.08344319 0.00338905 0.07788805
v 0.08319280 0.00318983 0.12499226
v 0.07498744 0.00734181 0.11500685
v 0.06499076 0.00907369 0.10500521
v 0.05888489 0.00990906 0.09500358
v 0.05389619 0.01032336 0.09500358
v 0.05268272 0.01020111 0.10500521
v 0.04499742 0.01063351 0.10500521
v 0.03498148 0.01118816 0.09500358
v 0.07498744 -0.00764517 0.07788805
v 0.06499076 -0.00919594 0.09500358
v 0.04499742 -0.01084632 0.09500358
v 0.04499742 -0.01081915 0.08500195
v 0.05353022 -0.01030298 0.08500195
v 0.06499076 -0.00914613 0.08500195
v 0.05853819 -0.00987284 0.08500195
v 0.01498813 0.01125382 0.07788805
v 0.02498481 0.01143040 0.08500195
v 0.02211486 0.01116779 0.07788805
v 0.03787069 -0.01080330 0.07788805
v 0.08111256 0.00462740 0.07788805
v 0.07498744 0.00766555 0.07788805
v 0.06499076 0.00918915 0.09500358
v 0.06499076 0.00919141 0.08500195
v 0.05867302 0.00989095 0.08500195
v 0.05366505 0.01030298 0.08500195
v 0.04499742 0.01081915 0.08500195
v 0.04499742 0.01084632 0.09500358
v 0.03498148 0.01116779 0.08500195
v 0.06499076 -0.00906916 0.07788805
v 0.04545969 -0.01052258 0.07788805
v 0.05202783 -0.01017394 0.07788805
v 0.05457034 -0.00998151 0.07788805
v 0.05626534 -0.00983436 0.07788805
v 0.03498148 0.01090291 0.07788805
v 0.03211153 0.01097762 0.07788805
v 0.02498481 0.01112930 0.07788805
v 0.07211749 0.00814323 0.07788805
v 0.06499076 0.00910765 0.07788805
v 0.06316093 0.00930687 0.07788805
v 0.05638091 0.00985020 0.07788805
v 0.05220119 0.01017394 0.07788805
v 0.05131516 0.01022601 0.07788805
v 0.04545969 0.01052258 0.07788805
f 1 2 6
f 1 6 3
f 1 3 7
f 1 7 15
f 1 15 24
f 1 24 41
f 1 41 64
f 1 64 91
f 1 91 123
f 1 123 152
f 1 152 176
f 1 176 178
f 1 178 196
f 1 196 195
f 1 195 194
f 1 194 203
f 1 203 202
f 1 202 201
f 1 201 200
f 1 200 199
f 1 199 198
f 1 198 197
f 1 197 181
f 1 181 180
f 1 180 160
f 1 160 148
f 1 148 169
f 1 169 189
f 1 189 193
f 1 193 192
f 1 192 191
f 1 191 190
f 1 190 179
f 1 179 155
f 1 155 128
f 1 128 127
f 1 127 99
f 1 99 98
f 1 98 97
f 1 97 72
f 1 72 71
f 1 71 48
f 1 48 26
f 1 26 16
f 1 16 9
f 1 9 4
f 1 4 5
f 1 5 2
f 2 5 13
f 2 13 6
f 3 6 7
f 4 8 5
f 4 9 10
f 4 10 11
f 4 11 12
f 4 12 8
f 5 8 14
f 5 14 13
f 6 13 7
f 7 13 14
f 7 14 15
f 8 12 19
f 8 19 14
f 9 16 17
f 9 17 10
f 10 17 18
f 10 18 12
f 10 12 11
f 12 18 20
f 12 20 21
f 12 21 36
f 12 36 19
f 14 19 22
f 14 22 23
f 14 23 15
f 15 23 25
f 15 25 24
f 16 26 27
f 16 27 28
f 16 28 29
f 16 29 30
f 16 30 17
f 17 30 31
f 17 31 32
f 17 32 33
f 17 33 20
f 17 20 34
f 17 34 18
f 18 34 20
f 19 35 23
f 19 23 22
f 19 36 37
f 19 37 35
f 20 33 32
f 20 32 38
f 20 38 39
f 20 39 40
f 20 40 58
f 20 58 37
f 20 37 36
f 20 36 21
f 23 35 25
f 24 25 42
f 24 42 43
f 24 43 44
f 24 44 41
f 25 45 42
f 25 35 46
f 25 46 37
f 25 37 47
f 25 47 45
f 26 48 49
f 26 49 50
f 26 50 51
f 26 51 27
f 27 51 52
f 27 52 28
f 28 52 53
f 28 53 29
f 29 53 54
f 29 54 31
f 29 31 30
f 31 54 55
f 31 55 32
f 32 56 38
f 32 55 57
f 32 57 56
f 35 37 46
f 37 58 59
f 37 59 60
f 37 60 61
f 37 61 47
f 38 56 39
f 39 56 62
f 39 62 63
f 39 63 40
f 40 63 82
f 40 82 58
f 41 44 65
f 41 65 66
f 41 66 67
f 41 67 64
f 42 45 43
f 43 45 68
f 43 68 69
f 43 69 44
f 44 69 65
f 45 47 61
f 45 61 70
f 45 70 68
f 48 71 49
f 49 71 72
f 49 72 73
f 49 73 74
f 49 74 75
f 49 75 51
f 49 51 50
f 51 75 76
f 51 76 52
f 52 76 53
f 53 76 77
f 53 77 54
f 54 77 78
f 54 78 55
f 55 78 57
f 56 57 79
f 56 79 80
f 56 80 62
f 57 78 81
f 57 81 79
f 58 82 59
f 59 82 83
f 59 83 60
f 60 84 85
f 60 85 86
f 60 86 61
f 60 83 84
f 61 86 70
f 62 87 88
f 62 88 63
f 62 80 89
f 62 89 87
f 63 88 108
f 63 108 82
f 64 67 90
f 64 90 91
f 65 69 92
f 65 92 66
f 66 92 93
f 66 93 94
f 66 94 90
f 66 90 67
f 68 95 69
f 68 70 96
f 68 96 95
f 69 95 93
f 69 93 92
f 70 86 96
f 72 97 73
f 73 97 98
f 73 98 99
f 73 99 100
f 73 100 101
f 73 101 74
f 74 76 75
f 74 101 76
f 76 101 102
f 76 102 103
f 76 103 77
f 77 103 81
f 77 81 78
f 79 104 80
f 79 81 105
f 79 105 104
f 80 104 89
f 81 103 106
f 81 106 107
f 81 107 105
f 82 108 83
f 83 108 109
f 83 109 110
f 83 110 84
f 84 110 111
f 84 111 85
f 85 111 112
f 85 112 113
f 85 113 114
f 85 114 115
f 85 115 86
f 86 115 96
f 87 116 88
f 87 89 116
f 88 117 135
f 88 135 108
f 88 116 117
f 89 104 118
f 89 118 119
f 89 119 120
f 89 120 116
f 90 94 121
f 90 121 122
f 90 122 91
f 91 122 123
f 93 121 94
f 93 95 124
f 93 124 125
f 93 125 126
f 93 126 121
f 95 96 115
f 95 115 124
f 99 127 100
f 100 127 128
f 100 128 129
f 100 129 130
f 100 130 101
f 101 130 131
f 101 131 102
f 102 131 106
f 102 106 103
f 104 105 132
f 104 132 133
f 104 133 134
f 104 134 118
f 105 107 132
f 106 131 132
f 106 132 107
f 108 135 136
f 108 136 109
f 109 136 110
f 110 137 138
f 110 138 139
f 110 139 111
f 110 136 137
f 111 139 140
f 111 140 141
f 111 141 112
f 112 114 113
f 112 141 142
f 112 142 143
f 112 143 144
f 112 144 115
f 112 115 114
f 115 144 124
f 116 145 117
f 116 120 146
f 116 146 145
f 117 147 148
f 117 148 160
f 117 160 135
f 117 145 147
f 118 134 149
f 118 149 119
f 119 149 150
f 119 150 151
f 119 151 120
f 120 151 146
f 121 126 122
f 122 152 123
f 122 126 153
f 122 153 152
f 124 144 125
f 125 144 143
f 125 143 126
f 126 143 154
f 126 154 153
f 128 155 129
f 129 155 156
f 129 156 157
f 129 157 130
f 130 157 158
f 130 158 131
f 131 158 132
f 132 158 133
f 133 158 159
f 133 159 134
f 134 159 149
f 135 160 161
f 135 161 162
f 135 162 136
f 136 162 163
f 136 163 137
f 137 163 164
f 137 164 138
f 138 165 166
f 138 166 139
f 138 164 165
f 139 166 140
f 140 166 167
f 140 167 141
f 141 167 142
f 142 168 154
f 142 154 143
f 142 167 168
f 145 169 147
f 145 146 170
f 145 170 169
f 146 151 170
f 147 169 148
f 149 159 171
f 149 171 150
f 150 171 172
f 150 172 173
f 150 173 151
f 151 174 170
f 151 173 175
f 151 175 174
f 152 153 176
f 153 154 177
f 153 177 178
f 153 178 176
f 154 168 177
f 155 179 156
f 156 179 172
f 156 172 171
f 156 171 157
f 157 171 159
f 157 159 158
f 160 180 161
f 161 180 181
f 161 181 162
f 162 181 182
f 162 182 163
f 163 182 164
f 164 182 183
f 164 183 184
f 164 184 165
f 165 184 185
f 165 185 186
f 165 186 187
f 165 187 166
f 166 187 167
f 167 187 168
f 168 187 188
f 168 188 177
f 169 170 174
f 169 174 189
f 172 179 190
f 172 190 191
f 172 191 173
f 173 191 192
f 173 192 175
f 174 175 189
f 175 192 193
f 175 193 189
f 177 188 194
f 177 194 195
f 177 195 196
f 177 196 178
f 181 197 182
f 182 197 183
f 183 198 184
f 183 197 198
f 184 198 199
f 184 199 185
f 185 199 200
f 185 200 201
f 185 201 186
f 186 201 202
f 186 202 203
f 186 203 194
f 186 194 188
f 186 188 187

