# https://github.com/mikedh/trimesh
v 0.01911721 -0.04023996 -0.16017561
v 0.01911721 -0.03951957 -0.16017561
v 0.02064692 -0.04023996 -0.16017561
v 0.02438725 -0.04172752 -0.15527949
v 0.01547016 -0.04131899 -0.15512453
v 0.00768170 -0.04065161 -0.15187398
v -0.02111228 -0.03060354 -0.15069330
v -0.02248342 -0.02500257 -0.15071912
v 0.02064692 -0.03951957 -0.16017561
v -0.02219427 -0.01973840 -0.15026531
v -0.00500369 -0.02568554 -0.15350847
v 0.03156009 -0.04133146 -0.15213594
v 0.02499354 -0.04246039 -0.14499654
v 0.00768170 -0.04065161 -0.14768258
v -0.06341248 -0.02006897 -0.12248620
v -0.06341248 -0.01751173 -0.12641932
v -0.04227637 -0.02137566 -0.14175336
v -0.06341248 -0.01060719 -0.13311966
v 0.00499538 -0.02663359 -0.15372986
v 0.01499446 -0.02789037 -0.15288123
v 0.02231654 -0.02905361 -0.15143859
v 0.02481631 -0.03511301 -0.15512083
v 0.03156009 -0.03737086 -0.15213594
v -0.04396465 -0.01060719 -0.13999711
v -0.04198722 -0.01060719 -0.14056161
v -0.04001912 -0.01060719 -0.14099330
v -0.01789429 -0.01973840 -0.15026531
v 0.03187723 -0.03442068 -0.14535074
v 0.03163471 -0.04131275 -0.14499654
v 0.03060869 -0.04041460 -0.13939939
v 0.02499354 -0.04048009 -0.13922228
v 0.01857622 -0.04022437 -0.13956542
v 0.01514370 -0.04130963 -0.14460912
v -0.01453639 -0.02606912 -0.12248620
v -0.06341248 -0.01060719 -0.12248620
v 0.01190706 -0.03969733 -0.14101914
v 0.00499538 -0.03174806 -0.12758155
v -0.06341248 -0.01251265 -0.13225998
v -0.01123446 -0.02020307 -0.14975613
v -0.00500369 -0.02068645 -0.14886324
v 0.02158900 -0.01060719 -0.12248620
v 0.00499538 -0.02163762 -0.14673065
v -0.00561931 -0.01060719 -0.13332628
v 0.02898570 -0.03070334 -0.14892228
v 0.03094448 -0.02915340 -0.14225514
v -0.03684777 -0.01060719 -0.14099330
v -0.03047709 -0.01060719 -0.14035499
v 0.03094448 -0.02915340 -0.13829619
v 0.03116834 -0.03499762 -0.13827036
v 0.02208336 -0.03153912 -0.12857775
v 0.01499446 -0.03223456 -0.12754466
v 0.01514370 -0.03760787 -0.13573930
v -0.00500369 -0.02713880 -0.12248620
v -0.02499252 -0.01060719 -0.13893081
v -0.01686827 -0.01060719 -0.13680190
v -0.01500277 -0.01060719 -0.13628167
v 0.02111330 -0.01269976 -0.12248620
v 0.01492917 -0.02350253 -0.12248620
v 0.00509799 -0.02722612 -0.12248620
v 0.00499538 -0.02724795 -0.12248620
f 1 2 9
f 1 9 3
f 1 3 4
f 1 4 5
f 1 5 6
f 1 6 7
f 1 7 8
f 1 8 2
f 2 8 10
f 2 10 11
f 2 11 9
f 3 9 23
f 3 23 12
f 3 12 4
f 4 12 13
f 4 13 5
f 5 13 6
f 6 13 14
f 6 14 15
f 6 15 7
f 7 15 16
f 7 16 17
f 7 17 18
f 7 18 8
f 8 18 10
f 9 11 19
f 9 19 20
f 9 20 21
f 9 21 22
f 9 22 23
f 10 18 24
f 10 24 25
f 10 25 26
f 10 26 46
f 10 46 27
f 10 27 11
f 11 27 19
f 12 23 28
f 12 28 29
f 12 29 13
f 13 29 30
f 13 30 31
f 13 31 32
f 13 32 33
f 13 33 14
f 14 33 15
f 15 34 53
f 15 53 60
f 15 60 59
f 15 59 58
f 15 58 57
f 15 57 41
f 15 41 35
f 15 35 18
f 15 18 38
f 15 38 16
f 15 33 36
f 15 36 32
f 15 32 37
f 15 37 34
f 16 38 17
f 17 38 18
f 18 35 41
f 18 41 43
f 18 43 56
f 18 56 55
f 18 55 54
f 18 54 47
f 18 47 46
f 18 46 26
f 18 26 25
f 18 25 24
f 19 27 39
f 19 39 40
f 19 40 20
f 20 41 21
f 20 40 42
f 20 42 43
f 20 43 41
f 21 41 44
f 21 44 22
f 22 44 23
f 23 44 45
f 23 45 28
f 27 46 47
f 27 47 39
f 28 45 48
f 28 48 49
f 28 49 29
f 29 49 30
f 30 49 50
f 30 50 51
f 30 51 31
f 31 51 37
f 31 37 52
f 31 52 32
f 32 36 33
f 32 52 37
f 34 37 53
f 37 51 53
f 39 47 54
f 39 54 40
f 40 54 55
f 40 55 56
f 40 56 43
f 40 43 42
f 41 57 49
f 41 49 48
f 41 48 45
f 41 45 44
f 49 57 50
f 50 57 58
f 50 58 59
f 50 59 51
f 51 59 60
f 51 60 53

