# Converted/generated visual mesh for LIBERO obvious hazard prop
v -0.0400000 0.0135025 0.0135025
v -0.0400000 0.0128439 0.0176770
v -0.0400000 0.0109258 0.0214413
v -0.0400000 0.0079352 0.0244283
v -0.0400000 0.0041709 0.0263464
v -0.0400000 -0.0000000 0.0270049
v -0.0400000 -0.0041709 0.0263464
v -0.0400000 -0.0079352 0.0244283
v -0.0400000 -0.0109258 0.0214413
v -0.0400000 -0.0128439 0.0176770
v -0.0400000 -0.0135025 0.0135025
v -0.0400000 -0.0128439 0.0093315
v -0.0400000 -0.0109258 0.0055673
v -0.0400000 -0.0079352 0.0025803
v -0.0400000 -0.0041709 0.0006622
v -0.0400000 -0.0000000 0.0000000
v -0.0400000 0.0041709 0.0006622
v -0.0400000 0.0079352 0.0025803
v -0.0400000 0.0109258 0.0055673
v -0.0400000 0.0128439 0.0093315
v -0.0379379 0.0135025 0.0135025
v -0.0379379 0.0128439 0.0176770
v -0.0379379 0.0109258 0.0214413
v -0.0379379 0.0079352 0.0244283
v -0.0379379 0.0041709 0.0263464
v -0.0379379 -0.0000000 0.0270049
v -0.0379379 -0.0041709 0.0263464
v -0.0379379 -0.0079352 0.0244283
v -0.0379379 -0.0109258 0.0214413
v -0.0379379 -0.0128439 0.0176770
v -0.0379379 -0.0135025 0.0135025
v -0.0379379 -0.0128439 0.0093315
v -0.0379379 -0.0109258 0.0055673
v -0.0379379 -0.0079352 0.0025803
v -0.0379379 -0.0041709 0.0006622
v -0.0379379 -0.0000000 0.0000000
v -0.0379379 0.0041709 0.0006622
v -0.0379379 0.0079352 0.0025803
v -0.0379379 0.0109258 0.0055673
v -0.0379379 0.0128439 0.0093315
v -0.0380675 0.0121637 0.0135025
v -0.0380675 0.0115700 0.0172632
v -0.0380675 0.0098390 0.0206532
v -0.0380675 0.0071507 0.0233450
v -0.0380675 0.0037571 0.0250724
v -0.0380675 -0.0000000 0.0256662
v -0.0380675 -0.0037571 0.0250724
v -0.0380675 -0.0071507 0.0233450
v -0.0380675 -0.0098390 0.0206532
v -0.0380675 -0.0115700 0.0172632
v -0.0380675 -0.0121637 0.0135025
v -0.0380675 -0.0115700 0.0097454
v -0.0380675 -0.0098390 0.0063554
v -0.0380675 -0.0071507 0.0036635
v -0.0380675 -0.0037571 0.0019361
v -0.0380675 -0.0000000 0.0013387
v -0.0380675 0.0037571 0.0019361
v -0.0380675 0.0071507 0.0036635
v -0.0380675 0.0098390 0.0063554
v -0.0380675 0.0115700 0.0097454
v -0.0357607 0.0123041 0.0135025
v -0.0357607 0.0117031 0.0173063
v -0.0357607 0.0099541 0.0207359
v -0.0357607 0.0072335 0.0234602
v -0.0357607 0.0038039 0.0252056
v -0.0357607 -0.0000000 0.0258102
v -0.0357607 -0.0038039 0.0252056
v -0.0357607 -0.0072335 0.0234602
v -0.0357607 -0.0099541 0.0207359
v -0.0357607 -0.0117031 0.0173063
v -0.0357607 -0.0123041 0.0135025
v -0.0357607 -0.0117031 0.0097022
v -0.0357607 -0.0099541 0.0062690
v -0.0357607 -0.0072335 0.0035484
v -0.0357607 -0.0038039 0.0017994
v -0.0357607 -0.0000000 0.0011984
v -0.0357607 0.0038039 0.0017994
v -0.0357607 0.0072335 0.0035484
v -0.0357607 0.0099541 0.0062690
v -0.0357607 0.0117031 0.0097022
v -0.0340369 0.0134053 0.0135025
v -0.0340369 0.0127503 0.0176446
v -0.0340369 0.0108430 0.0213837
v -0.0340369 0.0078776 0.0243491
v -0.0340369 0.0041422 0.0262528
v -0.0340369 -0.0000000 0.0269078
v -0.0340369 -0.0041422 0.0262528
v -0.0340369 -0.0078776 0.0243491
v -0.0340369 -0.0108466 0.0213837
v -0.0340369 -0.0127503 0.0176446
v -0.0340369 -0.0134053 0.0135025
v -0.0340369 -0.0127503 0.0093603
v -0.0340369 -0.0108466 0.0056248
v -0.0340369 -0.0078776 0.0026595
v -0.0340369 -0.0041422 0.0007557
v -0.0340369 -0.0000000 0.0000972
v -0.0340369 0.0041422 0.0007557
v -0.0340369 0.0078776 0.0026595
v -0.0340369 0.0108430 0.0056248
v -0.0340369 0.0127503 0.0093603
v 0.0200630 0.0134053 0.0135025
v 0.0200630 0.0127503 0.0176446
v 0.0200630 0.0108430 0.0213837
v 0.0200630 0.0078776 0.0243491
v 0.0200630 0.0041422 0.0262528
v 0.0200630 0.0000000 0.0269078
v 0.0200630 -0.0041422 0.0262528
v 0.0200630 -0.0078776 0.0243491
v 0.0200630 -0.0108430 0.0213837
v 0.0200630 -0.0127503 0.0176446
v 0.0200630 -0.0134053 0.0135025
v 0.0200630 -0.0127503 0.0093603
v 0.0200630 -0.0108430 0.0056248
v 0.0200630 -0.0078776 0.0026595
v 0.0200630 -0.0041422 0.0007557
v 0.0200630 0.0000000 0.0000972
v 0.0200630 0.0041422 0.0007557
v 0.0200630 0.0078776 0.0026595
v 0.0200630 0.0108430 0.0056248
v 0.0200630 0.0127503 0.0093603
v 0.0200630 0.0122537 0.0135025
v 0.0200630 0.0116527 0.0172883
v 0.0200630 0.0099145 0.0207072
v 0.0200630 0.0072011 0.0234170
v 0.0200630 0.0037859 0.0251552
v 0.0200630 0.0000000 0.0257562
v 0.0200630 -0.0037859 0.0251552
v 0.0200630 -0.0072011 0.0234170
v 0.0200630 -0.0099145 0.0207072
v 0.0200630 -0.0116527 0.0172883
v 0.0200630 -0.0122537 0.0135025
v 0.0200630 -0.0116527 0.0097166
v 0.0200630 -0.0099145 0.0063014
v 0.0200630 -0.0072011 0.0035915
v 0.0200630 -0.0037859 0.0018498
v 0.0200630 0.0000000 0.0012488
v 0.0200630 0.0037859 0.0018498
v 0.0200630 0.0072011 0.0035915
v 0.0200630 0.0099145 0.0063014
v 0.0200630 0.0116527 0.0097166
v 0.0251516 0.0122537 0.0135025
v 0.0251516 0.0116527 0.0172883
v 0.0251516 0.0099145 0.0207072
v 0.0251516 0.0072011 0.0234170
v 0.0251516 0.0037859 0.0251552
v 0.0251516 0.0000000 0.0257562
v 0.0251516 -0.0037859 0.0251552
v 0.0251516 -0.0072011 0.0234170
v 0.0251516 -0.0099145 0.0207072
v 0.0251516 -0.0116527 0.0172883
v 0.0251516 -0.0122537 0.0135025
v 0.0251516 -0.0116527 0.0097166
v 0.0251516 -0.0099145 0.0063014
v 0.0251516 -0.0072011 0.0035915
v 0.0251516 -0.0037859 0.0018498
v 0.0251516 0.0000000 0.0012488
v 0.0251516 0.0037859 0.0018498
v 0.0251516 0.0072011 0.0035915
v 0.0251516 0.0099145 0.0063014
v 0.0251516 0.0116527 0.0097166
v 0.0297436 0.0114836 0.0135025
v 0.0297436 0.0109222 0.0170508
v 0.0297436 0.0092919 0.0202537
v 0.0297436 0.0067512 0.0227944
v 0.0297436 0.0035484 0.0244247
v 0.0297436 0.0000000 0.0249861
v 0.0297436 -0.0035484 0.0244247
v 0.0297436 -0.0067512 0.0227944
v 0.0297436 -0.0092919 0.0202537
v 0.0297436 -0.0109222 0.0170508
v 0.0297436 -0.0114836 0.0135025
v 0.0297436 -0.0109222 0.0099541
v 0.0297436 -0.0092919 0.0067548
v 0.0297436 -0.0067512 0.0042141
v 0.0297436 -0.0035484 0.0025803
v 0.0297436 0.0000000 0.0020189
v 0.0297436 0.0035484 0.0025803
v 0.0297436 0.0067512 0.0042141
v 0.0297436 0.0092919 0.0067548
v 0.0297436 0.0109222 0.0099541
v 0.0339973 0.0097706 0.0135025
v 0.0339973 0.0092919 0.0165218
v 0.0339973 0.0079028 0.0192461
v 0.0339973 0.0057436 0.0214053
v 0.0339973 0.0030193 0.0227944
v 0.0339973 0.0000000 0.0232731
v 0.0339973 -0.0030193 0.0227944
v 0.0339973 -0.0057436 0.0214053
v 0.0339973 -0.0079028 0.0192461
v 0.0339973 -0.0092919 0.0165218
v 0.0339973 -0.0097706 0.0135025
v 0.0339973 -0.0092919 0.0104831
v 0.0339973 -0.0079028 0.0077625
v 0.0339973 -0.0057436 0.0055996
v 0.0339973 -0.0030193 0.0042141
v 0.0339973 0.0000000 0.0037355
v 0.0339973 0.0030193 0.0042141
v 0.0339973 0.0057436 0.0055996
v 0.0339973 0.0079028 0.0077625
v 0.0339973 0.0092919 0.0104831
v 0.0369267 0.0073954 0.0135025
v 0.0369267 0.0070355 0.0157877
v 0.0369267 0.0059847 0.0178498
v 0.0369267 0.0043473 0.0194872
v 0.0369267 0.0022852 0.0205380
v 0.0369267 0.0000000 0.0209015
v 0.0369267 -0.0022852 0.0205380
v 0.0369267 -0.0043473 0.0194872
v 0.0369267 -0.0059847 0.0178498
v 0.0369267 -0.0070355 0.0157877
v 0.0369267 -0.0073954 0.0135025
v 0.0369267 -0.0070355 0.0112173
v 0.0369267 -0.0059847 0.0091552
v 0.0369267 -0.0043473 0.0075178
v 0.0369267 -0.0022852 0.0064669
v 0.0369267 0.0000000 0.0061071
v 0.0369267 0.0022852 0.0064669
v 0.0369267 0.0043473 0.0075178
v 0.0369267 0.0059847 0.0091552
v 0.0369267 0.0070355 0.0112173
v 0.0391327 0.0034656 0.0135025
v 0.0391327 0.0032928 0.0145749
v 0.0391327 0.0028034 0.0155394
v 0.0391327 0.0020369 0.0163059
v 0.0391327 0.0010688 0.0167989
v 0.0391327 0.0000000 0.0169681
v 0.0391327 -0.0010688 0.0167989
v 0.0391327 -0.0020369 0.0163059
v 0.0391327 -0.0028034 0.0155394
v 0.0391327 -0.0032928 0.0145749
v 0.0391327 -0.0034656 0.0135025
v 0.0391327 -0.0032928 0.0124336
v 0.0391327 -0.0028034 0.0114656
v 0.0391327 -0.0020369 0.0107027
v 0.0391327 -0.0010688 0.0102096
v 0.0391327 0.0000000 0.0100405
v 0.0391327 0.0010688 0.0102096
v 0.0391327 0.0020369 0.0107027
v 0.0391327 0.0028034 0.0114656
v 0.0391327 0.0032928 0.0124336
v 0.0400000 0.0000000 0.0135025
f 11 12 32
f 11 32 31
f 4 5 25
f 4 25 24
f 19 20 40
f 19 40 39
f 12 13 33
f 12 33 32
f 5 6 26
f 5 26 25
f 20 1 21
f 20 21 40
f 13 14 34
f 13 34 33
f 6 7 27
f 6 27 26
f 14 15 35
f 14 35 34
f 7 8 28
f 7 28 27
f 15 16 36
f 15 36 35
f 8 9 29
f 8 29 28
f 1 2 22
f 1 22 21
f 16 17 37
f 16 37 36
f 9 10 30
f 9 30 29
f 2 3 23
f 2 23 22
f 17 18 38
f 17 38 37
f 10 11 31
f 10 31 30
f 3 4 24
f 3 24 23
f 18 19 39
f 18 39 38
f 33 34 54
f 33 54 53
f 26 27 47
f 26 47 46
f 34 35 55
f 34 55 54
f 27 28 48
f 27 48 47
f 35 36 56
f 35 56 55
f 28 29 49
f 28 49 48
f 21 22 42
f 21 42 41
f 36 37 57
f 36 57 56
f 29 30 50
f 29 50 49
f 22 23 43
f 22 43 42
f 37 38 58
f 37 58 57
f 30 31 51
f 30 51 50
f 23 24 44
f 23 44 43
f 38 39 59
f 38 59 58
f 31 32 52
f 31 52 51
f 24 25 45
f 24 45 44
f 39 40 60
f 39 60 59
f 32 33 53
f 32 53 52
f 25 26 46
f 25 46 45
f 40 21 41
f 40 41 60
f 6 5 7
f 5 4 8
f 5 8 7
f 4 3 9
f 4 9 8
f 3 2 10
f 3 10 9
f 2 1 11
f 2 11 10
f 12 11 1
f 12 1 20
f 13 12 20
f 13 20 19
f 14 13 19
f 14 19 18
f 15 14 18
f 15 18 17
f 16 15 17
f 54 55 75
f 54 75 74
f 47 48 68
f 47 68 67
f 55 56 76
f 55 76 75
f 48 49 69
f 48 69 68
f 41 42 62
f 41 62 61
f 56 57 77
f 56 77 76
f 49 50 70
f 49 70 69
f 42 43 63
f 42 63 62
f 57 58 78
f 57 78 77
f 50 51 71
f 50 71 70
f 43 44 64
f 43 64 63
f 58 59 79
f 58 79 78
f 51 52 72
f 51 72 71
f 44 45 65
f 44 65 64
f 59 60 80
f 59 80 79
f 52 53 73
f 52 73 72
f 45 46 66
f 45 66 65
f 60 41 61
f 60 61 80
f 53 54 74
f 53 74 73
f 46 47 67
f 46 67 66
f 62 63 83
f 62 83 82
f 77 78 98
f 77 98 97
f 70 71 91
f 70 91 90
f 63 64 84
f 63 84 83
f 78 79 99
f 78 99 98
f 71 72 92
f 71 92 91
f 64 65 85
f 64 85 84
f 79 80 100
f 79 100 99
f 72 73 93
f 72 93 92
f 65 66 86
f 65 86 85
f 80 61 81
f 80 81 100
f 73 74 94
f 73 94 93
f 66 67 87
f 66 87 86
f 74 75 95
f 74 95 94
f 67 68 88
f 67 88 87
f 75 76 96
f 75 96 95
f 68 69 89
f 68 89 88
f 61 62 82
f 61 82 81
f 76 77 97
f 76 97 96
f 69 70 90
f 69 90 89
f 86 87 107
f 86 107 106
f 94 95 115
f 94 115 114
f 87 88 108
f 87 108 107
f 95 96 116
f 95 116 115
f 88 89 109
f 88 109 108
f 81 82 102
f 81 102 101
f 96 97 117
f 96 117 116
f 89 90 110
f 89 110 109
f 82 83 103
f 82 103 102
f 97 98 118
f 97 118 117
f 90 91 111
f 90 111 110
f 83 84 104
f 83 104 103
f 98 99 119
f 98 119 118
f 91 92 112
f 91 112 111
f 84 85 105
f 84 105 104
f 99 100 120
f 99 120 119
f 92 93 113
f 92 113 112
f 85 86 106
f 85 106 105
f 100 81 101
f 100 101 120
f 93 94 114
f 93 114 113
f 103 104 124
f 103 124 123
f 118 119 139
f 118 139 138
f 111 112 132
f 111 132 131
f 104 105 125
f 104 125 124
f 119 120 140
f 119 140 139
f 112 113 133
f 112 133 132
f 105 106 126
f 105 126 125
f 120 101 121
f 120 121 140
f 113 114 134
f 113 134 133
f 106 107 127
f 106 127 126
f 114 115 135
f 114 135 134
f 107 108 128
f 107 128 127
f 115 116 136
f 115 136 135
f 108 109 129
f 108 129 128
f 101 102 122
f 101 122 121
f 116 117 137
f 116 137 136
f 109 110 130
f 109 130 129
f 102 103 123
f 102 123 122
f 117 118 138
f 117 138 137
f 110 111 131
f 110 131 130
f 135 136 156
f 135 156 155
f 128 129 149
f 128 149 148
f 121 122 142
f 121 142 141
f 136 137 157
f 136 157 156
f 129 130 150
f 129 150 149
f 122 123 143
f 122 143 142
f 137 138 158
f 137 158 157
f 130 131 151
f 130 151 150
f 123 124 144
f 123 144 143
f 138 139 159
f 138 159 158
f 131 132 152
f 131 152 151
f 124 125 145
f 124 145 144
f 139 140 160
f 139 160 159
f 132 133 153
f 132 153 152
f 125 126 146
f 125 146 145
f 140 121 141
f 140 141 160
f 133 134 154
f 133 154 153
f 126 127 147
f 126 147 146
f 134 135 155
f 134 155 154
f 127 128 148
f 127 148 147
f 159 160 180
f 159 180 179
f 152 153 173
f 152 173 172
f 145 146 166
f 145 166 165
f 160 141 161
f 160 161 180
f 153 154 174
f 153 174 173
f 146 147 167
f 146 167 166
f 154 155 175
f 154 175 174
f 147 148 168
f 147 168 167
f 155 156 176
f 155 176 175
f 148 149 169
f 148 169 168
f 141 142 162
f 141 162 161
f 156 157 177
f 156 177 176
f 149 150 170
f 149 170 169
f 142 143 163
f 142 163 162
f 157 158 178
f 157 178 177
f 150 151 171
f 150 171 170
f 143 144 164
f 143 164 163
f 158 159 179
f 158 179 178
f 151 152 172
f 151 172 171
f 144 145 165
f 144 165 164
f 176 177 197
f 176 197 196
f 169 170 190
f 169 190 189
f 162 163 183
f 162 183 182
f 177 178 198
f 177 198 197
f 170 171 191
f 170 191 190
f 163 164 184
f 163 184 183
f 178 179 199
f 178 199 198
f 171 172 192
f 171 192 191
f 164 165 185
f 164 185 184
f 179 180 200
f 179 200 199
f 172 173 193
f 172 193 192
f 165 166 186
f 165 186 185
f 180 161 181
f 180 181 200
f 173 174 194
f 173 194 193
f 166 167 187
f 166 187 186
f 174 175 195
f 174 195 194
f 167 168 188
f 167 188 187
f 175 176 196
f 175 196 195
f 168 169 189
f 168 189 188
f 161 162 182
f 161 182 181
f 193 194 214
f 193 214 213
f 186 187 207
f 186 207 206
f 194 195 215
f 194 215 214
f 187 188 208
f 187 208 207
f 195 196 216
f 195 216 215
f 188 189 209
f 188 209 208
f 181 182 202
f 181 202 201
f 196 197 217
f 196 217 216
f 189 190 210
f 189 210 209
f 182 183 203
f 182 203 202
f 197 198 218
f 197 218 217
f 190 191 211
f 190 211 210
f 183 184 204
f 183 204 203
f 198 199 219
f 198 219 218
f 191 192 212
f 191 212 211
f 184 185 205
f 184 205 204
f 199 200 220
f 199 220 219
f 192 193 213
f 192 213 212
f 185 186 206
f 185 206 205
f 200 181 201
f 200 201 220
f 220 201 221
f 220 221 240
f 213 214 234
f 213 234 233
f 206 207 227
f 206 227 226
f 214 215 235
f 214 235 234
f 207 208 228
f 207 228 227
f 215 216 236
f 215 236 235
f 208 209 229
f 208 229 228
f 201 202 222
f 201 222 221
f 216 217 237
f 216 237 236
f 209 210 230
f 209 230 229
f 202 203 223
f 202 223 222
f 217 218 238
f 217 238 237
f 210 211 231
f 210 231 230
f 203 204 224
f 203 224 223
f 218 219 239
f 218 239 238
f 211 212 232
f 211 232 231
f 204 205 225
f 204 225 224
f 219 220 240
f 219 240 239
f 212 213 233
f 212 233 232
f 205 206 226
f 205 226 225
f 237 238 241
f 230 231 241
f 223 224 241
f 238 239 241
f 231 232 241
f 224 225 241
f 239 240 241
f 232 233 241
f 225 226 241
f 240 221 241
f 233 234 241
f 226 227 241
f 234 235 241
f 227 228 241
f 235 236 241
f 228 229 241
f 221 222 241
f 236 237 241
f 229 230 241
f 222 223 241
