# https://github.com/mikedh/trimesh
v 0.07349743 -0.43181820 0.09629296
v 0.08864894 -0.41666669 0.08114144
v 0.08864894 -0.20454547 0.08114144
v 0.07243752 -0.18952076 0.06472454
v 0.01289137 -0.40151517 0.06598993
v 0.08459686 -0.18904933 0.04835417
v 0.07583256 -0.41667334 0.05945876
v 0.01289137 -0.23484850 0.11144448
v 0.07819012 -0.18965459 0.05822704
v 0.05619244 -0.43053761 0.07904050
v 0.08273316 -0.21981391 0.04846308
v 0.01220130 -0.40116465 0.10683509
v 0.05834591 -0.34090911 0.11144448
v 0.01289137 -0.21969699 0.06598993
v 0.06316806 -0.42718747 0.07300433
v 0.04996390 -0.42724407 0.08577246
v 0.02804288 -0.23484850 0.11144448
v 0.05834591 -0.40151517 0.11144448
v 0.01277754 -0.21982678 0.09527292
v 0.07349743 -0.25000002 0.09629296
f 1 2 3
f 6 3 2
f 7 2 1
f 8 3 4
f 9 6 4
f 9 4 3
f 9 3 6
f 11 6 2
f 11 2 7
f 11 7 5
f 13 1 3
f 14 5 12
f 14 11 5
f 14 6 11
f 14 4 6
f 15 7 1
f 15 1 10
f 15 10 5
f 15 5 7
f 16 10 1
f 16 1 12
f 16 12 5
f 16 5 10
f 17 3 8
f 17 8 13
f 18 12 1
f 18 1 13
f 18 13 8
f 18 8 12
f 19 14 12
f 19 12 8
f 19 8 4
f 19 4 14
f 20 17 13
f 20 13 3
f 20 3 17