# https://github.com/mikedh/trimesh
v 0.09455891 -0.34107608 0.00455929
v 0.10380046 -0.34090911 -0.05522220
v 0.09904881 -0.26462962 0.00524969
v 0.01289137 -0.26515153 0.00538387
v 0.01289137 -0.34090911 -0.07037371
v 0.01289137 -0.34090911 0.00538387
v 0.08864894 -0.34090911 -0.07037371
v 0.01289137 -0.26515153 -0.07037371
v 0.10380046 -0.26515153 -0.05522220
v 0.07657386 -0.26465112 -0.06209300
f 1 2 3
f 6 1 3
f 6 3 4
f 6 5 1
f 6 4 5
f 7 2 1
f 7 1 5
f 8 5 4
f 8 7 5
f 9 3 2
f 9 2 7
f 10 8 4
f 10 4 3
f 10 3 9
f 10 9 7
f 10 7 8