# https://github.com/mikedh/trimesh
v -0.03252974 -0.31061263 0.09618093
v -0.03256318 -0.31060608 0.06598993
v -0.03078897 0.16025992 0.08954905
v -0.07801773 0.15909090 0.08114144
v -0.07750290 -0.31066689 0.06552912
v -0.03256318 0.15909090 0.06598993
v -0.06286621 0.15909090 0.09629296
v -0.07021280 -0.31156171 0.07350068
v -0.07271618 0.15905707 0.06143374
v -0.05489974 -0.31138368 0.08549934
f 1 2 3
f 6 3 2
f 7 1 3
f 7 3 4
f 8 5 2
f 8 7 4
f 8 4 5
f 9 4 3
f 9 3 6
f 9 5 4
f 9 6 2
f 9 2 5
f 10 8 2
f 10 2 1
f 10 1 7
f 10 7 8