# https://github.com/mikedh/trimesh
v 0.01247894 0.15918828 0.09264951
v 0.08864894 0.23484848 0.08114144
v 0.02804288 0.21969697 0.11144448
v -0.03152778 0.28032036 0.09279801
v -0.07271618 0.15905707 0.06143374
v 0.08864894 0.28030303 0.08114144
v 0.05834591 0.18939393 0.09629296
v 0.01289137 0.15909090 0.06598993
v -0.06286621 0.15909090 0.09629296
v 0.02547686 0.28110559 0.09655203
v -0.03256318 0.28030303 0.06598993
v 0.01289137 0.20454545 0.11144448
v 0.06190003 0.18811477 0.07043753
v -0.07801773 0.18939393 0.08114144
v -0.01468907 0.28042893 0.09667468
v 0.07996766 0.28127029 0.05948424
v -0.01741166 0.20454545 0.11144448
v -0.06286621 0.18939393 0.09629296
v -0.07801773 0.15909090 0.08114144
v -0.07387270 0.18966587 0.06225800
v 0.07874850 0.23561410 0.05914652
f 7 6 3
f 7 2 6
f 9 8 1
f 9 5 8
f 10 3 6
f 11 4 10
f 12 7 3
f 12 1 7
f 12 9 1
f 13 7 1
f 13 1 8
f 13 2 7
f 14 4 11
f 15 10 4
f 15 3 10
f 16 11 10
f 16 10 6
f 16 6 2
f 17 9 12
f 17 15 4
f 17 12 3
f 17 3 15
f 18 14 9
f 18 4 14
f 18 17 4
f 18 9 17
f 19 5 9
f 19 9 14
f 20 14 11
f 20 19 14
f 20 5 19
f 20 16 5
f 20 11 16
f 21 16 2
f 21 2 13
f 21 13 8
f 21 8 5
f 21 5 16