# https://github.com/mikedh/trimesh
v 0.06738908 -0.34042861 -0.06344071
v 0.10380046 -0.26515153 -0.05522220
v 0.01289137 -0.26515153 0.00538387
v 0.01289137 0.35606061 0.00538387
v 0.02804288 0.28030303 -0.11582826
v 0.09904881 -0.26462962 0.00524969
v 0.04319440 -0.20454547 -0.11582826
v 0.10380046 0.35606061 -0.05522220
v 0.01059368 0.27947750 -0.10094014
v 0.09461594 0.35548801 0.00534585
v 0.07349743 -0.34090911 -0.08552523
v 0.01175035 0.35489507 -0.09235880
v 0.07349743 0.23484848 -0.10067674
v 0.01085513 -0.26417302 -0.10124314
v 0.04319440 0.35606061 -0.10067674
v 0.04319440 0.23484848 -0.11582826
v 0.10380046 -0.14393941 -0.07037371
v 0.02804288 -0.26515153 -0.11582826
v 0.05284564 -0.33933561 -0.07841222
v 0.05834591 0.34090909 -0.10067674
v 0.10380046 0.06818181 -0.07037371
v 0.08864894 -0.23484850 -0.08552523
v 0.07349743 -0.21969699 -0.10067674
v 0.05955818 -0.34100861 -0.07139218
v 0.07349743 0.35606061 -0.08552523
v 0.08864894 0.25000000 -0.08552523
f 6 3 1
f 8 6 2
f 9 3 4
f 10 4 3
f 10 3 6
f 10 8 4
f 10 6 8
f 11 6 1
f 11 2 6
f 12 9 4
f 12 5 9
f 14 3 9
f 14 9 5
f 15 5 12
f 15 12 4
f 15 4 8
f 16 13 7
f 16 7 5
f 17 8 2
f 18 14 5
f 18 5 7
f 19 3 14
f 19 18 11
f 19 14 18
f 20 13 16
f 20 16 5
f 20 5 15
f 21 17 13
f 21 8 17
f 22 17 2
f 22 2 11
f 23 18 7
f 23 11 18
f 23 22 11
f 23 7 13
f 23 13 17
f 23 17 22
f 24 19 11
f 24 11 1
f 24 1 3
f 24 3 19
f 25 20 15
f 25 15 8
f 25 13 20
f 26 21 13
f 26 8 21
f 26 25 8
f 26 13 25