# https://github.com/mikedh/trimesh
v 0.08410859 0.41518257 -0.02355714
v 0.08864894 0.41666667 -0.05522220
v 0.04319440 0.50757576 0.02053538
v -0.04771470 0.50757576 0.02053538
v -0.09316924 0.41666667 -0.04007068
v 0.04319440 0.47727273 -0.07037371
v -0.03256318 0.41666667 0.02053538
v 0.08864894 0.44696970 -0.04007068
v -0.04184040 0.41373833 -0.07404649
v 0.02804288 0.50757576 -0.04007068
v 0.05834591 0.44696970 0.02053538
v -0.04771470 0.44696970 0.02053538
v 0.05834591 0.43181819 -0.08552523
v 0.05834591 0.41666667 -0.08552523
v -0.08337785 0.41613387 -0.02138020
v 0.05834591 0.49242425 -0.04007068
v -0.04771470 0.49242425 -0.05522220
v 0.01289137 0.41666667 0.02053538
v 0.05249073 0.48104596 0.02048287
v 0.08864894 0.43181819 -0.05522220
v -0.04771470 0.44696970 -0.08552523
v -0.09316924 0.44696970 -0.02491916
v 0.04319440 0.49242425 -0.05522220
v 0.04319440 0.50757576 -0.02491916
v -0.04771470 0.50757576 -0.02491916
v 0.05834591 0.46212122 -0.07037371
v -0.07801773 0.41666667 -0.07037371
v -0.04771470 0.47727273 -0.07037371
v 0.04319440 0.44696970 -0.08552523
v -0.01741166 0.50757576 -0.04007068
v -0.07801773 0.47727273 -0.02491916
v -0.09316924 0.44696970 -0.04007068
v -0.07801773 0.43181819 -0.07037371
v -0.06286621 0.49242425 -0.04007068
v -0.06286621 0.46212122 -0.07037371
v -0.07801773 0.47727273 -0.04007068
f 7 3 4
f 8 1 2
f 9 1 7
f 10 4 3
f 11 3 7
f 11 1 8
f 12 7 4
f 14 2 1
f 14 1 9
f 14 13 2
f 15 9 7
f 15 5 9
f 15 7 12
f 16 3 8
f 17 10 6
f 18 11 7
f 18 7 1
f 18 1 11
f 19 11 8
f 19 8 3
f 19 3 11
f 20 8 2
f 20 2 13
f 20 16 8
f 21 14 9
f 21 13 14
f 22 15 12
f 22 12 4
f 22 5 15
f 23 16 6
f 23 6 10
f 23 10 16
f 24 16 10
f 24 10 3
f 24 3 16
f 25 4 10
f 26 20 13
f 26 13 6
f 26 6 16
f 26 16 20
f 27 21 9
f 27 9 5
f 28 17 6
f 28 6 21
f 29 21 6
f 29 6 13
f 29 13 21
f 30 25 10
f 30 10 17
f 30 17 25
f 31 22 4
f 31 4 25
f 32 27 5
f 32 5 22
f 32 22 31
f 33 21 27
f 33 27 32
f 34 31 25
f 34 25 17
f 34 17 28
f 35 28 21
f 35 21 33
f 36 32 31
f 36 31 34
f 36 34 28
f 36 28 35
f 36 35 33
f 36 33 32