# https://github.com/mikedh/trimesh
v -0.06286621 -0.34090911 0.05083841
v -0.06286621 -0.34090911 0.00538387
v -0.06286621 0.35606061 0.05083841
v -0.10832076 0.35606061 0.03568690
v -0.10832076 -0.34090911 0.03568690
v -0.06286621 0.35606061 0.00538387
v -0.10832076 -0.32575760 0.05083841
v -0.09500420 0.35498706 0.00452524
v -0.08647216 0.35585913 0.04907907
v -0.08687393 -0.34074671 0.04875652
v -0.09632177 -0.34094828 0.00607687
v -0.10832076 -0.28030305 0.05083841
f 1 2 3
f 6 3 2
f 6 4 3
f 7 1 3
f 7 4 5
f 8 6 2
f 8 4 6
f 9 3 4
f 10 7 5
f 10 5 1
f 10 1 7
f 11 5 4
f 11 4 8
f 11 8 2
f 11 2 1
f 11 1 5
f 12 7 3
f 12 3 9
f 12 9 4
f 12 4 7