# https://github.com/mikedh/trimesh
v 0.06680005 0.41459352 0.07564240
v 0.10380046 0.41666667 -0.00976765
v 0.07349743 0.44696970 0.08114144
v -0.04829169 0.44728513 0.08172524
v -0.04771470 0.41666667 0.02053538
v 0.01289137 0.44696970 -0.02491916
v -0.05320008 0.41792590 0.08716599
v 0.10380046 0.41666667 0.03568690
v 0.08410859 0.41518257 -0.02355714
v 0.07251099 0.44642588 -0.02446527
v -0.04771470 0.44696970 0.02053538
v 0.10380046 0.43181819 0.03568690
v 0.08864894 0.43181819 0.06598993
v 0.07686322 0.41438368 0.06022790
v 0.01289137 0.41666667 -0.02491916
v 0.10380046 0.43181819 -0.00976765
f 6 4 3
f 7 1 3
f 7 3 4
f 7 5 1
f 10 6 3
f 11 6 5
f 11 4 6
f 11 7 4
f 11 5 7
f 12 8 2
f 13 3 1
f 13 1 8
f 13 12 3
f 13 8 12
f 14 1 5
f 14 5 9
f 14 8 1
f 14 9 2
f 14 2 8
f 15 9 5
f 15 5 6
f 15 10 9
f 15 6 10
f 16 2 9
f 16 9 10
f 16 12 2
f 16 10 3
f 16 3 12