# https://github.com/mikedh/trimesh
v 0.05955818 -0.34100861 -0.07139218
v 0.05834591 -0.34090911 -0.10067674
v 0.06434935 -0.26585350 -0.07585172
v -0.03256318 -0.26515153 -0.07037371
v -0.03256318 -0.34090911 -0.07037371
v -0.01741166 -0.26515153 -0.11582826
v 0.02804288 -0.26515153 -0.11582826
v -0.03096798 -0.26479529 -0.09531190
v -0.02934035 -0.33952683 -0.09003683
v 0.05834591 -0.26515153 -0.10067674
v 0.02804288 -0.28030305 -0.11582826
v 0.01085513 -0.26417302 -0.10124314
v -0.01741166 -0.28030305 -0.11582826
f 1 2 3
f 1 3 4
f 5 2 1
f 5 1 4
f 8 5 4
f 9 2 5
f 9 5 8
f 10 3 2
f 10 2 7
f 11 7 2
f 11 6 7
f 12 7 6
f 12 6 8
f 12 10 7
f 12 8 4
f 12 4 3
f 12 3 10
f 13 2 9
f 13 11 2
f 13 6 11
f 13 9 8
f 13 8 6