# https://github.com/mikedh/trimesh
v 0.01289137 0.23484848 0.00538387
v 0.01158258 0.23400900 -0.10349150
v 0.01289137 0.35606061 0.00538387
v -0.09500420 0.35498706 0.00452524
v -0.10832076 0.23484848 -0.04007068
v -0.04771470 0.35606061 -0.10067674
v -0.09933303 0.23492950 0.00493276
v 0.01289137 0.29545455 -0.11582826
v -0.10832076 0.35606061 -0.04007068
v -0.06286621 0.23484848 -0.10067674
v -0.08176236 0.23443471 -0.06041038
v 0.01175035 0.35489507 -0.09235880
v -0.07801773 0.34090909 -0.08552523
v -0.03256318 0.23484848 -0.11582826
v -0.06286621 0.32575758 -0.10067674
v -0.09316924 0.34090909 -0.07037371
v -0.01741166 0.29545455 -0.11582826
v -0.03256318 0.26515151 -0.11582826
f 7 1 3
f 7 3 4
f 7 2 1
f 8 1 2
f 8 3 1
f 9 4 3
f 9 3 6
f 9 7 4
f 9 5 7
f 11 7 5
f 11 2 7
f 11 10 2
f 11 5 10
f 12 8 6
f 12 6 3
f 12 3 8
f 13 9 6
f 14 8 2
f 14 2 10
f 15 13 6
f 15 10 13
f 15 14 10
f 16 13 10
f 16 10 5
f 16 5 9
f 16 9 13
f 17 6 8
f 17 8 14
f 18 17 14
f 18 14 15
f 18 15 6
f 18 6 17