# https://github.com/mikedh/trimesh
v -0.03115069 0.18936087 0.09034296
v -0.03256318 0.18939393 0.06598993
v -0.02896899 0.35676181 0.10159696
v -0.04771470 0.35606061 0.11144448
v -0.07801773 0.18939393 0.08114144
v -0.04771470 0.31060606 0.11144448
v -0.02871897 0.31203556 0.09754734
v -0.07767556 0.35607021 0.06569295
v -0.06286621 0.18939393 0.09629296
v -0.03256318 0.35606061 0.06598993
v -0.07387270 0.18966587 0.06225800
v -0.07066837 0.35646650 0.07355830
f 5 2 1
f 6 1 3
f 6 3 4
f 6 4 5
f 7 1 2
f 7 3 1
f 8 5 4
f 9 6 5
f 9 5 1
f 9 1 6
f 10 7 2
f 10 3 7
f 11 2 5
f 11 5 8
f 11 10 2
f 11 8 10
f 12 8 4
f 12 4 3
f 12 10 8
f 12 3 10