# https://github.com/mikedh/trimesh
v 0.08864894 0.43181819 0.06598993
v 0.08864894 0.46212122 -0.02491916
v 0.08864894 0.47727273 0.03568690
v 0.07349743 0.49242425 0.03568690
v 0.05110476 0.45586568 -0.04648750
v 0.08864894 0.47727273 -0.00976765
v 0.07349743 0.47727273 0.06598993
v 0.07976549 0.42884683 -0.02268842
v 0.07349743 0.49242425 -0.00976765
v 0.08864894 0.44696970 0.06598993
v 0.04942353 0.46798150 0.06101578
v 0.07349743 0.44696970 -0.05522220
v 0.06135462 0.44889531 0.06805454
v 0.05196399 0.48086195 -0.00853039
v 0.05539819 0.44438070 -0.05158855
v 0.07349743 0.47727273 -0.04007068
v 0.07106541 0.43094549 0.06446288
v 0.05146821 0.47975112 0.03224411
v 0.07349743 0.46212122 -0.05522220
v 0.05218266 0.46972473 -0.03435506
f 1 2 3
f 6 3 2
f 6 4 3
f 7 3 4
f 8 2 1
f 9 4 6
f 10 1 3
f 10 3 7
f 11 7 4
f 12 2 8
f 13 10 7
f 13 1 10
f 13 7 11
f 14 5 11
f 14 4 9
f 15 12 8
f 15 11 5
f 16 9 6
f 16 6 2
f 17 8 1
f 17 1 13
f 17 15 8
f 17 13 11
f 17 11 15
f 18 14 11
f 18 11 4
f 18 4 14
f 19 15 5
f 19 12 15
f 19 16 2
f 19 2 12
f 20 14 9
f 20 9 16
f 20 5 14
f 20 19 5
f 20 16 19