# https://github.com/mikedh/trimesh
v 0.01220130 -0.40116465 0.10683509
v 0.01289137 -0.40151517 -0.10067674
v 0.01247894 0.15918828 0.09264951
v -0.03078897 0.16025992 0.08954905
v -0.03256318 -0.40151517 -0.10067674
v 0.01155835 0.15881621 -0.10512232
v -0.01741166 -0.21969699 0.11144448
v 0.01289137 -0.21969699 0.11144448
v -0.02979689 -0.40124725 0.10287142
v -0.02854297 0.15854637 -0.10199776
v -0.01741166 -0.26515153 -0.11582826
v -0.03256318 -0.26515153 0.11144448
v -0.03256318 -0.25000002 -0.11582826
f 6 3 2
f 6 4 3
f 7 3 4
f 8 1 2
f 8 2 3
f 8 3 7
f 9 5 2
f 9 2 1
f 10 4 6
f 11 6 2
f 11 2 5
f 12 8 7
f 12 1 8
f 12 9 1
f 12 7 4
f 12 5 9
f 13 4 10
f 13 12 4
f 13 5 12
f 13 11 5
f 13 10 6
f 13 6 11