# https://github.com/mikedh/trimesh
v 0.02804288 -0.50757578 0.05083841
v 0.07349743 -0.47727275 -0.04007068
v 0.05834591 -0.40151517 0.11144448
v -0.04771470 -0.40151517 0.11144448
v -0.03256318 -0.50757578 -0.02491916
v -0.03256318 -0.40151517 -0.02491916
v 0.02804288 -0.46212124 0.11144448
v 0.07349743 -0.47727275 0.06598993
v 0.04319440 -0.50757578 -0.02491916
v -0.03256318 -0.49242427 0.08114144
v 0.08194649 -0.40415356 -0.02778753
v 0.06772156 -0.39991529 0.07599686
v -0.06213787 -0.40128925 0.08015195
v 0.04319440 -0.47727275 0.09629296
v 0.04319440 -0.50757578 0.02053538
v -0.03256318 -0.50757578 0.05083841
v -0.01741166 -0.46212124 0.11144448
v 0.05561640 -0.45981777 -0.03716154
v 0.07349743 -0.46212124 0.08114144
v -0.06286621 -0.44696972 0.09629296
v 0.02804288 -0.49242427 0.08114144
v 0.05834591 -0.46212124 0.09629296
v 0.05834591 -0.49242427 0.05083841
v -0.04771470 -0.43181820 0.11144448
v -0.03256318 -0.47727275 0.09629296
v 0.04319440 -0.44696972 0.11144448
v 0.05834591 -0.41666669 0.11144448
f 6 2 5
f 7 3 4
f 9 5 2
f 9 1 5
f 11 8 2
f 12 4 3
f 12 11 6
f 13 6 5
f 13 12 6
f 13 4 12
f 14 7 10
f 15 1 9
f 16 5 1
f 16 1 10
f 17 10 7
f 17 7 4
f 18 11 2
f 18 2 6
f 18 6 11
f 19 12 3
f 19 8 11
f 19 11 12
f 20 4 13
f 20 16 10
f 20 13 5
f 20 5 16
f 21 14 10
f 21 10 1
f 21 1 14
f 22 7 14
f 22 14 8
f 22 8 19
f 23 1 15
f 23 14 1
f 23 8 14
f 23 15 9
f 23 9 2
f 23 2 8
f 24 20 17
f 24 17 4
f 24 4 20
f 25 20 10
f 25 10 17
f 25 17 20
f 26 3 7
f 26 7 22
f 27 22 19
f 27 19 3
f 27 26 22
f 27 3 26