# https://github.com/mikedh/trimesh
v 0.07349743 0.28030303 0.09629296
v 0.08864894 0.28030303 0.08114144
v 0.07349743 0.43181819 0.09629296
v 0.05026450 0.42984835 0.08779638
v 0.01289137 0.28030303 0.06598993
v 0.08096833 0.35605281 0.06125511
v 0.01226374 0.41588012 0.10620814
v 0.08864894 0.35606061 0.08114144
v 0.06461209 0.42928765 0.07333451
v 0.07996766 0.28127029 0.05948424
v 0.05834591 0.37121212 0.11144448
v 0.01168869 0.28083943 0.09871748
v 0.05738105 0.43158357 0.08018893
v 0.01289137 0.35606061 0.06598993
v 0.05834591 0.40151515 0.11144448
v 0.04319440 0.29545455 0.11144448
v 0.01289137 0.41666667 0.08114144
f 1 2 3
f 5 2 1
f 7 3 4
f 8 6 3
f 8 3 2
f 8 2 6
f 9 3 6
f 10 6 2
f 10 2 5
f 11 1 3
f 12 5 1
f 13 4 3
f 13 3 9
f 14 9 6
f 14 12 7
f 14 5 12
f 14 10 5
f 14 6 10
f 15 11 3
f 15 3 7
f 16 7 12
f 16 15 7
f 16 11 15
f 16 12 1
f 16 1 11
f 17 7 4
f 17 4 13
f 17 14 7
f 17 13 9
f 17 9 14