# https://github.com/mikedh/trimesh
v -0.02979689 -0.40124725 0.10287142
v -0.03256318 -0.40151517 0.06598993
v -0.02905446 -0.31148615 0.09726936
v -0.09316924 -0.31060608 0.08114144
v -0.07485074 -0.40093674 0.06401221
v -0.03256318 -0.31060608 0.06598993
v -0.04771470 -0.31060608 0.11144448
v -0.04771470 -0.40151517 0.11144448
v -0.08290560 -0.31145694 0.05879924
v -0.09316924 -0.34090911 0.08114144
v -0.08223037 -0.33915596 0.05849235
f 1 2 3
f 6 3 2
f 7 1 3
f 7 6 4
f 7 3 6
f 8 5 2
f 8 2 1
f 8 7 4
f 8 1 7
f 9 4 6
f 10 8 4
f 10 5 8
f 10 4 9
f 11 9 6
f 11 6 2
f 11 2 5
f 11 10 9
f 11 5 10