# https://github.com/mikedh/trimesh
v 0.07268181 -0.21942145 0.06529077
v 0.06609541 -0.21627929 0.07320431
v 0.01289137 -0.21969699 0.06598993
v 0.05601576 0.23595167 0.07849301
v 0.05834591 0.18939393 0.09629296
v 0.07303516 0.23494062 0.06543039
v 0.01277754 -0.21982678 0.09527292
v 0.01289137 0.18939393 0.06598993
v 0.06565409 0.23838567 0.07123047
v 0.04923055 -0.21747627 0.08488563
v 0.01273187 0.18949546 0.09459243
f 5 2 1
f 6 5 1
f 7 3 1
f 8 6 1
f 8 1 3
f 9 4 5
f 9 5 6
f 9 8 4
f 9 6 8
f 10 7 1
f 10 1 2
f 10 2 5
f 10 5 7
f 11 8 3
f 11 3 7
f 11 7 5
f 11 5 4
f 11 4 8