# https://github.com/mikedh/trimesh
v 0.07349743 0.44696970 0.08114144
v 0.06722906 0.44391202 0.06241420
v 0.04319440 0.50757576 0.02053538
v -0.03256318 0.50757576 0.05083841
v -0.05725994 0.44326252 0.07507806
v 0.04319440 0.49242425 0.08114144
v 0.05834591 0.44696970 0.02053538
v 0.05834591 0.49242425 0.06598993
v 0.04319440 0.50757576 0.05083841
v -0.06286621 0.47727273 0.08114144
v -0.04771470 0.44696970 0.02053538
v 0.07349743 0.46212122 0.08114144
v -0.04771470 0.49242425 0.08114144
v -0.04771470 0.50757576 0.02053538
v 0.05249073 0.48104596 0.02048287
v -0.06270742 0.44680795 0.06588768
v -0.04771470 0.50757576 0.03568690
v -0.06286621 0.47727273 0.06598993
f 5 2 1
f 7 1 2
f 9 3 4
f 9 4 6
f 9 8 3
f 9 6 8
f 10 5 1
f 10 1 6
f 11 7 2
f 11 2 5
f 12 8 6
f 12 6 1
f 12 1 7
f 12 3 8
f 13 10 6
f 13 6 4
f 14 4 3
f 15 7 11
f 15 12 7
f 15 3 12
f 15 14 3
f 15 11 14
f 16 11 5
f 16 5 10
f 17 13 4
f 17 4 14
f 17 14 10
f 17 10 13
f 18 14 11
f 18 11 16
f 18 16 10
f 18 10 14