# https://github.com/mikedh/trimesh
v 0.07398932 -0.40165695 0.06624531
v 0.08864894 -0.37121214 -0.07037371
v 0.07584087 -0.34063880 0.06755393
v 0.01289137 -0.34090911 0.06598993
v 0.01289137 -0.40151517 -0.10067674
v 0.01228084 -0.33997371 -0.09438851
v 0.01289137 -0.40151517 0.06598993
v 0.08794549 -0.34075800 -0.03965445
v 0.07700976 -0.40260021 -0.04190216
v 0.03764854 -0.33939132 -0.08777751
v 0.05834591 -0.40151517 -0.08552523
v 0.08328736 -0.38561617 -0.03708313
v 0.07349743 -0.34090911 -0.08552523
v 0.02804288 -0.40151517 -0.10067674
v 0.08864894 -0.34090911 -0.07037371
v 0.07349743 -0.37121214 -0.08552523
v 0.04319440 -0.38636366 -0.10067674
f 7 1 3
f 7 3 4
f 7 6 5
f 7 4 6
f 8 1 2
f 8 3 1
f 9 7 5
f 9 1 7
f 10 6 4
f 10 4 3
f 10 3 8
f 11 2 9
f 12 9 2
f 12 2 1
f 12 1 9
f 13 6 10
f 14 11 9
f 14 9 5
f 15 13 10
f 15 10 8
f 15 8 2
f 15 2 13
f 16 13 2
f 16 2 11
f 17 14 5
f 17 5 6
f 17 6 13
f 17 13 16
f 17 16 11
f 17 11 14