# https://github.com/mikedh/trimesh
v 0.05292741 0.41533390 0.08723528
v 0.05931669 0.41694207 0.08248089
v 0.04319440 0.47727273 0.09629296
v -0.04771470 0.47727273 0.09629296
v -0.06127060 0.41636252 0.07943196
v -0.04771470 0.41666667 0.11144448
v 0.04319440 0.44696970 0.11144448
v 0.03724680 0.46904411 0.07286699
v -0.05367511 0.41524561 0.08717740
v -0.06286621 0.46212122 0.09629296
v 0.05834591 0.46212122 0.09629296
v 0.03681646 0.41678435 0.09943661
v 0.02804288 0.46212122 0.11144448
v 0.05117412 0.45623067 0.07274462
v -0.04042526 0.46739286 0.07275739
v -0.04771470 0.44696970 0.11144448
v -0.06286621 0.46212122 0.08114144
v -0.01741166 0.46212122 0.11144448
f 5 2 1
f 7 1 2
f 8 4 3
f 9 6 5
f 9 5 1
f 9 1 6
f 10 5 6
f 11 7 2
f 11 3 7
f 12 7 6
f 12 6 1
f 12 1 7
f 13 7 3
f 13 3 4
f 13 6 7
f 14 2 5
f 14 11 2
f 14 8 3
f 14 3 11
f 15 4 8
f 15 14 5
f 15 8 14
f 16 10 6
f 16 4 10
f 16 6 13
f 17 10 4
f 17 4 15
f 17 15 5
f 17 5 10
f 18 16 13
f 18 13 4
f 18 4 16