# https://github.com/mikedh/trimesh
v 0.01289137 0.15909090 0.06598993
v 0.01289137 0.15909090 0.00538387
v 0.01289137 0.35606061 0.00538387
v -0.07040550 0.35564423 0.07376905
v -0.06642214 0.15901799 0.06929692
v 0.01221183 0.35618664 0.10543528
v -0.06286621 0.35606061 0.00538387
v -0.03256318 0.28030303 0.11144448
v -0.06286621 0.15909090 0.00538387
v -0.02896899 0.35676181 0.10159696
v 0.01168869 0.28083943 0.09871748
f 1 2 3
f 5 2 1
f 6 1 3
f 7 3 2
f 8 5 1
f 8 4 5
f 9 7 2
f 9 2 5
f 9 5 4
f 9 4 7
f 10 6 3
f 10 3 7
f 10 7 4
f 10 8 6
f 10 4 8
f 11 8 1
f 11 1 6
f 11 6 8