# https://github.com/mikedh/trimesh
v 0.07398932 -0.40165695 0.06624531
v 0.10380046 -0.38636366 0.03568690
v 0.10380046 0.35606061 0.05083841
v 0.01289137 0.35606061 0.06598993
v 0.01289137 -0.34090911 0.00538387
v 0.08096833 0.35605281 0.06125511
v 0.10380046 -0.37121214 0.05083841
v 0.07349743 -0.38636366 0.00538387
v 0.01289137 -0.34090911 0.06598993
v 0.01289137 0.35606061 0.00538387
v 0.07885634 -0.40317529 0.05227953
v 0.09461594 0.35548801 0.00534585
v 0.09036969 -0.38233437 0.00363387
f 6 1 3
f 6 3 4
f 6 4 1
f 7 1 2
f 7 2 3
f 7 3 1
f 9 5 1
f 9 1 4
f 9 4 5
f 10 5 4
f 10 4 3
f 11 2 1
f 11 1 5
f 11 5 8
f 12 3 2
f 12 10 3
f 13 11 8
f 13 2 11
f 13 12 2
f 13 8 5
f 13 5 10
f 13 10 12