# https://github.com/mikedh/trimesh
v 0.08864894 0.35606061 0.08114144
v 0.10380046 0.35606061 -0.04007068
v 0.10380046 0.41666667 0.03568690
v -0.02929604 0.41512620 0.10266295
v -0.02937186 0.35455397 -0.08900482
v 0.08864894 0.41666667 0.08114144
v 0.10380046 0.35606061 0.05083841
v -0.02896899 0.35676181 0.10159696
v 0.05834591 0.41666667 -0.08552523
v 0.01226374 0.41588012 0.10620814
v 0.10380046 0.40151515 0.05083841
v 0.01221183 0.35618664 0.10543528
v -0.03256318 0.40151515 -0.10067674
v 0.10380046 0.41666667 -0.02491916
v 0.04319440 0.35606061 -0.10067674
v -0.01741166 0.41666667 -0.10067674
v 0.08864894 0.37121212 -0.07037371
v 0.08864894 0.35606061 -0.07037371
v -0.03070033 0.41464270 -0.07865156
v 0.04319440 0.38636364 -0.10067674
v 0.10380046 0.40151515 -0.04007068
v 0.07349743 0.35606061 -0.08552523
v 0.01289137 0.41666667 -0.10067674
v 0.08864894 0.41666667 -0.05522220
v 0.07349743 0.38636364 -0.08552523
f 7 2 3
f 7 6 1
f 7 5 2
f 7 1 5
f 9 6 3
f 10 1 6
f 11 7 3
f 11 3 6
f 11 6 7
f 12 8 5
f 12 5 1
f 12 1 10
f 12 10 4
f 12 4 8
f 13 8 4
f 13 5 8
f 14 9 3
f 14 3 2
f 15 5 13
f 16 4 10
f 16 15 13
f 16 10 6
f 16 6 9
f 18 2 5
f 18 17 2
f 19 16 13
f 19 13 4
f 19 4 16
f 20 15 16
f 21 14 2
f 21 2 17
f 22 18 5
f 22 5 15
f 22 17 18
f 22 15 20
f 23 20 16
f 23 16 9
f 23 9 20
f 24 9 14
f 24 14 21
f 25 22 20
f 25 20 9
f 25 17 22
f 25 9 24
f 25 24 21
f 25 21 17