# https://github.com/mikedh/trimesh
v -0.05393834 -0.45119408 -0.04721895
v -0.03055914 -0.39996254 -0.07983850
v -0.03256318 0.23484848 -0.04007068
v -0.10832076 0.23484848 -0.04007068
v -0.09316924 -0.34090911 -0.07037371
v -0.04771470 0.15909090 -0.11582826
v -0.08081852 -0.41295219 -0.03356872
v -0.03256318 -0.40151517 -0.04007068
v -0.06286621 -0.41666669 -0.08552523
v -0.02854297 0.15854637 -0.10199776
v -0.06286621 0.23484848 -0.10067674
v -0.09563815 -0.17284432 -0.03489369
v -0.04220583 -0.44184473 -0.06014860
v -0.06900530 -0.44321794 -0.03509554
v -0.09316924 -0.41666669 -0.05522220
v -0.04771470 -0.15909092 -0.11582826
v -0.02878439 -0.36905718 -0.08642376
v -0.03182040 0.23469130 -0.09836962
v -0.07801773 -0.08333335 -0.10067674
v -0.06286621 -0.44696972 -0.07037371
v -0.10832076 -0.17424244 -0.05522220
v -0.06286621 -0.31060608 -0.10067674
v -0.02884605 -0.15844230 -0.10186717
v -0.04771470 -0.37121214 -0.10067674
v -0.07801773 0.11363636 -0.10067674
v -0.07801773 -0.44696972 -0.05522220
v -0.07801773 -0.34090911 -0.08552523
v -0.10832076 0.23484848 -0.05522220
f 11 4 3
f 12 7 3
f 12 3 4
f 13 8 1
f 13 2 8
f 14 1 8
f 14 8 3
f 14 3 7
f 15 5 9
f 15 14 7
f 16 6 10
f 17 8 2
f 17 10 3
f 17 3 8
f 18 10 6
f 18 6 11
f 18 11 3
f 18 3 10
f 19 6 16
f 20 9 2
f 20 2 13
f 20 13 1
f 20 15 9
f 21 15 7
f 21 7 12
f 21 12 4
f 21 5 15
f 21 19 5
f 22 19 16
f 23 16 10
f 23 10 17
f 24 17 2
f 24 2 9
f 24 9 22
f 24 22 16
f 24 23 17
f 24 16 23
f 25 11 6
f 25 6 19
f 25 19 21
f 26 20 1
f 26 1 14
f 26 14 15
f 26 15 20
f 27 22 9
f 27 9 5
f 27 5 19
f 27 19 22
f 28 4 11
f 28 11 25
f 28 25 21
f 28 21 4