# https://github.com/mikedh/trimesh
v -0.03256318 -0.50757578 0.03568690
v -0.02797928 -0.48267405 -0.03365074
v -0.03256318 -0.34090911 0.06598993
v -0.10832076 -0.34090911 0.03568690
v -0.09316924 -0.46212124 -0.00976765
v -0.03256318 -0.34090911 -0.04007068
v -0.07801773 -0.44696972 0.08114144
v -0.02886173 -0.46993756 0.07391388
v -0.06286621 -0.49242427 -0.04007068
v -0.08687393 -0.34074671 0.04875652
v -0.10832076 -0.34090911 -0.04007068
v -0.06286621 -0.49242427 0.05083841
v -0.09316924 -0.46212124 0.03568690
v -0.02811125 -0.48027819 0.05839174
v -0.03256318 -0.40151517 0.08114144
v -0.04771470 -0.50757578 -0.00976765
v -0.03212605 -0.46138243 -0.05410656
v -0.07067122 -0.34216099 0.07183173
v -0.10832076 -0.37121214 0.03568690
v -0.07801773 -0.46212124 -0.05522220
v -0.06286621 -0.47727275 0.08114144
v -0.02914963 -0.49418891 -0.00610522
v -0.04771470 -0.50757578 0.03568690
v -0.02973757 -0.47056546 -0.04794413
v -0.09316924 -0.40151517 0.06598993
v -0.10832076 -0.37121214 -0.02491916
v -0.07801773 -0.47727275 -0.04007068
v -0.06286621 -0.47727275 -0.05522220
v -0.07801773 -0.44696972 -0.05522220
v -0.07801773 -0.47727275 0.05083841
v -0.04771470 -0.49242427 0.06598993
v -0.09316924 -0.43181820 0.06598993
v -0.09316924 -0.43181820 -0.04007068
v -0.04736632 -0.44670209 -0.05468851
v -0.10832076 -0.35606063 -0.04007068
f 6 3 2
f 10 3 6
f 11 10 6
f 11 4 10
f 12 5 9
f 13 5 12
f 14 8 1
f 14 2 3
f 14 3 8
f 15 8 3
f 16 9 2
f 16 12 9
f 18 3 10
f 18 15 3
f 18 7 15
f 18 10 4
f 19 4 11
f 19 5 13
f 21 15 7
f 21 8 15
f 22 14 1
f 22 2 14
f 22 16 2
f 22 1 16
f 23 16 1
f 23 12 16
f 24 17 6
f 24 6 2
f 24 2 9
f 25 18 4
f 25 7 18
f 25 4 19
f 26 19 11
f 26 5 19
f 27 20 9
f 27 9 5
f 27 5 20
f 28 9 20
f 28 24 9
f 28 17 24
f 29 20 11
f 29 11 6
f 29 28 20
f 30 13 12
f 30 12 21
f 30 21 7
f 31 1 8
f 31 8 21
f 31 23 1
f 31 21 12
f 31 12 23
f 32 25 19
f 32 19 13
f 32 7 25
f 32 30 7
f 32 13 30
f 33 20 5
f 33 5 26
f 34 29 6
f 34 6 17
f 34 17 28
f 34 28 29
f 35 33 26
f 35 26 11
f 35 11 20
f 35 20 33