# https://github.com/mikedh/trimesh
v 0.08864894 -0.46212124 0.05083841
v 0.10380046 -0.41666669 -0.00976765
v 0.10380046 -0.38636366 0.03568690
v 0.07349743 -0.34090911 0.00538387
v 0.06619488 -0.45768787 -0.02211127
v 0.09100921 -0.33893258 -0.03446169
v 0.07398932 -0.40165695 0.06624531
v 0.10380046 -0.41666669 0.03568690
v 0.08864894 -0.46212124 -0.02491916
v 0.10380046 -0.38636366 -0.04007068
v 0.09455891 -0.34107608 0.00455929
v 0.08304991 -0.34440665 -0.04593051
v 0.06414255 -0.45580175 0.04722760
v 0.08864894 -0.44696972 0.06598993
v 0.07749702 -0.39786622 0.06122934
v 0.07700976 -0.40260021 -0.04190216
v 0.06498083 -0.44319287 0.06019165
f 8 1 2
f 8 2 3
f 9 2 1
f 9 1 5
f 10 3 2
f 10 2 9
f 11 6 4
f 11 10 6
f 11 3 10
f 11 4 7
f 12 5 4
f 12 4 6
f 12 6 10
f 13 5 1
f 13 4 5
f 14 1 8
f 14 8 3
f 14 3 7
f 15 11 7
f 15 7 3
f 15 3 11
f 16 12 10
f 16 10 9
f 16 9 5
f 16 5 12
f 17 7 4
f 17 4 13
f 17 14 7
f 17 13 1
f 17 1 14