# https://github.com/mikedh/trimesh
v -0.00226015 -0.50757578 -0.04007068
v 0.08864894 -0.43181820 -0.05522220
v 0.07530081 -0.44304350 -0.02057747
v -0.03256318 -0.40151517 -0.02491916
v -0.04771470 -0.43181820 -0.08552523
v 0.08328736 -0.38561617 -0.03708313
v -0.01523175 -0.49403851 -0.02096293
v 0.05834591 -0.49242427 -0.04007068
v 0.08447348 -0.39990118 -0.02398428
v -0.04248871 -0.39968613 -0.07455577
v -0.03256318 -0.49242427 -0.05522220
v 0.08864894 -0.44696972 -0.04007068
v 0.05834591 -0.49242427 -0.02491916
v 0.04319440 -0.44696972 -0.08552523
v -0.04771470 -0.40151517 -0.04007068
v -0.01741166 -0.50757578 -0.04007068
v 0.07349743 -0.46212124 -0.05522220
v 0.05834591 -0.40151517 -0.08552523
v -0.03256318 -0.47727275 -0.07037371
v 0.04319440 -0.47727275 -0.07037371
v 0.05834591 -0.38636366 -0.04007068
v -0.04932933 -0.46362914 -0.04213303
v 0.05834591 -0.43181820 -0.08552523
v 0.07711367 -0.38528220 -0.04717965
v -0.04771470 -0.46212124 -0.07037371
v -0.03256318 -0.44696972 -0.08552523
v 0.04319440 -0.49242427 -0.05522220
v 0.06379863 -0.38454917 -0.05970619
v -0.03044054 -0.48804260 -0.02259650
v 0.05834591 -0.46212124 -0.07037371
v 0.05573610 -0.38570031 -0.06782710
f 7 3 4
f 9 2 6
f 9 6 4
f 9 4 3
f 12 9 3
f 12 2 9
f 13 7 1
f 13 1 8
f 13 3 7
f 13 12 3
f 13 8 12
f 15 10 5
f 16 11 1
f 16 1 7
f 17 12 8
f 17 2 12
f 18 14 5
f 18 5 10
f 19 1 11
f 20 19 14
f 20 1 19
f 21 15 4
f 21 4 6
f 22 15 5
f 23 2 17
f 23 18 2
f 23 14 18
f 23 20 14
f 24 6 2
f 24 2 18
f 25 19 11
f 25 5 19
f 25 22 5
f 25 11 22
f 26 19 5
f 26 5 14
f 26 14 19
f 27 20 8
f 27 8 1
f 27 1 20
f 28 10 15
f 28 15 21
f 28 21 6
f 28 6 24
f 28 24 18
f 29 7 4
f 29 4 15
f 29 15 22
f 29 16 7
f 29 22 11
f 29 11 16
f 30 23 17
f 30 20 23
f 30 17 8
f 30 8 20
f 31 28 18
f 31 18 10
f 31 10 28