# https://github.com/mikedh/trimesh
v -0.02896899 0.35676181 0.10159696
v -0.02937186 0.35455397 -0.08900482
v -0.04047075 0.48132979 0.04695437
v -0.06286621 0.49242425 0.05083841
v -0.10832076 0.35606061 -0.02491916
v -0.06286621 0.49242425 -0.02491916
v -0.04771470 0.41666667 0.11144448
v -0.03256318 0.44696970 -0.02491916
v -0.09348238 0.35509446 0.01787015
v -0.04191518 0.48480780 -0.02103247
v -0.09316924 0.46212122 0.03568690
v -0.06286621 0.41666667 -0.08552523
v -0.02929604 0.41512620 0.10266295
v -0.04771470 0.35606061 0.11144448
v -0.03070033 0.41464270 -0.07865156
v -0.09316924 0.41666667 -0.05522220
v -0.10832076 0.38636364 0.02053538
v -0.07801773 0.44696970 0.08114144
v -0.04771470 0.35606061 -0.10067674
v -0.04315704 0.47186280 0.06330781
v -0.03256318 0.44696970 0.02053538
v -0.09316924 0.46212122 -0.00976765
v -0.07801773 0.47727273 -0.02491916
v -0.07801773 0.35606061 0.09629296
v -0.06286621 0.47727273 0.06598993
v -0.07801773 0.47727273 0.05083841
v -0.09316924 0.43181819 0.06598993
v -0.09316924 0.35606061 -0.05522220
v -0.03256318 0.38636364 -0.10067674
v -0.10832076 0.38636364 -0.00976765
v -0.07801773 0.38636364 0.09629296
v -0.04771470 0.38636364 -0.10067674
v -0.10832076 0.37121212 -0.02491916
f 9 5 2
f 10 6 4
f 10 4 3
f 10 3 8
f 13 1 2
f 14 9 2
f 14 2 1
f 14 13 7
f 14 1 13
f 15 10 8
f 15 12 6
f 15 6 10
f 15 13 2
f 15 8 13
f 19 16 12
f 20 13 3
f 20 3 4
f 20 7 13
f 21 13 8
f 21 8 3
f 21 3 13
f 22 17 11
f 23 6 12
f 23 12 16
f 23 16 22
f 23 22 11
f 23 4 6
f 24 17 5
f 24 5 9
f 24 9 14
f 24 14 7
f 25 18 7
f 25 20 4
f 25 7 20
f 26 23 11
f 26 4 23
f 26 25 4
f 26 18 25
f 27 11 17
f 27 17 24
f 27 26 11
f 27 18 26
f 28 19 2
f 28 2 5
f 28 5 16
f 28 16 19
f 29 15 2
f 29 2 19
f 29 12 15
f 30 5 17
f 30 17 22
f 31 24 7
f 31 7 18
f 31 27 24
f 31 18 27
f 32 29 19
f 32 19 12
f 32 12 29
f 33 16 5
f 33 5 30
f 33 30 22
f 33 22 16