# https://github.com/mikedh/trimesh
v 0.08728698 0.07114215 0.08333333
v 0.08728698 0.07114215 0.00757575
v 0.08728698 0.17720276 0.00757575
v -0.12483423 0.16205125 0.08333333
v -0.06422817 0.07114215 0.00757575
v 0.08466520 0.15362410 0.08390603
v -0.06422817 0.07114215 0.08333333
v -0.06288604 0.16526302 0.00743031
v 0.08728698 0.17720276 0.05303030
v -0.13097434 0.11536374 0.05208081
v -0.13069645 0.11502590 0.08415077
v -0.06422817 0.17720276 0.05303030
v -0.13998575 0.14689973 0.05303030
v -0.12483423 0.16205125 0.05303030
v -0.13998575 0.14689973 0.08333333
f 1 2 3
f 5 2 1
f 7 5 1
f 8 3 2
f 8 2 5
f 9 6 1
f 9 1 3
f 9 4 6
f 11 6 4
f 11 10 5
f 11 5 7
f 11 7 1
f 11 1 6
f 12 3 8
f 12 9 3
f 12 4 9
f 13 8 5
f 13 5 10
f 14 12 8
f 14 4 12
f 14 13 4
f 14 8 13
f 15 11 4
f 15 4 13
f 15 13 10
f 15 10 11