# https://github.com/mikedh/trimesh
v -0.06422817 -0.00461542 -0.35606061
v -0.06422817 -0.00461542 -0.41666667
v -0.06357776 0.16759321 -0.37316941
v -0.10968272 0.17720276 -0.35606061
v -0.14310555 -0.00473978 -0.35915216
v -0.13998575 0.16205125 -0.41666667
v -0.06356356 0.16603420 -0.35635269
v -0.15513726 0.11659670 -0.35606061
v -0.06365247 0.16588364 -0.41406873
v -0.14109443 -0.00473912 -0.41710605
v -0.13998575 0.16205125 -0.35606061
v -0.10968272 0.17720276 -0.41666667
v -0.15513726 0.07114215 -0.41666667
v -0.15513726 0.11659670 -0.37121213
f 7 3 4
f 7 4 1
f 7 1 2
f 7 2 3
f 8 5 1
f 8 1 4
f 9 3 2
f 10 2 1
f 10 1 5
f 11 8 4
f 11 4 6
f 11 6 8
f 12 9 2
f 12 6 4
f 12 4 3
f 12 3 9
f 12 10 6
f 12 2 10
f 13 6 10
f 13 10 5
f 13 5 8
f 14 13 8
f 14 8 6
f 14 6 13