# https://github.com/mikedh/trimesh
v 0.08728698 -0.09552451 0.26515151
v 0.14682532 -0.09550069 0.14402996
v 0.14789304 0.07114215 0.18939394
v -0.07202905 0.07821845 0.26823982
v -0.06422817 -0.09552451 0.14393939
v 0.10243850 0.07114215 0.26515151
v 0.14789304 -0.09552451 0.18939394
v -0.06260087 -0.09052802 0.26301593
v 0.14702784 0.07114961 0.14398666
v 0.10243850 -0.08037300 0.26515151
v -0.06422817 0.07114215 0.14393939
v 0.10243850 -0.09552451 0.25000000
f 6 3 4
f 7 3 6
f 7 5 2
f 7 1 5
f 8 5 1
f 8 1 4
f 8 4 5
f 9 2 5
f 9 7 2
f 9 3 7
f 9 4 3
f 10 6 4
f 10 4 1
f 10 7 6
f 11 9 5
f 11 5 4
f 11 4 9
f 12 10 1
f 12 1 7
f 12 7 10