# https://github.com/mikedh/trimesh
v 0.08728698 -0.08037300 0.40151515
v 0.10243850 -0.05006997 0.29545454
v 0.10243850 0.01053609 0.41666666
v 0.07213546 0.08629367 0.41666666
v 0.06703381 -0.08739301 0.26123382
v 0.08728698 0.08629367 0.26515151
v 0.06941978 -0.04827443 0.46210980
v 0.10243850 -0.01976694 0.41666666
v 0.08728698 -0.09552451 0.26515151
v 0.10243850 0.04083912 0.29545454
v 0.05450690 0.08059514 0.31059152
v 0.07505164 0.03484842 0.46220328
v 0.06684657 -0.07386121 0.40021262
v 0.10243850 -0.03491845 0.37121212
v 0.08728698 -0.05006997 0.46212121
v 0.08728698 -0.09552451 0.28030303
v 0.08821788 -0.04703918 0.26186270
v 0.08728698 0.07114215 0.41666666
v 0.06901696 0.08143942 0.26236472
v 0.05162920 0.06413990 0.44642966
v 0.07213546 -0.09552451 0.28030303
v 0.08803767 0.03789766 0.26212553
v 0.08728698 0.08629367 0.28030303
v 0.07213546 0.07114215 0.44696969
v 0.07200833 0.04077109 0.46212013
v 0.05698395 0.02568761 0.34090909
v 0.05199878 0.07762446 0.41071795
f 8 2 3
f 10 3 2
f 11 4 6
f 13 1 7
f 14 8 1
f 14 1 2
f 14 2 8
f 15 7 1
f 15 1 8
f 15 12 7
f 15 8 3
f 15 3 12
f 16 9 2
f 16 2 1
f 17 2 9
f 17 10 2
f 17 9 5
f 18 3 10
f 18 12 3
f 19 11 6
f 19 5 11
f 20 13 7
f 20 5 13
f 21 16 1
f 21 1 13
f 21 13 5
f 21 5 9
f 21 9 16
f 22 6 10
f 22 10 17
f 22 19 6
f 22 17 5
f 22 5 19
f 23 18 10
f 23 10 6
f 23 6 4
f 23 4 18
f 24 18 4
f 24 12 18
f 24 4 20
f 25 20 7
f 25 7 12
f 25 24 20
f 25 12 24
f 26 20 11
f 26 11 5
f 26 5 20
f 27 20 4
f 27 4 11
f 27 11 20