# https://github.com/mikedh/trimesh
v -0.06372655 -0.16226974 -0.15906702
v -0.06389287 -0.16229728 -0.23503824
v -0.06422817 -0.00461542 -0.23484849
v -0.09453120 -0.00461542 -0.09848485
v -0.09280955 -0.15963450 -0.23539755
v -0.06422817 -0.00461542 -0.09848485
v -0.09453120 -0.09552451 -0.09848485
v -0.09453120 -0.00461542 -0.23484849
v -0.09183943 -0.15928837 -0.15925288
v -0.06422817 -0.09552451 -0.09848485
f 1 2 3
f 5 2 1
f 5 3 2
f 6 1 3
f 6 3 4
f 7 6 4
f 8 4 3
f 8 3 5
f 8 7 4
f 8 5 7
f 9 7 5
f 9 5 1
f 9 1 7
f 10 7 1
f 10 1 6
f 10 6 7