# https://github.com/mikedh/trimesh
v 0.04183244 -0.09552451 0.49242424
v 0.08728698 -0.08037300 0.40151515
v 0.08728698 0.04083912 0.50757575
v -0.04907666 0.08629367 0.50757575
v -0.09453120 -0.06522148 0.40151515
v 0.02668092 0.10144519 0.40151515
v -0.06422817 -0.08037300 0.50757575
v 0.08728698 -0.05006997 0.50757575
v -0.03285792 -0.08847016 0.40082564
v 0.08152237 0.04327522 0.40207586
v 0.04183244 0.08629367 0.50757575
v -0.07937969 0.08629367 0.40151515
v -0.09453120 0.01053609 0.49242424
v 0.08728698 -0.08037300 0.41666666
v 0.02668092 -0.09552451 0.50757575
v 0.05698395 -0.09552451 0.41666666
v -0.03392514 -0.09552451 0.47727272
v 0.05139693 -0.08249947 0.40024250
v 0.07213546 0.07114215 0.44696969
v 0.02668092 0.10144519 0.41666666
v -0.09453120 0.05599064 0.40151515
v -0.07937969 0.05599064 0.50757575
v -0.07937969 -0.06522148 0.50757575
v 0.05698395 -0.08037300 0.50757575
v -0.01877363 -0.09552451 0.50757575
v 0.05365403 0.07918616 0.40076520
v 0.07213546 0.07114215 0.50757575
v -0.03392514 0.10144519 0.41666666
v 0.05698395 0.08629367 0.43181818
v -0.07937969 0.08629367 0.41666666
v -0.09453120 0.02568761 0.47727272
v -0.09453120 -0.01976694 0.49242424
v -0.09453120 -0.06522148 0.41666666
v 0.08144032 -0.04843437 0.40104520
v -0.03392514 0.10144519 0.40151515
v -0.09453120 0.05599064 0.41666666
f 7 3 4
f 8 2 3
f 8 3 7
f 10 3 2
f 11 4 3
f 14 2 8
f 15 8 7
f 16 1 15
f 16 14 1
f 16 2 14
f 17 7 5
f 17 5 9
f 17 16 15
f 17 9 16
f 18 16 9
f 18 2 16
f 19 3 10
f 20 4 11
f 21 9 5
f 21 5 13
f 21 18 9
f 21 12 18
f 22 7 4
f 23 22 13
f 23 7 22
f 24 14 8
f 24 1 14
f 24 15 1
f 24 8 15
f 25 17 15
f 25 15 7
f 25 7 17
f 26 18 12
f 27 11 3
f 27 3 19
f 28 4 20
f 28 20 6
f 29 6 20
f 29 26 6
f 29 19 10
f 29 10 26
f 29 27 19
f 29 20 11
f 29 11 27
f 30 22 4
f 30 12 21
f 30 28 12
f 30 4 28
f 31 21 13
f 31 13 22
f 32 23 13
f 32 13 5
f 33 5 7
f 33 7 23
f 33 32 5
f 33 23 32
f 34 26 10
f 34 10 2
f 34 2 18
f 34 18 26
f 35 26 12
f 35 6 26
f 35 28 6
f 35 12 28
f 36 30 21
f 36 22 30
f 36 31 22
f 36 21 31