# https://github.com/mikedh/trimesh
v 0.01152940 -0.09552451 -0.35606061
v 0.01148066 -0.09549519 -0.49016286
v 0.01153152 0.07108179 -0.49025221
v -0.06422817 0.07114215 -0.35606061
v -0.09453120 -0.09552451 -0.35606061
v 0.01152940 0.07114215 -0.35606061
v -0.09444453 -0.00461160 -0.49044246
v -0.06420420 0.07106762 -0.49097175
v -0.09453422 -0.09548019 -0.48960088
v -0.09453120 -0.00461542 -0.35606061
f 1 2 3
f 5 2 1
f 5 1 4
f 6 1 3
f 6 3 4
f 6 4 1
f 8 3 2
f 8 2 7
f 8 4 3
f 9 7 2
f 9 2 5
f 10 5 4
f 10 8 7
f 10 4 8
f 10 9 5
f 10 7 9