# https://github.com/mikedh/trimesh
v 0.08728698 -0.15613057 0.18939394
v 0.08641666 -0.16183989 0.14209183
v 0.08728698 -0.09552451 0.14393939
v -0.07127414 -0.08772048 0.26006447
v -0.09453120 -0.15613057 0.18939394
v 0.06703381 -0.08739301 0.26123382
v 0.09027781 -0.09742030 0.22245397
v -0.09359376 -0.16094014 0.14199998
v -0.06422817 -0.09552451 0.14393939
v 0.07213546 -0.11067603 0.26515151
v 0.07916297 -0.08902664 0.24387683
v -0.10968272 -0.09552451 0.23484848
v 0.07213546 -0.14097906 0.21969697
v 0.08728698 -0.11067603 0.25000000
v -0.07937969 -0.11067603 0.26515151
v -0.10968272 -0.11067603 0.23484848
v -0.09453120 -0.14097906 0.14393939
v -0.10249670 -0.09197209 0.21362745
v 0.08728698 -0.12582754 0.23484848
v -0.06422817 -0.14097906 0.21969697
v -0.09453120 -0.12582754 0.23484848
v -0.10968272 -0.11067603 0.21969697
f 5 2 1
f 7 1 2
f 7 2 3
f 8 3 2
f 8 2 5
f 9 6 3
f 9 4 6
f 9 3 8
f 11 7 3
f 11 3 6
f 13 5 1
f 13 1 10
f 14 7 11
f 14 11 6
f 14 6 10
f 15 10 6
f 15 6 4
f 15 13 10
f 15 4 12
f 16 8 5
f 16 15 12
f 17 9 8
f 18 12 4
f 18 4 9
f 18 9 17
f 19 14 10
f 19 10 1
f 19 1 7
f 19 7 14
f 20 15 5
f 20 5 13
f 20 13 15
f 21 16 5
f 21 5 15
f 21 15 16
f 22 16 12
f 22 18 17
f 22 12 18
f 22 17 8
f 22 8 16