# https://github.com/mikedh/trimesh
v 0.11759001 -0.17128209 -0.44696970
v 0.13274152 -0.15613057 -0.49242425
v 0.13771498 -0.09578014 -0.46211399
v -0.09453120 -0.09552451 -0.46212122
v -0.10968272 -0.17128209 -0.49242425
v 0.13274152 -0.09552451 -0.50757576
v 0.08728698 -0.09552451 -0.44696970
v 0.12940029 -0.13919880 -0.44697658
v 0.11759001 -0.17128209 -0.49242425
v -0.06396204 -0.16392376 -0.44662742
v 0.13274152 -0.12582754 -0.50757576
v -0.09453120 -0.12582754 -0.50757576
v -0.09453422 -0.09548019 -0.48960088
v -0.12483423 -0.17128209 -0.46212122
v -0.06422817 -0.09552451 -0.44696970
v 0.12381861 -0.14765268 -0.44636453
v 0.11759001 -0.15613057 -0.50757576
v 0.10243850 -0.09552451 -0.50757576
v -0.13998575 -0.15613057 -0.46212122
v -0.10968272 -0.15613057 -0.50757576
v -0.13124733 -0.13740705 -0.46189594
v -0.13998575 -0.15613057 -0.47727273
v -0.12483423 -0.17128209 -0.47727273
v -0.12950305 -0.13573772 -0.47337822
f 7 3 6
f 8 1 2
f 8 2 3
f 8 3 7
f 9 2 1
f 9 1 5
f 11 6 3
f 11 3 2
f 12 6 11
f 13 7 6
f 14 5 1
f 14 1 10
f 15 13 4
f 15 7 13
f 16 8 7
f 16 15 10
f 16 7 15
f 16 10 1
f 16 1 8
f 17 11 2
f 17 2 9
f 17 9 5
f 17 12 11
f 18 13 6
f 18 6 12
f 18 12 13
f 19 14 10
f 19 10 15
f 20 17 5
f 20 12 17
f 21 4 13
f 21 19 15
f 21 15 4
f 22 14 19
f 22 20 5
f 22 13 12
f 22 12 20
f 22 19 21
f 23 22 5
f 23 5 14
f 23 14 22
f 24 22 21
f 24 21 13
f 24 13 22