# https://github.com/mikedh/trimesh
v 0.14789304 -0.14097906 -0.41666667
v 0.14789304 -0.12582754 -0.49242425
v 0.14789304 0.13174822 -0.41666667
v 0.08726794 0.16195257 -0.41663866
v 0.08728698 -0.14097906 -0.46212122
v 0.13274152 0.11659670 -0.50757576
v 0.14789304 -0.14097906 -0.47727273
v 0.08728698 -0.14097906 -0.41666667
v 0.14789304 0.11659670 -0.49242425
v 0.08710523 0.11667975 -0.49000423
v 0.13274152 0.16205125 -0.46212122
v 0.08670455 0.15933501 -0.46170456
v 0.10243850 -0.09552451 -0.50757576
v 0.13274152 0.16205125 -0.41666667
v 0.14789304 0.13174822 -0.47727273
v 0.10243850 0.11659670 -0.50757576
v 0.08731004 -0.09553176 -0.48942040
v 0.13274152 -0.09552451 -0.50757576
f 1 2 3
f 1 3 4
f 7 5 2
f 7 2 1
f 7 1 5
f 8 5 1
f 8 1 4
f 9 3 2
f 9 2 6
f 11 9 6
f 12 8 4
f 12 4 11
f 12 5 8
f 13 2 5
f 14 11 4
f 14 4 3
f 14 3 11
f 15 11 3
f 15 3 9
f 15 9 11
f 16 12 11
f 16 11 6
f 16 10 12
f 16 13 10
f 16 6 13
f 17 12 10
f 17 5 12
f 17 13 5
f 17 10 13
f 18 13 6
f 18 6 2
f 18 2 13