# https://github.com/mikedh/trimesh
v 0.07948707 0.06788753 0.26266364
v 0.13144651 0.10132276 0.08338585
v 0.13274152 0.16205125 0.15909091
v -0.12483423 0.16205125 0.17424242
v -0.06422817 0.07114215 0.08333333
v -0.06406517 0.15589594 0.08372111
v 0.05698395 0.13174822 0.23484848
v 0.13274152 0.13174822 0.18939394
v 0.08728698 0.07114215 0.08333333
v -0.07202905 0.07821845 0.26823982
v 0.11759001 0.16205125 0.08333333
v -0.14618792 0.10094056 0.14371877
v 0.11759001 0.16205125 0.17424242
v 0.12436570 0.09895908 0.18155320
v 0.13274152 0.14689973 0.08333333
v 0.08728698 0.10144519 0.26515151
v -0.06422817 0.13174822 0.23484848
v -0.13998575 0.16205125 0.14393939
v -0.15513726 0.13174822 0.17424242
v -0.15513726 0.10144519 0.17424242
v 0.13274152 0.16205125 0.09848485
v -0.12483423 0.14689973 0.18939394
v -0.13998575 0.16205125 0.15909091
v -0.13998575 0.13174822 0.18939394
f 9 2 1
f 9 1 5
f 10 5 1
f 11 5 6
f 11 9 5
f 11 4 3
f 12 6 5
f 13 3 4
f 13 4 7
f 14 8 1
f 14 1 2
f 14 2 8
f 15 8 2
f 15 3 8
f 15 2 9
f 15 9 11
f 16 1 8
f 16 10 1
f 16 13 7
f 16 8 3
f 16 3 13
f 17 7 4
f 17 16 7
f 17 10 16
f 18 11 6
f 18 4 11
f 18 6 12
f 19 18 12
f 20 12 5
f 20 5 10
f 20 19 12
f 20 10 19
f 21 15 11
f 21 11 3
f 21 3 15
f 22 17 4
f 22 10 17
f 23 4 18
f 23 18 19
f 23 22 4
f 24 19 10
f 24 10 22
f 24 23 19
f 24 22 23