# https://github.com/mikedh/trimesh
v 0.11759001 -0.17128209 0.15909091
v 0.14789304 -0.14097906 -0.41666667
v 0.13799388 -0.09461105 0.16684761
v 0.09164906 -0.08907028 0.22682071
v 0.08666074 -0.16259245 -0.44650338
v 0.13817581 -0.09519796 -0.41615415
v 0.14789304 -0.14097906 0.17424242
v 0.11759001 -0.17128209 -0.44696970
v 0.08628729 -0.15836724 0.15351996
v 0.08728698 -0.09552451 -0.41666667
v 0.13274152 -0.09552451 0.20454545
v 0.10243850 -0.11067603 0.23484848
v 0.13274152 -0.17128209 0.03787878
v 0.12940029 -0.13919880 -0.44697658
v 0.08102305 -0.10300723 0.22722882
v 0.13274152 -0.15613057 0.17424242
v 0.08728698 -0.15613057 0.18939394
v 0.13274152 -0.11067603 0.20454545
v 0.14789304 -0.15613057 0.15909091
v 0.13274152 -0.17128209 0.02272727
v 0.08728698 -0.14097906 -0.44696970
v 0.08442920 -0.09354264 0.23256104
v 0.13274152 -0.14097906 0.18939394
v 0.10243850 -0.15613057 0.18939394
v 0.14789304 -0.15613057 0.11363636
f 6 4 3
f 7 6 3
f 7 2 6
f 8 1 5
f 9 5 1
f 10 4 6
f 11 7 3
f 11 3 4
f 12 11 4
f 13 1 8
f 14 6 2
f 14 2 8
f 14 10 6
f 15 10 5
f 15 5 9
f 17 9 1
f 17 15 9
f 17 12 15
f 18 7 11
f 18 11 12
f 19 2 7
f 19 7 16
f 19 16 1
f 19 1 13
f 20 13 8
f 20 8 2
f 20 19 13
f 21 14 8
f 21 8 5
f 21 5 10
f 21 10 14
f 22 4 10
f 22 10 15
f 22 15 12
f 22 12 4
f 23 16 7
f 23 12 16
f 23 18 12
f 23 7 18
f 24 16 12
f 24 12 17
f 24 17 1
f 24 1 16
f 25 20 2
f 25 2 19
f 25 19 20