# https://github.com/mikedh/trimesh
v 0.07213546 -0.09552451 0.40151515
v 0.06703381 -0.08739301 0.26123382
v 0.07213546 0.10144519 0.26515151
v -0.03392514 0.10144519 0.40151515
v -0.09453120 -0.08037300 0.29545454
v 0.08467186 0.02763354 0.40132413
v -0.04907666 -0.11067603 0.26515151
v -0.09453120 -0.06522148 0.40151515
v -0.08329831 0.06581939 0.25970072
v 0.04183244 0.10144519 0.38636363
v 0.02668092 0.10144519 0.40151515
v 0.04183244 -0.11067603 0.28030303
v -0.03285792 -0.08847016 0.40082564
v -0.07937969 -0.09552451 0.31060606
v -0.06422817 0.10144519 0.28030303
v -0.09453120 -0.08037300 0.26515151
v -0.05973921 0.09057332 0.25823212
v -0.09453120 0.05599064 0.40151515
v 0.07213546 0.10144519 0.28030303
v 0.05365403 0.07918616 0.40076520
v 0.03973461 -0.09735998 0.25908771
v -0.04907666 -0.11067603 0.28030303
v -0.09453120 0.07114215 0.31060606
v -0.07937969 0.08629367 0.40151515
v -0.07127414 -0.08772048 0.26006447
v -0.04907666 0.10144519 0.38636363
f 6 1 2
f 6 2 3
f 8 1 4
f 10 3 4
f 11 4 1
f 11 1 6
f 11 10 4
f 12 2 1
f 13 1 8
f 14 8 5
f 14 13 8
f 15 4 3
f 16 5 8
f 16 14 5
f 16 7 14
f 17 15 3
f 17 9 15
f 18 8 4
f 18 16 8
f 19 6 3
f 19 3 10
f 20 11 6
f 20 10 11
f 20 19 10
f 20 6 19
f 21 12 7
f 21 2 12
f 21 17 3
f 21 3 2
f 22 12 1
f 22 7 12
f 22 1 13
f 22 14 7
f 22 13 14
f 23 15 9
f 23 9 16
f 23 16 18
f 24 18 4
f 24 23 18
f 24 15 23
f 25 21 7
f 25 7 16
f 25 16 9
f 25 9 17
f 25 17 21
f 26 24 4
f 26 4 15
f 26 15 24