# https://github.com/mikedh/trimesh
v 0.08728698 0.07114215 0.00757575
v 0.08728698 0.07114215 -0.41666667
v 0.08728698 0.17720276 0.00757575
v -0.06288604 0.16526302 0.00743031
v -0.06422817 0.07114215 0.00757575
v 0.08728698 0.17720276 -0.44696970
v -0.06333623 0.16370157 -0.44608616
v 0.01152940 0.07114215 -0.44696970
v -0.06422817 0.07114215 -0.44696970
v 0.08728698 0.11659670 -0.44696970
f 1 2 3
f 5 2 1
f 5 1 3
f 5 3 4
f 6 3 2
f 6 4 3
f 7 5 4
f 7 4 6
f 8 2 5
f 9 7 6
f 9 6 8
f 9 8 5
f 9 5 7
f 10 8 6
f 10 6 2
f 10 2 8