# https://github.com/mikedh/trimesh
v -0.09453120 0.07114215 0.05303030
v -0.06422817 0.07114215 -0.35606061
v -0.06422817 0.17720276 0.05303030
v -0.10968272 0.17720276 0.05303030
v -0.15513726 0.10144519 -0.32575758
v -0.06422817 0.07114215 0.00757575
v -0.14112843 0.07038919 -0.35854498
v -0.15513726 0.07114215 -0.02272728
v -0.06356356 0.16603420 -0.35635269
v -0.06422817 0.11659670 0.05303030
v -0.13998575 0.16205125 0.05303030
v -0.13998575 0.16205125 -0.35606061
v -0.14039790 0.08530499 -0.35920630
v -0.10968272 0.17720276 -0.35606061
v -0.10968272 0.07114215 0.05303030
v -0.15513726 0.10144519 -0.03787879
v -0.13097434 0.11536374 0.05208081
v -0.15513726 0.08629367 -0.02272728
v -0.13991102 0.07113902 0.00757816
f 1 3 4
f 7 6 1
f 7 2 6
f 8 5 7
f 9 6 2
f 10 3 1
f 10 1 6
f 10 9 3
f 10 6 9
f 11 1 4
f 12 7 5
f 12 5 11
f 12 11 4
f 13 9 2
f 13 2 7
f 13 7 12
f 14 4 3
f 14 3 9
f 14 12 4
f 14 13 12
f 14 9 13
f 15 1 11
f 15 7 1
f 16 11 5
f 16 5 8
f 17 15 11
f 17 11 8
f 18 16 8
f 18 8 11
f 18 11 16
f 19 17 8
f 19 15 17
f 19 8 7
f 19 7 15