# https://github.com/mikedh/trimesh
v -0.09453120 -0.17128209 0.08333333
v -0.06305345 -0.16299241 -0.03796900
v -0.06422817 0.11659670 0.08333333
v -0.13069645 0.11502590 0.08415077
v -0.15513726 -0.08037300 -0.03787879
v -0.11677523 -0.14423786 0.08445268
v -0.06403104 -0.15776734 0.08377845
v -0.12483423 -0.17128209 0.00757575
v -0.06422817 0.11659670 0.00757575
v -0.15513726 -0.09552451 0.05303030
v -0.09275042 -0.15919118 -0.03812396
v -0.13998575 -0.15613057 0.05303030
v -0.06422817 -0.00461542 -0.03787879
v -0.15513726 0.11659670 0.00757575
v -0.13998575 -0.14097906 0.08333333
v -0.13998575 -0.15613057 0.00757575
v -0.12483423 -0.17128209 0.05303030
v -0.15513726 0.11659670 0.03787878
v -0.14450622 -0.00448985 -0.03735652
v -0.15513726 0.10144519 0.05303030
v -0.15513726 -0.12582754 0.03787878
v -0.15513726 -0.12582754 0.02272727
f 6 3 4
f 7 1 2
f 7 2 3
f 7 6 1
f 7 3 6
f 8 2 1
f 9 3 2
f 11 2 8
f 13 9 2
f 13 11 5
f 13 2 11
f 14 3 9
f 14 5 10
f 14 9 13
f 15 6 4
f 15 1 6
f 16 11 8
f 16 5 11
f 16 8 12
f 17 12 8
f 17 8 1
f 17 15 12
f 17 1 15
f 18 4 3
f 18 3 14
f 18 14 10
f 19 14 13
f 19 13 5
f 19 5 14
f 20 15 4
f 20 10 15
f 20 18 10
f 20 4 18
f 21 15 10
f 21 12 15
f 21 16 12
f 21 10 5
f 22 21 5
f 22 5 16
f 22 16 21