# https://github.com/mikedh/trimesh
v -0.12483423 -0.17128209 0.15909091
v -0.09377136 -0.15343952 0.08334701
v -0.09453120 -0.15613057 0.18939394
v -0.10509347 -0.13347855 0.18075614
v -0.12772536 -0.13537855 0.10176021
v -0.09286088 -0.13525412 0.18421391
v -0.13998575 -0.15613057 0.17424242
v -0.10968272 -0.17128209 0.09848485
v -0.09199674 -0.15703384 0.10113975
v -0.10968272 -0.15613057 0.18939394
v -0.12223050 -0.13941612 0.08344012
v -0.13998575 -0.14097906 0.17424242
v -0.13998575 -0.15613057 0.09848485
v -0.09358895 -0.15779605 0.15397102
v -0.09773352 -0.15232042 0.08327567
v -0.12483423 -0.17128209 0.11363636
v -0.11677523 -0.14423786 0.08445268
f 6 5 4
f 8 3 1
f 9 2 6
f 9 8 2
f 10 6 4
f 10 3 6
f 10 7 1
f 10 1 3
f 11 6 2
f 11 5 6
f 12 4 5
f 12 10 4
f 12 7 10
f 13 1 7
f 13 5 11
f 13 12 5
f 13 7 12
f 14 9 6
f 14 6 3
f 14 3 8
f 14 8 9
f 15 11 2
f 15 2 8
f 15 8 13
f 16 13 8
f 16 8 1
f 16 1 13
f 17 15 13
f 17 13 11
f 17 11 15