# https://github.com/mikedh/trimesh
v -0.10968272 -0.17128209 0.00757575
v -0.06387076 -0.16300906 -0.46137671
v -0.06422817 -0.09552451 -0.03787879
v -0.13817497 -0.09531538 0.00758629
v -0.13998575 -0.15613057 -0.46212122
v -0.09453120 -0.09552451 0.00757575
v -0.06305345 -0.16299241 -0.03796900
v -0.12483423 -0.17128209 -0.46212122
v -0.13998575 -0.15613057 0.00757575
v -0.10968272 -0.09552451 -0.50757576
v -0.06422817 -0.09552451 -0.46212122
v -0.09239411 -0.15924298 0.00736905
v -0.15513726 -0.09552451 -0.38636364
v -0.12483423 -0.17128209 -0.21969697
v -0.12483423 -0.14097906 -0.50757576
v -0.09453120 -0.11067603 -0.50757576
v -0.13113610 -0.09498196 -0.48654486
v -0.15513726 -0.09552451 -0.25000000
v -0.15513726 -0.11067603 -0.25000000
v -0.13998575 -0.14097906 -0.49242425
v -0.09387945 -0.14330133 -0.49354920
v -0.15513726 -0.11067603 -0.38636364
f 6 3 4
f 6 4 1
f 7 1 2
f 8 2 1
f 9 1 4
f 9 5 8
f 11 7 2
f 11 3 7
f 12 6 1
f 12 1 7
f 12 7 3
f 12 3 6
f 14 9 8
f 14 8 1
f 14 1 9
f 15 2 8
f 16 11 2
f 16 10 11
f 16 15 10
f 17 11 10
f 17 4 3
f 17 3 11
f 17 10 15
f 18 9 4
f 18 17 13
f 18 4 17
f 19 5 9
f 19 18 13
f 19 9 18
f 20 15 8
f 20 8 5
f 20 17 15
f 20 13 17
f 21 16 2
f 21 2 15
f 21 15 16
f 22 19 13
f 22 5 19
f 22 20 5
f 22 13 20