# https://github.com/mikedh/trimesh
v -0.06403201 -0.16235861 0.14211248
v -0.06403104 -0.15776734 0.08377845
v -0.06421332 0.16065436 0.14362574
v -0.13998575 0.16205125 0.14393939
v -0.15513726 -0.14097906 0.11363636
v -0.12483423 0.16205125 0.08333333
v -0.15513726 -0.14097906 0.14393939
v -0.06406517 0.15589594 0.08372111
v -0.09453120 -0.17128209 0.08333333
v -0.15513726 0.13174822 0.11363636
v -0.09359376 -0.16094014 0.14199998
v -0.13998575 -0.14097906 0.08333333
v -0.13998575 0.16205125 0.11363636
v -0.13998575 0.14689973 0.08333333
v -0.15513726 -0.09552451 0.09848485
v -0.15513726 -0.05006997 0.09848485
f 6 4 3
f 7 1 3
f 7 3 4
f 8 1 2
f 8 3 1
f 8 6 3
f 9 2 1
f 9 7 5
f 9 8 2
f 9 6 8
f 10 7 4
f 10 5 7
f 11 9 1
f 11 1 7
f 11 7 9
f 12 9 5
f 12 6 9
f 13 10 4
f 13 4 6
f 14 6 12
f 14 13 6
f 14 10 13
f 15 12 5
f 15 5 10
f 15 14 12
f 16 15 10
f 16 10 14
f 16 14 15