# https://github.com/mikedh/trimesh
v -0.06422817 -0.14097906 0.21969697
v -0.06422817 -0.14097906 0.14393939
v -0.06422817 0.11659670 0.25000000
v -0.12483423 0.13174822 0.20454545
v -0.15513726 -0.14097906 0.14393939
v -0.06422817 0.10144519 0.14393939
v -0.09453120 -0.09552451 0.26515151
v -0.05973921 0.09057332 0.25823212
v -0.09382671 0.13005475 0.18788222
v -0.14618792 0.10094056 0.14371877
v -0.10968272 -0.14097906 0.20454545
v -0.13998575 -0.08037300 0.20454545
v -0.06260087 -0.09052802 0.26301593
v -0.09453120 0.08629367 0.26515151
v -0.06406418 0.11563350 0.21907424
v -0.11713029 0.12449034 0.17888344
v -0.15513726 -0.12582754 0.17424242
v -0.07937969 -0.14097906 0.21969697
v -0.07937969 0.10144519 0.26515151
v -0.10968272 -0.08037300 0.25000000
v -0.15513726 0.10144519 0.17424242
v -0.15513726 -0.14097906 0.15909091
v -0.07937969 0.11659670 0.25000000
v -0.12483423 0.10144519 0.21969697
v -0.10968272 0.07114215 0.25000000
v -0.13998575 0.02568761 0.20454545
f 5 2 1
f 8 2 6
f 9 4 3
f 10 6 2
f 10 2 5
f 11 5 1
f 13 1 2
f 13 2 8
f 13 7 1
f 15 8 6
f 15 3 8
f 15 9 3
f 15 6 9
f 16 9 6
f 16 6 10
f 16 10 4
f 16 4 9
f 17 11 7
f 18 11 1
f 18 1 7
f 18 7 11
f 19 8 3
f 19 4 14
f 19 13 8
f 19 14 7
f 19 7 13
f 20 7 14
f 20 17 7
f 20 12 17
f 21 17 12
f 21 4 10
f 21 10 5
f 21 5 17
f 22 17 5
f 22 5 11
f 22 11 17
f 23 19 3
f 23 3 4
f 23 4 19
f 24 14 4
f 24 4 21
f 25 20 14
f 25 14 24
f 25 12 20
f 25 24 21
f 26 25 21
f 26 21 12
f 26 12 25