# https://github.com/mikedh/trimesh
v 0.10243850 0.07114215 0.25000000
v 0.13804284 0.07065674 -0.41604603
v 0.14789304 0.14689973 0.15909091
v 0.08728698 0.17720276 0.05303030
v 0.08728698 0.07114215 -0.41666667
v 0.13274152 0.16205125 -0.41666667
v 0.08728698 0.13174822 0.21969697
v 0.14789304 0.07114215 0.18939394
v 0.08422441 0.07018282 0.24861697
v 0.14789304 0.13174822 -0.41666667
v 0.10243850 0.17720276 0.05303030
v 0.08500895 0.16331948 -0.41298954
v 0.10243850 0.13174822 0.21969697
v 0.14789304 0.13174822 0.17424242
v 0.10243850 0.08629367 0.25000000
v 0.08091972 0.08255372 0.24579154
v 0.14789304 0.14689973 0.11363636
v 0.13274152 0.16205125 0.05303030
v 0.10243850 0.17720276 -0.41666667
v 0.14789304 0.08629367 0.18939394
f 9 5 2
f 9 8 1
f 9 2 8
f 10 2 5
f 10 5 6
f 10 8 2
f 10 3 8
f 11 4 7
f 13 11 7
f 13 3 11
f 14 8 3
f 14 3 13
f 15 9 1
f 15 13 7
f 15 14 13
f 15 1 8
f 16 7 4
f 16 4 12
f 16 12 5
f 16 5 9
f 16 15 7
f 16 9 15
f 17 10 6
f 17 6 3
f 17 3 10
f 18 11 3
f 18 3 6
f 18 6 11
f 19 6 5
f 19 5 12
f 19 11 6
f 19 12 4
f 19 4 11
f 20 15 8
f 20 8 14
f 20 14 15