# https://github.com/mikedh/trimesh
v -0.06422817 -0.09552451 0.41666666
v -0.03352224 -0.09138274 0.34081839
v -0.03286239 -0.07708033 0.46189291
v -0.05885908 -0.06015940 0.46212727
v -0.07797677 -0.06458248 0.34094380
v -0.03392514 -0.06522148 0.34090909
v -0.06422817 -0.08037300 0.46212121
v -0.03176401 -0.08645321 0.41028254
v -0.07937969 -0.09552451 0.34090909
v -0.07181923 -0.06031693 0.41062310
v -0.03785782 -0.07521561 0.46258121
v -0.07937969 -0.08037300 0.41666666
v -0.07937969 -0.09552451 0.35606060
f 6 4 3
f 6 2 5
f 7 1 3
f 8 1 2
f 8 3 1
f 8 6 3
f 8 2 6
f 9 5 2
f 9 2 1
f 10 6 5
f 10 4 6
f 11 7 3
f 11 3 4
f 11 4 7
f 12 1 7
f 12 7 4
f 12 4 10
f 12 10 5
f 12 5 9
f 13 12 9
f 13 9 1
f 13 1 12