# https://github.com/mikedh/trimesh
v -0.09453120 -0.09552451 -0.41666667
v -0.06423166 -0.00462174 -0.49198296
v -0.06365247 0.16588364 -0.41406873
v -0.09453120 0.17720276 -0.41666667
v -0.15513726 -0.09552451 -0.47727273
v -0.09453120 0.16205125 -0.50757576
v -0.15513726 0.07114215 -0.41666667
v -0.06422817 -0.00461542 -0.41666667
v -0.10968272 -0.09552451 -0.50757576
v -0.06422475 0.11662206 -0.49230661
v -0.09453120 0.17720276 -0.46212122
v -0.15513726 -0.09552451 -0.41666667
v -0.13998575 0.16205125 -0.41666667
v -0.06306744 0.16236877 -0.46030199
v -0.09453422 -0.09548019 -0.48960088
v -0.12309408 -0.09578444 -0.49261220
v -0.09453120 -0.06522148 -0.50757576
v -0.13998575 -0.00461542 -0.50757576
v -0.12483423 0.16205125 -0.49242425
v -0.13998575 -0.08037300 -0.50757576
v -0.15513726 0.08629367 -0.47727273
v -0.13998575 0.16205125 -0.44696970
v -0.10968272 0.16205125 -0.50757576
v -0.15513726 0.08629367 -0.44696970
v -0.13998575 0.14689973 -0.49242425
v -0.12483423 0.14689973 -0.50757576
f 8 1 2
f 8 3 1
f 11 4 3
f 12 1 3
f 12 3 7
f 12 7 5
f 13 7 3
f 13 3 4
f 13 4 11
f 14 8 2
f 14 3 8
f 14 2 10
f 14 10 6
f 14 11 3
f 14 6 11
f 15 2 1
f 16 5 9
f 16 12 5
f 16 1 12
f 16 15 1
f 16 9 15
f 17 9 6
f 17 15 9
f 17 2 15
f 17 10 2
f 17 6 10
f 18 6 9
f 20 18 9
f 20 9 5
f 20 5 18
f 21 18 5
f 21 5 7
f 22 13 11
f 22 11 19
f 22 21 13
f 23 19 11
f 23 11 6
f 23 6 18
f 24 21 7
f 24 7 13
f 24 13 21
f 25 22 19
f 25 21 22
f 25 19 23
f 25 18 21
f 26 25 23
f 26 23 18
f 26 18 25