# https://github.com/mikedh/trimesh
v -0.06422817 -0.09552451 -0.03787879
v -0.06422817 -0.09552451 -0.35606061
v -0.06422817 -0.00461542 -0.03787879
v -0.14450622 -0.00448985 -0.03735652
v -0.15513726 -0.09552451 -0.09848485
v -0.14109443 -0.00473912 -0.41710605
v -0.15513726 -0.09552451 -0.03787879
v -0.06422817 -0.00461542 -0.35606061
v -0.15513726 -0.08037300 -0.41666667
v -0.09453120 -0.09552451 -0.41666667
v -0.09453120 -0.00461542 -0.41666667
v -0.13951122 -0.09549456 -0.41668278
v -0.15513726 -0.09552451 -0.38636364
f 1 2 3
f 1 3 4
f 5 2 1
f 7 5 1
f 7 1 4
f 8 3 2
f 8 4 3
f 9 4 6
f 9 7 4
f 9 5 7
f 10 8 2
f 10 2 5
f 11 6 4
f 11 4 8
f 11 10 6
f 11 8 10
f 12 9 6
f 12 6 10
f 13 5 9
f 13 9 12
f 13 12 10
f 13 10 5