# https://github.com/mikedh/trimesh
v 0.01152940 0.07114215 -0.44696970
v 0.13274152 0.11659670 -0.50757576
v 0.08728698 0.17720276 -0.44696970
v -0.06422817 0.17720276 -0.47727273
v -0.09453120 0.11659670 -0.50757576
v 0.10243850 0.16205125 -0.50757576
v -0.06333623 0.16370157 -0.44608616
v 0.13458217 0.11696348 -0.46211610
v -0.06420420 0.07106762 -0.49097175
v 0.05698395 0.17720276 -0.47727273
v -0.09453120 0.16205125 -0.50757576
v 0.08728698 0.11659670 -0.44696970
v 0.01153152 0.07108179 -0.49025221
v 0.13274152 0.16205125 -0.46212122
v -0.04907666 0.10144519 -0.50757576
v -0.09453120 0.11659670 -0.46212122
v 0.08728698 0.17720276 -0.46212122
v -0.09405275 0.15883701 -0.46171362
v 0.13274152 0.16205125 -0.47727273
v 0.01152940 0.10144519 -0.50757576
v -0.06422817 0.07114215 -0.44696970
v 0.13274152 0.13174822 -0.50757576
f 6 2 5
f 7 3 4
f 10 6 4
f 10 4 3
f 11 6 5
f 11 4 6
f 12 7 1
f 12 3 7
f 12 8 3
f 12 1 8
f 13 8 1
f 13 2 8
f 13 1 9
f 14 3 8
f 15 9 5
f 15 5 2
f 16 5 9
f 16 11 5
f 17 10 3
f 17 6 10
f 17 3 14
f 18 7 4
f 18 4 11
f 18 16 7
f 18 11 16
f 19 14 8
f 19 17 14
f 19 6 17
f 20 13 9
f 20 9 15
f 20 15 2
f 20 2 13
f 21 16 9
f 21 9 1
f 21 1 7
f 21 7 16
f 22 19 8
f 22 8 2
f 22 2 6
f 22 6 19