# https://github.com/mikedh/trimesh
v 0.12344036 0.06217216 0.00709490
v 0.14566554 0.08148568 -0.46212121
v 0.13051403 0.09663720 -0.03787878
v 0.10021099 0.12694023 0.00757576
v 0.08599142 0.06792680 -0.49707716
v 0.11536251 0.12694023 -0.37121212
v 0.13051403 0.08148568 0.00757576
v 0.13194085 0.06092412 -0.45920224
v 0.08505948 0.06633417 0.00757576
v 0.13051403 0.11178871 -0.37121212
v 0.07906702 0.11742819 -0.47186101
v 0.11536251 0.11178871 0.00757576
v 0.14566554 0.06633417 -0.35606060
v 0.11536251 0.06633417 -0.50757575
v 0.14566554 0.08148568 -0.35606060
v 0.13051403 0.11178871 -0.43181818
v 0.10021099 0.12694023 -0.47727272
v 0.07874479 0.11574169 0.00688218
v 0.08015675 0.09082103 -0.49660690
v 0.13051403 0.06633417 -0.49242424
v 0.11536251 0.12694023 -0.43181818
v 0.13051403 0.09663720 -0.47727272
v 0.10021099 0.09663720 -0.50757575
v 0.13051403 0.08148568 -0.49242424
v 0.11536251 0.08148568 -0.50757575
f 9 7 4
f 9 1 7
f 9 8 1
f 9 5 8
f 10 6 4
f 12 7 3
f 12 4 7
f 12 10 4
f 12 3 10
f 13 7 1
f 13 8 2
f 13 1 8
f 14 8 5
f 15 10 3
f 15 2 10
f 15 13 2
f 15 3 7
f 15 7 13
f 16 10 2
f 16 6 10
f 17 11 4
f 17 4 6
f 18 9 4
f 18 4 11
f 19 5 9
f 19 18 11
f 19 9 18
f 20 2 8
f 20 8 14
f 21 17 6
f 21 6 16
f 21 16 17
f 22 17 16
f 22 16 2
f 23 19 11
f 23 11 17
f 23 14 5
f 23 5 19
f 23 17 22
f 24 22 2
f 24 2 20
f 24 23 22
f 24 20 14
f 25 24 14
f 25 14 23
f 25 23 24