# https://github.com/mikedh/trimesh
v -0.05130416 0.06633417 -0.28030303
v -0.00584961 0.09663720 -0.35606060
v -0.00582955 0.14185282 -0.31060256
v -0.08160719 0.14209174 -0.28030303
v -0.08160719 0.06633417 -0.35606060
v -0.08160719 0.14209174 -0.35606060
v -0.04862655 0.13332193 -0.28108392
v -0.00584961 0.09663720 -0.31060606
v -0.05130416 0.06633417 -0.35606060
v -0.08160719 0.06633417 -0.28030303
v -0.00475804 0.14508936 -0.36385211
v -0.00584961 0.15724326 -0.32575757
v -0.02100113 0.15724326 -0.35606060
v -0.02100113 0.15724326 -0.32575757
f 6 5 4
f 7 4 1
f 8 1 2
f 8 7 1
f 8 3 7
f 9 2 1
f 9 1 5
f 10 5 1
f 10 1 4
f 10 4 5
f 11 5 6
f 11 9 5
f 11 2 9
f 11 8 2
f 11 3 8
f 12 7 3
f 12 4 7
f 12 3 11
f 13 12 11
f 13 11 6
f 13 6 4
f 14 13 4
f 14 4 12
f 14 12 13