# https://github.com/mikedh/trimesh
v 0.08505948 0.06633417 -0.44696969
v 0.08599142 0.06792680 -0.49707716
v 0.05475645 0.15724326 -0.35606060
v -0.05130416 0.15724326 -0.35606060
v -0.06645567 0.06633417 -0.50757575
v 0.05475645 0.09663720 -0.35606060
v 0.08505948 0.09663720 -0.44696969
v 0.03960493 0.15724326 -0.47727272
v -0.06645567 0.06633417 -0.44696969
v 0.05475645 0.12694023 -0.50757575
v 0.05475645 0.15724326 -0.46212121
v -0.06645567 0.14209174 -0.49242424
v -0.06645567 0.09663720 -0.35606060
v 0.05475645 0.14209174 -0.49242424
v -0.05130416 0.15724326 -0.46212121
v -0.06645567 0.12694023 -0.50757575
v -0.06315152 0.13188095 -0.36449907
v 0.08015675 0.09082103 -0.49660690
v -0.03615264 0.15724326 -0.47727272
f 5 2 1
f 6 1 3
f 6 3 4
f 7 1 2
f 7 3 1
f 8 4 3
f 9 5 1
f 9 1 6
f 10 2 5
f 11 8 3
f 11 3 7
f 12 5 9
f 13 9 6
f 13 6 4
f 13 12 9
f 14 8 11
f 14 12 8
f 14 10 12
f 15 12 4
f 15 4 8
f 16 12 10
f 16 10 5
f 16 5 12
f 17 13 4
f 17 4 12
f 17 12 13
f 18 2 10
f 18 10 14
f 18 7 2
f 18 14 11
f 18 11 7
f 19 15 8
f 19 8 12
f 19 12 15