# https://github.com/mikedh/trimesh
v 0.00930190 -0.14578704 0.09848485
v 0.10718344 -0.09157739 -0.05089796
v 0.08186234 -0.08214583 0.12638748
v -0.08733829 -0.07866772 0.12292015
v -0.09675870 -0.13063553 -0.15909091
v -0.11670034 -0.07843833 -0.15750706
v -0.05130416 -0.13063553 0.12878788
v 0.08505948 -0.13063553 0.05303031
v 0.06990796 -0.08518098 -0.09848484
v -0.11191022 -0.10033250 0.09848485
v 0.03960493 -0.13063553 0.12878788
v -0.09675870 -0.10033250 0.12878788
v -0.06645567 -0.14578704 -0.05303030
v 0.08505948 -0.11548401 0.11363637
v 0.06990796 -0.14578704 -0.09848484
v -0.05130416 -0.08518098 -0.15909091
v -0.12706173 -0.10033250 -0.15909091
v -0.10201516 -0.07867950 0.09509339
v 0.06990796 -0.13063553 0.11363637
v -0.08160719 -0.13063553 0.08333334
v 0.08505948 -0.10033250 0.12878788
v 0.10449590 -0.08976302 0.00784497
v -0.06645567 -0.14578704 -0.09848484
v -0.05214881 -0.13267687 -0.15875402
v -0.12706173 -0.10033250 -0.05303030
v 0.03960493 -0.14578704 0.06818182
v -0.09675870 -0.11548401 0.09848485
v -0.09675870 -0.13063553 -0.05303030
v -0.03615264 -0.14578704 0.08333334
v 0.06990796 -0.11548401 0.12878788
v -0.12000526 -0.08089006 -0.05950710
v 0.06990796 -0.14578704 -0.05303030
v -0.06645567 -0.13063553 0.11363637
v -0.05130416 -0.14578704 0.02272728
v -0.00584961 -0.14578704 0.09848485
v -0.08160719 -0.11548401 0.12878788
f 6 4 3
f 9 6 3
f 9 3 2
f 11 7 1
f 12 3 4
f 12 7 11
f 15 2 8
f 15 9 2
f 15 1 13
f 16 6 9
f 16 9 15
f 17 16 5
f 17 6 16
f 18 4 6
f 18 12 4
f 18 10 12
f 19 11 1
f 19 8 14
f 21 12 11
f 21 3 12
f 21 19 14
f 22 14 8
f 22 8 2
f 22 21 14
f 22 2 3
f 22 3 21
f 23 15 13
f 23 13 5
f 24 16 15
f 24 5 16
f 24 23 5
f 24 15 23
f 25 17 5
f 26 19 1
f 26 1 15
f 27 12 10
f 28 5 13
f 28 13 20
f 28 25 5
f 28 20 27
f 28 27 10
f 28 10 25
f 29 13 1
f 30 21 11
f 30 11 19
f 30 19 21
f 31 25 10
f 31 10 18
f 31 18 6
f 31 6 17
f 31 17 25
f 32 26 15
f 32 15 8
f 32 8 19
f 32 19 26
f 33 27 20
f 33 29 7
f 33 20 29
f 34 29 20
f 34 20 13
f 34 13 29
f 35 29 1
f 35 1 7
f 35 7 29
f 36 33 7
f 36 7 12
f 36 12 27
f 36 27 33