# https://github.com/mikedh/trimesh
v -0.08160719 0.06633417 -0.09848484
v -0.08160719 0.06633417 -0.35606060
v -0.07721919 0.11863942 -0.09752594
v -0.09675870 0.12694023 -0.09848484
v -0.12591297 0.06573447 -0.09838864
v -0.07871311 0.12151502 -0.36186836
v -0.12421300 0.06498654 -0.35792106
v -0.12706173 0.09663720 -0.09848484
v -0.12561713 0.06556807 -0.11369945
v -0.12706173 0.09663720 -0.35606060
v -0.09675870 0.12694023 -0.35606060
f 1 2 3
f 5 1 3
f 6 3 2
f 6 4 3
f 7 2 1
f 7 6 2
f 8 5 3
f 8 3 4
f 9 7 1
f 9 1 5
f 9 5 7
f 10 7 5
f 10 5 8
f 10 6 7
f 10 8 4
f 11 10 4
f 11 4 6
f 11 6 10