# https://github.com/mikedh/trimesh
v -0.05276273 -0.08824002 0.14630152
v -0.05130416 -0.08518098 0.00757576
v -0.04747330 0.12806549 0.03728199
v -0.06645567 0.14209174 0.03787879
v -0.15736476 -0.03972644 -0.06818181
v -0.05521041 0.08671619 0.14912491
v -0.14221325 -0.08518098 -0.06818181
v -0.06540439 0.12490941 -0.09821148
v -0.14221325 -0.02457492 0.11363637
v -0.10797131 -0.09330338 -0.09851483
v -0.14221325 0.08148568 -0.08333333
v -0.06645567 0.14209174 -0.08333333
v -0.04771634 0.12937511 0.00705709
v -0.12706173 -0.02457492 0.14393940
v -0.11191022 -0.08518098 0.12878788
v -0.14221325 -0.05487795 0.05303031
v -0.12706173 0.05118265 0.12878788
v -0.06645567 -0.00942341 -0.09848484
v -0.14221325 -0.07002947 -0.09848484
v -0.15736476 0.03603114 -0.05303030
v -0.08160719 0.14209174 -0.08333333
v -0.11191022 -0.07002947 0.14393940
v -0.12706173 -0.08518098 0.08333334
v -0.15736476 -0.03972644 -0.05303030
v -0.08160719 0.12694023 0.05303031
v -0.12706173 0.03603114 0.14393940
v -0.15736476 0.02087962 -0.09848484
v -0.14221325 0.05118265 0.08333334
v -0.09675870 0.12694023 -0.09848484
v -0.09675870 -0.08518098 0.14393940
v -0.12706173 -0.05487795 0.12878788
v -0.14221325 -0.08518098 -0.05303030
v -0.14221325 -0.03972644 0.09848485
v -0.11191022 0.11178871 0.03787879
v -0.15736476 -0.00942341 -0.09848484
v -0.15736476 0.03603114 -0.08333333
v -0.14221325 0.08148568 -0.05303030
v -0.14221325 0.02087962 0.11363637
v -0.12706173 0.09663720 -0.09848484
v -0.12706173 -0.07002947 0.11363637
v -0.09675870 0.12694023 0.02272728
v -0.14221325 0.06633417 0.02272728
v -0.08160719 0.14209174 -0.05303030
f 1 2 3
f 6 1 3
f 6 3 4
f 10 2 1
f 13 3 2
f 13 8 12
f 13 12 4
f 13 4 3
f 15 10 1
f 18 2 10
f 18 13 2
f 18 8 13
f 19 10 7
f 19 7 5
f 21 4 12
f 22 1 6
f 22 6 14
f 23 10 15
f 24 5 7
f 24 20 5
f 24 9 20
f 25 17 6
f 25 6 4
f 26 14 6
f 26 6 17
f 26 9 14
f 27 5 20
f 29 21 12
f 29 12 8
f 29 11 21
f 29 8 18
f 29 18 10
f 30 22 15
f 30 15 1
f 30 1 22
f 31 22 14
f 31 14 9
f 32 7 10
f 32 10 23
f 32 23 16
f 32 24 7
f 32 16 24
f 33 16 23
f 33 24 16
f 33 9 24
f 34 28 17
f 34 17 25
f 35 19 5
f 35 5 27
f 35 27 10
f 35 10 19
f 36 27 20
f 36 20 11
f 36 11 27
f 37 11 20
f 37 21 11
f 38 28 20
f 38 20 9
f 38 9 26
f 38 26 17
f 38 17 28
f 39 27 11
f 39 11 29
f 39 29 10
f 39 10 27
f 40 23 15
f 40 15 22
f 40 22 31
f 40 33 23
f 40 31 9
f 40 9 33
f 41 34 25
f 41 25 4
f 42 37 20
f 42 20 28
f 42 28 34
f 42 34 37
f 43 41 4
f 43 4 21
f 43 34 41
f 43 37 34
f 43 21 37