# https://github.com/mikedh/trimesh
v 0.03960493 -0.16093856 -0.37121212
v 0.10021099 -0.13063553 -0.47727272
v 0.10033636 -0.10044468 -0.35592552
v -0.06645567 -0.10033250 -0.35606060
v -0.03615264 -0.16093856 -0.44696969
v 0.09338900 -0.09314550 -0.48492399
v -0.00584961 -0.16093856 -0.35606060
v 0.10021099 -0.13063553 -0.35606060
v 0.03960493 -0.16093856 -0.43181818
v 0.10021099 -0.11548401 -0.49242424
v -0.06645567 -0.10033250 -0.44696969
v -0.06645567 -0.14578704 -0.35606060
v 0.08505948 -0.14578704 -0.37121212
v 0.06990796 -0.14578704 -0.35606060
v 0.06990796 -0.14578704 -0.47727272
v 0.08505948 -0.11548401 -0.50757575
v -0.03615264 -0.16093856 -0.37121212
v -0.06156525 -0.13444697 -0.44474305
v 0.00930190 -0.16093856 -0.35606060
v 0.02445342 -0.16093856 -0.44696969
v 0.08505948 -0.14578704 -0.44696969
v 0.05475645 -0.14578704 -0.47727272
v 0.08505948 -0.13063553 -0.49242424
v 0.08505948 -0.10033250 -0.50757575
v 0.05117940 -0.11047822 -0.49516243
v 0.05330716 -0.09990818 -0.49676041
f 6 4 3
f 7 5 1
f 8 2 3
f 9 1 5
f 10 6 3
f 10 3 2
f 11 4 6
f 12 7 3
f 12 3 4
f 12 4 11
f 13 2 8
f 13 1 9
f 14 13 8
f 14 1 13
f 14 8 3
f 16 10 2
f 17 12 5
f 17 5 7
f 17 7 12
f 18 12 11
f 18 5 12
f 18 16 5
f 19 7 1
f 19 1 14
f 19 14 3
f 19 3 7
f 20 15 9
f 20 9 5
f 20 5 15
f 21 13 9
f 21 9 15
f 21 15 2
f 21 2 13
f 22 15 5
f 22 5 16
f 23 16 2
f 23 2 15
f 23 22 16
f 23 15 22
f 24 6 10
f 24 10 16
f 25 18 11
f 25 16 18
f 26 11 6
f 26 6 24
f 26 25 11
f 26 24 16
f 26 16 25