# https://github.com/mikedh/trimesh
v 0.00930190 -0.08518098 0.50757576
v 0.00930190 -0.08518098 0.21969697
v 0.00840858 0.07247082 0.49672517
v -0.05130416 0.08148568 0.50757576
v -0.08160719 -0.05487795 0.49242425
v -0.03615264 0.08148568 0.21969697
v -0.05130416 -0.08518098 0.46212122
v -0.08160719 -0.03972644 0.50757576
v 0.00817900 0.07238069 0.21960017
v -0.08160719 -0.03972644 0.21969697
v -0.03615264 -0.08518098 0.50757576
v -0.08160719 0.05118265 0.40151516
v -0.08160719 -0.05487795 0.40151516
v -0.05130416 -0.07002947 0.21969697
v -0.08160719 0.03603114 0.21969697
v -0.06645567 -0.07002947 0.49242425
v -0.08160719 0.05118265 0.50757576
v -0.06645567 0.06633417 0.21969697
v -0.00584961 -0.08518098 0.21969697
v -0.05130416 -0.08518098 0.40151516
v -0.05130416 0.08148568 0.40151516
f 1 2 3
f 1 3 4
f 6 4 3
f 7 2 1
f 8 1 4
f 9 6 3
f 9 3 2
f 10 5 8
f 11 7 1
f 11 1 8
f 12 10 8
f 13 5 10
f 14 13 10
f 14 10 9
f 15 9 10
f 15 10 12
f 16 7 11
f 16 5 13
f 16 11 8
f 16 8 5
f 17 12 8
f 17 8 4
f 17 4 12
f 18 12 4
f 18 15 12
f 18 6 9
f 18 9 15
f 19 2 7
f 19 14 9
f 19 9 2
f 20 13 14
f 20 16 13
f 20 7 16
f 20 19 7
f 20 14 19
f 21 18 4
f 21 4 6
f 21 6 18