# https://github.com/mikedh/trimesh
v -0.08160719 -0.08518098 -0.09848484
v -0.08160719 -0.08518098 -0.35606060
v -0.08160719 -0.00942341 -0.35606060
v -0.13964334 -0.00949681 -0.09843715
v -0.14221325 -0.07002947 -0.09848484
v -0.08160719 -0.00942341 -0.09848484
v -0.12055200 -0.08142550 -0.36174699
v -0.11759278 -0.07991201 -0.09766185
v -0.13918020 -0.00932388 -0.35887531
v -0.13105909 -0.06412012 -0.36414414
f 1 2 3
f 6 1 3
f 7 2 1
f 8 4 5
f 8 6 4
f 8 1 6
f 8 7 1
f 8 5 7
f 9 6 3
f 9 4 6
f 9 5 4
f 10 3 2
f 10 2 7
f 10 9 3
f 10 7 5
f 10 5 9