# https://github.com/mikedh/trimesh
v -0.10441825 -0.09193157 -0.35461862
v -0.06645567 -0.08518098 -0.50757575
v -0.06645567 -0.00942341 -0.35606060
v -0.08160719 0.14209174 -0.35606060
v -0.15736476 0.02087962 -0.47727272
v -0.06255166 0.10612416 -0.49469968
v -0.06645567 -0.08518098 -0.44696969
v -0.14221325 -0.08518098 -0.46212121
v -0.15736476 0.03603114 -0.35606060
v -0.06315152 0.13188095 -0.36449907
v -0.11191022 0.11178871 -0.49242424
v -0.12706173 -0.07002947 -0.50757575
v -0.11191022 -0.08518098 -0.50757575
v -0.11191022 0.12694023 -0.35606060
v -0.14221325 -0.08518098 -0.35606060
v -0.06645567 0.14209174 -0.47727272
v -0.14221325 0.08148568 -0.47727272
v -0.15736476 -0.02457492 -0.47727272
v -0.12706173 0.06633417 -0.50757575
v -0.12706173 -0.08518098 -0.49242424
v -0.14221325 0.08148568 -0.35606060
v -0.15736476 -0.03972644 -0.35606060
v -0.08160719 0.11178871 -0.50757575
v -0.08160719 0.14209174 -0.47727272
v -0.15736476 0.05118265 -0.44696969
v -0.12706173 0.11178871 -0.44696969
v -0.14221325 -0.05487795 -0.49242424
v -0.14221325 0.06633417 -0.49242424
v -0.15736476 -0.05487795 -0.44696969
v -0.15736476 0.05118265 -0.37121212
v -0.11191022 0.12694023 -0.44696969
v -0.12706173 0.11178871 -0.37121212
v -0.15736476 -0.05487795 -0.37121212
f 1 3 4
f 7 1 2
f 7 3 1
f 7 2 6
f 10 4 3
f 10 7 6
f 10 3 7
f 13 2 1
f 13 12 2
f 14 1 4
f 15 8 1
f 16 10 6
f 16 4 10
f 18 9 5
f 19 2 12
f 20 13 1
f 20 1 8
f 20 12 13
f 21 9 1
f 21 1 14
f 22 15 1
f 22 1 9
f 22 9 18
f 23 16 6
f 23 19 11
f 23 6 2
f 23 2 19
f 24 14 4
f 24 4 16
f 24 23 11
f 24 16 23
f 25 17 5
f 25 5 9
f 25 21 17
f 26 11 17
f 26 17 21
f 27 8 18
f 27 20 8
f 27 12 20
f 27 18 5
f 27 19 12
f 28 17 11
f 28 11 19
f 28 5 17
f 28 27 5
f 28 19 27
f 29 22 18
f 29 18 8
f 29 8 15
f 30 25 9
f 30 9 21
f 30 21 25
f 31 24 11
f 31 11 26
f 31 26 14
f 31 14 24
f 32 26 21
f 32 21 14
f 32 14 26
f 33 29 15
f 33 15 22
f 33 22 29