# https://github.com/mikedh/trimesh
v 0.00930190 -0.10033250 -0.35606060
v 0.00930190 -0.10033250 -0.44696969
v 0.00930190 -0.00942341 -0.44696969
v -0.09675870 -0.00942341 -0.35606060
v -0.10441825 -0.09193157 -0.35461862
v 0.00930190 -0.00942341 -0.35606060
v -0.06645567 -0.10033250 -0.44696969
v -0.06645567 -0.10033250 -0.35606060
v -0.09675870 -0.00942341 -0.44696969
v -0.09675870 -0.08518098 -0.44696969
f 1 2 3
f 6 1 3
f 6 3 4
f 6 5 1
f 6 4 5
f 7 2 1
f 7 3 2
f 8 7 1
f 8 1 5
f 8 5 7
f 9 5 4
f 9 4 3
f 9 3 7
f 10 9 7
f 10 7 5
f 10 5 9