# https://github.com/mikedh/trimesh
v 0.06990796 -0.14578704 -0.09848484
v 0.10021099 -0.13063553 -0.35606060
v 0.10021099 -0.00942341 -0.09848484
v -0.08160719 -0.00942341 -0.09848484
v -0.06645567 -0.14578704 -0.35606060
v -0.08160719 -0.00942341 -0.35606060
v 0.10718344 -0.09157739 -0.05089796
v 0.06990796 -0.14578704 -0.35606060
v -0.06645567 -0.14578704 -0.09848484
v 0.10021099 -0.00942341 -0.35606060
v -0.07756107 -0.12322078 -0.36251964
v 0.06990796 -0.08518098 -0.05303030
v 0.10021099 -0.13063553 -0.05303030
v -0.08160719 -0.08518098 -0.09848484
v 0.06782105 -0.12546260 -0.05543104
v -0.07493933 -0.11979220 -0.15958998
f 6 4 3
f 8 2 1
f 8 1 5
f 9 5 1
f 10 6 3
f 10 7 2
f 10 3 7
f 11 5 9
f 11 8 5
f 11 2 8
f 11 10 2
f 11 6 10
f 12 7 3
f 12 3 4
f 13 1 2
f 13 2 7
f 13 9 1
f 13 7 12
f 14 4 6
f 14 6 11
f 14 12 4
f 15 13 12
f 15 9 13
f 15 14 9
f 15 12 14
f 16 14 11
f 16 11 9
f 16 9 14