# https://github.com/mikedh/trimesh
v 0.05475645 -0.14578704 -0.49242424
v 0.16081706 -0.02457492 -0.46212121
v 0.00923311 -0.14478705 -0.44672161
v 0.14340809 0.03551006 -0.44661124
v 0.13051403 -0.00942341 -0.50757575
v 0.13051403 -0.10033250 -0.44696969
v 0.16081706 0.03603114 -0.46212121
v -0.06633090 -0.00959324 -0.48494708
v 0.16081706 -0.02457492 -0.44696969
v 0.13244030 -0.06471762 -0.44460436
v 0.11536251 -0.11548401 -0.44696969
v 0.13051403 -0.08518098 -0.49242424
v 0.14566554 -0.00942341 -0.49242424
v -0.06645567 -0.11548401 -0.50757575
v -0.06645567 -0.00942341 -0.44696969
v 0.14061068 0.03468371 -0.46108706
v 0.14566554 -0.07002947 -0.47727272
v 0.16081706 0.03603114 -0.44696969
v -0.06156525 -0.13444697 -0.44474305
v 0.10021099 -0.10033250 -0.50757575
v 0.11536251 -0.11548401 -0.47727272
v 0.14566554 -0.05487795 -0.49242424
v -0.06645567 -0.08518098 -0.50757575
v -0.06645567 -0.14578704 -0.47727272
v 0.05475645 -0.13063553 -0.50757575
v 0.13051403 -0.10033250 -0.47727272
v 0.13051403 -0.05487795 -0.50757575
v -0.05130416 -0.14578704 -0.49242424
v 0.11536251 -0.08518098 -0.50757575
v -0.05130416 -0.13063553 -0.50757575
f 8 7 5
f 9 2 7
f 10 6 9
f 11 3 1
f 11 6 10
f 13 7 2
f 13 5 7
f 15 4 8
f 15 10 4
f 16 8 4
f 16 4 7
f 16 7 8
f 17 9 6
f 17 2 9
f 18 9 7
f 18 7 4
f 18 10 9
f 18 4 10
f 19 11 10
f 19 3 11
f 19 10 15
f 20 14 5
f 21 11 1
f 21 1 20
f 21 6 11
f 22 5 13
f 22 17 12
f 22 13 2
f 22 2 17
f 23 8 5
f 23 5 14
f 23 15 8
f 23 14 15
f 24 19 15
f 24 15 14
f 24 1 3
f 24 3 19
f 25 20 1
f 25 14 20
f 26 17 6
f 26 6 21
f 26 12 17
f 26 21 20
f 26 20 12
f 27 20 5
f 27 5 22
f 27 22 12
f 28 25 1
f 28 1 24
f 29 27 12
f 29 12 20
f 29 20 27
f 30 14 25
f 30 25 28
f 30 28 24
f 30 24 14