# https://github.com/mikedh/trimesh
v 0.08505948 0.06633417 -0.03787878
v 0.08505948 0.06633417 -0.44696969
v 0.09402010 0.10597657 -0.03700523
v -0.06645567 0.09663720 -0.03787878
v -0.08160719 0.06633417 -0.09848484
v -0.06645567 0.09663720 -0.44696969
v -0.06645567 0.06633417 -0.03787878
v 0.08505948 0.09663720 -0.44696969
v -0.08160719 0.09663720 -0.09848484
v -0.06645567 0.06633417 -0.44696969
v -0.08160719 0.09663720 -0.28030303
v -0.08160719 0.06633417 -0.28030303
f 1 2 3
f 5 2 1
f 7 1 3
f 7 3 4
f 7 5 1
f 7 4 5
f 8 6 3
f 8 3 2
f 8 2 6
f 9 4 3
f 9 5 4
f 10 6 2
f 10 2 5
f 11 9 3
f 11 3 6
f 11 5 9
f 11 6 10
f 12 11 10
f 12 10 5
f 12 5 11