# https://github.com/mikedh/trimesh
v 0.05475645 0.09663720 -0.11363636
v 0.05475645 0.09663720 -0.35606060
v 0.03960493 0.15724326 -0.29545454
v -0.06645567 0.14209174 -0.09848484
v -0.08160719 0.09663720 -0.09848484
v 0.02445342 0.15724326 -0.12878788
v 0.05256783 0.13544778 -0.36047144
v -0.00584961 0.09663720 -0.09848484
v 0.05068484 0.13153382 -0.11413133
v -0.08160719 0.14209174 -0.28030303
v -0.07721919 0.11863942 -0.09752594
v -0.00574312 0.14047685 -0.09840560
v -0.00584961 0.15724326 -0.14393939
v -0.00475804 0.14508936 -0.36385211
v -0.08160719 0.09663720 -0.28030303
v -0.08160719 0.14209174 -0.26515151
v 0.03960493 0.15724326 -0.34090909
v 0.00930190 0.15724326 -0.12878788
v 0.02252241 0.14410237 -0.36333407
v -0.00584961 0.09663720 -0.35606060
f 5 2 1
f 7 1 2
f 8 5 1
f 9 3 6
f 9 7 3
f 9 1 7
f 11 5 8
f 12 9 6
f 12 6 4
f 12 8 1
f 12 1 9
f 12 11 8
f 12 4 11
f 13 6 3
f 15 2 5
f 15 5 10
f 15 10 14
f 16 10 5
f 16 5 11
f 16 11 4
f 16 13 10
f 16 4 13
f 17 13 3
f 17 10 13
f 17 14 10
f 17 3 7
f 18 13 4
f 18 4 6
f 18 6 13
f 19 7 2
f 19 2 14
f 19 17 7
f 19 14 17
f 20 15 14
f 20 14 2
f 20 2 15