# https://github.com/mikedh/trimesh
v 0.08505948 0.06633417 0.00757576
v 0.09402010 0.10597657 -0.03700523
v 0.05054275 0.13080690 0.00719129
v -0.06645567 0.14209174 0.00757576
v -0.06645567 0.06633417 -0.03787878
v 0.05165859 0.13224422 -0.03838289
v 0.09265838 0.10425429 0.00823241
v 0.08505948 0.06633417 -0.03787878
v -0.06645567 0.06633417 0.00757576
v -0.06645567 0.14209174 -0.03787878
f 6 3 2
f 6 4 3
f 7 3 4
f 7 1 2
f 7 2 3
f 8 2 1
f 8 1 5
f 8 6 2
f 8 5 6
f 9 5 1
f 9 4 5
f 9 7 4
f 9 1 7
f 10 6 5
f 10 5 4
f 10 4 6