# https://github.com/mikedh/trimesh
v 0.07700485 -0.07790169 0.13720018
v 0.08505948 -0.08518098 0.00757576
v 0.09725753 0.09000612 0.08537371
v 0.00930190 0.08148568 0.14393940
v -0.05130416 -0.08518098 0.00757576
v 0.07861969 0.07634483 0.13915759
v -0.05276273 -0.08824002 0.14630152
v 0.00930190 0.08148568 0.00757576
v 0.08505948 0.08148568 0.00757576
v -0.05130416 0.05118265 0.14393940
v -0.05130416 0.05118265 0.00757576
f 1 2 3
f 6 1 3
f 6 3 4
f 7 5 2
f 7 2 1
f 7 6 4
f 7 1 6
f 8 2 5
f 8 4 3
f 9 8 3
f 9 3 2
f 9 2 8
f 10 7 4
f 10 4 8
f 11 10 8
f 11 8 5
f 11 5 7
f 11 7 10