# https://github.com/mikedh/trimesh
v 0.10021099 -0.11548401 0.09848485
v 0.14566554 -0.05487795 0.00757576
v 0.14566554 -0.02457492 0.09848485
v 0.10021099 0.11178871 0.11363637
v 0.08481375 0.11148631 0.00756022
v 0.14566554 0.05118265 0.00757576
v 0.13051403 -0.03972644 0.12878788
v 0.13051403 -0.07002947 0.11363637
v 0.08070572 -0.11048253 0.00734270
v 0.13051403 0.06633417 0.11363637
v 0.13051403 0.08148568 0.00757576
v 0.08505948 -0.10033250 0.12878788
v 0.13051403 -0.08518098 0.05303031
v 0.14566554 -0.03972644 0.08333334
v 0.09262623 0.10439127 0.00698490
v 0.14566554 0.03603114 0.08333334
v 0.13051403 0.05118265 0.12878788
v 0.13051403 0.08148568 0.08333334
v 0.10021099 -0.10033250 0.12878788
v 0.07710053 -0.10367939 0.09473248
v 0.11536251 -0.10033250 0.09848485
v 0.13051403 -0.08518098 0.00757576
v 0.14566554 -0.05487795 0.03787879
v 0.09270982 -0.10272190 0.00717894
v 0.14566554 0.02087962 0.09848485
v 0.11536251 0.08148568 0.12878788
v 0.14566554 0.05118265 0.05303031
v 0.11536251 0.09663720 0.11363637
v 0.07744325 0.10038411 0.10824714
v 0.07838385 0.08981653 0.12368740
v 0.10021099 0.09663720 0.12878788
f 6 3 2
f 8 3 7
f 11 5 4
f 14 2 3
f 14 3 8
f 15 6 2
f 15 11 6
f 15 9 5
f 15 5 11
f 16 3 6
f 17 7 3
f 17 12 7
f 18 6 11
f 18 10 16
f 18 11 4
f 19 8 7
f 19 7 12
f 19 12 1
f 20 9 1
f 20 1 12
f 21 13 8
f 21 1 13
f 21 19 1
f 21 8 19
f 22 2 13
f 22 13 1
f 22 1 9
f 23 13 2
f 23 2 14
f 23 14 8
f 23 8 13
f 24 15 2
f 24 9 15
f 24 22 9
f 24 2 22
f 25 17 3
f 25 3 16
f 25 16 10
f 25 10 17
f 26 17 10
f 26 12 17
f 27 18 16
f 27 16 6
f 27 6 18
f 28 18 4
f 28 10 18
f 28 26 10
f 28 4 26
f 29 5 9
f 29 9 20
f 29 4 5
f 30 29 20
f 30 20 12
f 30 4 29
f 31 30 12
f 31 12 26
f 31 26 4
f 31 4 30