# https://github.com/mikedh/trimesh
v -0.09675870 -0.13063553 -0.15909091
v -0.06645567 -0.11548401 -0.50757575
v -0.08160719 -0.08518098 -0.15909091
v -0.11176439 -0.08506759 -0.15906407
v -0.12706173 -0.10033250 -0.47727272
v -0.06645567 -0.14578704 -0.35606060
v -0.12706173 -0.10033250 -0.21969697
v -0.06645567 -0.08518098 -0.50757575
v -0.07493933 -0.11979220 -0.15958998
v -0.08160719 -0.14578704 -0.46212121
v -0.11191022 -0.11548401 -0.15909091
v -0.11750218 -0.07871665 -0.47028625
v -0.11191022 -0.10033250 -0.49242424
v -0.06645567 -0.08518098 -0.35606060
v -0.06645567 -0.14578704 -0.46212121
v -0.08160719 -0.14578704 -0.35606060
v -0.11683623 -0.07821979 -0.22000873
v -0.08160719 -0.08518098 -0.50757575
v -0.10470613 -0.08064112 -0.48480071
v -0.08160719 -0.13063553 -0.49242424
v -0.08160719 -0.11548401 -0.50757575
v -0.09675870 -0.13063553 -0.47727272
v -0.06645567 -0.13063553 -0.49242424
f 1 3 4
f 7 5 1
f 8 6 2
f 9 3 1
f 9 1 6
f 11 7 1
f 11 1 4
f 11 4 7
f 12 5 7
f 14 3 9
f 14 9 6
f 14 6 8
f 15 2 6
f 15 6 10
f 16 10 6
f 16 6 1
f 16 1 10
f 17 12 7
f 17 7 4
f 17 4 3
f 17 3 14
f 17 14 8
f 17 8 12
f 18 8 2
f 19 13 5
f 19 5 12
f 19 18 13
f 19 12 8
f 19 8 18
f 20 5 13
f 20 15 10
f 21 18 2
f 21 13 18
f 21 20 13
f 21 2 20
f 22 20 10
f 22 5 20
f 22 10 1
f 22 1 5
f 23 20 2
f 23 2 15
f 23 15 20