# https://github.com/mikedh/trimesh
v 0.05475645 0.09663720 -0.03787878
v 0.09285107 0.10745775 -0.11368032
v 0.03960493 0.15724326 -0.03787878
v -0.03615264 0.15724326 -0.05303030
v -0.06645567 0.09663720 -0.09848484
v 0.06990796 0.14209174 -0.11363636
v -0.06645567 0.09663720 -0.03787878
v 0.09237547 0.10764283 -0.09829662
v -0.00584961 0.09663720 -0.11363636
v 0.03960493 0.15724326 -0.08333333
v -0.06645567 0.14209174 -0.09848484
v -0.06645567 0.14209174 -0.03787878
v 0.05165859 0.13224422 -0.03838289
v 0.06990796 0.14209174 -0.09848484
v -0.00576774 0.14052517 -0.11368081
v -0.03615264 0.15724326 -0.08333333
v -0.00584961 0.15724326 -0.03787878
v 0.07910559 0.11758098 -0.11374245
f 7 1 3
f 7 5 1
f 8 1 2
f 9 2 1
f 9 1 5
f 10 4 3
f 10 3 6
f 11 5 7
f 12 7 3
f 12 11 7
f 12 4 11
f 13 8 3
f 13 3 1
f 13 1 8
f 14 6 3
f 14 3 8
f 14 8 2
f 14 2 6
f 15 9 5
f 15 5 11
f 16 11 4
f 16 4 10
f 16 15 11
f 16 10 6
f 16 6 15
f 17 12 3
f 17 3 4
f 17 4 12
f 18 15 6
f 18 6 2
f 18 2 9
f 18 9 15