# https://github.com/mikedh/trimesh
v 0.03960493 -0.11548401 0.15909091
v 0.08505948 -0.10033250 0.12878788
v 0.02355034 -0.06662799 0.21963957
v -0.07409429 -0.06435396 0.15170747
v -0.06645567 -0.11548401 0.12878788
v 0.06188386 -0.06288217 0.16702525
v 0.02445342 -0.08518098 0.21969697
v 0.05475645 -0.11548401 0.14393940
v -0.07401952 -0.09084138 0.12246793
v -0.02051428 -0.06726343 0.21952621
v -0.03615264 -0.11548401 0.15909091
v 0.06990796 -0.08518098 0.17424243
v 0.05009228 -0.10509487 0.12335358
v -0.08160719 -0.10033250 0.14393940
v 0.08186234 -0.08214583 0.12638748
v -0.02100113 -0.08518098 0.21969697
v 0.08505948 -0.10033250 0.14393940
v -0.08000386 -0.06848456 0.14235277
v -0.08160719 -0.08518098 0.15909091
v -0.06645567 -0.11548401 0.14393940
v 0.07232315 -0.07273054 0.14694276
v 0.06990796 -0.10033250 0.15909091
v -0.07990381 -0.08316355 0.12722952
f 8 1 5
f 10 6 4
f 10 3 6
f 11 5 1
f 11 1 7
f 12 6 3
f 12 3 7
f 13 8 5
f 13 2 8
f 13 5 9
f 14 9 5
f 15 13 9
f 15 2 13
f 15 4 6
f 16 7 3
f 16 3 10
f 16 11 7
f 17 8 2
f 17 2 15
f 18 4 15
f 19 10 4
f 19 18 14
f 19 4 18
f 19 16 10
f 20 14 5
f 20 5 11
f 20 11 16
f 20 19 14
f 20 16 19
f 21 15 6
f 21 6 12
f 21 17 15
f 21 12 17
f 22 7 1
f 22 1 8
f 22 8 17
f 22 17 12
f 22 12 7
f 23 9 14
f 23 14 18
f 23 18 15
f 23 15 9