# https://github.com/mikedh/trimesh
v 0.09265838 0.10425429 0.00823241
v 0.08505948 0.11178871 -0.50757575
v 0.08505948 0.14209174 -0.47727272
v 0.06990796 0.14209174 0.00757576
v 0.05475645 0.09663720 0.00757576
v 0.08505948 0.14209174 -0.05303030
v 0.08015675 0.09082103 -0.49660690
v 0.05475645 0.14209174 -0.49242424
v 0.05054275 0.13080690 0.00719129
v 0.05541078 0.09699706 -0.49914598
v 0.06990796 0.14209174 -0.49242424
v 0.05475645 0.12694023 -0.50757575
v 0.06990796 0.12694023 -0.50757575
f 1 2 3
f 5 1 4
f 6 1 3
f 6 3 4
f 6 4 1
f 7 2 1
f 7 1 5
f 8 4 3
f 9 5 4
f 9 4 8
f 10 7 5
f 10 5 9
f 10 2 7
f 11 8 3
f 11 3 2
f 12 10 9
f 12 9 8
f 12 2 10
f 12 8 11
f 13 12 11
f 13 11 2
f 13 2 12