# https://github.com/mikedh/trimesh
v 0.06990796 -0.05487795 0.50757576
v 0.08505948 -0.02457492 0.21969697
v 0.08505948 0.03603114 0.50757576
v 0.03960493 0.08148568 0.50757576
v 0.00951764 -0.07255545 0.18994042
v 0.03960493 0.08148568 0.21969697
v 0.08505948 -0.03972644 0.49242425
v 0.05475645 -0.07002947 0.34090909
v 0.00934160 -0.05532007 0.49976957
v 0.08505948 0.02087962 0.21969697
v 0.05475645 0.08148568 0.49242425
v 0.08505948 -0.02457492 0.50757576
v 0.04769277 -0.06181310 0.18361572
v 0.08505948 -0.03972644 0.40151516
v 0.00817900 0.07238069 0.21960017
v 0.00924794 -0.06958541 0.34089897
v 0.06990796 0.06633417 0.50757576
v 0.06115232 -0.04868073 0.18349368
v 0.00930190 -0.00942341 0.18939394
v 0.00840858 0.07247082 0.49672517
v 0.08505948 0.05118265 0.40151516
v 0.07401602 -0.01005309 0.19044385
v 0.08505948 0.05118265 0.46212122
v 0.05475645 0.08148568 0.40151516
f 1 3 4
f 7 2 3
f 9 1 4
f 9 8 1
f 10 3 2
f 11 6 4
f 12 7 3
f 12 3 1
f 12 1 7
f 13 8 5
f 14 8 2
f 14 2 7
f 14 7 1
f 14 1 8
f 16 5 8
f 16 8 9
f 16 15 5
f 17 11 4
f 17 4 3
f 18 2 8
f 18 8 13
f 19 13 5
f 19 5 15
f 19 18 13
f 19 15 6
f 20 9 4
f 20 4 6
f 20 6 15
f 20 16 9
f 20 15 16
f 21 3 10
f 21 10 6
f 22 10 2
f 22 2 18
f 22 6 10
f 22 19 6
f 22 18 19
f 23 21 17
f 23 17 3
f 23 3 21
f 24 21 6
f 24 6 11
f 24 11 17
f 24 17 21