# https://github.com/mikedh/trimesh
v 0.03960493 -0.08518098 0.50757576
v 0.06990796 -0.07002947 0.40151516
v 0.05103154 -0.05050796 0.49752900
v 0.00934160 -0.05532007 0.49976957
v -0.02100113 -0.08518098 0.38636364
v 0.05016387 -0.05009231 0.34093499
v 0.05475645 -0.07002947 0.50757576
v 0.05475645 -0.08518098 0.40151516
v 0.00930190 -0.08518098 0.50757576
v 0.06174965 -0.04894503 0.40937056
v -0.02491297 -0.06623518 0.38629778
v 0.06990796 -0.07002947 0.46212122
v 0.05475645 -0.07002947 0.34090909
v 0.06088336 -0.04813445 0.46064847
v 0.00924794 -0.06958541 0.34089897
v -0.02463119 -0.06732381 0.39735946
v 0.05475645 -0.08518098 0.43181819
v 0.02445342 -0.08518098 0.38636364
f 7 3 4
f 8 1 5
f 9 5 1
f 9 7 4
f 9 1 7
f 10 2 6
f 11 4 6
f 12 7 1
f 12 3 7
f 12 2 10
f 12 8 2
f 13 6 2
f 13 2 8
f 14 10 6
f 14 6 4
f 14 4 3
f 14 12 10
f 14 3 12
f 15 11 6
f 15 5 11
f 15 13 5
f 15 6 13
f 16 9 4
f 16 4 11
f 16 11 5
f 16 5 9
f 17 12 1
f 17 1 8
f 17 8 12
f 18 13 8
f 18 8 5
f 18 5 13