# https://github.com/mikedh/trimesh
v 0.08505948 -0.08518098 0.15909091
v 0.11536251 -0.05487795 0.14393940
v 0.08505948 -0.02457492 0.21969697
v 0.08505948 0.08148568 0.15909091
v 0.09048521 -0.07704779 0.12109503
v 0.11536251 0.06633417 0.14393940
v 0.06252053 -0.07726067 0.15094642
v 0.10021099 -0.07002947 0.15909091
v 0.10021099 -0.08518098 0.14393940
v 0.11536251 -0.03972644 0.15909091
v 0.08505948 0.02087962 0.21969697
v 0.09147805 0.07571362 0.12335008
v 0.11536251 0.06633417 0.12878788
v 0.06688816 -0.02348854 0.21947167
v 0.06766729 -0.08226244 0.14137458
v 0.10620173 -0.05001319 0.12304527
v 0.11536251 0.03603114 0.15909091
v 0.06451008 0.07606689 0.15313518
v 0.10021099 0.08148568 0.14393940
v 0.06803540 0.02016729 0.21960957
v 0.08186234 -0.08214583 0.12638748
v 0.06957098 0.08107259 0.14355433
v 0.08393181 0.08044218 0.12794349
f 8 3 1
f 9 8 1
f 9 2 8
f 10 2 6
f 10 8 2
f 10 3 8
f 11 6 4
f 11 3 10
f 13 6 2
f 14 7 1
f 14 1 3
f 15 1 7
f 15 9 1
f 16 9 5
f 16 2 9
f 16 13 2
f 16 5 12
f 16 12 13
f 17 11 10
f 17 10 6
f 17 6 11
f 18 7 14
f 19 13 12
f 19 4 6
f 19 6 13
f 20 14 3
f 20 3 11
f 20 18 14
f 20 11 4
f 20 4 18
f 21 5 9
f 21 9 15
f 22 18 4
f 22 15 7
f 22 7 18
f 22 4 19
f 23 12 5
f 23 5 21
f 23 21 15
f 23 15 22
f 23 22 19
f 23 19 12