# https://github.com/mikedh/trimesh
v 0.10449590 -0.08976302 0.00784497
v 0.11172800 -0.09334626 -0.09953731
v 0.10021099 0.06633417 0.00757576
v -0.06645567 0.06633417 0.00757576
v -0.10797131 -0.09330338 -0.09851483
v 0.10021099 0.06633417 -0.09848484
v -0.10255095 -0.09008040 0.00767784
v -0.06645567 0.06633417 -0.09848484
v -0.09675870 -0.00942341 0.00757576
v -0.09675870 -0.00942341 -0.09848484
f 1 2 3
f 1 3 4
f 6 3 2
f 6 4 3
f 7 5 2
f 7 2 1
f 7 1 4
f 8 4 6
f 8 6 2
f 9 7 4
f 9 5 7
f 9 4 8
f 10 8 2
f 10 2 5
f 10 9 8
f 10 5 9