# https://github.com/mikedh/trimesh
v 0.06990796 -0.07002947 0.18939394
v 0.07232315 -0.07273054 0.14694276
v 0.06990796 0.09663720 0.15909091
v -0.05130416 0.11178871 0.15909091
v -0.09675870 -0.07002947 0.15909091
v -0.04723036 0.10095300 0.13680946
v 0.03960493 0.08148568 0.21969697
v 0.07073346 -0.00953082 0.21972311
v -0.05130416 -0.07002947 0.21969697
v 0.06440126 0.08955763 0.13822468
v -0.11191022 0.05118265 0.15909091
v -0.08790151 -0.06382088 0.13737285
v 0.05475645 0.11178871 0.15909091
v 0.06990796 0.06633417 0.20454546
v -0.06645567 -0.07002947 0.20454546
v 0.00926284 -0.06966168 0.21969598
v -0.06645567 0.06633417 0.21969697
v -0.08160719 0.09663720 0.14393940
v -0.11191022 -0.03972644 0.15909091
v -0.10098301 0.04537964 0.13588664
v 0.05475645 0.11178871 0.14393940
v 0.05819619 0.04270990 0.21835282
v -0.03615264 0.08148568 0.21969697
v -0.08160719 -0.03972644 0.21969697
v -0.08160719 0.09663720 0.15909091
v -0.10233802 -0.03619011 0.13745018
v -0.09675870 0.08148568 0.14393940
v -0.08160719 0.03603114 0.21969697
v -0.09675870 0.08148568 0.15909091
f 8 1 2
f 10 3 2
f 12 2 5
f 12 10 2
f 13 4 7
f 14 8 2
f 14 2 3
f 14 13 7
f 14 3 13
f 15 5 2
f 15 2 9
f 16 9 2
f 16 2 1
f 16 1 8
f 16 8 9
f 18 4 6
f 20 6 10
f 20 10 12
f 20 18 6
f 21 13 3
f 21 3 10
f 21 10 6
f 21 6 4
f 21 4 13
f 22 14 7
f 22 7 8
f 22 8 14
f 23 7 4
f 23 4 17
f 23 17 8
f 23 8 7
f 24 15 9
f 24 9 8
f 24 11 19
f 24 19 5
f 24 5 15
f 25 17 4
f 25 4 18
f 26 12 5
f 26 5 19
f 26 20 12
f 26 19 11
f 26 11 20
f 27 20 11
f 27 18 20
f 27 25 18
f 28 17 11
f 28 11 24
f 28 24 8
f 28 8 17
f 29 11 17
f 29 17 25
f 29 27 11
f 29 25 27