# https://github.com/mikedh/trimesh
v 0.11536251 -0.11548401 -0.03787878
v 0.16081706 -0.03972644 -0.44696969
v 0.16081706 0.02087962 -0.05303030
v 0.10021099 0.06633417 0.00757576
v 0.09561674 -0.11139060 -0.44588811
v 0.14566554 0.06633417 -0.47727272
v 0.14566554 -0.05487795 0.00757576
v 0.14566554 -0.08518098 -0.44696969
v 0.09284921 -0.10485546 -0.03859324
v 0.16081706 0.05118265 -0.43181818
v 0.09840341 0.06544837 -0.49672212
v 0.14566554 0.05118265 0.00757576
v 0.16081706 -0.02457492 -0.06818181
v 0.11536251 -0.11548401 -0.44696969
v 0.14566554 -0.08518098 -0.06818181
v 0.13051403 -0.00942341 -0.50757575
v 0.09739489 -0.09818583 0.00741864
v 0.16081706 0.03603114 -0.44696969
v 0.14566554 0.08148568 -0.29545454
v 0.16081706 -0.00942341 -0.05303030
v 0.13051403 -0.08518098 0.00757576
v 0.16081706 -0.03972644 -0.35606060
v 0.14566554 -0.00942341 -0.49242424
v 0.13051403 0.05118265 -0.50757575
v 0.10405464 -0.01120335 -0.49695982
v 0.12487938 0.07845507 -0.29549724
v 0.11536251 0.06633417 -0.50757575
v 0.14566554 0.08148568 -0.05303030
v 0.14566554 0.05118265 -0.49242424
v 0.12344036 0.06217216 0.00709490
v 0.16081706 0.03603114 -0.06818181
v 0.12254957 0.07612581 -0.05686118
v 0.16081706 0.05118265 -0.37121212
f 9 5 1
f 10 3 2
f 11 9 4
f 11 5 9
f 12 7 3
f 12 4 7
f 13 2 3
f 14 8 1
f 14 1 5
f 15 1 8
f 15 13 7
f 15 8 2
f 16 8 14
f 16 14 5
f 17 4 9
f 17 9 1
f 18 10 2
f 18 6 10
f 19 10 6
f 20 13 3
f 20 3 7
f 20 7 13
f 21 15 7
f 21 1 15
f 21 17 1
f 21 7 4
f 21 4 17
f 22 15 2
f 22 2 13
f 22 13 15
f 23 2 8
f 23 8 16
f 23 18 2
f 24 23 16
f 25 16 5
f 25 5 11
f 26 19 11
f 26 11 4
f 27 19 6
f 27 11 19
f 27 6 24
f 27 24 16
f 27 25 11
f 27 16 25
f 28 10 19
f 28 19 26
f 29 6 18
f 29 18 23
f 29 24 6
f 29 23 24
f 30 28 4
f 30 4 12
f 30 12 28
f 31 28 12
f 31 12 3
f 31 3 10
f 32 28 26
f 32 26 4
f 32 4 28
f 33 31 10
f 33 10 28
f 33 28 31