# https://github.com/mikedh/trimesh
v 0.10033636 -0.10044468 -0.35592552
v 0.10313824 -0.10417850 -0.44779937
v 0.10021099 0.06633417 -0.35606060
v 0.00930190 0.06633417 -0.35606060
v 0.00930190 -0.10033250 -0.44696969
v 0.00930190 -0.10033250 -0.35606060
v 0.07295811 0.07244333 -0.49681102
v 0.09840341 0.06544837 -0.49672212
v 0.00999510 0.06644854 -0.48533182
v 0.08505948 -0.05487795 -0.50757575
v 0.00933564 -0.00994933 -0.48481967
v 0.09996211 -0.05520625 -0.49315031
v 0.06990796 0.05118265 -0.50757575
f 1 2 3
f 1 3 4
f 6 5 2
f 6 2 1
f 6 1 4
f 6 4 5
f 7 4 3
f 8 7 3
f 8 3 2
f 9 4 7
f 10 2 5
f 11 5 4
f 11 4 9
f 11 10 5
f 12 10 8
f 12 8 2
f 12 2 10
f 13 7 8
f 13 8 10
f 13 9 7
f 13 11 9
f 13 10 11