# https://github.com/mikedh/trimesh
v 0.00930190 0.05118265 0.14393940
v 0.08505948 0.08148568 0.00757576
v 0.08505948 0.11178871 0.12878788
v -0.03615264 0.14209174 0.11363637
v -0.12472404 0.05030607 0.05284729
v 0.06990796 0.14209174 0.00757576
v -0.03615264 0.12694023 0.14393940
v 0.07861969 0.07634483 0.13915759
v 0.00930190 0.05118265 0.00757576
v 0.08505948 0.12694023 0.09848485
v -0.04771634 0.12937511 0.00705709
v 0.03960493 0.12694023 0.14393940
v -0.11191022 0.06633417 0.14393940
v 0.08505948 0.09663720 0.14393940
v -0.10098301 0.04537964 0.13588664
v 0.07874479 0.11574169 0.00688218
v 0.05475645 0.14209174 0.09848485
v -0.05130416 0.14209174 0.09848485
v -0.05130416 0.05118265 0.00757576
v 0.06990796 0.11178871 0.14393940
v -0.11655283 0.04575986 0.10841249
v 0.06990796 0.14209174 0.05303031
v 0.03960493 0.14209174 0.11363637
v -0.12706173 0.08148568 0.05303031
v -0.09675870 0.09663720 0.14393940
v -0.08160719 0.12694023 0.05303031
v -0.12706173 0.06633417 0.11363637
v -0.06645567 0.12694023 0.12878788
v -0.11191022 0.09663720 0.11363637
v -0.08160719 0.12694023 0.11363637
v -0.12706173 0.08148568 0.09848485
f 9 8 1
f 9 2 8
f 10 3 2
f 12 4 7
f 12 7 1
f 13 1 7
f 14 8 2
f 14 2 3
f 14 12 1
f 14 1 8
f 15 9 1
f 15 1 13
f 16 10 2
f 16 6 10
f 16 11 6
f 16 2 9
f 17 6 4
f 18 4 6
f 18 6 11
f 19 16 9
f 19 11 16
f 20 14 3
f 20 12 14
f 20 3 10
f 20 10 17
f 21 15 13
f 21 5 19
f 21 19 9
f 21 9 15
f 22 17 10
f 22 10 6
f 22 6 17
f 23 17 4
f 23 4 12
f 23 20 17
f 23 12 20
f 24 19 5
f 24 11 19
f 25 13 7
f 26 18 11
f 26 11 24
f 27 21 13
f 27 13 25
f 27 24 5
f 27 5 21
f 28 25 7
f 28 7 4
f 28 4 18
f 29 26 24
f 29 27 25
f 30 29 25
f 30 25 28
f 30 28 18
f 30 18 26
f 30 26 29
f 31 29 24
f 31 24 27
f 31 27 29