# https://github.com/mikedh/trimesh
v 0.36368838 0.06466527 -0.03425414
v 0.36297640 -0.07397369 -0.02784916
v 0.35201162 -0.07573664 -0.13595483
v 0.35129964 0.05683774 -0.14036906
v 0.31285176 0.19723965 -0.05173801
v 0.30210060 0.19519463 0.04528878
v 0.34731245 0.06445371 0.06147433
v 0.34738365 -0.06903741 0.06805241
v 0.31299415 -0.20386837 -0.03209030
v 0.30074781 -0.19441892 0.06510959
v 0.30174461 -0.19935520 -0.14062873
v 0.30729818 -0.07185814 -0.23670341
v 0.30523339 0.04224046 -0.23800172
v 0.30053419 0.18137304 -0.15620841
v 0.21224649 0.30407485 -0.06480762
v 0.20562492 0.29906806 0.03351746
v 0.19152737 0.27861777 0.11496456
v 0.27874708 0.18137304 0.12474515
v 0.32125333 0.05972899 0.13833408
v 0.31819174 -0.06297284 0.14344075
v 0.27561429 -0.17685987 0.14170969
v 0.21445368 -0.30449799 -0.04290952
v 0.20918490 -0.29709357 0.05420382
v 0.19387695 -0.27431616 0.13348708
v 0.20455693 -0.29117003 -0.14885134
v 0.25938073 -0.17594314 -0.24016556
v 0.23716642 -0.06177402 -0.31806397
v 0.23752241 0.02510451 -0.31797740
v 0.26002154 0.14738323 -0.25046545
v 0.17913860 0.23271036 -0.26301575
v 0.20420092 0.28214368 -0.16962424
v 0.07881813 0.35914966 -0.05952784
v 0.07817734 0.33820572 -0.16685453
v 0.07661095 0.34991175 0.03957622
v 0.07312216 0.32699332 0.12110989
v 0.06756858 0.29300350 0.18723696
v 0.17308663 0.24949370 0.18143786
v 0.24827358 0.16049963 0.18810250
v 0.28707746 0.05211302 0.19944105
v 0.28380227 -0.05634411 0.20273009
v 0.24684958 -0.15683268 0.20212421
v 0.17479542 -0.24448691 0.19675788
v 0.08422932 -0.35639945 -0.05623880
v 0.08166613 -0.34053281 -0.16018988
v 0.07675335 -0.32628813 0.11825360
v 0.08131013 -0.34814879 0.03914346
v 0.07155576 -0.29504853 0.18360171
v 0.17564982 -0.25337222 -0.24639744
v 0.19729455 -0.13927363 -0.32048747
v 0.07789254 -0.03469500 -0.47005239
v 0.10210046 -0.00500680 -0.45516515
v 0.09462449 0.02736110 -0.46001214
v 0.14161633 0.16733991 -0.33667302
v 0.07447495 0.05549790 -0.46511883
v 0.07447495 0.28644529 -0.26466030
v 0.06692778 0.21515131 -0.34333766
v -0.05019583 0.34582171 -0.15811259
v -0.05582061 0.36013690 -0.04758342
v -0.03688148 0.29850394 -0.25998640
v -0.05489502 0.34927708 0.05178031
v -0.05069423 0.32537138 0.13253498
v -0.04414385 0.29088795 0.19693097
v -0.03666788 0.25231445 0.24946913
v 0.06051980 0.25379533 0.24141961
v 0.15208270 0.21635011 0.23709193
v 0.21559289 0.13772222 0.24072719
v 0.24827358 0.04358030 0.24886325
v 0.24592398 -0.04872814 0.25111365
v 0.21566409 -0.13490149 0.25197917
v 0.15350670 -0.21007399 0.24791116
v 0.06607338 -0.25732124 0.23830369
v -0.05311503 -0.35661098 0.02607384
v -0.05418302 -0.36013690 -0.06904876
v -0.05055183 -0.33891091 -0.17066288
v 0.06998937 -0.29250985 -0.25418729
v -0.04813104 -0.33714795 0.10691506
v -0.04022787 -0.30668405 0.17451356
v -0.03040230 -0.26916832 0.23155248
v 0.13171956 -0.19505359 -0.32360339
v 0.06799577 -0.05726085 -0.46918684
v 0.06472059 -0.03377826 -0.48069850
v 0.06721257 -0.01015463 -0.48554552
v 0.07789254 0.01826424 -0.47732291
v 0.06386619 0.04118268 -0.47879431
v 0.04051267 0.05436960 -0.48303545
v 0.05717341 0.14738323 -0.40184802
v -0.01979353 0.23003066 -0.34299144
v 0.01018157 0.08088448 -0.47109103
v -0.17265943 0.30541471 -0.15456389
v -0.18348180 0.31839007 -0.04342884
v -0.14467792 0.26493722 -0.25756288
v -0.10601645 0.20612496 -0.34186625
v -0.17878261 0.30724820 0.05714664
v -0.16440025 0.28172058 0.13755509
v -0.14652911 0.25182080 0.20195112
v -0.10288366 0.18306547 0.29837200
v -0.02876470 0.21169591 0.29395777
v 0.05204703 0.21155487 0.28694692
v 0.12787478 0.17996268 0.28400409
v 0.18091860 0.11431015 0.28625447
v 0.20704891 0.03554122 0.29101494
v 0.20598091 -0.03998387 0.29283255
v 0.18198660 -0.11092527 0.29413086
v 0.13214676 -0.17439173 0.29205358
v 0.06051980 -0.21508078 0.28460994
v -0.01929514 -0.22692786 0.28010917
v -0.18198660 -0.31056255 0.02365033
v -0.16689225 -0.29462540 0.10527053
v -0.18725538 -0.31169084 -0.07285713
v -0.17621942 -0.28968912 -0.17464437
v -0.04215026 -0.28750306 -0.26154435
v 0.05261663 -0.22396609 -0.32896975
v -0.14595951 -0.26937985 0.17321526
v -0.12246359 -0.23940960 0.23146594
v -0.09718768 -0.20577237 0.28227299
v 0.05404062 -0.08391677 -0.45403993
v 0.04635105 -0.06868482 -0.47039860
v 0.06094700 -0.05183094 -0.47611114
v 0.04086867 -0.03413085 -0.49186394
v 0.03923107 0.01480884 -0.49671096
v 0.06400859 0.01424469 -0.48719004
v 0.01509435 0.04492015 -0.49420089
v -0.06721257 0.14540872 -0.40331942
v -0.01324316 0.05514530 -0.48571864
v -0.27881828 0.21515131 -0.15525632
v -0.23809201 0.18736710 -0.25816876
v -0.29199022 0.22319038 -0.04334229
v -0.17942341 0.14632545 -0.34177971
v -0.28301907 0.21515131 0.05827184
v -0.26116073 0.19780381 0.14041138
v -0.23168403 0.17523795 0.20567292
v -0.19871853 0.15069759 0.25864384
v -0.16489865 0.12636878 0.30451733
v -0.12787478 0.10070012 0.34164891
v -0.07888934 0.14660752 0.33498424
v -0.02043433 0.16839768 0.32987759
v 0.04271986 0.16719887 0.32425159
v 0.02833751 0.09202637 0.38423336
v 0.10117486 0.14068399 0.32130876
v 0.14325392 0.08934668 0.32312638
v 0.16440025 0.02785472 0.32632887
v 0.16468506 -0.03025235 0.32780030
v 0.14738351 -0.08589128 0.32935825
v 0.10986123 -0.13680549 0.32788685
v 0.05496622 -0.17114788 0.32286674
v -0.00783197 -0.18243082 0.32009700
v -0.06934857 -0.16607058 0.32156843
v -0.29975101 -0.21493974 -0.06307655
v -0.28921345 -0.21536286 0.03654684
v -0.26194394 -0.20365682 0.11816706
v -0.28579584 -0.19977832 -0.17005701
v -0.24222159 -0.16818613 -0.26517960
v -0.14873631 -0.24491002 -0.26595861
v -0.11171243 -0.18779020 -0.33987552
v -0.03111430 -0.21973500 -0.33468229
v 0.02128873 -0.07404421 -0.47316831
v -0.19252416 -0.16578850 0.23795748
v -0.22513366 -0.18370014 0.18169752
v -0.15927388 -0.14646649 0.28937042
v -0.12011400 -0.12122094 0.32901204
v 0.01986473 -0.05916484 -0.48242959
v -0.00370239 -0.03335515 -0.49497989
v 0.01701674 -0.00832116 -0.49809581
v -0.00519758 0.01565506 -0.50000000
v -0.00783197 0.04061854 -0.49229670
v -0.11925960 0.10359137 -0.40228078
v -0.03417589 0.04075957 -0.48303545
v -0.34631565 0.08469246 -0.15698740
v -0.29690301 0.07481991 -0.25955361
v -0.36098281 0.08567972 -0.04412127
v -0.22321126 0.05853018 -0.34100071
v -0.34652925 0.07947411 0.05879116
v -0.31755096 0.07002466 0.14136346
v -0.28209347 0.05937640 0.20749053
v -0.24222159 0.04844607 0.26132700
v -0.19928814 0.03772729 0.30650806
v -0.15557149 0.02764317 0.34493795
v -0.10587405 0.01657180 0.38423336
v -0.08885731 0.05451064 0.38423336
v -0.08088293 0.06861430 0.38423336
v -0.06030620 0.08292951 0.38423336
v -0.04300466 0.09329570 0.38423336
v -0.02997510 0.09590487 0.38423336
v -0.00590958 0.09879612 0.38423336
v -0.00056960 0.09816146 0.38423336
v 0.02819511 0.09209689 0.38423336
v 0.05745821 0.07284539 0.38423336
v 0.08102533 0.04590741 0.38423336
v 0.09191889 0.01473832 0.38423336
v 0.09206130 0.01431521 0.38423336
v 0.09348529 -0.01234070 0.38423336
v 0.08672131 -0.04139424 0.38423336
v 0.07048777 -0.06649875 0.38423336
v 0.06906377 -0.06783859 0.38423336
v 0.04499825 -0.08673750 0.38423336
v 0.01552155 -0.09125067 0.38423336
v -0.02000713 -0.09019289 0.38423336
v -0.05489502 -0.07714701 0.38423336
v -0.36368838 -0.07291591 -0.04922795
v -0.34916365 -0.06565253 -0.16053610
v -0.32196534 -0.07587768 0.13556436
v -0.35101482 -0.07615975 0.05264585
v -0.28373104 -0.07284539 0.20143178
v -0.30010700 -0.05444012 -0.26145780
v -0.22584565 -0.04090061 -0.34100071
v -0.18269859 -0.12855484 -0.34177971
v -0.02548951 -0.06036366 -0.47351453
v -0.00427199 -0.07157607 -0.47455320
v -0.00277679 -0.05782500 -0.48390099
v -0.24108240 -0.06776807 0.25474891
v -0.19715215 -0.06120988 0.30062240
v -0.15165550 -0.05338234 0.33896571
v -0.09362769 -0.04287512 0.38423336
v -0.02022073 -0.05352338 -0.48026574
v -0.02620151 -0.03511811 -0.48641106
v -0.03004630 -0.01093034 -0.49030596
v -0.02933430 0.01424469 -0.49246982
v -0.15037391 0.04167631 -0.40080938
v -0.04393025 0.01621921 -0.48355478
v -0.06457818 0.02094393 -0.46771544
v -0.04627985 -0.01248174 -0.48242959
v -0.05646141 -0.04837555 -0.46278188
f 1 2 3
f 1 3 4
f 1 4 5
f 1 5 6
f 1 6 7
f 1 7 8
f 1 8 2
f 2 9 3
f 2 8 10
f 2 10 9
f 3 9 11
f 3 11 12
f 3 12 4
f 4 12 13
f 4 13 14
f 4 14 5
f 5 14 15
f 5 15 16
f 5 16 6
f 6 16 17
f 6 17 18
f 6 18 7
f 7 18 19
f 7 19 8
f 8 19 20
f 8 20 21
f 8 21 10
f 9 22 11
f 9 10 23
f 9 23 22
f 10 21 24
f 10 24 23
f 11 25 26
f 11 26 12
f 11 22 25
f 12 26 27
f 12 27 28
f 12 28 13
f 13 28 29
f 13 29 14
f 14 29 30
f 14 30 31
f 14 31 15
f 15 32 16
f 15 31 33
f 15 33 32
f 16 34 35
f 16 35 17
f 16 32 34
f 17 35 36
f 17 36 37
f 17 37 18
f 18 37 38
f 18 38 39
f 18 39 19
f 19 39 20
f 20 39 40
f 20 40 41
f 20 41 21
f 21 41 42
f 21 42 24
f 22 43 44
f 22 44 25
f 22 23 43
f 23 24 45
f 23 45 46
f 23 46 43
f 24 42 47
f 24 47 45
f 25 44 48
f 25 48 26
f 26 48 49
f 26 49 27
f 27 49 50
f 27 50 51
f 27 51 28
f 28 51 52
f 28 52 29
f 29 53 30
f 29 52 54
f 29 54 53
f 30 55 31
f 30 53 54
f 30 54 56
f 30 56 55
f 31 55 33
f 32 33 57
f 32 57 58
f 32 58 34
f 33 55 59
f 33 59 57
f 34 60 35
f 34 58 60
f 35 60 61
f 35 61 36
f 36 61 62
f 36 62 63
f 36 63 64
f 36 64 65
f 36 65 37
f 37 65 38
f 38 65 66
f 38 66 39
f 39 66 67
f 39 67 68
f 39 68 40
f 40 68 69
f 40 69 41
f 41 69 70
f 41 70 42
f 42 70 71
f 42 71 47
f 43 46 72
f 43 72 73
f 43 73 44
f 44 74 75
f 44 75 48
f 44 73 74
f 45 76 46
f 45 47 77
f 45 77 76
f 46 76 72
f 47 71 78
f 47 78 77
f 48 75 79
f 48 79 49
f 49 79 80
f 49 80 50
f 50 80 81
f 50 81 82
f 50 82 51
f 51 82 83
f 51 83 52
f 52 83 54
f 54 83 84
f 54 84 85
f 54 85 86
f 54 86 56
f 55 56 87
f 55 87 59
f 56 86 88
f 56 88 87
f 57 89 90
f 57 90 58
f 57 59 91
f 57 91 89
f 58 90 60
f 59 87 92
f 59 92 91
f 60 90 93
f 60 93 61
f 61 94 95
f 61 95 62
f 61 93 94
f 62 95 63
f 63 95 96
f 63 96 97
f 63 97 64
f 64 97 98
f 64 98 99
f 64 99 65
f 65 99 66
f 66 99 100
f 66 100 67
f 67 100 101
f 67 101 102
f 67 102 68
f 68 102 103
f 68 103 69
f 69 103 104
f 69 104 70
f 70 104 105
f 70 105 71
f 71 105 106
f 71 106 78
f 72 107 73
f 72 76 108
f 72 108 107
f 73 107 109
f 73 109 74
f 74 109 110
f 74 110 111
f 74 111 75
f 75 111 112
f 75 112 79
f 76 77 113
f 76 113 108
f 77 78 114
f 77 114 113
f 78 106 115
f 78 115 114
f 79 112 116
f 79 116 80
f 80 116 117
f 80 117 118
f 80 118 81
f 81 118 119
f 81 119 82
f 82 119 120
f 82 120 121
f 82 121 83
f 83 121 84
f 84 121 120
f 84 120 85
f 85 88 86
f 85 120 122
f 85 122 88
f 87 88 123
f 87 123 92
f 88 122 124
f 88 124 123
f 89 125 90
f 89 91 126
f 89 126 125
f 90 125 127
f 90 127 93
f 91 92 128
f 91 128 126
f 92 123 128
f 93 129 130
f 93 130 94
f 93 127 129
f 94 130 95
f 95 131 132
f 95 132 96
f 95 130 131
f 96 133 134
f 96 134 135
f 96 135 97
f 96 132 133
f 97 135 136
f 97 136 98
f 98 136 137
f 98 137 99
f 99 137 138
f 99 138 139
f 99 139 140
f 99 140 100
f 100 140 141
f 100 141 101
f 101 141 142
f 101 142 102
f 102 142 143
f 102 143 103
f 103 143 144
f 103 144 104
f 104 144 145
f 104 145 105
f 105 145 146
f 105 146 106
f 106 146 147
f 106 147 115
f 107 148 109
f 107 108 149
f 107 149 148
f 108 113 150
f 108 150 149
f 109 148 151
f 109 151 110
f 110 151 152
f 110 152 153
f 110 153 111
f 111 153 154
f 111 154 155
f 111 155 112
f 112 155 156
f 112 156 117
f 112 117 116
f 113 114 157
f 113 157 158
f 113 158 150
f 114 115 159
f 114 159 157
f 115 147 160
f 115 160 159
f 117 156 161
f 117 161 119
f 117 119 118
f 119 161 162
f 119 162 163
f 119 163 120
f 120 163 164
f 120 164 122
f 122 164 165
f 122 165 124
f 123 124 166
f 123 166 128
f 124 165 167
f 124 167 166
f 125 168 127
f 125 126 169
f 125 169 168
f 126 128 169
f 127 168 170
f 127 170 129
f 128 171 169
f 128 166 171
f 129 172 130
f 129 170 172
f 130 172 173
f 130 173 131
f 131 174 132
f 131 173 174
f 132 175 133
f 132 174 175
f 133 175 176
f 133 176 177
f 133 177 134
f 134 177 178
f 134 178 179
f 134 179 180
f 134 180 135
f 135 180 181
f 135 181 182
f 135 182 136
f 136 182 183
f 136 183 184
f 136 184 185
f 136 185 137
f 137 185 186
f 137 186 138
f 138 186 185
f 138 185 184
f 138 184 183
f 138 183 182
f 138 182 181
f 138 181 180
f 138 180 179
f 138 179 178
f 138 178 213
f 138 213 198
f 138 198 197
f 138 197 196
f 138 196 195
f 138 195 194
f 138 194 193
f 138 193 192
f 138 192 191
f 138 191 190
f 138 190 189
f 138 189 188
f 138 188 187
f 138 187 139
f 139 187 140
f 140 187 188
f 140 188 141
f 141 188 189
f 141 189 190
f 141 190 191
f 141 191 142
f 142 191 192
f 142 192 143
f 143 192 193
f 143 193 144
f 144 193 194
f 144 194 195
f 144 195 145
f 145 195 196
f 145 196 146
f 146 196 197
f 146 197 147
f 147 197 198
f 147 198 160
f 148 149 199
f 148 199 200
f 148 200 151
f 149 150 201
f 149 201 202
f 149 202 199
f 150 158 203
f 150 203 201
f 151 200 204
f 151 204 152
f 152 204 205
f 152 205 206
f 152 206 153
f 153 206 154
f 154 206 207
f 154 207 208
f 154 208 155
f 155 208 156
f 156 208 209
f 156 209 161
f 157 203 158
f 157 159 210
f 157 210 203
f 159 211 210
f 159 160 212
f 159 212 211
f 160 198 213
f 160 213 212
f 161 209 162
f 162 164 163
f 162 209 214
f 162 214 215
f 162 215 216
f 162 216 164
f 164 217 165
f 164 216 217
f 165 217 167
f 166 167 218
f 166 218 171
f 167 217 219
f 167 219 220
f 167 220 218
f 168 200 170
f 168 169 204
f 168 204 200
f 169 171 204
f 170 200 199
f 170 199 202
f 170 202 172
f 171 205 204
f 171 218 205
f 172 202 201
f 172 201 173
f 173 201 174
f 174 201 203
f 174 203 175
f 175 203 210
f 175 210 176
f 176 210 211
f 176 211 177
f 177 211 212
f 177 212 178
f 178 212 213
f 205 218 221
f 205 221 222
f 205 222 206
f 206 222 207
f 207 222 214
f 207 214 208
f 208 214 209
f 214 222 215
f 215 221 216
f 215 222 221
f 216 221 217
f 217 221 219
f 218 220 221
f 219 221 220

