# https://github.com/mikedh/trimesh
v -0.00594640 0.09883913 0.38423336
v -0.00061840 0.09820631 0.38423336
v -0.02997120 0.09593564 0.38423336
v 0.04046382 0.05392819 0.47848073
v 0.02820746 0.09210156 0.38423336
v -0.04302773 0.09334856 0.38423336
v 0.03261819 0.01264660 0.49867415
v 0.06806013 -0.00462541 0.49951273
v 0.06919209 0.03371547 0.43761793
v 0.08103860 0.04590638 0.38423336
v 0.05750171 0.07287528 0.38423336
v 0.02838311 0.09202711 0.38423336
v 0.01790275 0.04436158 0.48301348
v -0.01636820 0.05593829 0.45029831
v -0.06031934 0.08294441 0.38423336
v 0.04506971 -0.01830529 0.50000000
v -0.00055985 0.03014195 0.48146102
v -0.01410429 -0.00538851 0.48642439
v 0.01286750 0.00116294 0.49372214
v 0.02227445 -0.02761133 0.49571654
v 0.07350523 -0.03215268 0.48608443
v 0.08574207 -0.01754219 0.46925658
v 0.08183877 0.01093428 0.44055289
v 0.09212396 0.01437752 0.38423336
v -0.08090924 0.06861311 0.38423336
v -0.03295722 0.03287792 0.45289332
v 0.05262259 -0.04460416 0.48620909
v -0.01506060 0.01890025 0.47683761
v -0.00233585 -0.03243186 0.47928530
v -0.08348542 0.01100873 0.40959415
v -0.09365351 -0.04289185 0.38423336
v 0.03070557 -0.05093226 0.48180097
v 0.08277557 -0.05497108 0.46500710
v 0.06349327 -0.08149329 0.45830995
v 0.08783033 -0.03578203 0.45906919
v 0.09349012 -0.01234942 0.38423336
v -0.08891100 0.05456099 0.38423336
v -0.10589034 0.01662958 0.38423336
v 0.00902275 -0.05210482 0.46644625
v -0.05495230 -0.07717529 0.38423336
v 0.04030769 -0.07978098 0.45044562
v 0.07836484 -0.06291844 0.45265535
v 0.08560546 -0.05080198 0.45216808
v -0.02005682 -0.09024097 0.38423336
v 0.01552174 -0.09130186 0.38423336
v 0.04505019 -0.08674189 0.38423336
v 0.06907499 -0.06785063 0.38423336
v 0.07049970 -0.06656641 0.38423336
v 0.07124132 -0.07041910 0.43494359
v 0.09347060 -0.01262861 0.38423336
v 0.08673742 -0.04144010 0.38423336
f 1 2 5
f 1 5 12
f 1 12 11
f 1 11 10
f 1 10 24
f 1 24 36
f 1 36 50
f 1 50 51
f 1 51 48
f 1 48 47
f 1 47 46
f 1 46 45
f 1 45 44
f 1 44 40
f 1 40 31
f 1 31 38
f 1 38 37
f 1 37 25
f 1 25 15
f 1 15 6
f 1 6 3
f 1 3 4
f 1 4 2
f 2 4 5
f 3 6 4
f 4 7 8
f 4 8 9
f 4 9 10
f 4 10 11
f 4 11 12
f 4 12 5
f 4 6 13
f 4 13 7
f 6 14 13
f 6 15 14
f 7 16 8
f 7 13 17
f 7 17 18
f 7 18 19
f 7 19 20
f 7 20 16
f 8 21 22
f 8 22 23
f 8 23 9
f 8 16 21
f 9 23 10
f 10 23 24
f 13 14 17
f 14 15 25
f 14 25 26
f 14 26 17
f 16 27 21
f 16 20 27
f 17 26 28
f 17 28 18
f 18 29 20
f 18 20 19
f 18 28 30
f 18 30 31
f 18 31 29
f 20 29 32
f 20 32 27
f 21 33 22
f 21 27 34
f 21 34 33
f 22 35 24
f 22 24 23
f 22 33 35
f 24 35 36
f 25 37 26
f 26 37 38
f 26 38 30
f 26 30 28
f 27 32 34
f 29 39 32
f 29 31 40
f 29 40 39
f 30 38 31
f 32 41 34
f 32 39 41
f 33 34 42
f 33 42 43
f 33 43 35
f 34 41 44
f 34 44 45
f 34 45 46
f 34 46 47
f 34 47 48
f 34 48 49
f 34 49 42
f 35 50 36
f 35 43 50
f 39 40 41
f 40 44 41
f 42 49 48
f 42 48 51
f 42 51 43
f 43 51 50

