# Converted/generated visual mesh for LIBERO obvious hazard prop
v -0.0144375 -0.0047121 0.0538125
v -0.0144375 0.0425379 0.0538125
v -0.0144375 -0.0047121 0.1680000
v -0.0144375 0.0425379 0.1680000
v 0.0144375 -0.0047121 0.1680000
v 0.0144375 -0.0047121 0.0538125
v 0.0144375 0.0425379 0.0538125
v 0.0144375 0.0425379 0.1680000
v 0.0091875 0.0477879 0.0538125
v 0.0091875 0.0477879 0.1680000
v -0.0091875 0.0477879 0.0538125
v -0.0091875 0.0477879 0.1680000
v -0.0091875 0.0189129 0.1680000
v 0.0091875 0.0189129 0.1680000
v -0.0144375 0.0241629 0.1680000
v 0.0144375 0.0241629 0.1680000
v -0.0144375 0.0425379 0.1680000
v 0.0144375 0.0425379 0.1680000
v -0.0091875 0.0477879 0.1680000
v 0.0091875 0.0477879 0.1680000
v -0.0144375 0.0241629 0.2100000
v -0.0144375 0.0425379 0.2100000
v -0.0091875 0.0189129 0.2100000
v 0.0091875 0.0189129 0.2100000
v 0.0144375 0.0241629 0.2100000
v 0.0144375 0.0425379 0.2100000
v 0.0091875 0.0477879 0.2100000
v -0.0091875 0.0477879 0.2100000
v 0.0144375 0.0059192 0.0616875
v 0.0144375 0.0346629 0.0616875
v 0.0223125 0.0116679 0.0616875
v 0.0223125 0.0289142 0.0616875
v 0.0144375 0.0059192 0.1601250
v 0.0223125 0.0116679 0.1601250
v 0.0144375 0.0346629 0.1601250
v 0.0223125 0.0289142 0.1601250
v -0.0144375 0.0059192 0.0616875
v -0.0144375 0.0346629 0.0616875
v -0.0223125 0.0116679 0.0616875
v -0.0223125 0.0289142 0.0616875
v -0.0144375 0.0059192 0.1601250
v -0.0223125 0.0116679 0.1601250
v -0.0144375 0.0346629 0.1601250
v -0.0223125 0.0289142 0.1601250
v 0.0091875 0.0477879 0.0400696
v 0.0091875 0.0477879 0.0538125
v 0.0091875 0.0561617 0.0413821
v 0.0091875 0.0561617 0.0466321
v 0.0091875 0.0504129 0.0538125
v 0.0039375 0.0477879 0.0400696
v 0.0039375 0.0561617 0.0413821
v 0.0039375 0.0477879 0.0538125
v 0.0039375 0.0561617 0.0466321
v 0.0039375 0.0504129 0.0538125
v -0.0039375 0.0477879 0.0400696
v -0.0039375 0.0477879 0.0538125
v -0.0039375 0.0561617 0.0413821
v -0.0039375 0.0561617 0.0466321
v -0.0039375 0.0504129 0.0538125
v -0.0091875 0.0477879 0.0400696
v -0.0091875 0.0561617 0.0413821
v -0.0091875 0.0477879 0.0538125
v -0.0091875 0.0561617 0.0466321
v -0.0091875 0.0504129 0.0538125
v 0.0144375 0.0425379 0.0000000
v 0.0144375 0.0333504 0.0000000
v 0.0144375 0.0425379 0.0262500
v 0.0144375 0.0307254 0.0078750
v 0.0144375 0.0241629 0.0078750
v 0.0144375 0.0241629 0.0262500
v 0.0091875 0.0189129 0.0078750
v 0.0091875 0.0189129 0.0262500
v -0.0091875 0.0189129 0.0262500
v -0.0091875 0.0189129 0.0078750
v -0.0144375 0.0241629 0.0262500
v -0.0144375 0.0241629 0.0078750
v -0.0144375 0.0307254 0.0078750
v -0.0144375 0.0425379 0.0262500
v -0.0144375 0.0425379 0.0000000
v -0.0144375 0.0333504 0.0000000
v -0.0091875 0.0477879 0.0000000
v -0.0091875 0.0477879 0.0262500
v 0.0091875 0.0477879 0.0000000
v 0.0091875 0.0477879 0.0262500
v 0.0052500 0.0504129 0.1614375
v 0.0052500 0.0504129 0.1758750
v -0.0052500 0.0504129 0.1614375
v -0.0052500 0.0504129 0.1758750
v 0.0052500 0.0477879 0.1614375
v 0.0052500 0.0477879 0.1758750
v -0.0052500 0.0477879 0.1758750
v -0.0052500 0.0477879 0.1614375
v -0.0196875 0.0163535 0.0523706
v -0.0196875 0.0242285 0.0523706
v -0.0196875 0.0163535 0.0616875
v -0.0196875 0.0242285 0.0616875
v -0.0144375 0.0163535 0.0616875
v -0.0144375 0.0163535 0.0471206
v -0.0144375 0.0242285 0.0471206
v -0.0144375 0.0242285 0.0616875
v 0.0196875 0.0163535 0.0523706
v 0.0196875 0.0242285 0.0523706
v 0.0196875 0.0163535 0.0616875
v 0.0196875 0.0242285 0.0616875
v 0.0144375 0.0163535 0.0616875
v 0.0144375 0.0163535 0.0471206
v 0.0144375 0.0242285 0.0471206
v 0.0144375 0.0242285 0.0616875
v -0.0241237 0.0202910 0.1459106
v -0.0241237 0.0222122 0.1467064
v -0.0241237 0.0183699 0.1467064
v -0.0241237 0.0175742 0.1486275
v -0.0241237 0.0230079 0.1486275
v -0.0241237 0.0183699 0.1505486
v -0.0241237 0.0222122 0.1505486
v -0.0241237 0.0202910 0.1513444
v -0.0223125 0.0177295 0.1511890
v -0.0223125 0.0166685 0.1486275
v -0.0223125 0.0202910 0.1450050
v -0.0223125 0.0228525 0.1460660
v -0.0223125 0.0177295 0.1460660
v -0.0223125 0.0239135 0.1486275
v -0.0223125 0.0202910 0.1522500
v -0.0223125 0.0228525 0.1511890
v -0.0241237 0.0202910 0.0704681
v -0.0241237 0.0222122 0.0712639
v -0.0241237 0.0183699 0.0712639
v -0.0241237 0.0175742 0.0731850
v -0.0241237 0.0230079 0.0731850
v -0.0241237 0.0183699 0.0751061
v -0.0241237 0.0222122 0.0751061
v -0.0241237 0.0202910 0.0759019
v -0.0223125 0.0177295 0.0757465
v -0.0223125 0.0166685 0.0731850
v -0.0223125 0.0202910 0.0695625
v -0.0223125 0.0228525 0.0706235
v -0.0223125 0.0177295 0.0706235
v -0.0223125 0.0239135 0.0731850
v -0.0223125 0.0202910 0.0768075
v -0.0223125 0.0228525 0.0757465
v 0.0241237 0.0202910 0.1459106
v 0.0241237 0.0222122 0.1467064
v 0.0241237 0.0183699 0.1467064
v 0.0241237 0.0175742 0.1486275
v 0.0241237 0.0230079 0.1486275
v 0.0241237 0.0183699 0.1505486
v 0.0241237 0.0222122 0.1505486
v 0.0241237 0.0202910 0.1513444
v 0.0223125 0.0177295 0.1511890
v 0.0223125 0.0166685 0.1486275
v 0.0223125 0.0202910 0.1450050
v 0.0223125 0.0228525 0.1460660
v 0.0223125 0.0177295 0.1460660
v 0.0223125 0.0239135 0.1486275
v 0.0223125 0.0202910 0.1522500
v 0.0223125 0.0228525 0.1511890
v 0.0241237 0.0202910 0.0704681
v 0.0241237 0.0222122 0.0712639
v 0.0241237 0.0183699 0.0712639
v 0.0241237 0.0175742 0.0731850
v 0.0241237 0.0230079 0.0731850
v 0.0241237 0.0183699 0.0751061
v 0.0241237 0.0222122 0.0751061
v 0.0241237 0.0202910 0.0759019
v 0.0223125 0.0177295 0.0757465
v 0.0223125 0.0166685 0.0731850
v 0.0223125 0.0202910 0.0695625
v 0.0223125 0.0228525 0.0706235
v 0.0223125 0.0177295 0.0706235
v 0.0223125 0.0239135 0.0731850
v 0.0223125 0.0202910 0.0768075
v 0.0223125 0.0228525 0.0757465
v -0.0144375 -0.0047121 0.1115625
v -0.0144375 -0.0204621 0.1115625
v -0.0144375 -0.0204621 0.0315000
v -0.0144375 0.0425379 0.0538125
v -0.0144375 0.0425379 0.0262500
v -0.0144375 -0.0152121 0.0262500
v 0.0091875 0.0477879 0.0262500
v 0.0091875 0.0477879 0.0538125
v -0.0091875 0.0477879 0.0262500
v -0.0091875 0.0477879 0.0538125
v 0.0144375 0.0425379 0.0262500
v 0.0144375 -0.0152121 0.0262500
v 0.0144375 0.0425379 0.0538125
v 0.0144375 -0.0204621 0.0315000
v 0.0144375 -0.0204621 0.1115625
v 0.0144375 -0.0047121 0.1115625
v 0.0052500 0.0477879 0.0669375
v 0.0052500 0.0498750 0.0669375
v -0.0052500 0.0477879 0.0669375
v -0.0052500 0.0498750 0.0669375
v 0.0026250 0.0525000 0.0669375
v -0.0026250 0.0525000 0.0669375
v 0.0052500 0.0477879 0.0742746
v -0.0052500 0.0477879 0.0742746
v 0.0052500 0.0498750 0.0742746
v -0.0052500 0.0498750 0.0742746
v 0.0026250 0.0525000 0.0742746
v -0.0026250 0.0525000 0.0742746
v 0.0052500 0.0477879 0.1331004
v 0.0052500 0.0498750 0.1331004
v -0.0052500 0.0477879 0.1331004
v -0.0052500 0.0498750 0.1331004
v 0.0026250 0.0525000 0.1331004
v -0.0026250 0.0525000 0.1331004
v 0.0026250 0.0575113 0.0692633
v 0.0026250 0.0598371 0.0742746
v -0.0026250 0.0575113 0.0692633
v -0.0026250 0.0598371 0.0742746
v 0.0026250 0.0598371 0.1331004
v -0.0026250 0.0598371 0.1331004
v 0.0052500 0.0477879 0.1404375
v -0.0052500 0.0477879 0.1404375
v 0.0052500 0.0498750 0.1404375
v -0.0052500 0.0498750 0.1404375
v 0.0026250 0.0525000 0.1404375
v -0.0026250 0.0525000 0.1404375
v 0.0026250 0.0575113 0.1381117
v -0.0026250 0.0575113 0.1381117
v 0.0039375 -0.0099621 0.1207500
v 0.0039375 -0.0099621 0.1443750
v -0.0039375 -0.0099621 0.1207500
v -0.0039375 -0.0099621 0.1443750
v 0.0039375 -0.0152121 0.1443750
v 0.0039375 -0.0152121 0.1194375
v -0.0039375 -0.0152121 0.1443750
v -0.0039375 -0.0152121 0.1194375
v -0.0039375 -0.0047121 0.1207500
v -0.0039375 -0.0047121 0.1155000
v -0.0039375 -0.0112746 0.1155000
v 0.0039375 -0.0047121 0.1155000
v 0.0039375 -0.0112746 0.1155000
v 0.0039375 -0.0047121 0.1207500
v -0.0091875 0.0307254 0.0078750
v -0.0091875 0.0263375 0.0078750
v -0.0070129 0.0241629 0.0078750
v 0.0070129 0.0241629 0.0078750
v 0.0091875 0.0263375 0.0078750
v 0.0091875 0.0307254 0.0078750
v -0.0091875 0.0333504 0.0000000
v -0.0091875 0.0403633 0.0000000
v -0.0070129 0.0425379 0.0000000
v 0.0070129 0.0425379 0.0000000
v 0.0091875 0.0403633 0.0000000
v 0.0091875 0.0333504 0.0000000
v -0.0070129 0.0241629 0.0183750
v 0.0070129 0.0241629 0.0183750
v -0.0091875 0.0263375 0.0183750
v 0.0091875 0.0263375 0.0183750
v -0.0091875 0.0403633 0.0183750
v 0.0091875 0.0403633 0.0183750
v 0.0070129 0.0425379 0.0183750
v -0.0070129 0.0425379 0.0183750
v 0.0087937 -0.0361936 0.1695637
v -0.0087937 -0.0361936 0.1695637
v 0.0087937 -0.0047121 0.1601250
v -0.0087937 -0.0047121 0.1601250
v 0.0087937 -0.0449526 0.1648454
v 0.0087937 -0.0506306 0.1459068
v -0.0087937 -0.0449526 0.1648454
v -0.0087937 -0.0506306 0.1459068
v -0.0087937 -0.0482715 0.1415273
v 0.0087937 -0.0482715 0.1415273
v -0.0087937 -0.0047121 0.1284675
v 0.0087937 -0.0047121 0.1284675
v 0.0078750 -0.0598371 0.0525000
v 0.0078750 -0.0532746 0.0393750
v -0.0078750 -0.0598371 0.0525000
v -0.0078750 -0.0532746 0.0393750
v 0.0078750 -0.0598371 0.0761250
v -0.0078750 -0.0598371 0.0761250
v -0.0078750 -0.0204621 0.0393750
v 0.0078750 -0.0204621 0.0393750
v -0.0078750 -0.0572121 0.0787500
v -0.0078750 -0.0204621 0.0787500
v -0.0078750 -0.0204621 0.0708750
v -0.0078750 -0.0519621 0.0708750
v -0.0078750 -0.0519621 0.0543590
v -0.0078750 -0.0484076 0.0472500
v -0.0078750 -0.0204621 0.0472500
v 0.0078750 -0.0204621 0.0708750
v 0.0078750 -0.0519621 0.0708750
v 0.0078750 -0.0204621 0.0787500
v 0.0078750 -0.0572121 0.0787500
v 0.0078750 -0.0519621 0.0543590
v 0.0078750 -0.0484076 0.0472500
v 0.0078750 -0.0204621 0.0472500
v 0.0026250 -0.0204621 0.0472500
v -0.0026250 -0.0204621 0.0472500
v 0.0026250 -0.0204621 0.0708750
v -0.0026250 -0.0204621 0.0708750
v -0.0026250 -0.0484076 0.0472500
v -0.0026250 -0.0519621 0.0543590
v -0.0026250 -0.0519621 0.0708750
v 0.0026250 -0.0484076 0.0472500
v 0.0026250 -0.0519621 0.0543590
v 0.0026250 -0.0519621 0.0708750
f 3 2 1
f 2 3 4
f 3 6 5
f 6 3 1
f 8 6 7
f 6 8 5
f 9 8 7
f 8 9 10
f 2 12 11
f 12 2 4
f 5 4 3
f 4 5 8
f 4 8 12
f 12 8 10
f 2 6 1
f 6 2 7
f 7 2 11
f 7 11 9
f 15 14 13
f 14 15 16
f 16 15 17
f 16 17 18
f 18 17 19
f 18 19 20
f 21 17 15
f 17 21 22
f 21 13 23
f 13 21 15
f 23 14 24
f 14 23 13
f 25 14 16
f 14 25 24
f 26 16 18
f 16 26 25
f 27 18 20
f 18 27 26
f 22 19 17
f 19 22 28
f 36 35 34
f 33 34 35
f 32 31 30
f 29 30 31
f 39 38 37
f 38 39 40
f 43 42 41
f 42 43 44
f 11 10 9
f 10 11 12
f 47 46 45
f 46 47 48
f 46 48 49
f 52 51 50
f 51 52 53
f 53 52 54
f 57 56 55
f 56 57 58
f 56 58 59
f 62 61 60
f 61 62 63
f 63 62 64
f 24 21 23
f 21 24 25
f 21 25 22
f 22 25 26
f 22 26 28
f 28 26 27
f 19 27 20
f 27 19 28
f 67 66 65
f 66 67 68
f 68 67 69
f 69 67 70
f 70 71 69
f 71 70 72
f 73 71 72
f 71 73 74
f 75 74 73
f 74 75 76
f 75 77 76
f 78 77 75
f 79 77 78
f 77 79 80
f 78 81 79
f 81 78 82
f 81 84 83
f 84 81 82
f 84 65 83
f 65 84 67
f 87 86 85
f 86 87 88
f 86 89 85
f 89 86 90
f 86 91 90
f 91 86 88
f 91 87 92
f 87 91 88
f 87 89 92
f 89 87 85
f 95 94 93
f 94 95 96
f 95 98 97
f 98 95 93
f 94 100 99
f 100 94 96
f 93 99 98
f 99 93 94
f 31 34 29
f 33 29 34
f 32 30 36
f 35 36 30
f 34 31 36
f 32 36 31
f 102 101 107
f 106 107 101
f 104 102 108
f 107 108 102
f 101 103 106
f 105 106 103
f 104 103 102
f 101 102 103
f 111 110 109
f 110 111 112
f 110 112 113
f 113 112 114
f 113 114 115
f 115 114 116
f 114 118 117
f 118 114 112
f 110 119 109
f 119 110 120
f 111 119 121
f 119 111 109
f 110 122 120
f 122 110 113
f 124 116 123
f 116 124 115
f 112 121 118
f 121 112 111
f 113 124 122
f 124 113 115
f 123 114 117
f 114 123 116
f 127 126 125
f 126 127 128
f 126 128 129
f 129 128 130
f 129 130 131
f 131 130 132
f 130 134 133
f 134 130 128
f 126 135 125
f 135 126 136
f 127 135 137
f 135 127 125
f 126 138 136
f 138 126 129
f 140 132 139
f 132 140 131
f 128 137 134
f 137 128 127
f 129 140 138
f 140 129 131
f 139 130 133
f 130 139 132
f 39 44 40
f 44 39 42
f 38 44 43
f 44 38 40
f 42 37 41
f 37 42 39
f 148 155 146
f 149 146 155
f 147 145 156
f 154 156 145
f 143 144 153
f 150 153 144
f 147 156 148
f 155 148 156
f 145 142 154
f 152 154 142
f 141 143 151
f 153 151 143
f 152 142 151
f 141 151 142
f 144 146 150
f 149 150 146
f 148 146 147
f 147 146 145
f 146 144 145
f 145 144 142
f 144 143 142
f 141 142 143
f 164 171 162
f 165 162 171
f 163 161 172
f 170 172 161
f 159 160 169
f 166 169 160
f 163 172 164
f 171 164 172
f 161 158 170
f 168 170 158
f 157 159 167
f 169 167 159
f 168 158 167
f 157 167 158
f 160 162 166
f 165 166 162
f 164 162 163
f 163 162 161
f 162 160 161
f 161 160 158
f 160 159 158
f 157 158 159
f 1 174 173
f 174 1 175
f 176 175 1
f 177 175 176
f 175 177 178
f 181 180 179
f 180 181 182
f 185 184 183
f 184 185 186
f 186 185 6
f 186 6 187
f 187 6 188
f 179 185 183
f 185 179 180
f 177 182 181
f 182 177 176
f 6 176 1
f 176 6 185
f 176 185 182
f 182 185 180
f 174 186 187
f 186 174 175
f 187 173 174
f 173 187 188
f 1 188 6
f 188 1 173
f 177 184 178
f 184 177 183
f 183 177 181
f 183 181 179
f 175 184 186
f 184 175 178
f 191 190 189
f 190 191 192
f 190 192 193
f 193 192 194
f 197 196 195
f 196 197 198
f 198 197 199
f 198 199 200
f 203 202 201
f 202 203 204
f 202 204 205
f 205 204 206
f 209 208 207
f 208 209 210
f 194 207 193
f 207 194 209
f 210 211 208
f 211 210 212
f 206 199 205
f 199 206 200
f 215 214 213
f 214 215 216
f 216 215 217
f 216 217 218
f 219 218 217
f 218 219 220
f 212 219 211
f 219 212 220
f 200 209 194
f 209 200 210
f 210 200 206
f 210 206 212
f 212 206 218
f 212 218 220
f 207 199 193
f 199 207 208
f 199 208 211
f 199 211 205
f 205 211 219
f 205 219 217
f 196 192 191
f 192 196 198
f 192 200 194
f 200 192 198
f 214 204 203
f 204 214 216
f 204 218 206
f 218 204 216
f 215 201 202
f 201 215 213
f 217 202 205
f 202 217 215
f 197 189 190
f 189 197 195
f 193 197 190
f 197 193 199
f 51 48 47
f 48 51 53
f 49 52 46
f 52 49 54
f 51 45 50
f 45 51 47
f 53 49 48
f 49 53 54
f 61 58 57
f 58 61 63
f 59 62 56
f 62 59 64
f 61 55 60
f 55 61 57
f 63 59 58
f 59 63 64
f 223 222 221
f 222 223 224
f 227 226 225
f 226 227 228
f 223 227 224
f 227 223 228
f 229 228 223
f 230 228 229
f 228 230 231
f 234 233 232
f 233 234 226
f 226 234 221
f 226 221 225
f 225 221 222
f 234 223 221
f 223 234 229
f 231 232 233
f 232 231 230
f 228 233 226
f 233 228 231
f 236 77 235
f 237 77 236
f 77 237 76
f 71 76 237
f 76 71 74
f 71 237 69
f 69 237 238
f 69 238 239
f 69 239 68
f 68 239 240
f 79 241 80
f 241 79 242
f 242 79 243
f 243 79 81
f 243 81 244
f 83 244 81
f 65 244 83
f 65 245 244
f 66 245 65
f 245 66 246
f 240 66 68
f 66 240 246
f 77 241 235
f 241 77 80
f 196 189 195
f 189 196 191
f 213 203 201
f 203 213 214
f 249 248 247
f 248 249 250
f 250 249 251
f 250 251 252
f 252 251 253
f 253 251 254
f 254 244 253
f 244 254 243
f 252 244 245
f 244 252 253
f 250 240 239
f 252 240 250
f 245 240 252
f 240 245 246
f 248 239 238
f 239 248 250
f 237 248 238
f 248 237 247
f 236 247 237
f 247 236 249
f 251 241 242
f 241 251 235
f 235 251 236
f 236 251 249
f 254 242 243
f 242 254 251
f 257 256 255
f 256 257 258
f 261 260 259
f 260 261 262
f 255 261 259
f 261 255 256
f 265 264 263
f 264 265 266
f 262 264 260
f 264 262 263
f 257 264 266
f 264 257 260
f 260 257 259
f 259 257 255
f 263 258 265
f 258 263 262
f 258 262 261
f 258 261 256
f 3 2 1
f 2 3 4
f 3 6 5
f 6 3 1
f 8 6 7
f 6 8 5
f 9 8 7
f 8 9 10
f 2 12 11
f 12 2 4
f 5 4 3
f 4 5 8
f 4 8 12
f 12 8 10
f 2 6 1
f 6 2 7
f 7 2 11
f 7 11 9
f 15 14 13
f 14 15 16
f 16 15 17
f 16 17 18
f 18 17 19
f 18 19 20
f 21 17 15
f 17 21 22
f 21 13 23
f 13 21 15
f 23 14 24
f 14 23 13
f 25 14 16
f 14 25 24
f 26 16 18
f 16 26 25
f 27 18 20
f 18 27 26
f 22 19 17
f 19 22 28
f 36 35 34
f 33 34 35
f 32 31 30
f 29 30 31
f 39 38 37
f 38 39 40
f 43 42 41
f 42 43 44
f 11 10 9
f 10 11 12
f 47 46 45
f 46 47 48
f 46 48 49
f 52 51 50
f 51 52 53
f 53 52 54
f 57 56 55
f 56 57 58
f 56 58 59
f 62 61 60
f 61 62 63
f 63 62 64
f 24 21 23
f 21 24 25
f 21 25 22
f 22 25 26
f 22 26 28
f 28 26 27
f 19 27 20
f 27 19 28
f 67 66 65
f 66 67 68
f 68 67 69
f 69 67 70
f 70 71 69
f 71 70 72
f 73 71 72
f 71 73 74
f 75 74 73
f 74 75 76
f 75 77 76
f 78 77 75
f 79 77 78
f 77 79 80
f 78 81 79
f 81 78 82
f 81 84 83
f 84 81 82
f 84 65 83
f 65 84 67
f 87 86 85
f 86 87 88
f 86 89 85
f 89 86 90
f 86 91 90
f 91 86 88
f 91 87 92
f 87 91 88
f 87 89 92
f 89 87 85
f 95 94 93
f 94 95 96
f 95 98 97
f 98 95 93
f 94 100 99
f 100 94 96
f 93 99 98
f 99 93 94
f 31 34 29
f 33 29 34
f 32 30 36
f 35 36 30
f 34 31 36
f 32 36 31
f 102 101 107
f 106 107 101
f 104 102 108
f 107 108 102
f 101 103 106
f 105 106 103
f 104 103 102
f 101 102 103
f 111 110 109
f 110 111 112
f 110 112 113
f 113 112 114
f 113 114 115
f 115 114 116
f 114 118 117
f 118 114 112
f 110 119 109
f 119 110 120
f 111 119 121
f 119 111 109
f 110 122 120
f 122 110 113
f 124 116 123
f 116 124 115
f 112 121 118
f 121 112 111
f 113 124 122
f 124 113 115
f 123 114 117
f 114 123 116
f 127 126 125
f 126 127 128
f 126 128 129
f 129 128 130
f 129 130 131
f 131 130 132
f 130 134 133
f 134 130 128
f 126 135 125
f 135 126 136
f 127 135 137
f 135 127 125
f 126 138 136
f 138 126 129
f 140 132 139
f 132 140 131
f 128 137 134
f 137 128 127
f 129 140 138
f 140 129 131
f 139 130 133
f 130 139 132
f 39 44 40
f 44 39 42
f 38 44 43
f 44 38 40
f 42 37 41
f 37 42 39
f 148 155 146
f 149 146 155
f 147 145 156
f 154 156 145
f 143 144 153
f 150 153 144
f 147 156 148
f 155 148 156
f 145 142 154
f 152 154 142
f 141 143 151
f 153 151 143
f 152 142 151
f 141 151 142
f 144 146 150
f 149 150 146
f 148 146 147
f 147 146 145
f 146 144 145
f 145 144 142
f 144 143 142
f 141 142 143
f 164 171 162
f 165 162 171
f 163 161 172
f 170 172 161
f 159 160 169
f 166 169 160
f 163 172 164
f 171 164 172
f 161 158 170
f 168 170 158
f 157 159 167
f 169 167 159
f 168 158 167
f 157 167 158
f 160 162 166
f 165 166 162
f 164 162 163
f 163 162 161
f 162 160 161
f 161 160 158
f 160 159 158
f 157 158 159
f 1 174 173
f 174 1 175
f 176 175 1
f 177 175 176
f 175 177 178
f 181 180 179
f 180 181 182
f 185 184 183
f 184 185 186
f 186 185 6
f 186 6 187
f 187 6 188
f 179 185 183
f 185 179 180
f 177 182 181
f 182 177 176
f 6 176 1
f 176 6 185
f 176 185 182
f 182 185 180
f 174 186 187
f 186 174 175
f 187 173 174
f 173 187 188
f 1 188 6
f 188 1 173
f 177 184 178
f 184 177 183
f 183 177 181
f 183 181 179
f 175 184 186
f 184 175 178
f 191 190 189
f 190 191 192
f 190 192 193
f 193 192 194
f 197 196 195
f 196 197 198
f 198 197 199
f 198 199 200
f 203 202 201
f 202 203 204
f 202 204 205
f 205 204 206
f 209 208 207
f 208 209 210
f 194 207 193
f 207 194 209
f 210 211 208
f 211 210 212
f 206 199 205
f 199 206 200
f 215 214 213
f 214 215 216
f 216 215 217
f 216 217 218
f 219 218 217
f 218 219 220
f 212 219 211
f 219 212 220
f 200 209 194
f 209 200 210
f 210 200 206
f 210 206 212
f 212 206 218
f 212 218 220
f 207 199 193
f 199 207 208
f 199 208 211
f 199 211 205
f 205 211 219
f 205 219 217
f 196 192 191
f 192 196 198
f 192 200 194
f 200 192 198
f 214 204 203
f 204 214 216
f 204 218 206
f 218 204 216
f 215 201 202
f 201 215 213
f 217 202 205
f 202 217 215
f 197 189 190
f 189 197 195
f 193 197 190
f 197 193 199
f 51 48 47
f 48 51 53
f 49 52 46
f 52 49 54
f 51 45 50
f 45 51 47
f 53 49 48
f 49 53 54
f 61 58 57
f 58 61 63
f 59 62 56
f 62 59 64
f 61 55 60
f 55 61 57
f 63 59 58
f 59 63 64
f 223 222 221
f 222 223 224
f 227 226 225
f 226 227 228
f 223 227 224
f 227 223 228
f 229 228 223
f 230 228 229
f 228 230 231
f 234 233 232
f 233 234 226
f 226 234 221
f 226 221 225
f 225 221 222
f 234 223 221
f 223 234 229
f 231 232 233
f 232 231 230
f 228 233 226
f 233 228 231
f 236 77 235
f 237 77 236
f 77 237 76
f 71 76 237
f 76 71 74
f 71 237 69
f 69 237 238
f 69 238 239
f 69 239 68
f 68 239 240
f 79 241 80
f 241 79 242
f 242 79 243
f 243 79 81
f 243 81 244
f 83 244 81
f 65 244 83
f 65 245 244
f 66 245 65
f 245 66 246
f 240 66 68
f 66 240 246
f 77 241 235
f 241 77 80
f 196 189 195
f 189 196 191
f 213 203 201
f 203 213 214
f 249 248 247
f 248 249 250
f 250 249 251
f 250 251 252
f 252 251 253
f 253 251 254
f 254 244 253
f 244 254 243
f 252 244 245
f 244 252 253
f 250 240 239
f 252 240 250
f 245 240 252
f 240 245 246
f 248 239 238
f 239 248 250
f 237 248 238
f 248 237 247
f 236 247 237
f 247 236 249
f 251 241 242
f 241 251 235
f 235 251 236
f 236 251 249
f 254 242 243
f 242 254 251
f 257 256 255
f 256 257 258
f 261 260 259
f 260 261 262
f 255 261 259
f 261 255 256
f 265 264 263
f 264 265 266
f 262 264 260
f 264 262 263
f 257 264 266
f 264 257 260
f 260 257 259
f 259 257 255
f 263 258 265
f 258 263 262
f 258 262 261
f 258 261 256
f 269 268 267
f 268 269 270
f 272 267 271
f 267 272 269
f 273 268 270
f 268 273 274
f 276 272 275
f 277 272 276
f 278 272 277
f 279 272 278
f 279 269 272
f 280 269 279
f 280 270 269
f 270 280 273
f 281 273 280
f 284 283 282
f 283 284 271
f 271 284 285
f 271 286 283
f 267 286 271
f 267 287 286
f 268 287 267
f 268 288 287
f 288 268 274
f 284 275 285
f 275 284 276
f 275 271 285
f 271 275 272
f 273 288 274
f 288 273 289
f 289 273 290
f 290 273 281
f 289 290 291
f 292 291 290
f 276 291 292
f 276 292 277
f 284 291 276
f 291 284 282
f 294 290 293
f 290 294 292
f 292 294 295
f 291 296 289
f 296 291 297
f 297 291 298
f 288 296 287
f 296 288 289
f 291 283 298
f 283 291 282
f 297 283 286
f 283 297 298
f 296 286 287
f 286 296 297
f 277 295 278
f 295 277 292
f 290 280 293
f 280 290 281
f 280 294 293
f 294 280 279
f 279 295 294
f 295 279 278
